<svg width="842" height="596" viewBox="0 0 842 596" fill="none" xmlns="http://www.w3.org/2000/svg">
<g clip-path="url(#clip0_525_5785)">
<path d="M841.89 554.83H0V575.05H841.89V554.83Z" fill="#A3B9E6"/>
<path d="M7.84998 595.28L16.8 575.05H25.44L16.49 595.28H7.84998Z" fill="#85A0D8"/>
<path d="M40.61 595.28L49.56 575.05H58.21L49.26 595.28H40.61Z" fill="#85A0D8"/>
<path d="M294.57 404.29C279.86 404.29 266 399.49 254.47 390.4C253.89 389.94 253.79 389.1 254.25 388.52C254.71 387.94 255.55 387.84 256.13 388.3C267.18 397.01 280.47 401.61 294.56 401.61C328.81 401.61 356.68 373.74 356.68 339.49C356.68 305.24 328.81 277.37 294.56 277.37C260.31 277.37 232.44 305.24 232.44 339.49C232.44 340.23 231.84 340.83 231.1 340.83C230.36 340.83 229.76 340.23 229.76 339.49C229.76 303.76 258.83 274.69 294.57 274.69C330.31 274.69 359.37 303.76 359.37 339.49C359.37 375.22 330.3 404.29 294.57 404.29Z" fill="#85A0D8"/>
<path fill-rule="evenodd" clip-rule="evenodd" d="M296.18 292.54C311.74 293.37 324.18 306.62 324.08 322.2C324.03 330.24 320.76 337.51 315.5 342.8C311.19 347.14 308.15 352.51 306.61 358.34C306.23 359.78 304.93 360.79 303.44 360.79H285.7C284.22 360.79 282.93 359.81 282.54 358.38C280.9 352.43 277.65 346.98 273.29 342.44C268.2 337.14 265.06 329.94 265.06 322C265.06 317.49 266.07 313.21 267.89 309.38C269.3 306.4 271.2 303.69 273.49 301.35C279.19 295.53 287.29 292.05 296.18 292.53V292.54Z" fill="#E5EAF6"/>
<path d="M303.21 376H285.92C284.69 376 283.7 375.01 283.7 373.78V360.79H305.44V373.78C305.44 375.01 304.45 376 303.22 376H303.21Z" fill="#A3B9E6"/>
<path fill-rule="evenodd" clip-rule="evenodd" d="M294.57 384.06C290.12 384.06 286.52 380.45 286.52 376.01H302.63C302.63 380.46 299.02 384.06 294.58 384.06H294.57Z" fill="#85A0D8"/>
<path d="M304.17 369.74H292.3C291.56 369.74 290.96 369.14 290.96 368.4C290.96 367.66 291.56 367.06 292.3 367.06H304.17C304.91 367.06 305.51 367.66 305.51 368.4C305.51 369.14 304.91 369.74 304.17 369.74Z" fill="#85A0D8"/>
<path d="M271.89 324.98C271.15 324.98 270.55 324.38 270.55 323.64C270.55 309.88 281.74 298.69 295.5 298.69C296.24 298.69 296.84 299.29 296.84 300.03C296.84 300.77 296.24 301.37 295.5 301.37C283.22 301.37 273.24 311.36 273.24 323.63C273.24 324.37 272.64 324.97 271.9 324.97L271.89 324.98Z" fill="#A3B9E6"/>
<path d="M415.8 171.56H287.16C284.25 171.56 281.89 173.92 281.89 176.83V242.2C281.89 245.11 284.25 247.47 287.16 247.47H428.72C432.47 247.47 436.06 248.96 438.72 251.61L462.82 275.71C464.54 277.43 467.48 276.21 467.48 273.78V249.58C467.48 248.42 468.42 247.47 469.59 247.47H478.03C480.94 247.47 483.3 245.11 483.3 242.2V176.83C483.3 173.92 480.94 171.56 478.03 171.56" fill="#E5EAF6"/>
<path d="M751.4 501.9C780.68 501.9 804.42 525.64 804.42 554.92H698.38C698.38 525.64 722.12 501.9 751.4 501.9Z" fill="#85A0D8"/>
<path d="M615.58 291.01L615.03 288.89C614.98 288.7 614.94 288.56 614.95 288.42L614.76 288.23L615.7 287.29C620.18 282.81 608.7 261.36 585.09 237.74C562.52 215.18 542.24 203.99 536.37 206.57L535.88 206.79L533.21 205.86L534.56 204.31C546.81 191.4 563.45 183.69 579.09 183.69C612.2 183.69 639.14 210.63 639.14 243.74C639.14 258.14 632.88 273.04 622.14 284.72C622.08 284.8 622.01 284.88 621.94 284.97L621.96 284.99C621.96 284.99 621.82 285.12 621.67 285.26C621.39 285.56 621.05 285.9 620.62 286.32C619.53 287.43 618.4 288.51 617.22 289.56L615.58 291.02V291.01ZM539.11 203.54C549.96 204.16 570.4 219.28 586.97 235.84C598.01 246.88 607.3 258.36 613.14 268.16C616.1 273.13 619.03 279.16 619.27 283.82C629.96 272.56 636.44 257.62 636.44 243.73C636.44 212.1 610.71 186.37 579.08 186.37C565.25 186.37 550.55 192.73 539.11 203.54Z" fill="#85A0D8"/>
<path d="M616.638 288.243C622.39 282.491 608.686 259.459 586.027 236.801C563.369 214.143 540.338 200.438 534.585 206.19C528.833 211.943 542.538 234.974 565.196 257.632C587.854 280.291 610.886 293.995 616.638 288.243Z" fill="#85A0D8"/>
<path d="M612.79 290.891C602.21 290.891 581.37 275.691 564.24 258.561C543.89 238.211 526.25 212.601 533.63 205.221C541.01 197.841 566.62 215.491 586.97 235.831C598.01 246.871 607.3 258.35 613.14 268.15C617.47 275.43 621.76 284.991 617.59 289.171C616.42 290.341 614.79 290.881 612.79 290.881V290.891ZM538.44 206.171C537.15 206.171 536.17 206.48 535.53 207.12C531.05 211.6 542.53 233.051 566.14 256.671C589.76 280.291 611.21 291.751 615.69 287.281C617.93 285.041 616.11 278.411 610.83 269.531C605.1 259.911 595.95 248.61 585.07 237.73C564.82 217.48 546.17 206.161 538.43 206.161L538.44 206.171Z" fill="#85A0D8"/>
<path d="M752.74 501.9H750.06V256.05C750.06 239.86 744.47 224 734.32 211.39C713.19 185.15 676.13 177.32 646.19 192.77L623.5 204.48L622.27 202.1L644.96 190.39C676.03 174.36 714.49 182.49 736.41 209.72C746.94 222.8 752.74 239.26 752.74 256.06V501.91V501.9Z" fill="#85A0D8"/>
<path d="M568.86 225.44C573.72 229.46 578.75 234.03 583.76 239.05C588.77 244.06 593.34 249.09 597.37 253.95C593.68 257.97 588.39 260.51 582.5 260.51C571.34 260.51 562.3 251.47 562.3 240.31C562.3 234.42 564.84 229.13 568.86 225.44Z" fill="#E5EAF6"/>
<path d="M346.06 214.51C351.804 214.51 356.46 209.854 356.46 204.11C356.46 198.366 351.804 193.71 346.06 193.71C340.316 193.71 335.66 198.366 335.66 204.11C335.66 209.854 340.316 214.51 346.06 214.51Z" fill="#A3B9E6"/>
<path d="M409.62 214.51C415.364 214.51 420.02 209.854 420.02 204.11C420.02 198.366 415.364 193.71 409.62 193.71C403.876 193.71 399.22 198.366 399.22 204.11C399.22 209.854 403.876 214.51 409.62 214.51Z" fill="#A3B9E6"/>
<path d="M378.42 224.91C384.164 224.91 388.82 220.254 388.82 214.51C388.82 208.766 384.164 204.11 378.42 204.11C372.676 204.11 368.02 208.766 368.02 214.51C368.02 220.254 372.676 224.91 378.42 224.91Z" fill="#A3B9E6"/>
<path d="M163.75 531.36L154.11 554.92H326.85L335.98 527.48H169.52C166.99 527.48 164.71 529.01 163.75 531.35V531.36Z" fill="#E5EAF6"/>
<path d="M326.85 554.92L404.58 321.33C405.6 318.27 408.46 316.21 411.68 316.21H662.61C666.8 316.21 669.8 320.27 668.57 324.28L597.67 554.93H326.85V554.92Z" fill="#85A0D8"/>
<path d="M279.27 546.19H267.14C264.24 546.19 262.15 543.42 262.94 540.63C263.47 538.75 265.19 537.46 267.14 537.46H279.27C282.17 537.46 284.26 540.23 283.47 543.02C282.94 544.9 281.22 546.19 279.27 546.19Z" fill="#85A0D8"/>
<path d="M312.94 546.19H300.81C297.91 546.19 295.82 543.42 296.61 540.63C297.14 538.75 298.86 537.46 300.81 537.46H312.94C315.84 537.46 317.93 540.23 317.14 543.02C316.61 544.9 314.89 546.19 312.94 546.19Z" fill="#85A0D8"/>
<path d="M492.56 441.06C490.49 449.77 495.74 457.01 504.34 457.01C512.94 457.01 521.3 449.77 522.97 441.06C524.59 432.57 519.23 425.85 511.03 425.85C502.83 425.85 494.58 432.57 492.56 441.06Z" fill="#E5EAF6"/>
<path d="M346.06 458.35H308.82C300.22 458.35 293.23 451.35 293.23 442.76V412.62C293.23 411.88 293.83 411.28 294.57 411.28C295.31 411.28 295.91 411.88 295.91 412.62V442.76C295.91 449.88 301.7 455.67 308.82 455.67H346.06C346.8 455.67 347.4 456.27 347.4 457.01C347.4 457.75 346.8 458.35 346.06 458.35Z" fill="#85A0D8"/>
</g>
<defs>
</defs>
</svg>
