<svg width="842" height="596" viewBox="0 0 842 596" fill="none" xmlns="http://www.w3.org/2000/svg">
<g clip-path="url(#clip0_525_5663)">
<path d="M363.14 462.01H280.69V508.42H363.14V462.01Z" fill="#E5EAF6"/>
<path d="M338.57 508.42H256.12V554.83H338.57V508.42Z" fill="#E5EAF6"/>
<path d="M841.89 554.83H0V575.05H841.89V554.83Z" fill="#A3B9E6"/>
<path d="M834.3 595.28L825.35 575.05H816.71L825.66 595.28H834.3Z" fill="#85A0D8"/>
<path d="M801.54 595.28L792.59 575.05H783.95L792.9 595.28H801.54Z" fill="#85A0D8"/>
<path d="M142 313.93C138.97 313.93 136.51 316.39 136.51 319.42V396.59C136.51 399.62 138.97 402.08 142 402.08H277.03C280.93 402.08 284.67 403.63 287.43 406.39L312.51 431.47C314.3 433.26 317.36 431.99 317.36 429.46V404.27C317.36 403.06 318.34 402.08 319.55 402.08H328.33C331.36 402.08 333.82 399.62 333.82 396.59V319.42C333.82 316.39 331.36 313.93 328.33 313.93H197.22" fill="#E5EAF6"/>
<path d="M161.96 334.41H307.77" stroke="#85A0D8" stroke-width="3" stroke-miterlimit="10" stroke-linecap="round"/>
<path d="M161.96 349.41H307.77" stroke="#85A0D8" stroke-width="3" stroke-miterlimit="10" stroke-linecap="round"/>
<path d="M161.96 364.4H307.77" stroke="#85A0D8" stroke-width="3" stroke-miterlimit="10" stroke-linecap="round"/>
<path d="M161.96 379.4H241.54" stroke="#85A0D8" stroke-width="3" stroke-miterlimit="10" stroke-linecap="round"/>
<path d="M665.52 479.9C704.688 479.9 736.44 448.148 736.44 408.98C736.44 369.812 704.688 338.06 665.52 338.06C626.352 338.06 594.6 369.812 594.6 408.98C594.6 448.148 626.352 479.9 665.52 479.9Z" fill="transparent"/>
<path d="M654.12 422.66L679.57 397.21C687.22 400.91 696.69 399.59 703.04 393.24C709.39 386.89 710.71 377.43 707.01 369.78L691.9 384.89L682.33 375.32L697.44 360.21C689.79 356.52 680.33 357.84 673.98 364.19C667.63 370.54 666.31 380 670 387.65L644.54 413.11C636.89 409.42 627.43 410.74 621.08 417.09C614.73 423.44 613.41 432.9 617.11 440.55L632.22 425.44L641.79 435.01L626.68 450.12C634.33 453.81 643.79 452.49 650.14 446.14C656.49 439.79 657.81 430.32 654.11 422.67L654.12 422.66Z" fill="#E5EAF6"/>
<path d="M659.71 413.96L692.27 449.44C693.56 450.84 695.75 450.89 697.09 449.54L706.69 439.94C708.04 438.59 707.99 436.39 706.57 435.1L670.89 402.74C669.57 401.54 667.54 401.59 666.28 402.85L659.8 409.33C658.53 410.6 658.49 412.63 659.7 413.95L659.71 413.96Z" fill="#85A0D8"/>
<path d="M668.64 408.14L701.46 438.08" stroke="white" stroke-miterlimit="10" stroke-linecap="round"/>
<path d="M665.52 411.26L695.69 443.85" stroke="white" stroke-miterlimit="10" stroke-linecap="round"/>
<path d="M663.03 406.12L640.59 383.68" stroke="#85A0D8" stroke-width="2" stroke-miterlimit="10" stroke-linecap="round"/>
<path d="M629.89 380.09L636.01 385.58C636.8 386.29 638.01 386.26 638.77 385.51L642.21 382.07C642.95 381.33 643 380.15 642.32 379.36L637.01 373.07C636.25 372.17 634.89 372.12 634.06 372.95L629.82 377.19C629.01 378 629.04 379.33 629.9 380.1L629.89 380.09Z" stroke="#85A0D8" stroke-width="2" stroke-miterlimit="10" stroke-linecap="round"/>
<path d="M627.82 476.7L616.18 491.49C613.87 494.42 610.34 496.14 606.61 496.14H559.07" stroke="#85A0D8" stroke-width="2" stroke-miterlimit="10" stroke-linecap="round"/>
<path d="M704.83 350.17C693.68 342.78 680.31 338.48 665.94 338.48C627 338.48 595.44 370.05 595.44 408.98C595.44 447.91 627.01 479.48 665.94 479.48C704.87 479.48 736.44 447.91 736.44 408.98" stroke="#85A0D8" stroke-width="2" stroke-miterlimit="10" stroke-linecap="round"/>
<path d="M535.66 281.59H229.88V255.62H571.49C574.5 255.62 576.95 258.06 576.95 261.08V276.14C576.95 279.15 574.51 281.6 571.49 281.6" fill="#A3B9E6"/>
<path d="M229.88 255.62H213.35V281.59H229.88V255.62Z" fill="#85A0D8"/>
<path d="M522.18 197.77H407.42C402.599 197.77 398.69 201.679 398.69 206.5V246.88C398.69 251.701 402.599 255.61 407.42 255.61H522.18C527.001 255.61 530.91 251.701 530.91 246.88V206.5C530.91 201.679 527.001 197.77 522.18 197.77Z" fill="#E5EAF6"/>
<path d="M398.69 245.32V208.08C398.69 202.39 403.3 197.78 408.99 197.78H390.1C384.41 197.78 379.8 202.39 379.8 208.08V245.32C379.8 251.01 384.41 255.62 390.1 255.62H408.99C403.3 255.62 398.69 251.01 398.69 245.32Z" fill="#85A0D8"/>
<path d="M424.18 242.26V237.62H419.48V232.41H424.69V237.11H438.21V228.23H424.17V223.59H419.47V213.78H424.17V209.08H438.72V213.78H443.47V237.62H438.72V242.26H424.17H424.18ZM424.7 223.11H438.22V214.29H424.7V223.11Z" fill="#85A0D8"/>
<path d="M449.73 228.27V223.11H454.94V228.27H449.73ZM449.73 237.46V232.25H454.94V237.46H449.73Z" fill="#85A0D8"/>
<path d="M465.88 242.26V237.62H461.18V213.78H465.88V209.08H480.43V213.78H485.18V237.62H480.43V242.26H465.88ZM466.39 237.1H479.91V214.29H466.39V237.1Z" fill="#85A0D8"/>
<path d="M496.12 242.26V237.62H491.42V213.78H496.12V209.08H510.67V213.78H515.42V237.62H510.67V242.26H496.12ZM496.63 237.1H510.15V214.29H496.63V237.1Z" fill="#85A0D8"/>
<path d="M370.36 187.15H253.18L280.64 255.62H342.67L360.92 209.58" fill="#85A0D8"/>
<path d="M374.47 167.08H245.85C244.856 167.08 244.05 167.886 244.05 168.88V185.35C244.05 186.344 244.856 187.15 245.85 187.15H374.47C375.464 187.15 376.27 186.344 376.27 185.35V168.88C376.27 167.886 375.464 167.08 374.47 167.08Z" fill="#A3B9E6"/>
<path d="M422.05 105.54C408.8 108.31 396.63 112.28 385.26 117.62C394.29 103.35 400.95 89.77 403.09 80.48C403.34 79.4 402.41 78.45 401.52 78.87C388.85 84.86 376.44 92.07 364.79 100.55C370.58 84.96 375.21 70.07 377.53 58.89C377.91 57.07 376.22 55.61 374.85 56.58C363.1 64.88 351.63 74.11 342.12 85.46C342.33 71.3 340.66 57.43 336.99 44.81C336.62 43.53 335.21 43.18 334.44 44.19C323.33 58.7 315.52 77.78 312.02 96.34C311.93 96.84 311.84 97.35 311.75 97.85C307.81 80.27 301.1 63.96 291.98 50.85C291.25 49.8 289.83 50.05 289.41 51.31C284.44 66.08 282.43 82.81 283.06 98.69C282.65 98.25 282.24 97.79 281.82 97.36C269.73 84.94 255.24 74.47 239.55 70.3C231.11 68.06 242.8 93.88 244.33 96.89C247.87 103.89 251.85 110.65 256.03 117.23C243.63 108.73 230.12 101.86 215.83 97.58C214.34 97.13 212.94 98.6 213.44 100.3C217.67 114.71 225.73 128.31 235.44 138.28C244.97 148.06 260.67 159.63 273 167.1H350C378.58 156.45 404.59 136.4 424.12 109.78C425.47 107.95 424.08 105.14 422.04 105.56L422.05 105.54Z" fill="#85A0D8"/>
<path d="M252.64 114.49C265.93 121.56 276.81 133.5 282.58 147.41C273.83 135.29 263.89 124.34 252.64 114.49Z" fill="#A3B9E6"/>
<path d="M281.9 94.3198C284.46 105.01 286.73 115.72 290.51 126.02C294.21 136.34 299.07 146.22 303.07 156.46C290.83 137.05 282.86 117.48 281.9 94.3198Z" fill="#A3B9E6"/>
<path d="M322.99 155.63C347.02 133.94 375 115.28 406.96 108.05C391.77 113.61 377.04 120.21 363.18 128.53C349.31 136.73 336.3 146.35 322.99 155.63Z" fill="#A3B9E6"/>
<path d="M382.16 87.99C361.45 99.39 346.6 116.48 333.98 136.14C343.3 114.99 360.09 96.04 382.16 87.99Z" fill="#A3B9E6"/>
<path d="M343.21 83.27C330.35 103.99 320.17 126.39 316.06 150.56C316.71 125.89 327.5 102.03 343.21 83.27Z" fill="#A3B9E6"/>
<path d="M311.96 92.1602C311.73 106.16 312.74 119.93 314.95 133.75C309.38 120.8 308.32 105.77 311.96 92.1602Z" fill="#A3B9E6"/>
<path d="M274.41 508.42H539.23C543 508.42 546.06 505.36 546.06 501.59V468.83C546.06 465.06 543 462 539.23 462H274.41" stroke="#A3B9E6" stroke-width="2" stroke-miterlimit="10"/>
<path d="M363.14 462.01H541.06C543.82 462.01 546.06 464.25 546.06 467.01V503.42C546.06 506.18 543.82 508.42 541.06 508.42H363.14V462.01Z" fill="#A3B9E6"/>
<path d="M408.87 496.14C414.525 496.14 419.11 491.555 419.11 485.9C419.11 480.244 414.525 475.66 408.87 475.66C403.215 475.66 398.63 480.244 398.63 485.9C398.63 491.555 403.215 496.14 408.87 496.14Z" fill="#E5EAF6"/>
<path d="M434.92 485.21H519.15" stroke="#85A0D8" stroke-width="5" stroke-miterlimit="10" stroke-linecap="round"/>
<path d="M249.84 554.83H514.66C518.43 554.83 521.49 551.77 521.49 548V515.24C521.49 511.47 518.43 508.41 514.66 508.41H249.84" stroke="#85A0D8" stroke-width="2" stroke-miterlimit="10"/>
<path d="M338.57 508.42H516.49C519.25 508.42 521.49 510.66 521.49 513.42V549.83C521.49 552.59 519.25 554.83 516.49 554.83H338.57V508.42Z" fill="#85A0D8"/>
<path d="M384.3 542.55C389.955 542.55 394.54 537.965 394.54 532.31C394.54 526.654 389.955 522.07 384.3 522.07C378.645 522.07 374.06 526.654 374.06 532.31C374.06 537.965 378.645 542.55 384.3 542.55Z" fill="#E5EAF6"/>
<path d="M410.35 531.63H494.58" stroke="#A3B9E6" stroke-width="5" stroke-miterlimit="10" stroke-linecap="round"/>
<path d="M363.14 477H285.18" stroke="#85A0D8" stroke-width="2" stroke-miterlimit="10"/>
<path d="M363.14 485.19H285.18" stroke="#85A0D8" stroke-width="2" stroke-miterlimit="10"/>
<path d="M363.14 493.38H285.18" stroke="#85A0D8" stroke-width="2" stroke-miterlimit="10"/>
<path d="M338.57 524.77H260.61" stroke="#85A0D8" stroke-width="2" stroke-miterlimit="10"/>
<path d="M338.57 532.96H260.61" stroke="#85A0D8" stroke-width="2" stroke-miterlimit="10"/>
<path d="M338.57 541.15H260.61" stroke="#85A0D8" stroke-width="2" stroke-miterlimit="10"/>
<path d="M391.12 384.14L388.65 363.93" stroke="#85A0D8" stroke-width="5" stroke-miterlimit="10" stroke-linecap="round"/>
<path d="M407.5 384.14L411.68 356.04" stroke="#A3B9E6" stroke-width="5" stroke-miterlimit="10" stroke-linecap="round"/>
<path d="M427.98 384.14L428.03 351.38" stroke="#85A0D8" stroke-width="5" stroke-miterlimit="10" stroke-linecap="round"/>
<path d="M428.03 355.07H434.72C435.9 355.07 436.85 356.18 436.85 357.55V375.95" stroke="#85A0D8" stroke-width="2" stroke-miterlimit="10" stroke-linecap="round"/>
<path d="M429.76 461.27H386.51C383.57 461.27 381.05 458.87 380.56 455.59L371.31 394.16C370.68 389.99 373.52 386.19 377.26 386.19H439.01C442.75 386.19 445.59 389.99 444.96 394.16L435.71 455.59C435.22 458.87 432.7 461.27 429.76 461.27Z" fill="#85A0D8"/>
<path d="M626.15 179.87H598.69C594.45 179.87 590.39 181.55 587.39 184.55L560.14 211.8C558.2 213.74 554.88 212.37 554.88 209.62V182.26C554.88 180.94 553.81 179.88 552.5 179.88H542.96C539.67 179.88 537 177.21 537 173.92V100.01C537 96.7198 539.67 94.0498 542.96 94.0498H664.81C668.1 94.0498 670.77 96.7198 670.77 100.01V173.92C670.77 177.21 668.1 179.88 664.81 179.88" fill="#E5EAF6"/>
<path d="M639.3 113.91C639.46 114.12 639.61 114.33 639.75 114.55L639.55 114.84L605.14 141.56C602.68 142.98 599.65 142.97 597.2 141.53L562.66 114.4C561.98 115.46 561.57 116.72 561.57 118.07V156C561.57 159.77 564.63 162.83 568.4 162.83H633.92C637.69 162.83 640.75 159.77 640.75 156V118.07C640.75 116.5 640.2 115.06 639.3 113.91Z" fill="#A3B9E6"/>
<path d="M568.4 111.24C565.99 111.24 563.88 112.5 562.66 114.39L597.2 141.52C599.65 142.96 602.68 142.98 605.14 141.55L639.55 114.83L639.75 114.54C638.55 112.56 636.41 111.23 633.93 111.23H594.23" fill="#85A0D8"/>
<path d="M640.06 126.26C647.682 126.26 653.86 120.081 653.86 112.46C653.86 104.838 647.682 98.6597 640.06 98.6597C632.438 98.6597 626.26 104.838 626.26 112.46C626.26 120.081 632.438 126.26 640.06 126.26Z" fill="#E5EAF6"/>
<path d="M640.06 124.06C646.466 124.06 651.66 118.866 651.66 112.46C651.66 106.053 646.466 100.86 640.06 100.86C633.653 100.86 628.46 106.053 628.46 112.46C628.46 118.866 633.653 124.06 640.06 124.06Z" fill="#85A0D8"/>
</g>
<defs>
</defs>
</svg>
