<svg width="127" height="128" viewBox="0 0 127 128" fill="none" xmlns="http://www.w3.org/2000/svg">
<path fill-rule="evenodd" clip-rule="evenodd" d="M83.29 106.711V109.061C83.28 111.191 81.45 112.911 79.21 112.911H4.17999C1.86999 112.911 0 111.131 0 108.941V11.1809C0 8.99094 1.86999 7.21094 4.17999 7.21094H7.27002V102.741C7.27002 104.931 9.14001 106.711 11.45 106.711H83.29Z" fill="#2F3F64"/>
<path fill-rule="evenodd" clip-rule="evenodd" d="M90.5497 101.8C90.5497 104.52 88.3398 106.71 85.6198 106.71H11.4398C9.12976 106.71 7.25977 104.93 7.25977 102.74V4.97977C7.25977 2.78977 9.12976 1.00977 11.4398 1.00977H86.6797C88.9897 1.00977 90.8597 2.78977 90.8597 4.97977C90.8597 4.97977 90.6098 81.4798 90.5398 101.81L90.5497 101.8Z" fill="white"/>
<path d="M85.6305 107.71H11.4505C8.5905 107.71 6.27051 105.48 6.27051 102.74V4.97C6.27051 2.23 8.5905 0 11.4505 0H86.6905C89.5505 0 91.8705 2.23 91.8705 4.97V18.15C91.8705 18.7 91.4205 19.15 90.8705 19.15C90.3205 19.15 89.8705 18.7 89.8705 18.15V4.97C89.8705 3.33 88.4405 2 86.6905 2H11.4505C9.7005 2 8.27051 3.33 8.27051 4.97V102.74C8.27051 104.38 9.7005 105.71 11.4505 105.71H85.6305C87.7905 105.71 89.5505 103.95 89.5605 101.79C89.5705 98.56 89.5905 90.95 89.6005 81.87C89.6305 68.36 89.6605 51.59 89.6905 41.16C89.6905 40.61 90.1405 40.16 90.6905 40.16C91.2405 40.16 91.6905 40.61 91.6905 41.16C91.6605 51.58 91.6205 68.35 91.6005 81.87C91.5805 90.95 91.5705 98.56 91.5605 101.79C91.5505 105.05 88.8905 107.7 85.6305 107.7V107.71Z" fill="#2F3F64"/>
<path d="M76.8701 9.7207H17.8101C16.7165 9.7207 15.8301 10.6072 15.8301 11.7007V21.5107C15.8301 22.6042 16.7165 23.4907 17.8101 23.4907H76.8701C77.9636 23.4907 78.8501 22.6042 78.8501 21.5107V11.7007C78.8501 10.6072 77.9636 9.7207 76.8701 9.7207Z" fill="#FEC95C"/>
<path d="M78.0701 49.4102H17.8101C16.7165 49.4102 15.8301 50.2966 15.8301 51.3902V56.9702C15.8301 58.0637 16.7165 58.9502 17.8101 58.9502H78.0701C79.1636 58.9502 80.05 58.0637 80.05 56.9702V51.3902C80.05 50.2966 79.1636 49.4102 78.0701 49.4102Z" fill="#BCC5DC"/>
<path d="M78.0701 32.3398H17.8101C16.7165 32.3398 15.8301 33.2263 15.8301 34.3198V39.8998C15.8301 40.9934 16.7165 41.8798 17.8101 41.8798H78.0701C79.1636 41.8798 80.05 40.9934 80.05 39.8998V34.3198C80.05 33.2263 79.1636 32.3398 78.0701 32.3398Z" fill="#BCC5DC"/>
<path d="M78.0701 66.1113H17.8101C16.7165 66.1113 15.8301 66.9978 15.8301 68.0913V73.6713C15.8301 74.7648 16.7165 75.6513 17.8101 75.6513H78.0701C79.1636 75.6513 80.05 74.7648 80.05 73.6713V68.0913C80.05 66.9978 79.1636 66.1113 78.0701 66.1113Z" fill="#BCC5DC"/>
<path d="M78.0701 82.8105H17.8101C16.7165 82.8105 15.8301 83.697 15.8301 84.7906V90.3706C15.8301 91.4641 16.7165 92.3505 17.8101 92.3505H78.0701C79.1636 92.3505 80.05 91.4641 80.05 90.3706V84.7906C80.05 83.697 79.1636 82.8105 78.0701 82.8105Z" fill="#BCC5DC"/>
<path d="M20.2404 14.8489C20.5004 14.3889 20.8504 14.0289 21.3104 13.7689C21.7704 13.5089 22.2804 13.3789 22.8604 13.3789C23.5704 13.3789 24.1804 13.5689 24.6804 13.9389C25.1804 14.3089 25.5204 14.8289 25.6904 15.4689H24.0904C23.9704 15.2189 23.8004 15.0289 23.5804 14.8989C23.3604 14.7689 23.1104 14.6989 22.8404 14.6989C22.3904 14.6989 22.0304 14.8589 21.7504 15.1689C21.4704 15.4789 21.3304 15.8989 21.3304 16.4189C21.3304 16.9389 21.4704 17.3589 21.7504 17.6689C22.0304 17.9789 22.3904 18.1389 22.8404 18.1389C23.1204 18.1389 23.3704 18.0689 23.5804 17.9389C23.7904 17.8089 23.9704 17.6189 24.0904 17.3689H25.6904C25.5204 18.0189 25.1804 18.5289 24.6804 18.8989C24.1704 19.2689 23.5704 19.4589 22.8604 19.4589C22.2804 19.4589 21.7604 19.3289 21.3104 19.0689C20.8504 18.8089 20.5004 18.4489 20.2404 17.9889C19.9804 17.5289 19.8604 17.0089 19.8604 16.4189C19.8604 15.8289 19.9904 15.2989 20.2404 14.8389V14.8489Z" fill="#2F3F64"/>
<path d="M27.8708 19.0989C27.4008 18.8389 27.0308 18.4689 26.7508 18.0089C26.4708 17.5489 26.3408 17.0189 26.3408 16.4289C26.3408 15.8389 26.4808 15.3189 26.7508 14.8589C27.0308 14.3889 27.4008 14.0289 27.8708 13.7689C28.3408 13.5089 28.8508 13.3789 29.4108 13.3789C29.9708 13.3789 30.4908 13.5089 30.9508 13.7689C31.4208 14.0289 31.7908 14.3889 32.0608 14.8589C32.3308 15.3189 32.4608 15.8489 32.4608 16.4289C32.4608 17.0089 32.3208 17.5389 32.0508 18.0089C31.7808 18.4789 31.4108 18.8389 30.9408 19.0989C30.4808 19.3589 29.9608 19.4889 29.4008 19.4889C28.8408 19.4889 28.3208 19.3589 27.8608 19.0989H27.8708ZM30.5608 17.6789C30.8508 17.3589 30.9908 16.9389 30.9908 16.4189C30.9908 15.8989 30.8508 15.4689 30.5608 15.1589C30.2708 14.8489 29.8908 14.6889 29.4208 14.6889C28.9508 14.6889 28.5508 14.8489 28.2708 15.1589C27.9808 15.4689 27.8408 15.8889 27.8408 16.4289C27.8408 16.9689 27.9808 17.3789 28.2708 17.6889C28.5608 17.9989 28.9408 18.1589 29.4208 18.1589C29.9008 18.1589 30.2808 17.9989 30.5608 17.6789Z" fill="#2F3F64"/>
<path d="M38.6205 19.429H37.1605L34.7305 15.739V19.429H33.2705V13.459H34.7305L37.1605 17.159V13.459H38.6205V19.429Z" fill="#2F3F64"/>
<path d="M43.9804 13.4492V14.6192H42.4004V19.4292H40.9404V14.6192H39.3604V13.4492H43.9804Z" fill="#2F3F64"/>
<path d="M48.4303 18.369H46.2003L45.8403 19.429H44.3203L46.4803 13.459H48.1703L50.3303 19.429H48.7903L48.4303 18.369ZM48.0503 17.249L47.3103 15.059L46.5803 17.249H48.0503Z" fill="#2F3F64"/>
<path d="M51.1202 14.8489C51.3802 14.3889 51.7302 14.0289 52.1902 13.7689C52.6502 13.5089 53.1602 13.3789 53.7402 13.3789C54.4502 13.3789 55.0602 13.5689 55.5602 13.9389C56.0602 14.3089 56.4003 14.8289 56.5703 15.4689H54.9703C54.8503 15.2189 54.6803 15.0289 54.4603 14.8989C54.2403 14.7689 53.9903 14.6989 53.7203 14.6989C53.2703 14.6989 52.9102 14.8589 52.6302 15.1689C52.3502 15.4789 52.2103 15.8989 52.2103 16.4189C52.2103 16.9389 52.3502 17.3589 52.6302 17.6689C52.9102 17.9789 53.2703 18.1389 53.7203 18.1389C54.0003 18.1389 54.2503 18.0689 54.4603 17.9389C54.6703 17.8089 54.8503 17.6189 54.9703 17.3689H56.5703C56.4003 18.0189 56.0602 18.5289 55.5602 18.8989C55.0502 19.2689 54.4502 19.4589 53.7402 19.4589C53.1602 19.4589 52.6402 19.3289 52.1902 19.0689C51.7302 18.8089 51.3802 18.4489 51.1202 17.9889C50.8602 17.5289 50.7402 17.0089 50.7402 16.4189C50.7402 15.8289 50.8702 15.2989 51.1202 14.8389V14.8489Z" fill="#2F3F64"/>
<path d="M61.7606 13.4492V14.6192H60.1806V19.4292H58.7206V14.6192H57.1406V13.4492H61.7606Z" fill="#2F3F64"/>
<path d="M65.7303 13.4495V17.0195C65.7303 17.3795 65.8202 17.6495 65.9902 17.8495C66.1602 18.0495 66.4203 18.1395 66.7603 18.1395C67.1003 18.1395 67.3603 18.0395 67.5403 17.8495C67.7203 17.6595 67.8102 17.3795 67.8102 17.0195V13.4495H69.2703V17.0195C69.2703 17.5495 69.1602 17.9995 68.9302 18.3695C68.7002 18.7395 68.4003 19.0195 68.0203 19.1995C67.6403 19.3895 67.2102 19.4795 66.7402 19.4795C66.2702 19.4795 65.8503 19.3895 65.4803 19.1995C65.1103 19.0195 64.8103 18.7395 64.6003 18.3695C64.3903 17.9995 64.2803 17.5495 64.2803 17.0095V13.4395H65.7402L65.7303 13.4495Z" fill="#2F3F64"/>
<path d="M71.2899 19.2694C70.9399 19.1294 70.6699 18.9194 70.4599 18.6394C70.2499 18.3594 70.1399 18.0294 70.1299 17.6394H71.6799C71.6999 17.8594 71.7799 18.0294 71.9099 18.1494C72.0399 18.2694 72.2099 18.3194 72.4199 18.3194C72.6299 18.3194 72.8099 18.2694 72.9299 18.1694C73.0499 18.0694 73.1199 17.9294 73.1199 17.7594C73.1199 17.6094 73.0699 17.4894 72.9699 17.3894C72.8699 17.2894 72.7499 17.2094 72.5999 17.1494C72.4599 17.0894 72.2499 17.0194 71.9799 16.9394C71.5899 16.8194 71.2799 16.6994 71.0399 16.5794C70.7999 16.4594 70.5899 16.2794 70.4099 16.0494C70.2299 15.8194 70.1499 15.5094 70.1499 15.1394C70.1499 14.5794 70.3499 14.1494 70.7499 13.8294C71.1499 13.5194 71.6799 13.3594 72.3199 13.3594C72.9599 13.3594 73.5099 13.5194 73.9099 13.8294C74.3099 14.1394 74.5299 14.5794 74.5599 15.1394H72.9899C72.9799 14.9494 72.9099 14.7994 72.7799 14.6794C72.6499 14.5694 72.4799 14.5094 72.2799 14.5094C72.0999 14.5094 71.9599 14.5594 71.8499 14.6494C71.7399 14.7394 71.6899 14.8794 71.6899 15.0494C71.6899 15.2394 71.7799 15.3894 71.9599 15.4994C72.1399 15.6094 72.4299 15.7194 72.8099 15.8494C73.1999 15.9794 73.5099 16.1094 73.7499 16.2194C73.9899 16.3294 74.1999 16.5094 74.3799 16.7394C74.5599 16.9694 74.6399 17.2594 74.6399 17.6194C74.6399 17.9794 74.5499 18.2694 74.3799 18.5494C74.2099 18.8294 73.9599 19.0494 73.6299 19.2094C73.2999 19.3694 72.9099 19.4594 72.4599 19.4594C72.0099 19.4594 71.6299 19.3894 71.2899 19.2494V19.2694Z" fill="#2F3F64"/>
<path d="M95.9803 126.461C112.223 126.461 125.39 113.293 125.39 97.0506C125.39 80.8079 112.223 67.6406 95.9803 67.6406C79.7377 67.6406 66.5703 80.8079 66.5703 97.0506C66.5703 113.293 79.7377 126.461 95.9803 126.461Z" fill="#FEC95C"/>
<path d="M95.9803 127.461C79.2103 127.461 65.5703 113.821 65.5703 97.0506C65.5703 80.2806 79.2103 66.6406 95.9803 66.6406C112.75 66.6406 126.39 80.2806 126.39 97.0506C126.39 113.821 112.75 127.461 95.9803 127.461ZM95.9803 68.6406C80.3103 68.6406 67.5703 81.3906 67.5703 97.0506C67.5703 112.711 80.3203 125.461 95.9803 125.461C111.64 125.461 124.39 112.711 124.39 97.0506C124.39 81.3906 111.64 68.6406 95.9803 68.6406Z" fill="#2F3F64"/>
<path fill-rule="evenodd" clip-rule="evenodd" d="M101.25 100.76H100.55C100.07 100.76 99.6599 100.43 99.5499 99.9802C99.2799 98.9102 98.85 97.9002 98.29 96.9802C98.04 96.5702 98.0999 96.0602 98.4399 95.7302L98.9399 95.2402C99.3399 94.8402 99.3399 94.2002 98.9399 93.8002L97.6799 92.5502C97.2699 92.1502 96.62 92.1402 96.21 92.5502L95.71 93.0402C95.37 93.3702 94.8399 93.4302 94.4299 93.1802C93.4899 92.6202 92.4599 92.1902 91.3599 91.9102C90.8899 91.7902 90.5599 91.3802 90.5599 90.9102V90.2202C90.5599 89.6502 90.0899 89.1902 89.5099 89.1802L87.71 89.1602C87.13 89.1602 86.66 89.6102 86.66 90.1802V90.8802C86.66 91.3502 86.3299 91.7602 85.8599 91.8702C84.7599 92.1302 83.7099 92.5502 82.7599 93.1002C82.3399 93.3402 81.81 93.2802 81.46 92.9402L80.95 92.4402C80.54 92.0302 79.86 92.0302 79.45 92.4402L78.16 93.6902C77.74 94.0902 77.74 94.7502 78.16 95.1502L78.6699 95.6502C79.0199 95.9902 79.0799 96.5102 78.8199 96.9202C78.2399 97.8502 77.8 98.8702 77.53 99.9502C77.41 100.41 76.9899 100.74 76.4999 100.74H75.78C75.19 100.74 74.71 101.2 74.71 101.77V103.55C74.71 104.12 75.19 104.59 75.78 104.59H76.4999C76.9899 104.59 77.41 104.92 77.53 105.38C77.81 106.46 78.2499 107.48 78.8199 108.41C79.0699 108.82 79.0099 109.34 78.6699 109.68L78.16 110.18C77.74 110.59 77.74 111.24 78.16 111.64L79.45 112.89C79.86 113.29 80.54 113.29 80.95 112.89L81.46 112.39C81.81 112.05 82.3399 111.99 82.7599 112.23C83.7099 112.78 84.7599 113.2 85.8599 113.46C86.3299 113.57 86.66 113.98 86.66 114.45V115.15C86.66 115.72 87.13 116.18 87.71 116.17L89.5099 116.15C90.0899 116.15 90.5599 115.68 90.5599 115.11V114.42C90.5599 113.95 90.8899 113.54 91.3599 113.42C92.4599 113.14 93.4899 112.71 94.4299 112.15C94.8399 111.9 95.37 111.96 95.71 112.29L96.21 112.78C96.62 113.18 97.2699 113.17 97.6799 112.78L98.9399 111.53C99.3399 111.13 99.3399 110.48 98.9399 110.09L98.4399 109.6C98.0999 109.27 98.04 108.75 98.29 108.35C98.85 107.43 99.2799 106.42 99.5499 105.35C99.6699 104.89 100.08 104.57 100.55 104.57H101.25C101.82 104.57 102.28 104.11 102.28 103.55V101.8C102.28 101.24 101.82 100.78 101.25 100.78V100.76Z" fill="#2F3F64"/>
<path fill-rule="evenodd" clip-rule="evenodd" d="M82.26 102.65C82.26 106.09 85.05 108.88 88.49 108.88C91.93 108.88 94.72 106.09 94.72 102.65C94.72 101.65 94.49 100.71 94.07 99.8699C93.88 99.4899 93.65 99.1299 93.39 98.7999C92.98 98.2799 92.5 97.8299 91.95 97.4699C90.96 96.7999 89.76 96.4199 88.48 96.4199C85.04 96.4199 82.25 99.2099 82.25 102.65H82.26Z" fill="#FEC95C"/>
<path fill-rule="evenodd" clip-rule="evenodd" d="M118.2 86.9903H117.69C117.34 86.9903 117.05 86.7503 116.96 86.4203C116.76 85.6403 116.45 84.9103 116.05 84.2403C115.87 83.9503 115.91 83.5703 116.16 83.3303L116.52 82.9803C116.81 82.6903 116.81 82.2203 116.52 81.9303L115.61 81.0303C115.32 80.7403 114.84 80.7403 114.54 81.0303L114.18 81.3803C113.93 81.6203 113.55 81.6603 113.25 81.4803C112.57 81.0703 111.82 80.7603 111.03 80.5603C110.69 80.4703 110.45 80.1803 110.45 79.8303V79.3303C110.45 78.9203 110.11 78.5803 109.69 78.5803H108.38C107.96 78.5703 107.62 78.9003 107.62 79.3103V79.8103C107.62 80.1503 107.38 80.4503 107.04 80.5303C106.24 80.7203 105.48 81.0203 104.79 81.4203C104.49 81.6003 104.1 81.5503 103.85 81.3103L103.48 80.9503C103.18 80.6603 102.69 80.6503 102.39 80.9503L101.45 81.8503C101.15 82.1403 101.15 82.6203 101.45 82.9103L101.82 83.2703C102.07 83.5203 102.11 83.8903 101.93 84.1903C101.51 84.8603 101.19 85.6003 100.99 86.3903C100.9 86.7303 100.6 86.9603 100.24 86.9603H99.7202C99.2902 86.9603 98.9502 87.2903 98.9502 87.7103V89.0003C98.9502 89.4203 99.3002 89.7503 99.7202 89.7503H100.24C100.6 89.7503 100.9 89.9903 100.99 90.3203C101.19 91.1103 101.51 91.8503 101.93 92.5203C102.11 92.8203 102.07 93.1903 101.82 93.4403L101.45 93.8003C101.15 94.0903 101.15 94.5703 101.45 94.8603L102.39 95.7603C102.69 96.0503 103.18 96.0503 103.48 95.7603L103.85 95.4003C104.1 95.1503 104.49 95.1103 104.79 95.2903C105.48 95.6903 106.24 96.0003 107.04 96.1803C107.38 96.2603 107.62 96.5603 107.62 96.9003V97.4003C107.62 97.8103 107.96 98.1403 108.38 98.1403H109.69C110.11 98.1303 110.45 97.7903 110.45 97.3803V96.8803C110.45 96.5403 110.69 96.2403 111.03 96.1503C111.82 95.9503 112.57 95.6403 113.25 95.2303C113.55 95.0503 113.93 95.0903 114.18 95.3303L114.54 95.6803C114.83 95.9703 115.31 95.9603 115.61 95.6803L116.52 94.7803C116.81 94.4903 116.81 94.0203 116.52 93.7303L116.16 93.3803C115.91 93.1403 115.87 92.7703 116.05 92.4703C116.46 91.8003 116.77 91.0703 116.96 90.2903C117.04 89.9603 117.34 89.7203 117.69 89.7203H118.2C118.61 89.7203 118.95 89.3903 118.95 88.9803V87.7103C118.95 87.3003 118.61 86.9703 118.2 86.9703V86.9903Z" fill="#2F3F64"/>
<path fill-rule="evenodd" clip-rule="evenodd" d="M104.431 88.3598C104.431 90.8598 106.451 92.8798 108.951 92.8798C111.451 92.8798 113.471 90.8598 113.471 88.3598C113.471 87.6398 113.301 86.9498 113.001 86.3498C112.861 86.0698 112.701 85.8098 112.511 85.5698C112.221 85.1998 111.861 84.8698 111.471 84.5998C110.751 84.1198 109.891 83.8398 108.951 83.8398C106.451 83.8398 104.431 85.8598 104.431 88.3598Z" fill="#FEC95C"/>
</svg>
