<svg width="128" height="128" viewBox="0 0 128 128" fill="none" xmlns="http://www.w3.org/2000/svg">
<path fill-rule="evenodd" clip-rule="evenodd" d="M87.26 99.5494H14.67C11.83 99.5494 9.53003 97.3594 9.55003 94.6694L9.90003 14.1094H5.32003C2.60003 14.1094 0.380034 16.2094 0.370034 18.7894L3.39563e-05 103.069C-0.00996604 105.649 2.19003 107.749 4.91003 107.749H78.89L87.26 99.5494Z" fill="#2F3F64"/>
<path fill-rule="evenodd" clip-rule="evenodd" d="M116.04 71.3694C116.43 70.9894 117.05 70.9894 117.44 71.3694L119.1 73.0194L119.39 6.77942C119.4 4.08942 117.22 1.89941 114.53 1.89941H14.8298C12.1398 1.89941 9.93984 4.08942 9.92984 6.77942L9.54984 94.6694C9.53984 97.3594 11.7198 99.5494 14.4098 99.5494H87.2598L116.04 71.3594V71.3694Z" fill="white"/>
<path d="M87.2598 100.549H14.4098C12.8398 100.549 11.3598 99.9394 10.2598 98.8294C9.1498 97.7194 8.5498 96.2394 8.5498 94.6694L8.9298 6.77942C8.9398 3.53942 11.5898 0.899414 14.8298 0.899414H114.52C116.09 0.899414 117.57 1.50941 118.68 2.62941C119.79 3.73941 120.39 5.21942 120.39 6.78942L120.01 65.8294C120.01 66.3794 119.56 66.8194 119.01 66.8194C118.46 66.8194 118.01 66.3694 118.02 65.8094L118.4 6.76941C118.4 5.73942 118.01 4.75942 117.28 4.02942C116.55 3.29942 115.58 2.88941 114.54 2.88941H14.8298C12.6898 2.88941 10.9298 4.62942 10.9298 6.77942L10.5498 94.6694C10.5498 95.7094 10.9498 96.6794 11.6698 97.4094C12.3998 98.1394 13.3698 98.5494 14.4098 98.5494H87.2598C87.8098 98.5494 88.2598 98.9994 88.2598 99.5494C88.2598 100.099 87.8098 100.549 87.2598 100.549Z" fill="#2F3F64"/>
<path fill-rule="evenodd" clip-rule="evenodd" d="M9.88965 14.8096L9.92965 6.51965C9.93965 3.95965 11.8196 1.88965 14.1196 1.88965H115.27C117.57 1.88965 119.43 3.95965 119.42 6.51965L119.38 14.8096H9.88965Z" fill="#BCC5DC"/>
<path fill-rule="evenodd" clip-rule="evenodd" d="M21.37 5.45996C22.93 5.45996 24.2 6.73996 24.2 8.30996C24.2 9.87996 22.93 11.16 21.37 11.16C19.81 11.16 18.54 9.87996 18.54 8.30996C18.54 6.73996 19.81 5.45996 21.37 5.45996Z" fill="#2F3F64"/>
<path fill-rule="evenodd" clip-rule="evenodd" d="M32.1903 5.45996C33.7503 5.45996 35.0204 6.73996 35.0204 8.30996C35.0204 9.87996 33.7503 11.16 32.1903 11.16C30.6303 11.16 29.3604 9.87996 29.3604 8.30996C29.3604 6.73996 30.6303 5.45996 32.1903 5.45996Z" fill="#2F3F64"/>
<path fill-rule="evenodd" clip-rule="evenodd" d="M43.4804 5.45996C45.0404 5.45996 46.3104 6.73996 46.3104 8.30996C46.3104 9.87996 45.0404 11.16 43.4804 11.16C41.9204 11.16 40.6504 9.87996 40.6504 8.30996C40.6504 6.73996 41.9204 5.45996 43.4804 5.45996Z" fill="#2F3F64"/>
<path d="M119.42 15.8096C118.87 15.8096 118.42 15.3596 118.42 14.8096L118.46 6.51965C118.46 5.47965 118.07 4.47965 117.39 3.78965C116.81 3.20965 116.08 2.88965 115.31 2.88965H14.1196C12.3696 2.88965 10.9396 4.51965 10.9296 6.51965L10.8996 13.8096H81.2297C81.7797 13.8096 82.2297 14.2596 82.2297 14.8096C82.2297 15.3596 81.7797 15.8096 81.2297 15.8096H9.88965C9.61965 15.8096 9.36965 15.6996 9.17965 15.5196C8.98965 15.3296 8.88965 15.0796 8.88965 14.8096L8.92965 6.51965C8.93965 3.41965 11.2696 0.889648 14.1196 0.889648H115.31C116.61 0.889648 117.85 1.41965 118.8 2.36965C119.86 3.42965 120.46 4.94965 120.46 6.51965L120.42 14.8096C120.42 15.3596 119.97 15.8096 119.42 15.8096Z" fill="#2F3F64"/>
<path d="M59.0907 60.62H23.1007C22.0607 60.62 21.2207 59.78 21.2207 58.74V22.75C21.2207 22.2 21.6707 21.75 22.2207 21.75C22.7707 21.75 23.2207 22.2 23.2207 22.75V58.62H59.0907C59.6407 58.62 60.0907 59.07 60.0907 59.62C60.0907 60.17 59.6407 60.62 59.0907 60.62Z" fill="#2F3F64"/>
<path d="M22.2205 59.7396C22.0405 59.7396 21.8605 59.6896 21.6905 59.5896C21.2205 59.2996 21.0805 58.6796 21.3705 58.2096L33.6605 38.5196C33.8105 38.2796 34.0505 38.1196 34.3205 38.0696C34.5905 38.0196 34.8705 38.0696 35.1005 38.2396L47.1105 46.9896L53.0405 32.3696C53.2505 31.8596 53.8305 31.6096 54.3405 31.8196C54.8505 32.0296 55.1005 32.6096 54.8905 33.1196L48.4805 48.9196C48.3605 49.2096 48.1205 49.4196 47.8305 49.5096C47.5305 49.5896 47.2205 49.5396 46.9705 49.3596L34.7905 40.4896L23.0705 59.2696C22.8805 59.5696 22.5505 59.7396 22.2205 59.7396Z" fill="#2F3F64"/>
<path d="M47.5508 51.7598C49.3237 51.7598 50.7608 50.3227 50.7608 48.5498C50.7608 46.777 49.3237 45.3398 47.5508 45.3398C45.778 45.3398 44.3408 46.777 44.3408 48.5498C44.3408 50.3227 45.778 51.7598 47.5508 51.7598Z" fill="#BCC5DC"/>
<path d="M47.5508 52.7501C45.2308 52.7501 43.3408 50.8601 43.3408 48.5401C43.3408 46.2201 45.2308 44.3301 47.5508 44.3301C49.8708 44.3301 51.7608 46.2201 51.7608 48.5401C51.7608 50.8601 49.8708 52.7501 47.5508 52.7501ZM47.5508 46.3401C46.3308 46.3401 45.3408 47.3301 45.3408 48.5501C45.3408 49.7701 46.3308 50.7601 47.5508 50.7601C48.7708 50.7601 49.7608 49.7701 49.7608 48.5501C49.7608 47.3301 48.7708 46.3401 47.5508 46.3401Z" fill="#2F3F64"/>
<path d="M34.5401 42.2598C36.3129 42.2598 37.7501 40.8227 37.7501 39.0498C37.7501 37.277 36.3129 35.8398 34.5401 35.8398C32.7672 35.8398 31.3301 37.277 31.3301 39.0498C31.3301 40.8227 32.7672 42.2598 34.5401 42.2598Z" fill="#2F3F64"/>
<path d="M34.5401 43.2501C32.2201 43.2501 30.3301 41.3601 30.3301 39.0401C30.3301 36.7201 32.2201 34.8301 34.5401 34.8301C36.8601 34.8301 38.7501 36.7201 38.7501 39.0401C38.7501 41.3601 36.8601 43.2501 34.5401 43.2501ZM34.5401 36.8401C33.3201 36.8401 32.3301 37.8301 32.3301 39.0501C32.3301 40.2701 33.3201 41.2601 34.5401 41.2601C35.7601 41.2601 36.7501 40.2701 36.7501 39.0501C36.7501 37.8301 35.7601 36.8401 34.5401 36.8401Z" fill="#2F3F64"/>
<path d="M53.9707 35.96C55.7436 35.96 57.1807 34.5229 57.1807 32.75C57.1807 30.9772 55.7436 29.54 53.9707 29.54C52.1979 29.54 50.7607 30.9772 50.7607 32.75C50.7607 34.5229 52.1979 35.96 53.9707 35.96Z" fill="white"/>
<path d="M53.9707 36.9503C51.6507 36.9503 49.7607 35.0603 49.7607 32.7403C49.7607 30.4203 51.6507 28.5303 53.9707 28.5303C56.2907 28.5303 58.1807 30.4203 58.1807 32.7403C58.1807 35.0603 56.2907 36.9503 53.9707 36.9503ZM53.9707 30.5403C52.7507 30.5403 51.7607 31.5303 51.7607 32.7503C51.7607 33.9703 52.7507 34.9603 53.9707 34.9603C55.1907 34.9603 56.1807 33.9703 56.1807 32.7503C56.1807 31.5303 55.1907 30.5403 53.9707 30.5403Z" fill="#2F3F64"/>
<path d="M89.2696 60.1701C99.1665 60.1701 107.19 52.147 107.19 42.2501C107.19 32.3531 99.1665 24.3301 89.2696 24.3301C79.3727 24.3301 71.3496 32.3531 71.3496 42.2501C71.3496 52.147 79.3727 60.1701 89.2696 60.1701Z" fill="white"/>
<path d="M89.2696 61.1798C78.8396 61.1798 70.3496 52.6898 70.3496 42.2598C70.3496 31.8298 78.8396 23.3398 89.2696 23.3398C99.6996 23.3398 108.19 31.8298 108.19 42.2598C108.19 52.6898 99.6996 61.1798 89.2696 61.1798ZM89.2696 25.3298C79.9396 25.3298 72.3496 32.9198 72.3496 42.2498C72.3496 51.5798 79.9396 59.1698 89.2696 59.1698C98.5996 59.1698 106.19 51.5798 106.19 42.2498C106.19 32.9198 98.5996 25.3298 89.2696 25.3298Z" fill="#2F3F64"/>
<path fill-rule="evenodd" clip-rule="evenodd" d="M89.2696 24.3301C79.3696 24.3301 71.3496 32.3501 71.3496 42.2501H88.9996C89.1496 42.2501 89.2696 42.1301 89.2696 41.9801V24.3301Z" fill="#BCC5DC"/>
<path d="M88.9996 43.2501H71.3496C70.7996 43.2501 70.3496 42.8001 70.3496 42.2501C70.3496 31.8201 78.8396 23.3301 89.2696 23.3301C89.8196 23.3301 90.2696 23.7801 90.2696 24.3301V41.9801C90.2696 42.6801 89.6996 43.2501 88.9996 43.2501ZM72.3796 41.2501H88.2696V25.3601C79.7296 25.8601 72.8796 32.7201 72.3796 41.2501Z" fill="#2F3F64"/>
<path d="M89.2701 43.2497C88.8501 43.2497 88.4501 42.9797 88.3201 42.5497C88.1501 42.0197 88.4401 41.4597 88.9701 41.2897L104.83 36.2097C105.36 36.0397 105.92 36.3297 106.09 36.8597C106.26 37.3897 105.97 37.9497 105.44 38.1197L89.5801 43.1997C89.4801 43.2297 89.3801 43.2497 89.2701 43.2497Z" fill="#2F3F64"/>
<path d="M73.9793 112.559L116.039 71.3592C116.429 70.9792 117.049 70.9792 117.439 71.3592L125.899 79.7492C126.279 80.1292 126.279 80.7492 125.899 81.1292L83.8393 122.329C83.4493 122.709 82.8293 122.709 82.4393 122.329L73.9793 113.939C73.5993 113.559 73.5993 112.939 73.9793 112.559Z" fill="#FEC95C"/>
<path d="M83.1294 123.609C82.6194 123.609 82.1095 123.419 81.7295 123.039L73.2694 114.649C72.8894 114.279 72.6895 113.779 72.6895 113.249C72.6895 112.719 72.8994 112.219 73.2794 111.849L115.339 70.6493C116.109 69.8893 117.369 69.8993 118.139 70.6493L126.599 79.0393C126.979 79.4093 127.179 79.9093 127.179 80.4393C127.179 80.9693 126.969 81.4693 126.589 81.8393L84.5294 123.039C84.1394 123.419 83.6394 123.609 83.1294 123.609ZM74.6994 113.249L83.1294 121.609L125.179 80.4093L116.719 72.0693L74.6895 113.239L74.6994 113.249Z" fill="#2F3F64"/>
<path d="M78.3796 119.269C78.1196 119.269 77.8596 119.169 77.6696 118.969C77.2796 118.579 77.2896 117.939 77.6696 117.559L115.69 79.989C116.08 79.599 116.72 79.609 117.1 79.989C117.49 80.379 117.48 81.019 117.1 81.399L79.0796 118.969C78.8896 119.159 78.6296 119.259 78.3796 119.259V119.269Z" fill="#2F3F64"/>
<path d="M70.7897 127.319C70.5397 127.319 70.2997 127.229 70.1097 127.049C69.8497 126.809 69.7397 126.449 69.8097 126.109L72.6897 112.659C72.8097 112.119 73.3397 111.769 73.8797 111.889C74.4197 112.009 74.7597 112.539 74.6497 113.079L72.1197 124.879L83.0897 121.619C83.6197 121.469 84.1797 121.759 84.3297 122.289C84.4897 122.819 84.1897 123.379 83.6597 123.529L71.0797 127.269C70.9897 127.299 70.8897 127.309 70.7897 127.309V127.319Z" fill="#2F3F64"/>
<path d="M121.25 86.2391C121 86.2391 120.74 86.1391 120.55 85.9491L110.9 76.3791C110.51 75.9891 110.5 75.3591 110.9 74.9691C111.29 74.5791 111.92 74.5691 112.31 74.9691L121.96 84.5391C122.35 84.9291 122.36 85.5591 121.96 85.9491C121.76 86.1491 121.51 86.2491 121.25 86.2491V86.2391Z" fill="#2F3F64"/>
<path d="M42.8004 93.7892C42.8004 93.7892 42.7204 93.7892 42.6804 93.7892C42.2304 93.7392 41.8704 93.3792 41.8104 92.9392L39.0304 73.0392L33.0504 81.5492C32.8604 81.8192 32.5604 81.9692 32.2304 81.9692H21.4404C20.8904 81.9692 20.4404 81.5192 20.4404 80.9692C20.4404 80.4192 20.8904 79.9692 21.4404 79.9692H31.7204L38.8604 69.8192C39.1004 69.4792 39.5204 69.3192 39.9104 69.4192C40.3104 69.5192 40.6104 69.8492 40.6704 70.2492L43.2804 88.8992L48.0604 76.7892C48.2104 76.4192 48.5604 76.1692 48.9604 76.1592C49.3704 76.1592 49.7304 76.3792 49.9004 76.7492L52.6804 82.8492L57.6104 68.2192C57.7504 67.7992 58.1604 67.5092 58.6104 67.5392C59.0604 67.5592 59.4304 67.8792 59.5304 68.3192L63.9704 87.6892L67.1704 78.1892C67.3104 77.7792 67.6904 77.5092 68.1204 77.5092H80.5604C81.1104 77.5092 81.5604 77.9592 81.5604 78.5092C81.5604 79.0592 81.1104 79.5092 80.5604 79.5092H68.8404L64.7404 91.6792C64.6004 92.0992 64.1904 92.3892 63.7404 92.3592C63.2904 92.3392 62.9204 92.0192 62.8204 91.5792L58.3804 72.2092L53.7704 85.8792C53.6404 86.2692 53.2804 86.5392 52.8704 86.5592C52.4604 86.5992 52.0804 86.3492 51.9104 85.9792L49.0604 79.7192L43.7504 93.1692C43.6004 93.5592 43.2304 93.7992 42.8204 93.7992L42.8004 93.7892Z" fill="#2F3F64"/>
</svg>
