<svg width="102" height="88" viewBox="0 0 102 88" fill="none" xmlns="http://www.w3.org/2000/svg">
<path fill-rule="evenodd" clip-rule="evenodd" d="M71.1306 1.03027H5.12061C3.34061 1.03027 1.89062 2.47027 1.89062 4.26027V71.0503C1.89062 72.8303 3.33061 74.2803 5.12061 74.2803H35.6006C36.6206 74.2803 37.6006 74.6903 38.3306 75.4103L48.2506 85.3303C49.2806 86.3603 50.9406 86.3603 51.9706 85.3303L61.8906 75.4103C62.6106 74.6903 63.5906 74.2803 64.6206 74.2803H97.1807C98.9607 74.2803 100.411 72.8403 100.411 71.0503V4.26027C100.411 2.48027 98.9707 1.03027 97.1807 1.03027" fill="#BCC5DC"/>
<path d="M50.1104 87.1003C49.1404 87.1003 48.2304 86.7203 47.5504 86.0403L37.6304 76.1203C37.0904 75.5803 36.3703 75.2803 35.6104 75.2803H5.13037C2.80037 75.2803 0.900391 73.3803 0.900391 71.0503V4.26027C0.900391 1.93027 2.80037 0.0302734 5.13037 0.0302734H71.1404C71.6904 0.0302734 72.1404 0.480273 72.1404 1.03027C72.1404 1.58027 71.6904 2.03027 71.1404 2.03027H5.13037C3.90037 2.03027 2.90039 3.03027 2.90039 4.26027V71.0503C2.90039 72.2803 3.90037 73.2803 5.13037 73.2803H35.6104C36.9104 73.2803 38.1304 73.7803 39.0404 74.7003L48.9603 84.6203C49.5803 85.2403 50.6504 85.2403 51.2604 84.6203L61.1903 74.7003C62.1103 73.7803 63.3304 73.2803 64.6204 73.2803H97.1804C98.4104 73.2803 99.4104 72.2803 99.4104 71.0503V4.26027C99.4104 3.03027 98.4104 2.03027 97.1804 2.03027C96.6304 2.03027 96.1804 1.58027 96.1804 1.03027C96.1804 0.480273 96.6304 0.0302734 97.1804 0.0302734C99.5104 0.0302734 101.41 1.93027 101.41 4.26027V71.0503C101.41 73.3803 99.5104 75.2803 97.1804 75.2803H64.6204C63.8604 75.2803 63.1403 75.5803 62.6003 76.1203L52.6704 86.0403C51.9904 86.7303 51.0804 87.1003 50.1104 87.1003Z" fill="#2F3F64"/>
<path d="M46.9402 12.1004L21.2702 56.5604C19.4802 59.6604 21.7203 63.5404 25.3003 63.5404H76.6402C80.2202 63.5404 82.4603 59.6604 80.6703 56.5604L55.0002 12.1004C53.2102 9.00039 48.7302 9.00039 46.9402 12.1004Z" fill="#FEC95C"/>
<path d="M76.6407 64.5405H25.3008C23.2608 64.5405 21.4207 63.4805 20.4007 61.7105C19.3807 59.9405 19.3807 57.8305 20.4007 56.0605L46.0707 11.6005C47.0907 9.83051 48.9207 8.77051 50.9707 8.77051C53.0107 8.77051 54.8507 9.83051 55.8707 11.6005L81.5408 56.0605C82.5608 57.8305 82.5608 59.9405 81.5408 61.7105C80.5208 63.4805 78.6907 64.5405 76.6407 64.5405ZM47.8008 12.6005L22.1307 57.0605C21.4707 58.2005 21.4707 59.5705 22.1307 60.7105C22.7907 61.8505 23.9708 62.5405 25.3008 62.5405H76.6407C77.9607 62.5405 79.1408 61.8605 79.8108 60.7105C80.4708 59.5705 80.4708 58.2005 79.8108 57.0605L54.1407 12.6005C53.4807 11.4605 52.3007 10.7705 50.9807 10.7705C49.6607 10.7705 48.4808 11.4505 47.8108 12.6005H47.8008Z" fill="#2F3F64"/>
<path d="M55.0811 52.5202C55.0811 54.7202 53.3711 56.3802 51.1211 56.3802C48.8711 56.3802 47.1611 54.7202 47.1611 52.4202C47.1611 50.1202 48.8212 48.5102 51.1812 48.5102C53.5412 48.5102 55.0911 50.1702 55.0911 52.5302L55.0811 52.5202ZM54.4312 44.5402H47.7411V19.9502H54.4312V44.5402Z" fill="#2F3F64"/>
</svg>
