<svg width="128" height="127" viewBox="0 0 128 127" fill="none" xmlns="http://www.w3.org/2000/svg">
<path fill-rule="evenodd" clip-rule="evenodd" d="M72.7695 1.32031V23.6103H94.6696L72.7695 1.32031Z" fill="#2F3F64"/>
<path d="M94.6696 24.6103H72.7695C72.2195 24.6103 71.7695 24.1603 71.7695 23.6103V1.32028C71.7695 0.910277 72.0196 0.550278 72.3896 0.390278C72.7696 0.240278 73.1996 0.330277 73.4796 0.610277L95.3795 22.9003C95.6595 23.1903 95.7395 23.6203 95.5895 23.9903C95.4295 24.3603 95.0696 24.6003 94.6696 24.6003V24.6103ZM73.7695 22.6103H92.2896L73.7695 3.76028V22.6103Z" fill="#2F3F64"/>
<path fill-rule="evenodd" clip-rule="evenodd" d="M94.6695 112.57H1.26953V1.32031H32.8095H72.7695V23.6103H94.6695V68.1703" fill="white"/>
<path d="M94.6698 113.57H1.25977C0.709766 113.57 0.259766 113.12 0.259766 112.57V1.32031C0.259766 0.770312 0.709766 0.320312 1.25977 0.320312H72.7698C73.3198 0.320312 73.7698 0.770312 73.7698 1.32031V22.6103H94.6698C95.2198 22.6103 95.6698 23.0603 95.6698 23.6103V68.1603C95.6698 68.7103 95.2198 69.1603 94.6698 69.1603C94.1198 69.1603 93.6698 68.7103 93.6698 68.1603V24.6103H72.7698C72.2198 24.6103 71.7698 24.1603 71.7698 23.6103V2.32031H2.25977V111.57H94.6698C95.2198 111.57 95.6698 112.02 95.6698 112.57C95.6698 113.12 95.2198 113.57 94.6698 113.57Z" fill="#2F3F64"/>
<path d="M85.7302 64.3301H10.1602C9.61016 64.3301 9.16016 63.8801 9.16016 63.3301C9.16016 62.7801 9.61016 62.3301 10.1602 62.3301H85.7302C86.2802 62.3301 86.7302 62.7801 86.7302 63.3301C86.7302 63.8801 86.2802 64.3301 85.7302 64.3301Z" fill="#2F3F64"/>
<path d="M85.7302 74.46H10.1602C9.61016 74.46 9.16016 74.01 9.16016 73.46C9.16016 72.91 9.61016 72.46 10.1602 72.46H85.7302C86.2802 72.46 86.7302 72.91 86.7302 73.46C86.7302 74.01 86.2802 74.46 85.7302 74.46Z" fill="#2F3F64"/>
<path d="M85.7302 84.5801H10.1602C9.61016 84.5801 9.16016 84.1301 9.16016 83.5801C9.16016 83.0301 9.61016 82.5801 10.1602 82.5801H85.7302C86.2802 82.5801 86.7302 83.0301 86.7302 83.5801C86.7302 84.1301 86.2802 84.5801 85.7302 84.5801Z" fill="#2F3F64"/>
<path d="M50.6794 94.71H10.1494C9.59941 94.71 9.14941 94.26 9.14941 93.71C9.14941 93.16 9.59941 92.71 10.1494 92.71H50.6794C51.2294 92.71 51.6794 93.16 51.6794 93.71C51.6794 94.26 51.2294 94.71 50.6794 94.71Z" fill="#2F3F64"/>
<path d="M124.19 89.4707H87.45C86.0748 89.4707 84.96 90.5855 84.96 91.9607V122.681C84.96 124.056 86.0748 125.171 87.45 125.171H124.19C125.565 125.171 126.68 124.056 126.68 122.681V91.9607C126.68 90.5855 125.565 89.4707 124.19 89.4707Z" fill="#FEC95C"/>
<path d="M123.93 126.17H87.69C85.63 126.17 83.96 124.5 83.96 122.44V92.2105C83.96 90.1505 85.64 88.4805 87.69 88.4805H117.34C117.89 88.4805 118.34 88.9305 118.34 89.4805C118.34 90.0305 117.89 90.4805 117.34 90.4805H87.69C86.73 90.4805 85.96 91.2605 85.96 92.2105V122.44C85.96 123.4 86.74 124.17 87.69 124.17H123.93C124.9 124.17 125.68 123.38 125.68 122.42V98.4905C125.68 97.9405 126.13 97.4905 126.68 97.4905C127.23 97.4905 127.68 97.9405 127.68 98.4905V122.42C127.68 124.49 126 126.17 123.93 126.17Z" fill="#2F3F64"/>
<path d="M114.46 90.4705C113.91 90.4705 113.46 90.0205 113.46 89.4705V83.2805C113.46 78.4505 109.53 74.5205 104.7 74.5205C99.8704 74.5205 95.9404 78.4505 95.9404 83.2805V89.4705C95.9404 90.0205 95.4904 90.4705 94.9404 90.4705C94.3904 90.4705 93.9404 90.0205 93.9404 89.4705V83.2805C93.9404 77.3505 98.7704 72.5205 104.7 72.5205C110.63 72.5205 115.46 77.3505 115.46 83.2805V89.4705C115.46 90.0205 115.01 90.4705 114.46 90.4705Z" fill="#2F3F64"/>
<path d="M110.21 102.88C110.21 100.29 107.97 98.2202 105.32 98.5202C103.34 98.7402 101.72 100.33 101.47 102.31C101.2 104.47 102.49 106.36 104.37 107.02V111.27C104.37 111.92 104.9 112.44 105.54 112.44H106.1C106.75 112.44 107.27 111.91 107.27 111.27V107.02C108.98 106.42 110.2 104.8 110.2 102.88H110.21Z" fill="#2F3F64"/>
<path d="M21.1397 37.37L23.1897 41.11L18.6797 42.69L23.1897 44.23L20.9897 48.12L17.3197 44.89L18.2397 49.65H13.9497L14.8297 44.89L11.1997 48.15L8.92969 44.19L13.4397 42.61L8.9697 41.14L11.0597 37.36L14.8697 40.55L13.9197 35.71H18.2797L17.3297 40.55L21.1397 37.36V37.37Z" fill="#BCC5DC"/>
<path d="M40.71 37.37L42.76 41.11L38.25 42.69L42.76 44.23L40.56 48.12L36.89 44.89L37.81 49.65H33.52L34.4 44.89L30.77 48.15L28.5 44.19L33.01 42.61L28.54 41.14L30.63 37.36L34.44 40.55L33.49 35.71H37.85L36.9 40.55L40.71 37.36V37.37Z" fill="#BCC5DC"/>
<path d="M60.2793 37.37L62.3293 41.11L57.8193 42.69L62.3293 44.23L60.1293 48.12L56.4593 44.89L57.3793 49.65H53.0893L53.9693 44.89L50.3393 48.15L48.0693 44.19L52.5793 42.61L48.1093 41.14L50.1993 37.36L54.0093 40.55L53.0593 35.71H57.4193L56.4693 40.55L60.2793 37.36V37.37Z" fill="#BCC5DC"/>
<path d="M79.8496 37.37L81.8996 41.11L77.3896 42.69L81.8996 44.23L79.6996 48.12L76.0296 44.89L76.9496 49.65H72.6596L73.5396 44.89L69.9096 48.15L67.6396 44.19L72.1496 42.61L67.6796 41.14L69.7696 37.36L73.5796 40.55L72.6296 35.71H76.9896L76.0396 40.55L79.8496 37.36V37.37Z" fill="#BCC5DC"/>
</svg>
