<svg width="127" height="119" viewBox="0 0 127 119" fill="none" xmlns="http://www.w3.org/2000/svg">
<path d="M9.58045 102.66L1.97046 32.3895C1.87046 31.5895 2.11048 30.7995 2.64048 30.1995C3.17048 29.5995 3.92045 29.2695 4.71045 29.2695H22.6705C23.9405 29.2695 25.1505 29.8695 25.9205 30.8795L29.4205 35.4695C29.6105 35.7195 29.9005 35.8595 30.2105 35.8595H105.96C107.46 35.8595 108.69 37.0795 108.72 38.5695L107.56 102.66H9.58045Z" fill="#2F3F64"/>
<path d="M22.6804 30.2698C23.6404 30.2698 24.5504 30.7198 25.1304 31.4798L28.6404 36.0698C29.0204 36.5698 29.6104 36.8598 30.2304 36.8598H105.97C106.91 36.8598 107.7 37.6198 107.73 38.5598L106.59 101.66H10.4904L2.98044 32.2498C2.92044 31.7398 3.07044 31.2498 3.41044 30.8698C3.75044 30.4898 4.22044 30.2698 4.73044 30.2698H22.6904M22.6804 28.2698H4.72043C2.46043 28.2698 0.710422 30.2498 0.990422 32.4998L8.69043 103.66H108.55L109.73 38.5498C109.69 36.4998 108.02 34.8498 105.97 34.8498H30.2304L26.7204 30.2598C25.7604 28.9998 24.2604 28.2598 22.6804 28.2598V28.2698Z" fill="#2F3F64"/>
<path d="M76.7312 103.659H9.99121L28.1812 48.8595C28.5912 47.1695 30.1012 45.9795 31.8312 45.9795H122.171C124.721 45.9795 126.531 48.4695 125.731 50.8995L108.451 103.659" fill="#BCC5DC"/>
<path d="M108.461 104.659C108.361 104.659 108.251 104.639 108.151 104.609C107.631 104.439 107.341 103.869 107.511 103.349L124.791 50.5895C125.071 49.7395 124.931 48.8395 124.401 48.1195C123.881 47.3995 123.071 46.9795 122.171 46.9795H31.8308C30.5508 46.9795 29.4508 47.8495 29.1508 49.0895L11.3708 102.659H76.7208C77.2708 102.659 77.7208 103.109 77.7208 103.659C77.7208 104.209 77.2708 104.659 76.7208 104.659H9.98085C9.66085 104.659 9.36086 104.509 9.17086 104.239C8.98086 103.979 8.93084 103.649 9.03084 103.339L27.2208 48.5395C27.7208 46.4795 29.6208 44.9795 31.8209 44.9795H122.161C123.701 44.9795 125.101 45.6895 126.011 46.9395C126.911 48.1895 127.161 49.7395 126.681 51.1995L109.401 103.959C109.261 104.379 108.871 104.649 108.451 104.649L108.461 104.659Z" fill="#2F3F64"/>
<path fill-rule="evenodd" clip-rule="evenodd" d="M92.7301 15.6998V45.9898H31.8401C30.1001 45.9898 28.5901 47.1798 28.1901 48.8698L19.1201 76.2098V4.45984C19.1201 2.86984 20.4101 1.58984 21.9901 1.58984H79.7601L92.7401 15.6998H92.7301Z" fill="white"/>
<path d="M19.1104 77.1998C19.0604 77.1998 19.0004 77.1999 18.9504 77.1898C18.4704 77.1098 18.1104 76.6898 18.1104 76.1998V4.45984C18.1104 2.32984 19.8504 0.589844 21.9804 0.589844H79.7504C80.0304 0.589844 80.3004 0.709843 80.4904 0.909843L93.4704 15.0198C93.6404 15.1998 93.7304 15.4498 93.7304 15.6998V45.9898C93.7304 46.5398 93.2804 46.9898 92.7304 46.9898H31.8404C30.5604 46.9898 29.4604 47.8598 29.1604 49.0998L20.0604 76.5198C19.9204 76.9298 19.5404 77.1998 19.1104 77.1998ZM21.9804 2.58984C20.9504 2.58984 20.1104 3.42984 20.1104 4.45984V70.0098L27.2304 48.5398C27.7304 46.4798 29.6304 44.9798 31.8304 44.9798H91.7204V16.0798L79.3004 2.57984H21.9704L21.9804 2.58984Z" fill="#2F3F64"/>
<path fill-rule="evenodd" clip-rule="evenodd" d="M79.75 1.58984V15.4898H92.73" fill="#2F3F64"/>
<path d="M92.73 16.4898H79.75C79.2 16.4898 78.75 16.0398 78.75 15.4898V1.58984C78.75 1.03984 79.2 0.589844 79.75 0.589844C80.3 0.589844 80.75 1.03984 80.75 1.58984V14.4898H92.73C93.28 14.4898 93.73 14.9398 93.73 15.4898C93.73 16.0398 93.28 16.4898 92.73 16.4898Z" fill="#2F3F64"/>
<path d="M37.3807 22.0996H28.9707C28.4207 22.0996 27.9707 21.6496 27.9707 21.0996C27.9707 20.5496 28.4207 20.0996 28.9707 20.0996H37.3807C37.9307 20.0996 38.3807 20.5496 38.3807 21.0996C38.3807 21.6496 37.9307 22.0996 37.3807 22.0996Z" fill="#2F3F64"/>
<path d="M82.8406 22.0996H44.3906C43.8406 22.0996 43.3906 21.6496 43.3906 21.0996C43.3906 20.5496 43.8406 20.0996 44.3906 20.0996H82.8406C83.3906 20.0996 83.8406 20.5496 83.8406 21.0996C83.8406 21.6496 83.3906 22.0996 82.8406 22.0996Z" fill="#2F3F64"/>
<path d="M37.3807 30.0303H28.9707C28.4207 30.0303 27.9707 29.5803 27.9707 29.0303C27.9707 28.4803 28.4207 28.0303 28.9707 28.0303H37.3807C37.9307 28.0303 38.3807 28.4803 38.3807 29.0303C38.3807 29.5803 37.9307 30.0303 37.3807 30.0303Z" fill="#2F3F64"/>
<path d="M82.8406 30.0303H44.3906C43.8406 30.0303 43.3906 29.5803 43.3906 29.0303C43.3906 28.4803 43.8406 28.0303 44.3906 28.0303H82.8406C83.3906 28.0303 83.8406 28.4803 83.8406 29.0303C83.8406 29.5803 83.3906 30.0303 82.8406 30.0303Z" fill="#2F3F64"/>
<path d="M37.3807 37.9697H28.9707C28.4207 37.9697 27.9707 37.5197 27.9707 36.9697C27.9707 36.4197 28.4207 35.9697 28.9707 35.9697H37.3807C37.9307 35.9697 38.3807 36.4197 38.3807 36.9697C38.3807 37.5197 37.9307 37.9697 37.3807 37.9697Z" fill="#2F3F64"/>
<path d="M82.8406 37.9697H44.3906C43.8406 37.9697 43.3906 37.5197 43.3906 36.9697C43.3906 36.4197 43.8406 35.9697 44.3906 35.9697H82.8406C83.3906 35.9697 83.8406 36.4197 83.8406 36.9697C83.8406 37.5197 83.3906 37.9697 82.8406 37.9697Z" fill="#2F3F64"/>
<path d="M101.621 117.16C115.052 117.16 125.941 106.271 125.941 92.8395C125.941 79.408 115.052 68.5195 101.621 68.5195C88.1892 68.5195 77.3008 79.408 77.3008 92.8395C77.3008 106.271 88.1892 117.16 101.621 117.16Z" fill="#FEC95C"/>
<path d="M101.621 118.15C87.6608 118.15 76.3008 106.79 76.3008 92.8298C76.3008 78.8698 87.6608 67.5098 101.621 67.5098C115.581 67.5098 126.941 78.8698 126.941 92.8298C126.941 106.79 115.581 118.15 101.621 118.15ZM101.621 69.5198C88.7608 69.5198 78.3008 79.9798 78.3008 92.8398C78.3008 105.7 88.7608 116.16 101.621 116.16C114.481 116.16 124.941 105.7 124.941 92.8398C124.941 79.9798 114.481 69.5198 101.621 69.5198Z" fill="#2F3F64"/>
<path d="M100.391 101.379C100.351 95.1294 100.611 94.4194 104.181 91.5994C106.681 89.6794 107.391 88.5194 107.391 86.4694C107.391 83.7494 105.521 81.7794 102.971 81.7794C100.421 81.7794 98.6809 83.5194 98.6809 85.8394V86.4194H95.4209C95.4609 81.6394 98.3209 78.6494 102.921 78.6494C107.521 78.6494 110.871 81.9094 110.871 86.3694C110.871 89.3194 109.621 91.4094 106.411 93.8194C104.001 95.6494 103.691 96.2694 103.691 99.2694C103.691 99.3994 103.691 100.519 103.741 101.369H100.391V101.379ZM104.501 106.819C104.501 108.119 103.471 109.099 102.181 109.099C100.891 109.099 99.8609 108.119 99.8609 106.779C99.8609 105.439 100.841 104.459 102.181 104.459C103.521 104.459 104.501 105.439 104.501 106.829V106.819Z" fill="#2F3F64"/>
</svg>
