<svg width="114" height="108" viewBox="0 0 114 108" fill="none" xmlns="http://www.w3.org/2000/svg">
<path fill-rule="evenodd" clip-rule="evenodd" d="M97.0005 37.8602H94.7805C93.2705 37.8602 91.9605 36.8302 91.6005 35.3802C90.7405 31.9802 89.3805 28.7802 87.6005 25.8502C86.8205 24.5602 87.0004 22.9302 88.0704 21.8702L89.6405 20.3302C90.9205 19.0702 90.9205 17.0202 89.6405 15.7502L85.6405 11.7902C84.3505 10.5102 82.2705 10.5002 80.9805 11.7602L79.4005 13.3002C78.3205 14.3502 76.6505 14.5302 75.3405 13.7402C72.3505 11.9602 69.0805 10.5902 65.6105 9.7202C64.1205 9.3502 63.0704 8.05021 63.0704 6.54021V4.3402C63.0704 2.5402 61.5805 1.0702 59.7405 1.0502L54.0205 1.0002C52.1805 0.980204 50.6805 2.4302 50.6805 4.2402V6.45021C50.6805 7.96021 49.6205 9.2402 48.1305 9.6002C44.6205 10.4302 41.3105 11.7602 38.2905 13.5202C36.9605 14.2902 35.2605 14.1002 34.1705 13.0202L32.5605 11.4402C31.2505 10.1502 29.1105 10.1402 27.8005 11.4102L23.7004 15.3702C22.3804 16.6502 22.3804 18.7302 23.7004 20.0102L25.3105 21.5902C26.4105 22.6702 26.6005 24.3202 25.8005 25.6202C23.9705 28.5702 22.5704 31.8102 21.6904 35.2502C21.3104 36.7202 19.9705 37.7602 18.4105 37.7602H16.1205C14.2505 37.7602 12.7305 39.2302 12.7305 41.0402V46.6902C12.7305 48.5102 14.2505 49.9802 16.1205 49.9802H18.4105C19.9705 49.9802 21.3104 51.0102 21.6904 52.4802C22.5704 55.9202 23.9705 59.1602 25.8005 62.1102C26.6005 63.4102 26.4105 65.0602 25.3105 66.1402L23.7004 67.7202C22.3804 69.0102 22.3804 71.0902 23.7004 72.3602L27.8005 76.3202C29.1205 77.5902 31.2505 77.5802 32.5605 76.2902L34.1705 74.7102C35.2705 73.6302 36.9605 73.4402 38.2905 74.2102C41.3205 75.9702 44.6205 77.3002 48.1305 78.1302C49.6305 78.4802 50.6805 79.7702 50.6805 81.2802V83.4902C50.6805 85.2902 52.1805 86.7402 54.0205 86.7302L59.7405 86.6802C61.5805 86.6602 63.0704 85.1902 63.0704 83.3902V81.1902C63.0704 79.6902 64.1205 78.3902 65.6105 78.0102C69.0905 77.1402 72.3605 75.7702 75.3405 73.9902C76.6505 73.2102 78.3205 73.3802 79.4005 74.4302L80.9805 75.9702C82.2705 77.2302 84.3605 77.2202 85.6405 75.9402L89.6405 71.9802C90.9205 70.7102 90.9205 68.6602 89.6405 67.4002L88.0704 65.8602C86.9904 64.8102 86.8105 63.1702 87.5905 61.8802C89.3705 58.9502 90.7305 55.7502 91.5905 52.3502C91.9605 50.9002 93.2605 49.8702 94.7705 49.8702H96.9905C98.8005 49.8702 100.271 48.4202 100.271 46.6302V41.0802C100.271 39.2902 98.8005 37.8402 96.9905 37.8402L97.0005 37.8602Z" fill="#BCC5DC"/>
<path d="M53.99 87.7398C52.83 87.7398 51.7401 87.2998 50.9301 86.4898C50.1301 85.6898 49.6801 84.6298 49.6801 83.4998V81.2898C49.6801 80.2598 48.95 79.3598 47.9 79.1198C44.34 78.2798 40.94 76.9198 37.79 75.0898C36.84 74.5398 35.64 74.6798 34.87 75.4398L33.26 77.0198C31.56 78.6898 28.8 78.6998 27.1 77.0598L23 73.0998C22.17 72.2998 21.71 71.2198 21.71 70.0798C21.71 68.9298 22.17 67.8398 23 67.0298L24.61 65.4498C25.37 64.7098 25.51 63.5598 24.95 62.6598C23.04 59.5698 21.62 56.2398 20.72 52.7498C20.46 51.7198 19.51 50.9998 18.42 50.9998H16.13C14.94 50.9998 13.83 50.5398 13 49.7098C12.19 48.8998 11.75 47.8398 11.75 46.7098V41.0598C11.75 39.9298 12.19 38.8698 13 38.0598C13.83 37.2298 14.95 36.7698 16.13 36.7698H18.42C19.51 36.7698 20.46 36.0498 20.72 35.0198C21.61 31.5298 23.04 28.1998 24.95 25.1098C25.51 24.2098 25.37 23.0598 24.61 22.3198L23 20.7398C22.17 19.9298 21.71 18.8398 21.71 17.6898C21.71 16.5398 22.17 15.4698 23 14.6598L27.1 10.6998C28.8 9.05977 31.56 9.06977 33.26 10.7398L34.87 12.3198C35.64 13.0698 36.84 13.2198 37.79 12.6698C40.94 10.8398 44.35 9.48977 47.9 8.63976C48.95 8.38976 49.6801 7.49976 49.6801 6.45976V4.24977C49.6801 3.11977 50.1201 2.05977 50.9301 1.25977C51.7501 0.449766 52.83 0.00976562 53.99 0.00976562H54.03L59.75 0.0597658C62.13 0.0797658 64.0699 1.99977 64.0699 4.34977V6.54976C64.0699 7.58976 64.8 8.48977 65.85 8.75977C69.38 9.64977 72.74 11.0398 75.85 12.8898C76.78 13.4398 77.95 13.3198 78.7 12.5898L80.28 11.0498C81.95 9.40976 84.68 9.42977 86.35 11.0798L90.35 15.0398C91.17 15.8498 91.61 16.9198 91.61 18.0598C91.61 19.1898 91.16 20.2498 90.35 21.0498L88.78 22.5898C88.05 23.3098 87.91 24.4398 88.46 25.3298C90.32 28.3898 91.71 31.6798 92.58 35.1298C92.84 36.1398 93.75 36.8498 94.79 36.8498H97.01C99.37 36.8498 101.29 38.7598 101.29 41.0898V46.6398C101.29 48.9698 99.37 50.8698 97.01 50.8798H94.79C93.74 50.8798 92.83 51.5898 92.58 52.6098C91.71 56.0598 90.32 59.3598 88.46 62.4098C87.91 63.3098 88.05 64.4298 88.78 65.1498L90.35 66.6898C91.16 67.4898 91.61 68.5498 91.61 69.6798C91.61 70.8198 91.17 71.8898 90.35 72.6998L86.35 76.6598C84.68 78.3098 81.96 78.3298 80.28 76.6998L78.7 75.1598C77.95 74.4298 76.78 74.3098 75.85 74.8598C72.74 76.7198 69.37 78.1098 65.85 78.9898C64.8 79.2498 64.0699 80.1598 64.0699 81.1998V83.3998C64.0699 85.7398 62.13 87.6698 59.75 87.6898L54.03 87.7398H53.99ZM36.55 72.7598C37.32 72.7598 38.09 72.9598 38.79 73.3598C41.78 75.0898 45 76.3698 48.36 77.1698C50.32 77.6298 51.6801 79.3298 51.6801 81.2898V83.4998C51.6801 84.0898 51.91 84.6498 52.34 85.0698C52.78 85.4998 53.36 85.7398 53.99 85.7398H54.01L59.73 85.6898C61.02 85.6798 62.0699 84.6498 62.0699 83.3998V81.1998C62.0699 79.2498 63.43 77.5398 65.37 77.0598C68.71 76.2198 71.89 74.9098 74.83 73.1498C76.54 72.1298 78.7 72.3698 80.1 73.7398L81.6801 75.2798C82.5801 76.1598 84.0399 76.1498 84.9399 75.2498L88.9399 71.2898C89.3699 70.8598 89.61 70.2998 89.61 69.6998C89.61 69.1098 89.3699 68.5498 88.95 68.1298L87.38 66.5898C85.98 65.2098 85.72 63.0698 86.75 61.3798C88.51 58.4998 89.81 55.3798 90.64 52.1298C91.12 50.2298 92.83 48.8998 94.79 48.8998H97.01C98.27 48.8998 99.29 47.8898 99.29 46.6598V41.1098C99.29 39.8798 98.27 38.8698 97.01 38.8698H94.79C92.83 38.8698 91.12 37.5398 90.64 35.6298C89.82 32.3698 88.51 29.2598 86.75 26.3798C85.72 24.6898 85.98 22.5398 87.38 21.1698L88.95 19.6298C89.38 19.2098 89.61 18.6598 89.61 18.0598C89.61 17.4598 89.3699 16.8998 88.9399 16.4698L84.9399 12.5098C84.0399 11.6198 82.5801 11.6098 81.6801 12.4898L80.1 14.0298C78.7 15.3898 76.54 15.6298 74.83 14.6198C71.88 12.8598 68.7 11.5498 65.36 10.7098C63.42 10.2198 62.0699 8.51976 62.0699 6.56977V4.36977C62.0699 3.11977 61.02 2.08977 59.73 2.07977L54.01 2.02977H53.99C53.36 2.02977 52.78 2.26977 52.34 2.69977C51.92 3.11977 51.6801 3.67977 51.6801 4.26977V6.47976C51.6801 8.43976 50.31 10.1398 48.36 10.5998C44.99 11.3998 41.77 12.6798 38.79 14.4098C37.06 15.4098 34.88 15.1398 33.46 13.7598L31.85 12.1798C30.92 11.2698 29.41 11.2598 28.48 12.1498L24.38 16.1098C23.94 16.5398 23.7 17.0998 23.7 17.6998C23.7 18.3098 23.94 18.8798 24.39 19.3198L26 20.8998C27.43 22.2998 27.69 24.4698 26.64 26.1698C24.84 29.0898 23.49 32.2298 22.65 35.5298C22.16 37.4498 20.41 38.7898 18.41 38.7898H16.12C15.46 38.7898 14.85 39.0398 14.4 39.4898C13.97 39.9198 13.74 40.4798 13.74 41.0698V46.7198C13.74 47.3098 13.98 47.8798 14.4 48.2998C14.85 48.7498 15.47 48.9998 16.12 48.9998H18.41C20.42 48.9998 22.16 50.3398 22.65 52.2598C23.49 55.5498 24.84 58.6998 26.64 61.6198C27.7 63.3198 27.43 65.4898 26 66.8898L24.39 68.4698C23.94 68.9098 23.7 69.4798 23.7 70.0898C23.7 70.6898 23.94 71.2598 24.38 71.6798L28.48 75.6398C29.41 76.5398 30.92 76.5298 31.85 75.6098L33.46 74.0298C34.3 73.2098 35.42 72.7798 36.55 72.7798V72.7598Z" fill="#2F3F64"/>
<path fill-rule="evenodd" clip-rule="evenodd" d="M34.4502 43.8693C34.4502 56.0493 44.3202 65.9193 56.5002 65.9193C68.6802 65.9193 78.5503 56.0493 78.5503 43.8693C78.5503 40.3393 77.7202 36.9993 76.2502 34.0493C75.5802 32.6993 74.7702 31.4393 73.8502 30.2593C72.4202 28.4393 70.7003 26.8393 68.7703 25.5493C65.2603 23.1993 61.0402 21.8193 56.5002 21.8193C44.3202 21.8193 34.4502 31.6893 34.4502 43.8693Z" fill="white"/>
<path d="M56.5002 66.9193C43.7902 66.9193 33.4502 56.5793 33.4502 43.8693C33.4502 31.1593 43.7902 20.8193 56.5002 20.8193C61.0902 20.8193 65.5302 22.1693 69.3302 24.7193C69.7902 25.0293 69.9102 25.6493 69.6002 26.1093C69.2902 26.5693 68.6702 26.6893 68.2102 26.3793C64.7402 24.0493 60.6902 22.8193 56.5002 22.8193C44.8902 22.8193 35.4502 32.2593 35.4502 43.8693C35.4502 55.4793 44.8902 64.9193 56.5002 64.9193C68.1102 64.9193 77.5503 55.4793 77.5503 43.8693C77.5503 43.3193 78.0003 42.8693 78.5503 42.8693C79.1003 42.8693 79.5503 43.3193 79.5503 43.8693C79.5503 56.5793 69.2102 66.9193 56.5002 66.9193Z" fill="#2F3F64"/>
<path d="M88.0797 106.57C101.511 106.57 112.4 95.6813 112.4 82.2497C112.4 68.8181 101.511 57.9297 88.0797 57.9297C74.6481 57.9297 63.7598 68.8181 63.7598 82.2497C63.7598 95.6813 74.6481 106.57 88.0797 106.57Z" fill="#FEC95C"/>
<path d="M88.0797 107.56C74.1197 107.56 62.7598 96.1999 62.7598 82.2399C62.7598 68.2799 74.1197 56.9199 88.0797 56.9199C102.04 56.9199 113.4 68.2799 113.4 82.2399C113.4 96.1999 102.04 107.56 88.0797 107.56ZM88.0797 58.9299C75.2197 58.9299 64.7598 69.3899 64.7598 82.2499C64.7598 95.1099 75.2197 105.57 88.0797 105.57C100.94 105.57 111.4 95.1099 111.4 82.2499C111.4 69.3899 100.94 58.9299 88.0797 58.9299Z" fill="#2F3F64"/>
<path d="M88.6205 68.4496L96.9305 88.9596L84.3805 79.0696L88.6205 68.4496ZM103.38 93.6796L90.6005 62.9196C90.2405 62.0296 89.5105 61.5596 88.6205 61.5596C87.7305 61.5596 86.9505 62.0296 86.5905 62.9196L72.5605 96.6596H77.3605L82.9105 82.7496L99.4805 96.1396C100.15 96.6796 100.63 96.9196 101.25 96.9196C102.5 96.9196 103.6 95.9796 103.6 94.6296C103.6 94.4096 103.52 94.0596 103.38 93.6796Z" fill="#2F3F64"/>
<path fill-rule="evenodd" clip-rule="evenodd" d="M26.5996 54.5102C24.7596 49.3502 25.8997 43.3602 30.0297 39.2302C33.6397 35.6202 38.6796 34.2902 43.3396 35.2502L37.1096 41.4802L36.9197 41.5002V53.1402H48.3797L48.3997 52.9902L48.4696 53.0602L54.7496 46.7802C55.6497 51.4002 54.3096 56.3702 50.7396 59.9402C46.6096 64.0702 40.6196 65.2102 35.4596 63.3702C35.4096 63.4402 35.3497 63.5002 35.2897 63.5602L11.3696 87.4802C10.3896 88.4602 8.79959 88.4602 7.81959 87.4802L2.49965 82.1602C1.51965 81.1802 1.51965 79.5902 2.49965 78.6102L26.4197 54.6902C26.4797 54.6302 26.5496 54.5702 26.6096 54.5202L26.5996 54.5102Z" fill="#2F3F64"/>
<path d="M9.57996 89.19C8.63996 89.19 7.75998 88.82 7.09998 88.16L1.78003 82.84C1.12003 82.18 0.75 81.3 0.75 80.36C0.75 79.42 1.12003 78.54 1.78003 77.88L25.45 54.21C23.74 48.7 25.2299 42.6 29.3199 38.5C33.0499 34.77 38.37 33.18 43.54 34.25C43.9 34.32 44.19 34.59 44.3 34.94C44.41 35.29 44.3 35.67 44.05 35.93L37.92 42.06V52.11H47.87C47.93 52.07 47.9901 52.04 48.0601 52.02L54.04 46.04C54.3 45.78 54.69 45.69 55.04 45.79C55.39 45.9 55.66 46.19 55.73 46.55C56.73 51.67 55.1199 56.93 51.4399 60.61C47.3499 64.7 41.25 66.19 35.73 64.48L12.0601 88.15C11.4001 88.81 10.52 89.18 9.57996 89.18V89.19ZM40.37 35.94C36.79 35.94 33.32 37.35 30.74 39.93C27.03 43.64 25.78 49.22 27.54 54.17C27.68 54.57 27.56 55.01 27.23 55.28C27.19 55.31 27.15 55.35 27.11 55.39L3.18994 79.31C2.90994 79.59 2.75 79.97 2.75 80.38C2.75 80.79 2.90994 81.16 3.18994 81.44L8.51001 86.76C9.08001 87.33 10.07 87.33 10.64 86.76L34.5601 62.84C34.5601 62.84 34.63 62.76 34.67 62.72C34.94 62.39 35.38 62.27 35.78 62.41C40.72 64.17 46.31 62.92 50.02 59.21C52.76 56.47 54.18 52.73 54 48.91L49.17 53.74C49.17 53.74 49.14 53.77 49.13 53.78C48.95 53.99 48.68 54.12 48.38 54.12H36.92C36.37 54.12 35.92 53.67 35.92 53.12V41.48C35.92 41.03 36.22 40.64 36.64 40.52L41.21 35.95C40.93 35.93 40.65 35.92 40.38 35.92L40.37 35.94Z" fill="#2F3F64"/>
</svg>
