<svg width="127" height="124" viewBox="0 0 127 124" fill="none" xmlns="http://www.w3.org/2000/svg">
<g id="antivirus">
<g id="Layer_1" clip-path="url(#clip0_187_1513)">
<g id="Group">
<path id="Vector" fill-rule="evenodd" clip-rule="evenodd" d="M84.74 59.0703H1V63.9403C1 67.3003 3.72 70.0203 7.08 70.0203H70.01C74.11 65.7403 79.24 62.4403 84.99 60.5303C85.79 60.2603 85.59 59.0703 84.74 59.0703Z" fill="#BCC5DC"/>
<path id="Vector_2" d="M7.08 1H86.36C89.71 1 92.44 3.72 92.44 7.08V59.07H1V7.08C1 3.72 3.72 1 7.08 1Z" fill="white"/>
<path id="Vector_3" d="M59.7497 93.4102H22.1797C21.6297 93.4102 21.1797 92.9602 21.1797 92.4102C21.1797 91.8602 21.6297 91.4102 22.1797 91.4102H59.7497C60.2997 91.4102 60.7497 91.8602 60.7497 92.4102C60.7497 92.9602 60.2997 93.4102 59.7497 93.4102Z" fill="#2F3F64"/>
<path id="Vector_4" d="M46.72 60.0703H1C0.45 60.0703 0 59.6203 0 59.0703C0 58.5203 0.45 58.0703 1 58.0703H46.72C47.27 58.0703 47.72 58.5203 47.72 59.0703C47.72 59.6203 47.27 60.0703 46.72 60.0703Z" fill="#2F3F64"/>
<path id="Vector_5" d="M46.7197 67.3798C45.1797 67.3798 43.9297 66.1298 43.9297 64.5898C43.9297 63.0498 45.1797 61.7998 46.7197 61.7998C48.2597 61.7998 49.5097 63.0498 49.5097 64.5898C49.5097 66.1298 48.2597 67.3798 46.7197 67.3798Z" fill="#2F3F64"/>
<g id="Group_2">
<path id="Vector_6" d="M59.7504 70.0195H33.6904V92.4095H59.7504V70.0195Z" fill="#2F3F64"/>
<path id="Vector_7" d="M59.7504 93.4095H33.6904C33.1404 93.4095 32.6904 92.9595 32.6904 92.4095V70.0195C32.6904 69.4695 33.1404 69.0195 33.6904 69.0195H59.7504C60.3004 69.0195 60.7504 69.4695 60.7504 70.0195V92.4095C60.7504 92.9595 60.3004 93.4095 59.7504 93.4095ZM34.6904 91.4095H58.7504V71.0195H34.6904V91.4095Z" fill="#2F3F64"/>
</g>
<path id="Vector_8" d="M70.01 71.02H7.08C3.18 71.02 0 67.85 0 63.94V7.08C0 3.18 3.18 0 7.08 0H86.36C90.26 0 93.44 3.18 93.44 7.08V58.9C93.44 59.45 92.99 59.9 92.44 59.9C91.89 59.9 91.44 59.45 91.44 58.9V7.08C91.44 4.28 89.16 2 86.36 2H7.08C4.28 2 2 4.28 2 7.08V63.94C2 66.74 4.28 69.02 7.08 69.02H70.01C70.56 69.02 71.01 69.47 71.01 70.02C71.01 70.57 70.56 71.02 70.01 71.02Z" fill="#2F3F64"/>
</g>
<g id="Group_3">
<g id="Group_4">
<path id="Vector_9" d="M96.4922 98.3271L102.029 92.7905L124.805 115.566C126.332 117.094 126.332 119.569 124.805 121.096C123.277 122.623 120.803 122.623 119.275 121.096L96.4993 98.3201L96.4922 98.3271Z" fill="#2F3F64"/>
<path id="Vector_10" d="M122.03 123.249C120.77 123.249 119.51 122.769 118.56 121.809L95.7896 99.0391C95.3996 98.6491 95.3996 98.0191 95.7896 97.6291L101.32 92.0991C101.71 91.7091 102.34 91.7091 102.73 92.0991L125.5 114.869C127.42 116.789 127.42 119.899 125.5 121.819C124.54 122.779 123.28 123.259 122.03 123.259V123.249ZM97.9096 98.3291L119.98 120.399C121.12 121.529 122.96 121.529 124.1 120.399C125.24 119.259 125.24 117.419 124.1 116.279L102.03 94.2091L97.9096 98.3291Z" fill="#2F3F64"/>
</g>
<g id="Group_5">
<path id="Vector_11" d="M104.617 103.193C115.834 93.0685 116.72 75.7678 106.595 64.5509C96.4703 53.3339 79.1696 52.4484 67.9526 62.573C56.7357 72.6976 55.8502 89.9984 65.9748 101.215C76.0994 112.432 93.4002 113.318 104.617 103.193Z" fill="#BCC5DC"/>
<path id="Vector_12" d="M86.2896 111.24C79.0296 111.24 71.7596 108.47 66.2296 102.95C55.1696 91.8899 55.1696 73.8999 66.2296 62.8399C77.2896 51.7799 95.2796 51.7799 106.34 62.8399C117.4 73.8999 117.4 91.8899 106.34 102.95C100.81 108.48 93.5496 111.24 86.2796 111.24H86.2896ZM86.2896 56.5399C79.5396 56.5399 72.7896 59.1099 67.6496 64.2499C57.3696 74.5299 57.3696 91.2599 67.6496 101.54C77.9296 111.82 94.6596 111.82 104.94 101.54C115.22 91.2599 115.22 74.5299 104.94 64.2499C99.7996 59.1099 93.0496 56.5399 86.2996 56.5399H86.2896Z" fill="#2F3F64"/>
</g>
<g id="Group_6">
<path id="Vector_13" d="M101.87 100.15C111.406 91.5427 112.159 76.8345 103.552 67.2985C94.9443 57.7625 80.2362 57.0097 70.7001 65.6171C61.1641 74.2245 60.4113 88.9326 69.0187 98.4687C77.6261 108.005 92.3343 108.758 101.87 100.15Z" fill="#FEC95C"/>
<path id="Vector_14" d="M86.2902 107.14C80.0802 107.14 73.8602 104.78 69.1302 100.05C59.6702 90.5895 59.6702 75.1995 69.1302 65.7395C78.5902 56.2795 93.9802 56.2795 103.44 65.7395C112.9 75.1995 112.9 90.5895 103.44 100.05C98.7102 104.78 92.5002 107.14 86.2802 107.14H86.2902ZM70.5502 67.1495C61.8702 75.8295 61.8702 89.9495 70.5502 98.6295C79.2302 107.31 93.3502 107.31 102.03 98.6295C110.71 89.9495 110.71 75.8295 102.03 67.1495C93.3502 58.4695 79.2302 58.4695 70.5502 67.1495Z" fill="#2F3F64"/>
</g>
<g id="Group_7">
<path id="Vector_15" d="M86.3902 94.4894C80.0802 94.4894 74.9502 89.3594 74.9502 83.0494C74.9502 76.7394 80.0802 71.6094 86.3902 71.6094C92.7002 71.6094 97.8302 76.7394 97.8302 83.0494C97.8302 89.3594 92.7002 94.4894 86.3902 94.4894ZM86.3902 73.6194C81.1902 73.6194 76.9502 77.8494 76.9502 83.0594C76.9502 88.2694 81.1802 92.4994 86.3902 92.4994C91.6002 92.4994 95.8302 88.2694 95.8302 83.0594C95.8302 77.8494 91.6002 73.6194 86.3902 73.6194Z" fill="#2F3F64"/>
<path id="Vector_16" d="M86.3906 73.62C85.8406 73.62 85.3906 73.17 85.3906 72.62V68.75C85.3906 68.2 85.8406 67.75 86.3906 67.75C86.9406 67.75 87.3906 68.2 87.3906 68.75V72.62C87.3906 73.17 86.9406 73.62 86.3906 73.62Z" fill="#2F3F64"/>
<path id="Vector_17" d="M88.6806 69.5898H84.1006C83.5506 69.5898 83.1006 69.1398 83.1006 68.5898C83.1006 68.0398 83.5506 67.5898 84.1006 67.5898H88.6806C89.2306 67.5898 89.6806 68.0398 89.6806 68.5898C89.6806 69.1398 89.2306 69.5898 88.6806 69.5898Z" fill="#2F3F64"/>
<g id="Group_8">
<path id="Vector_18" d="M77.1601 78.7596C76.9901 78.7596 76.8101 78.7196 76.6501 78.6196L73.5301 76.7696C73.0601 76.4896 72.9001 75.8696 73.1801 75.3996C73.4601 74.9196 74.0801 74.7696 74.5501 75.0496L77.6701 76.8996C78.1401 77.1796 78.3001 77.7996 78.0201 78.2696C77.8301 78.5796 77.5001 78.7596 77.1601 78.7596Z" fill="#2F3F64"/>
</g>
<g id="Group_9">
<path id="Vector_19" d="M72.7309 78.7897C72.5609 78.7897 72.3809 78.7497 72.2209 78.6497C71.7409 78.3697 71.5909 77.7497 71.8709 77.2797L74.2109 73.3397C74.4909 72.8697 75.1109 72.7097 75.5809 72.9897C76.0609 73.2697 76.2109 73.8897 75.9309 74.3597L73.5909 78.2997C73.4009 78.6097 73.0709 78.7897 72.7309 78.7897Z" fill="#2F3F64"/>
</g>
<g id="Group_10">
<path id="Vector_20" d="M73.881 91.1802C73.531 91.1802 73.181 90.9902 73.001 90.6602C72.741 90.1702 72.921 89.5702 73.401 89.3002L76.801 87.4502C77.281 87.1902 77.891 87.3702 78.161 87.8502C78.431 88.3302 78.241 88.9402 77.761 89.2102L74.361 91.0602C74.211 91.1402 74.041 91.1802 73.881 91.1802Z" fill="#2F3F64"/>
</g>
<g id="Group_11">
<path id="Vector_21" d="M74.8405 93.2603C74.4905 93.2603 74.1405 93.0703 73.9605 92.7403L71.7705 88.7203C71.5105 88.2303 71.6905 87.6303 72.1705 87.3603C72.6505 87.1003 73.2605 87.2803 73.5305 87.7603L75.7205 91.7803C75.9805 92.2703 75.8005 92.8703 75.3205 93.1403C75.1705 93.2203 75.0005 93.2603 74.8405 93.2603Z" fill="#2F3F64"/>
</g>
<g id="Group_12">
<path id="Vector_22" d="M86.07 98.5995C86.07 98.5995 86.04 98.5995 86.03 98.5995C85.48 98.5795 85.05 98.1095 85.07 97.5595L85.22 93.6895C85.24 93.1495 85.68 92.7295 86.22 92.7295C86.23 92.7295 86.25 92.7295 86.26 92.7295C86.81 92.7495 87.24 93.2195 87.22 93.7695L87.07 97.6395C87.05 98.1795 86.61 98.5995 86.07 98.5995Z" fill="#2F3F64"/>
</g>
<g id="Group_13">
<path id="Vector_23" d="M88.3502 98.8495C88.3502 98.8495 88.3202 98.8495 88.3102 98.8495L83.7302 98.6695C83.1802 98.6495 82.7502 98.1795 82.7702 97.6295C82.7902 97.0795 83.2602 96.6295 83.8102 96.6695L88.3902 96.8495C88.9402 96.8695 89.3702 97.3395 89.3502 97.8895C89.3302 98.4295 88.8902 98.8495 88.3502 98.8495Z" fill="#2F3F64"/>
</g>
<g id="Group_14">
<path id="Vector_24" d="M98.6805 91.9301C98.4905 91.9301 98.3005 91.8801 98.1405 91.7701L94.8905 89.6601C94.4305 89.3601 94.2905 88.7401 94.6005 88.2801C94.9005 87.8201 95.5205 87.6801 95.9805 87.9901L99.2305 90.1001C99.6905 90.4001 99.8305 91.0201 99.5205 91.4801C99.3305 91.7701 99.0105 91.9401 98.6805 91.9401V91.9301Z" fill="#2F3F64"/>
</g>
<g id="Group_15">
<path id="Vector_25" d="M97.5701 93.9297C97.3801 93.9297 97.1901 93.8797 97.0301 93.7697C96.5701 93.4697 96.4301 92.8497 96.7401 92.3897L99.2301 88.5497C99.5301 88.0897 100.15 87.9497 100.61 88.2597C101.07 88.5597 101.21 89.1797 100.9 89.6397L98.4101 93.4797C98.2201 93.7697 97.9001 93.9397 97.5701 93.9397V93.9297Z" fill="#2F3F64"/>
</g>
<g id="Group_16">
<path id="Vector_26" d="M95.9209 79.3899C95.5509 79.3899 95.2009 79.1899 95.0209 78.8299C94.7709 78.3299 94.9809 77.7399 95.4709 77.4899L98.9409 75.7699C99.4309 75.5199 100.031 75.7299 100.281 76.2199C100.531 76.7199 100.321 77.3099 99.8309 77.5599L96.3609 79.2799C96.2209 79.3499 96.0709 79.3799 95.9209 79.3799V79.3899Z" fill="#2F3F64"/>
</g>
<g id="Group_17">
<path id="Vector_27" d="M100.55 79.6495C100.18 79.6495 99.8305 79.4495 99.6505 79.0895L97.6205 74.9795C97.3705 74.4795 97.5805 73.8895 98.0705 73.6395C98.5705 73.3995 99.1605 73.5995 99.4105 74.0895L101.44 78.1995C101.69 78.6995 101.48 79.2895 100.99 79.5395C100.85 79.6095 100.7 79.6395 100.55 79.6395V79.6495Z" fill="#2F3F64"/>
</g>
</g>
</g>
</g>
</g>
<defs>
<clipPath id="clip0_187_1513">
<rect width="126.94" height="123.25" fill="white"/>
</clipPath>
</defs>
</svg>
