<svg width="126" height="125" viewBox="0 0 126 125" fill="none" xmlns="http://www.w3.org/2000/svg">
<g clip-path="url(#clip0_227_17)">
<mask id="mask0_227_17" style="mask-type:luminance" maskUnits="userSpaceOnUse" x="0" y="0" width="126" height="125">
<path d="M126 0H0V125H126V0Z" fill="white"/>
</mask>
<g mask="url(#mask0_227_17)">
<path d="M1.5332 100.611V17.7861H124.46V100.611C124.46 100.891 124.23 101.12 123.948 101.12H2.0454C1.76369 101.12 1.5332 100.891 1.5332 100.611Z" fill="#BCC5DC"/>
<path d="M118.315 23.8789H7.68066V95.0172H118.315V23.8789Z" fill="white"/>
<path d="M5.63076 1.52539H32.2648V7.62297C31.1381 7.62297 30.2163 8.53759 30.2163 9.65547C30.2163 10.7733 31.1381 11.688 32.2648 11.688V17.7856H1.5332V5.59044C1.5332 3.35465 3.37712 1.52539 5.63076 1.52539ZM11.7771 7.62297C10.6503 7.62297 9.72834 8.53759 9.72834 9.65547C9.72834 10.7733 10.6503 11.688 11.7771 11.688C12.9039 11.688 13.8259 10.7733 13.8259 9.65547C13.8259 8.53759 12.9039 7.62297 11.7771 7.62297ZM22.021 11.688C23.1478 11.688 24.0698 10.7733 24.0698 9.65547C24.0698 8.53759 23.1478 7.62297 22.021 7.62297C20.8942 7.62297 19.9722 8.53759 19.9722 9.65547C19.9722 10.7733 20.8942 11.688 22.021 11.688Z" fill="#FEC95C"/>
<path d="M124.463 5.59044V17.7856H32.2676V11.688C33.3945 11.688 34.3164 10.7733 34.3164 9.65547C34.3164 8.53759 33.3945 7.62297 32.2676 7.62297V1.52539H120.365C122.619 1.52539 124.463 3.35465 124.463 5.59044Z" fill="#FEC95C"/>
<path d="M13.8281 76.7285H69.1452V86.8913H62.9987H40.4623H32.2671H13.8281V76.7285Z" fill="#BCC5DC"/>
<path d="M112.17 56.4014H13.8281V68.5967H112.17V56.4014Z" fill="#BCC5DC"/>
<path d="M112.172 38.1113H69.1475V48.2738H112.172V38.1113Z" fill="#BCC5DC"/>
<path d="M67.096 101.34L58.4093 106.157L66.0921 118.657L55.8483 123.474L48.1447 110.974L40.4619 115.771V86.8887L67.096 101.34Z" fill="white"/>
<path d="M56.8526 38.1113H13.8281V48.2738H56.8526V38.1113Z" fill="#BCC5DC"/>
<path d="M32.2666 7.62207C33.3933 7.62207 34.3154 8.53669 34.3154 9.6546C34.3154 10.7725 33.3933 11.6871 32.2666 11.6871C31.1396 11.6871 30.2178 10.7725 30.2178 9.6546C30.2178 8.53669 31.1396 7.62207 32.2666 7.62207Z" fill="#2F3F64"/>
<path d="M22.0214 7.62207C23.1483 7.62207 24.0702 8.53669 24.0702 9.6546C24.0702 10.7725 23.1483 11.6871 22.0214 11.6871C20.8946 11.6871 19.9727 10.7725 19.9727 9.6546C19.9727 8.53669 20.8946 7.62207 22.0214 7.62207Z" fill="#2F3F64"/>
<path d="M11.7783 7.62207C12.9051 7.62207 13.8271 8.53669 13.8271 9.6546C13.8271 10.7725 12.9051 11.6871 11.7783 11.6871C10.6515 11.6871 9.72949 10.7725 9.72949 9.6546C9.72949 8.53669 10.6515 7.62207 11.7783 7.62207Z" fill="#2F3F64"/>
<path d="M55.8475 125C55.3274 125 54.8231 124.738 54.5362 124.271L47.6446 113.089L41.2781 117.063C40.8043 117.358 40.2074 117.375 39.7157 117.106C39.2266 116.837 38.9219 116.326 38.9219 115.772V86.8903C38.9219 86.3516 39.2087 85.8537 39.6749 85.5793C40.1409 85.3048 40.7196 85.2947 41.196 85.5537L67.8301 100.005C68.3218 100.272 68.6265 100.78 68.6292 101.336C68.6292 101.89 68.3297 102.403 67.843 102.675L60.5493 106.72L67.4026 117.868C67.6305 118.237 67.6868 118.684 67.5637 119.098C67.4383 119.512 67.1438 119.855 66.7494 120.038L56.5056 124.855C56.2929 124.954 56.0702 125 55.8475 125ZM48.1439 109.451C48.2617 109.451 48.3795 109.464 48.4949 109.492C48.8943 109.586 49.2401 109.832 49.4552 110.18L56.4391 121.512L63.8913 118.008L57.0972 106.954C56.8795 106.6 56.818 106.174 56.9229 105.772C57.0281 105.371 57.2944 105.03 57.6604 104.83L63.922 101.357L42.0001 89.4612V113.011L47.327 109.685C47.5728 109.53 47.8544 109.451 48.1439 109.451Z" fill="#2F3F64"/>
<path d="M120.366 102.642H75.2926C74.4449 102.642 73.756 101.959 73.756 101.118C73.756 100.277 74.4449 99.5936 75.2926 99.5936H120.366C121.777 99.5936 122.927 98.4526 122.927 97.0529V5.58942C122.927 4.18953 121.777 3.04878 120.366 3.04878H5.63413C4.22305 3.04878 3.07317 4.18953 3.07317 5.58942V97.0529C3.07317 98.4526 4.22305 99.5936 5.63413 99.5936H32.2683C33.116 99.5936 33.8049 100.277 33.8049 101.118C33.8049 101.959 33.116 102.642 32.2683 102.642H5.63413C2.52768 102.642 0 100.135 0 97.0529V5.58942C0 2.50762 2.52768 0 5.63413 0H120.366C123.472 0 126 2.50762 126 5.58942V97.0529C126 100.135 123.472 102.642 120.366 102.642Z" fill="#2F3F64"/>
<path d="M124.463 19.3076H1.53658C0.688903 19.3076 0 18.6241 0 17.7832C0 16.9422 0.688903 16.2588 1.53658 16.2588H124.463C125.311 16.2588 126 16.9422 126 17.7832C126 18.6241 125.311 19.3076 124.463 19.3076Z" fill="#2F3F64"/>
<path d="M32.2671 30.4883H13.8281V33.5371H32.2671V30.4883Z" fill="#BCC5DC"/>
<path d="M112.171 77.2363H79.3906V80.2852H112.171V77.2363Z" fill="#BCC5DC"/>
<path d="M112.171 83.332H79.3906V86.3809H112.171V83.332Z" fill="#BCC5DC"/>
</g>
</g>
<defs>
<clipPath id="clip0_227_17">
<rect width="126" height="125" fill="white"/>
</clipPath>
</defs>
</svg>
