<svg width="125" height="125" viewBox="0 0 125 125" fill="none" xmlns="http://www.w3.org/2000/svg">
<g clip-path="url(#clip0_227_47)">
<mask id="mask0_227_47" style="mask-type:luminance" maskUnits="userSpaceOnUse" x="0" y="0" width="125" height="125">
<path d="M125 0H0V125H125V0Z" fill="white"/>
</mask>
<g mask="url(#mask0_227_47)">
<path d="M95.0165 68.5973V80.7924L84.854 90.9549H72.659H13.7158V64.5322H95.0165V68.5973Z" fill="#BCC5DC"/>
<path d="M95.0165 34.0439H13.7158V44.2067H95.0165V34.0439Z" fill="#BCC5DC"/>
<path d="M107.214 67.9889L107.518 68.2939L105.181 70.6314L95.0183 80.7939V64.5337H13.7176V90.9564H84.8558L74.6933 101.119H5.5875C3.35174 101.119 1.52246 99.2898 1.52246 97.054V13.7207H107.214V67.9889ZM95.0183 44.2084V34.0459H13.7176V44.2084H95.0183Z" fill="white"/>
<path d="M74.6941 101.118L84.8569 90.9549L95.0194 80.7924L105.182 70.6299C108.718 70.6299 111.93 72.1543 114.145 74.5729L77.5804 111.158L77.5601 111.179C75.3446 108.739 72.1534 107.215 68.5967 107.215L74.6941 101.118Z" fill="#BCC5DC"/>
<path d="M123.477 76.7273L117.38 82.825C117.38 79.634 116.16 76.7273 114.148 74.5729C111.933 72.1543 108.721 70.6299 105.185 70.6299L107.522 68.2924L111.282 64.5322C118.01 64.5322 123.477 69.9997 123.477 76.7273Z" fill="white"/>
<path d="M80.7946 119.411L64.6973 123.476L68.5996 107.216C72.1566 107.216 75.3476 108.74 77.563 111.179C79.5752 113.334 80.7946 116.22 80.7946 119.411Z" fill="white"/>
<path d="M117.381 82.8263L80.7952 119.412C80.7952 116.221 79.5757 113.334 77.5635 111.18L77.5838 111.16L114.149 74.5742C116.161 76.7289 117.381 79.6353 117.381 82.8263Z" fill="#BCC5DC"/>
<path d="M11.6851 9.65547C12.803 9.65547 13.7176 8.74084 13.7176 7.62297C13.7176 6.50506 12.803 5.59044 11.6851 5.59044C10.5672 5.59044 9.65255 6.50506 9.65255 7.62297C9.65255 8.74084 10.5672 9.65547 11.6851 9.65547ZM19.8151 9.65547C20.933 9.65547 21.8477 8.74084 21.8477 7.62297C21.8477 6.50506 20.933 5.59044 19.8151 5.59044C18.6973 5.59044 17.7826 6.50506 17.7826 7.62297C17.7826 8.74084 18.6973 9.65547 19.8151 9.65547ZM107.214 13.7205H1.52246V5.59044C1.52246 3.35465 3.35174 1.52539 5.5875 1.52539H103.149C105.384 1.52539 107.214 3.35465 107.214 5.59044V13.7205ZM27.9452 9.65547C29.0631 9.65547 29.9779 8.74084 29.9779 7.62297C29.9779 6.50506 29.0631 5.59044 27.9452 5.59044C26.8274 5.59044 25.9127 6.50506 25.9127 7.62297C25.9127 8.74084 26.8274 9.65547 27.9452 9.65547Z" fill="#FEC95C"/>
<path d="M27.9446 5.58789C29.0625 5.58789 29.9771 6.50254 29.9771 7.62042C29.9771 8.7383 29.0625 9.65295 27.9446 9.65295C26.8268 9.65295 25.9121 8.7383 25.9121 7.62042C25.9121 6.50254 26.8268 5.58789 27.9446 5.58789Z" fill="#2F3F64"/>
<path d="M19.8147 5.58789C20.9326 5.58789 21.8473 6.50254 21.8473 7.62042C21.8473 8.7383 20.9326 9.65295 19.8147 9.65295C18.6968 9.65295 17.7822 8.7383 17.7822 7.62042C17.7822 6.50254 18.6968 5.58789 19.8147 5.58789Z" fill="#2F3F64"/>
<path d="M11.6858 5.58789C12.8037 5.58789 13.7184 6.50254 13.7184 7.62042C13.7184 8.7383 12.8037 9.65295 11.6858 9.65295C10.568 9.65295 9.65332 8.7383 9.65332 7.62042C9.65332 6.50254 10.568 5.58789 11.6858 5.58789Z" fill="#2F3F64"/>
<path d="M62.5 102.642H5.58942C2.50762 102.642 0 100.135 0 97.0529V5.58942C0 2.50762 2.50762 0 5.58942 0H103.15C106.232 0 108.74 2.50762 108.74 5.58942V56.4023C108.74 57.2433 108.056 57.9267 107.215 57.9267C106.374 57.9267 105.691 57.2433 105.691 56.4023V5.58942C105.691 4.18953 104.55 3.04878 103.15 3.04878H5.58942C4.18953 3.04878 3.04878 4.18953 3.04878 5.58942V97.0529C3.04878 98.4526 4.18953 99.5936 5.58942 99.5936H62.5C63.341 99.5936 64.0244 100.277 64.0244 101.118C64.0244 101.959 63.341 102.642 62.5 102.642Z" fill="#2F3F64"/>
<path d="M95.0216 45.7309H13.7207C12.8797 45.7309 12.1963 45.0474 12.1963 44.2065V34.0439C12.1963 33.203 12.8797 32.5195 13.7207 32.5195H95.0216C95.8625 32.5195 96.546 33.203 96.546 34.0439V44.2065C96.546 45.0474 95.8625 45.7309 95.0216 45.7309ZM15.2451 42.682H93.4971V35.5684H15.2451V42.682Z" fill="#2F3F64"/>
<path d="M72.6637 92.4803H13.7207C12.8797 92.4803 12.1963 91.7969 12.1963 90.9559V64.5332C12.1963 63.6922 12.8797 63.0088 13.7207 63.0088H95.0216C95.8625 63.0088 96.546 63.6922 96.546 64.5332V68.5983C96.546 69.4393 95.8625 70.1227 95.0216 70.1227C94.1806 70.1227 93.4971 69.4393 93.4971 68.5983V66.0576H15.2451V89.4315H72.6637C73.5047 89.4315 74.1881 90.1149 74.1881 90.9559C74.1881 91.7969 73.5047 92.4803 72.6637 92.4803Z" fill="#2F3F64"/>
<path d="M107.215 15.2451H1.52439C0.683436 15.2451 0 14.5616 0 13.7207C0 12.8797 0.683436 12.1963 1.52439 12.1963H107.215C108.056 12.1963 108.74 12.8797 108.74 13.7207C108.74 14.5616 108.056 15.2451 107.215 15.2451Z" fill="#2F3F64"/>
<path d="M32.0134 25.4082H13.7207C12.8797 25.4082 12.1963 24.7247 12.1963 23.8838C12.1963 23.0428 12.8797 22.3594 13.7207 22.3594H32.0134C32.8544 22.3594 33.5378 23.0428 33.5378 23.8838C33.5378 24.7247 32.8544 25.4082 32.0134 25.4082Z" fill="#2F3F64"/>
<path d="M32.0134 55.8945H13.7207C12.8797 55.8945 12.1963 55.2111 12.1963 54.3701C12.1963 53.5291 12.8797 52.8457 13.7207 52.8457H32.0134C32.8544 52.8457 33.5378 53.5291 33.5378 54.3701C33.5378 55.2111 32.8544 55.8945 32.0134 55.8945Z" fill="#2F3F64"/>
<path d="M64.6965 125.001C64.3 125.001 63.9139 124.846 63.6244 124.562C63.2456 124.186 63.0884 123.639 63.2128 123.121L67.1151 106.861C67.1811 106.587 67.3209 106.338 67.5192 106.139L110.202 63.4566C110.797 62.8621 111.762 62.8621 112.359 63.4566C112.953 64.0511 112.953 65.0165 112.359 65.611L69.9811 107.989L66.7671 121.381L80.014 118.035L122.4 75.649C122.994 75.0546 123.96 75.0546 124.557 75.649C125.151 76.2435 125.151 77.2092 124.557 77.8037L81.8738 120.487C81.6782 120.682 81.4369 120.819 81.1701 120.888L65.0724 124.953C64.948 124.983 64.8235 124.999 64.6991 124.999L64.6965 125.001Z" fill="#2F3F64"/>
<path d="M123.474 78.2527C122.633 78.2527 121.95 77.5693 121.95 76.7283C121.95 70.8443 117.163 66.0576 111.279 66.0576C110.438 66.0576 109.755 65.3742 109.755 64.5332C109.755 63.6922 110.438 63.0088 111.279 63.0088C118.845 63.0088 124.999 69.1623 124.999 76.7283C124.999 77.5693 124.315 78.2527 123.474 78.2527Z" fill="#2F3F64"/>
<path d="M80.7898 120.934C79.9488 120.934 79.2654 120.251 79.2654 119.41C79.2654 116.722 78.2642 114.166 76.4453 112.22C74.4305 110.002 71.5747 108.739 68.5947 108.739C67.7537 108.739 67.0703 108.056 67.0703 107.215C67.0703 106.374 67.7537 105.69 68.5947 105.69C72.4311 105.69 76.1098 107.317 78.686 110.154C81.0209 112.654 82.3142 115.947 82.3142 119.41C82.3142 120.251 81.6308 120.934 80.7898 120.934Z" fill="#2F3F64"/>
<path d="M117.378 84.3494C116.537 84.3494 115.853 83.6659 115.853 82.825C115.853 80.1218 114.852 77.5607 113.033 75.6145C111.016 73.4119 108.158 72.154 105.183 72.154C104.342 72.154 103.658 71.4706 103.658 70.6299C103.658 69.7889 104.342 69.1055 105.183 69.1055C109.009 69.1055 112.688 70.7238 115.269 73.5438C117.609 76.0491 118.902 79.3468 118.902 82.825C118.902 83.6659 118.219 84.3494 117.378 84.3494Z" fill="#2F3F64"/>
<path d="M77.5828 112.683C77.1915 112.683 76.8028 112.536 76.5054 112.236C75.911 111.642 75.911 110.676 76.5054 110.079L113.071 73.4936C113.665 72.8991 114.63 72.8968 115.228 73.4936C115.822 74.0884 115.822 75.0538 115.228 75.6509L78.6627 112.236C78.3653 112.533 77.9714 112.683 77.5828 112.683Z" fill="#2F3F64"/>
</g>
</g>
<defs>
<clipPath id="clip0_227_47">
<rect width="125" height="125" fill="white"/>
</clipPath>
</defs>
</svg>
