<svg width="126" height="98" viewBox="0 0 126 98" fill="none" xmlns="http://www.w3.org/2000/svg">
<g id="application">
<g id="Group">
<path id="Vector" fill-rule="evenodd" clip-rule="evenodd" d="M8.80003 87.78H4.37003C1.95003 87.78 -0.0099619 85.81 3.80959e-05 83.39L0.340034 4.38995C0.340034 1.96995 2.33004 0 4.75004 0H111.22C113.64 0 115.6 1.96995 115.59 4.38995L115.57 8.63H13.53C11.11 8.63 9.13003 10.6 9.12003 13.02L8.80003 87.78Z" fill="#2F3F64"/>
<path id="Vector_2" fill-rule="evenodd" clip-rule="evenodd" d="M124.58 11.3601L124.23 92.1201C124.22 94.6001 122.2 96.6101 119.72 96.6101H10.8802C8.40019 96.6101 6.40019 94.6001 6.41019 92.1201L6.7602 11.3601C6.7702 8.88011 8.79018 6.87012 11.2702 6.87012H120.11C122.59 6.87012 124.59 8.88011 124.58 11.3601Z" fill="white"/>
<path id="Vector_3" d="M119.72 97.6099H10.8801C9.42007 97.6099 8.04008 97.0399 7.01008 95.9999C5.98008 94.9599 5.41005 93.5799 5.42005 92.1199L5.77006 11.3599C5.78006 8.33986 8.25007 5.87988 11.2801 5.87988H120.12C121.59 5.87988 122.96 6.44987 124 7.48987C125.03 8.52987 125.6 9.90987 125.59 11.3699L125.24 92.1299C125.23 95.1499 122.76 97.6099 119.73 97.6099H119.72ZM11.2701 7.86987C9.34006 7.86987 7.77008 9.43986 7.76008 11.3599L7.41007 92.1199C7.41007 93.0499 7.77005 93.9198 8.42005 94.5798C9.08005 95.2398 9.95007 95.5999 10.8801 95.5999H119.72C121.64 95.5999 123.22 94.0299 123.23 92.1099L123.58 11.3499C123.58 10.4199 123.23 9.54983 122.57 8.88983C121.91 8.22983 121.04 7.86987 120.11 7.86987H11.2701Z" fill="#2F3F64"/>
<path id="Vector_4" d="M124.86 7.45996H7.86035V19.64H124.86V7.45996Z" fill="#BCC5DC"/>
<path id="Vector_5" fill-rule="evenodd" clip-rule="evenodd" d="M17.8504 10.3203C19.3604 10.3203 20.5904 11.5603 20.5904 13.0803C20.5904 14.6003 19.3604 15.8403 17.8504 15.8403C16.3404 15.8403 15.1104 14.6003 15.1104 13.0803C15.1104 11.5603 16.3404 10.3203 17.8504 10.3203Z" fill="#2F3F64"/>
<path id="Vector_6" fill-rule="evenodd" clip-rule="evenodd" d="M28.3396 10.3203C29.8496 10.3203 31.0796 11.5603 31.0796 13.0803C31.0796 14.6003 29.8496 15.8403 28.3396 15.8403C26.8296 15.8403 25.5996 14.6003 25.5996 13.0803C25.5996 11.5603 26.8296 10.3203 28.3396 10.3203Z" fill="#2F3F64"/>
<path id="Vector_7" fill-rule="evenodd" clip-rule="evenodd" d="M39.28 10.3203C40.8 10.3203 42.02 11.5603 42.02 13.0803C42.02 14.6003 40.79 15.8403 39.28 15.8403C37.77 15.8403 36.54 14.6003 36.54 13.0803C36.54 11.5603 37.77 10.3203 39.28 10.3203Z" fill="#2F3F64"/>
<path id="Vector_8" d="M83.4597 20.3898H6.71973C6.44973 20.3898 6.19974 20.2799 6.00974 20.0999C5.81974 19.9099 5.71973 19.6598 5.71973 19.3898L5.74973 11.3599C5.75973 8.33986 8.22974 5.87988 11.2597 5.87988H120.1C121.57 5.87988 122.94 6.44987 123.98 7.48987C125.01 8.52987 125.58 9.90987 125.57 11.3699L125.54 19.3998C125.54 19.9498 125.09 20.3998 124.54 20.3998C123.99 20.3998 123.54 19.9498 123.54 19.3998L123.57 11.3699C123.57 10.4399 123.22 9.56985 122.56 8.90985C121.9 8.24985 121.03 7.88983 120.1 7.88983H11.2597C9.32974 7.88983 7.75973 9.45988 7.74973 11.3799L7.71973 18.4099H83.4497C83.9997 18.4099 84.4497 18.8599 84.4497 19.4099C84.4497 19.9599 83.9997 20.4099 83.4497 20.4099L83.4597 20.3898Z" fill="#2F3F64"/>
</g>
<path id="Vector_9" d="M59.3202 82.1604C59.2402 82.1604 59.1602 82.1604 59.0802 82.1304C58.5402 82.0004 58.2202 81.4604 58.3502 80.9204L70.8702 30.2404C71.0002 29.7004 71.5402 29.3803 72.0802 29.5103C72.6202 29.6403 72.9402 30.1804 72.8102 30.7204L60.2902 81.4004C60.1802 81.8604 59.7702 82.1604 59.3202 82.1604Z" fill="#2F3F64"/>
<path id="Vector_10" d="M79.0201 73.8099C78.7601 73.8099 78.5101 73.7099 78.3101 73.5199C77.9201 73.1299 77.9201 72.4999 78.3101 72.1099L93.6601 56.7499C93.8501 56.5599 93.9501 56.3099 93.9501 56.0399C93.9501 55.7699 93.8501 55.5199 93.6601 55.3299L78.3101 39.9799C77.9201 39.5899 77.9201 38.9598 78.3101 38.5698C78.7001 38.1798 79.3301 38.1798 79.7201 38.5698L95.0701 53.9199C95.6401 54.4899 95.9501 55.2399 95.9501 56.0399C95.9501 56.8399 95.6401 57.5899 95.0701 58.1599L79.7201 73.5199C79.5201 73.7199 79.2701 73.8099 79.0101 73.8099H79.0201Z" fill="#2F3F64"/>
<path id="Vector_11" d="M52.2798 73.8099C52.0198 73.8099 51.7699 73.7099 51.5699 73.5199L36.2198 58.1599C35.6498 57.5899 35.3398 56.8399 35.3398 56.0399C35.3398 55.2399 35.6498 54.4899 36.2198 53.9199L51.5699 38.5698C51.9599 38.1798 52.5899 38.1798 52.9799 38.5698C53.3699 38.9598 53.3699 39.5899 52.9799 39.9799L37.6299 55.3299C37.4399 55.5199 37.3398 55.7699 37.3398 56.0399C37.3398 56.3099 37.4399 56.5599 37.6299 56.7499L52.9799 72.1099C53.3699 72.4999 53.3699 73.1299 52.9799 73.5199C52.7799 73.7199 52.5298 73.8099 52.2698 73.8099H52.2798Z" fill="#2F3F64"/>
</g>
</svg>
