<svg viewBox="0 0 127 126" fill="none" xmlns="http://www.w3.org/2000/svg">
<g id="approve-requests">
<path id="Vector" fill-rule="evenodd" clip-rule="evenodd" d="M117.62 95.48V98.86C117.59 101.35 115.46 103.36 112.84 103.36H5.39994C2.77994 103.36 0.659957 101.34 0.669957 98.86L1.02005 17.79C1.03005 15.31 3.17007 13.29 5.79007 13.29H10.19L9.85013 90.78C9.84013 93.37 12.0501 95.48 14.7801 95.48H117.62Z" fill="#2F3F64"/>
<path id="Vector_2" fill-rule="evenodd" clip-rule="evenodd" d="M115.51 6.24002L115.14 90.79C115.13 93.38 113.01 95.49 110.42 95.49H14.5198C11.9298 95.49 9.82988 93.39 9.83988 90.79L10.2098 6.24002C10.2198 3.65002 12.3297 1.54004 14.9297 1.54004H110.83C113.42 1.54004 115.52 3.64002 115.51 6.24002Z" fill="white"/>
<path id="Vector_3" d="M110.42 96.48H14.5197C12.9997 96.48 11.5696 95.89 10.4996 94.81C9.42964 93.73 8.83973 92.3 8.84973 90.78L9.21961 6.23004C9.22961 3.09004 11.7996 0.540039 14.9396 0.540039H110.84C112.36 0.540039 113.79 1.13002 114.86 2.21002C115.93 3.29002 116.52 4.72002 116.51 6.24002L116.14 90.78C116.13 93.92 113.56 96.47 110.42 96.47V96.48ZM14.9296 2.54004C12.8896 2.54004 11.2196 4.20002 11.2096 6.24002L10.8397 90.78C10.8397 91.77 11.2195 92.69 11.9095 93.39C12.5995 94.09 13.5297 94.47 14.5197 94.47H110.42C112.46 94.47 114.13 92.81 114.14 90.77L114.51 6.23004C114.51 5.24004 114.13 4.32003 113.44 3.62003C112.74 2.92003 111.82 2.54004 110.83 2.54004H14.9296Z" fill="#2F3F64"/>
<path id="Vector_4" fill-rule="evenodd" clip-rule="evenodd" d="M10.1799 13.9698L10.21 5.99982C10.22 3.53982 12.03 1.5498 14.24 1.5498H111.54C113.75 1.5498 115.54 3.53982 115.53 5.99982L115.49 13.9698H10.1699H10.1799Z" fill="#BCC5DC"/>
<path id="Vector_5" fill-rule="evenodd" clip-rule="evenodd" d="M21.22 4.96973C22.72 4.96973 23.9399 6.19972 23.9399 7.70972C23.9399 9.21972 22.72 10.4497 21.22 10.4497C19.72 10.4497 18.5 9.21972 18.5 7.70972C18.5 6.19972 19.72 4.96973 21.22 4.96973Z" fill="#2F3F64"/>
<path id="Vector_6" fill-rule="evenodd" clip-rule="evenodd" d="M31.6301 4.96973C33.1301 4.96973 34.3503 6.19972 34.3503 7.70972C34.3503 9.21972 33.1301 10.4497 31.6301 10.4497C30.1301 10.4497 28.9102 9.21972 28.9102 7.70972C28.9102 6.19972 30.1301 4.96973 31.6301 4.96973Z" fill="#2F3F64"/>
<path id="Vector_7" fill-rule="evenodd" clip-rule="evenodd" d="M42.5002 4.96973C44.0002 4.96973 45.2202 6.19972 45.2202 7.70972C45.2202 9.21972 44.0002 10.4497 42.5002 10.4497C41.0002 10.4497 39.7803 9.21972 39.7803 7.70972C39.7803 6.19972 41.0002 4.96973 42.5002 4.96973Z" fill="#2F3F64"/>
<path id="Vector_8" d="M78.8096 14.9698H10.1895C9.91945 14.9698 9.66949 14.8598 9.47949 14.6798C9.28949 14.4898 9.18945 14.2398 9.18945 13.9698L9.21948 5.99982C9.22948 2.99982 11.4895 0.549805 14.2495 0.549805H111.58C112.84 0.549805 114.039 1.05981 114.969 1.98981C115.999 3.01981 116.58 4.48983 116.57 6.00983L116.54 13.9798C116.54 14.5298 116.09 14.9798 115.54 14.9798C114.99 14.9798 114.54 14.5298 114.54 13.9798L114.57 6.00983C114.57 5.00983 114.2 4.06982 113.55 3.40982C113.01 2.85982 112.3 2.55981 111.58 2.55981H14.2495C12.5895 2.55981 11.2295 4.10981 11.2195 6.01981L11.1895 12.9898H78.8096C79.3596 12.9898 79.8096 13.4398 79.8096 13.9898C79.8096 14.5398 79.3596 14.9898 78.8096 14.9898V14.9698Z" fill="#2F3F64"/>
<path id="Vector_9" d="M42.6399 51.0197H103.25C104.48 51.0197 105.48 52.0198 105.48 53.2498V57.6998C105.48 58.9298 104.48 59.9198 103.26 59.9198H42.6499C41.4199 59.9198 40.4199 58.9198 40.4199 57.6898V53.2397C40.4199 52.0097 41.4199 51.0098 42.6499 51.0098L42.6399 51.0197Z" fill="white"/>
<path id="Vector_10" d="M103.24 60.9295H42.6304C40.8504 60.9295 39.4004 59.4796 39.4004 57.6996V53.2495C39.4004 51.4695 40.8504 50.0195 42.6304 50.0195H103.24C105.02 50.0195 106.47 51.4695 106.47 53.2495V57.6996C106.47 59.4796 105.02 60.9295 103.24 60.9295ZM42.6404 52.0195C41.9604 52.0195 41.4104 52.5695 41.4104 53.2495V57.6996C41.4104 58.3796 41.9604 58.9295 42.6404 58.9295H103.25C103.93 58.9295 104.48 58.3796 104.48 57.6996V53.2495C104.48 52.5695 103.93 52.0195 103.25 52.0195H42.6404Z" fill="#BCC5DC"/>
<path id="Vector_11" d="M103.24 30.3896H42.6401C41.4085 30.3896 40.4102 31.388 40.4102 32.6196V37.0596C40.4102 38.2912 41.4085 39.2896 42.6401 39.2896H103.24C104.472 39.2896 105.47 38.2912 105.47 37.0596V32.6196C105.47 31.388 104.472 30.3896 103.24 30.3896Z" fill="white"/>
<path id="Vector_12" d="M103.24 40.2899H42.6304C40.8504 40.2899 39.4004 38.8399 39.4004 37.0599V32.6099C39.4004 30.8299 40.8504 29.3799 42.6304 29.3799H103.24C105.02 29.3799 106.47 30.8299 106.47 32.6099V37.0599C106.47 38.8399 105.02 40.2899 103.24 40.2899ZM42.6404 31.3899C41.9604 31.3899 41.4104 31.9399 41.4104 32.6199V37.0699C41.4104 37.7499 41.9604 38.2999 42.6404 38.2999H103.25C103.93 38.2999 104.48 37.7499 104.48 37.0699V32.6199C104.48 31.9399 103.93 31.3899 103.25 31.3899H42.6404Z" fill="#BCC5DC"/>
<path id="Vector_13" d="M27.7695 69.5598C27.2195 69.5598 26.7695 69.1098 26.7695 68.5598V36.7998C26.7695 36.2498 27.2195 35.7998 27.7695 35.7998C28.3195 35.7998 28.7695 36.2498 28.7695 36.7998V68.5598C28.7695 69.1098 28.3195 69.5598 27.7695 69.5598Z" fill="#BCC5DC"/>
<path id="Vector_14" d="M42.6399 70.6204H83.01C84.24 70.6204 85.24 71.6204 85.24 72.8504V77.3004C85.24 78.5304 84.24 79.5204 83.02 79.5204H42.6499C41.4199 79.5204 40.4199 78.5204 40.4199 77.2904V72.8404C40.4199 71.6104 41.4199 70.6104 42.6499 70.6104L42.6399 70.6204Z" fill="#FEC95C"/>
<path id="Vector_15" fill-rule="evenodd" clip-rule="evenodd" d="M27.7703 29.7695C30.5703 29.7695 32.8403 32.0395 32.8403 34.8395C32.8403 37.6395 30.5703 39.9095 27.7703 39.9095C24.9703 39.9095 22.7002 37.6395 22.7002 34.8395C22.7002 32.0395 24.9703 29.7695 27.7703 29.7695Z" fill="#BCC5DC"/>
<path id="Vector_16" fill-rule="evenodd" clip-rule="evenodd" d="M27.7703 50.3398C30.5703 50.3398 32.8403 52.6099 32.8403 55.4099C32.8403 58.2099 30.5703 60.4799 27.7703 60.4799C24.9703 60.4799 22.7002 58.2099 22.7002 55.4099C22.7002 52.6099 24.9703 50.3398 27.7703 50.3398Z" fill="#BCC5DC"/>
<path id="Vector_17" fill-rule="evenodd" clip-rule="evenodd" d="M27.77 68.5596C31.37 68.5596 34.29 71.4796 34.29 75.0796C34.29 78.6796 31.37 81.5996 27.77 81.5996C24.17 81.5996 21.25 78.6796 21.25 75.0796C21.25 71.4796 24.17 68.5596 27.77 68.5596Z" fill="#FEC95C"/>
<path id="Vector_18" d="M27.77 82.5898C23.63 82.5898 20.25 79.2198 20.25 75.0698C20.25 70.9198 23.62 67.5498 27.77 67.5498C31.92 67.5498 35.29 70.9198 35.29 75.0698C35.29 79.2198 31.92 82.5898 27.77 82.5898ZM27.77 69.5598C24.73 69.5598 22.25 72.0298 22.25 75.0798C22.25 78.1298 24.72 80.5998 27.77 80.5998C30.82 80.5998 33.29 78.1298 33.29 75.0798C33.29 72.0298 30.82 69.5598 27.77 69.5598Z" fill="#2F3F64"/>
<path id="Vector_19" fill-rule="evenodd" clip-rule="evenodd" d="M101.57 77.0596C114.8 77.0596 125.54 87.7996 125.54 101.03C125.54 114.26 114.8 125 101.57 125C88.3396 125 77.5996 114.26 77.5996 101.03C77.5996 87.7996 88.3396 77.0596 101.57 77.0596Z" fill="#FEC95C"/>
<path id="Vector_20" d="M101.57 126C87.7996 126 76.5996 114.8 76.5996 101.03C76.5996 87.2596 87.7996 76.0596 101.57 76.0596C115.34 76.0596 126.54 87.2596 126.54 101.03C126.54 114.8 115.34 126 101.57 126ZM101.57 78.0596C88.8996 78.0596 78.5996 88.3696 78.5996 101.03C78.5996 113.69 88.9096 124 101.57 124C114.23 124 124.54 113.7 124.54 101.03C124.54 88.3596 114.23 78.0596 101.57 78.0596Z" fill="#2F3F64"/>
<path id="Vector_21" d="M96.53 109.79C96.27 109.79 96.0201 109.69 95.8201 109.5L87.3101 100.99C86.9201 100.6 86.9201 99.9695 87.3101 99.5795C87.7001 99.1895 88.33 99.1895 88.72 99.5795L96.52 107.38L114.4 89.4995C114.79 89.1095 115.42 89.1095 115.81 89.4995C116.2 89.8895 116.2 90.5195 115.81 90.9095L97.22 109.5C97.02 109.7 96.77 109.79 96.51 109.79H96.53Z" fill="#2F3F64"/>
</g>
</svg>
