<svg width="126" height="95" viewBox="0 0 126 95" fill="none" xmlns="http://www.w3.org/2000/svg">
<path d="M90.48 8.59961H5C2.23858 8.59961 0 10.8382 0 13.5996V63.7296C0 66.491 2.23858 68.7296 5 68.7296H90.48C93.2415 68.7296 95.48 66.491 95.48 63.7296V13.5996C95.48 10.8382 93.2415 8.59961 90.48 8.59961Z" fill="#2F3F64"/>
<path fill-rule="evenodd" clip-rule="evenodd" d="M12.4502 61.2696C9.6902 61.2696 7.4502 59.0296 7.4502 56.2696V6.13965C7.4502 3.37965 9.6902 1.13965 12.4502 1.13965H97.9302C100.69 1.13965 102.93 3.37965 102.93 6.13965V56.2696C102.93 59.0296 100.69 61.2696 97.9302 61.2696H12.4502Z" fill="white"/>
<path d="M97.9302 62.2696H12.4502C9.1402 62.2696 6.4502 59.5796 6.4502 56.2696V6.13965C6.4502 2.82965 9.1402 0.139648 12.4502 0.139648H97.9302C101.24 0.139648 103.93 2.82965 103.93 6.13965V56.2696C103.93 59.5796 101.24 62.2696 97.9302 62.2696ZM12.4502 2.13965C10.2402 2.13965 8.4502 3.92965 8.4502 6.13965V56.2696C8.4502 58.4796 10.2402 60.2696 12.4502 60.2696H97.9302C100.14 60.2696 101.93 58.4796 101.93 56.2696V6.13965C101.93 3.92965 100.14 2.13965 97.9302 2.13965H12.4502Z" fill="#2F3F64"/>
<path fill-rule="evenodd" clip-rule="evenodd" d="M13.0801 2.13965L51.9301 36.2896C53.8901 38.0496 56.5101 38.0496 58.4701 36.2896L96.6201 2.13965H13.0801Z" fill="#BCC5DC"/>
<path d="M8.73977 60.4199C8.47977 60.4199 8.2298 60.3199 8.0298 60.1299C7.6398 59.7399 7.6398 59.1099 8.0298 58.7199L40.6398 26.1099C41.0298 25.7199 41.6598 25.7199 42.0498 26.1099C42.4398 26.4999 42.4398 27.1299 42.0498 27.5199L9.43978 60.1299C9.23978 60.3299 8.98982 60.4199 8.72982 60.4199H8.73977Z" fill="#2F3F64"/>
<path d="M101.45 60.4197C101.19 60.4197 100.94 60.3197 100.74 60.1297L68.2202 27.6097C67.8302 27.2197 67.8302 26.5897 68.2202 26.1997C68.6102 25.8097 69.2402 25.8097 69.6302 26.1997L102.15 58.7197C102.54 59.1097 102.54 59.7397 102.15 60.1297C101.95 60.3297 101.7 60.4197 101.44 60.4197H101.45Z" fill="#2F3F64"/>
<path d="M100.2 93.3304C113.631 93.3304 124.52 82.442 124.52 69.0104C124.52 55.5789 113.631 44.6904 100.2 44.6904C86.7683 44.6904 75.8799 55.5789 75.8799 69.0104C75.8799 82.442 86.7683 93.3304 100.2 93.3304Z" fill="#FEC95C"/>
<path d="M100.2 94.3304C86.2399 94.3304 74.8799 82.9704 74.8799 69.0104C74.8799 55.0504 86.2399 43.6904 100.2 43.6904C114.16 43.6904 125.52 55.0504 125.52 69.0104C125.52 82.9704 114.16 94.3304 100.2 94.3304ZM100.2 45.7004C87.3399 45.7004 76.8799 56.1604 76.8799 69.0204C76.8799 81.8804 87.3399 92.3404 100.2 92.3404C113.06 92.3404 123.52 81.8804 123.52 69.0204C123.52 56.1604 113.06 45.7004 100.2 45.7004Z" fill="#2F3F64"/>
<path d="M55.1898 38.62C53.8098 38.62 52.4298 38.09 51.2498 37.03L12.0999 1.87997C11.6899 1.50997 11.6498 0.879972 12.0198 0.469972C12.3898 0.0599717 13.0198 0.0199699 13.4298 0.38997L52.5798 35.54C54.1598 36.96 56.1999 36.96 57.7899 35.54L82.6398 13.23C83.0498 12.86 83.6798 12.9 84.0498 13.31C84.4198 13.72 84.3799 14.35 83.9699 14.72L59.1198 37.03C57.9398 38.09 56.5598 38.62 55.1798 38.62H55.1898Z" fill="#2F3F64"/>
<path d="M95.4002 79.1699C95.1702 79.1699 94.9402 79.0899 94.7502 78.9299L86.0303 71.4999C85.6103 71.1399 85.5603 70.5099 85.9203 70.0899C86.2803 69.6699 86.9102 69.6199 87.3302 69.9799L95.3503 76.8099L113.01 59.1499C113.4 58.7599 114.03 58.7599 114.42 59.1499C114.81 59.5399 114.81 60.1699 114.42 60.5599L96.1103 78.8699C95.9203 79.0599 95.6602 79.1599 95.4002 79.1599V79.1699Z" fill="#2F3F64"/>
</svg>
