<svg viewBox="0 0 93 58" fill="none" xmlns="http://www.w3.org/2000/svg">
<g id="asset-network-equipment">
<g id="Group">
<path id="Vector" d="M85.9197 20.6699H7.21973C3.90602 20.6699 1.21973 23.3562 1.21973 26.6699V46.45C1.21973 49.7637 3.90602 52.45 7.21973 52.45H85.9197C89.2334 52.45 91.9197 49.7637 91.9197 46.45V26.6699C91.9197 23.3562 89.2334 20.6699 85.9197 20.6699Z" fill="#BCC5DC"/>
<path id="Vector_2" d="M85.9099 53.45H7.20996C3.34996 53.45 0.209961 50.31 0.209961 46.45V26.6699C0.209961 22.8099 3.34996 19.6699 7.20996 19.6699H85.9099C89.7699 19.6699 92.9099 22.8099 92.9099 26.6699V46.45C92.9099 50.31 89.7699 53.45 85.9099 53.45ZM7.21991 21.6699C4.45991 21.6699 2.21991 23.9099 2.21991 26.6699V46.45C2.21991 49.21 4.45991 51.45 7.21991 51.45H85.9199C88.6799 51.45 90.9199 49.21 90.9199 46.45V26.6699C90.9199 23.9099 88.6799 21.6699 85.9199 21.6699H7.21991Z" fill="#2F3F64"/>
</g>
<path id="Vector_3" fill-rule="evenodd" clip-rule="evenodd" d="M83.4304 26.1201C85.8304 26.1201 87.7704 28.0601 87.7704 30.4601V42.6601C87.7704 45.0601 85.8304 47.0001 83.4304 47.0001H23.2805C20.8805 47.0001 18.9404 45.0601 18.9404 42.6601V30.4601C18.9404 28.0601 20.8805 26.1201 23.2805 26.1201H62.4005" fill="white"/>
<path id="Vector_4" d="M83.4304 48.0001H23.2805C20.3405 48.0001 17.9404 45.6101 17.9404 42.6601V30.4601C17.9404 27.5201 20.3405 25.1201 23.2805 25.1201H62.4005C62.9505 25.1201 63.4005 25.5701 63.4005 26.1201C63.4005 26.6701 62.9505 27.1201 62.4005 27.1201H23.2805C21.4405 27.1201 19.9404 28.6201 19.9404 30.4601V42.6601C19.9404 44.5001 21.4405 46.0001 23.2805 46.0001H83.4304C85.2704 46.0001 86.7704 44.5001 86.7704 42.6601V30.4601C86.7704 28.6201 85.2704 27.1201 83.4304 27.1201C82.8804 27.1201 82.4304 26.6701 82.4304 26.1201C82.4304 25.5701 82.8804 25.1201 83.4304 25.1201C86.3704 25.1201 88.7704 27.5101 88.7704 30.4601V42.6601C88.7704 45.6001 86.3804 48.0001 83.4304 48.0001Z" fill="#2F3F64"/>
<g id="Group_2">
<path id="Vector_5" d="M10.1797 34.59C11.7924 34.59 13.0997 33.2827 13.0997 31.67C13.0997 30.0573 11.7924 28.75 10.1797 28.75C8.56708 28.75 7.25977 30.0573 7.25977 31.67C7.25977 33.2827 8.56708 34.59 10.1797 34.59Z" fill="#FEC95C"/>
<path id="Vector_6" d="M10.1895 35.59C8.02951 35.59 6.26953 33.83 6.26953 31.67C6.26953 29.51 8.02951 27.75 10.1895 27.75C12.3495 27.75 14.1095 29.51 14.1095 31.67C14.1095 33.83 12.3495 35.59 10.1895 35.59ZM10.1895 29.76C9.12951 29.76 8.26953 30.62 8.26953 31.68C8.26953 32.74 9.12951 33.6 10.1895 33.6C11.2495 33.6 12.1095 32.74 12.1095 31.68C12.1095 30.62 11.2495 29.76 10.1895 29.76Z" fill="#2F3F64"/>
</g>
<g id="Group_3">
<path id="Vector_7" d="M10.1797 44.3595C11.7924 44.3595 13.0997 43.0522 13.0997 41.4395C13.0997 39.8268 11.7924 38.5195 10.1797 38.5195C8.56708 38.5195 7.25977 39.8268 7.25977 41.4395C7.25977 43.0522 8.56708 44.3595 10.1797 44.3595Z" fill="#FEC95C"/>
<path id="Vector_8" d="M10.1895 45.3595C8.02951 45.3595 6.26953 43.5995 6.26953 41.4395C6.26953 39.2795 8.02951 37.5195 10.1895 37.5195C12.3495 37.5195 14.1095 39.2795 14.1095 41.4395C14.1095 43.5995 12.3495 45.3595 10.1895 45.3595ZM10.1895 39.5295C9.12951 39.5295 8.26953 40.3895 8.26953 41.4495C8.26953 42.5095 9.12951 43.3695 10.1895 43.3695C11.2495 43.3695 12.1095 42.5095 12.1095 41.4495C12.1095 40.3895 11.2495 39.5295 10.1895 39.5295Z" fill="#2F3F64"/>
</g>
<g id="Group_4">
<path id="Vector_9" d="M18.0198 52.4502H10.0498V56.2202H18.0198V52.4502Z" fill="#2F3F64"/>
<path id="Vector_10" d="M18.0198 57.2202H10.0498C9.4998 57.2202 9.0498 56.7702 9.0498 56.2202V52.4502C9.0498 51.9002 9.4998 51.4502 10.0498 51.4502H18.0198C18.5698 51.4502 19.0198 51.9002 19.0198 52.4502V56.2202C19.0198 56.7702 18.5698 57.2202 18.0198 57.2202ZM11.0498 55.2202H17.0198V53.4502H11.0498V55.2202Z" fill="#2F3F64"/>
</g>
<g id="Group_5">
<path id="Vector_11" d="M83.3694 52.4502H75.3994V56.2202H83.3694V52.4502Z" fill="#2F3F64"/>
<path id="Vector_12" d="M83.3596 57.2202H75.3896C74.8396 57.2202 74.3896 56.7702 74.3896 56.2202V52.4502C74.3896 51.9002 74.8396 51.4502 75.3896 51.4502H83.3596C83.9096 51.4502 84.3596 51.9002 84.3596 52.4502V56.2202C84.3596 56.7702 83.9096 57.2202 83.3596 57.2202ZM76.3997 55.2202H82.3696V53.4502H76.3997V55.2202Z" fill="#2F3F64"/>
</g>
<g id="Group_6">
<g id="Group_7">
<path id="Vector_13" fill-rule="evenodd" clip-rule="evenodd" d="M31.3697 34.8301V32.6201H27.4897V34.8301H25.6797V40.4901H33.1897V34.8301H31.3697Z" fill="#BCC5DC"/>
<path id="Vector_14" d="M33.1897 41.4901H25.6797C25.1297 41.4901 24.6797 41.0401 24.6797 40.4901V34.8301C24.6797 34.2801 25.1297 33.8301 25.6797 33.8301H26.4897V32.6201C26.4897 32.0701 26.9397 31.6201 27.4897 31.6201H31.3697C31.9197 31.6201 32.3697 32.0701 32.3697 32.6201V33.8301H33.1797C33.7297 33.8301 34.1797 34.2801 34.1797 34.8301V40.4901C34.1797 41.0401 33.7297 41.4901 33.1797 41.4901H33.1897ZM26.6797 39.4901H32.1897V35.8301H31.3797C30.8297 35.8301 30.3797 35.3801 30.3797 34.8301V33.6201H28.4997V34.8301C28.4997 35.3801 28.0497 35.8301 27.4997 35.8301H26.6897V39.4901H26.6797Z" fill="#2F3F64"/>
</g>
<g id="Group_8">
<path id="Vector_15" fill-rule="evenodd" clip-rule="evenodd" d="M47.3199 34.8301V32.6201H43.4399V34.8301H41.6299V40.4901H49.1299V34.8301H47.3199Z" fill="#BCC5DC"/>
<path id="Vector_16" d="M49.1301 41.4901H41.6201C41.0701 41.4901 40.6201 41.0401 40.6201 40.4901V34.8301C40.6201 34.2801 41.0701 33.8301 41.6201 33.8301H42.4301V32.6201C42.4301 32.0701 42.8801 31.6201 43.4301 31.6201H47.3101C47.8601 31.6201 48.3101 32.0701 48.3101 32.6201V33.8301H49.1201C49.6701 33.8301 50.1201 34.2801 50.1201 34.8301V40.4901C50.1201 41.0401 49.6701 41.4901 49.1201 41.4901H49.1301ZM42.6301 39.4901H48.1401V35.8301H47.3301C46.7801 35.8301 46.3301 35.3801 46.3301 34.8301V33.6201H44.4501V34.8301C44.4501 35.3801 44.0001 35.8301 43.4501 35.8301H42.6401V39.4901H42.6301Z" fill="#2F3F64"/>
</g>
<g id="Group_9">
<path id="Vector_17" fill-rule="evenodd" clip-rule="evenodd" d="M63.2691 34.8301V32.6201H59.3891V34.8301H57.5791V40.4901H65.0791V34.8301H63.2691Z" fill="#BCC5DC"/>
<path id="Vector_18" d="M65.0793 41.4901H57.5693C57.0193 41.4901 56.5693 41.0401 56.5693 40.4901V34.8301C56.5693 34.2801 57.0193 33.8301 57.5693 33.8301H58.3793V32.6201C58.3793 32.0701 58.8293 31.6201 59.3793 31.6201H63.2593C63.8093 31.6201 64.2593 32.0701 64.2593 32.6201V33.8301H65.0693C65.6193 33.8301 66.0693 34.2801 66.0693 34.8301V40.4901C66.0693 41.0401 65.6193 41.4901 65.0693 41.4901H65.0793ZM58.5793 39.4901H64.0894V35.8301H63.2794C62.7294 35.8301 62.2794 35.3801 62.2794 34.8301V33.6201H60.3994V34.8301C60.3994 35.3801 59.9494 35.8301 59.3994 35.8301H58.5894V39.4901H58.5793Z" fill="#2F3F64"/>
</g>
<g id="Group_10">
<path id="Vector_19" fill-rule="evenodd" clip-rule="evenodd" d="M79.2195 34.8301V32.6201H75.3395V34.8301H73.5195V40.4901H81.0295V34.8301H79.2195Z" fill="#BCC5DC"/>
<path id="Vector_20" d="M81.0295 41.4901H73.5195C72.9695 41.4901 72.5195 41.0401 72.5195 40.4901V34.8301C72.5195 34.2801 72.9695 33.8301 73.5195 33.8301H74.3295V32.6201C74.3295 32.0701 74.7795 31.6201 75.3295 31.6201H79.2095C79.7595 31.6201 80.2095 32.0701 80.2095 32.6201V33.8301H81.0195C81.5695 33.8301 82.0195 34.2801 82.0195 34.8301V40.4901C82.0195 41.0401 81.5695 41.4901 81.0195 41.4901H81.0295ZM74.5195 39.4901H80.0295V35.8301H79.2195C78.6695 35.8301 78.2195 35.3801 78.2195 34.8301V33.6201H76.3395V34.8301C76.3395 35.3801 75.8895 35.8301 75.3395 35.8301H74.5295V39.4901H74.5195Z" fill="#2F3F64"/>
</g>
</g>
<path id="Vector_21" d="M66.6297 11.2996C66.3597 11.2996 66.0997 11.1896 65.8997 10.9796C60.6097 5.30955 53.1297 2.04956 45.3897 2.04956C37.6497 2.04956 30.1697 5.29955 24.8797 10.9796C24.4997 11.3796 23.8696 11.3996 23.4696 11.0296C23.0696 10.6496 23.0396 10.0196 23.4196 9.61957C29.0896 3.53957 37.0997 0.0595703 45.3897 0.0595703C53.6797 0.0595703 61.6996 3.53957 67.3596 9.61957C67.7396 10.0196 67.7097 10.6596 67.3097 11.0296C67.1197 11.2096 66.8697 11.2996 66.6297 11.2996Z" fill="#2F3F64"/>
<path id="Vector_22" d="M59.4995 15.0795C59.2295 15.0795 58.9696 14.9695 58.7696 14.7595C55.3196 11.0595 50.4396 8.93945 45.3896 8.93945C40.3396 8.93945 35.5095 11.0095 32.0095 14.7595C31.6295 15.1595 30.9995 15.1794 30.5995 14.8094C30.1995 14.4294 30.1695 13.7995 30.5495 13.3995C34.3795 9.29948 39.7896 6.93945 45.3996 6.93945C51.0096 6.93945 56.4195 9.28947 60.2495 13.3995C60.6295 13.7995 60.5995 14.4394 60.1995 14.8094C60.0095 14.9894 59.7596 15.0795 59.5196 15.0795H59.4995Z" fill="#2F3F64"/>
</g>
</svg>
