<svg viewBox="0 0 128 129" fill="none" xmlns="http://www.w3.org/2000/svg">
<g id="asset-desktop-1">
<path id="Vector" d="M7.39032 1.86035H120.65C124 1.86035 126.73 4.58037 126.73 7.94037V81.5104H1.32031V7.94037C1.32031 4.59037 4.0403 1.86035 7.4003 1.86035H7.39032Z" fill="white"/>
<path id="Vector_2" d="M1.30981 81.5098H126.72V90.4498C126.72 93.7998 124 96.5298 120.64 96.5298H7.37982C4.02982 96.5298 1.2998 93.8098 1.2998 90.4498V81.5098H1.30981Z" fill="#BCC5DC"/>
<g id="Group">
<path id="Vector_3" d="M81.8896 96.5303H46.1396V127.24H81.8896V96.5303Z" fill="#2F3F64"/>
<path id="Vector_4" d="M81.8896 128.24H46.1396C45.5896 128.24 45.1396 127.79 45.1396 127.24V96.5303C45.1396 95.9803 45.5896 95.5303 46.1396 95.5303H81.8896C82.4396 95.5303 82.8896 95.9803 82.8896 96.5303V127.24C82.8896 127.79 82.4396 128.24 81.8896 128.24ZM47.1396 126.24H80.8896V97.5303H47.1396V126.24Z" fill="#2F3F64"/>
</g>
<path id="Vector_5" d="M97.6696 128.24H30.3496C29.7996 128.24 29.3496 127.79 29.3496 127.24C29.3496 126.69 29.7996 126.24 30.3496 126.24H97.6696C98.2196 126.24 98.6696 126.69 98.6696 127.24C98.6696 127.79 98.2196 128.24 97.6696 128.24Z" fill="#2F3F64"/>
<path id="Vector_6" d="M107.89 82.5098H1.30957C0.75957 82.5098 0.30957 82.0598 0.30957 81.5098C0.30957 80.9598 0.75957 80.5098 1.30957 80.5098H107.89C108.44 80.5098 108.89 80.9598 108.89 81.5098C108.89 82.0598 108.44 82.5098 107.89 82.5098Z" fill="#2F3F64"/>
<path id="Vector_7" d="M120.64 97.5304H7.37982C3.47982 97.5304 0.299805 94.3604 0.299805 90.4504V7.94037C0.299805 4.04037 3.47982 0.860352 7.37982 0.860352H120.64C124.54 0.860352 127.72 4.03037 127.72 7.94037V90.4504C127.72 94.3504 124.54 97.5304 120.64 97.5304ZM7.38983 2.86035C4.58983 2.86035 2.30981 5.14037 2.30981 7.94037V90.4504C2.30981 93.2504 4.58983 95.5304 7.38983 95.5304H120.65C123.45 95.5304 125.73 93.2504 125.73 90.4504V7.94037C125.73 5.14037 123.45 2.86035 120.65 2.86035H7.38983Z" fill="#2F3F64"/>
<g id="Group_2">
<path id="Vector_8" d="M64.0104 92.9095C61.9004 92.9095 60.1904 91.1995 60.1904 89.0895C60.1904 86.9795 61.9004 85.2695 64.0104 85.2695C66.1204 85.2695 67.8304 86.9795 67.8304 89.0895C67.8304 91.1995 66.1204 92.9095 64.0104 92.9095Z" fill="#FEC95C"/>
<path id="Vector_9" d="M64.0104 93.9095C61.3504 93.9095 59.1904 91.7495 59.1904 89.0895C59.1904 86.4295 61.3504 84.2695 64.0104 84.2695C66.6704 84.2695 68.8304 86.4295 68.8304 89.0895C68.8304 91.7495 66.6704 93.9095 64.0104 93.9095ZM64.0104 86.2595C62.4504 86.2595 61.1904 87.5295 61.1904 89.0795C61.1904 90.6295 62.4604 91.8995 64.0104 91.8995C65.5604 91.8995 66.8304 90.6295 66.8304 89.0795C66.8304 87.5295 65.5604 86.2595 64.0104 86.2595Z" fill="#2F3F64"/>
</g>
</g>
</svg>
