<svg viewBox="0 0 129 89" fill="none" xmlns="http://www.w3.org/2000/svg">
<g id="asset-laptop">
<path id="Vector" d="M117.63 2.15002C116.73 1.25002 115.53 0.75 114.25 0.75H13.3403C10.7103 0.75 8.55022 2.89003 8.54022 5.53003L8.24023 74.83C8.24023 76.11 8.73025 77.31 9.63025 78.21C10.5302 79.12 11.7303 79.61 13.0103 79.61H113.92C116.56 79.61 118.71 77.47 118.72 74.83L119.02 5.53003C119.02 4.25003 118.53 3.05001 117.63 2.14001V2.15002Z" fill="#2F3F64"/>
<g id="Group">
<path id="Vector_2" fill-rule="evenodd" clip-rule="evenodd" d="M123.81 75.5H83.3101C80.9501 75.5 79.0301 77.41 79.0301 79.78V80.25H48.48V79.78C48.48 77.42 46.5701 75.5 44.2001 75.5H5.29004C3.38004 75.5 1.83008 77.05 1.83008 78.96V83.79C1.83008 85.7 3.38004 87.25 5.29004 87.25H123.79C125.7 87.25 127.25 85.7 127.25 83.79V78.96C127.25 77.05 125.7 75.5 123.79 75.5H123.81Z" fill="#BCC5DC"/>
<path id="Vector_3" d="M123.81 88.2402H5.30963C2.84963 88.2402 0.849609 86.2403 0.849609 83.7803V78.9503C0.849609 76.4903 2.84963 74.4902 5.30963 74.4902H44.2196C46.9496 74.4902 49.1996 76.5702 49.4696 79.2302H78.0696C78.3396 76.5702 80.5896 74.4902 83.3196 74.4902H123.82C126.28 74.4902 128.28 76.4903 128.28 78.9503V83.7803C128.28 86.2403 126.28 88.2402 123.82 88.2402H123.81ZM5.30963 76.5002C3.95963 76.5002 2.84961 77.6003 2.84961 78.9603V83.7902C2.84961 85.1402 3.94963 86.2502 5.30963 86.2502H123.81C125.16 86.2502 126.27 85.1502 126.27 83.7902V78.9603C126.27 77.6103 125.17 76.5002 123.81 76.5002H83.3096C81.4996 76.5002 80.0297 77.9703 80.0297 79.7803V80.2502C80.0297 80.8002 79.5797 81.2502 79.0297 81.2502H48.4796C47.9296 81.2502 47.4796 80.8002 47.4796 80.2502V79.7803C47.4796 77.9703 46.0096 76.5002 44.1996 76.5002H5.28961H5.30963Z" fill="#2F3F64"/>
</g>
<path id="Vector_4" d="M107.75 9.2002H20.0596C17.2981 9.2002 15.0596 11.4388 15.0596 14.2002V63.5002C15.0596 66.2616 17.2981 68.5002 20.0596 68.5002H107.75C110.511 68.5002 112.75 66.2616 112.75 63.5002V14.2002C112.75 11.4388 110.511 9.2002 107.75 9.2002Z" fill="white"/>
<path id="Vector_5" d="M63.6295 7.4895C62.1895 7.4895 61.0195 6.31952 61.0195 4.87952C61.0195 3.43952 62.1895 2.26953 63.6295 2.26953C65.0695 2.26953 66.2395 3.43952 66.2395 4.87952C66.2395 6.31952 65.0695 7.4895 63.6295 7.4895Z" fill="#FEC95C"/>
</g>
</svg>
