<svg viewBox="0 0 99 92" fill="none" xmlns="http://www.w3.org/2000/svg">
<g id="asset-server">
<g id="Group">
<path id="Vector" fill-rule="evenodd" clip-rule="evenodd" d="M97.4003 9.37018V24.7902C97.4003 29.0402 93.9503 32.5002 89.6903 32.5002H9.0303C4.7703 32.5002 1.32031 29.0502 1.32031 24.7902V9.37018C1.32031 5.12018 4.7703 1.66016 9.0303 1.66016H89.6903C93.9503 1.66016 97.4003 5.11018 97.4003 9.37018Z" fill="#BCC5DC"/>
<path id="Vector_2" d="M89.6903 33.4904H9.0303C4.2303 33.4904 0.320312 29.5804 0.320312 24.7804V9.36035C0.320312 4.56035 4.2303 0.650391 9.0303 0.650391H89.6903C94.4903 0.650391 98.4003 4.56035 98.4003 9.36035V24.7804C98.4003 29.5804 94.4903 33.4904 89.6903 33.4904ZM9.0303 2.66034C5.3303 2.66034 2.32031 5.67036 2.32031 9.37036V24.7903C2.32031 28.4903 5.3303 31.5004 9.0303 31.5004H89.6903C93.3903 31.5004 96.4003 28.4903 96.4003 24.7903V9.37036C96.4003 5.67036 93.3903 2.66034 89.6903 2.66034H9.0303Z" fill="#2F3F64"/>
</g>
<g id="Group_2">
<path id="Vector_3" fill-rule="evenodd" clip-rule="evenodd" d="M97.4003 44.6699V60.09C97.4003 64.34 93.9503 67.7999 89.6903 67.7999H9.0303C4.7703 67.7999 1.32031 64.35 1.32031 60.09V44.6699C1.32031 40.4199 4.7703 36.96 9.0303 36.96H89.6903C93.9503 36.96 97.4003 40.4099 97.4003 44.6699Z" fill="#BCC5DC"/>
<path id="Vector_4" d="M89.6903 68.7999H9.0303C4.2303 68.7999 0.320312 64.89 0.320312 60.09V44.6699C0.320312 39.8699 4.2303 35.96 9.0303 35.96H89.6903C94.4903 35.96 98.4003 39.8699 98.4003 44.6699V60.09C98.4003 64.89 94.4903 68.7999 89.6903 68.7999ZM9.0303 37.9699C5.3303 37.9699 2.32031 40.9799 2.32031 44.6799V60.0999C2.32031 63.7999 5.3303 66.8099 9.0303 66.8099H89.6903C93.3903 66.8099 96.4003 63.7999 96.4003 60.0999V44.6799C96.4003 40.9799 93.3903 37.9699 89.6903 37.9699H9.0303Z" fill="#2F3F64"/>
</g>
<g id="Group_3">
<path id="Vector_5" d="M16.4398 22.2C19.2785 22.2 21.5798 19.8987 21.5798 17.0599C21.5798 14.2212 19.2785 11.9199 16.4398 11.9199C13.6011 11.9199 11.2998 14.2212 11.2998 17.0599C11.2998 19.8987 13.6011 22.2 16.4398 22.2Z" fill="white"/>
<path id="Vector_6" d="M16.4398 23.2C13.0598 23.2 10.2998 20.4499 10.2998 17.0599C10.2998 13.6699 13.0498 10.9199 16.4398 10.9199C19.8298 10.9199 22.5798 13.6699 22.5798 17.0599C22.5798 20.4499 19.8298 23.2 16.4398 23.2ZM16.4398 12.9299C14.1598 12.9299 12.2998 14.7899 12.2998 17.0699C12.2998 19.3499 14.1598 21.21 16.4398 21.21C18.7198 21.21 20.5798 19.3499 20.5798 17.0699C20.5798 14.7899 18.7198 12.9299 16.4398 12.9299Z" fill="#2F3F64"/>
</g>
<g id="Group_4">
<path id="Vector_7" d="M30.7504 22.2C33.5891 22.2 35.8904 19.8987 35.8904 17.0599C35.8904 14.2212 33.5891 11.9199 30.7504 11.9199C27.9116 11.9199 25.6104 14.2212 25.6104 17.0599C25.6104 19.8987 27.9116 22.2 30.7504 22.2Z" fill="white"/>
<path id="Vector_8" d="M30.7504 23.2C27.3704 23.2 24.6104 20.4499 24.6104 17.0599C24.6104 13.6699 27.3604 10.9199 30.7504 10.9199C34.1404 10.9199 36.8904 13.6699 36.8904 17.0599C36.8904 20.4499 34.1404 23.2 30.7504 23.2ZM30.7504 12.9299C28.4704 12.9299 26.6104 14.7899 26.6104 17.0699C26.6104 19.3499 28.4704 21.21 30.7504 21.21C33.0304 21.21 34.8904 19.3499 34.8904 17.0699C34.8904 14.7899 33.0304 12.9299 30.7504 12.9299Z" fill="#2F3F64"/>
</g>
<g id="Group_5">
<path id="Vector_9" d="M45.0697 22.2C47.9084 22.2 50.2097 19.8987 50.2097 17.0599C50.2097 14.2212 47.9084 11.9199 45.0697 11.9199C42.231 11.9199 39.9297 14.2212 39.9297 17.0599C39.9297 19.8987 42.231 22.2 45.0697 22.2Z" fill="white"/>
<path id="Vector_10" d="M45.0697 23.2C41.6897 23.2 38.9297 20.4499 38.9297 17.0599C38.9297 13.6699 41.6797 10.9199 45.0697 10.9199C48.4597 10.9199 51.2097 13.6699 51.2097 17.0599C51.2097 20.4499 48.4597 23.2 45.0697 23.2ZM45.0697 12.9299C42.7897 12.9299 40.9297 14.7899 40.9297 17.0699C40.9297 19.3499 42.7897 21.21 45.0697 21.21C47.3497 21.21 49.2097 19.3499 49.2097 17.0699C49.2097 14.7899 47.3497 12.9299 45.0697 12.9299Z" fill="#2F3F64"/>
</g>
<path id="Vector_11" d="M87.4601 18.0596H56.3301C55.7801 18.0596 55.3301 17.6096 55.3301 17.0596C55.3301 16.5096 55.7801 16.0596 56.3301 16.0596H87.4601C88.0101 16.0596 88.4601 16.5096 88.4601 17.0596C88.4601 17.6096 88.0101 18.0596 87.4601 18.0596Z" fill="#2F3F64"/>
<g id="Group_6">
<path id="Vector_12" d="M16.4398 57.5105C19.2785 57.5105 21.5798 55.2092 21.5798 52.3705C21.5798 49.5317 19.2785 47.2305 16.4398 47.2305C13.6011 47.2305 11.2998 49.5317 11.2998 52.3705C11.2998 55.2092 13.6011 57.5105 16.4398 57.5105Z" fill="white"/>
<path id="Vector_13" d="M16.4398 58.5105C13.0598 58.5105 10.2998 55.7605 10.2998 52.3705C10.2998 48.9805 13.0498 46.2305 16.4398 46.2305C19.8298 46.2305 22.5798 48.9805 22.5798 52.3705C22.5798 55.7605 19.8298 58.5105 16.4398 58.5105ZM16.4398 48.2305C14.1598 48.2305 12.2998 50.0905 12.2998 52.3705C12.2998 54.6505 14.1598 56.5105 16.4398 56.5105C18.7198 56.5105 20.5798 54.6505 20.5798 52.3705C20.5798 50.0905 18.7198 48.2305 16.4398 48.2305Z" fill="#2F3F64"/>
</g>
<g id="Group_7">
<path id="Vector_14" d="M30.7504 57.5105C33.5891 57.5105 35.8904 55.2092 35.8904 52.3705C35.8904 49.5317 33.5891 47.2305 30.7504 47.2305C27.9116 47.2305 25.6104 49.5317 25.6104 52.3705C25.6104 55.2092 27.9116 57.5105 30.7504 57.5105Z" fill="white"/>
<path id="Vector_15" d="M30.7504 58.5105C27.3704 58.5105 24.6104 55.7605 24.6104 52.3705C24.6104 48.9805 27.3604 46.2305 30.7504 46.2305C34.1404 46.2305 36.8904 48.9805 36.8904 52.3705C36.8904 55.7605 34.1404 58.5105 30.7504 58.5105ZM30.7504 48.2305C28.4704 48.2305 26.6104 50.0905 26.6104 52.3705C26.6104 54.6505 28.4704 56.5105 30.7504 56.5105C33.0304 56.5105 34.8904 54.6505 34.8904 52.3705C34.8904 50.0905 33.0304 48.2305 30.7504 48.2305Z" fill="#2F3F64"/>
</g>
<g id="Group_8">
<path id="Vector_16" d="M45.0697 57.5105C47.9084 57.5105 50.2097 55.2092 50.2097 52.3705C50.2097 49.5317 47.9084 47.2305 45.0697 47.2305C42.231 47.2305 39.9297 49.5317 39.9297 52.3705C39.9297 55.2092 42.231 57.5105 45.0697 57.5105Z" fill="white"/>
<path id="Vector_17" d="M45.0697 58.5105C41.6897 58.5105 38.9297 55.7605 38.9297 52.3705C38.9297 48.9805 41.6797 46.2305 45.0697 46.2305C48.4597 46.2305 51.2097 48.9805 51.2097 52.3705C51.2097 55.7605 48.4597 58.5105 45.0697 58.5105ZM45.0697 48.2305C42.7897 48.2305 40.9297 50.0905 40.9297 52.3705C40.9297 54.6505 42.7897 56.5105 45.0697 56.5105C47.3497 56.5105 49.2097 54.6505 49.2097 52.3705C49.2097 50.0905 47.3497 48.2305 45.0697 48.2305Z" fill="#2F3F64"/>
</g>
<path id="Vector_18" d="M87.4601 53.3896H56.3301C55.7801 53.3896 55.3301 52.9396 55.3301 52.3896C55.3301 51.8396 55.7801 51.3896 56.3301 51.3896H87.4601C88.0101 51.3896 88.4601 51.8396 88.4601 52.3896C88.4601 52.9396 88.0101 53.3896 87.4601 53.3896Z" fill="#2F3F64"/>
<path id="Vector_19" d="M49.8096 77.0201C49.2596 77.0201 48.8096 76.5701 48.8096 76.0201V69.04C48.8096 68.49 49.2596 68.04 49.8096 68.04C50.3596 68.04 50.8096 68.49 50.8096 69.04V76.0201C50.8096 76.5701 50.3596 77.0201 49.8096 77.0201Z" fill="#2F3F64"/>
<path id="Vector_20" d="M42.8097 84H29.9297C29.3797 84 28.9297 83.55 28.9297 83C28.9297 82.45 29.3797 82 29.9297 82H42.8097C43.3597 82 43.8097 82.45 43.8097 83C43.8097 83.55 43.3597 84 42.8097 84Z" fill="#2F3F64"/>
<path id="Vector_21" d="M56.8096 84.02C56.2596 84.02 55.8096 83.57 55.8096 83.02C55.8096 82.47 56.2596 82.02 56.8096 82.02L70.7796 82C71.3296 82 71.7796 82.45 71.7796 83C71.7796 83.55 71.3296 84 70.7796 84L56.8096 84.02Z" fill="#2F3F64"/>
<g id="Group_9">
<path id="Vector_22" d="M49.8096 90.0195C53.6756 90.0195 56.8096 86.8855 56.8096 83.0195C56.8096 79.1535 53.6756 76.0195 49.8096 76.0195C45.9436 76.0195 42.8096 79.1535 42.8096 83.0195C42.8096 86.8855 45.9436 90.0195 49.8096 90.0195Z" fill="#FEC95C"/>
<path id="Vector_23" d="M49.8096 91.0195C45.3996 91.0195 41.8096 87.4295 41.8096 83.0195C41.8096 78.6095 45.3996 75.0195 49.8096 75.0195C54.2196 75.0195 57.8096 78.6095 57.8096 83.0195C57.8096 87.4295 54.2196 91.0195 49.8096 91.0195ZM49.8096 77.0195C46.4996 77.0195 43.8096 79.7095 43.8096 83.0195C43.8096 86.3295 46.4996 89.0195 49.8096 89.0195C53.1196 89.0195 55.8096 86.3295 55.8096 83.0195C55.8096 79.7095 53.1196 77.0195 49.8096 77.0195Z" fill="#2F3F64"/>
</g>
</g>
</svg>
