<svg viewBox="0 0 94 94" fill="none" xmlns="http://www.w3.org/2000/svg">
<g id="asset-phone">
<g id="Group">
<path id="Vector" fill-rule="evenodd" clip-rule="evenodd" d="M13.3805 79.8098C15.1705 70.8198 16.2104 60.0098 16.2104 48.3898C16.2104 36.7698 15.1705 25.9598 13.3805 16.9698C13.1705 15.9298 13.0205 14.8898 12.9005 13.8398H6.14047C3.71047 13.8398 1.73047 15.8098 1.73047 18.2498V78.0798C1.73047 80.5098 3.70047 82.4898 6.14047 82.4898H12.9604C13.0704 81.5898 13.2105 80.6998 13.3805 79.8098Z" fill="#BCC5DC"/>
<path id="Vector_2" fill-rule="evenodd" clip-rule="evenodd" d="M88.2703 13.8398H36.1203C36.0003 14.7898 35.8603 15.7398 35.6703 16.6798C33.8503 25.7298 32.7803 36.6398 32.7803 48.3898C32.7803 60.1398 33.8503 71.0498 35.6703 80.0998C35.8303 80.8898 35.9503 81.6898 36.0603 82.4898H88.2703C90.7003 82.4898 92.6803 80.5198 92.6803 78.0798V18.2498C92.6803 15.8198 90.7103 13.8398 88.2703 13.8398Z" fill="#BCC5DC"/>
</g>
<g id="Group_2">
<path id="Vector_3" d="M12.9604 83.4898H6.14047C3.16047 83.4898 0.730469 81.0598 0.730469 78.0798V18.2498C0.730469 15.2698 3.16047 12.8398 6.14047 12.8398H12.9005C13.4105 12.8398 13.8405 13.2198 13.8905 13.7298C14.0105 14.7698 14.1604 15.7998 14.3604 16.7798C16.2204 26.1598 17.2104 37.0998 17.2104 48.3898C17.2104 59.6798 16.2304 70.6198 14.3604 80.0098C14.2004 80.7998 14.0705 81.6598 13.9505 82.6198C13.8905 83.1198 13.4604 83.4998 12.9604 83.4998V83.4898ZM6.14047 14.8398C4.26047 14.8398 2.73047 16.3698 2.73047 18.2498V78.0798C2.73047 79.9598 4.26047 81.4898 6.14047 81.4898H12.0905C12.1905 80.8298 12.2905 80.2098 12.4105 79.6198C14.2505 70.3598 15.2205 59.5598 15.2205 48.3898C15.2205 37.2198 14.2505 26.4198 12.4105 17.1598C12.2605 16.3998 12.1305 15.6198 12.0305 14.8298H6.15045L6.14047 14.8398Z" fill="#2F3F64"/>
<path id="Vector_4" d="M88.2703 83.4903H36.0603C35.5603 83.4903 35.1403 83.1203 35.0703 82.6203C34.9503 81.7203 34.8303 80.9803 34.6903 80.2903C32.7903 70.8403 31.7803 59.8103 31.7803 48.3803C31.7803 36.9503 32.7803 25.9203 34.6903 16.4703C34.8603 15.6103 35.0103 14.7103 35.1303 13.7003C35.1903 13.2003 35.6203 12.8203 36.1203 12.8203H60.3903C60.9403 12.8203 61.3903 13.2703 61.3903 13.8203C61.3903 14.3703 60.9403 14.8203 60.3903 14.8203H37.0003C36.9003 15.5403 36.7803 16.2103 36.6503 16.8603C34.7703 26.1803 33.7803 37.0803 33.7803 48.3703C33.7803 59.6603 34.7703 70.5603 36.6503 79.8803C36.7503 80.3803 36.8403 80.8903 36.9303 81.4703H88.2703C90.1503 81.4703 91.6803 79.9403 91.6803 78.0603V18.2303C91.6803 16.3503 90.1503 14.8203 88.2703 14.8203C87.7203 14.8203 87.2703 14.3703 87.2703 13.8203C87.2703 13.2703 87.7203 12.8203 88.2703 12.8203C91.2503 12.8203 93.6803 15.2503 93.6803 18.2303V78.0603C93.6803 81.0403 91.2503 83.4703 88.2703 83.4703V83.4903Z" fill="#2F3F64"/>
</g>
<g id="Group_3">
<path id="Vector_5" fill-rule="evenodd" clip-rule="evenodd" d="M32.7804 48.3895C32.7804 36.6395 33.8504 25.7294 35.6704 16.6794C36.1304 14.3894 36.3904 12.0694 36.3904 9.73944V6.31946C36.3904 3.61946 34.2004 1.43945 31.5104 1.43945H17.5704C14.8704 1.43945 12.6904 3.61946 12.6904 6.31946V10.1295C12.6904 12.4295 12.9404 14.7194 13.3904 16.9694C15.1804 25.9594 16.2204 36.7695 16.2204 48.3895C16.2204 60.0095 15.1804 70.8195 13.3904 79.8094C12.9404 82.0594 12.6904 84.3495 12.6904 86.6495V87.4995C12.6904 90.1994 14.8704 92.3795 17.5704 92.3795H31.5104C34.2104 92.3795 36.3904 90.1994 36.3904 87.4995V87.0394C36.3904 84.7094 36.1304 82.3894 35.6704 80.0994C33.8504 71.0494 32.7804 60.1395 32.7804 48.3895Z" fill="white"/>
<path id="Vector_6" d="M31.5104 93.3799H17.5704C14.3304 93.3799 11.6904 90.7399 11.6904 87.4999V86.65C11.6904 84.38 11.9304 82.0099 12.4104 79.6099C14.2504 70.3499 15.2204 59.5499 15.2204 48.3799C15.2204 37.2099 14.2504 26.42 12.4104 17.15C11.9304 14.75 11.6904 12.3899 11.6904 10.1099V6.29993C11.6904 3.05993 14.3304 0.419922 17.5704 0.419922H31.5104C34.7504 0.419922 37.3904 3.05993 37.3904 6.29993V9.71991C37.3904 12.0199 37.1404 14.4199 36.6504 16.8599C34.7704 26.1799 33.7804 37.0799 33.7804 48.3699C33.7804 59.6599 34.7704 70.5599 36.6504 79.8799C37.1404 82.3099 37.3904 84.71 37.3904 87.02V87.4799C37.3904 90.7199 34.7504 93.3599 31.5104 93.3599V93.3799ZM17.5704 2.43994C15.4304 2.43994 13.6904 4.17995 13.6904 6.31995V10.1299C13.6904 12.2699 13.9204 14.51 14.3704 16.78C16.2304 26.17 17.2204 37.1 17.2204 48.39C17.2204 59.68 16.2404 70.6199 14.3704 80.0099C13.9204 82.2799 13.6904 84.5099 13.6904 86.6599V87.5099C13.6904 89.6499 15.4304 91.39 17.5704 91.39H31.5104C33.6504 91.39 35.3904 89.6499 35.3904 87.5099V87.0499C35.3904 84.8799 35.1604 82.6099 34.6904 80.3099C32.7904 70.8599 31.7804 59.83 31.7804 48.4C31.7804 36.97 32.7804 25.9399 34.6904 16.4899C35.1504 14.1899 35.3904 11.9199 35.3904 9.74994V6.32996C35.3904 4.18996 33.6504 2.44995 31.5104 2.44995H17.5704V2.43994Z" fill="#2F3F64"/>
</g>
<g id="Group_4">
<path id="Vector_7" d="M79.87 23.1895H45.67C44.0352 23.1895 42.71 24.5147 42.71 26.1495V37.0994C42.71 38.7342 44.0352 40.0594 45.67 40.0594H79.87C81.5047 40.0594 82.83 38.7342 82.83 37.0994V26.1495C82.83 24.5147 81.5047 23.1895 79.87 23.1895Z" fill="white"/>
<path id="Vector_8" d="M79.8702 41.0597H45.6602C43.4802 41.0597 41.7002 39.2897 41.7002 37.0997V26.1397C41.7002 23.9597 43.4702 22.1797 45.6602 22.1797H79.8702C82.0502 22.1797 83.8302 23.9497 83.8302 26.1397V37.0997C83.8302 39.2797 82.0602 41.0597 79.8702 41.0597ZM45.6702 24.1897C44.5902 24.1897 43.7102 25.0697 43.7102 26.1497V37.1097C43.7102 38.1897 44.5902 39.0697 45.6702 39.0697H79.8802C80.9602 39.0697 81.8402 38.1897 81.8402 37.1097V26.1497C81.8402 25.0697 80.9602 24.1897 79.8802 24.1897H45.6702Z" fill="#2F3F64"/>
</g>
<path id="Vector_9" d="M52.7299 48.1602H45.1399C44.4219 48.1602 43.8398 48.7422 43.8398 49.4602V50.4702C43.8398 51.1881 44.4219 51.7702 45.1399 51.7702H52.7299C53.4478 51.7702 54.0298 51.1881 54.0298 50.4702V49.4602C54.0298 48.7422 53.4478 48.1602 52.7299 48.1602Z" fill="#2F3F64"/>
<g id="Group_5">
<path id="Vector_10" d="M66.5599 47.3398H58.9699C58.2519 47.3398 57.6699 47.9219 57.6699 48.6398V51.2998C57.6699 52.0178 58.2519 52.5998 58.9699 52.5998H66.5599C67.2779 52.5998 67.8599 52.0178 67.8599 51.2998V48.6398C67.8599 47.9219 67.2779 47.3398 66.5599 47.3398Z" fill="#FEC95C"/>
<path id="Vector_11" d="M66.5599 53.5998H58.9699C57.6999 53.5998 56.6699 52.5698 56.6699 51.2998V48.6398C56.6699 47.3698 57.6999 46.3398 58.9699 46.3398H66.5599C67.8299 46.3398 68.8599 47.3698 68.8599 48.6398V51.2998C68.8599 52.5698 67.8299 53.5998 66.5599 53.5998ZM58.9799 48.3398C58.8099 48.3398 58.6799 48.4798 58.6799 48.6398V51.2998C58.6799 51.4698 58.8199 51.5998 58.9799 51.5998H66.5699C66.7399 51.5998 66.8699 51.4598 66.8699 51.2998V48.6398C66.8699 48.4698 66.7299 48.3398 66.5699 48.3398H58.9799Z" fill="#2F3F64"/>
</g>
<path id="Vector_12" d="M80.3998 48.1602H72.8098C72.0918 48.1602 71.5098 48.7422 71.5098 49.4602V50.4702C71.5098 51.1881 72.0918 51.7702 72.8098 51.7702H80.3998C81.1178 51.7702 81.6998 51.1881 81.6998 50.4702V49.4602C81.6998 48.7422 81.1178 48.1602 80.3998 48.1602Z" fill="#2F3F64"/>
<path id="Vector_13" d="M52.7299 57.8896H45.1399C44.4219 57.8896 43.8398 58.4717 43.8398 59.1896V60.1996C43.8398 60.9176 44.4219 61.4996 45.1399 61.4996H52.7299C53.4478 61.4996 54.0298 60.9176 54.0298 60.1996V59.1896C54.0298 58.4717 53.4478 57.8896 52.7299 57.8896Z" fill="#2F3F64"/>
<path id="Vector_14" d="M66.5599 57.8896H58.9699C58.2519 57.8896 57.6699 58.4717 57.6699 59.1896V60.1996C57.6699 60.9176 58.2519 61.4996 58.9699 61.4996H66.5599C67.2779 61.4996 67.8599 60.9176 67.8599 60.1996V59.1896C67.8599 58.4717 67.2779 57.8896 66.5599 57.8896Z" fill="#2F3F64"/>
<path id="Vector_15" d="M80.3998 57.8896H72.8098C72.0918 57.8896 71.5098 58.4717 71.5098 59.1896V60.1996C71.5098 60.9176 72.0918 61.4996 72.8098 61.4996H80.3998C81.1178 61.4996 81.6998 60.9176 81.6998 60.1996V59.1896C81.6998 58.4717 81.1178 57.8896 80.3998 57.8896Z" fill="#2F3F64"/>
<path id="Vector_16" d="M52.7299 67.6104H45.1399C44.4219 67.6104 43.8398 68.1924 43.8398 68.9103V69.9203C43.8398 70.6383 44.4219 71.2203 45.1399 71.2203H52.7299C53.4478 71.2203 54.0298 70.6383 54.0298 69.9203V68.9103C54.0298 68.1924 53.4478 67.6104 52.7299 67.6104Z" fill="#2F3F64"/>
<path id="Vector_17" d="M66.5599 67.6104H58.9699C58.2519 67.6104 57.6699 68.1924 57.6699 68.9103V69.9203C57.6699 70.6383 58.2519 71.2203 58.9699 71.2203H66.5599C67.2779 71.2203 67.8599 70.6383 67.8599 69.9203V68.9103C67.8599 68.1924 67.2779 67.6104 66.5599 67.6104Z" fill="#2F3F64"/>
<path id="Vector_18" d="M80.3998 67.6104H72.8098C72.0918 67.6104 71.5098 68.1924 71.5098 68.9103V69.9203C71.5098 70.6383 72.0918 71.2203 72.8098 71.2203H80.3998C81.1178 71.2203 81.6998 70.6383 81.6998 69.9203V68.9103C81.6998 68.1924 81.1178 67.6104 80.3998 67.6104Z" fill="#2F3F64"/>
</g>
</svg>
