<svg viewBox="0 0 128 105" fill="none" xmlns="http://www.w3.org/2000/svg">
<g id="asset-peripheral">
<g id="Group">
<g id="Group_2">
<path id="Vector" d="M125.131 40.8199C125.131 34.662 120.141 29.6699 113.986 29.6699C107.831 29.6699 102.841 34.662 102.841 40.8199V51.7999C102.841 57.9579 107.831 62.95 113.986 62.95C120.141 62.95 125.131 57.9579 125.131 51.7999V40.8199Z" fill="white"/>
<path id="Vector_2" d="M113.991 63.95C107.291 63.95 101.841 58.4999 101.841 51.7999V40.8199C101.841 34.1199 107.291 28.6699 113.991 28.6699C120.691 28.6699 126.141 34.1199 126.141 40.8199V51.7999C126.141 58.4999 120.691 63.95 113.991 63.95ZM113.991 30.6699C108.401 30.6699 103.841 35.2199 103.841 40.8199V51.7999C103.841 57.3899 108.391 61.95 113.991 61.95C119.591 61.95 124.141 57.3999 124.141 51.7999V40.8199C124.141 35.2299 119.591 30.6699 113.991 30.6699Z" fill="#2F3F64"/>
</g>
<path id="Vector_3" d="M113.991 42.3396C113.441 42.3396 112.991 41.8896 112.991 41.3396V34.8096C112.991 34.2596 113.441 33.8096 113.991 33.8096C114.541 33.8096 114.991 34.2596 114.991 34.8096V41.3396C114.991 41.8896 114.541 42.3396 113.991 42.3396Z" fill="#2F3F64"/>
</g>
<g id="Group_3">
<g id="Group_4">
<path id="Vector_4" fill-rule="evenodd" clip-rule="evenodd" d="M89.2004 23.7598C92.5704 23.7598 95.3105 26.4998 95.3105 29.8698V56.8597C95.3105 60.2297 92.5704 62.9697 89.2004 62.9697H7.59045C4.22045 62.9697 1.48047 60.2297 1.48047 56.8597V29.8698C1.48047 26.4998 4.22045 23.7598 7.59045 23.7598H65.0205" fill="#BCC5DC"/>
<path id="Vector_5" d="M89.2004 63.96H7.59045C3.67045 63.96 0.480469 60.77 0.480469 56.85V29.86C0.480469 25.94 3.67045 22.75 7.59045 22.75H65.0205C65.5705 22.75 66.0205 23.2 66.0205 23.75C66.0205 24.3 65.5705 24.75 65.0205 24.75H7.59045C4.77045 24.75 2.48047 27.04 2.48047 29.86V56.85C2.48047 59.67 4.77045 61.96 7.59045 61.96H89.2004C92.0204 61.96 94.3105 59.67 94.3105 56.85V29.86C94.3105 27.04 92.0204 24.75 89.2004 24.75C88.6504 24.75 88.2004 24.3 88.2004 23.75C88.2004 23.2 88.6504 22.75 89.2004 22.75C93.1204 22.75 96.3105 25.94 96.3105 29.86V56.85C96.3105 60.77 93.1204 63.96 89.2004 63.96Z" fill="#2F3F64"/>
</g>
<g id="Group_5">
<path id="Vector_6" d="M65.3104 51.5195H31.1003C29.8632 51.5195 28.8604 52.5224 28.8604 53.7595V55.7395C28.8604 56.9766 29.8632 57.9795 31.1003 57.9795H65.3104C66.5475 57.9795 67.5504 56.9766 67.5504 55.7395V53.7595C67.5504 52.5224 66.5475 51.5195 65.3104 51.5195Z" fill="white"/>
<path id="Vector_7" d="M65.3104 58.9895H31.1003C29.3103 58.9895 27.8604 57.5395 27.8604 55.7495V53.7595C27.8604 51.9695 29.3103 50.5195 31.1003 50.5195H65.3104C67.1004 50.5195 68.5504 51.9695 68.5504 53.7595V55.7495C68.5504 57.5395 67.1004 58.9895 65.3104 58.9895ZM31.1003 52.5195C30.4203 52.5195 29.8604 53.0795 29.8604 53.7595V55.7495C29.8604 56.4295 30.4203 56.9895 31.1003 56.9895H65.3104C65.9904 56.9895 66.5504 56.4295 66.5504 55.7495V53.7595C66.5504 53.0795 65.9904 52.5195 65.3104 52.5195H31.1003Z" fill="#2F3F64"/>
</g>
<g id="Group_6">
<path id="Vector_8" d="M11.6008 51.5195H9.62085C8.38373 51.5195 7.38086 52.5224 7.38086 53.7595V55.7395C7.38086 56.9766 8.38373 57.9795 9.62085 57.9795H11.6008C12.8379 57.9795 13.8408 56.9766 13.8408 55.7395V53.7595C13.8408 52.5224 12.8379 51.5195 11.6008 51.5195Z" fill="#BCC5DC"/>
<path id="Vector_9" d="M11.6008 58.9895H9.62085C7.83085 58.9895 6.38086 57.5395 6.38086 55.7495V53.7595C6.38086 51.9695 7.83085 50.5195 9.62085 50.5195H11.6008C13.3908 50.5195 14.8408 51.9695 14.8408 53.7595V55.7495C14.8408 57.5395 13.3908 58.9895 11.6008 58.9895ZM9.62085 52.5195C8.94085 52.5195 8.38086 53.0795 8.38086 53.7595V55.7495C8.38086 56.4295 8.94085 56.9895 9.62085 56.9895H11.6008C12.2808 56.9895 12.8408 56.4295 12.8408 55.7495V53.7595C12.8408 53.0795 12.2808 52.5195 11.6008 52.5195H9.62085Z" fill="#2F3F64"/>
</g>
<g id="Group_7">
<path id="Vector_10" d="M22.3401 51.5195H20.3601C19.123 51.5195 18.1201 52.5224 18.1201 53.7595V55.7395C18.1201 56.9766 19.123 57.9795 20.3601 57.9795H22.3401C23.5772 57.9795 24.5801 56.9766 24.5801 55.7395V53.7595C24.5801 52.5224 23.5772 51.5195 22.3401 51.5195Z" fill="#BCC5DC"/>
<path id="Vector_11" d="M22.3403 58.9895H20.3503C18.5603 58.9895 17.1104 57.5395 17.1104 55.7495V53.7595C17.1104 51.9695 18.5603 50.5195 20.3503 50.5195H22.3403C24.1303 50.5195 25.5803 51.9695 25.5803 53.7595V55.7495C25.5803 57.5395 24.1303 58.9895 22.3403 58.9895ZM20.3604 52.5195C19.6804 52.5195 19.1204 53.0795 19.1204 53.7595V55.7495C19.1204 56.4295 19.6804 56.9895 20.3604 56.9895H22.3503C23.0303 56.9895 23.5903 56.4295 23.5903 55.7495V53.7595C23.5903 53.0795 23.0303 52.5195 22.3503 52.5195H20.3604Z" fill="#2F3F64"/>
</g>
<g id="Group_8">
<path id="Vector_12" d="M76.0502 51.5195H74.0701C72.833 51.5195 71.8301 52.5224 71.8301 53.7595V55.7395C71.8301 56.9766 72.833 57.9795 74.0701 57.9795H76.0502C77.2873 57.9795 78.2902 56.9766 78.2902 55.7395V53.7595C78.2902 52.5224 77.2873 51.5195 76.0502 51.5195Z" fill="#BCC5DC"/>
<path id="Vector_13" d="M76.0602 58.9895H74.0701C72.2801 58.9895 70.8301 57.5395 70.8301 55.7495V53.7595C70.8301 51.9695 72.2801 50.5195 74.0701 50.5195H76.0602C77.8502 50.5195 79.3002 51.9695 79.3002 53.7595V55.7495C79.3002 57.5395 77.8502 58.9895 76.0602 58.9895ZM74.0701 52.5195C73.3901 52.5195 72.8301 53.0795 72.8301 53.7595V55.7495C72.8301 56.4295 73.3901 56.9895 74.0701 56.9895H76.0602C76.7402 56.9895 77.3002 56.4295 77.3002 55.7495V53.7595C77.3002 53.0795 76.7402 52.5195 76.0602 52.5195H74.0701Z" fill="#2F3F64"/>
</g>
<g id="Group_9">
<path id="Vector_14" d="M86.7904 51.5195H84.8104C83.5733 51.5195 82.5703 52.5224 82.5703 53.7595V55.7395C82.5703 56.9766 83.5733 57.9795 84.8104 57.9795H86.7904C88.0275 57.9795 89.0304 56.9766 89.0304 55.7395V53.7595C89.0304 52.5224 88.0275 51.5195 86.7904 51.5195Z" fill="#BCC5DC"/>
<path id="Vector_15" d="M86.8004 58.9895H84.8104C83.0204 58.9895 81.5703 57.5395 81.5703 55.7495V53.7595C81.5703 51.9695 83.0204 50.5195 84.8104 50.5195H86.8004C88.5904 50.5195 90.0404 51.9695 90.0404 53.7595V55.7495C90.0404 57.5395 88.5904 58.9895 86.8004 58.9895ZM84.8104 52.5195C84.1304 52.5195 83.5703 53.0795 83.5703 53.7595V55.7495C83.5703 56.4295 84.1304 56.9895 84.8104 56.9895H86.8004C87.4804 56.9895 88.0404 56.4295 88.0404 55.7495V53.7595C88.0404 53.0795 87.4804 52.5195 86.8004 52.5195H84.8104Z" fill="#2F3F64"/>
</g>
<g id="Group_10">
<path id="Vector_16" d="M11.6008 40.3799H9.62085C8.38373 40.3799 7.38086 41.3828 7.38086 42.6199V44.5999C7.38086 45.837 8.38373 46.8399 9.62085 46.8399H11.6008C12.8379 46.8399 13.8408 45.837 13.8408 44.5999V42.6199C13.8408 41.3828 12.8379 40.3799 11.6008 40.3799Z" fill="#BCC5DC"/>
<path id="Vector_17" d="M11.6008 47.8401H9.62085C7.83085 47.8401 6.38086 46.3901 6.38086 44.6001V42.6101C6.38086 40.8201 7.83085 39.3701 9.62085 39.3701H11.6008C13.3908 39.3701 14.8408 40.8201 14.8408 42.6101V44.6001C14.8408 46.3901 13.3908 47.8401 11.6008 47.8401ZM9.62085 41.3801C8.94085 41.3801 8.38086 41.9401 8.38086 42.6201V44.6101C8.38086 45.2901 8.94085 45.8501 9.62085 45.8501H11.6008C12.2808 45.8501 12.8408 45.2901 12.8408 44.6101V42.6201C12.8408 41.9401 12.2808 41.3801 11.6008 41.3801H9.62085Z" fill="#2F3F64"/>
</g>
<g id="Group_11">
<path id="Vector_18" d="M22.3401 40.3799H20.3601C19.123 40.3799 18.1201 41.3828 18.1201 42.6199V44.5999C18.1201 45.837 19.123 46.8399 20.3601 46.8399H22.3401C23.5772 46.8399 24.5801 45.837 24.5801 44.5999V42.6199C24.5801 41.3828 23.5772 40.3799 22.3401 40.3799Z" fill="#BCC5DC"/>
<path id="Vector_19" d="M22.3403 47.8401H20.3503C18.5603 47.8401 17.1104 46.3901 17.1104 44.6001V42.6101C17.1104 40.8201 18.5603 39.3701 20.3503 39.3701H22.3403C24.1303 39.3701 25.5803 40.8201 25.5803 42.6101V44.6001C25.5803 46.3901 24.1303 47.8401 22.3403 47.8401ZM20.3604 41.3801C19.6804 41.3801 19.1204 41.9401 19.1204 42.6201V44.6101C19.1204 45.2901 19.6804 45.8501 20.3604 45.8501H22.3503C23.0303 45.8501 23.5903 45.2901 23.5903 44.6101V42.6201C23.5903 41.9401 23.0303 41.3801 22.3503 41.3801H20.3604Z" fill="#2F3F64"/>
</g>
<g id="Group_12">
<path id="Vector_20" d="M11.6008 29.3193H9.62085C8.38373 29.3193 7.38086 30.3222 7.38086 31.5593V33.5393C7.38086 34.7764 8.38373 35.7794 9.62085 35.7794H11.6008C12.8379 35.7794 13.8408 34.7764 13.8408 33.5393V31.5593C13.8408 30.3222 12.8379 29.3193 11.6008 29.3193Z" fill="white"/>
<path id="Vector_21" d="M11.6008 36.7796H9.62085C7.83085 36.7796 6.38086 35.3296 6.38086 33.5396V31.5496C6.38086 29.7596 7.83085 28.3096 9.62085 28.3096H11.6008C13.3908 28.3096 14.8408 29.7596 14.8408 31.5496V33.5396C14.8408 35.3296 13.3908 36.7796 11.6008 36.7796ZM9.62085 30.3196C8.94085 30.3196 8.38086 30.8796 8.38086 31.5596V33.5496C8.38086 34.2296 8.94085 34.7896 9.62085 34.7896H11.6008C12.2808 34.7896 12.8408 34.2296 12.8408 33.5496V31.5596C12.8408 30.8796 12.2808 30.3196 11.6008 30.3196H9.62085Z" fill="#2F3F64"/>
</g>
<g id="Group_13">
<path id="Vector_22" d="M22.3401 29.3193H20.3601C19.123 29.3193 18.1201 30.3222 18.1201 31.5593V33.5393C18.1201 34.7764 19.123 35.7794 20.3601 35.7794H22.3401C23.5772 35.7794 24.5801 34.7764 24.5801 33.5393V31.5593C24.5801 30.3222 23.5772 29.3193 22.3401 29.3193Z" fill="#BCC5DC"/>
<path id="Vector_23" d="M22.3403 36.7796H20.3503C18.5603 36.7796 17.1104 35.3296 17.1104 33.5396V31.5496C17.1104 29.7596 18.5603 28.3096 20.3503 28.3096H22.3403C24.1303 28.3096 25.5803 29.7596 25.5803 31.5496V33.5396C25.5803 35.3296 24.1303 36.7796 22.3403 36.7796ZM20.3604 30.3196C19.6804 30.3196 19.1204 30.8796 19.1204 31.5596V33.5496C19.1204 34.2296 19.6804 34.7896 20.3604 34.7896H22.3503C23.0303 34.7896 23.5903 34.2296 23.5903 33.5496V31.5596C23.5903 30.8796 23.0303 30.3196 22.3503 30.3196H20.3604Z" fill="#2F3F64"/>
</g>
<g id="Group_14">
<path id="Vector_24" d="M33.0803 40.3799H31.1003C29.8632 40.3799 28.8604 41.3828 28.8604 42.6199V44.5999C28.8604 45.837 29.8632 46.8399 31.1003 46.8399H33.0803C34.3174 46.8399 35.3203 45.837 35.3203 44.5999V42.6199C35.3203 41.3828 34.3174 40.3799 33.0803 40.3799Z" fill="#BCC5DC"/>
<path id="Vector_25" d="M33.0903 47.8401H31.1003C29.3103 47.8401 27.8604 46.3901 27.8604 44.6001V42.6101C27.8604 40.8201 29.3103 39.3701 31.1003 39.3701H33.0903C34.8803 39.3701 36.3303 40.8201 36.3303 42.6101V44.6001C36.3303 46.3901 34.8803 47.8401 33.0903 47.8401ZM31.1003 41.3801C30.4203 41.3801 29.8604 41.9401 29.8604 42.6201V44.6101C29.8604 45.2901 30.4203 45.8501 31.1003 45.8501H33.0903C33.7703 45.8501 34.3303 45.2901 34.3303 44.6101V42.6201C34.3303 41.9401 33.7703 41.3801 33.0903 41.3801H31.1003Z" fill="#2F3F64"/>
</g>
<g id="Group_15">
<path id="Vector_26" d="M43.8206 40.3799H41.8406C40.6035 40.3799 39.6006 41.3828 39.6006 42.6199V44.5999C39.6006 45.837 40.6035 46.8399 41.8406 46.8399H43.8206C45.0577 46.8399 46.0607 45.837 46.0607 44.5999V42.6199C46.0607 41.3828 45.0577 40.3799 43.8206 40.3799Z" fill="#BCC5DC"/>
<path id="Vector_27" d="M43.8306 47.8401H41.8406C40.0506 47.8401 38.6006 46.3901 38.6006 44.6001V42.6101C38.6006 40.8201 40.0506 39.3701 41.8406 39.3701H43.8306C45.6206 39.3701 47.0706 40.8201 47.0706 42.6101V44.6001C47.0706 46.3901 45.6206 47.8401 43.8306 47.8401ZM41.8406 41.3801C41.1606 41.3801 40.6006 41.9401 40.6006 42.6201V44.6101C40.6006 45.2901 41.1606 45.8501 41.8406 45.8501H43.8306C44.5106 45.8501 45.0706 45.2901 45.0706 44.6101V42.6201C45.0706 41.9401 44.5106 41.3801 43.8306 41.3801H41.8406Z" fill="#2F3F64"/>
</g>
<g id="Group_16">
<path id="Vector_28" d="M33.0803 29.3193H31.1003C29.8632 29.3193 28.8604 30.3222 28.8604 31.5593V33.5393C28.8604 34.7764 29.8632 35.7794 31.1003 35.7794H33.0803C34.3174 35.7794 35.3203 34.7764 35.3203 33.5393V31.5593C35.3203 30.3222 34.3174 29.3193 33.0803 29.3193Z" fill="#BCC5DC"/>
<path id="Vector_29" d="M33.0903 36.7796H31.1003C29.3103 36.7796 27.8604 35.3296 27.8604 33.5396V31.5496C27.8604 29.7596 29.3103 28.3096 31.1003 28.3096H33.0903C34.8803 28.3096 36.3303 29.7596 36.3303 31.5496V33.5396C36.3303 35.3296 34.8803 36.7796 33.0903 36.7796ZM31.1003 30.3196C30.4203 30.3196 29.8604 30.8796 29.8604 31.5596V33.5496C29.8604 34.2296 30.4203 34.7896 31.1003 34.7896H33.0903C33.7703 34.7896 34.3303 34.2296 34.3303 33.5496V31.5596C34.3303 30.8796 33.7703 30.3196 33.0903 30.3196H31.1003Z" fill="#2F3F64"/>
</g>
<g id="Group_17">
<path id="Vector_30" d="M43.8206 29.3193H41.8406C40.6035 29.3193 39.6006 30.3222 39.6006 31.5593V33.5393C39.6006 34.7764 40.6035 35.7794 41.8406 35.7794H43.8206C45.0577 35.7794 46.0607 34.7764 46.0607 33.5393V31.5593C46.0607 30.3222 45.0577 29.3193 43.8206 29.3193Z" fill="#BCC5DC"/>
<path id="Vector_31" d="M43.8306 36.7796H41.8406C40.0506 36.7796 38.6006 35.3296 38.6006 33.5396V31.5496C38.6006 29.7596 40.0506 28.3096 41.8406 28.3096H43.8306C45.6206 28.3096 47.0706 29.7596 47.0706 31.5496V33.5396C47.0706 35.3296 45.6206 36.7796 43.8306 36.7796ZM41.8406 30.3196C41.1606 30.3196 40.6006 30.8796 40.6006 31.5596V33.5496C40.6006 34.2296 41.1606 34.7896 41.8406 34.7896H43.8306C44.5106 34.7896 45.0706 34.2296 45.0706 33.5496V31.5596C45.0706 30.8796 44.5106 30.3196 43.8306 30.3196H41.8406Z" fill="#2F3F64"/>
</g>
<g id="Group_18">
<path id="Vector_32" d="M54.5706 40.3799H52.5906C51.3535 40.3799 50.3506 41.3828 50.3506 42.6199V44.5999C50.3506 45.837 51.3535 46.8399 52.5906 46.8399H54.5706C55.8077 46.8399 56.8107 45.837 56.8107 44.5999V42.6199C56.8107 41.3828 55.8077 40.3799 54.5706 40.3799Z" fill="#BCC5DC"/>
<path id="Vector_33" d="M54.5708 47.8401H52.5808C50.7908 47.8401 49.3408 46.3901 49.3408 44.6001V42.6101C49.3408 40.8201 50.7908 39.3701 52.5808 39.3701H54.5708C56.3608 39.3701 57.8109 40.8201 57.8109 42.6101V44.6001C57.8109 46.3901 56.3608 47.8401 54.5708 47.8401ZM52.5908 41.3801C51.9108 41.3801 51.3508 41.9401 51.3508 42.6201V44.6101C51.3508 45.2901 51.9108 45.8501 52.5908 45.8501H54.5808C55.2608 45.8501 55.8208 45.2901 55.8208 44.6101V42.6201C55.8208 41.9401 55.2608 41.3801 54.5808 41.3801H52.5908Z" fill="#2F3F64"/>
</g>
<g id="Group_19">
<path id="Vector_34" d="M65.3099 40.3799H63.3298C62.0927 40.3799 61.0898 41.3828 61.0898 42.6199V44.5999C61.0898 45.837 62.0927 46.8399 63.3298 46.8399H65.3099C66.5471 46.8399 67.5499 45.837 67.5499 44.5999V42.6199C67.5499 41.3828 66.5471 40.3799 65.3099 40.3799Z" fill="#BCC5DC"/>
<path id="Vector_35" d="M65.3102 47.8401H63.3201C61.5301 47.8401 60.0801 46.3901 60.0801 44.6001V42.6101C60.0801 40.8201 61.5301 39.3701 63.3201 39.3701H65.3102C67.1002 39.3701 68.5502 40.8201 68.5502 42.6101V44.6001C68.5502 46.3901 67.1002 47.8401 65.3102 47.8401ZM63.3301 41.3801C62.6501 41.3801 62.0901 41.9401 62.0901 42.6201V44.6101C62.0901 45.2901 62.6501 45.8501 63.3301 45.8501H65.3201C66.0001 45.8501 66.5602 45.2901 66.5602 44.6101V42.6201C66.5602 41.9401 66.0001 41.3801 65.3201 41.3801H63.3301Z" fill="#2F3F64"/>
</g>
<g id="Group_20">
<path id="Vector_36" d="M54.5706 29.3193H52.5906C51.3535 29.3193 50.3506 30.3222 50.3506 31.5593V33.5393C50.3506 34.7764 51.3535 35.7794 52.5906 35.7794H54.5706C55.8077 35.7794 56.8107 34.7764 56.8107 33.5393V31.5593C56.8107 30.3222 55.8077 29.3193 54.5706 29.3193Z" fill="#BCC5DC"/>
<path id="Vector_37" d="M54.5708 36.7796H52.5808C50.7908 36.7796 49.3408 35.3296 49.3408 33.5396V31.5496C49.3408 29.7596 50.7908 28.3096 52.5808 28.3096H54.5708C56.3608 28.3096 57.8109 29.7596 57.8109 31.5496V33.5396C57.8109 35.3296 56.3608 36.7796 54.5708 36.7796ZM52.5908 30.3196C51.9108 30.3196 51.3508 30.8796 51.3508 31.5596V33.5496C51.3508 34.2296 51.9108 34.7896 52.5908 34.7896H54.5808C55.2608 34.7896 55.8208 34.2296 55.8208 33.5496V31.5596C55.8208 30.8796 55.2608 30.3196 54.5808 30.3196H52.5908Z" fill="#2F3F64"/>
</g>
<g id="Group_21">
<path id="Vector_38" d="M65.3099 29.3193H63.3298C62.0927 29.3193 61.0898 30.3222 61.0898 31.5593V33.5393C61.0898 34.7764 62.0927 35.7794 63.3298 35.7794H65.3099C66.5471 35.7794 67.5499 34.7764 67.5499 33.5393V31.5593C67.5499 30.3222 66.5471 29.3193 65.3099 29.3193Z" fill="#BCC5DC"/>
<path id="Vector_39" d="M65.3102 36.7796H63.3201C61.5301 36.7796 60.0801 35.3296 60.0801 33.5396V31.5496C60.0801 29.7596 61.5301 28.3096 63.3201 28.3096H65.3102C67.1002 28.3096 68.5502 29.7596 68.5502 31.5496V33.5396C68.5502 35.3296 67.1002 36.7796 65.3102 36.7796ZM63.3301 30.3196C62.6501 30.3196 62.0901 30.8796 62.0901 31.5596V33.5496C62.0901 34.2296 62.6501 34.7896 63.3301 34.7896H65.3201C66.0001 34.7896 66.5602 34.2296 66.5602 33.5496V31.5596C66.5602 30.8796 66.0001 30.3196 65.3201 30.3196H63.3301Z" fill="#2F3F64"/>
</g>
<g id="Group_22">
<path id="Vector_40" d="M76.0502 40.3799H74.0701C72.833 40.3799 71.8301 41.3828 71.8301 42.6199V44.5999C71.8301 45.837 72.833 46.8399 74.0701 46.8399H76.0502C77.2873 46.8399 78.2902 45.837 78.2902 44.5999V42.6199C78.2902 41.3828 77.2873 40.3799 76.0502 40.3799Z" fill="#BCC5DC"/>
<path id="Vector_41" d="M76.0602 47.8401H74.0701C72.2801 47.8401 70.8301 46.3901 70.8301 44.6001V42.6101C70.8301 40.8201 72.2801 39.3701 74.0701 39.3701H76.0602C77.8502 39.3701 79.3002 40.8201 79.3002 42.6101V44.6001C79.3002 46.3901 77.8502 47.8401 76.0602 47.8401ZM74.0701 41.3801C73.3901 41.3801 72.8301 41.9401 72.8301 42.6201V44.6101C72.8301 45.2901 73.3901 45.8501 74.0701 45.8501H76.0602C76.7402 45.8501 77.3002 45.2901 77.3002 44.6101V42.6201C77.3002 41.9401 76.7402 41.3801 76.0602 41.3801H74.0701Z" fill="#2F3F64"/>
</g>
<g id="Group_23">
<path id="Vector_42" d="M86.7904 36.8994H84.8104C83.5733 36.8994 82.5703 37.9023 82.5703 39.1394V44.5994C82.5703 45.8365 83.5733 46.8394 84.8104 46.8394H86.7904C88.0275 46.8394 89.0304 45.8365 89.0304 44.5994V39.1394C89.0304 37.9023 88.0275 36.8994 86.7904 36.8994Z" fill="#FEC95C"/>
<path id="Vector_43" d="M86.8004 47.8394H84.8104C83.0204 47.8394 81.5703 46.3894 81.5703 44.5994V39.1394C81.5703 37.3494 83.0204 35.8994 84.8104 35.8994H86.8004C88.5904 35.8994 90.0404 37.3494 90.0404 39.1394V44.5994C90.0404 46.3894 88.5904 47.8394 86.8004 47.8394ZM84.8104 37.8994C84.1304 37.8994 83.5703 38.4594 83.5703 39.1394V44.5994C83.5703 45.2794 84.1304 45.8394 84.8104 45.8394H86.8004C87.4804 45.8394 88.0404 45.2794 88.0404 44.5994V39.1394C88.0404 38.4594 87.4804 37.8994 86.8004 37.8994H84.8104Z" fill="#2F3F64"/>
</g>
<g id="Group_24">
<path id="Vector_44" d="M76.0502 29.3193H74.0701C72.833 29.3193 71.8301 30.3222 71.8301 31.5593V33.5393C71.8301 34.7764 72.833 35.7794 74.0701 35.7794H76.0502C77.2873 35.7794 78.2902 34.7764 78.2902 33.5393V31.5593C78.2902 30.3222 77.2873 29.3193 76.0502 29.3193Z" fill="#BCC5DC"/>
<path id="Vector_45" d="M76.0602 36.7796H74.0701C72.2801 36.7796 70.8301 35.3296 70.8301 33.5396V31.5496C70.8301 29.7596 72.2801 28.3096 74.0701 28.3096H76.0602C77.8502 28.3096 79.3002 29.7596 79.3002 31.5496V33.5396C79.3002 35.3296 77.8502 36.7796 76.0602 36.7796ZM74.0701 30.3196C73.3901 30.3196 72.8301 30.8796 72.8301 31.5596V33.5496C72.8301 34.2296 73.3901 34.7896 74.0701 34.7896H76.0602C76.7402 34.7896 77.3002 34.2296 77.3002 33.5496V31.5596C77.3002 30.8796 76.7402 30.3196 76.0602 30.3196H74.0701Z" fill="#2F3F64"/>
</g>
<path id="Vector_46" d="M87.8302 28.4199H83.7703C82.5331 28.4199 81.5303 29.4228 81.5303 30.6599V31.33C81.5303 32.5671 82.5331 33.5699 83.7703 33.5699H87.8302C89.0673 33.5699 90.0702 32.5671 90.0702 31.33V30.6599C90.0702 29.4228 89.0673 28.4199 87.8302 28.4199Z" fill="#2F3F64"/>
<g id="Group_25">
<path id="Vector_47" d="M42.4603 18.7197H50.0304C51.3204 18.7197 52.3704 19.7698 52.3704 21.0598V23.7498H40.1104V21.0598C40.1104 19.7698 41.1603 18.7197 42.4503 18.7197H42.4603Z" fill="#2F3F64"/>
<path id="Vector_48" d="M52.3704 24.7595H40.1104C39.5604 24.7595 39.1104 24.3095 39.1104 23.7595V21.0695C39.1104 19.2295 40.6103 17.7295 42.4503 17.7295H50.0204C51.8604 17.7295 53.3604 19.2295 53.3604 21.0695V23.7595C53.3604 24.3095 52.9104 24.7595 52.3604 24.7595H52.3704ZM41.1104 22.7595H51.3704V21.0695C51.3704 20.3295 50.7704 19.7295 50.0304 19.7295H42.4603C41.7203 19.7295 41.1204 20.3295 41.1204 21.0695V22.7595H41.1104Z" fill="#2F3F64"/>
</g>
<path id="Vector_49" d="M46.2402 18.7597C45.6902 18.7597 45.2402 18.3097 45.2402 17.7597C45.2402 8.3397 52.9002 0.679688 62.3202 0.679688C62.8702 0.679688 63.3202 1.12969 63.3202 1.67969C63.3202 2.22969 62.8702 2.67969 62.3202 2.67969C54.0002 2.67969 47.2402 9.4497 47.2402 17.7597C47.2402 18.3097 46.7902 18.7597 46.2402 18.7597Z" fill="#2F3F64"/>
</g>
<g id="Group_26">
<g id="Group_27">
<path id="Vector_50" d="M102.581 103.03C116.012 103.03 126.901 92.1412 126.901 78.7097C126.901 65.2781 116.012 54.3896 102.581 54.3896C89.1491 54.3896 78.2607 65.2781 78.2607 78.7097C78.2607 92.1412 89.1491 103.03 102.581 103.03Z" fill="#BCC5DC"/>
<path id="Vector_51" d="M102.581 104.02C88.6207 104.02 77.2607 92.6599 77.2607 78.6999C77.2607 64.7399 88.6207 53.3799 102.581 53.3799C116.541 53.3799 127.901 64.7399 127.901 78.6999C127.901 92.6599 116.541 104.02 102.581 104.02ZM102.581 55.3899C89.7207 55.3899 79.2607 65.8499 79.2607 78.7099C79.2607 91.5699 89.7207 102.03 102.581 102.03C115.441 102.03 125.901 91.5699 125.901 78.7099C125.901 65.8499 115.441 55.3899 102.581 55.3899Z" fill="#2F3F64"/>
</g>
<g id="Group_28">
<path id="Vector_52" d="M102.35 94.7297C102.09 94.7297 101.841 94.6298 101.641 94.4398L95.4005 88.1998C94.7005 87.4998 94.3105 86.5598 94.3105 85.5698V80.0098C94.3105 79.4598 94.7605 79.0098 95.3105 79.0098C95.8605 79.0098 96.3105 79.4598 96.3105 80.0098V85.5698C96.3105 86.0298 96.4905 86.4597 96.8105 86.7897L103.051 93.0298C103.441 93.4198 103.441 94.0498 103.051 94.4398C102.851 94.6398 102.6 94.7297 102.34 94.7297H102.35Z" fill="#2F3F64"/>
<path id="Vector_53" d="M102.351 98.0901C101.801 98.0901 101.351 97.6401 101.351 97.0901V66.3301C101.351 65.7801 101.801 65.3301 102.351 65.3301C102.901 65.3301 103.351 65.7801 103.351 66.3301V97.0901C103.351 97.6401 102.901 98.0901 102.351 98.0901Z" fill="#2F3F64"/>
<path id="Vector_54" d="M102.351 91.4505C102.091 91.4505 101.841 91.3505 101.641 91.1605C101.251 90.7705 101.251 90.1405 101.641 89.7505L108.341 83.0505C108.661 82.7305 108.841 82.2905 108.841 81.8305V73.7705C108.841 73.2205 109.291 72.7705 109.841 72.7705C110.391 72.7705 110.841 73.2205 110.841 73.7705V81.8305C110.841 82.8105 110.441 83.7705 109.751 84.4605L103.061 91.1605C102.861 91.3605 102.611 91.4505 102.351 91.4505Z" fill="#2F3F64"/>
<path id="Vector_55" d="M95.3109 80.4001C97.5974 80.4001 99.4508 78.5466 99.4508 76.2601C99.4508 73.9737 97.5974 72.1201 95.3109 72.1201C93.0245 72.1201 91.1709 73.9737 91.1709 76.2601C91.1709 78.5466 93.0245 80.4001 95.3109 80.4001Z" fill="#2F3F64"/>
<path id="Vector_56" d="M102.351 68.61C104.637 68.61 106.491 66.7565 106.491 64.47C106.491 62.1836 104.637 60.3301 102.351 60.3301C100.064 60.3301 98.2109 62.1836 98.2109 64.47C98.2109 66.7565 100.064 68.61 102.351 68.61Z" fill="#2F3F64"/>
<path id="Vector_57" d="M109.851 76.8904C112.137 76.8904 113.991 75.0368 113.991 72.7504C113.991 70.4639 112.137 68.6104 109.851 68.6104C107.564 68.6104 105.711 70.4639 105.711 72.7504C105.711 75.0368 107.564 76.8904 109.851 76.8904Z" fill="#2F3F64"/>
</g>
</g>
<path id="Vector_58" d="M113.99 30.6694C113.44 30.6694 112.99 30.2194 112.99 29.6694V3.39941C112.99 2.84941 113.44 2.39941 113.99 2.39941C114.54 2.39941 114.99 2.84941 114.99 3.39941V29.6694C114.99 30.2194 114.54 30.6694 113.99 30.6694Z" fill="#2F3F64"/>
</g>
</svg>
