<svg viewBox="0 0 127 117" fill="none" xmlns="http://www.w3.org/2000/svg">
<g id="asset-desktop-2">
<path id="Vector" fill-rule="evenodd" clip-rule="evenodd" d="M117.71 20.96C119.77 20.96 121.44 22.6299 121.44 24.6899V81.3499C121.44 83.4099 119.77 85.08 117.71 85.08H35.48C33.42 85.08 31.75 83.4099 31.75 81.3499V24.6899C31.75 22.6299 33.42 20.96 35.48 20.96H89.18" fill="white"/>
<path id="Vector_2" d="M117.71 86.0702H35.48C32.87 86.0702 30.75 83.9502 30.75 81.3402V24.6802C30.75 22.0702 32.87 19.9502 35.48 19.9502H89.18C89.73 19.9502 90.18 20.4002 90.18 20.9502C90.18 21.5002 89.73 21.9502 89.18 21.9502H35.48C33.98 21.9502 32.75 23.1702 32.75 24.6802V81.3402C32.75 82.8402 33.97 84.0702 35.48 84.0702H117.71C119.21 84.0702 120.44 82.8502 120.44 81.3402V24.6802C120.44 23.1802 119.22 21.9502 117.71 21.9502C117.16 21.9502 116.71 21.5002 116.71 20.9502C116.71 20.4002 117.16 19.9502 117.71 19.9502C120.32 19.9502 122.44 22.0702 122.44 24.6802V81.3402C122.44 83.9502 120.32 86.0702 117.71 86.0702Z" fill="#2F3F64"/>
<path id="Vector_3" d="M122.08 91.9004H30.1402C27.5302 91.9004 25.4102 89.7803 25.4102 87.1703V19.5904C25.4102 16.9804 27.5302 14.8604 30.1402 14.8604H122.08C124.69 14.8604 126.81 16.9804 126.81 19.5904V87.1703C126.81 89.7803 124.69 91.9004 122.08 91.9004ZM30.1402 16.8704C28.6402 16.8704 27.4102 18.0903 27.4102 19.6003V87.1804C27.4102 88.6804 28.6302 89.9103 30.1402 89.9103H122.08C123.58 89.9103 124.81 88.6904 124.81 87.1804V19.6003C124.81 18.1003 123.59 16.8704 122.08 16.8704H30.1402Z" fill="#2F3F64"/>
<g id="Group">
<path id="Vector_4" d="M90.2704 90.9004H61.9404V115.24H90.2704V90.9004Z" fill="#BCC5DC"/>
<path id="Vector_5" d="M90.2704 116.24H61.9404C61.3904 116.24 60.9404 115.79 60.9404 115.24V90.9004C60.9404 90.3504 61.3904 89.9004 61.9404 89.9004H90.2704C90.8204 89.9004 91.2704 90.3504 91.2704 90.9004V115.24C91.2704 115.79 90.8204 116.24 90.2704 116.24ZM62.9404 114.24H89.2704V91.9004H62.9404V114.24Z" fill="#2F3F64"/>
</g>
<path id="Vector_6" d="M96.4198 116.24H55.7998C55.2498 116.24 54.7998 115.79 54.7998 115.24C54.7998 114.69 55.2498 114.24 55.7998 114.24H96.4198C96.9698 114.24 97.4198 114.69 97.4198 115.24C97.4198 115.79 96.9698 116.24 96.4198 116.24Z" fill="#2F3F64"/>
<path id="Vector_7" d="M50.4304 15.8696V6.13959C50.4304 2.78959 47.7003 0.0595703 44.3503 0.0595703H6.48035C3.13035 0.0595703 0.400391 2.78959 0.400391 6.13959V109.19C0.400391 112.54 3.13035 115.27 6.48035 115.27H44.3503C47.7003 115.27 50.4304 112.54 50.4304 109.19V90.8996C50.4304 90.3496 49.9804 89.8996 49.4304 89.8996H30.1404C28.6404 89.8996 27.4103 88.6796 27.4103 87.1696V75.1595H8.08038C6.92038 75.1595 5.97034 74.2196 5.97034 73.0496V70.9695C5.97034 69.8095 6.91038 68.8596 8.08038 68.8596H27.4103V63.1496H8.08038C6.92038 63.1496 5.97034 62.2095 5.97034 61.0396V58.9596C5.97034 57.7996 6.91038 56.8495 8.08038 56.8495H27.4103V51.1396H8.08038C6.92038 51.1396 5.97034 50.1996 5.97034 49.0296V46.9496C5.97034 45.7896 6.91038 44.8396 8.08038 44.8396H27.4103V19.5696C27.4103 18.0696 28.6304 16.8396 30.1404 16.8396H49.4304C49.9804 16.8396 50.4304 16.3896 50.4304 15.8396V15.8696Z" fill="#2F3F64"/>
<path id="Vector_8" d="M24.5396 107C27.66 107 30.1896 104.471 30.1896 101.35C30.1896 98.2297 27.66 95.7002 24.5396 95.7002C21.4192 95.7002 18.8896 98.2297 18.8896 101.35C18.8896 104.471 21.4192 107 24.5396 107Z" fill="#FEC95C"/>
</g>
</svg>
