<svg viewBox="0 0 83 77" fill="none" xmlns="http://www.w3.org/2000/svg">
<g id="asset-cartridge">
<g id="Group">
<g id="Group_2">
<path id="Vector" d="M7.35938 18.6094H76.6394V55.4294C76.6394 58.7594 73.9294 61.4694 70.5994 61.4694H7.35938V18.6094Z" fill="#BCC5DC"/>
<path id="Vector_2" d="M70.5994 62.4694H7.35938C6.80937 62.4694 6.35938 62.0194 6.35938 61.4694V18.6094C6.35938 18.0594 6.80937 17.6094 7.35938 17.6094H76.6394C77.1894 17.6094 77.6394 18.0594 77.6394 18.6094V55.4294C77.6394 59.3094 74.4794 62.4694 70.5994 62.4694ZM8.35938 60.4694H70.5994C73.3794 60.4694 75.6394 58.2094 75.6394 55.4294V19.6094H8.35938V60.4694Z" fill="#2F3F64"/>
</g>
<g id="Group_3">
<path id="Vector_3" d="M7.35938 61.4697H41.9994V72.6298C41.9994 74.2498 40.6794 75.5698 39.0594 75.5698H10.3094C8.68937 75.5698 7.36937 74.2498 7.36937 72.6298V61.4697H7.35938Z" fill="white"/>
<path id="Vector_4" d="M39.0591 76.5795H10.3091C8.13914 76.5795 6.36914 74.8095 6.36914 72.6395V61.4795C6.36914 60.9295 6.81914 60.4795 7.36914 60.4795H42.0092C42.5592 60.4795 43.0092 60.9295 43.0092 61.4795V72.6395C43.0092 74.8095 41.2392 76.5795 39.0692 76.5795H39.0591ZM8.35915 62.4695V72.6295C8.35915 73.6995 9.22915 74.5695 10.2991 74.5695H39.0491C40.1191 74.5695 40.9891 73.6995 40.9891 72.6295V62.4695H8.34915H8.35915Z" fill="#2F3F64"/>
</g>
<path id="Vector_5" d="M15.8496 76.5798C15.2996 76.5798 14.8496 76.1298 14.8496 75.5798V61.4697C14.8496 60.9197 15.2996 60.4697 15.8496 60.4697C16.3996 60.4697 16.8496 60.9197 16.8496 61.4697V75.5798C16.8496 76.1298 16.3996 76.5798 15.8496 76.5798Z" fill="#2F3F64"/>
<path id="Vector_6" d="M24.6797 76.5798C24.1297 76.5798 23.6797 76.1298 23.6797 75.5798V61.4697C23.6797 60.9197 24.1297 60.4697 24.6797 60.4697C25.2297 60.4697 25.6797 60.9197 25.6797 61.4697V75.5798C25.6797 76.1298 25.2297 76.5798 24.6797 76.5798Z" fill="#2F3F64"/>
<path id="Vector_7" d="M33.5195 76.5798C32.9695 76.5798 32.5195 76.1298 32.5195 75.5798V61.4697C32.5195 60.9197 32.9695 60.4697 33.5195 60.4697C34.0695 60.4697 34.5195 60.9197 34.5195 61.4697V75.5798C34.5195 76.1298 34.0695 76.5798 33.5195 76.5798Z" fill="#2F3F64"/>
<path id="Vector_8" d="M78.9094 9.51953H4.36937C2.98313 9.51953 1.85938 10.6433 1.85938 12.0295V16.0995C1.85938 17.4857 2.98313 18.6095 4.36937 18.6095H78.9094C80.2956 18.6095 81.4194 17.4857 81.4194 16.0995V12.0295C81.4194 10.6433 80.2956 9.51953 78.9094 9.51953Z" fill="#FEC95C"/>
<path id="Vector_9" d="M78.9096 19.6097H4.3596C2.4296 19.6097 0.849609 18.0397 0.849609 16.0997V12.0198C0.849609 10.0898 2.4196 8.50977 4.3596 8.50977H58.4296C58.9796 8.50977 59.4296 8.95977 59.4296 9.50977C59.4296 10.0598 58.9796 10.5098 58.4296 10.5098H4.3596C3.5296 10.5098 2.84961 11.1898 2.84961 12.0198V16.0997C2.84961 16.9297 3.5296 17.6097 4.3596 17.6097H78.9096C79.7396 17.6097 80.4196 16.9297 80.4196 16.0997V12.0198C80.4196 11.1898 79.7396 10.5098 78.9096 10.5098C78.3596 10.5098 77.9096 10.0598 77.9096 9.50977C77.9096 8.95977 78.3596 8.50977 78.9096 8.50977C80.8396 8.50977 82.4196 10.0798 82.4196 12.0198V16.0997C82.4196 18.0297 80.8496 19.6097 78.9096 19.6097Z" fill="#2F3F64"/>
<g id="Group_4">
<path id="Vector_10" d="M41.6592 9.51953L38.0992 4.03949C37.0792 2.46949 35.3292 1.51953 33.4492 1.51953H9.07922C7.76922 1.51953 6.69922 2.58954 6.69922 3.89954V9.52954H41.6692L41.6592 9.51953Z" fill="#2F3F64"/>
<path id="Vector_11" d="M41.6595 10.5195H6.68945C6.13945 10.5195 5.68945 10.0695 5.68945 9.51953V3.89954C5.68945 2.03954 7.20946 0.519531 9.06946 0.519531H33.4395C35.6595 0.519531 37.7194 1.62951 38.9294 3.49951L42.4894 8.97949C42.6894 9.28949 42.7094 9.67951 42.5294 9.99951C42.3494 10.3195 42.0194 10.5195 41.6494 10.5195H41.6595ZM7.69945 8.51953H39.8195L37.2595 4.57953C36.4195 3.28953 34.9895 2.50952 33.4495 2.50952H9.07945C8.31945 2.50952 7.69945 3.12953 7.69945 3.88953V8.50952V8.51953Z" fill="#2F3F64"/>
</g>
<g id="Group_5">
<path id="Vector_12" d="M50.8703 42.2196C50.6803 39.7596 49.5803 37.3196 48.2703 35.3196C47.2203 33.7096 46.0603 32.1896 44.7203 30.7896C44.6103 30.6796 42.9203 28.8796 42.8103 28.9596C37.3203 33.1396 30.5303 44.4596 38.2503 49.7896C39.5903 50.7096 41.1903 51.2096 42.8103 51.2096C46.2103 51.2096 49.1903 49.0296 50.3803 45.8796C50.8303 44.6896 50.9603 43.4496 50.8603 42.2196H50.8703Z" fill="#FEC95C"/>
<path id="Vector_13" d="M42.82 52.2093C41 52.2093 39.18 51.6393 37.69 50.6093C35.21 48.8993 33.86 46.4193 33.79 43.4493C33.66 37.9993 37.97 31.3993 42.21 28.1593C43.03 27.5393 43.54 28.0793 45.43 30.0693C46.75 31.4493 47.95 32.9793 49.11 34.7693C50.24 36.4993 51.63 39.1793 51.87 42.1393C51.99 43.5993 51.8 44.9793 51.33 46.2393C49.98 49.8193 46.56 52.2193 42.82 52.2193V52.2093ZM42.81 30.2593C39.25 33.2793 35.69 38.9193 35.79 43.4093C35.84 45.7493 36.86 47.6193 38.82 48.9693C39.98 49.7693 41.4 50.2093 42.82 50.2093C45.73 50.2093 48.4 48.3293 49.45 45.5293C49.82 44.5493 49.96 43.4593 49.87 42.2993C49.67 39.7593 48.43 37.3993 47.43 35.8693C46.33 34.1893 45.21 32.7493 44 31.4793C43.46 30.9093 43.07 30.5193 42.8 30.2593H42.81Z" fill="#2F3F64"/>
</g>
</g>
</g>
</svg>
