<svg viewBox="0 0 128 113" fill="none" xmlns="http://www.w3.org/2000/svg">
<g id="asset-printer">
<g id="Group">
<g id="Group_2">
<path id="Vector" fill-rule="evenodd" clip-rule="evenodd" d="M21.4601 15.9199C18.2101 15.9199 15.5801 18.5499 15.5801 21.7999V40.7499H31.7201V15.9199H21.4601Z" fill="#2F3F64"/>
<path id="Vector_2" d="M31.7103 41.7499H15.5703C15.0203 41.7499 14.5703 41.2999 14.5703 40.7499V21.7999C14.5703 18.0099 17.6603 14.9199 21.4503 14.9199H31.7003C32.2503 14.9199 32.7003 15.3699 32.7003 15.9199V40.7499C32.7003 41.2999 32.2503 41.7499 31.7003 41.7499H31.7103ZM16.5803 39.7499H30.7203V16.9199H21.4703C18.7803 16.9199 16.5903 19.1099 16.5903 21.7999V39.7499H16.5803Z" fill="#2F3F64"/>
</g>
<g id="Group_3">
<path id="Vector_3" fill-rule="evenodd" clip-rule="evenodd" d="M105.93 15.9199H95.6699V40.7499H111.81V21.7999C111.81 18.5499 109.18 15.9199 105.93 15.9199Z" fill="#2F3F64"/>
<path id="Vector_4" d="M111.81 41.7499H95.6699C95.1199 41.7499 94.6699 41.2999 94.6699 40.7499V15.9199C94.6699 15.3699 95.1199 14.9199 95.6699 14.9199H105.93C109.72 14.9199 112.81 18.0099 112.81 21.7999V40.7499C112.81 41.2999 112.36 41.7499 111.81 41.7499ZM96.6799 39.7499H110.82V21.7999C110.82 19.1099 108.63 16.9199 105.94 16.9199H96.6799V39.7499Z" fill="#2F3F64"/>
</g>
</g>
<g id="Group_4">
<path id="Vector_5" d="M37.78 1.86035H89.6C92.95 1.86035 95.67 4.58036 95.67 7.93036V40.7504H31.71V7.93036C31.71 4.58036 34.43 1.86035 37.78 1.86035Z" fill="white"/>
<path id="Vector_6" d="M95.6798 41.7504H31.7197C31.1697 41.7504 30.7197 41.3004 30.7197 40.7504V7.93036C30.7197 4.03036 33.8898 0.860352 37.7898 0.860352H89.6097C93.5097 0.860352 96.6798 4.03036 96.6798 7.93036V40.7504C96.6798 41.3004 96.2298 41.7504 95.6798 41.7504ZM32.7097 39.7504H94.6698V7.93036C94.6698 5.13036 92.3897 2.86035 89.5997 2.86035H37.7798C34.9798 2.86035 32.7097 5.14036 32.7097 7.93036V39.7504Z" fill="#2F3F64"/>
</g>
<g id="Group_5">
<path id="Vector_7" fill-rule="evenodd" clip-rule="evenodd" d="M120.52 40.75H6.87024C3.62024 40.75 0.990234 43.38 0.990234 46.63V94.2C0.990234 97.45 3.62024 100.08 6.87024 100.08H31.7102V82.39H95.6703V100.08H120.51C123.76 100.08 126.39 97.45 126.39 94.2V46.63C126.39 43.38 123.76 40.75 120.51 40.75H120.52Z" fill="#BCC5DC"/>
<path id="Vector_8" d="M120.52 101.09H95.6801C95.1301 101.09 94.6801 100.64 94.6801 100.09V83.3998H32.72V100.09C32.72 100.64 32.27 101.09 31.72 101.09H6.88C3.09 101.09 0 97.9998 0 94.2098V46.6398C0 42.8498 3.09 39.7598 6.88 39.7598H120.53C124.32 39.7598 127.41 42.8498 127.41 46.6398V94.2098C127.41 97.9998 124.32 101.09 120.53 101.09H120.52ZM96.6801 99.0898H120.52C123.21 99.0898 125.4 96.8998 125.4 94.2098V46.6398C125.4 43.9498 123.21 41.7598 120.52 41.7598H6.87C4.18 41.7598 1.98999 43.9498 1.98999 46.6398V94.2098C1.98999 96.8998 4.18 99.0898 6.87 99.0898H30.71V82.3998C30.71 82.1298 30.82 81.8798 31 81.6898C31.18 81.4998 31.44 81.3998 31.71 81.3998H95.67C96.22 81.3998 96.67 81.8498 96.67 82.3998V99.0898H96.6801Z" fill="#2F3F64"/>
</g>
<path id="Vector_9" d="M120.52 101.09H95.6801C95.1301 101.09 94.6801 100.64 94.6801 100.09V83.3998H32.72V100.09C32.72 100.64 32.27 101.09 31.72 101.09H6.88C3.09 101.09 0 97.9998 0 94.2098V46.6398C0 42.8498 3.09 39.7598 6.88 39.7598H120.53C124.32 39.7598 127.41 42.8498 127.41 46.6398V94.2098C127.41 97.9998 124.32 101.09 120.53 101.09H120.52ZM96.6801 99.0898H120.52C123.21 99.0898 125.4 96.8998 125.4 94.2098V46.6398C125.4 43.9498 123.21 41.7598 120.52 41.7598H6.87C4.18 41.7598 1.98999 43.9498 1.98999 46.6398V94.2098C1.98999 96.8998 4.18 99.0898 6.87 99.0898H30.71V82.3998C30.71 82.1298 30.82 81.8798 31 81.6898C31.18 81.4998 31.44 81.3998 31.71 81.3998H95.67C96.22 81.3998 96.67 81.8498 96.67 82.3998V99.0898H96.6801Z" fill="#2F3F64"/>
<g id="Group_6">
<path id="Vector_10" d="M89.6096 111.471H37.7897C34.4397 111.471 31.7196 108.751 31.7196 105.401L31.7196 82.4008H95.6797V105.401C95.6797 108.751 92.9596 111.471 89.6096 111.471Z" fill="white"/>
<path id="Vector_11" d="M89.6097 112.47H37.7898C33.8898 112.47 30.7197 109.3 30.7197 105.4V82.4004C30.7197 81.8504 31.1697 81.4004 31.7197 81.4004H95.6798C96.2298 81.4004 96.6798 81.8504 96.6798 82.4004V105.4C96.6798 109.3 93.5097 112.47 89.6097 112.47ZM32.7097 83.4004V105.4C32.7097 108.2 34.9898 110.47 37.7798 110.47H89.5997C92.3997 110.47 94.6698 108.19 94.6698 105.4V83.4004H32.7097Z" fill="#2F3F64"/>
</g>
<path id="Vector_12" d="M115.39 61.0498H0.990234C0.440234 61.0498 -0.00976562 60.5998 -0.00976562 60.0498C-0.00976562 59.4998 0.440234 59.0498 0.990234 59.0498H115.39C115.94 59.0498 116.39 59.4998 116.39 60.0498C116.39 60.5998 115.94 61.0498 115.39 61.0498Z" fill="#2F3F64"/>
<g id="Group_7">
<path id="Vector_13" d="M115.97 55.77C118.621 55.77 120.77 53.6209 120.77 50.9699C120.77 48.3189 118.621 46.1699 115.97 46.1699C113.319 46.1699 111.17 48.3189 111.17 50.9699C111.17 53.6209 113.319 55.77 115.97 55.77Z" fill="#FEC95C"/>
<path id="Vector_14" d="M115.97 56.77C112.77 56.77 110.17 54.1699 110.17 50.9699C110.17 47.7699 112.77 45.1699 115.97 45.1699C119.17 45.1699 121.77 47.7699 121.77 50.9699C121.77 54.1699 119.17 56.77 115.97 56.77ZM115.97 47.1699C113.87 47.1699 112.17 48.8799 112.17 50.9699C112.17 53.0599 113.88 54.77 115.97 54.77C118.06 54.77 119.77 53.0599 119.77 50.9699C119.77 48.8799 118.06 47.1699 115.97 47.1699Z" fill="#2F3F64"/>
</g>
<path id="Vector_15" d="M18.5197 51.9697H7.09961C6.54961 51.9697 6.09961 51.5197 6.09961 50.9697C6.09961 50.4197 6.54961 49.9697 7.09961 49.9697H18.5197C19.0697 49.9697 19.5197 50.4197 19.5197 50.9697C19.5197 51.5197 19.0697 51.9697 18.5197 51.9697Z" fill="#2F3F64"/>
<path id="Vector_16" d="M37.42 51.9697H26C25.45 51.9697 25 51.5197 25 50.9697C25 50.4197 25.45 49.9697 26 49.9697H37.42C37.97 49.9697 38.42 50.4197 38.42 50.9697C38.42 51.5197 37.97 51.9697 37.42 51.9697Z" fill="#2F3F64"/>
<path id="Vector_17" d="M104.07 101.09C103.52 101.09 103.07 100.64 103.07 100.09V88.4504C103.07 85.6604 100.8 83.4004 98.0201 83.4004H29.3801C26.5901 83.4004 24.3301 85.6704 24.3301 88.4504V100.09C24.3301 100.64 23.8801 101.09 23.3301 101.09C22.7801 101.09 22.3301 100.64 22.3301 100.09V88.4504C22.3301 84.5604 25.4901 81.4004 29.3801 81.4004H98.0201C101.91 81.4004 105.07 84.5604 105.07 88.4504V100.09C105.07 100.64 104.62 101.09 104.07 101.09Z" fill="#2F3F64"/>
</g>
</svg>
