<svg viewBox="0 0 130 110" fill="none" xmlns="http://www.w3.org/2000/svg">
<g id="asset-lost">
<g id="Group">
<path id="Vector" d="M92.3796 18.5703H13.8496V72.6704H92.3796V18.5703Z" fill="white"/>
<path id="Vector_2" d="M92.3896 73.6802H13.8496C13.2996 73.6802 12.8496 73.2302 12.8496 72.6802V18.5801C12.8496 18.0301 13.2996 17.5801 13.8496 17.5801H92.3896C92.9396 17.5801 93.3896 18.0301 93.3896 18.5801V72.6802C93.3896 73.2302 92.9396 73.6802 92.3896 73.6802ZM14.8496 71.6802H91.3896V19.5801H14.8496V71.6802Z" fill="#2F3F64"/>
</g>
<g id="Group_2">
<path id="Vector_3" d="M116.3 18.5703H92.3896V72.6704H116.3V18.5703Z" fill="#2F3F64"/>
<path id="Vector_4" d="M116.3 73.6802H92.3896C91.8396 73.6802 91.3896 73.2302 91.3896 72.6802V18.5801C91.3896 18.0301 91.8396 17.5801 92.3896 17.5801H116.3C116.85 17.5801 117.3 18.0301 117.3 18.5801V72.6802C117.3 73.2302 116.85 73.6802 116.3 73.6802ZM93.3896 71.6802H115.3V19.5801H93.3896V71.6802Z" fill="#2F3F64"/>
</g>
<g id="Group_3">
<path id="Vector_5" d="M80.3396 1.41992L92.3896 18.5698H13.8496L1.80957 1.41992H53.1196" fill="white"/>
<path id="Vector_6" d="M92.3895 19.5703H13.8495C13.5195 19.5703 13.2195 19.4104 13.0295 19.1404L0.989536 1.98035C0.779536 1.68035 0.749529 1.28031 0.919529 0.940308C1.08953 0.610308 1.42953 0.400391 1.80953 0.400391H53.1195C53.6695 0.400391 54.1195 0.850391 54.1195 1.40039C54.1195 1.95039 53.6695 2.40039 53.1195 2.40039H3.72953L14.3695 17.5604H90.4595L79.5195 1.98035C79.1995 1.53035 79.3095 0.900332 79.7595 0.590332C80.2095 0.270332 80.8395 0.380322 81.1495 0.830322L93.1895 17.9904C93.3995 18.2904 93.4295 18.6904 93.2595 19.0304C93.0895 19.3604 92.7495 19.5703 92.3695 19.5703H92.3895Z" fill="#2F3F64"/>
</g>
<g id="Group_4">
<path id="Vector_7" d="M92.3896 18.5698H116.3L128.34 1.41992H104.43L92.3896 18.5698Z" fill="#BCC5DC"/>
<path id="Vector_8" d="M116.3 19.5703H92.3899C92.0199 19.5703 91.6699 19.3604 91.4999 19.0304C91.3299 18.7004 91.3499 18.3004 91.5699 17.9904L103.61 0.830322C103.8 0.560322 104.1 0.400391 104.43 0.400391H128.34C128.71 0.400391 129.06 0.610308 129.23 0.940308C129.4 1.27031 129.38 1.67035 129.16 1.98035L117.12 19.1404C116.93 19.4104 116.63 19.5703 116.3 19.5703ZM94.3099 17.5703H115.78L126.42 2.4104H104.95L94.3099 17.5703Z" fill="#2F3F64"/>
</g>
<g id="Group_5">
<path id="Vector_9" d="M77.2991 26.9904C76.8991 26.5904 76.3591 26.3604 75.7891 26.3604H30.6091C29.4291 26.3604 28.4691 27.3204 28.4591 28.5004L28.3291 59.5304C28.3291 60.1004 28.5491 60.6404 28.9491 61.0404C29.3491 61.4504 29.8891 61.6704 30.4591 61.6704H75.6391C76.8191 61.6704 77.7791 60.7104 77.7891 59.5304L77.9191 28.5004C77.9191 27.9304 77.6991 27.3903 77.2991 26.9803V26.9904Z" fill="#2F3F64"/>
<path id="Vector_10" d="M75.6296 62.6704H30.4495C29.6095 62.6704 28.8195 62.3404 28.2295 61.7504C27.6395 61.1604 27.3096 60.3704 27.3196 59.5304L27.4495 28.5004C27.4495 26.7704 28.8696 25.3604 30.5996 25.3604H75.7795C76.6195 25.3604 77.4095 25.6904 77.9995 26.2804C78.5896 26.8704 78.9196 27.6604 78.9096 28.5004L78.7795 59.5304C78.7795 61.2604 77.3596 62.6704 75.6296 62.6704ZM30.6095 27.3604C29.9795 27.3604 29.4596 27.8704 29.4596 28.5004L29.3296 59.5304C29.3296 59.8304 29.4496 60.1203 29.6596 60.3303C29.8796 60.5503 30.1596 60.6604 30.4596 60.6604H75.6396C76.2696 60.6604 76.7896 60.1504 76.7896 59.5204L76.9196 28.4904C76.9196 28.1904 76.7995 27.9004 76.5895 27.6804C76.3795 27.4704 76.0896 27.3503 75.7896 27.3503H30.6095V27.3604Z" fill="#2F3F64"/>
</g>
<g id="Group_6">
<path id="Vector_11" d="M104.03 108.26C117.462 108.26 128.35 97.3716 128.35 83.9401C128.35 70.5085 117.462 59.6201 104.03 59.6201C90.5984 59.6201 79.71 70.5085 79.71 83.9401C79.71 97.3716 90.5984 108.26 104.03 108.26Z" fill="#FEC95C"/>
<path id="Vector_12" d="M104.03 109.25C90.07 109.25 78.71 97.8904 78.71 83.9304C78.71 69.9704 90.07 58.6104 104.03 58.6104C117.99 58.6104 129.35 69.9704 129.35 83.9304C129.35 97.8904 117.99 109.25 104.03 109.25ZM104.03 60.6204C91.17 60.6204 80.71 71.0803 80.71 83.9403C80.71 96.8003 91.17 107.26 104.03 107.26C116.89 107.26 127.35 96.8003 127.35 83.9403C127.35 71.0803 116.89 60.6204 104.03 60.6204Z" fill="#2F3F64"/>
</g>
<path id="Vector_13" d="M101.259 91.4303C101.219 85.1803 101.479 84.4703 105.049 81.6503C107.549 79.7303 108.259 78.5703 108.259 76.5203C108.259 73.8003 106.389 71.8302 103.839 71.8302C101.289 71.8302 99.549 73.5703 99.549 75.8903V76.4702H96.2891C96.3291 71.6902 99.1891 68.7002 103.789 68.7002C108.389 68.7002 111.739 71.9603 111.739 76.4203C111.739 79.3703 110.489 81.4602 107.279 83.8702C104.869 85.7002 104.559 86.3202 104.559 89.3202C104.559 89.4502 104.559 90.5703 104.609 91.4203H101.259V91.4303ZM105.369 96.8802C105.369 98.1802 104.339 99.1603 103.049 99.1603C101.759 99.1603 100.729 98.1802 100.729 96.8402C100.729 95.5002 101.709 94.5203 103.049 94.5203C104.389 94.5203 105.369 95.5003 105.369 96.8903V96.8802Z" fill="#2F3F64"/>
<path id="Vector_14" d="M75.1495 29.1006C74.7795 28.7806 74.2895 28.6006 73.7695 28.6006H32.5995C31.5295 28.6006 30.6495 29.3706 30.6395 30.3206L30.5195 55.2206C30.5195 55.6806 30.7195 56.1106 31.0895 56.4406C31.4595 56.7706 31.9495 56.9406 32.4695 56.9406H73.6395C74.7195 56.9406 75.5895 56.1706 75.5995 55.2206L75.7195 30.3206C75.7195 29.8606 75.5195 29.4306 75.1495 29.1006Z" fill="#BCC5DC"/>
<g id="Group_7">
<path id="Vector_15" fill-rule="evenodd" clip-rule="evenodd" d="M81.8098 59.6807H62.1998C61.0598 59.6807 60.1298 60.6106 60.1298 61.7506V61.9806H45.3398V61.7506C45.3398 60.6106 44.4098 59.6807 43.2698 59.6807H24.4298C23.5098 59.6807 22.7598 60.4306 22.7598 61.3506V63.6906C22.7598 64.6106 23.5098 65.3606 24.4298 65.3606H81.8098C82.7298 65.3606 83.4798 64.6106 83.4798 63.6906V61.3506C83.4798 60.4306 82.7298 59.6807 81.8098 59.6807Z" fill="#BCC5DC"/>
<path id="Vector_16" d="M81.8098 66.3606H24.4298C22.9598 66.3606 21.7598 65.1606 21.7598 63.6906V61.3506C21.7598 59.8806 22.9598 58.6807 24.4298 58.6807H43.2698C44.6998 58.6807 45.8998 59.6606 46.2398 60.9806H59.2298C59.5698 59.6606 60.7798 58.6807 62.1998 58.6807H81.8098C83.2798 58.6807 84.4798 59.8806 84.4798 61.3506V63.6906C84.4798 65.1606 83.2798 66.3606 81.8098 66.3606ZM24.4298 60.6807C24.0598 60.6807 23.7598 60.9806 23.7598 61.3506V63.6906C23.7598 64.0606 24.0598 64.3606 24.4298 64.3606H81.8098C82.1798 64.3606 82.4798 64.0606 82.4798 63.6906V61.3506C82.4798 60.9806 82.1798 60.6807 81.8098 60.6807H62.1998C61.6098 60.6807 61.1298 61.1606 61.1298 61.7506V61.9806C61.1298 62.5306 60.6798 62.9806 60.1298 62.9806H45.3398C44.7898 62.9806 44.3398 62.5306 44.3398 61.9806V61.7506C44.3398 61.1606 43.8598 60.6807 43.2698 60.6807H24.4298Z" fill="#2F3F64"/>
</g>
</g>
</svg>
