<svg viewBox="0 0 51 97" fill="none" xmlns="http://www.w3.org/2000/svg">
<g id="asset-smartphone">
<path id="Vector" fill-rule="evenodd" clip-rule="evenodd" d="M42.2605 1.26953C46.3605 1.26953 49.6805 4.58951 49.6805 8.68951V87.9695C49.6805 92.0695 46.3605 95.3895 42.2605 95.3895H8.65051C4.55051 95.3895 1.23047 92.0695 1.23047 87.9695V8.68951C1.23047 4.58951 4.55051 1.26953 8.65051 1.26953H25.5005" fill="#BCC5DC"/>
<path id="Vector_2" d="M33.2897 92.2803H17.6797C17.1297 92.2803 16.6797 91.8303 16.6797 91.2803C16.6797 90.7303 17.1297 90.2803 17.6797 90.2803H33.2897C33.8397 90.2803 34.2897 90.7303 34.2897 91.2803C34.2897 91.8303 33.8397 92.2803 33.2897 92.2803Z" fill="#2F3F64"/>
<g id="Group">
<path id="Vector_3" d="M8.65051 1.26953C4.55051 1.26953 1.23047 4.58951 1.23047 8.68951V55.5795L49.5405 7.26953C48.8805 3.84953 45.8705 1.26953 42.2605 1.26953H8.65051Z" fill="white"/>
<path id="Vector_4" d="M49.6802 29.7698L1.24023 78.2098V87.9598C1.24023 91.6698 3.97027 94.7398 7.53027 95.2798L49.6802 53.1298V29.7598V29.7698Z" fill="white"/>
</g>
<path id="Vector_5" d="M42.2605 96.3798H8.65051C4.01051 96.3798 0.230469 92.5998 0.230469 87.9598V8.67975C0.230469 4.03975 4.01051 0.259766 8.65051 0.259766H25.5005C26.0505 0.259766 26.5005 0.709766 26.5005 1.25977C26.5005 1.80977 26.0505 2.25977 25.5005 2.25977H8.65051C5.11051 2.25977 2.23047 5.13975 2.23047 8.67975V87.9598C2.23047 91.4998 5.11051 94.3798 8.65051 94.3798H42.2605C45.8005 94.3798 48.6805 91.4998 48.6805 87.9598V8.67975C48.6805 5.13975 45.8005 2.25977 42.2605 2.25977C41.7105 2.25977 41.2605 1.80977 41.2605 1.25977C41.2605 0.709766 41.7105 0.259766 42.2605 0.259766C46.9005 0.259766 50.6805 4.03975 50.6805 8.67975V87.9598C50.6805 92.5998 46.9005 96.3798 42.2605 96.3798Z" fill="#2F3F64"/>
<path id="Vector_6" d="M34.8904 5.23047H16.1004C14.7694 5.23047 13.6904 6.3095 13.6904 7.6405C13.6904 8.97151 14.7694 10.0505 16.1004 10.0505H34.8904C36.2214 10.0505 37.3004 8.97151 37.3004 7.6405C37.3004 6.3095 36.2214 5.23047 34.8904 5.23047Z" fill="#FEC95C"/>
</g>
</svg>
