<svg viewBox="0 0 115 128" fill="none" xmlns="http://www.w3.org/2000/svg">
<g id="backup-restoration-1">
<g id="Group">
<path id="Vector" fill-rule="evenodd" clip-rule="evenodd" d="M39.8303 1.23047C18.4003 1.23047 1.03027 6.50048 1.03027 12.9905V36.5205C1.03027 43.0205 18.4003 48.2805 39.8303 48.2805C61.2603 48.2805 78.6303 43.0105 78.6303 36.5205V12.9905C78.6303 6.49048 61.2603 1.23047 39.8303 1.23047Z" fill="#BCC5DC"/>
<path id="Vector_2" d="M39.8303 49.2905C20.2703 49.2905 0.0302734 44.5205 0.0302734 36.5305V13.0005C0.0302734 5.01049 20.2603 0.230469 39.8303 0.230469C59.4003 0.230469 79.6303 5.01049 79.6303 13.0005V36.5305C79.6303 44.5205 59.4003 49.2905 39.8303 49.2905ZM39.8303 2.23047C21.9503 2.23047 2.03027 6.65049 2.03027 13.0005V36.5305C2.03027 42.8705 21.9503 47.2905 39.8303 47.2905C57.7103 47.2905 77.6303 42.8705 77.6303 36.5305V13.0005C77.6303 6.66049 57.7103 2.23047 39.8303 2.23047Z" fill="#2F3F64"/>
</g>
<g id="Group_2">
<path id="Vector_3" fill-rule="evenodd" clip-rule="evenodd" d="M39.8303 24.76C18.4003 24.76 1.03027 19.49 1.03027 13V36.53C1.03027 43.03 18.4003 48.29 39.8303 48.29C61.2603 48.29 78.6303 43.02 78.6303 36.53V13C78.6303 19.5 61.2603 24.76 39.8303 24.76Z" fill="#BCC5DC"/>
<path id="Vector_4" d="M39.8303 49.29C20.2703 49.29 0.0302734 44.52 0.0302734 36.53V13C0.0302734 12.45 0.480273 12 1.03027 12C1.58027 12 2.03027 12.45 2.03027 13C2.03027 19.34 21.9503 23.76 39.8303 23.76C57.7103 23.76 77.6303 19.34 77.6303 13C77.6303 12.45 78.0803 12 78.6303 12C79.1803 12 79.6303 12.45 79.6303 13V36.53C79.6303 44.52 59.4003 49.29 39.8303 49.29ZM2.04027 17.15V36.53C2.04027 42.87 21.9603 47.29 39.8403 47.29C57.7203 47.29 77.6403 42.87 77.6403 36.53V17.15C72.0703 22.62 55.7303 25.77 39.8403 25.77C23.9503 25.77 7.62027 22.62 2.04027 17.15Z" fill="#2F3F64"/>
</g>
<g id="Group_3">
<path id="Vector_5" fill-rule="evenodd" clip-rule="evenodd" d="M39.8303 48.26C18.4003 48.26 1.03027 42.99 1.03027 36.5V60.03C1.03027 66.53 18.4003 71.79 39.8303 71.79C61.2603 71.79 78.6303 66.52 78.6303 60.03V36.5C78.6303 43 61.2603 48.26 39.8303 48.26Z" fill="#BCC5DC"/>
<path id="Vector_6" d="M39.8303 72.79C20.2703 72.79 0.0302734 68.02 0.0302734 60.03V36.5C0.0302734 35.95 0.480273 35.5 1.03027 35.5C1.58027 35.5 2.03027 35.95 2.03027 36.5C2.03027 42.84 21.9503 47.26 39.8303 47.26C57.7103 47.26 77.6303 42.84 77.6303 36.5C77.6303 35.95 78.0803 35.5 78.6303 35.5C79.1803 35.5 79.6303 35.95 79.6303 36.5V60.03C79.6303 68.02 59.4003 72.79 39.8303 72.79ZM2.04027 40.65V60.03C2.04027 66.37 21.9603 70.79 39.8403 70.79C57.7203 70.79 77.6403 66.37 77.6403 60.03V40.65C72.0703 46.12 55.7303 49.27 39.8403 49.27C23.9503 49.27 7.62027 46.12 2.04027 40.65Z" fill="#2F3F64"/>
</g>
<g id="Group_4">
<path id="Vector_7" fill-rule="evenodd" clip-rule="evenodd" d="M39.8303 71.6995C18.4003 71.6995 1.03027 66.4295 1.03027 59.9395V83.4695C1.03027 89.9695 18.4003 95.2295 39.8303 95.2295C61.2603 95.2295 78.6303 89.9595 78.6303 83.4695V59.9395C78.6303 66.4395 61.2603 71.6995 39.8303 71.6995Z" fill="#BCC5DC"/>
<path id="Vector_8" d="M39.8303 96.2295C20.2703 96.2295 0.0302734 91.4595 0.0302734 83.4695V59.9395C0.0302734 59.3895 0.480273 58.9395 1.03027 58.9395C1.58027 58.9395 2.03027 59.3895 2.03027 59.9395C2.03027 66.2795 21.9503 70.6995 39.8303 70.6995C57.7103 70.6995 77.6303 66.2795 77.6303 59.9395C77.6303 59.3895 78.0803 58.9395 78.6303 58.9395C79.1803 58.9395 79.6303 59.3895 79.6303 59.9395V83.4695C79.6303 91.4595 59.4003 96.2295 39.8303 96.2295ZM2.04027 64.0795V83.4595C2.04027 89.7995 21.9603 94.2195 39.8403 94.2195C57.7203 94.2195 77.6403 89.7995 77.6403 83.4595V64.0795C72.0703 69.5495 55.7303 72.6995 39.8403 72.6995C23.9503 72.6995 7.62027 69.5495 2.04027 64.0795Z" fill="#2F3F64"/>
</g>
<g id="Group_5">
<path id="Vector_9" d="M39.8303 24.7603C61.2589 24.7603 78.6303 19.4951 78.6303 13.0002C78.6303 6.50538 61.2589 1.24023 39.8303 1.24023C18.4016 1.24023 1.03027 6.50538 1.03027 13.0002C1.03027 19.4951 18.4016 24.7603 39.8303 24.7603Z" fill="#2F3F64"/>
<path id="Vector_10" d="M39.8303 25.7605C20.2703 25.7605 0.0302734 20.9905 0.0302734 13.0005C0.0302734 5.01049 20.2603 0.230469 39.8303 0.230469C59.4003 0.230469 79.6303 5.01049 79.6303 13.0005C79.6303 20.9905 59.4003 25.7605 39.8303 25.7605ZM39.8303 2.23047C21.9503 2.23047 2.03027 6.65049 2.03027 13.0005C2.03027 19.3505 21.9503 23.7605 39.8303 23.7605C57.7103 23.7605 77.6303 19.3405 77.6303 13.0005C77.6303 6.66049 57.7103 2.23047 39.8303 2.23047Z" fill="#2F3F64"/>
</g>
<g id="Group_6">
<path id="Vector_11" d="M11.63 36.4904C13.933 36.4904 15.8 34.6233 15.8 32.3203C15.8 30.0173 13.933 28.1504 11.63 28.1504C9.32693 28.1504 7.45996 30.0173 7.45996 32.3203C7.45996 34.6233 9.32693 36.4904 11.63 36.4904Z" fill="white"/>
<path id="Vector_12" d="M11.63 37.5001C8.77996 37.5001 6.45996 35.1801 6.45996 32.3301C6.45996 29.4801 8.77996 27.1602 11.63 27.1602C14.48 27.1602 16.8 29.4801 16.8 32.3301C16.8 35.1801 14.48 37.5001 11.63 37.5001ZM11.63 29.1501C9.87996 29.1501 8.45996 30.5701 8.45996 32.3201C8.45996 34.0701 9.87996 35.4901 11.63 35.4901C13.38 35.4901 14.8 34.0701 14.8 32.3201C14.8 30.5701 13.38 29.1501 11.63 29.1501Z" fill="#2F3F64"/>
</g>
<g id="Group_7">
<path id="Vector_13" d="M11.63 59.9299C13.933 59.9299 15.8 58.0629 15.8 55.7599C15.8 53.4569 13.933 51.5898 11.63 51.5898C9.32693 51.5898 7.45996 53.4569 7.45996 55.7599C7.45996 58.0629 9.32693 59.9299 11.63 59.9299Z" fill="white"/>
<path id="Vector_14" d="M11.63 60.9396C8.77996 60.9396 6.45996 58.6197 6.45996 55.7697C6.45996 52.9197 8.77996 50.5996 11.63 50.5996C14.48 50.5996 16.8 52.9197 16.8 55.7697C16.8 58.6197 14.48 60.9396 11.63 60.9396ZM11.63 52.5896C9.87996 52.5896 8.45996 54.0096 8.45996 55.7596C8.45996 57.5096 9.87996 58.9297 11.63 58.9297C13.38 58.9297 14.8 57.5096 14.8 55.7596C14.8 54.0096 13.38 52.5896 11.63 52.5896Z" fill="#2F3F64"/>
</g>
<g id="Group_8">
<path id="Vector_15" d="M11.63 83.3702C13.933 83.3702 15.8 81.5032 15.8 79.2002C15.8 76.8972 13.933 75.0303 11.63 75.0303C9.32693 75.0303 7.45996 76.8972 7.45996 79.2002C7.45996 81.5032 9.32693 83.3702 11.63 83.3702Z" fill="white"/>
<path id="Vector_16" d="M11.63 84.3702C8.77996 84.3702 6.45996 82.0502 6.45996 79.2002C6.45996 76.3502 8.77996 74.0303 11.63 74.0303C14.48 74.0303 16.8 76.3502 16.8 79.2002C16.8 82.0502 14.48 84.3702 11.63 84.3702ZM11.63 76.0303C9.87996 76.0303 8.45996 77.4502 8.45996 79.2002C8.45996 80.9502 9.87996 82.3702 11.63 82.3702C13.38 82.3702 14.8 80.9502 14.8 79.2002C14.8 77.4502 13.38 76.0303 11.63 76.0303Z" fill="#2F3F64"/>
</g>
<g id="Group_9">
<path id="Vector_17" d="M89.1696 126.65C102.601 126.65 113.49 115.761 113.49 102.33C113.49 88.8981 102.601 78.0098 89.1696 78.0098C75.7381 78.0098 64.8496 88.8981 64.8496 102.33C64.8496 115.761 75.7381 126.65 89.1696 126.65Z" fill="#FEC95C"/>
<path id="Vector_18" d="M89.1696 127.65C75.2096 127.65 63.8496 116.29 63.8496 102.33C63.8496 88.3697 75.2096 77.0098 89.1696 77.0098C103.13 77.0098 114.49 88.3697 114.49 102.33C114.49 116.29 103.13 127.65 89.1696 127.65ZM89.1696 79.0198C76.3096 79.0198 65.8496 89.4797 65.8496 102.34C65.8496 115.2 76.3096 125.66 89.1696 125.66C102.03 125.66 112.49 115.2 112.49 102.34C112.49 89.4797 102.03 79.0198 89.1696 79.0198Z" fill="#2F3F64"/>
</g>
<path id="Vector_19" d="M40.7305 107.09C40.1805 107.09 39.7305 106.64 39.7305 106.09V95.2305C39.7305 94.6805 40.1805 94.2305 40.7305 94.2305C41.2805 94.2305 41.7305 94.6805 41.7305 95.2305V106.09C41.7305 106.64 41.2805 107.09 40.7305 107.09Z" fill="#2F3F64"/>
<path id="Vector_20" d="M31.9502 113.63H21.7402C21.1902 113.63 20.7402 113.18 20.7402 112.63C20.7402 112.08 21.1902 111.63 21.7402 111.63H31.9502C32.5002 111.63 32.9502 112.08 32.9502 112.63C32.9502 113.18 32.5002 113.63 31.9502 113.63Z" fill="#2F3F64"/>
<path id="Vector_21" d="M49.5098 113.66C48.9598 113.66 48.5098 113.21 48.5098 112.66C48.5098 112.11 48.9598 111.66 49.5098 111.66L59.8297 111.63C60.3797 111.63 60.8297 112.08 60.8297 112.63C60.8297 113.18 60.3797 113.63 59.8297 113.63L49.5098 113.66Z" fill="#2F3F64"/>
<g id="Group_10">
<path id="Vector_22" d="M40.73 120.68C45.1593 120.68 48.75 117.089 48.75 112.66C48.75 108.23 45.1593 104.64 40.73 104.64C36.3006 104.64 32.71 108.23 32.71 112.66C32.71 117.089 36.3006 120.68 40.73 120.68Z" fill="#2F3F64"/>
<path id="Vector_23" d="M40.73 121.68C35.76 121.68 31.71 117.64 31.71 112.66C31.71 107.68 35.75 103.64 40.73 103.64C45.71 103.64 49.75 107.68 49.75 112.66C49.75 117.64 45.71 121.68 40.73 121.68ZM40.73 105.64C36.86 105.64 33.71 108.79 33.71 112.66C33.71 116.53 36.86 119.68 40.73 119.68C44.6 119.68 47.75 116.53 47.75 112.66C47.75 108.79 44.6 105.64 40.73 105.64Z" fill="#2F3F64"/>
</g>
<g id="Group_11">
<path id="Vector_24" d="M80.7799 115.47C80.0099 115.47 79.3799 114.85 79.3799 114.08V93.0696C79.3799 92.2996 79.9999 91.6797 80.7799 91.6797C81.5599 91.6797 82.1799 92.2996 82.1799 93.0696V114.08C82.1799 114.85 81.5599 115.47 80.7799 115.47Z" fill="#2F3F64"/>
<path id="Vector_25" d="M80.7696 116.23C80.3996 116.23 80.0496 116.08 79.7796 115.82L72.0896 108.13C71.5496 107.59 71.5496 106.7 72.0896 106.16C72.6296 105.62 73.5196 105.62 74.0596 106.16L80.7596 112.86L87.4696 106.15C88.0096 105.61 88.8996 105.61 89.4396 106.15C89.9796 106.69 89.9796 107.58 89.4396 108.12L81.7396 115.82C81.4796 116.08 81.1196 116.23 80.7496 116.23H80.7696Z" fill="#2F3F64"/>
<path id="Vector_26" d="M97.5592 112.939C96.7892 112.939 96.1592 112.319 96.1592 111.549V90.5394C96.1592 89.7694 96.7792 89.1494 97.5592 89.1494C98.3392 89.1494 98.9592 89.7694 98.9592 90.5394V111.549C98.9592 112.319 98.3392 112.939 97.5592 112.939Z" fill="#2F3F64"/>
<path id="Vector_27" d="M89.8598 98.8697C89.4998 98.8697 89.1498 98.7297 88.8698 98.4597C88.3298 97.9197 88.3298 97.0297 88.8698 96.4897L96.5699 88.7898C97.1099 88.2498 97.9999 88.2498 98.5399 88.7898L106.23 96.4797C106.77 97.0197 106.77 97.9097 106.23 98.4497C105.69 98.9897 104.8 98.9897 104.26 98.4497L97.5598 91.7497L90.8499 98.4597C90.5799 98.7297 90.2198 98.8697 89.8598 98.8697Z" fill="#2F3F64"/>
</g>
</g>
</svg>
