<svg viewBox="0 0 127 121" fill="none" xmlns="http://www.w3.org/2000/svg">
<g id="backup-restoration-2">
<g id="Group">
<path id="Vector" fill-rule="evenodd" clip-rule="evenodd" d="M30.4704 92.8899C30.2504 92.8899 30.0304 92.8899 29.8204 92.8899C14.4104 92.8899 1.90039 80.3799 1.90039 64.9698C1.90039 55.7799 6.3404 47.6399 13.1904 42.5399C12.9104 40.7499 12.7704 38.9099 12.7704 37.0499C12.7704 17.3599 28.7504 1.37988 48.4304 1.37988C59.5404 1.37988 69.4704 6.46983 76.0104 14.4498C80.3804 19.7798 83.2404 26.3999 83.9304 33.6399C96.1004 34.1099 105.83 44.1399 105.83 56.4299C105.83 57.4799 105.76 58.5199 105.62 59.5399C110.38 62.8199 113.52 68.3599 113.52 74.6499C113.52 84.7099 105.49 92.8799 95.6104 92.8799C95.3304 92.8799 95.0504 92.8799 94.7704 92.8599V92.8799H30.4804L30.4704 92.8899Z" fill="white"/>
<path id="Vector_2" d="M95.6004 93.8899C95.3704 93.8899 95.1304 93.8899 94.9004 93.8799C94.8504 93.8799 94.8104 93.8899 94.7604 93.8899H30.4704C30.4704 93.8899 30.4104 93.8899 30.3804 93.8899C30.1904 93.8899 30.0004 93.8899 29.8204 93.8899C13.8704 93.8899 0.900391 80.9198 0.900391 64.9698C0.900391 56.0698 5.08039 47.5699 12.1204 42.0999C11.8904 40.4399 11.7704 38.7399 11.7704 37.0499C11.7704 16.8299 28.2204 0.379883 48.4304 0.379883C59.4504 0.379883 69.7804 5.27994 76.7804 13.8099C77.1304 14.2399 77.0704 14.8698 76.6404 15.2198C76.2104 15.5698 75.5804 15.5098 75.2304 15.0798C68.6104 7.00983 58.8404 2.37988 48.4204 2.37988C29.3104 2.37988 13.7604 17.9299 13.7604 37.0499C13.7604 38.8399 13.9004 40.6399 14.1704 42.3899C14.2304 42.7599 14.0804 43.1199 13.7804 43.3499C6.8604 48.4899 2.89041 56.3798 2.89041 64.9698C2.89041 79.8098 14.9704 91.8899 29.8104 91.8899C30.0204 91.8899 30.2304 91.8899 30.4304 91.8899C30.4804 91.8899 30.5304 91.8899 30.5804 91.8899H94.5904C94.6504 91.8799 94.7204 91.8799 94.7804 91.8799C95.0504 91.8799 95.3204 91.8899 95.5904 91.8899C104.92 91.8899 112.5 84.1599 112.5 74.6599C112.5 68.9299 109.71 63.5899 105.04 60.3699C104.73 60.1599 104.57 59.7899 104.62 59.4099C104.75 58.4299 104.82 57.4199 104.82 56.4299C104.82 44.6699 95.6204 35.0999 83.8804 34.6399C83.3304 34.6199 82.9004 34.1499 82.9204 33.5999C82.9404 33.0499 83.4004 32.6299 83.9604 32.6399C96.7804 33.1399 106.82 43.5899 106.82 56.4299C106.82 57.3099 106.77 58.1998 106.67 59.0798C111.59 62.6998 114.5 68.4799 114.5 74.6599C114.5 85.2599 106.02 93.8899 95.5904 93.8899H95.6004Z" fill="#2F3F64"/>
<path id="Vector_3" d="M105.72 57.5599C105.17 57.5599 104.72 57.1099 104.72 56.5599C104.72 44.4899 94.9 34.6699 82.82 34.6699C76.48 34.6699 70.46 37.4198 66.29 42.2098C65.93 42.6298 65.3 42.6699 64.88 42.3099C64.46 41.9499 64.42 41.3199 64.78 40.8999C69.33 35.6699 75.9 32.6699 82.82 32.6699C96 32.6699 106.72 43.3899 106.72 56.5599C106.72 57.1099 106.27 57.5599 105.72 57.5599Z" fill="#2F3F64"/>
<g id="Group_2">
<path id="Vector_4" d="M17.6999 53.1493C14.2399 47.6093 12.4499 40.9592 12.9499 33.9492L17.6999 53.1493Z" fill="#BCC5DC"/>
<path id="Vector_5" d="M17.7001 54.1498C17.3701 54.1498 17.0401 53.9798 16.8501 53.6798C13.1401 47.7398 11.4501 40.8897 11.9501 33.8797C11.9901 33.3297 12.4601 32.8997 13.0201 32.9597C13.5701 32.9997 13.9901 33.4798 13.9501 34.0298C13.4701 40.6198 15.0601 47.0497 18.5501 52.6297C18.8401 53.0997 18.7001 53.7097 18.2301 54.0097C18.0601 54.1097 17.8801 54.1598 17.7001 54.1598V54.1498Z" fill="#2F3F64"/>
</g>
</g>
<g id="Group_3">
<path id="Vector_6" d="M101.1 119.65C114.532 119.65 125.42 108.761 125.42 95.3297C125.42 81.8981 114.532 71.0098 101.1 71.0098C87.6687 71.0098 76.7803 81.8981 76.7803 95.3297C76.7803 108.761 87.6687 119.65 101.1 119.65Z" fill="#FEC95C"/>
<path id="Vector_7" d="M101.1 120.65C87.1403 120.65 75.7803 109.29 75.7803 95.3297C75.7803 81.3697 87.1403 70.0098 101.1 70.0098C115.06 70.0098 126.42 81.3697 126.42 95.3297C126.42 109.29 115.06 120.65 101.1 120.65ZM101.1 72.0198C88.2403 72.0198 77.7803 82.4797 77.7803 95.3397C77.7803 108.2 88.2403 118.66 101.1 118.66C113.96 118.66 124.42 108.2 124.42 95.3397C124.42 82.4797 113.96 72.0198 101.1 72.0198Z" fill="#2F3F64"/>
</g>
<g id="Group_4">
<path id="Vector_8" d="M92.7096 108.47C91.9396 108.47 91.3096 107.85 91.3096 107.08V86.0696C91.3096 85.2996 91.9296 84.6797 92.7096 84.6797C93.4896 84.6797 94.1096 85.2996 94.1096 86.0696V107.08C94.1096 107.85 93.4896 108.47 92.7096 108.47Z" fill="#2F3F64"/>
<path id="Vector_9" d="M92.71 109.23C92.34 109.23 91.99 109.08 91.72 108.82L84.03 101.13C83.49 100.59 83.49 99.7001 84.03 99.1601C84.57 98.6201 85.46 98.6201 86 99.1601L92.7 105.86L99.41 99.1501C99.95 98.6101 100.84 98.6101 101.38 99.1501C101.92 99.6901 101.92 100.58 101.38 101.12L93.68 108.82C93.42 109.08 93.06 109.23 92.69 109.23H92.71Z" fill="#2F3F64"/>
<path id="Vector_10" d="M109.49 105.939C108.72 105.939 108.09 105.319 108.09 104.549V83.5394C108.09 82.7694 108.71 82.1494 109.49 82.1494C110.27 82.1494 110.89 82.7694 110.89 83.5394V104.549C110.89 105.319 110.27 105.939 109.49 105.939Z" fill="#2F3F64"/>
<path id="Vector_11" d="M101.8 91.8697C101.44 91.8697 101.09 91.7297 100.81 91.4597C100.27 90.9197 100.27 90.0297 100.81 89.4897L108.51 81.7898C109.05 81.2498 109.94 81.2498 110.48 81.7898L118.17 89.4797C118.71 90.0197 118.71 90.9097 118.17 91.4497C117.63 91.9897 116.74 91.9897 116.2 91.4497L109.5 84.7497L102.79 91.4597C102.52 91.7297 102.16 91.8697 101.8 91.8697Z" fill="#2F3F64"/>
</g>
</g>
</svg>
