<svg width="128" height="105" viewBox="0 0 128 105" fill="none" xmlns="http://www.w3.org/2000/svg">
<g id="bank">
<g id="Group">
<path id="Vector" d="M98.8204 48.5527H29.1904V92.4527H98.8204V48.5527Z" fill="#2F3F64"/>
<g id="Group_2">
<path id="Vector_2" d="M117.69 35.6924H9.70996C8.05311 35.6924 6.70996 37.0355 6.70996 38.6924V45.8724C6.70996 47.5293 8.05311 48.8724 9.70996 48.8724H117.69C119.347 48.8724 120.69 47.5293 120.69 45.8724V38.6924C120.69 37.0355 119.347 35.6924 117.69 35.6924Z" fill="#BCC5DC"/>
<path id="Vector_3" d="M117.69 49.8724H9.70996C7.49996 49.8724 5.70996 48.0824 5.70996 45.8724V38.6924C5.70996 36.4824 7.49996 34.6924 9.70996 34.6924H117.69C119.9 34.6924 121.69 36.4824 121.69 38.6924V45.8724C121.69 48.0824 119.9 49.8724 117.69 49.8724ZM9.70996 36.6924C8.60996 36.6924 7.70996 37.5924 7.70996 38.6924V45.8724C7.70996 46.9724 8.60996 47.8724 9.70996 47.8724H117.69C118.79 47.8724 119.69 46.9724 119.69 45.8724V38.6924C119.69 37.5924 118.79 36.6924 117.69 36.6924H9.70996Z" fill="#2F3F64"/>
</g>
<g id="Group_3">
<path id="Vector_4" d="M9.70996 92.2129H117.69C119.35 92.2129 120.69 93.5529 120.69 95.2129V103.113H6.70996V95.2129C6.70996 93.5529 8.04996 92.2129 9.70996 92.2129Z" fill="#BCC5DC"/>
<path id="Vector_5" d="M120.69 104.113H6.70996C6.15996 104.113 5.70996 103.663 5.70996 103.113V95.2129C5.70996 93.0029 7.49996 91.2129 9.70996 91.2129H117.69C119.9 91.2129 121.69 93.0029 121.69 95.2129V103.113C121.69 103.663 121.24 104.113 120.69 104.113ZM7.70996 102.113H119.69V95.2129C119.69 94.1129 118.79 93.2129 117.69 93.2129H9.70996C8.60996 93.2129 7.70996 94.1129 7.70996 95.2129V102.113Z" fill="#2F3F64"/>
</g>
<path id="Vector_6" fill-rule="evenodd" clip-rule="evenodd" d="M110.15 35.6928H17.2598V20.1328C17.2598 18.8428 17.9098 17.7028 18.8598 17.3428L59.7098 1.74281C62.2798 0.762812 65.1298 0.762812 67.6998 1.74281L84.7598 8.25279L108.55 17.3428C109.5 17.7028 110.15 18.8428 110.15 20.1328V35.6928Z" fill="#BCC5DC"/>
<path id="Vector_7" d="M110.15 36.6925H17.2598C16.7098 36.6925 16.2598 36.2425 16.2598 35.6925V20.1325C16.2598 18.4125 17.1598 16.9225 18.4998 16.4025L59.3498 0.8025C62.1598 -0.2675 65.2498 -0.2675 68.0498 0.8025L85.1098 7.31251C85.6298 7.51251 85.8798 8.09249 85.6898 8.60249C85.4898 9.12249 84.9098 9.3725 84.3998 9.1825L67.3398 2.6725C64.9998 1.7725 62.4098 1.7725 60.0698 2.6725L19.2198 18.2725C18.6698 18.4825 18.2598 19.2625 18.2598 20.1325V34.6925H109.15V20.1325C109.15 19.5825 109.6 19.1325 110.15 19.1325C110.7 19.1325 111.15 19.5825 111.15 20.1325V35.6925C111.15 36.2425 110.7 36.6925 110.15 36.6925Z" fill="#2F3F64"/>
<g id="Group_4">
<path id="Vector_8" d="M63.6997 26.4325C68.1511 26.4325 71.7596 22.8239 71.7596 18.3725C71.7596 13.9211 68.1511 10.3125 63.6997 10.3125C59.2482 10.3125 55.6396 13.9211 55.6396 18.3725C55.6396 22.8239 59.2482 26.4325 63.6997 26.4325Z" fill="#FEC95C"/>
<path id="Vector_9" d="M63.6997 27.4325C58.6997 27.4325 54.6396 23.3725 54.6396 18.3725C54.6396 13.3725 58.6997 9.3125 63.6997 9.3125C68.6997 9.3125 72.7596 13.3725 72.7596 18.3725C72.7596 23.3725 68.6997 27.4325 63.6997 27.4325ZM63.6997 11.3125C59.8097 11.3125 56.6396 14.4825 56.6396 18.3725C56.6396 22.2625 59.8097 25.4325 63.6997 25.4325C67.5897 25.4325 70.7596 22.2625 70.7596 18.3725C70.7596 14.4825 67.5897 11.3125 63.6997 11.3125Z" fill="#2F3F64"/>
</g>
<g id="Group_5">
<g id="Group_6">
<path id="Vector_10" d="M19.1904 55.3914L19.1904 85.6914H30.7004V55.3914H19.1904Z" fill="white"/>
<path id="Vector_11" d="M30.7004 86.6916H19.1904C18.6404 86.6916 18.1904 86.2416 18.1904 85.6916V55.3916C18.1904 54.8416 18.6404 54.3916 19.1904 54.3916H30.7004C31.2504 54.3916 31.7004 54.8416 31.7004 55.3916V85.6916C31.7004 86.2416 31.2504 86.6916 30.7004 86.6916ZM20.1904 84.6916H29.7004V56.3916H20.1904V84.6916Z" fill="#2F3F64"/>
</g>
<g id="Group_7">
<path id="Vector_12" fill-rule="evenodd" clip-rule="evenodd" d="M31.9897 55.3921H17.8997L14.9297 48.8721H34.9697L31.9897 55.3921Z" fill="white"/>
<path id="Vector_13" d="M31.99 56.3921H17.9C17.51 56.3921 17.15 56.1621 16.99 55.8121L14.01 49.2921C13.87 48.9821 13.89 48.6221 14.08 48.3321C14.27 48.0421 14.58 47.8721 14.92 47.8721H34.96C35.3 47.8721 35.62 48.0421 35.8 48.3321C35.98 48.6221 36.01 48.9821 35.87 49.2921L32.89 55.8121C32.73 56.1721 32.37 56.3921 31.98 56.3921H31.99ZM18.55 54.3921H31.35L33.41 49.8721H16.48L18.54 54.3921H18.55Z" fill="#2F3F64"/>
</g>
<g id="Group_8">
<path id="Vector_14" d="M57.9404 55.3914V85.6914H69.4504V55.3914H57.9404Z" fill="white"/>
<path id="Vector_15" d="M69.4602 86.6916H57.9502C57.4002 86.6916 56.9502 86.2416 56.9502 85.6916V55.3916C56.9502 54.8416 57.4002 54.3916 57.9502 54.3916H69.4602C70.0102 54.3916 70.4602 54.8416 70.4602 55.3916V85.6916C70.4602 86.2416 70.0102 86.6916 69.4602 86.6916ZM58.9402 84.6916H68.4502V56.3916H58.9402V84.6916Z" fill="#2F3F64"/>
</g>
<g id="Group_9">
<path id="Vector_16" fill-rule="evenodd" clip-rule="evenodd" d="M70.7397 55.3921H56.6597L53.6797 48.8721H73.7197L70.7397 55.3921Z" fill="white"/>
<path id="Vector_17" d="M70.74 56.3921H56.65C56.26 56.3921 55.9 56.1621 55.74 55.8121L52.76 49.2921C52.62 48.9821 52.64 48.6221 52.83 48.3321C53.02 48.0421 53.33 47.8721 53.67 47.8721H73.71C74.05 47.8721 74.37 48.0421 74.55 48.3321C74.73 48.6221 74.76 48.9821 74.62 49.2921L71.64 55.8121C71.48 56.1721 71.12 56.3921 70.73 56.3921H70.74ZM57.3 54.3921H70.1L72.16 49.8721H55.23L57.29 54.3921H57.3Z" fill="#2F3F64"/>
</g>
<g id="Group_10">
<path id="Vector_18" d="M96.6904 55.3914V85.6914H108.2V55.3914H96.6904Z" fill="white"/>
<path id="Vector_19" d="M108.21 86.6916H96.7002C96.1502 86.6916 95.7002 86.2416 95.7002 85.6916V55.3916C95.7002 54.8416 96.1502 54.3916 96.7002 54.3916H108.21C108.76 54.3916 109.21 54.8416 109.21 55.3916V85.6916C109.21 86.2416 108.76 86.6916 108.21 86.6916ZM97.7002 84.6916H107.21V56.3916H97.7002V84.6916Z" fill="#2F3F64"/>
</g>
<g id="Group_11">
<path id="Vector_20" fill-rule="evenodd" clip-rule="evenodd" d="M109.5 55.3921H95.4097L92.4297 48.8721H112.47L109.5 55.3921Z" fill="white"/>
<path id="Vector_21" d="M109.5 56.3921H95.4098C95.0198 56.3921 94.6598 56.1621 94.4998 55.8121L91.5198 49.2921C91.3798 48.9821 91.3998 48.6221 91.5898 48.3321C91.7798 48.0421 92.0898 47.8721 92.4298 47.8721H112.47C112.81 47.8721 113.13 48.0421 113.31 48.3321C113.49 48.6221 113.52 48.9821 113.38 49.2921L110.4 55.8121C110.24 56.1721 109.88 56.3921 109.49 56.3921H109.5ZM96.0498 54.3921H108.85L110.91 49.8721H93.9798L96.0398 54.3921H96.0498Z" fill="#2F3F64"/>
</g>
<g id="Group_12">
<path id="Vector_22" fill-rule="evenodd" clip-rule="evenodd" d="M95.4097 85.6924H109.5L112.47 92.2124H92.4297L95.4097 85.6924Z" fill="white"/>
<path id="Vector_23" d="M112.47 93.2124H92.4296C92.0896 93.2124 91.7696 93.0424 91.5896 92.7524C91.4096 92.4624 91.3796 92.1024 91.5196 91.7924L94.4996 85.2724C94.6596 84.9124 95.0196 84.6924 95.4096 84.6924H109.5C109.89 84.6924 110.25 84.9224 110.41 85.2724L113.39 91.7924C113.53 92.1024 113.51 92.4624 113.32 92.7524C113.13 93.0424 112.82 93.2124 112.48 93.2124H112.47ZM93.9896 91.2124H110.92L108.86 86.6924H96.0596L93.9996 91.2124H93.9896Z" fill="#2F3F64"/>
</g>
<g id="Group_13">
<path id="Vector_24" fill-rule="evenodd" clip-rule="evenodd" d="M56.6597 85.6924H70.7397L73.7197 92.2124H53.6797L56.6597 85.6924Z" fill="white"/>
<path id="Vector_25" d="M73.7196 93.2124H53.6796C53.3396 93.2124 53.0196 93.0424 52.8396 92.7524C52.6596 92.4624 52.6296 92.1024 52.7696 91.7924L55.7496 85.2724C55.9096 84.9124 56.2696 84.6924 56.6596 84.6924H70.7496C71.1396 84.6924 71.4996 84.9224 71.6596 85.2724L74.6396 91.7924C74.7796 92.1024 74.7595 92.4624 74.5695 92.7524C74.3795 93.0424 74.0695 93.2124 73.7295 93.2124H73.7196ZM55.2396 91.2124H72.1696L70.1096 86.6924H57.3096L55.2496 91.2124H55.2396Z" fill="#2F3F64"/>
</g>
<g id="Group_14">
<path id="Vector_26" fill-rule="evenodd" clip-rule="evenodd" d="M17.8997 85.6924H31.9897L34.9697 92.2124H14.9297L17.8997 85.6924Z" fill="white"/>
<path id="Vector_27" d="M34.9696 93.2124H14.9296C14.5896 93.2124 14.2696 93.0424 14.0896 92.7524C13.9096 92.4624 13.8796 92.1024 14.0196 91.7924L16.9996 85.2724C17.1596 84.9124 17.5196 84.6924 17.9096 84.6924H31.9996C32.3896 84.6924 32.7496 84.9224 32.9096 85.2724L35.8896 91.7924C36.0296 92.1024 36.0096 92.4624 35.8196 92.7524C35.6296 93.0424 35.3196 93.2124 34.9796 93.2124H34.9696ZM16.4796 91.2124H33.4096L31.3496 86.6924H18.5496L16.4896 91.2124H16.4796Z" fill="#2F3F64"/>
</g>
</g>
</g>
<path id="Vector_28" d="M126.41 104.112H1C0.45 104.112 0 103.662 0 103.112C0 102.562 0.45 102.112 1 102.112H126.41C126.96 102.112 127.41 102.562 127.41 103.112C127.41 103.662 126.96 104.112 126.41 104.112Z" fill="#2F3F64"/>
</g>
</svg>
