<svg viewBox="0 0 131 117" fill="none" xmlns="http://www.w3.org/2000/svg">
<g id="bi-reporting-3">
<g id="Group">
<g id="Group_2">
<path id="Vector" fill-rule="evenodd" clip-rule="evenodd" d="M83.5105 21.6494C87.6105 21.6494 90.9305 24.9693 90.9305 29.0693V108.349C90.9305 112.449 87.6105 115.769 83.5105 115.769H49.9005C45.8005 115.769 42.4805 112.449 42.4805 108.349V29.0693C42.4805 24.9693 45.8005 21.6494 49.9005 21.6494H66.7505" fill="white"/>
<path id="Vector_2" d="M83.5105 116.76H49.9005C45.2605 116.76 41.4805 112.98 41.4805 108.34V29.0597C41.4805 24.4197 45.2605 20.6396 49.9005 20.6396H66.7505C67.3005 20.6396 67.7505 21.0896 67.7505 21.6396C67.7505 22.1896 67.3005 22.6396 66.7505 22.6396H49.9005C46.3605 22.6396 43.4805 25.5197 43.4805 29.0597V108.34C43.4805 111.88 46.3605 114.76 49.9005 114.76H83.5105C87.0505 114.76 89.9305 111.88 89.9305 108.34V29.0597C89.9305 25.5197 87.0505 22.6396 83.5105 22.6396C82.9605 22.6396 82.5105 22.1896 82.5105 21.6396C82.5105 21.0896 82.9605 20.6396 83.5105 20.6396C88.1505 20.6396 91.9305 24.4197 91.9305 29.0597V108.34C91.9305 112.98 88.1505 116.76 83.5105 116.76Z" fill="#2F3F64"/>
</g>
<path id="Vector_3" d="M74.5406 112.66H58.9307C58.3807 112.66 57.9307 112.21 57.9307 111.66C57.9307 111.11 58.3807 110.66 58.9307 110.66H74.5406C75.0906 110.66 75.5406 111.11 75.5406 111.66C75.5406 112.21 75.0906 112.66 74.5406 112.66Z" fill="#2F3F64"/>
<path id="Vector_4" d="M76.1404 25.6094H57.3504C56.0194 25.6094 54.9404 26.6884 54.9404 28.0194C54.9404 29.3504 56.0194 30.4294 57.3504 30.4294H76.1404C77.4714 30.4294 78.5504 29.3504 78.5504 28.0194C78.5504 26.6884 77.4714 25.6094 76.1404 25.6094Z" fill="#2F3F64"/>
</g>
<g id="Group_3">
<path id="Vector_5" d="M99.9998 59.8395C116.243 59.8395 129.41 46.6723 129.41 30.4296C129.41 14.1869 116.243 1.01953 99.9998 1.01953C83.7571 1.01953 70.5898 14.1869 70.5898 30.4296C70.5898 46.6723 83.7571 59.8395 99.9998 59.8395Z" fill="#FEC95C"/>
<path id="Vector_6" d="M99.9998 60.8395C83.2298 60.8395 69.5898 47.1996 69.5898 30.4296C69.5898 13.6596 83.2298 0.0195312 99.9998 0.0195312C116.77 0.0195312 130.41 13.6596 130.41 30.4296C130.41 47.1996 116.77 60.8395 99.9998 60.8395ZM99.9998 2.00952C84.3298 2.00952 71.5898 14.7596 71.5898 30.4196C71.5898 46.0796 84.3398 58.8295 99.9998 58.8295C115.66 58.8295 128.41 46.0796 128.41 30.4196C128.41 14.7596 115.66 2.00952 99.9998 2.00952Z" fill="#2F3F64"/>
</g>
<g id="Group_4">
<path id="Vector_7" fill-rule="evenodd" clip-rule="evenodd" d="M79.67 69.9398H78.96C78.48 69.9398 78.06 69.5999 77.94 69.1199C77.67 67.9999 77.23 66.9499 76.66 65.9899C76.41 65.5699 76.47 65.0299 76.81 64.6799L77.31 64.1699C77.72 63.7599 77.72 63.0799 77.31 62.6599L76.03 61.3599C75.62 60.9399 74.95 60.9399 74.54 61.3599L74.04 61.8699C73.7 62.2199 73.16 62.2699 72.75 62.0199C71.8 61.4299 70.75 60.9798 69.64 60.6998C69.17 60.5798 68.83 60.1499 68.83 59.6599V58.9398C68.83 58.3498 68.35 57.8599 67.77 57.8599L65.94 57.8398C65.35 57.8398 64.87 58.3099 64.87 58.9099V59.6399C64.87 60.1399 64.53 60.5599 64.05 60.6799C62.93 60.9499 61.87 61.3898 60.91 61.9698C60.49 62.2198 59.94 62.1599 59.59 61.8099L59.08 61.2899C58.66 60.8699 57.98 60.8599 57.56 61.2799L56.25 62.5798C55.83 62.9998 55.83 63.6799 56.25 64.1099L56.76 64.6299C57.11 64.9799 57.17 65.5298 56.92 65.9598C56.34 66.9298 55.89 67.9999 55.61 69.1299C55.49 69.6099 55.06 69.9498 54.56 69.9498H53.83C53.23 69.9498 52.75 70.4299 52.75 71.0299V72.8899C52.75 73.4899 53.23 73.9698 53.83 73.9698H54.56C55.06 73.9698 55.49 74.3099 55.61 74.7899C55.89 75.9199 56.34 76.9898 56.92 77.9598C57.18 78.3898 57.12 78.9299 56.76 79.2899L56.24 79.8099C55.82 80.2299 55.82 80.9198 56.24 81.3398L57.55 82.6399C57.97 83.0599 58.65 83.0499 59.07 82.6299L59.58 82.1099C59.93 81.7599 60.47 81.6898 60.9 81.9498C61.87 82.5298 62.92 82.9699 64.04 83.2399C64.52 83.3599 64.86 83.7799 64.86 84.2799V85.0099C64.86 85.5999 65.34 86.0798 65.93 86.0798L67.76 86.0599C68.35 86.0599 68.82 85.5699 68.82 84.9799V84.2599C68.82 83.7699 69.16 83.3398 69.63 83.2198C70.74 82.9298 71.78 82.4799 72.74 81.8999C73.16 81.6399 73.69 81.6999 74.03 82.0499L74.53 82.5599C74.94 82.9699 75.61 82.9699 76.02 82.5599L77.3 81.2599C77.71 80.8399 77.71 80.1699 77.3 79.7499L76.8 79.2399C76.46 78.8899 76.4 78.3599 76.65 77.9299C77.22 76.9699 77.65 75.9099 77.93 74.7999C78.05 74.3199 78.46 73.9899 78.95 73.9799H79.66C80.24 73.9799 80.71 73.4999 80.71 72.9099V71.0798C80.71 70.4898 80.24 70.0199 79.66 70.0099L79.67 69.9398ZM66.86 78.6399C63.17 78.6599 60.16 75.6499 60.16 71.9099C60.16 68.1699 63.17 65.1699 66.86 65.1799C70.53 65.1999 73.5 68.2099 73.5 71.9099C73.5 75.6099 70.54 78.6199 66.86 78.6399Z" fill="#FEC95C"/>
<path id="Vector_8" d="M65.9402 87.0197C65.4002 87.0197 64.8902 86.8097 64.5002 86.4297C64.1102 86.0397 63.8903 85.5196 63.8903 84.9596V84.2296C62.6403 83.8696 61.4902 83.3996 60.4202 82.7596L59.8102 83.2897C59.4202 83.6897 58.9003 83.9097 58.3403 83.9097C57.7903 83.9097 57.2702 83.6997 56.8802 83.3097L55.5703 82.0096C54.7603 81.1996 54.7603 79.8796 55.5703 79.0696L56.0803 78.5497C56.0803 78.5497 56.1103 78.4696 56.0803 78.4396C55.4403 77.3696 54.9602 76.2096 54.6602 74.9996L53.8602 74.9396C53.3102 74.9396 52.7803 74.7196 52.3903 74.3296C52.0003 73.9396 51.7803 73.4096 51.7803 72.8596V70.9996C51.7803 70.4396 52.0003 69.9197 52.3903 69.5297C52.7803 69.1397 53.3002 68.9197 53.8602 68.9197H54.5903L55.6403 69.0996L54.6702 68.8596C54.9702 67.6496 55.4502 66.4897 56.1002 65.4197C56.1202 65.3897 56.1202 65.3397 56.1002 65.3097L55.5803 64.7897C55.1903 64.3997 54.9702 63.8696 54.9702 63.3196C54.9702 62.7696 55.1903 62.2396 55.5803 61.8496L56.8903 60.5497C57.2803 60.1597 57.8202 59.9696 58.3602 59.9496C58.9202 59.9496 59.4403 60.1696 59.8303 60.5696L60.3403 61.0896C61.5003 60.4596 62.6502 59.9896 63.8502 59.6996L63.9003 58.9097C63.9003 58.3497 64.1203 57.8296 64.5103 57.4396C64.9003 57.0496 65.4402 56.8596 65.9702 56.8496L67.8002 56.8696C68.9302 56.8696 69.8502 57.8096 69.8502 58.9496V59.6697C71.1002 60.0597 72.2402 60.5396 73.2902 61.1896L73.8602 60.6797C74.2502 60.2897 74.7602 60.0796 75.3102 60.0796C75.8602 60.0796 76.3803 60.2996 76.7703 60.6996L78.0502 61.9996C78.8402 62.8096 78.8402 64.1097 78.0502 64.9097L77.5502 65.4197C78.1802 66.5797 78.6402 67.7197 78.9402 68.9197L79.6902 68.9696C80.8202 68.9696 81.7302 69.8997 81.7302 71.0397V72.8696C81.7302 74.0096 80.8102 74.9296 79.6902 74.9396H78.9802C78.6402 76.1896 78.1702 77.3397 77.5502 78.3997L78.0502 78.9996C78.8402 79.7996 78.8402 81.0997 78.0502 81.9097L76.7703 83.2096C76.3803 83.6096 75.8602 83.8296 75.3102 83.8296C74.7602 83.8296 74.2502 83.6196 73.8602 83.2296L73.3602 82.7196C72.2502 83.3696 71.1102 83.8497 69.9202 84.1597L69.8602 84.9596C69.8602 86.0996 68.9402 87.0297 67.8102 87.0397L65.9802 87.0597H65.9603L65.9402 87.0197ZM60.3802 80.7496C60.7502 80.7496 61.1203 80.8497 61.4503 81.0497C62.3403 81.5897 63.3102 81.9796 64.3102 82.2196C65.2402 82.4496 65.8903 83.2696 65.8903 84.2296V84.9596L67.7703 85.0096C67.7703 85.0096 67.8403 84.9797 67.8403 84.9297V84.2096C67.8403 83.2596 68.4803 82.4396 69.4003 82.1996C70.4003 81.9396 71.3502 81.5396 72.2302 80.9896C73.0502 80.4896 74.0903 80.6097 74.7603 81.2797L75.2603 81.7897L76.6002 80.4796C76.6002 80.4796 76.6302 80.3996 76.6002 80.3796L76.1002 79.8696C75.4402 79.1996 75.3202 78.1696 75.8002 77.3496C76.3302 76.4596 76.7202 75.4896 76.9702 74.4896C77.2002 73.5596 78.0103 72.9097 78.9503 72.9097H79.6602L79.7103 71.0197L79.6602 69.9496V70.9496H78.9503C78.0103 70.9496 77.1903 70.2996 76.9603 69.3696C76.7103 68.3596 76.3202 67.3996 75.7902 66.5096C75.3102 65.6896 75.4303 64.6596 76.0903 63.9896L76.5903 63.4796C76.5903 63.4796 76.6203 63.4096 76.5903 63.3796L75.3102 62.0796L74.7402 62.5796C74.0702 63.2496 73.0303 63.3796 72.2103 62.8696C71.3303 62.3296 70.3802 61.9197 69.3802 61.6597C68.4602 61.4197 67.8203 60.5997 67.8203 59.6497V58.9297C67.8203 58.9297 67.7802 58.8496 67.7502 58.8496L65.9202 58.8296L65.8602 59.6196C65.8602 60.5796 65.2103 61.3996 64.2803 61.6296C63.2703 61.8796 62.3102 62.2697 61.4202 62.8097C60.6002 63.2997 59.5502 63.1696 58.8802 62.4896L58.3702 61.9696L57.5602 61.2596L58.2703 61.9696L56.9603 63.2697C56.9603 63.2697 56.9403 63.3596 56.9603 63.3796L57.4802 63.8997C58.1502 64.5797 58.2803 65.6196 57.7803 66.4396C57.2403 67.3396 56.8303 68.3196 56.5803 69.3296C56.3503 70.2596 55.5202 70.9097 54.5602 70.9097H53.8303L53.7502 70.9896V72.8496L53.8303 72.9297H54.5602C55.5102 72.9297 56.3403 73.5796 56.5703 74.5096C56.8203 75.5296 57.2303 76.5097 57.7703 77.4097C58.2603 78.2297 58.1402 79.2796 57.4702 79.9596L56.9603 80.4796C56.9603 80.4796 56.9303 80.5596 56.9603 80.5996L58.2703 81.8997H58.3702L58.8802 81.3796C59.2802 80.9696 59.8102 80.7596 60.3502 80.7596L60.3802 80.7496ZM66.8303 79.6396C64.8003 79.6396 62.8902 78.8497 61.4402 77.4097C59.9702 75.9497 59.1602 73.9897 59.1602 71.9097C59.1602 69.8297 59.9702 67.8697 61.4402 66.4097C62.8902 64.9597 64.8302 64.1897 66.8702 64.1797C71.0802 64.1997 74.5002 67.6697 74.5002 71.9097C74.5002 76.1497 71.0802 79.6196 66.8702 79.6396H66.8303ZM66.8303 66.1896C65.3303 66.1896 63.9202 66.7696 62.8502 67.8396C61.7602 68.9196 61.1602 70.3697 61.1602 71.9197C61.1602 73.4697 61.7602 74.9196 62.8502 75.9996C63.9202 77.0596 65.3303 77.6497 66.8303 77.6497H66.8602C69.9702 77.6397 72.5002 75.0697 72.5002 71.9197C72.5002 68.7697 69.9702 66.2096 66.8602 66.1896H66.8303Z" fill="#2F3F64"/>
</g>
<g id="Group_5">
<path id="Vector_9" fill-rule="evenodd" clip-rule="evenodd" d="M123.07 30.4297H111.4C111.16 30.4297 110.94 30.5497 110.8 30.7397L107.35 35.7797C106.99 36.2997 106.18 36.1397 106.05 35.5197L102.62 19.4997C102.46 18.7397 101.38 18.7397 101.21 19.4997L97.0602 38.0696C96.9102 38.7396 95.9903 38.8397 95.7003 38.2197L91.2402 28.7297C91.0602 28.3497 90.5902 28.1997 90.2302 28.4097L85.0203 31.4197C84.9103 31.4797 84.7902 31.5197 84.6602 31.5197H76.2402" fill="#FEC95C"/>
<path id="Vector_10" d="M96.36 39.6301C95.69 39.6301 95.1 39.2601 94.81 38.6401L90.48 29.4202L85.53 32.2802C85.27 32.4302 84.97 32.5101 84.67 32.5101H76.25C75.7 32.5101 75.25 32.0601 75.25 31.5101C75.25 30.9601 75.7 30.5101 76.25 30.5101H84.6L89.75 27.5302C90.17 27.2902 90.67 27.2301 91.13 27.3801C91.59 27.5201 91.97 27.8602 92.17 28.2902L96.28 37.0402L100.25 19.2601C100.43 18.4701 101.12 17.9102 101.93 17.9102C102.75 17.9102 103.44 18.4701 103.61 19.2701L106.9 34.6501L109.98 30.1501C110.3 29.6801 110.83 29.4001 111.4 29.4001H123.07C123.62 29.4001 124.07 29.8501 124.07 30.4001C124.07 30.9501 123.62 31.4001 123.07 31.4001H111.55L108.19 36.3201C107.8 36.8901 107.11 37.1702 106.44 37.0402C105.76 36.9102 105.23 36.3901 105.09 35.7101L101.93 20.9401L98.06 38.2701C97.9 39.0001 97.31 39.5201 96.57 39.6101C96.5 39.6101 96.44 39.6201 96.37 39.6201L96.36 39.6301Z" fill="#2F3F64"/>
</g>
<g id="Group_6">
<path id="Vector_11" d="M30.9695 98.7399C47.0962 98.7399 60.1695 85.6666 60.1695 69.5399C60.1695 53.4132 47.0962 40.3398 30.9695 40.3398C14.8428 40.3398 1.76953 53.4132 1.76953 69.5399C1.76953 85.6666 14.8428 98.7399 30.9695 98.7399Z" fill="#BCC5DC"/>
<path id="Vector_12" d="M30.9695 99.7301C14.3195 99.7301 0.769531 86.1802 0.769531 69.5302C0.769531 52.8802 14.3195 39.3301 30.9695 39.3301C47.6195 39.3301 61.1695 52.8802 61.1695 69.5302C61.1695 86.1802 47.6195 99.7301 30.9695 99.7301ZM30.9695 41.3401C15.4195 41.3401 2.76953 53.9902 2.76953 69.5402C2.76953 85.0902 15.4195 97.7401 30.9695 97.7401C46.5195 97.7401 59.1695 85.0902 59.1695 69.5402C59.1695 53.9902 46.5195 41.3401 30.9695 41.3401Z" fill="#2F3F64"/>
</g>
<g id="Group_7">
<g id="Group_8">
<path id="Vector_13" fill-rule="evenodd" clip-rule="evenodd" d="M28.3299 55.9707C19.3799 55.9707 12.1299 63.2208 12.1299 72.1708C12.1299 81.1208 19.3799 88.3707 28.3299 88.3707C37.2799 88.3707 44.5299 81.1208 44.5299 72.1708H28.3299V55.9707Z" fill="#BCC5DC"/>
<path id="Vector_14" d="M28.3299 89.3707C18.8499 89.3707 11.1299 81.6608 11.1299 72.1708C11.1299 62.6808 18.8499 54.9707 28.3299 54.9707C28.8799 54.9707 29.3299 55.4207 29.3299 55.9707V71.1708H44.5299C45.0799 71.1708 45.5299 71.6208 45.5299 72.1708C45.5299 81.6508 37.8099 89.3707 28.3299 89.3707ZM27.3299 57.0107C19.4099 57.5307 13.1299 64.1308 13.1299 72.1808C13.1299 80.2308 19.9499 87.3807 28.3299 87.3807C36.7099 87.3807 42.9799 81.1008 43.4999 73.1808H28.3299C27.7799 73.1808 27.3299 72.7308 27.3299 72.1808V57.0107Z" fill="#2F3F64"/>
</g>
<g id="Group_9">
<path id="Vector_15" fill-rule="evenodd" clip-rule="evenodd" d="M33.5996 50.7002V66.9003H49.7996C49.7996 57.9503 42.5496 50.7002 33.5996 50.7002Z" fill="#2F3F64"/>
<path id="Vector_16" d="M49.7996 67.9003H33.5996C33.0496 67.9003 32.5996 67.4503 32.5996 66.9003V50.7002C32.5996 50.1502 33.0496 49.7002 33.5996 49.7002C43.0796 49.7002 50.7996 57.4103 50.7996 66.9003C50.7996 67.4503 50.3496 67.9003 49.7996 67.9003ZM34.5996 65.9003H48.7697C48.2697 58.3203 42.1896 52.2302 34.5996 51.7302V65.9003Z" fill="#2F3F64"/>
</g>
</g>
</g>
</svg>
