<svg viewBox="0 0 129 128" fill="none" xmlns="http://www.w3.org/2000/svg">
<g id="bi-reporting-2">
<g id="Group">
<path id="Vector" d="M116.88 88.4398C119.71 88.4398 122 86.1498 122 83.3198V6.37988H6.88965V83.3198C6.88965 86.1498 9.17964 88.4398 12.0096 88.4398H84.3696" fill="white"/>
<path id="Vector_2" d="M116.88 89.4398C116.33 89.4398 115.88 88.9898 115.88 88.4398C115.88 87.8898 116.33 87.4398 116.88 87.4398C119.15 87.4398 121 85.5898 121 83.3198V7.37988H7.88965V83.3198C7.88965 85.5898 9.73964 87.4398 12.0096 87.4398H84.3696C84.9196 87.4398 85.3696 87.8898 85.3696 88.4398C85.3696 88.9898 84.9196 89.4398 84.3696 89.4398H12.0096C8.63964 89.4398 5.88965 86.6998 5.88965 83.3198V6.37988C5.88965 5.82988 6.33965 5.37988 6.88965 5.37988H122C122.27 5.37988 122.52 5.48992 122.71 5.66992C122.9 5.84992 123 6.10988 123 6.37988V83.3198C123 86.6898 120.25 89.4398 116.88 89.4398Z" fill="#2F3F64"/>
</g>
<g id="Group_2">
<path id="Vector_3" d="M127.15 1.2998H1.74023V9.15979H127.15V1.2998Z" fill="#2F3F64"/>
<path id="Vector_4" d="M127.15 10.1598H1.74023C1.19023 10.1598 0.740234 9.70979 0.740234 9.15979V1.2998C0.740234 0.749805 1.19023 0.299805 1.74023 0.299805H127.15C127.7 0.299805 128.15 0.749805 128.15 1.2998V9.15979C128.15 9.70979 127.7 10.1598 127.15 10.1598ZM2.74023 8.15979H126.15V2.2998H2.74023V8.15979Z" fill="#2F3F64"/>
</g>
<g id="Group_3">
<path id="Vector_5" d="M31.5903 99.88C37.8366 99.88 42.9003 94.7581 42.9003 88.4399C42.9003 82.1218 37.8366 77 31.5903 77C25.3439 77 20.2803 82.1218 20.2803 88.4399C20.2803 94.7581 25.3439 99.88 31.5903 99.88Z" fill="#BCC5DC"/>
<path id="Vector_6" d="M31.5903 100.88C24.8003 100.88 19.2803 95.2999 19.2803 88.4399C19.2803 81.5799 24.8003 76 31.5903 76C38.3803 76 43.9003 81.5799 43.9003 88.4399C43.9003 95.2999 38.3803 100.88 31.5903 100.88ZM31.5903 78C25.9003 78 21.2803 82.6799 21.2803 88.4399C21.2803 94.1999 25.9103 98.88 31.5903 98.88C37.2703 98.88 41.9003 94.1999 41.9003 88.4399C41.9003 82.6799 37.2703 78 31.5903 78Z" fill="#2F3F64"/>
</g>
<g id="Group_4">
<g id="Group_5">
<path id="Vector_7" fill-rule="evenodd" clip-rule="evenodd" d="M32.7396 35.9297C24.1296 35.9297 17.1396 42.9097 17.1396 51.5297C17.1396 60.1497 24.1196 67.1296 32.7396 67.1296C41.3596 67.1296 48.3396 60.1497 48.3396 51.5297H32.7396V35.9297Z" fill="#FEC95C"/>
<path id="Vector_8" d="M32.7396 68.1199C23.5896 68.1199 16.1396 60.6799 16.1396 51.5199C16.1396 42.3599 23.5796 34.9199 32.7396 34.9199C33.2896 34.9199 33.7396 35.3699 33.7396 35.9199V50.5199H48.3396C48.8896 50.5199 49.3396 50.9699 49.3396 51.5199C49.3396 60.6699 41.8996 68.1199 32.7396 68.1199ZM31.7396 36.9598C24.1596 37.4798 18.1396 43.8099 18.1396 51.5199C18.1396 59.2299 24.6896 66.1199 32.7396 66.1199C40.7896 66.1199 46.7896 60.1099 47.2996 52.5199H32.7396C32.1896 52.5199 31.7396 52.0699 31.7396 51.5199V36.9598Z" fill="#2F3F64"/>
</g>
<g id="Group_6">
<path id="Vector_9" fill-rule="evenodd" clip-rule="evenodd" d="M37.8096 30.8496V46.4496H53.4096C53.4096 37.8396 46.4296 30.8496 37.8096 30.8496Z" fill="#2F3F64"/>
<path id="Vector_10" d="M53.4096 47.4496H37.8096C37.2596 47.4496 36.8096 46.9996 36.8096 46.4496V30.8496C36.8096 30.2996 37.2596 29.8496 37.8096 29.8496C46.9596 29.8496 54.4096 37.2996 54.4096 46.4496C54.4096 46.9996 53.9596 47.4496 53.4096 47.4496ZM38.8096 45.4496H52.3696C51.8796 38.1996 46.0596 32.3796 38.8096 31.8896V45.4496Z" fill="#2F3F64"/>
</g>
</g>
<g id="Group_7">
<g id="Group_8">
<g id="Group_9">
<path id="Vector_11" d="M75.5804 51.7793H65.6504V67.0193H75.5804V51.7793Z" fill="#FEC95C"/>
<path id="Vector_12" d="M75.5804 68.0095H65.6504C65.1004 68.0095 64.6504 67.5595 64.6504 67.0095V51.7695C64.6504 51.2195 65.1004 50.7695 65.6504 50.7695H75.5804C76.1304 50.7695 76.5804 51.2195 76.5804 51.7695V67.0095C76.5804 67.5595 76.1304 68.0095 75.5804 68.0095ZM66.6504 66.0095H74.5804V52.7695H66.6504V66.0095Z" fill="#2F3F64"/>
</g>
<g id="Group_10">
<path id="Vector_13" d="M91.0599 44.8594H81.1299V67.0094H91.0599V44.8594Z" fill="#FEC95C"/>
<path id="Vector_14" d="M91.0501 68.0094H81.1201C80.5701 68.0094 80.1201 67.5594 80.1201 67.0094V44.8594C80.1201 44.3094 80.5701 43.8594 81.1201 43.8594H91.0501C91.6001 43.8594 92.0501 44.3094 92.0501 44.8594V67.0094C92.0501 67.5594 91.6001 68.0094 91.0501 68.0094ZM82.1301 66.0094H90.0601V45.8594H82.1301V66.0094Z" fill="#2F3F64"/>
</g>
<g id="Group_11">
<path id="Vector_15" d="M106.531 38.1396H96.6006V67.0096H106.531V38.1396Z" fill="#FEC95C"/>
<path id="Vector_16" d="M106.531 68.0096H96.6006C96.0506 68.0096 95.6006 67.5596 95.6006 67.0096V38.1396C95.6006 37.5896 96.0506 37.1396 96.6006 37.1396H106.531C107.081 37.1396 107.531 37.5896 107.531 38.1396V67.0096C107.531 67.5596 107.081 68.0096 106.531 68.0096ZM97.6006 66.0096H105.531V39.1396H97.6006V66.0096Z" fill="#2F3F64"/>
</g>
</g>
<path id="Vector_17" d="M65.6508 44.3601C65.2708 44.3601 64.9008 44.1401 64.7408 43.7701C64.5108 43.2701 64.7408 42.6701 65.2408 42.4501L105.161 24.4801C105.661 24.2501 106.261 24.4801 106.481 24.9801C106.711 25.4801 106.481 26.0802 105.981 26.3002L66.0609 44.2701C65.9309 44.3301 65.7908 44.3601 65.6508 44.3601Z" fill="#2F3F64"/>
<path id="Vector_18" d="M103.99 33.63C103.89 33.63 103.79 33.6199 103.69 33.5799C103.16 33.4099 102.87 32.8499 103.04 32.3299L105.28 25.1899L98.1303 22.9499C97.6003 22.7799 97.3102 22.2199 97.4802 21.6999C97.6402 21.1699 98.2102 20.88 98.7302 21.04L106.83 23.5799C107.36 23.7499 107.65 24.3099 107.48 24.8299L104.94 32.92C104.81 33.35 104.41 33.62 103.99 33.62V33.63Z" fill="#2F3F64"/>
</g>
<g id="Group_12">
<path id="Vector_19" d="M31.5897 99.8906C17.8997 99.8906 6.68973 107.591 5.96973 117.261V126.101H47.9597V110.241H79.6597C82.2597 110.241 84.3597 108.131 84.3597 105.541V99.9006H31.5797L31.5897 99.8906Z" fill="#BCC5DC"/>
<path id="Vector_20" d="M47.9597 127.1H5.96973C5.41973 127.1 4.96973 126.65 4.96973 126.1V117.27C5.73973 106.94 17.4297 98.9004 31.5897 98.9004H84.3697C84.9197 98.9004 85.3697 99.3504 85.3697 99.9004V105.54C85.3697 108.69 82.8097 111.24 79.6597 111.24H48.9597V126.1C48.9597 126.65 48.5097 127.1 47.9597 127.1ZM6.96973 125.1H46.9597V110.24C46.9597 109.69 47.4097 109.24 47.9597 109.24H79.6597C81.6997 109.24 83.3697 107.58 83.3697 105.54V100.9H31.5897C18.4697 100.9 7.65973 108.12 6.96973 117.35V125.11V125.1Z" fill="#2F3F64"/>
</g>
<path id="Vector_21" d="M15.9199 127.1C15.3699 127.1 14.9199 126.65 14.9199 126.1V115.78C14.9199 115.23 15.3699 114.78 15.9199 114.78C16.4699 114.78 16.9199 115.23 16.9199 115.78V126.1C16.9199 126.65 16.4699 127.1 15.9199 127.1Z" fill="#2F3F64"/>
</g>
</svg>
