<svg width="128" height="124" viewBox="0 0 128 124" fill="none" xmlns="http://www.w3.org/2000/svg">
<path fill-rule="evenodd" clip-rule="evenodd" d="M82.13 92.93H13.8001C11.1301 92.93 8.97002 90.87 8.98002 88.33L9.31009 12.5H5.00004C2.44004 12.5 0.350002 14.48 0.340002 16.91L3.60796e-05 96.24C-0.00996392 98.67 2.06004 100.65 4.63004 100.65H74.2701L82.1501 92.93H82.13Z" fill="#2F3F64"/>
<path fill-rule="evenodd" clip-rule="evenodd" d="M109.21 66.4C109.57 66.04 110.16 66.05 110.53 66.4L112.09 67.95L112.36 5.6C112.37 3.06 110.32 1 107.78 1H13.94C11.4 1 9.32998 3.06 9.31998 5.6L8.96 88.34C8.95 90.88 11 92.94 13.54 92.94H82.1199L109.21 66.41V66.4Z" fill="white"/>
<path d="M82.1296 93.93H13.5497C12.0597 93.93 10.6496 93.35 9.59961 92.29C8.54961 91.23 7.96962 89.83 7.97962 88.33L8.3396 5.59C8.3496 2.51 10.8697 0 13.9597 0H107.8C109.3 0 110.7 0.58 111.75 1.64C112.8 2.7 113.38 4.1 113.37 5.6L113.01 55.57C113.01 56.12 112.56 56.56 112.01 56.56C111.46 56.56 111.01 56.1 111.02 55.55L111.38 5.58C111.38 4.62 111.01 3.72 110.34 3.04C109.66 2.36 108.76 1.99 107.8 1.99H13.9597C11.9697 1.99 10.3496 3.61 10.3396 5.59L9.97962 88.33C9.97962 89.29 10.3497 90.19 11.0197 90.87C11.6997 91.55 12.5997 91.92 13.5497 91.92H82.1296C82.6796 91.92 83.1296 92.37 83.1296 92.92C83.1296 93.47 82.6796 93.92 82.1296 93.92V93.93Z" fill="#2F3F64"/>
<path fill-rule="evenodd" clip-rule="evenodd" d="M9.2998 13.16L9.32983 5.36C9.33983 2.95 11.1098 1 13.2698 1H108.49C110.66 1 112.41 2.95 112.4 5.36L112.37 13.16H9.2998Z" fill="#BCC5DC"/>
<path fill-rule="evenodd" clip-rule="evenodd" d="M20.0996 4.34961C21.5696 4.34961 22.7697 5.54961 22.7697 7.02961C22.7697 8.50961 21.5796 9.70961 20.0996 9.70961C18.6196 9.70961 17.4297 8.50961 17.4297 7.02961C17.4297 5.54961 18.6196 4.34961 20.0996 4.34961Z" fill="#2F3F64"/>
<path fill-rule="evenodd" clip-rule="evenodd" d="M30.2804 4.34961C31.7504 4.34961 32.9504 5.54961 32.9504 7.02961C32.9504 8.50961 31.7604 9.70961 30.2804 9.70961C28.8004 9.70961 27.6104 8.50961 27.6104 7.02961C27.6104 5.54961 28.8004 4.34961 30.2804 4.34961Z" fill="#2F3F64"/>
<path fill-rule="evenodd" clip-rule="evenodd" d="M40.92 4.34961C42.39 4.34961 43.5801 5.54961 43.5801 7.02961C43.5801 8.50961 42.39 9.70961 40.92 9.70961C39.45 9.70961 38.25 8.50961 38.25 7.02961C38.25 5.54961 39.44 4.34961 40.92 4.34961Z" fill="#2F3F64"/>
<path d="M76.4498 14.1598H9.2998C9.0298 14.1598 8.77972 14.0498 8.58972 13.8698C8.39972 13.6898 8.2998 13.4298 8.2998 13.1598L8.32983 5.35977C8.33983 2.40977 10.5598 0.00976562 13.2798 0.00976562H108.53C109.77 0.00976562 110.95 0.509766 111.86 1.42977C112.87 2.43977 113.44 3.87977 113.44 5.37977L113.41 13.1798C113.41 13.7298 112.96 14.1798 112.41 14.1798C111.86 14.1798 111.41 13.7298 111.41 13.1798L111.44 5.37977C111.44 4.40977 111.08 3.48977 110.45 2.84977C109.92 2.31977 109.24 2.01977 108.54 2.01977H13.2898C11.6698 2.01977 10.3497 3.52977 10.3397 5.37977L10.3098 12.1798H76.4598C77.0098 12.1798 77.4598 12.6298 77.4598 13.1798C77.4598 13.7298 77.0098 14.1798 76.4598 14.1798L76.4498 14.1598Z" fill="#2F3F64"/>
<path d="M102.03 62.5694H68.1503C67.1403 62.5694 66.3203 61.7494 66.3203 60.7394V26.8594C66.3203 26.3094 66.7703 25.8594 67.3203 25.8594C67.8703 25.8594 68.3203 26.3094 68.3203 26.8594V60.5694H102.03C102.58 60.5694 103.03 61.0194 103.03 61.5694C103.03 62.1194 102.58 62.5694 102.03 62.5694Z" fill="#2F3F64"/>
<path d="M67.3202 61.7399C67.1402 61.7399 66.9602 61.6899 66.7902 61.5899C66.3202 61.2999 66.1801 60.6799 66.4701 60.2099L78.0402 41.6799C78.1902 41.4399 78.4302 41.2799 78.7002 41.2299C78.9702 41.1799 79.2501 41.2399 79.4801 41.3999L90.7301 49.5899L96.2801 35.8999C96.4901 35.3899 97.0702 35.1399 97.5802 35.3499C98.0902 35.5599 98.3401 36.1399 98.1301 36.6499L92.0901 51.5199C91.9701 51.8099 91.7302 52.0199 91.4402 52.1099C91.1502 52.1899 90.8302 52.1399 90.5802 51.9599L79.1702 43.6499L68.1702 61.2699C67.9802 61.5699 67.6502 61.7399 67.3202 61.7399Z" fill="#2F3F64"/>
<path d="M91.1704 54.1689C92.8383 54.1689 94.1904 52.8168 94.1904 51.1489C94.1904 49.481 92.8383 48.1289 91.1704 48.1289C89.5025 48.1289 88.1504 49.481 88.1504 51.1489C88.1504 52.8168 89.5025 54.1689 91.1704 54.1689Z" fill="#BCC5DC"/>
<path d="M91.1704 55.1591C88.9504 55.1591 87.1504 53.3591 87.1504 51.1391C87.1504 48.9191 88.9504 47.1191 91.1704 47.1191C93.3904 47.1191 95.1904 48.9191 95.1904 51.1391C95.1904 53.3591 93.3904 55.1591 91.1704 55.1591ZM91.1704 49.1291C90.0604 49.1291 89.1504 50.0391 89.1504 51.1491C89.1504 52.2591 90.0604 53.1691 91.1704 53.1691C92.2804 53.1691 93.1904 52.2591 93.1904 51.1491C93.1904 50.0391 92.2804 49.1291 91.1704 49.1291Z" fill="#2F3F64"/>
<path d="M78.9204 45.2197C80.5883 45.2197 81.9404 43.8676 81.9404 42.1997C81.9404 40.5318 80.5883 39.1797 78.9204 39.1797C77.2525 39.1797 75.9004 40.5318 75.9004 42.1997C75.9004 43.8676 77.2525 45.2197 78.9204 45.2197Z" fill="#2F3F64"/>
<path d="M78.9204 46.2197C76.7104 46.2197 74.9004 44.4197 74.9004 42.1997C74.9004 39.9797 76.7004 38.1797 78.9204 38.1797C81.1404 38.1797 82.9404 39.9797 82.9404 42.1997C82.9404 44.4197 81.1404 46.2197 78.9204 46.2197ZM78.9204 40.1897C77.8104 40.1897 76.9004 41.0997 76.9004 42.2097C76.9004 43.3197 77.8104 44.2297 78.9204 44.2297C80.0304 44.2297 80.9404 43.3197 80.9404 42.2097C80.9404 41.0997 80.0304 40.1897 78.9204 40.1897Z" fill="#2F3F64"/>
<path d="M97.2104 39.29C98.8783 39.29 100.23 37.9379 100.23 36.27C100.23 34.6021 98.8783 33.25 97.2104 33.25C95.5425 33.25 94.1904 34.6021 94.1904 36.27C94.1904 37.9379 95.5425 39.29 97.2104 39.29Z" fill="white"/>
<path d="M97.2104 40.29C95.0004 40.29 93.1904 38.49 93.1904 36.27C93.1904 34.05 94.9904 32.25 97.2104 32.25C99.4304 32.25 101.23 34.05 101.23 36.27C101.23 38.49 99.4304 40.29 97.2104 40.29ZM97.2104 34.25C96.1004 34.25 95.1904 35.16 95.1904 36.27C95.1904 37.38 96.1004 38.29 97.2104 38.29C98.3204 38.29 99.2303 37.38 99.2303 36.27C99.2303 35.16 98.3204 34.25 97.2104 34.25Z" fill="#2F3F64"/>
<path d="M96.6367 98.2285L102.173 92.6919L124.949 115.468C126.477 116.995 126.477 119.47 124.949 120.997C123.422 122.525 120.947 122.525 119.42 120.997L96.6438 98.2214L96.6367 98.2285Z" fill="#2F3F64"/>
<path d="M122.18 123.15C120.87 123.15 119.63 122.64 118.71 121.71L95.94 98.9398C95.55 98.5498 95.55 97.9198 95.94 97.5298L101.47 91.9998C101.85 91.6198 102.51 91.6198 102.88 91.9998L125.65 114.77C127.57 116.69 127.57 119.8 125.65 121.72C124.72 122.65 123.49 123.16 122.18 123.16V123.15ZM98.0499 98.2298L120.12 120.3C121.22 121.4 123.14 121.4 124.24 120.3C125.38 119.16 125.38 117.32 124.24 116.18L102.17 94.1098L98.0499 98.2298Z" fill="#2F3F64"/>
<path d="M104.706 103.034C115.923 92.9094 116.808 75.6086 106.684 64.3917C96.5592 53.1748 79.2584 52.2892 68.0415 62.4139C56.8246 72.5385 55.9391 89.8392 66.0637 101.056C76.1883 112.273 93.489 113.159 104.706 103.034Z" fill="#BCC5DC"/>
<path d="M86.4305 111.15C79.1705 111.15 71.9005 108.39 66.3705 102.86C60.8405 97.3303 58.0605 90.3803 58.0605 82.8003C58.0605 75.2203 61.0105 68.1003 66.3705 62.7403C77.4305 51.6803 95.4205 51.6803 106.48 62.7403C117.54 73.8003 117.54 91.7903 106.48 102.85C100.95 108.38 93.6905 111.14 86.4205 111.14L86.4305 111.15ZM86.4305 56.4403C79.6805 56.4403 72.9305 59.0103 67.7905 64.1503C62.8105 69.1303 60.0706 75.7503 60.0706 82.7903C60.0706 89.8303 62.8105 96.4503 67.7905 101.43C78.0705 111.71 94.8006 111.71 105.081 101.43C115.361 91.1503 115.361 74.4203 105.081 64.1403C99.9406 59.0003 93.1906 56.4303 86.4406 56.4303L86.4305 56.4403Z" fill="#2F3F64"/>
<path d="M101.959 99.9909C111.495 91.3835 112.248 76.6753 103.641 67.1393C95.0332 57.6033 80.325 56.8505 70.789 65.4579C61.253 74.0653 60.5001 88.7734 69.1075 98.3095C77.7149 107.846 92.4231 108.598 101.959 99.9909Z" fill="#FEC95C"/>
<path d="M86.4302 107.06C79.9502 107.06 73.8601 104.54 69.2701 99.9502C64.6901 95.3702 62.1602 89.2802 62.1602 82.7902C62.1602 76.3002 64.6801 70.2202 69.2701 65.6302C78.7301 56.1702 94.1202 56.1702 103.58 65.6302C108.16 70.2102 110.69 76.3102 110.69 82.7902C110.69 89.2702 108.17 95.3602 103.58 99.9502C99.0002 104.53 92.9102 107.06 86.4202 107.06H86.4302ZM86.4302 60.5402C80.7302 60.5402 75.0302 62.7102 70.6902 67.0502C66.4802 71.2602 64.1702 76.8402 64.1702 82.7902C64.1702 88.7402 66.4902 94.3302 70.6902 98.5302C74.8902 102.73 80.4802 105.05 86.4302 105.05C92.3802 105.05 97.9702 102.73 102.17 98.5302C110.85 89.8502 110.85 75.7302 102.17 67.0502C97.8302 62.7102 92.1302 60.5402 86.4302 60.5402Z" fill="#2F3F64"/>
<path d="M78.8197 86.1699H74.8896C74.3374 86.1699 73.8896 86.6176 73.8896 87.1699V94.2699C73.8896 94.8222 74.3374 95.2699 74.8896 95.2699H78.8197C79.372 95.2699 79.8197 94.8222 79.8197 94.2699V87.1699C79.8197 86.6176 79.372 86.1699 78.8197 86.1699Z" fill="#2F3F64"/>
<path d="M87.7297 82.0391H83.7998C83.2475 82.0391 82.7998 82.4868 82.7998 83.0391V94.2691C82.7998 94.8214 83.2475 95.2691 83.7998 95.2691H87.7297C88.282 95.2691 88.7297 94.8214 88.7297 94.2691V83.0391C88.7297 82.4868 88.282 82.0391 87.7297 82.0391Z" fill="#2F3F64"/>
<path d="M96.97 78.0195H93.04C92.4878 78.0195 92.04 78.4672 92.04 79.0195V94.2695C92.04 94.8218 92.4878 95.2695 93.04 95.2695H96.97C97.5223 95.2695 97.97 94.8218 97.97 94.2695V79.0195C97.97 78.4672 97.5223 78.0195 96.97 78.0195Z" fill="#2F3F64"/>
<path d="M74.3198 81.3993C73.9398 81.3993 73.5698 81.1793 73.4098 80.8093C73.1798 80.3093 73.4098 79.7093 73.9098 79.4893L96.2698 69.4293C96.7698 69.1993 97.3697 69.4293 97.5897 69.9293C97.8197 70.4293 97.5897 71.0293 97.0897 71.2493L74.7297 81.3093C74.5997 81.3693 74.4598 81.3993 74.3198 81.3993Z" fill="#2F3F64"/>
<path d="M95.7899 75.3895C95.6899 75.3895 95.5899 75.3795 95.4899 75.3395C94.9599 75.1695 94.6699 74.6095 94.8299 74.0895L95.9499 70.5095L92.3699 69.3895C91.8399 69.2195 91.55 68.6595 91.71 68.1395C91.87 67.6095 92.43 67.3195 92.96 67.4795L97.4999 68.8995C98.0299 69.0695 98.3199 69.6295 98.1599 70.1495L96.7399 74.6795C96.6099 75.1095 96.2099 75.3795 95.7899 75.3795V75.3895Z" fill="#2F3F64"/>
<path fill-rule="evenodd" clip-rule="evenodd" d="M36.5404 33.9102C27.9304 33.9102 20.9404 40.8902 20.9404 49.5102C20.9404 58.1302 27.9204 65.1102 36.5404 65.1102C45.1604 65.1102 52.1404 58.1302 52.1404 49.5102H36.5404V33.9102Z" fill="#BCC5DC"/>
<path d="M36.5404 66.1004C27.3904 66.1004 19.9404 58.6504 19.9404 49.5004C19.9404 40.3504 27.3804 32.9004 36.5404 32.9004C37.0904 32.9004 37.5404 33.3504 37.5404 33.9004V48.5004H52.1404C52.6904 48.5004 53.1404 48.9504 53.1404 49.5004C53.1404 58.6504 45.6904 66.1004 36.5404 66.1004ZM35.5404 34.9404C27.9604 35.4604 21.9404 41.7904 21.9404 49.5004C21.9404 57.2104 28.4904 64.1004 36.5404 64.1004C44.5904 64.1004 50.5903 58.0904 51.1003 50.5004H36.5404C35.9904 50.5004 35.5404 50.0504 35.5404 49.5004V34.9404Z" fill="#2F3F64"/>
<path fill-rule="evenodd" clip-rule="evenodd" d="M41.6104 28.8301V44.4301H57.2104C57.2104 35.8201 50.2304 28.8301 41.6104 28.8301Z" fill="#2F3F64"/>
<path d="M57.2104 45.4301H41.6104C41.0604 45.4301 40.6104 44.9801 40.6104 44.4301V28.8301C40.6104 28.2801 41.0604 27.8301 41.6104 27.8301C50.7604 27.8301 58.2104 35.2701 58.2104 44.4301C58.2104 44.9801 57.7604 45.4301 57.2104 45.4301ZM42.6104 43.4301H56.1704C55.6804 36.1801 49.8604 30.3601 42.6104 29.8701V43.4301Z" fill="#2F3F64"/>
</svg>
