<svg viewBox="0 0 129 129" fill="none" xmlns="http://www.w3.org/2000/svg">
<g id="bi-reporting-1">
<g id="Group">
<path id="Vector" fill-rule="evenodd" clip-rule="evenodd" d="M73.4297 1.91016V24.2001H95.3197L73.4297 1.91016Z" fill="#2F3F64"/>
<path id="Vector_2" d="M95.3199 25.2001H73.4199C72.8699 25.2001 72.4199 24.7501 72.4199 24.2001V1.91018C72.4199 1.50018 72.6699 1.14013 73.0399 0.980128C73.4199 0.830128 73.8499 0.920099 74.1299 1.2001L96.0299 23.4901C96.3099 23.7801 96.3899 24.2101 96.2399 24.5801C96.0899 24.9501 95.7199 25.1901 95.3199 25.1901V25.2001ZM74.4199 23.2001H92.9399L74.4199 4.35012V23.2001Z" fill="#2F3F64"/>
</g>
<g id="Group_2">
<path id="Vector_3" fill-rule="evenodd" clip-rule="evenodd" d="M1.91992 1.91016V104.62C1.91992 107.39 4.16993 109.64 6.93993 109.64H90.2999C93.0699 109.64 95.3199 107.39 95.3199 104.62V24.2001H73.4199V1.91016H33.4599" fill="white"/>
<path id="Vector_4" d="M90.2999 110.64H6.93993C3.61993 110.64 0.919922 107.94 0.919922 104.62V1.91016C0.919922 1.36016 1.36992 0.910156 1.91992 0.910156C2.46992 0.910156 2.91992 1.36016 2.91992 1.91016V104.62C2.91992 106.84 4.71993 108.64 6.93993 108.64H90.2999C92.5199 108.64 94.3199 106.84 94.3199 104.62V25.2001H73.4199C72.8699 25.2001 72.4199 24.7501 72.4199 24.2001V2.91016H33.4599C32.9099 2.91016 32.4599 2.46016 32.4599 1.91016C32.4599 1.36016 32.9099 0.910156 33.4599 0.910156H73.4199C73.9699 0.910156 74.4199 1.36016 74.4199 1.91016V23.2001H95.3199C95.8699 23.2001 96.3199 23.6501 96.3199 24.2001V104.62C96.3199 107.94 93.6199 110.64 90.2999 110.64Z" fill="#2F3F64"/>
</g>
<g id="Group_3">
<path id="Vector_5" fill-rule="evenodd" clip-rule="evenodd" d="M30.78 15.7803C21.51 15.7803 14 23.2903 14 32.5603C14 41.8303 21.51 49.3402 30.78 49.3402C40.05 49.3402 47.56 41.8303 47.56 32.5603H30.78V15.7803Z" fill="white"/>
<path id="Vector_6" d="M30.78 50.3402C20.98 50.3402 13 42.3603 13 32.5603C13 22.7603 20.98 14.7803 30.78 14.7803C31.33 14.7803 31.78 15.2303 31.78 15.7803V31.5603H47.56C48.11 31.5603 48.56 32.0103 48.56 32.5603C48.56 42.3603 40.58 50.3402 30.78 50.3402ZM29.78 16.8103C21.54 17.3303 15 24.1903 15 32.5603C15 40.9303 22.08 48.3402 30.78 48.3402C39.48 48.3402 46.01 41.8003 46.53 33.5603H30.78C30.23 33.5603 29.78 33.1103 29.78 32.5603V16.8103Z" fill="#2F3F64"/>
</g>
<g id="Group_4">
<path id="Vector_7" fill-rule="evenodd" clip-rule="evenodd" d="M36.2402 10.3203V27.1003H53.0202C53.0202 17.8303 45.5102 10.3203 36.2402 10.3203Z" fill="#2F3F64"/>
<path id="Vector_8" d="M53.0202 28.1003H36.2402C35.6902 28.1003 35.2402 27.6503 35.2402 27.1003V10.3203C35.2402 9.77031 35.6902 9.32031 36.2402 9.32031C46.0402 9.32031 54.0202 17.3003 54.0202 27.1003C54.0202 27.6503 53.5702 28.1003 53.0202 28.1003ZM37.2402 26.1003H51.9902C51.4902 18.1903 45.1502 11.8503 37.2402 11.3503V26.1003Z" fill="#2F3F64"/>
</g>
<g id="Group_5">
<g id="Group_6">
<path id="Vector_9" d="M22.5999 81.8398H11.9199V98.2299H22.5999V81.8398Z" fill="#BCC5DC"/>
<path id="Vector_10" d="M22.5999 99.2299H11.9199C11.3699 99.2299 10.9199 98.7799 10.9199 98.2299V81.8398C10.9199 81.2898 11.3699 80.8398 11.9199 80.8398H22.5999C23.1499 80.8398 23.5999 81.2898 23.5999 81.8398V98.2299C23.5999 98.7799 23.1499 99.2299 22.5999 99.2299ZM12.9199 97.2299H21.5999V82.8398H12.9199V97.2299Z" fill="#2F3F64"/>
</g>
<g id="Group_7">
<path id="Vector_11" d="M39.2601 74.4004H28.5801V98.2303H39.2601V74.4004Z" fill="#BCC5DC"/>
<path id="Vector_12" d="M39.2601 99.2303H28.5801C28.0301 99.2303 27.5801 98.7803 27.5801 98.2303V74.4004C27.5801 73.8504 28.0301 73.4004 28.5801 73.4004H39.2601C39.8101 73.4004 40.2601 73.8504 40.2601 74.4004V98.2303C40.2601 98.7803 39.8101 99.2303 39.2601 99.2303ZM29.5801 97.2303H38.2601V75.4004H29.5801V97.2303Z" fill="#2F3F64"/>
</g>
<g id="Group_8">
<path id="Vector_13" d="M55.9095 67.1699H45.2295V98.2299H55.9095V67.1699Z" fill="#BCC5DC"/>
<path id="Vector_14" d="M55.9095 99.2299H45.2295C44.6795 99.2299 44.2295 98.7799 44.2295 98.2299V67.1699C44.2295 66.6199 44.6795 66.1699 45.2295 66.1699H55.9095C56.4595 66.1699 56.9095 66.6199 56.9095 67.1699V98.2299C56.9095 98.7799 56.4595 99.2299 55.9095 99.2299ZM46.2295 97.2299H54.9095V68.1699H46.2295V97.2299Z" fill="#2F3F64"/>
</g>
</g>
<g id="Group_9">
<g id="Group_10">
<path id="Vector_15" d="M97.3408 102.91L102.877 97.3735L125.653 120.149C127.181 121.677 127.181 124.152 125.653 125.679C124.126 127.206 121.651 127.206 120.124 125.679L97.3479 102.903L97.3408 102.91Z" fill="#2F3F64"/>
<path id="Vector_16" d="M122.89 127.83C121.63 127.83 120.37 127.35 119.42 126.39L96.6499 103.62C96.2599 103.23 96.2599 102.6 96.6499 102.21L102.18 96.6805C102.56 96.3005 103.22 96.3005 103.59 96.6805L126.36 119.45C128.28 121.37 128.28 124.48 126.36 126.4C125.4 127.36 124.14 127.84 122.89 127.84V127.83ZM98.7599 102.91L120.83 124.98C121.93 126.08 123.85 126.08 124.95 124.98C126.09 123.84 126.09 122 124.95 120.86L102.88 98.7905L98.7599 102.91Z" fill="#2F3F64"/>
</g>
<g id="Group_11">
<path id="Vector_17" d="M105.537 107.684C116.754 97.5597 117.639 80.259 107.515 69.0421C97.3902 57.8251 80.0895 56.9396 68.8726 67.0642C57.6556 77.1888 56.7701 94.4896 66.8947 105.707C77.0193 116.923 94.3201 117.809 105.537 107.684Z" fill="#BCC5DC"/>
<path id="Vector_18" d="M87.1402 115.83C79.8802 115.83 72.6102 113.07 67.0802 107.54C56.0202 96.4798 56.0202 78.4898 67.0802 67.4298C78.1402 56.3698 96.1302 56.3698 107.19 67.4298C118.25 78.4898 118.25 96.4798 107.19 107.54C101.66 113.07 94.4002 115.83 87.1302 115.83H87.1402ZM87.1402 61.1197C80.3902 61.1197 73.6402 63.6897 68.5002 68.8297C58.2202 79.1097 58.2202 95.8397 68.5002 106.12C78.7802 116.4 95.5102 116.4 105.79 106.12C116.07 95.8397 116.07 79.1097 105.79 68.8297C100.65 63.6897 93.9002 61.1197 87.1502 61.1197H87.1402Z" fill="#2F3F64"/>
</g>
<g id="Group_12">
<path id="Vector_19" d="M102.79 104.641C112.326 96.0339 113.079 81.3258 104.472 71.7897C95.8642 62.2537 81.1561 61.5009 71.62 70.1083C62.084 78.7157 61.3312 93.4239 69.9386 102.96C78.546 112.496 93.2542 113.249 102.79 104.641Z" fill="#FEC95C"/>
<path id="Vector_20" d="M87.1401 111.741C80.6601 111.741 74.5701 109.221 69.9801 104.631C65.4001 100.051 62.8701 93.9607 62.8701 87.4707C62.8701 80.9807 65.3901 74.9008 69.9801 70.3108C79.4401 60.8508 94.8301 60.8508 104.29 70.3108C108.87 74.8908 111.4 80.9907 111.4 87.4707C111.4 93.9507 108.88 100.041 104.29 104.631C99.7101 109.211 93.6101 111.741 87.1301 111.741H87.1401ZM71.4001 71.7307C67.2001 75.9407 64.8801 81.5307 64.8801 87.4707C64.8801 93.4107 67.2001 99.0107 71.4001 103.211C75.6101 107.421 81.2001 109.731 87.1401 109.731C93.0801 109.731 98.6801 107.411 102.88 103.211C107.08 99.0007 109.4 93.4207 109.4 87.4707C109.4 81.5207 107.08 75.9307 102.88 71.7307C94.2001 63.0507 80.0801 63.0507 71.4001 71.7307Z" fill="#2F3F64"/>
</g>
<g id="Group_13">
<path id="Vector_21" fill-rule="evenodd" clip-rule="evenodd" d="M87.1399 78.6504C80.1699 78.6504 74.0898 82.4404 70.8398 88.0604C74.0998 93.6904 80.1699 97.4703 87.1399 97.4703C94.1099 97.4703 100.19 93.6804 103.44 88.0604C100.18 82.4304 94.1099 78.6504 87.1399 78.6504Z" fill="#FEC95C"/>
<path id="Vector_22" d="M87.14 98.4801C80.09 98.4801 73.51 94.6801 69.97 88.5701C69.79 88.2601 69.79 87.8801 69.97 87.5701C73.51 81.4601 80.09 77.6602 87.14 77.6602C94.19 77.6602 100.77 81.4601 104.31 87.5701C104.49 87.8801 104.49 88.2601 104.31 88.5701C100.77 94.6801 94.19 98.4801 87.14 98.4801ZM72.01 88.0701C75.25 93.2701 81 96.4801 87.14 96.4801C93.28 96.4801 99.0299 93.2701 102.27 88.0701C99.0199 82.8701 93.28 79.6602 87.14 79.6602C81 79.6602 75.25 82.8701 72.01 88.0701Z" fill="#2F3F64"/>
</g>
<path id="Vector_23" fill-rule="evenodd" clip-rule="evenodd" d="M91.2403 89.0503C89.0303 89.0503 87.2403 87.2603 87.2403 85.0503C87.2403 84.0903 87.5903 83.2303 88.1503 82.5403C87.8203 82.4803 87.4903 82.4502 87.1503 82.4502C84.0503 82.4502 81.5303 84.9702 81.5303 88.0702C81.5303 91.1702 84.0503 93.6902 87.1503 93.6902C90.0203 93.6902 92.3803 91.5403 92.7203 88.7703C92.2603 88.9503 91.7603 89.0603 91.2403 89.0603V89.0503Z" fill="#2F3F64"/>
</g>
<path id="Vector_24" d="M10.1303 75.4001C9.74029 75.4001 9.37029 75.1701 9.21029 74.8001C8.99029 74.2901 9.22028 73.7001 9.73028 73.4901L60.7003 51.4701C61.2003 51.2501 61.8003 51.4801 62.0103 51.9901C62.2303 52.5001 62.0003 53.0901 61.4903 53.3001L10.5203 75.32C10.3903 75.38 10.2603 75.4001 10.1203 75.4001H10.1303Z" fill="#2F3F64"/>
<path id="Vector_25" d="M59.0101 61.7796C58.9101 61.7796 58.8101 61.7696 58.7101 61.7296C58.1801 61.5596 57.8901 60.9996 58.0501 60.4796L60.4801 52.7296L52.7201 50.2997C52.1901 50.1297 51.9001 49.5697 52.0701 49.0497C52.2401 48.5197 52.8001 48.2296 53.3201 48.3896L62.0401 51.1196C62.5701 51.2896 62.8601 51.8496 62.6901 52.3696L59.9601 61.0796C59.8301 61.5096 59.4301 61.7796 59.0101 61.7796Z" fill="#2F3F64"/>
</g>
</svg>
