<svg width="102" height="93" viewBox="0 0 102 93" fill="none" xmlns="http://www.w3.org/2000/svg">
<g id="bookmark">
<g id="Group">
<path id="Vector" d="M40.1102 20.5698C40.1102 9.76976 31.3502 1.00977 20.5502 1.00977C9.75023 1.00977 0.990234 9.76976 0.990234 20.5698V40.1298H40.1002V20.5698" fill="#2F3F64"/>
<path id="Vector_2" d="M40.11 41.1298H1C0.45 41.1298 0 40.6798 0 40.1298V20.5698C0 9.23976 9.22 0.00976562 20.56 0.00976562C31.9 0.00976562 41.12 9.22976 41.12 20.5698V40.1298C41.12 40.6798 40.67 41.1298 40.12 41.1298H40.11ZM2 39.1298H39.11V20.5698C39.11 10.3398 30.79 2.00977 20.55 2.00977C10.31 2.00977 1.99 10.3298 1.99 20.5698V39.1298H2Z" fill="#2F3F64"/>
</g>
<g id="Group_2">
<g id="Group_3">
<path id="Vector_3" d="M100.761 21.3997C100.761 10.1397 91.6306 1.00977 80.3706 1.00977H20.5605C31.3605 1.00977 40.1205 9.76976 40.1205 20.5698V90.3798C40.1205 91.7298 41.7005 92.4697 42.7305 91.5997L69.4205 69.2897C70.0105 68.7997 70.8705 68.7997 71.4605 69.2897L98.1506 91.5997C99.1906 92.4697 100.761 91.7298 100.761 90.3798V52.6497" fill="#BCC5DC"/>
<path id="Vector_4" d="M41.7105 92.97C41.3405 92.97 40.9605 92.89 40.6105 92.72C39.6905 92.29 39.1205 91.39 39.1205 90.37V20.56C39.1205 10.33 30.8005 2 20.5605 2C20.0105 2 19.5605 1.55 19.5605 1C19.5605 0.45 20.0105 0 20.5605 0H80.3706C92.1606 0 101.761 9.58995 101.761 21.39C101.761 21.94 101.311 22.39 100.761 22.39C100.211 22.39 99.7606 21.94 99.7606 21.39C99.7606 10.7 91.0606 2 80.3706 2H29.4005C36.3205 5.31 41.1105 12.38 41.1105 20.56V90.37C41.1105 90.71 41.3505 90.86 41.4505 90.91C41.5505 90.96 41.8205 91.05 42.0805 90.83L68.7705 68.52C69.7305 67.72 71.1305 67.71 72.0905 68.52L98.7805 90.83C99.0406 91.05 99.3106 90.96 99.4106 90.91C99.5106 90.86 99.7505 90.71 99.7505 90.37V52.64C99.7505 52.09 100.201 51.64 100.751 51.64C101.301 51.64 101.751 52.09 101.751 52.64V90.37C101.751 91.39 101.181 92.29 100.261 92.72C99.3406 93.15 98.2805 93.01 97.5005 92.36L70.8105 70.05C70.5905 69.87 70.2706 69.87 70.0506 70.05L43.3605 92.36C42.8805 92.76 42.3005 92.97 41.7005 92.97H41.7105Z" fill="#2F3F64"/>
</g>
<g id="Group_4">
<path id="Vector_5" d="M20.05 1.02954C20.22 1.02954 20.39 1.01953 20.56 1.01953H20.04H20.05V1.02954Z" fill="#2F3F64"/>
<path id="Vector_6" d="M20.0503 2.02972C19.7603 2.02972 19.4903 1.90976 19.3003 1.68976H19.2903C19.0303 1.37976 18.9703 0.959731 19.1303 0.599731C19.2903 0.239731 19.6503 0.00976562 20.0403 0.00976562H20.5603C21.1103 0.00976562 21.5603 0.459766 21.5603 1.00977C21.5603 1.55977 21.1103 2.00977 20.5603 2.00977H20.0703L20.0503 2.01971V2.02972Z" fill="#2F3F64"/>
</g>
</g>
<g id="Group_5">
<path id="Vector_7" d="M71.6 24.4898L75.12 35.3398C75.25 35.7498 75.64 36.0298 76.07 36.0298H87.48C88.45 36.0298 88.85 37.2698 88.07 37.8398L78.84 44.5398C78.49 44.7898 78.34 45.2498 78.48 45.6598L82 56.5098C82.3 57.4298 81.24 58.1998 80.46 57.6298L71.23 50.9298C70.88 50.6798 70.4 50.6798 70.05 50.9298L60.82 57.6298C60.04 58.1998 58.98 57.4298 59.28 56.5098L62.8 45.6598C62.93 45.2498 62.79 44.7998 62.44 44.5398L53.21 37.8398C52.43 37.2698 52.83 36.0298 53.8 36.0298H65.21C65.64 36.0298 66.03 35.7498 66.16 35.3398L69.68 24.4898C69.98 23.5698 71.28 23.5698 71.58 24.4898H71.6Z" fill="#FEC95C"/>
<path id="Vector_8" d="M81.0497 58.83C80.6397 58.83 80.2297 58.7001 79.8697 58.4401L70.6397 51.7401L61.4097 58.4401C60.6997 58.9601 59.7697 58.9601 59.0597 58.4401C58.3497 57.9201 58.0597 57.0401 58.3297 56.2001L61.8497 45.35L52.6197 38.64C51.9097 38.12 51.6197 37.24 51.8897 36.4C52.1597 35.56 52.9097 35.02 53.7897 35.02H65.1997L68.7197 24.17C68.9897 23.33 69.7397 22.79 70.6197 22.79C71.4997 22.79 72.2497 23.33 72.5197 24.17L76.0397 35.02H87.4497C88.3297 35.02 89.0797 35.56 89.3497 36.4C89.6197 37.24 89.3397 38.12 88.6197 38.64L79.3897 45.34L82.9097 56.1901C83.1797 57.0301 82.8997 57.9101 82.1797 58.4301C81.8197 58.6901 81.4097 58.8201 80.9997 58.8201L81.0497 58.83ZM70.6497 49.73C71.0597 49.73 71.4697 49.86 71.8297 50.11L81.0597 56.8101L77.5397 45.96C77.2697 45.13 77.5597 44.24 78.2697 43.72L87.4997 37.02H76.0897C75.2197 37.02 74.4597 36.46 74.1897 35.64L70.6697 24.79V24.78L67.1497 35.64C66.8797 36.47 66.1197 37.02 65.2497 37.02H53.8397L63.0697 43.72C63.7697 44.23 64.0697 45.13 63.7997 45.96L60.2797 56.8101L69.5097 50.11C69.8597 49.85 70.2697 49.73 70.6897 49.73H70.6497Z" fill="#2F3F64"/>
</g>
</g>
</svg>
