<svg width="126" height="126" viewBox="0 0 126 126" fill="none" xmlns="http://www.w3.org/2000/svg">
<path fill-rule="evenodd" clip-rule="evenodd" d="M84.19 95.3902H14.15C11.41 95.3902 9.19 93.2802 9.21 90.6802L9.55002 12.9502H5.12998C2.49998 12.9502 0.360011 14.9702 0.350011 17.4702L3.52324e-05 98.7902C-0.00996477 101.28 2.11003 103.31 4.74003 103.31H76.12L84.2 95.4002L84.19 95.3902Z" fill="#2F3F64"/>
<path fill-rule="evenodd" clip-rule="evenodd" d="M111.96 68.1902C112.33 67.8202 112.94 67.8302 113.31 68.1902L114.91 69.7802L115.19 5.87016C115.2 3.27016 113.1 1.16016 110.5 1.16016H14.31C11.71 1.16016 9.58999 3.27016 9.57999 5.87016L9.21 90.6802C9.2 93.2802 11.3 95.3902 13.9 95.3902H84.2L111.97 68.1902H111.96Z" fill="white"/>
<path d="M84.1902 96.3902H13.8902C12.3702 96.3902 10.9302 95.8002 9.86023 94.7202C8.79023 93.6402 8.2002 92.2102 8.2002 90.6802L8.57019 5.87016C8.58019 2.72016 11.1502 0.160156 14.3002 0.160156H110.49C112.02 0.160156 113.45 0.750157 114.52 1.84016C115.59 2.92016 116.18 4.35016 116.18 5.88016L115.81 56.9902C115.81 57.5402 115.36 57.9802 114.81 57.9802C114.26 57.9802 113.81 57.5202 113.82 56.9702L114.19 5.86016C114.19 4.87016 113.81 3.94016 113.12 3.24016C112.42 2.54016 111.49 2.15016 110.5 2.15016H14.3102C12.2602 2.15016 10.5902 3.82016 10.5802 5.86016L10.2102 90.6702C10.2102 91.6601 10.5902 92.5902 11.2902 93.2902C11.9902 93.9902 12.9202 94.3802 13.9102 94.3802H84.2102C84.7602 94.3802 85.2102 94.8302 85.2102 95.3802C85.2102 95.9302 84.7602 96.3802 84.2102 96.3802L84.1902 96.3902Z" fill="#2F3F64"/>
<path fill-rule="evenodd" clip-rule="evenodd" d="M9.53955 13.6302L9.56952 5.63016C9.57952 3.16016 11.3896 1.16016 13.6096 1.16016H111.21C113.43 1.16016 115.22 3.16016 115.21 5.63016L115.17 13.6302H9.51953H9.53955Z" fill="#BCC5DC"/>
<path fill-rule="evenodd" clip-rule="evenodd" d="M20.6099 4.60059C22.1199 4.60059 23.3399 5.83059 23.3399 7.35059C23.3399 8.87059 22.1199 10.1006 20.6099 10.1006C19.0999 10.1006 17.8799 8.87059 17.8799 7.35059C17.8799 5.83059 19.0999 4.60059 20.6099 4.60059Z" fill="#2F3F64"/>
<path fill-rule="evenodd" clip-rule="evenodd" d="M31.0504 4.60059C32.5604 4.60059 33.7803 5.83059 33.7803 7.35059C33.7803 8.87059 32.5604 10.1006 31.0504 10.1006C29.5404 10.1006 28.3203 8.87059 28.3203 7.35059C28.3203 5.83059 29.5404 4.60059 31.0504 4.60059Z" fill="#2F3F64"/>
<path fill-rule="evenodd" clip-rule="evenodd" d="M41.9497 4.60059C43.4597 4.60059 44.6797 5.83059 44.6797 7.35059C44.6797 8.87059 43.4597 10.1006 41.9497 10.1006C40.4397 10.1006 39.2197 8.87059 39.2197 7.35059C39.2197 5.83059 40.4397 4.60059 41.9497 4.60059Z" fill="#2F3F64"/>
<path d="M78.3701 14.6299H9.54004C9.27004 14.6299 9.02002 14.5199 8.83002 14.3399C8.64002 14.1499 8.54004 13.8999 8.54004 13.6299L8.57001 5.62992C8.58001 2.61992 10.85 0.169922 13.61 0.169922H111.24C112.5 0.169922 113.71 0.679922 114.64 1.60992C115.67 2.63992 116.26 4.10992 116.25 5.63992L116.22 13.6399C116.22 14.1899 115.77 14.6399 115.22 14.6399C114.67 14.6399 114.22 14.1899 114.22 13.6399L114.25 5.63992C114.25 4.63992 113.88 3.68992 113.22 3.02992C112.67 2.47992 111.97 2.17992 111.24 2.17992H13.61C11.94 2.17992 10.57 3.73992 10.57 5.64992L10.54 12.6399H78.3701C78.9201 12.6399 79.3701 13.0899 79.3701 13.6399C79.3701 14.1899 78.9201 14.6399 78.3701 14.6399V14.6299Z" fill="#2F3F64"/>
<path d="M70.1104 102.87L89.9703 122.73C92.2203 124.98 95.8803 124.98 98.1303 122.73L123.27 97.5899C124.49 96.3699 125.1 94.6699 124.93 92.9599L123.27 75.5899C122.96 72.3999 120.44 69.8799 117.25 69.5699L99.8803 67.9099C98.1703 67.7499 96.4704 68.3599 95.2504 69.5699L70.1104 94.7099C67.8604 96.9599 67.8604 100.62 70.1104 102.87Z" fill="#FEC95C"/>
<path d="M94.0499 125.41C92.3199 125.41 90.5799 124.75 89.2599 123.43L69.3999 103.57C68.1199 102.29 67.4199 100.59 67.4199 98.7801C67.4199 96.9701 68.1199 95.2701 69.3999 93.9901L94.5399 68.8501C95.9699 67.4201 97.9499 66.7001 99.9699 66.9001L117.34 68.5601C121 68.9101 123.91 71.8201 124.26 75.4801L125.92 92.8501C126.11 94.8701 125.4 96.8501 123.97 98.2801L98.8299 123.42C97.5099 124.74 95.7799 125.4 94.0399 125.4L94.0499 125.41ZM70.8199 102.16L90.6799 122.02C92.5399 123.88 95.5699 123.88 97.4299 122.02L122.57 96.8801C123.58 95.8701 124.08 94.4701 123.95 93.0501L122.29 75.6801C122.03 72.9701 119.88 70.8201 117.17 70.5601L99.7999 68.9001C98.3799 68.7601 96.9799 69.2701 95.9699 70.2801L70.8299 95.4201C69.9299 96.3201 69.4299 97.5201 69.4299 98.7901C69.4299 100.06 69.9299 101.26 70.8299 102.16H70.8199Z" fill="#2F3F64"/>
<path d="M113.579 84.8936C115.629 83.8809 116.47 81.3981 115.457 79.3481C114.445 77.2982 111.962 76.4573 109.912 77.47C107.862 78.4827 107.021 80.9655 108.034 83.0155C109.047 85.0654 111.529 85.9063 113.579 84.8936Z" fill="white"/>
<path d="M111.72 86.2503C110.4 86.2503 109.09 85.7503 108.09 84.7503C106.09 82.7503 106.09 79.4903 108.09 77.4803C110.09 75.4803 113.35 75.4703 115.36 77.4803C116.33 78.4503 116.86 79.7403 116.86 81.1103C116.86 82.4803 116.33 83.7703 115.36 84.7403C114.36 85.7403 113.04 86.2403 111.73 86.2403L111.72 86.2503ZM111.72 77.9803C110.92 77.9803 110.11 78.2903 109.5 78.9003C108.28 80.1203 108.28 82.1103 109.5 83.3403C110.72 84.5603 112.71 84.5603 113.94 83.3403C114.53 82.7503 114.86 81.9603 114.86 81.1203C114.86 80.2803 114.53 79.5003 113.94 78.9003C113.33 78.2903 112.52 77.9803 111.72 77.9803Z" fill="#2F3F64"/>
<path d="M80.0497 46.5204C77.2497 41.5304 67.4897 41.9604 58.2797 47.4904C57.7697 47.8004 57.2697 48.1304 56.7897 48.4604C56.7897 48.4604 56.7597 48.5104 56.7697 48.5204C56.7697 48.5404 56.7997 48.5404 56.8297 48.5304C62.5397 46.9004 67.2097 46.9704 69.3197 49.1404C70.4797 50.3304 70.7197 52.0404 70.1897 54.0504C69.8197 56.0004 68.6697 58.1404 66.8897 60.2204C64.1197 63.8504 59.8497 67.8004 54.5297 71.3904C49.6297 74.7004 41.7197 78.4404 37.1797 80.0004C37.1797 80.0004 37.1097 80.0204 37.0797 80.0504C36.8897 80.1804 36.8297 80.4404 36.9497 80.6204C37.0497 80.7704 37.2797 80.8104 37.4497 80.7704C42.4997 79.5304 47.0197 77.3604 51.7497 75.2504C56.9197 72.9404 61.8997 70.2504 66.5997 67.0504C70.7897 64.2004 75.1197 61.1204 78.0497 56.9204C80.0397 54.0704 81.9497 49.8804 80.0597 46.5004L80.0497 46.5204Z" fill="#BCC5DC"/>
<path d="M60.0095 31.8001C65.1495 29.9301 70.4895 29.4201 75.8995 29.4401C77.2395 29.4401 78.3796 29.6501 78.4796 27.7301C78.5696 25.9601 77.9395 25.2501 76.1295 25.1201C70.8795 24.7701 65.6596 25.1401 60.4796 25.9001C53.3296 26.9401 46.3896 28.7501 40.4196 33.1101C29.0196 41.4401 29.4096 58.3601 41.1796 66.1801C44.7396 68.5401 48.6795 69.9801 52.8195 70.9201C55.2395 71.5401 60.2696 72.1401 60.9696 72.2401C65.8196 72.6501 70.6596 72.8801 75.5496 72.4501C77.5496 72.2701 77.4995 71.2701 77.5295 69.8501C77.5795 68.2601 77.0396 67.6101 75.3696 67.6601C73.9596 67.7101 72.5496 67.7201 71.1596 67.6501H71.0795C69.8895 67.5901 68.6995 67.4401 67.5195 67.2501C62.8995 66.5901 59.8096 65.6001 59.8096 65.6001C50.7996 62.5901 47.0595 57.3801 47.0095 48.9901C46.9595 40.7301 51.3596 34.9601 59.9996 31.8101H60.0195L60.0095 31.8001Z" fill="#2F3F64"/>
<path d="M96.7102 85.8L91.5802 87.43L89.7802 89.23L88.7402 88.19L90.5402 86.39L92.1602 81.25L93.3302 82.42L92.0802 85.9L95.5602 84.64L96.7202 85.8H96.7102Z" fill="#2F3F64"/>
<path d="M93.1903 92.0703C93.0103 91.4403 93.0104 90.8003 93.1704 90.1603C93.3304 89.5203 93.6704 88.9403 94.1804 88.4303C94.6804 87.9303 95.2603 87.5903 95.9003 87.4203C96.5403 87.2503 97.1804 87.2603 97.8104 87.4403C98.4404 87.6203 99.0004 87.9503 99.4904 88.4403C99.9804 88.9303 100.31 89.4903 100.49 90.1203C100.67 90.7503 100.67 91.3903 100.5 92.0203C100.33 92.6603 99.9904 93.2303 99.4904 93.7303C98.9804 94.2403 98.4103 94.5803 97.7703 94.7503C97.1303 94.9203 96.5004 94.9103 95.8604 94.7303C95.2304 94.5503 94.6704 94.2203 94.1804 93.7403C93.6904 93.2503 93.3604 92.7003 93.1804 92.0603L93.1903 92.0703ZM96.1503 93.4303C96.5303 93.5303 96.9204 93.5103 97.3104 93.3803C97.7104 93.2503 98.0804 93.0103 98.4204 92.6703C98.7604 92.3303 99.0003 91.9503 99.1303 91.5603C99.2603 91.1703 99.2704 90.7803 99.1704 90.4103C99.0704 90.0303 98.8704 89.6903 98.5504 89.3803C98.2404 89.0703 97.8903 88.8603 97.5103 88.7603C97.1303 88.6603 96.7404 88.6703 96.3504 88.8003C95.9604 88.9303 95.5904 89.1603 95.2404 89.5103C94.8904 89.8603 94.6603 90.2303 94.5303 90.6203C94.4003 91.0203 94.3904 91.4003 94.4904 91.7903C94.5904 92.1703 94.7904 92.5203 95.1104 92.8303C95.4204 93.1403 95.7703 93.3503 96.1503 93.4403V93.4303Z" fill="#2F3F64"/>
<path d="M103.57 92.6599L100.36 95.8699C100.01 96.2199 99.8302 96.5799 99.8302 96.9499C99.8302 97.3199 99.9902 97.6699 100.32 97.9999C100.66 98.3399 101.01 98.4999 101.38 98.4999C101.75 98.4999 102.11 98.3199 102.46 97.9699L105.67 94.7599L106.72 95.8099L103.52 99.0099C103.08 99.4499 102.61 99.7299 102.12 99.8399C101.62 99.9499 101.14 99.9299 100.67 99.7599C100.2 99.5899 99.7702 99.3199 99.3702 98.9299C98.9802 98.5399 98.7102 98.1199 98.5502 97.6499C98.3902 97.1799 98.3702 96.6999 98.4902 96.2199C98.6102 95.7299 98.8902 95.2699 99.3302 94.8299L102.53 91.6299L103.57 92.6699V92.6599Z" fill="#2F3F64"/>
<path d="M104.91 104.37L105.79 101.21L105.3 100.72L103.28 102.74L102.24 101.7L107.42 96.5195L109.37 98.4695C109.77 98.8695 110.04 99.2795 110.18 99.7095C110.32 100.13 110.34 100.54 110.24 100.92C110.14 101.3 109.94 101.64 109.65 101.94C109.31 102.28 108.9 102.49 108.43 102.57C107.96 102.65 107.47 102.54 106.98 102.25L106.12 105.59L104.92 104.39L104.91 104.37ZM106.08 99.9395L106.95 100.81C107.23 101.09 107.51 101.23 107.78 101.24C108.05 101.24 108.31 101.12 108.56 100.88C108.8 100.64 108.91 100.39 108.91 100.12C108.91 99.8495 108.76 99.5795 108.48 99.2895L107.61 98.4195L106.09 99.9395H106.08Z" fill="#2F3F64"/>
<path d="M83.7902 92.9501C83.7402 93.3801 83.5602 93.7401 83.2502 94.0501C82.9702 94.3301 82.6602 94.5001 82.3102 94.5801C81.9602 94.6601 81.6002 94.6201 81.2302 94.4801C80.8602 94.3401 80.4901 94.1001 80.1401 93.7501L77.9102 91.5101L83.0901 86.3301L85.2302 88.4701C85.5802 88.8201 85.8302 89.1801 85.9702 89.5501C86.1102 89.9201 86.1501 90.2701 86.0701 90.6001C86.0001 90.9301 85.8301 91.2301 85.5801 91.4901C85.2801 91.7901 84.9401 91.9601 84.5801 92.0101C84.2201 92.0501 83.8601 91.9801 83.5101 91.8001C83.7501 92.1501 83.8402 92.5301 83.7902 92.9601V92.9501ZM81.6102 93.1601C81.8702 93.1801 82.1101 93.0801 82.3301 92.8701C82.5501 92.6601 82.6501 92.4001 82.6301 92.1201C82.6101 91.8401 82.4702 91.5801 82.2202 91.3301L81.2001 90.3001L79.8002 91.7001L80.8502 92.7501C81.1002 93.0001 81.3602 93.1401 81.6202 93.1601H81.6102ZM81.9902 89.5001L82.9401 90.4501C83.1901 90.7001 83.4302 90.8301 83.6802 90.8501C83.9302 90.8701 84.1502 90.7801 84.3602 90.5701C84.5702 90.3601 84.6601 90.1301 84.6401 89.8901C84.6201 89.6401 84.4902 89.4001 84.2402 89.1501L83.2902 88.2001L81.9902 89.5001Z" fill="#2F3F64"/>
<path d="M85.0607 98.6596L85.9406 95.4996L85.4506 95.0096L83.4307 97.0296L82.3906 95.9896L87.5706 90.8096L89.5206 92.7596C89.9206 93.1596 90.1906 93.5696 90.3306 93.9996C90.4706 94.4196 90.4906 94.8296 90.3906 95.2096C90.2906 95.5896 90.0907 95.9296 89.8007 96.2296C89.4607 96.5696 89.0506 96.7796 88.5806 96.8596C88.1106 96.9396 87.6206 96.8296 87.1306 96.5396L86.2706 99.8796L85.0706 98.6796L85.0607 98.6596ZM86.2307 94.2296L87.1006 95.0996C87.3806 95.3796 87.6606 95.5196 87.9406 95.5296C88.2106 95.5296 88.4706 95.4096 88.7206 95.1696C88.9606 94.9296 89.0706 94.6796 89.0706 94.4096C89.0706 94.1396 88.9206 93.8596 88.6406 93.5796L87.7706 92.7096L86.2507 94.2296H86.2307Z" fill="#2F3F64"/>
<path d="M91.02 102.64L88.96 100.58L87.63 101.23L86.54 100.14L93.6 96.8096L94.8101 98.0196L91.48 105.07L90.38 103.97L91.03 102.64H91.02ZM91.5601 101.52L92.98 98.5996L90.0601 100.02L91.5601 101.52Z" fill="#2F3F64"/>
<path d="M96.3004 109.9L95.2603 108.86L96.4603 102.95L92.9003 106.51L91.8604 105.47L97.0504 100.28L98.0903 101.32L96.8803 107.24L100.44 103.68L101.48 104.72L96.2903 109.91L96.3004 109.9Z" fill="#2F3F64"/>
<path d="M105.14 109.01C105.34 109.64 105.36 110.26 105.19 110.88C105.02 111.5 104.68 112.07 104.16 112.59C103.64 113.11 103.07 113.45 102.46 113.61C101.85 113.77 101.23 113.75 100.6 113.56C99.9703 113.36 99.3903 112.99 98.8403 112.44L97.0303 110.63L102.21 105.45L104.02 107.26C104.56 107.8 104.94 108.39 105.14 109.02V109.01ZM101.4 112.34C101.99 112.34 102.56 112.07 103.1 111.53C103.64 110.99 103.91 110.42 103.92 109.82C103.92 109.22 103.66 108.65 103.11 108.1L102.37 107.37L98.9503 110.79L99.6902 111.53C100.23 112.07 100.8 112.35 101.4 112.35V112.34Z" fill="#2F3F64"/>
<path d="M113.58 81.7799C112.45 81.7799 109.24 81.6599 107.7 80.3099C107.28 79.9499 107.24 79.3199 107.6 78.8999C107.96 78.4799 108.59 78.4399 109.01 78.7999C109.86 79.5399 112.39 79.8399 113.89 79.7699C115.24 79.7099 116.54 79.3999 117.76 78.8499C121.71 77.0599 124.14 73.1099 123.95 68.7799C123.83 65.9699 122.61 63.3699 120.54 61.4699C118.46 59.5699 115.77 58.5999 112.96 58.7199C109.01 58.8899 105.53 61.2299 103.86 64.8199C103.63 65.3199 103.04 65.5399 102.53 65.3099C102.03 65.0799 101.81 64.4799 102.04 63.9799C104.02 59.7099 108.17 56.9299 112.86 56.7199C116.22 56.5699 119.41 57.7399 121.88 59.9999C124.35 62.2599 125.79 65.3499 125.94 68.6899C126.17 73.8399 123.28 78.5399 118.58 80.6699C117.13 81.3299 115.58 81.6999 113.97 81.7699C113.97 81.7699 113.82 81.7699 113.57 81.7699L113.58 81.7799Z" fill="#2F3F64"/>
</svg>
