<svg viewBox="0 0 127 98" fill="none" xmlns="http://www.w3.org/2000/svg">
<g id="browse-kb">
<path id="Vector" fill-rule="evenodd" clip-rule="evenodd" d="M9.55009 87.9304H5.12016C2.70016 87.9304 0.740038 85.9604 0.750038 83.5404L1.09013 4.54041C1.09013 2.12041 3.08004 0.150391 5.50004 0.150391H111.97C114.39 0.150391 116.35 2.12041 116.34 4.54041L116.32 8.7804H14.2801C11.8601 8.7804 9.88016 10.7504 9.87016 13.1704L9.55009 87.9304Z" fill="#2F3F64"/>
<path id="Vector_2" fill-rule="evenodd" clip-rule="evenodd" d="M125.33 11.5007L124.98 92.2607C124.97 94.7407 122.95 96.7507 120.47 96.7507H11.6302C9.15016 96.7507 7.15019 94.7407 7.16019 92.2607L7.51029 11.5007C7.52029 9.02073 9.5403 7.01074 12.0203 7.01074H120.86C123.34 7.01074 125.34 9.02073 125.33 11.5007Z" fill="white"/>
<path id="Vector_3" d="M120.47 97.7505H11.63C10.17 97.7505 8.79014 97.1805 7.76014 96.1405C6.73014 95.1005 6.16005 93.7205 6.17005 92.2605L6.52015 11.5005C6.53015 8.48052 9.00016 6.02051 12.0302 6.02051H120.87C122.34 6.02051 123.71 6.59052 124.75 7.63052C125.78 8.67052 126.35 10.0505 126.34 11.5105L125.99 92.2705C125.98 95.2905 123.51 97.7505 120.48 97.7505H120.47ZM12.0201 8.02051C10.0901 8.02051 8.52014 9.59053 8.51014 11.5105L8.16004 92.2705C8.16004 93.2005 8.52005 94.0705 9.17005 94.7305C9.83005 95.3905 10.7 95.7505 11.63 95.7505H120.47C122.39 95.7505 123.97 94.1805 123.98 92.2605L124.33 11.5005C124.33 10.5705 123.98 9.70053 123.32 9.04053C122.66 8.38053 121.79 8.02051 120.86 8.02051H12.0201Z" fill="#2F3F64"/>
<path id="Vector_4" d="M125.61 7.60059H8.61035V19.7806H125.61V7.60059Z" fill="#BCC5DC"/>
<path id="Vector_5" d="M34.6797 78.5799C33.9997 78.5799 33.3398 78.3099 32.8598 77.8199C32.3798 77.3399 32.1098 76.6799 32.1198 75.9999C32.1198 74.8499 32.1396 73.4999 32.1496 72.3599C32.1596 70.9499 33.2997 69.8199 34.7097 69.8199H38.3498C39.0298 69.8199 39.6896 70.0899 40.1696 70.5799C40.6496 71.0699 40.9196 71.7199 40.9096 72.3999C40.9096 73.5499 40.8896 74.8899 40.8796 76.0399C40.8696 77.4499 39.7298 78.5799 38.3198 78.5799H34.6797ZM40.1997 64.5299C40.0497 65.8099 38.9697 66.7799 37.6797 66.7799C36.5797 66.7999 35.2897 66.7999 34.2397 66.7999C33.6897 66.7999 33.1597 66.5799 32.7697 66.1899C32.3797 65.7999 32.1696 65.2699 32.1696 64.7199C32.1896 62.1399 32.6297 60.0199 33.4997 58.3599C34.3697 56.6999 36.0796 54.8299 38.6596 52.7499C41.2296 50.6699 42.7697 49.3099 43.2697 48.6699C44.0497 47.6499 44.4397 46.5299 44.4497 45.2999C44.4597 43.5999 43.7997 42.1399 42.4397 40.9199C41.0897 39.6999 39.2597 39.0999 36.9497 39.0999C34.6397 39.0999 32.8598 39.7299 31.3598 40.9999C30.2498 41.9299 29.3898 43.2299 28.7798 44.8799C28.3698 45.9699 27.2598 46.6399 26.1098 46.4899C25.0898 46.3999 23.8598 46.2499 22.7898 46.1099C22.0498 46.0199 21.3897 45.6099 20.9797 44.9999C20.5697 44.3899 20.4396 43.6199 20.6296 42.9099C21.4096 40.4199 22.8497 38.2199 25.0197 36.3199C27.9797 33.7199 31.8496 32.4199 36.6296 32.4199C41.6596 32.4199 45.6498 33.7299 48.5998 36.3599C51.5498 38.9899 53.0097 42.0499 52.9797 45.5399C52.9597 47.4699 52.3998 49.2999 51.2998 51.0299C50.1998 52.7499 47.8397 55.0999 44.2497 58.0699C42.3897 59.6099 41.2298 60.8399 40.7798 61.7799C40.4898 62.3899 40.2897 63.2999 40.1997 64.5199V64.5299Z" fill="#FEC95C"/>
<path id="Vector_6" d="M38.3101 79.5804H34.67C33.73 79.5804 32.81 79.2004 32.14 78.5304C31.48 77.8604 31.1002 76.9404 31.1102 75.9904L31.14 72.3504C31.15 70.4004 32.75 68.8204 34.7 68.8204H38.3401C39.2801 68.8204 40.2002 69.2004 40.8702 69.8704C41.5402 70.5504 41.91 71.4504 41.9 72.4004L41.8702 76.0404C41.8502 77.9904 40.2601 79.5704 38.3101 79.5704V79.5804ZM34.71 70.8204C33.86 70.8204 33.16 71.5104 33.15 72.3704L33.1202 76.0104C33.1202 76.4204 33.2801 76.8304 33.5701 77.1204C33.8601 77.4104 34.27 77.5804 34.68 77.5804H38.3201C39.1701 77.5804 39.8699 76.8904 39.8799 76.0304L39.91 72.3904C39.91 71.9704 39.75 71.5804 39.46 71.2804C39.17 70.9904 38.7602 70.8204 38.3502 70.8204H34.71ZM34.2501 67.8004C33.4401 67.8004 32.6401 67.4704 32.0701 66.8904C31.5001 66.3104 31.17 65.5204 31.18 64.7004C31.18 64.6804 31.18 64.6704 31.18 64.6504C31.21 61.9404 31.6902 59.6704 32.6202 57.8804C33.5602 56.0804 35.3301 54.1404 38.0401 51.9504C41.1601 49.4304 42.18 48.4304 42.49 48.0304C43.13 47.1904 43.45 46.2904 43.46 45.2704C43.47 43.8504 42.9201 42.6704 41.7901 41.6404C40.6201 40.5904 39.04 40.0704 36.97 40.0704C34.9 40.0704 33.3501 40.6104 32.0201 41.7404C31.0501 42.5604 30.28 43.7204 29.74 45.2004C29.16 46.7304 27.6201 47.6604 26.0101 47.4604C25.0501 47.3804 23.8601 47.2304 22.8001 47.1004H22.69C21.67 46.9604 20.75 46.4004 20.17 45.5404C19.59 44.6904 19.42 43.6204 19.68 42.6304C20.53 39.9104 22.0999 37.5404 24.3799 35.5404C27.5099 32.7904 31.64 31.4004 36.65 31.4004C41.91 31.4004 46.1601 32.8104 49.2801 35.6004C52.4401 38.4204 54.0301 41.7604 54.0001 45.5304C53.9801 47.6504 53.36 49.6704 52.16 51.5504C50.99 53.3804 48.61 55.7604 44.9 58.8204C42.73 60.6104 41.96 61.6404 41.69 62.2004C41.53 62.5404 41.31 63.2204 41.2 64.5804C41.2 64.5904 41.2 64.6104 41.2 64.6204C41 66.4104 39.49 67.7604 37.69 67.7604C36.6 67.7804 35.3101 67.7804 34.2501 67.7804V67.8004ZM33.18 64.7504C33.18 65.0304 33.3 65.2904 33.49 65.4804C33.69 65.6804 33.9701 65.8204 34.2701 65.7904C35.3101 65.7904 36.58 65.7904 37.67 65.7704C38.47 65.7704 39.12 65.1904 39.22 64.4204C39.32 63.0704 39.55 62.0604 39.9 61.3404C40.42 60.2604 41.64 58.9404 43.64 57.3004C47.14 54.4104 49.4401 52.1204 50.49 50.4904C51.49 48.9404 52.0001 47.2704 52.0101 45.5404C52.0401 42.3204 50.71 39.5704 47.96 37.1204C45.21 34.6704 41.41 33.4304 36.66 33.4304C32.15 33.4304 28.47 34.6604 25.71 37.0804C23.72 38.8304 22.3402 40.8904 21.6202 43.2204C21.5102 43.6204 21.5901 44.0804 21.8401 44.4604C22.0901 44.8404 22.49 45.0804 22.94 45.1404H23.0501C24.0801 45.2804 25.25 45.4304 26.22 45.5104C26.96 45.6004 27.6202 45.2004 27.8702 44.5404C28.5302 42.7304 29.5 41.2904 30.74 40.2404C32.42 38.8204 34.52 38.1004 36.98 38.1004C39.44 38.1004 41.5999 38.8004 43.1299 40.1804C44.6999 41.5904 45.48 43.3104 45.47 45.3104C45.46 46.7504 44.9901 48.0904 44.0901 49.2804C43.7301 49.7404 42.8501 50.6704 39.3101 53.5304C36.8601 55.5104 35.21 57.2904 34.41 58.8204C33.62 60.3304 33.21 62.3204 33.19 64.7204C33.19 64.7304 33.19 64.7404 33.19 64.7504H33.18Z" fill="#2F3F64"/>
<path id="Vector_7" d="M66.3801 39.1309H108.82C109.86 39.1309 110.71 39.9708 110.71 41.0208V44.7909C110.71 45.8309 109.87 46.6808 108.82 46.6808H66.3801C65.3401 46.6808 64.4902 45.8409 64.4902 44.7909V41.0208C64.4902 39.9808 65.3304 39.1409 66.3704 39.1409L66.3801 39.1309Z" fill="#BCC5DC"/>
<path id="Vector_8" d="M108.82 47.6701H66.3799C64.7899 47.6701 63.5 46.3801 63.5 44.7801V41.0101C63.5 39.4201 64.7899 38.1201 66.3799 38.1201H108.82C110.41 38.1201 111.7 39.4101 111.7 41.0101V44.7801C111.7 46.3701 110.41 47.6701 108.82 47.6701ZM66.3799 40.1301C65.8899 40.1301 65.5 40.5301 65.5 41.0201V44.7901C65.5 45.2801 65.8999 45.6801 66.3799 45.6801H108.82C109.31 45.6801 109.7 45.2801 109.7 44.7901V41.0201C109.7 40.5301 109.3 40.1301 108.82 40.1301H66.3799Z" fill="#2F3F64"/>
<path id="Vector_9" d="M66.3801 54.5H108.82C109.86 54.5 110.71 55.34 110.71 56.39V60.16C110.71 61.2 109.87 62.05 108.82 62.05H66.3801C65.3401 62.05 64.4902 61.21 64.4902 60.16V56.39C64.4902 55.35 65.3304 54.51 66.3704 54.51L66.3801 54.5Z" fill="#BCC5DC"/>
<path id="Vector_10" d="M108.82 63.04H66.3799C64.7899 63.04 63.5 61.75 63.5 60.15V56.38C63.5 54.79 64.7899 53.5 66.3799 53.5H108.82C110.41 53.5 111.7 54.79 111.7 56.38V60.15C111.7 61.74 110.41 63.04 108.82 63.04ZM66.3799 55.5C65.8899 55.5 65.5 55.9 65.5 56.38V60.15C65.5 60.64 65.8999 61.04 66.3799 61.04H108.82C109.31 61.04 109.7 60.64 109.7 60.15V56.38C109.7 55.89 109.3 55.5 108.82 55.5H66.3799Z" fill="#2F3F64"/>
<path id="Vector_11" d="M89.2502 69.8008H66.3801C65.3363 69.8008 64.4902 70.647 64.4902 71.6908V75.4508C64.4902 76.4946 65.3363 77.3408 66.3801 77.3408H89.2502C90.2941 77.3408 91.1401 76.4946 91.1401 75.4508V71.6908C91.1401 70.647 90.2941 69.8008 89.2502 69.8008Z" fill="#BCC5DC"/>
<path id="Vector_12" d="M89.26 78.3408H66.3799C64.7899 78.3408 63.5 77.0508 63.5 75.4608V71.6908C63.5 70.1008 64.7899 68.8008 66.3799 68.8008H89.26C90.85 68.8008 92.1399 70.0908 92.1399 71.6908V75.4608C92.1399 77.0508 90.85 78.3408 89.26 78.3408ZM66.3799 70.8008C65.8899 70.8008 65.5 71.2008 65.5 71.6908V75.4608C65.5 75.9508 65.8999 76.3408 66.3799 76.3408H89.26C89.75 76.3408 90.1399 75.9408 90.1399 75.4608V71.6908C90.1399 71.2008 89.74 70.8008 89.26 70.8008H66.3799Z" fill="#2F3F64"/>
<path id="Vector_13" fill-rule="evenodd" clip-rule="evenodd" d="M18.6003 10.4707C20.1103 10.4707 21.3403 11.7107 21.3403 13.2307C21.3403 14.7507 20.1103 15.9907 18.6003 15.9907C17.0903 15.9907 15.8604 14.7507 15.8604 13.2307C15.8604 11.7107 17.0903 10.4707 18.6003 10.4707Z" fill="#2F3F64"/>
<path id="Vector_14" fill-rule="evenodd" clip-rule="evenodd" d="M29.0896 10.4707C30.5996 10.4707 31.8296 11.7107 31.8296 13.2307C31.8296 14.7507 30.5996 15.9907 29.0896 15.9907C27.5796 15.9907 26.3496 14.7507 26.3496 13.2307C26.3496 11.7107 27.5796 10.4707 29.0896 10.4707Z" fill="#2F3F64"/>
<path id="Vector_15" fill-rule="evenodd" clip-rule="evenodd" d="M40.03 10.4707C41.55 10.4707 42.77 11.7107 42.77 13.2307C42.77 14.7507 41.54 15.9907 40.03 15.9907C38.52 15.9907 37.29 14.7507 37.29 13.2307C37.29 11.7107 38.52 10.4707 40.03 10.4707Z" fill="#2F3F64"/>
<path id="Vector_16" d="M84.2097 20.5403H7.46973C7.19973 20.5403 6.94977 20.4303 6.75977 20.2503C6.56977 20.0603 6.46973 19.8103 6.46973 19.5403L6.49976 11.5103C6.50976 8.49028 8.97977 6.03027 12.0098 6.03027H120.85C122.32 6.03027 123.69 6.60029 124.73 7.64029C125.76 8.68029 126.33 10.0603 126.32 11.5203L126.29 19.5503C126.29 20.1003 125.84 20.5503 125.29 20.5503C124.74 20.5503 124.29 20.1003 124.29 19.5503L124.32 11.5203C124.32 10.5903 123.97 9.72027 123.31 9.06027C122.65 8.40027 121.78 8.04028 120.85 8.04028H12.0098C10.0798 8.04028 8.50976 9.61027 8.49976 11.5303L8.46973 18.5603H84.1997C84.7497 18.5603 85.1997 19.0103 85.1997 19.5603C85.1997 20.1103 84.7497 20.5603 84.1997 20.5603L84.2097 20.5403Z" fill="#2F3F64"/>
</g>
</svg>
