<svg width="128" height="114" viewBox="0 0 128 114" fill="none" xmlns="http://www.w3.org/2000/svg">
<g id="building">
<g id="Group">
<path id="Vector" fill-rule="evenodd" clip-rule="evenodd" d="M63.6998 28.98V112.21H8.00977V4C8.00977 2.34 9.34977 1 11.0098 1H60.6998C62.3598 1 63.6998 2.34 63.6998 4" fill="#BCC5DC"/>
<path id="Vector_2" d="M63.6998 113.21H8.00977C7.45977 113.21 7.00977 112.76 7.00977 112.21V4C7.00977 1.79 8.79977 0 11.0098 0H60.6998C62.9098 0 64.6998 1.79 64.6998 4C64.6998 4.55 64.2498 5 63.6998 5C63.1498 5 62.6998 4.55 62.6998 4C62.6998 2.9 61.7998 2 60.6998 2H11.0098C9.90977 2 9.00977 2.9 9.00977 4V111.21H62.6998V28.98C62.6998 28.43 63.1498 27.98 63.6998 27.98C64.2498 27.98 64.6998 28.43 64.6998 28.98V112.21C64.6998 112.76 64.2498 113.21 63.6998 113.21Z" fill="#2F3F64"/>
</g>
<g id="Group_2">
<path id="Vector_3" fill-rule="evenodd" clip-rule="evenodd" d="M63.8002 35.1699L117.58 49.5399C118.68 50.0099 119.39 51.0999 119.39 52.2999V112.21H63.7002V35.1699H63.8002Z" fill="#2F3F64"/>
<path id="Vector_4" d="M119.4 113.21H63.71C63.16 113.21 62.71 112.76 62.71 112.21V35.1699C62.71 34.6199 63.16 34.1699 63.71 34.1699C63.8 34.1699 63.98 34.18 64.07 34.2L117.85 48.5699C117.85 48.5699 117.94 48.5999 117.99 48.6199C119.46 49.2499 120.41 50.6999 120.41 52.2899V112.2C120.41 112.75 119.96 113.2 119.41 113.2L119.4 113.21ZM64.7 111.21H118.39V52.2999C118.39 51.5199 117.94 50.8199 117.24 50.4899L64.7 36.45V111.21Z" fill="#2F3F64"/>
</g>
<path id="Vector_5" d="M126.41 113.21H1C0.45 113.21 0 112.76 0 112.21C0 111.66 0.45 111.21 1 111.21H126.41C126.96 111.21 127.41 111.66 127.41 112.21C127.41 112.76 126.96 113.21 126.41 113.21Z" fill="#2F3F64"/>
<g id="Group_3">
<path id="Vector_6" d="M30.3304 15.5996H16.9404V28.9896H30.3304V15.5996Z" fill="white"/>
<path id="Vector_7" d="M30.3304 29.9799H16.9404C16.3904 29.9799 15.9404 29.5299 15.9404 28.9799V15.5898C15.9404 15.0398 16.3904 14.5898 16.9404 14.5898H30.3304C30.8804 14.5898 31.3304 15.0398 31.3304 15.5898V28.9799C31.3304 29.5299 30.8804 29.9799 30.3304 29.9799ZM17.9404 27.9799H29.3304V16.5898H17.9404V27.9799Z" fill="#2F3F64"/>
</g>
<g id="Group_4">
<path id="Vector_8" d="M53.6693 15.5996H40.2793V28.9896H53.6693V15.5996Z" fill="#FEC95C"/>
<path id="Vector_9" d="M53.6595 29.9799H40.2695C39.7195 29.9799 39.2695 29.5299 39.2695 28.9799V15.5898C39.2695 15.0398 39.7195 14.5898 40.2695 14.5898H53.6595C54.2095 14.5898 54.6595 15.0398 54.6595 15.5898V28.9799C54.6595 29.5299 54.2095 29.9799 53.6595 29.9799ZM41.2795 27.9799H52.6695V16.5898H41.2795V27.9799Z" fill="#2F3F64"/>
</g>
<g id="Group_5">
<path id="Vector_10" d="M30.3304 37.9502H16.9404V51.3402H30.3304V37.9502Z" fill="white"/>
<path id="Vector_11" d="M30.3304 52.3402H16.9404C16.3904 52.3402 15.9404 51.8902 15.9404 51.3402V37.9502C15.9404 37.4002 16.3904 36.9502 16.9404 36.9502H30.3304C30.8804 36.9502 31.3304 37.4002 31.3304 37.9502V51.3402C31.3304 51.8902 30.8804 52.3402 30.3304 52.3402ZM17.9404 50.3402H29.3304V38.9502H17.9404V50.3402Z" fill="#2F3F64"/>
</g>
<g id="Group_6">
<path id="Vector_12" d="M53.6693 37.9502H40.2793V51.3402H53.6693V37.9502Z" fill="white"/>
<path id="Vector_13" d="M53.6595 52.3402H40.2695C39.7195 52.3402 39.2695 51.8902 39.2695 51.3402V37.9502C39.2695 37.4002 39.7195 36.9502 40.2695 36.9502H53.6595C54.2095 36.9502 54.6595 37.4002 54.6595 37.9502V51.3402C54.6595 51.8902 54.2095 52.3402 53.6595 52.3402ZM41.2795 50.3402H52.6695V38.9502H41.2795V50.3402Z" fill="#2F3F64"/>
</g>
<g id="Group_7">
<path id="Vector_14" d="M30.3304 60.2998H16.9404V73.6898H30.3304V60.2998Z" fill="white"/>
<path id="Vector_15" d="M30.3304 74.6898H16.9404C16.3904 74.6898 15.9404 74.2398 15.9404 73.6898V60.2998C15.9404 59.7498 16.3904 59.2998 16.9404 59.2998H30.3304C30.8804 59.2998 31.3304 59.7498 31.3304 60.2998V73.6898C31.3304 74.2398 30.8804 74.6898 30.3304 74.6898ZM17.9404 72.6898H29.3304V61.2998H17.9404V72.6898Z" fill="#2F3F64"/>
</g>
<g id="Group_8">
<path id="Vector_16" d="M53.6693 60.2998H40.2793V73.6898H53.6693V60.2998Z" fill="white"/>
<path id="Vector_17" d="M53.6595 74.6898H40.2695C39.7195 74.6898 39.2695 74.2398 39.2695 73.6898V60.2998C39.2695 59.7498 39.7195 59.2998 40.2695 59.2998H53.6595C54.2095 59.2998 54.6595 59.7498 54.6595 60.2998V73.6898C54.6595 74.2398 54.2095 74.6898 53.6595 74.6898ZM41.2795 72.6898H52.6695V61.2998H41.2795V72.6898Z" fill="#2F3F64"/>
</g>
<g id="Group_9">
<path id="Vector_18" d="M30.3304 82.6504H16.9404V96.0404H30.3304V82.6504Z" fill="white"/>
<path id="Vector_19" d="M30.3304 97.0404H16.9404C16.3904 97.0404 15.9404 96.5904 15.9404 96.0404V82.6504C15.9404 82.1004 16.3904 81.6504 16.9404 81.6504H30.3304C30.8804 81.6504 31.3304 82.1004 31.3304 82.6504V96.0404C31.3304 96.5904 30.8804 97.0404 30.3304 97.0404ZM17.9404 95.0404H29.3304V83.6504H17.9404V95.0404Z" fill="#2F3F64"/>
</g>
<g id="Group_10">
<path id="Vector_20" d="M53.6693 82.6504H40.2793V96.0404H53.6693V82.6504Z" fill="white"/>
<path id="Vector_21" d="M53.6595 97.0404H40.2695C39.7195 97.0404 39.2695 96.5904 39.2695 96.0404V82.6504C39.2695 82.1004 39.7195 81.6504 40.2695 81.6504H53.6595C54.2095 81.6504 54.6595 82.1004 54.6595 82.6504V96.0404C54.6595 96.5904 54.2095 97.0404 53.6595 97.0404ZM41.2795 95.0404H52.6695V83.6504H41.2795V95.0404Z" fill="#2F3F64"/>
</g>
<path id="Vector_22" d="M79.2998 95.6199V59.1299H72.6098V95.6199H79.2998Z" fill="#BCC5DC"/>
<path id="Vector_23" d="M94.9004 95.6296V59.1396H88.2104V95.6296H94.9004Z" fill="#BCC5DC"/>
<path id="Vector_24" d="M110.49 95.6199V59.1299H103.8V95.6199H110.49Z" fill="#BCC5DC"/>
</g>
</svg>
