<svg width="93" height="95" viewBox="0 0 93 95" fill="none" xmlns="http://www.w3.org/2000/svg">
<g id="calendar">
<path id="Vector" d="M3.96002 15.4004H81.05C83.23 15.4004 85.01 17.1704 85.01 19.3604V90.5904C85.01 92.7704 83.24 94.5504 81.05 94.5504H3.96002C1.78002 94.5504 0 92.7804 0 90.5904V19.3604C0 17.1804 1.77002 15.4004 3.96002 15.4004Z" fill="#2F3F64"/>
<path id="Vector_2" d="M10.9598 7.40039H88.0497C90.2297 7.40039 92.0098 9.17041 92.0098 11.3604V82.5904C92.0098 84.7704 90.2397 86.5504 88.0497 86.5504H10.9697C8.78973 86.5504 7.00977 84.7804 7.00977 82.5904V11.3604C7.00977 9.18041 8.77973 7.40039 10.9697 7.40039H10.9598Z" fill="#FEC95C"/>
<path id="Vector_3" d="M87.9398 87.5397H11.0698C8.27976 87.5397 6.00977 85.3196 6.00977 82.5797V11.3497C6.00977 8.61967 8.27976 6.38965 11.0698 6.38965H73.1898C73.7398 6.38965 74.1898 6.83965 74.1898 7.38965C74.1898 7.93965 73.7398 8.38965 73.1898 8.38965H11.0698C9.37976 8.38965 8.00977 9.71967 8.00977 11.3497V82.5797C8.00977 84.2096 9.38976 85.5397 11.0698 85.5397H87.9398C89.6298 85.5397 90.9998 84.2096 90.9998 82.5797V11.3497C90.9998 9.71967 89.6198 8.38965 87.9398 8.38965C87.3898 8.38965 86.9398 7.93965 86.9398 7.38965C86.9398 6.83965 87.3898 6.38965 87.9398 6.38965C90.7298 6.38965 92.9998 8.60967 92.9998 11.3497V82.5797C92.9998 85.3097 90.7298 87.5397 87.9398 87.5397Z" fill="#2F3F64"/>
<path id="Vector_4" fill-rule="evenodd" clip-rule="evenodd" d="M91.9998 23.2305V82.5905C91.9998 84.7705 90.1798 86.5505 87.9398 86.5505H11.0698C8.82976 86.5505 7.00977 84.7805 7.00977 82.5905V23.2305H92.0098H91.9998Z" fill="white"/>
<path id="Vector_5" d="M87.9398 87.5397H11.0698C8.27976 87.5397 6.00977 85.3197 6.00977 82.5797V23.2197C6.00977 22.6697 6.45977 22.2197 7.00977 22.2197H92.0098C92.5598 22.2197 93.0098 22.6697 93.0098 23.2197V82.5797C93.0098 85.3097 90.7398 87.5397 87.9498 87.5397H87.9398ZM7.99976 24.2297V82.5897C7.99976 84.2197 9.37975 85.5497 11.0598 85.5497H87.9297C89.6198 85.5497 90.9897 84.2197 90.9897 82.5897V24.2297H7.98975H7.99976Z" fill="#2F3F64"/>
<path id="Vector_6" d="M25.1201 14.81C24.5701 14.81 24.1201 14.36 24.1201 13.81V1C24.1201 0.45 24.5701 0 25.1201 0C25.6701 0 26.1201 0.45 26.1201 1V13.81C26.1201 14.36 25.6701 14.81 25.1201 14.81Z" fill="#2F3F64"/>
<path id="Vector_7" d="M41.3701 14.81C40.8201 14.81 40.3701 14.36 40.3701 13.81V1C40.3701 0.45 40.8201 0 41.3701 0C41.9201 0 42.3701 0.45 42.3701 1V13.81C42.3701 14.36 41.9201 14.81 41.3701 14.81Z" fill="#2F3F64"/>
<path id="Vector_8" d="M57.6299 14.81C57.0799 14.81 56.6299 14.36 56.6299 13.81V1C56.6299 0.45 57.0799 0 57.6299 0C58.1799 0 58.6299 0.45 58.6299 1V13.81C58.6299 14.36 58.1799 14.81 57.6299 14.81Z" fill="#2F3F64"/>
<path id="Vector_9" d="M73.8896 14.81C73.3396 14.81 72.8896 14.36 72.8896 13.81V1C72.8896 0.45 73.3396 0 73.8896 0C74.4396 0 74.8896 0.45 74.8896 1V13.81C74.8896 14.36 74.4396 14.81 73.8896 14.81Z" fill="#2F3F64"/>
<g id="Group">
<path id="Vector_10" d="M23.3105 36.6699H28.5905C30.9805 36.6699 32.9205 38.6099 32.9205 40.9999V45.9099C32.9205 48.2999 30.9805 50.2399 28.5905 50.2399H23.3105C20.9205 50.2399 18.9805 48.2999 18.9805 45.9099V40.9999C18.9805 38.6099 20.9205 36.6699 23.3105 36.6699Z" fill="#BCC5DC"/>
<path id="Vector_11" d="M28.5905 51.2399H23.3105C20.3705 51.2399 17.9805 48.8499 17.9805 45.9099V40.9999C17.9805 38.0599 20.3705 35.6699 23.3105 35.6699H28.5905C31.5305 35.6699 33.9205 38.0599 33.9205 40.9999V45.9099C33.9205 48.8499 31.5305 51.2399 28.5905 51.2399ZM23.3105 37.6699C21.4805 37.6699 19.9805 39.1599 19.9805 40.9999V45.9099C19.9805 47.7399 21.4705 49.2399 23.3105 49.2399H28.5905C30.4205 49.2399 31.9205 47.7499 31.9205 45.9099V40.9999C31.9205 39.1699 30.4305 37.6699 28.5905 37.6699H23.3105Z" fill="#2F3F64"/>
</g>
<path id="Vector_12" d="M53.1403 51.2399H47.8603C44.9203 51.2399 42.5303 48.8499 42.5303 45.9099V40.9999C42.5303 38.0599 44.9203 35.6699 47.8603 35.6699H53.1403C56.0803 35.6699 58.4703 38.0599 58.4703 40.9999V45.9099C58.4703 48.8499 56.0803 51.2399 53.1403 51.2399ZM47.8603 37.6699C46.0303 37.6699 44.5303 39.1599 44.5303 40.9999V45.9099C44.5303 47.7399 46.0203 49.2399 47.8603 49.2399H53.1403C54.9703 49.2399 56.4703 47.7499 56.4703 45.9099V40.9999C56.4703 39.1699 54.9803 37.6699 53.1403 37.6699H47.8603Z" fill="#2F3F64"/>
<g id="Group_2">
<path id="Vector_13" d="M72.4198 36.6699H77.6998C80.0898 36.6699 82.0298 38.6099 82.0298 40.9999V45.9099C82.0298 48.2999 80.0898 50.2399 77.6998 50.2399H72.4198C70.0298 50.2399 68.0898 48.2999 68.0898 45.9099V40.9999C68.0898 38.6099 70.0298 36.6699 72.4198 36.6699Z" fill="#BCC5DC"/>
<path id="Vector_14" d="M77.6998 51.2399H72.4198C69.4798 51.2399 67.0898 48.8499 67.0898 45.9099V40.9999C67.0898 38.0599 69.4798 35.6699 72.4198 35.6699H77.6998C80.6398 35.6699 83.0298 38.0599 83.0298 40.9999V45.9099C83.0298 48.8499 80.6398 51.2399 77.6998 51.2399ZM72.4198 37.6699C70.5898 37.6699 69.0898 39.1599 69.0898 40.9999V45.9099C69.0898 47.7399 70.5798 49.2399 72.4198 49.2399H77.6998C79.5298 49.2399 81.0298 47.7499 81.0298 45.9099V40.9999C81.0298 39.1699 79.5398 37.6699 77.6998 37.6699H72.4198Z" fill="#2F3F64"/>
</g>
<g id="Group_3">
<path id="Vector_15" d="M28.5805 60.1104H23.3105C20.9191 60.1104 18.9805 62.049 18.9805 64.4404V69.3503C18.9805 71.7417 20.9191 73.6804 23.3105 73.6804H28.5805C30.9719 73.6804 32.9105 71.7417 32.9105 69.3503V64.4404C32.9105 62.049 30.9719 60.1104 28.5805 60.1104Z" fill="#BCC5DC"/>
<path id="Vector_16" d="M28.5905 74.6804H23.3105C20.3705 74.6804 17.9805 72.2903 17.9805 69.3503V64.4404C17.9805 61.5004 20.3705 59.1104 23.3105 59.1104H28.5905C31.5305 59.1104 33.9205 61.5004 33.9205 64.4404V69.3503C33.9205 72.2903 31.5305 74.6804 28.5905 74.6804ZM23.3105 61.1104C21.4805 61.1104 19.9805 62.6004 19.9805 64.4404V69.3503C19.9805 71.1803 21.4705 72.6804 23.3105 72.6804H28.5905C30.4205 72.6804 31.9205 71.1903 31.9205 69.3503V64.4404C31.9205 62.6104 30.4305 61.1104 28.5905 61.1104H23.3105Z" fill="#2F3F64"/>
</g>
<g id="Group_4">
<path id="Vector_17" d="M47.8603 60.1104H53.1403C55.5303 60.1104 57.4703 62.0504 57.4703 64.4404V69.3503C57.4703 71.7403 55.5303 73.6804 53.1403 73.6804H47.8603C45.4703 73.6804 43.5303 71.7403 43.5303 69.3503V64.4404C43.5303 62.0504 45.4703 60.1104 47.8603 60.1104Z" fill="#BCC5DC"/>
<path id="Vector_18" d="M53.1403 74.6804H47.8603C44.9203 74.6804 42.5303 72.2903 42.5303 69.3503V64.4404C42.5303 61.5004 44.9203 59.1104 47.8603 59.1104H53.1403C56.0803 59.1104 58.4703 61.5004 58.4703 64.4404V69.3503C58.4703 72.2903 56.0803 74.6804 53.1403 74.6804ZM47.8603 61.1104C46.0303 61.1104 44.5303 62.6004 44.5303 64.4404V69.3503C44.5303 71.1803 46.0203 72.6804 47.8603 72.6804H53.1403C54.9703 72.6804 56.4703 71.1903 56.4703 69.3503V64.4404C56.4703 62.6104 54.9803 61.1104 53.1403 61.1104H47.8603Z" fill="#2F3F64"/>
</g>
<g id="Group_5">
<path id="Vector_19" d="M72.4198 60.1104H77.6998C80.0898 60.1104 82.0298 62.0504 82.0298 64.4404V69.3503C82.0298 71.7403 80.0898 73.6804 77.6998 73.6804H72.4198C70.0298 73.6804 68.0898 71.7403 68.0898 69.3503V64.4404C68.0898 62.0504 70.0298 60.1104 72.4198 60.1104Z" fill="#BCC5DC"/>
<path id="Vector_20" d="M77.6998 74.6804H72.4198C69.4798 74.6804 67.0898 72.2903 67.0898 69.3503V64.4404C67.0898 61.5004 69.4798 59.1104 72.4198 59.1104H77.6998C80.6398 59.1104 83.0298 61.5004 83.0298 64.4404V69.3503C83.0298 72.2903 80.6398 74.6804 77.6998 74.6804ZM72.4198 61.1104C70.5898 61.1104 69.0898 62.6004 69.0898 64.4404V69.3503C69.0898 71.1803 70.5798 72.6804 72.4198 72.6804H77.6998C79.5298 72.6804 81.0298 71.1903 81.0298 69.3503V64.4404C81.0298 62.6104 79.5398 61.1104 77.6998 61.1104H72.4198Z" fill="#2F3F64"/>
</g>
<path id="Vector_21" d="M49.8897 46.8603C49.6397 46.8603 49.3897 46.7703 49.1897 46.5803L45.1697 42.6703C44.7697 42.2803 44.7698 41.6503 45.1498 41.2603C45.5398 40.8603 46.1697 40.8603 46.5597 41.2403L49.8797 44.4703L62.7297 31.9603C63.1197 31.5803 63.7597 31.5803 64.1397 31.9803C64.5197 32.3803 64.5197 33.0103 64.1197 33.3903L50.5697 46.5803C50.3797 46.7703 50.1197 46.8603 49.8697 46.8603H49.8897Z" fill="#2F3F64"/>
</g>
</svg>
