<svg width="122" height="92" viewBox="0 0 122 92" fill="none" xmlns="http://www.w3.org/2000/svg">
<g id="car">
<g id="Group">
<path id="Vector" d="M11.3398 70.71H24.8298V85.64C24.8298 88.2 22.7498 90.27 20.1998 90.27H15.9698C13.4098 90.27 11.3398 88.19 11.3398 85.64V70.71Z" fill="#2F3F64"/>
<path id="Vector_2" d="M20.1998 91.27H15.9698C12.8598 91.27 10.3398 88.74 10.3398 85.64V70.71C10.3398 70.16 10.7898 69.71 11.3398 69.71H24.8298C25.3798 69.71 25.8298 70.16 25.8298 70.71V85.64C25.8298 88.75 23.2998 91.27 20.1998 91.27ZM12.3398 71.71V85.64C12.3398 87.64 13.9698 89.27 15.9698 89.27H20.1998C22.1998 89.27 23.8298 87.64 23.8298 85.64V71.71H12.3398Z" fill="#2F3F64"/>
</g>
<g id="Group_2">
<path id="Vector_3" d="M95.6602 70.71H109.15V85.64C109.15 88.2 107.07 90.27 104.52 90.27H100.29C97.7301 90.27 95.6602 88.19 95.6602 85.64V70.71Z" fill="#2F3F64"/>
<path id="Vector_4" d="M104.52 91.27H100.29C97.1801 91.27 94.6602 88.74 94.6602 85.64V70.71C94.6602 70.16 95.1102 69.71 95.6602 69.71H109.15C109.7 69.71 110.15 70.16 110.15 70.71V85.64C110.15 88.75 107.62 91.27 104.52 91.27ZM96.6602 71.71V85.64C96.6602 87.64 98.2901 89.27 100.29 89.27H104.52C106.52 89.27 108.15 87.64 108.15 85.64V71.71H96.6602Z" fill="#2F3F64"/>
</g>
<g id="Group_3">
<path id="Vector_5" d="M118.97 36.5295H109.26L100.33 6.46953C99.4998 3.27953 96.5998 1.01953 93.3498 1.01953H27.2698C24.0198 1.01953 21.1197 3.27953 20.2897 6.46953L11.3498 36.5295H2.51978C1.68978 36.5295 1.00977 37.1995 1.00977 38.0395V40.3495C1.00977 42.5095 2.49977 44.3795 4.60977 44.8695L11.3498 47.1195V75.0595H109.27V47.1195L116.88 44.8595C118.99 44.3795 120.49 42.4995 120.49 40.3395V38.0395C120.49 37.2095 119.82 36.5295 118.98 36.5295H118.97Z" fill="#BCC5DC"/>
<path id="Vector_6" d="M109.26 76.06H11.34C10.79 76.06 10.34 75.61 10.34 75.06V47.84L4.28 45.81C1.8 45.24 0 42.98 0 40.34V38.03C0 36.65 1.12001 35.52 2.51001 35.52H10.59L19.32 6.17C20.26 2.55 23.53 0 27.26 0H93.34C97.07 0 100.34 2.55 101.29 6.2L110 35.51H118.96C120.34 35.51 121.47 36.63 121.47 38.02V40.32C121.47 42.97 119.67 45.23 117.09 45.82L110.26 47.85V75.04C110.26 75.59 109.81 76.04 109.26 76.04V76.06ZM12.34 74.06H108.26V47.12C108.26 46.68 108.55 46.29 108.98 46.16L116.59 43.9C118.32 43.5 119.48 42.05 119.48 40.34V38.04C119.48 37.76 119.25 37.53 118.97 37.53H109.26C108.82 37.53 108.43 37.24 108.3 36.82L99.37 6.76C98.64 3.96 96.17 2.02 93.35 2.02H27.27C24.45 2.02 21.98 3.96 21.26 6.73L12.31 36.82C12.18 37.24 11.79 37.53 11.35 37.53H2.52002C2.24002 37.53 2.01001 37.76 2.01001 38.04V40.35C2.01001 42.05 3.17002 43.51 4.83002 43.89L11.66 46.17C12.07 46.31 12.34 46.69 12.34 47.12V74.06Z" fill="#2F3F64"/>
</g>
<path id="Vector_7" d="M20.1104 31.6599L25.4405 10.5799C25.7505 8.89992 27.1005 7.66992 28.6305 7.66992H92.1005C93.6305 7.66992 94.9804 8.89992 95.2904 10.5799L100.62 31.6599C101.13 34.9999 98.8004 38.0399 95.7304 38.0399H25.0105C21.9405 38.0399 19.6004 34.9999 20.1204 31.6599H20.1104Z" fill="white"/>
<path id="Vector_8" d="M95.7205 39.0399H25.0004C23.3204 39.0399 21.7704 38.3099 20.6304 36.9799C19.3604 35.4999 18.8104 33.4999 19.1104 31.5099L24.4604 10.3299C24.8404 8.22992 26.6004 6.66992 28.6204 6.66992H67.1605C67.7105 6.66992 68.1605 7.11992 68.1605 7.66992C68.1605 8.21992 67.7105 8.66992 67.1605 8.66992H28.6204C27.5604 8.66992 26.6405 9.54992 26.4105 10.7599L21.0604 31.9099C20.8604 33.2399 21.2504 34.6399 22.1404 35.6799C22.8904 36.5599 23.9104 37.0399 24.9904 37.0399H95.7104C96.7905 37.0399 97.8104 36.5599 98.5604 35.6799C99.4504 34.6399 99.8404 33.2299 99.6204 31.8199L94.3104 10.8299C94.1704 10.2899 94.5005 9.74992 95.0305 9.61992C95.5605 9.47992 96.1104 9.80992 96.2404 10.3399L101.57 31.4199C101.9 33.5099 101.34 35.4999 100.07 36.9799C98.9304 38.3099 97.3804 39.0399 95.7004 39.0399H95.7205Z" fill="#2F3F64"/>
<g id="Group_4">
<path id="Vector_9" d="M42.1201 68.7398H22.8701C21.3101 68.7398 20.04 67.4698 20.04 65.9098V58.4198C20.04 56.8598 21.3101 55.5898 22.8701 55.5898H29.05C35.67 55.5898 41.6301 59.5898 44.1401 65.7098C44.7301 67.1498 43.67 68.7298 42.11 68.7298L42.1201 68.7398Z" fill="#FEC95C"/>
<path id="Vector_10" d="M42.1201 69.7398H22.8701C20.7601 69.7398 19.04 68.0198 19.04 65.9098V58.4198C19.04 56.3098 20.7601 54.5898 22.8701 54.5898H29.05C36.1 54.5898 42.3901 58.8098 45.0701 65.3298C45.4701 66.3198 45.3601 67.4298 44.7701 68.3198C44.1801 69.2098 43.1901 69.7298 42.1201 69.7298V69.7398ZM22.8701 56.5998C21.8601 56.5998 21.04 57.4198 21.04 58.4298V65.9198C21.04 66.9298 21.8601 67.7498 22.8701 67.7498H42.1201C42.5201 67.7498 42.88 67.5598 43.11 67.2198C43.34 66.8798 43.3801 66.4798 43.2201 66.1098C40.8501 60.3398 35.29 56.6098 29.05 56.6098H22.8701V56.5998Z" fill="#2F3F64"/>
</g>
<g id="Group_5">
<path id="Vector_11" d="M78.6103 68.7398H97.8603C99.4203 68.7398 100.69 67.4698 100.69 65.9098V58.4198C100.69 56.8598 99.4203 55.5898 97.8603 55.5898H91.6803C85.0603 55.5898 79.1003 59.5898 76.5903 65.7098C76.0003 67.1498 77.0603 68.7298 78.6203 68.7298L78.6103 68.7398Z" fill="#FEC95C"/>
<path id="Vector_12" d="M97.8604 69.7396H78.6104C77.5404 69.7396 76.5504 69.2096 75.9604 68.3296C75.3704 67.4496 75.2504 66.3296 75.6604 65.3396C78.3404 58.8196 84.6304 54.5996 91.6804 54.5996H97.8604C99.9704 54.5996 101.69 56.3196 101.69 58.4296V65.9196C101.69 68.0296 99.9704 69.7496 97.8604 69.7496V69.7396ZM91.6804 56.5996C85.4404 56.5996 79.8804 60.3296 77.5104 66.0996C77.3604 66.4696 77.4004 66.8796 77.6204 67.2096C77.8504 67.5396 78.2004 67.7396 78.6104 67.7396H97.8604C98.8704 67.7396 99.6904 66.9196 99.6904 65.9096V58.4196C99.6904 57.4096 98.8704 56.5896 97.8604 56.5896H91.6804V56.5996Z" fill="#2F3F64"/>
</g>
<g id="Group_6">
<path id="Vector_13" d="M67.1502 56.5498H53.5702C50.4664 56.5498 47.9502 59.066 47.9502 62.1698C47.9502 65.2736 50.4664 67.7898 53.5702 67.7898H67.1502C70.254 67.7898 72.7702 65.2736 72.7702 62.1698C72.7702 59.066 70.254 56.5498 67.1502 56.5498Z" fill="#2F3F64"/>
<path id="Vector_14" d="M67.1502 68.7898H53.5702C49.9202 68.7898 46.9502 65.8198 46.9502 62.1698C46.9502 58.5198 49.9202 55.5498 53.5702 55.5498H67.1502C70.8002 55.5498 73.7702 58.5198 73.7702 62.1698C73.7702 65.8198 70.8002 68.7898 67.1502 68.7898ZM53.5802 57.5498C51.0302 57.5498 48.9602 59.6198 48.9602 62.1698C48.9602 64.7198 51.0302 66.7898 53.5802 66.7898H67.1602C69.7102 66.7898 71.7802 64.7198 71.7802 62.1698C71.7802 59.6198 69.7102 57.5498 67.1602 57.5498H53.5802Z" fill="#2F3F64"/>
</g>
</g>
</svg>
