<svg width="126" height="127" viewBox="0 0 126 127" fill="none" xmlns="http://www.w3.org/2000/svg">
<path fill-rule="evenodd" clip-rule="evenodd" d="M97.8202 44.6602V60.0802C97.8202 64.3302 94.3702 67.7902 90.1102 67.7902H9.45026C5.19026 67.7902 1.74023 64.3402 1.74023 60.0802V44.6602C1.74023 40.4102 5.19026 36.9502 9.45026 36.9502H90.1102C94.3702 36.9502 97.8202 40.4002 97.8202 44.6602Z" fill="#BCC5DC"/>
<path d="M90.1102 68.7902H9.45026C4.65026 68.7902 0.740234 64.8802 0.740234 60.0802V44.6602C0.740234 39.8602 4.65026 35.9502 9.45026 35.9502H90.1102C94.9102 35.9502 98.8202 39.8602 98.8202 44.6602V60.0802C98.8202 64.8802 94.9102 68.7902 90.1102 68.7902ZM9.45026 37.9502C5.75026 37.9502 2.74023 40.9602 2.74023 44.6602V60.0802C2.74023 63.7802 5.75026 66.7902 9.45026 66.7902H90.1102C93.8102 66.7902 96.8202 63.7802 96.8202 60.0802V44.6602C96.8202 40.9602 93.8102 37.9502 90.1102 37.9502H9.45026Z" fill="#2F3F64"/>
<path fill-rule="evenodd" clip-rule="evenodd" d="M97.8202 79.2999V94.7198C97.8202 98.9698 94.3702 102.43 90.1102 102.43H9.45026C5.19026 102.43 1.74023 98.9798 1.74023 94.7198V79.2999C1.74023 75.0499 5.19026 71.5898 9.45026 71.5898H90.1102C94.3702 71.5898 97.8202 75.0399 97.8202 79.2999Z" fill="#BCC5DC"/>
<path d="M90.1102 103.43H9.45026C4.65026 103.43 0.740234 99.5198 0.740234 94.7198V79.2999C0.740234 74.4999 4.65026 70.5898 9.45026 70.5898H90.1102C94.9102 70.5898 98.8202 74.4999 98.8202 79.2999V94.7198C98.8202 99.5198 94.9102 103.43 90.1102 103.43ZM9.45026 72.5898C5.75026 72.5898 2.74023 75.5999 2.74023 79.2999V94.7198C2.74023 98.4198 5.75026 101.43 9.45026 101.43H90.1102C93.8102 101.43 96.8202 98.4198 96.8202 94.7198V79.2999C96.8202 75.5999 93.8102 72.5898 90.1102 72.5898H9.45026Z" fill="#2F3F64"/>
<path d="M16.8607 57.4997C19.6995 57.4997 22.0007 55.1985 22.0007 52.3597C22.0007 49.521 19.6995 47.2197 16.8607 47.2197C14.022 47.2197 11.7207 49.521 11.7207 52.3597C11.7207 55.1985 14.022 57.4997 16.8607 57.4997Z" fill="white"/>
<path d="M16.8607 58.4997C13.4807 58.4997 10.7207 55.7497 10.7207 52.3597C10.7207 48.9697 13.4707 46.2197 16.8607 46.2197C20.2507 46.2197 23.0007 48.9697 23.0007 52.3597C23.0007 55.7497 20.2507 58.4997 16.8607 58.4997ZM16.8607 48.2197C14.5807 48.2197 12.7207 50.0797 12.7207 52.3597C12.7207 54.6397 14.5807 56.4997 16.8607 56.4997C19.1407 56.4997 21.0007 54.6397 21.0007 52.3597C21.0007 50.0797 19.1407 48.2197 16.8607 48.2197Z" fill="#2F3F64"/>
<path d="M31.1702 57.4997C34.009 57.4997 36.3102 55.1985 36.3102 52.3597C36.3102 49.521 34.009 47.2197 31.1702 47.2197C28.3315 47.2197 26.0303 49.521 26.0303 52.3597C26.0303 55.1985 28.3315 57.4997 31.1702 57.4997Z" fill="white"/>
<path d="M31.1702 58.4997C27.7902 58.4997 25.0303 55.7497 25.0303 52.3597C25.0303 48.9697 27.7802 46.2197 31.1702 46.2197C34.5602 46.2197 37.3102 48.9697 37.3102 52.3597C37.3102 55.7497 34.5602 58.4997 31.1702 58.4997ZM31.1702 48.2197C28.8902 48.2197 27.0303 50.0797 27.0303 52.3597C27.0303 54.6397 28.8902 56.4997 31.1702 56.4997C33.4502 56.4997 35.3102 54.6397 35.3102 52.3597C35.3102 50.0797 33.4502 48.2197 31.1702 48.2197Z" fill="#2F3F64"/>
<path d="M45.4906 57.4997C48.3293 57.4997 50.6306 55.1985 50.6306 52.3597C50.6306 49.521 48.3293 47.2197 45.4906 47.2197C42.6519 47.2197 40.3506 49.521 40.3506 52.3597C40.3506 55.1985 42.6519 57.4997 45.4906 57.4997Z" fill="white"/>
<path d="M45.4906 58.4997C42.1106 58.4997 39.3506 55.7497 39.3506 52.3597C39.3506 48.9697 42.1006 46.2197 45.4906 46.2197C48.8806 46.2197 51.6306 48.9697 51.6306 52.3597C51.6306 55.7497 48.8806 58.4997 45.4906 58.4997ZM45.4906 48.2197C43.2106 48.2197 41.3506 50.0797 41.3506 52.3597C41.3506 54.6397 43.2106 56.4997 45.4906 56.4997C47.7706 56.4997 49.6306 54.6397 49.6306 52.3597C49.6306 50.0797 47.7706 48.2197 45.4906 48.2197Z" fill="#2F3F64"/>
<path d="M87.88 53.3594H56.75C56.2 53.3594 55.75 52.9094 55.75 52.3594C55.75 51.8094 56.2 51.3594 56.75 51.3594H87.88C88.43 51.3594 88.88 51.8094 88.88 52.3594C88.88 52.9094 88.43 53.3594 87.88 53.3594Z" fill="#2F3F64"/>
<path fill-rule="evenodd" clip-rule="evenodd" d="M97.8202 9.54984V24.9698C97.8202 29.2198 94.3702 32.6798 90.1102 32.6798H9.45026C5.19026 32.6798 1.74023 29.2298 1.74023 24.9698V9.54984C1.74023 5.29984 5.19026 1.83984 9.45026 1.83984H90.1102C94.3702 1.83984 97.8202 5.28984 97.8202 9.54984Z" fill="#BCC5DC"/>
<path d="M90.1102 33.6798H9.45026C4.65026 33.6798 0.740234 29.7698 0.740234 24.9698V9.54984C0.740234 4.74984 4.65026 0.839844 9.45026 0.839844H90.1102C94.9102 0.839844 98.8202 4.74984 98.8202 9.54984V24.9698C98.8202 29.7698 94.9102 33.6798 90.1102 33.6798ZM9.45026 2.84984C5.75026 2.84984 2.74023 5.85984 2.74023 9.55984V24.9798C2.74023 28.6798 5.75026 31.6898 9.45026 31.6898H90.1102C93.8102 31.6898 96.8202 28.6798 96.8202 24.9798V9.55984C96.8202 5.85984 93.8102 2.84984 90.1102 2.84984H9.45026Z" fill="#2F3F64"/>
<path d="M16.8607 22.3894C19.6995 22.3894 22.0007 20.0881 22.0007 17.2494C22.0007 14.4106 19.6995 12.1094 16.8607 12.1094C14.022 12.1094 11.7207 14.4106 11.7207 17.2494C11.7207 20.0881 14.022 22.3894 16.8607 22.3894Z" fill="white"/>
<path d="M16.8607 23.3894C13.4807 23.3894 10.7207 20.6394 10.7207 17.2494C10.7207 13.8594 13.4707 11.1094 16.8607 11.1094C20.2507 11.1094 23.0007 13.8594 23.0007 17.2494C23.0007 20.6394 20.2507 23.3894 16.8607 23.3894ZM16.8607 13.1094C14.5807 13.1094 12.7207 14.9694 12.7207 17.2494C12.7207 19.5294 14.5807 21.3894 16.8607 21.3894C19.1407 21.3894 21.0007 19.5294 21.0007 17.2494C21.0007 14.9694 19.1407 13.1094 16.8607 13.1094Z" fill="#2F3F64"/>
<path d="M31.1702 22.3894C34.009 22.3894 36.3102 20.0881 36.3102 17.2494C36.3102 14.4106 34.009 12.1094 31.1702 12.1094C28.3315 12.1094 26.0303 14.4106 26.0303 17.2494C26.0303 20.0881 28.3315 22.3894 31.1702 22.3894Z" fill="white"/>
<path d="M31.1702 23.3894C27.7902 23.3894 25.0303 20.6394 25.0303 17.2494C25.0303 13.8594 27.7802 11.1094 31.1702 11.1094C34.5602 11.1094 37.3102 13.8594 37.3102 17.2494C37.3102 20.6394 34.5602 23.3894 31.1702 23.3894ZM31.1702 13.1094C28.8902 13.1094 27.0303 14.9694 27.0303 17.2494C27.0303 19.5294 28.8902 21.3894 31.1702 21.3894C33.4502 21.3894 35.3102 19.5294 35.3102 17.2494C35.3102 14.9694 33.4502 13.1094 31.1702 13.1094Z" fill="#2F3F64"/>
<path d="M45.4906 22.3894C48.3293 22.3894 50.6306 20.0881 50.6306 17.2494C50.6306 14.4106 48.3293 12.1094 45.4906 12.1094C42.6519 12.1094 40.3506 14.4106 40.3506 17.2494C40.3506 20.0881 42.6519 22.3894 45.4906 22.3894Z" fill="white"/>
<path d="M45.4906 23.3894C42.1106 23.3894 39.3506 20.6394 39.3506 17.2494C39.3506 13.8594 42.1006 11.1094 45.4906 11.1094C48.8806 11.1094 51.6306 13.8594 51.6306 17.2494C51.6306 20.6394 48.8806 23.3894 45.4906 23.3894ZM45.4906 13.1094C43.2106 13.1094 41.3506 14.9694 41.3506 17.2494C41.3506 19.5294 43.2106 21.3894 45.4906 21.3894C47.7706 21.3894 49.6306 19.5294 49.6306 17.2494C49.6306 14.9694 47.7706 13.1094 45.4906 13.1094Z" fill="#2F3F64"/>
<path d="M87.88 18.25H56.75C56.2 18.25 55.75 17.8 55.75 17.25C55.75 16.7 56.2 16.25 56.75 16.25H87.88C88.43 16.25 88.88 16.7 88.88 17.25C88.88 17.8 88.43 18.25 87.88 18.25Z" fill="#2F3F64"/>
<path d="M16.8607 92.1394C19.6995 92.1394 22.0007 89.8381 22.0007 86.9994C22.0007 84.1606 19.6995 81.8594 16.8607 81.8594C14.022 81.8594 11.7207 84.1606 11.7207 86.9994C11.7207 89.8381 14.022 92.1394 16.8607 92.1394Z" fill="white"/>
<path d="M16.8607 93.1394C13.4807 93.1394 10.7207 90.3894 10.7207 86.9994C10.7207 83.6094 13.4707 80.8594 16.8607 80.8594C20.2507 80.8594 23.0007 83.6094 23.0007 86.9994C23.0007 90.3894 20.2507 93.1394 16.8607 93.1394ZM16.8607 82.8594C14.5807 82.8594 12.7207 84.7194 12.7207 86.9994C12.7207 89.2794 14.5807 91.1394 16.8607 91.1394C19.1407 91.1394 21.0007 89.2794 21.0007 86.9994C21.0007 84.7194 19.1407 82.8594 16.8607 82.8594Z" fill="#2F3F64"/>
<path d="M31.1702 92.1394C34.009 92.1394 36.3102 89.8381 36.3102 86.9994C36.3102 84.1606 34.009 81.8594 31.1702 81.8594C28.3315 81.8594 26.0303 84.1606 26.0303 86.9994C26.0303 89.8381 28.3315 92.1394 31.1702 92.1394Z" fill="white"/>
<path d="M31.1702 93.1394C27.7902 93.1394 25.0303 90.3894 25.0303 86.9994C25.0303 83.6094 27.7802 80.8594 31.1702 80.8594C34.5602 80.8594 37.3102 83.6094 37.3102 86.9994C37.3102 90.3894 34.5602 93.1394 31.1702 93.1394ZM31.1702 82.8594C28.8902 82.8594 27.0303 84.7194 27.0303 86.9994C27.0303 89.2794 28.8902 91.1394 31.1702 91.1394C33.4502 91.1394 35.3102 89.2794 35.3102 86.9994C35.3102 84.7194 33.4502 82.8594 31.1702 82.8594Z" fill="#2F3F64"/>
<path d="M45.4906 92.1394C48.3293 92.1394 50.6306 89.8381 50.6306 86.9994C50.6306 84.1606 48.3293 81.8594 45.4906 81.8594C42.6519 81.8594 40.3506 84.1606 40.3506 86.9994C40.3506 89.8381 42.6519 92.1394 45.4906 92.1394Z" fill="white"/>
<path d="M45.4906 93.1394C42.1106 93.1394 39.3506 90.3894 39.3506 86.9994C39.3506 83.6094 42.1006 80.8594 45.4906 80.8594C48.8806 80.8594 51.6306 83.6094 51.6306 86.9994C51.6306 90.3894 48.8806 93.1394 45.4906 93.1394ZM45.4906 82.8594C43.2106 82.8594 41.3506 84.7194 41.3506 86.9994C41.3506 89.2794 43.2106 91.1394 45.4906 91.1394C47.7706 91.1394 49.6306 89.2794 49.6306 86.9994C49.6306 84.7194 47.7706 82.8594 45.4906 82.8594Z" fill="#2F3F64"/>
<path d="M87.88 88.0098H56.75C56.2 88.0098 55.75 87.5598 55.75 87.0098C55.75 86.4598 56.2 86.0098 56.75 86.0098H87.88C88.43 86.0098 88.88 86.4598 88.88 87.0098C88.88 87.5598 88.43 88.0098 87.88 88.0098Z" fill="#2F3F64"/>
<path d="M75.1898 109.929C75.1898 109.929 63.1598 101.479 67.6798 92.0695C72.1998 82.6495 81.8098 84.7195 81.8098 84.7195C81.8098 84.7195 84.8198 67.7695 97.8198 69.6495C110.82 71.5295 107.12 84.3695 107.12 84.3695C107.12 84.3695 128.14 80.7595 123.62 99.5995C119.1 118.429 81.9398 115.169 75.1898 109.929Z" fill="white"/>
<path d="M101.76 107.19V116.39L97.6104 116.32L105.63 126.83L112.22 116.48L108.6 117.42V107.19H101.76Z" fill="#FEC95C"/>
<path d="M89.3604 126.831V117.631L93.5104 117.701L86.0804 107.971L78.9004 117.541L82.5204 116.601V126.831H89.3604Z" fill="#FEC95C"/>
<path d="M94.3296 118.18C94.2496 118.35 94.1196 118.5 93.9496 118.6C93.7896 118.7 93.5996 118.76 93.4096 118.76H90.3396V125.9C90.3396 126.17 90.2296 126.43 90.0396 126.63C89.8496 126.82 89.5896 126.93 89.3096 126.93C89.0296 126.93 88.7796 126.82 88.5796 126.63C88.3896 126.44 88.2796 126.18 88.2796 125.9V117.73C88.2796 117.46 88.3896 117.2 88.5796 117C88.7696 116.81 89.0296 116.7 89.3096 116.7H91.2796L85.8896 109.87L80.4996 116.7H82.4696C82.7396 116.7 82.9996 116.81 83.1996 117C83.3896 117.19 83.4996 117.45 83.4996 117.73V125.9C83.4996 126.17 83.3896 126.43 83.1996 126.63C83.0096 126.82 82.7496 126.93 82.4696 126.93C82.1896 126.93 81.9396 126.82 81.7396 126.63C81.5496 126.44 81.4396 126.18 81.4396 125.9V118.76H78.3796C78.1896 118.76 77.9996 118.71 77.8396 118.6C77.6796 118.5 77.5496 118.35 77.4596 118.18C77.3796 118.01 77.3396 117.81 77.3596 117.62C77.3796 117.43 77.4596 117.25 77.5696 117.09L85.0796 107.58C85.1796 107.46 85.2996 107.36 85.4396 107.29C85.5796 107.22 85.7296 107.19 85.8896 107.19C86.0396 107.19 86.1996 107.23 86.3396 107.29C86.4796 107.36 86.5996 107.46 86.6996 107.58L94.2096 117.09C94.3296 117.24 94.3997 117.42 94.4297 117.62C94.4497 117.81 94.4196 118.01 94.3296 118.18Z" fill="#2F3F64"/>
<path d="M96.7495 115.94C96.8295 115.77 96.9695 115.62 97.1295 115.52C97.2895 115.42 97.4795 115.36 97.6695 115.36H100.729V108.22C100.729 107.95 100.839 107.69 101.029 107.49C101.219 107.3 101.479 107.19 101.759 107.19C102.039 107.19 102.289 107.3 102.489 107.49C102.679 107.68 102.789 107.94 102.789 108.22V116.39C102.789 116.66 102.679 116.92 102.489 117.12C102.299 117.31 102.039 117.42 101.759 117.42H99.7895L105.18 124.25L110.569 117.42H108.599C108.329 117.42 108.069 117.31 107.869 117.12C107.679 116.93 107.569 116.67 107.569 116.39V108.22C107.569 107.95 107.679 107.69 107.869 107.49C108.059 107.3 108.319 107.19 108.599 107.19C108.879 107.19 109.129 107.3 109.329 107.49C109.519 107.68 109.629 107.94 109.629 108.22V115.36H112.689C112.879 115.36 113.069 115.41 113.229 115.52C113.389 115.62 113.519 115.77 113.609 115.94C113.689 116.11 113.729 116.31 113.709 116.5C113.689 116.69 113.609 116.87 113.499 117.03L105.999 126.54C105.899 126.66 105.779 126.76 105.639 126.83C105.499 126.9 105.349 126.93 105.189 126.93C105.039 126.93 104.879 126.89 104.739 126.83C104.599 126.76 104.479 126.66 104.379 126.54L96.8695 117.03C96.7495 116.88 96.6795 116.7 96.6495 116.5C96.6295 116.31 96.6595 116.11 96.7495 115.94Z" fill="#2F3F64"/>
<path d="M81.13 85.8302C82.46 86.1802 83.79 85.2402 83.9 83.8702C84.04 82.1102 84.2999 80.2702 84.8499 78.8102C85.5899 76.8402 86.85 75.0702 88.5 73.7502C90.79 71.9202 93.6799 71.0202 96.5999 71.2402C99.5199 71.4602 102.25 72.7702 104.24 74.9202C106.23 77.0702 107.34 79.8902 107.34 82.8202C107.34 83.5802 107.27 84.3302 107.12 85.0702C107.09 85.2502 107.1 85.4302 107.15 85.6002C107.21 85.7702 107.31 85.9202 107.44 86.0402C107.57 86.1602 107.74 86.2402 107.91 86.2802C108.08 86.3202 108.27 86.3102 108.44 86.2502C109.93 85.7702 111.5 85.6002 113.05 85.7502C114.6 85.9002 116.11 86.3602 117.49 87.1002C118.87 87.8402 120.07 88.8602 121.05 90.0902C122.02 91.3102 122.74 92.7202 123.15 94.2302C123.57 95.7402 123.67 97.3202 123.47 98.8702C123.26 100.42 122.75 101.91 121.95 103.26C121.15 104.61 120.09 105.78 118.83 106.7C117.57 107.63 116.14 108.29 114.62 108.64C114.37 108.7 114.16 108.84 114.01 109.05C113.86 109.26 113.8 109.51 113.83 109.76C113.86 110.01 113.98 110.24 114.17 110.41C114.36 110.58 114.6 110.67 114.85 110.67C114.93 110.67 115.01 110.67 115.08 110.64C118.09 109.95 120.77 108.25 122.68 105.83C124.6 103.41 125.63 100.41 125.62 97.3202C125.62 95.3002 125.17 93.3102 124.31 91.4802C123.45 89.6502 122.2 88.0402 120.64 86.7602C119.08 85.4802 117.26 84.5502 115.31 84.0602C113.36 83.5602 111.32 83.5102 109.34 83.8902C109.37 83.5302 109.38 83.1702 109.38 82.8102C109.38 79.3602 108.08 76.0302 105.73 73.5102C103.39 70.9802 100.17 69.4302 96.7399 69.1802C93.2999 68.9202 89.9 69.9802 87.21 72.1302C84.52 74.2802 82.7399 77.3802 82.2299 80.7902C82.2299 80.7902 81.97 82.3302 81.78 83.8502C80.94 83.6902 80.0899 83.5902 79.2299 83.6002C75.9299 83.6002 72.7299 84.7902 70.2299 86.9502C67.7299 89.1102 66.08 92.1002 65.59 95.3702C65.1 98.6402 65.8 101.98 67.56 104.78C69.32 107.58 72.0299 109.65 75.1799 110.62C75.3099 110.66 75.45 110.68 75.58 110.67C75.72 110.66 75.8499 110.62 75.9699 110.56C76.0899 110.5 76.2 110.41 76.28 110.31C76.37 110.21 76.4299 110.08 76.4699 109.95C76.5099 109.82 76.52 109.68 76.51 109.55C76.5 109.41 76.46 109.28 76.39 109.16C76.33 109.04 76.24 108.93 76.13 108.85C76.02 108.76 75.9 108.7 75.77 108.66C74.07 108.14 72.51 107.23 71.21 106.01C69.91 104.79 68.9 103.29 68.26 101.63C67.62 99.9602 67.37 98.1802 67.53 96.4002C67.68 94.6202 68.2399 92.9002 69.1599 91.3702C70.0799 89.8402 71.33 88.5402 72.82 87.5602C74.31 86.5902 76 85.9602 77.77 85.7402C78.89 85.6002 80.0199 85.6302 81.1199 85.8102L81.13 85.8302Z" fill="#2F3F64"/>
<path d="M77.9902 91.3307C78.6302 90.2007 79.5102 89.3207 80.6202 88.7007C81.7302 88.0807 82.9802 87.7607 84.3702 87.7607C85.9902 87.7607 87.4102 88.1807 88.6202 89.0107C89.8402 89.8407 90.6903 90.9907 91.1703 92.4507H87.8303C87.5003 91.7607 87.0302 91.2407 86.4302 90.8907C85.8302 90.5407 85.1302 90.3707 84.3502 90.3707C83.5102 90.3707 82.7602 90.5707 82.1002 90.9607C81.4402 91.3507 80.9302 91.9107 80.5602 92.6307C80.1902 93.3507 80.0103 94.1907 80.0103 95.1607C80.0103 96.1307 80.1902 96.9507 80.5602 97.6807C80.9302 98.4107 81.4402 98.9707 82.1002 99.3607C82.7602 99.7507 83.5102 99.9507 84.3502 99.9507C85.1402 99.9507 85.8302 99.7707 86.4302 99.4207C87.0302 99.0707 87.5003 98.5507 87.8303 97.8507H91.1703C90.6903 99.3307 89.8402 100.481 88.6302 101.301C87.4202 102.121 86.0002 102.531 84.3702 102.531C82.9902 102.531 81.7402 102.221 80.6202 101.591C79.5002 100.961 78.6302 100.091 77.9902 98.9707C77.3502 97.8507 77.0303 96.5807 77.0303 95.1507C77.0303 93.7207 77.3502 92.4507 77.9902 91.3207V91.3307Z" fill="#2F3F64"/>
<path d="M95.8201 101.611C94.6901 100.971 93.7901 100.091 93.1201 98.9607C92.4601 97.8307 92.1201 96.5607 92.1201 95.1307C92.1201 93.7007 92.4501 92.4507 93.1201 91.3207C93.7801 90.1907 94.6801 89.3107 95.8201 88.6707C96.9601 88.0307 98.2002 87.7207 99.5502 87.7207C100.9 87.7207 102.17 88.0407 103.29 88.6707C104.41 89.3007 105.31 90.1907 105.97 91.3207C106.63 92.4507 106.96 93.7207 106.96 95.1307C106.96 96.5407 106.63 97.8307 105.97 98.9607C105.31 100.091 104.42 100.971 103.28 101.611C102.15 102.251 100.9 102.561 99.5502 102.561C98.2002 102.561 96.9501 102.241 95.8201 101.611ZM101.86 99.3807C102.52 98.9907 103.04 98.4207 103.42 97.6907C103.79 96.9607 103.98 96.1107 103.98 95.1407C103.98 94.1707 103.79 93.3207 103.42 92.6007C103.05 91.8807 102.53 91.3207 101.86 90.9307C101.2 90.5407 100.43 90.3507 99.5602 90.3507C98.6902 90.3507 97.9201 90.5407 97.2501 90.9307C96.5801 91.3207 96.0602 91.8707 95.6802 92.6007C95.3002 93.3307 95.1201 94.1707 95.1201 95.1407C95.1201 96.1107 95.3102 96.9607 95.6802 97.6907C96.0502 98.4207 96.5801 98.9907 97.2501 99.3807C97.9201 99.7707 98.6902 99.9707 99.5602 99.9707C100.43 99.9707 101.2 99.7707 101.86 99.3807Z" fill="#2F3F64"/>
<path d="M109.26 101.67C110.03 101.02 110.65 100.49 111.11 100.06C111.57 99.6301 111.95 99.1801 112.26 98.7101C112.57 98.2401 112.72 97.7801 112.72 97.3301C112.72 96.9201 112.62 96.6001 112.43 96.3601C112.24 96.1201 111.94 96.0101 111.53 96.0101C111.12 96.0101 110.82 96.1501 110.6 96.4201C110.38 96.6901 110.27 97.0601 110.26 97.5301H108.61C108.64 96.5601 108.93 95.8301 109.47 95.3301C110.01 94.8301 110.71 94.5801 111.54 94.5801C112.46 94.5801 113.16 94.8201 113.66 95.3101C114.15 95.8001 114.4 96.4401 114.4 97.2401C114.4 97.8701 114.23 98.4701 113.89 99.0401C113.55 99.6101 113.16 100.11 112.73 100.53C112.3 100.95 111.73 101.46 111.02 102.06H114.59V103.46H108.61V102.2L109.24 101.67H109.26Z" fill="#2F3F64"/>
</svg>
