<svg width="103" height="103" viewBox="0 0 103 103" fill="none" xmlns="http://www.w3.org/2000/svg">
<path fill-rule="evenodd" clip-rule="evenodd" d="M51.0195 1.64062C58.9095 1.64062 66.3795 3.47062 73.0195 6.73062C79.8195 10.0706 85.7495 14.9006 90.3895 20.8006C97.0595 29.3006 101.04 40.0106 101.04 51.6606C101.04 79.2806 78.6495 101.671 51.0295 101.671C23.4095 101.671 1.01953 79.2806 1.01953 51.6606C1.01953 24.0406 23.4095 1.65062 51.0295 1.65062L51.0195 1.64062Z" fill="#BCC5DC"/>
<path fill-rule="evenodd" clip-rule="evenodd" d="M90.3798 20.8004C97.0498 29.3004 101.03 40.0104 101.03 51.6604C101.03 79.2804 78.6398 101.67 51.0198 101.67C23.3998 101.67 1.00977 79.2804 1.00977 51.6604C1.00977 24.0404 23.3998 1.65039 51.0198 1.65039" fill="#BCC5DC"/>
<path d="M51.0198 102.67C22.8898 102.67 0.00976562 79.7904 0.00976562 51.6604C0.00976562 23.5304 22.8898 0.650391 51.0198 0.650391C51.5698 0.650391 52.0198 1.10039 52.0198 1.65039C52.0198 2.20039 51.5698 2.65039 51.0198 2.65039C23.9898 2.65039 2.00977 24.6404 2.00977 51.6604C2.00977 78.6804 23.9998 100.67 51.0198 100.67C78.0398 100.67 100.03 78.6804 100.03 51.6604C100.03 40.5804 96.4197 30.1204 89.5897 21.4204C89.2497 20.9904 89.3298 20.3604 89.7598 20.0204C90.1898 19.6804 90.8198 19.7604 91.1598 20.1904C98.2698 29.2404 102.02 40.1304 102.02 51.6604C102.02 79.7904 79.1398 102.67 51.0098 102.67H51.0198Z" fill="#2F3F64"/>
<path d="M31.5898 26.0402C24.7098 31.8402 20.5198 39.9802 19.7998 48.9502C19.0798 57.8602 21.8998 66.5402 27.7398 73.3902C33.5898 80.2402 41.7198 84.3902 50.6398 85.0802C51.4898 85.1502 52.3498 85.1802 53.2098 85.1802C61.9098 85.1802 70.2698 81.7902 76.5198 75.7402C77.4298 74.8202 77.4298 73.3402 76.5198 72.4302C75.6298 71.5402 74.1998 71.5202 73.2798 72.3802C67.3498 78.1202 59.2298 81.0502 51.0098 80.4202C43.3398 79.8302 36.3398 76.2502 31.3098 70.3602C26.2798 64.4702 23.8498 57.0002 24.4798 49.3402C25.1098 41.6202 28.7098 34.6202 34.6298 29.6302C40.5498 24.6402 48.0498 22.2602 55.7698 22.9402L55.9998 22.9602C56.6098 23.0202 57.1798 23.3302 57.5498 23.8202C57.9298 24.3102 58.0898 24.9402 57.9898 25.5602L57.9598 25.7502C57.7698 26.9202 56.6998 27.7202 55.4798 27.6102C55.2798 27.5902 55.0698 27.5702 54.8698 27.5602C48.6198 27.1302 42.5098 29.1402 37.6798 33.2102C32.8498 37.2802 29.8397 42.9602 29.1997 49.2002C28.5397 55.6902 30.4598 62.0302 34.6098 67.0602C38.7598 72.0902 44.6198 75.1702 51.1198 75.7402C51.8498 75.8002 52.5798 75.8402 53.3098 75.8402C60.1598 75.8402 66.6098 72.9702 71.2498 67.7902C72.6698 66.2002 73.3298 64.0802 73.0498 61.9602C72.7698 59.8302 71.5798 57.9302 69.7898 56.7602C66.7698 54.7802 62.6997 55.2902 60.3197 57.9602C59.8997 58.4302 59.4298 58.8702 58.9198 59.2502C55.0598 62.1502 49.4898 61.6202 46.2498 58.0402C44.4998 56.1102 43.6298 53.6202 43.8098 51.0202C43.9898 48.4302 45.1798 46.0802 47.1798 44.4102C48.8698 42.9902 50.9298 42.2302 53.1398 42.2002C54.4298 42.1802 55.4697 41.1202 55.4497 39.8302C55.4297 38.5402 54.3697 37.5002 53.0797 37.5202C49.8197 37.5602 46.6798 38.7302 44.1798 40.8202C41.1998 43.3102 39.4198 46.8202 39.1498 50.7002C38.8798 54.5702 40.1798 58.3002 42.7998 61.1802C45.5498 64.2102 49.4098 65.7802 53.2998 65.7802C56.2698 65.7802 59.2498 64.8602 61.7498 62.9802C62.5098 62.4102 63.1997 61.7702 63.8297 61.0702C64.6797 60.1202 66.1398 59.9502 67.2398 60.6702C67.8898 61.1002 68.3298 61.7902 68.4298 62.5702C68.5298 63.3502 68.2998 64.0902 67.7798 64.6702C63.6398 69.2902 57.7198 71.6302 51.5398 71.0802C46.2998 70.6202 41.5798 68.1302 38.2298 64.0802C34.8798 60.0302 33.3298 54.9102 33.8698 49.6802C34.3798 44.6602 36.8098 40.0802 40.7098 36.7902C44.6098 33.5002 49.5297 31.8802 54.5697 32.2302C54.7397 32.2402 54.8997 32.2502 55.0697 32.2702C58.6997 32.6102 61.9998 30.0802 62.5998 26.5202L62.6298 26.3302C62.9398 24.4402 62.4598 22.5002 61.2898 20.9802C60.1198 19.4702 58.3798 18.5002 56.4798 18.3102L56.2098 18.2902C55.2098 18.2002 54.1997 18.1602 53.1997 18.1602C45.3097 18.1602 37.7498 20.9102 31.6498 26.0602L31.5898 26.0402Z" fill="#2F3F64"/>
</svg>
