<svg width="128" height="128" viewBox="0 0 128 128" fill="none" xmlns="http://www.w3.org/2000/svg">
<g id="chart-line">
<path id="Vector" d="M126.411 127.41H4.00098C1.79098 127.41 0.000976562 125.62 0.000976562 123.41V1C0.000976562 0.45 0.450977 0 1.00098 0C1.55098 0 2.00098 0.45 2.00098 1V123.41C2.00098 124.51 2.90098 125.41 4.00098 125.41H126.411C126.961 125.41 127.411 125.86 127.411 126.41C127.411 126.96 126.961 127.41 126.411 127.41Z" fill="#2F3F64"/>
<path id="Vector_2" d="M1.00076 124.41C0.820756 124.41 0.640727 124.36 0.470727 124.26C0.000726998 123.97 -0.139219 123.35 0.150781 122.88L41.9607 55.9103C42.1107 55.6703 42.3507 55.5103 42.6208 55.4603C42.9007 55.4103 43.1708 55.4603 43.4008 55.6303L86.7407 87.1903L108.071 34.6303C108.281 34.1203 108.861 33.8703 109.371 34.0803C109.881 34.2903 110.131 34.8703 109.921 35.3803L88.1107 89.1303C87.9907 89.4203 87.7507 89.6303 87.4607 89.7203C87.1707 89.8003 86.8507 89.7503 86.6007 89.5703L43.0907 57.8903L1.85073 123.95C1.66073 124.25 1.33076 124.42 1.00076 124.42V124.41Z" fill="#2F3F64"/>
<g id="Group">
<path id="Vector_3" d="M87.1805 99.6696C93.206 99.6696 98.0905 94.785 98.0905 88.7596C98.0905 82.7342 93.206 77.8496 87.1805 77.8496C81.1551 77.8496 76.2705 82.7342 76.2705 88.7596C76.2705 94.785 81.1551 99.6696 87.1805 99.6696Z" fill="#BCC5DC"/>
<path id="Vector_4" d="M87.1805 100.66C80.6105 100.66 75.2705 95.3198 75.2705 88.7498C75.2705 82.1798 80.6105 76.8398 87.1805 76.8398C93.7505 76.8398 99.0905 82.1798 99.0905 88.7498C99.0905 95.3198 93.7505 100.66 87.1805 100.66ZM87.1805 78.8499C81.7205 78.8499 77.2705 83.2899 77.2705 88.7599C77.2705 94.2299 81.7105 98.6699 87.1805 98.6699C92.6505 98.6699 97.0905 94.2299 97.0905 88.7599C97.0905 83.2899 92.6505 78.8499 87.1805 78.8499Z" fill="#2F3F64"/>
</g>
<g id="Group_2">
<path id="Vector_5" d="M42.9208 67.3503C48.9462 67.3503 53.8307 62.4657 53.8307 56.4403C53.8307 50.4149 48.9462 45.5303 42.9208 45.5303C36.8953 45.5303 32.0107 50.4149 32.0107 56.4403C32.0107 62.4657 36.8953 67.3503 42.9208 67.3503Z" fill="#2F3F64"/>
<path id="Vector_6" d="M42.9208 68.3503C36.3508 68.3503 31.0107 63.0103 31.0107 56.4403C31.0107 49.8703 36.3508 44.5303 42.9208 44.5303C49.4908 44.5303 54.8307 49.8703 54.8307 56.4403C54.8307 63.0103 49.4908 68.3503 42.9208 68.3503ZM42.9208 46.5403C37.4608 46.5403 33.0107 50.9803 33.0107 56.4503C33.0107 61.9203 37.4508 66.3603 42.9208 66.3603C48.3908 66.3603 52.8307 61.9203 52.8307 56.4503C52.8307 50.9803 48.3908 46.5403 42.9208 46.5403Z" fill="#2F3F64"/>
</g>
<g id="Group_3">
<path id="Vector_7" d="M109.001 45.9196C115.026 45.9196 119.911 41.035 119.911 35.0096C119.911 28.9842 115.026 24.0996 109.001 24.0996C102.975 24.0996 98.0908 28.9842 98.0908 35.0096C98.0908 41.035 102.975 45.9196 109.001 45.9196Z" fill="white"/>
<path id="Vector_8" d="M109.001 46.9196C102.441 46.9196 97.0908 41.5796 97.0908 35.0096C97.0908 28.4396 102.431 23.0996 109.001 23.0996C115.571 23.0996 120.911 28.4396 120.911 35.0096C120.911 41.5796 115.571 46.9196 109.001 46.9196ZM109.001 25.0996C103.541 25.0996 99.0908 29.5396 99.0908 35.0096C99.0908 40.4796 103.531 44.9196 109.001 44.9196C114.471 44.9196 118.911 40.4796 118.911 35.0096C118.911 29.5396 114.471 25.0996 109.001 25.0996Z" fill="#2F3F64"/>
</g>
</g>
</svg>
