<svg width="128" height="128" viewBox="0 0 128 128" fill="none" xmlns="http://www.w3.org/2000/svg">
<g id="chart-area">
<g id="Group">
<path id="Vector" fill-rule="evenodd" clip-rule="evenodd" d="M126.421 36.3901V24.7001C126.421 22.2301 123.611 20.8201 121.631 22.2901L89.9509 45.8001C88.8209 46.6401 87.2609 46.5801 86.1909 45.6501L54.9309 18.4501C53.4209 17.1401 51.071 17.6401 50.241 19.4601L1.00098 126.41" fill="white"/>
<path id="Vector_2" d="M1.00127 127.41C0.861268 127.41 0.721224 127.38 0.581224 127.32C0.0812238 127.09 -0.138766 126.49 0.0912335 125.99L49.3312 19.0403C49.8612 17.8803 50.8813 17.0703 52.1213 16.8003C53.3613 16.5303 54.6312 16.8603 55.5912 17.6903L86.8512 44.8903C87.5512 45.5003 88.6012 45.5403 89.3512 44.9903L121.031 21.4803C122.251 20.5703 123.861 20.4403 125.211 21.1203C126.571 21.8003 127.411 23.1703 127.411 24.6903V36.3803C127.411 36.9303 126.961 37.3803 126.411 37.3803C125.861 37.3803 125.411 36.9303 125.411 36.3803V24.6903C125.411 23.9203 125.001 23.2503 124.311 22.9003C123.621 22.5503 122.841 22.6203 122.221 23.0803L90.5412 46.5903C89.0512 47.7003 86.9412 47.6203 85.5312 46.3903L54.2713 19.1903C53.7913 18.7703 53.1612 18.6103 52.5412 18.7403C51.9212 18.8703 51.4113 19.2803 51.1413 19.8603L1.90129 126.81C1.73129 127.18 1.37126 127.39 0.991258 127.39L1.00127 127.41Z" fill="#2F3F64"/>
</g>
<path id="Vector_3" d="M126.421 127.41H1.01074C0.460742 127.41 0.0107422 126.96 0.0107422 126.41V1C0.0107422 0.45 0.460742 0 1.01074 0C1.56074 0 2.01074 0.45 2.01074 1V125.41H126.421C126.971 125.41 127.421 125.86 127.421 126.41C127.421 126.96 126.971 127.41 126.421 127.41Z" fill="#2F3F64"/>
<g id="Group_2">
<path id="Vector_4" fill-rule="evenodd" clip-rule="evenodd" d="M126.421 126.41H1.01074L54.3207 56.8305C55.3507 55.6005 57.1707 55.4005 58.4407 56.3705L91.4008 81.5205C92.7408 82.5405 94.6608 82.2605 95.6508 80.9005L126.431 44.7305" fill="#BCC5DC"/>
<path id="Vector_5" d="M126.42 127.41H1.01047C0.630473 127.41 0.280449 127.19 0.110449 126.85C-0.0595511 126.51 -0.0195756 126.1 0.210424 125.8L53.5205 56.2201C54.9305 54.5401 57.3404 54.27 59.0404 55.57L92.0005 80.7201C92.4305 81.0501 92.9705 81.1901 93.5005 81.1101C94.0405 81.0301 94.5104 80.7501 94.8304 80.3101L125.66 44.0801C126.02 43.6601 126.65 43.6101 127.07 43.9701C127.49 44.3301 127.54 44.96 127.18 45.38L96.4005 81.5501C95.8105 82.3701 94.8604 82.9401 93.7904 83.0901C92.7104 83.2401 91.6504 82.9701 90.7904 82.3101L57.8304 57.16C56.9804 56.51 55.7704 56.6501 55.0804 57.4701L3.03037 125.41H126.42C126.97 125.41 127.42 125.86 127.42 126.41C127.42 126.96 126.97 127.41 126.42 127.41Z" fill="#2F3F64"/>
</g>
<g id="Group_3">
<path id="Vector_6" fill-rule="evenodd" clip-rule="evenodd" d="M53.0807 95.3496L1.01074 126.42H126.421V87.8896L100.991 110.35C100.161 111.08 98.9907 111.3 97.9507 110.91L55.6606 95.1197C54.8106 94.7997 53.8607 94.8896 53.0707 95.3496H53.0807Z" fill="#2F3F64"/>
<path id="Vector_7" d="M126.42 127.41H1.01049C0.560485 127.41 0.170402 127.11 0.0504024 126.68C-0.0695976 126.25 0.120476 125.79 0.500476 125.56L52.5704 94.4901C53.6204 93.8701 54.8805 93.7501 56.0205 94.1801L98.3104 109.97C99.0004 110.23 99.7804 110.09 100.33 109.59L125.76 87.1301C126.06 86.8701 126.48 86.8101 126.83 86.9701C127.19 87.1301 127.42 87.4901 127.42 87.8801V126.41C127.42 126.96 126.97 127.41 126.42 127.41ZM4.63048 125.41H125.42V90.0901L101.65 111.08C100.54 112.06 98.9904 112.35 97.6004 111.83L55.3104 96.0401C54.7404 95.8301 54.1104 95.8801 53.5904 96.2001L4.63048 125.41Z" fill="#2F3F64"/>
</g>
</g>
</svg>
