<svg width="126" height="110" viewBox="0 0 126 110" fill="none" xmlns="http://www.w3.org/2000/svg">
<path d="M103.974 38.5215H91.6816V91.938H103.974V38.5215Z" fill="#FEC95C"/>
<path d="M58.902 44.6855H46.6094V91.9386H58.902V44.6855Z" fill="white"/>
<path d="M79.3894 36.4683C79.3894 38.7283 77.5455 40.5774 75.2919 40.5774C73.0382 40.5774 71.1943 38.7283 71.1943 36.4683C71.1943 35.852 71.3173 35.2768 71.5631 34.7632C72.2187 33.3455 73.6528 32.3594 75.2919 32.3594C76.6441 32.3594 77.8529 33.0169 78.5904 34.044H78.6109C79.1026 34.722 79.3894 35.5645 79.3894 36.4683Z" fill="white"/>
<path d="M33.5386 40.2061C34.0303 40.8841 34.3172 41.7264 34.3172 42.6304C34.3172 44.8904 32.4733 46.7394 30.2196 46.7394C27.966 46.7394 26.1221 44.8904 26.1221 42.6304C26.1221 40.3705 27.966 38.5215 30.2196 38.5215C31.5718 38.5215 32.7806 39.1788 33.5386 40.2061Z" fill="white"/>
<path d="M97.8319 15.9229C100.086 15.9229 101.93 17.7718 101.93 20.0318C101.93 22.2917 100.086 24.1407 97.8319 24.1407C96.4798 24.1407 95.271 23.4834 94.5334 22.4561H94.5129C94.0212 21.7781 93.7344 20.9358 93.7344 20.0318C93.7344 17.7718 95.5783 15.9229 97.8319 15.9229Z" fill="#BCC5DC"/>
<path d="M56.4845 27.8991C55.8289 29.3167 54.3948 30.3028 52.7557 30.3028C51.4035 30.3028 50.1947 29.6454 49.4572 28.6182H49.4367C48.9451 27.9402 48.6582 27.0979 48.6582 26.1939C48.6582 23.9339 50.5021 22.085 52.7557 22.085C55.0094 22.085 56.8533 23.9339 56.8533 26.1939C56.8533 26.8102 56.7304 27.3855 56.4845 27.8991Z" fill="#BCC5DC"/>
<path d="M81.4402 54.957H69.1475V91.9378H81.4402V54.957Z" fill="#BCC5DC"/>
<path d="M36.3649 61.1201H24.0723V91.9373H36.3649V61.1201Z" fill="#BCC5DC"/>
<path d="M103.976 93.4797C103.128 93.4797 102.439 92.7888 102.439 91.9389V40.0631H93.2195V91.9389C93.2195 92.7888 92.5307 93.4797 91.683 93.4797C90.8353 93.4797 90.1465 92.7888 90.1465 91.9389V38.5223C90.1465 37.6722 90.8353 36.9814 91.683 36.9814H103.976C104.823 36.9814 105.512 37.6722 105.512 38.5223V91.9389C105.512 92.7888 104.823 93.4797 103.976 93.4797Z" fill="#2F3F64"/>
<path d="M36.3654 93.4782C35.5178 93.4782 34.8288 92.7873 34.8288 91.9372V62.6609H25.6093V91.9372C25.6093 92.7873 24.9203 93.4782 24.0727 93.4782C23.225 93.4782 22.5361 92.7873 22.5361 91.9372V61.1201C22.5361 60.27 23.225 59.5791 24.0727 59.5791H36.3654C37.2131 59.5791 37.902 60.27 37.902 61.1201V91.9372C37.902 92.7873 37.2131 93.4782 36.3654 93.4782Z" fill="#2F3F64"/>
<path d="M30.22 48.2811C27.1136 48.2811 24.5859 45.7464 24.5859 42.6312C24.5859 39.5161 27.1136 36.9814 30.22 36.9814C32.0051 36.9814 33.7081 37.8443 34.7734 39.2902C35.4829 40.2686 35.8542 41.4191 35.8542 42.6312C35.8542 45.7464 33.3266 48.2811 30.22 48.2811ZM30.22 40.0631C28.8089 40.0631 27.6591 41.2163 27.6591 42.6312C27.6591 44.0463 28.8089 45.1993 30.22 45.1993C31.6312 45.1993 32.781 44.0463 32.781 42.6312C32.781 42.0765 32.6145 41.55 32.297 41.1134C31.8079 40.4509 31.0473 40.0631 30.22 40.0631Z" fill="#2F3F64"/>
<path d="M58.9044 93.4784C58.0567 93.4784 57.3678 92.7877 57.3678 91.9376V46.2253H48.1483V91.9376C48.1483 92.7877 47.4594 93.4784 46.6117 93.4784C45.764 93.4784 45.0752 92.7877 45.0752 91.9376V44.6845C45.0752 43.8344 45.764 43.1436 46.6117 43.1436H58.9044C59.7521 43.1436 60.441 43.8344 60.441 44.6845V91.9376C60.441 92.7877 59.7521 93.4784 58.9044 93.4784Z" fill="#2F3F64"/>
<path d="M52.7561 31.8457C51.0404 31.8457 49.4142 31.0547 48.3616 29.7218C48.3027 29.6628 48.2463 29.5986 48.1951 29.5266C47.4934 28.5584 47.1221 27.4079 47.1221 26.1958C47.1221 23.0806 49.6497 20.5459 52.7561 20.5459C55.8627 20.5459 58.3904 23.0806 58.3904 26.1958C58.3904 27.0484 58.2162 27.8471 57.8705 28.5687C56.9537 30.5539 54.9433 31.8457 52.7561 31.8457ZM50.5845 27.5723C50.6281 27.6185 50.6664 27.6673 50.7049 27.7212C51.1735 28.3761 51.9418 28.7665 52.7561 28.7665C53.7498 28.7665 54.6667 28.1732 55.0918 27.2565C55.2454 26.9354 55.3172 26.5861 55.3172 26.1983C55.3172 24.7834 54.1673 23.6302 52.7561 23.6302C51.3451 23.6302 50.1953 24.7834 50.1953 26.1983C50.1953 26.694 50.3284 27.1665 50.5845 27.5748V27.5723Z" fill="#2F3F64"/>
<path d="M81.4395 93.4794C80.5918 93.4794 79.903 92.7886 79.903 91.9385V56.4988H70.6834V91.9385C70.6834 92.7886 69.9946 93.4794 69.1469 93.4794C68.2992 93.4794 67.6104 92.7886 67.6104 91.9385V54.9578C67.6104 54.1078 68.2992 53.417 69.1469 53.417H81.4395C82.2872 53.417 82.9762 54.1078 82.9762 54.9578V91.9385C82.9762 92.7886 82.2872 93.4794 81.4395 93.4794Z" fill="#2F3F64"/>
<path d="M75.2913 42.1161C72.1849 42.1161 69.6572 39.5814 69.6572 36.4663C69.6572 35.6137 69.8313 34.815 70.177 34.0933C71.0939 32.1082 73.1043 30.8164 75.2913 30.8164C77.0072 30.8164 78.6334 31.6074 79.686 32.9403C79.7449 32.9993 79.8013 33.0635 79.8525 33.1355C80.5542 34.1037 80.9255 35.2542 80.9255 36.4663C80.9255 39.5814 78.3979 42.1161 75.2913 42.1161ZM75.2913 33.8982C74.2976 33.8982 73.3809 34.4915 72.9557 35.4082C72.8021 35.7292 72.7304 36.0785 72.7304 36.4663C72.7304 37.8813 73.8802 39.0344 75.2913 39.0344C76.7025 39.0344 77.8523 37.8813 77.8523 36.4663C77.8523 35.9706 77.7192 35.4981 77.4631 35.0898C77.4195 35.0436 77.3812 34.9948 77.3427 34.9408C76.8741 34.286 76.1057 33.8956 75.2913 33.8956V33.8982Z" fill="#2F3F64"/>
<path d="M97.8305 25.6805C96.1146 25.6805 94.4884 24.8895 93.4359 23.5567C93.3769 23.4976 93.3206 23.4334 93.2694 23.3616C92.5677 22.3934 92.1963 21.2429 92.1963 20.0308C92.1963 16.9156 94.7241 14.3809 97.8305 14.3809C100.937 14.3809 103.465 16.9156 103.465 20.0308C103.465 23.1458 100.937 25.6805 97.8305 25.6805ZM95.6588 21.4072C95.7023 21.4535 95.7408 21.5023 95.7791 21.5562C96.2479 22.2111 97.0161 22.6014 97.8305 22.6014C99.2416 22.6014 100.392 21.4483 100.392 20.0333C100.392 18.6182 99.2416 17.4652 97.8305 17.4652C96.4194 17.4652 95.2695 18.6182 95.2695 20.0333C95.2695 20.529 95.4027 21.0015 95.6588 21.4098V21.4072Z" fill="#2F3F64"/>
<path d="M33.5382 41.7471C33.0644 41.7471 32.5957 41.5263 32.2935 41.1128C31.7942 40.4245 31.9478 39.4615 32.6341 38.9607L48.5326 27.3734C48.7939 27.1808 49.1114 27.0781 49.4367 27.0781C50.2844 27.0781 50.9836 27.7688 50.9836 28.6189C50.9836 29.1968 50.6711 29.7001 50.2049 29.9646L34.4422 41.4518C34.1707 41.6495 33.8532 41.7471 33.5407 41.7471H33.5382Z" fill="#2F3F64"/>
<path d="M78.6103 35.5841C77.7626 35.5841 77.0635 34.8933 77.0635 34.0433C77.0635 33.4654 77.3759 32.9621 77.842 32.6975L93.6049 21.2105C93.866 21.0178 94.1835 20.915 94.5089 20.915C95.3565 20.915 96.0557 21.6059 96.0557 22.456C96.0557 23.0337 95.7432 23.5372 95.2772 23.8016L79.5143 35.2888C79.2531 35.4814 78.9355 35.5841 78.6103 35.5841Z" fill="#2F3F64"/>
<path d="M71.5647 36.3019C71.3521 36.3019 71.137 36.2582 70.9295 36.1631L55.8505 29.3012C55.0771 28.9494 54.7365 28.0352 55.0873 27.2622C55.4382 26.4866 56.3499 26.1451 57.1207 26.4968L72.1998 33.3588C72.9732 33.7107 73.3138 34.6249 72.9629 35.3979C72.7069 35.9654 72.1459 36.3019 71.562 36.3019H71.5647Z" fill="#2F3F64"/>
</svg>
