<svg width="127" height="127" viewBox="0 0 127 127" fill="none" xmlns="http://www.w3.org/2000/svg">
<g id="chart-donut">
<g id="Group">
<path id="Vector" fill-rule="evenodd" clip-rule="evenodd" d="M63.05 28.4198V1.00977C28.78 1.00977 1 28.7898 1 63.0598H28.41C28.41 43.9298 43.9201 28.4198 63.05 28.4198Z" fill="#2F3F64"/>
<path id="Vector_2" d="M28.41 64.0598H1C0.45 64.0598 0 63.6098 0 63.0598C0 28.2998 28.28 0.00976562 63.05 0.00976562C63.6 0.00976562 64.05 0.459766 64.05 1.00977V28.4198C64.05 28.9698 63.6 29.4198 63.05 29.4198C44.5 29.4198 29.41 44.5098 29.41 63.0598C29.41 63.6098 28.96 64.0598 28.41 64.0598ZM2.01001 62.0598H27.42C27.94 43.1998 43.19 27.9598 62.05 27.4298V2.01978C29.18 2.54978 2.54001 29.1898 2.01001 62.0598Z" fill="#2F3F64"/>
</g>
<path id="Vector_3" fill-rule="evenodd" clip-rule="evenodd" d="M89.4601 85.4598C83.1101 92.9398 73.64 97.6898 63.05 97.6898C43.9201 97.6898 28.41 82.1798 28.41 63.0498H1C1 97.3198 28.78 125.1 63.05 125.1C81.2001 125.1 97.53 117.3 108.88 104.88L89.4601 85.4598Z" fill="#BCC5DC"/>
<path id="Vector_4" d="M63.05 126.1C28.2901 126.1 0 97.8198 0 63.0498C0 62.4998 0.45 62.0498 1 62.0498H28.41C28.96 62.0498 29.41 62.4998 29.41 63.0498C29.41 81.5998 44.5 96.6898 63.05 96.6898C72.94 96.6898 82.2801 92.3598 88.7001 84.8098C89.0301 84.4198 89.59 84.3398 90.02 84.6298C90.07 84.6698 90.1301 84.7098 90.1801 84.7598L109.6 104.18C109.99 104.57 109.99 105.2 109.6 105.59C109.21 105.98 108.58 105.98 108.19 105.59L89.53 86.9298C82.77 94.4298 73.1901 98.6998 63.0701 98.6998C43.7501 98.6998 27.9801 83.2498 27.4401 64.0598H2.03003C2.57003 97.2598 29.7401 124.11 63.0701 124.11C68.2201 124.11 73.34 123.47 78.28 122.2C78.81 122.07 79.36 122.38 79.5 122.92C79.64 123.45 79.31 124 78.78 124.14C73.68 125.45 68.3901 126.11 63.0801 126.11L63.05 126.1Z" fill="#2F3F64"/>
<g id="Group_2">
<path id="Vector_5" fill-rule="evenodd" clip-rule="evenodd" d="M125.1 63.0598C125.1 28.7898 97.3198 1.00977 63.0498 1.00977V28.4198C82.1798 28.4198 97.6898 43.9298 97.6898 63.0598C97.6898 71.6098 94.5898 79.4198 89.4598 85.4598L108.88 104.88C118.95 93.8498 125.1 79.1698 125.1 63.0598Z" fill="white"/>
<path id="Vector_6" d="M108.88 105.88C108.62 105.88 108.36 105.77 108.17 105.59L88.7598 86.18C88.5998 86.03 88.4997 85.82 88.4697 85.6C88.4297 85.32 88.5098 85.03 88.6998 84.81C93.8598 78.74 96.6898 71.01 96.6898 63.05C96.6898 44.5 81.5998 29.41 63.0498 29.41C62.4998 29.41 62.0498 28.96 62.0498 28.41V1C62.0498 0.45 62.4998 0 63.0498 0C97.8098 0 126.1 28.28 126.1 63.05C126.1 78.82 120.25 93.91 109.62 105.55C109.44 105.75 109.18 105.87 108.9 105.88H108.88ZM90.8098 85.4L108.84 103.43C118.69 92.27 124.1 77.98 124.1 63.06C124.1 29.73 97.2498 2.56002 64.0498 2.02002V27.43C83.2398 27.96 98.6898 43.74 98.6898 63.06C98.6898 71.19 95.8998 79.08 90.8098 85.4Z" fill="#2F3F64"/>
</g>
</g>
</svg>
