<svg width="126" height="128" viewBox="0 0 126 128" fill="none" xmlns="http://www.w3.org/2000/svg">
<g id="chart-pie">
<g id="Group">
<path id="Vector" fill-rule="evenodd" clip-rule="evenodd" d="M62.0752 3.00047V63.0505C62.0752 64.1505 62.9752 65.0505 64.0752 65.0505H122.765C123.865 65.0505 124.755 64.1605 124.765 63.0705C124.775 61.9805 124.785 60.9105 124.785 60.6605C124.785 26.7105 97.8052 1.96048 64.1052 1.01048C62.9852 0.980479 62.0752 1.90048 62.0752 3.01048V3.00047Z" fill="white"/>
<path id="Vector_2" d="M122.765 66.05H64.0752C62.4252 66.05 61.0752 64.7 61.0752 63.05V3C61.0752 2.19 61.4052 1.4 61.9852 0.839996C62.5652 0.279996 63.3353 0.01 64.1353 0C99.2753 1 125.785 27.08 125.785 60.65C125.785 60.9 125.785 62.01 125.775 63.07C125.765 64.71 124.415 66.05 122.775 66.05H122.765ZM64.0452 2C63.7952 2 63.5652 2.09999 63.3752 2.26999C63.1752 2.45999 63.0652 2.72 63.0652 3V63.05C63.0652 63.6 63.5152 64.05 64.0652 64.05H122.755C123.305 64.05 123.755 63.6 123.755 63.06C123.755 62.01 123.765 60.9 123.765 60.66C123.765 28.19 98.0952 2.97001 64.0652 2.01001C64.0652 2.01001 64.0452 2.01001 64.0352 2.01001L64.0452 2Z" fill="#2F3F64"/>
</g>
<path id="Vector_3" d="M122.765 66.05H64.0752C62.4252 66.05 61.0752 64.7 61.0752 63.05V3C61.0752 2.19 61.4052 1.4 61.9852 0.839996C62.5652 0.279996 63.3353 0.01 64.1353 0C84.9453 0.59 103.405 9.99999 114.765 25.8C115.085 26.25 114.985 26.87 114.535 27.2C114.085 27.52 113.465 27.42 113.135 26.97C102.135 11.68 84.2552 2.57 64.0652 2C63.7852 1.97 63.5552 2.08999 63.3652 2.26999C63.1652 2.45999 63.0552 2.72 63.0552 3V63.05C63.0552 63.6 63.5052 64.05 64.0552 64.05H122.745C123.295 64.05 123.745 63.6 123.745 63.06C123.745 62.01 123.755 60.9 123.755 60.66C123.755 60.11 124.205 59.66 124.755 59.66C125.305 59.66 125.755 60.11 125.755 60.66C125.755 60.91 125.755 62.02 125.745 63.08C125.735 64.72 124.385 66.06 122.745 66.06L122.765 66.05Z" fill="#2F3F64"/>
<path id="Vector_4" fill-rule="evenodd" clip-rule="evenodd" d="M56.2551 69.4398L18.465 31.6498C17.645 30.8298 16.315 30.8898 15.545 31.7498C6.03503 42.3198 0.435022 56.4698 1.03502 71.9398C2.19502 101.73 26.7151 125.77 56.5151 126.38C87.2451 127.01 112.545 103.2 114.315 73.0598C114.385 71.8998 113.485 70.9098 112.315 70.9098H59.7751C58.4451 70.9098 57.175 70.3798 56.235 69.4498L56.2551 69.4398Z" fill="#BCC5DC"/>
<path id="Vector_5" d="M57.7449 127.39C57.3349 127.39 56.9249 127.39 56.5049 127.38C26.0349 126.75 1.23491 102.42 0.0449064 71.9803C-0.545094 56.8503 4.69492 42.3203 14.8049 31.0803C15.3649 30.4603 16.1549 30.0903 16.9849 30.0703C17.8049 30.0203 18.5949 30.3603 19.1749 30.9403L56.9649 68.7303C57.7149 69.4803 58.7248 69.9003 59.7948 69.9003H112.335C113.165 69.9003 113.935 70.2303 114.505 70.8403C115.075 71.4503 115.375 72.2703 115.325 73.1103C115.295 73.6603 114.805 74.0603 114.265 74.0503C113.715 74.0203 113.295 73.5403 113.325 72.9903C113.345 72.7003 113.245 72.4203 113.045 72.2103C112.855 72.0103 112.605 71.9003 112.325 71.9003H59.7848C58.1848 71.9003 56.6748 71.2803 55.5448 70.1403L17.7549 32.3503C17.5649 32.1603 17.3449 32.0803 17.0249 32.0603C16.7349 32.0603 16.4749 32.1903 16.2749 32.4103C6.51489 43.2603 1.45489 57.2803 2.02489 71.8903C3.17489 101.27 27.1148 124.76 56.5348 125.37C71.9948 125.7 86.5249 119.8 97.3749 108.78C97.7649 108.39 98.3948 108.38 98.7848 108.78C99.1748 109.18 99.1848 109.8 98.7848 110.19C87.8248 121.31 73.2849 127.38 57.7149 127.38L57.7449 127.39Z" fill="#2F3F64"/>
<g id="Group_2">
<path id="Vector_6" fill-rule="evenodd" clip-rule="evenodd" d="M16.515 23.5094L54.2849 61.2794C55.5449 62.5394 57.695 61.6494 57.695 59.8694V6.07938C57.695 4.95938 56.775 4.03938 55.665 4.07938C40.495 4.58938 26.775 10.8094 16.555 20.6394C15.745 21.4194 15.705 22.7194 16.505 23.5194L16.515 23.5094Z" fill="#2F3F64"/>
<path id="Vector_7" d="M55.6846 62.8796C54.9146 62.8796 54.1646 62.5796 53.5846 61.9896L15.8146 24.2196C15.2446 23.6496 14.9346 22.8896 14.9446 22.0696C14.9446 21.2496 15.2846 20.4796 15.8846 19.9096C26.6446 9.55964 40.7646 3.57962 55.6446 3.07962C56.4746 3.03962 57.2145 3.34964 57.7945 3.90964C58.3745 4.47964 58.7146 5.26962 58.7146 6.07962V59.8696C58.7146 61.1096 58.0046 62.1696 56.8646 62.6396C56.4846 62.7996 56.0846 62.8796 55.6946 62.8796H55.6846ZM17.2246 22.7996L54.9946 60.5696C55.4346 61.0096 55.9446 60.8496 56.0846 60.7896C56.2246 60.7296 56.7046 60.4896 56.7046 59.8696V6.07962C56.7046 5.79962 56.5946 5.53964 56.3946 5.34964C56.2046 5.16964 55.9646 5.08962 55.7046 5.07962C41.3146 5.56962 27.6646 11.3496 17.2546 21.3596C17.0446 21.5596 16.9346 21.8196 16.9346 22.0996C16.9346 22.3696 17.0346 22.6196 17.2246 22.8096V22.7996Z" fill="#2F3F64"/>
</g>
</g>
</svg>
