<svg width="128" height="93" viewBox="0 0 128 93" fill="none" xmlns="http://www.w3.org/2000/svg">
<g id="chart-bar">
<path id="Vector" d="M126.41 92.8301H1C0.45 92.8301 0 92.3801 0 91.8301C0 91.2801 0.45 90.8301 1 90.8301H126.41C126.96 90.8301 127.41 91.2801 127.41 91.8301C127.41 92.3801 126.96 92.8301 126.41 92.8301Z" fill="#2F3F64"/>
<g id="Group">
<path id="Vector_2" d="M12.8496 51.7402H39.4996C40.5996 51.7402 41.4996 52.6402 41.4996 53.7402V91.8402H10.8496V53.7402C10.8496 52.6402 11.7496 51.7402 12.8496 51.7402Z" fill="#2F3F64"/>
<path id="Vector_3" d="M41.4996 92.8302H10.8496C10.2996 92.8302 9.84961 92.3802 9.84961 91.8302V53.7402C9.84961 52.0902 11.1996 50.7402 12.8496 50.7402H39.4996C41.1496 50.7402 42.4996 52.0902 42.4996 53.7402V91.8302C42.4996 92.3802 42.0496 92.8302 41.4996 92.8302ZM11.8496 90.8302H40.4996V53.7402C40.4996 53.1902 40.0496 52.7402 39.4996 52.7402H12.8496C12.2996 52.7402 11.8496 53.1902 11.8496 53.7402V90.8302Z" fill="#2F3F64"/>
</g>
<g id="Group_2">
<path id="Vector_4" d="M50.3701 24.8799H77.0201C78.1201 24.8799 79.0201 25.7799 79.0201 26.8799V91.8399H48.3701V26.8799C48.3701 25.7799 49.2701 24.8799 50.3701 24.8799Z" fill="#BCC5DC"/>
<path id="Vector_5" d="M79.0298 92.8301H48.3799C47.8299 92.8301 47.3799 92.3801 47.3799 91.8301V26.8701C47.3799 25.2201 48.7299 23.8701 50.3799 23.8701H77.0298C78.6798 23.8701 80.0298 25.2201 80.0298 26.8701V91.8301C80.0298 92.3801 79.5798 92.8301 79.0298 92.8301ZM49.3699 90.8301H78.0199V26.8701C78.0199 26.3201 77.5699 25.8701 77.0199 25.8701H50.3699C49.8199 25.8701 49.3699 26.3201 49.3699 26.8701V90.8301Z" fill="#2F3F64"/>
</g>
<g id="Group_3">
<path id="Vector_6" fill-rule="evenodd" clip-rule="evenodd" d="M116.55 3C116.55 1.9 115.65 1 114.55 1H87.9004C86.8004 1 85.9004 1.9 85.9004 3V91.83H116.55V24.87" fill="white"/>
<path id="Vector_7" d="M116.55 92.83H85.9004C85.3504 92.83 84.9004 92.38 84.9004 91.83V3C84.9004 1.35 86.2504 0 87.9004 0H114.55C116.2 0 117.55 1.35 117.55 3C117.55 3.55 117.1 4 116.55 4C116 4 115.55 3.55 115.55 3C115.55 2.45 115.1 2 114.55 2H87.9004C87.3504 2 86.9004 2.45 86.9004 3V90.83H115.55V24.87C115.55 24.32 116 23.87 116.55 23.87C117.1 23.87 117.55 24.32 117.55 24.87V91.83C117.55 92.38 117.1 92.83 116.55 92.83Z" fill="#2F3F64"/>
</g>
</g>
</svg>
