<svg width="99" height="99" viewBox="0 0 99 99" fill="none" xmlns="http://www.w3.org/2000/svg">
<g clip-path="url(#clip0_227_45)">
<mask id="mask0_227_45" style="mask-type:luminance" maskUnits="userSpaceOnUse" x="0" y="0" width="99" height="99">
<path d="M99 0H0V99H99V0Z" fill="white"/>
</mask>
<g mask="url(#mask0_227_45)">
<path d="M31.7959 41.4502H25.3564V52.7184H31.7959V41.4502Z" fill="#BCC5DC"/>
<path d="M60.7734 36.6211H54.334V52.7187H60.7734V36.6211Z" fill="#BCC5DC"/>
<path d="M31.6158 32.8065C31.7284 32.4846 31.7928 32.1466 31.7928 31.7924C31.7928 30.0217 30.344 28.5729 28.5731 28.5729C26.8023 28.5729 25.3533 30.0217 25.3533 31.7924C25.3533 33.5632 26.8023 35.012 28.5731 35.012C29.9898 35.012 31.1972 34.0783 31.6158 32.8065ZM31.7928 52.7193V41.4509H25.3533V52.7193H31.7928ZM45.7502 34.8348C45.1547 33.9817 44.1726 33.4022 43.0619 33.4022C41.6452 33.4022 40.4377 34.3359 40.0192 35.6075C39.9065 35.9294 39.8422 36.2676 39.8422 36.6218C39.8422 38.3925 41.291 39.8411 43.0619 39.8411C44.8326 39.8411 46.2816 38.3925 46.2816 36.6218C46.2816 35.9617 46.0884 35.35 45.7502 34.8348ZM60.7703 52.7193V36.6218H54.3308V52.7193H60.7703ZM54.862 28.7501C55.4577 29.6032 56.4397 30.1827 57.5505 30.1827C59.3213 30.1827 60.7703 28.7339 60.7703 26.9631C60.7703 25.1924 59.3213 23.7437 57.5505 23.7437C55.7796 23.7437 54.3308 25.1924 54.3308 26.9631C54.3308 27.6232 54.524 28.2349 54.862 28.7501ZM39.8422 52.7193H46.2816V46.2802H39.8422V52.7193ZM41.4519 9.25586C59.2409 9.25586 73.6491 23.6632 73.6491 41.4509C73.6491 59.2388 59.2409 73.6461 41.4519 73.6461C23.663 73.6461 9.25488 59.2388 9.25488 41.4509C9.25488 23.6632 23.663 9.25586 41.4519 9.25586Z" fill="white"/>
<path d="M46.285 36.6229C46.285 38.3936 44.8362 39.8424 43.0653 39.8424C41.2945 39.8424 39.8457 38.3936 39.8457 36.6229C39.8457 36.2687 39.9101 35.9307 40.0227 35.6088C40.4412 34.337 41.6487 33.4033 43.0653 33.4033C44.1761 33.4033 45.1581 33.9828 45.7538 34.8361C46.0919 35.3512 46.285 35.9628 46.285 36.6229Z" fill="#BCC5DC"/>
<path d="M57.5537 23.7432C59.3246 23.7432 60.7734 25.1918 60.7734 26.9625C60.7734 28.7333 59.3246 30.1821 57.5537 30.1821C56.443 30.1821 55.4609 29.6026 54.8653 28.7495C54.5272 28.2344 54.334 27.6226 54.334 26.9625C54.334 25.1918 55.783 23.7432 57.5537 23.7432Z" fill="#FEC95C"/>
<path d="M28.5762 28.5742C30.3469 28.5742 31.7959 30.023 31.7959 31.7938C31.7959 32.1479 31.7314 32.4859 31.6187 32.808C31.2002 34.0796 29.9927 35.0133 28.5762 35.0133C26.8053 35.0133 25.3564 33.5645 25.3564 31.7938C25.3564 30.023 26.8053 28.5742 28.5762 28.5742Z" fill="#FEC95C"/>
<path d="M46.285 46.2812H39.8457V52.7202H46.285V46.2812Z" fill="#FEC95C"/>
<path d="M96.3817 89.5505C98.2652 91.4339 98.2652 94.4925 96.3817 96.3759C95.4478 97.3256 94.2083 97.7924 92.9687 97.7924C91.7292 97.7924 90.4896 97.3256 89.5558 96.3759L66.2935 73.1148C59.4516 78.4913 50.8227 81.6948 41.4534 81.6948C19.2212 81.6948 1.20703 63.6816 1.20703 41.451C1.20703 19.2202 19.2212 1.20703 41.4534 1.20703C63.6855 1.20703 81.6998 19.2202 81.6998 41.451C81.6998 50.8196 78.4961 59.448 73.1192 66.2894L96.3817 89.5505ZM73.6504 41.451C73.6504 23.6631 59.2423 9.25582 41.4534 9.25582C23.6644 9.25582 9.25631 23.6631 9.25631 41.451C9.25631 59.2387 23.6644 73.6461 41.4534 73.6461C59.2423 73.6461 73.6504 59.2387 73.6504 41.451Z" fill="#FEC95C"/>
<path d="M41.4523 74.8546C23.0337 74.8546 8.04785 59.8698 8.04785 41.4522C8.04785 23.0346 23.0337 8.0498 41.4523 8.0498C59.871 8.0498 74.8567 23.0346 74.8567 41.4522C74.8567 59.8698 59.871 74.8546 41.4523 74.8546ZM41.4523 10.4644C24.3637 10.4644 10.4626 24.3646 10.4626 41.4522C10.4626 58.5398 24.3637 72.44 41.4523 72.44C58.5409 72.44 72.442 58.5398 72.442 41.4522C72.442 24.3646 58.5409 10.4644 41.4523 10.4644Z" fill="#2F3F64"/>
<path d="M92.969 99C91.3391 99 89.8218 98.3681 88.695 97.2233L66.1871 74.7168C59.0031 80.0773 50.475 82.9024 41.4537 82.9024C30.378 82.9024 19.9683 78.5923 12.1403 70.7628C4.31039 62.9355 0 52.5263 0 41.4513C0 30.3761 4.31039 19.9669 12.1403 12.1396C19.9683 4.31012 30.378 0 41.4537 0C52.5296 0 62.9392 4.31012 70.7672 12.1396C78.5951 19.9669 82.9076 30.3781 82.9076 41.4513C82.9076 50.4719 80.0802 58.9996 74.7214 66.183L97.2352 88.6955C99.5877 91.0477 99.5877 94.8749 97.2352 97.2272C96.1164 98.3662 94.5971 98.9979 92.969 98.9979V99ZM66.2938 71.9078C66.6036 71.9078 66.9136 72.0266 67.1471 72.262L90.4094 95.5229C91.0856 96.2111 91.9932 96.5854 92.969 96.5854C93.945 96.5854 94.8526 96.2111 95.5207 95.529C96.9394 94.1104 96.9394 91.8145 95.5287 90.4039L72.2664 67.143C71.8337 66.7103 71.7934 66.0241 72.1719 65.5433C77.6172 58.6152 80.4947 50.2848 80.4947 41.4513C80.4947 31.022 76.4338 21.2186 69.0627 13.8459C61.6917 6.47323 51.8835 2.41463 41.4537 2.41463C31.0239 2.41463 21.22 6.47525 13.8468 13.8459C6.47363 21.2166 2.41478 31.022 2.41478 41.4513C2.41478 51.8804 6.47564 61.6838 13.8468 69.0566C21.2179 76.4292 31.0239 80.4879 41.4537 80.4879C50.2879 80.4879 58.6188 77.6104 65.5472 72.1654C65.7666 71.9923 66.0303 71.9078 66.2938 71.9078Z" fill="#2F3F64"/>
<path d="M60.7737 53.9264C60.1076 53.9264 59.5664 53.3851 59.5664 52.7191V37.8288H55.5417V52.7191C55.5417 53.3851 55.0004 53.9264 54.3344 53.9264C53.6682 53.9264 53.127 53.3851 53.127 52.7191V36.6215C53.127 35.9555 53.6682 35.4141 54.3344 35.4141H60.7737C61.4399 35.4141 61.9811 35.9555 61.9811 36.6215V52.7191C61.9811 53.3851 61.4399 53.9264 60.7737 53.9264Z" fill="#2F3F64"/>
<path d="M31.7963 53.9271C31.1303 53.9271 30.5889 53.3859 30.5889 52.7198V42.6589H26.5643V52.7198C26.5643 53.3859 26.0229 53.9271 25.3569 53.9271C24.6908 53.9271 24.1494 53.3859 24.1494 52.7198V41.4516C24.1494 40.7856 24.6908 40.2441 25.3569 40.2441H31.7963C32.4623 40.2441 33.0036 40.7856 33.0036 41.4516V52.7198C33.0036 53.3859 32.4623 53.9271 31.7963 53.9271Z" fill="#2F3F64"/>
<path d="M46.2865 53.9269C45.6203 53.9269 45.0791 53.3857 45.0791 52.7196V47.488H41.0544V52.7196C41.0544 53.3857 40.5131 53.9269 39.8471 53.9269C39.1811 53.9269 38.6396 53.3857 38.6396 52.7196V46.2807C38.6396 45.6147 39.1811 45.0732 39.8471 45.0732H46.2865C46.9526 45.0732 47.4938 45.6147 47.4938 46.2807V52.7196C47.4938 53.3857 46.9526 53.9269 46.2865 53.9269Z" fill="#2F3F64"/>
<path d="M28.5766 36.2179C26.1356 36.2179 24.1494 34.232 24.1494 31.7911C24.1494 29.3504 26.1356 27.3643 28.5766 27.3643C31.0175 27.3643 33.0036 29.3504 33.0036 31.7911C33.0036 32.262 32.9232 32.7328 32.7622 33.1936C32.1626 35.0026 30.4803 36.2179 28.5766 36.2179ZM28.5766 29.779C27.4678 29.779 26.5643 30.6825 26.5643 31.7911C26.5643 32.8999 27.4678 33.8034 28.5766 33.8034C29.4258 33.8034 30.2065 33.2379 30.4721 32.4269C30.4741 32.4189 30.4762 32.4129 30.4803 32.4049C30.5547 32.1956 30.5889 31.9944 30.5889 31.789C30.5889 30.6804 29.6854 29.777 28.5766 29.777V29.779Z" fill="#2F3F64"/>
<path d="M43.0668 41.048C40.6258 41.048 38.6396 39.062 38.6396 36.6212C38.6396 36.1504 38.7202 35.6795 38.8812 35.2188C39.4808 33.4098 41.1631 32.1943 43.0668 32.1943C44.5177 32.1943 45.8941 32.9228 46.7454 34.1441C46.7513 34.1542 46.7573 34.1624 46.7655 34.1723C47.2424 34.8987 47.4938 35.7459 47.4938 36.6212C47.4938 39.062 45.5077 41.048 43.0668 41.048ZM43.0668 34.6091C42.2176 34.6091 41.4367 35.1744 41.1711 35.9854C41.1691 35.9934 41.1672 35.9995 41.1631 36.0075C41.0887 36.2168 41.0544 36.4181 41.0544 36.6232C41.0544 37.732 41.958 38.6355 43.0668 38.6355C44.1756 38.6355 45.0791 37.732 45.0791 36.6232C45.0791 36.2248 44.9664 35.8425 44.7551 35.5125C44.3547 34.947 43.7248 34.611 43.0668 34.611V34.6091Z" fill="#2F3F64"/>
<path d="M57.5541 31.3898C56.1031 31.3898 54.7268 30.6615 53.8756 29.44C53.8695 29.4299 53.8635 29.4219 53.8555 29.4119C53.3785 28.6854 53.127 27.8383 53.127 26.963C53.127 24.5223 55.1131 22.5361 57.5541 22.5361C59.995 22.5361 61.9811 24.5223 61.9811 26.963C61.9811 29.4038 59.995 31.3898 57.5541 31.3898ZM55.8657 28.0738C56.2661 28.6391 56.896 28.9752 57.5541 28.9752C58.6628 28.9752 59.5664 28.0718 59.5664 26.963C59.5664 25.8543 58.6628 24.9509 57.5541 24.9509C56.4453 24.9509 55.5417 25.8543 55.5417 26.963C55.5417 27.3614 55.6544 27.7437 55.8657 28.0738Z" fill="#2F3F64"/>
<path d="M60.7736 60.3657H25.3569C24.6908 60.3657 24.1494 59.8245 24.1494 59.1585C24.1494 58.4924 24.6908 57.9512 25.3569 57.9512H60.7736C61.4398 57.9512 61.9811 58.4924 61.9811 59.1585C61.9811 59.8245 61.4398 60.3657 60.7736 60.3657Z" fill="#2F3F64"/>
<path d="M40.0222 36.8144C39.8954 36.8144 39.7665 36.7943 39.6398 36.7519L31.2363 33.9509C30.6044 33.7398 30.2623 33.0555 30.4736 32.4238C30.6849 31.7919 31.3691 31.4498 32.001 31.6611L40.4043 34.4621C41.0362 34.6735 41.3785 35.3576 41.1672 35.9893C40.998 36.4944 40.5272 36.8144 40.0222 36.8144Z" fill="#2F3F64"/>
<path d="M45.7555 36.0428C45.3651 36.0428 44.9828 35.8536 44.7494 35.5054C44.379 34.9502 44.5281 34.2015 45.0835 33.8313L54.1952 27.7464C54.7507 27.3762 55.4991 27.5252 55.8695 28.0804C56.2398 28.6359 56.0907 29.3843 55.5355 29.7546L46.4236 35.8395C46.2184 35.9764 45.9849 36.0428 45.7536 36.0428H45.7555Z" fill="#2F3F64"/>
</g>
</g>
<defs>
<clipPath id="clip0_227_45">
<rect width="99" height="99" fill="white"/>
</clipPath>
</defs>
</svg>
