<svg width="74" height="92" viewBox="0 0 74 92" fill="none" xmlns="http://www.w3.org/2000/svg">
<g clip-path="url(#clip0_227_49)">
<mask id="mask0_227_49" style="mask-type:luminance" maskUnits="userSpaceOnUse" x="0" y="0" width="74" height="92">
<path d="M73.3125 0H0V92H73.3125V0Z" fill="white"/>
</mask>
<g mask="url(#mask0_227_49)">
<path d="M5.55451 75.9195C3.09594 75.9195 1.11133 73.9149 1.11133 71.4316V47.4967C1.11133 45.0134 3.09594 43.0088 5.55451 43.0088H20.3652L26.2894 48.9925V43.0088H67.7591C70.2177 43.0088 72.2023 45.0134 72.2023 47.4967V71.4316C72.2023 73.9149 70.2177 75.9195 67.7591 75.9195H61.8349L47.0242 90.8788V75.9195H5.55451Z" fill="white"/>
<path d="M72.2023 5.60987V29.5448C72.2023 32.0281 70.2177 34.0327 67.7591 34.0327H26.2894V43.0083H20.3652L11.4788 34.0327H5.55451C3.09594 34.0327 1.11133 32.0281 1.11133 29.5448V5.60987C1.11133 3.12663 3.09594 1.12207 5.55451 1.12207H67.7591C70.2177 1.12207 72.2023 3.12663 72.2023 5.60987Z" fill="#FEC95C"/>
<path d="M26.2875 43.0088V48.9925L20.3633 43.0088H26.2875Z" fill="#FEC95C"/>
<path d="M26.2898 50.1138C26.001 50.1138 25.716 49.9997 25.505 49.7847L11.0202 35.1545H5.55691C2.49482 35.1545 0.00293072 32.6376 0.00293072 29.5446V5.60976C0.0010794 2.5169 2.49296 0 5.55505 0H67.7596C70.8217 0 73.3136 2.5169 73.3136 5.60976V29.5446C73.3136 32.6376 70.8217 35.1545 67.7596 35.1545H27.4007V48.9919C27.4007 49.4463 27.1303 49.8539 26.7158 50.0279C26.5788 50.0858 26.4343 50.1138 26.2917 50.1138H26.2898ZM5.55505 2.24391C3.71669 2.24391 2.22267 3.75479 2.22267 5.60976V29.5446C2.22267 31.3997 3.71669 32.9106 5.55505 32.9106H11.4793C11.7737 32.9106 12.0569 33.0284 12.2643 33.2397L25.1791 46.2842V34.0344C25.1791 33.4154 25.6772 32.9124 26.2898 32.9124H67.7596C69.5961 32.9124 71.092 31.4016 71.092 29.5465V5.60976C71.092 3.75479 69.5961 2.24391 67.7596 2.24391H5.55505Z" fill="#2F3F64"/>
<path d="M67.7572 77.0412H61.833C61.2202 77.0412 60.7222 76.5381 60.7222 75.9192C60.7222 75.3003 61.2202 74.7973 61.833 74.7973H67.7572C69.5938 74.7973 71.0896 73.2863 71.0896 71.4314V47.4964C71.0896 45.6415 69.5938 44.1305 67.7572 44.1305H33.6928C33.0801 44.1305 32.582 43.6275 32.582 43.0087C32.582 42.3897 33.0801 41.8867 33.6928 41.8867H67.7572C70.8194 41.8867 73.3111 44.4036 73.3111 47.4964V71.4314C73.3111 74.5243 70.8194 77.0412 67.7572 77.0412Z" fill="#2F3F64"/>
<path d="M47.0236 77.0412H5.55398C2.49188 77.0412 0 74.5243 0 71.4314V47.4964C0 44.4036 2.49188 41.8867 5.55398 41.8867H11.4782C12.091 41.8867 12.589 42.3897 12.589 43.0087C12.589 43.6275 12.091 44.1305 11.4782 44.1305H5.55398C3.71561 44.1305 2.22158 45.6415 2.22158 47.4964V71.4314C2.22158 73.2863 3.71561 74.7973 5.55398 74.7973H47.0236C47.6365 74.7973 48.1344 75.3003 48.1344 75.9192C48.1344 76.5381 47.6365 77.0412 47.0236 77.0412Z" fill="#2F3F64"/>
<path d="M47.0249 92.0002C46.8824 92.0002 46.738 91.972 46.601 91.9141C46.1863 91.7401 45.916 91.3307 45.916 90.8782V75.9189C45.916 75.2999 46.414 74.7969 47.0268 74.7969C47.6396 74.7969 48.1377 75.2999 48.1377 75.9189V88.1687L61.0525 75.1241C61.4857 74.6865 62.1892 74.6865 62.6224 75.1241C63.0556 75.5617 63.0556 76.2722 62.6224 76.7098L47.8118 91.6691C47.5989 91.8842 47.3156 91.9983 47.0268 91.9983L47.0249 92.0002Z" fill="#2F3F64"/>
</g>
</g>
<defs>
<clipPath id="clip0_227_49">
<rect width="73.3125" height="92" fill="white"/>
</clipPath>
</defs>
</svg>
