<svg width="99" height="96" viewBox="0 0 99 96" fill="none" xmlns="http://www.w3.org/2000/svg">
<g clip-path="url(#clip0_227_20)">
<mask id="mask0_227_20" style="mask-type:luminance" maskUnits="userSpaceOnUse" x="0" y="0" width="99" height="96">
<path d="M99 0H0V95.7H99V0Z" fill="white"/>
</mask>
<g mask="url(#mask0_227_20)">
<path d="M96.6451 59.6866C96.6451 46.9786 87.3111 36.1517 74.3939 32.4355C74.3939 33.1236 74.4883 33.7661 74.4883 34.4083C74.4883 52.1167 58.3651 66.5222 38.4239 66.5222C36.6323 66.5222 34.8411 66.3846 33.0967 66.1094C36.3495 78.8632 49.1723 88.4058 64.4939 88.4058C68.6895 88.4058 72.6495 87.6719 76.3267 86.3872L88.2067 93.4063L86.8867 80.3314C92.9211 75.1016 96.6923 67.8069 96.6923 59.6866H96.6451Z" fill="#BCC5DC"/>
<path d="M11.8779 74.413C11.4536 74.413 10.9822 74.2754 10.605 74.0461C9.85073 73.587 9.42645 72.7614 9.52073 71.8898L10.935 58.3559C3.86358 51.8872 0.0450183 43.4458 0.0450183 34.3622C-0.00212467 15.4148 17.2522 0 38.4194 0C59.5866 0 76.8406 15.4148 76.8406 34.4081C76.8406 53.4013 59.5866 68.8159 38.4194 68.8159C34.035 68.8159 29.6507 68.1278 25.455 66.7973L13.0565 74.1378C12.6793 74.3671 12.255 74.4589 11.8307 74.4589L11.8779 74.413ZM15.6493 58.3559L14.6593 67.8067L23.9465 62.3014C24.5593 61.9344 25.3136 61.8427 25.9736 62.1179C29.9807 63.5402 34.1766 64.2282 38.3722 64.2282C56.9466 64.2282 72.0794 50.8319 72.0794 34.4081C72.0794 17.9839 56.9934 4.58773 38.4194 4.58773C19.845 4.58773 4.71217 17.938 4.71217 34.4081C4.71217 42.5281 8.3893 50.1438 14.9893 55.8327C15.7436 56.4749 15.9793 57.4843 15.6493 58.3559Z" fill="#2F3F64"/>
<path d="M88.2042 95.7004C87.7798 95.7004 87.3558 95.6087 86.9786 95.3793L76.0414 88.9107C72.2698 90.1033 68.357 90.6999 64.4914 90.6999C48.2742 90.6999 34.4614 80.8362 30.8314 66.6601C30.5014 65.4213 31.3028 64.1828 32.5285 63.8617C33.8486 63.5403 35.0742 64.3204 35.4042 65.513C38.5158 77.6247 50.443 86.0661 64.4914 86.0661C68.2158 86.0661 71.9398 85.4239 75.5229 84.1851C76.1829 83.9557 76.937 84.0016 77.5498 84.3686L85.4229 89.0024L84.5742 80.5152C84.4329 79.2763 85.3758 78.1293 86.6958 77.9916C87.9686 77.854 89.147 78.7718 89.2886 80.0561L90.6558 93.1314C90.7498 94.0029 90.3258 94.8289 89.5714 95.2876C89.1942 95.517 88.7698 95.6546 88.2986 95.6546L88.2042 95.7004Z" fill="#2F3F64"/>
<path d="M86.837 82.6241C85.9885 82.6241 85.1398 82.1651 84.7157 81.3853C84.197 80.3303 84.527 79.1373 85.4698 78.4952C91.1742 73.4943 94.3329 66.7963 94.3329 59.7314C94.3329 48.3077 86.0829 38.2147 73.7785 34.6824C72.5529 34.3151 71.7985 33.0307 72.1757 31.8378C72.5529 30.645 73.8257 29.9569 75.0985 30.278C89.4298 34.4068 99.047 46.2433 99.047 59.7314C99.047 68.2186 95.2757 76.1551 88.4398 82.0733C88.2985 82.211 88.1098 82.3027 87.9213 82.3944C87.5913 82.5782 87.2142 82.6241 86.837 82.6241Z" fill="#2F3F64"/>
<path d="M21.5885 38.1248C19.6085 38.1248 18.0527 36.5648 18.0527 34.6838C18.0527 32.803 19.6556 31.2432 21.5885 31.2432C23.5213 31.2432 25.1242 32.803 25.1242 34.6838C25.1242 36.5648 23.5213 38.1248 21.5885 38.1248Z" fill="#FEC95C"/>
<path d="M38.4243 38.1248C36.4443 38.1248 34.8887 36.5648 34.8887 34.6838C34.8887 32.803 36.4915 31.2432 38.4243 31.2432C40.3571 31.2432 41.9599 32.803 41.9599 34.6838C41.9599 36.5648 40.3571 38.1248 38.4243 38.1248Z" fill="#FEC95C"/>
<path d="M55.2524 38.1248C53.2724 38.1248 51.7168 36.5648 51.7168 34.6838C51.7168 32.803 53.3196 31.2432 55.2524 31.2432C57.1852 31.2432 58.788 32.803 58.788 34.6838C58.788 36.5648 57.1852 38.1248 55.2524 38.1248Z" fill="#FEC95C"/>
</g>
</g>
<defs>
<clipPath id="clip0_227_20">
<rect width="99" height="95.7" fill="white"/>
</clipPath>
</defs>
</svg>
