<svg width="125" height="125" viewBox="0 0 125 125" fill="none" xmlns="http://www.w3.org/2000/svg">
<g clip-path="url(#clip0_227_48)">
<mask id="mask0_227_48" style="mask-type:luminance" maskUnits="userSpaceOnUse" x="0" y="0" width="125" height="125">
<path d="M125 0H0V125H125V0Z" fill="white"/>
</mask>
<g mask="url(#mask0_227_48)">
<path d="M84.7955 54.3699H34.9584C27.7226 54.3699 21.8486 48.4553 21.8486 41.1586C21.8486 34.6748 26.503 29.2683 32.621 28.1504C32.8445 28.1097 33.0275 28.0692 33.251 28.0692C32.6616 26.1586 32.3364 24.126 32.3364 22.0122C32.3364 10.6911 41.4421 1.52441 52.6616 1.52441C61.9706 1.52441 69.7957 7.80491 72.2145 16.4227C73.9827 15.3456 76.0355 14.7358 78.2307 14.7358C84.7555 14.7358 90.0396 20.061 90.0396 26.626C90.0396 28.0692 89.7755 29.4716 89.288 30.7724C89.958 30.6504 90.6496 30.5894 91.3405 30.5894C97.8646 30.5894 103.15 35.9147 103.15 42.4797C103.15 49.0447 97.8646 54.3699 91.3405 54.3699H84.7955Z" fill="#FEC95C"/>
<path d="M52.3385 84.8574H66.5662C68.8019 84.8574 70.6312 86.6866 70.6312 88.9224V115.345H48.2734V88.9224C48.2734 86.6866 50.1028 84.8574 52.3385 84.8574Z" fill="#BCC5DC"/>
<path d="M119.411 97.0523V115.345H82.8252V97.0523C82.8252 94.8165 84.6547 92.9873 86.8905 92.9873H115.346C117.581 92.9873 119.411 94.8165 119.411 97.0523Z" fill="#BCC5DC"/>
<path d="M38.1107 95.0219V111.282C38.1107 113.518 36.2815 115.347 34.0457 115.347H5.59043C3.35466 115.347 1.52539 113.518 1.52539 111.282V95.0219C1.52539 92.7861 3.35466 90.9561 5.59043 90.9561H34.0457C36.2815 90.9561 38.1107 92.7861 38.1107 95.0219Z" fill="#BCC5DC"/>
<path d="M70.6312 119.411C70.6312 121.647 68.8019 123.476 66.5662 123.476H52.3385C50.1028 123.476 48.2734 121.647 48.2734 119.411V115.346H70.6312V119.411Z" fill="#FEC95C"/>
<path d="M123.475 119.411C123.475 121.647 121.646 123.476 119.41 123.476H82.8248C80.589 123.476 78.7598 121.647 78.7598 119.411V115.346H123.475V119.411Z" fill="#FEC95C"/>
<path d="M91.3414 55.8943H70.6301C69.7891 55.8943 69.1057 55.2109 69.1057 54.3699C69.1057 53.529 69.7891 52.8455 70.6301 52.8455H91.3414C97.0122 52.8455 101.626 48.1962 101.626 42.4797C101.626 36.7632 97.0122 32.1138 91.3414 32.1138C90.7372 32.1138 90.1397 32.1672 89.563 32.2713C89.0247 32.3679 88.473 32.1698 88.1197 31.748C87.7672 31.3262 87.6705 30.7495 87.863 30.2362C88.298 29.0777 88.5189 27.8633 88.5189 26.626C88.5189 20.9096 83.9047 16.2602 78.2343 16.2602C76.3898 16.2602 74.5834 16.7657 73.0107 17.7236C72.6042 17.9726 72.1037 18.0158 71.659 17.8404C71.2144 17.6652 70.8791 17.2942 70.7495 16.8343C68.4705 8.717 61.034 3.04878 52.6652 3.04878C42.2993 3.04878 33.8644 11.5549 33.8644 22.0122C33.8644 23.9126 34.1489 25.7977 34.7104 27.6194C34.8527 28.0818 34.7688 28.5848 34.4792 28.9736C34.1921 29.3623 33.7373 29.5935 33.252 29.5935C33.2012 29.5935 33.1224 29.6087 32.9878 29.6316L32.8938 29.6494C27.378 30.658 23.374 35.498 23.374 41.1585C23.374 47.6017 28.5722 52.8455 34.9594 52.8455H50.3049C51.1459 52.8455 51.8293 53.529 51.8293 54.3699C51.8293 55.2109 51.1459 55.8943 50.3049 55.8943H34.9594C26.8903 55.8943 20.3252 49.2835 20.3252 41.1585C20.3252 34.3699 24.906 28.5137 31.3542 26.8674C30.9934 25.2744 30.813 23.6483 30.813 22.0122C30.813 9.8755 40.6149 0 52.6626 0C61.7759 0 69.9365 5.77744 73.1098 14.2531C74.7231 13.5671 76.4634 13.2114 78.2317 13.2114C85.5847 13.2114 91.5647 19.2302 91.5647 26.626C91.5647 27.4492 91.4889 28.2647 91.3414 29.0651C98.6939 29.0651 104.675 35.0838 104.675 42.4797C104.675 49.8755 98.6939 55.8943 91.3414 55.8943Z" fill="#2F3F64"/>
<path d="M34.0447 116.871H5.58943C2.50763 116.871 0 114.363 0 111.282V95.0216C0 91.94 2.50763 89.4316 5.58943 89.4316H34.0447C37.1265 89.4316 39.6342 91.94 39.6342 95.0216V111.282C39.6342 114.363 37.1265 116.871 34.0447 116.871ZM5.58943 92.4808C4.18953 92.4808 3.04878 93.6216 3.04878 95.0216V111.282C3.04878 112.682 4.18953 113.822 5.58943 113.822H34.0447C35.4446 113.822 36.5853 112.682 36.5853 111.282V95.0216C36.5853 93.6216 35.4446 92.4808 34.0447 92.4808H5.58943Z" fill="#2F3F64"/>
<path d="M29.9795 125H9.65425C8.81333 125 8.12988 124.317 8.12988 123.476C8.12988 122.635 8.81333 121.952 9.65425 121.952H29.9795C30.8204 121.952 31.5038 122.635 31.5038 123.476C31.5038 124.317 30.8204 125 29.9795 125Z" fill="#2F3F64"/>
<path d="M19.8173 125C18.9764 125 18.293 124.316 18.293 123.475V115.345C18.293 114.505 18.9764 113.821 19.8173 113.821C20.6583 113.821 21.3417 114.505 21.3417 115.345V123.475C21.3417 124.316 20.6583 125 19.8173 125Z" fill="#2F3F64"/>
<path d="M66.565 125H52.3375C49.2556 125 46.748 122.492 46.748 119.411V88.9222C46.748 85.8405 49.2556 83.333 52.3375 83.333H66.565C69.6469 83.333 72.1546 85.8405 72.1546 88.9222V119.411C72.1546 122.492 69.6469 125 66.565 125ZM52.3375 86.3822C50.9375 86.3822 49.7968 87.5222 49.7968 88.9222V119.411C49.7968 120.811 50.9375 121.951 52.3375 121.951H66.565C67.965 121.951 69.1057 120.811 69.1057 119.411V88.9222C69.1057 87.5222 67.965 86.3822 66.565 86.3822H52.3375Z" fill="#2F3F64"/>
<path d="M119.411 125H82.8257C79.7439 125 77.2363 122.492 77.2363 119.41V115.345C77.2363 114.505 77.9197 113.821 78.7607 113.821H123.476C124.317 113.821 125.001 114.505 125.001 115.345V119.41C125.001 122.492 122.493 125 119.411 125ZM80.2851 116.87V119.41C80.2851 120.81 81.4258 121.951 82.8257 121.951H119.411C120.811 121.951 121.952 120.81 121.952 119.41V116.87H80.2851Z" fill="#2F3F64"/>
<path d="M119.41 116.871C118.57 116.871 117.886 116.187 117.886 115.346V97.053C117.886 95.653 116.745 94.5122 115.345 94.5122H86.8904C85.4904 94.5122 84.3495 95.653 84.3495 97.053V115.346C84.3495 116.187 83.6662 116.871 82.8252 116.871C81.9843 116.871 81.3008 116.187 81.3008 115.346V97.053C81.3008 93.9714 83.8087 91.4639 86.8904 91.4639H115.345C118.427 91.4639 120.935 93.9714 120.935 97.053V115.346C120.935 116.187 120.251 116.871 119.41 116.871Z" fill="#2F3F64"/>
<path d="M70.6301 116.87H48.2724C47.4315 116.87 46.748 116.186 46.748 115.345C46.748 114.505 47.4315 113.821 48.2724 113.821H70.6301C71.4711 113.821 72.1546 114.505 72.1546 115.345C72.1546 116.186 71.4711 116.87 70.6301 116.87Z" fill="#2F3F64"/>
<path d="M60.4671 92.4808H58.4345C57.5936 92.4808 56.9102 91.7975 56.9102 90.9566C56.9102 90.1158 57.5936 89.4316 58.4345 89.4316H60.4671C61.308 89.4316 61.9914 90.1158 61.9914 90.9566C61.9914 91.7975 61.308 92.4808 60.4671 92.4808Z" fill="#2F3F64"/>
<path d="M60.4688 78.2518C59.6278 78.2518 58.9443 77.5683 58.9443 76.7274V44.207C58.9443 43.366 59.6278 42.6826 60.4688 42.6826C61.3097 42.6826 61.9932 43.366 61.9932 44.207V76.7274C61.9932 77.5683 61.3097 78.2518 60.4688 78.2518Z" fill="#2F3F64"/>
<path d="M101.118 82.3165C100.277 82.3165 99.5936 81.633 99.5936 80.7921V70.6295C99.5936 69.2296 98.4528 68.0889 97.0528 68.0889H23.8824C22.4825 68.0889 21.3417 69.2296 21.3417 70.6295V78.7595C21.3417 79.6005 20.6583 80.284 19.8173 80.284C18.9764 80.284 18.293 79.6005 18.293 78.7595V70.6295C18.293 67.5477 20.8006 65.04 23.8824 65.04H97.0528C100.135 65.04 102.643 67.5477 102.643 70.6295V80.7921C102.643 81.633 101.959 82.3165 101.118 82.3165Z" fill="#2F3F64"/>
</g>
</g>
<defs>
<clipPath id="clip0_227_48">
<rect width="125" height="125" fill="white"/>
</clipPath>
</defs>
</svg>
