<svg width="126" height="126" viewBox="0 0 126 126" fill="none" xmlns="http://www.w3.org/2000/svg">
<g clip-path="url(#clip0_202_73)">
<mask id="mask0_202_73" style="mask-type:luminance" maskUnits="userSpaceOnUse" x="0" y="0" width="126" height="126">
<path d="M126 0H0V126H126V0Z" fill="white"/>
</mask>
<g mask="url(#mask0_202_73)">
<path d="M85.4751 54.8044H35.2391C27.9454 54.8044 22.0244 48.8424 22.0244 41.4874C22.0244 34.9518 26.7162 29.502 32.883 28.3752C33.1083 28.3342 33.2928 28.2932 33.518 28.2932C32.924 26.3674 32.5961 24.3186 32.5961 22.1878C32.5961 10.7761 41.7747 1.53613 53.0839 1.53613C62.4674 1.53613 70.3551 7.86686 72.7931 16.5536C74.5757 15.4679 76.645 14.8532 78.8575 14.8532C85.4341 14.8532 90.7611 20.221 90.7611 26.8386C90.7611 28.2932 90.4946 29.7068 90.0029 31.0181C90.6791 30.8952 91.3756 30.8337 92.0722 30.8337C98.6488 30.8337 103.976 36.2014 103.976 42.819C103.976 49.4366 98.6488 54.8044 92.0722 54.8044H85.4751Z" fill="#FEC95C"/>
<path d="M52.7568 85.5361H67.0983C69.3519 85.5361 71.1959 87.38 71.1959 89.6337V116.268H48.6592V89.6337C48.6592 87.38 50.5032 85.5361 52.7568 85.5361Z" fill="white"/>
<path d="M120.366 97.83V116.269H83.4883V97.83C83.4883 95.5764 85.3321 93.7324 87.5859 93.7324H116.269C118.522 93.7324 120.366 95.5764 120.366 97.83Z" fill="white"/>
<path d="M38.4142 95.7812V112.172C38.4142 114.425 36.5703 116.269 34.3166 116.269H5.6337C3.38003 116.269 1.53613 114.425 1.53613 112.172V95.7812C1.53613 93.5276 3.38003 91.6836 5.6337 91.6836H34.3166C36.5703 91.6836 38.4142 93.5276 38.4142 95.7812Z" fill="#BCC5DC"/>
<path d="M71.1959 120.367C71.1959 122.621 69.3519 124.465 67.0983 124.465H52.7568C50.5032 124.465 48.6592 122.621 48.6592 120.367V116.27H71.1959V120.367Z" fill="#BCC5DC"/>
<path d="M124.463 120.367C124.463 122.621 122.619 124.465 120.365 124.465H83.4872C81.2335 124.465 79.3896 122.621 79.3896 120.367V116.27H124.463V120.367Z" fill="#BCC5DC"/>
<path d="M92.0727 56.3414H71.1955C70.3478 56.3414 69.6589 55.6525 69.6589 54.8048C69.6589 53.9571 70.3478 53.2682 71.1955 53.2682H92.0727C97.7888 53.2682 102.439 48.5817 102.439 42.8195C102.439 37.0574 97.7888 32.3708 92.0727 32.3708C91.4632 32.3708 90.8613 32.4245 90.28 32.5296C89.7371 32.6269 89.1814 32.4271 88.8254 32.0019C88.4694 31.5768 88.3721 30.9955 88.5667 30.4782C89.0047 29.3103 89.2274 28.0862 89.2274 26.8391C89.2274 21.0768 84.5767 16.3902 78.8606 16.3902C77.0013 16.3902 75.1805 16.8999 73.5952 17.8654C73.1854 18.1164 72.681 18.1599 72.2328 17.9832C71.7845 17.8065 71.4466 17.4326 71.3159 16.969C69.0188 8.78671 61.5228 3.07317 53.0869 3.07317C42.6382 3.07317 34.1357 11.6473 34.1357 22.1883C34.1357 24.104 34.4225 26.0041 34.9885 27.8404C35.1319 28.3064 35.0474 28.8135 34.7554 29.2054C34.4661 29.5972 34.0076 29.8303 33.5185 29.8303C33.4673 29.8303 33.3879 29.8456 33.2522 29.8687L33.1574 29.8866C27.5976 30.9032 23.5615 35.7819 23.5615 41.4879C23.5615 47.9825 28.8012 53.2682 35.2395 53.2682H50.7078C51.5555 53.2682 52.2444 53.9571 52.2444 54.8048C52.2444 55.6525 51.5555 56.3414 50.7078 56.3414H35.2395C27.1059 56.3414 20.4883 49.6779 20.4883 41.4879C20.4883 34.6448 25.1056 28.7418 31.6054 27.0823C31.2418 25.4766 31.06 23.8375 31.06 22.1883C31.06 9.95452 40.9402 0 53.0843 0C62.2706 0 70.4965 5.82366 73.695 14.3671C75.3214 13.6756 77.0756 13.3171 78.858 13.3171C86.2695 13.3171 92.298 19.384 92.298 26.8391C92.298 27.6688 92.2211 28.4909 92.0727 29.2976C99.4841 29.2976 105.513 35.3646 105.513 42.8195C105.513 50.2745 99.4841 56.3414 92.0727 56.3414Z" fill="#2F3F64"/>
<path d="M34.3171 117.804H5.63414C2.52768 117.804 0 115.276 0 112.17V95.7797C0 92.6732 2.52768 90.1455 5.63414 90.1455H34.3171C37.4235 90.1455 39.9513 92.6732 39.9513 95.7797V112.17C39.9513 115.276 37.4235 117.804 34.3171 117.804ZM5.63414 93.2187C4.22305 93.2187 3.07317 94.3686 3.07317 95.7797V112.17C3.07317 113.581 4.22305 114.731 5.63414 114.731H34.3171C35.7281 114.731 36.8781 113.581 36.8781 112.17V95.7797C36.8781 94.3686 35.7281 93.2187 34.3171 93.2187H5.63414Z" fill="#2F3F64"/>
<path d="M30.2197 125.999H9.73189C8.88421 125.999 8.19531 125.31 8.19531 124.462C8.19531 123.615 8.88421 122.926 9.73189 122.926H30.2197C31.0674 122.926 31.7563 123.615 31.7563 124.462C31.7563 125.31 31.0674 125.999 30.2197 125.999Z" fill="#2F3F64"/>
<path d="M19.976 125.999C19.1284 125.999 18.4395 125.31 18.4395 124.462V116.267C18.4395 115.419 19.1284 114.73 19.976 114.73C20.8237 114.73 21.5126 115.419 21.5126 116.267V124.462C21.5126 125.31 20.8237 125.999 19.976 125.999Z" fill="#2F3F64"/>
<path d="M67.0978 126H52.7562C49.6498 126 47.1221 123.472 47.1221 120.366V89.6342C47.1221 86.5277 49.6498 84 52.7562 84H67.0978C70.2042 84 72.7318 86.5277 72.7318 89.6342V120.366C72.7318 123.472 70.2042 126 67.0978 126ZM52.7562 87.0732C51.3452 87.0732 50.1953 88.2231 50.1953 89.6342V120.366C50.1953 121.777 51.3452 122.927 52.7562 122.927H67.0978C68.5088 122.927 69.6586 121.777 69.6586 120.366V89.6342C69.6586 88.2231 68.5088 87.0732 67.0978 87.0732H52.7562Z" fill="#2F3F64"/>
<path d="M120.367 125.999H83.4885C80.3821 125.999 77.8545 123.471 77.8545 120.365V116.267C77.8545 115.419 78.5434 114.73 79.3911 114.73H124.464C125.312 114.73 126.001 115.419 126.001 116.267V120.365C126.001 123.471 123.473 125.999 120.367 125.999ZM80.9275 117.804V120.365C80.9275 121.776 82.0775 122.926 83.4885 122.926H120.367C121.778 122.926 122.928 121.776 122.928 120.365V117.804H80.9275Z" fill="#2F3F64"/>
<path d="M120.366 117.805C119.518 117.805 118.829 117.116 118.829 116.269V97.8295C118.829 96.4184 117.679 95.2685 116.268 95.2685H87.5853C86.1741 95.2685 85.0244 96.4184 85.0244 97.8295V116.269C85.0244 117.116 84.3355 117.805 83.4878 117.805C82.6401 117.805 81.9512 117.116 81.9512 116.269V97.8295C81.9512 94.7231 84.4788 92.1953 87.5853 92.1953H116.268C119.375 92.1953 121.902 94.7231 121.902 97.8295V116.269C121.902 117.116 121.213 117.805 120.366 117.805Z" fill="#2F3F64"/>
<path d="M71.1952 117.804H48.6587C47.811 117.804 47.1221 117.115 47.1221 116.267C47.1221 115.419 47.811 114.73 48.6587 114.73H71.1952C72.0429 114.73 72.7318 115.419 72.7318 116.267C72.7318 117.115 72.0429 117.804 71.1952 117.804Z" fill="#2F3F64"/>
<path d="M60.9516 93.2187H58.9028C58.0551 93.2187 57.3662 92.5298 57.3662 91.6821C57.3662 90.8344 58.0551 90.1455 58.9028 90.1455H60.9516C61.7991 90.1455 62.488 90.8344 62.488 91.6821C62.488 92.5298 61.7991 93.2187 60.9516 93.2187Z" fill="#2F3F64"/>
<path d="M60.9516 78.8791C60.1039 78.8791 59.415 78.1902 59.415 77.3425V44.562C59.415 43.7143 60.1039 43.0254 60.9516 43.0254C61.7993 43.0254 62.4882 43.7143 62.4882 44.562V77.3425C62.4882 78.1902 61.7993 78.8791 60.9516 78.8791Z" fill="#2F3F64"/>
<path d="M101.927 82.9753C101.08 82.9753 100.391 82.2864 100.391 81.4387V71.1947C100.391 69.7837 99.2408 68.6337 97.8296 68.6337H24.0736C22.6624 68.6337 21.5126 69.7837 21.5126 71.1947V79.3899C21.5126 80.2376 20.8237 80.9265 19.976 80.9265C19.1284 80.9265 18.4395 80.2376 18.4395 79.3899V71.1947C18.4395 68.0883 20.967 65.5605 24.0736 65.5605H97.8296C100.936 65.5605 103.464 68.0883 103.464 71.1947V81.4387C103.464 82.2864 102.775 82.9753 101.927 82.9753Z" fill="#2F3F64"/>
</g>
</g>
<defs>
<clipPath id="clip0_202_73">
<rect width="126" height="126" fill="white"/>
</clipPath>
</defs>
</svg>
