<svg width="126" height="125" viewBox="0 0 126 125" fill="none" xmlns="http://www.w3.org/2000/svg">
<path fill-rule="evenodd" clip-rule="evenodd" d="M25.8605 80.6702C25.6705 80.6702 25.4805 80.6702 25.2905 80.6702C11.8705 80.6702 0.980469 69.7802 0.980469 56.3602C0.980469 48.3602 4.85055 41.2702 10.8105 36.8302C10.5705 35.2702 10.4404 33.6702 10.4404 32.0502C10.4404 14.9102 24.3505 0.990234 41.4905 0.990234C51.1605 0.990234 59.8105 5.42023 65.5105 12.3702C69.3205 17.0102 71.8105 22.7702 72.4105 29.0802C83.0005 29.4902 91.4805 38.2202 91.4805 48.9202C91.4805 49.8402 91.4205 50.7402 91.3005 51.6302C95.4505 54.4902 98.1805 59.3102 98.1805 64.7902C98.1805 73.5502 91.1904 80.6602 82.5804 80.6602C82.3404 80.6602 82.0905 80.6602 81.8505 80.6502L25.8705 80.6602L25.8605 80.6702Z" fill="#BCC5DC"/>
<path d="M82.5802 81.68C82.3802 81.68 82.1802 81.68 81.9902 81.68C81.9502 81.68 81.9002 81.68 81.8502 81.68H25.8702C25.8702 81.68 25.8103 81.68 25.7803 81.68C25.6203 81.68 25.4603 81.68 25.3003 81.68C11.3403 81.68 -0.00976562 70.33 -0.00976562 56.37C-0.00976562 48.61 3.63024 41.19 9.75024 36.4C9.56024 34.97 9.46021 33.51 9.46021 32.06C9.46021 14.38 23.8403 0 41.5103 0C51.1403 0 60.1803 4.28 66.3003 11.74C66.6503 12.17 66.5903 12.8 66.1603 13.15C65.7303 13.5 65.1002 13.44 64.7502 13.01C59.0102 6.01 50.5403 2 41.5103 2C24.9403 2 11.4602 15.48 11.4602 32.06C11.4602 33.61 11.5802 35.17 11.8202 36.69C11.8802 37.06 11.7303 37.42 11.4303 37.65C5.4403 42.11 2.00024 48.93 2.00024 56.37C2.00024 69.22 12.4603 79.68 25.3103 79.68C25.4903 79.68 25.6702 79.68 25.8402 79.68C25.8902 79.68 25.9402 79.68 25.9902 79.68H81.7002C81.7602 79.67 81.8203 79.67 81.8903 79.67C82.1203 79.67 82.3602 79.68 82.5902 79.68C90.6402 79.68 97.1902 73.01 97.1902 64.81C97.1902 59.86 94.7802 55.25 90.7502 52.47C90.4402 52.26 90.2802 51.89 90.3302 51.51C90.4502 50.66 90.5103 49.79 90.5103 48.93C90.5103 38.76 82.5603 30.48 72.4003 30.09C71.8503 30.07 71.4202 29.6 71.4402 29.05C71.4602 28.5 71.9502 28.07 72.4802 28.09C83.7102 28.53 92.5103 37.68 92.5103 48.93C92.5103 49.68 92.4703 50.43 92.3903 51.17C96.6703 54.35 99.2002 59.4 99.2002 64.8C99.2002 74.1 91.7502 81.67 82.6002 81.67L82.5802 81.68Z" fill="#2F3F64"/>
<path d="M71.46 29.0996C82.46 29.0996 91.4 38.0296 91.4 49.0396L71.46 29.0996Z" fill="#BCC5DC"/>
<path d="M91.4 50.0296C90.85 50.0296 90.4 49.5796 90.4 49.0296C90.4 38.5896 81.9 30.0996 71.46 30.0996C70.91 30.0996 70.46 29.6496 70.46 29.0996C70.46 28.5496 70.91 28.0996 71.46 28.0996C83 28.0996 92.4 37.4896 92.4 49.0296C92.4 49.5796 91.95 50.0296 91.4 50.0296Z" fill="#2F3F64"/>
<path fill-rule="evenodd" clip-rule="evenodd" d="M30.6211 36.9892L45.1011 44.5192V25.4192L30.6211 18.6592V36.9892Z" fill="#BCC5DC"/>
<path d="M45.1011 45.5191C44.9411 45.5191 44.7811 45.4791 44.6411 45.4091L30.1611 37.8791C29.8311 37.7091 29.6211 37.3691 29.6211 36.9891V18.6591C29.6211 18.3191 29.7911 17.9991 30.0811 17.8191C30.3711 17.6391 30.7311 17.6091 31.0411 17.7591L45.5211 24.5091C45.8711 24.6691 46.1011 25.0291 46.1011 25.4191V44.5191C46.1011 44.8691 45.9211 45.1891 45.6211 45.3691C45.4611 45.4691 45.2811 45.5191 45.1011 45.5191ZM31.6211 36.3791L44.1011 42.8691V26.0491L31.6211 20.2291V36.3791Z" fill="#2F3F64"/>
<path fill-rule="evenodd" clip-rule="evenodd" d="M59.5715 25.9902V36.9902L45.1016 44.5202V25.4202L59.5715 18.6602V25.9902Z" fill="white"/>
<path d="M45.1016 45.5198C44.9216 45.5198 44.7415 45.4698 44.5815 45.3698C44.2815 45.1898 44.1016 44.8698 44.1016 44.5198V25.4198C44.1016 25.0298 44.3216 24.6798 44.6816 24.5098L59.1616 17.7598C59.4716 17.6198 59.8316 17.6398 60.1216 17.8198C60.4116 17.9998 60.5815 18.3198 60.5815 18.6598V36.9898C60.5815 37.3598 60.3716 37.6998 60.0416 37.8798L45.5616 45.4098C45.4216 45.4898 45.2616 45.5198 45.1016 45.5198ZM46.1016 26.0498V42.8698L58.5815 36.3798V20.2298L46.1016 26.0498Z" fill="#2F3F64"/>
<path fill-rule="evenodd" clip-rule="evenodd" d="M59.5713 18.6595L45.9314 11.5795C45.4014 11.3095 44.7813 11.3095 44.2513 11.5795L30.6113 18.6595L45.0913 25.4095L59.5713 18.6595Z" fill="#2F3F64"/>
<path d="M45.1011 26.4195C44.9611 26.4195 44.8112 26.3895 44.6812 26.3295L30.201 19.5795C29.861 19.4195 29.6311 19.0795 29.6211 18.6995C29.6211 18.3195 29.8211 17.9695 30.1611 17.7895L43.8011 10.7095C44.6111 10.2895 45.5911 10.2895 46.4011 10.7095L60.0411 17.7895C60.3811 17.9695 60.5911 18.3195 60.5811 18.6995C60.5811 19.0795 60.3511 19.4195 60.0011 19.5795L45.5211 26.3295C45.3911 26.3895 45.2411 26.4195 45.1011 26.4195ZM32.8811 18.6095L45.0911 24.3095L57.3011 18.6095L45.4611 12.4595C45.2211 12.3395 44.9411 12.3395 44.7111 12.4595L32.8711 18.6095H32.8811Z" fill="#2F3F64"/>
<path fill-rule="evenodd" clip-rule="evenodd" d="M45.1006 62.8495L59.5706 69.5995V51.2695L45.1006 44.5195V62.8495Z" fill="#BCC5DC"/>
<path d="M59.5708 70.5995C59.4308 70.5995 59.2809 70.5695 59.1509 70.5095L44.6709 63.7595C44.3209 63.5995 44.0908 63.2395 44.0908 62.8495V44.5195C44.0908 44.1795 44.2609 43.8595 44.5509 43.6795C44.8409 43.4995 45.2009 43.4695 45.5109 43.6195L59.9908 50.3695C60.3408 50.5295 60.5708 50.8895 60.5708 51.2795V69.6095C60.5708 69.9495 60.4008 70.2695 60.1108 70.4495C59.9508 70.5495 59.7608 70.6095 59.5708 70.6095V70.5995ZM46.1008 62.2095L58.5808 68.0295V51.9095L46.1008 46.0895V62.2095Z" fill="#2F3F64"/>
<path fill-rule="evenodd" clip-rule="evenodd" d="M74.0504 61.6893C74.0504 62.3993 73.6404 63.0393 73.0004 63.3393L59.5703 69.6093V51.2793L74.0504 44.5293V51.8593V61.6993V61.6893Z" fill="white"/>
<path d="M59.5703 70.5995C59.3803 70.5995 59.2004 70.5495 59.0304 70.4395C58.7404 70.2595 58.5703 69.9395 58.5703 69.5995V51.2695C58.5703 50.8795 58.7904 50.5295 59.1504 50.3595L73.6304 43.6095C73.9404 43.4695 74.3003 43.4895 74.5903 43.6695C74.8803 43.8495 75.0504 44.1695 75.0504 44.5095V61.6795C75.0504 62.7695 74.4104 63.7695 73.4204 64.2295L59.9904 70.4895C59.8604 70.5494 59.7103 70.5795 59.5703 70.5795V70.5995ZM60.5703 51.9095V68.0295L72.5703 62.4295C72.8603 62.2995 73.0404 62.0095 73.0404 61.6895V46.0895L60.5604 51.9095H60.5703Z" fill="#2F3F64"/>
<path fill-rule="evenodd" clip-rule="evenodd" d="M74.0507 44.519L59.5706 36.999L45.1006 44.519L59.5706 51.269L74.0507 44.519Z" fill="#2F3F64"/>
<path d="M59.5708 52.2693C59.4308 52.2693 59.2809 52.2393 59.1509 52.1793L44.6709 45.4293C44.3309 45.2693 44.1008 44.9293 44.0908 44.5493C44.0908 44.1693 44.2909 43.8193 44.6309 43.6393L59.1108 36.1193C59.4008 35.9693 59.7409 35.9693 60.0309 36.1193L74.5109 43.6393C74.8509 43.8193 75.0609 44.1693 75.0509 44.5493C75.0509 44.9293 74.8208 45.2693 74.4708 45.4293L59.9908 52.1793C59.8608 52.2393 59.7108 52.2693 59.5708 52.2693ZM47.3608 44.4693L59.5708 50.1693L71.7809 44.4693L59.5708 38.1193L47.3608 44.4693Z" fill="#2F3F64"/>
<path fill-rule="evenodd" clip-rule="evenodd" d="M45.1011 62.8495L30.6211 69.5995V51.2695L45.1011 44.5195V62.8495Z" fill="#BCC5DC"/>
<path d="M30.6211 70.5995C30.4311 70.5995 30.2511 70.5495 30.0811 70.4395C29.7911 70.2595 29.6211 69.9395 29.6211 69.5995V51.2695C29.6211 50.8795 29.841 50.5295 30.201 50.3595L44.6812 43.6095C44.9912 43.4695 45.3511 43.4895 45.6411 43.6695C45.9311 43.8495 46.1011 44.1695 46.1011 44.5095V62.8395C46.1011 63.2295 45.8811 63.5795 45.5211 63.7495L31.0411 70.4995C30.9111 70.5595 30.7611 70.5894 30.6211 70.5894V70.5995ZM31.6211 51.9095V68.0295L44.1011 62.2095V46.0895L31.6211 51.9095Z" fill="#2F3F64"/>
<path fill-rule="evenodd" clip-rule="evenodd" d="M16.1504 61.6893C16.1504 62.3993 16.5603 63.0393 17.2003 63.3393L30.6304 69.6093V51.2793L16.1504 44.5293V51.8593V61.6993V61.6893Z" fill="white"/>
<path d="M30.6206 70.5992C30.4806 70.5992 30.3306 70.5692 30.2006 70.5092L16.7706 64.2492C15.7806 63.7892 15.1406 62.7892 15.1406 61.6992V44.5292C15.1406 44.1892 15.3106 43.8692 15.6006 43.6892C15.8906 43.5092 16.2507 43.4792 16.5607 43.6292L31.0406 50.3792C31.3906 50.5392 31.6206 50.8992 31.6206 51.2892V69.6192C31.6206 69.9592 31.4506 70.2792 31.1606 70.4592C31.0006 70.5592 30.8106 70.6192 30.6206 70.6192V70.5992ZM17.1506 46.0892V61.6892C17.1506 62.0092 17.3406 62.2992 17.6206 62.4292L29.6206 68.0292V51.9092L17.1406 46.0892H17.1506Z" fill="#2F3F64"/>
<path fill-rule="evenodd" clip-rule="evenodd" d="M16.1504 44.519L30.6204 36.999L45.1003 44.519L30.6204 51.269L16.1504 44.519Z" fill="#2F3F64"/>
<path d="M30.6206 52.2693C30.4806 52.2693 30.3306 52.2393 30.2006 52.1793L15.7206 45.4293C15.3806 45.2693 15.1506 44.9293 15.1406 44.5493C15.1406 44.1693 15.3407 43.8193 15.6807 43.6393L30.1606 36.1193C30.4506 35.9693 30.7906 35.9693 31.0806 36.1193L45.5607 43.6393C45.9007 43.8193 46.1106 44.1693 46.1006 44.5493C46.1006 44.9293 45.8706 45.2693 45.5206 45.4293L31.0406 52.1793C30.9106 52.2393 30.7606 52.2693 30.6206 52.2693ZM18.4106 44.4693L30.6206 50.1693L42.8306 44.4693L30.6206 38.1193L18.4106 44.4693Z" fill="#2F3F64"/>
<path d="M122.901 55.6904H67.7106C66.0206 55.6904 64.6406 57.0704 64.6406 58.7704V121.37C64.6406 123.07 66.0106 124.45 67.7106 124.45H122.121C124.111 124.45 125.731 122.74 125.731 120.64C125.781 104.85 125.961 58.7804 125.961 58.7804C125.961 57.0804 124.591 55.7004 122.891 55.7004L122.901 55.6904ZM122.461 120.62C122.461 120.95 122.261 121.17 122.121 121.17H69.6506C68.6906 121.17 67.9106 120.39 67.9106 119.43V60.7004C67.9106 59.7404 68.6906 58.9604 69.6506 58.9604H120.951C121.911 58.9604 122.691 59.7404 122.691 60.7004C122.651 69.6004 122.511 106.76 122.461 120.62Z" fill="#2F3F64"/>
<path d="M67.9199 119.44V60.7097C67.9199 59.7497 68.6999 58.9697 69.6599 58.9697H120.96C121.92 58.9697 122.7 59.7497 122.7 60.7097C122.66 69.6097 122.52 106.77 122.47 120.63C122.47 120.96 122.27 121.18 122.13 121.18H69.6599C68.6999 121.18 67.9199 120.4 67.9199 119.44Z" fill="white"/>
<path d="M122.12 122.17H69.6501C68.1401 122.17 66.9102 120.94 66.9102 119.43V60.7C66.9102 59.19 68.1401 57.96 69.6501 57.96H120.95C121.68 57.96 122.37 58.25 122.89 58.77C123.41 59.29 123.69 59.98 123.69 60.71V62.08C123.64 72.91 123.51 107.4 123.46 120.63C123.46 121.48 122.86 122.18 122.12 122.18V122.17ZM69.6602 59.97C69.2502 59.97 68.9202 60.3 68.9202 60.71V119.44C68.9202 119.85 69.2502 120.18 69.6602 120.18H121.47C121.51 106.64 121.65 72.79 121.69 62.08V60.71C121.69 60.51 121.62 60.33 121.48 60.19C121.34 60.05 121.15 59.97 120.96 59.97H69.6602Z" fill="#2F3F64"/>
<path d="M117.41 74.6201H83.7903C82.9563 74.6201 82.2803 75.2962 82.2803 76.1301V79.1601C82.2803 79.9941 82.9563 80.6701 83.7903 80.6701H117.41C118.244 80.6701 118.92 79.9941 118.92 79.1601V76.1301C118.92 75.2962 118.244 74.6201 117.41 74.6201Z" fill="#FEC95C"/>
<path fill-rule="evenodd" clip-rule="evenodd" d="M79.731 75.6807V79.6007C79.731 80.6807 78.971 81.5607 78.031 81.5607H73.741C72.801 81.5607 72.041 80.6807 72.041 79.6007V75.6807C72.041 74.6007 72.801 73.7207 73.741 73.7207H78.031C78.971 73.7207 79.731 74.6007 79.731 75.6807Z" fill="#FEC95C"/>
<path d="M77.8003 94.0906H73.9702C72.7402 94.0906 71.7402 93.0906 71.7402 91.8606V88.8306C71.7402 87.6006 72.7402 86.6006 73.9702 86.6006H77.8003C79.0303 86.6006 80.0303 87.6006 80.0303 88.8306V91.8606C80.0303 93.0906 79.0303 94.0906 77.8003 94.0906ZM73.9702 88.0406C73.5302 88.0406 73.1703 88.4006 73.1703 88.8406V91.8706C73.1703 92.3106 73.5302 92.6706 73.9702 92.6706H77.8003C78.2403 92.6706 78.6002 92.3106 78.6002 91.8706V88.8406C78.6002 88.4006 78.2403 88.0406 77.8003 88.0406H73.9702Z" fill="#BCC5DC"/>
<path d="M77.8003 106.7H73.9702C72.7402 106.7 71.7402 105.7 71.7402 104.47V101.44C71.7402 100.21 72.7402 99.21 73.9702 99.21H77.8003C79.0303 99.21 80.0303 100.21 80.0303 101.44V104.47C80.0303 105.7 79.0303 106.7 77.8003 106.7ZM73.9702 100.65C73.5302 100.65 73.1703 101.01 73.1703 101.45V104.48C73.1703 104.92 73.5302 105.27 73.9702 105.27H77.8003C78.2403 105.27 78.6002 104.91 78.6002 104.48V101.45C78.6002 101.01 78.2403 100.65 77.8003 100.65H73.9702Z" fill="#BCC5DC"/>
<path d="M117.41 87.2998H83.7903C82.9563 87.2998 82.2803 87.9758 82.2803 88.8098V91.8398C82.2803 92.6737 82.9563 93.3498 83.7903 93.3498H117.41C118.244 93.3498 118.92 92.6737 118.92 91.8398V88.8098C118.92 87.9758 118.244 87.2998 117.41 87.2998Z" fill="#BCC5DC"/>
<path d="M117.41 99.9805H83.7903C82.9563 99.9805 82.2803 100.657 82.2803 101.49V104.52C82.2803 105.354 82.9563 106.03 83.7903 106.03H117.41C118.244 106.03 118.92 105.354 118.92 104.52V101.49C118.92 100.657 118.244 99.9805 117.41 99.9805Z" fill="#BCC5DC"/>
<path d="M78.861 94.2806C78.601 94.2806 78.351 94.1806 78.151 93.9906L72.1909 88.0306C71.8009 87.6406 71.8009 87.0106 72.1909 86.6206C72.5809 86.2306 73.211 86.2306 73.601 86.6206L79.5611 92.5806C79.9511 92.9706 79.9511 93.6006 79.5611 93.9906C79.3611 94.1906 79.111 94.2806 78.851 94.2806H78.861Z" fill="#2F3F64"/>
<path d="M72.901 94.2806C72.641 94.2806 72.3909 94.1806 72.1909 93.9906C71.8009 93.6006 71.8009 92.9706 72.1909 92.5806L78.151 86.6206C78.541 86.2306 79.1711 86.2306 79.5611 86.6206C79.9511 87.0106 79.9511 87.6406 79.5611 88.0306L73.601 93.9906C73.401 94.1906 73.151 94.2806 72.891 94.2806H72.901Z" fill="#2F3F64"/>
<path d="M75.4904 79.6798C75.2104 79.6798 74.9304 79.5598 74.7404 79.3498L73.0804 77.4898C72.7104 77.0798 72.7504 76.4498 73.1604 76.0798C73.5704 75.7098 74.2004 75.7498 74.5704 76.1598L75.4904 77.1798L78.9804 73.2698C79.3504 72.8598 79.9804 72.8198 80.3904 73.1898C80.8004 73.5598 80.8404 74.1898 80.4704 74.5998L76.2304 79.3398C76.0404 79.5498 75.7704 79.6698 75.4804 79.6698L75.4904 79.6798Z" fill="#2F3F64"/>
<path d="M104.651 51.5H85.9608C84.0996 51.5 82.5908 53.0088 82.5908 54.87V59.23C82.5908 61.0912 84.0996 62.6 85.9608 62.6H104.651C106.512 62.6 108.021 61.0912 108.021 59.23V54.87C108.021 53.0088 106.512 51.5 104.651 51.5Z" fill="#FEC95C"/>
<path d="M104.651 63.6002H85.9608C83.5508 63.6002 81.5908 61.6402 81.5908 59.2302V54.8602C81.5908 52.4502 83.5508 50.4902 85.9608 50.4902H104.651C107.061 50.4902 109.021 52.4502 109.021 54.8602V59.2302C109.021 61.6402 107.061 63.6002 104.651 63.6002ZM85.9608 52.5002C84.6508 52.5002 83.5908 53.5602 83.5908 54.8702V59.2402C83.5908 60.5502 84.6508 61.6102 85.9608 61.6102H104.651C105.961 61.6102 107.021 60.5502 107.021 59.2402V54.8702C107.021 53.5602 105.961 52.5002 104.651 52.5002H85.9608Z" fill="#2F3F64"/>
</svg>
