<svg viewBox="0 0 127 128" fill="none" xmlns="http://www.w3.org/2000/svg">
<g id="cloud-instance">
<path id="Vector" fill-rule="evenodd" clip-rule="evenodd" d="M33 103.59C32.76 103.59 32.51 103.59 32.27 103.59C15.01 103.59 1 89.5801 1 72.3201C1 62.0401 5.9699 52.9001 13.6499 47.2101C13.3399 45.2001 13.1799 43.1501 13.1799 41.0601C13.1799 19.0201 31.0801 1.12012 53.1201 1.12012C73.8701 1.12012 90.9499 16.9901 92.8799 37.2401C106.5 37.7701 117.4 49.0001 117.4 62.7601C117.4 63.9401 117.32 65.1101 117.16 66.2501C122.49 69.9201 126 76.1301 126 83.1801C126 94.4501 117.01 103.6 105.94 103.6C105.62 103.6 105.31 103.6 105 103.58V103.6H33V103.59Z" fill="white"/>
<path id="Vector_2" d="M105.95 104.6C105.69 104.6 105.43 104.6 105.18 104.59C105.13 104.59 105.07 104.6 105.01 104.6H33.0098C33.0098 104.6 32.9296 104.6 32.8896 104.6C32.6796 104.6 32.4798 104.6 32.2798 104.6C14.4898 104.6 0.00976562 90.1199 0.00976562 72.3299C0.00976562 62.3699 4.69983 52.8699 12.5798 46.7799C12.3198 44.8899 12.1797 42.9699 12.1797 41.0699C12.1797 18.4999 30.5499 0.129883 53.1199 0.129883C64.5599 0.129883 75.5598 4.96986 83.2998 13.4199C83.6698 13.8299 83.6497 14.4599 83.2397 14.8299C82.8297 15.1999 82.1998 15.1699 81.8298 14.7699C74.4698 6.7399 63.9999 2.12988 53.1199 2.12988C31.6499 2.12988 14.1797 19.5999 14.1797 41.0699C14.1797 43.0799 14.3396 45.0899 14.6396 47.0699C14.6996 47.4399 14.5498 47.7999 14.2498 48.0299C6.57976 53.7299 1.99976 62.8099 1.99976 72.3399C1.99976 89.0299 15.5798 102.61 32.2698 102.61C32.5098 102.61 32.7397 102.61 32.9797 102.61C33.0397 102.61 33.0896 102.61 33.1396 102.61H104.8C104.88 102.59 104.96 102.58 105.04 102.59C105.34 102.6 105.64 102.61 105.94 102.61C116.45 102.61 125 93.8999 125 83.1899C125 76.7299 121.86 70.7099 116.59 67.0899C116.28 66.8799 116.12 66.4999 116.17 66.1299C116.32 65.0299 116.4 63.8999 116.4 62.7799C116.4 49.5499 106.05 38.7799 92.8398 38.2599C92.2898 38.2399 91.8596 37.7698 91.8796 37.2198C91.8996 36.6698 92.3597 36.2399 92.9197 36.2599C107.21 36.8199 118.4 48.4699 118.4 62.7799C118.4 63.7899 118.34 64.7999 118.23 65.7999C123.74 69.8299 127.01 76.2899 127.01 83.1999C127.01 95.0099 117.56 104.62 105.95 104.62V104.6Z" fill="#2F3F64"/>
<path id="Vector_3" d="M117.29 63.8995C116.74 63.8995 116.29 63.4495 116.29 62.8995C116.29 49.3095 105.24 38.2595 91.6497 38.2595C84.5197 38.2595 77.7398 41.3495 73.0498 46.7495C72.6898 47.1695 72.0497 47.2095 71.6397 46.8495C71.2197 46.4895 71.1798 45.8595 71.5398 45.4395C76.6098 39.6095 83.9397 36.2695 91.6497 36.2695C106.34 36.2695 118.29 48.2195 118.29 62.9095C118.29 63.4595 117.84 63.9095 117.29 63.9095V63.8995Z" fill="#2F3F64"/>
<path id="Vector_4" d="M18.7093 60.0904C18.3793 60.0904 18.0495 59.9204 17.8595 59.6204C13.7195 52.9804 11.8293 45.3404 12.3893 37.5204C12.4293 36.9704 12.9193 36.5604 13.4593 36.6004C14.0093 36.6404 14.4193 37.1204 14.3793 37.6704C13.8493 45.0704 15.6394 52.2904 19.5494 58.5704C19.8394 59.0404 19.6993 59.6504 19.2293 59.9504C19.0593 60.0504 18.8793 60.1004 18.6993 60.1004L18.7093 60.0904Z" fill="#2F3F64"/>
<path id="Vector_5" d="M30.7595 55.8799H95.6594C99.0794 55.8799 101.86 58.6599 101.86 62.0799V74.4799C101.86 77.8999 99.0794 80.6799 95.6594 80.6799H30.7595C27.3395 80.6799 24.5596 77.8999 24.5596 74.4799V62.0799C24.5596 58.6599 27.3395 55.8799 30.7595 55.8799Z" fill="#BCC5DC"/>
<path id="Vector_6" d="M95.6497 81.6896H30.7498C26.7798 81.6896 23.5498 78.4596 23.5498 74.4896V62.0897C23.5498 58.1197 26.7798 54.8896 30.7498 54.8896H95.6497C99.6197 54.8896 102.85 58.1197 102.85 62.0897V74.4896C102.85 78.4596 99.6197 81.6896 95.6497 81.6896ZM30.7598 56.8796C27.8898 56.8796 25.5598 59.2097 25.5598 62.0797V74.4796C25.5598 77.3496 27.8898 79.6796 30.7598 79.6796H95.6597C98.5297 79.6796 100.86 77.3496 100.86 74.4796V62.0797C100.86 59.2097 98.5297 56.8796 95.6597 56.8796H30.7598Z" fill="#2F3F64"/>
<path id="Vector_7" d="M30.7595 84.29H95.6594C99.0794 84.29 101.86 87.0701 101.86 90.4901V102.89C101.86 106.31 99.0794 109.09 95.6594 109.09H30.7595C27.3395 109.09 24.5596 106.31 24.5596 102.89V90.4901C24.5596 87.0701 27.3395 84.29 30.7595 84.29Z" fill="#BCC5DC"/>
<path id="Vector_8" d="M95.6497 110.09H30.7498C26.7798 110.09 23.5498 106.86 23.5498 102.89V90.4901C23.5498 86.5201 26.7798 83.29 30.7498 83.29H95.6497C99.6197 83.29 102.85 86.5201 102.85 90.4901V102.89C102.85 106.86 99.6197 110.09 95.6497 110.09ZM30.7598 85.29C27.8898 85.29 25.5598 87.6201 25.5598 90.4901V102.89C25.5598 105.76 27.8898 108.09 30.7598 108.09H95.6597C98.5297 108.09 100.86 105.76 100.86 102.89V90.4901C100.86 87.6201 98.5297 85.29 95.6597 85.29H30.7598Z" fill="#2F3F64"/>
<path id="Vector_9" fill-rule="evenodd" clip-rule="evenodd" d="M36.7197 64.1504C38.9997 64.1504 40.8499 66.0003 40.8499 68.2903C40.8499 70.5803 38.9997 72.4203 36.7197 72.4203C34.4397 72.4203 32.5898 70.5703 32.5898 68.2903C32.5898 66.0103 34.4397 64.1504 36.7197 64.1504Z" fill="#FEC95C"/>
<path id="Vector_10" d="M36.7197 73.4202C33.8897 73.4202 31.5898 71.1202 31.5898 68.2902C31.5898 65.4602 33.8897 63.1602 36.7197 63.1602C39.5497 63.1602 41.8499 65.4602 41.8499 68.2902C41.8499 71.1202 39.5497 73.4202 36.7197 73.4202ZM36.7197 65.1502C34.9897 65.1502 33.5898 66.5602 33.5898 68.2802C33.5898 70.0002 34.9997 71.4102 36.7197 71.4102C38.4397 71.4102 39.8499 70.0002 39.8499 68.2802C39.8499 66.5602 38.4397 65.1502 36.7197 65.1502Z" fill="#2F3F64"/>
<path id="Vector_11" fill-rule="evenodd" clip-rule="evenodd" d="M48.2393 64.1504C50.5193 64.1504 52.3792 66.0003 52.3792 68.2903C52.3792 70.5803 50.5293 72.4203 48.2393 72.4203C45.9493 72.4203 44.1094 70.5703 44.1094 68.2903C44.1094 66.0103 45.9593 64.1504 48.2393 64.1504Z" fill="#2F3F64"/>
<path id="Vector_12" d="M48.2393 73.4202C45.4093 73.4202 43.1094 71.1202 43.1094 68.2902C43.1094 65.4602 45.4093 63.1602 48.2393 63.1602C51.0693 63.1602 53.3694 65.4602 53.3694 68.2902C53.3694 71.1202 51.0693 73.4202 48.2393 73.4202ZM48.2393 65.1502C46.5093 65.1502 45.1094 66.5602 45.1094 68.2802C45.1094 70.0002 46.5193 71.4102 48.2393 71.4102C49.9593 71.4102 51.3694 70.0002 51.3694 68.2802C51.3694 66.5602 49.9593 65.1502 48.2393 65.1502Z" fill="#2F3F64"/>
<path id="Vector_13" fill-rule="evenodd" clip-rule="evenodd" d="M59.75 64.1504C62.03 64.1504 63.8799 66.0003 63.8799 68.2903C63.8799 70.5803 62.03 72.4203 59.75 72.4203C57.47 72.4203 55.6201 70.5703 55.6201 68.2903C55.6201 66.0103 57.47 64.1504 59.75 64.1504Z" fill="#2F3F64"/>
<path id="Vector_14" d="M59.75 73.4202C56.92 73.4202 54.6201 71.1202 54.6201 68.2902C54.6201 65.4602 56.92 63.1602 59.75 63.1602C62.58 63.1602 64.8799 65.4602 64.8799 68.2902C64.8799 71.1202 62.58 73.4202 59.75 73.4202ZM59.75 65.1502C58.02 65.1502 56.6201 66.5602 56.6201 68.2802C56.6201 70.0002 58.03 71.4102 59.75 71.4102C61.47 71.4102 62.8799 70.0002 62.8799 68.2802C62.8799 66.5602 61.47 65.1502 59.75 65.1502Z" fill="#2F3F64"/>
<path id="Vector_15" d="M93.8496 69.29H68.8096C68.2596 69.29 67.8096 68.84 67.8096 68.29C67.8096 67.74 68.2596 67.29 68.8096 67.29H93.8496C94.3996 67.29 94.8496 67.74 94.8496 68.29C94.8496 68.84 94.3996 69.29 93.8496 69.29Z" fill="#2F3F64"/>
<path id="Vector_16" fill-rule="evenodd" clip-rule="evenodd" d="M36.7197 92.5596C38.9997 92.5596 40.8499 94.4096 40.8499 96.6896C40.8499 98.9696 38.9997 100.82 36.7197 100.82C34.4397 100.82 32.5898 98.9696 32.5898 96.6896C32.5898 94.4096 34.4397 92.5596 36.7197 92.5596Z" fill="#FEC95C"/>
<path id="Vector_17" d="M36.7197 101.83C33.8897 101.83 31.5898 99.5303 31.5898 96.7003C31.5898 93.8703 33.8897 91.5703 36.7197 91.5703C39.5497 91.5703 41.8499 93.8703 41.8499 96.7003C41.8499 99.5303 39.5497 101.83 36.7197 101.83ZM36.7197 93.5603C34.9897 93.5603 33.5898 94.9703 33.5898 96.6903C33.5898 98.4103 34.9997 99.8203 36.7197 99.8203C38.4397 99.8203 39.8499 98.4103 39.8499 96.6903C39.8499 94.9703 38.4397 93.5603 36.7197 93.5603Z" fill="#2F3F64"/>
<path id="Vector_18" fill-rule="evenodd" clip-rule="evenodd" d="M48.2393 92.5596C50.5193 92.5596 52.3792 94.4096 52.3792 96.6896C52.3792 98.9696 50.5293 100.82 48.2393 100.82C45.9493 100.82 44.1094 98.9696 44.1094 96.6896C44.1094 94.4096 45.9593 92.5596 48.2393 92.5596Z" fill="#2F3F64"/>
<path id="Vector_19" d="M48.2393 101.83C45.4093 101.83 43.1094 99.5303 43.1094 96.7003C43.1094 93.8703 45.4093 91.5703 48.2393 91.5703C51.0693 91.5703 53.3694 93.8703 53.3694 96.7003C53.3694 99.5303 51.0693 101.83 48.2393 101.83ZM48.2393 93.5603C46.5093 93.5603 45.1094 94.9703 45.1094 96.6903C45.1094 98.4103 46.5193 99.8203 48.2393 99.8203C49.9593 99.8203 51.3694 98.4103 51.3694 96.6903C51.3694 94.9703 49.9593 93.5603 48.2393 93.5603Z" fill="#2F3F64"/>
<path id="Vector_20" fill-rule="evenodd" clip-rule="evenodd" d="M59.75 92.5596C62.03 92.5596 63.8799 94.4096 63.8799 96.6896C63.8799 98.9696 62.03 100.82 59.75 100.82C57.47 100.82 55.6201 98.9696 55.6201 96.6896C55.6201 94.4096 57.47 92.5596 59.75 92.5596Z" fill="#2F3F64"/>
<path id="Vector_21" d="M59.75 101.83C56.92 101.83 54.6201 99.5303 54.6201 96.7003C54.6201 93.8703 56.92 91.5703 59.75 91.5703C62.58 91.5703 64.8799 93.8703 64.8799 96.7003C64.8799 99.5303 62.58 101.83 59.75 101.83ZM59.75 93.5603C58.02 93.5603 56.6201 94.9703 56.6201 96.6903C56.6201 98.4103 58.03 99.8203 59.75 99.8203C61.47 99.8203 62.8799 98.4103 62.8799 96.6903C62.8799 94.9703 61.47 93.5603 59.75 93.5603Z" fill="#2F3F64"/>
<path id="Vector_22" d="M93.8496 97.6895H68.8096C68.2596 97.6895 67.8096 97.2395 67.8096 96.6895C67.8096 96.1395 68.2596 95.6895 68.8096 95.6895H93.8496C94.3996 95.6895 94.8496 96.1395 94.8496 96.6895C94.8496 97.2395 94.3996 97.6895 93.8496 97.6895Z" fill="#2F3F64"/>
<path id="Vector_23" d="M63.5703 118.49C63.0203 118.49 62.5703 118.04 62.5703 117.49V110.1C62.5703 109.55 63.0203 109.1 63.5703 109.1C64.1203 109.1 64.5703 109.55 64.5703 110.1V117.49C64.5703 118.04 64.1203 118.49 63.5703 118.49Z" fill="#2F3F64"/>
<path id="Vector_24" d="M59.2502 122.33H47.5703C47.0203 122.33 46.5703 121.88 46.5703 121.33C46.5703 120.78 47.0203 120.33 47.5703 120.33H59.2502C59.8002 120.33 60.2502 120.78 60.2502 121.33C60.2502 121.88 59.8002 122.33 59.2502 122.33Z" fill="#2F3F64"/>
<path id="Vector_25" d="M80.4397 122.33H68.7598C68.2098 122.33 67.7598 121.88 67.7598 121.33C67.7598 120.78 68.2098 120.33 68.7598 120.33H80.4397C80.9897 120.33 81.4397 120.78 81.4397 121.33C81.4397 121.88 80.9897 122.33 80.4397 122.33Z" fill="#2F3F64"/>
<g id="Group">
<path id="Vector_26" fill-rule="evenodd" clip-rule="evenodd" d="M63.5601 115.69C66.6701 115.69 69.1899 118.21 69.1899 121.32C69.1899 124.43 66.6701 126.95 63.5601 126.95C60.4501 126.95 57.9199 124.43 57.9199 121.32C57.9199 118.21 60.4501 115.69 63.5601 115.69Z" fill="#FEC95C"/>
<path id="Vector_27" d="M63.5698 127.96C59.9098 127.96 56.9297 124.98 56.9297 121.33C56.9297 117.68 59.9098 114.7 63.5698 114.7C67.2298 114.7 70.1997 117.68 70.1997 121.33C70.1997 124.98 67.2198 127.96 63.5698 127.96ZM63.5698 116.69C61.0098 116.69 58.9297 118.77 58.9297 121.32C58.9297 123.87 61.0098 125.95 63.5698 125.95C66.1298 125.95 68.1997 123.87 68.1997 121.32C68.1997 118.77 66.1198 116.69 63.5698 116.69Z" fill="#2F3F64"/>
</g>
</g>
</svg>
