<svg width="126" height="112" viewBox="0 0 126 112" fill="none" xmlns="http://www.w3.org/2000/svg">
<path fill-rule="evenodd" clip-rule="evenodd" d="M37.4594 83.51C37.2593 83.51 37.0694 83.51 36.8694 83.51C22.9694 83.51 11.6895 72.23 11.6895 58.33C11.6895 50.05 15.6994 42.7 21.8694 38.11C21.6194 36.5 21.4894 34.84 21.4894 33.16C21.4894 15.41 35.8994 1 53.6494 1C70.3594 1 84.1094 13.78 85.6594 30.09C96.6294 30.52 105.409 39.56 105.409 50.64C105.409 51.59 105.339 52.53 105.219 53.45C109.519 56.41 112.339 61.41 112.339 67.08C112.339 76.15 105.099 83.52 96.1895 83.52C95.9395 83.52 95.6794 83.52 95.4294 83.5V83.52H37.4495L37.4594 83.51Z" fill="white"/>
<path d="M96.1897 84.52C95.9897 84.52 95.7796 84.52 95.5796 84.51C95.5296 84.51 95.4797 84.52 95.4297 84.52H37.4497C37.4497 84.52 37.3796 84.52 37.3496 84.52C37.1896 84.52 37.0196 84.52 36.8596 84.52C22.4296 84.52 10.6797 72.78 10.6797 58.34C10.6797 50.3 14.4497 42.62 20.7897 37.68C20.5897 36.19 20.4796 34.68 20.4796 33.16C20.4796 14.88 35.3596 0 53.6396 0C62.8997 0 71.8096 3.92 78.0896 10.76C78.4596 11.17 78.4397 11.8 78.0297 12.17C77.6197 12.54 76.9896 12.52 76.6196 12.11C70.7296 5.68 62.3497 1.99 53.6497 1.99C36.4697 1.99 22.4896 15.97 22.4896 33.15C22.4896 34.76 22.6096 36.38 22.8596 37.95C22.9196 38.32 22.7696 38.68 22.4696 38.91C16.3496 43.46 12.6897 50.72 12.6897 58.33C12.6897 71.66 23.5396 82.51 36.8696 82.51C37.0596 82.51 37.2497 82.51 37.4297 82.51C37.4797 82.51 37.5296 82.51 37.5896 82.51H95.2596C95.3396 82.5 95.4096 82.49 95.4896 82.49C95.7296 82.5 95.9597 82.51 96.1997 82.51C104.56 82.51 111.35 75.58 111.35 67.07C111.35 61.94 108.85 57.15 104.66 54.27C104.35 54.06 104.19 53.68 104.24 53.31C104.36 52.43 104.42 51.53 104.42 50.63C104.42 40.08 96.1696 31.5 85.6296 31.08C85.0796 31.06 84.6497 30.59 84.6697 30.04C84.6897 29.49 85.1796 29.06 85.7096 29.08C97.3196 29.53 106.42 39 106.42 50.63C106.42 51.41 106.38 52.2 106.29 52.97C110.72 56.26 113.35 61.48 113.35 67.07C113.35 76.69 105.65 84.51 96.1997 84.51L96.1897 84.52Z" fill="#2F3F64"/>
<path d="M105.32 51.7504C104.77 51.7504 104.32 51.3004 104.32 50.7504C104.32 39.9204 95.5099 31.1004 84.6699 31.1004C78.9799 31.1004 73.5798 33.5704 69.8398 37.8704C69.4798 38.2904 68.8499 38.3304 68.4299 37.9704C68.0099 37.6104 67.9698 36.9804 68.3298 36.5604C72.4498 31.8204 78.4099 29.1104 84.6699 29.1104C96.6099 29.1104 106.32 38.8204 106.32 50.7604C106.32 51.3104 105.87 51.7604 105.32 51.7604V51.7504Z" fill="#2F3F64"/>
<path d="M25.9499 48.68C25.6199 48.68 25.2898 48.51 25.0998 48.21C21.7398 42.83 20.2098 36.64 20.6698 30.3C20.7098 29.75 21.1998 29.33 21.7398 29.38C22.2898 29.42 22.6998 29.9 22.6598 30.45C22.2298 36.36 23.6598 42.14 26.7898 47.16C27.0798 47.63 26.9398 48.24 26.4698 48.54C26.2998 48.64 26.1199 48.69 25.9399 48.69L25.9499 48.68Z" fill="#2F3F64"/>
<path fill-rule="evenodd" clip-rule="evenodd" d="M80.26 98.2003C80.26 76.3103 62.52 58.5703 40.63 58.5703C18.74 58.5703 1 76.3103 1 98.2003H11.8101" fill="#BCC5DC"/>
<path d="M80.26 99.2003C79.71 99.2003 79.26 98.7503 79.26 98.2003C79.26 76.9003 61.93 59.5703 40.63 59.5703C19.33 59.5703 2.55001 76.3603 2.01001 97.2003H11.8101C12.3601 97.2003 12.8101 97.6503 12.8101 98.2003C12.8101 98.7503 12.3601 99.2003 11.8101 99.2003H1C0.45 99.2003 0 98.7503 0 98.2003C0 75.8003 18.23 57.5703 40.63 57.5703C63.03 57.5703 81.26 75.8003 81.26 98.2003C81.26 98.7503 80.81 99.2003 80.26 99.2003Z" fill="#2F3F64"/>
<path d="M100.08 110.821C113.511 110.821 124.4 99.9322 124.4 86.5007C124.4 73.0691 113.511 62.1807 100.08 62.1807C86.6481 62.1807 75.7598 73.0691 75.7598 86.5007C75.7598 99.9322 86.6481 110.821 100.08 110.821Z" fill="#FEC95C"/>
<path d="M100.08 111.821C86.1197 111.821 74.7598 100.461 74.7598 86.5007C74.7598 72.5407 86.1197 61.1807 100.08 61.1807C114.04 61.1807 125.4 72.5407 125.4 86.5007C125.4 100.461 114.04 111.821 100.08 111.821ZM100.08 63.1907C87.2197 63.1907 76.7598 73.6507 76.7598 86.5107C76.7598 99.3707 87.2197 109.831 100.08 109.831C112.94 109.831 123.4 99.3707 123.4 86.5107C123.4 73.6507 112.94 63.1907 100.08 63.1907Z" fill="#2F3F64"/>
<path d="M107.55 94.9005C106.99 95.9105 106.16 96.7505 105.08 97.4405C103.99 98.1305 102.7 98.5405 101.22 98.6805V101.461H98.9902V98.6805C96.8402 98.4705 95.1003 97.8005 93.7703 96.6505C92.4403 95.5105 91.7803 93.9905 91.7803 92.1205H95.9702C96.0402 93.0105 96.3202 93.7505 96.8302 94.3405C97.3302 94.9205 98.0502 95.3005 98.9902 95.4605V87.9005C97.4602 87.5105 96.2102 87.1205 95.2502 86.7205C94.2902 86.3205 93.4703 85.6805 92.7903 84.8105C92.1103 83.9405 91.7803 82.7505 91.7803 81.2405C91.7803 79.3405 92.4403 77.7705 93.7703 76.5205C95.1003 75.2705 96.8402 74.5405 98.9902 74.3405V71.5605H101.22V74.3405C103.23 74.5205 104.86 75.1605 106.08 76.2505C107.3 77.3405 108 78.8305 108.16 80.7305H103.97C103.9 80.0205 103.63 79.3805 103.15 78.8205C102.67 78.2605 102.03 77.8805 101.23 77.6705V85.0905C102.76 85.4605 104.01 85.8405 104.97 86.2405C105.93 86.6405 106.74 87.2705 107.41 88.1305C108.07 88.9905 108.41 90.1705 108.41 91.6805C108.41 92.8305 108.13 93.9005 107.57 94.9105L107.55 94.9005ZM96.5902 83.2205C97.1502 83.7505 97.9502 84.1705 98.9802 84.4905V77.5505C98.0002 77.6705 97.2102 78.0205 96.6302 78.6105C96.0502 79.2105 95.7502 80.0105 95.7502 81.0105C95.7502 81.9505 96.0302 82.6805 96.5902 83.2105V83.2205ZM103.58 94.2305C104.15 93.5805 104.44 92.7905 104.44 91.8805C104.44 90.9705 104.16 90.2505 103.6 89.7305C103.04 89.2105 102.24 88.8005 101.21 88.4805V95.4505C102.22 95.2905 103.01 94.8805 103.58 94.2305Z" fill="#2F3F64"/>
<path d="M16.8795 80.5707C16.6195 80.5707 16.3696 80.4707 16.1696 80.2807L9.45949 73.5707C9.06949 73.1807 9.06949 72.5507 9.45949 72.1607C9.84949 71.7707 10.4795 71.7707 10.8695 72.1607L17.5795 78.8707C17.9695 79.2607 17.9695 79.8907 17.5795 80.2807C17.3795 80.4807 17.1295 80.5707 16.8695 80.5707H16.8795Z" fill="#2F3F64"/>
<path d="M67.23 83.52C66.97 83.52 66.72 83.42 66.52 83.23C66.13 82.84 66.13 82.21 66.52 81.82L72.3201 76.02C72.7101 75.63 73.34 75.63 73.73 76.02C74.12 76.41 74.12 77.04 73.73 77.43L67.9301 83.23C67.7301 83.43 67.48 83.52 67.22 83.52H67.23Z" fill="#2F3F64"/>
<path d="M40.6299 69.0603C40.0799 69.0603 39.6299 68.6103 39.6299 68.0603V58.5703C39.6299 58.0203 40.0799 57.5703 40.6299 57.5703C41.1799 57.5703 41.6299 58.0203 41.6299 58.5703V68.0603C41.6299 68.6103 41.1799 69.0603 40.6299 69.0603Z" fill="#2F3F64"/>
<path fill-rule="evenodd" clip-rule="evenodd" d="M51.0899 77.0098L37.3 85.2198C33.73 87.3498 32.8899 92.3798 35.8799 95.2698C36.0399 95.4298 36.2099 95.5698 36.3899 95.7098C36.5699 95.8498 36.75 95.9798 36.94 96.0998C40.45 98.3298 45.1399 96.3198 46.3699 92.3498L51.0799 77.0098H51.0899Z" fill="#2F3F64"/>
<path d="M40.13 98.03C38.82 98.03 37.54 97.67 36.41 96.95C36.19 96.81 35.98 96.66 35.77 96.5C35.57 96.34 35.37 96.17 35.18 95.99C33.6 94.46 32.8399 92.31 33.0999 90.07C33.3699 87.71 34.75 85.58 36.78 84.37L50.57 76.16C50.92 75.95 51.37 75.98 51.7 76.23C52.03 76.48 52.16 76.91 52.04 77.31L47.3299 92.65C46.6299 94.91 44.89 96.75 42.66 97.58C41.83 97.89 40.98 98.04 40.13 98.04V98.03ZM49.3699 79.2L37.81 86.08C36.31 86.97 35.2899 88.55 35.0899 90.29C34.8999 91.91 35.44 93.46 36.57 94.55C36.71 94.68 36.85 94.81 37 94.93C37.16 95.05 37.3099 95.16 37.4699 95.26C38.7899 96.1 40.43 96.26 41.95 95.69C43.6 95.08 44.89 93.72 45.4 92.05L49.3499 79.19L49.3699 79.2Z" fill="#2F3F64"/>
</svg>
