<svg width="114" height="94" viewBox="0 0 114 94" fill="none" xmlns="http://www.w3.org/2000/svg">
<g id="cloud">
<path id="Vector" fill-rule="evenodd" clip-rule="evenodd" d="M29.5797 92.51C29.3597 92.51 29.1397 92.51 28.9297 92.51C13.5197 92.51 1.00977 80 1.00977 64.59C1.00977 55.4 5.44968 47.26 12.2997 42.16C12.0197 40.37 11.8798 38.53 11.8798 36.67C11.8798 16.98 27.8597 1 47.5397 1C58.6497 1 68.5798 6.09 75.1198 14.07C79.4898 19.4 82.3497 26.02 83.0397 33.26C95.2097 33.73 104.94 43.76 104.94 56.05C104.94 57.1 104.87 58.14 104.73 59.16C109.49 62.44 112.63 67.98 112.63 74.27C112.63 84.33 104.6 92.5 94.7197 92.5C94.4397 92.5 94.1598 92.5 93.8798 92.48V92.5H29.5897L29.5797 92.51Z" fill="#BCC5DC"/>
<path id="Vector_2" d="M94.71 93.51C94.48 93.51 94.25 93.51 94.02 93.5C93.97 93.5 93.92 93.51 93.87 93.51H29.58C29.58 93.51 29.52 93.51 29.48 93.51C29.29 93.51 29.1099 93.51 28.9199 93.51C12.9699 93.51 0 80.54 0 64.59C0 55.55 4.07997 47.26 11.22 41.72C10.99 40.05 10.87 38.36 10.87 36.67C10.87 16.45 27.3199 0 47.5299 0C58.5399 0 68.88 4.9 75.88 13.43C76.23 13.86 76.17 14.49 75.74 14.84C75.31 15.19 74.68 15.13 74.33 14.7C67.71 6.63 57.94 2 47.52 2C28.41 2 12.86 17.55 12.86 36.67C12.86 38.46 13 40.25 13.27 42.01C13.33 42.38 13.18 42.74 12.88 42.97C5.96 48.12 1.98999 56 1.98999 64.59C1.98999 79.43 14.0699 91.51 28.9099 91.51C29.1199 91.5 29.3199 91.51 29.5299 91.51C29.5899 91.51 29.6399 91.51 29.6899 91.51H93.6899C93.7499 91.5 93.82 91.5 93.89 91.49C94.16 91.49 94.43 91.51 94.7 91.51C104.03 91.51 111.61 83.78 111.61 74.28C111.61 68.55 108.82 63.21 104.15 59.99C103.84 59.78 103.68 59.41 103.73 59.03C103.86 58.04 103.93 57.04 103.93 56.05C103.93 44.29 94.73 34.72 82.99 34.26C82.44 34.24 82.0099 33.77 82.0299 33.22C82.0499 32.67 82.5199 32.21 83.0699 32.26C95.8899 32.76 105.93 43.21 105.93 56.05C105.93 56.93 105.88 57.82 105.78 58.7C110.7 62.32 113.61 68.1 113.61 74.28C113.61 84.88 105.13 93.51 94.7 93.51H94.71Z" fill="#2F3F64"/>
<g id="Group">
<path id="Vector_3" d="M64.6602 41.17C68.8602 36.34 75.0502 33.29 81.9402 33.29C94.5802 33.29 104.84 43.55 104.84 56.18" fill="#BCC5DC"/>
<path id="Vector_4" d="M104.84 57.1703C104.29 57.1703 103.84 56.7203 103.84 56.1703C103.84 44.1003 94.0201 34.2803 81.9401 34.2803C75.6001 34.2803 69.5801 37.0303 65.4101 41.8203C65.0501 42.2403 64.4202 42.2803 64.0002 41.9203C63.5802 41.5603 63.5401 40.9303 63.9001 40.5103C68.4501 35.2803 75.0201 32.2803 81.9401 32.2803C95.1201 32.2803 105.84 43.0003 105.84 56.1703C105.84 56.7203 105.39 57.1703 104.84 57.1703Z" fill="#2F3F64"/>
</g>
<g id="Group_2">
<path id="Vector_5" d="M16.82 52.7693C13.36 47.2293 11.57 40.5793 12.07 33.5693Z" fill="#2F3F64"/>
<path id="Vector_6" d="M16.8202 53.7698C16.4902 53.7698 16.1603 53.5998 15.9703 53.2998C12.2603 47.3598 10.5702 40.5098 11.0702 33.4998C11.1102 32.9498 11.5903 32.5198 12.1403 32.5798C12.6903 32.6198 13.1002 33.0998 13.0602 33.6498C12.5902 40.2398 14.1802 46.6698 17.6602 52.2498C17.9502 52.7198 17.8103 53.3298 17.3403 53.6298C17.1803 53.7298 16.9902 53.7798 16.8102 53.7798L16.8202 53.7698Z" fill="#2F3F64"/>
</g>
</g>
</svg>
