<svg width="115" height="78" viewBox="0 0 115 78" fill="none" xmlns="http://www.w3.org/2000/svg">
<path fill-rule="evenodd" clip-rule="evenodd" d="M50.5903 1.5H16.0404C15.1104 1.5 14.3604 2.25 14.3604 3.18V28.87C14.3604 29.8 15.1104 30.55 16.0404 30.55H25.6204V38.61C25.6204 39.88 27.1604 40.52 28.0604 39.62L37.1304 30.55H57.0104C57.9404 30.55 58.6903 29.8 58.6903 28.87V3.18C58.6903 2.25 57.9404 1.5 57.0104 1.5H50.5903Z" fill="#BCC5DC"/>
<path d="M27.0504 41.0305C26.7404 41.0305 26.4204 40.9705 26.1204 40.8405C25.2104 40.4605 24.6204 39.5805 24.6204 38.5905V31.5305H16.0404C14.5604 31.5305 13.3604 30.3305 13.3604 28.8505V3.16047C13.3604 1.68047 14.5604 0.480469 16.0404 0.480469H50.5903C50.5903 0.480469 50.5903 0.480469 50.6003 0.480469H57.0204C58.5004 0.480469 59.7003 1.68047 59.7003 3.16047V28.8505C59.7003 30.3305 58.5004 31.5305 57.0204 31.5305H37.5504L28.7704 40.3105C28.3004 40.7805 27.6904 41.0205 27.0504 41.0205V41.0305ZM16.0304 2.50047C15.6604 2.50047 15.3503 2.80047 15.3503 3.18047V28.8705C15.3503 29.2405 15.6504 29.5505 16.0304 29.5505H25.6104C26.1604 29.5505 26.6104 30.0005 26.6104 30.5505V38.6105C26.6104 38.8605 26.7804 38.9705 26.8804 39.0105C26.9804 39.0505 27.1703 39.0905 27.3503 38.9205L36.4204 29.8505C36.6104 29.6605 36.8604 29.5605 37.1304 29.5605H57.0104C57.3804 29.5605 57.6903 29.2605 57.6903 28.8805V3.19047C57.6903 2.82047 57.3904 2.51047 57.0104 2.51047H50.5903C50.5903 2.51047 50.5903 2.51047 50.5803 2.51047H16.0304V2.50047Z" fill="#2F3F64"/>
<path fill-rule="evenodd" clip-rule="evenodd" d="M97.47 20.9609H103.54C104.86 20.9609 105.94 22.0309 105.94 23.3609V60.0709C105.94 61.3909 104.87 62.4709 103.54 62.4709H90.03V73.9909C90.03 75.8109 87.83 76.7209 86.54 75.4409L73.58 62.4809H46.15C44.83 62.4809 43.75 61.4109 43.75 60.0809V23.3709C43.75 22.0509 44.82 20.9709 46.15 20.9709H71.36" fill="white"/>
<path d="M87.97 77.0409C87.19 77.0409 86.43 76.7309 85.84 76.1409L73.17 63.4709H46.15C44.28 63.4709 42.75 61.9509 42.75 60.0709V23.3609C42.75 21.4909 44.27 19.9709 46.15 19.9709H71.36C71.91 19.9709 72.36 20.4209 72.36 20.9709C72.36 21.5209 71.91 21.9709 71.36 21.9709H46.15C45.38 21.9709 44.75 22.6009 44.75 23.3609V60.0709C44.75 60.8409 45.38 61.4709 46.15 61.4709H73.58C73.85 61.4709 74.1 61.5809 74.29 61.7609L87.25 74.7209C87.71 75.1809 88.24 75.0109 88.39 74.9509C88.54 74.8909 89.03 74.6309 89.03 73.9809V62.4609C89.03 61.9109 89.48 61.4609 90.03 61.4609H103.54C104.31 61.4609 104.94 60.8309 104.94 60.0609V23.3509C104.94 22.5809 104.31 21.9609 103.54 21.9609H97.47C96.92 21.9609 96.47 21.5109 96.47 20.9609C96.47 20.4109 96.92 19.9609 97.47 19.9609H103.54C105.41 19.9609 106.94 21.4809 106.94 23.3509V60.0609C106.94 61.9309 105.42 63.4609 103.54 63.4609H91.03V73.9809C91.03 75.2309 90.31 76.3109 89.15 76.7909C88.76 76.9509 88.36 77.0309 87.97 77.0309V77.0409Z" fill="#2F3F64"/>
<path d="M30.53 62.4307H7.44995C6.23492 62.4307 5.25 63.4156 5.25 64.6307V64.6407C5.25 65.8557 6.23492 66.8407 7.44995 66.8407H30.53C31.7451 66.8407 32.73 65.8557 32.73 64.6407V64.6307C32.73 63.4156 31.7451 62.4307 30.53 62.4307Z" fill="#BCC5DC"/>
<path d="M30.52 67.8404H7.44995C5.67995 67.8404 4.25 66.4004 4.25 64.6404C4.25 62.8804 5.68995 61.4404 7.44995 61.4404H30.52C32.29 61.4404 33.72 62.8804 33.72 64.6404C33.72 66.4004 32.28 67.8404 30.52 67.8404ZM7.44995 63.4304C6.78995 63.4304 6.25 63.9704 6.25 64.6304C6.25 65.2904 6.78995 65.8304 7.44995 65.8304H30.52C31.18 65.8304 31.72 65.2904 31.72 64.6304C31.72 63.9704 31.18 63.4304 30.52 63.4304H7.44995Z" fill="#2F3F64"/>
<path d="M30.4001 71.6211H7.32007C6.10504 71.6211 5.12012 72.6061 5.12012 73.8211V73.8311C5.12012 75.0461 6.10504 76.0311 7.32007 76.0311H30.4001C31.6152 76.0311 32.6001 75.0461 32.6001 73.8311V73.8211C32.6001 72.6061 31.6152 71.6211 30.4001 71.6211Z" fill="#BCC5DC"/>
<path d="M30.3901 77.0309H7.32007C5.55007 77.0309 4.12012 75.5909 4.12012 73.8309C4.12012 72.0709 5.56007 70.6309 7.32007 70.6309H30.3901C32.1601 70.6309 33.6001 72.0709 33.6001 73.8309C33.6001 75.5909 32.1601 77.0309 30.3901 77.0309ZM7.32007 72.6209C6.66007 72.6209 6.12012 73.1609 6.12012 73.8209C6.12012 74.4809 6.66007 75.0209 7.32007 75.0209H30.3901C31.0501 75.0209 31.6001 74.4809 31.6001 73.8209C31.6001 73.1609 31.0601 72.6209 30.3901 72.6209H7.32007Z" fill="#2F3F64"/>
<path d="M101.21 35.19C108.097 35.19 113.68 29.607 113.68 22.72C113.68 15.833 108.097 10.25 101.21 10.25C94.3232 10.25 88.7402 15.833 88.7402 22.72C88.7402 29.607 94.3232 35.19 101.21 35.19Z" fill="#FEC95C"/>
<path d="M101.21 36.19C93.7802 36.19 87.7402 30.15 87.7402 22.72C87.7402 15.29 93.7802 9.25 101.21 9.25C108.64 9.25 114.68 15.29 114.68 22.72C114.68 30.15 108.64 36.19 101.21 36.19ZM101.21 11.24C94.8802 11.24 89.7402 16.39 89.7402 22.71C89.7402 29.03 94.8902 34.18 101.21 34.18C107.53 34.18 112.68 29.03 112.68 22.71C112.68 16.39 107.53 11.24 101.21 11.24Z" fill="#2F3F64"/>
<path d="M36.1801 45.4902H1.54004V57.7402H36.1801V45.4902Z" fill="#FEC95C"/>
<path d="M36.1801 58.7402H1.54004C0.990039 58.7402 0.540039 58.2902 0.540039 57.7402V45.4902C0.540039 44.9402 0.990039 44.4902 1.54004 44.4902H36.1801C36.7301 44.4902 37.1801 44.9402 37.1801 45.4902V57.7402C37.1801 58.2902 36.7301 58.7402 36.1801 58.7402ZM2.54004 56.7402H35.1801V46.4902H2.54004V56.7402Z" fill="#2F3F64"/>
<path d="M29.4902 49.3809H8.48022C7.24311 49.3809 6.24023 50.3815 6.24023 51.6159C6.24023 52.8502 7.24311 53.8509 8.48022 53.8509H29.4902C30.7274 53.8509 31.7302 52.8502 31.7302 51.6159C31.7302 50.3815 30.7274 49.3809 29.4902 49.3809Z" fill="#2F3F64"/>
<path d="M60.2495 46.5401C62.3095 46.5401 63.9795 44.8701 63.9795 42.8101C63.9795 40.7501 62.3095 39.0801 60.2495 39.0801C58.1895 39.0801 56.5195 40.7501 56.5195 42.8101C56.5195 44.8701 58.1895 46.5401 60.2495 46.5401Z" fill="#2F3F64"/>
<path d="M73.6997 46.5401C75.7597 46.5401 77.4298 44.8701 77.4298 42.8101C77.4298 40.7501 75.7597 39.0801 73.6997 39.0801C71.6397 39.0801 69.9697 40.7501 69.9697 42.8101C69.9697 44.8701 71.6397 46.5401 73.6997 46.5401Z" fill="#2F3F64"/>
<path d="M87.1499 46.5401C89.2099 46.5401 90.8799 44.8701 90.8799 42.8101C90.8799 40.7501 89.2099 39.0801 87.1499 39.0801C85.0899 39.0801 83.4199 40.7501 83.4199 42.8101C83.4199 44.8701 85.0899 46.5401 87.1499 46.5401Z" fill="#2F3F64"/>
</svg>
