<svg viewBox="0 0 128 110" fill="none" xmlns="http://www.w3.org/2000/svg">
<g id="connectivity-issue">
<g id="Group 1">
<g id="Layer_1" clip-path="url(#clip0_13_1284)">
<g id="Group">
<path id="Vector" d="M116.04 1.4C115.15 0.5 113.95 0 112.68 0H12.4196C9.79961 0 7.65961 2.14 7.64961 4.78L7.34961 74.08C7.34961 75.36 7.83961 76.56 8.72961 77.46C9.62961 78.37 10.8196 78.86 12.0896 78.86H112.35C114.97 78.86 117.11 76.72 117.12 74.08L117.42 4.78C117.42 3.5 116.93 2.3 116.04 1.39V1.4ZM62.5196 5.03C61.5896 5.03 60.8396 4.27 60.8396 3.34C60.8396 2.41 61.5896 1.65 62.5196 1.65C63.4496 1.65 64.1996 2.41 64.1996 3.34C64.1996 4.27 63.4496 5.03 62.5196 5.03Z" fill="#2F3F64"/>
<path id="Vector_2" fill-rule="evenodd" clip-rule="evenodd" d="M111.05 11.4104L110.82 64.7804C110.82 66.4204 109.49 67.7504 107.86 67.7504H16.6595C15.0295 67.7504 13.7195 66.4204 13.7295 64.7804L13.9595 11.4104C13.9595 9.77043 15.2895 8.44043 16.9195 8.44043H108.12C109.75 8.44043 111.06 9.77043 111.05 11.4104Z" fill="white"/>
<g id="Group_2">
<path id="Vector_3" fill-rule="evenodd" clip-rule="evenodd" d="M122.18 74.75H81.94C79.59 74.75 77.69 76.66 77.69 79.03V79.5H47.34V79.03C47.34 76.67 45.44 74.75 43.09 74.75H4.43C2.53 74.75 1 76.3 1 78.21V83.04C1 84.95 2.54 86.5 4.43 86.5H122.18C124.08 86.5 125.61 84.95 125.61 83.04V78.21C125.61 76.3 124.07 74.75 122.18 74.75Z" fill="#BCC5DC"/>
<path id="Vector_4" d="M122.18 87.4902H4.43C1.99 87.4902 0 85.4902 0 83.0302V78.2002C0 75.7402 1.99 73.7402 4.43 73.7402H43.09C45.81 73.7402 48.05 75.8202 48.31 78.4802H76.71C76.98 75.8202 79.22 73.7402 81.93 73.7402H122.17C124.61 73.7402 126.6 75.7402 126.6 78.2002V83.0302C126.6 85.4902 124.61 87.4902 122.17 87.4902H122.18ZM4.43 75.7502C3.09 75.7502 2 76.8502 2 78.2102V83.0402C2 84.3902 3.09 85.5002 4.43 85.5002H122.18C123.52 85.5002 124.61 84.4002 124.61 83.0402V78.2102C124.61 76.8602 123.52 75.7502 122.18 75.7502H81.94C80.15 75.7502 78.69 77.2202 78.69 79.0302V79.5002C78.69 80.0502 78.24 80.5002 77.69 80.5002H47.34C46.79 80.5002 46.34 80.0502 46.34 79.5002V79.0302C46.34 77.2202 44.88 75.7502 43.09 75.7502H4.43Z" fill="#2F3F64"/>
</g>
<g id="Group_3">
<path id="Vector_5" d="M80.0795 34.6206C78.4195 32.9506 76.5894 31.5206 74.6294 30.3506L72.4395 32.5506C74.4395 33.6706 76.2894 35.0606 77.9494 36.7306C78.2394 37.0206 78.6295 37.1706 79.0095 37.1706C79.3895 37.1706 79.7695 37.0206 80.0695 36.7306C80.6595 36.1506 80.6595 35.2006 80.0695 34.6106L80.0795 34.6206Z" fill="#2F3F64"/>
<path id="Vector_6" d="M69.8796 35.1409L67.6396 37.3909C69.7696 38.3009 71.7197 39.6209 73.4097 41.3109C73.6997 41.6009 74.0897 41.7509 74.4697 41.7509C74.8497 41.7509 75.2296 41.6009 75.5296 41.3109C76.1196 40.7309 76.1196 39.7809 75.5296 39.1909C73.8496 37.5009 71.9397 36.1509 69.8697 35.1309L69.8796 35.1409Z" fill="#2F3F64"/>
<path id="Vector_7" d="M64.9893 40.0605L62.5293 42.5405C64.9293 42.9605 67.1293 44.1005 68.8893 45.8705C69.4693 46.4605 70.4193 46.4605 71.0093 45.8705C71.5993 45.2905 71.5993 44.3405 71.0093 43.7505C69.2893 42.0205 67.2293 40.7805 64.9793 40.0605H64.9893Z" fill="#2F3F64"/>
<path id="Vector_8" d="M79.2698 22.6304C78.8798 22.2404 78.2498 22.2404 77.8598 22.6304L71.6898 28.8404C68.1998 27.2804 64.3898 26.4504 60.4498 26.4504C53.0298 26.4504 46.0598 29.3604 40.8198 34.6304C40.2398 35.2204 40.2398 36.1704 40.8198 36.7504C41.4098 37.3304 42.3598 37.3304 42.9398 36.7504C47.6198 32.0404 53.8298 29.4504 60.4398 29.4504C63.5598 29.4504 66.5798 30.0304 69.3998 31.1304L66.6698 33.8804C64.6798 33.2604 62.5898 32.9104 60.4398 32.9104C54.7398 32.9104 49.3898 35.1404 45.3598 39.2004C44.7798 39.7904 44.7798 40.7404 45.3598 41.3204C45.9498 41.9004 46.8998 41.9004 47.4798 41.3204C50.9398 37.8404 55.5398 35.9204 60.4298 35.9204C61.7198 35.9204 62.9898 36.0604 64.2298 36.3304L61.1898 39.3904C60.9398 39.3704 60.6898 39.3604 60.4298 39.3604C56.4398 39.3604 52.6898 40.9204 49.8698 43.7604C49.2898 44.3504 49.2898 45.3004 49.8698 45.8804C50.1598 46.1704 50.5398 46.3204 50.9298 46.3204C51.3198 46.3204 51.6998 46.1704 51.9898 45.8804C53.6498 44.2104 55.7098 43.1104 57.9598 42.6404L50.0298 50.6204C49.6398 51.0104 49.6398 51.6504 50.0298 52.0304C50.2298 52.2204 50.4798 52.3204 50.7398 52.3204C50.9998 52.3204 51.2498 52.2204 51.4498 52.0304L79.2498 24.0504C79.6398 23.6604 79.6398 23.0204 79.2498 22.6404L79.2698 22.6304Z" fill="#2F3F64"/>
</g>
</g>
<g id="Group_4">
<path id="Vector_9" d="M102.65 108.16C116.082 108.16 126.97 97.2711 126.97 83.8395C126.97 70.408 116.082 59.5195 102.65 59.5195C89.2185 59.5195 78.3301 70.408 78.3301 83.8395C78.3301 97.2711 89.2185 108.16 102.65 108.16Z" fill="#FEC95C"/>
<path id="Vector_10" d="M102.65 109.15C88.6901 109.15 77.3301 97.7898 77.3301 83.8298C77.3301 69.8698 88.6901 58.5098 102.65 58.5098C116.61 58.5098 127.97 69.8698 127.97 83.8298C127.97 97.7898 116.61 109.15 102.65 109.15ZM102.65 60.5198C89.7901 60.5198 79.3301 70.9798 79.3301 83.8398C79.3301 96.6998 89.7901 107.16 102.65 107.16C115.51 107.16 125.97 96.6998 125.97 83.8398C125.97 70.9798 115.51 60.5198 102.65 60.5198Z" fill="#2F3F64"/>
</g>
<path id="Vector_11" d="M105.91 94.3698C105.91 96.0098 104.63 97.2498 102.95 97.2498C101.27 97.2498 99.9902 96.0098 99.9902 94.2898C99.9902 92.5698 101.23 91.3698 102.99 91.3698C104.75 91.3698 105.91 92.6098 105.91 94.3698ZM105.43 88.4098H100.43V70.0498H105.43V88.4098Z" fill="#2F3F64"/>
</g>
</g>
</g>
<defs>
<clipPath id="clip0_13_1284">
<rect width="127.97" height="109.15" fill="white"/>
</clipPath>
</defs>
</svg>
