<svg width="127" height="128" viewBox="0 0 127 128" fill="none" xmlns="http://www.w3.org/2000/svg">
<g id="containers">
<g id="Group">
<g id="Group_2">
<path id="Vector" fill-rule="evenodd" clip-rule="evenodd" d="M32.0898 56.0172L63.1799 72.1873V31.1572L32.0898 16.6572V56.0172Z" fill="#BCC5DC"/>
<path id="Vector_2" d="M63.1799 73.1874C63.0199 73.1874 62.8598 73.1474 62.7198 73.0774L31.6299 56.9074C31.2999 56.7374 31.0898 56.3974 31.0898 56.0174V16.6474C31.0898 16.3074 31.2599 15.9874 31.5499 15.8074C31.8399 15.6274 32.1999 15.5974 32.5099 15.7474L63.5999 30.2574C63.9499 30.4174 64.1799 30.7774 64.1799 31.1674V72.1974C64.1799 72.5474 63.9998 72.8674 63.6998 73.0474C63.5398 73.1474 63.3599 73.1974 63.1799 73.1974V73.1874ZM33.0898 55.4174L62.1799 70.5474V31.8074L33.0898 18.2374V55.4274V55.4174Z" fill="#2F3F64"/>
</g>
<g id="Group_3">
<path id="Vector_3" fill-rule="evenodd" clip-rule="evenodd" d="M94.2697 56.0172L63.1797 72.1873V31.1572L94.2697 16.6572V32.4072" fill="white"/>
<path id="Vector_4" d="M63.1797 73.1874C62.9997 73.1874 62.8197 73.1374 62.6597 73.0374C62.3597 72.8574 62.1797 72.5374 62.1797 72.1874V31.1574C62.1797 30.7674 62.4097 30.4174 62.7597 30.2474L93.8497 15.7374C94.1597 15.5974 94.5197 15.6174 94.8097 15.7974C95.0997 15.9774 95.2697 16.2974 95.2697 16.6374V32.3874C95.2697 32.9374 94.8197 33.3874 94.2697 33.3874C93.7197 33.3874 93.2697 32.9374 93.2697 32.3874V18.2074L64.1797 31.7774V70.5174L93.8097 55.1074C94.2997 54.8474 94.8997 55.0474 95.1597 55.5374C95.4097 56.0274 95.2197 56.6274 94.7297 56.8874L63.6397 73.0574C63.4897 73.1374 63.3397 73.1674 63.1797 73.1674V73.1874Z" fill="#2F3F64"/>
</g>
<g id="Group_4">
<path id="Vector_5" fill-rule="evenodd" clip-rule="evenodd" d="M94.2698 16.6576L64.9799 1.43762C63.8499 0.847617 62.5099 0.847617 61.3799 1.43762L32.0898 16.6576L63.1799 31.1676L94.2698 16.6576Z" fill="#2F3F64"/>
<path id="Vector_6" d="M63.1799 32.1575C63.0399 32.1575 62.8899 32.1275 62.7599 32.0675L31.6698 17.5575C31.3198 17.3975 31.0998 17.0575 31.0898 16.6775C31.0898 16.2975 31.2899 15.9475 31.6299 15.7675L60.9198 0.5475C62.3398 -0.1825 64.0299 -0.1825 65.4398 0.5475L94.7299 15.7675C95.0699 15.9475 95.2798 16.2975 95.2698 16.6775C95.2698 17.0575 95.0398 17.3975 94.6898 17.5575L63.5999 32.0675C63.4699 32.1275 63.3199 32.1575 63.1799 32.1575ZM34.3499 16.6075L63.1799 30.0575L92.0099 16.6075L64.5199 2.32747C63.6799 1.88747 62.6798 1.88747 61.8398 2.32747L34.3499 16.6075Z" fill="#2F3F64"/>
</g>
</g>
<g id="Group_5">
<g id="Group_6">
<path id="Vector_7" fill-rule="evenodd" clip-rule="evenodd" d="M63.1797 111.557L94.2697 126.068V86.6975L63.1797 72.1875V111.557Z" fill="#BCC5DC"/>
<path id="Vector_8" d="M94.2697 127.067C94.1297 127.067 93.9797 127.037 93.8497 126.977L62.7597 112.467C62.4097 112.307 62.1797 111.947 62.1797 111.557V72.1875C62.1797 71.8475 62.3497 71.5274 62.6397 71.3474C62.9297 71.1674 63.2897 71.1374 63.5997 71.2874L94.6897 85.7975C95.0397 85.9575 95.2697 86.3174 95.2697 86.7074V126.077C95.2697 126.417 95.0997 126.737 94.8097 126.917C94.6497 127.017 94.4597 127.077 94.2697 127.077V127.067ZM64.1797 110.917L93.2697 124.487V87.3274L64.1797 73.7575V110.917Z" fill="#2F3F64"/>
</g>
<g id="Group_7">
<path id="Vector_9" fill-rule="evenodd" clip-rule="evenodd" d="M125.36 109.068C125.36 110.588 124.48 111.967 123.11 112.607L94.2695 126.068V86.6975L125.36 72.1875V87.9375V109.068Z" fill="white"/>
<path id="Vector_10" d="M94.2695 127.067C94.0795 127.067 93.8996 127.017 93.7296 126.907C93.4396 126.727 93.2695 126.407 93.2695 126.067V86.6975C93.2695 86.3075 93.4995 85.9574 93.8495 85.7874L124.94 71.2774C125.25 71.1374 125.61 71.1574 125.9 71.3374C126.19 71.5174 126.36 71.8374 126.36 72.1774V109.057C126.36 110.957 125.25 112.697 123.53 113.507L94.6895 126.967C94.5595 127.027 94.4095 127.057 94.2695 127.057V127.067ZM95.2695 87.3374V124.497L122.68 111.707C123.7 111.227 124.36 110.197 124.36 109.077V73.7674L95.2695 87.3374Z" fill="#2F3F64"/>
</g>
<g id="Group_8">
<path id="Vector_11" fill-rule="evenodd" clip-rule="evenodd" d="M125.36 72.1871L94.2697 56.0371L63.1797 72.1871L94.2697 86.6971L125.36 72.1871Z" fill="#2F3F64"/>
<path id="Vector_12" d="M94.2697 87.6975C94.1297 87.6975 93.9797 87.6674 93.8497 87.6074L62.7597 73.0974C62.4097 72.9374 62.1897 72.5974 62.1797 72.2174C62.1797 71.8374 62.3797 71.4874 62.7197 71.3074L93.8097 55.1574C94.0997 55.0074 94.4397 55.0074 94.7297 55.1574L125.82 71.3074C126.16 71.4874 126.37 71.8374 126.36 72.2174C126.36 72.5974 126.13 72.9374 125.78 73.0974L94.6897 87.6074C94.5597 87.6674 94.4097 87.6975 94.2697 87.6975ZM65.4397 72.1375L94.2697 85.5874L123.1 72.1375L94.2697 57.1574L65.4397 72.1375Z" fill="#2F3F64"/>
</g>
</g>
<g id="Group_9">
<g id="Group_10">
<path id="Vector_13" fill-rule="evenodd" clip-rule="evenodd" d="M63.1799 111.557L32.0898 126.068V86.6975L63.1799 72.1875V111.557Z" fill="#BCC5DC"/>
<path id="Vector_14" d="M32.0898 127.067C31.8998 127.067 31.7199 127.017 31.5499 126.907C31.2599 126.727 31.0898 126.407 31.0898 126.067V86.6975C31.0898 86.3075 31.3198 85.9574 31.6698 85.7874L62.7599 71.2774C63.0699 71.1374 63.4298 71.1574 63.7198 71.3374C64.0098 71.5174 64.1799 71.8374 64.1799 72.1774V111.547C64.1799 111.937 63.9499 112.287 63.5999 112.457L32.5099 126.967C32.3799 127.027 32.2298 127.057 32.0898 127.057V127.067ZM33.0898 87.3374V124.497L62.1799 110.927V73.7674L33.0898 87.3374Z" fill="#2F3F64"/>
</g>
<g id="Group_11">
<path id="Vector_15" fill-rule="evenodd" clip-rule="evenodd" d="M1 109.068C1 110.588 1.88 111.967 3.25 112.607L32.09 126.068V86.6975L1 72.1875V87.9375V109.068Z" fill="white"/>
<path id="Vector_16" d="M32.09 127.067C31.95 127.067 31.8 127.037 31.67 126.977L2.83 113.517C1.11 112.717 0 110.967 0 109.067V72.1875C0 71.8475 0.170007 71.5274 0.460007 71.3474C0.750007 71.1674 1.11 71.1374 1.42 71.2874L32.51 85.7975C32.86 85.9575 33.09 86.3174 33.09 86.7074V126.077C33.09 126.417 32.92 126.737 32.63 126.917C32.47 127.017 32.28 127.077 32.09 127.077V127.067ZM2 73.7575V109.067C2 110.187 2.66001 111.227 3.68001 111.697L31.09 124.487V87.3274L2 73.7575Z" fill="#2F3F64"/>
</g>
<g id="Group_12">
<path id="Vector_17" fill-rule="evenodd" clip-rule="evenodd" d="M1 72.1871L32.09 56.0371L63.18 72.1871L32.09 86.6971L1 72.1871Z" fill="#2F3F64"/>
<path id="Vector_18" d="M32.09 87.6975C31.95 87.6975 31.8 87.6674 31.67 87.6074L0.580002 73.0974C0.230002 72.9374 0.01 72.5974 0 72.2174C0 71.8374 0.200009 71.4874 0.540009 71.3074L31.63 55.1574C31.92 55.0074 32.26 55.0074 32.55 55.1574L63.64 71.3074C63.98 71.4874 64.19 71.8374 64.18 72.2174C64.18 72.5974 63.95 72.9374 63.6 73.0974L32.51 87.6074C32.38 87.6674 32.23 87.6975 32.09 87.6975ZM3.26001 72.1375L32.09 85.5874L60.92 72.1375L32.09 57.1574L3.26001 72.1375Z" fill="#2F3F64"/>
</g>
</g>
</g>
</svg>
