<svg viewBox="0 0 127 129" fill="none" xmlns="http://www.w3.org/2000/svg">
<g id="contract-signing-1">
<path id="Vector" fill-rule="evenodd" clip-rule="evenodd" d="M94.8999 121.32V124C94.8799 126.43 92.8099 128.39 90.2599 128.39H4.92993C2.30993 128.39 0.169922 126.36 0.169922 123.87V12.6799C0.169922 10.1899 2.29993 8.16992 4.92993 8.16992H8.43982V116.81C8.43982 119.3 10.5698 121.32 13.1898 121.32H94.8899H94.8999Z" fill="#2F3F64"/>
<path id="Vector_2" fill-rule="evenodd" clip-rule="evenodd" d="M103.17 115.74C103.17 118.83 100.65 121.32 97.5699 121.32H13.21C10.59 121.32 8.45996 119.3 8.45996 116.81V5.62036C8.45996 3.13036 10.59 1.11035 13.21 1.11035H98.78C101.4 1.11035 103.53 3.13036 103.53 5.62036C103.53 5.62036 103.24 92.6204 103.17 115.74Z" fill="white"/>
<path id="Vector_3" d="M97.5603 122.32H13.2002C10.0302 122.32 7.4502 119.85 7.4502 116.81V5.62036C7.4502 2.58036 10.0302 0.110352 13.2002 0.110352H68.1102C68.6602 0.110352 69.1102 0.560352 69.1102 1.11035C69.1102 1.66035 68.6602 2.11035 68.1102 2.11035H13.2002C11.1302 2.11035 9.4502 3.68036 9.4502 5.62036V116.81C9.4502 118.75 11.1302 120.32 13.2002 120.32H97.5603C100.09 120.32 102.16 118.26 102.16 115.74L102.52 5.62036C102.52 3.69036 100.84 2.11035 98.7703 2.11035H93.1002C92.5502 2.11035 92.1002 1.66035 92.1002 1.11035C92.1002 0.560352 92.5502 0.110352 93.1002 0.110352H98.7703C101.94 0.110352 104.52 2.58036 104.52 5.62036L104.16 115.74C104.15 119.37 101.19 122.32 97.5603 122.32Z" fill="#2F3F64"/>
<path id="Vector_4" d="M28.6702 113.07C28.4102 113.07 28.1601 112.97 27.9601 112.78L23.6402 108.46C23.2502 108.07 23.2502 107.44 23.6402 107.05C24.0302 106.66 24.6602 106.66 25.0502 107.05L28.6702 110.66L37.4102 101.93C37.8002 101.54 38.4301 101.54 38.8201 101.93C39.2101 102.32 39.2101 102.95 38.8201 103.34L29.3801 112.78C29.1801 112.98 28.9302 113.07 28.6702 113.07Z" fill="#FEC95C"/>
<path id="Vector_5" d="M22.8998 14.3701H70.5098C71.6898 14.3701 72.6498 15.3301 72.6498 16.5101V20.8001C72.6498 21.9801 71.6898 22.9401 70.5098 22.9401H22.8998C21.7198 22.9401 20.7598 21.9801 20.7598 20.8001V16.5101C20.7598 15.3301 21.7198 14.3701 22.8998 14.3701Z" fill="#FEC95C"/>
<path id="Vector_6" d="M24.0295 31.0605H87.9495C89.1995 31.0605 90.2095 32.0706 90.2095 33.3206V37.8406C90.2095 39.0906 89.1995 40.1005 87.9495 40.1005H24.0295C22.7795 40.1005 21.7695 39.0906 21.7695 37.8406V33.3206C21.7695 32.0706 22.7795 31.0605 24.0295 31.0605Z" fill="white"/>
<path id="Vector_7" d="M87.9495 41.1005H24.0295C22.2295 41.1005 20.7695 39.6406 20.7695 37.8406V33.3206C20.7695 31.5206 22.2295 30.0605 24.0295 30.0605H87.9495C89.7495 30.0605 91.2095 31.5206 91.2095 33.3206V37.8406C91.2095 39.6406 89.7495 41.1005 87.9495 41.1005ZM24.0295 32.0505C23.3295 32.0505 22.7695 32.6205 22.7695 33.3105V37.8306C22.7695 38.5206 23.3395 39.0906 24.0295 39.0906H87.9495C88.6395 39.0906 89.2095 38.5206 89.2095 37.8306V33.3105C89.2095 32.6105 88.6395 32.0505 87.9495 32.0505H24.0295Z" fill="#BCC5DC"/>
<path id="Vector_8" d="M24.0295 48.2305H87.9495C89.1995 48.2305 90.2095 49.2405 90.2095 50.4905V55.0105C90.2095 56.2605 89.1995 57.2705 87.9495 57.2705H24.0295C22.7795 57.2705 21.7695 56.2605 21.7695 55.0105V50.4905C21.7695 49.2405 22.7795 48.2305 24.0295 48.2305Z" fill="white"/>
<path id="Vector_9" d="M87.9495 58.2607H24.0295C22.2295 58.2607 20.7695 56.8007 20.7695 55.0007V50.4807C20.7695 48.6807 22.2295 47.2207 24.0295 47.2207H87.9495C89.7495 47.2207 91.2095 48.6807 91.2095 50.4807V55.0007C91.2095 56.8007 89.7495 58.2607 87.9495 58.2607ZM24.0295 49.2207C23.3295 49.2207 22.7695 49.7907 22.7695 50.4807V55.0007C22.7695 55.6907 23.3395 56.2607 24.0295 56.2607H87.9495C88.6395 56.2607 89.2095 55.6907 89.2095 55.0007V50.4807C89.2095 49.7807 88.6395 49.2207 87.9495 49.2207H24.0295Z" fill="#BCC5DC"/>
<path id="Vector_10" d="M24.0295 65.4004H87.9495C89.1995 65.4004 90.2095 66.4103 90.2095 67.6603V72.1804C90.2095 73.4304 89.1995 74.4404 87.9495 74.4404H24.0295C22.7795 74.4404 21.7695 73.4304 21.7695 72.1804V67.6603C21.7695 66.4103 22.7795 65.4004 24.0295 65.4004Z" fill="white"/>
<path id="Vector_11" d="M87.9495 75.4404H24.0295C22.2295 75.4404 20.7695 73.9804 20.7695 72.1804V67.6603C20.7695 65.8603 22.2295 64.4004 24.0295 64.4004H87.9495C89.7495 64.4004 91.2095 65.8603 91.2095 67.6603V72.1804C91.2095 73.9804 89.7495 75.4404 87.9495 75.4404ZM24.0295 66.4004C23.3295 66.4004 22.7695 66.9703 22.7695 67.6603V72.1804C22.7695 72.8804 23.3395 73.4404 24.0295 73.4404H87.9495C88.6395 73.4404 89.2095 72.8704 89.2095 72.1804V67.6603C89.2095 66.9703 88.6395 66.4004 87.9495 66.4004H24.0295Z" fill="#BCC5DC"/>
<path id="Vector_12" d="M24.0295 82.5703H87.9495C89.1995 82.5703 90.2095 83.5803 90.2095 84.8303V89.3503C90.2095 90.6003 89.1995 91.6103 87.9495 91.6103H24.0295C22.7795 91.6103 21.7695 90.6003 21.7695 89.3503V84.8303C21.7695 83.5803 22.7795 82.5703 24.0295 82.5703Z" fill="white"/>
<path id="Vector_13" d="M87.9495 92.6103H24.0295C22.2295 92.6103 20.7695 91.1503 20.7695 89.3503V84.8303C20.7695 83.0303 22.2295 81.5703 24.0295 81.5703H87.9495C89.7495 81.5703 91.2095 83.0303 91.2095 84.8303V89.3503C91.2095 91.1503 89.7495 92.6103 87.9495 92.6103ZM24.0295 83.5703C23.3295 83.5703 22.7695 84.1403 22.7695 84.8303V89.3503C22.7695 90.0503 23.3395 90.6103 24.0295 90.6103H87.9495C88.6395 90.6103 89.2095 90.0403 89.2095 89.3503V84.8303C89.2095 84.1403 88.6395 83.5703 87.9495 83.5703H24.0295Z" fill="#BCC5DC"/>
<path id="Vector_14" fill-rule="evenodd" clip-rule="evenodd" d="M95.5597 91.1602C95.5597 91.1602 94.5997 91.9602 93.5397 92.8402C91.8497 94.2402 91.1096 96.4802 91.6196 98.6102C92.0096 100.21 92.4596 102.09 92.8296 103.61C92.9796 104.23 93.4397 104.72 94.0497 104.91C94.6597 105.1 95.3197 104.96 95.7997 104.55C97.0297 103.46 98.5596 102.11 99.8196 101.01C101.33 99.6802 102.03 97.6602 101.68 95.6902C101.45 94.3602 101.23 93.1202 101.23 93.1202" fill="white"/>
<path id="Vector_15" d="M94.5796 105.99C94.2996 105.99 94.0197 105.95 93.7497 105.86C92.7997 105.56 92.0896 104.81 91.8596 103.84L90.6497 98.8405C90.0497 96.3605 90.9297 93.7005 92.8997 92.0605L94.9197 90.3805C95.3397 90.0305 95.9796 90.0905 96.3296 90.5105C96.6796 90.9305 96.6296 91.5605 96.1996 91.9205L94.1797 93.6004C92.7897 94.7504 92.1696 96.6205 92.5996 98.3705L93.8097 103.37C93.8797 103.65 94.0796 103.87 94.3496 103.95C94.6196 104.04 94.9297 103.97 95.1397 103.78C96.3597 102.7 97.8997 101.35 99.1597 100.25C100.4 99.1605 100.99 97.4805 100.7 95.8605L100.25 93.2904C100.15 92.7504 100.52 92.2305 101.06 92.1305C101.61 92.0405 102.12 92.4005 102.22 92.9405L102.67 95.5105C103.08 97.8105 102.24 100.2 100.48 101.75C99.2196 102.85 97.6896 104.2 96.4596 105.29C95.9296 105.74 95.2596 105.98 94.5896 105.98L94.5796 105.99Z" fill="#2F3F64"/>
<path id="Vector_16" fill-rule="evenodd" clip-rule="evenodd" d="M117.57 51.4301L103.25 92.9101C102.96 93.7701 102.02 94.2201 101.17 93.9301L94.7298 91.7102C93.8798 91.4102 93.4198 90.4801 93.7198 89.6201L116.7 23.0501C116.99 22.2001 117.93 21.7401 118.78 22.0401L125.22 24.2602C126.07 24.5602 126.53 25.4902 126.23 26.3402L118.08 49.9502L111.57 47.7002C111.16 47.5602 110.71 47.7802 110.57 48.1902C110.43 48.6002 110.65 49.0401 111.05 49.1801L117.56 51.4301H117.57Z" fill="#2F3F64"/>
<path id="Vector_17" d="M110.09 36.7303L108.2 36.0804L112.66 23.1504C113.17 21.6704 114.79 20.8804 116.27 21.3904L120.33 22.7903L119.68 24.6803L115.61 23.2804C115.17 23.1304 114.69 23.3603 114.54 23.8003L110.08 36.7303H110.09Z" fill="#2F3F64"/>
<path id="Vector_18" d="M96.4002 98.5301C96.2902 98.5301 96.1801 98.5101 96.0701 98.4801C95.5501 98.3001 95.2701 97.7301 95.4501 97.2101L97.3201 91.7801C97.5001 91.2601 98.0701 90.9801 98.5901 91.1601C99.1101 91.3401 99.3901 91.9101 99.2101 92.4301L97.3401 97.8601C97.2001 98.2701 96.8102 98.5301 96.3902 98.5301H96.4002Z" fill="#2F3F64"/>
<path id="Vector_19" fill-rule="evenodd" clip-rule="evenodd" d="M95.6102 99.8402C94.6102 99.4902 94.0802 98.4002 94.4203 97.4002C94.7702 96.4002 95.8602 95.8702 96.8602 96.2202C97.8602 96.5602 98.3903 97.6502 98.0503 98.6502C97.7103 99.6502 96.6102 100.18 95.6102 99.8402Z" fill="#2F3F64"/>
<path id="Vector_20" fill-rule="evenodd" clip-rule="evenodd" d="M58.1094 110.29C65.5094 104.24 68.8193 110.79 68.8193 110.79C68.8193 110.79 77.8694 103.97 81.7794 108.87C85.6894 113.77 91.4493 107.55 91.4493 107.55" fill="white"/>
<path id="Vector_21" d="M68.8198 111.79C68.7398 111.79 68.6698 111.79 68.5898 111.76C68.2998 111.69 68.0599 111.5 67.9199 111.24C67.9199 111.22 66.8599 109.24 64.7699 108.81C63.0299 108.45 60.9999 109.21 58.7399 111.06C58.3099 111.41 57.6798 111.35 57.3298 110.92C56.9798 110.49 57.0398 109.86 57.4698 109.51C60.2398 107.25 62.8398 106.35 65.1998 106.85C67.1198 107.26 68.3898 108.49 69.0798 109.38C71.5898 107.72 78.8299 103.57 82.5599 108.24C83.3399 109.21 84.2099 109.7 85.2299 109.74C85.2699 109.74 85.3199 109.74 85.3699 109.74C87.9999 109.74 90.6898 106.89 90.7198 106.86C91.0898 106.46 91.7299 106.43 92.1299 106.81C92.5299 107.19 92.5599 107.82 92.1799 108.22C92.0399 108.37 88.7999 111.87 85.1599 111.74C83.5399 111.68 82.1399 110.92 80.9899 109.49C77.7299 105.41 69.4899 111.52 69.4099 111.58C69.2399 111.71 69.0199 111.78 68.8099 111.78L68.8198 111.79Z" fill="#FEC95C"/>
</g>
</svg>
