<svg width="91" height="101" viewBox="0 0 91 101" fill="none" xmlns="http://www.w3.org/2000/svg">
<g id="container">
<g id="Group">
<path id="Vector" fill-rule="evenodd" clip-rule="evenodd" d="M4.19 80.434L45.05 99.504V43.7241L1 23.1641V75.4241C1 77.5741 2.25 79.534 4.19 80.434Z" fill="#BCC5DC"/>
<path id="Vector_2" d="M45.05 100.504C44.91 100.504 44.76 100.475 44.63 100.415L3.77 81.3545C1.48 80.2845 0 77.9645 0 75.4345V23.1845C0 22.8445 0.169999 22.5245 0.459999 22.3445C0.749999 22.1645 1.11 22.1345 1.42 22.2845L45.47 42.8345C45.82 42.9945 46.05 43.3545 46.05 43.7445V99.5245C46.05 99.8645 45.88 100.184 45.59 100.364C45.43 100.464 45.24 100.525 45.05 100.525V100.504ZM4.61 79.5245L44.05 97.9245V44.3545L2 24.7345V75.4145C2 77.1645 3.03 78.7845 4.62 79.5245H4.61Z" fill="#2F3F64"/>
</g>
<g id="Group_2">
<path id="Vector_3" fill-rule="evenodd" clip-rule="evenodd" d="M89.0998 75.425C89.0998 77.5751 87.8498 79.535 85.9098 80.435L45.0498 99.505V43.725L89.0998 23.165V45.475" fill="white"/>
<path id="Vector_4" d="M45.0498 100.505C44.8598 100.505 44.6798 100.455 44.5098 100.345C44.2198 100.165 44.0498 99.8447 44.0498 99.5047V43.7247C44.0498 43.3347 44.2798 42.9847 44.6298 42.8147L88.6798 22.2647C88.9898 22.1247 89.3498 22.1447 89.6398 22.3247C89.9298 22.5047 90.0998 22.8248 90.0998 23.1648V45.4747C90.0998 46.0247 89.6498 46.4747 89.0998 46.4747C88.5498 46.4747 88.0998 46.0247 88.0998 45.4747V24.7348L46.0498 44.3548V97.9248L85.4898 79.5247C87.0798 78.7847 88.1098 77.1748 88.1098 75.4148C88.1098 74.8648 88.5598 74.4148 89.1098 74.4148C89.6598 74.4148 90.1098 74.8648 90.1098 75.4148C90.1098 77.9448 88.6298 80.2647 86.3398 81.3347L45.4798 100.395C45.3498 100.455 45.1998 100.485 45.0598 100.485L45.0498 100.505Z" fill="#2F3F64"/>
</g>
<g id="Group_3">
<path id="Vector_5" fill-rule="evenodd" clip-rule="evenodd" d="M89.1 23.1649L47.6 1.60492C46 0.774922 44.1 0.774922 42.5 1.60492L1 23.1649L45.05 43.7249L89.1 23.1649Z" fill="#2F3F64"/>
<path id="Vector_6" d="M45.05 44.725C44.91 44.725 44.76 44.695 44.63 44.635L0.58 24.085C0.23 23.925 0.01 23.585 0 23.205C0 22.825 0.200001 22.475 0.540001 22.295L42.04 0.735C43.93 -0.245 46.18 -0.245 48.06 0.735L89.56 22.295C89.9 22.475 90.11 22.825 90.1 23.205C90.1 23.585 89.87 23.925 89.52 24.085L45.47 44.635C45.34 44.695 45.19 44.725 45.05 44.725ZM3.26 23.1149L45.05 42.6149L86.84 23.1149L47.14 2.49495C45.83 1.81495 44.27 1.81495 42.96 2.49495L3.26 23.1149Z" fill="#2F3F64"/>
</g>
</g>
</svg>
