<svg viewBox="0 0 125 125" fill="none" xmlns="http://www.w3.org/2000/svg">
<g id="contract-signing-2">
<path id="Vector" fill-rule="evenodd" clip-rule="evenodd" d="M62.5507 34.4895V43.6495C62.5507 44.6095 61.7707 45.3995 60.8007 45.3995H51.0106C51.4806 46.3095 51.7506 47.3495 51.7506 48.4395C51.7506 52.1195 48.7606 55.1095 45.0806 55.1095C41.4006 55.1095 38.4106 52.1195 38.4106 48.4395C38.4106 47.3495 38.6806 46.3095 39.1406 45.3995H29.3506C28.3906 45.3995 27.6006 44.6095 27.6006 43.6495V12.1895C27.6006 11.2295 28.3806 10.4495 29.3506 10.4495H39.2606C38.7206 9.47952 38.4106 8.36951 38.4106 7.18951C38.4106 3.50951 41.4006 0.519531 45.0806 0.519531C48.7606 0.519531 51.7506 3.50951 51.7506 7.18951C51.7506 8.36951 51.4406 9.47952 50.9006 10.4495H60.8107C61.7707 10.4495 62.5607 11.2295 62.5607 12.1895V21.1495C58.8807 21.1495 55.8906 24.1395 55.8906 27.8195C55.8906 31.4995 58.8807 34.4895 62.5607 34.4895H62.5507Z" fill="#FEC95C"/>
<path id="Vector_2" fill-rule="evenodd" clip-rule="evenodd" d="M62.5509 34.4891C58.8709 34.4891 55.8809 31.4992 55.8809 27.8192C55.8809 24.1392 58.8709 21.1492 62.5509 21.1492V12.1191C62.5509 11.1591 63.3309 10.3691 64.3009 10.3691H73.5309C74.2209 13.3191 76.8709 15.5092 80.0209 15.5092C83.1709 15.5092 85.8209 13.3191 86.5109 10.3691H95.7408C96.7108 10.3691 97.4908 11.1591 97.4908 12.1191V43.5792C97.4908 44.5392 96.7108 45.3192 95.7408 45.3192H86.6809C86.6609 41.6592 83.6809 38.6992 80.0109 38.6992C76.3409 38.6992 73.3608 41.6592 73.3408 45.3192H64.2809C63.3109 45.3192 62.5309 44.5392 62.5309 43.5792V34.4891H62.5509Z" fill="#2F3F64"/>
<path id="Vector_3" fill-rule="evenodd" clip-rule="evenodd" d="M91.5702 61.9697H67.9502C66.4302 61.9697 64.9802 62.5898 63.9402 63.6998C60.0402 67.8398 50.4902 77.9697 50.4902 77.9697C50.4902 77.9697 50.4902 78.3098 50.4902 78.8698C50.5102 81.1398 51.6403 83.2598 53.5203 84.5298C55.4003 85.8098 57.7903 86.0798 59.9003 85.2598C64.2903 83.5498 68.5702 81.8898 68.5702 81.8898C68.5702 81.8898 71.3502 85.3798 74.2302 88.9998C78.2302 94.0398 84.3102 96.9697 90.7402 96.9697H97.5603L91.5603 61.9697H91.5702Z" fill="white"/>
<path id="Vector_4" fill-rule="evenodd" clip-rule="evenodd" d="M74.0303 61.9697H67.9502C66.4302 61.9697 64.9802 62.5898 63.9402 63.6998C60.0402 67.8398 50.4902 77.9697 50.4902 77.9697C50.4902 77.9697 50.4902 78.3098 50.4902 78.8698C50.5102 81.1398 51.6403 83.2598 53.5203 84.5298C55.4003 85.8098 57.7903 86.0798 59.9003 85.2598C64.2903 83.5498 68.5702 81.8898 68.5702 81.8898C68.5702 81.8898 71.3502 85.3798 74.2302 88.9998C78.2302 94.0398 84.3102 96.9697 90.7402 96.9697H97.5603L91.5603 61.9697" fill="white"/>
<path id="Vector_5" d="M97.5807 97.9695H90.7607C83.9807 97.9695 77.6807 94.9295 73.4707 89.6195L68.2607 83.0895C66.8807 83.6295 63.6108 84.8995 60.2808 86.1895C57.8508 87.1295 55.1207 86.8195 52.9707 85.3595C50.8207 83.9095 49.5207 81.4795 49.5107 78.8795V77.9795C49.5107 77.7195 49.6008 77.4795 49.7808 77.2895L63.2307 63.0195C64.4507 61.7195 66.1807 60.9795 67.9707 60.9795H74.0508C74.6008 60.9795 75.0508 61.4295 75.0508 61.9795C75.0508 62.5295 74.6008 62.9795 74.0508 62.9795H67.9707C66.7307 62.9795 65.5307 63.4995 64.6907 64.3995L51.5107 78.3795V78.8795C51.5307 80.8195 52.4907 82.6295 54.1007 83.7195C55.7107 84.8195 57.7508 85.0495 59.5608 84.3395C63.9408 82.6295 68.2307 80.9695 68.2307 80.9695C68.6407 80.8095 69.1007 80.9395 69.3707 81.2795L75.0408 88.3895C78.8708 93.2195 84.6108 95.9795 90.7708 95.9795H96.4108L90.6107 62.1495C90.5207 61.6095 90.8808 61.0895 91.4308 60.9995C91.9908 60.9095 92.4907 61.2695 92.5807 61.8195L98.5807 96.8195C98.6307 97.1095 98.5507 97.4095 98.3607 97.6295C98.1707 97.8595 97.8907 97.9895 97.6007 97.9895L97.5807 97.9695Z" fill="#2F3F64"/>
<path id="Vector_6" fill-rule="evenodd" clip-rule="evenodd" d="M111.8 53.3192L123.07 95.3691C123.25 96.0291 122.85 96.6992 122.19 96.8792L100.67 102.649C100.01 102.819 99.3301 102.429 99.1501 101.769L87.8801 59.7291C87.7001 59.0691 88.1001 58.3892 88.7601 58.2092L110.28 52.4492C110.94 52.2692 111.62 52.6592 111.8 53.3192Z" fill="#2F3F64"/>
<path id="Vector_7" d="M100.37 103.679C99.3702 103.679 98.4602 103.019 98.2002 102.019L86.9303 59.9792C86.6103 58.7892 87.3202 57.5592 88.5102 57.2392L110.03 51.4792C110.61 51.3192 111.21 51.3992 111.73 51.6992C112.25 51.9992 112.62 52.4792 112.77 53.0592L124.04 95.1092C124.36 96.2892 123.65 97.5192 122.46 97.8392L100.94 103.609C100.75 103.659 100.56 103.679 100.37 103.679ZM110.61 53.3992C110.61 53.3992 110.57 53.3992 110.55 53.3992L89.0303 59.1592C88.9103 59.1892 88.8302 59.3292 88.8602 59.4592L100.13 101.499C100.16 101.629 100.3 101.709 100.43 101.669L121.94 95.8992C122.06 95.8692 122.14 95.7392 122.11 95.6092L110.84 53.5592C110.82 53.4792 110.77 53.4392 110.73 53.4192C110.7 53.3992 110.66 53.3892 110.61 53.3892V53.3992Z" fill="#2F3F64"/>
<path id="Vector_8" fill-rule="evenodd" clip-rule="evenodd" d="M87.6901 96.7397L90.6201 99.6697C91.8701 100.92 91.8701 102.95 90.6201 104.19L89.4901 105.32C88.2501 106.56 86.2401 106.57 84.9901 105.34C86.2401 106.59 86.2401 108.61 84.9901 109.86L83.8601 110.99C82.6101 112.24 80.5901 112.24 79.3401 110.99C80.5901 112.24 80.5901 114.26 79.3401 115.51L78.2101 116.64C76.9601 117.89 74.9401 117.89 73.6901 116.64C74.9401 117.89 74.9401 119.91 73.6901 121.16L72.5602 122.29C71.3102 123.54 69.2902 123.54 68.0402 122.29L63.5402 117.79L27.5801 96.9697L23.5801 80.9697L34.5801 63.9697H63.6901L50.4901 77.9697V78.8698C50.5101 81.1398 51.6501 83.2598 53.5201 84.5298C55.4001 85.8098 57.7901 86.0798 59.9001 85.2598L68.5701 81.8898L74.2301 88.9998C77.5901 93.2298 82.4102 95.9697 87.6802 96.7397H87.6901Z" fill="#BCC5DC"/>
<path id="Vector_9" d="M70.3005 124.22C69.1805 124.22 68.1305 123.78 67.3305 122.99L62.9205 118.58L27.0704 97.83C26.8404 97.69 26.6705 97.47 26.6005 97.21L22.6005 81.21C22.5305 80.94 22.5805 80.6599 22.7305 80.4199L33.7305 63.4199C33.9105 63.1299 34.2304 62.96 34.5704 62.96H63.6806C64.0806 62.96 64.4405 63.1999 64.6005 63.5599C64.7605 63.9199 64.6805 64.35 64.4105 64.64L51.4905 78.3499V78.8499C51.5105 80.7899 52.4705 82.5999 54.0805 83.6899C55.6905 84.7899 57.7305 85.0199 59.5405 84.3099L68.2105 80.9399C68.6205 80.7799 69.0805 80.9099 69.3505 81.2499L75.0205 88.3599C78.2105 92.3699 82.7605 94.9899 87.8305 95.7299C88.0405 95.7599 88.2405 95.8599 88.3905 96.0099L91.3204 98.9399C92.1104 99.7399 92.5505 100.79 92.5505 101.92C92.5505 103.04 92.1104 104.09 91.3204 104.88L90.1904 106.01C89.2904 106.91 88.0705 107.31 86.9005 107.22C87.0005 108.41 86.6004 109.64 85.6904 110.55L84.5606 111.68C83.7706 112.47 82.7205 112.91 81.5905 112.91C81.4705 112.91 81.3605 112.91 81.2505 112.9C81.3405 114.08 80.9405 115.3 80.0405 116.2L78.9105 117.33C78.0405 118.2 76.8205 118.64 75.6005 118.55C75.6905 119.73 75.2905 120.95 74.3905 121.85L73.2605 122.98C72.4705 123.77 71.4205 124.21 70.2905 124.21L70.3005 124.22ZM28.4404 96.3099L64.0305 116.92C64.1105 116.96 64.1705 117.02 64.2405 117.08L68.7405 121.58C69.1605 122 69.7105 122.22 70.2905 122.22C70.8805 122.22 71.4305 121.99 71.8405 121.58L72.9705 120.45C73.8205 119.59 73.8205 118.2 72.9705 117.34C72.7705 117.14 72.6806 116.89 72.6806 116.63C72.6806 116.37 72.7805 116.12 72.9705 115.92C73.3605 115.53 73.9905 115.53 74.3805 115.92C75.2105 116.75 76.6605 116.75 77.4805 115.92L78.6105 114.79C79.4605 113.93 79.4605 112.54 78.6105 111.68C78.4205 111.48 78.3204 111.23 78.3204 110.97C78.3204 110.71 78.4205 110.46 78.6105 110.26C79.0005 109.87 79.6305 109.87 80.0305 110.26C80.4405 110.68 81.0005 110.9 81.5805 110.9C82.1705 110.9 82.7205 110.67 83.1305 110.26L84.2605 109.13C85.1105 108.27 85.1105 106.88 84.2605 106.02C83.8705 105.63 83.8705 105 84.2605 104.61C84.6505 104.22 85.2805 104.22 85.6705 104.61C86.5205 105.45 87.9105 105.44 88.7605 104.6L89.8905 103.47C90.3005 103.06 90.5305 102.51 90.5305 101.93C90.5305 101.34 90.3005 100.78 89.8905 100.37L87.1904 97.6699C81.7404 96.7899 76.8706 93.9399 73.4306 89.6099L68.2205 83.08L60.2405 86.1799C57.8105 87.1199 55.0806 86.8099 52.9306 85.3499C50.7806 83.8999 49.4805 81.4699 49.4705 78.8699V77.9699C49.4705 77.7099 49.5605 77.46 49.7405 77.28L61.3505 64.9699H35.1005L24.6305 81.15L28.4205 96.3199L28.4404 96.3099Z" fill="#2F3F64"/>
<path id="Vector_10" fill-rule="evenodd" clip-rule="evenodd" d="M37.0705 59.7291L25.8006 101.769C25.6206 102.429 24.9406 102.819 24.2806 102.649L2.76061 96.8792C2.10061 96.6992 1.7106 96.0291 1.8806 95.3691L13.1506 53.3192C13.3306 52.6592 14.0006 52.2692 14.6706 52.4492L36.1905 58.2092C36.8505 58.3892 37.2405 59.0691 37.0705 59.7291Z" fill="#FEC95C"/>
<path id="Vector_11" d="M24.6003 103.679C24.4203 103.679 24.2303 103.659 24.0403 103.609L13.8503 100.879C13.3203 100.739 13.0003 100.189 13.1403 99.6592C13.2803 99.1292 13.8303 98.8092 14.3603 98.9492L24.5403 101.679C24.6603 101.709 24.8003 101.639 24.8303 101.509L36.1003 59.4692C36.1303 59.3392 36.0604 59.2092 35.9304 59.1692L14.4204 53.4092C14.3404 53.3892 14.2803 53.4092 14.2403 53.4292C14.2003 53.4492 14.1503 53.4892 14.1303 53.5692L2.86029 95.6192C2.72029 96.1492 2.17032 96.4692 1.64032 96.3292C1.11032 96.1892 0.790361 95.6392 0.930361 95.1092L12.2003 53.0592C12.3503 52.4792 12.7203 51.9992 13.2403 51.6992C13.7603 51.3992 14.3602 51.3192 14.9402 51.4792L36.4503 57.2392C37.6403 57.5692 38.3503 58.7992 38.0303 59.9792L26.7603 102.019C26.4903 103.019 25.5803 103.679 24.5903 103.679H24.6003Z" fill="#2F3F64"/>
<path id="Vector_12" fill-rule="evenodd" clip-rule="evenodd" d="M46.1898 101.559L41.9299 108.939C41.0499 110.469 39.0899 110.999 37.5599 110.109L36.1799 109.319C34.6499 108.429 34.1299 106.479 35.0099 104.949L39.2699 97.5691C40.1499 96.0391 42.1099 95.5091 43.6399 96.3991L45.0199 97.1891C46.5499 98.0791 47.0698 100.029 46.1898 101.559Z" fill="white"/>
<path id="Vector_13" d="M39.1504 111.539C38.4204 111.539 37.7005 111.349 37.0605 110.969L35.6805 110.179C33.6805 109.009 32.9904 106.439 34.1404 104.439L38.4004 97.0592C38.9604 96.0892 39.8704 95.3891 40.9604 95.0991C42.0404 94.8091 43.1704 94.9592 44.1404 95.5292L45.5204 96.3192C47.5204 97.4892 48.2105 100.059 47.0605 102.059L42.8004 109.439C42.2404 110.409 41.3304 111.109 40.2404 111.399C39.8804 111.499 39.5204 111.539 39.1604 111.539H39.1504ZM42.0404 96.9592C41.8504 96.9592 41.6604 96.9792 41.4804 97.0292C40.9104 97.1792 40.4404 97.5492 40.1404 98.0592L35.8804 105.439C35.2804 106.489 35.6403 107.839 36.6903 108.449L38.0703 109.239C38.5803 109.539 39.1704 109.619 39.7404 109.469C40.3104 109.319 40.7804 108.949 41.0804 108.439L45.3404 101.059C45.9404 100.009 45.5804 98.6592 44.5304 98.0492L43.1504 97.2592C42.8104 97.0592 42.4304 96.9592 42.0504 96.9592H42.0404Z" fill="#2F3F64"/>
<path id="Vector_14" fill-rule="evenodd" clip-rule="evenodd" d="M53.1 105.55L48.84 112.94C47.96 114.47 46 114.99 44.47 114.11L43.09 113.31C41.56 112.43 41.04 110.47 41.92 108.94L46.1801 101.56C47.0601 100.03 49.02 99.5098 50.55 100.39L51.9301 101.19C53.4601 102.07 53.98 104.03 53.1 105.55Z" fill="white"/>
<path id="Vector_15" d="M46.0703 115.53C45.3603 115.53 44.6403 115.35 43.9803 114.97L42.6003 114.17C40.6003 113.01 39.9104 110.44 41.0604 108.43L45.3203 101.05C46.4803 99.0495 49.0504 98.3596 51.0504 99.5096L52.4402 100.31C53.4102 100.87 54.1003 101.77 54.3903 102.86C54.6803 103.94 54.5303 105.07 53.9703 106.03L49.7103 113.42C48.9303 114.76 47.5203 115.52 46.0703 115.52V115.53ZM48.9603 100.96C48.2003 100.96 47.4604 101.35 47.0504 102.06L42.7903 109.44C42.1803 110.49 42.5403 111.84 43.5903 112.44L44.9703 113.24C46.0203 113.85 47.3703 113.49 47.9703 112.44L52.2303 105.05C52.5203 104.55 52.6003 103.96 52.4503 103.39C52.3003 102.82 51.9404 102.35 51.4304 102.06L50.0403 101.26C49.7003 101.06 49.3203 100.97 48.9503 100.97L48.9603 100.96Z" fill="#2F3F64"/>
<path id="Vector_16" fill-rule="evenodd" clip-rule="evenodd" d="M60.02 109.55L55.76 116.93C54.88 118.46 52.92 118.99 51.39 118.1L50.01 117.31C48.48 116.42 47.9599 114.47 48.8399 112.94L53.0999 105.55C53.9799 104.03 55.9399 103.5 57.4699 104.38L58.8499 105.18C60.3799 106.07 60.9 108.02 60.02 109.55Z" fill="white"/>
<path id="Vector_17" d="M52.9905 119.53C52.2605 119.53 51.5405 119.34 50.8905 118.96L49.5105 118.18C47.5105 117.01 46.8205 114.44 47.9705 112.44L52.2305 105.05C53.3905 103.05 55.9605 102.36 57.9605 103.51L59.3405 104.31C61.3405 105.48 62.0305 108.05 60.8805 110.05L56.6205 117.43C56.0605 118.4 55.1506 119.1 54.0606 119.39C53.7006 119.49 53.3405 119.53 52.9805 119.53H52.9905ZM55.8805 104.95C55.1205 104.95 54.3805 105.34 53.9705 106.05L49.7105 113.44C49.1105 114.49 49.4705 115.83 50.5205 116.45L51.9005 117.23C52.4105 117.53 53.0005 117.61 53.5705 117.46C54.1405 117.31 54.6106 116.94 54.9106 116.43L59.1706 109.05C59.7706 108 59.4105 106.65 58.3605 106.04L56.9805 105.24C56.6405 105.04 56.2605 104.95 55.8905 104.95H55.8805Z" fill="#2F3F64"/>
<path id="Vector_18" fill-rule="evenodd" clip-rule="evenodd" d="M66.9603 113.519L62.7003 120.899C61.8203 122.429 59.8603 122.959 58.3303 122.069L56.9503 121.279C55.4203 120.389 54.9004 118.439 55.7804 116.909L60.0404 109.519C60.9204 107.999 62.8804 107.469 64.4004 108.359L65.7804 109.149C67.3104 110.039 67.8303 111.989 66.9503 113.519H66.9603Z" fill="white"/>
<path id="Vector_19" d="M59.92 123.5C59.19 123.5 58.4699 123.31 57.8299 122.93L56.4499 122.14C54.4499 120.97 53.76 118.4 54.91 116.4L59.17 109.01C59.73 108.04 60.6399 107.34 61.7299 107.06C62.8099 106.77 63.94 106.93 64.91 107.49L66.29 108.28C68.29 109.45 68.9799 112.02 67.8299 114.02L63.5699 121.4C63.0099 122.38 62.1 123.07 61.01 123.36C60.65 123.45 60.29 123.5 59.93 123.5H59.92ZM62.81 108.92C62.62 108.92 62.4299 108.94 62.2499 108.99C61.6799 109.14 61.21 109.5 60.91 110.01L56.65 117.4C56.05 118.45 56.4099 119.79 57.4599 120.41L58.8399 121.2C59.3499 121.5 59.9399 121.57 60.4999 121.43C61.0699 121.28 61.5499 120.91 61.8399 120.4L66.0999 113.02C66.6999 111.97 66.34 110.62 65.29 110.01L63.91 109.22C63.57 109.02 63.19 108.92 62.81 108.92Z" fill="#2F3F64"/>
<path id="Vector_20" fill-rule="evenodd" clip-rule="evenodd" d="M16.1199 86.2393C18.5799 86.2393 20.5698 88.2293 20.5698 90.6893C20.5698 93.1493 18.5799 95.1393 16.1199 95.1393C13.6599 95.1393 11.6699 93.1493 11.6699 90.6893C11.6699 88.2293 13.6699 86.2393 16.1199 86.2393Z" fill="white"/>
<path id="Vector_21" d="M16.1199 96.1295C13.1099 96.1295 10.6699 93.6895 10.6699 90.6795C10.6699 87.6695 13.1199 85.2295 16.1199 85.2295C19.1199 85.2295 21.5698 87.6795 21.5698 90.6795C21.5698 93.6795 19.1199 96.1295 16.1199 96.1295ZM16.1199 87.2395C14.2199 87.2395 12.6699 88.7895 12.6699 90.6895C12.6699 92.5895 14.2199 94.1395 16.1199 94.1395C18.0199 94.1395 19.5698 92.5895 19.5698 90.6895C19.5698 88.7895 18.0199 87.2395 16.1199 87.2395Z" fill="#2F3F64"/>
<path id="Vector_22" fill-rule="evenodd" clip-rule="evenodd" d="M109.28 86.2393C111.74 86.2393 113.73 88.2293 113.73 90.6893C113.73 93.1493 111.74 95.1393 109.28 95.1393C106.82 95.1393 104.83 93.1493 104.83 90.6893C104.83 88.2293 106.82 86.2393 109.28 86.2393Z" fill="white"/>
<path id="Vector_23" d="M109.28 96.1295C106.27 96.1295 103.83 93.6895 103.83 90.6795C103.83 87.6695 106.28 85.2295 109.28 85.2295C112.28 85.2295 114.73 87.6795 114.73 90.6795C114.73 93.6795 112.28 96.1295 109.28 96.1295ZM109.28 87.2395C107.38 87.2395 105.83 88.7895 105.83 90.6895C105.83 92.5895 107.38 94.1395 109.28 94.1395C111.18 94.1395 112.73 92.5895 112.73 90.6895C112.73 88.7895 111.18 87.2395 109.28 87.2395Z" fill="#2F3F64"/>
</g>
</svg>
