<svg width="129" height="100" viewBox="0 0 129 100" fill="none" xmlns="http://www.w3.org/2000/svg">
<g clip-path="url(#clip0_270_396)">
<path d="M87.7295 80.6299H5.51953C3.25953 80.6299 1.38953 78.9799 1.01953 76.8099C2.30953 59.5899 22.2495 45.8799 46.6295 45.8799C71.0095 45.8799 90.9495 59.5899 92.2395 76.8099C91.8695 78.9799 89.9895 80.6299 87.7395 80.6299H87.7295ZM66.7695 25.4999C66.7695 36.7499 57.7495 45.8699 46.6295 45.8699C35.5095 45.8699 26.4895 36.7499 26.4895 25.4999C26.4895 14.2499 35.5095 5.12988 46.6295 5.12988C57.7495 5.12988 66.7695 14.2499 66.7695 25.4999Z" fill="white"/>
<path d="M54.3995 45.3596C62.2195 42.2197 67.7695 34.5096 67.7695 25.5096C67.7695 13.7296 58.2895 4.13965 46.6295 4.13965C34.9695 4.13965 25.4895 13.7296 25.4895 25.5096C25.4895 34.5196 31.0395 42.2197 38.8595 45.3596C30.8495 46.3396 23.2595 48.8097 16.9595 52.5696C16.2395 52.9796 -0.680458 62.8997 0.029542 80.6796C0.049542 81.2197 0.489542 81.6396 1.02954 81.6396C1.03954 81.6396 1.05954 81.6396 1.06954 81.6396C1.61954 81.6197 2.04954 81.1497 2.02954 80.5996C1.36954 64.0496 17.7895 54.3996 17.9695 54.2996C25.9895 49.5196 36.1695 46.8896 46.6395 46.8896C70.3395 46.8896 89.8995 59.9996 91.2395 76.7696C90.8995 78.4396 89.4495 79.6497 87.7395 79.6497C87.1895 79.6497 86.7395 80.0996 86.7395 80.6497C86.7395 81.1997 87.1895 81.6497 87.7395 81.6497C90.4595 81.6497 92.7695 79.6896 93.2295 76.9896C93.2395 76.9096 93.2495 76.8297 93.2395 76.7496C92.0495 60.7896 75.5795 47.9396 54.4095 45.3696L54.3995 45.3596ZM27.4895 25.4996C27.4895 14.8196 36.0795 6.12965 46.6295 6.12965C57.1795 6.12965 65.7695 14.8196 65.7695 25.4996C65.7695 36.1796 57.1795 44.8696 46.6295 44.8696C36.0795 44.8696 27.4895 36.1796 27.4895 25.4996Z" fill="#2F3F64"/>
<path d="M46.6299 81.6296C46.0799 81.6296 45.6299 81.1796 45.6299 80.6296V61.6396C45.6299 61.0896 46.0799 60.6396 46.6299 60.6396C47.1799 60.6396 47.6299 61.0896 47.6299 61.6396V80.6296C47.6299 81.1796 47.1799 81.6296 46.6299 81.6296Z" fill="#2F3F64"/>
<path d="M55.1394 62.64H46.6294C46.2294 62.64 45.8594 62.4 45.7094 62.02C45.5494 61.65 45.6394 61.22 45.9294 60.93L59.9294 46.93C60.1794 46.68 60.5394 46.59 60.8694 46.67C63.1594 47.23 65.3794 47.92 67.4894 48.71C67.8094 48.83 68.0394 49.1 68.1094 49.43C68.1794 49.76 68.0794 50.11 67.8394 50.35L55.8394 62.35C55.6494 62.54 55.3994 62.64 55.1294 62.64H55.1394ZM49.0394 60.64H54.7194L65.3094 50.05C63.8894 49.56 62.4294 49.13 60.9294 48.74L49.0294 60.64H49.0394Z" fill="#2F3F64"/>
<path d="M46.6291 62.6397H38.1191C37.8491 62.6397 37.5991 62.5297 37.4091 62.3497L25.4091 50.3497C25.1691 50.1097 25.0691 49.7597 25.1391 49.4297C25.2091 49.0997 25.4491 48.8297 25.7591 48.7097C27.8691 47.9097 30.0991 47.2297 32.3791 46.6697C32.7091 46.5897 33.0791 46.6897 33.3191 46.9297L47.3191 60.9297C47.6091 61.2197 47.6891 61.6497 47.5391 62.0197C47.3891 62.3897 47.0191 62.6397 46.6191 62.6397H46.6291ZM38.5291 60.6397H44.2191L32.3191 48.7397C30.8191 49.1197 29.3591 49.5597 27.9391 50.0497L38.5291 60.6397Z" fill="#2F3F64"/>
<path d="M70.9598 26.03C70.4098 26.03 69.9598 25.58 69.9598 25.03C69.9598 12.33 59.4898 2 46.6298 2C33.7698 2 23.2998 12.33 23.2998 25.03C23.2998 25.58 22.8498 26.03 22.2998 26.03C21.7498 26.03 21.2998 25.58 21.2998 25.03C21.2898 11.23 32.6598 0 46.6298 0C60.5998 0 71.9598 11.23 71.9598 25.03C71.9598 25.58 71.5098 26.03 70.9598 26.03Z" fill="#2F3F64"/>
<path d="M69.4999 35.1403H64.3799C65.9099 32.2703 66.7799 28.9903 66.7799 25.5003C66.7799 25.1003 66.7399 24.7103 66.7199 24.3203H69.5099C72.4999 24.3203 74.9199 26.7403 74.9199 29.7303C74.9199 32.7203 72.4999 35.1403 69.5099 35.1403H69.4999Z" fill="#2F3F64"/>
<path d="M69.4999 36.1401H64.3799C64.0299 36.1401 63.6999 35.9601 63.5199 35.6501C63.3399 35.3401 63.3299 34.9801 63.4899 34.6701C64.9799 31.8701 65.7699 28.7001 65.7699 25.5001C65.7699 25.2401 65.7499 24.9801 65.7299 24.7201L65.7099 24.3801C65.6899 24.1101 65.7899 23.8401 65.9799 23.6401C66.1699 23.4401 66.4299 23.3301 66.7099 23.3301H69.4999C73.0299 23.3301 75.9099 26.2101 75.9099 29.7401C75.9099 33.2701 73.0299 36.1501 69.4999 36.1501V36.1401ZM65.9699 34.1401H69.4999C71.9299 34.1401 73.9099 32.1601 73.9099 29.7301C73.9099 27.3001 71.9299 25.3201 69.4999 25.3201H67.7699C67.7699 25.3801 67.7699 25.4401 67.7699 25.5001C67.7699 28.4701 67.1499 31.4301 65.9699 34.1401Z" fill="#2F3F64"/>
<path d="M23.4005 35.1403H28.5205C26.9905 32.2703 26.1205 28.9903 26.1205 25.5003C26.1205 25.1003 26.1605 24.7103 26.1805 24.3203H23.3905C20.4005 24.3203 17.9805 26.7403 17.9805 29.7303C17.9805 32.7203 20.4005 35.1403 23.3905 35.1403H23.4005Z" fill="#2F3F64"/>
<path d="M28.53 36.1403H23.41C19.88 36.1403 17 33.2603 17 29.7303C17 26.2003 19.88 23.3203 23.41 23.3203H26.2C26.48 23.3203 26.74 23.4303 26.93 23.6303C27.12 23.8303 27.22 24.1003 27.2 24.3703L27.18 24.7103C27.16 24.9703 27.14 25.2303 27.14 25.4903C27.14 28.6803 27.93 31.8503 29.42 34.6603C29.59 34.9703 29.58 35.3403 29.39 35.6403C29.21 35.9403 28.88 36.1303 28.53 36.1303V36.1403ZM23.4 25.3203C20.97 25.3203 18.99 27.3003 18.99 29.7303C18.99 32.1603 20.97 34.1403 23.4 34.1403H26.93C25.75 31.4303 25.13 28.4703 25.13 25.5003C25.13 25.4403 25.13 25.3803 25.13 25.3203H23.4Z" fill="#2F3F64"/>
<path d="M46.5991 41.7202H25.7491C23.2891 41.7202 21.2891 39.7202 21.2891 37.2602V29.7402C21.2891 29.1902 21.7391 28.7402 22.2891 28.7402C22.8391 28.7402 23.2891 29.1902 23.2891 29.7402V37.2602C23.2891 38.6202 24.3891 39.7202 25.7491 39.7202H46.5991C47.1491 39.7202 47.5991 40.1702 47.5991 40.7202C47.5991 41.2702 47.1491 41.7202 46.5991 41.7202Z" fill="#2F3F64"/>
<path d="M113.759 33.9798C113.759 32.6198 112.659 31.5098 111.289 31.5098H58.6993C56.9293 31.5098 55.4893 32.9498 55.4893 34.7198V80.8198H111.289C112.649 80.8198 113.759 79.7198 113.759 78.3498V49.1098" fill="#BCC5DC"/>
<path d="M111.289 81.8198H55.4893C54.9393 81.8198 54.4893 81.3698 54.4893 80.8198V34.7198C54.4893 32.3998 56.3793 30.5098 58.6993 30.5098H111.289C113.199 30.5098 114.759 32.0598 114.759 33.9798C114.759 34.5298 114.309 34.9798 113.759 34.9798C113.209 34.9798 112.759 34.5298 112.759 33.9798C112.759 33.1698 112.099 32.5098 111.289 32.5098H58.6993C57.4793 32.5098 56.4893 33.4998 56.4893 34.7198V79.8198H111.289C112.099 79.8198 112.759 79.1598 112.759 78.3498V49.1098C112.759 48.5598 113.209 48.1098 113.759 48.1098C114.309 48.1098 114.759 48.5598 114.759 49.1098V78.3498C114.759 80.2598 113.199 81.8198 111.289 81.8198Z" fill="#2F3F64"/>
<path d="M55.4893 75.8496V80.8196H8.98926V79.2396C8.98926 77.3696 10.5093 75.8496 12.3793 75.8496H55.4893Z" fill="#2F3F64"/>
<path d="M55.4893 81.8196H8.98926C8.43926 81.8196 7.98926 81.3696 7.98926 80.8196V79.2396C7.98926 76.8196 9.95926 74.8496 12.3793 74.8496H55.4893C56.0393 74.8496 56.4893 75.2996 56.4893 75.8496V80.8196C56.4893 81.3696 56.0393 81.8196 55.4893 81.8196ZM9.98926 79.8196H54.4893V76.8496H12.3793C11.0593 76.8496 9.98926 77.9196 9.98926 79.2396V79.8196Z" fill="#2F3F64"/>
<path d="M85.48 62.1905C89.1969 62.1905 92.21 59.1773 92.21 55.4605C92.21 51.7436 89.1969 48.7305 85.48 48.7305C81.7631 48.7305 78.75 51.7436 78.75 55.4605C78.75 59.1773 81.7631 62.1905 85.48 62.1905Z" fill="white"/>
<path d="M85.48 63.1905C81.22 63.1905 77.75 59.7205 77.75 55.4605C77.75 51.2005 81.22 47.7305 85.48 47.7305C89.74 47.7305 93.21 51.2005 93.21 55.4605C93.21 59.7205 89.74 63.1905 85.48 63.1905ZM85.48 49.7305C82.32 49.7305 79.75 52.3005 79.75 55.4605C79.75 58.6205 82.32 61.1905 85.48 61.1905C88.64 61.1905 91.21 58.6205 91.21 55.4605C91.21 52.3005 88.64 49.7305 85.48 49.7305Z" fill="#2F3F64"/>
<path d="M122.4 84.3401C122.4 81.6801 124.55 79.5302 127.21 79.5302V70.4102H78.54V79.5302C81.2 79.5302 83.35 81.6801 83.35 84.3401C83.35 87.0001 81.2 89.1502 78.54 89.1502V98.2701H127.21V89.1502C124.55 89.1502 122.4 87.0001 122.4 84.3401Z" fill="#FEC95C"/>
<path d="M127.21 99.2701H78.54C77.99 99.2701 77.54 98.8201 77.54 98.2701V89.1502C77.54 88.6002 77.99 88.1502 78.54 88.1502C80.64 88.1502 82.35 86.4401 82.35 84.3401C82.35 82.2401 80.64 80.5302 78.54 80.5302C77.99 80.5302 77.54 80.0802 77.54 79.5302V70.4102C77.54 69.8602 77.99 69.4102 78.54 69.4102H127.21C127.76 69.4102 128.21 69.8602 128.21 70.4102V79.5302C128.21 80.0802 127.76 80.5302 127.21 80.5302C125.11 80.5302 123.4 82.2401 123.4 84.3401C123.4 86.4401 125.11 88.1502 127.21 88.1502C127.76 88.1502 128.21 88.6002 128.21 89.1502V98.2701C128.21 98.8201 127.76 99.2701 127.21 99.2701ZM79.54 97.2701H126.21V90.0602C123.48 89.5802 121.4 87.2002 121.4 84.3302C121.4 81.4602 123.48 79.0802 126.21 78.6002V71.3902H79.54V78.6002C82.27 79.0802 84.35 81.4602 84.35 84.3302C84.35 87.2002 82.27 89.5802 79.54 90.0602V97.2701Z" fill="#2F3F64"/>
<path d="M91.0996 74.6396C90.5496 74.6396 90.0996 74.1896 90.0996 73.6396V71.1396C90.0996 70.5896 90.5496 70.1396 91.0996 70.1396C91.6496 70.1396 92.0996 70.5896 92.0996 71.1396V73.6396C92.0996 74.1896 91.6496 74.6396 91.0996 74.6396Z" fill="#2F3F64"/>
<path d="M91.0996 92.3496C90.5496 92.3496 90.0996 91.8996 90.0996 91.3496V86.9196C90.0996 86.3696 90.5496 85.9196 91.0996 85.9196C91.6496 85.9196 92.0996 86.3696 92.0996 86.9196V91.3496C92.0996 91.8996 91.6496 92.3496 91.0996 92.3496ZM91.0996 83.4896C90.5496 83.4896 90.0996 83.0396 90.0996 82.4896V78.0596C90.0996 77.5096 90.5496 77.0596 91.0996 77.0596C91.6496 77.0596 92.0996 77.5096 92.0996 78.0596V82.4896C92.0996 83.0396 91.6496 83.4896 91.0996 83.4896Z" fill="#2F3F64"/>
<path d="M91.0996 99.2695C90.5496 99.2695 90.0996 98.8195 90.0996 98.2695V95.7695C90.0996 95.2195 90.5496 94.7695 91.0996 94.7695C91.6496 94.7695 92.0996 95.2195 92.0996 95.7695V98.2695C92.0996 98.8195 91.6496 99.2695 91.0996 99.2695Z" fill="#2F3F64"/>
</g>
<defs>
<clipPath id="clip0_270_396">
<rect width="128.21" height="99.27" fill="white"/>
</clipPath>
</defs>
</svg>
