<svg width="128" height="127" viewBox="0 0 128 127" fill="none" xmlns="http://www.w3.org/2000/svg">
<path fill-rule="evenodd" clip-rule="evenodd" d="M39.8 1.40039C18.37 1.40039 1 6.67039 1 13.1604V36.6904C1 43.1904 18.37 48.4504 39.8 48.4504C61.23 48.4504 78.6001 43.1804 78.6001 36.6904V13.1604C78.6001 6.66039 61.23 1.40039 39.8 1.40039Z" fill="#BCC5DC"/>
<path d="M39.8 49.4504C20.24 49.4504 0 44.6804 0 36.6904V13.1604C0 5.17039 20.23 0.400391 39.8 0.400391C59.37 0.400391 79.6001 5.17039 79.6001 13.1604V36.6904C79.6001 44.6804 59.37 49.4504 39.8 49.4504ZM39.8 2.40039C21.92 2.40039 2 6.82039 2 13.1604V36.6904C2 43.0304 21.92 47.4504 39.8 47.4504C57.68 47.4504 77.6001 43.0304 77.6001 36.6904V13.1604C77.6001 6.82039 57.68 2.40039 39.8 2.40039Z" fill="#2F3F64"/>
<path fill-rule="evenodd" clip-rule="evenodd" d="M39.8 24.9202C18.37 24.9202 1 19.6502 1 13.1602V36.6902C1 43.1902 18.37 48.4502 39.8 48.4502C61.23 48.4502 78.6001 43.1802 78.6001 36.6902V13.1602C78.6001 19.6602 61.23 24.9202 39.8 24.9202Z" fill="#BCC5DC"/>
<path d="M39.8 49.4502C20.24 49.4502 0 44.6802 0 36.6902V13.1602C0 12.6102 0.45 12.1602 1 12.1602C1.55 12.1602 2 12.6102 2 13.1602C2 19.5002 21.92 23.9202 39.8 23.9202C57.68 23.9202 77.6001 19.5002 77.6001 13.1602C77.6001 12.6102 78.0501 12.1602 78.6001 12.1602C79.1501 12.1602 79.6001 12.6102 79.6001 13.1602V36.6902C79.6001 44.6802 59.37 49.4502 39.8 49.4502ZM2 17.3102V36.6902C2 43.0302 21.92 47.4502 39.8 47.4502C57.68 47.4502 77.6001 43.0302 77.6001 36.6902V17.3102C72.0301 22.7802 55.69 25.9302 39.8 25.9302C23.91 25.9302 7.57 22.7802 2 17.3102Z" fill="#2F3F64"/>
<path fill-rule="evenodd" clip-rule="evenodd" d="M39.8 48.4202C18.37 48.4202 1 43.1502 1 36.6602V60.1902C1 66.6902 18.37 71.9502 39.8 71.9502C61.23 71.9502 78.6001 66.6802 78.6001 60.1902V36.6602C78.6001 43.1602 61.23 48.4202 39.8 48.4202Z" fill="#BCC5DC"/>
<path d="M39.8 72.9502C20.24 72.9502 0 68.1802 0 60.1902V36.6602C0 36.1102 0.45 35.6602 1 35.6602C1.55 35.6602 2 36.1102 2 36.6602C2 43.0002 21.92 47.4202 39.8 47.4202C57.68 47.4202 77.6001 43.0002 77.6001 36.6602C77.6001 36.1102 78.0501 35.6602 78.6001 35.6602C79.1501 35.6602 79.6001 36.1102 79.6001 36.6602V60.1902C79.6001 68.1802 59.37 72.9502 39.8 72.9502ZM2 40.8102V60.1902C2 66.5302 21.92 70.9502 39.8 70.9502C57.68 70.9502 77.6001 66.5302 77.6001 60.1902V40.8102C72.0301 46.2802 55.69 49.4302 39.8 49.4302C23.91 49.4302 7.57 46.2802 2 40.8102Z" fill="#2F3F64"/>
<path fill-rule="evenodd" clip-rule="evenodd" d="M39.8 71.8606C18.37 71.8606 1 66.5906 1 60.1006V83.6306C1 90.1306 18.37 95.3906 39.8 95.3906C61.23 95.3906 78.6001 90.1206 78.6001 83.6306V60.1006C78.6001 66.6006 61.23 71.8606 39.8 71.8606Z" fill="#BCC5DC"/>
<path d="M39.8 96.3906C20.24 96.3906 0 91.6206 0 83.6306V60.1006C0 59.5506 0.45 59.1006 1 59.1006C1.55 59.1006 2 59.5506 2 60.1006C2 66.4406 21.92 70.8606 39.8 70.8606C57.68 70.8606 77.6001 66.4406 77.6001 60.1006C77.6001 59.5506 78.0501 59.1006 78.6001 59.1006C79.1501 59.1006 79.6001 59.5506 79.6001 60.1006V83.6306C79.6001 91.6206 59.37 96.3906 39.8 96.3906ZM2 64.2506V83.6306C2 89.9706 21.92 94.3906 39.8 94.3906C57.68 94.3906 77.6001 89.9706 77.6001 83.6306V64.2506C72.0301 69.7206 55.69 72.8706 39.8 72.8706C23.91 72.8706 7.57 69.7206 2 64.2506Z" fill="#2F3F64"/>
<path d="M39.8 24.9204C61.2287 24.9204 78.6001 19.6553 78.6001 13.1604C78.6001 6.66552 61.2287 1.40039 39.8 1.40039C18.3714 1.40039 1 6.66552 1 13.1604C1 19.6553 18.3714 24.9204 39.8 24.9204Z" fill="#2F3F64"/>
<path d="M11.5997 36.6603C13.9028 36.6603 15.7697 34.7933 15.7697 32.4903C15.7697 30.1873 13.9028 28.3203 11.5997 28.3203C9.2967 28.3203 7.42969 30.1873 7.42969 32.4903C7.42969 34.7933 9.2967 36.6603 11.5997 36.6603Z" fill="white"/>
<path d="M11.5997 37.6603C8.74973 37.6603 6.42969 35.3403 6.42969 32.4903C6.42969 29.6403 8.74973 27.3203 11.5997 27.3203C14.4497 27.3203 16.7697 29.6403 16.7697 32.4903C16.7697 35.3403 14.4497 37.6603 11.5997 37.6603ZM11.5997 29.3103C9.84973 29.3103 8.42969 30.7303 8.42969 32.4803C8.42969 34.2303 9.84973 35.6503 11.5997 35.6503C13.3497 35.6503 14.7697 34.2303 14.7697 32.4803C14.7697 30.7303 13.3497 29.3103 11.5997 29.3103Z" fill="#2F3F64"/>
<path d="M11.5997 60.091C13.9028 60.091 15.7697 58.224 15.7697 55.921C15.7697 53.6179 13.9028 51.751 11.5997 51.751C9.2967 51.751 7.42969 53.6179 7.42969 55.921C7.42969 58.224 9.2967 60.091 11.5997 60.091Z" fill="white"/>
<path d="M11.5997 61.1007C8.74973 61.1007 6.42969 58.7807 6.42969 55.9307C6.42969 53.0807 8.74973 50.7607 11.5997 50.7607C14.4497 50.7607 16.7697 53.0807 16.7697 55.9307C16.7697 58.7807 14.4497 61.1007 11.5997 61.1007ZM11.5997 52.7507C9.84973 52.7507 8.42969 54.1707 8.42969 55.9207C8.42969 57.6707 9.84973 59.0907 11.5997 59.0907C13.3497 59.0907 14.7697 57.6707 14.7697 55.9207C14.7697 54.1707 13.3497 52.7507 11.5997 52.7507Z" fill="#2F3F64"/>
<path d="M11.5997 83.5304C13.9028 83.5304 15.7697 81.6635 15.7697 79.3604C15.7697 77.0574 13.9028 75.1904 11.5997 75.1904C9.2967 75.1904 7.42969 77.0574 7.42969 79.3604C7.42969 81.6635 9.2967 83.5304 11.5997 83.5304Z" fill="white"/>
<path d="M11.5997 84.5402C8.74973 84.5402 6.42969 82.2202 6.42969 79.3702C6.42969 76.5202 8.74973 74.2002 11.5997 74.2002C14.4497 74.2002 16.7697 76.5202 16.7697 79.3702C16.7697 82.2202 14.4497 84.5402 11.5997 84.5402ZM11.5997 76.1902C9.84973 76.1902 8.42969 77.6102 8.42969 79.3602C8.42969 81.1102 9.84973 82.5302 11.5997 82.5302C13.3497 82.5302 14.7697 81.1102 14.7697 79.3602C14.7697 77.6102 13.3497 76.1902 11.5997 76.1902Z" fill="#2F3F64"/>
<path fill-rule="evenodd" clip-rule="evenodd" d="M111.54 50.2402V65.3802H126.42L111.54 50.2402Z" fill="#2F3F64"/>
<path d="M126.42 66.3806H111.54C110.99 66.3806 110.54 65.9306 110.54 65.3806V50.2306C110.54 49.8206 110.79 49.4606 111.16 49.3006C111.54 49.1506 111.97 49.2306 112.25 49.5206L127.13 64.6706C127.41 64.9606 127.5 65.3906 127.34 65.7606C127.18 66.1306 126.82 66.3706 126.42 66.3706V66.3806ZM112.54 64.3806H124.04L112.54 52.6806V64.3806Z" fill="#2F3F64"/>
<path fill-rule="evenodd" clip-rule="evenodd" d="M126.42 93.2605V65.3805H111.54V50.2305H66.0399C64.3399 50.2305 62.96 51.6105 62.96 53.3105V122.78C62.96 124.46 64.3199 125.81 65.9899 125.81H123.53C125.13 125.81 126.42 124.51 126.42 122.92V118.67" fill="white"/>
<path d="M123.53 126.83H65.9899C63.7699 126.83 61.96 125.02 61.96 122.8V53.3202C61.96 51.0702 63.7899 49.2402 66.0399 49.2402H111.54C112.09 49.2402 112.54 49.6902 112.54 50.2402V64.3902H126.42C126.97 64.3902 127.42 64.8402 127.42 65.3902V93.2702C127.42 93.8202 126.97 94.2702 126.42 94.2702C125.87 94.2702 125.42 93.8202 125.42 93.2702V66.3902H111.54C110.99 66.3902 110.54 65.9402 110.54 65.3902V51.2402H66.0399C64.8899 51.2402 63.96 52.1702 63.96 53.3202V122.79C63.96 123.91 64.8699 124.82 65.9899 124.82H123.53C124.57 124.82 125.42 123.97 125.42 122.93V118.68C125.42 118.13 125.87 117.68 126.42 117.68C126.97 117.68 127.42 118.13 127.42 118.68V122.93C127.42 125.08 125.67 126.82 123.53 126.82V126.83Z" fill="#2F3F64"/>
<path d="M115.97 73.9902H75.2103C72.8079 73.9902 70.8604 75.9378 70.8604 78.3402V95.8202C70.8604 98.2227 72.8079 100.17 75.2103 100.17H115.97C118.373 100.17 120.32 98.2227 120.32 95.8202V78.3402C120.32 75.9378 118.373 73.9902 115.97 73.9902Z" fill="#FEC95C"/>
<path d="M75.2998 91.361C74.9698 91.041 74.7998 90.651 74.7998 90.171C74.7998 89.691 74.9698 89.301 75.2998 88.981C75.6298 88.661 76.0498 88.501 76.5698 88.501C77.0898 88.501 77.4798 88.661 77.8098 88.981C78.1398 89.301 78.2998 89.691 78.2998 90.171C78.2998 90.651 78.1398 91.041 77.8098 91.361C77.4898 91.681 77.0698 91.841 76.5698 91.841C76.0698 91.841 75.6298 91.681 75.2998 91.361Z" fill="#2F3F64"/>
<path d="M80.5693 83.0205C81.0393 82.1505 81.6993 81.4705 82.5393 80.9905C83.3793 80.5105 84.3393 80.2705 85.4193 80.2705C86.8093 80.2705 87.9693 80.6205 88.8793 81.3205C89.7893 82.0205 90.4094 82.9905 90.7194 84.2505H87.6493C87.4893 83.7605 87.2093 83.3805 86.8293 83.1005C86.4393 82.8205 85.9693 82.6805 85.3993 82.6805C84.5893 82.6805 83.9394 82.9705 83.4694 83.5605C82.9994 84.1505 82.7593 84.9805 82.7593 86.0705C82.7593 87.1605 82.9994 87.9705 83.4694 88.5605C83.9394 89.1505 84.5893 89.4405 85.3993 89.4405C86.5493 89.4405 87.2993 88.9305 87.6493 87.9005H90.7194C90.4094 89.1205 89.7893 90.0905 88.8693 90.8005C87.9493 91.5205 86.7993 91.8805 85.4193 91.8805C84.3393 91.8805 83.3793 91.6405 82.5393 91.1605C81.6993 90.6805 81.0393 90.0005 80.5693 89.1305C80.0993 88.2605 79.8594 87.2405 79.8594 86.0705C79.8594 84.9005 80.0993 83.8905 80.5693 83.0105V83.0205Z" fill="#2F3F64"/>
<path d="M94.6294 91.3805C93.8994 91.0505 93.3194 90.6005 92.8894 90.0305C92.4594 89.4605 92.2295 88.8305 92.1895 88.1405H95.0494C95.0994 88.5705 95.3195 88.9305 95.6895 89.2205C96.0595 89.5005 96.5295 89.6505 97.0795 89.6505C97.6295 89.6505 98.0395 89.5405 98.3495 89.3305C98.6495 89.1105 98.8094 88.8405 98.8094 88.5005C98.8094 88.1305 98.6194 87.8605 98.2494 87.6805C97.8794 87.5005 97.2895 87.3005 96.4695 87.0805C95.6295 86.8805 94.9394 86.6705 94.4094 86.4505C93.8694 86.2305 93.4194 85.9005 93.0294 85.4605C92.6394 85.0105 92.4495 84.4105 92.4495 83.6505C92.4495 83.0305 92.6294 82.4605 92.9894 81.9405C93.3494 81.4305 93.8594 81.0205 94.5294 80.7205C95.1994 80.4205 95.9894 80.2705 96.8894 80.2705C98.2294 80.2705 99.2995 80.6005 100.099 81.2705C100.899 81.9405 101.339 82.8405 101.419 83.9805H98.6995C98.6595 83.5305 98.4694 83.1805 98.1394 82.9105C97.8094 82.6505 97.3694 82.5105 96.8094 82.5105C96.2994 82.5105 95.8994 82.6005 95.6194 82.7905C95.3394 82.9805 95.1995 83.2405 95.1995 83.5805C95.1995 83.9605 95.3894 84.2505 95.7694 84.4405C96.1494 84.6405 96.7394 84.8405 97.5394 85.0405C98.3494 85.2405 99.0194 85.4505 99.5494 85.6705C100.079 85.8905 100.529 86.2205 100.919 86.6705C101.309 87.1205 101.499 87.7205 101.519 88.4705C101.519 89.1205 101.339 89.7005 100.979 90.2205C100.619 90.7305 100.109 91.1405 99.4395 91.4305C98.7695 91.7205 97.9895 91.8705 97.0995 91.8705C96.2095 91.8705 95.3494 91.7005 94.6194 91.3705L94.6294 91.3805Z" fill="#2F3F64"/>
<path d="M108.56 89.0802L111.4 80.4502H114.42L110.26 91.7002H106.81L102.67 80.4502H105.71L108.55 89.0802H108.56Z" fill="#2F3F64"/>
<path d="M70.8596 109.401H47.9895C47.2195 109.401 46.5996 108.781 46.5996 108.011C46.5996 107.241 47.2195 106.621 47.9895 106.621H70.8596C71.6296 106.621 72.2495 107.241 72.2495 108.011C72.2495 108.781 71.6296 109.401 70.8596 109.401Z" fill="#2F3F64"/>
<path d="M54.9398 117.071C54.5798 117.071 54.2298 116.931 53.9498 116.661L46.2498 108.981C45.9898 108.721 45.8398 108.361 45.8398 107.991C45.8398 107.621 45.9898 107.261 46.2498 107.001L53.9398 99.3308C54.4898 98.7908 55.3698 98.7908 55.9098 99.3308C56.4498 99.8708 56.4498 100.761 55.9098 101.301L49.2098 107.981L55.9198 114.671C56.4598 115.211 56.4698 116.101 55.9198 116.641C55.6498 116.911 55.2898 117.051 54.9298 117.051L54.9398 117.071Z" fill="#2F3F64"/>
</svg>
