<svg width="126" height="125" viewBox="0 0 126 125" fill="none" xmlns="http://www.w3.org/2000/svg">
<path fill-rule="evenodd" clip-rule="evenodd" d="M39.8 1C18.37 1 1 6.27 1 12.76V36.29C1 42.79 18.37 48.05 39.8 48.05C61.23 48.05 78.6 42.78 78.6 36.29V12.76C78.6 6.26 61.23 1 39.8 1Z" fill="#BCC5DC"/>
<path d="M39.8 49.06C20.24 49.06 0 44.28 0 36.29V12.76C0 4.77 20.23 0 39.8 0C59.37 0 79.6 4.77 79.6 12.76V36.29C79.6 44.28 59.37 49.06 39.8 49.06ZM39.8 2C21.92 2 2 6.42 2 12.76V36.29C2 42.63 21.92 47.06 39.8 47.06C57.68 47.06 77.6 42.64 77.6 36.29V12.76C77.6 6.42 57.68 2 39.8 2Z" fill="#2F3F64"/>
<path fill-rule="evenodd" clip-rule="evenodd" d="M39.8 24.5298C18.37 24.5298 1 19.2598 1 12.7698V36.2998C1 42.7998 18.37 48.0598 39.8 48.0598C61.23 48.0598 78.6 42.7898 78.6 36.2998V12.7598C78.6 19.2598 61.23 24.5198 39.8 24.5198V24.5298Z" fill="#BCC5DC"/>
<path d="M39.8 49.0598C20.24 49.0598 0 44.2798 0 36.2898V12.7598C0 12.2098 0.45 11.7598 1 11.7598C1.55 11.7598 2 12.2098 2 12.7598C2 19.0998 21.92 23.5198 39.8 23.5198C57.68 23.5198 77.6 19.0998 77.6 12.7598C77.6 12.2098 78.05 11.7598 78.6 11.7598C79.15 11.7598 79.6 12.2098 79.6 12.7598V36.2898C79.6 44.2798 59.37 49.0598 39.8 49.0598ZM2.00999 16.9098V36.2898C2.00999 42.6298 21.93 47.0598 39.81 47.0598C57.69 47.0598 77.61 42.6398 77.61 36.2898V16.9098C72.04 22.3798 55.7 25.5298 39.81 25.5298C23.92 25.5298 7.57999 22.3798 2.00999 16.9098Z" fill="#2F3F64"/>
<path fill-rule="evenodd" clip-rule="evenodd" d="M39.8 48.0295C18.37 48.0295 1 42.7595 1 36.2695V59.7995C1 66.2995 18.37 71.5595 39.8 71.5595C61.23 71.5595 78.6 66.2895 78.6 59.7995V36.2695C78.6 42.7695 61.23 48.0295 39.8 48.0295Z" fill="#BCC5DC"/>
<path d="M39.8 72.5598C20.24 72.5598 0 67.7798 0 59.7898V36.2598C0 35.7098 0.45 35.2598 1 35.2598C1.55 35.2598 2 35.7098 2 36.2598C2 42.5998 21.92 47.0198 39.8 47.0198C57.68 47.0198 77.6 42.5998 77.6 36.2598C77.6 35.7098 78.05 35.2598 78.6 35.2598C79.15 35.2598 79.6 35.7098 79.6 36.2598V59.7898C79.6 67.7798 59.37 72.5598 39.8 72.5598ZM2.00999 40.4098V59.7898C2.00999 66.1298 21.93 70.5598 39.81 70.5598C57.69 70.5598 77.61 66.1398 77.61 59.7898V40.4098C72.04 45.8798 55.7 49.0298 39.81 49.0298C23.92 49.0298 7.57999 45.8798 2.00999 40.4098Z" fill="#2F3F64"/>
<path fill-rule="evenodd" clip-rule="evenodd" d="M39.8 71.47C18.37 71.47 1 66.2 1 59.71V83.24C1 89.74 18.37 95 39.8 95C61.23 95 78.6 89.73 78.6 83.24V59.71C78.6 66.21 61.23 71.47 39.8 71.47Z" fill="#BCC5DC"/>
<path d="M39.8 96C20.24 96 0 91.23 0 83.24V59.71C0 59.16 0.45 58.71 1 58.71C1.55 58.71 2 59.16 2 59.71C2 66.05 21.92 70.47 39.8 70.47C57.68 70.47 77.6 66.05 77.6 59.71C77.6 59.16 78.05 58.71 78.6 58.71C79.15 58.71 79.6 59.16 79.6 59.71V83.24C79.6 91.23 59.37 96 39.8 96ZM2.00999 63.85V83.23C2.00999 89.57 21.93 93.99 39.81 93.99C57.69 93.99 77.61 89.57 77.61 83.23V63.85C72.04 69.32 55.7 72.47 39.81 72.47C23.92 72.47 7.57999 69.32 2.00999 63.85Z" fill="#2F3F64"/>
<path d="M39.8 24.52C61.2287 24.52 78.6 19.2549 78.6 12.76C78.6 6.26513 61.2287 1 39.8 1C18.3714 1 1 6.26513 1 12.76C1 19.2549 18.3714 24.52 39.8 24.52Z" fill="#2F3F64"/>
<path d="M39.8 25.53C20.24 25.53 0 20.76 0 12.77C0 4.78 20.24 0 39.8 0C59.36 0 79.6 4.77 79.6 12.76C79.6 20.75 59.37 25.52 39.8 25.52V25.53ZM39.8 2C21.92 2 2 6.42 2 12.76C2 19.1 21.92 23.52 39.8 23.52C57.68 23.52 77.6 19.1 77.6 12.76C77.6 6.42 57.68 2 39.8 2Z" fill="#2F3F64"/>
<path d="M11.5997 36.2599C13.9027 36.2599 15.7697 34.3929 15.7697 32.0899C15.7697 29.7869 13.9027 27.9199 11.5997 27.9199C9.29666 27.9199 7.42969 29.7869 7.42969 32.0899C7.42969 34.3929 9.29666 36.2599 11.5997 36.2599Z" fill="white"/>
<path d="M11.5997 37.2599C8.74969 37.2599 6.42969 34.9399 6.42969 32.0899C6.42969 29.2399 8.74969 26.9199 11.5997 26.9199C14.4497 26.9199 16.7697 29.2399 16.7697 32.0899C16.7697 34.9399 14.4497 37.2599 11.5997 37.2599ZM11.5997 28.9199C9.84969 28.9199 8.42969 30.3399 8.42969 32.0899C8.42969 33.8399 9.84969 35.2599 11.5997 35.2599C13.3497 35.2599 14.7697 33.8399 14.7697 32.0899C14.7697 30.3399 13.3497 28.9199 11.5997 28.9199Z" fill="#2F3F64"/>
<path d="M11.5997 59.7004C13.9027 59.7004 15.7697 57.8334 15.7697 55.5303C15.7697 53.2273 13.9027 51.3604 11.5997 51.3604C9.29666 51.3604 7.42969 53.2273 7.42969 55.5303C7.42969 57.8334 9.29666 59.7004 11.5997 59.7004Z" fill="white"/>
<path d="M11.5997 60.7004C8.74969 60.7004 6.42969 58.3804 6.42969 55.5303C6.42969 52.6803 8.74969 50.3604 11.5997 50.3604C14.4497 50.3604 16.7697 52.6803 16.7697 55.5303C16.7697 58.3804 14.4497 60.7004 11.5997 60.7004ZM11.5997 52.3503C9.84969 52.3503 8.42969 53.7704 8.42969 55.5204C8.42969 57.2704 9.84969 58.6903 11.5997 58.6903C13.3497 58.6903 14.7697 57.2704 14.7697 55.5204C14.7697 53.7704 13.3497 52.3503 11.5997 52.3503Z" fill="#2F3F64"/>
<path d="M11.5997 83.1398C13.9027 83.1398 15.7697 81.2728 15.7697 78.9698C15.7697 76.6668 13.9027 74.7998 11.5997 74.7998C9.29666 74.7998 7.42969 76.6668 7.42969 78.9698C7.42969 81.2728 9.29666 83.1398 11.5997 83.1398Z" fill="white"/>
<path d="M11.5997 84.1398C8.74969 84.1398 6.42969 81.8198 6.42969 78.9698C6.42969 76.1198 8.74969 73.7998 11.5997 73.7998C14.4497 73.7998 16.7697 76.1198 16.7697 78.9698C16.7697 81.8198 14.4497 84.1398 11.5997 84.1398ZM11.5997 75.7898C9.84969 75.7898 8.42969 77.2098 8.42969 78.9598C8.42969 80.7098 9.84969 82.1298 11.5997 82.1298C13.3497 82.1298 14.7697 80.7098 14.7697 78.9598C14.7697 77.2098 13.3497 75.7898 11.5997 75.7898Z" fill="#2F3F64"/>
<path d="M40.7002 106.86C40.1502 106.86 39.7002 106.41 39.7002 105.86V95C39.7002 94.45 40.1502 94 40.7002 94C41.2502 94 41.7002 94.45 41.7002 95V105.86C41.7002 106.41 41.2502 106.86 40.7002 106.86Z" fill="#2F3F64"/>
<path d="M31.92 113.4H21.71C21.16 113.4 20.71 112.95 20.71 112.4C20.71 111.85 21.16 111.4 21.71 111.4H31.92C32.47 111.4 32.92 111.85 32.92 112.4C32.92 112.95 32.47 113.4 31.92 113.4Z" fill="#2F3F64"/>
<path d="M49.4805 113.43C48.9305 113.43 48.4805 112.98 48.4805 112.43C48.4805 111.88 48.9305 111.43 49.4805 111.43L59.8005 111.4C60.3505 111.4 60.8005 111.85 60.8005 112.4C60.8005 112.95 60.3505 113.4 59.8005 113.4L49.4805 113.43Z" fill="#2F3F64"/>
<path d="M40.6997 120.45C45.129 120.45 48.7197 116.859 48.7197 112.43C48.7197 108.001 45.129 104.41 40.6997 104.41C36.2704 104.41 32.6797 108.001 32.6797 112.43C32.6797 116.859 36.2704 120.45 40.6997 120.45Z" fill="#2F3F64"/>
<path d="M40.6997 121.44C35.7297 121.44 31.6797 117.4 31.6797 112.42C31.6797 107.44 35.7197 103.4 40.6997 103.4C45.6797 103.4 49.7197 107.44 49.7197 112.42C49.7197 117.4 45.6797 121.44 40.6997 121.44ZM40.6997 105.41C36.8297 105.41 33.6797 108.56 33.6797 112.43C33.6797 116.3 36.8297 119.45 40.6997 119.45C44.5697 119.45 47.7197 116.3 47.7197 112.43C47.7197 108.56 44.5697 105.41 40.6997 105.41Z" fill="#2F3F64"/>
<path d="M94.8086 99.4141L100.345 93.8774L123.121 116.653C124.648 118.181 124.648 120.656 123.121 122.183C121.594 123.71 119.119 123.71 117.592 122.183L94.8157 99.407L94.8086 99.4141Z" fill="#2F3F64"/>
<path d="M120.36 124.34C119.1 124.34 117.84 123.86 116.89 122.9L94.1201 100.13C93.9301 99.9402 93.8301 99.6902 93.8301 99.4202C93.8301 99.1502 93.9401 98.9002 94.1201 98.7102L99.6501 93.1802C100.04 92.7902 100.67 92.7902 101.06 93.1802L123.83 115.95C125.75 117.87 125.75 120.98 123.83 122.9C122.87 123.86 121.61 124.34 120.36 124.34ZM96.2301 99.4202L118.3 121.49C119.4 122.59 121.32 122.59 122.42 121.49C123.56 120.35 123.56 118.51 122.42 117.37L100.35 95.3002L96.2301 99.4202Z" fill="#2F3F64"/>
<path d="M102.926 104.272C114.143 94.1476 115.028 76.8469 104.904 65.63C94.7789 54.413 77.4782 53.5275 66.2612 63.6521C55.0443 73.7768 54.1588 91.0775 64.2834 102.294C74.408 113.511 91.7088 114.397 102.926 104.272Z" fill="#BCC5DC"/>
<path d="M84.6099 112.341C77.3499 112.341 70.0799 109.571 64.5499 104.051C53.4899 92.9905 53.4899 75.0005 64.5499 63.9405C75.6099 52.8805 93.5999 52.8805 104.66 63.9405C115.72 75.0005 115.72 92.9905 104.66 104.051C99.1299 109.581 91.8699 112.341 84.5999 112.341H84.6099ZM84.6099 57.6305C77.8599 57.6305 71.1099 60.2005 65.9699 65.3405C55.6899 75.6205 55.6899 92.3505 65.9699 102.631C76.2499 112.911 92.9799 112.911 103.26 102.631C113.54 92.3505 113.54 75.6205 103.26 65.3405C98.1199 60.2005 91.3699 57.6305 84.6199 57.6305H84.6099Z" fill="#2F3F64"/>
<path d="M100.179 101.228C109.715 92.6208 110.468 77.9127 101.86 68.3766C93.2529 58.8406 78.5447 58.0878 69.0087 66.6952C59.4727 75.3026 58.7199 90.0108 67.3273 99.5468C75.9347 109.083 90.6428 109.836 100.179 101.228Z" fill="#FEC95C"/>
<path d="M84.6104 108.24C78.4004 108.24 72.1805 105.87 67.4505 101.15C57.9905 91.6905 57.9905 76.3005 67.4505 66.8405C72.0305 62.2605 78.1304 59.7305 84.6104 59.7305C91.0904 59.7305 97.1804 62.2505 101.77 66.8405C106.35 71.4205 108.88 77.5105 108.88 84.0005C108.88 90.4905 106.36 96.5705 101.77 101.16C97.1804 105.75 90.8304 108.25 84.6104 108.25V108.24ZM68.8705 68.2405C60.1905 76.9205 60.1905 91.0405 68.8705 99.7205C77.5505 108.4 91.6705 108.4 100.35 99.7205C104.56 95.5105 106.87 89.9205 106.87 83.9805C106.87 78.0405 104.55 72.4405 100.35 68.2405C96.1505 64.0405 90.5604 61.7205 84.6104 61.7205C78.6604 61.7205 73.0705 64.0405 68.8705 68.2405Z" fill="#2F3F64"/>
<path d="M84.4697 96.6402C83.9197 96.6402 83.4697 96.1902 83.4697 95.6402V71.7402C83.4697 71.1902 83.9197 70.7402 84.4697 70.7402C85.0197 70.7402 85.4697 71.1902 85.4697 71.7402V95.6402C85.4697 96.1902 85.0197 96.6402 84.4697 96.6402Z" fill="#2F3F64"/>
<path d="M96.4195 84.6807H72.5195C71.9695 84.6807 71.5195 84.2307 71.5195 83.6807C71.5195 83.1307 71.9695 82.6807 72.5195 82.6807H96.4195C96.9695 82.6807 97.4195 83.1307 97.4195 83.6807C97.4195 84.2307 96.9695 84.6807 96.4195 84.6807Z" fill="#2F3F64"/>
</svg>
