<svg width="81" height="100" viewBox="0 0 81 100" fill="none" xmlns="http://www.w3.org/2000/svg">
<g clip-path="url(#clip0_202_57)">
<mask id="mask0_202_57" style="mask-type:luminance" maskUnits="userSpaceOnUse" x="0" y="0" width="81" height="100">
<path d="M81 0.764648H0V99.2352H81V0.764648Z" fill="white"/>
</mask>
<g mask="url(#mask0_202_57)">
<path d="M61.0725 86.7617C62.4868 86.7617 63.644 85.5801 63.644 84.1359C63.644 82.6915 62.4868 81.5099 61.0725 81.5099C59.6583 81.5099 58.5011 82.6915 58.5011 84.1359C58.5011 85.5801 59.6583 86.7617 61.0725 86.7617ZM79.0726 81.5099C79.0726 90.2017 61.7926 97.2652 40.5012 97.2652C19.2096 97.2652 1.92969 90.2017 1.92969 81.5099V60.5029C1.92969 69.1945 19.2096 76.2582 40.5012 76.2582C61.7926 76.2582 79.0726 69.1945 79.0726 60.5029V81.5099Z" fill="white"/>
<path d="M61.0725 65.756C62.4868 65.756 63.644 64.5744 63.644 63.13C63.644 61.6858 62.4868 60.5042 61.0725 60.5042C59.6583 60.5042 58.5011 61.6858 58.5011 63.13C58.5011 64.5744 59.6583 65.756 61.0725 65.756ZM79.0726 60.5042C79.0726 69.1958 61.7926 76.2595 40.5012 76.2595C19.2096 76.2595 1.92969 69.1958 1.92969 60.5042V39.4971C1.92969 48.1888 19.2096 55.2524 40.5012 55.2524C61.7926 55.2524 79.0726 48.1888 79.0726 39.4971V60.5042Z" fill="#FEC95C"/>
<path d="M61.0725 44.748C62.4868 44.748 63.644 43.5664 63.644 42.1222C63.644 40.6779 62.4868 39.4962 61.0725 39.4962C59.6583 39.4962 58.5011 40.6779 58.5011 42.1222C58.5011 43.5664 59.6583 44.748 61.0725 44.748ZM79.0726 39.4962C79.0726 48.188 61.7926 55.2515 40.5012 55.2515C19.2096 55.2515 1.92969 48.188 1.92969 39.4962V18.4893C1.92969 27.1809 19.2096 34.2446 40.5012 34.2446C61.7926 34.2446 79.0726 27.1809 79.0726 18.4893V39.4962Z" fill="white"/>
<path d="M79.0726 18.4906C79.0726 27.1824 61.7926 34.2459 40.5012 34.2459C19.2096 34.2459 1.92969 27.1824 1.92969 18.4906C1.92969 9.79898 19.2096 2.73535 40.5012 2.73535C61.7926 2.73535 79.0726 9.79898 79.0726 18.4906Z" fill="#BCC5DC"/>
<path d="M61.0733 39.4971C62.4876 39.4971 63.6448 40.6787 63.6448 42.1231C63.6448 43.5672 62.4876 44.7489 61.0733 44.7489C59.6591 44.7489 58.502 43.5672 58.502 42.1231C58.502 40.6787 59.6591 39.4971 61.0733 39.4971Z" fill="#2F3F64"/>
<path d="M61.0733 60.5029C62.4876 60.5029 63.6448 61.6846 63.6448 63.1288C63.6448 64.5729 62.4876 65.7546 61.0733 65.7546C59.6591 65.7546 58.502 64.5729 58.502 63.1288C58.502 61.6846 59.6591 60.5029 61.0733 60.5029Z" fill="#2F3F64"/>
<path d="M61.0733 81.5107C62.4876 81.5107 63.6448 82.6924 63.6448 84.1367C63.6448 85.5809 62.4876 86.7626 61.0733 86.7626C59.6591 86.7626 58.502 85.5809 58.502 84.1367C58.502 82.6924 59.6591 81.5107 61.0733 81.5107Z" fill="#2F3F64"/>
<path d="M40.5 36.2141C29.9636 36.2141 20.0249 34.5237 12.5132 31.4546C4.44536 28.1592 0 23.5541 0 18.4894C0 13.4247 4.44536 8.81954 12.5132 5.52407C20.0249 2.45505 29.9636 0.764648 40.5 0.764648C51.0364 0.764648 60.9751 2.45505 68.4868 5.52407C76.5547 8.81954 81 13.4247 81 18.4894C81 23.5541 76.5547 28.1592 68.4868 31.4546C60.9751 34.5237 51.0364 36.2141 40.5 36.2141ZM40.5 4.70347C30.4425 4.70347 21.0117 6.29214 13.9468 9.1806C7.53429 11.7999 3.85714 15.1939 3.85714 18.4894C3.85714 21.7848 7.53429 25.1788 13.9468 27.7982C21.0151 30.6865 30.4425 32.2752 40.5 32.2752C50.5575 32.2752 59.9883 30.6865 67.0532 27.7982C73.4657 25.1788 77.1428 21.7848 77.1428 18.4894C77.1428 15.1939 73.4657 11.7999 67.0532 9.1806C59.9849 6.29214 50.5575 4.70347 40.5 4.70347Z" fill="#2F3F64"/>
<path d="M40.5 57.2205C29.9636 57.2205 20.0249 55.5301 12.5132 52.461C4.44536 49.1656 0 44.5605 0 39.4958C0 38.4093 0.864643 37.5264 1.92858 37.5264C2.99251 37.5264 3.85714 38.4093 3.85714 39.4958C3.85714 42.7912 7.53429 46.1853 13.9468 48.8046C21.0151 51.6929 30.4425 53.2817 40.5 53.2817C50.5575 53.2817 59.9883 51.6929 67.0532 48.8046C73.4657 46.1853 77.1428 42.7912 77.1428 39.4958C77.1428 38.4093 78.0074 37.5264 79.0714 37.5264C80.1354 37.5264 81 38.4093 81 39.4958C81 44.5605 76.5547 49.1656 68.4868 52.461C60.9751 55.5301 51.0364 57.2205 40.5 57.2205Z" fill="#2F3F64"/>
<path d="M40.5 78.2283C29.9636 78.2283 20.0249 76.5379 12.5132 73.469C4.44536 70.1734 0 65.5683 0 60.5036C0 59.4172 0.864643 58.5342 1.92858 58.5342C2.99251 58.5342 3.85714 59.4172 3.85714 60.5036C3.85714 63.7992 7.53429 67.1931 13.9468 69.8124C21.0151 72.7009 30.4425 74.2895 40.5 74.2895C50.5575 74.2895 59.9883 72.7009 67.0532 69.8124C73.4657 67.1931 77.1428 63.7992 77.1428 60.5036C77.1428 59.4172 78.0074 58.5342 79.0714 58.5342C80.1354 58.5342 81 59.4172 81 60.5036C81 65.5683 76.5547 70.1734 68.4868 73.469C60.9751 76.5379 51.0364 78.2283 40.5 78.2283Z" fill="#2F3F64"/>
<path d="M40.5 99.2358C29.9636 99.2358 20.0249 97.5454 12.5132 94.4765C4.44536 91.1809 0 86.5758 0 81.5111V18.4899C0 17.4035 0.864643 16.5205 1.92858 16.5205C2.99251 16.5205 3.85714 17.4035 3.85714 18.4899V81.5111C3.85714 84.8067 7.53429 88.2006 13.9468 90.8199C21.0151 93.7084 30.4425 95.297 40.5 95.297C50.5575 95.297 59.9883 93.7084 67.0532 90.8199C73.4657 88.2006 77.1428 84.8067 77.1428 81.5111V18.4899C77.1428 17.4035 78.0074 16.5205 79.0714 16.5205C80.1354 16.5205 81 17.4035 81 18.4899V81.5111C81 86.5758 76.5547 91.1809 68.4868 94.4765C60.9751 97.5454 51.0364 99.2358 40.5 99.2358Z" fill="#2F3F64"/>
</g>
</g>
<defs>
<clipPath id="clip0_202_57">
<rect width="81" height="98.4706" fill="white" transform="translate(0 0.764648)"/>
</clipPath>
</defs>
</svg>
