<svg viewBox="0 0 128 128" fill="none" xmlns="http://www.w3.org/2000/svg">
<g id="data-export">
<g id="Group">
<path id="Vector" fill-rule="evenodd" clip-rule="evenodd" d="M72.9404 1.30957V23.5995H94.8405L72.9404 1.30957Z" fill="#2F3F64"/>
<path id="Vector_2" d="M94.8405 24.5997H72.9404C72.3904 24.5997 71.9404 24.1497 71.9404 23.5997V1.3098C71.9404 0.899804 72.1904 0.53975 72.5604 0.37975C72.9404 0.22975 73.3705 0.30972 73.6505 0.59972L95.5504 22.8898C95.8304 23.1798 95.9104 23.6097 95.7604 23.9797C95.6104 24.3497 95.2405 24.5897 94.8405 24.5897V24.5997ZM73.9404 22.5997H92.4604L73.9404 3.74974V22.5997Z" fill="#2F3F64"/>
</g>
<g id="Group_2">
<path id="Vector_3" fill-rule="evenodd" clip-rule="evenodd" d="M1.43945 1.31055V112.561H94.8395V23.6005H72.9395V1.31055H32.9794" fill="white"/>
<path id="Vector_4" d="M94.8397 113.561H1.42969C0.879687 113.561 0.429688 113.111 0.429688 112.561V1.31055C0.429688 0.760547 0.879687 0.310547 1.42969 0.310547C1.97969 0.310547 2.42969 0.760547 2.42969 1.31055V111.561H93.8397V24.6005H72.9397C72.3897 24.6005 71.9397 24.1505 71.9397 23.6005V2.31055H32.9797C32.4297 2.31055 31.9797 1.86055 31.9797 1.31055C31.9797 0.760547 32.4297 0.310547 32.9797 0.310547H72.9397C73.4897 0.310547 73.9397 0.760547 73.9397 1.31055V22.6005H94.8397C95.3897 22.6005 95.8397 23.0505 95.8397 23.6005V112.561C95.8397 113.111 95.3897 113.561 94.8397 113.561Z" fill="#2F3F64"/>
</g>
<g id="Group_3">
<path id="Vector_5" d="M102.54 126.72C115.971 126.72 126.86 115.832 126.86 102.4C126.86 88.9686 115.971 78.0801 102.54 78.0801C89.1082 78.0801 78.2197 88.9686 78.2197 102.4C78.2197 115.832 89.1082 126.72 102.54 126.72Z" fill="#FEC95C"/>
<path id="Vector_6" d="M102.54 127.72C88.5797 127.72 77.2197 116.36 77.2197 102.4C77.2197 88.4401 88.5797 77.0801 102.54 77.0801C116.5 77.0801 127.86 88.4401 127.86 102.4C127.86 116.36 116.5 127.72 102.54 127.72ZM102.54 79.0901C89.6797 79.0901 79.2197 89.5502 79.2197 102.41C79.2197 115.27 89.6797 125.73 102.54 125.73C115.4 125.73 125.86 115.27 125.86 102.41C125.86 89.5502 115.4 79.0901 102.54 79.0901Z" fill="#2F3F64"/>
</g>
<path id="Vector_7" d="M102.54 105.34C101.77 105.34 101.14 104.72 101.14 103.95V88.2601C101.14 87.4901 101.76 86.8701 102.54 86.8701C103.32 86.8701 103.93 87.4901 103.93 88.2601V103.95C103.93 104.72 103.31 105.34 102.54 105.34Z" fill="#2F3F64"/>
<path id="Vector_8" d="M118.22 113.959H88.2896C87.5196 113.959 86.8896 113.339 86.8896 112.569V104.329C86.8896 103.559 87.5096 102.939 88.2896 102.939C89.0696 102.939 89.6896 103.559 89.6896 104.329V111.17H116.83V104.329C116.83 103.559 117.45 102.939 118.22 102.939C118.99 102.939 119.61 103.559 119.61 104.329V112.569C119.61 113.339 118.99 113.959 118.22 113.959Z" fill="#2F3F64"/>
<path id="Vector_9" d="M102.53 106.09C102.17 106.09 101.82 105.951 101.54 105.681L93.8503 97.9904C93.3103 97.4504 93.3103 96.5605 93.8503 96.0205C94.3903 95.4805 95.2803 95.4805 95.8203 96.0205L102.52 102.72L109.23 96.0105C109.77 95.4705 110.66 95.4705 111.2 96.0105C111.74 96.5505 111.74 97.4404 111.2 97.9804L103.5 105.681C103.23 105.951 102.87 106.09 102.51 106.09H102.53Z" fill="#2F3F64"/>
<g id="Group_4">
<path id="Vector_10" d="M58.6998 24.6104H12.7197V31.4403H58.6998V24.6104Z" fill="#BCC5DC"/>
<path id="Vector_11" d="M58.6998 32.4403H12.7197C12.1697 32.4403 11.7197 31.9903 11.7197 31.4403V24.6104C11.7197 24.0604 12.1697 23.6104 12.7197 23.6104H58.6998C59.2498 23.6104 59.6998 24.0604 59.6998 24.6104V31.4403C59.6998 31.9903 59.2498 32.4403 58.6998 32.4403ZM13.7197 30.4403H57.6998V25.6104H13.7197V30.4403Z" fill="#2F3F64"/>
</g>
<path id="Vector_12" d="M88.2897 45.6396H12.7197C12.1697 45.6396 11.7197 45.1896 11.7197 44.6396C11.7197 44.0896 12.1697 43.6396 12.7197 43.6396H88.2897C88.8397 43.6396 89.2897 44.0896 89.2897 44.6396C89.2897 45.1896 88.8397 45.6396 88.2897 45.6396Z" fill="#2F3F64"/>
<path id="Vector_13" d="M88.2897 55.7695H12.7197C12.1697 55.7695 11.7197 55.3195 11.7197 54.7695C11.7197 54.2195 12.1697 53.7695 12.7197 53.7695H88.2897C88.8397 53.7695 89.2897 54.2195 89.2897 54.7695C89.2897 55.3195 88.8397 55.7695 88.2897 55.7695Z" fill="#2F3F64"/>
<path id="Vector_14" d="M88.2897 65.8896H12.7197C12.1697 65.8896 11.7197 65.4396 11.7197 64.8896C11.7197 64.3396 12.1697 63.8896 12.7197 63.8896H88.2897C88.8397 63.8896 89.2897 64.3396 89.2897 64.8896C89.2897 65.4396 88.8397 65.8896 88.2897 65.8896Z" fill="#2F3F64"/>
<path id="Vector_15" d="M88.2897 76.0098H12.7197C12.1697 76.0098 11.7197 75.5598 11.7197 75.0098C11.7197 74.4598 12.1697 74.0098 12.7197 74.0098H88.2897C88.8397 74.0098 89.2897 74.4598 89.2897 75.0098C89.2897 75.5598 88.8397 76.0098 88.2897 76.0098Z" fill="#2F3F64"/>
<path id="Vector_16" d="M85.4097 86.1396H12.7197C12.1697 86.1396 11.7197 85.6896 11.7197 85.1396C11.7197 84.5896 12.1697 84.1396 12.7197 84.1396H85.4097C85.9597 84.1396 86.4097 84.5896 86.4097 85.1396C86.4097 85.6896 85.9597 86.1396 85.4097 86.1396Z" fill="#2F3F64"/>
<path id="Vector_17" d="M53.2498 96.2598H12.7197C12.1697 96.2598 11.7197 95.8098 11.7197 95.2598C11.7197 94.7098 12.1697 94.2598 12.7197 94.2598H53.2498C53.7998 94.2598 54.2498 94.7098 54.2498 95.2598C54.2498 95.8098 53.7998 96.2598 53.2498 96.2598Z" fill="#2F3F64"/>
</g>
</svg>
