<svg width="127" height="88" viewBox="0 0 127 88" fill="none" xmlns="http://www.w3.org/2000/svg">
<g id="delivery">
<path id="Vector" d="M122.29 43.8107L110.61 36.8507C108.98 35.8807 107.7 34.4107 106.97 32.6607L101.34 19.2607C100.26 16.6807 97.7399 15.0107 94.9399 15.0107H76.1299V73.6807H115.21C118.59 73.6807 121.49 71.2407 122.05 67.9007L125.58 50.9407C126.06 48.1107 124.75 45.2807 122.29 43.8207V43.8107Z" fill="#BCC5DC"/>
<path id="Vector_2" d="M115.21 74.6807H76.1299C75.5799 74.6807 75.1299 74.2307 75.1299 73.6807V15.0107C75.1299 14.4607 75.5799 14.0107 76.1299 14.0107H94.9399C98.1499 14.0107 101.02 15.9207 102.26 18.8807C102.47 19.3907 102.23 19.9807 101.73 20.1907C101.22 20.4107 100.63 20.1607 100.42 19.6607C99.4899 17.4507 97.3399 16.0207 94.9399 16.0207H77.1299V72.6907H115.21C118.12 72.6907 120.58 70.6107 121.07 67.7407L124.6 50.7407C125 48.3707 123.87 45.9207 121.78 44.6807L113.14 39.5307C112.67 39.2507 112.51 38.6307 112.79 38.1607C113.07 37.6807 113.69 37.5307 114.16 37.8107L122.8 42.9607C125.6 44.6307 127.11 47.9007 126.56 51.1107L123.03 68.1107C122.39 71.9007 119.09 74.6907 115.21 74.6907V74.6807Z" fill="#2F3F64"/>
<g id="Group">
<path id="Vector_3" d="M11.0699 1H72.52C74.51 1 76.1199 2.61 76.1199 4.6V73.72H11.1299C9.09994 73.72 7.45996 72.08 7.45996 70.05V4.6C7.45996 2.61 9.06994 1 11.0599 1H11.0699Z" fill="white"/>
<path id="Vector_4" d="M76.1298 74.72H11.1398C8.55977 74.72 6.46973 72.62 6.46973 70.05V4.6C6.46973 2.06 8.52976 0 11.0698 0H72.5198C75.0598 0 77.1198 2.06 77.1198 4.6V73.72C77.1198 74.27 76.6698 74.72 76.1198 74.72H76.1298ZM11.0698 2C9.63976 2 8.46973 3.17 8.46973 4.6V70.05C8.46973 71.52 9.66977 72.72 11.1398 72.72H75.1298V4.6C75.1298 3.17 73.9598 2 72.5298 2H11.0798H11.0698Z" fill="#2F3F64"/>
</g>
<path id="Vector_5" d="M101.021 87.4405C108.454 87.4405 114.481 81.4143 114.481 73.9805C114.481 66.5468 108.454 60.5205 101.021 60.5205C93.5868 60.5205 87.5605 66.5468 87.5605 73.9805C87.5605 81.4143 93.5868 87.4405 101.021 87.4405Z" fill="#2F3F64"/>
<g id="Group_2">
<path id="Vector_6" d="M101.02 81.8708C105.377 81.8708 108.91 78.3383 108.91 73.9808C108.91 69.6233 105.377 66.0908 101.02 66.0908C96.6624 66.0908 93.1299 69.6233 93.1299 73.9808C93.1299 78.3383 96.6624 81.8708 101.02 81.8708Z" fill="#BCC5DC"/>
<path id="Vector_7" d="M101.02 82.8806C96.1199 82.8806 92.1299 78.8906 92.1299 73.9906C92.1299 69.0906 96.1199 65.1006 101.02 65.1006C105.92 65.1006 109.91 69.0906 109.91 73.9906C109.91 78.8906 105.92 82.8806 101.02 82.8806ZM101.02 67.0906C97.2199 67.0906 94.1299 70.1806 94.1299 73.9806C94.1299 77.7806 97.2199 80.8706 101.02 80.8706C104.82 80.8706 107.91 77.7806 107.91 73.9806C107.91 70.1806 104.82 67.0906 101.02 67.0906Z" fill="#2F3F64"/>
</g>
<path id="Vector_8" d="M35.0196 87.4405C42.4533 87.4405 48.4796 81.4143 48.4796 73.9805C48.4796 66.5468 42.4533 60.5205 35.0196 60.5205C27.5858 60.5205 21.5596 66.5468 21.5596 73.9805C21.5596 81.4143 27.5858 87.4405 35.0196 87.4405Z" fill="#2F3F64"/>
<path id="Vector_9" d="M37.21 32.8809H1C0.45 32.8809 0 32.4309 0 31.8809C0 31.3309 0.45 30.8809 1 30.8809H37.21C37.76 30.8809 38.21 31.3309 38.21 31.8809C38.21 32.4309 37.76 32.8809 37.21 32.8809Z" fill="#2F3F64"/>
<path id="Vector_10" d="M53.5 25.0703H1C0.45 25.0703 0 24.6203 0 24.0703C0 23.5203 0.45 23.0703 1 23.0703H53.5C54.05 23.0703 54.5 23.5203 54.5 24.0703C54.5 24.6203 54.05 25.0703 53.5 25.0703Z" fill="#2F3F64"/>
<path id="Vector_11" d="M21.7399 40.6807H1.16992C0.619922 40.6807 0.169922 40.2307 0.169922 39.6807C0.169922 39.1307 0.619922 38.6807 1.16992 38.6807H21.7399C22.2899 38.6807 22.7399 39.1307 22.7399 39.6807C22.7399 40.2307 22.2899 40.6807 21.7399 40.6807Z" fill="#2F3F64"/>
<g id="Group_3">
<path id="Vector_12" d="M94.4796 19.0205H82.4896C81.2896 19.0205 80.3096 19.9305 80.3096 21.0605V34.7505C80.3096 35.8805 81.2796 36.7905 82.4896 36.7905H99.3696C100.86 36.7905 101.9 35.4205 101.43 34.1005L96.5496 20.4105C96.2496 19.5805 95.4196 19.0205 94.4896 19.0205H94.4796Z" fill="white"/>
<path id="Vector_13" d="M99.3598 37.7905H82.4798C80.7298 37.7905 79.2998 36.4305 79.2998 34.7505V21.0605C79.2998 19.3805 80.7198 18.0205 82.4798 18.0205H94.4698C95.8298 18.0205 97.0398 18.8505 97.4698 20.0805L102.35 33.7705C102.67 34.6805 102.54 35.6605 101.98 36.4605C101.39 37.3005 100.4 37.8005 99.3498 37.8005L99.3598 37.7905ZM82.4798 20.0205C81.8298 20.0205 81.2998 20.4905 81.2998 21.0605V34.7505C81.2998 35.3205 81.8298 35.7905 82.4798 35.7905H99.3598C99.7698 35.7905 100.14 35.6105 100.36 35.3005C100.47 35.1505 100.63 34.8405 100.48 34.4405L95.5998 20.7505C95.4398 20.3105 94.9898 20.0205 94.4798 20.0205H82.4898H82.4798Z" fill="#2F3F64"/>
</g>
<g id="Group_4">
<path id="Vector_14" d="M125.571 50.9307H114.771C113.651 50.9307 112.701 51.7507 112.541 52.8607L112.001 56.6207C111.811 57.9807 112.861 59.1907 114.231 59.1907H123.861L125.581 50.9307H125.571Z" fill="#FEC95C"/>
<path id="Vector_15" d="M123.86 60.1907H114.23C113.29 60.1907 112.39 59.7807 111.77 59.0707C111.15 58.3607 110.88 57.4107 111.01 56.4807L111.55 52.7207C111.78 51.1307 113.16 49.9307 114.77 49.9307H125.57C125.87 49.9307 126.16 50.0707 126.35 50.3007C126.54 50.5307 126.61 50.8407 126.55 51.1307L124.83 59.3807C124.73 59.8407 124.32 60.1807 123.85 60.1807L123.86 60.1907ZM114.77 51.9307C114.15 51.9307 113.62 52.3907 113.53 53.0007L112.99 56.7607C112.94 57.1207 113.04 57.4807 113.28 57.7507C113.52 58.0307 113.86 58.1807 114.22 58.1807H123.03L124.33 51.9307H114.75H114.77Z" fill="#2F3F64"/>
</g>
<g id="Group_5">
<path id="Vector_16" d="M35.0199 81.8708C39.3774 81.8708 42.9099 78.3383 42.9099 73.9808C42.9099 69.6233 39.3774 66.0908 35.0199 66.0908C30.6624 66.0908 27.1299 69.6233 27.1299 73.9808C27.1299 78.3383 30.6624 81.8708 35.0199 81.8708Z" fill="#BCC5DC"/>
<path id="Vector_17" d="M35.0199 82.8806C30.1199 82.8806 26.1299 78.8906 26.1299 73.9906C26.1299 69.0906 30.1199 65.1006 35.0199 65.1006C39.9199 65.1006 43.9099 69.0906 43.9099 73.9906C43.9099 78.8906 39.9199 82.8806 35.0199 82.8806ZM35.0199 67.0906C31.2199 67.0906 28.1299 70.1806 28.1299 73.9806C28.1299 77.7806 31.2199 80.8706 35.0199 80.8706C38.8199 80.8706 41.9099 77.7806 41.9099 73.9806C41.9099 70.1806 38.8199 67.0906 35.0199 67.0906Z" fill="#2F3F64"/>
</g>
</g>
</svg>
