<svg width="126" height="127" viewBox="0 0 126 127" fill="none" xmlns="http://www.w3.org/2000/svg">
<path d="M93.2 7.7207H4.91C2.2 7.7207 0 9.9307 0 12.6507V112.781C0 115.501 2.2 117.711 4.91 117.711H91.95C95.14 117.711 97.72 114.981 97.73 111.611C97.81 86.3507 98.1 12.6507 98.1 12.6507C98.1 9.9307 95.9 7.7207 93.19 7.7207H93.2ZM92.49 111.591C92.49 112.121 92.16 112.471 91.95 112.471H8.02C6.49 112.471 5.24001 111.231 5.24001 109.691V15.7407C5.24001 14.2107 6.48 12.9607 8.02 12.9607H90.08C91.62 12.9607 92.86 14.2007 92.86 15.7407C92.8 29.9807 92.57 89.4307 92.5 111.591H92.49Z" fill="#2F3F64"/>
<path d="M5.24023 109.691V15.7409C5.24023 14.2109 6.48023 12.9609 8.02023 12.9609H90.0802C91.6202 12.9609 92.8602 14.2009 92.8602 15.7409C92.8002 29.9809 92.5702 89.4309 92.5002 111.591C92.5002 112.121 92.1702 112.471 91.9603 112.471H8.03024C6.50024 112.471 5.25023 111.231 5.25023 109.691H5.24023Z" fill="white"/>
<path d="M91.9502 113.471H8.02023C5.94023 113.471 4.24023 111.781 4.24023 109.691V15.7409C4.24023 13.6609 5.93023 11.9609 8.02023 11.9609H90.0802C91.0902 11.9609 92.0402 12.3509 92.7602 13.0709C93.4702 13.7809 93.8602 14.7409 93.8602 15.7409C93.8002 29.9809 93.5702 89.4309 93.5002 111.591C93.5002 112.611 92.7903 113.471 91.9603 113.471H91.9502ZM8.01024 13.9609C7.03024 13.9609 6.23024 14.7609 6.23024 15.7409V109.691C6.23024 110.671 7.03024 111.471 8.01024 111.471H91.4702C91.5502 89.1009 91.7902 29.9409 91.8402 15.7409C91.8402 15.2709 91.6602 14.8209 91.3302 14.4809C90.9902 14.1409 90.5502 13.9609 90.0702 13.9609H8.01024Z" fill="#2F3F64"/>
<path d="M82.5199 30.7695H15.5899C14.2534 30.7695 13.1699 31.853 13.1699 33.1895V38.0295C13.1699 39.3661 14.2534 40.4495 15.5899 40.4495H82.5199C83.8565 40.4495 84.9399 39.3661 84.9399 38.0295V33.1895C84.9399 31.853 83.8565 30.7695 82.5199 30.7695Z" fill="#BCC5DC"/>
<path d="M82.5199 46.4707H15.5899C14.2534 46.4707 13.1699 47.5542 13.1699 48.8907V53.7307C13.1699 55.0672 14.2534 56.1507 15.5899 56.1507H82.5199C83.8565 56.1507 84.9399 55.0672 84.9399 53.7307V48.8907C84.9399 47.5542 83.8565 46.4707 82.5199 46.4707Z" fill="#BCC5DC"/>
<path d="M64 1.00977C66.98 1.00977 69.39 3.41977 69.39 6.39977V13.3898C69.39 16.3698 66.98 18.7798 64 18.7798H34.1C31.12 18.7798 28.71 16.3698 28.71 13.3898V6.39977C28.71 3.41977 31.12 1.00977 34.1 1.00977H49.37" fill="#BCC5DC"/>
<path d="M64 19.77H34.1C30.58 19.77 27.71 16.9 27.71 13.38V6.39C27.71 2.87 30.58 0 34.1 0H49.37C49.92 0 50.37 0.45 50.37 1C50.37 1.55 49.92 2 49.37 2H34.1C31.68 2 29.71 3.97 29.71 6.39V13.38C29.71 15.8 31.68 17.77 34.1 17.77H64C66.42 17.77 68.39 15.8 68.39 13.38V6.39C68.39 3.97 66.42 2 64 2C63.45 2 63 1.55 63 1C63 0.45 63.45 0 64 0C67.52 0 70.39 2.87 70.39 6.39V13.38C70.39 16.9 67.52 19.77 64 19.77Z" fill="#2F3F64"/>
<path d="M37.2096 91.7309C36.2996 91.7309 35.4896 91.2209 35.0896 90.3809L30.1196 79.8109L25.6796 82.3809C24.5996 83.0009 23.3796 83.3309 22.1296 83.3309H15.0596C14.2296 83.3309 13.5596 82.6609 13.5596 81.8309C13.5596 81.0009 14.2296 80.3309 15.0596 80.3309H22.1296C22.8496 80.3309 23.5496 80.1409 24.1696 79.7809L29.2196 76.8609C29.7896 76.5309 30.4696 76.4509 31.0996 76.6509C31.7296 76.8509 32.2496 77.3009 32.5296 77.8909L36.9896 87.3809L41.4796 67.3009C41.7196 66.2209 42.6596 65.4609 43.7696 65.4609H43.7796C44.8996 65.4609 45.8396 66.2309 46.0696 67.3209L49.7996 84.7509L53.0096 80.0509C53.4496 79.4109 54.1796 79.0309 54.9496 79.0309H68.7196C69.5496 79.0309 70.2196 79.7009 70.2196 80.5309C70.2196 81.3609 69.5496 82.0309 68.7196 82.0309H55.2896L51.4196 87.6909C50.8896 88.4709 49.9496 88.8509 49.0196 88.6709C48.0996 88.4909 47.3696 87.7809 47.1796 86.8509L43.7496 70.8409L39.4996 89.8809C39.2796 90.8809 38.4796 91.5909 37.4596 91.7109C37.3696 91.7109 37.2796 91.7209 37.1896 91.7209L37.2096 91.7309Z" fill="#BCC5DC"/>
<path d="M94.584 101.352L100.121 95.8149L122.897 118.591C124.424 120.118 124.424 122.593 122.897 124.12C121.369 125.648 118.894 125.648 117.367 124.12L94.591 101.345L94.584 101.352Z" fill="#2F3F64"/>
<path d="M120.129 126.271C118.869 126.271 117.609 125.791 116.659 124.831L93.8892 102.061C93.4992 101.671 93.4992 101.041 93.8892 100.651L99.4192 95.1206C99.8092 94.7306 100.439 94.7306 100.829 95.1206L123.599 117.891C125.519 119.811 125.519 122.921 123.599 124.841C122.639 125.801 121.379 126.281 120.129 126.281V126.271ZM95.9992 101.351L118.069 123.421C119.209 124.551 121.049 124.551 122.189 123.421C123.329 122.281 123.329 120.441 122.189 119.301L100.119 97.2306L95.9992 101.351Z" fill="#2F3F64"/>
<path d="M102.71 106.194C113.927 96.0695 114.812 78.7688 104.688 67.5518C94.5631 56.3349 77.2624 55.4494 66.0454 65.574C54.8285 75.6986 53.943 92.9994 64.0676 104.216C74.1922 115.433 91.493 116.319 102.71 106.194Z" fill="#BCC5DC"/>
<path d="M84.3892 114.261C77.1292 114.261 69.8592 111.491 64.3292 105.971C53.2692 94.9114 53.2692 76.9214 64.3292 65.8614C75.3892 54.8014 93.3792 54.8014 104.439 65.8614C115.499 76.9214 115.499 94.9114 104.439 105.971C98.9092 111.501 91.6492 114.261 84.3792 114.261H84.3892ZM84.3892 59.5614C77.6392 59.5614 70.8892 62.1314 65.7492 67.2714C55.4692 77.5514 55.4692 94.2814 65.7492 104.561C76.0292 114.841 92.7592 114.841 103.039 104.561C113.319 94.2814 113.319 77.5514 103.039 67.2714C97.8992 62.1314 91.1492 59.5614 84.3992 59.5614H84.3892Z" fill="#2F3F64"/>
<path d="M99.9631 103.151C109.499 94.5437 110.252 79.8355 101.644 70.2995C93.0371 60.7634 78.3289 60.0106 68.7929 68.618C59.2569 77.2254 58.504 91.9336 67.1115 101.47C75.7189 111.006 90.427 111.758 99.9631 103.151Z" fill="#FEC95C"/>
<path d="M84.3898 110.161C78.1798 110.161 71.9598 107.801 67.2298 103.071C57.7698 93.611 57.7698 78.221 67.2298 68.761C76.6898 59.301 92.0798 59.301 101.54 68.761C111 78.221 111 93.611 101.54 103.071C96.8098 107.801 90.5998 110.161 84.3798 110.161H84.3898ZM68.6398 70.171C59.9598 78.851 59.9598 92.971 68.6398 101.651C77.3198 110.331 91.4398 110.331 100.12 101.651C108.8 92.971 108.8 78.851 100.12 70.171C91.4398 61.491 77.3198 61.491 68.6398 70.171Z" fill="#2F3F64"/>
<path fill-rule="evenodd" clip-rule="evenodd" d="M107.291 86.75H95.6205C95.3805 86.75 95.1606 86.87 95.0206 87.06L91.5705 92.1C91.2105 92.62 90.4006 92.46 90.2706 91.84L86.8405 75.82C86.6805 75.06 85.6005 75.06 85.4305 75.82L81.2805 94.39C81.1305 95.06 80.2105 95.16 79.9205 94.54L75.4606 85.05C75.2806 84.67 74.8105 84.52 74.4505 84.73L69.2405 87.74C69.1305 87.8 69.0105 87.84 68.8805 87.84H61.8105" fill="#FEC95C"/>
<path d="M80.5901 95.9602C79.9201 95.9602 79.3301 95.5802 79.0401 94.9702L74.7101 85.7502L69.7601 88.6102C69.5001 88.7602 69.2001 88.8402 68.9001 88.8402H61.8301C61.2801 88.8402 60.8301 88.3902 60.8301 87.8402C60.8301 87.2902 61.2801 86.8402 61.8301 86.8402H68.8201L73.9701 83.8602C74.3801 83.6202 74.8901 83.5602 75.3401 83.7102C75.8001 83.8502 76.1801 84.1802 76.3801 84.6202L80.4901 93.3702L84.4601 75.5902C84.6401 74.8002 85.3301 74.2402 86.1401 74.2402C86.9601 74.2402 87.6501 74.8002 87.8201 75.6002L91.1101 90.9802L94.1901 86.4802C94.5101 86.0102 95.0401 85.7302 95.6101 85.7302H107.28C107.83 85.7302 108.28 86.1802 108.28 86.7302C108.28 87.2802 107.83 87.7302 107.28 87.7302H95.7601L92.4001 92.6502C92.0101 93.2202 91.3201 93.5002 90.6501 93.3702C89.9701 93.2402 89.4401 92.7202 89.3001 92.0402L86.1401 77.2702L82.2701 94.6002C82.1101 95.3302 81.5201 95.8502 80.7801 95.9402C80.7101 95.9402 80.6501 95.9502 80.5801 95.9502L80.5901 95.9602Z" fill="#2F3F64"/>
</svg>
