<svg width="126" height="125" viewBox="0 0 126 125" fill="none" xmlns="http://www.w3.org/2000/svg">
<g id="Capa_1" clip-path="url(#clip0_516_74)">
<g id="Group">
<g id="Group_2">
<path id="Vector" fill-rule="evenodd" clip-rule="evenodd" d="M77.3096 1V22.59H98.5196L77.3096 1Z" fill="#2F3F64"/>
<path id="Vector_2" d="M98.5196 23.5902H77.3096C76.7596 23.5902 76.3096 23.1402 76.3096 22.5902V1.00017C76.3096 0.590172 76.5596 0.230172 76.9296 0.070172C77.3096 -0.079828 77.7396 0.000171959 78.0196 0.290172L99.2296 21.8802C99.5096 22.1702 99.5996 22.6002 99.4396 22.9702C99.2796 23.3402 98.9196 23.5802 98.5196 23.5802V23.5902ZM78.3096 21.5902H96.1296L78.3096 3.44017V21.5802V21.5902Z" fill="#2F3F64"/>
</g>
<g id="Group_3">
<path id="Vector_3" fill-rule="evenodd" clip-rule="evenodd" d="M8.05957 1V108.74H95.5196C97.1796 108.74 98.5196 107.4 98.5196 105.74V22.59H77.3096V1H38.6096" fill="white"/>
<path id="Vector_4" d="M95.5196 109.74H8.05957C7.50957 109.74 7.05957 109.29 7.05957 108.74V1C7.05957 0.45 7.50957 0 8.05957 0C8.60957 0 9.05957 0.45 9.05957 1V107.74H95.5196C96.6196 107.74 97.5196 106.84 97.5196 105.74V23.59H77.3096C76.7596 23.59 76.3096 23.14 76.3096 22.59V2H38.6096C38.0596 2 37.6096 1.55 37.6096 1C37.6096 0.45 38.0596 0 38.6096 0H77.3096C77.8596 0 78.3096 0.45 78.3096 1V21.59H98.5196C99.0696 21.59 99.5196 22.04 99.5196 22.59V105.74C99.5196 107.95 97.7296 109.74 95.5196 109.74Z" fill="#2F3F64"/>
</g>
<path id="Vector_5" fill-rule="evenodd" clip-rule="evenodd" d="M90.32 108.89V111.44C90.3 113.75 88.33 115.62 85.89 115.62H4.53C2.03 115.62 0 113.69 0 111.32V14.8C0 12.43 2.03 10.5 4.53 10.5H7.88V104.59C7.88 106.96 9.91 108.89 12.41 108.89H90.31H90.32Z" fill="#2F3F64"/>
</g>
<g id="Group_4">
<path id="Vector_6" d="M47.2196 80.1502C47.1396 80.1502 47.0596 80.1502 46.9796 80.1202C46.4396 79.9902 46.1196 79.4502 46.2496 78.9102L57.6996 32.5402C57.8296 32.0002 58.3696 31.6802 58.9096 31.8102C59.4496 31.9402 59.7696 32.4802 59.6396 33.0202L48.1896 79.3902C48.0796 79.8502 47.6696 80.1502 47.2196 80.1502Z" fill="#2F3F64"/>
<path id="Vector_7" d="M65.2505 72.5006C64.9905 72.5006 64.7405 72.4006 64.5405 72.2106C64.1505 71.8206 64.1505 71.1906 64.5405 70.8006L78.5905 56.7506C78.9105 56.4306 78.9105 55.9006 78.5905 55.5806L64.5405 41.5306C64.1505 41.1406 64.1505 40.5106 64.5405 40.1206C64.9305 39.7306 65.5605 39.7306 65.9505 40.1206L80.0005 54.1706C81.1005 55.2706 81.1005 57.0706 80.0005 58.1706L65.9505 72.2206C65.7505 72.4206 65.5005 72.5106 65.2405 72.5106L65.2505 72.5006Z" fill="#2F3F64"/>
<path id="Vector_8" d="M40.7901 72.4999C40.5301 72.4999 40.2801 72.3999 40.0801 72.2099L26.0301 58.1599C24.9301 57.0599 24.9301 55.2599 26.0301 54.1599L40.0801 40.1099C40.4701 39.7199 41.1001 39.7199 41.4901 40.1099C41.8801 40.4999 41.8801 41.1299 41.4901 41.5199L27.4401 55.5699C27.1201 55.8899 27.1201 56.4199 27.4401 56.7399L41.4901 70.7899C41.8801 71.1799 41.8801 71.8099 41.4901 72.1999C41.2901 72.3999 41.0401 72.4899 40.7801 72.4899L40.7901 72.4999Z" fill="#2F3F64"/>
</g>
<g id="Group_5">
<g id="Group_6">
<path id="Vector_9" d="M99.8102 123.93C113.242 123.93 124.13 113.042 124.13 99.61C124.13 86.1785 113.242 75.29 99.8102 75.29C86.3787 75.29 75.4902 86.1785 75.4902 99.61C75.4902 113.042 86.3787 123.93 99.8102 123.93Z" fill="#FEC95C"/>
<path id="Vector_10" d="M99.8102 124.92C85.8502 124.92 74.4902 113.56 74.4902 99.6003C74.4902 85.6403 85.8502 74.2803 99.8102 74.2803C113.77 74.2803 125.13 85.6403 125.13 99.6003C125.13 113.56 113.77 124.92 99.8102 124.92ZM99.8102 76.2903C86.9502 76.2903 76.4902 86.7503 76.4902 99.6103C76.4902 112.47 86.9502 122.93 99.8102 122.93C112.67 122.93 123.13 112.47 123.13 99.6103C123.13 86.7503 112.67 76.2903 99.8102 76.2903Z" fill="#2F3F64"/>
</g>
<path id="Vector_11" d="M103.43 92.7101L100.09 111.59H95.2803L98.6203 92.7101H103.43ZM99.6503 89.8101C99.1903 89.3801 98.9703 88.8301 98.9703 88.1701C98.9703 87.2601 99.3203 86.4801 100.01 85.8401C100.7 85.1901 101.51 84.8701 102.45 84.8701C103.18 84.8701 103.77 85.0901 104.22 85.5201C104.67 85.9501 104.9 86.5001 104.9 87.1601C104.9 88.0701 104.56 88.8501 103.88 89.4901C103.2 90.1401 102.39 90.4601 101.46 90.4601C100.71 90.4601 100.11 90.2401 99.6503 89.8101Z" fill="#2F3F64"/>
</g>
</g>
<defs>
<clipPath id="clip0_516_74">
<rect width="125.13" height="124.92" fill="white"/>
</clipPath>
</defs>
</svg>
