<svg width="128" height="127" viewBox="0 0 128 127" fill="none" xmlns="http://www.w3.org/2000/svg">
<g id="Capa_1" clip-path="url(#clip0_516_11)">
<g id="Group">
<path id="Vector" fill-rule="evenodd" clip-rule="evenodd" d="M22.21 1V22.59H1L22.21 1Z" fill="#2F3F64"/>
<path id="Vector_2" d="M22.2103 23.5905H1.0003C0.600304 23.5905 0.230304 23.3505 0.0803038 22.9805C-0.0696962 22.6105 0.0103038 22.1805 0.290304 21.8905L21.5003 0.300476C21.7803 0.0104756 22.2203 -0.0795244 22.5903 0.0804756C22.9703 0.230476 23.2103 0.600476 23.2103 1.01048V22.6005C23.2103 23.1505 22.7603 23.6005 22.2103 23.6005V23.5905ZM3.3803 21.5905H21.2003V3.44048L3.3803 21.5905Z" fill="#2F3F64"/>
</g>
<g id="Group_2">
<path id="Vector_3" fill-rule="evenodd" clip-rule="evenodd" d="M91.46 1V108.74H4C2.34 108.74 1 107.4 1 105.74V22.59H22.21V1H60.91" fill="white"/>
<path id="Vector_4" d="M91.46 109.74H4C1.79 109.74 0 107.95 0 105.74V22.59C0 22.04 0.45 21.59 1 21.59H21.21V1C21.21 0.45 21.66 0 22.21 0H60.91C61.46 0 61.91 0.45 61.91 1C61.91 1.55 61.46 2 60.91 2H23.21V22.59C23.21 23.14 22.76 23.59 22.21 23.59H2V105.74C2 106.84 2.9 107.74 4 107.74H90.46V1C90.46 0.45 90.91 0 91.46 0C92.01 0 92.46 0.45 92.46 1V108.74C92.46 109.29 92.01 109.74 91.46 109.74Z" fill="#2F3F64"/>
</g>
<path id="Vector_5" fill-rule="evenodd" clip-rule="evenodd" d="M9.2002 108.89V111.44C9.2202 113.75 11.1902 115.62 13.6302 115.62H94.9902C97.4902 115.62 99.5202 113.69 99.5202 111.32V14.8C99.5202 12.43 97.4902 10.5 94.9902 10.5H91.6402V104.59C91.6402 106.96 89.6102 108.89 87.1102 108.89H9.2002Z" fill="#2F3F64"/>
<g id="Group_3">
<path id="Vector_6" d="M102.29 125.04C115.721 125.04 126.61 114.152 126.61 100.72C126.61 87.2888 115.721 76.4004 102.29 76.4004C88.8582 76.4004 77.9697 87.2888 77.9697 100.72C77.9697 114.152 88.8582 125.04 102.29 125.04Z" fill="#FEC95C"/>
<path id="Vector_7" d="M102.29 126.04C88.3297 126.04 76.9697 114.68 76.9697 100.72C76.9697 86.7604 88.3297 75.4004 102.29 75.4004C116.25 75.4004 127.61 86.7604 127.61 100.72C127.61 114.68 116.25 126.04 102.29 126.04ZM102.29 77.4104C89.4297 77.4104 78.9697 87.8704 78.9697 100.73C78.9697 113.59 89.4297 124.05 102.29 124.05C115.15 124.05 125.61 113.59 125.61 100.73C125.61 87.8704 115.15 77.4104 102.29 77.4104Z" fill="#2F3F64"/>
</g>
<g id="Group_4">
<path id="Vector_8" d="M60.6196 31.7803H14.6396V38.6103H60.6196V31.7803Z" fill="#BCC5DC"/>
<path id="Vector_9" d="M60.6196 39.6103H14.6396C14.0896 39.6103 13.6396 39.1603 13.6396 38.6103V31.7803C13.6396 31.2303 14.0896 30.7803 14.6396 30.7803H60.6196C61.1696 30.7803 61.6196 31.2303 61.6196 31.7803V38.6103C61.6196 39.1603 61.1696 39.6103 60.6196 39.6103ZM15.6396 37.6103H59.6196V32.7803H15.6396V37.6103Z" fill="#2F3F64"/>
</g>
<path id="Vector_10" d="M80.1396 50.0596H14.6396C14.0896 50.0596 13.6396 49.6096 13.6396 49.0596C13.6396 48.5096 14.0896 48.0596 14.6396 48.0596H80.1396C80.6897 48.0596 81.1396 48.5096 81.1396 49.0596C81.1396 49.6096 80.6897 50.0596 80.1396 50.0596Z" fill="#2F3F64"/>
<path id="Vector_11" d="M80.1396 60.1797H14.6396C14.0896 60.1797 13.6396 59.7297 13.6396 59.1797C13.6396 58.6297 14.0896 58.1797 14.6396 58.1797H80.1396C80.6897 58.1797 81.1396 58.6297 81.1396 59.1797C81.1396 59.7297 80.6897 60.1797 80.1396 60.1797Z" fill="#2F3F64"/>
<path id="Vector_12" d="M80.1396 70.3096H14.6396C14.0896 70.3096 13.6396 69.8596 13.6396 69.3096C13.6396 68.7596 14.0896 68.3096 14.6396 68.3096H80.1396C80.6897 68.3096 81.1396 68.7596 81.1396 69.3096C81.1396 69.8596 80.6897 70.3096 80.1396 70.3096Z" fill="#2F3F64"/>
<path id="Vector_13" d="M80.1396 80.4297H14.6396C14.0896 80.4297 13.6396 79.9797 13.6396 79.4297C13.6396 78.8797 14.0896 78.4297 14.6396 78.4297H80.1396C80.6897 78.4297 81.1396 78.8797 81.1396 79.4297C81.1396 79.9797 80.6897 80.4297 80.1396 80.4297Z" fill="#2F3F64"/>
<path id="Vector_14" d="M55.1696 90.5596H14.6396C14.0896 90.5596 13.6396 90.1096 13.6396 89.5596C13.6396 89.0096 14.0896 88.5596 14.6396 88.5596H55.1696C55.7196 88.5596 56.1696 89.0096 56.1696 89.5596C56.1696 90.1096 55.7196 90.5596 55.1696 90.5596Z" fill="#2F3F64"/>
<path id="Vector_15" d="M97.4901 110.88C97.2601 110.88 97.0301 110.8 96.8401 110.64L88.1201 103.21C87.7001 102.85 87.6501 102.22 88.0101 101.8C88.3701 101.38 89.0001 101.33 89.4201 101.69L97.4401 108.52L115.1 90.8599C115.49 90.4699 116.12 90.4699 116.51 90.8599C116.9 91.2499 116.9 91.8799 116.51 92.2699L98.1901 110.58C98.0001 110.77 97.7401 110.87 97.4801 110.87L97.4901 110.88Z" fill="#2F3F64"/>
</g>
<defs>
<clipPath id="clip0_516_11">
<rect width="127.6" height="126.04" fill="white"/>
</clipPath>
</defs>
</svg>
