<svg width="113" height="125" viewBox="0 0 113 125" fill="none" xmlns="http://www.w3.org/2000/svg">
<g clip-path="url(#clip0_202_39)">
<mask id="mask0_202_39" style="mask-type:luminance" maskUnits="userSpaceOnUse" x="0" y="0" width="113" height="126">
<path d="M112.261 0.0654297H0V125.001H112.261V0.0654297Z" fill="white"/>
</mask>
<g mask="url(#mask0_202_39)">
<path d="M23.2005 20.3857H101.035C106.004 20.3857 110.015 24.4197 110.015 29.4171V52.3571L2.24512 51.7551V29.4171C2.24512 24.4197 6.25658 20.3857 11.226 20.3857H23.2005Z" fill="#BCC5DC"/>
<path d="M110.015 86.6162H17.2132H2.24512V51.7549L110.015 52.3569V86.6162Z" fill="#BCC5DC"/>
<path d="M110.015 86.6162V92.6372C110.015 97.6346 106.004 101.669 101.035 101.669H11.226C6.25658 101.669 2.24512 97.6346 2.24512 92.6372V86.6162H110.015Z" fill="white"/>
<path d="M68.1051 101.669L74.0924 122.742H38.1689L44.1561 101.669H68.1051Z" fill="white"/>
<path d="M101.035 103.926H11.2261C5.03676 103.926 0 98.8608 0 92.6367V29.4163C0 23.1921 5.03676 18.127 11.2261 18.127H23.2005C24.4392 18.127 25.4457 19.1393 25.4457 20.3849C25.4457 21.6304 24.4392 22.6428 23.2005 22.6428H11.2261C7.51025 22.6428 4.49043 25.6796 4.49043 29.4163V92.6367C4.49043 96.3735 7.51025 99.4104 11.2261 99.4104H101.035C104.751 99.4104 107.77 96.3735 107.77 92.6367V29.4163C107.77 25.6796 104.751 22.6428 101.035 22.6428H89.0603C87.8217 22.6428 86.8151 21.6304 86.8151 20.3849C86.8151 19.1393 87.8217 18.127 89.0603 18.127H101.035C107.224 18.127 112.261 23.1921 112.261 29.4163V92.6367C112.261 98.8608 107.224 103.926 101.035 103.926Z" fill="#2F3F64"/>
<path d="M83.0748 125.001H29.1896C27.9509 125.001 26.9443 123.989 26.9443 122.743C26.9443 121.498 27.9509 120.485 29.1896 120.485H83.0748C84.3133 120.485 85.32 121.498 85.32 122.743C85.32 123.989 84.3133 125.001 83.0748 125.001Z" fill="#2F3F64"/>
<path d="M110.017 88.8752H17.2149C15.9763 88.8752 14.9697 87.8628 14.9697 86.6173C14.9697 85.3717 15.9763 84.3594 17.2149 84.3594H110.017C111.256 84.3594 112.262 85.3717 112.262 86.6173C112.262 87.8628 111.256 88.8752 110.017 88.8752Z" fill="#2F3F64"/>
<path d="M74.0929 125.001C73.1162 125.001 72.2181 124.354 71.9337 123.364L65.9464 102.291C65.606 101.09 66.2944 99.8408 67.4882 99.4984C68.6819 99.156 69.9242 99.852 70.2648 101.049L76.2519 122.122C76.5925 123.323 75.9039 124.572 74.7103 124.914C74.5045 124.975 74.295 125.001 74.0929 125.001Z" fill="#2F3F64"/>
<path d="M38.17 125.001C37.9642 125.001 37.7585 124.975 37.5526 124.915C36.3588 124.572 35.6704 123.323 36.0108 122.123L41.9981 101.049C42.3387 99.8487 43.581 99.1563 44.7748 99.4987C45.9684 99.8412 46.657 101.091 46.3164 102.291L40.3293 123.364C40.0486 124.358 39.1467 125.001 38.17 125.001Z" fill="#2F3F64"/>
<path d="M80.0794 13.6117C79.5031 13.6117 78.9306 13.3897 78.4928 12.9494L71.0986 5.51351L63.7042 12.9494C62.8286 13.83 61.4067 13.83 60.5272 12.9494C59.648 12.0689 59.6516 10.6389 60.5272 9.75454L69.5119 0.726833C70.3875 -0.153736 71.8094 -0.153736 72.6889 0.726833L81.6697 9.75831C82.5454 10.6389 82.5454 12.0689 81.6697 12.9532C81.2319 13.3935 80.6556 13.6155 80.0831 13.6155L80.0794 13.6117Z" fill="#FEC95C"/>
<path d="M71.0987 40.7071C69.8602 40.7071 68.8535 39.6948 68.8535 38.4492V2.3233C68.8535 1.07771 69.8602 0.0654297 71.0987 0.0654297C72.3374 0.0654297 73.3439 1.07771 73.3439 2.3233V38.4492C73.3439 39.6948 72.3374 40.7071 71.0987 40.7071Z" fill="#FEC95C"/>
<path d="M41.1645 40.7069C40.5884 40.7069 40.0158 40.4847 39.578 40.0445L30.5972 31.013C29.7215 30.1325 29.7215 28.7024 30.5972 27.8181C31.4728 26.9337 32.8947 26.9375 33.7741 27.8181L41.1683 35.2541L48.5625 27.8181C49.4382 26.9375 50.8602 26.9375 51.7395 27.8181C52.6189 28.6988 52.6151 30.1287 51.7395 31.013L42.7586 40.0445C42.3208 40.4847 41.7447 40.7069 41.1721 40.7069H41.1645Z" fill="#2F3F64"/>
<path d="M41.1642 40.7071C39.9257 40.7071 38.9189 39.6948 38.9189 38.4492V2.3233C38.9189 1.07771 39.9257 0.0654297 41.1642 0.0654297C42.4028 0.0654297 43.4094 1.07771 43.4094 2.3233V38.4492C43.4094 39.6948 42.4028 40.7071 41.1642 40.7071Z" fill="#2F3F64"/>
</g>
</g>
<defs>
<clipPath id="clip0_202_39">
<rect width="112.261" height="124.935" fill="white" transform="translate(0 0.0644531)"/>
</clipPath>
</defs>
</svg>
