<svg width="126" height="126" viewBox="0 0 126 126" fill="none" xmlns="http://www.w3.org/2000/svg">
<g id="error-404">
<path id="Vector" fill-rule="evenodd" clip-rule="evenodd" d="M116.95 94.94V98.3199C116.92 100.81 114.79 102.82 112.17 102.82H4.73003C2.11003 102.82 -0.00996477 100.8 3.52324e-05 98.3199L0.350041 17.25C0.360041 14.77 2.50003 12.75 5.12003 12.75H9.52004L9.18004 90.24C9.17004 92.83 11.38 94.94 14.11 94.94H116.95Z" fill="#2F3F64"/>
<path id="Vector_2" fill-rule="evenodd" clip-rule="evenodd" d="M114.84 5.69025L114.47 90.2402C114.46 92.8302 112.34 94.9402 109.75 94.9402H13.85C11.26 94.9402 9.15996 92.8402 9.16996 90.2402L9.53995 5.69025C9.54995 3.10025 11.66 0.990234 14.26 0.990234H110.16C112.75 0.990234 114.85 3.09025 114.84 5.69025Z" fill="white"/>
<path id="Vector_3" d="M109.76 95.94H13.8596C12.3396 95.94 10.9096 95.35 9.83957 94.27C8.76957 93.19 8.17958 91.76 8.18958 90.24L8.55957 5.69C8.56957 2.55 11.1396 0 14.2796 0H110.18C111.7 0 113.13 0.589983 114.2 1.66998C115.27 2.74998 115.86 4.17995 115.85 5.69995L115.48 90.24C115.47 93.38 112.9 95.93 109.76 95.93V95.94ZM14.2696 2C12.2296 2 10.5596 3.65995 10.5496 5.69995L10.1796 90.24C10.1796 91.23 10.5596 92.15 11.2496 92.85C11.9396 93.55 12.8696 93.93 13.8596 93.93H109.76C111.8 93.93 113.47 92.27 113.48 90.23L113.85 5.69C113.85 4.7 113.47 3.77996 112.78 3.07996C112.08 2.37996 111.16 2 110.17 2H14.2696Z" fill="#2F3F64"/>
<path id="Vector_4" fill-rule="evenodd" clip-rule="evenodd" d="M9.51978 14.42L9.54977 6.44995C9.55977 3.98995 11.3698 2 13.5798 2H110.88C113.09 2 114.88 3.98995 114.87 6.44995L114.83 14.42H9.50977H9.51978Z" fill="#BCC5DC"/>
<path id="Vector_5" fill-rule="evenodd" clip-rule="evenodd" d="M20.5501 4.41992C22.0501 4.41992 23.2701 5.64991 23.2701 7.15991C23.2701 8.66991 22.0501 9.8999 20.5501 9.8999C19.0501 9.8999 17.8301 8.66991 17.8301 7.15991C17.8301 5.64991 19.0501 4.41992 20.5501 4.41992Z" fill="#2F3F64"/>
<path id="Vector_6" fill-rule="evenodd" clip-rule="evenodd" d="M30.9602 4.41992C32.4602 4.41992 33.6802 5.64991 33.6802 7.15991C33.6802 8.66991 32.4602 9.8999 30.9602 9.8999C29.4602 9.8999 28.2402 8.66991 28.2402 7.15991C28.2402 5.64991 29.4602 4.41992 30.9602 4.41992Z" fill="#2F3F64"/>
<path id="Vector_7" fill-rule="evenodd" clip-rule="evenodd" d="M41.8304 4.41992C43.3304 4.41992 44.5504 5.64991 44.5504 7.15991C44.5504 8.66991 43.3304 9.8999 41.8304 9.8999C40.3304 9.8999 39.1104 8.66991 39.1104 7.15991C39.1104 5.64991 40.3304 4.41992 41.8304 4.41992Z" fill="#2F3F64"/>
<path id="Vector_8" d="M78.1405 14.42H9.52051C9.25051 14.42 9.0005 14.31 8.8105 14.13C8.6205 13.94 8.52051 13.69 8.52051 13.42L8.55051 5.44995C8.56051 2.44995 10.8205 0 13.5805 0H110.91C112.17 0 113.371 0.510002 114.301 1.44C115.331 2.47 115.911 3.93996 115.901 5.45996L115.871 13.43C115.871 13.98 115.421 14.43 114.871 14.43C114.321 14.43 113.871 13.98 113.871 13.43L113.901 5.45996C113.901 4.45996 113.53 3.51999 112.88 2.85999C112.34 2.30999 111.63 2.00995 110.91 2.00995H13.5805C11.9205 2.00995 10.5605 3.55997 10.5505 5.46997L10.5205 12.44H78.1405C78.6905 12.44 79.1405 12.89 79.1405 13.44C79.1405 13.99 78.6905 14.44 78.1405 14.44V14.42Z" fill="#2F3F64"/>
<path id="Vector_9" fill-rule="evenodd" clip-rule="evenodd" d="M100.9 76.5098C114.13 76.5098 124.87 87.2498 124.87 100.48C124.87 113.71 114.13 124.45 100.9 124.45C87.6697 124.45 76.9297 113.71 76.9297 100.48C76.9297 87.2498 87.6697 76.5098 100.9 76.5098Z" fill="#FEC95C"/>
<path id="Vector_10" d="M103.86 111.2C103.86 112.84 102.58 114.08 100.9 114.08C99.2205 114.08 97.9404 112.84 97.9404 111.12C97.9404 109.4 99.1804 108.2 100.94 108.2C102.7 108.2 103.86 109.44 103.86 111.2ZM103.38 105.24H98.3804V86.8799H103.38V105.24Z" fill="#2F3F64"/>
<path id="Vector_11" d="M100.9 125.45C87.1297 125.45 75.9297 114.25 75.9297 100.48C75.9297 86.7098 87.1297 75.5098 100.9 75.5098C114.67 75.5098 125.87 86.7098 125.87 100.48C125.87 114.25 114.67 125.45 100.9 125.45ZM100.9 77.5098C88.2297 77.5098 77.9297 87.8198 77.9297 100.48C77.9297 113.14 88.2397 123.45 100.9 123.45C113.56 123.45 123.87 113.15 123.87 100.48C123.87 87.8098 113.56 77.5098 100.9 77.5098Z" fill="#2F3F64"/>
<g id="Group">
<path id="Vector_12" d="M23.0801 61.2401V56.4501L37.3101 36.0801H44.4001V55.9301H48.2301V61.2401H44.4001V67.4201H38.3101V61.2401H23.0801ZM38.7001 42.6101L29.7801 55.9301H38.7001V42.6101Z" fill="#BCC5DC"/>
<path id="Vector_13" d="M52.6497 39.3501C54.4597 36.5101 57.4697 35.0801 61.6797 35.0801C65.8897 35.0801 68.8997 36.5001 70.7097 39.3501C72.5197 42.1901 73.4297 46.1301 73.4297 51.1401C73.4297 56.1501 72.5197 60.1501 70.7097 63.0201C68.8997 65.8901 65.8897 67.3301 61.6797 67.3301C57.4697 67.3301 54.4597 65.8901 52.6497 63.0201C50.8397 60.1501 49.9297 56.1901 49.9297 51.1401C49.9297 46.0901 50.8397 42.1901 52.6497 39.3501ZM67.0197 45.7201C66.7397 44.2601 66.1897 43.0601 65.3697 42.1301C64.5397 41.2001 63.3197 40.7401 61.6897 40.7401C60.0597 40.7401 58.8397 41.2001 58.0097 42.1301C57.1797 43.0601 56.6297 44.2601 56.3597 45.7201C56.0797 47.1901 55.9497 48.9901 55.9497 51.1401C55.9497 53.2901 56.0797 55.2001 56.3397 56.6901C56.5997 58.1801 57.1497 59.3901 57.9897 60.3001C58.8297 61.2101 60.0597 61.6701 61.6897 61.6701C63.3197 61.6701 64.5497 61.2101 65.3897 60.3001C66.2297 59.3901 66.7797 58.1801 67.0397 56.6901C67.2997 55.2001 67.4297 53.3501 67.4297 51.1401C67.4297 48.9301 67.2897 47.1901 67.0197 45.7201Z" fill="#BCC5DC"/>
<path id="Vector_14" d="M75.6104 61.2401V56.4501L89.8404 36.0801H96.9304V55.9301H100.76V61.2401H96.9304V67.4201H90.8404V61.2401H75.6104ZM91.2404 42.6101L82.3203 55.9301H91.2404V42.6101Z" fill="#BCC5DC"/>
</g>
</g>
</svg>
