<svg width="129" height="123" viewBox="0 0 129 123" fill="none" xmlns="http://www.w3.org/2000/svg">
<g clip-path="url(#clip0_270_434)">
<path d="M32.18 121.6C49.4002 121.6 63.36 107.64 63.36 90.4202C63.36 73.2 49.4002 59.2402 32.18 59.2402C14.9598 59.2402 1 73.2 1 90.4202C1 107.64 14.9598 121.6 32.18 121.6Z" fill="white"/>
<path d="M32.18 122.6C14.44 122.6 0 108.17 0 90.4202C0 72.6702 14.44 58.2402 32.18 58.2402C49.92 58.2402 64.36 72.6802 64.36 90.4202C64.36 108.16 49.92 122.61 32.18 122.61V122.6ZM32.18 60.2302C15.54 60.2302 2 73.7702 2 90.4102C2 107.05 15.54 120.6 32.18 120.6C48.82 120.6 62.36 107.06 62.36 90.4102C62.36 73.7602 48.82 60.2302 32.18 60.2302Z" fill="#2F3F64"/>
<path d="M32.18 99.3505C39.299 99.3505 45.07 93.5123 45.07 86.3105C45.07 79.1087 39.299 73.2705 32.18 73.2705C25.0611 73.2705 19.29 79.1087 19.29 86.3105C19.29 93.5123 25.0611 99.3505 32.18 99.3505Z" fill="#BCC5DC"/>
<path d="M7.33984 109.261C12.4998 103.321 21.6998 99.3506 32.1798 99.3506C42.6598 99.3506 51.8598 103.311 57.0198 109.261C51.3198 116.761 42.3198 121.601 32.1798 121.601C22.0398 121.601 13.0298 116.761 7.33984 109.261Z" fill="#BCC5DC"/>
<path d="M32.18 100.351C24.52 100.351 18.29 94.0505 18.29 86.3105C18.29 78.5705 24.52 72.2705 32.18 72.2705C39.84 72.2705 46.07 78.5705 46.07 86.3105C46.07 94.0505 39.84 100.351 32.18 100.351ZM32.18 74.2705C25.62 74.2705 20.29 79.6705 20.29 86.3105C20.29 92.9505 25.62 98.3505 32.18 98.3505C38.74 98.3505 44.07 92.9505 44.07 86.3105C44.07 79.6705 38.74 74.2705 32.18 74.2705Z" fill="#2F3F64"/>
<path d="M32.1804 122.601C22.9204 122.601 14.1004 118.601 7.98039 111.631C7.98039 111.631 7.97039 111.611 7.96039 111.601L6.80039 110.191C6.35039 109.641 6.35039 108.851 6.80039 108.321C7.93039 106.991 9.96039 105.431 11.4704 104.361C12.4604 103.651 13.3104 103.121 14.1204 102.681C19.3604 99.8506 25.6004 98.3506 32.1704 98.3506C42.6204 98.3506 52.1904 102.181 57.7704 108.601C58.0804 108.961 58.1004 109.481 57.8104 109.861C51.6604 117.951 42.3204 122.601 32.1704 122.601H32.1804ZM9.50039 110.321C15.2404 116.851 23.5004 120.601 32.1804 120.601C41.4204 120.601 49.9504 116.491 55.7204 109.311C50.4504 103.691 41.7304 100.361 32.1804 100.361C25.9504 100.361 20.0404 101.771 15.0804 104.451C14.3404 104.851 13.5704 105.341 12.6404 106.001C10.8704 107.251 9.48039 108.401 8.64039 109.291L9.50039 110.341V110.321Z" fill="#2F3F64"/>
<path fill-rule="evenodd" clip-rule="evenodd" d="M124.92 81.6693V87.6993V63.6293L119.71 68.8393L114.2 63.3293L108.46 69.0793L103 63.6193L96.6897 69.2293L90.0396 62.7393L83.9896 69.7393L77.1396 62.8793V91.4193V113.939L84.0196 108.729L89.6497 114.239L95.3896 108.499L100.72 114.529L105.37 108.349L112.02 114.829L118.07 107.839" fill="white"/>
<path d="M112.02 115.83C111.76 115.83 111.51 115.73 111.32 115.55L105.48 109.86L101.51 115.14C101.33 115.38 101.05 115.53 100.75 115.54C100.46 115.56 100.16 115.43 99.9599 115.2L95.3399 109.96L90.3499 114.95C89.9599 115.34 89.3399 115.34 88.9399 114.95L83.9199 110.05L77.7299 114.74C77.4299 114.97 77.0199 115.01 76.6799 114.84C76.3399 114.67 76.1299 114.32 76.1299 113.94V62.8796C76.1299 62.4796 76.3699 62.1096 76.7499 61.9596C77.1199 61.7996 77.5499 61.8896 77.8399 62.1796L83.9299 68.2696L89.2699 62.0896C89.4499 61.8796 89.7099 61.7596 89.9799 61.7396C90.2499 61.7196 90.5199 61.8296 90.7199 62.0196L96.7099 67.8596L102.32 62.8696C102.71 62.5196 103.32 62.5396 103.69 62.9096L108.44 67.6596L113.48 62.6196C113.87 62.2296 114.5 62.2296 114.89 62.6196L119.69 67.4196L124.19 62.9196C124.48 62.6296 124.91 62.5496 125.28 62.6996C125.65 62.8496 125.9 63.2196 125.9 63.6196V87.6896C125.9 88.2396 125.45 88.6896 124.9 88.6896C124.35 88.6896 123.9 88.2396 123.9 87.6896V66.0296L120.4 69.5296C120.01 69.9196 119.38 69.9196 118.99 69.5296L114.19 64.7296L109.15 69.7696C108.76 70.1596 108.13 70.1596 107.74 69.7696L102.95 64.9796L97.3399 69.9596C96.9499 70.3096 96.3499 70.2996 95.9799 69.9296L90.0799 64.1796L84.7299 70.3696C84.5499 70.5796 84.2899 70.7096 84.0099 70.7196C83.7199 70.7196 83.4599 70.6196 83.2699 70.4296L78.1299 65.2896V111.92L83.3999 107.93C83.7899 107.63 84.3499 107.66 84.6999 108.01L89.6299 112.83L94.6699 107.79C94.8699 107.59 95.1199 107.48 95.4099 107.5C95.6899 107.5 95.9499 107.63 96.1299 107.84L100.64 112.96L104.55 107.75C104.72 107.52 104.99 107.38 105.27 107.35C105.56 107.33 105.84 107.43 106.05 107.63L111.95 113.37L117.3 107.18C117.66 106.76 118.29 106.72 118.71 107.08C119.13 107.44 119.17 108.07 118.81 108.49L112.77 115.49C112.59 115.7 112.33 115.82 112.06 115.84C112.05 115.84 112.03 115.84 112.02 115.84V115.83Z" fill="#2F3F64"/>
<path d="M118.26 80.9102H84.0195C83.4695 80.9102 83.0195 80.4602 83.0195 79.9102C83.0195 79.3602 83.4695 78.9102 84.0195 78.9102H118.26C118.81 78.9102 119.26 79.3602 119.26 79.9102C119.26 80.4602 118.81 80.9102 118.26 80.9102Z" fill="#2F3F64"/>
<path d="M118.26 87.3096H84.0195C83.4695 87.3096 83.0195 86.8596 83.0195 86.3096C83.0195 85.7596 83.4695 85.3096 84.0195 85.3096H118.26C118.81 85.3096 119.26 85.7596 119.26 86.3096C119.26 86.8596 118.81 87.3096 118.26 87.3096Z" fill="#2F3F64"/>
<path d="M101.75 93.7197H84.0098C83.4598 93.7197 83.0098 93.2697 83.0098 92.7197C83.0098 92.1697 83.4598 91.7197 84.0098 91.7197H101.75C102.3 91.7197 102.75 92.1697 102.75 92.7197C102.75 93.2697 102.3 93.7197 101.75 93.7197Z" fill="#2F3F64"/>
<path fill-rule="evenodd" clip-rule="evenodd" d="M96.4002 111.09L105.9 120.59C107.25 121.94 109.43 121.94 110.78 120.59L123.9 107.47C124.71 106.66 125.06 105.51 124.85 104.39L123.28 96.0398C123.06 94.8598 122.13 93.9398 120.95 93.7098L112.6 92.1398C111.48 91.9298 110.33 92.2798 109.52 93.0898L96.4002 106.21C95.0502 107.56 95.0502 109.74 96.4002 111.09Z" fill="#FEC95C"/>
<path d="M108.35 122.6C107.16 122.6 106.04 122.14 105.2 121.3L95.7004 111.8C94.8604 110.96 94.4004 109.84 94.4004 108.65C94.4004 107.46 94.8604 106.34 95.7004 105.5L108.82 92.3801C109.86 91.3401 111.34 90.8801 112.79 91.1501L121.14 92.7201C122.74 93.0201 123.96 94.2501 124.26 95.8401L125.84 104.19C126.11 105.64 125.65 107.12 124.61 108.16L111.49 121.28C110.65 122.12 109.53 122.58 108.34 122.58L108.35 122.6ZM111.96 93.0801C111.32 93.0801 110.69 93.3301 110.23 93.8001L97.1104 106.92C96.6504 107.38 96.3904 108 96.3904 108.65C96.3904 109.3 96.6404 109.92 97.1104 110.38L106.61 119.88C107.54 120.81 109.15 120.8 110.08 119.88L123.2 106.76C123.77 106.19 124.03 105.37 123.88 104.57L122.3 96.2201C122.15 95.4401 121.55 94.8401 120.77 94.6901L112.42 93.1201C112.27 93.0901 112.12 93.0801 111.97 93.0801H111.96Z" fill="#2F3F64"/>
<path d="M119.881 99.8075C120.211 98.6551 119.543 97.4541 118.391 97.125C117.238 96.7958 116.037 97.4632 115.708 98.6156C115.379 99.768 116.046 100.969 117.199 101.298C118.351 101.627 119.552 100.96 119.881 99.8075Z" fill="white"/>
<path d="M117.79 102.37C116.98 102.37 116.17 102.06 115.55 101.44C114.31 100.2 114.31 98.1896 115.55 96.9596C116.79 95.7296 118.8 95.7296 120.03 96.9596C121.27 98.1996 121.27 100.21 120.03 101.44C119.41 102.06 118.6 102.37 117.79 102.37ZM116.96 98.3796C116.5 98.8396 116.5 99.5796 116.96 100.04C117.42 100.5 118.16 100.5 118.61 100.04C119.06 99.5796 119.07 98.8396 118.61 98.3796C118.15 97.9196 117.41 97.9196 116.96 98.3796Z" fill="#2F3F64"/>
<path d="M54.1197 68.5098C53.8597 68.5098 53.6097 68.4098 53.4097 68.2198C53.0197 67.8298 53.0197 67.1998 53.4097 66.8098L65.2297 54.9898C65.6197 54.5998 66.2497 54.5998 66.6397 54.9898C67.0297 55.3798 67.0297 56.0098 66.6397 56.3998L54.8197 68.2198C54.6197 68.4198 54.3697 68.5098 54.1097 68.5098H54.1197Z" fill="#2F3F64"/>
<path d="M66.4798 67.0302C65.9298 67.0302 65.4798 66.5802 65.4798 66.0302V56.1602H55.5898C55.0398 56.1602 54.5898 55.7102 54.5898 55.1602C54.5898 54.6102 55.0398 54.1602 55.5898 54.1602H66.4798C67.0298 54.1602 67.4798 54.6102 67.4798 55.1602V66.0302C67.4798 66.5802 67.0298 67.0302 66.4798 67.0302Z" fill="#2F3F64"/>
<path d="M97.2695 25.92C97.7195 19.93 104.65 15.17 113.13 15.17C121.61 15.17 128.54 19.94 128.99 25.92C128.86 26.68 128.21 27.25 127.42 27.25H98.8395C98.0595 27.25 97.3995 26.68 97.2695 25.92ZM113.13 1C117 1 120.13 4.17 120.13 8.08C120.13 11.99 116.99 15.16 113.13 15.16C109.27 15.16 106.13 11.99 106.13 8.08C106.13 4.17 109.27 1 113.13 1ZM113.13 16.16C108.72 16.16 105.13 12.53 105.13 8.08C105.13 3.63 108.72 0 113.13 0C117.54 0 121.13 3.62 121.13 8.08C121.13 12.54 117.54 16.16 113.13 16.16ZM113.13 2C109.82 2 107.13 4.73 107.13 8.08C107.13 11.43 109.82 14.16 113.13 14.16C116.44 14.16 119.13 11.43 119.13 8.08C119.13 4.73 116.44 2 113.13 2Z" fill="#2F3F64"/>
<path d="M55 25.92C55.45 19.93 62.38 15.17 70.86 15.17C79.34 15.17 86.27 19.94 86.72 25.92C86.59 26.68 85.94 27.25 85.15 27.25H56.57C55.79 27.25 55.13 26.68 55 25.92ZM70.86 1C74.73 1 77.86 4.17 77.86 8.08C77.86 11.99 74.72 15.16 70.86 15.16C67 15.16 63.86 11.99 63.86 8.08C63.86 4.17 67 1 70.86 1ZM70.86 16.16C66.45 16.16 62.86 12.53 62.86 8.08C62.86 3.63 66.45 0 70.86 0C75.27 0 78.86 3.62 78.86 8.08C78.86 12.54 75.27 16.16 70.86 16.16ZM70.86 2C67.55 2 64.86 4.73 64.86 8.08C64.86 11.43 67.55 14.16 70.86 14.16C74.17 14.16 76.86 11.43 76.86 8.08C76.86 4.73 74.17 2 70.86 2Z" fill="#2F3F64"/>
<path d="M65.6201 44.6803C66.3601 34.7403 77.8701 26.8303 91.9401 26.8303C106.01 26.8303 117.51 34.7403 118.26 44.6803C118.05 45.9303 116.96 46.8903 115.66 46.8903H68.2201C66.9201 46.8903 65.8301 45.9403 65.6201 44.6803ZM91.9401 3.32031C98.3601 3.32031 103.56 8.58031 103.56 15.0703C103.56 21.5603 98.3601 26.8203 91.9401 26.8203C85.5201 26.8203 80.3201 21.5603 80.3201 15.0703C80.3201 8.58031 85.5201 3.32031 91.9401 3.32031Z" fill="#BCC5DC"/>
<path d="M115.66 47.8898H68.2201C66.4401 47.8898 64.9301 46.6098 64.6401 44.8498C64.6301 44.7698 64.6201 44.6898 64.6301 44.6098C65.4201 34.0798 77.4101 25.8398 91.9401 25.8398C98.2601 25.8398 104.42 27.4398 109.29 30.3398C109.76 30.6198 109.92 31.2398 109.64 31.7098C109.36 32.1798 108.74 32.3398 108.27 32.0598C103.7 29.3398 97.9101 27.8398 91.9401 27.8398C78.5101 27.8398 67.4301 35.1998 66.6301 44.6298C66.8101 45.3698 67.4601 45.8998 68.2201 45.8998H115.66C116.46 45.8998 117.14 45.3198 117.27 44.5298C117.36 43.9898 117.88 43.6298 118.42 43.7098C118.96 43.7998 119.33 44.3198 119.24 44.8598C118.94 46.6198 117.43 47.8998 115.66 47.8998V47.8898Z" fill="#2F3F64"/>
<path d="M91.9403 27.8301C84.9803 27.8301 79.3203 22.1101 79.3203 15.0801C79.3203 8.05008 84.9803 2.33008 91.9403 2.33008C98.9003 2.33008 104.56 8.05008 104.56 15.0801C104.56 22.1101 98.9003 27.8301 91.9403 27.8301ZM91.9403 4.33008C86.0803 4.33008 81.3203 9.15008 81.3203 15.0801C81.3203 21.0101 86.0803 25.8301 91.9403 25.8301C97.8003 25.8301 102.56 21.0101 102.56 15.0801C102.56 9.15008 97.8003 4.33008 91.9403 4.33008Z" fill="#2F3F64"/>
</g>
<defs>
<clipPath id="clip0_270_434">
<rect width="128.99" height="122.6" fill="white"/>
</clipPath>
</defs>
</svg>
