<svg width="128" height="114" viewBox="0 0 128 114" fill="none" xmlns="http://www.w3.org/2000/svg">
<g id="factory">
<g id="Group">
<path id="Vector" fill-rule="evenodd" clip-rule="evenodd" d="M82.1597 3.01953V44.6095C82.1597 46.1895 80.4197 47.1395 79.0897 46.2995L48.2397 26.7995C46.9097 25.9595 45.1697 26.9195 45.1697 28.4895V44.6095C45.1697 46.1895 43.4297 47.1395 42.0997 46.2995L11.2497 26.7995C9.91969 25.9595 8.17969 26.9195 8.17969 28.4895V112.08H119.24V3.01953C119.24 1.91953 118.34 1.01953 117.24 1.01953H84.1597C83.0597 1.01953 82.1597 1.91953 82.1597 3.01953Z" fill="#BCC5DC"/>
<path id="Vector_2" d="M119.24 113.08H8.17969C7.62969 113.08 7.17969 112.63 7.17969 112.08V28.49C7.17969 27.38 7.75968 26.4 8.72968 25.86C9.69968 25.32 10.8397 25.36 11.7797 25.95L42.6296 45.45C43.0796 45.74 43.4897 45.57 43.6497 45.48C43.8097 45.39 44.1697 45.14 44.1697 44.6V28.48C44.1697 27.37 44.7497 26.39 45.7197 25.85C46.6897 25.31 47.8297 25.35 48.7697 25.94L79.6197 45.44C80.0697 45.72 80.4796 45.56 80.6396 45.47C80.7997 45.38 81.1597 45.13 81.1597 44.59V3C81.1597 1.35 82.5097 0 84.1597 0H117.24C118.89 0 120.24 1.35 120.24 3V112.06C120.24 112.61 119.79 113.06 119.24 113.06V113.08ZM9.17969 111.08H118.24V3.02002C118.24 2.47002 117.79 2.02002 117.24 2.02002H84.1597C83.6097 2.02002 83.1597 2.47002 83.1597 3.02002V44.61C83.1597 45.72 82.5797 46.7 81.6097 47.24C80.6397 47.77 79.4997 47.74 78.5597 47.15L47.7097 27.65C47.2597 27.36 46.8497 27.53 46.6897 27.62C46.5297 27.71 46.1697 27.96 46.1697 28.5V44.62C46.1697 45.73 45.5897 46.71 44.6197 47.25C43.6497 47.79 42.5096 47.75 41.5696 47.16L10.7197 27.66C10.2697 27.37 9.85965 27.54 9.69965 27.63C9.53965 27.72 9.17969 27.97 9.17969 28.51V111.1V111.08Z" fill="#2F3F64"/>
</g>
<path id="Vector_3" d="M126.41 113.08H1C0.45 113.08 0 112.63 0 112.08C0 111.53 0.45 111.08 1 111.08H126.41C126.96 111.08 127.41 111.53 127.41 112.08C127.41 112.63 126.96 113.08 126.41 113.08Z" fill="#2F3F64"/>
<g id="Group_2">
<path id="Vector_4" fill-rule="evenodd" clip-rule="evenodd" d="M87.5096 87.4297H8.17969V112.08H119.24V87.4297" fill="white"/>
<path id="Vector_5" d="M119.24 113.08H8.17969C7.62969 113.08 7.17969 112.63 7.17969 112.08V87.4297C7.17969 86.8797 7.62969 86.4297 8.17969 86.4297H87.5096C88.0596 86.4297 88.5096 86.8797 88.5096 87.4297C88.5096 87.9797 88.0596 88.4297 87.5096 88.4297H9.17969V111.08H118.24V87.4297C118.24 86.8797 118.69 86.4297 119.24 86.4297C119.79 86.4297 120.24 86.8797 120.24 87.4297V112.08C120.24 112.63 119.79 113.08 119.24 113.08Z" fill="#2F3F64"/>
</g>
<g id="Group_3">
<path id="Vector_6" d="M49.1304 77.1699H25.4004C24.2958 77.1699 23.4004 78.0654 23.4004 79.1699V110.08C23.4004 111.184 24.2958 112.08 25.4004 112.08H49.1304C50.2349 112.08 51.1304 111.184 51.1304 110.08V79.1699C51.1304 78.0654 50.2349 77.1699 49.1304 77.1699Z" fill="#2F3F64"/>
<path id="Vector_7" d="M49.1304 113.08H25.4004C23.7504 113.08 22.4004 111.73 22.4004 110.08V79.1699C22.4004 77.5199 23.7504 76.1699 25.4004 76.1699H49.1304C50.7804 76.1699 52.1304 77.5199 52.1304 79.1699V110.08C52.1304 111.73 50.7804 113.08 49.1304 113.08ZM25.4004 78.1699C24.8504 78.1699 24.4004 78.6199 24.4004 79.1699V110.08C24.4004 110.63 24.8504 111.08 25.4004 111.08H49.1304C49.6804 111.08 50.1304 110.63 50.1304 110.08V79.1699C50.1304 78.6199 49.6804 78.1699 49.1304 78.1699H25.4004Z" fill="#2F3F64"/>
</g>
<g id="Group_4">
<path id="Vector_8" fill-rule="evenodd" clip-rule="evenodd" d="M119.06 46.4199C120.16 46.4199 121.06 47.3199 121.06 48.4199V54.4599C121.06 55.5599 120.16 56.4599 119.06 56.4599H7.28027C6.18027 56.4599 5.28027 55.5599 5.28027 54.4599V48.4199C5.28027 47.3199 6.18027 46.4199 7.28027 46.4199H95.8103" fill="#FEC95C"/>
<path id="Vector_9" d="M119.06 57.4599H7.28027C5.63027 57.4599 4.28027 56.1099 4.28027 54.4599V48.4199C4.28027 46.7699 5.63027 45.4199 7.28027 45.4199H95.8103C96.3603 45.4199 96.8103 45.8699 96.8103 46.4199C96.8103 46.9699 96.3603 47.4199 95.8103 47.4199H7.28027C6.73027 47.4199 6.28027 47.8699 6.28027 48.4199V54.4599C6.28027 55.0099 6.73027 55.4599 7.28027 55.4599H119.06C119.61 55.4599 120.06 55.0099 120.06 54.4599V48.4199C120.06 47.8699 119.61 47.4199 119.06 47.4199C118.51 47.4199 118.06 46.9699 118.06 46.4199C118.06 45.8699 118.51 45.4199 119.06 45.4199C120.71 45.4199 122.06 46.7699 122.06 48.4199V54.4599C122.06 56.1099 120.71 57.4599 119.06 57.4599Z" fill="#2F3F64"/>
</g>
</g>
</svg>
