<svg width="127" height="101" viewBox="0 0 127 101" fill="none" xmlns="http://www.w3.org/2000/svg">
<g id="Capa_1" clip-path="url(#clip0_516_2)">
<g id="Group">
<path id="Vector" fill-rule="evenodd" clip-rule="evenodd" d="M73.8701 14.4502H123.03C124.33 14.4502 125.39 15.5102 125.39 16.8102V83.9702C125.39 85.2702 124.33 86.3302 123.03 86.3302H102.95V97.6602C102.95 99.4502 100.78 100.35 99.5201 99.0802L86.7701 86.3302H47.9401C46.6401 86.3302 45.5801 85.2702 45.5801 83.9702V16.8102C45.5801 15.5102 46.6401 14.4502 47.9401 14.4502" fill="#2F3F64"/>
<path id="Vector_2" d="M100.92 100.68C100.14 100.68 99.3903 100.37 98.8103 99.7902L86.3503 87.3302H47.9303C46.0803 87.3302 44.5703 85.8202 44.5703 83.9702V16.8102C44.5703 14.9602 46.0803 13.4502 47.9303 13.4502C48.4803 13.4502 48.9303 13.9002 48.9303 14.4502C48.9303 15.0002 48.4803 15.4502 47.9303 15.4502C47.1803 15.4502 46.5703 16.0602 46.5703 16.8102V83.9702C46.5703 84.7202 47.1803 85.3302 47.9303 85.3302H86.7603C87.0303 85.3302 87.2803 85.4402 87.4703 85.6202L100.22 98.3702C100.66 98.8102 101.18 98.6502 101.32 98.5902C101.47 98.5302 101.94 98.2802 101.94 97.6602V86.3302C101.94 85.7802 102.39 85.3302 102.94 85.3302H123.02C123.77 85.3302 124.38 84.7202 124.38 83.9702V16.8102C124.38 16.0602 123.77 15.4502 123.02 15.4502H73.8603C73.3103 15.4502 72.8603 15.0002 72.8603 14.4502C72.8603 13.9002 73.3103 13.4502 73.8603 13.4502H123.02C124.87 13.4502 126.38 14.9602 126.38 16.8102V83.9702C126.38 85.8202 124.87 87.3302 123.02 87.3302H103.94V97.6602C103.94 98.9002 103.23 99.9702 102.08 100.44C101.7 100.6 101.3 100.68 100.91 100.68H100.92Z" fill="#2F3F64"/>
</g>
<g id="Group_2">
<path id="Vector_3" fill-rule="evenodd" clip-rule="evenodd" d="M71.22 1H3.36C2.06 1 1 2.06 1 3.36V70.52C1 71.82 2.06 72.88 3.36 72.88H23.44V84.21C23.44 86 25.61 86.9 26.87 85.63L39.62 72.88H97.15C98.45 72.88 99.51 71.82 99.51 70.52V3.36C99.51 2.06 98.45 1 97.15 1" fill="white"/>
<path id="Vector_4" d="M25.47 87.23C25.08 87.23 24.68 87.15 24.3 86.99C23.15 86.52 22.44 85.45 22.44 84.21V73.88H3.36C1.51 73.88 0 72.37 0 70.52V3.36C0 1.51 1.51 0 3.36 0H71.22C71.77 0 72.22 0.45 72.22 1C72.22 1.55 71.77 2 71.22 2H3.36C2.61 2 2 2.61 2 3.36V70.52C2 71.27 2.61 71.88 3.36 71.88H23.44C23.99 71.88 24.44 72.33 24.44 72.88V84.21C24.44 84.84 24.92 85.08 25.06 85.14C25.21 85.2 25.72 85.36 26.16 84.92L38.91 72.17C39.1 71.98 39.35 71.88 39.62 71.88H97.15C97.9 71.88 98.51 71.27 98.51 70.52V3.36C98.51 2.61 97.9 2 97.15 2C96.6 2 96.15 1.55 96.15 1C96.15 0.45 96.6 0 97.15 0C99 0 100.51 1.51 100.51 3.36V70.52C100.51 72.37 99 73.88 97.15 73.88H40.03L27.57 86.34C26.99 86.92 26.24 87.23 25.46 87.23H25.47Z" fill="#2F3F64"/>
</g>
<path id="Vector_5" d="M55.06 41.3397C54.86 41.9697 54.73 42.8697 54.67 44.0397C54.64 44.6897 54.11 45.1997 53.46 45.1997H47.07C46.38 45.1997 45.83 44.6097 45.86 43.9197C46.02 40.9197 46.35 38.7997 46.85 37.5597C47.42 36.1497 48.88 34.5397 51.23 32.6997L53.62 30.8397C54.4 30.2497 55.04 29.6097 55.52 28.9097C56.39 27.7097 56.83 26.3897 56.83 24.9497C56.83 23.2897 56.34 21.7797 55.37 20.4197C54.4 19.0597 52.63 18.3797 50.06 18.3797C47.49 18.3797 45.74 19.2197 44.68 20.8997C43.84 22.2397 43.33 23.6197 43.16 25.0397C43.09 25.6597 42.58 26.1297 41.96 26.1297H34.94C34.23 26.1297 33.67 25.5197 33.73 24.8097C34.23 19.2897 36.37 15.3297 40.15 12.9197C42.72 11.2597 45.88 10.4297 49.63 10.4297C54.56 10.4297 58.65 11.6097 61.91 13.9597C65.17 16.3097 66.8 19.7997 66.8 24.4297C66.8 27.2597 66.09 29.6497 64.67 31.5897C63.84 32.7697 62.25 34.2697 59.9 36.0997L57.58 37.8997C56.32 38.8797 55.48 40.0297 55.06 41.3297V41.3397ZM54.11 59.1297H46.78C46.11 59.1297 45.57 58.5897 45.57 57.9197V50.8897C45.57 50.2197 46.11 49.6797 46.78 49.6797H54.11C54.78 49.6797 55.32 50.2197 55.32 50.8897V57.9197C55.32 58.5897 54.78 59.1297 54.11 59.1297Z" fill="#2F3F64"/>
</g>
<defs>
<clipPath id="clip0_516_2">
<rect width="126.39" height="100.68" fill="white"/>
</clipPath>
</defs>
</svg>
