<svg width="100" height="117" viewBox="0 0 100 117" fill="none" xmlns="http://www.w3.org/2000/svg">
<path fill-rule="evenodd" clip-rule="evenodd" d="M69.7396 1.73047H12.0596C9.84957 1.73047 8.05957 3.52047 8.05957 5.73047V109.47H95.5196C97.1796 109.47 98.5196 108.13 98.5196 106.47V1.73047" fill="white"/>
<path d="M95.5196 110.47H8.05957C7.50957 110.47 7.05957 110.02 7.05957 109.47V5.73047C7.05957 2.97047 9.29957 0.730469 12.0596 0.730469H69.7496C70.2996 0.730469 70.7496 1.18047 70.7496 1.73047C70.7496 2.28047 70.2996 2.73047 69.7496 2.73047H12.0596C10.4096 2.73047 9.05957 4.08047 9.05957 5.73047V108.47H95.5196C96.6196 108.47 97.5196 107.57 97.5196 106.47V1.73047C97.5196 1.18047 97.9696 0.730469 98.5196 0.730469C99.0696 0.730469 99.5196 1.18047 99.5196 1.73047V106.47C99.5196 108.68 97.7296 110.47 95.5196 110.47Z" fill="#2F3F64"/>
<path fill-rule="evenodd" clip-rule="evenodd" d="M90.32 109.62V112.17C90.3 114.48 88.33 116.35 85.89 116.35H4.53C2.03 116.35 0 114.42 0 112.05V15.5305C0 13.1605 2.03 11.2305 4.53 11.2305H7.88V105.32C7.88 107.69 9.91 109.62 12.41 109.62H90.31H90.32Z" fill="#2F3F64"/>
<path d="M88.3498 35.7695H18.2098C17.1771 35.7695 16.3398 36.6068 16.3398 37.6395V40.7295C16.3398 41.7623 17.1771 42.5995 18.2098 42.5995H88.3498C89.3826 42.5995 90.2198 41.7623 90.2198 40.7295V37.6395C90.2198 36.6068 89.3826 35.7695 88.3498 35.7695Z" fill="#BCC5DC"/>
<path d="M88.3498 47.5596H18.2098C17.1771 47.5596 16.3398 48.3968 16.3398 49.4296V52.5196C16.3398 53.5523 17.1771 54.3896 18.2098 54.3896H88.3498C89.3826 54.3896 90.2198 53.5523 90.2198 52.5196V49.4296C90.2198 48.3968 89.3826 47.5596 88.3498 47.5596Z" fill="#BCC5DC"/>
<path d="M88.3498 59.3496H18.2098C17.1771 59.3496 16.3398 60.1868 16.3398 61.2196V64.3096C16.3398 65.3424 17.1771 66.1796 18.2098 66.1796H88.3498C89.3826 66.1796 90.2198 65.3424 90.2198 64.3096V61.2196C90.2198 60.1868 89.3826 59.3496 88.3498 59.3496Z" fill="#BCC5DC"/>
<path d="M88.3498 71.1396H18.2098C17.1771 71.1396 16.3398 71.9769 16.3398 73.0097V76.0996C16.3398 77.1324 17.1771 77.9697 18.2098 77.9697H88.3498C89.3826 77.9697 90.2198 77.1324 90.2198 76.0996V73.0097C90.2198 71.9769 89.3826 71.1396 88.3498 71.1396Z" fill="#BCC5DC"/>
<path d="M60.9202 21.7598H19.0702C18.0374 21.7598 17.2002 22.597 17.2002 23.6298V26.7198C17.2002 27.7525 18.0374 28.5898 19.0702 28.5898H60.9202C61.953 28.5898 62.7902 27.7525 62.7902 26.7198V23.6298C62.7902 22.597 61.953 21.7598 60.9202 21.7598Z" fill="#2F3F64"/>
<path d="M60.9202 29.59H19.0702C17.4902 29.59 16.2002 28.3 16.2002 26.72V23.62C16.2002 22.04 17.4902 20.75 19.0702 20.75H60.9202C62.5002 20.75 63.7902 22.04 63.7902 23.62V26.72C63.7902 28.3 62.5002 29.59 60.9202 29.59ZM19.0702 22.76C18.5902 22.76 18.2002 23.15 18.2002 23.63V26.73C18.2002 27.21 18.5902 27.6 19.0702 27.6H60.9202C61.4002 27.6 61.7902 27.21 61.7902 26.73V23.63C61.7902 23.15 61.4002 22.76 60.9202 22.76H19.0702Z" fill="#2F3F64"/>
<path d="M76.4402 86.1299H30.9802C29.2846 86.1299 27.9102 87.5044 27.9102 89.1999V98.3399C27.9102 100.035 29.2846 101.41 30.9802 101.41H76.4402C78.1357 101.41 79.5102 100.035 79.5102 98.3399V89.1999C79.5102 87.5044 78.1357 86.1299 76.4402 86.1299Z" fill="#FEC95C"/>
<path d="M76.4402 102.42H30.9802C28.7302 102.42 26.9102 100.59 26.9102 98.3496V89.2096C26.9102 86.9596 28.7402 85.1396 30.9802 85.1396H76.4302C78.6802 85.1396 80.5002 86.9696 80.5002 89.2096V98.3496C80.5002 100.6 78.6702 102.42 76.4302 102.42H76.4402ZM30.9802 87.1296C29.8402 87.1296 28.9102 88.0596 28.9102 89.1996V98.3396C28.9102 99.4796 29.8402 100.41 30.9802 100.41H76.4302C77.5702 100.41 78.5002 99.4796 78.5002 98.3396V89.1996C78.5002 88.0596 77.5702 87.1296 76.4302 87.1296H30.9802Z" fill="#2F3F64"/>
<path d="M53.71 98.8504C53.16 98.8504 52.71 98.4004 52.71 97.8504V89.6904C52.71 89.1404 53.16 88.6904 53.71 88.6904C54.26 88.6904 54.71 89.1404 54.71 89.6904V97.8504C54.71 98.4004 54.26 98.8504 53.71 98.8504Z" fill="#2F3F64"/>
<path d="M57.7899 94.7705H49.6299C49.0799 94.7705 48.6299 94.3205 48.6299 93.7705C48.6299 93.2205 49.0799 92.7705 49.6299 92.7705H57.7899C58.3399 92.7705 58.7899 93.2205 58.7899 93.7705C58.7899 94.3205 58.3399 94.7705 57.7899 94.7705Z" fill="#2F3F64"/>
</svg>
