<svg width="100" height="116" viewBox="0 0 100 116" fill="none" xmlns="http://www.w3.org/2000/svg">
<g id="file-sheet">
<g id="Group">
<path id="Vector" fill-rule="evenodd" clip-rule="evenodd" d="M77.3203 1.01367V22.5937H98.5203L77.3203 1.01367Z" fill="#2F3F64"/>
<path id="Vector_2" d="M98.5205 23.5941H77.3105C76.7605 23.5941 76.3105 23.1441 76.3105 22.5941V1.00406C76.3105 0.594063 76.5605 0.23407 76.9305 0.0740701C77.3105 -0.0759299 77.7405 0.00410184 78.0205 0.294102L99.2305 21.8841C99.5105 22.1741 99.6006 22.6041 99.4406 22.9741C99.2806 23.3441 98.9205 23.5841 98.5205 23.5841V23.5941ZM78.3206 21.5941H96.1405L78.3206 3.45408V21.5941Z" fill="#2F3F64"/>
</g>
<g id="Group_2">
<path id="Vector_3" fill-rule="evenodd" clip-rule="evenodd" d="M8.07031 1.01367V108.754H95.5303C97.1903 108.754 98.5303 107.414 98.5303 105.754V22.6037H77.3203V1.01367H38.6202" fill="white"/>
<path id="Vector_4" d="M95.5205 109.754H8.06055C7.51055 109.754 7.06055 109.304 7.06055 108.754V1.01367C7.06055 0.463672 7.51055 0.0136719 8.06055 0.0136719C8.61055 0.0136719 9.06055 0.463672 9.06055 1.01367V107.754H95.5205C96.6205 107.754 97.5205 106.854 97.5205 105.754V23.6037H77.3105C76.7605 23.6037 76.3105 23.1537 76.3105 22.6037V2.01367H38.6105C38.0605 2.01367 37.6105 1.56367 37.6105 1.01367C37.6105 0.463672 38.0605 0.0136719 38.6105 0.0136719H77.3105C77.8605 0.0136719 78.3105 0.463672 78.3105 1.01367V21.6037H98.5205C99.0705 21.6037 99.5205 22.0537 99.5205 22.6037V105.754C99.5205 107.964 97.7305 109.754 95.5205 109.754Z" fill="#2F3F64"/>
</g>
<g id="Group_3">
<g id="Group_4">
<path id="Vector_5" d="M22.9297 42.2539H85.6497C86.7497 42.2539 87.6497 43.1539 87.6497 44.2539V54.7539H20.9297V44.2539C20.9297 43.1539 21.8297 42.2539 22.9297 42.2539Z" fill="#BCC5DC"/>
<path id="Vector_6" d="M87.6497 55.7539H20.9297C20.3797 55.7539 19.9297 55.3039 19.9297 54.7539V44.2539C19.9297 42.6039 21.2797 41.2539 22.9297 41.2539H85.6497C87.2997 41.2539 88.6497 42.6039 88.6497 44.2539V54.7539C88.6497 55.3039 88.1997 55.7539 87.6497 55.7539ZM21.9297 53.7539H86.6497V44.2539C86.6497 43.7039 86.1997 43.2539 85.6497 43.2539H22.9297C22.3797 43.2539 21.9297 43.7039 21.9297 44.2539V53.7539Z" fill="#2F3F64"/>
</g>
<g id="Group_5">
<path id="Vector_7" d="M87.6497 54.584H20.9297V67.084H87.6497V54.584Z" fill="#BCC5DC"/>
<path id="Vector_8" d="M87.6497 68.084H20.9297C20.3797 68.084 19.9297 67.634 19.9297 67.084V54.584C19.9297 54.034 20.3797 53.584 20.9297 53.584H87.6497C88.1997 53.584 88.6497 54.034 88.6497 54.584V67.084C88.6497 67.634 88.1997 68.084 87.6497 68.084ZM21.9297 66.084H86.6497V55.584H21.9297V66.084Z" fill="#2F3F64"/>
</g>
<g id="Group_6">
<path id="Vector_9" d="M20.9297 66.9141H87.6497V77.4141C87.6497 78.5141 86.7497 79.4141 85.6497 79.4141H22.9297C21.8297 79.4141 20.9297 78.5141 20.9297 77.4141V66.9141Z" fill="#BCC5DC"/>
<path id="Vector_10" d="M85.6497 80.4141H22.9297C21.2797 80.4141 19.9297 79.0641 19.9297 77.4141V66.9141C19.9297 66.3641 20.3797 65.9141 20.9297 65.9141H87.6497C88.1997 65.9141 88.6497 66.3641 88.6497 66.9141V77.4141C88.6497 79.0641 87.2997 80.4141 85.6497 80.4141ZM21.9297 67.9141V77.4141C21.9297 77.9641 22.3797 78.4141 22.9297 78.4141H85.6497C86.1997 78.4141 86.6497 77.9641 86.6497 77.4141V67.9141H21.9297Z" fill="#2F3F64"/>
</g>
<path id="Vector_11" d="M54.29 80.4139C53.74 80.4139 53.29 79.9639 53.29 79.4139V42.2539C53.29 41.7039 53.74 41.2539 54.29 41.2539C54.84 41.2539 55.29 41.7039 55.29 42.2539V79.4139C55.29 79.9639 54.84 80.4139 54.29 80.4139Z" fill="#2F3F64"/>
</g>
<path id="Vector_12" fill-rule="evenodd" clip-rule="evenodd" d="M90.3201 108.904V111.454C90.3001 113.764 88.33 115.634 85.89 115.634H4.53003C2.03003 115.634 0 113.704 0 111.334V14.8137C0 12.4437 2.03003 10.5137 4.53003 10.5137H7.88V104.604C7.88 106.974 9.91003 108.904 12.41 108.904H90.3101H90.3201Z" fill="#2F3F64"/>
</g>
</svg>
