<svg width="128" height="128" viewBox="0 0 128 128" fill="none" xmlns="http://www.w3.org/2000/svg">
<g id="firewall">
<path id="Vector" fill-rule="evenodd" clip-rule="evenodd" d="M103.42 19.4698C105.94 20.4498 107.59 22.7498 107.59 25.2898C107.59 63.0098 88.2998 96.2198 59.1498 115.42C56.2298 117.31 52.3598 117.31 49.4498 115.42C20.2898 96.2198 1.00977 63.0098 1.00977 25.2898C1.00977 24.9698 1.00977 24.6398 1.00977 24.3198C1.02977 22.3498 2.29988 20.5798 4.24988 19.8198C13.6999 16.1398 41.6299 5.2698 51.1099 1.5798C53.1499 0.789805 55.4499 0.789805 57.4899 1.5798C63.7899 4.0298 78.2498 9.65978 90.0098 14.2398C95.3998 16.3398 100.22 18.2098 103.43 19.4598L103.42 19.4698Z" fill="#BCC5DC"/>
<path id="Vector_2" d="M54.2899 117.83C52.3999 117.83 50.5099 117.31 48.8999 116.27C18.2799 96.1 0 62.1 0 25.3C0 24.97 0 24.65 0 24.32C0.02 21.94 1.54 19.81 3.88 18.9L50.74 0.66C53 -0.22 55.59 -0.22 57.84 0.66L81.6899 9.94998C82.1999 10.15 82.4599 10.73 82.2599 11.24C82.0599 11.75 81.48 12.01 80.97 11.81L57.12 2.51999C55.32 1.81999 53.26 1.81999 51.47 2.51999L4.60999 20.76C3.03999 21.37 2.02 22.78 2 24.34C2 24.66 2 24.98 2 25.3C2 61.43 19.94 94.8099 49.99 114.6C52.56 116.26 56.02 116.26 58.6 114.6C88.65 94.8099 106.59 61.43 106.59 25.31C106.59 25.04 106.7 24.7899 106.88 24.5999C107.27 24.2099 107.9 24.2099 108.3 24.5999C108.51 24.8099 108.61 25.09 108.59 25.36C108.57 62.1399 90.2999 96.12 59.7 116.27C58.08 117.32 56.1899 117.84 54.2999 117.84L54.2899 117.83Z" fill="#2F3F64"/>
<g id="Group">
<path id="Vector_3" d="M91.4797 28.71C93.3897 29.45 94.6298 31.1899 94.6298 33.1199C94.6298 60.9999 80.7098 85.6299 59.4998 100.31C56.3898 102.42 52.1697 102.42 49.0597 100.31C27.8497 85.6299 13.9297 60.9999 13.9297 33.1199C13.9297 32.8199 13.9297 32.52 13.9297 32.22C13.9397 30.83 14.8497 29.5799 16.2297 29.0399C22.9497 26.4199 42.9797 18.63 50.9497 15.52C53.0797 14.69 55.4797 14.69 57.5997 15.52C65.2597 18.5 84.0397 25.82 91.4697 28.71H91.4797Z" fill="#2F3F64"/>
<path id="Vector_4" d="M54.2794 102.9C52.2494 102.9 50.2295 102.31 48.4995 101.14C26.2295 85.7197 12.9395 60.2997 12.9395 33.1197V32.2097C12.9595 30.3997 14.1095 28.7897 15.8795 28.1097L50.5995 14.5897C52.9395 13.6797 55.6395 13.6797 57.9795 14.5897L91.8495 27.7797C94.1495 28.6697 95.6394 30.7697 95.6394 33.1197C95.6394 33.1397 95.6394 33.1597 95.6394 33.1797C95.6194 60.3297 82.3295 85.7297 60.0795 101.13C58.3495 102.31 56.3094 102.9 54.2894 102.9H54.2794ZM54.2894 15.9097C53.2794 15.9097 52.2695 16.0897 51.3295 16.4597L16.6095 29.9797C15.6095 30.3697 14.9595 31.2497 14.9495 32.2297V33.1197C14.9495 59.6397 27.9194 84.4497 49.6394 99.4897C52.4194 101.38 56.1695 101.38 58.9495 99.4897C80.6695 84.4597 93.6394 59.6497 93.6394 33.1297C93.6394 33.1097 93.6394 33.0897 93.6394 33.0697C93.6194 31.5697 92.6295 30.2397 91.1195 29.6497L57.2495 16.4597C56.3095 16.0897 55.2894 15.9097 54.2794 15.9097H54.2894Z" fill="#2F3F64"/>
</g>
<g id="Group_2">
<path id="Vector_5" d="M86.8198 32.44C88.4898 33.09 89.5798 34.61 89.5798 36.29C89.5798 60.68 77.4099 82.22 58.8599 95.05C56.1399 96.9 52.4499 96.9 49.7299 95.05C31.1799 82.21 19.0098 60.67 19.0098 36.29C19.0098 36.03 19.0098 35.76 19.0098 35.5C19.0198 34.29 19.8098 33.19 21.0198 32.72C26.8998 30.43 44.4098 23.61 51.3898 20.9C53.2498 20.17 55.3498 20.17 57.2098 20.9C63.9098 23.51 80.3398 29.9 86.8298 32.43L86.8198 32.44Z" fill="white"/>
<path id="Vector_6" d="M54.2799 97.4496C52.4799 97.4496 50.6899 96.9296 49.1599 95.8896C29.6499 82.3796 18 60.1096 18 36.2996V35.5096C18.02 33.8796 19.0599 32.4296 20.6499 31.7996L51.0199 19.9796C53.0999 19.1696 55.4799 19.1696 57.5599 19.9796L87.1799 31.5096C89.2399 32.3096 90.58 34.1896 90.58 36.2996C90.58 36.3096 90.58 36.3296 90.58 36.3396C90.57 60.1296 78.9199 82.3896 59.4299 95.8796C57.8899 96.9196 56.0899 97.4496 54.2899 97.4496H54.2799ZM54.2899 21.3696C53.4199 21.3696 52.55 21.5296 51.74 21.8396L21.37 33.6596C20.55 33.9796 20.01 34.7096 20 35.5196V36.2996C20 59.4496 31.3199 81.1096 50.2899 94.2396C52.6799 95.8596 55.8999 95.8596 58.2899 94.2396C77.2499 81.1196 88.5699 59.4596 88.5699 36.3096C88.5699 36.2996 88.5699 36.2796 88.5699 36.2696C88.5499 35.0096 87.7299 33.8796 86.45 33.3896L56.83 21.8596C56.02 21.5496 55.1499 21.3896 54.2799 21.3896L54.2899 21.3696Z" fill="#2F3F64"/>
</g>
<g id="Group_3">
<path id="Vector_7" d="M102.03 126.4C115.461 126.4 126.35 115.511 126.35 102.08C126.35 88.6482 115.461 77.7598 102.03 77.7598C88.5983 77.7598 77.71 88.6482 77.71 102.08C77.71 115.511 88.5983 126.4 102.03 126.4Z" fill="#FEC95C"/>
<path id="Vector_8" d="M102.03 127.4C88.0699 127.4 76.71 116.04 76.71 102.08C76.71 88.1198 88.0699 76.7598 102.03 76.7598C115.99 76.7598 127.35 88.1198 127.35 102.08C127.35 116.04 115.99 127.4 102.03 127.4ZM102.03 78.7698C89.1699 78.7698 78.71 89.2298 78.71 102.09C78.71 114.95 89.1699 125.41 102.03 125.41C114.89 125.41 125.35 114.95 125.35 102.09C125.35 89.2298 114.89 78.7698 102.03 78.7698Z" fill="#2F3F64"/>
</g>
<path id="Vector_9" d="M97.2303 111.51C97.0003 111.51 96.7703 111.43 96.5803 111.27L87.8603 103.84C87.4403 103.48 87.3903 102.85 87.7503 102.43C88.1103 102.01 88.7403 101.96 89.1603 102.32L97.1803 109.15L114.84 91.4898C115.23 91.0998 115.86 91.0998 116.25 91.4898C116.64 91.8798 116.64 92.5098 116.25 92.8998L97.9303 111.21C97.7403 111.4 97.4803 111.5 97.2203 111.5L97.2303 111.51Z" fill="#2F3F64"/>
</g>
</svg>
