<svg width="113" height="114" viewBox="0 0 113 114" fill="none" xmlns="http://www.w3.org/2000/svg">
<path d="M80.2401 1H6.83002C3.6102 1 1 3.61018 1 6.83V80.24C1 83.4598 3.6102 86.07 6.83002 86.07H80.2401C83.4599 86.07 86.07 83.4598 86.07 80.24V6.83C86.07 3.61018 83.4599 1 80.2401 1Z" fill="white"/>
<path fill-rule="evenodd" clip-rule="evenodd" d="M26.5298 55.1598C26.5098 55.0798 26.4998 54.9998 26.5098 54.9098L26.6698 33.2098C26.6698 32.5398 27.2098 32.0098 27.8598 32.0098L59.3598 32.2498C60.0098 32.2498 60.5398 32.7998 60.5398 33.4698L60.3798 55.1698C60.3798 55.2598 60.3698 55.3398 60.3498 55.4198C60.3598 55.7398 60.3698 56.0498 60.3698 56.3698C60.2998 65.8798 52.6498 73.5398 43.3098 73.4698C33.9598 73.3998 26.4398 65.6198 26.5098 56.1198C26.5098 55.7998 26.5198 55.4798 26.5398 55.1598H26.5298Z" fill="#BCC5DC"/>
<path d="M43.4294 74.47H43.2994C33.4094 74.39 25.4294 66.16 25.5094 56.11C25.5094 55.81 25.5194 55.51 25.5394 55.21C25.5294 55.1 25.5194 55 25.5194 54.89L25.6894 33.19C25.6894 32.61 25.9194 32.06 26.3394 31.64C26.7494 31.23 27.2994 31 27.8794 31H27.8994L59.3994 31.24C60.6094 31.25 61.5794 32.25 61.5694 33.46L61.4094 55.16C61.4094 55.26 61.4094 55.37 61.3894 55.47C61.3994 55.77 61.4094 56.07 61.3994 56.37C61.3194 66.37 53.2894 74.46 43.4594 74.46L43.4294 74.47ZM27.8594 33.01C27.7694 33.01 27.6794 33.12 27.6694 33.21L27.4994 54.91C27.5194 55 27.5294 55.13 27.5194 55.21C27.4994 55.51 27.4894 55.81 27.4894 56.11C27.4194 65.05 34.5194 72.39 43.2994 72.45H43.4194C52.1494 72.45 59.2894 65.25 59.3594 56.35C59.3594 56.05 59.3594 55.75 59.3394 55.45C59.3394 55.36 59.3394 55.28 59.3594 55.19L59.5294 33.44C59.5294 33.33 59.4494 33.23 59.3494 33.23L27.8494 32.99L27.8594 33.01Z" fill="#2F3F64"/>
<path d="M31.4938 29.3452L31.5545 21.2654C31.5656 19.7755 32.7846 18.5846 34.2646 18.5957L53.164 18.7375C54.654 18.7487 55.8449 19.9677 55.8338 21.4477L55.7731 29.5274C55.762 31.0174 54.543 32.2083 53.063 32.1972L34.1636 32.0553C32.6736 32.0442 31.4827 30.8252 31.4938 29.3452Z" fill="#BCC5DC"/>
<path d="M53.0893 33.1996H53.0592L34.1593 33.0596C32.1193 33.0396 30.4793 31.3796 30.4893 29.3396L30.5493 21.2596C30.5493 20.2696 30.9493 19.3496 31.6493 18.6596C32.3493 17.9696 33.2593 17.5996 34.2393 17.5996H34.2693L53.1693 17.7396C54.1593 17.7396 55.0793 18.1396 55.7693 18.8396C56.4593 19.5396 56.8393 20.4696 56.8293 21.4596L56.7693 29.5396C56.7693 30.5296 56.3693 31.4496 55.6693 32.1396C54.9693 32.8296 54.0593 33.1996 53.0793 33.1996H53.0893ZM34.2493 19.5996C33.7993 19.5996 33.3792 19.7696 33.0592 20.0896C32.7392 20.4096 32.5592 20.8296 32.5592 21.2796L32.4993 29.3596C32.4993 30.2896 33.2493 31.0596 34.1793 31.0696L53.0793 31.2096H53.0893C53.5393 31.2096 53.9593 31.0396 54.2793 30.7196C54.5993 30.3996 54.7793 29.9796 54.7893 29.5296L54.8493 21.4496C54.8493 20.5196 54.0993 19.7496 53.1693 19.7396L34.2693 19.5996H34.2593H34.2493Z" fill="#2F3F64"/>
<path d="M40.3301 19.6405C40.0701 19.6405 39.8101 19.5405 39.6101 19.3405L34.5601 14.1205C34.1801 13.7205 34.1901 13.0905 34.5801 12.7105C34.9801 12.3305 35.6102 12.3405 35.9902 12.7305L41.0401 17.9505C41.4201 18.3505 41.4101 18.9805 41.0201 19.3605C40.8301 19.5505 40.5801 19.6405 40.3201 19.6405H40.3301Z" fill="#2F3F64"/>
<path d="M47.1294 19.6911C46.8694 19.6911 46.6195 19.5911 46.4195 19.4011C46.0295 19.0111 46.0295 18.3811 46.4195 17.9911L51.5495 12.8511C51.9395 12.4611 52.5794 12.4611 52.9594 12.8511C53.3494 13.2411 53.3494 13.8711 52.9594 14.2611L47.8294 19.4011C47.6294 19.6011 47.3795 19.6911 47.1195 19.6911H47.1294Z" fill="#2F3F64"/>
<path d="M26.5496 50.2304L16.3896 50.1504C15.8396 50.1504 15.3896 49.6904 15.3996 49.1404C15.3996 48.5904 15.8496 48.1504 16.3996 48.1504L26.5596 48.2304C27.1096 48.2304 27.5596 48.6904 27.5496 49.2404C27.5496 49.7904 27.0996 50.2304 26.5496 50.2304Z" fill="#2F3F64"/>
<path d="M70.5798 50.5605L60.4198 50.4805C59.8698 50.4805 59.4199 50.0205 59.4299 49.4705C59.4299 48.9205 59.8799 48.4805 60.4299 48.4805L70.5898 48.5605C71.1398 48.5605 71.5898 49.0205 71.5798 49.5705C71.5798 50.1205 71.1298 50.5605 70.5798 50.5605Z" fill="#2F3F64"/>
<path d="M26.5997 43.3397C20.4497 43.2897 15.4797 38.1697 15.5297 31.9197C15.5297 31.3697 15.9797 30.9297 16.5297 30.9297C17.0797 30.9297 17.5297 31.3897 17.5197 31.9397C17.4797 37.0897 21.5597 41.3097 26.6097 41.3397C27.1597 41.3397 27.6097 41.7997 27.5997 42.3497C27.5997 42.8997 27.1497 43.3397 26.5997 43.3397Z" fill="#2F3F64"/>
<path d="M60.5497 43.5998H60.4696C59.9196 43.5998 59.4697 43.1398 59.4797 42.5898C59.4797 42.0398 59.9297 41.5998 60.4797 41.5998C60.4997 41.5998 60.5297 41.5998 60.5497 41.5998C65.5697 41.5998 69.6796 37.4598 69.7096 32.3298C69.7096 31.7798 70.1596 31.3398 70.7096 31.3398C71.2596 31.3398 71.7096 31.7998 71.6996 32.3498C71.6496 38.5698 66.6497 43.5998 60.5397 43.5998H60.5497Z" fill="#2F3F64"/>
<path d="M16.2597 67.3713C15.7097 67.3713 15.2597 66.9113 15.2697 66.3613C15.2897 63.3413 16.4697 60.5013 18.5997 58.3813C20.6997 56.2713 23.4797 55.1113 26.4297 55.1113H26.5197C27.0697 55.1113 27.5197 55.5713 27.5097 56.1213C27.5097 56.6713 27.0597 57.1113 26.5097 57.1113C26.4897 57.1113 26.4597 57.1113 26.4297 57.1113C24.0097 57.1113 21.7397 58.0613 20.0097 59.7913C18.2597 61.5413 17.2897 63.8813 17.2697 66.3713C17.2697 66.9213 16.8197 67.3613 16.2697 67.3613L16.2597 67.3713Z" fill="#2F3F64"/>
<path d="M70.4501 67.7911C69.9001 67.7911 69.4501 67.3311 69.4601 66.7811C69.4801 64.2811 68.54 61.9311 66.82 60.1511C65.1 58.3811 62.8101 57.3911 60.3701 57.3711C59.8201 57.3711 59.37 56.9111 59.38 56.3611C59.38 55.8111 59.83 55.3711 60.38 55.3711C63.36 55.3911 66.16 56.6011 68.25 58.7611C70.34 60.9211 71.4801 63.7711 71.4501 66.7911C71.4501 67.3411 71.0001 67.7811 70.4501 67.7811V67.7911Z" fill="#2F3F64"/>
<path d="M43.4297 57.2506C42.8797 57.2506 42.4296 56.7906 42.4396 56.2406L42.6197 32.1306C42.6197 31.5806 43.0697 31.1406 43.6197 31.1406C44.1697 31.1406 44.6197 31.6006 44.6097 32.1506L44.4297 56.2606C44.4297 56.8106 43.9797 57.2506 43.4297 57.2506Z" fill="#2F3F64"/>
<path d="M24.23 86.6105H6.53003C2.93003 86.6105 0 83.6805 0 80.0805V64.8105C0 64.2605 0.45 63.8105 1 63.8105C1.55 63.8105 2 64.2605 2 64.8105V80.0805C2 82.5805 4.03003 84.6105 6.53003 84.6105H24.23C24.78 84.6105 25.23 85.0605 25.23 85.6105C25.23 86.1605 24.78 86.6105 24.23 86.6105Z" fill="#2F3F64"/>
<path d="M1 22.8C0.45 22.8 0 22.35 0 21.8V6.53C0 2.93 2.93003 0 6.53003 0H24.23C24.78 0 25.23 0.45 25.23 1C25.23 1.55 24.78 2 24.23 2H6.53003C4.03003 2 2 4.03 2 6.53V21.8C2 22.35 1.55 22.8 1 22.8Z" fill="#2F3F64"/>
<path d="M86.0698 22.8C85.5198 22.8 85.0698 22.35 85.0698 21.8V6.53C85.0698 4.03 83.0399 2 80.5399 2H62.8398C62.2898 2 61.8398 1.55 61.8398 1C61.8398 0.45 62.2898 0 62.8398 0H80.5399C84.1399 0 87.0698 2.93 87.0698 6.53V21.8C87.0698 22.35 86.6198 22.8 86.0698 22.8Z" fill="#2F3F64"/>
<path fill-rule="evenodd" clip-rule="evenodd" d="M87.9798 64.5703C101.21 64.5703 111.95 75.3103 111.95 88.5403C111.95 101.77 101.21 112.51 87.9798 112.51C74.7498 112.51 64.0098 101.77 64.0098 88.5403C64.0098 75.3103 74.7498 64.5703 87.9798 64.5703Z" fill="#FEC95C"/>
<path d="M90.96 99.2692C90.96 100.909 89.68 102.149 88 102.149C86.32 102.149 85.04 100.909 85.04 99.1892C85.04 97.4692 86.28 96.2692 88.04 96.2692C89.8 96.2692 90.96 97.5092 90.96 99.2692ZM90.48 93.3092H85.48V74.9492H90.48V93.3092Z" fill="#2F3F64"/>
<path d="M88.0002 113.52C74.2302 113.52 63.0303 102.32 63.0303 88.5501C63.0303 74.7801 74.2302 63.5801 88.0002 63.5801C101.77 63.5801 112.97 74.7801 112.97 88.5501C112.97 102.32 101.77 113.52 88.0002 113.52ZM88.0002 65.5801C75.3302 65.5801 65.0303 75.8901 65.0303 88.5501C65.0303 101.21 75.3402 111.52 88.0002 111.52C100.66 111.52 110.97 101.22 110.97 88.5501C110.97 75.8801 100.66 65.5801 88.0002 65.5801Z" fill="#2F3F64"/>
</svg>
