<svg viewBox="0 0 130 129" fill="none" xmlns="http://www.w3.org/2000/svg">
<g id="fixing-bug">
<path id="Vector" fill-rule="evenodd" clip-rule="evenodd" d="M114.659 97.1702V100.61C114.639 103.13 112.55 105.18 110 105.18H5.20951C2.65951 105.18 0.589645 103.13 0.599645 100.61L0.939489 18.2702C0.949489 15.7502 3.02964 13.7002 5.58964 13.7002H9.87943L9.5496 92.4102C9.5396 95.0402 11.6897 97.1802 14.3597 97.1802H114.659V97.1702Z" fill="#2F3F64"/>
<path id="Vector_2" fill-rule="evenodd" clip-rule="evenodd" d="M112.6 6.52979L112.24 92.4097C112.23 95.0397 110.08 97.1797 107.45 97.1797H14.2998C11.6698 97.1797 9.53984 95.0397 9.54984 92.4097L9.9097 6.52979C9.9197 3.89979 12.0697 1.75977 14.6997 1.75977H107.85C110.48 1.75977 112.61 3.89979 112.6 6.52979Z" fill="white"/>
<path id="Vector_3" fill-rule="evenodd" clip-rule="evenodd" d="M112.24 92.4C112.23 95.03 110.08 97.17 107.45 97.17H14.2998C11.6698 97.17 9.53984 95.03 9.54984 92.4L9.9097 6.52002C9.9197 3.89002 12.0697 1.75 14.6997 1.75H107.85C110.48 1.75 112.61 3.89002 112.6 6.52002L112.42 55.09" fill="white"/>
<path id="Vector_4" d="M107.449 98.17H14.2991C12.7591 98.17 11.309 97.57 10.219 96.48C9.12899 95.39 8.53906 93.94 8.53906 92.4L8.89893 6.52002C8.90893 3.34002 11.509 0.75 14.689 0.75H107.839C109.379 0.75 110.829 1.35 111.919 2.44C113.009 3.53 113.599 4.98002 113.589 6.52002L113.409 55.09C113.409 55.64 112.959 56.09 112.409 56.09C111.859 56.09 111.409 55.64 111.409 55.09L111.589 6.52002C111.589 5.51002 111.209 4.56999 110.499 3.85999C109.789 3.14999 108.849 2.76001 107.839 2.76001H14.689C12.609 2.76001 10.9089 4.44998 10.8989 6.53998L10.5391 92.42C10.5391 93.43 10.9189 94.37 11.6289 95.08C12.3389 95.79 13.2791 96.18 14.2891 96.18H107.439C109.519 96.18 111.219 94.49 111.229 92.41C111.229 91.86 111.679 91.41 112.229 91.41C112.779 91.41 113.229 91.86 113.229 92.41C113.219 95.59 110.619 98.18 107.439 98.18L107.449 98.17Z" fill="#2F3F64"/>
<path id="Vector_5" fill-rule="evenodd" clip-rule="evenodd" d="M9.86914 14.3798L9.89893 6.27979C9.90893 3.77979 11.6691 1.75977 13.8291 1.75977H108.729C110.889 1.75977 112.629 3.78979 112.619 6.27979L112.589 14.3798H9.86914Z" fill="#BCC5DC"/>
<path id="Vector_6" fill-rule="evenodd" clip-rule="evenodd" d="M20.6394 5.23047C22.1094 5.23047 23.2996 6.4805 23.2996 8.0105C23.2996 9.5405 22.1094 10.7905 20.6394 10.7905C19.1694 10.7905 17.9795 9.5405 17.9795 8.0105C17.9795 6.4805 19.1694 5.23047 20.6394 5.23047Z" fill="#2F3F64"/>
<path id="Vector_7" fill-rule="evenodd" clip-rule="evenodd" d="M30.7891 5.23047C32.2591 5.23047 33.449 6.4805 33.449 8.0105C33.449 9.5405 32.2591 10.7905 30.7891 10.7905C29.3191 10.7905 28.1289 9.5405 28.1289 8.0105C28.1289 6.4805 29.3191 5.23047 30.7891 5.23047Z" fill="#2F3F64"/>
<path id="Vector_8" fill-rule="evenodd" clip-rule="evenodd" d="M41.3894 5.23047C42.8594 5.23047 44.0496 6.4805 44.0496 8.0105C44.0496 9.5405 42.8594 10.7905 41.3894 10.7905C39.9194 10.7905 38.7295 9.5405 38.7295 8.0105C38.7295 6.4805 39.9194 5.23047 41.3894 5.23047Z" fill="#2F3F64"/>
<path id="Vector_9" d="M112.629 15.3798C112.079 15.3798 111.629 14.9298 111.629 14.3798L111.659 6.27979C111.659 5.22978 111.279 4.23976 110.609 3.56976C110.239 3.19976 109.629 2.75977 108.769 2.75977H13.8391C12.2291 2.75977 10.9189 4.33973 10.9089 6.28973L10.8789 13.3798H76.7991C77.3491 13.3798 77.7991 13.8298 77.7991 14.3798C77.7991 14.9298 77.3491 15.3798 76.7991 15.3798H9.86914C9.59914 15.3798 9.34894 15.2698 9.15894 15.0898C8.96894 14.8998 8.86914 14.6498 8.86914 14.3798L8.89893 6.27979C8.90893 3.23979 11.1291 0.759766 13.8291 0.759766H108.759C109.969 0.759766 111.129 1.25973 112.019 2.15973C113.059 3.20973 113.659 4.71973 113.649 6.28973L113.619 14.3898C113.619 14.9398 113.169 15.3898 112.619 15.3898L112.629 15.3798Z" fill="#2F3F64"/>
<path id="Vector_10" fill-rule="evenodd" clip-rule="evenodd" d="M44.0295 69.2801C43.9795 69.2201 43.9294 69.1601 43.8994 69.0901L34.0896 52.1C33.7896 51.58 33.9595 50.92 34.4695 50.62L59.1394 36.38C59.6494 36.08 60.3096 36.27 60.6096 36.79L70.4194 53.7801C70.4594 53.8501 70.4895 53.92 70.5095 53.99C70.6695 54.23 70.8195 54.47 70.9595 54.73C75.2595 62.18 72.8095 71.65 65.4895 75.88C58.1695 80.1 48.7394 77.49 44.4394 70.05C44.2994 69.8 44.1595 69.54 44.0295 69.29V69.2801Z" fill="#BCC5DC"/>
<path id="Vector_11" d="M57.9589 78.8896C52.2589 78.8896 46.669 75.8896 43.579 70.5396C43.449 70.3096 43.3189 70.0696 43.1889 69.8296C43.1289 69.7496 43.0789 69.6696 43.0289 69.5896L33.2189 52.5996C32.6389 51.5996 32.9789 50.3296 33.9689 49.7596L58.6388 35.5196C59.6288 34.9496 60.8989 35.2996 61.4789 36.2996L71.289 53.2996C71.339 53.3796 71.3788 53.4696 71.4188 53.5596C71.5588 53.7796 71.699 54.0096 71.839 54.2496C76.409 62.1696 73.7889 72.2596 65.9989 76.7596C63.4689 78.2196 60.7089 78.9095 57.9689 78.9095L57.9589 78.8896ZM59.6588 37.2296C59.6588 37.2296 59.6388 37.2296 59.6288 37.2296L34.9689 51.4695C34.9689 51.4695 34.9289 51.5396 34.9489 51.5796L44.7589 68.5796C44.8189 68.6496 44.8788 68.7396 44.9188 68.8096C45.0388 69.0496 45.169 69.2796 45.299 69.5196C49.319 76.4796 58.1489 78.9296 64.9789 74.9896C71.8089 71.0396 74.099 62.1696 70.089 55.2096C69.949 54.9696 69.8088 54.7496 69.6688 54.5196C69.6188 54.4396 69.579 54.3596 69.549 54.2796L59.7289 37.2796C59.7289 37.2796 59.6788 37.2296 59.6488 37.2296H59.6588Z" fill="#2F3F64"/>
<path id="Vector_12" d="M33.3427 37.4215L48.1431 28.8765C49.3036 28.2065 50.7925 28.6055 51.4625 29.7659L55.1175 36.0966C55.7875 37.2571 55.3886 38.746 54.2281 39.416L39.4277 47.961C38.2672 48.631 36.7696 48.237 36.0946 47.0679L32.4446 40.7459C31.7746 39.5854 32.1685 38.0878 33.3377 37.4128L33.3427 37.4215Z" fill="#BCC5DC"/>
<path id="Vector_13" d="M38.1896 49.0997C37.8896 49.0997 37.5897 49.0597 37.2897 48.9797C36.3997 48.7397 35.6596 48.1697 35.1996 47.3797L31.5497 41.0497C31.0897 40.2597 30.9696 39.3297 31.2096 38.4397C31.4496 37.5497 32.0197 36.8097 32.8097 36.3597L47.6097 27.8097C49.2497 26.8597 51.3497 27.4297 52.2997 29.0697L55.9496 35.3997C56.4096 36.1897 56.5297 37.1197 56.2897 38.0097C56.0497 38.8997 55.4796 39.6397 54.6896 40.0897L39.8895 48.6397C39.3595 48.9397 38.7696 49.0997 38.1796 49.0997H38.1896ZM49.3297 29.3497C49.0897 29.3497 48.8398 29.4097 48.6198 29.5397L33.8197 38.0897C33.1297 38.4897 32.8997 39.3597 33.2897 40.0497L36.9396 46.3797C37.1296 46.7097 37.4397 46.9497 37.8097 47.0497C38.1797 47.1497 38.5695 47.0997 38.8995 46.9097L53.6996 38.3597C54.3896 37.9597 54.6196 37.0897 54.2296 36.3997L50.5797 30.0697C50.3097 29.6097 49.8297 29.3497 49.3297 29.3497Z" fill="#2F3F64"/>
<path id="Vector_14" d="M38.0592 35.4801C37.9692 35.4801 37.8792 35.4701 37.7892 35.4401L31.4591 33.6901C30.9291 33.5401 30.6192 32.9902 30.7592 32.4602C30.9092 31.9302 31.4692 31.6202 31.9892 31.7602L38.3192 33.5102C38.8492 33.6602 39.1592 34.2101 39.0192 34.7401C38.8992 35.1801 38.4892 35.4701 38.0592 35.4701V35.4801Z" fill="#2F3F64"/>
<path id="Vector_15" d="M43.3792 32.4097C43.2992 32.4097 43.2092 32.4097 43.1292 32.3797C42.5992 32.2397 42.2692 31.6997 42.4092 31.1597L44.0593 24.7997C44.1993 24.2597 44.7393 23.9397 45.2793 24.0797C45.8093 24.2197 46.1393 24.7597 45.9993 25.2997L44.3494 31.6597C44.2294 32.1097 43.8292 32.4097 43.3792 32.4097Z" fill="#2F3F64"/>
<path id="Vector_16" d="M33.3696 70.2299C33.0196 70.2299 32.6895 70.0499 32.4995 69.7299C32.2195 69.2499 32.3896 68.64 32.8696 68.36L40.8295 63.77C41.3095 63.49 41.9194 63.66 42.1994 64.14C42.4794 64.62 42.3095 65.23 41.8295 65.51L33.8696 70.0999C33.7096 70.1899 33.5396 70.2299 33.3696 70.2299Z" fill="#2F3F64"/>
<path id="Vector_17" d="M67.8491 50.3296C67.4991 50.3296 67.1689 50.1496 66.9789 49.8296C66.6989 49.3496 66.8691 48.7396 67.3491 48.4596L75.309 43.8696C75.789 43.5896 76.3989 43.7596 76.6789 44.2396C76.9589 44.7196 76.789 45.3296 76.309 45.6096L68.3491 50.1996C68.1891 50.2896 68.0191 50.3296 67.8491 50.3296Z" fill="#2F3F64"/>
<path id="Vector_18" d="M33.6891 61.4596C32.7791 61.4596 31.8592 61.3396 30.9492 61.0796C28.3092 60.3496 26.0992 58.6296 24.7192 56.2396C24.4392 55.7596 24.6093 55.1496 25.0893 54.8696C25.5693 54.5896 26.1792 54.7596 26.4592 55.2396C27.5792 57.1696 29.3592 58.5596 31.4992 59.1496C33.6192 59.7396 35.8292 59.4596 37.7292 58.3696C38.2092 58.0896 38.8193 58.2596 39.0993 58.7396C39.3793 59.2196 39.2092 59.8296 38.7292 60.1096C37.1792 60.9996 35.4592 61.4596 33.7092 61.4596H33.6891Z" fill="#2F3F64"/>
<path id="Vector_19" d="M64.7297 44.9296C64.3797 44.9296 64.0499 44.7496 63.8599 44.4296C63.5799 43.9496 63.7497 43.3396 64.2297 43.0596C68.1397 40.7996 69.4497 35.7196 67.1497 31.7396C66.8697 31.2596 67.0398 30.6496 67.5198 30.3696C67.9998 30.0896 68.6096 30.2596 68.8896 30.7396C71.7396 35.6796 70.0997 41.9796 65.2397 44.7896C65.0797 44.8796 64.9097 44.9196 64.7397 44.9196L64.7297 44.9296Z" fill="#2F3F64"/>
<path id="Vector_20" d="M41.1588 83.7204C40.8088 83.7204 40.479 83.5404 40.289 83.2204C38.909 80.8304 38.5289 78.0504 39.2189 75.4004C39.9089 72.7404 41.5889 70.5304 43.9389 69.1704C44.4189 68.8904 45.029 69.0604 45.309 69.5404C45.589 70.0204 45.4189 70.6304 44.9389 70.9104C43.0489 72.0004 41.6988 73.7804 41.1488 75.9104C40.5988 78.0504 40.8989 80.2904 42.0189 82.2304C42.2989 82.7104 42.1288 83.3204 41.6488 83.6004C41.4888 83.6904 41.3188 83.7304 41.1488 83.7304L41.1588 83.7204Z" fill="#2F3F64"/>
<path id="Vector_21" d="M83.5894 59.2202C83.2394 59.2202 82.9092 59.0402 82.7192 58.7202C80.4192 54.7302 75.3592 53.3302 71.4592 55.5902C70.9792 55.8602 70.3694 55.7002 70.0894 55.2202C69.8094 54.7402 69.9792 54.1302 70.4592 53.8502C75.3192 51.0402 81.5992 52.7802 84.4592 57.7202C84.7392 58.2002 84.5694 58.8102 84.0894 59.0902C83.9294 59.1802 83.7594 59.2202 83.5894 59.2202Z" fill="#2F3F64"/>
<path id="Vector_22" d="M57.6992 63.3803C57.3492 63.3803 57.0193 63.2003 56.8293 62.8803L45.9291 44.0003C45.6491 43.5203 45.8193 42.9103 46.2993 42.6303C46.7793 42.3503 47.3891 42.5203 47.6691 43.0003L58.5693 61.8803C58.8493 62.3603 58.6792 62.9703 58.1992 63.2503C58.0392 63.3403 57.8692 63.3803 57.6992 63.3803Z" fill="#2F3F64"/>
<path id="Vector_23" fill-rule="evenodd" clip-rule="evenodd" d="M106.949 86.1198C101.889 83.7198 98.3789 78.5598 98.3789 72.5898C98.3789 67.3698 101.059 62.7698 105.119 60.0898V69.0998L104.989 69.2498L113.399 77.6598L121.679 69.3798L121.579 69.2498H121.679V60.1698C125.669 62.8598 128.289 67.4198 128.289 72.5798C128.289 78.5498 124.789 83.7098 119.719 86.1098C119.719 86.1998 119.729 86.2798 119.729 86.3698V125.16C119.729 126.57 118.579 127.72 117.169 127.72H109.479C108.069 127.72 106.919 126.57 106.919 125.16V86.3698C106.919 86.2798 106.919 86.1898 106.929 86.1098L106.949 86.1198Z" fill="#BCC5DC"/>
<path id="Vector_24" d="M117.19 128.73H109.5C107.54 128.73 105.94 127.13 105.94 125.17V86.7297C100.72 83.9897 97.3896 78.5097 97.3896 72.5897C97.3896 67.2097 100.08 62.2297 104.58 59.2597C104.89 59.0597 105.28 59.0397 105.6 59.2097C105.92 59.3797 106.13 59.7197 106.13 60.0897V68.9697L113.41 76.2497L120.62 69.0397C120.64 68.9697 120.66 68.8897 120.69 68.8297V60.1797C120.69 59.8097 120.89 59.4697 121.22 59.2997C121.55 59.1297 121.94 59.1497 122.25 59.3497C126.67 62.3297 129.3 67.2797 129.3 72.5897C129.3 78.5097 125.96 83.9897 120.75 86.7297V125.17C120.75 127.13 119.15 128.73 117.19 128.73ZM104.12 62.1097C101.12 64.7497 99.3796 68.5397 99.3796 72.5897C99.3796 77.9597 102.52 82.9097 107.38 85.2097C107.76 85.3897 107.99 85.7897 107.95 86.2097C107.95 86.2597 107.95 86.3197 107.95 86.3697V125.16C107.95 126.02 108.65 126.72 109.51 126.72H117.2C118.06 126.72 118.76 126.02 118.76 125.16V86.3697C118.76 86.3197 118.76 86.2597 118.76 86.2097C118.72 85.7897 118.94 85.3897 119.33 85.2097C124.19 82.9097 127.32 77.9497 127.32 72.5897C127.32 68.6097 125.63 64.8597 122.71 62.2197V69.2497C122.71 69.2497 122.71 69.2897 122.71 69.3097C122.73 69.5897 122.63 69.8697 122.42 70.0797L114.14 78.3597C113.75 78.7497 113.12 78.7497 112.73 78.3597L104.32 69.9497C104 69.6297 103.94 69.1397 104.15 68.7497V62.0897L104.12 62.1097Z" fill="#2F3F64"/>
<path id="Vector_25" fill-rule="evenodd" clip-rule="evenodd" d="M82.9792 22.7604C83.6092 21.7804 84.6893 21.1904 85.8393 21.1904C86.9893 21.1904 88.0792 21.7804 88.6992 22.7604C92.4992 28.6904 99.2092 39.1604 103.249 45.4604C103.919 46.5104 103.969 47.8404 103.369 48.9304C102.769 50.0204 101.629 50.7004 100.389 50.7004H71.2793C70.0393 50.7004 68.8893 50.0204 68.2993 48.9304C67.6993 47.8404 67.7492 46.5104 68.4192 45.4604C72.4592 39.1604 79.1692 28.6904 82.9692 22.7604H82.9792Z" fill="#FEC95C"/>
<path id="Vector_26" d="M85.1594 41.4302L84.3096 32.7502V28.7402H87.8596V32.7502L87.0195 41.4302H85.1594ZM84.4495 45.8403V42.5602H87.7295V45.8403H84.4495Z" fill="#2F3F64"/>
</g>
</svg>
