<svg width="126" height="95" viewBox="0 0 126 95" fill="none" xmlns="http://www.w3.org/2000/svg">
<g id="folder">
<g id="Group">
<path id="Vector" d="M8.62928 92.5599L1.01929 22.2899C0.919292 21.4899 1.15927 20.6999 1.68927 20.0999C2.20927 19.5099 2.96928 19.1699 3.75928 19.1699H21.7193C22.9893 19.1699 24.1993 19.7699 24.9693 20.7699L28.4793 25.3599C28.6693 25.6099 28.9593 25.7499 29.2693 25.7499H105.009C106.509 25.7499 107.739 26.9699 107.769 28.4599L106.609 92.5499H8.62928V92.5599Z" fill="#2F3F64"/>
<path id="Vector_2" d="M21.7195 20.1702C22.6795 20.1702 23.5894 20.6202 24.1694 21.3802L27.6794 25.9702C28.0594 26.4702 28.6495 26.7602 29.2695 26.7602H105.009C105.949 26.7602 106.739 27.5202 106.769 28.4602L105.629 91.5602H9.52948L2.01947 22.1502C1.95948 21.6402 2.10947 21.1502 2.44947 20.7702C2.78947 20.3902 3.25947 20.1702 3.76947 20.1702H21.7294M21.7195 18.1702H3.75947C1.49947 18.1702 -0.250515 20.1502 0.0294848 22.4002L7.72944 93.5602H107.589L108.769 28.4502C108.729 26.4002 107.059 24.7502 105.009 24.7502H29.2695L25.7595 20.1602C24.7995 18.9002 23.2995 18.1602 21.7195 18.1602V18.1702Z" fill="#2F3F64"/>
</g>
<g id="Group_2">
<path id="Vector_3" d="M75.7801 93.5599H9.04004L27.23 38.7599C27.64 37.0699 29.1501 35.8799 30.8801 35.8799H121.22C123.77 35.8799 125.58 38.3699 124.78 40.7999L107.5 93.5599" fill="#BCC5DC"/>
<path id="Vector_4" d="M107.51 94.5599C107.41 94.5599 107.3 94.5399 107.2 94.5099C106.68 94.3399 106.39 93.7699 106.56 93.2499L123.84 40.4899C124.12 39.6399 123.98 38.7399 123.45 38.0199C122.93 37.2999 122.12 36.8799 121.22 36.8799H30.8797C29.5997 36.8799 28.4997 37.7499 28.1997 38.9899L10.4196 92.5599H75.7697C76.3197 92.5599 76.7697 93.0099 76.7697 93.5599C76.7697 94.1099 76.3197 94.5599 75.7697 94.5599H9.02968C8.70968 94.5599 8.40968 94.4099 8.21968 94.1399C8.02968 93.8799 7.97967 93.5499 8.07967 93.2399L26.2697 38.4399C26.7697 36.3799 28.6696 34.8799 30.8696 34.8799H121.21C122.75 34.8799 124.15 35.5899 125.05 36.8399C125.95 38.0899 126.2 39.6399 125.72 41.0999L108.44 93.8599C108.3 94.2799 107.91 94.5499 107.49 94.5499L107.51 94.5599Z" fill="#2F3F64"/>
</g>
<g id="Group_3">
<path id="Vector_5" fill-rule="evenodd" clip-rule="evenodd" d="M91.779 15.1098V35.8798H30.889C29.149 35.8798 27.639 37.0698 27.239 38.7598L18.1689 66.0998V3.87977C18.1689 2.28977 19.4589 1.00977 21.0389 1.00977H78.809L91.7889 15.1198L91.779 15.1098Z" fill="white"/>
<path id="Vector_6" d="M18.1592 67.0898C18.1092 67.0898 18.0491 67.0898 17.9991 67.0798C17.5191 66.9998 17.1592 66.5798 17.1592 66.0898V3.87977C17.1592 1.74977 18.8992 0.00976562 21.0292 0.00976562H78.7991C79.0791 0.00976562 79.3491 0.129765 79.5391 0.329765L92.5192 14.4398C92.6892 14.6198 92.7792 14.8698 92.7792 15.1198V35.8898C92.7792 36.4398 92.3292 36.8898 91.7792 36.8898H30.8892C29.6092 36.8898 28.5092 37.7598 28.2092 38.9998L19.1091 66.4198C18.9691 66.8298 18.5892 67.0998 18.1592 67.0998V67.0898ZM21.0292 2.00977C19.9992 2.00977 19.1592 2.84977 19.1592 3.87977V59.9098L26.2792 38.4398C26.7792 36.3798 28.6792 34.8798 30.8792 34.8798H90.7692V15.4998L78.3491 1.99977H21.0192L21.0292 2.00977Z" fill="#2F3F64"/>
</g>
<g id="Group_4">
<path id="Vector_7" fill-rule="evenodd" clip-rule="evenodd" d="M78.7998 1V14.91H91.7798" fill="#2F3F64"/>
<path id="Vector_8" d="M91.7798 15.9H78.7998C78.2498 15.9 77.7998 15.45 77.7998 14.9V1C77.7998 0.45 78.2498 0 78.7998 0C79.3498 0 79.7998 0.45 79.7998 1V13.9H91.7798C92.3298 13.9 92.7798 14.35 92.7798 14.9C92.7798 15.45 92.3298 15.9 91.7798 15.9Z" fill="#2F3F64"/>
</g>
</g>
</svg>
