<svg width="119" height="127" viewBox="0 0 119 127" fill="none" xmlns="http://www.w3.org/2000/svg">
<path fill-rule="evenodd" clip-rule="evenodd" d="M93.6702 119.37V122.01C93.6502 124.39 91.6102 126.32 89.1002 126.32H5.09015C2.51015 126.32 0.410156 124.33 0.410156 121.88V12.4C0.410156 9.94996 2.51015 7.95996 5.09015 7.95996H8.55016V114.92C8.55016 117.37 10.6501 119.36 13.2301 119.36H93.6702V119.37Z" fill="#2F3F64"/>
<path fill-rule="evenodd" clip-rule="evenodd" d="M101.8 113.87C101.8 116.91 99.32 119.37 96.28 119.37H13.22C10.64 119.37 8.54004 117.38 8.54004 114.93V5.44977C8.54004 2.99977 10.64 1.00977 13.22 1.00977H97.47C100.05 1.00977 102.15 2.99977 102.15 5.44977C102.15 5.44977 101.87 91.0998 101.79 113.87H101.8Z" fill="white"/>
<path d="M96.2898 120.37H13.2298C10.0998 120.37 7.5498 117.93 7.5498 114.93V5.44977C7.5498 2.44977 10.0998 0.00976562 13.2298 0.00976562H97.4798C100.61 0.00976562 103.16 2.44977 103.16 5.44977V20.2098C103.16 20.7598 102.71 21.2098 102.16 21.2098C101.61 21.2098 101.16 20.7598 101.16 20.2098V5.44977C101.16 3.54977 99.5098 2.00977 97.4798 2.00977H13.2298C11.1998 2.00977 9.5498 3.54977 9.5498 5.44977V114.93C9.5498 116.83 11.1998 118.37 13.2298 118.37H96.2898C98.7698 118.37 100.8 116.35 100.81 113.87C100.82 110.27 100.84 101.82 100.86 91.7298C100.89 76.5698 100.93 57.6998 100.97 45.9898C100.97 45.4398 101.42 44.9898 101.97 44.9898C102.52 44.9898 102.97 45.4398 102.97 45.9898C102.93 57.6998 102.89 76.5698 102.86 91.7298C102.84 101.82 102.82 110.27 102.81 113.87C102.8 117.45 99.8698 120.37 96.2898 120.37Z" fill="#2F3F64"/>
<path d="M86.4806 10.7598H20.3606C19.1346 10.7598 18.1406 11.7537 18.1406 12.9798V23.9598C18.1406 25.1858 19.1346 26.1798 20.3606 26.1798H86.4806C87.7067 26.1798 88.7006 25.1858 88.7006 23.9598V12.9798C88.7006 11.7537 87.7067 10.7598 86.4806 10.7598Z" fill="#FEC95C"/>
<path d="M87.8306 55.21H20.3606C19.1346 55.21 18.1406 56.2039 18.1406 57.43V63.67C18.1406 64.896 19.1346 65.89 20.3606 65.89H87.8306C89.0567 65.89 90.0506 64.896 90.0506 63.67V57.43C90.0506 56.2039 89.0567 55.21 87.8306 55.21Z" fill="#BCC5DC"/>
<path d="M87.8306 36.0898H20.3606C19.1346 36.0898 18.1406 37.0838 18.1406 38.3098V44.5498C18.1406 45.7759 19.1346 46.7698 20.3606 46.7698H87.8306C89.0567 46.7698 90.0506 45.7759 90.0506 44.5498V38.3098C90.0506 37.0838 89.0567 36.0898 87.8306 36.0898Z" fill="#BCC5DC"/>
<path d="M87.8306 73.9102H20.3606C19.1346 73.9102 18.1406 74.9041 18.1406 76.1301V82.3702C18.1406 83.5962 19.1346 84.5901 20.3606 84.5901H87.8306C89.0567 84.5901 90.0506 83.5962 90.0506 82.3702V76.1301C90.0506 74.9041 89.0567 73.9102 87.8306 73.9102Z" fill="#BCC5DC"/>
<path d="M87.8306 92.6094H20.3606C19.1346 92.6094 18.1406 93.6033 18.1406 94.8294V101.069C18.1406 102.295 19.1346 103.289 20.3606 103.289H87.8306C89.0567 103.289 90.0506 102.295 90.0506 101.069V94.8294C90.0506 93.6033 89.0567 92.6094 87.8306 92.6094Z" fill="#BCC5DC"/>
<path fill-rule="evenodd" clip-rule="evenodd" d="M61.6395 87.7197C61.6395 87.7197 60.4495 88.0097 59.1295 88.3297C57.0295 88.8397 55.4095 90.5097 54.9395 92.6197C54.5895 94.1997 54.1895 96.0597 53.8595 97.5597C53.7295 98.1697 53.9195 98.8097 54.3695 99.2397C54.8195 99.6697 55.4695 99.8297 56.0695 99.6697C57.6295 99.2397 59.5595 98.7097 61.1595 98.2697C63.0695 97.7497 64.5595 96.2697 65.0995 94.3697C65.4695 93.0897 65.8095 91.8997 65.8095 91.8997" fill="white"/>
<path d="M55.6099 100.73C54.8999 100.73 54.2099 100.46 53.6899 99.9698C52.9899 99.2998 52.6799 98.2998 52.8899 97.3498L53.9699 92.4098C54.5099 89.9398 56.4399 87.9598 58.8999 87.3698L61.4099 86.7598C61.9499 86.6298 62.4899 86.9598 62.6199 87.4898C62.7499 88.0298 62.4199 88.5698 61.8899 88.6998L59.3799 89.3098C57.6599 89.7298 56.3099 91.1098 55.9299 92.8398L54.8499 97.7798C54.7899 98.0498 54.8799 98.3298 55.0799 98.5198C55.2799 98.7098 55.5699 98.7798 55.8299 98.7098L60.9199 97.3098C62.4799 96.8798 63.7199 95.6498 64.1699 94.0998L64.8799 91.6298C65.0299 91.0998 65.5799 90.7898 66.1199 90.9398C66.6499 91.0898 66.9599 91.6498 66.8099 92.1798L66.0999 94.6498C65.4699 96.8698 63.6899 98.6298 61.4599 99.2398L56.3699 100.64C56.1299 100.71 55.8799 100.74 55.6399 100.74L55.6099 100.73Z" fill="#2F3F64"/>
<path fill-rule="evenodd" clip-rule="evenodd" d="M97.2595 61.0499C97.8095 61.5999 97.8095 62.4799 97.2595 63.0299L67.6995 92.5899C67.0695 93.2199 66.0495 93.2199 65.4195 92.5899L60.6795 87.8499C60.0495 87.2199 60.0495 86.1999 60.6795 85.5699L109.71 36.5399C110.34 35.9099 111.36 35.9099 111.99 36.5399L116.73 41.2799C117.36 41.9099 117.36 42.9299 116.73 43.5599L100.33 59.9599C99.7795 60.5099 98.8995 60.5099 98.3495 59.9599L94.5395 56.1499C94.2395 55.8499 93.7495 55.8499 93.4496 56.1499C93.1496 56.4499 93.1496 56.9399 93.4496 57.2399L97.2595 61.0499Z" fill="#2F3F64"/>
<path d="M66.5602 94.0497C65.8902 94.0497 65.2202 93.7997 64.7102 93.2897L59.9702 88.5497C59.4802 88.0597 59.2002 87.3997 59.2002 86.6997C59.2002 85.9997 59.4702 85.3497 59.9702 84.8497L109 35.8197C110.02 34.7997 111.67 34.7997 112.69 35.8197L117.43 40.5597C117.92 41.0497 118.19 41.7097 118.19 42.4097C118.19 43.1097 117.92 43.7597 117.42 44.2597L100.04 61.6397H98.9502V62.7297L68.4002 93.2797C67.8902 93.7897 67.2202 94.0397 66.5502 94.0397L66.5602 94.0497ZM110.84 37.0597C110.68 37.0597 110.53 37.1197 110.41 37.2397L61.3802 86.2697C61.2602 86.3897 61.2002 86.5397 61.2002 86.6997C61.2002 86.8597 61.2602 87.0197 61.3802 87.1297L66.1202 91.8697C66.3602 92.1097 66.7502 92.1097 66.9902 91.8697L96.8302 62.0297L92.7402 57.9397C92.0502 57.2497 92.0502 56.1297 92.7402 55.4397C93.4302 54.7497 94.5602 54.7497 95.2502 55.4397L99.3402 59.5297L116.02 42.8497C116.14 42.7297 116.2 42.5797 116.2 42.4197C116.2 42.2597 116.14 42.0997 116.02 41.9897L111.28 37.2497C111.16 37.1297 111 37.0697 110.85 37.0697L110.84 37.0597Z" fill="#2F3F64"/>
<path d="M90.3101 52.6597C90.0501 52.6597 89.8001 52.5597 89.6001 52.3697C89.2101 51.9797 89.2101 51.3497 89.6001 50.9597L106.17 34.3897C107.23 33.3297 109.08 33.3297 110.14 34.3897L113.13 37.3797L111.72 38.7897L108.73 35.7997C108.42 35.4897 107.89 35.4897 107.58 35.7997L91.0101 52.3697C90.8101 52.5697 90.5601 52.6597 90.3001 52.6597H90.3101Z" fill="#2F3F64"/>
<path d="M59.65 94.7093C59.39 94.7093 59.14 94.6093 58.94 94.4193C58.55 94.0293 58.55 93.3993 58.94 93.0093L62.94 89.0093C63.33 88.6193 63.96 88.6193 64.35 89.0093C64.74 89.3993 64.74 90.0293 64.35 90.4193L60.35 94.4193C60.15 94.6193 59.9 94.7093 59.64 94.7093H59.65Z" fill="#2F3F64"/>
<path fill-rule="evenodd" clip-rule="evenodd" d="M57.9398 95.4193C57.1998 94.6793 57.1998 93.4893 57.9398 92.7493C58.6798 92.0093 59.8698 92.0093 60.6098 92.7493C61.3498 93.4893 61.3498 94.6793 60.6098 95.4193C59.8698 96.1593 58.6798 96.1593 57.9398 95.4193Z" fill="#2F3F64"/>
<path d="M23.0706 16.5091C23.3606 15.9891 23.7506 15.5891 24.2706 15.2991C24.7806 15.0091 25.3606 14.8691 26.0106 14.8691C26.8006 14.8691 27.4806 15.0791 28.0506 15.4991C28.6206 15.9191 28.9906 16.4891 29.1806 17.2191H27.3906C27.2606 16.9391 27.0706 16.7291 26.8206 16.5791C26.5706 16.4291 26.3006 16.3591 25.9906 16.3591C25.4906 16.3591 25.0806 16.5291 24.7706 16.8791C24.4606 17.2291 24.3006 17.6991 24.3006 18.2791C24.3006 18.8591 24.4606 19.3291 24.7706 19.6791C25.0806 20.0291 25.4906 20.1991 25.9906 20.1991C26.3006 20.1991 26.5806 20.1291 26.8206 19.9791C27.0606 19.8291 27.2506 19.6191 27.3906 19.3391H29.1806C28.9906 20.0591 28.6106 20.6291 28.0506 21.0491C27.4806 21.4691 26.8006 21.6691 26.0106 21.6691C25.3606 21.6691 24.7806 21.5291 24.2706 21.2391C23.7606 20.9491 23.3606 20.5491 23.0706 20.0291C22.7806 19.5191 22.6406 18.9291 22.6406 18.2691C22.6406 17.6091 22.7806 17.0191 23.0706 16.4991V16.5091Z" fill="#2F3F64"/>
<path d="M31.6201 21.2596C31.1001 20.9696 30.6801 20.5596 30.3701 20.0396C30.0601 19.5196 29.9102 18.9296 29.9102 18.2696C29.9102 17.6096 30.0601 17.0296 30.3701 16.5096C30.6801 15.9896 31.0901 15.5796 31.6201 15.2896C32.1401 14.9996 32.7202 14.8496 33.3502 14.8496C33.9802 14.8496 34.5602 14.9996 35.0802 15.2896C35.6002 15.5796 36.0202 15.9896 36.3202 16.5096C36.6202 17.0296 36.7702 17.6196 36.7702 18.2696C36.7702 18.9196 36.6202 19.5096 36.3102 20.0396C36.0002 20.5696 35.5902 20.9696 35.0702 21.2596C34.5502 21.5496 33.9702 21.6996 33.3502 21.6996C32.7302 21.6996 32.1401 21.5496 31.6201 21.2596ZM34.6302 19.6796C34.9502 19.3196 35.1102 18.8496 35.1102 18.2696C35.1102 17.6896 34.9502 17.2096 34.6302 16.8496C34.3102 16.4996 33.8802 16.3196 33.3502 16.3196C32.8202 16.3196 32.3802 16.4996 32.0602 16.8396C31.7402 17.1896 31.5802 17.6596 31.5802 18.2596C31.5802 18.8596 31.7402 19.3196 32.0602 19.6796C32.3802 20.0296 32.8102 20.2096 33.3502 20.2096C33.8902 20.2096 34.3102 20.0296 34.6302 19.6796Z" fill="#2F3F64"/>
<path d="M43.6609 21.6392H42.0309L39.3009 17.5092V21.6392H37.6709V14.9492H39.3009L42.0309 19.0992V14.9492H43.6609V21.6392Z" fill="#2F3F64"/>
<path d="M49.6505 14.9492V16.2592H47.8805V21.6392H46.2505V16.2592H44.4805V14.9492H49.6505Z" fill="#2F3F64"/>
<path d="M54.6403 20.4495H52.1403L51.7403 21.6295H50.0303L52.4503 14.9395H54.3403L56.7603 21.6295H55.0403L54.6403 20.4495ZM54.2203 19.1995L53.3903 16.7495L52.5703 19.1995H54.2203Z" fill="#2F3F64"/>
<path d="M57.6507 16.5091C57.9407 15.9891 58.3307 15.5891 58.8507 15.2991C59.3607 15.0091 59.9407 14.8691 60.5907 14.8691C61.3807 14.8691 62.0607 15.0791 62.6307 15.4991C63.2007 15.9191 63.5707 16.4891 63.7607 17.2191H61.9707C61.8407 16.9391 61.6507 16.7291 61.4007 16.5791C61.1507 16.4291 60.8807 16.3591 60.5707 16.3591C60.0707 16.3591 59.6607 16.5291 59.3507 16.8791C59.0407 17.2291 58.8807 17.6991 58.8807 18.2791C58.8807 18.8591 59.0407 19.3291 59.3507 19.6791C59.6607 20.0291 60.0707 20.1991 60.5707 20.1991C60.8807 20.1991 61.1607 20.1291 61.4007 19.9791C61.6407 19.8291 61.8307 19.6191 61.9707 19.3391H63.7607C63.5707 20.0591 63.1907 20.6291 62.6307 21.0491C62.0607 21.4691 61.3807 21.6691 60.5907 21.6691C59.9407 21.6691 59.3607 21.5291 58.8507 21.2391C58.3407 20.9491 57.9407 20.5491 57.6507 20.0291C57.3607 19.5191 57.2207 18.9291 57.2207 18.2691C57.2207 17.6091 57.3607 17.0191 57.6507 16.4991V16.5091Z" fill="#2F3F64"/>
<path d="M69.5704 14.9492V16.2592H67.8004V21.6392H66.1704V16.2592H64.4004V14.9492H69.5704Z" fill="#2F3F64"/>
<path d="M74.0106 14.9492V18.9492C74.0106 19.3492 74.1106 19.6592 74.3106 19.8692C74.5106 20.0792 74.8006 20.1892 75.1806 20.1892C75.5606 20.1892 75.8506 20.0792 76.0606 19.8692C76.2606 19.6492 76.3606 19.3492 76.3606 18.9492V14.9492H77.9906V18.9392C77.9906 19.5392 77.8606 20.0392 77.6106 20.4592C77.3606 20.8692 77.0106 21.1792 76.5906 21.3892C76.1606 21.5992 75.6806 21.6992 75.1606 21.6992C74.6406 21.6992 74.1606 21.5992 73.7406 21.3892C73.3206 21.1792 73.0006 20.8692 72.7506 20.4592C72.5006 20.0492 72.3906 19.5392 72.3906 18.9392V14.9492H74.0206H74.0106Z" fill="#2F3F64"/>
<path d="M80.2307 21.4596C79.8407 21.2996 79.5307 21.0696 79.3007 20.7496C79.0707 20.4396 78.9507 20.0596 78.9307 19.6296H80.6607C80.6907 19.8796 80.7707 20.0696 80.9207 20.1996C81.0707 20.3296 81.2607 20.3996 81.4907 20.3996C81.7207 20.3996 81.9207 20.3396 82.0607 20.2296C82.2007 20.1196 82.2707 19.9596 82.2707 19.7696C82.2707 19.6096 82.2107 19.4696 82.1007 19.3596C81.9907 19.2496 81.8507 19.1596 81.6907 19.0896C81.5307 19.0196 81.3007 18.9396 81.0007 18.8496C80.5707 18.7196 80.2207 18.5796 79.9407 18.4496C79.6707 18.3196 79.4307 18.1196 79.2307 17.8596C79.0307 17.5996 78.9307 17.2596 78.9307 16.8396C78.9307 16.2196 79.1607 15.7296 79.6107 15.3796C80.0607 15.0296 80.6507 14.8496 81.3707 14.8496C82.0907 14.8496 82.7007 15.0296 83.1507 15.3796C83.6007 15.7296 83.8407 16.2196 83.8707 16.8496H82.1107C82.1007 16.6296 82.0207 16.4596 81.8707 16.3396C81.7207 16.2196 81.5407 16.1496 81.3107 16.1496C81.1107 16.1496 80.9507 16.1996 80.8307 16.3096C80.7107 16.4096 80.6507 16.5696 80.6507 16.7596C80.6507 16.9796 80.7507 17.1396 80.9507 17.2696C81.1507 17.3896 81.4707 17.5196 81.9007 17.6596C82.3307 17.8096 82.6807 17.9496 82.9507 18.0796C83.2207 18.2096 83.4507 18.4096 83.6507 18.6596C83.8507 18.9096 83.9507 19.2396 83.9507 19.6396C83.9507 20.0396 83.8507 20.3696 83.6607 20.6796C83.4707 20.9896 83.1907 21.2396 82.8207 21.4196C82.4507 21.5996 82.0207 21.6996 81.5107 21.6996C81.0007 21.6996 80.5807 21.6196 80.1907 21.4596H80.2307Z" fill="#2F3F64"/>
</svg>
