<svg width="126" height="98" viewBox="0 0 126 98" fill="none" xmlns="http://www.w3.org/2000/svg">
<path fill-rule="evenodd" clip-rule="evenodd" d="M8.80009 87.78H4.37003C1.95003 87.78 -0.0099619 85.81 3.80959e-05 83.39L0.340004 4.39C0.340004 1.97 2.33004 0 4.75004 0H111.22C113.64 0 115.6 1.97 115.59 4.39L115.57 8.63H13.5301C11.1101 8.63 9.13003 10.6 9.12003 13.02L8.80009 87.78Z" fill="#2F3F64"/>
<path fill-rule="evenodd" clip-rule="evenodd" d="M124.57 11.3601L124.22 92.1201C124.21 94.6001 122.19 96.6101 119.71 96.6101H10.8704C8.3904 96.6101 6.39043 94.6001 6.40043 92.1201L6.7504 11.3601C6.7604 8.88012 8.78041 6.87012 11.2604 6.87012H120.1C122.58 6.87012 124.58 8.88012 124.57 11.3601Z" fill="white"/>
<path d="M119.72 97.6099H10.88C9.42001 97.6099 8.04002 97.0399 7.01002 95.9999C5.98002 94.9599 5.41005 93.5799 5.42005 92.1199L5.77003 11.3599C5.78003 8.33988 8.25004 5.87988 11.28 5.87988H120.12C121.59 5.87988 122.96 6.44988 124 7.48988C125.03 8.52988 125.6 9.90988 125.59 11.3699L125.24 92.1299C125.23 95.1499 122.76 97.6099 119.73 97.6099H119.72ZM11.27 7.86988C9.34003 7.86988 7.77002 9.43988 7.76002 11.3599L7.41004 92.1199C7.41004 93.0499 7.77005 93.9299 8.42005 94.5799C9.08005 95.2399 9.95001 95.5999 10.88 95.5999H119.72C121.64 95.5999 123.22 94.0299 123.23 92.1099L123.58 11.3499C123.58 10.4199 123.23 9.54988 122.57 8.88988C121.91 8.22988 121.04 7.86988 120.11 7.86988H11.27Z" fill="#2F3F64"/>
<path d="M124.86 7.45996H7.86035V19.64H124.86V7.45996Z" fill="#BCC5DC"/>
<path fill-rule="evenodd" clip-rule="evenodd" d="M17.8503 10.3203C19.3603 10.3203 20.5903 11.5603 20.5903 13.0803C20.5903 14.6003 19.3603 15.8403 17.8503 15.8403C16.3403 15.8403 15.1104 14.6003 15.1104 13.0803C15.1104 11.5603 16.3403 10.3203 17.8503 10.3203Z" fill="#2F3F64"/>
<path fill-rule="evenodd" clip-rule="evenodd" d="M28.33 10.3203C29.84 10.3203 31.0699 11.5603 31.0699 13.0803C31.0699 14.6003 29.84 15.8403 28.33 15.8403C26.82 15.8403 25.5898 14.6003 25.5898 13.0803C25.5898 11.5603 26.82 10.3203 28.33 10.3203Z" fill="#2F3F64"/>
<path fill-rule="evenodd" clip-rule="evenodd" d="M39.28 10.3203C40.8 10.3203 42.02 11.5603 42.02 13.0803C42.02 14.6003 40.79 15.8403 39.28 15.8403C37.77 15.8403 36.54 14.6003 36.54 13.0803C36.54 11.5603 37.77 10.3203 39.28 10.3203Z" fill="#2F3F64"/>
<path d="M124.54 20.3896C123.99 20.3896 123.54 19.9396 123.54 19.3896L123.57 11.3596C123.57 10.4296 123.22 9.55965 122.56 8.89965C121.9 8.23965 121.03 7.87965 120.1 7.87965H11.26C9.33001 7.87965 7.76 9.44965 7.75 11.3696L7.71997 18.3996H83.4501C84.0001 18.3996 84.4501 18.8497 84.4501 19.3997C84.4501 19.9497 84.0001 20.3997 83.4501 20.3997H6.70996C6.43996 20.3997 6.19 20.2896 6 20.1096C5.81 19.9197 5.70996 19.6697 5.70996 19.3997L5.73999 11.3696C5.74999 8.34965 8.22 5.88965 11.25 5.88965H120.09C121.56 5.88965 122.93 6.45965 123.97 7.49965C125 8.53965 125.57 9.91965 125.56 11.3796L125.53 19.4096C125.53 19.9596 125.08 20.4096 124.53 20.4096L124.54 20.3896Z" fill="#2F3F64"/>
<path d="M109.06 85.1104H31.8496C29.6396 85.1104 27.8496 83.3204 27.8496 81.1104V32.9404C27.8496 32.3904 28.2996 31.9404 28.8496 31.9404C29.3996 31.9404 29.8496 32.3904 29.8496 32.9404V81.1104C29.8496 82.2104 30.7496 83.1104 31.8496 83.1104H109.06C109.61 83.1104 110.06 83.5604 110.06 84.1104C110.06 84.6604 109.61 85.1104 109.06 85.1104Z" fill="#2F3F64"/>
<path d="M49.3 32.9404H37.25C35.8914 32.9404 34.79 34.0418 34.79 35.4004V38.6404C34.79 39.9991 35.8914 41.1004 37.25 41.1004H49.3C50.6587 41.1004 51.76 39.9991 51.76 38.6404V35.4004C51.76 34.0418 50.6587 32.9404 49.3 32.9404Z" fill="#BCC5DC"/>
<path d="M49.29 42.1002H37.25C35.34 42.1002 33.79 40.5502 33.79 38.6402V35.4102C33.79 33.5002 35.34 31.9502 37.25 31.9502H49.29C51.2 31.9502 52.75 33.5002 52.75 35.4102V38.6402C52.75 40.5502 51.2 42.1002 49.29 42.1002ZM37.25 33.9402C36.44 33.9402 35.79 34.6002 35.79 35.4002V38.6302C35.79 39.4402 36.45 40.0902 37.25 40.0902H49.29C50.1 40.0902 50.75 39.4302 50.75 38.6302V35.4002C50.75 34.5902 50.09 33.9402 49.29 33.9402H37.25Z" fill="#2F3F64"/>
<path d="M81.0698 44.8096H55.1798C53.291 44.8096 51.7598 46.3408 51.7598 48.2296V49.5496C51.7598 51.4384 53.291 52.9696 55.1798 52.9696H81.0698C82.9586 52.9696 84.4897 51.4384 84.4897 49.5496V48.2296C84.4897 46.3408 82.9586 44.8096 81.0698 44.8096Z" fill="#BCC5DC"/>
<path d="M81.0601 53.9696H55.17C52.73 53.9696 50.75 51.9896 50.75 49.5496V48.2296C50.75 45.7896 52.73 43.8096 55.17 43.8096H81.0601C83.5001 43.8096 85.48 45.7896 85.48 48.2296V49.5496C85.48 51.9896 83.5001 53.9696 81.0601 53.9696ZM55.1801 45.8096C53.8501 45.8096 52.76 46.8996 52.76 48.2296V49.5496C52.76 50.8796 53.8501 51.9696 55.1801 51.9696H81.0701C82.4001 51.9696 83.49 50.8796 83.49 49.5496V48.2296C83.49 46.8996 82.4001 45.8096 81.0701 45.8096H55.1801Z" fill="#2F3F64"/>
<path d="M65.0706 57.6504H45.0706C43.3861 57.6504 42.0205 59.0159 42.0205 60.7004V62.7604C42.0205 64.4449 43.3861 65.8104 45.0706 65.8104H65.0706C66.755 65.8104 68.1205 64.4449 68.1205 62.7604V60.7004C68.1205 59.0159 66.755 57.6504 65.0706 57.6504Z" fill="#2F3F64"/>
<path d="M65.0703 66.8102H45.0803C42.8403 66.8102 41.0303 64.9902 41.0303 62.7602V60.7102C41.0303 58.4702 42.8503 56.6602 45.0803 56.6602H65.0703C67.3103 56.6602 69.1202 58.4802 69.1202 60.7102V62.7602C69.1202 65.0002 67.3003 66.8102 65.0703 66.8102ZM45.0803 58.6502C43.9503 58.6502 43.0303 59.5702 43.0303 60.7002V62.7502C43.0303 63.8802 43.9503 64.8002 45.0803 64.8002H65.0703C66.2003 64.8002 67.1202 63.8802 67.1202 62.7502V60.7002C67.1202 59.5702 66.2003 58.6502 65.0703 58.6502H45.0803Z" fill="#2F3F64"/>
<path d="M105.23 70.4795H71.9502C69.8349 70.4795 68.1201 72.1942 68.1201 74.3095V74.8095C68.1201 76.9247 69.8349 78.6395 71.9502 78.6395H105.23C107.345 78.6395 109.06 76.9247 109.06 74.8095V74.3095C109.06 72.1942 107.345 70.4795 105.23 70.4795Z" fill="#FEC95C"/>
<path d="M105.23 79.6397H71.9404C69.2804 79.6397 67.1104 77.4697 67.1104 74.8097V74.2997C67.1104 71.6397 69.2804 69.4697 71.9404 69.4697H105.23C107.89 69.4697 110.06 71.6397 110.06 74.2997V74.8097C110.06 77.4697 107.89 79.6397 105.23 79.6397ZM71.9504 71.4797C70.3904 71.4797 69.1204 72.7497 69.1204 74.3097V74.8197C69.1204 76.3797 70.3904 77.6497 71.9504 77.6497H105.24C106.8 77.6497 108.07 76.3797 108.07 74.8197V74.3097C108.07 72.7497 106.8 71.4797 105.24 71.4797H71.9504Z" fill="#2F3F64"/>
</svg>
