<svg width="129" height="102" viewBox="0 0 129 102" fill="none" xmlns="http://www.w3.org/2000/svg">
<g clip-path="url(#clip0_305_2)">
<path fill-rule="evenodd" clip-rule="evenodd" d="M115.35 5.69V69.13C115.35 71.72 113.25 73.82 110.66 73.82H5.68C3.1 73.82 1 71.72 1 69.13V5.69C1 3.1 3.1 1 5.68 1H110.66C113.25 1 115.35 3.1 115.35 5.69Z" fill="white"/>
<path d="M111.06 74.83H5.28C2.37 74.83 0 72.28 0 69.14V5.69C0 2.55 2.37 0 5.28 0H111.06C113.98 0 116.35 2.55 116.35 5.69V42.56C116.35 43.11 115.9 43.56 115.35 43.56C114.8 43.56 114.35 43.11 114.35 42.56V5.69C114.35 3.65 112.87 2 111.06 2H5.28C3.47 2 2 3.66 2 5.69V69.14C2 71.18 3.47 72.83 5.28 72.83H111.06C112.87 72.83 114.35 71.17 114.35 69.14V64.62C114.35 64.07 114.8 63.62 115.35 63.62C115.9 63.62 116.35 64.07 116.35 64.62V69.14C116.35 72.28 113.98 74.83 111.06 74.83Z" fill="#2F3F64"/>
<path d="M125.08 64.96H88.3396C86.9644 64.96 85.8496 66.0748 85.8496 67.45V98.17C85.8496 99.5452 86.9644 100.66 88.3396 100.66H125.08C126.455 100.66 127.57 99.5452 127.57 98.17V67.45C127.57 66.0748 126.455 64.96 125.08 64.96Z" fill="#FEC95C"/>
<path d="M124.82 101.65H88.5796C86.5196 101.65 84.8496 99.9802 84.8496 97.9202V67.6902C84.8496 65.6302 86.5296 63.9502 88.5796 63.9502H118.99C119.54 63.9502 119.99 64.4002 119.99 64.9502C119.99 65.5002 119.54 65.9502 118.99 65.9502H88.5796C87.6196 65.9502 86.8496 66.7302 86.8496 67.6902V97.9202C86.8496 98.8802 87.6296 99.6502 88.5796 99.6502H124.82C125.79 99.6502 126.57 98.8602 126.57 97.9002V73.9702C126.57 73.4202 127.02 72.9702 127.57 72.9702C128.12 72.9702 128.57 73.4202 128.57 73.9702V97.9002C128.57 99.9702 126.89 101.65 124.82 101.65Z" fill="#2F3F64"/>
<path d="M115.35 65.9598C114.8 65.9598 114.35 65.5098 114.35 64.9598V58.7698C114.35 53.9398 110.42 50.0098 105.59 50.0098C100.76 50.0098 96.8301 53.9398 96.8301 58.7698V64.9598C96.8301 65.5098 96.3801 65.9598 95.8301 65.9598C95.2801 65.9598 94.8301 65.5098 94.8301 64.9598V58.7698C94.8301 52.8398 99.6601 48.0098 105.59 48.0098C111.52 48.0098 116.35 52.8398 116.35 58.7698V64.9598C116.35 65.5098 115.9 65.9598 115.35 65.9598Z" fill="#2F3F64"/>
<path d="M111.1 78.3597C111.1 75.7697 108.86 73.6997 106.21 73.9997C104.23 74.2197 102.61 75.8097 102.36 77.7897C102.09 79.9497 103.38 81.8397 105.26 82.4997V86.7497C105.26 87.3997 105.79 87.9197 106.43 87.9197H106.99C107.64 87.9197 108.16 87.3897 108.16 86.7497V82.4997C109.87 81.8997 111.09 80.2797 111.09 78.3597H111.1Z" fill="#2F3F64"/>
<path d="M21.81 16.0803C21.46 15.4403 20.98 14.9603 20.37 14.6203C19.76 14.2903 19.05 14.1203 18.24 14.1203C17.34 14.1203 16.54 14.3203 15.85 14.7303C15.15 15.1403 14.61 15.7203 14.22 16.4703C13.83 17.2203 13.63 18.0903 13.63 19.0803C13.63 20.0703 13.83 20.9803 14.23 21.7403C14.63 22.4903 15.18 23.0703 15.9 23.4803C16.61 23.8903 17.44 24.0903 18.38 24.0903C19.54 24.0903 20.49 23.7803 21.23 23.1603C21.97 22.5403 22.46 21.6803 22.69 20.5803H17.47V18.2503H25.7V20.9003C25.5 21.9603 25.06 22.9403 24.39 23.8403C23.72 24.7403 22.86 25.4603 21.81 26.0103C20.76 26.5503 19.58 26.8303 18.27 26.8303C16.8 26.8303 15.48 26.5003 14.3 25.8403C13.12 25.1803 12.19 24.2603 11.51 23.0903C10.84 21.9103 10.5 20.5803 10.5 19.0903C10.5 17.6003 10.84 16.2603 11.51 15.0703C12.18 13.8903 13.11 12.9703 14.3 12.3103C15.48 11.6503 16.8 11.3203 18.25 11.3203C19.96 11.3203 21.45 11.7403 22.71 12.5703C23.97 13.4003 24.84 14.5803 25.32 16.0803H21.82H21.81Z" fill="#2F3F64"/>
<path d="M54.05 18.5007C53.67 19.2107 53.06 19.7807 52.24 20.2207C51.42 20.6607 50.39 20.8707 49.14 20.8707H46.59V26.7007H43.54V11.5107H49.13C50.31 11.5107 51.31 11.7107 52.13 12.1207C52.95 12.5307 53.58 13.0807 53.99 13.8007C54.4 14.5207 54.61 15.3207 54.61 16.2207C54.61 17.0307 54.42 17.7907 54.03 18.5107L54.05 18.5007ZM50.89 17.8307C51.3 17.4507 51.5 16.9107 51.5 16.2107C51.5 14.7307 50.67 13.9907 49.02 13.9907H46.6V18.4107H49.02C49.86 18.4107 50.49 18.2207 50.89 17.8307Z" fill="#2F3F64"/>
<path d="M37.5005 12.4505C38.7105 13.0705 39.6505 13.9605 40.3105 15.1205C40.9705 16.2705 41.3005 17.6105 41.3005 19.1405C41.3005 20.6705 40.9705 21.9905 40.3105 23.1305C39.6505 24.2705 38.7105 25.1505 37.5005 25.7705C36.2905 26.3905 34.8805 26.7105 33.2905 26.7105H27.9805V11.5205H33.2905C34.8905 11.5205 36.2905 11.8305 37.5005 12.4605V12.4505ZM36.8805 22.8105C37.7505 21.9405 38.1905 20.7105 38.1905 19.1305C38.1905 17.5505 37.7505 16.3105 36.8805 15.4205C36.0105 14.5305 34.7805 14.0805 33.1805 14.0805H31.0305V24.1105H33.1805C34.7805 24.1105 36.0105 23.6705 36.8805 22.8005V22.8105Z" fill="#2F3F64"/>
<path d="M64.6203 26.7007L61.2703 20.7807H59.8303V26.7007H56.7803V11.5107H62.4803C63.6603 11.5107 64.6603 11.7207 65.4803 12.1307C66.3103 12.5407 66.9303 13.1007 67.3403 13.8107C67.7503 14.5107 67.9603 15.3007 67.9603 16.1707C67.9603 17.1707 67.6703 18.0707 67.0903 18.8807C66.5103 19.6907 65.6503 20.2407 64.5003 20.5407L68.1303 26.7007H64.6003H64.6203ZM59.8303 18.5007H62.3803C63.2103 18.5007 63.8203 18.3007 64.2303 17.9007C64.6403 17.5007 64.8403 16.9507 64.8403 16.2307C64.8403 15.5107 64.6403 14.9907 64.2303 14.6107C63.8203 14.2307 63.2103 14.0307 62.3803 14.0307H59.8303V18.4907V18.5007Z" fill="#2F3F64"/>
<path d="M88.6698 32.1699H13.1298C12.097 32.1699 11.2598 33.0072 11.2598 34.0399V36.7599C11.2598 37.7927 12.097 38.6299 13.1298 38.6299H88.6698C89.7025 38.6299 90.5398 37.7927 90.5398 36.7599V34.0399C90.5398 33.0072 89.7025 32.1699 88.6698 32.1699Z" fill="#BCC5DC"/>
<path d="M90.54 46.0195H12.25C11.7 46.0195 11.25 45.5695 11.25 45.0195C11.25 44.4695 11.7 44.0195 12.25 44.0195H90.53C91.08 44.0195 91.53 44.4695 91.53 45.0195C91.53 45.5695 91.08 46.0195 90.53 46.0195H90.54Z" fill="#BCC5DC"/>
<path d="M90.54 51.8203H12.25C11.7 51.8203 11.25 51.3703 11.25 50.8203C11.25 50.2703 11.7 49.8203 12.25 49.8203H90.53C91.08 49.8203 91.53 50.2703 91.53 50.8203C91.53 51.3703 91.08 51.8203 90.53 51.8203H90.54Z" fill="#BCC5DC"/>
<path d="M90.54 57.6201H12.25C11.7 57.6201 11.25 57.1701 11.25 56.6201C11.25 56.0701 11.7 55.6201 12.25 55.6201H90.53C91.08 55.6201 91.53 56.0701 91.53 56.6201C91.53 57.1701 91.08 57.6201 90.53 57.6201H90.54Z" fill="#BCC5DC"/>
<path d="M55.1 63.4102H12.25C11.7 63.4102 11.25 62.9602 11.25 62.4102C11.25 61.8602 11.7 61.4102 12.25 61.4102H55.1C55.65 61.4102 56.1 61.8602 56.1 62.4102C56.1 62.9602 55.65 63.4102 55.1 63.4102Z" fill="#BCC5DC"/>
</g>
<defs>
<clipPath id="clip0_305_2">
<rect width="128.57" height="101.65" fill="white"/>
</clipPath>
</defs>
</svg>
