<svg width="76" height="74" viewBox="0 0 76 74" fill="none" xmlns="http://www.w3.org/2000/svg">
<g id="gear">
<g id="Group">
<path id="Vector" fill-rule="evenodd" clip-rule="evenodd" d="M71.3702 31.79H69.5202C68.2602 31.79 67.1703 30.93 66.8603 29.72C66.1403 26.88 65.0102 24.21 63.5202 21.76C62.8702 20.69 63.0203 19.32 63.9203 18.44L65.2303 17.15C66.3003 16.1 66.3003 14.38 65.2303 13.32L61.8903 10.01C60.8103 8.94001 59.0702 8.93004 57.9902 9.98004L56.6703 11.27C55.7703 12.15 54.3702 12.29 53.2802 11.64C50.7902 10.15 48.0502 9.01003 45.1502 8.28003C43.9102 7.97003 43.0302 6.88001 43.0302 5.63001V3.79004C43.0302 2.29004 41.7902 1.06004 40.2502 1.04004L35.4702 1.00006C33.9302 0.990062 32.6802 2.20001 32.6802 3.70001V5.54004C32.6802 6.80004 31.8002 7.87004 30.5502 8.17004C27.6202 8.86004 24.8603 9.98 22.3303 11.44C21.2203 12.08 19.8002 11.92 18.8802 11.02L17.5403 9.70001C16.4403 8.62001 14.6602 8.61004 13.5602 9.67004L10.1403 12.98C9.04026 14.05 9.04026 15.78 10.1403 16.86L11.4902 18.1801C12.4102 19.0801 12.5702 20.46 11.9002 21.55C10.3702 24.02 9.20024 26.72 8.47025 29.6C8.16025 30.83 7.03026 31.7 5.73026 31.69H3.82025C2.26025 31.69 0.990234 32.9201 0.990234 34.4301V39.15C0.990234 40.67 2.26025 41.9 3.82025 41.9H5.73026C7.03026 41.9 8.15025 42.7601 8.47025 43.9901C9.21025 46.8601 10.3702 49.57 11.9002 52.04C12.5702 53.12 12.4102 54.51 11.4902 55.41L10.1403 56.73C9.04026 57.81 9.04026 59.54 10.1403 60.61L13.5602 63.92C14.6602 64.98 16.4403 64.97 17.5403 63.89L18.8802 62.57C19.8002 61.67 21.2103 61.51 22.3303 62.15C24.8603 63.62 27.6202 64.73 30.5502 65.42C31.8002 65.72 32.6802 66.79 32.6802 68.05V69.89C32.6802 71.4 33.9302 72.61 35.4702 72.59L40.2502 72.55C41.7902 72.54 43.0302 71.3101 43.0302 69.8V67.96C43.0302 66.71 43.9102 65.6201 45.1502 65.3101C48.0602 64.5801 50.7902 63.44 53.2802 61.95C54.3702 61.3 55.7703 61.44 56.6703 62.32L57.9902 63.61C59.0702 64.66 60.8103 64.65 61.8903 63.58L65.2303 60.27C66.3003 59.21 66.3003 57.49 65.2303 56.44L63.9203 55.15C63.0203 54.27 62.8702 52.9 63.5202 51.83C65.0102 49.38 66.1503 46.7101 66.8603 43.8701C67.1703 42.6601 68.2502 41.8 69.5202 41.8H71.3702C72.8802 41.8 74.1103 40.58 74.1103 39.09V34.45C74.1103 32.96 72.8802 31.7501 71.3702 31.7401V31.79Z" fill="#BCC5DC"/>
<path id="Vector_2" d="M35.44 73.6299C34.43 73.6299 33.48 73.24 32.77 72.54C32.07 71.84 31.68 70.92 31.68 69.93V68.09C31.68 67.3 31.12 66.62 30.32 66.43C27.33 65.72 24.47 64.59 21.83 63.05C21.1 62.63 20.18 62.74 19.59 63.31L18.25 64.6299C16.77 66.0799 14.36 66.09 12.87 64.66L9.45001 61.35C8.72001 60.65 8.32001 59.71 8.32001 58.71C8.32001 57.7 8.72001 56.75 9.45001 56.04L10.8 54.72C11.38 54.16 11.48 53.28 11.06 52.59C9.46 50 8.26001 47.1999 7.51001 44.2599C7.31001 43.4699 6.57999 42.92 5.73999 42.92H3.83002C2.81002 42.92 1.85 42.53 1.13 41.84C0.400005 41.13 0 40.19 0 39.18V34.46C0 33.47 0.389996 32.54 1.09 31.84C1.82 31.11 2.81002 30.71 3.83002 30.72H5.73999C6.57999 30.72 7.30001 30.1699 7.51001 29.3799C8.26001 26.4499 9.46 23.65 11.06 21.05C11.49 20.36 11.38 19.49 10.8 18.92L9.45001 17.6C8.72001 16.89 8.32001 15.94 8.32001 14.93C8.32001 13.93 8.72001 12.99 9.45001 12.28L12.87 8.96997C14.35 7.52997 16.76 7.55 18.24 9L19.58 10.3199C20.17 10.8999 21.09 11.01 21.82 10.58C24.47 9.03996 27.32 7.90995 30.31 7.19995C31.11 7.00995 31.67 6.32998 31.67 5.53998V3.69995C31.67 2.70995 32.06 1.78997 32.76 1.08997C33.47 0.379966 34.42 0 35.43 0H35.46L40.24 0.039978C42.32 0.059978 44.01 1.73998 44.01 3.78998V5.62994C44.01 6.41994 44.57 7.11 45.37 7.31C48.33 8.05 51.16 9.21997 53.77 10.78C54.48 11.2 55.38 11.11 55.95 10.55L57.27 9.25995C58.73 7.82995 61.11 7.83998 62.57 9.28998L65.91 12.6C66.62 13.31 67.01 14.24 67.01 15.24C67.01 16.23 66.61 17.16 65.91 17.85L64.6 19.14C64.04 19.69 63.94 20.55 64.36 21.23C65.92 23.8 67.09 26.57 67.82 29.47C68.02 30.24 68.71 30.79 69.51 30.79H71.36C73.42 30.79 75.1 32.46 75.1 34.5V39.14C75.1 41.18 73.42 42.84 71.36 42.85H69.51C68.71 42.85 68.01 43.39 67.82 44.17C67.09 47.07 65.92 49.84 64.36 52.41C63.94 53.09 64.04 53.95 64.6 54.5L65.91 55.79C66.62 56.49 67.01 57.41 67.01 58.4C67.01 59.4 66.62 60.33 65.91 61.04L62.57 64.35C61.11 65.8 58.73 65.8099 57.27 64.3799L55.95 63.09C55.38 62.53 54.48 62.44 53.77 62.86C51.15 64.42 48.33 65.59 45.37 66.33C44.57 66.53 44.01 67.2199 44.01 68.0099V69.85C44.01 71.9 42.32 73.58 40.24 73.6L35.46 73.64H35.43L35.44 73.6299ZM20.87 60.79C21.54 60.79 22.21 60.96 22.82 61.31C25.3 62.75 27.97 63.81 30.77 64.48C32.48 64.88 33.67 66.37 33.67 68.08V69.92C33.67 70.37 33.85 70.79 34.17 71.11C34.51 71.44 34.95 71.59 35.45 71.62L40.23 71.58C41.22 71.58 42.02 70.79 42.02 69.83V67.99C42.02 66.28 43.2 64.79 44.9 64.37C47.67 63.67 50.32 62.58 52.76 61.12C54.25 60.23 56.14 60.4399 57.36 61.6299L58.68 62.92C59.37 63.59 60.49 63.58 61.17 62.9L64.51 59.59C64.84 59.26 65.02 58.8299 65.02 58.3799C65.02 57.9299 64.84 57.5099 64.52 57.1899L63.21 55.9C61.98 54.7 61.76 52.82 62.66 51.34C64.12 48.95 65.2 46.36 65.89 43.66C66.31 42 67.8 40.84 69.52 40.83H71.37C72.33 40.83 73.11 40.06 73.11 39.12V34.48C73.11 33.54 72.33 32.78 71.37 32.77H69.52C67.8 32.77 66.31 31.5999 65.89 29.9399C65.21 27.2399 64.12 24.6499 62.66 22.2599C61.76 20.7799 61.98 18.9 63.21 17.7L64.52 16.41C64.84 16.09 65.02 15.67 65.02 15.22C65.02 14.76 64.84 14.3299 64.51 14.0099L61.17 10.7C60.48 10.02 59.36 10.01 58.68 10.68L57.36 11.97C56.14 13.16 54.25 13.37 52.76 12.49C50.31 11.03 47.67 9.93999 44.9 9.23999C43.21 8.80999 42.02 7.31999 42.02 5.62V3.77997C42.02 2.81997 41.22 2.03997 40.23 2.02997L35.45 1.98999C34.99 1.95999 34.51 2.17 34.17 2.5C33.85 2.82 33.67 3.23994 33.67 3.68994V5.52997C33.67 7.24997 32.48 8.72994 30.77 9.12994C27.97 9.78994 25.3 10.86 22.82 12.3C21.31 13.17 19.4 12.94 18.17 11.73L16.83 10.41C16.12 9.70997 14.96 9.69995 14.25 10.39L10.83 13.7C10.5 14.02 10.31 14.45 10.31 14.91C10.31 15.37 10.5 15.81 10.84 16.14L12.19 17.46C13.44 18.68 13.67 20.5799 12.75 22.0699C11.25 24.4899 10.14 27.1 9.44 29.84C9.01 31.52 7.48999 32.6899 5.73999 32.6899H3.82001C3.32001 32.6899 2.85 32.88 2.5 33.23C2.17 33.56 1.98999 33.9799 1.98999 34.4399V39.16C1.98999 39.62 2.17999 40.0599 2.51999 40.3799C2.86999 40.7199 3.33001 40.9 3.82001 40.9H5.73001C7.48001 40.9 9.01 42.07 9.44 43.75C10.14 46.49 11.26 49.1 12.75 51.52C13.67 53.01 13.44 54.8999 12.19 56.1299L10.84 57.45C10.5 57.78 10.31 58.22 10.31 58.68C10.31 59.14 10.5 59.57 10.83 59.89L14.25 63.2C14.96 63.8899 16.12 63.88 16.83 63.18L18.17 61.86C18.9 61.14 19.88 60.77 20.86 60.77L20.87 60.79Z" fill="#2F3F64"/>
</g>
<path id="Vector_3" fill-rule="evenodd" clip-rule="evenodd" d="M19.1201 36.8204C19.1201 46.9904 27.3701 55.2404 37.5401 55.2404C47.7101 55.2404 55.9601 46.9904 55.9601 36.8204C55.9601 33.8704 55.2701 31.0804 54.0401 28.6104C53.4801 27.4904 52.8101 26.4304 52.0401 25.4504C50.8401 23.9304 49.4101 22.6004 47.8001 21.5104C44.8701 19.5404 41.3401 18.4004 37.5501 18.4004C27.3801 18.4004 19.1301 26.6504 19.1301 36.8204H19.1201Z" fill="white"/>
<path id="Vector_4" d="M37.5401 56.2404C26.8301 56.2404 18.1201 47.5304 18.1201 36.8204C18.1201 26.1104 26.8301 17.4004 37.5401 17.4004C41.4101 17.4004 45.1501 18.5404 48.3501 20.6804C48.8101 20.9904 48.9301 21.6104 48.6201 22.0704C48.3101 22.5304 47.6901 22.6504 47.2301 22.3404C44.3601 20.4104 41.0101 19.4004 37.5301 19.4004C27.9201 19.4004 20.1101 27.2204 20.1101 36.8204C20.1101 46.4204 27.9201 54.2404 37.5301 54.2404C47.1401 54.2404 54.9501 46.4204 54.9501 36.8204C54.9501 36.2704 55.4001 35.8204 55.9501 35.8204C56.5001 35.8204 56.9501 36.2704 56.9501 36.8204C56.9501 47.5304 48.2401 56.2404 37.5301 56.2404H37.5401Z" fill="#2F3F64"/>
</g>
</svg>
