<svg width="98" height="95" viewBox="0 0 98 95" fill="none" xmlns="http://www.w3.org/2000/svg">
<g clip-path="url(#clip0_202_725)">
<mask id="mask0_202_725" style="mask-type:luminance" maskUnits="userSpaceOnUse" x="0" y="-1" width="98" height="96">
<path d="M98 -0.000976562H0V94.7859H98V-0.000976562Z" fill="white"/>
</mask>
<g mask="url(#mask0_202_725)">
<path d="M28.2819 93.5933H1.19238V88.814L12.2672 79.144C13.3189 78.22 14.1475 77.0889 14.8805 75.8941C18.7209 69.6969 25.3658 58.5612 34.6559 58.5612C44.2168 58.5771 50.5908 61.7634 50.5908 61.7634H64.9322C68.422 61.7634 71.2743 64.599 71.2902 68.1039H71.3063L87.8148 59.3419C90.4441 57.94 93.6948 58.4179 95.8141 60.5367C96.5152 61.2376 96.8819 62.2094 96.7863 63.1971C96.7066 64.1848 96.1807 65.077 95.368 65.6505L70.3023 83.1107C67.928 84.7517 65.1075 85.6279 62.2233 85.6279H38.1296C35.9466 85.6279 33.891 86.6156 32.5206 88.3201L28.2819 93.5933Z" fill="white"/>
<path d="M53.7836 26.6827C53.7836 32.848 58.7712 37.8342 64.9381 37.8342C71.1049 37.8342 76.0926 32.848 76.0926 26.6827C76.0926 20.5175 71.1049 15.5311 64.9381 15.5311C58.7712 15.5311 53.7836 20.5334 53.7836 26.6827ZM64.9381 47.3929C63.6792 47.3929 62.4523 47.2813 61.2571 47.0583L57.0661 51.5986C56.4926 52.2039 55.5683 52.3474 54.8352 51.9332L47.9513 47.9983C47.2184 47.5681 46.8838 46.7079 47.1387 45.8953L49.019 39.9372C47.5052 38.1051 46.2941 36.0182 45.4655 33.7401L39.2669 32.37C38.4382 32.1947 37.8486 31.462 37.8486 30.6176V22.7477C37.8486 21.9035 38.4382 21.1706 39.2669 20.9953L45.4655 19.6254C46.2941 17.3471 47.5052 15.2602 49.019 13.4282L47.1387 7.47002C46.8838 6.65754 47.2184 5.79728 47.9513 5.36714L54.8352 1.43221C55.5683 1.018 56.4926 1.16138 57.0661 1.76676L61.2571 6.30707C62.4523 6.08403 63.6792 5.97252 64.9381 5.97252C66.197 5.97252 67.4239 6.08403 68.619 6.30707L72.8099 1.76676C73.3836 1.16138 74.3078 1.018 75.0408 1.43221L81.9247 5.36714C82.6578 5.79728 82.9924 6.65754 82.7375 7.47002L80.8571 13.4282C82.3708 15.2602 83.582 17.3471 84.4105 19.6254L90.6093 20.9953C91.4379 21.1706 92.0275 21.9035 92.0275 22.7477V30.6176C92.0275 31.462 91.4379 32.1947 90.6093 32.37L84.4105 33.7401C83.582 36.0182 82.3708 38.1051 80.8571 39.9372L82.7375 45.8953C82.9924 46.7079 82.6578 47.5681 81.9247 47.9983L75.0408 51.9332C74.3078 52.3474 73.3836 52.2039 72.8099 51.5986L68.619 47.0583C67.4239 47.2813 66.197 47.3929 64.9381 47.3929Z" fill="#FEC95C"/>
<path d="M64.9336 39.0278C58.1234 39.0278 52.584 33.4899 52.584 26.6814C52.584 19.873 58.1234 14.335 64.9336 14.335C71.7438 14.335 77.2832 19.873 77.2832 26.6814C77.2832 33.4899 71.7438 39.0278 64.9336 39.0278ZM64.9336 16.7246C59.4419 16.7246 54.9742 21.1912 54.9742 26.6814C54.9742 32.1715 59.4419 36.6382 64.9336 36.6382C70.4251 36.6382 74.8928 32.1715 74.8928 26.6814C74.8928 21.1912 70.4251 16.7246 64.9336 16.7246Z" fill="#2F3F64"/>
<path d="M80.8521 41.1339C80.5832 41.1339 80.3142 41.0443 80.0913 40.8611C79.5833 40.4408 79.5095 39.6882 79.9319 39.1784C81.3839 37.42 82.5133 35.4525 83.2841 33.3337C83.5092 32.7144 84.1944 32.3938 84.8158 32.6188C85.4353 32.8439 85.756 33.5309 85.5309 34.1502C84.6666 36.5258 83.4037 38.7303 81.7764 40.6998C81.5392 40.9866 81.1987 41.1339 80.8541 41.1339H80.8521Z" fill="#2F3F64"/>
<path d="M49.0166 41.1321C48.6721 41.1321 48.3314 40.9848 48.0944 40.698C46.4671 38.7285 45.2042 36.5242 44.3397 34.1484C44.1147 33.5291 44.4334 32.8421 45.0548 32.617C45.6762 32.3921 46.3614 32.7107 46.5865 33.3319C47.3575 35.4508 48.4848 37.4182 49.9389 39.1766C50.3592 39.6844 50.2875 40.4392 49.7795 40.8593C49.5564 41.0426 49.2876 41.1321 49.0187 41.1321H49.0166Z" fill="#2F3F64"/>
<path d="M68.6174 7.50103C68.5436 7.50103 68.4701 7.49506 68.3963 7.48111C66.1614 7.06492 63.7074 7.06492 61.4725 7.48111C60.8232 7.60258 60.1998 7.17445 60.0782 6.52526C59.9568 5.87608 60.3851 5.25278 61.0344 5.13131C63.558 4.65935 66.3109 4.65935 68.8346 5.13131C69.484 5.25278 69.9102 5.87608 69.7907 6.52526C69.683 7.10076 69.1811 7.50103 68.6174 7.50103Z" fill="#2F3F64"/>
<path d="M45.4628 20.8219C45.3274 20.8219 45.19 20.7981 45.0546 20.7503C44.4351 20.5253 44.1145 19.8403 44.3395 19.2189C45.204 16.8433 46.4668 14.6388 48.0942 12.6694C48.5145 12.1616 49.2673 12.0899 49.7772 12.51C50.2852 12.9302 50.359 13.683 49.9366 14.1927C48.4825 15.9511 47.3552 17.9185 46.5844 20.0374C46.407 20.5233 45.949 20.824 45.4609 20.824L45.4628 20.8219Z" fill="#2F3F64"/>
<path d="M64.9338 48.5882C63.6073 48.5882 62.2946 48.4687 61.0338 48.2336C60.3844 48.1122 59.9582 47.489 60.0777 46.8398C60.1992 46.1906 60.8227 45.7624 61.472 45.8839C63.7069 46.3001 66.1609 46.3001 68.3958 45.8839C69.0452 45.7624 69.6685 46.1906 69.7901 46.8398C69.9116 47.489 69.4833 48.1122 68.8339 48.2336C67.5731 48.4687 66.2605 48.5882 64.9338 48.5882Z" fill="#2F3F64"/>
<path d="M84.4068 20.823C83.9188 20.823 83.4606 20.5222 83.2834 20.0364C82.5125 17.9175 81.3851 15.9501 79.931 14.1918C79.5107 13.682 79.5825 12.9292 80.0903 12.5091C80.5983 12.0889 81.3533 12.1606 81.7735 12.6684C83.4008 14.6378 84.6637 16.8423 85.5282 19.218C85.7533 19.8372 85.4346 20.5243 84.8131 20.7492C84.6777 20.799 84.5402 20.8211 84.4048 20.8211L84.4068 20.823Z" fill="#2F3F64"/>
<path d="M45.4624 34.9372C45.3767 34.9372 45.2911 34.9273 45.2035 34.9094L39.0048 33.5394C37.6444 33.2526 36.6504 32.0239 36.6504 30.6201V22.7502C36.6504 21.3482 37.6463 20.1196 39.0167 19.8288L45.2055 18.4607C45.8489 18.3193 46.4883 18.7256 46.6297 19.3689C46.7731 20.0141 46.3648 20.6512 45.7213 20.7926L39.5226 22.1627C39.2398 22.2225 39.0406 22.4675 39.0406 22.7481V30.618C39.0406 30.8988 39.2378 31.1438 39.5107 31.2015L45.7194 32.5735C46.3648 32.717 46.7711 33.3541 46.6276 33.9974C46.5042 34.555 46.0102 34.9353 45.4624 34.9353V34.9372Z" fill="#2F3F64"/>
<path d="M55.7309 53.367C55.223 53.367 54.711 53.2375 54.245 52.9747L47.3551 49.0378C46.1282 48.3189 45.5744 46.8831 45.9947 45.541L47.875 39.5808C48.0742 38.9515 48.7435 38.6031 49.3749 38.8002C50.0043 38.9994 50.3529 39.6705 50.1556 40.2998L48.2753 46.2578C48.1878 46.5347 48.2993 46.8214 48.5542 46.9708L55.4261 50.8997C55.6711 51.0391 55.9979 50.9893 56.1971 50.7803L60.378 46.2519C60.8261 45.768 61.581 45.7362 62.0671 46.1843C62.551 46.6322 62.583 47.3869 62.1348 47.8729L57.9439 52.4132C57.3484 53.0425 56.5456 53.369 55.733 53.369L55.7309 53.367Z" fill="#2F3F64"/>
<path d="M74.1315 53.3659C73.3209 53.3659 72.524 53.0414 71.9365 52.42L67.7357 47.8678C67.2874 47.382 67.3194 46.6272 67.8033 46.1791C68.2895 45.7311 69.0444 45.7629 69.4924 46.2468L73.6833 50.7871C73.8706 50.9843 74.1972 51.034 74.4482 50.8926L81.3262 46.9598C81.5672 46.8184 81.6787 46.5295 81.5911 46.2508L79.7108 40.2946C79.5116 39.6653 79.8621 38.9943 80.4916 38.7951C81.121 38.596 81.7922 38.9464 81.9915 39.5757L83.8718 45.5339C84.294 46.8781 83.7383 48.3139 82.5253 49.0268L75.6295 52.9676C75.1594 53.2345 74.6434 53.3619 74.1335 53.3619L74.1315 53.3659Z" fill="#2F3F64"/>
<path d="M84.4087 34.937C83.8611 34.937 83.367 34.5567 83.2435 33.999C83.1002 33.3538 83.5084 32.7165 84.1519 32.5751L90.3506 31.2051C90.6333 31.1455 90.8326 30.9005 90.8326 30.6196V22.7498C90.8326 22.4691 90.6354 22.2241 90.3625 22.1664L84.1538 20.7943C83.5084 20.651 83.1021 20.0136 83.2456 19.3705C83.3889 18.7253 84.0264 18.319 84.6698 18.4623L90.8684 19.8324C92.2288 20.1192 93.2249 21.3479 93.2249 22.7519V30.6217C93.2249 32.0236 92.2288 33.2523 90.8584 33.5429L84.6698 34.9111C84.5821 34.931 84.4965 34.939 84.4108 34.939L84.4087 34.937Z" fill="#2F3F64"/>
<path d="M80.8561 14.6245C80.7366 14.6245 80.6151 14.6066 80.4956 14.5688C79.8661 14.3696 79.5175 13.6985 79.7148 13.0693L81.5951 7.1111C81.6827 6.83431 81.5712 6.54755 81.3162 6.39819L74.4443 2.46923C74.1993 2.32984 73.8726 2.37963 73.6733 2.58872L69.4924 7.11708C69.0444 7.60097 68.2895 7.63283 67.8033 7.18478C67.3194 6.73673 67.2874 5.982 67.7357 5.49611L71.9265 0.955798C72.8946 -0.0657705 74.4104 -0.294777 75.6234 0.392243L82.5133 4.32917C83.7404 5.04806 84.294 6.48382 83.8737 7.826L81.9934 13.7862C81.8321 14.2959 81.362 14.6225 80.854 14.6225L80.8561 14.6245Z" fill="#2F3F64"/>
<path d="M49.0153 14.6257C48.5073 14.6257 48.0372 14.2991 47.8759 13.7893L45.9956 7.83115C45.5733 6.48697 46.1291 5.05121 47.3442 4.3383L54.2379 0.397389C55.455 -0.291624 56.9728 -0.0626165 57.929 0.947005L62.1298 5.49926C62.5779 5.98515 62.5461 6.73988 62.062 7.18793C61.576 7.636 60.8211 7.60412 60.3729 7.12023L56.182 2.57992C55.9948 2.38278 55.6681 2.33299 55.4171 2.47439L48.5393 6.40732C48.2981 6.54871 48.1867 6.83547 48.2744 7.11425L50.1547 13.0704C50.3539 13.6997 50.0032 14.3708 49.3739 14.5699C49.2544 14.6078 49.1328 14.6257 49.0132 14.6257H49.0153Z" fill="#2F3F64"/>
<path d="M1.19513 90.0087C0.862492 90.0087 0.531841 89.8712 0.29481 89.6005C-0.139419 89.1026 -0.0876302 88.3479 0.408345 87.9138L11.4831 78.2437C12.3038 77.5208 13.0627 76.575 13.8634 75.2686L14.1662 74.7787C18.1957 68.2649 24.9383 57.3662 34.6565 57.3662C43.4129 57.3802 49.5258 59.9531 50.8604 60.5684H64.933C69.0781 60.5684 72.4683 63.9457 72.4861 68.0977V68.1356C72.4861 70.5511 70.5202 72.5165 68.1041 72.5165L44.2176 72.5006C43.5583 72.5006 43.0225 71.965 43.0225 71.3058C43.0225 70.6467 43.5583 70.111 44.2176 70.111L68.1041 70.1269C69.2195 70.1269 70.0959 69.2526 70.0959 68.1356V68.1036C70.084 65.2681 67.7675 62.958 64.933 62.958H50.5915C50.4062 62.958 50.2231 62.9141 50.0578 62.8325C49.998 62.8026 43.7912 59.7719 34.6546 59.756C26.2707 59.756 19.9645 69.9476 16.198 76.0373L15.8971 76.5231C14.9689 78.0346 14.0666 79.1537 13.0567 80.042L1.97994 89.7139C1.75285 89.911 1.474 90.0087 1.19513 90.0087Z" fill="#2F3F64"/>
<path d="M28.2849 94.7873C28.0219 94.7873 27.757 94.7017 27.5378 94.5245C27.0239 94.1103 26.9423 93.3596 27.3547 92.8437L31.5933 87.5707C33.1968 85.5753 35.5811 84.4323 38.1347 84.4323H62.2282C64.8874 84.4323 67.445 83.6357 69.628 82.1262L94.6898 64.6679C95.2157 64.2976 95.5503 63.7241 95.6001 63.0988C95.6618 62.4576 95.4327 61.8383 94.9745 61.3803C93.2198 59.6259 90.5706 59.2296 88.3834 60.3945L71.8729 69.1586C71.2913 69.4672 70.5662 69.2461 70.2575 68.6626C69.9487 68.0791 70.1699 67.3563 70.7534 67.0477L87.2621 58.2857C90.3814 56.6229 94.1619 57.1863 96.6677 59.6916C97.6337 60.6573 98.1137 61.9776 97.9842 63.3118C97.8787 64.6261 97.1797 65.8409 96.0662 66.6255L70.9946 84.0897C68.407 85.878 65.3793 86.8219 62.2322 86.8219H38.1385C36.314 86.8219 34.6089 87.6404 33.4617 89.0681L29.2229 94.3412C28.986 94.636 28.6414 94.7873 28.2908 94.7873H28.2849Z" fill="#2F3F64"/>
</g>
</g>
<defs>
<clipPath id="clip0_202_725">
<rect width="98" height="94.7869" fill="white"/>
</clipPath>
</defs>
</svg>
