<svg width="128" height="127" viewBox="0 0 128 127" fill="none" xmlns="http://www.w3.org/2000/svg">
<path fill-rule="evenodd" clip-rule="evenodd" d="M62.6902 85.9905V120.83C62.6902 122.22 61.5702 123.34 60.1802 123.34H4.03027C2.65027 123.34 1.53027 122.22 1.53027 120.83V85.9905C1.53027 84.6005 2.65027 83.4805 4.03027 83.4805H60.1802C61.5702 83.4805 62.6902 84.6005 62.6902 85.9905Z" fill="white"/>
<path d="M60.4003 124.34H3.82025C2.01025 124.34 0.530273 122.77 0.530273 120.83V85.9905C0.530273 84.0505 2.01025 82.4805 3.82025 82.4805H32.1702C32.7202 82.4805 33.1702 82.9305 33.1702 83.4805C33.1702 84.0305 32.7202 84.4805 32.1702 84.4805H3.82025C3.11025 84.4805 2.53027 85.1605 2.53027 85.9905V120.83C2.53027 121.66 3.11025 122.34 3.82025 122.34H60.4003C61.1103 122.34 61.6902 121.66 61.6902 120.83V85.9905C61.6902 85.1605 61.1103 84.4805 60.4003 84.4805H57.2103C56.6603 84.4805 56.2103 84.0305 56.2103 83.4805C56.2103 82.9305 56.6603 82.4805 57.2103 82.4805H60.4003C62.2203 82.4805 63.6902 84.0505 63.6902 85.9905V120.83C63.6902 122.77 62.2103 124.34 60.4003 124.34Z" fill="#2F3F64"/>
<path fill-rule="evenodd" clip-rule="evenodd" d="M42.7302 80.1503V86.8103C42.7302 87.2703 42.3602 87.6403 41.9002 87.6403H19.0302C18.5702 87.6403 18.2002 87.2703 18.2002 86.8103V80.1503C18.2002 79.6903 18.5702 79.3203 19.0302 79.3203H41.9002C42.3602 79.3203 42.7302 79.6903 42.7302 80.1503Z" fill="#BCC5DC"/>
<path d="M57.1198 92.25H35.9998C35.3149 92.25 34.7598 92.8052 34.7598 93.49V95.97C34.7598 96.6548 35.3149 97.21 35.9998 97.21H57.1198C57.8046 97.21 58.3597 96.6548 58.3597 95.97V93.49C58.3597 92.8052 57.8046 92.25 57.1198 92.25Z" fill="#BCC5DC"/>
<path d="M52.4797 101.28H35.9998C35.3149 101.28 34.7598 101.835 34.7598 102.52V105C34.7598 105.685 35.3149 106.24 35.9998 106.24H52.4797C53.1646 106.24 53.7197 105.685 53.7197 105V102.52C53.7197 101.835 53.1646 101.28 52.4797 101.28Z" fill="white"/>
<path d="M52.4799 106.79H35.9999C35.0099 106.79 34.21 105.99 34.21 105V102.52C34.21 101.53 35.0099 100.73 35.9999 100.73H52.4799C53.4699 100.73 54.27 101.53 54.27 102.52V105C54.27 105.99 53.4699 106.79 52.4799 106.79ZM35.9999 101.83C35.6199 101.83 35.3099 102.14 35.3099 102.52V105C35.3099 105.38 35.6199 105.69 35.9999 105.69H52.4799C52.8599 105.69 53.1699 105.38 53.1699 105V102.52C53.1699 102.14 52.8599 101.83 52.4799 101.83H35.9999Z" fill="#BCC5DC"/>
<path d="M42.9998 110.32H35.9998C35.3149 110.32 34.7598 110.875 34.7598 111.56V114.04C34.7598 114.725 35.3149 115.28 35.9998 115.28H42.9998C43.6846 115.28 44.2397 114.725 44.2397 114.04V111.56C44.2397 110.875 43.6846 110.32 42.9998 110.32Z" fill="white"/>
<path d="M42.9999 115.831H35.9999C35.0099 115.831 34.21 115.031 34.21 114.041V111.561C34.21 110.571 35.0099 109.771 35.9999 109.771H42.9999C43.9899 109.771 44.7899 110.571 44.7899 111.561V114.041C44.7899 115.031 43.9899 115.831 42.9999 115.831ZM35.9999 110.861C35.6199 110.861 35.3099 111.171 35.3099 111.551V114.031C35.3099 114.411 35.6199 114.721 35.9999 114.721H42.9999C43.3799 114.721 43.6899 114.411 43.6899 114.031V111.551C43.6899 111.171 43.3799 110.861 42.9999 110.861H35.9999Z" fill="#BCC5DC"/>
<path d="M7.84045 92.25H28.6104C29.2504 92.25 29.7604 92.77 29.7604 93.4V114.17C29.7604 114.81 29.2404 115.32 28.6104 115.32H7.84045C7.20045 115.32 6.69043 114.8 6.69043 114.17V93.4C6.69043 92.76 7.21045 92.25 7.84045 92.25Z" fill="#BCC5DC"/>
<path d="M28.6104 116.331H7.84045C6.65045 116.331 5.69043 115.361 5.69043 114.181V93.4107C5.69043 92.2207 6.66045 91.2607 7.84045 91.2607H28.6104C29.8004 91.2607 30.7604 92.2307 30.7604 93.4107V114.181C30.7604 115.371 29.7904 116.331 28.6104 116.331ZM7.84045 93.2507C7.76045 93.2507 7.69043 93.3207 7.69043 93.4007V114.171C7.69043 114.251 7.76045 114.321 7.84045 114.321H28.6104C28.6904 114.321 28.7604 114.251 28.7604 114.171V93.4007C28.7604 93.3207 28.6904 93.2507 28.6104 93.2507H7.84045Z" fill="#2F3F64"/>
<path fill-rule="evenodd" clip-rule="evenodd" d="M6.70044 114.37C7.02044 110.07 12.0604 106.65 18.2204 106.65C24.3804 106.65 29.4204 110.07 29.7404 114.37C29.6504 114.91 29.1704 115.33 28.6004 115.33H7.83044C7.26044 115.33 6.79043 114.91 6.69043 114.37H6.70044Z" fill="white"/>
<path d="M28.6102 116.33H7.84021C6.79021 116.33 5.90016 115.58 5.72016 114.54C5.71016 114.46 5.70021 114.38 5.71021 114.3C6.07021 109.45 11.5702 105.65 18.2302 105.65C24.8902 105.65 30.3902 109.45 30.7502 114.3C30.7502 114.38 30.7502 114.46 30.7402 114.54C30.5602 115.58 29.6702 116.33 28.6202 116.33H28.6102ZM7.72016 114.27C7.72016 114.27 7.79021 114.33 7.84021 114.33H28.6102C28.6602 114.33 28.7102 114.3 28.7302 114.27C28.3102 110.54 23.7502 107.65 18.2202 107.65C12.6902 107.65 8.13021 110.54 7.71021 114.27H7.72016Z" fill="#2F3F64"/>
<path d="M23.2664 102.386C23.7168 99.6114 21.8325 96.9968 19.0577 96.5464C16.2829 96.096 13.6683 97.9803 13.2179 100.755C12.7675 103.53 14.6518 106.144 17.4266 106.595C20.2014 107.045 22.816 105.161 23.2664 102.386Z" fill="white"/>
<path d="M18.2198 107.651C14.8598 107.651 12.1299 104.921 12.1299 101.561C12.1299 98.2007 14.8598 95.4707 18.2198 95.4707C21.5798 95.4707 24.3099 98.2007 24.3099 101.561C24.3099 104.921 21.5798 107.651 18.2198 107.651ZM18.2198 97.4707C15.9698 97.4707 14.1299 99.3007 14.1299 101.561C14.1299 103.821 15.9598 105.651 18.2198 105.651C20.4798 105.651 22.3099 103.821 22.3099 101.561C22.3099 99.3007 20.4798 97.4707 18.2198 97.4707Z" fill="#2F3F64"/>
<path d="M42.7399 1.03027H16.7599C13.5125 1.03027 10.8799 3.66284 10.8799 6.91027V27.1103C10.8799 30.3577 13.5125 32.9903 16.7599 32.9903H42.7399C45.9873 32.9903 48.6199 30.3577 48.6199 27.1103V6.91027C48.6199 3.66284 45.9873 1.03027 42.7399 1.03027Z" fill="#BCC5DC"/>
<path d="M42.7299 33.99H16.7599C12.9699 33.99 9.87988 30.9 9.87988 27.11V6.92004C9.87988 3.13004 12.9699 0.0400391 16.7599 0.0400391H42.7299C46.5199 0.0400391 49.6099 3.13004 49.6099 6.92004V27.11C49.6099 30.9 46.5199 33.99 42.7299 33.99ZM16.7599 2.04004C14.0699 2.04004 11.8799 4.23004 11.8799 6.92004V27.11C11.8799 29.8 14.0699 31.99 16.7599 31.99H42.7299C45.4199 31.99 47.6099 29.8 47.6099 27.11V6.92004C47.6099 4.23004 45.4199 2.04004 42.7299 2.04004H16.7599Z" fill="#2F3F64"/>
<path d="M31.9198 32.9902H26.7998V38.1102H31.9198V32.9902Z" fill="#2F3F64"/>
<path d="M31.9198 39.1102H26.7998C26.2498 39.1102 25.7998 38.6602 25.7998 38.1102V32.9902C25.7998 32.4402 26.2498 31.9902 26.7998 31.9902H31.9198C32.4698 31.9902 32.9198 32.4402 32.9198 32.9902V38.1102C32.9198 38.6602 32.4698 39.1102 31.9198 39.1102ZM27.7998 37.1102H30.9198V33.9902H27.7998V37.1102Z" fill="#2F3F64"/>
<path d="M43.0299 38.7705H16.4698C13.3826 38.7705 10.8799 41.271 10.8799 44.3555C10.8799 47.44 13.3826 49.9405 16.4698 49.9405H43.0299C46.1172 49.9405 48.6199 47.44 48.6199 44.3555C48.6199 41.271 46.1172 38.7705 43.0299 38.7705Z" fill="#BCC5DC"/>
<path d="M43.0299 50.9505H16.4698C12.8398 50.9505 9.87988 47.9905 9.87988 44.3605C9.87988 40.7305 12.8398 37.7705 16.4698 37.7705H43.0299C46.6599 37.7705 49.6199 40.7305 49.6199 44.3605C49.6199 47.9905 46.6599 50.9505 43.0299 50.9505ZM16.4599 39.7705C13.9299 39.7705 11.8699 41.8305 11.8699 44.3605C11.8699 46.8905 13.9299 48.9505 16.4599 48.9505H43.0199C45.5499 48.9505 47.6099 46.8905 47.6099 44.3605C47.6099 41.8305 45.5499 39.7705 43.0199 39.7705H16.4599Z" fill="#2F3F64"/>
<path d="M29.75 65.1904C29.2 65.1904 28.75 64.7404 28.75 64.1904V49.9404C28.75 49.3904 29.2 48.9404 29.75 48.9404C30.3 48.9404 30.75 49.3904 30.75 49.9404V64.1904C30.75 64.7404 30.3 65.1904 29.75 65.1904Z" fill="#2F3F64"/>
<path d="M44.1096 65.25H15.3896C14.8396 65.25 14.3896 64.8 14.3896 64.25C14.3896 63.7 14.8396 63.25 15.3896 63.25H44.1096C44.6596 63.25 45.1096 63.7 45.1096 64.25C45.1096 64.8 44.6596 65.25 44.1096 65.25Z" fill="#2F3F64"/>
<path d="M15.4 69.5997C17.0237 69.5997 18.34 68.2834 18.34 66.6597C18.34 65.036 17.0237 63.7197 15.4 63.7197C13.7762 63.7197 12.46 65.036 12.46 66.6597C12.46 68.2834 13.7762 69.5997 15.4 69.5997Z" fill="#2F3F64"/>
<path d="M15.4 70.0997C13.5 70.0997 11.96 68.5597 11.96 66.6597C11.96 64.7597 13.5 63.2197 15.4 63.2197C17.3 63.2197 18.84 64.7597 18.84 66.6597C18.84 68.5597 17.3 70.0997 15.4 70.0997ZM15.4 64.2097C14.05 64.2097 12.96 65.3097 12.96 66.6497C12.96 67.9897 14.06 69.0897 15.4 69.0897C16.74 69.0897 17.84 67.9897 17.84 66.6497C17.84 65.3097 16.74 64.2097 15.4 64.2097Z" fill="#2F3F64"/>
<path d="M44.1099 69.5997C45.7336 69.5997 47.0499 68.2834 47.0499 66.6597C47.0499 65.036 45.7336 63.7197 44.1099 63.7197C42.4862 63.7197 41.1699 65.036 41.1699 66.6597C41.1699 68.2834 42.4862 69.5997 44.1099 69.5997Z" fill="#2F3F64"/>
<path d="M44.1099 70.0997C42.2099 70.0997 40.6699 68.5597 40.6699 66.6597C40.6699 64.7597 42.2099 63.2197 44.1099 63.2197C46.0099 63.2197 47.5499 64.7597 47.5499 66.6597C47.5499 68.5597 46.0099 70.0997 44.1099 70.0997ZM44.1099 64.2097C42.7599 64.2097 41.6699 65.3097 41.6699 66.6497C41.6699 67.9897 42.7699 69.0897 44.1099 69.0897C45.4499 69.0897 46.5499 67.9897 46.5499 66.6497C46.5499 65.3097 45.4499 64.2097 44.1099 64.2097Z" fill="#2F3F64"/>
<path d="M29.7496 69.5997C31.3733 69.5997 32.6896 68.2834 32.6896 66.6597C32.6896 65.036 31.3733 63.7197 29.7496 63.7197C28.1259 63.7197 26.8096 65.036 26.8096 66.6597C26.8096 68.2834 28.1259 69.5997 29.7496 69.5997Z" fill="#2F3F64"/>
<path d="M29.7496 70.0997C27.8496 70.0997 26.3096 68.5597 26.3096 66.6597C26.3096 64.7597 27.8496 63.2197 29.7496 63.2197C31.6496 63.2197 33.1896 64.7597 33.1896 66.6597C33.1896 68.5597 31.6496 70.0997 29.7496 70.0997ZM29.7496 64.2097C28.3996 64.2097 27.3096 65.3097 27.3096 66.6497C27.3096 67.9897 28.4096 69.0897 29.7496 69.0897C31.0896 69.0897 32.1896 67.9897 32.1896 66.6497C32.1896 65.3097 31.0896 64.2097 29.7496 64.2097Z" fill="#2F3F64"/>
<path fill-rule="evenodd" clip-rule="evenodd" d="M125.221 98.9095H124.051C123.251 98.9095 122.571 98.3495 122.381 97.5695C121.931 95.7295 121.211 93.9895 120.281 92.4095C119.871 91.7095 119.961 90.8295 120.531 90.2495L121.361 89.4095C122.041 88.7295 122.041 87.6195 121.361 86.9295L119.261 84.7794C118.581 84.0894 117.491 84.0795 116.811 84.7595L115.981 85.5994C115.411 86.1694 114.541 86.2594 113.851 85.8394C112.281 84.8794 110.561 84.1295 108.731 83.6595C107.951 83.4595 107.401 82.7495 107.401 81.9395V80.7495C107.401 79.7695 106.621 78.9795 105.651 78.9695L102.641 78.9395C101.671 78.9395 100.881 79.7195 100.881 80.6895V81.8895C100.881 82.7095 100.321 83.3994 99.5411 83.5994C97.7011 84.0494 95.9612 84.7695 94.3712 85.7195C93.6712 86.1395 92.7812 86.0294 92.2012 85.4494L91.3511 84.5994C90.6611 83.8994 89.5411 83.8895 88.8511 84.5795L86.7012 86.7295C86.0112 87.4195 86.0112 88.5495 86.7012 89.2495L87.5511 90.0994C88.1311 90.6794 88.2312 91.5794 87.8112 92.2794C86.8512 93.8794 86.1112 95.6395 85.6512 97.4995C85.4512 98.2994 84.7512 98.8595 83.9312 98.8595H82.7311C81.7511 98.8595 80.9512 99.6495 80.9512 100.639V103.699C80.9512 104.689 81.7511 105.479 82.7311 105.479H83.9312C84.7512 105.479 85.4612 106.039 85.6512 106.839C86.1112 108.699 86.8512 110.459 87.8112 112.059C88.2312 112.759 88.1311 113.659 87.5511 114.239L86.7012 115.089C86.0112 115.789 86.0112 116.919 86.7012 117.609L88.8511 119.759C89.5411 120.449 90.6611 120.439 91.3511 119.739L92.2012 118.889C92.7812 118.309 93.6712 118.199 94.3712 118.619C95.9612 119.569 97.7011 120.289 99.5411 120.739C100.331 120.929 100.881 121.629 100.881 122.449V123.649C100.881 124.629 101.671 125.409 102.641 125.399L105.651 125.369C106.621 125.369 107.401 124.559 107.401 123.589V122.399C107.401 121.589 107.951 120.879 108.731 120.679C110.561 120.209 112.281 119.469 113.851 118.499C114.541 118.079 115.421 118.169 115.981 118.739L116.811 119.579C117.491 120.259 118.591 120.249 119.261 119.559L121.361 117.409C122.041 116.719 122.041 115.609 121.361 114.929L120.531 114.089C119.961 113.519 119.871 112.629 120.281 111.939C121.221 110.349 121.931 108.619 122.381 106.779C122.571 105.989 123.261 105.439 124.051 105.439H125.221C126.171 105.439 126.941 104.649 126.941 103.679V100.669C126.941 99.6994 126.171 98.9194 125.221 98.9194V98.9095Z" fill="#FEC95C"/>
<path d="M102.611 126.39C101.881 126.39 101.201 126.11 100.691 125.6C100.161 125.08 99.8707 124.38 99.8707 123.64V122.44C99.8707 122.09 99.6306 121.79 99.2906 121.71C97.3706 121.24 95.5407 120.49 93.8407 119.47C93.5307 119.29 93.1407 119.33 92.9007 119.59L92.0507 120.44C91.5307 120.97 90.8307 121.26 90.0907 121.27H90.0807C89.3407 121.27 88.6507 120.98 88.1307 120.47L85.9807 118.33C84.9007 117.25 84.9007 115.49 85.9807 114.4L86.8307 113.55C87.0807 113.3 87.1307 112.9 86.9407 112.59C85.9107 110.88 85.1507 109.03 84.6707 107.1C84.5807 106.75 84.2707 106.5 83.9207 106.5H82.7206C81.9806 106.5 81.2807 106.21 80.7507 105.69C80.2207 105.16 79.9307 104.47 79.9307 103.72V100.66C79.9307 99.9197 80.2207 99.2197 80.7507 98.6897C81.2707 98.1697 81.9707 97.8797 82.7107 97.8797H83.9207C84.2707 97.8797 84.5807 97.6297 84.6707 97.2797C85.1507 95.3397 85.9207 93.4997 86.9407 91.7897C87.1307 91.4797 87.0807 91.0797 86.8307 90.8297L85.9807 89.9797C84.9007 88.8897 84.9007 87.1297 85.9807 86.0497L88.1307 83.8997C88.6507 83.3797 89.3407 83.0997 90.0807 83.0997H90.0907C90.8307 83.0997 91.5307 83.3897 92.0507 83.9297L92.9007 84.7797C93.1507 85.0297 93.5407 85.0797 93.8407 84.8897C95.5407 83.8697 97.3706 83.1197 99.2906 82.6497C99.6306 82.5697 99.8707 82.2597 99.8707 81.9197V80.7197C99.8707 79.9797 100.161 79.2797 100.691 78.7597C101.211 78.2397 101.901 77.9797 102.641 77.9697L105.651 77.9997C107.161 78.0097 108.391 79.2597 108.391 80.7797V81.9697C108.391 82.3197 108.631 82.6297 108.981 82.7197C110.881 83.2097 112.701 83.9797 114.371 85.0097C114.671 85.1897 115.031 85.1597 115.271 84.9197L116.101 84.0797C116.611 83.5597 117.301 83.2797 118.021 83.2797H118.031C118.761 83.2797 119.451 83.5797 119.971 84.0997L122.071 86.2497C123.121 87.3297 123.121 89.0697 122.071 90.1397L121.241 90.9797C121.001 91.2297 120.961 91.6097 121.141 91.9197C122.141 93.6197 122.891 95.4497 123.351 97.3497C123.431 97.6897 123.721 97.9297 124.051 97.9297H125.221C126.721 97.9297 127.941 99.1697 127.941 100.69V103.7C127.941 105.22 126.721 106.45 125.221 106.45H124.051C123.721 106.45 123.431 106.69 123.351 107.03C122.881 108.94 122.141 110.77 121.141 112.46C120.961 112.77 121.001 113.16 121.241 113.4L122.071 114.24C123.131 115.31 123.131 117.05 122.071 118.13L119.971 120.28C119.451 120.81 118.761 121.1 118.031 121.1C117.301 121.1 116.621 120.82 116.111 120.3L115.281 119.47C115.041 119.23 114.681 119.19 114.381 119.38C112.701 120.41 110.891 121.18 108.991 121.67C108.641 121.76 108.401 122.07 108.401 122.42V123.61C108.401 125.13 107.171 126.38 105.661 126.39L102.651 126.42H102.621L102.611 126.39ZM93.4407 117.36C93.9307 117.36 94.4207 117.49 94.8707 117.76C96.4007 118.67 98.0407 119.35 99.7707 119.77C101.011 120.07 101.881 121.17 101.881 122.45V123.65C101.881 123.86 101.961 124.05 102.101 124.19C102.241 124.33 102.451 124.38 102.621 124.4L105.631 124.37C106.051 124.37 106.391 124.02 106.391 123.59V122.4C106.391 121.13 107.251 120.03 108.471 119.71C110.181 119.27 111.811 118.57 113.321 117.65C114.411 116.98 115.791 117.14 116.691 118.04L117.521 118.87C117.661 119.01 117.841 119.07 118.031 119.08C118.231 119.08 118.411 119 118.551 118.86L120.651 116.71C120.941 116.41 120.951 115.92 120.651 115.63L119.821 114.79C118.941 113.9 118.771 112.52 119.421 111.42C120.321 109.89 120.991 108.25 121.411 106.53C121.711 105.29 122.801 104.43 124.051 104.42H125.221C125.621 104.42 125.941 104.08 125.941 103.66V100.65C125.941 100.23 125.621 99.8997 125.221 99.8997H124.051C122.801 99.8997 121.711 99.0297 121.411 97.7897C120.991 96.0697 120.321 94.4197 119.421 92.8997C118.771 91.8097 118.941 90.4197 119.821 89.5297L120.651 88.6897C120.941 88.3897 120.941 87.9097 120.651 87.6097L118.551 85.4597C118.411 85.3197 118.231 85.2397 118.031 85.2397C117.841 85.2397 117.661 85.3197 117.521 85.4497L116.691 86.2897C115.801 87.1897 114.411 87.3497 113.321 86.6797C111.811 85.7497 110.181 85.0597 108.471 84.6197C107.241 84.2997 106.391 83.1997 106.391 81.9297V80.7397C106.391 80.3097 106.051 79.9597 105.631 79.9597L102.621 79.9297C102.421 79.8997 102.241 79.9997 102.101 80.1397C101.961 80.2797 101.881 80.4697 101.881 80.6797V81.8797C101.881 83.1497 101.011 84.2497 99.7807 84.5597C98.0607 84.9797 96.4107 85.6597 94.8807 86.5697C93.7807 87.2297 92.3807 87.0497 91.4907 86.1497L90.6407 85.2997C90.4907 85.1497 90.3007 85.0697 90.0907 85.0697C89.9007 85.0697 89.7007 85.1497 89.5507 85.2897L87.4007 87.4397C87.1007 87.7397 87.1007 88.2397 87.4007 88.5397L88.2507 89.3897C89.1507 90.2897 89.3107 91.6897 88.6507 92.7897C87.7307 94.3297 87.0406 95.9897 86.6006 97.7397C86.2906 98.9897 85.1806 99.8597 83.9106 99.8597H82.7007C82.4907 99.8597 82.3007 99.9397 82.1507 100.09C82.0007 100.24 81.9207 100.43 81.9207 100.64V103.7C81.9207 103.91 82.0007 104.11 82.1507 104.25C82.3007 104.39 82.4907 104.48 82.7007 104.48H83.9007C85.1807 104.48 86.2807 105.35 86.5907 106.6C87.0207 108.34 87.7107 110.01 88.6407 111.55C89.3007 112.65 89.1307 114.05 88.2407 114.95L87.3907 115.81C87.0907 116.12 87.0807 116.61 87.3907 116.91L89.5406 119.05C89.6806 119.19 89.8707 119.27 90.0807 119.27C90.3207 119.25 90.4807 119.19 90.6307 119.04L91.4807 118.19C92.0107 117.65 92.7207 117.37 93.4407 117.37V117.36Z" fill="#2F3F64"/>
<path d="M107.42 108.48C108.27 107.99 108.94 107.27 109.43 106.32H114.16C113.47 108.43 112.26 110.07 110.54 111.24C108.82 112.41 106.8 113 104.49 113C102.18 113 100.05 112.36 98.2698 111.09C96.4898 109.82 95.2498 108.12 94.5598 105.99H92.0498V103.54H94.0898C94.0498 103.07 94.0298 102.71 94.0298 102.48C94.0298 102.2 94.0498 101.83 94.0898 101.36H92.0498V98.9097H94.5898C95.2798 96.7797 96.5198 95.0897 98.2998 93.8197C100.08 92.5597 102.15 91.9297 104.49 91.9297C106.83 91.9297 108.81 92.5197 110.54 93.6997C112.26 94.8797 113.47 96.5197 114.16 98.6097H109.43C108.94 97.6597 108.27 96.9497 107.42 96.4697C106.57 95.9897 105.59 95.7497 104.46 95.7497C103.26 95.7497 102.19 96.0297 101.25 96.5797C100.31 97.1297 99.5898 97.9097 99.0798 98.9197H104.76V101.37H98.3498C98.3098 101.84 98.2898 102.22 98.2898 102.49C98.2898 102.73 98.3098 103.08 98.3498 103.55H104.76V106H99.0498C99.5598 107.01 100.29 107.79 101.24 108.37C102.19 108.94 103.26 109.23 104.46 109.23C105.58 109.23 106.57 108.98 107.42 108.49V108.48Z" fill="#2F3F64"/>
<path d="M67.5898 55.5303H74.8398V62.4203C74.8398 64.4203 73.2198 66.0403 71.2198 66.0403C69.2198 66.0403 67.5998 64.4203 67.5998 62.4203V55.5303H67.5898Z" fill="#2F3F64"/>
<path d="M71.2196 67.0403C68.6696 67.0403 66.5996 64.9603 66.5996 62.4203V55.5303C66.5996 54.9803 67.0496 54.5303 67.5996 54.5303H74.8496C75.3996 54.5303 75.8496 54.9803 75.8496 55.5303V62.4203C75.8496 64.9703 73.7796 67.0403 71.2296 67.0403H71.2196ZM68.5897 56.5303V62.4203C68.5897 63.8703 69.7697 65.0403 71.2097 65.0403C72.6497 65.0403 73.8297 63.8603 73.8297 62.4203V56.5303H68.5797H68.5897Z" fill="#2F3F64"/>
<path d="M112.9 55.5303H120.15V62.4203C120.15 64.4203 118.53 66.0403 116.53 66.0403C114.53 66.0403 112.91 64.4203 112.91 62.4203V55.5303H112.9Z" fill="#2F3F64"/>
<path d="M116.52 67.0403C113.97 67.0403 111.9 64.9603 111.9 62.4203V55.5303C111.9 54.9803 112.35 54.5303 112.9 54.5303H120.15C120.7 54.5303 121.15 54.9803 121.15 55.5303V62.4203C121.15 64.9703 119.08 67.0403 116.53 67.0403H116.52ZM113.9 56.5303V62.4203C113.9 63.8703 115.08 65.0403 116.52 65.0403C117.96 65.0403 119.14 63.8603 119.14 62.4203V56.5303H113.89H113.9Z" fill="#2F3F64"/>
<path d="M125.43 37.1601H120.21L115.41 21.0101C114.96 19.2901 113.41 18.0801 111.66 18.0801H76.1503C74.4003 18.0801 72.8503 19.2901 72.4003 21.0101L67.5903 37.1601H62.8403C62.3903 37.1601 62.0303 37.5201 62.0303 37.9701V39.2101C62.0303 40.3701 62.8303 41.3801 63.9603 41.6401L67.5803 42.8501V57.8601H120.2V42.8501L124.29 41.6301C125.42 41.3701 126.23 40.3601 126.23 39.2001V37.9601C126.23 37.5101 125.87 37.1501 125.42 37.1501L125.43 37.1601Z" fill="#BCC5DC"/>
<path d="M120.21 58.8701H67.5901C67.0401 58.8701 66.5901 58.4201 66.5901 57.8701V43.5801L63.6501 42.6001C62.1501 42.2601 61.04 40.8601 61.04 39.2201V37.9801C61.04 36.9801 61.85 36.1701 62.85 36.1701H66.85L71.4401 20.7301C72.0001 18.6001 73.9401 17.0801 76.1501 17.0801H111.66C113.87 17.0801 115.81 18.5901 116.38 20.7601L120.96 36.1701H125.43C126.43 36.1701 127.24 36.9801 127.24 37.9801V39.2201C127.24 40.8601 126.12 42.2601 124.52 42.6201L121.21 43.6101V57.8801C121.21 58.4301 120.76 58.8801 120.21 58.8801V58.8701ZM68.5901 56.8701H119.21V42.8601C119.21 42.4201 119.5 42.0301 119.93 41.9001L124.02 40.6901C124.77 40.5201 125.24 39.9201 125.24 39.2201V38.1701H120.21C119.77 38.1701 119.38 37.8801 119.25 37.4601L114.45 21.3101C114.11 20.0101 112.94 19.0901 111.66 19.0901H76.1501C74.8701 19.0901 73.7001 20.0101 73.3701 21.2701L68.55 37.4601C68.42 37.8801 68.0301 38.1701 67.5901 38.1701H63.04V39.2201C63.04 39.9201 63.5201 40.5201 64.2001 40.6701L67.92 41.9101C68.33 42.0501 68.6 42.4301 68.6 42.8601V56.8701H68.5901Z" fill="#2F3F64"/>
<path d="M72.3001 34.5404L75.1601 23.2104C75.3301 22.3104 76.0501 21.6504 76.8701 21.6504H110.98C111.8 21.6504 112.53 22.3104 112.69 23.2104L115.55 34.5404C115.83 36.3304 114.57 37.9704 112.92 37.9704H74.9201C73.2701 37.9704 72.0101 36.3304 72.2901 34.5404H72.3001Z" fill="white"/>
<path d="M112.94 38.9704H74.9402C73.9202 38.9704 72.9302 38.5104 72.2402 37.7004C71.4702 36.8004 71.1302 35.5904 71.3202 34.3904C71.3202 34.3604 71.3303 34.3304 71.3403 34.3004L74.2002 22.9704C74.4402 21.6504 75.5702 20.6504 76.8802 20.6504H110.99C112.3 20.6504 113.43 21.6504 113.69 23.0304L116.54 34.2904C116.74 35.5904 116.41 36.8004 115.64 37.6904C114.95 38.5004 113.97 38.9604 112.94 38.9604V38.9704ZM73.2803 34.7404C73.2003 35.3504 73.3702 35.9604 73.7502 36.4004C74.0702 36.7704 74.4802 36.9704 74.9302 36.9704H112.93C113.38 36.9704 113.79 36.7704 114.11 36.4004C114.5 35.9404 114.67 35.3204 114.57 34.6904L111.72 23.4504C111.63 22.9604 111.31 22.6404 110.98 22.6404H76.8702C76.5302 22.6404 76.2202 22.9604 76.1402 23.3804L73.2702 34.7204L73.2803 34.7404Z" fill="#2F3F64"/>
<path d="M84.1305 54.4702H73.7905C72.9505 54.4702 72.2705 53.7902 72.2705 52.9502V48.9302C72.2705 48.0902 72.9505 47.4102 73.7905 47.4102H77.1105C80.6705 47.4102 83.8705 49.5602 85.2205 52.8502C85.5405 53.6202 84.9705 54.4702 84.1305 54.4702Z" fill="white"/>
<path d="M84.1305 55.4702H73.7905C72.4005 55.4702 71.2705 54.3402 71.2705 52.9502V48.9302C71.2705 47.5402 72.4005 46.4102 73.7905 46.4102H77.1105C81.0905 46.4102 84.6405 48.7902 86.1505 52.4702C86.4305 53.1402 86.3505 53.9102 85.9405 54.5102C85.5405 55.1102 84.8605 55.4702 84.1305 55.4702ZM73.7805 48.4102C73.4905 48.4102 73.2605 48.6402 73.2605 48.9302V52.9502C73.2605 53.2402 73.4905 53.4702 73.7805 53.4702H84.1205C84.1805 53.4702 84.2305 53.4402 84.2705 53.3902C84.3105 53.3402 84.3105 53.2802 84.2905 53.2202C83.0905 50.2902 80.2705 48.4002 77.1005 48.4002H73.7805V48.4102Z" fill="#2F3F64"/>
<path d="M103.74 54.4702H114.08C114.92 54.4702 115.6 53.7902 115.6 52.9502V48.9302C115.6 48.0902 114.92 47.4102 114.08 47.4102H110.76C107.2 47.4102 104 49.5602 102.65 52.8502C102.33 53.6202 102.9 54.4702 103.74 54.4702Z" fill="white"/>
<path d="M114.09 55.4702H103.75C103.02 55.4702 102.35 55.1102 101.94 54.5102C101.53 53.9102 101.46 53.1402 101.73 52.4702C103.24 48.7902 106.79 46.4102 110.77 46.4102H114.09C115.48 46.4102 116.61 47.5402 116.61 48.9302V52.9502C116.61 54.3402 115.48 55.4702 114.09 55.4702ZM110.76 48.4102C107.6 48.4102 104.78 50.3002 103.57 53.2302C103.55 53.2902 103.55 53.3402 103.59 53.4002C103.63 53.4502 103.67 53.4802 103.74 53.4802H114.08C114.37 53.4802 114.6 53.2502 114.6 52.9602V48.9402C114.6 48.6502 114.37 48.4202 114.08 48.4202H110.76V48.4102Z" fill="#2F3F64"/>
<path d="M97.5798 47.9199H90.2798C88.6119 47.9199 87.2598 49.272 87.2598 50.9399C87.2598 52.6078 88.6119 53.9599 90.2798 53.9599H97.5798C99.2477 53.9599 100.6 52.6078 100.6 50.9399C100.6 49.272 99.2477 47.9199 97.5798 47.9199Z" fill="#2F3F64"/>
<path d="M97.5798 54.9599H90.2798C88.0598 54.9599 86.2598 53.1599 86.2598 50.9399C86.2598 48.7199 88.0598 46.9199 90.2798 46.9199H97.5798C99.7998 46.9199 101.6 48.7199 101.6 50.9399C101.6 53.1599 99.7998 54.9599 97.5798 54.9599ZM90.2897 48.9199C89.1797 48.9199 88.2698 49.8299 88.2698 50.9399C88.2698 52.0499 89.1797 52.9599 90.2897 52.9599H97.5898C98.6998 52.9599 99.6097 52.0499 99.6097 50.9399C99.6097 49.8299 98.6998 48.9199 97.5898 48.9199H90.2897Z" fill="#2F3F64"/>
</svg>
