<svg width="127" height="121" viewBox="0 0 127 121" fill="none" xmlns="http://www.w3.org/2000/svg">
<path d="M104.41 102.709H32.1104C30.1304 102.709 28.4704 101.259 28.1504 99.3494C29.2804 84.1994 46.8204 72.1494 68.2604 72.1494C89.7004 72.1494 107.24 84.2094 108.37 99.3494C108.05 101.259 106.39 102.709 104.41 102.709Z" fill="white"/>
<path d="M68.251 72.1296C78.032 72.1296 85.9611 64.111 85.9611 54.2196C85.9611 44.3282 78.032 36.3096 68.251 36.3096C58.4701 36.3096 50.541 44.3282 50.541 54.2196C50.541 64.111 58.4701 72.1296 68.251 72.1296Z" fill="white"/>
<path d="M26.5508 108.11C26.0008 108.11 25.5508 107.66 25.5508 107.11C25.5508 100.85 27.3108 94.9096 30.7808 89.4496C35.2408 82.4296 42.3808 76.9696 50.8908 74.0596C56.5508 72.1296 62.3908 71.1396 68.2508 71.1396C90.1208 71.1396 108.181 83.4996 109.361 99.2696C109.401 99.8196 108.991 100.3 108.441 100.34C107.881 100.38 107.411 99.9696 107.371 99.4196C106.271 84.6896 89.0908 73.1396 68.2508 73.1396C62.6108 73.1396 56.9808 74.0896 51.5308 75.9496C43.4508 78.7096 36.6808 83.8896 32.4608 90.5196C29.2008 95.6496 27.5408 101.23 27.5408 107.1C27.5408 107.65 27.0908 108.1 26.5408 108.1L26.5508 108.11Z" fill="#2F3F64"/>
<path d="M68.251 73.1393C57.931 73.1393 49.541 64.6593 49.541 54.2293C49.541 43.7993 57.931 35.3193 68.251 35.3193C78.571 35.3193 86.9611 43.7993 86.9611 54.2293C86.9611 64.6593 78.571 73.1393 68.251 73.1393ZM68.251 37.3093C59.031 37.3093 51.541 44.8993 51.541 54.2193C51.541 63.5393 59.041 71.1293 68.251 71.1293C77.461 71.1293 84.9611 63.5393 84.9611 54.2193C84.9611 44.8993 77.461 37.3093 68.251 37.3093Z" fill="#2F3F64"/>
<path d="M68.251 107.07C67.701 107.07 67.251 106.62 67.251 106.07V86C67.251 85.45 67.701 85 68.251 85C68.801 85 69.251 85.45 69.251 86V106.07C69.251 106.62 68.801 107.07 68.251 107.07Z" fill="#2F3F64"/>
<path d="M75.7409 87H68.2509C67.8509 87 67.4809 86.76 67.3309 86.38C67.1809 86 67.2609 85.58 67.5509 85.29L79.8709 72.97C80.1209 72.72 80.4809 72.63 80.8109 72.71C82.8309 73.21 84.8009 73.81 86.6509 74.51C86.9709 74.63 87.2009 74.9 87.2709 75.24C87.3409 75.58 87.2409 75.92 87.0009 76.16L76.4509 86.71C76.2609 86.9 76.0109 87 75.7409 87ZM70.6709 85H75.3309L84.4709 75.86C83.3109 75.47 82.1109 75.11 80.8809 74.79L70.6709 85Z" fill="#2F3F64"/>
<path d="M68.2509 86.9997H60.7609C60.4909 86.9997 60.2409 86.8897 60.0509 86.7097L49.5009 76.1597C49.2609 75.9197 49.1609 75.5797 49.2309 75.2397C49.3009 74.8997 49.5409 74.6297 49.8509 74.5097C51.7009 73.8097 53.6609 73.1997 55.6909 72.7097C56.0309 72.6297 56.3909 72.7297 56.6309 72.9697L68.9509 85.2897C69.2409 85.5797 69.3209 86.0097 69.1709 86.3797C69.0209 86.7497 68.6509 86.9997 68.2509 86.9997ZM61.1809 84.9997H65.8409L55.6309 74.7897C54.4009 75.1097 53.2009 75.4597 52.0409 75.8597L61.1809 84.9997Z" fill="#2F3F64"/>
<path d="M89.6603 54.8097C89.1103 54.8097 88.6603 54.3597 88.6603 53.8097C88.6603 42.7097 79.5104 33.6797 68.2604 33.6797C57.0104 33.6797 47.8604 42.7097 47.8604 53.8097C47.8604 54.3597 47.4104 54.8097 46.8604 54.8097C46.3104 54.8097 45.8604 54.3597 45.8604 53.8097C45.8604 41.5997 55.9104 31.6797 68.2604 31.6797C80.6104 31.6797 90.6603 41.6097 90.6603 53.8097C90.6603 54.3597 90.2103 54.8097 89.6603 54.8097Z" fill="#2F3F64"/>
<path d="M88.3704 62.6997H83.8604C85.2004 60.1797 85.9703 57.2897 85.9703 54.2197C85.9703 53.8697 85.9403 53.5297 85.9203 53.1797H88.3704C91.0004 53.1797 93.1304 55.3097 93.1304 57.9397C93.1304 60.5697 91.0004 62.6997 88.3704 62.6997Z" fill="#2F3F64"/>
<path d="M88.3704 63.6994H83.8604C83.5104 63.6994 83.1804 63.5195 83.0004 63.2094C82.8204 62.8994 82.8103 62.5395 82.9703 62.2295C84.2703 59.7795 84.9604 57.0195 84.9604 54.2195C84.9604 53.9895 84.9404 53.7695 84.9304 53.5395L84.9104 53.2394C84.8904 52.9694 84.9904 52.6995 85.1804 52.4995C85.3704 52.2995 85.6304 52.1895 85.9104 52.1895H88.3604C91.5304 52.1895 94.1204 54.7694 94.1204 57.9494C94.1204 61.1294 91.5404 63.7094 88.3604 63.7094L88.3704 63.6994ZM85.4404 61.6994H88.3604C90.4304 61.6994 92.1204 60.0095 92.1204 57.9395C92.1204 55.8695 90.4304 54.1795 88.3604 54.1795H86.9604V54.2195C86.9604 56.7895 86.4404 59.3394 85.4404 61.6994Z" fill="#2F3F64"/>
<path d="M47.8303 62.6997H52.3403C51.0003 60.1797 50.2303 57.2897 50.2303 54.2197C50.2303 53.8697 50.2603 53.5297 50.2803 53.1797H47.8303C45.2003 53.1797 43.0703 55.3097 43.0703 57.9397C43.0703 60.5697 45.2003 62.6997 47.8303 62.6997Z" fill="#2F3F64"/>
<path d="M52.3306 63.6997H47.8206C44.6506 63.6997 42.0605 61.1197 42.0605 57.9397C42.0605 54.7597 44.6406 52.1797 47.8206 52.1797H50.2706C50.5406 52.1797 50.8105 52.2897 51.0005 52.4897C51.1905 52.6897 51.2906 52.9597 51.2706 53.2297L51.2505 53.5297C51.2305 53.7597 51.2205 53.9797 51.2205 54.2097C51.2205 56.9997 51.9106 59.7697 53.2106 62.2197C53.3806 62.5297 53.3705 62.8997 53.1805 63.1997C53.0005 63.4997 52.6706 63.6897 52.3206 63.6897L52.3306 63.6997ZM47.8306 54.1797C45.7606 54.1797 44.0706 55.8697 44.0706 57.9397C44.0706 60.0097 45.7606 61.6997 47.8306 61.6997H50.7505C49.7505 59.3497 49.2305 56.7897 49.2305 54.2197V54.1797H47.8306Z" fill="#2F3F64"/>
<path d="M68.2306 68.5997H49.9006C47.6706 68.5997 45.8506 66.7797 45.8506 64.5497V57.9297C45.8506 57.3797 46.3006 56.9297 46.8506 56.9297C47.4006 56.9297 47.8506 57.3797 47.8506 57.9297V64.5497C47.8506 65.6797 48.7706 66.5997 49.9006 66.5997H68.2306C68.7806 66.5997 69.2306 67.0497 69.2306 67.5997C69.2306 68.1497 68.7806 68.5997 68.2306 68.5997Z" fill="#2F3F64"/>
<path d="M34.3503 21.8193H7.08032C3.76109 21.8193 1.07031 24.5101 1.07031 27.8293V45.8593C1.07031 49.1786 3.76109 51.8693 7.08032 51.8693H34.3503C37.6695 51.8693 40.3603 49.1786 40.3603 45.8593V27.8293C40.3603 24.5101 37.6695 21.8193 34.3503 21.8193Z" fill="#BCC5DC"/>
<path d="M34.3503 52.8696H7.09033C3.22033 52.8696 0.0703125 49.7196 0.0703125 45.8496V27.8296C0.0703125 23.9596 3.22033 20.8096 7.09033 20.8096H34.3503C38.2203 20.8096 41.3703 23.9596 41.3703 27.8296V45.8496C41.3703 49.7196 38.2203 52.8696 34.3503 52.8696ZM7.09033 22.8196C4.32033 22.8196 2.07031 25.0696 2.07031 27.8396V45.8596C2.07031 48.6296 4.32033 50.8796 7.09033 50.8796H34.3503C37.1203 50.8796 39.3703 48.6296 39.3703 45.8596V27.8396C39.3703 25.0696 37.1203 22.8196 34.3503 22.8196H7.09033Z" fill="#2F3F64"/>
<path d="M32.0004 26.7998H9.44037C7.73933 26.7998 6.36035 28.1788 6.36035 29.8798V43.8098C6.36035 45.5108 7.73933 46.8898 9.44037 46.8898H32.0004C33.7014 46.8898 35.0804 45.5108 35.0804 43.8098V29.8798C35.0804 28.1788 33.7014 26.7998 32.0004 26.7998Z" fill="white"/>
<path d="M32.0004 47.8798H9.44037C7.19037 47.8798 5.36035 46.0498 5.36035 43.7998V29.8798C5.36035 27.6298 7.19037 25.7998 9.44037 25.7998H32.0004C34.2504 25.7998 36.0804 27.6298 36.0804 29.8798V43.7998C36.0804 46.0498 34.2504 47.8798 32.0004 47.8798ZM9.44037 27.7998C8.29037 27.7998 7.36035 28.7298 7.36035 29.8798V43.7998C7.36035 44.9498 8.29037 45.8798 9.44037 45.8798H32.0004C33.1504 45.8798 34.0804 44.9498 34.0804 43.7998V29.8798C34.0804 28.7298 33.1504 27.7998 32.0004 27.7998H9.44037Z" fill="#2F3F64"/>
<path d="M20.7203 42.0297C18.5803 42.0297 16.4503 41.4797 14.5303 40.3797C14.0503 40.1097 13.8503 39.4697 14.1203 38.9897C14.3903 38.5097 14.9603 38.3197 15.4403 38.5897L15.5203 38.6397C18.7503 40.4997 22.7603 40.4897 25.9703 38.5997C26.4503 38.3197 27.0603 38.4797 27.3403 38.9597C27.6203 39.4397 27.4603 40.0497 26.9803 40.3297C25.0503 41.4597 22.8803 42.0297 20.7003 42.0297H20.7203Z" fill="#2F3F64"/>
<path d="M16.1503 36.0192C17.0671 36.0192 17.8102 35.276 17.8102 34.3592C17.8102 33.4424 17.0671 32.6992 16.1503 32.6992C15.2335 32.6992 14.4902 33.4424 14.4902 34.3592C14.4902 35.276 15.2335 36.0192 16.1503 36.0192Z" fill="#2F3F64"/>
<path d="M26.1805 36.0192C27.0973 36.0192 27.8405 35.276 27.8405 34.3592C27.8405 33.4424 27.0973 32.6992 26.1805 32.6992C25.2637 32.6992 24.5205 33.4424 24.5205 34.3592C24.5205 35.276 25.2637 36.0192 26.1805 36.0192Z" fill="#2F3F64"/>
<path d="M33.0407 57.4492H7.9707C7.4207 57.4492 6.9707 56.9992 6.9707 56.4492C6.9707 55.8992 7.4207 55.4492 7.9707 55.4492H33.0407C33.5907 55.4492 34.0407 55.8992 34.0407 56.4492C34.0407 56.9992 33.5907 57.4492 33.0407 57.4492Z" fill="#2F3F64"/>
<path fill-rule="evenodd" clip-rule="evenodd" d="M50.7301 1.10938H39.2201C38.6101 1.10938 38.1201 1.59938 38.1201 2.20938V16.2194C38.1201 16.8294 38.6101 17.3194 39.2201 17.3194H45.4901V22.5994C45.4901 23.4294 46.5001 23.8494 47.0901 23.2594L53.0302 17.3194H66.0401C66.6501 17.3194 67.1401 16.8294 67.1401 16.2194V2.20938C67.1401 1.59938 66.6501 1.10938 66.0401 1.10938" fill="#BCC5DC"/>
<path d="M46.4301 24.5296C46.1801 24.5296 45.9301 24.4796 45.6901 24.3796C44.9601 24.0796 44.4901 23.3796 44.4901 22.5896V18.3096H39.2201C38.0601 18.3096 37.1201 17.3696 37.1201 16.2096V2.19961C37.1201 1.03961 38.0601 0.0996094 39.2201 0.0996094H50.7301C51.2801 0.0996094 51.7301 0.549609 51.7301 1.09961C51.7301 1.64961 51.2801 2.09961 50.7301 2.09961H39.2201C39.1701 2.09961 39.1201 2.13961 39.1201 2.19961V16.2096C39.1201 16.2596 39.1601 16.3096 39.2201 16.3096H45.4901C46.0401 16.3096 46.4901 16.7596 46.4901 17.3096V22.4296L52.3201 16.5996C52.5101 16.4096 52.7602 16.3096 53.0302 16.3096H66.0401C66.0901 16.3096 66.1401 16.2696 66.1401 16.2096V2.19961C66.1401 2.14961 66.1001 2.09961 66.0401 2.09961C65.4901 2.09961 65.0401 1.64961 65.0401 1.09961C65.0401 0.549609 65.4901 0.0996094 66.0401 0.0996094C67.2001 0.0996094 68.1401 1.03961 68.1401 2.19961V16.2096C68.1401 17.3696 67.2001 18.3096 66.0401 18.3096H53.4401L47.7901 23.9596C47.4201 24.3296 46.9301 24.5296 46.4201 24.5296H46.4301Z" fill="#2F3F64"/>
<path d="M45.7799 10.76C46.8292 10.76 47.6799 9.9093 47.6799 8.85996C47.6799 7.81062 46.8292 6.95996 45.7799 6.95996C44.7306 6.95996 43.8799 7.81062 43.8799 8.85996C43.8799 9.9093 44.7306 10.76 45.7799 10.76Z" fill="#2F3F64"/>
<path d="M52.6295 10.76C53.6789 10.76 54.5295 9.9093 54.5295 8.85996C54.5295 7.81062 53.6789 6.95996 52.6295 6.95996C51.5802 6.95996 50.7295 7.81062 50.7295 8.85996C50.7295 9.9093 51.5802 10.76 52.6295 10.76Z" fill="#2F3F64"/>
<path d="M59.4898 10.76C60.5391 10.76 61.3898 9.9093 61.3898 8.85996C61.3898 7.81062 60.5391 6.95996 59.4898 6.95996C58.4405 6.95996 57.5898 7.81062 57.5898 8.85996C57.5898 9.9093 58.4405 10.76 59.4898 10.76Z" fill="#2F3F64"/>
<path d="M125.49 73.2201C125.49 72.0401 124.53 71.0801 123.35 71.0801H77.6201C76.0801 71.0801 74.8301 72.3301 74.8301 73.8701V119.27H123.35C124.53 119.27 125.49 118.31 125.49 117.13V91.7001" fill="#BCC5DC"/>
<path d="M123.34 120.27H74.8203C74.2703 120.27 73.8203 119.82 73.8203 119.27V73.8701C73.8203 71.7801 75.5203 70.0801 77.6103 70.0801H123.34C125.07 70.0801 126.48 71.4901 126.48 73.2201C126.48 73.7701 126.03 74.2201 125.48 74.2201C124.93 74.2201 124.48 73.7701 124.48 73.2201C124.48 72.5901 123.97 72.0801 123.34 72.0801H77.6103C76.6203 72.0801 75.8203 72.8801 75.8203 73.8701V118.27H123.34C123.97 118.27 124.48 117.76 124.48 117.13V91.7001C124.48 91.1501 124.93 90.7001 125.48 90.7001C126.03 90.7001 126.48 91.1501 126.48 91.7001V117.13C126.48 118.86 125.07 120.27 123.34 120.27Z" fill="#2F3F64"/>
<path d="M74.8207 114.941V119.261H36.2207V117.881C36.2207 116.251 37.5407 114.931 39.1707 114.931H74.8207V114.941Z" fill="#2F3F64"/>
<path d="M74.8207 120.27H36.2207C35.6707 120.27 35.2207 119.82 35.2207 119.27V117.89C35.2207 115.71 36.9907 113.94 39.1707 113.94H74.8207C75.3707 113.94 75.8207 114.39 75.8207 114.94V119.26C75.8207 119.81 75.3707 120.26 74.8207 120.26V120.27ZM37.2207 118.27H73.8207V115.95H39.1707C38.1007 115.95 37.2207 116.82 37.2207 117.9V118.28V118.27Z" fill="#2F3F64"/>
<path d="M100.901 102.64C105.026 102.64 108.371 99.2958 108.371 95.1702C108.371 91.0446 105.026 87.7002 100.901 87.7002C96.7751 87.7002 93.4307 91.0446 93.4307 95.1702C93.4307 99.2958 96.7751 102.64 100.901 102.64Z" fill="#FEC95C"/>
<path d="M100.901 103.64C96.2307 103.64 92.4307 99.8402 92.4307 95.1702C92.4307 90.5002 96.2307 86.7002 100.901 86.7002C105.571 86.7002 109.371 90.5002 109.371 95.1702C109.371 99.8402 105.571 103.64 100.901 103.64ZM100.901 88.7002C97.3307 88.7002 94.4307 91.6002 94.4307 95.1702C94.4307 98.7402 97.3307 101.64 100.901 101.64C104.471 101.64 107.371 98.7402 107.371 95.1702C107.371 91.6002 104.471 88.7002 100.901 88.7002Z" fill="#2F3F64"/>
</svg>
