<svg viewBox="0 0 128 127" fill="none" xmlns="http://www.w3.org/2000/svg">
<g id="glpi-cloud-support-1">
<path id="Vector" fill-rule="evenodd" clip-rule="evenodd" d="M27.7397 84.2297C27.5397 84.2297 27.3498 84.2297 27.1498 84.2297C13.2498 84.2297 1.96973 72.9498 1.96973 59.0498C1.96973 50.7698 5.97978 43.4197 12.1498 38.8297C11.8998 37.2197 11.7698 35.5598 11.7698 33.8798C11.7698 16.1298 26.1798 1.71973 43.9298 1.71973C60.6398 1.71973 74.3897 14.4998 75.9397 30.8098C86.9097 31.2398 95.6897 40.2797 95.6897 51.3597C95.6897 52.3097 95.6198 53.2498 95.4998 54.1698C99.7998 57.1298 102.62 62.1298 102.62 67.7998C102.62 76.8698 95.3797 84.2397 86.4697 84.2397C86.2197 84.2397 85.9597 84.2397 85.7097 84.2197V84.2397H27.7297L27.7397 84.2297Z" fill="white"/>
<path id="Vector_2" d="M86.4797 85.2397C86.2797 85.2397 86.0697 85.2397 85.8698 85.2297C85.8197 85.2297 85.7697 85.2397 85.7197 85.2397H27.7397C27.7397 85.2397 27.6798 85.2397 27.6398 85.2397C27.4798 85.2397 27.3098 85.2397 27.1498 85.2397C12.7198 85.2397 0.969727 73.4998 0.969727 59.0598C0.969727 51.0198 4.73971 43.3398 11.0797 38.3998C10.8797 36.9198 10.7698 35.3998 10.7698 33.8798C10.7698 15.5998 25.6498 0.719727 43.9298 0.719727C53.1898 0.719727 62.0998 4.63974 68.3798 11.4797C68.7498 11.8897 68.7297 12.5198 68.3197 12.8898C67.9097 13.2598 67.2798 13.2297 66.9098 12.8297C61.0198 6.39971 52.6397 2.70972 43.9397 2.70972C26.7597 2.70972 12.7798 16.6898 12.7798 33.8698C12.7798 35.4897 12.8998 37.0998 13.1498 38.6698C13.2098 39.0398 13.0598 39.3998 12.7598 39.6298C6.63977 44.1798 2.97974 51.4398 2.97974 59.0498C2.97974 72.3798 13.8298 83.2297 27.1598 83.2297C27.3498 83.2297 27.5397 83.2297 27.7197 83.2297C27.7697 83.2297 27.8197 83.2297 27.8597 83.2297H85.5398C85.6198 83.2197 85.6898 83.2097 85.7698 83.2097C85.9998 83.2197 86.2397 83.2297 86.4797 83.2297C94.8397 83.2297 101.63 76.2998 101.63 67.7898C101.63 62.6598 99.1297 57.8697 94.9397 54.9897C94.6297 54.7797 94.4698 54.3998 94.5198 54.0298C94.6398 53.1498 94.6997 52.2497 94.6997 51.3497C94.6997 40.7997 86.4498 32.2098 75.9098 31.7998C75.3598 31.7798 74.9297 31.3098 74.9497 30.7598C74.9697 30.2098 75.4297 29.7798 75.9897 29.7998C87.5997 30.2498 96.6997 39.7197 96.6997 51.3497C96.6997 52.1297 96.6597 52.9197 96.5697 53.6897C101 56.9697 103.63 62.1998 103.63 67.7898C103.63 77.4098 95.9297 85.2297 86.4797 85.2297V85.2397Z" fill="#2F3F64"/>
<path id="Vector_3" d="M95.6099 52.4694C95.0599 52.4694 94.6099 52.0194 94.6099 51.4694C94.6099 40.6394 85.7998 31.8193 74.9598 31.8193C69.2698 31.8193 63.8699 34.2894 60.1299 38.5894C59.7699 39.0094 59.1398 39.0493 58.7198 38.6893C58.2998 38.3293 58.2599 37.6994 58.6199 37.2794C62.7399 32.5394 68.6998 29.8193 74.9598 29.8193C86.8998 29.8193 96.6099 39.5294 96.6099 51.4694C96.6099 52.0194 96.1599 52.4694 95.6099 52.4694Z" fill="#2F3F64"/>
<path id="Vector_4" d="M16.2301 49.3998C15.9001 49.3998 15.5702 49.2298 15.3802 48.9298C12.0202 43.5498 10.4901 37.3498 10.9501 31.0198C10.9901 30.4698 11.4702 30.0497 12.0202 30.0997C12.5702 30.1397 12.9801 30.6198 12.9401 31.1698C12.5101 37.0798 13.9401 42.8598 17.0701 47.8798C17.3601 48.3498 17.2202 48.9698 16.7502 49.2598C16.5802 49.3598 16.4001 49.4098 16.2201 49.4098L16.2301 49.3998Z" fill="#2F3F64"/>
<path id="Vector_5" d="M121.75 121.85C121.75 124.53 119.58 126.7 116.9 126.7H55.5396C52.8596 126.7 50.6895 124.53 50.6895 121.85V60.4896C50.6895 57.8096 52.8596 55.6396 55.5396 55.6396H116.9C119.58 55.6396 121.75 57.8096 121.75 60.4896V121.85Z" fill="#BCC5DC"/>
<path id="Vector_6" d="M61.4496 50.5H122.81C125.49 50.5 127.66 52.67 127.66 55.35V116.71C127.66 119.39 125.49 121.56 122.81 121.56H61.4496C58.7696 121.56 56.5996 119.39 56.5996 116.71V55.35C56.5996 52.67 58.7696 50.5 61.4496 50.5Z" fill="#2F3F64"/>
<path id="Vector_7" d="M116.2 81.0796C113.51 76.2296 104.16 76.6497 95.3296 82.0297C94.8396 82.3297 94.3696 82.6496 93.8996 82.9796C93.8996 82.9796 93.8696 83.0197 93.8796 83.0397C93.8796 83.0597 93.9097 83.0597 93.9297 83.0497C99.3997 81.4697 103.88 81.5396 105.9 83.6396C107.01 84.7996 107.24 86.4597 106.73 88.4097C106.38 90.2997 105.27 92.3797 103.57 94.4097C100.92 97.9397 96.8196 101.78 91.7196 105.27C87.0296 108.48 79.4396 112.12 75.0896 113.64C75.0896 113.64 75.0196 113.66 74.9896 113.68C74.7996 113.8 74.7496 114.06 74.8696 114.24C74.9696 114.38 75.1896 114.43 75.3496 114.38C80.1896 113.18 84.5197 111.06 89.0497 109.02C94.0097 106.77 98.7796 104.16 103.28 101.05C107.29 98.2797 111.44 95.2896 114.25 91.1996C116.16 88.4296 117.99 84.3596 116.18 81.0796H116.2Z" fill="#BCC5DC"/>
<path id="Vector_8" d="M96.9894 66.7693C101.919 64.9593 107.039 64.4592 112.219 64.4792C113.499 64.4792 114.599 64.6792 114.689 62.8192C114.779 61.0992 114.169 60.4093 112.439 60.2793C107.409 59.9393 102.399 60.2993 97.4393 61.0393C90.5793 62.0493 83.9293 63.8093 78.2093 68.0493C67.2793 76.1493 67.6594 92.5992 78.9294 100.189C82.3394 102.479 86.1093 103.879 90.0893 104.799C92.3993 105.399 97.2294 105.989 97.8994 106.079C102.549 106.479 107.189 106.699 111.879 106.279C113.799 106.099 113.739 105.129 113.779 103.749C113.819 102.199 113.309 101.569 111.709 101.629C110.359 101.669 109.009 101.679 107.669 101.619H107.589C106.449 101.569 105.309 101.419 104.179 101.229C99.7494 100.579 96.7894 99.6292 96.7894 99.6292C88.1594 96.6992 84.5694 91.6392 84.5194 83.4792C84.4794 75.4492 88.6893 69.8393 96.9693 66.7793H96.9894V66.7693Z" fill="white"/>
</g>
</svg>
