<svg viewBox="0 0 127 128" fill="none" xmlns="http://www.w3.org/2000/svg">
<g id="glpi-cloud-support-2">
<path id="Vector" fill-rule="evenodd" clip-rule="evenodd" d="M26.77 84.2297C26.57 84.2297 26.3799 84.2297 26.1799 84.2297C12.2799 84.2297 1 72.9498 1 59.0498C1 50.7698 5.00993 43.4197 11.1799 38.8297C10.9299 37.2197 10.8 35.5598 10.8 33.8798C10.8 16.1298 25.21 1.71973 42.96 1.71973C59.67 1.71973 73.42 14.4998 74.97 30.8098C85.94 31.2398 94.72 40.2797 94.72 51.3597C94.72 52.3097 94.65 53.2498 94.53 54.1698C98.82 57.1298 101.65 62.1298 101.65 67.7998C101.65 76.8698 94.41 84.2397 85.5 84.2397C85.25 84.2397 84.99 84.2397 84.74 84.2197V84.2397H26.76L26.77 84.2297Z" fill="white"/>
<path id="Vector_2" d="M85.5002 85.2397C85.3002 85.2397 85.0901 85.2397 84.8901 85.2297C84.8401 85.2297 84.7902 85.2397 84.7402 85.2397H26.7603C26.7603 85.2397 26.7002 85.2397 26.6602 85.2397C26.5002 85.2397 26.3302 85.2397 26.1702 85.2397C11.7402 85.2397 -0.00976562 73.4998 -0.00976562 59.0598C-0.00976562 51.0198 3.76034 43.3398 10.1003 38.3998C9.90034 36.9198 9.79028 35.3998 9.79028 33.8798C9.79028 15.5998 24.6702 0.719727 42.9502 0.719727C52.2102 0.719727 61.1201 4.63974 67.3901 11.4797C67.7601 11.8897 67.7403 12.5198 67.3303 12.8898C66.9203 13.2598 66.2902 13.2297 65.9202 12.8297C60.0302 6.39971 51.6602 2.70972 42.9502 2.70972C25.7702 2.70972 11.7903 16.6898 11.7903 33.8698C11.7903 35.4897 11.9102 37.0998 12.1602 38.6698C12.2202 39.0398 12.0703 39.3998 11.7703 39.6298C5.64026 44.1798 1.99023 51.4398 1.99023 59.0498C1.99023 72.3798 12.8402 83.2297 26.1702 83.2297C26.3602 83.2297 26.5502 83.2297 26.7402 83.2297C26.7902 83.2297 26.8301 83.2297 26.8801 83.2297H84.5603C84.6403 83.2197 84.7103 83.2097 84.7903 83.2097C85.0203 83.2197 85.2602 83.2297 85.5002 83.2297C93.8602 83.2297 100.65 76.2998 100.65 67.7898C100.65 62.6598 98.1502 57.8697 93.9602 54.9897C93.6502 54.7797 93.4903 54.3998 93.5403 54.0298C93.6603 53.1498 93.7202 52.2497 93.7202 51.3497C93.7202 40.7997 85.4702 32.2098 74.9302 31.7998C74.3802 31.7798 73.9502 31.3098 73.9702 30.7598C73.9902 30.2098 74.4703 29.7798 75.0103 29.7998C86.6203 30.2498 95.7202 39.7197 95.7202 51.3497C95.7202 52.1297 95.6803 52.9197 95.5903 53.6897C100.02 56.9797 102.65 62.1998 102.65 67.7898C102.65 77.4098 94.9502 85.2297 85.5002 85.2297V85.2397Z" fill="#2F3F64"/>
<path id="Vector_3" d="M94.6305 52.4694C94.0805 52.4694 93.6305 52.0194 93.6305 51.4694C93.6305 40.6394 84.8206 31.8193 73.9806 31.8193C71.3306 31.8193 68.7708 32.3394 66.3508 33.3594C65.8408 33.5694 65.2607 33.3393 65.0407 32.8293C64.8207 32.3193 65.0607 31.7394 65.5707 31.5194C68.2407 30.3894 71.0706 29.8193 73.9806 29.8193C85.9206 29.8193 95.6305 39.5294 95.6305 51.4694C95.6305 52.0194 95.1805 52.4694 94.6305 52.4694Z" fill="#2F3F64"/>
<path id="Vector_4" d="M15.2604 49.3998C14.9304 49.3998 14.6003 49.2298 14.4103 48.9298C11.0503 43.5498 9.52039 37.3598 9.98039 31.0198C10.0204 30.4698 10.5005 30.0497 11.0505 30.0997C11.6005 30.1397 12.0104 30.6198 11.9704 31.1698C11.5404 37.0798 12.9705 42.8598 16.1005 47.8798C16.3905 48.3498 16.2504 48.9598 15.7804 49.2598C15.6104 49.3598 15.4304 49.4098 15.2504 49.4098L15.2604 49.3998Z" fill="#2F3F64"/>
<path id="Vector_5" d="M52.3101 32.8594H33.0701C31.9047 32.8594 30.96 33.804 30.96 34.9694V51.8594C30.96 53.0247 31.9047 53.9694 33.0701 53.9694H52.3101C53.4754 53.9694 54.4199 53.0247 54.4199 51.8594V34.9694C54.4199 33.804 53.4754 32.8594 52.3101 32.8594Z" fill="#FEC95C"/>
<path id="Vector_6" d="M52.3108 54.9694H33.0808C31.3708 54.9694 29.9707 53.5694 29.9707 51.8594V34.9694C29.9707 33.2594 31.3708 31.8594 33.0808 31.8594H52.3108C54.0208 31.8594 55.4207 33.2594 55.4207 34.9694V51.8594C55.4207 53.5694 54.0208 54.9694 52.3108 54.9694ZM33.0808 33.8594C32.4708 33.8594 31.9707 34.3594 31.9707 34.9694V51.8594C31.9707 52.4694 32.4708 52.9694 33.0808 52.9694H52.3108C52.9208 52.9694 53.4207 52.4694 53.4207 51.8594V34.9694C53.4207 34.3594 52.9208 33.8594 52.3108 33.8594H33.0808Z" fill="#2F3F64"/>
<path id="Vector_7" d="M50.51 33.8597H34.8701C34.3201 33.8597 33.8701 33.4097 33.8701 32.8597V25.0398C33.8701 20.1798 37.8299 16.2197 42.6899 16.2197C47.5499 16.2197 51.51 20.1798 51.51 25.0398V32.8597C51.51 33.4097 51.06 33.8597 50.51 33.8597ZM35.8701 31.8597H49.51V25.0398C49.51 21.2798 46.4499 18.2197 42.6899 18.2197C38.9299 18.2197 35.8701 21.2798 35.8701 25.0398V31.8597Z" fill="#2F3F64"/>
<path id="Vector_8" d="M36.71 43.1096L37.53 40.5696C39.43 41.2396 40.7999 41.8097 41.6599 42.2997C41.4299 40.1397 41.31 38.6596 41.3 37.8496H43.8899C43.8499 39.0296 43.72 40.5097 43.48 42.2797C44.71 41.6597 46.11 41.0897 47.7 40.5597L48.52 43.0996C47.01 43.5996 45.5201 43.9396 44.0701 44.1096C44.8001 44.7396 45.8199 45.8696 47.1499 47.4796L45.01 48.9996C44.32 48.0596 43.5001 46.7797 42.5601 45.1597C41.6801 46.8397 40.91 48.1196 40.24 49.0096L38.1299 47.4896C39.5099 45.7796 40.5001 44.6596 41.0901 44.1096C39.5501 43.8096 38.09 43.4796 36.71 43.1096Z" fill="#2F3F64"/>
<path id="Vector_9" d="M121.23 123.28C121.23 125.72 119.25 127.7 116.81 127.7H60.8704C58.4204 127.7 56.4502 125.72 56.4502 123.28V67.3301C56.4502 64.8901 58.4304 62.9102 60.8704 62.9102H116.81C119.25 62.9102 121.23 64.8901 121.23 67.3301V123.28Z" fill="#BCC5DC"/>
<path id="Vector_10" d="M66.25 58.2197H122.2C124.64 58.2197 126.62 60.1998 126.62 62.6398V118.59C126.62 121.03 124.64 123.01 122.2 123.01H66.25C63.81 123.01 61.8301 121.03 61.8301 118.59V62.6398C61.8301 60.1998 63.81 58.2197 66.25 58.2197Z" fill="#2F3F64"/>
<path id="Vector_11" d="M116.17 86.1C113.72 81.68 105.2 82.06 97.14 86.96C96.69 87.23 96.2602 87.53 95.8402 87.82C95.8402 87.82 95.8101 87.86 95.8201 87.87C95.8201 87.89 95.8502 87.89 95.8702 87.88C100.86 86.44 104.94 86.5001 106.78 88.4201C107.79 89.4701 108 90.99 107.54 92.77C107.22 94.49 106.21 96.39 104.66 98.24C102.24 101.46 98.5102 104.96 93.8602 108.14C89.5802 111.07 82.67 114.39 78.69 115.77C78.69 115.77 78.6302 115.79 78.6002 115.81C78.4302 115.92 78.3801 116.16 78.4901 116.32C78.5801 116.45 78.78 116.49 78.93 116.45C83.34 115.35 87.29 113.43 91.42 111.56C95.94 109.51 100.29 107.13 104.39 104.3C108.05 101.77 111.83 99.05 114.39 95.32C116.13 92.79 117.8 89.08 116.15 86.09L116.17 86.1Z" fill="#BCC5DC"/>
<path id="Vector_12" d="M98.6504 73.0502C103.14 71.4002 107.811 70.9401 112.531 70.9601C113.701 70.9601 114.701 71.1401 114.781 69.4501C114.861 67.8801 114.31 67.2501 112.73 67.1401C108.14 66.8201 103.581 67.1601 99.0606 67.8301C92.8106 68.7501 86.7505 70.3601 81.5205 74.2201C71.5605 81.6101 71.9004 96.6001 82.1804 103.53C85.2904 105.62 88.7306 106.9 92.3506 107.73C94.4606 108.28 98.8605 108.82 99.4705 108.9C103.71 109.27 107.94 109.47 112.21 109.08C113.96 108.92 113.91 108.04 113.94 106.78C113.98 105.37 113.511 104.79 112.051 104.84C110.821 104.88 109.591 104.89 108.371 104.83H108.301C107.261 104.78 106.22 104.65 105.19 104.48C101.15 103.89 98.4505 103.02 98.4505 103.02C90.5805 100.35 87.3105 95.7402 87.2705 88.3002C87.2305 80.9702 91.0706 75.86 98.6206 73.07H98.6404L98.6504 73.0502Z" fill="white"/>
</g>
</svg>
