<svg width="98" height="98" viewBox="0 0 98 98" fill="none" xmlns="http://www.w3.org/2000/svg">
<g clip-path="url(#clip0_227_21)">
<mask id="mask0_227_21" style="mask-type:luminance" maskUnits="userSpaceOnUse" x="0" y="0" width="98" height="98">
<path d="M98 0H0V98H98V0Z" fill="white"/>
</mask>
<g mask="url(#mask0_227_21)">
<path d="M80.9836 50.5918C83.5809 50.6556 85.6526 52.7591 85.6526 55.3724C85.6526 57.9857 83.5174 60.1527 80.8719 60.1527C79.0872 60.1527 77.5257 59.1808 76.7129 57.7307C78.4181 55.5476 79.8522 53.1573 80.9836 50.5918Z" fill="white"/>
<path d="M84.0591 36.2505H69.7175C69.7175 29.4305 68.5703 23.0565 66.5625 17.6705C69.3828 16.2363 72.06 14.4038 74.5299 12.2207C80.4417 18.4991 84.0591 26.9446 84.0591 36.2505Z" fill="#FEC95C"/>
<path d="M83.9922 38.2598C84.04 37.5907 84.056 36.9213 84.056 36.252C84.056 36.9213 84.04 37.6064 83.9922 38.2598Z" fill="#FEC95C"/>
<path d="M83.5293 42.2598C83.6567 41.6065 83.7363 40.9692 83.8159 40.2998C83.7523 40.9692 83.6567 41.6225 83.5293 42.2598Z" fill="#FEC95C"/>
<path d="M83.1338 44.2193C83.2772 43.5977 83.4049 42.9765 83.5163 42.3389C83.4207 42.9765 83.2933 43.5977 83.1338 44.2193Z" fill="#FEC95C"/>
<path d="M80.8672 50.5918H80.9789C79.8474 53.1573 78.4134 55.5476 76.7085 57.7307C76.3099 57.0455 76.0869 56.2327 76.0869 55.3724C76.0869 52.7273 78.2221 50.5918 80.8672 50.5918Z" fill="white"/>
<path d="M49.0013 50.5918C51.6464 50.5918 53.7816 52.7273 53.7816 55.3724C53.7816 58.0175 51.6464 60.1527 49.0013 60.1527C46.3559 60.1527 44.2207 58.0175 44.2207 55.3724C44.2207 52.7273 46.3559 50.5918 49.0013 50.5918Z" fill="white"/>
<path d="M49 1.19531C59.0551 1.19531 68.1379 5.43401 74.5278 12.2223C72.0579 14.4054 69.3807 16.2379 66.5604 17.6721C62.9112 7.77645 56.4097 1.19531 49 1.19531Z" fill="#FEC95C"/>
<path d="M49 1.19531C56.4097 1.19531 62.9112 7.77645 66.5604 17.6721C61.0629 20.4925 55.0395 21.9107 49 21.9107V1.19531Z" fill="#FEC95C"/>
<path d="M48.9965 21.9116V36.2531H28.2812C28.2812 29.4329 29.4286 23.0589 31.4364 17.6729C36.9339 20.4934 42.9574 21.9116 48.9965 21.9116Z" fill="#FEC95C"/>
<path d="M48.9979 1.19531V21.9107C42.9584 21.9107 36.9353 20.4925 31.4375 17.6721C35.0867 7.77645 41.5882 1.19531 48.9979 1.19531Z" fill="#FEC95C"/>
<path d="M49.0014 1.19531C41.5918 1.19531 35.0902 7.77645 31.441 17.6721C28.6206 16.2379 25.9435 14.4054 23.4736 12.2223C29.8635 5.43401 38.9463 1.19531 49.0014 1.19531Z" fill="#FEC95C"/>
<path d="M23.4725 12.2207C25.9424 14.4038 28.6195 16.2363 31.4399 17.6705C29.4321 23.0565 28.2848 29.4305 28.2848 36.2505H13.9434C13.9434 26.9446 17.5606 18.4991 23.4725 12.2207Z" fill="#FEC95C"/>
<path d="M21.9106 55.3724C21.9106 56.2327 21.6875 57.0455 21.2891 57.7307C19.5841 55.5476 18.1499 53.1573 17.0186 50.5918H17.1301C19.7753 50.5918 21.9106 52.7273 21.9106 55.3724Z" fill="white"/>
<path d="M21.2882 57.7307C20.4755 59.1808 18.9138 60.1527 17.1291 60.1527C14.4839 60.1527 12.3486 58.0175 12.3486 55.3724C12.3486 52.7273 14.4202 50.6556 17.0176 50.5918C18.149 53.1573 19.5831 55.5476 21.2882 57.7307Z" fill="white"/>
<path d="M14.4834 42.3389C14.5949 42.9765 14.7224 43.5977 14.8658 44.2193C14.7065 43.5977 14.579 42.9765 14.4834 42.3389Z" fill="#FEC95C"/>
<path d="M14.1807 40.2998C14.2603 40.9692 14.34 41.6065 14.4675 42.2598C14.34 41.6225 14.2444 40.9692 14.1807 40.2998Z" fill="#FEC95C"/>
<path d="M13.9434 36.252C13.9434 36.9213 13.9593 37.5907 14.0071 38.2598C13.9593 37.6064 13.9434 36.9213 13.9434 36.252Z" fill="#FEC95C"/>
<path d="M49.0003 36.252H84.0573C84.0573 36.9213 84.0413 37.5907 83.9934 38.2598V38.3714C83.9617 39.0248 83.8978 39.6621 83.8182 40.2996C83.7383 40.9687 83.6588 41.6063 83.5314 42.2596C83.5474 42.2914 83.5314 42.3075 83.5153 42.3392C83.404 42.9765 83.2763 43.5981 83.1328 44.2197C82.639 46.4345 81.906 48.5697 80.9819 50.5935H80.8702C78.2251 50.5935 76.0896 52.7287 76.0896 55.3741C76.0896 56.2344 76.3129 57.0473 76.7111 57.7324C72.5363 63.1185 66.8155 67.2455 60.2344 69.4606C58.9277 66.7196 56.1231 64.9351 53.0477 64.9351H44.9529C41.8775 64.9351 39.0729 66.7196 37.7662 69.4606C31.1851 67.2455 25.4643 63.1185 21.2894 57.7324C21.6878 57.0473 21.9108 56.2344 21.9108 55.3741C21.9108 52.7287 19.7755 50.5935 17.1303 50.5935H17.0188C16.0946 48.5697 15.3616 46.4345 14.8676 44.2197C14.7242 43.5981 14.5967 42.9765 14.4852 42.3392C14.4692 42.3075 14.4533 42.2914 14.4692 42.2596C14.3417 41.6063 14.2621 40.9687 14.1824 40.2996C14.1027 39.6621 14.039 39.0248 14.0071 38.3714V38.2598C13.9593 37.5907 13.9434 36.9213 13.9434 36.252H49.0003ZM49.0003 60.1544C51.6454 60.1544 53.7806 58.0192 53.7806 55.3741C53.7806 52.7287 51.6454 50.5935 49.0003 50.5935C46.3552 50.5935 44.2197 52.7287 44.2197 55.3741C44.2197 58.0192 46.3552 60.1544 49.0003 60.1544Z" fill="#FEC95C"/>
<path d="M69.7154 36.2531H49V21.9116C55.0395 21.9116 61.0629 20.4934 66.5604 17.6729C68.5682 23.0589 69.7154 29.4329 69.7154 36.2531Z" fill="#FEC95C"/>
<path d="M80.8687 93.6184C80.8687 95.3714 79.4346 96.8054 77.6816 96.8054C75.9289 96.8054 74.4945 95.3714 74.4945 93.6184V74.4965L71.1643 83.4041L71.1005 83.5796C70.6544 84.7906 69.4752 85.651 68.1207 85.651C66.368 85.651 64.9336 84.2169 64.9336 82.4639C64.9336 82.0657 64.9974 81.6992 65.1409 81.3485L69.3635 70.0984C70.5267 66.9912 73.5068 64.9355 76.8213 64.9355H84.9161C88.2306 64.9355 91.2104 66.9912 92.3736 70.0984L96.5487 81.2211L96.5965 81.3485C96.7399 81.6992 96.8035 82.0657 96.8035 82.4639C96.8035 84.2169 95.3694 85.651 93.6167 85.651C92.2622 85.651 91.083 84.7906 90.6369 83.5796L90.5731 83.4041L87.2425 74.4965V93.6184C87.2425 95.3714 85.8085 96.8054 84.0558 96.8054C82.3028 96.8054 80.8687 95.3714 80.8687 93.6184Z" fill="#BCC5DC"/>
<path d="M49.0012 71.3096C52.9212 71.3096 56.6978 70.6562 60.2353 69.4609C60.3309 69.6682 60.4265 69.8755 60.5064 70.0985L64.6812 81.2209L64.729 81.3486C64.8725 81.6991 64.9363 82.0655 64.9363 82.4641C64.9363 84.2168 63.5019 85.6511 61.7492 85.6511C60.3947 85.6511 59.2155 84.7905 58.7694 83.5795L58.7056 83.4043L55.3754 74.4967V93.6185C55.3754 95.3712 53.941 96.8056 52.1883 96.8056C50.4353 96.8056 49.0012 95.3712 49.0012 93.6185C49.0012 95.3712 47.5671 96.8056 45.8141 96.8056C44.0614 96.8056 42.6273 95.3712 42.6273 93.6185V74.4967L39.2968 83.4043L39.2333 83.5795C38.7869 84.7905 37.6077 85.6511 36.2532 85.6511C34.5005 85.6511 33.0664 84.2168 33.0664 82.4641C33.0664 82.0655 33.13 81.6991 33.2734 81.3486L37.4963 70.0985C37.5759 69.8755 37.6715 69.6682 37.7671 69.4609C41.3046 70.6562 45.0812 71.3096 49.0012 71.3096Z" fill="white"/>
<path d="M53.0464 64.9355C56.1218 64.9355 58.9264 66.7203 60.2331 69.4611C56.6953 70.6564 52.9187 71.3097 48.9987 71.3097C45.0787 71.3097 41.3022 70.6564 37.7646 69.4611C39.0713 66.7203 41.8759 64.9355 44.9513 64.9355H53.0464Z" fill="white"/>
<path d="M17.1303 93.6184C17.1303 95.3714 15.6961 96.8054 13.9433 96.8054C12.1904 96.8054 10.7563 95.3714 10.7563 93.6184V74.4965L7.42587 83.4041L7.36214 83.5796C6.91598 84.7906 5.73677 85.651 4.38229 85.651C2.62946 85.651 1.19531 84.2169 1.19531 82.4639C1.19531 82.0657 1.25905 81.6992 1.40247 81.3485L5.62523 70.0984C6.78849 66.9912 9.76831 64.9355 13.0828 64.9355H21.1777C24.4922 64.9355 27.4721 66.9912 28.6353 70.0984L32.8103 81.2211L32.8581 81.3485C33.0015 81.6992 33.0654 82.0657 33.0654 82.4639C33.0654 84.2169 31.631 85.651 29.8783 85.651C28.5238 85.651 27.3446 84.7906 26.8984 83.5796L26.8347 83.4041L23.5043 74.4965V93.6184C23.5043 95.3714 22.0701 96.8054 20.3173 96.8054C18.5644 96.8054 17.1303 95.3714 17.1303 93.6184Z" fill="#BCC5DC"/>
<path d="M48.9997 94.8136C48.3404 94.8136 47.8047 94.2778 47.8047 93.6185V84.0576C47.8047 83.3983 48.3404 82.8623 48.9997 82.8623C49.659 82.8623 50.1947 83.3983 50.1947 84.0576V93.6185C50.1947 94.2778 49.659 94.8136 48.9997 94.8136Z" fill="#2F3F64"/>
<path d="M49.001 61.3477C45.7064 61.3477 43.0254 58.6667 43.0254 55.3721C43.0254 52.0775 45.7064 49.3965 49.001 49.3965C52.2956 49.3965 54.9766 52.0775 54.9766 55.3721C54.9766 58.6667 52.2956 61.3477 49.001 61.3477ZM49.001 51.7868C47.025 51.7868 45.4157 53.394 45.4157 55.3721C45.4157 57.3499 47.025 58.9574 49.001 58.9574C50.9768 58.9574 52.5863 57.3499 52.5863 55.3721C52.5863 53.394 50.9768 51.7868 49.001 51.7868Z" fill="#2F3F64"/>
<path d="M61.7498 86.8461C59.9252 86.8461 58.2782 85.6986 57.6487 83.9916C57.4197 83.3721 57.7384 82.6849 58.3578 82.4578C58.9773 82.2288 59.6645 82.5474 59.8914 83.1669C60.1765 83.9379 60.9234 84.4558 61.7498 84.4558C62.8474 84.4558 63.7419 83.5613 63.7419 82.4637C63.7419 82.2089 63.7039 81.9978 63.6243 81.8006C63.6204 81.7905 63.6163 81.7786 63.6124 81.7688L59.3895 70.5187C59.3218 70.3292 59.2401 70.1519 59.1546 69.9648C58.0451 67.6384 55.6489 66.1304 53.0516 66.1304H44.9565C42.3592 66.1304 39.9629 67.6405 38.8493 69.9749C38.7676 70.1519 38.686 70.3274 38.6263 70.4988L34.3977 81.7667C34.3936 81.7765 34.3897 81.7887 34.3855 81.7985C34.3039 81.9957 34.2682 82.2068 34.2682 82.4619C34.2682 83.5592 35.1624 84.4537 36.26 84.4537C37.0865 84.4537 37.8337 83.9358 38.1185 83.1648C38.3474 82.5454 39.0325 82.2288 39.652 82.456C40.2715 82.6849 40.5883 83.3701 40.3612 83.9895C39.7319 85.6965 38.0846 86.844 36.26 86.844C33.8439 86.844 31.8779 84.8781 31.8779 82.4619C31.8779 81.9001 31.9715 81.3943 32.1666 80.912L36.3836 69.6759C36.4732 69.4232 36.5867 69.1782 36.6862 68.9629C38.2019 65.782 41.4469 63.7383 44.9603 63.7383H53.0554C56.5692 63.7383 59.8139 65.782 61.3216 68.9451C61.4294 69.1782 61.5428 69.4232 61.6385 69.6958L65.8492 80.912C66.0443 81.3943 66.1381 81.9021 66.1381 82.4619C66.1381 84.8781 64.1719 86.844 61.7561 86.844L61.7498 86.8461Z" fill="#2F3F64"/>
<path d="M52.1875 97.9983C50.9328 97.9983 49.7993 97.4685 49.0007 96.6201C48.2019 97.4685 47.0686 97.9983 45.8136 97.9983C43.3975 97.9983 41.4315 96.0324 41.4315 93.6163V81.1034L40.3559 83.9855C40.1308 84.605 39.4457 84.9257 38.8242 84.7006C38.2047 84.4755 37.8839 83.7883 38.1111 83.1689L38.1747 82.9936L41.5091 74.0759C41.7125 73.5343 42.274 73.2156 42.8419 73.3193C43.4114 73.4226 43.8236 73.9168 43.8236 74.4944V93.6163C43.8236 94.7139 44.7181 95.608 45.8157 95.608C46.913 95.608 47.8075 94.7139 47.8075 93.6163C47.8075 92.957 48.3432 92.4212 49.0025 92.4212C49.6618 92.4212 50.1978 92.957 50.1978 93.6163C50.1978 94.7139 51.092 95.608 52.1896 95.608C53.2872 95.608 54.1813 94.7139 54.1813 93.6163V74.4944C54.1813 73.9168 54.5956 73.4208 55.1634 73.3193C55.7312 73.2156 56.2928 73.5343 56.4959 74.0759L59.8942 83.1689C60.1193 83.7883 59.8006 84.4755 59.1811 84.7006C58.5616 84.9257 57.8745 84.6071 57.6494 83.9855L57.5855 83.8103L56.5737 81.1034V93.6163C56.5737 96.0324 54.6078 97.9983 52.1916 97.9983H52.1875Z" fill="#2F3F64"/>
<path d="M80.8718 94.8136C80.2125 94.8136 79.6768 94.2778 79.6768 93.6185V84.0576C79.6768 83.3983 80.2125 82.8623 80.8718 82.8623C81.531 82.8623 82.0671 83.3983 82.0671 84.0576V93.6185C82.0671 94.2778 81.531 94.8136 80.8718 94.8136Z" fill="#2F3F64"/>
<path d="M17.1287 94.8136C16.4694 94.8136 15.9336 94.2778 15.9336 93.6185V84.0576C15.9336 83.3983 16.4694 82.8623 17.1287 82.8623C17.7881 82.8623 18.3238 83.3983 18.3238 84.0576V93.6185C18.3238 94.2778 17.7881 94.8136 17.1287 94.8136Z" fill="#2F3F64"/>
<path d="M80.8669 61.3477C78.7097 61.3477 76.72 60.1884 75.6703 58.3219C75.1604 57.4417 74.8916 56.4219 74.8916 55.3721C74.8916 52.0775 77.5726 49.3965 80.8669 49.3965H80.9786C80.9786 49.3965 80.9985 49.3965 81.0086 49.3965C84.2812 49.4761 86.8426 52.1013 86.8426 55.3721C86.8426 58.6426 84.1615 61.3477 80.8669 61.3477ZM80.8669 51.7868C78.8912 51.7868 77.2816 53.394 77.2816 55.3721C77.2816 56.0055 77.4411 56.6131 77.7419 57.129C77.7458 57.1349 77.7479 57.1388 77.7517 57.1447C78.3771 58.2622 79.5724 58.9553 80.869 58.9553C82.845 58.9553 84.4543 57.3478 84.4543 55.37C84.4543 53.3922 82.9226 51.8405 80.9646 51.7847L80.8669 51.7868Z" fill="#2F3F64"/>
<path d="M17.1289 61.3477C13.8344 61.3477 11.1533 58.6667 11.1533 55.3721C11.1533 52.0775 13.7169 49.4761 16.9875 49.3965C16.9975 49.3965 17.0074 49.3965 17.0174 49.3965H17.1289C20.4235 49.3965 23.1045 52.0775 23.1045 55.3721C23.1045 56.4237 22.8356 57.4435 22.3257 58.3219C21.276 60.1884 19.2861 61.3477 17.1289 61.3477ZM17.0333 51.7868C15.0753 51.8423 13.5436 53.4142 13.5436 55.3721C13.5436 57.33 15.153 58.9574 17.1289 58.9574C18.4256 58.9574 19.6188 58.2643 20.2462 57.1468C20.2502 57.1409 20.2522 57.1349 20.2562 57.1308C20.5569 56.6128 20.7163 56.0055 20.7163 55.3742C20.7163 53.3961 19.1069 51.7886 17.1309 51.7886L17.0333 51.7868Z" fill="#2F3F64"/>
<path d="M93.6184 86.8461C91.7938 86.8461 90.1465 85.6986 89.517 83.9916C89.288 83.3721 89.6066 82.6849 90.2261 82.4578C90.8456 82.2288 91.5328 82.5474 91.76 83.1669C92.0448 83.9379 92.7916 84.4558 93.6184 84.4558C94.716 84.4558 95.6102 83.5613 95.6102 82.4637C95.6102 82.2089 95.5725 81.9978 95.4926 81.8006C95.4887 81.7905 95.4849 81.7786 95.4807 81.7688L91.2581 70.5187C90.276 67.8932 87.7283 66.1304 84.9199 66.1304H76.8248C74.0163 66.1304 71.4686 67.8932 70.4868 70.5166L66.2639 81.7667C66.2601 81.7765 66.2559 81.7887 66.252 81.7985C66.1704 81.9957 66.1344 82.2068 66.1344 82.4619C66.1344 83.5592 67.0289 84.4537 68.1265 84.4537C68.953 84.4537 69.6999 83.9358 69.9847 83.1648C70.2139 82.5454 70.899 82.2288 71.5185 82.456C72.138 82.6849 72.4549 83.3701 72.2277 83.9895C71.5981 85.6965 69.9508 86.844 68.1265 86.844C65.7104 86.844 63.7441 84.8781 63.7441 82.4619C63.7441 81.9001 63.838 81.3943 64.0331 80.912L68.2498 69.6759C69.5784 66.1244 73.0265 63.7383 76.8268 63.7383H84.9219C88.7223 63.7383 92.1683 66.1244 93.4987 69.678L97.7157 80.912C97.9108 81.3943 98.0043 81.9021 98.0043 82.4619C98.0043 84.8781 96.0384 86.844 93.6223 86.844L93.6184 86.8461Z" fill="#2F3F64"/>
<path d="M29.88 86.8461C28.0554 86.8461 26.4081 85.6986 25.7787 83.9916C25.5496 83.3721 25.8683 82.6849 26.4878 82.4578C27.1072 82.2288 27.7944 82.5474 28.0215 83.1669C28.3064 83.9379 29.0533 84.4558 29.88 84.4558C30.9776 84.4558 31.8717 83.5613 31.8717 82.4637C31.8717 82.2089 31.834 81.9978 31.7541 81.8006C31.7503 81.7905 31.7464 81.7786 31.7423 81.7688L27.5196 70.5187C26.5376 67.8932 23.99 66.1304 21.1814 66.1304H13.0865C10.2779 66.1304 7.73033 67.8932 6.74834 70.5166L2.52558 81.7667C2.52159 81.7765 2.51761 81.7887 2.51362 81.7985C2.43196 81.9957 2.3961 82.2068 2.3961 82.4619C2.3961 83.5592 3.29045 84.4537 4.38796 84.4537C5.21461 84.4537 5.96155 83.9358 6.2464 83.1648C6.47545 82.5454 7.16065 82.2288 7.78013 82.456C8.39961 82.6849 8.7163 83.3701 8.48923 83.9895C7.85981 85.6965 6.21252 86.844 4.38796 86.844C1.97183 86.844 0.00585938 84.8781 0.00585938 82.4619C0.00585938 81.9001 0.0994772 81.3943 0.29468 80.912L4.51147 69.6759C5.84006 66.1244 9.28796 63.7383 13.0885 63.7383H21.1834C24.9839 63.7383 28.4298 66.1244 29.7603 69.678L33.9773 80.912C34.1724 81.3943 34.2659 81.9021 34.2659 82.4619C34.2659 84.8781 32.3 86.844 29.8838 86.844L29.88 86.8461Z" fill="#2F3F64"/>
<path d="M84.0599 97.9983C82.8049 97.9983 81.6713 97.4685 80.8728 96.6201C80.0739 97.4685 78.9407 97.9983 77.6857 97.9983C75.2696 97.9983 73.3036 96.0324 73.3036 93.6163V81.1034L72.228 83.9855C72.0029 84.605 71.3178 84.9257 70.6962 84.7006C70.0767 84.4755 69.756 83.7883 69.9832 83.1689L70.047 82.9936L73.3814 74.0759C73.5846 73.5343 74.1461 73.2156 74.7139 73.3193C75.2835 73.4226 75.696 73.9168 75.696 74.4944V93.6163C75.696 94.7139 76.5902 95.608 77.6878 95.608C78.7854 95.608 79.6796 94.7139 79.6796 93.6163C79.6796 92.957 80.2153 92.4212 80.8749 92.4212C81.5341 92.4212 82.0699 92.957 82.0699 93.6163C82.0699 94.7139 82.9643 95.608 84.0616 95.608C85.1592 95.608 86.0537 94.7139 86.0537 93.6163V74.4944C86.0537 73.9168 86.468 73.4208 87.0355 73.3193C87.6033 73.2156 88.1649 73.5343 88.368 74.0759L91.7662 83.1689C91.9913 83.7883 91.6727 84.4755 91.0532 84.7006C90.4337 84.9257 89.7465 84.6071 89.5214 83.9855L89.4576 83.8103L88.4458 81.1034V93.6163C88.4458 96.0324 86.4799 97.9983 84.0637 97.9983H84.0599Z" fill="#2F3F64"/>
<path d="M20.3155 97.9983C19.0607 97.9983 17.9273 97.4685 17.1286 96.6201C16.3298 97.4685 15.1964 97.9983 13.9416 97.9983C11.5254 97.9983 9.55945 96.0324 9.55945 93.6163V81.1034L8.48383 83.9855C8.25875 84.605 7.57156 84.9257 6.95209 84.7006C6.33261 84.4755 6.01194 83.7883 6.239 83.1689L6.30273 82.9936L9.63714 74.0759C9.84029 73.5343 10.402 73.2156 10.9697 73.3193C11.5394 73.4226 11.9517 73.9168 11.9517 74.4944V93.6163C11.9517 94.7139 12.846 95.608 13.9436 95.608C15.0411 95.608 15.9354 94.7139 15.9354 93.6163C15.9354 92.957 16.4712 92.4212 17.1305 92.4212C17.7898 92.4212 18.3257 92.957 18.3257 93.6163C18.3257 94.7139 19.22 95.608 20.3175 95.608C21.415 95.608 22.3094 94.7139 22.3094 93.6163V74.4944C22.3094 73.9168 22.7237 73.4208 23.2914 73.3193C23.8591 73.2156 24.4208 73.5343 24.624 74.0759L28.0221 83.1689C28.2472 83.7883 27.9285 84.4755 27.309 84.7006C26.6895 84.9257 26.0023 84.6071 25.7773 83.9855L25.7135 83.8103L24.7016 81.1034V93.6163C24.7016 96.0324 22.7357 97.9983 20.3195 97.9983H20.3155Z" fill="#2F3F64"/>
<path d="M14.8648 45.4142C14.321 45.4142 13.829 45.0398 13.7015 44.488C13.5481 43.8246 13.4186 43.1894 13.3071 42.5458C13.1936 41.8966 13.6278 41.2772 14.2791 41.1616C14.9285 41.0479 15.548 41.4824 15.6635 42.1336C15.7691 42.735 15.8906 43.3286 16.034 43.9523C16.1814 44.5955 15.781 45.237 15.1376 45.3863C15.048 45.4062 14.9564 45.416 14.8687 45.416L14.8648 45.4142Z" fill="#2F3F64"/>
<path d="M14.4692 43.454C13.9094 43.454 13.4095 43.0575 13.298 42.4879C13.1625 41.7945 13.0788 41.1233 12.9972 40.44C12.9035 39.6911 12.8458 39.0499 12.8139 38.4283C12.7821 37.7691 13.29 37.2093 13.9493 37.1754C14.6106 37.1416 15.1683 37.6515 15.2022 38.3107C15.2301 38.8705 15.2819 39.4541 15.3695 40.1493C15.4492 40.8186 15.5249 41.4162 15.6444 42.0297C15.7699 42.6771 15.3476 43.3046 14.7002 43.432C14.6226 43.4477 14.5469 43.454 14.4692 43.454Z" fill="#2F3F64"/>
<path d="M14.0069 39.4548C13.3854 39.4548 12.8616 38.9746 12.8158 38.3453C12.77 37.7157 12.748 37.0306 12.748 36.2516C12.748 35.5924 13.2839 35.0566 13.9432 35.0566C14.6025 35.0566 15.1383 35.5924 15.1383 36.2516C15.1383 36.9727 15.1582 37.6023 15.198 38.1739C15.2459 38.8332 14.7499 39.4049 14.0906 39.4506C14.0607 39.4527 14.0348 39.4548 14.0069 39.4548Z" fill="#2F3F64"/>
<path d="M83.9928 39.4548C83.9649 39.4548 83.9352 39.4548 83.9072 39.4506C83.248 39.4028 82.7538 38.8311 82.7998 38.1739C82.8414 37.6023 82.8595 36.9727 82.8595 36.2516C82.8595 35.5924 83.3953 35.0566 84.0545 35.0566C84.7138 35.0566 85.2498 35.5924 85.2498 36.2516C85.2498 37.0306 85.2279 37.7157 85.1818 38.3453C85.1361 38.9746 84.6143 39.4548 83.9928 39.4548Z" fill="#2F3F64"/>
<path d="M83.532 43.4548C83.4563 43.4548 83.3784 43.4468 83.3009 43.4328C82.6535 43.3072 82.2292 42.6779 82.3566 42.0305C82.4763 41.4191 82.5499 40.8195 82.6295 40.1581C82.7171 39.457 82.7709 38.8714 82.797 38.3137C82.8288 37.6544 83.3844 37.1445 84.0499 37.1784C84.7092 37.2101 85.217 37.772 85.1852 38.4313C85.1552 39.0528 85.0976 39.694 85.002 40.4489C84.9221 41.1263 84.8366 41.7974 84.7032 42.4888C84.5916 43.0583 84.0915 43.4548 83.532 43.4548Z" fill="#2F3F64"/>
<path d="M83.1344 45.4157C83.0447 45.4157 82.955 45.4056 82.8653 45.3857C82.2221 45.2364 81.8215 44.5949 81.9691 43.9517C82.1125 43.3301 82.234 42.7347 82.3394 42.133C82.4531 41.4836 83.0744 41.0494 83.7239 41.1611C84.3733 41.2745 84.8093 41.894 84.6958 42.5452C84.5824 43.1888 84.455 43.824 84.3015 44.4874C84.1741 45.0392 83.682 45.4137 83.1382 45.4137L83.1344 45.4157Z" fill="#2F3F64"/>
<path d="M69.1771 45.4147C69.1233 45.4147 69.0675 45.4105 69.0119 45.4028C68.3586 45.3131 67.9004 44.7094 67.9901 44.056C68.3426 41.4947 68.5199 38.8695 68.5199 36.252C68.5199 29.7745 67.454 23.4941 65.4403 18.0901C63.6775 13.3117 61.2316 9.33391 58.3632 6.58711C55.4989 3.84231 52.2623 2.39224 48.9994 2.39224C45.7369 2.39224 42.5 3.84231 39.6357 6.58711C36.7676 9.3359 34.3214 13.3117 32.5607 18.0862C30.5449 23.4941 29.4792 29.7745 29.4792 36.252C29.4792 38.8695 29.6584 41.4968 30.0091 44.056C30.0985 44.7094 29.6425 45.3131 28.9872 45.4028C28.3338 45.4943 27.7303 45.036 27.6407 44.3809C27.2742 41.7118 27.0869 38.977 27.0869 36.2499C27.0869 29.4896 28.2044 22.9204 30.3177 17.2516C34.3054 6.45167 41.2889 0 49.0015 0C56.7141 0 63.6974 6.45167 67.6833 17.2576C69.7948 22.9224 70.9119 29.4916 70.9119 36.252C70.9119 38.9788 70.7269 41.7138 70.3584 44.3827C70.2767 44.9823 69.7645 45.4147 69.1771 45.4147Z" fill="#2F3F64"/>
<path d="M48.9997 45.4147C48.3404 45.4147 47.8047 44.879 47.8047 44.2194V1.19512C47.8047 0.535814 48.3404 0 48.9997 0C49.659 0 50.1947 0.535814 50.1947 1.19512V44.2194C50.1947 44.879 49.659 45.4147 48.9997 45.4147Z" fill="#2F3F64"/>
<path d="M84.0571 37.447H13.9432C13.2839 37.447 12.748 36.9109 12.748 36.2516C12.748 35.5924 13.2839 35.0566 13.9432 35.0566H84.0571C84.7164 35.0566 85.2521 35.5924 85.2521 36.2516C85.2521 36.9109 84.7164 37.447 84.0571 37.447Z" fill="#2F3F64"/>
<path d="M49.0034 23.1063C42.7311 23.1063 36.4707 21.5945 30.8975 18.7362C27.9973 17.2622 25.2326 15.3699 22.683 13.1191C22.189 12.6829 22.1412 11.926 22.5794 11.432C23.0176 10.938 23.7725 10.8902 24.2665 11.3284C26.6627 13.4457 29.2601 15.2225 31.985 16.6089C37.2256 19.2979 43.1095 20.7181 49.0034 20.7181C54.8974 20.7181 60.7816 19.2979 66.018 16.6109C68.7469 15.2225 71.3424 13.4478 73.7386 11.3284C74.2325 10.8922 74.9874 10.938 75.4257 11.432C75.862 11.926 75.8162 12.6809 75.3221 13.1191C72.7744 15.3719 70.0099 17.2622 67.1055 18.7382C61.5365 21.5945 55.276 23.1063 49.0034 23.1063Z" fill="#2F3F64"/>
<path d="M83.9919 39.5684C83.3326 39.5684 82.7969 39.0326 82.7969 38.3731V38.2617C82.7969 37.6024 83.3326 37.0664 83.9919 37.0664C84.6512 37.0664 85.1869 37.6024 85.1869 38.2617V38.3731C85.1869 39.0326 84.6512 39.5684 83.9919 39.5684Z" fill="#2F3F64"/>
<path d="M83.5154 43.5356C83.3363 43.5356 83.1531 43.4955 82.9817 43.41C82.4757 43.1569 82.2268 42.5912 82.3542 42.0635C82.416 41.7009 82.6432 41.3704 82.9978 41.1931C83.5873 40.8961 84.3062 41.1352 84.6011 41.7249C84.6887 41.9002 84.8622 42.3643 84.5771 42.8941C84.3641 43.3025 83.9457 43.5356 83.5154 43.5356Z" fill="#2F3F64"/>
<path d="M14.4831 43.5356C14.0509 43.5356 13.6346 43.3004 13.4214 42.892C13.1366 42.3643 13.3099 41.9002 13.3976 41.7249C13.6943 41.1352 14.4114 40.8961 15.001 41.1931C15.3556 41.3704 15.5826 41.7009 15.6444 42.0635C15.7699 42.5912 15.5229 43.1569 15.0169 43.41C14.8456 43.4955 14.6624 43.5356 14.4831 43.5356Z" fill="#2F3F64"/>
<path d="M14.0076 39.5684C13.3483 39.5684 12.8125 39.0326 12.8125 38.3731V38.2617C12.8125 37.6024 13.3483 37.0664 14.0076 37.0664C14.6669 37.0664 15.2027 37.6024 15.2027 38.2617V38.3731C15.2027 39.0326 14.6669 39.5684 14.0076 39.5684Z" fill="#2F3F64"/>
<path d="M84.0571 37.4473C83.3978 37.4473 82.8618 36.9113 82.8618 36.252C82.8618 27.5874 79.5933 19.3451 73.6575 13.0408C67.2854 6.27239 58.2982 2.39024 49.0001 2.39024C39.702 2.39024 30.7148 6.27239 24.3427 13.0408C18.407 19.3451 15.1383 27.5874 15.1383 36.252C15.1383 36.9113 14.6025 37.4473 13.9432 37.4473C13.2839 37.4473 12.748 36.9113 12.748 36.252C12.748 26.9759 16.2477 18.1519 22.6018 11.4035C25.9541 7.84199 29.916 5.03943 34.3797 3.06948C38.997 1.03179 43.9169 0 49.0001 0C54.0833 0 59.0032 1.03179 63.6205 3.06948C68.0822 5.03744 72.0462 7.84199 75.3983 11.4035C81.7523 18.1519 85.2521 26.9759 85.2521 36.252C85.2521 36.9113 84.7164 37.4473 84.0571 37.4473Z" fill="#2F3F64"/>
</g>
</g>
<defs>
<clipPath id="clip0_227_21">
<rect width="98" height="98" fill="white"/>
</clipPath>
</defs>
</svg>
