<svg width="98" height="81" viewBox="0 0 98 81" fill="none" xmlns="http://www.w3.org/2000/svg">
<g clip-path="url(#clip0_202_285)">
<mask id="mask0_202_285" style="mask-type:luminance" maskUnits="userSpaceOnUse" x="0" y="0" width="98" height="81">
<path d="M0.000198364 0H97.2002V81H0.000198364V0Z" fill="white"/>
</mask>
<g mask="url(#mask0_202_285)">
<path d="M8.80176 40.5V45.0419C8.80176 46.7076 10.1794 48.07 11.8632 48.07C13.547 48.07 14.9246 46.7076 14.9246 45.0419V40.5H8.80176Z" fill="#BCC5DC"/>
<path d="M8.80176 31.4149V40.4988H14.9246V34.443C12.0316 34.443 9.61303 32.4596 8.97013 29.7949C8.86297 30.3247 8.80176 30.8547 8.80176 31.4149Z" fill="#BCC5DC"/>
<path d="M18.8262 63.2102H18.6731C16.6066 63.2102 14.9229 61.5449 14.9229 59.501V45.0419C14.9229 46.7076 13.5452 48.07 11.8614 48.07C10.1777 48.07 8.80004 46.7076 8.80004 45.0419V40.5C4.57527 40.5 1.14648 43.8915 1.14648 48.07V61.6963C1.14648 63.3617 2.52412 64.7244 4.20791 64.7244C5.89168 64.7244 7.26933 63.3617 7.26933 61.6963V76.1551C7.26933 78.199 8.9531 79.8644 11.0195 79.8644H11.1726C13.2391 79.8644 14.9229 78.199 14.9229 76.1551C14.9229 78.199 16.6066 79.8644 18.6731 79.8644H18.8262C20.8926 79.8644 22.5764 78.199 22.5764 76.1551V59.501C22.5764 61.5449 20.8926 63.2102 18.8262 63.2102Z" fill="#BCC5DC"/>
<path d="M22.5822 59.501C22.5822 61.5449 24.266 63.2102 26.3325 63.2102H26.4855C27.251 63.2102 27.9703 62.9832 28.5672 62.5895C28.6593 62.3171 28.7052 62.0141 28.7052 61.6964V48.07C28.7052 43.8915 25.2763 40.5 21.0515 40.5H14.9287V59.501C14.9287 61.5449 16.6125 63.2102 18.6789 63.2102H18.832C20.8985 63.2102 22.5822 61.5449 22.5822 59.501Z" fill="#BCC5DC"/>
<path d="M22.5781 60.1812V61.6954C22.5781 63.3607 23.9558 64.7234 25.6395 64.7234C27.0019 64.7234 28.1805 63.83 28.5631 62.5885C27.9662 62.9822 27.2469 63.2093 26.4814 63.2093H26.3284C24.2619 63.2093 22.5781 61.5439 22.5781 59.5V60.1812Z" fill="#BCC5DC"/>
<path d="M30.2338 45.0429C30.2338 46.7083 31.6116 48.071 33.2953 48.071C33.8615 48.071 34.3974 47.9195 34.8567 47.6471C34.9177 46.1027 35.4842 44.6795 36.3566 43.5291V31.4169C36.3566 27.2381 32.9278 23.8467 28.7031 23.8467H18.9678C20.2383 24.9519 21.0496 26.5719 21.0496 28.3888C21.0496 31.7346 18.3096 34.4449 14.9268 34.4449V40.501H21.0496C25.2743 40.501 28.7031 43.8922 28.7031 48.071V61.6971C28.7031 62.0151 28.6572 62.3178 28.5654 62.5905C29.5755 61.9242 30.2338 60.7888 30.2338 59.5017V45.0429Z" fill="#BCC5DC"/>
<path d="M42.4799 40.5007H54.7257C56.4553 40.5007 58.0472 41.061 59.3179 42.0146V22.3324C59.3179 18.9865 56.5776 16.2764 53.1948 16.2764H44.0108C40.6277 16.2764 37.8877 18.9865 37.8877 22.3324V41.8785L37.949 41.9692C39.2196 41.0458 40.7807 40.5007 42.4799 40.5007ZM54.7257 28.3885C54.7257 31.7346 51.9857 34.4446 48.6026 34.4446C45.2198 34.4446 42.4799 31.7346 42.4799 28.3885C42.4799 25.0425 45.2198 22.3324 48.6026 22.3324C51.9857 22.3324 54.7257 25.0425 54.7257 28.3885Z" fill="#BCC5DC"/>
<path d="M60.8477 31.4169V43.5291C61.7203 44.6795 62.2868 46.1027 62.3478 47.6471C62.807 47.9195 63.3427 48.071 63.9092 48.071C65.5929 48.071 66.9707 46.7083 66.9707 45.0429V59.5017C66.9707 60.7888 67.6287 61.9242 68.639 62.5905C68.5472 62.3178 68.5013 62.0151 68.5013 61.6971V48.071C68.5013 43.8922 71.9301 40.501 76.1548 40.501H82.2778V34.4449C78.8947 34.4449 76.1548 31.7346 76.1548 28.3888C76.1548 26.5719 76.9661 24.9519 78.2367 23.8467H68.5013C64.2767 23.8467 60.8477 27.2381 60.8477 31.4169Z" fill="#BCC5DC"/>
<path d="M68.6416 62.5885C69.0242 63.83 70.2027 64.7234 71.5652 64.7234C73.2489 64.7234 74.6267 63.3607 74.6267 61.6954V59.5C74.6267 61.5439 72.9427 63.2093 70.8764 63.2093H70.7233C69.9579 63.2093 69.2386 62.9822 68.6416 62.5885Z" fill="#BCC5DC"/>
<path d="M74.624 61.6954V76.1541C74.624 78.198 76.3077 79.8637 78.3743 79.8637H78.5274C80.5937 79.8637 82.2777 78.198 82.2777 76.1541V63.2093L81.1756 62.1193C80.5019 62.7854 79.5529 63.2093 78.5274 63.2093H78.3743C76.3077 63.2093 74.624 61.5439 74.624 59.5V61.6954Z" fill="#BCC5DC"/>
<path d="M82.2754 40.5V45.0419C82.2754 46.7076 83.6532 48.07 85.3369 48.07C87.0206 48.07 88.3982 46.7076 88.3982 45.0419V40.5H82.2754Z" fill="#BCC5DC"/>
<path d="M82.2754 34.443V40.4988H88.3982V31.4149C88.3982 30.8547 88.3372 30.3247 88.23 29.7949C87.5871 32.4596 85.1684 34.443 82.2754 34.443Z" fill="#BCC5DC"/>
<path d="M89.9294 61.6963C89.9294 63.3617 91.3069 64.7244 92.9909 64.7244C94.6746 64.7244 96.0522 63.3617 96.0522 61.6963V48.07C96.0522 43.8915 92.6235 40.5 88.3988 40.5V45.0419C88.3988 46.7076 87.0209 48.07 85.3372 48.07C83.6535 48.07 82.276 46.7076 82.276 45.0419V59.501C82.276 60.5154 81.8472 61.4539 81.1738 62.1202L82.276 63.2102V76.1551C82.276 78.199 83.9597 79.8644 86.026 79.8644H86.1791C88.2457 79.8644 89.9294 78.199 89.9294 76.1551V61.6963Z" fill="#BCC5DC"/>
<path d="M36.3573 43.5273C35.4849 44.6781 34.9184 46.1013 34.8574 47.6454C35.7603 47.1156 36.3573 46.1466 36.3573 45.0412V43.5273Z" fill="#BCC5DC"/>
<path d="M60.8506 43.5273V45.0412C60.8506 46.1466 61.4476 47.1156 62.3507 47.6454C62.2894 46.1013 61.7232 44.6781 60.8506 43.5273Z" fill="#BCC5DC"/>
<path d="M56.2531 61.6963C56.2531 63.3617 57.6309 64.7244 59.3147 64.7244C60.9984 64.7244 62.3762 63.3617 62.3762 61.6963V48.07C62.3762 47.9339 62.3762 47.7824 62.3454 47.6461C61.4423 47.1163 60.8453 46.1473 60.8453 45.0419V43.528C60.4014 42.9527 59.8962 42.4532 59.3147 42.0139C58.0443 41.0603 56.4521 40.5 54.7225 40.5H42.4769C40.7778 40.5 39.2164 41.0451 37.9461 41.9685C37.3491 42.4075 36.8131 42.9376 36.3541 43.528V45.0419C36.3541 46.1473 35.7572 47.1163 34.854 47.6461C34.8232 47.7824 34.8232 47.9339 34.8232 48.07V61.6963C34.8232 63.3617 36.2011 64.7244 37.8848 64.7244C39.5685 64.7244 40.9463 63.3617 40.9463 61.6963V76.1551C40.9463 78.199 42.63 79.8644 44.6963 79.8644H44.8494C46.916 79.8644 48.5997 78.199 48.5997 76.1551C48.5997 78.199 50.2834 79.8644 52.35 79.8644H52.5031C54.5694 79.8644 56.2531 78.199 56.2531 76.1551V61.6963Z" fill="#FEC95C"/>
<path d="M68.6397 62.5895C69.2366 62.9832 69.9562 63.2102 70.7214 63.2102H70.8744C72.941 63.2102 74.6247 61.5449 74.6247 59.501C74.6247 61.5449 76.3085 63.2102 78.375 63.2102H78.5281C79.5536 63.2102 80.5026 62.7863 81.1763 62.1202C81.8497 61.4539 82.2784 60.5154 82.2784 59.501V40.5H76.1554C71.9307 40.5 68.502 43.8915 68.502 48.07V61.6964C68.502 62.0141 68.5479 62.3171 68.6397 62.5895Z" fill="#BCC5DC"/>
<path d="M14.9246 22.333C11.5417 22.333 8.80176 25.0431 8.80176 28.3892C8.80176 28.8735 8.86299 29.3428 8.97013 29.7972C9.72019 26.3906 12.7969 23.847 16.4553 23.847H18.9657C17.8789 22.9084 16.4706 22.333 14.9246 22.333Z" fill="white"/>
<path d="M14.9242 34.4449C18.3071 34.4449 21.047 31.7346 21.047 28.3888C21.047 26.5719 20.2357 24.9519 18.9653 23.8467H16.4549C12.7965 23.8467 9.71979 26.3902 8.96973 29.7969C9.61262 32.4615 12.0311 34.4449 14.9242 34.4449Z" fill="white"/>
<path d="M23.3477 7.19043C20.3934 7.19043 17.9902 9.56743 17.9902 12.4895C17.9902 15.4116 20.3934 17.7886 23.3477 17.7886C26.302 17.7886 28.7053 15.4116 28.7053 12.4895C28.7053 9.56743 26.302 7.19043 23.3477 7.19043Z" fill="white"/>
<path d="M48.6019 1.13672C46.061 1.13672 44.0098 3.1655 44.0098 5.67877C44.0098 8.19204 46.061 10.2208 48.6019 10.2208C51.1429 10.2208 53.1941 8.19204 53.1941 5.67877C53.1941 3.1655 51.1429 1.13672 48.6019 1.13672Z" fill="white"/>
<path d="M48.6006 34.4453C45.2189 34.4453 42.4775 31.7337 42.4775 28.3892C42.4775 25.0444 45.2189 22.333 48.6006 22.333C51.9821 22.333 54.7234 25.0444 54.7234 28.3892C54.7234 31.7337 51.9821 34.4453 48.6006 34.4453Z" fill="white"/>
<path d="M80.7478 23.847C84.406 23.847 87.4829 26.3906 88.233 29.7972C88.3402 29.3428 88.4012 28.8735 88.4012 28.3892C88.4012 25.0431 85.6612 22.333 82.2784 22.333C80.7324 22.333 79.3241 22.9084 78.2373 23.847H80.7478Z" fill="white"/>
<path d="M82.2761 34.4449C85.1692 34.4449 87.5875 32.4615 88.2304 29.7969C87.4804 26.3902 84.4037 23.8467 80.7455 23.8467H78.235C76.9644 24.9519 76.1533 26.5719 76.1533 28.3888C76.1533 31.7346 78.8933 34.4449 82.2761 34.4449Z" fill="white"/>
<path d="M73.8573 7.19043C70.9033 7.19043 68.5 9.56743 68.5 12.4895C68.5 15.4116 70.9033 17.7886 73.8573 17.7886C76.8117 17.7886 79.2149 15.4116 79.2149 12.4895C79.2149 9.56743 76.8117 7.19043 73.8573 7.19043Z" fill="white"/>
<path d="M48.6009 35.5805C52.6096 35.5805 55.872 32.3537 55.872 28.3887C55.872 24.424 52.6096 21.1973 48.6009 21.1973C44.5925 21.1973 41.3301 24.424 41.3301 28.3887C41.3301 32.3537 44.5925 35.5805 48.6009 35.5805ZM48.6009 23.4683C51.3449 23.4683 53.5759 25.675 53.5759 28.3887C53.5759 31.1028 51.3449 33.3095 48.6009 33.3095C45.8572 33.3095 43.6262 31.1028 43.6262 28.3887C43.6262 25.675 45.8572 23.4683 48.6009 23.4683Z" fill="#2F3F64"/>
<path d="M40.9456 61.3185C41.579 61.3185 42.0937 60.8093 42.0937 60.1829V49.5848C42.0937 48.9584 41.579 48.4492 40.9456 48.4492C40.3125 48.4492 39.7979 48.9584 39.7979 49.5848V60.1829C39.7979 60.8093 40.3125 61.3185 40.9456 61.3185Z" fill="#2F3F64"/>
<path d="M44.6962 80.9998H44.849C46.3532 80.9998 47.7002 80.3259 48.5993 79.268C49.4987 80.3259 50.8457 80.9998 52.3496 80.9998H52.5027C55.2043 80.9998 57.401 78.8271 57.401 76.1549V61.6959C57.401 61.0695 56.8862 60.5605 56.253 60.5605C55.6196 60.5605 55.105 61.0695 55.105 61.6959V76.1549C55.105 77.5743 53.9378 78.7288 52.5027 78.7288H52.3496C50.9146 78.7288 49.7474 77.5743 49.7474 76.1549C49.7474 75.5285 49.2327 75.0193 48.5993 75.0193C47.9662 75.0193 47.4513 75.5285 47.4513 76.1549C47.4513 77.5743 46.2841 78.7288 44.849 78.7288H44.6962C43.2611 78.7288 42.0939 77.5743 42.0939 76.1549V61.6959C42.0939 61.0695 41.579 60.5605 40.9459 60.5605C40.3125 60.5605 39.7979 61.0695 39.7979 61.6959V76.1549C39.7979 78.8271 41.9943 80.9998 44.6962 80.9998Z" fill="#2F3F64"/>
<path d="M56.2555 61.3185C56.8886 61.3185 57.4035 60.8093 57.4035 60.1829V49.5848C57.4035 48.9584 56.8886 48.4492 56.2555 48.4492C55.622 48.4492 55.1074 48.9584 55.1074 49.5848V60.1829C55.1074 60.8093 55.622 61.3185 56.2555 61.3185Z" fill="#2F3F64"/>
<path d="M37.8864 65.8605C40.2073 65.8605 42.0957 63.9927 42.0957 61.6969V60.183C42.0957 59.5566 41.5811 59.0474 40.9477 59.0474C40.3145 59.0474 39.7996 59.5566 39.7996 60.183V61.6969C39.7996 62.7396 38.9407 63.5896 37.8864 63.5896C36.832 63.5896 35.9729 62.7396 35.9729 61.6969V48.0708C35.9729 48.0103 35.9729 47.9174 35.9786 47.8834C35.994 47.8173 36.0015 47.7584 36.0037 47.6904C36.0534 46.4451 36.4935 45.2415 37.274 44.2082C37.6701 43.6989 38.1294 43.2486 38.6327 42.8776C39.7499 42.0657 41.0816 41.6343 42.4785 41.6343H54.7241C56.1573 41.6343 57.5043 42.0771 58.6216 42.9176C59.1211 43.2939 59.5517 43.72 59.9343 44.2157C60.7111 45.2396 61.1512 46.4432 61.199 47.6885C61.2009 47.7565 61.2106 47.8248 61.2257 47.891C61.2295 47.9155 61.2298 48.0084 61.2298 48.0689V61.695C61.2298 62.7377 60.3706 63.5877 59.3163 63.5877C58.2619 63.5877 57.4028 62.7377 57.4028 61.695V60.1811C57.4028 59.5547 56.8882 59.0455 56.2548 59.0455C55.6216 59.0455 55.1067 59.5547 55.1067 60.1811V61.695C55.1067 63.9908 56.9954 65.8587 59.3163 65.8587C61.6372 65.8587 63.5256 63.9908 63.5256 61.695V48.0689C63.5256 47.9212 63.5256 47.7282 63.4913 47.5143C63.4071 45.8376 62.812 44.2233 61.7655 42.8455C61.2506 42.1794 60.6787 41.6135 60.0126 41.1102C58.4895 39.967 56.6625 39.3633 54.7241 39.3633H42.4785C40.5899 39.3633 38.7876 39.9481 37.2684 41.0513C36.5909 41.5492 35.9786 42.1491 35.4467 42.8341C34.3926 44.2233 33.7975 45.8376 33.7133 47.5143C33.6787 47.7263 33.6787 47.9212 33.6787 48.0689V61.695C33.6787 63.9908 35.5655 65.8605 37.8864 65.8605Z" fill="#2F3F64"/>
<path d="M48.6031 77.2891C49.2365 77.2891 49.7512 76.7801 49.7512 76.1537V63.2089C49.7512 62.5825 49.2365 62.0732 48.6031 62.0732C47.9697 62.0732 47.4551 62.5825 47.4551 63.2089V76.1537C47.4551 76.7801 47.9697 77.2891 48.6031 77.2891Z" fill="#2F3F64"/>
<path d="M14.9252 35.5805C18.9337 35.5805 22.196 32.3537 22.196 28.3887C22.196 26.326 21.2948 24.3597 19.7239 22.9951C18.3807 21.835 16.6778 21.1973 14.9252 21.1973C10.9166 21.1973 7.6543 24.424 7.6543 28.3887C7.6543 28.9358 7.72126 29.496 7.85329 30.0544V30.06C8.63777 33.3095 11.5461 35.5805 14.9252 35.5805ZM14.9252 23.4683C16.1229 23.4683 17.2901 23.9073 18.2104 24.7022C19.2819 25.6352 19.9 26.9789 19.9 28.3887C19.9 31.1028 17.6689 33.3095 14.9252 33.3095C12.6138 33.3095 10.6258 31.7575 10.0881 29.5357C9.99628 29.1477 9.95035 28.7616 9.95035 28.3887C9.95035 25.675 12.1814 23.4683 14.9252 23.4683Z" fill="#2F3F64"/>
<path d="M82.2777 35.5805C85.6567 35.5805 88.5652 33.3114 89.3495 30.06V30.0544C89.4815 29.496 89.5485 28.9358 89.5485 28.3887C89.5485 24.424 86.2861 21.1973 82.2777 21.1973C80.5251 21.1973 78.8203 21.835 77.4809 22.9914C75.9062 24.3597 75.0068 26.326 75.0068 28.3887C75.0068 32.3537 78.2693 35.5805 82.2777 35.5805ZM87.1147 29.5357C86.5771 31.7575 84.5891 33.3095 82.2777 33.3095C79.5339 33.3095 77.3029 31.1028 77.3029 28.3887C77.3029 26.9789 77.9191 25.6352 78.9942 24.6984C79.9127 23.9054 81.08 23.4683 82.2777 23.4683C85.0214 23.4683 87.2524 25.675 87.2524 28.3887C87.2524 28.7616 87.2065 29.1477 87.1147 29.5357Z" fill="#2F3F64"/>
<path d="M7.27011 61.3185C7.90345 61.3185 8.41815 60.8093 8.41815 60.1829V49.5848C8.41815 48.9584 7.90345 48.4492 7.27011 48.4492C6.63677 48.4492 6.12207 48.9584 6.12207 49.5848V60.1829C6.12207 60.8093 6.63677 61.3185 7.27011 61.3185Z" fill="#2F3F64"/>
<path d="M11.0204 80.9998H11.1734C12.6773 80.9998 14.0244 80.3259 14.9237 79.268C15.823 80.3259 17.17 80.9998 18.6739 80.9998H18.827C21.5287 80.9998 23.7252 78.8271 23.7252 76.1549V61.6959C23.7252 61.0695 23.2105 60.5605 22.5772 60.5605C21.9439 60.5605 21.4292 61.0695 21.4292 61.6959V76.1549C21.4292 77.5743 20.262 78.7288 18.827 78.7288H18.6739C17.2389 78.7288 16.0717 77.5743 16.0717 76.1549C16.0717 75.5285 15.557 75.0193 14.9237 75.0193C14.2903 75.0193 13.7756 75.5285 13.7756 76.1549C13.7756 77.5743 12.6085 78.7288 11.1734 78.7288H11.0204C9.58531 78.7288 8.41815 77.5743 8.41815 76.1549V61.6959C8.41815 61.0695 7.90345 60.5605 7.27011 60.5605C6.63677 60.5605 6.12207 61.0695 6.12207 61.6959V76.1549C6.12207 78.8271 8.31866 80.9998 11.0204 80.9998Z" fill="#2F3F64"/>
<path d="M22.5787 61.3194C23.212 61.3194 23.7267 60.8104 23.7267 60.184V59.5025C23.7267 58.8761 23.212 58.3672 22.5787 58.3672C21.9454 58.3672 21.4307 58.8761 21.4307 59.5025V60.184C21.4307 60.8104 21.9454 61.3194 22.5787 61.3194Z" fill="#2F3F64"/>
<path d="M89.9312 61.3185C90.5647 61.3185 91.0793 60.8093 91.0793 60.1829V49.5848C91.0793 48.9584 90.5647 48.4492 89.9312 48.4492C89.2981 48.4492 88.7832 48.9584 88.7832 49.5848V60.1829C88.7832 60.8093 89.2981 61.3185 89.9312 61.3185Z" fill="#2F3F64"/>
<path d="M78.3739 80.9998H78.527C80.0309 80.9998 81.3779 80.3259 82.2773 79.268C83.1767 80.3259 84.5234 80.9998 86.0276 80.9998H86.1804C88.8823 80.9998 91.0788 78.8271 91.0788 76.1549V61.6959C91.0788 61.0695 90.5642 60.5605 89.9307 60.5605C89.2976 60.5605 88.7827 61.0695 88.7827 61.6959V76.1549C88.7827 77.5743 87.6155 78.7288 86.1804 78.7288H86.0276C84.5926 78.7288 83.4254 77.5743 83.4254 76.1549C83.4254 75.5285 82.9105 75.0193 82.2773 75.0193C81.6439 75.0193 81.1293 75.5285 81.1293 76.1549C81.1293 77.5743 79.9621 78.7288 78.527 78.7288H78.3739C76.9389 78.7288 75.7717 77.5743 75.7717 76.1549V61.6959C75.7717 61.0695 75.257 60.5605 74.6236 60.5605C73.9905 60.5605 73.4756 61.0695 73.4756 61.6959V76.1549C73.4756 78.8271 75.6723 80.9998 78.3739 80.9998Z" fill="#2F3F64"/>
<path d="M74.6236 61.3194C75.257 61.3194 75.7717 60.8104 75.7717 60.184V59.5025C75.7717 58.8761 75.257 58.3672 74.6236 58.3672C73.9902 58.3672 73.4756 58.8761 73.4756 59.5025V60.184C73.4756 60.8104 73.9902 61.3194 74.6236 61.3194Z" fill="#2F3F64"/>
<path d="M4.20944 65.8587C6.53039 65.8587 8.4189 63.9908 8.4189 61.695V60.1811C8.4189 59.5547 7.9042 59.0455 7.27086 59.0455C6.63755 59.0455 6.12285 59.5547 6.12285 60.1811V61.695C6.12285 62.7377 5.26373 63.5877 4.20944 63.5877C3.15517 63.5877 2.29606 62.7377 2.29606 61.695V48.0689C2.29606 44.5203 5.21397 41.6343 8.80157 41.6343H21.0472C24.6349 41.6343 27.5528 44.5203 27.5528 48.0689V61.695C27.5528 61.8918 27.526 62.0754 27.4742 62.2288C27.4704 62.2382 27.4685 62.2477 27.4648 62.2571C27.2236 63.0407 26.4717 63.5877 25.6394 63.5877C24.5851 63.5877 23.726 62.7377 23.726 61.695V60.1811C23.726 59.5547 23.2113 59.0455 22.5779 59.0455C21.9446 59.0455 21.4299 59.5547 21.4299 60.1811V61.695C21.4299 63.9908 23.3184 65.8587 25.6394 65.8587C27.4685 65.8587 29.1199 64.6569 29.6574 62.9327C29.7857 62.5487 29.8489 62.1321 29.8489 61.695V48.0689C29.8489 43.2694 25.8996 39.3633 21.0472 39.3633H8.80157C3.94924 39.3633 0 43.2694 0 48.0689V61.695C0 63.9908 1.88851 65.8587 4.20944 65.8587Z" fill="#2F3F64"/>
<path d="M71.5618 65.8587C73.8828 65.8587 75.7714 63.9908 75.7714 61.695V60.1811C75.7714 59.5547 75.2568 59.0455 74.6234 59.0455C73.9899 59.0455 73.4753 59.5547 73.4753 60.1811V61.695C73.4753 62.7377 72.6162 63.5877 71.5618 63.5877C70.7278 63.5877 69.9777 63.0407 69.7366 62.2571C69.7347 62.2477 69.7307 62.2382 69.7269 62.2288C69.6753 62.0754 69.6486 61.8899 69.6486 61.695V48.0689C69.6486 44.5203 72.5665 41.6343 76.154 41.6343H88.3998C91.9873 41.6343 94.9052 44.5203 94.9052 48.0689V61.695C94.9052 62.7377 94.0461 63.5877 92.9917 63.5877C91.9377 63.5877 91.0785 62.7377 91.0785 61.695V60.1811C91.0785 59.5547 90.5639 59.0455 89.9305 59.0455C89.2971 59.0455 88.7824 59.5547 88.7824 60.1811V61.695C88.7824 63.9908 90.6708 65.8587 92.9917 65.8587C95.3129 65.8587 97.2013 63.9908 97.2013 61.695V48.0689C97.2013 43.2694 93.252 39.3633 88.3998 39.3633H76.154C71.3018 39.3633 67.3525 43.2694 67.3525 48.0689V61.695C67.3525 62.134 67.4176 62.5506 67.5437 62.9327C68.0815 64.655 69.7307 65.8587 71.5618 65.8587Z" fill="#2F3F64"/>
<path d="M14.9273 77.2891C15.5607 77.2891 16.0754 76.7801 16.0754 76.1537V63.2089C16.0754 62.5825 15.5607 62.0732 14.9273 62.0732C14.294 62.0732 13.7793 62.5825 13.7793 63.2089V76.1537C13.7793 76.7801 14.294 77.2891 14.9273 77.2891Z" fill="#2F3F64"/>
<path d="M82.2799 77.2891C82.9133 77.2891 83.4279 76.7801 83.4279 76.1537V63.2089C83.4279 62.5825 82.9133 62.0732 82.2799 62.0732C81.6467 62.0732 81.1318 62.5825 81.1318 63.2089V76.1537C81.1318 76.7801 81.6467 77.2891 82.2799 77.2891Z" fill="#2F3F64"/>
<path d="M74.6236 60.6373C75.257 60.6373 75.7717 60.1281 75.7717 59.5017V49.5848C75.7717 48.9584 75.257 48.4492 74.6236 48.4492C73.9902 48.4492 73.4756 48.9584 73.4756 49.5848V59.5017C73.4756 60.1281 73.9902 60.6373 74.6236 60.6373Z" fill="#2F3F64"/>
<path d="M22.5787 60.6373C23.212 60.6373 23.7267 60.1281 23.7267 59.5017V49.5848C23.7267 48.9584 23.212 48.4492 22.5787 48.4492C21.9454 48.4492 21.4307 48.9584 21.4307 49.5848V59.5017C21.4307 60.1281 21.9454 60.6373 22.5787 60.6373Z" fill="#2F3F64"/>
<path d="M23.3444 18.9258C26.932 18.9258 29.8499 16.0397 29.8499 12.4912C29.8499 8.94275 26.932 6.05664 23.3444 6.05664C19.7568 6.05664 16.8389 8.94275 16.8389 12.4912C16.8389 16.0397 19.7568 18.9258 23.3444 18.9258ZM23.3444 8.32769C25.6653 8.32769 27.5538 10.1956 27.5538 12.4912C27.5538 14.7869 25.6653 16.6548 23.3444 16.6548C21.0234 16.6548 19.1349 14.7869 19.1349 12.4912C19.1349 10.1956 21.0234 8.32769 23.3444 8.32769Z" fill="#2F3F64"/>
<path d="M73.8579 18.9258C77.4457 18.9258 80.3636 16.0397 80.3636 12.4912C80.3636 8.94275 77.4457 6.05664 73.8579 6.05664C70.2704 6.05664 67.3525 8.94275 67.3525 12.4912C67.3525 16.0397 70.2704 18.9258 73.8579 18.9258ZM73.8579 8.32769C76.1788 8.32769 78.0675 10.1956 78.0675 12.4912C78.0675 14.7869 76.1788 16.6548 73.8579 16.6548C71.537 16.6548 69.6486 14.7869 69.6486 12.4912C69.6486 10.1956 71.537 8.32769 73.8579 8.32769Z" fill="#2F3F64"/>
<path d="M30.231 37.0935C30.8645 37.0935 31.3791 36.5845 31.3791 35.9578V31.4159C31.3791 30.7895 30.8645 30.2803 30.231 30.2803C29.5976 30.2803 29.083 30.7895 29.083 31.4159V35.9578C29.083 36.5845 29.5976 37.0935 30.231 37.0935Z" fill="#2F3F64"/>
<path d="M66.9703 37.0935C67.6037 37.0935 68.1183 36.5845 68.1183 35.9578V31.4159C68.1183 30.7895 67.6037 30.2803 66.9703 30.2803C66.3372 30.2803 65.8223 30.7895 65.8223 31.4159V35.9578C65.8223 36.5845 66.3372 37.0935 66.9703 37.0935Z" fill="#2F3F64"/>
<path d="M36.358 37.0931C36.9914 37.0931 37.5061 36.5841 37.5061 35.9577V31.4155C37.5061 26.6161 33.5568 22.71 28.7046 22.71H25.6431C25.0098 22.71 24.4951 23.219 24.4951 23.8455C24.4951 24.4719 25.0098 24.981 25.6431 24.981H28.7046C32.2921 24.981 35.21 27.8671 35.21 31.4155V35.9577C35.21 36.5841 35.7249 37.0931 36.358 37.0931Z" fill="#2F3F64"/>
<path d="M60.8482 37.0931C61.4817 37.0931 61.9963 36.5841 61.9963 35.9577V31.4155C61.9963 27.8671 64.9142 24.981 68.5017 24.981H71.5632C72.1966 24.981 72.7112 24.4719 72.7112 23.8455C72.7112 23.219 72.1966 22.71 71.5632 22.71H68.5017C63.6495 22.71 59.7002 26.6161 59.7002 31.4155V35.9577C59.7002 36.5841 60.2148 37.0931 60.8482 37.0931Z" fill="#2F3F64"/>
<path d="M48.6035 11.3551C51.7681 11.3551 54.3437 8.80781 54.3437 5.67756C54.3437 2.54734 51.7681 0 48.6035 0C45.4385 0 42.8633 2.54734 42.8633 5.67756C42.8633 8.80781 45.4385 11.3551 48.6035 11.3551ZM48.6035 2.27103C50.5016 2.27103 52.0476 3.8002 52.0476 5.67756C52.0476 7.55495 50.5016 9.08412 48.6035 9.08412C46.7054 9.08412 45.1594 7.55495 45.1594 5.67756C45.1594 3.8002 46.7054 2.27103 48.6035 2.27103Z" fill="#2F3F64"/>
<path d="M37.8883 23.4667C38.5217 23.4667 39.0363 22.9577 39.0363 22.3312C39.0363 19.6174 41.2673 17.4107 44.0111 17.4107H53.1954C55.9391 17.4107 58.1701 19.6174 58.1701 22.3312C58.1701 22.9577 58.685 23.4667 59.3182 23.4667C59.9516 23.4667 60.4662 22.9577 60.4662 22.3312C60.4662 18.3664 57.2041 15.1396 53.1954 15.1396H44.0111C40.0026 15.1396 36.7402 18.3664 36.7402 22.3312C36.7402 22.9577 37.2551 23.4667 37.8883 23.4667Z" fill="#2F3F64"/>
</g>
</g>
<defs>
<clipPath id="clip0_202_285">
<rect width="97.2" height="81" fill="white"/>
</clipPath>
</defs>
</svg>
