<svg width="99" height="79" viewBox="0 0 99 79" fill="none" xmlns="http://www.w3.org/2000/svg">
<g clip-path="url(#clip0_227_23)">
<mask id="mask0_227_23" style="mask-type:luminance" maskUnits="userSpaceOnUse" x="0" y="0" width="99" height="79">
<path d="M98.9993 0H0.595703V79.0001H98.9993V0Z" fill="white"/>
</mask>
<g mask="url(#mask0_227_23)">
<path d="M57.8007 56.2572V73.8128C57.8007 76.0153 56.0087 77.8027 53.8006 77.8027C51.5926 77.8027 49.8004 76.0153 49.8004 73.8128C49.8004 76.0153 48.0083 77.8027 45.8003 77.8027C43.5922 77.8027 41.8002 76.0153 41.8002 73.8128V56.2572C41.8002 58.4596 40.0081 60.2471 37.8 60.2471C35.5919 60.2471 33.7998 58.4596 33.7998 56.2572V39.4996C33.7998 34.217 38.1041 29.9238 43.4003 29.9238H56.2006C61.4968 29.9238 65.8011 34.217 65.8011 39.4996V56.2572C65.8011 58.4596 64.009 60.2471 61.8009 60.2471C59.5928 60.2471 57.8007 58.4596 57.8007 56.2572Z" fill="#FEC95C"/>
<path d="M81.7965 67.4279C81.7965 69.6304 80.0044 71.4178 77.7963 71.4178C75.5882 71.4178 73.7961 69.6304 73.7961 67.4279V49.8724C73.7961 50.032 73.7802 50.1916 73.7641 50.3511C73.7482 50.5267 73.7161 50.7023 73.6682 50.8778C73.6362 51.0215 73.5881 51.1332 73.5401 51.2609C73.2841 51.9791 72.8042 52.6015 72.1962 53.0643C71.54 53.5591 70.6921 53.8623 69.7959 53.8623C67.588 53.8623 65.7959 52.0749 65.7959 49.8724V33.1148C65.7959 31.2316 66.3399 29.476 67.2839 28.0077L67.3 27.9918C67.6999 27.3534 68.1799 26.7789 68.708 26.2522C68.772 26.1883 68.836 26.1244 68.916 26.0766C69.156 25.8373 69.428 25.6137 69.7 25.4223C70.0201 25.1828 70.3401 24.9594 70.6921 24.7679C70.868 24.6722 71.044 24.5765 71.22 24.4966C72.228 24.0018 73.3321 23.6826 74.5002 23.5869C74.7882 23.555 75.0921 23.5391 75.3962 23.5391H88.1967C93.4929 23.5391 97.797 27.8322 97.797 33.1148V49.8724C97.797 52.0749 96.005 53.8623 93.7969 53.8623C91.5887 53.8623 89.7967 52.0749 89.7967 49.8724V67.4279C89.7967 69.6304 88.0046 71.4178 85.7966 71.4178C83.5885 71.4178 81.7965 69.6304 81.7965 67.4279Z" fill="#BCC5DC"/>
<path d="M25.7988 49.8724V67.4279C25.7988 69.6304 24.0067 71.4178 21.7986 71.4178C19.5905 71.4178 17.7984 69.6304 17.7984 67.4279C17.7984 69.6304 16.0064 71.4178 13.7983 71.4178C11.5902 71.4178 9.79815 69.6304 9.79815 67.4279V49.8724C9.79815 52.0749 8.00608 53.8623 5.798 53.8623C3.58992 53.8623 1.79785 52.0749 1.79785 49.8724V33.1148C1.79785 27.8322 6.10202 23.5391 11.3982 23.5391H24.1987C24.5026 23.5391 24.8067 23.555 25.0947 23.5869C26.2628 23.6826 27.3667 24.0018 28.3749 24.4966C28.5509 24.5765 28.7268 24.6722 28.9028 24.7679C29.2548 24.9594 29.5749 25.1828 29.8949 25.4223C30.1669 25.6137 30.4389 25.8373 30.6789 26.0766C30.7589 26.1244 30.8229 26.1883 30.8869 26.2522C31.415 26.7789 31.895 27.3534 32.295 27.9918L32.311 28.0077C33.255 29.476 33.799 31.2316 33.799 33.1148V49.8724C33.799 52.0749 32.007 53.8623 29.7988 53.8623C28.9028 53.8623 28.0549 53.5591 27.3987 53.0643C26.7907 52.6015 26.3108 51.9791 26.0548 51.2609C26.0067 51.1332 25.9587 51.0215 25.9267 50.8778C25.8788 50.7023 25.8467 50.5267 25.8308 50.3511C25.8147 50.1916 25.7988 50.032 25.7988 49.8724Z" fill="white"/>
<path d="M81.7982 1.19629C86.2143 1.19629 89.7984 4.77125 89.7984 9.1761C89.7984 13.581 86.2143 17.1559 81.7982 17.1559C77.382 17.1559 73.7979 13.581 73.7979 9.1761C73.7979 4.77125 77.382 1.19629 81.7982 1.19629Z" fill="#BCC5DC"/>
<path d="M49.7961 7.58008C54.2124 7.58008 57.7965 11.155 57.7965 15.5599C57.7965 19.9648 54.2124 23.5397 49.7961 23.5397C45.38 23.5397 41.7959 19.9648 41.7959 15.5599C41.7959 11.155 45.38 7.58008 49.7961 7.58008Z" fill="#FEC95C"/>
<path d="M17.7943 1.19629C22.2104 1.19629 25.7945 4.77125 25.7945 9.1761C25.7945 13.581 22.2104 17.1559 17.7943 17.1559C13.3781 17.1559 9.79395 13.581 9.79395 9.1761C9.79395 4.77125 13.3781 1.19629 17.7943 1.19629Z" fill="white"/>
<path d="M49.7999 24.7384C44.7277 24.7384 40.5996 20.6208 40.5996 15.5616C40.5996 10.5023 44.7277 6.38477 49.7999 6.38477C54.8722 6.38477 59.0003 10.5023 59.0003 15.5616C59.0003 20.6208 54.8722 24.7384 49.7999 24.7384ZM49.7999 8.7787C46.0498 8.7787 42.9997 11.821 42.9997 15.5616C42.9997 19.302 46.0498 22.3444 49.7999 22.3444C53.5501 22.3444 56.6002 19.302 56.6002 15.5616C56.6002 11.821 53.5501 8.7787 49.7999 8.7787Z" fill="#2F3F64"/>
<path d="M57.7978 55.0601C57.1357 55.0601 56.5977 54.5234 56.5977 53.863V41.0954C56.5977 40.4351 57.1357 39.8984 57.7978 39.8984C58.4598 39.8984 58.9979 40.4351 58.9979 41.0954V53.863C58.9979 54.5234 58.4598 55.0601 57.7978 55.0601Z" fill="#2F3F64"/>
<path d="M53.8001 79.001C52.194 79.001 50.7539 78.2708 49.7999 77.1257C48.8458 78.2708 47.4058 79.001 45.7998 79.001C42.9316 79.001 40.5996 76.6748 40.5996 73.8141V56.2586C40.5996 55.5982 41.1376 55.0615 41.7996 55.0615C42.4617 55.0615 42.9997 55.5982 42.9997 56.2586V73.8141C42.9997 75.3543 44.2556 76.6071 45.7998 76.6071C47.3439 76.6071 48.5998 75.3543 48.5998 73.8141C48.5998 73.1538 49.1379 72.6171 49.7999 72.6171C50.462 72.6171 50.9999 73.1538 50.9999 73.8141C50.9999 75.3543 52.256 76.6071 53.8001 76.6071C55.3441 76.6071 56.6002 75.3543 56.6002 73.8141V56.2586C56.6002 55.5982 57.1382 55.0615 57.8003 55.0615C58.4622 55.0615 59.0003 55.5982 59.0003 56.2586V73.8141C59.0003 76.6748 56.6682 79.001 53.8001 79.001Z" fill="#2F3F64"/>
<path d="M41.7996 55.0601C41.1376 55.0601 40.5996 54.5234 40.5996 53.863V41.0954C40.5996 40.4351 41.1376 39.8984 41.7996 39.8984C42.4617 39.8984 42.9997 40.4351 42.9997 41.0954V53.863C42.9997 54.5234 42.4617 55.0601 41.7996 55.0601Z" fill="#2F3F64"/>
<path d="M37.7979 61.4444C34.9298 61.4444 32.5977 59.1184 32.5977 56.2576V49.8737C32.5977 49.2134 33.1357 48.6768 33.7978 48.6768C34.4598 48.6768 34.9979 49.2134 34.9979 49.8737V56.2576C34.9979 57.7977 36.2538 59.0504 37.7979 59.0504C39.3419 59.0504 40.598 57.7977 40.598 56.2576V53.8636C40.598 53.2033 41.136 52.6667 41.7981 52.6667C42.4601 52.6667 42.9981 53.2033 42.9981 53.8636V56.2576C42.9981 59.1184 40.6661 61.4444 37.7979 61.4444Z" fill="#2F3F64"/>
<path d="M65.7989 40.6973C65.137 40.6973 64.5989 40.1607 64.5989 39.5004C64.5989 34.88 60.8308 31.1215 56.1986 31.1215H43.3981C38.7659 31.1215 34.9979 34.88 34.9979 39.5004C34.9979 40.1607 34.4598 40.6973 33.7978 40.6973C33.1357 40.6973 32.5977 40.1607 32.5977 39.5004C32.5977 33.5594 37.4419 28.7275 43.3981 28.7275H56.1986C62.1548 28.7275 66.999 33.5594 66.999 39.5004C66.999 40.1607 66.461 40.6973 65.7989 40.6973Z" fill="#2F3F64"/>
<path d="M61.7979 61.4444C58.9298 61.4444 56.5977 59.1184 56.5977 56.2576V53.8636C56.5977 53.2033 57.1357 52.6667 57.7978 52.6667C58.4598 52.6667 58.9979 53.2033 58.9979 53.8636V56.2576C58.9979 57.7977 60.2538 59.0504 61.7979 59.0504C63.3419 59.0504 64.598 57.7977 64.598 56.2576V49.8737C64.598 49.2134 65.136 48.6768 65.7981 48.6768C66.4601 48.6768 66.9981 49.2134 66.9981 49.8737V56.2576C66.9981 59.1184 64.6661 61.4444 61.7979 61.4444Z" fill="#2F3F64"/>
<path d="M49.7948 75.0087C49.1328 75.0087 48.5947 74.4721 48.5947 73.8117V58.65C48.5947 57.9898 49.1328 57.4531 49.7948 57.4531C50.4568 57.4531 50.9948 57.9898 50.9948 58.65V73.8117C50.9948 74.4721 50.4568 75.0087 49.7948 75.0087Z" fill="#2F3F64"/>
<path d="M81.8019 18.3535C76.7298 18.3535 72.6016 14.236 72.6016 9.17678C72.6016 4.11758 76.7298 0 81.8019 0C86.8741 0 91.0022 4.11758 91.0022 9.17678C91.0022 14.236 86.8741 18.3535 81.8019 18.3535ZM81.8019 2.39394C78.0517 2.39394 75.0016 5.43625 75.0016 9.17678C75.0016 12.9173 78.0517 15.9597 81.8019 15.9597C85.552 15.9597 88.6021 12.9173 88.6021 9.17678C88.6021 5.43625 85.552 2.39394 81.8019 2.39394Z" fill="#2F3F64"/>
<path d="M17.7969 18.3535C12.7248 18.3535 8.59668 14.236 8.59668 9.17678C8.59668 4.11758 12.7248 0 17.7969 0C22.8692 0 26.9974 4.11758 26.9974 9.17678C26.9974 14.236 22.8692 18.3535 17.7969 18.3535ZM17.7969 2.39394C14.0469 2.39394 10.9968 5.43625 10.9968 9.17678C10.9968 12.9173 14.0469 15.9597 17.7969 15.9597C21.5471 15.9597 24.5973 12.9173 24.5973 9.17678C24.5973 5.43625 21.5471 2.39394 17.7969 2.39394Z" fill="#2F3F64"/>
<path d="M89.7986 48.6763C89.1367 48.6763 88.5986 48.1396 88.5986 47.4794V34.7117C88.5986 34.0513 89.1367 33.5146 89.7986 33.5146C90.4607 33.5146 90.9987 34.0513 90.9987 34.7117V47.4794C90.9987 48.1396 90.4607 48.6763 89.7986 48.6763Z" fill="#2F3F64"/>
<path d="M85.8021 72.6161C84.196 72.6161 82.756 71.886 81.8019 70.7409C80.8479 71.886 79.4079 72.6161 77.8019 72.6161C74.9337 72.6161 72.6016 70.2901 72.6016 67.4293V49.8737C72.6016 49.2134 73.1396 48.6768 73.8017 48.6768C74.4636 48.6768 75.0016 49.2134 75.0016 49.8737V67.4293C75.0016 68.9694 76.2577 70.2222 77.8019 70.2222C79.3458 70.2222 80.6019 68.9694 80.6019 67.4293C80.6019 66.769 81.14 66.2324 81.8019 66.2324C82.464 66.2324 83.002 66.769 83.002 67.4293C83.002 68.9694 84.2581 70.2222 85.8021 70.2222C87.3462 70.2222 88.6021 68.9694 88.6021 67.4293V49.8737C88.6021 49.2134 89.1402 48.6768 89.8022 48.6768C90.4643 48.6768 91.0022 49.2134 91.0022 49.8737V67.4293C91.0022 70.2901 88.6702 72.6161 85.8021 72.6161Z" fill="#2F3F64"/>
<path d="M73.8017 48.6763C73.1396 48.6763 72.6016 48.1396 72.6016 47.4794V34.7117C72.6016 34.0513 73.1396 33.5146 73.8017 33.5146C74.4636 33.5146 75.0016 34.0513 75.0016 34.7117V47.4794C75.0016 48.1396 74.4636 48.6763 73.8017 48.6763Z" fill="#2F3F64"/>
<path d="M9.79672 48.6763C9.1347 48.6763 8.59668 48.1396 8.59668 47.4794V34.7117C8.59668 34.0513 9.1347 33.5146 9.79672 33.5146C10.4587 33.5146 10.9968 34.0513 10.9968 34.7117V47.4794C10.9968 48.1396 10.4587 48.6763 9.79672 48.6763Z" fill="#2F3F64"/>
<path d="M21.7971 72.6161C20.1911 72.6161 18.751 71.886 17.7969 70.7409C16.843 71.886 15.403 72.6161 13.7969 72.6161C10.9288 72.6161 8.59668 70.2901 8.59668 67.4293V49.8737C8.59668 49.2134 9.1347 48.6768 9.79672 48.6768C10.4587 48.6768 10.9968 49.2134 10.9968 49.8737V67.4293C10.9968 68.9694 12.2528 70.2222 13.7969 70.2222C15.3409 70.2222 16.597 68.9694 16.597 67.4293C16.597 66.769 17.135 66.2324 17.7969 66.2324C18.459 66.2324 18.9971 66.769 18.9971 67.4293C18.9971 68.9694 20.2532 70.2222 21.7971 70.2222C23.3412 70.2222 24.5973 68.9694 24.5973 67.4293V49.8737C24.5973 49.2134 25.1352 48.6768 25.7973 48.6768C26.4594 48.6768 26.9974 49.2134 26.9974 49.8737V67.4293C26.9974 70.2901 24.6652 72.6161 21.7971 72.6161Z" fill="#2F3F64"/>
<path d="M25.7958 48.6763C25.1337 48.6763 24.5957 48.1396 24.5957 47.4794V34.7117C24.5957 34.0513 25.1337 33.5146 25.7958 33.5146C26.4577 33.5146 26.9958 34.0513 26.9958 34.7117V47.4794C26.9958 48.1396 26.4577 48.6763 25.7958 48.6763Z" fill="#2F3F64"/>
<path d="M73.5411 52.4594C73.4011 52.4594 73.259 52.4355 73.1211 52.3836C72.501 52.1522 72.185 51.462 72.419 50.8435L72.4491 50.7677C72.4771 50.6939 72.493 50.652 72.501 50.6221C72.645 49.9758 73.2851 49.5687 73.9332 49.7125C74.5811 49.856 74.9891 50.4944 74.8451 51.1408C74.7991 51.3443 74.7391 51.4999 74.6911 51.6255L74.6691 51.6854C74.4891 52.1662 74.0311 52.4635 73.5451 52.4635L73.5411 52.4594Z" fill="#2F3F64"/>
<path d="M73.7685 51.5489C73.7284 51.5489 73.6885 51.5489 73.6484 51.5428C72.9884 51.477 72.5083 50.8906 72.5744 50.2322C72.5884 50.0985 72.6004 49.9728 72.6004 49.8731V47.4791C72.6004 46.8189 73.1384 46.2822 73.8005 46.2822C74.4624 46.2822 75.0004 46.8189 75.0004 47.4791V49.8731C75.0004 50.0925 74.9805 50.294 74.9625 50.4716C74.9005 51.0881 74.3784 51.5489 73.7704 51.5489H73.7685Z" fill="#2F3F64"/>
<path d="M26.0545 52.4596C25.5686 52.4596 25.1105 52.1624 24.9305 51.6816L24.9085 51.6217C24.8605 51.496 24.8005 51.3424 24.7545 51.1369C24.6105 50.4925 25.0185 49.8522 25.6666 49.7085C26.3126 49.5649 26.9546 49.9718 27.0986 50.6183C27.1045 50.6482 27.1206 50.69 27.1506 50.7639L27.1806 50.8397C27.4126 51.4582 27.0986 52.1484 26.4786 52.3798C26.3406 52.4317 26.1985 52.4556 26.0585 52.4556L26.0545 52.4596Z" fill="#2F3F64"/>
<path d="M25.8257 51.5489C25.2177 51.5489 24.6958 51.0881 24.6337 50.4716C24.6157 50.294 24.5957 50.0925 24.5957 49.8731V47.4791C24.5957 46.8189 25.1337 46.2822 25.7958 46.2822C26.4577 46.2822 26.9958 46.8189 26.9958 47.4791V49.8731C26.9958 49.9728 27.0078 50.0985 27.0218 50.2322C27.0878 50.8906 26.6058 51.477 25.9477 51.5428C25.9078 51.5468 25.8658 51.5489 25.8277 51.5489H25.8257Z" fill="#2F3F64"/>
<path d="M89.7986 51.07C89.1367 51.07 88.5986 50.5334 88.5986 49.8731V47.4791C88.5986 46.8189 89.1367 46.2822 89.7986 46.2822C90.4607 46.2822 90.9987 46.8189 90.9987 47.4791V49.8731C90.9987 50.5334 90.4607 51.07 89.7986 51.07Z" fill="#2F3F64"/>
<path d="M74.4985 24.7857C73.8945 24.7857 73.3764 24.3327 73.3064 23.7203C73.2324 23.064 73.7085 22.4715 74.3664 22.3977C74.6965 22.3618 75.0425 22.3418 75.3945 22.3418H88.195C88.857 22.3418 89.395 22.8784 89.395 23.5389C89.395 24.1991 88.857 24.7358 88.195 24.7358H75.3945C75.1305 24.7358 74.8745 24.7498 74.6304 24.7757C74.5844 24.7797 74.5405 24.7836 74.4964 24.7836L74.4985 24.7857Z" fill="#2F3F64"/>
<path d="M68.9168 27.2745C68.6088 27.2745 68.3028 27.1568 68.0687 26.9234C67.6008 26.4566 67.6008 25.6985 68.0687 25.2298C68.3408 24.9584 68.6608 24.6911 68.9948 24.4536C69.3048 24.2223 69.6788 23.955 70.1188 23.7156C70.3008 23.6158 70.5088 23.5041 70.7249 23.4064C71.3289 23.1331 72.0389 23.3984 72.3149 24.0008C72.5889 24.6033 72.3229 25.3115 71.7189 25.5868C71.5809 25.6486 71.4288 25.7325 71.2689 25.8202C70.9569 25.9898 70.6649 26.1993 70.4229 26.3808C70.4129 26.3868 70.4049 26.3948 70.3949 26.4008C70.1648 26.5624 69.9489 26.7439 69.7668 26.9234C69.5328 27.1568 69.2249 27.2745 68.9189 27.2745H68.9168Z" fill="#2F3F64"/>
<path d="M67.3025 29.1902C67.0845 29.1902 66.8644 29.1324 66.6684 29.0086C66.1064 28.6575 65.9363 27.9194 66.2864 27.3587C66.7123 26.6804 67.2285 26.0421 67.8645 25.4077C68.3325 24.9409 69.0925 24.9409 69.5624 25.4077C70.0326 25.8745 70.0305 26.6326 69.5624 27.1015C69.0564 27.6061 68.6524 28.1049 68.3245 28.6295C68.0965 28.9927 67.7065 29.1921 67.3064 29.1921L67.3025 29.1902Z" fill="#2F3F64"/>
<path d="M93.7963 55.06C90.9284 55.06 88.5962 52.7338 88.5962 49.8731C88.5962 49.2128 89.1342 48.6761 89.7963 48.6761C90.4582 48.6761 90.9963 49.2128 90.9963 49.8731C90.9963 51.4131 92.2524 52.6661 93.7963 52.6661C95.3404 52.6661 96.5965 51.4131 96.5965 49.8731V33.1155C96.5965 28.4952 92.8284 24.7368 88.1962 24.7368C87.5341 24.7368 86.9961 24.2001 86.9961 23.5397C86.9961 22.8794 87.5341 22.3428 88.1962 22.3428C94.1524 22.3428 98.9966 27.1745 98.9966 33.1155V49.8731C98.9966 52.7338 96.6645 55.06 93.7963 55.06Z" fill="#2F3F64"/>
<path d="M73.6713 52.0762C73.5672 52.0762 73.4613 52.0622 73.3553 52.0342C72.7152 51.8607 72.3392 51.2024 72.5132 50.564C72.5432 50.4563 72.5613 50.3506 72.5712 50.2448C72.6313 49.5865 73.2132 49.0997 73.8753 49.1615C74.5353 49.2214 75.0214 49.8039 74.9613 50.4623C74.9393 50.7077 74.8933 50.953 74.8273 51.1964C74.6812 51.729 74.1973 52.0782 73.6713 52.0782V52.0762Z" fill="#2F3F64"/>
<path d="M72.1979 54.2625C71.8359 54.2625 71.4798 54.1009 71.2438 53.7917C70.8419 53.2671 70.9439 52.5149 71.4699 52.114C71.9139 51.7768 72.2399 51.3419 72.4119 50.8611C72.6339 50.2386 73.32 49.9135 73.9439 50.135C74.568 50.3564 74.894 51.0407 74.672 51.6631C74.3439 52.5827 73.7399 53.3967 72.926 54.0172C72.7079 54.1827 72.452 54.2625 72.1979 54.2625Z" fill="#2F3F64"/>
<path d="M65.7986 51.0714C65.1367 51.0714 64.5986 50.5347 64.5986 49.8745V39.5008C64.5986 38.8404 65.1367 38.3037 65.7986 38.3037C66.4607 38.3037 66.9987 38.8404 66.9987 39.5008V49.8745C66.9987 50.5347 66.4607 51.0714 65.7986 51.0714Z" fill="#2F3F64"/>
<path d="M67.2869 29.2058C66.9789 29.2058 66.6729 29.0881 66.4389 28.8547C65.9709 28.388 65.9709 27.6298 66.4389 27.161L66.4549 27.145C66.9229 26.6782 67.683 26.6782 68.1529 27.145C68.6229 27.6118 68.621 28.3699 68.1529 28.8388L68.1369 28.8547C67.9029 29.0881 67.595 29.2058 67.2889 29.2058H67.2869Z" fill="#2F3F64"/>
<path d="M68.7123 27.451C68.4063 27.451 68.0982 27.3352 67.8642 27.1018C67.3942 26.635 67.3942 25.8769 67.8642 25.4082C67.9522 25.3203 68.0962 25.1767 68.3043 25.051C68.8722 24.7119 69.6102 24.8954 69.9502 25.462C70.2802 26.0126 70.1163 26.7188 69.5882 27.0719C69.5803 27.0799 69.5702 27.0899 69.5623 27.0978C69.3282 27.3312 69.0202 27.449 68.7123 27.449V27.451Z" fill="#2F3F64"/>
<path d="M71.219 25.6942C70.777 25.6942 70.3509 25.4489 70.141 25.0259C69.8489 24.4334 70.0929 23.7154 70.6869 23.424C71.863 22.8475 73.111 22.5004 74.3991 22.3947C75.0611 22.3408 75.6391 22.8315 75.6931 23.4899C75.7471 24.1482 75.255 24.7267 74.595 24.7806C73.6091 24.8604 72.6509 25.1278 71.747 25.5706C71.577 25.6545 71.3969 25.6942 71.219 25.6942Z" fill="#2F3F64"/>
<path d="M9.79672 51.07C9.1347 51.07 8.59668 50.5334 8.59668 49.8731V47.4791C8.59668 46.8189 9.1347 46.2822 9.79672 46.2822C10.4587 46.2822 10.9968 46.8189 10.9968 47.4791V49.8731C10.9968 50.5334 10.4587 51.07 9.79672 51.07Z" fill="#2F3F64"/>
<path d="M25.0939 24.7846C25.0499 24.7846 25.0038 24.7826 24.9599 24.7767C24.7179 24.7487 24.4598 24.7368 24.1958 24.7368H11.3954C10.7333 24.7368 10.1953 24.2001 10.1953 23.5397C10.1953 22.8794 10.7333 22.3428 11.3954 22.3428H24.1958C24.5479 22.3428 24.8938 22.3607 25.2239 22.3986C25.8818 22.4725 26.3579 23.0629 26.2839 23.7213C26.2159 24.3337 25.6959 24.7866 25.0918 24.7866L25.0939 24.7846Z" fill="#2F3F64"/>
<path d="M30.6759 27.2745C30.3678 27.2745 30.0618 27.1568 29.8278 26.9234C29.6478 26.7439 29.4298 26.5624 29.1998 26.4008C29.1897 26.3948 29.1818 26.3868 29.1717 26.3808C28.9278 26.1993 28.6377 25.9898 28.3257 25.8202C28.1637 25.7325 28.0118 25.6507 27.8757 25.5868C27.2717 25.3135 27.0057 24.6033 27.2797 24.0008C27.5537 23.3984 28.2657 23.1331 28.8697 23.4064C29.0858 23.5041 29.2938 23.6178 29.4758 23.7156C29.9158 23.955 30.2898 24.2223 30.5998 24.4536C30.9338 24.6911 31.2538 24.9584 31.5259 25.2298C31.9938 25.6966 31.9938 26.4546 31.5259 26.9234C31.2918 27.1568 30.9839 27.2745 30.6778 27.2745H30.6759Z" fill="#2F3F64"/>
<path d="M32.2976 29.189C31.8974 29.189 31.5055 28.9895 31.2794 28.6264C30.9515 28.1038 30.5454 27.603 30.0414 27.0982C29.5735 26.6314 29.5735 25.8735 30.0414 25.4046C30.5094 24.9357 31.2695 24.9378 31.7394 25.4046C32.3755 26.0389 32.8916 26.6773 33.3175 27.3556C33.6695 27.9162 33.4975 28.6544 32.9355 29.0055C32.7375 29.1292 32.5175 29.187 32.3015 29.187L32.2976 29.189Z" fill="#2F3F64"/>
<path d="M5.79589 55.06C2.92779 55.06 0.595703 52.7338 0.595703 49.8731V33.1155C0.595703 27.1745 5.43988 22.3428 11.3961 22.3428C12.0581 22.3428 12.5961 22.8794 12.5961 23.5397C12.5961 24.2001 12.0581 24.7368 11.3961 24.7368C6.76393 24.7368 2.9958 28.4952 2.9958 33.1155V49.8731C2.9958 51.4131 4.25184 52.6661 5.79589 52.6661C7.33995 52.6661 8.596 51.4131 8.596 49.8731C8.596 49.2128 9.13402 48.6761 9.79604 48.6761C10.4581 48.6761 10.9961 49.2128 10.9961 49.8731C10.9961 52.7338 8.664 55.06 5.79589 55.06Z" fill="#2F3F64"/>
<path d="M25.9229 52.0752C25.3949 52.0752 24.9108 51.7261 24.7668 51.1935C24.7009 50.9522 24.6548 50.7048 24.6329 50.4593C24.5729 49.801 25.0588 49.2185 25.719 49.1586C26.379 49.0968 26.963 49.5836 27.0229 50.2419C27.033 50.3476 27.053 50.4553 27.081 50.5611C27.2549 51.1994 26.8789 51.8578 26.239 52.0314C26.133 52.0593 26.0269 52.0733 25.9229 52.0733V52.0752Z" fill="#2F3F64"/>
<path d="M27.3993 54.2625C27.1452 54.2625 26.8892 54.1827 26.6712 54.0172C25.8572 53.3967 25.2532 52.5827 24.9252 51.6631C24.7031 51.0407 25.0291 50.3564 25.6532 50.135C26.2772 49.9135 26.9632 50.2386 27.1853 50.8611C27.3573 51.3419 27.6832 51.7768 28.1273 52.114C28.6533 52.5149 28.7553 53.2671 28.3532 53.7917C28.1173 54.1009 27.7592 54.2625 27.3993 54.2625Z" fill="#2F3F64"/>
<path d="M33.7978 51.0714C33.1357 51.0714 32.5977 50.5347 32.5977 49.8745V39.5008C32.5977 38.8404 33.1357 38.3037 33.7978 38.3037C34.4598 38.3037 34.9979 38.8404 34.9979 39.5008V49.8745C34.9979 50.5347 34.4598 51.0714 33.7978 51.0714Z" fill="#2F3F64"/>
<path d="M32.3078 29.2066C31.9997 29.2066 31.6938 29.0888 31.4597 28.8554L31.4438 28.8395C30.9758 28.3727 30.9758 27.6146 31.4438 27.1458C31.9118 26.677 32.6718 26.6789 33.1418 27.1458L33.1578 27.1618C33.6259 27.6286 33.6259 28.3867 33.1578 28.8554C32.9239 29.0888 32.6158 29.2066 32.3098 29.2066H32.3078Z" fill="#2F3F64"/>
<path d="M30.8823 27.4508C30.5742 27.4508 30.2681 27.3332 30.0321 27.0998C30.0242 27.0919 30.0142 27.0819 30.0062 27.0739C29.4781 26.7207 29.3142 26.0146 29.6442 25.4639C29.9841 24.8973 30.7222 24.7138 31.2901 25.053C31.4982 25.1766 31.6443 25.3223 31.7302 25.41C32.1982 25.8769 32.1982 26.6349 31.7302 27.1038C31.4962 27.3372 31.1881 27.4529 30.8823 27.4529V27.4508Z" fill="#2F3F64"/>
<path d="M28.3698 25.695C28.1919 25.695 28.0118 25.655 27.8418 25.5713C26.9378 25.1264 25.9797 24.8612 24.9937 24.7813C24.3337 24.7274 23.8417 24.1489 23.8956 23.4906C23.9497 22.8322 24.5297 22.3434 25.1897 22.3954C26.4777 22.5011 27.7258 22.8462 28.9019 23.4247C29.4959 23.7161 29.7419 24.4341 29.4478 25.0266C29.2399 25.4496 28.8139 25.695 28.3698 25.695Z" fill="#2F3F64"/>
<path d="M81.7976 68.6269C81.1356 68.6269 80.5977 68.0903 80.5977 67.43V52.2683C80.5977 51.6079 81.1356 51.0713 81.7976 51.0713C82.4597 51.0713 82.9977 51.6079 82.9977 52.2683V67.43C82.9977 68.0903 82.4597 68.6269 81.7976 68.6269Z" fill="#2F3F64"/>
<path d="M17.7937 68.6269C17.1318 68.6269 16.5938 68.0903 16.5938 67.43V52.2683C16.5938 51.6079 17.1318 51.0713 17.7937 51.0713C18.4558 51.0713 18.9938 51.6079 18.9938 52.2683V67.43C18.9938 68.0903 18.4558 68.6269 17.7937 68.6269Z" fill="#2F3F64"/>
</g>
</g>
<defs>
<clipPath id="clip0_227_23">
<rect width="98.4036" height="79.0001" fill="white" transform="translate(0.59668)"/>
</clipPath>
</defs>
</svg>
