<svg width="101" height="64" viewBox="0 0 101 64" fill="none" xmlns="http://www.w3.org/2000/svg">
<g id="group">
<g id="Group">
<path id="Vector" d="M57.3643 34.2203C57.9643 26.2403 67.2043 19.8802 78.5143 19.8802C89.8243 19.8802 99.0643 26.2403 99.6643 34.2203C99.4943 35.2303 98.6243 35.9902 97.5743 35.9902H59.4543C58.4043 35.9902 57.5343 35.2303 57.3643 34.2203ZM78.5143 0.990234C83.6743 0.990234 87.8543 5.22024 87.8543 10.4302C87.8543 15.6402 83.6743 19.8702 78.5143 19.8702C73.3543 19.8702 69.1743 15.6402 69.1743 10.4302C69.1743 5.22024 73.3543 0.990234 78.5143 0.990234Z" fill="#2F3F64"/>
<path id="Vector_2" d="M97.5645 36.99H59.4445C57.9245 36.99 56.6245 35.89 56.3745 34.39C56.3645 34.31 56.3545 34.23 56.3645 34.15C56.9045 26.93 63.9045 21.03 73.1445 19.36C70.1645 17.53 68.1746 14.21 68.1746 10.44C68.1746 4.68 72.8145 0 78.5145 0C84.2145 0 88.8545 4.68 88.8545 10.44C88.8545 14.22 86.8645 17.53 83.8845 19.36C93.1245 21.03 100.125 26.93 100.665 34.15C100.665 34.23 100.665 34.31 100.655 34.39C100.395 35.9 99.1045 36.99 97.5845 36.99H97.5645ZM58.3745 34.15C58.5045 34.64 58.9445 34.99 59.4545 34.99H97.5745C98.0845 34.99 98.5245 34.64 98.6545 34.15C97.9945 26.69 89.1845 20.87 78.5145 20.87C67.8445 20.87 59.0345 26.69 58.3745 34.15ZM78.5145 1.98999C73.9145 1.98999 70.1746 5.77999 70.1746 10.43C70.1746 15.08 73.9145 18.87 78.5145 18.87C83.1145 18.87 86.8545 15.08 86.8545 10.43C86.8545 5.77999 83.1145 1.98999 78.5145 1.98999Z" fill="#2F3F64"/>
</g>
<g id="Group_2">
<path id="Vector_3" d="M0.994141 34.2203C1.59414 26.2403 10.8342 19.8802 22.1442 19.8802C33.4542 19.8802 42.6942 26.2403 43.2942 34.2203C43.1242 35.2303 42.2542 35.9902 41.2042 35.9902H3.08417C2.03417 35.9902 1.16414 35.2303 0.994141 34.2203ZM22.1442 0.990234C27.3042 0.990234 31.4842 5.22024 31.4842 10.4302C31.4842 15.6402 27.3042 19.8702 22.1442 19.8702C16.9842 19.8702 12.8041 15.6402 12.8041 10.4302C12.8041 5.22024 16.9842 0.990234 22.1442 0.990234Z" fill="#2F3F64"/>
<path id="Vector_4" d="M41.2042 36.99H3.08416C1.56416 36.99 0.26415 35.89 0.0141499 34.39C0.00414988 34.31 -0.00585989 34.23 0.00414011 34.15C0.54414 26.93 7.54417 21.03 16.7842 19.36C13.8042 17.53 11.8141 14.21 11.8141 10.44C11.8141 4.68 16.4542 0 22.1542 0C27.8542 0 32.4941 4.68 32.4941 10.44C32.4941 14.22 30.5042 17.53 27.5242 19.36C36.7642 21.03 43.7641 26.93 44.3041 34.15C44.3041 34.23 44.3042 34.31 44.2942 34.39C44.0342 35.9 42.7442 36.99 41.2242 36.99H41.2042ZM2.00414 34.15C2.13414 34.64 2.57416 34.99 3.08416 34.99H41.2042C41.7141 34.99 42.1542 34.64 42.2842 34.15C41.6242 26.69 32.8142 20.87 22.1442 20.87C11.4742 20.87 2.66414 26.69 2.00414 34.15ZM22.1442 1.98999C17.5442 1.98999 13.8041 5.77999 13.8041 10.43C13.8041 15.08 17.5442 18.87 22.1442 18.87C26.7442 18.87 30.4842 15.08 30.4842 10.43C30.4842 5.77999 26.7442 1.98999 22.1442 1.98999Z" fill="#2F3F64"/>
</g>
<path id="Vector_5" d="M15.1641 59.2398C16.1541 45.9898 31.504 35.4398 50.254 35.4398C69.004 35.4398 84.3541 45.9898 85.3441 59.2398C85.0641 60.9098 83.614 62.1798 81.884 62.1798H18.624C16.884 62.1798 15.4441 60.9098 15.1641 59.2398ZM50.254 4.08984C58.814 4.08984 65.754 11.1098 65.754 19.7598C65.754 28.4098 58.814 35.4298 50.254 35.4298C41.694 35.4298 34.754 28.4098 34.754 19.7598C34.754 11.1098 41.694 4.08984 50.254 4.08984Z" fill="#BCC5DC"/>
<path id="Vector_6" d="M81.8843 63.1796H18.6243C16.4143 63.1796 14.5443 61.5896 14.1743 59.4096C14.1643 59.3296 14.1543 59.2496 14.1643 59.1696C15.0743 46.9996 27.3943 37.1496 43.3743 34.9196C37.7043 32.2796 33.7543 26.4796 33.7543 19.7696C33.7543 10.5796 41.1543 3.09961 50.2543 3.09961C59.3543 3.09961 66.7543 10.5796 66.7543 19.7696C66.7543 26.4896 62.8043 32.2896 57.1343 34.9296C63.0143 35.7496 68.5643 37.6296 73.2243 40.3996C73.6943 40.6796 73.8543 41.2996 73.5743 41.7696C73.2943 42.2496 72.6743 42.3996 72.2043 42.1196C66.0643 38.4596 58.2743 36.4496 50.2643 36.4496C32.1643 36.4496 17.2243 46.4296 16.1743 59.1896C16.4243 60.3496 17.4443 61.1896 18.6343 61.1896H81.8943C83.1243 61.1896 84.1643 60.2996 84.3743 59.0796C84.4643 58.5396 84.9843 58.1796 85.5243 58.2596C86.0643 58.3496 86.4343 58.8696 86.3443 59.4096C85.9743 61.5996 84.1043 63.1796 81.8943 63.1796H81.8843ZM50.2543 5.0896C42.2643 5.0896 35.7543 11.6696 35.7543 19.7596C35.7543 27.8496 42.2543 34.4296 50.2543 34.4296C58.2543 34.4296 64.7543 27.8496 64.7543 19.7596C64.7543 11.6696 58.2543 5.0896 50.2543 5.0896Z" fill="#2F3F64"/>
</g>
</svg>
