<svg width="154" height="154" viewBox="0 0 154 154" fill="none" xmlns="http://www.w3.org/2000/svg">
<g clip-path="url(#clip0_227_2)">
<mask id="mask0_227_2" style="mask-type:luminance" maskUnits="userSpaceOnUse" x="21" y="14" width="112" height="125">
<path d="M133 14H21V139H133V14Z" fill="white"/>
</mask>
<g mask="url(#mask0_227_2)">
<path d="M131.663 85.6119V100.004C131.663 102.92 130.107 105.61 127.615 107.057C127.47 107.159 127.33 107.22 127.189 107.3L123.566 109.117V76.499L127.189 78.3122C129.923 79.6974 131.663 82.5295 131.663 85.6119Z" fill="#2F3F64"/>
<path d="M123.568 92.8089V109.12C123.568 111.361 121.745 113.196 119.52 113.196H115.468C113.242 113.196 111.42 111.361 111.42 109.12V76.5018C111.42 74.2608 113.242 72.4258 115.468 72.4258H119.52C121.745 72.4258 123.568 74.2608 123.568 76.5018V92.8089Z" fill="#BCC5DC"/>
<path d="M120.332 32.873C121.971 34.4831 121.949 37.054 120.289 38.6424C119.457 39.4183 118.387 39.8028 117.314 39.8028C116.241 39.8028 115.128 39.3929 114.296 38.5806C104.374 28.8769 91.1745 23.5173 77.1034 23.4955H76.9016C62.8306 23.5173 49.631 28.8769 39.7087 38.5806C38.8768 39.3966 37.7856 39.8028 36.6907 39.8028C35.5959 39.8028 34.5478 39.4148 33.7159 38.6424C32.0556 37.054 32.034 34.4831 33.6727 32.873C45.1939 21.599 60.5435 15.3619 76.8836 15.3438H77.1249C93.465 15.3655 108.811 21.6026 120.332 32.8765V32.873Z" fill="#2F3F64"/>
<path d="M94.2122 127.465C97.0033 127.465 99.2723 129.75 99.2723 132.56C99.2723 135.37 97.0033 137.655 94.2122 137.655H80.0402C77.2454 137.655 74.9766 135.37 74.9766 132.56C74.9766 129.75 77.2454 127.465 80.0402 127.465H94.2122Z" fill="#FEC95C"/>
<path d="M77.0008 66.3076C90.4237 66.3076 101.297 74.5212 101.297 84.6529C101.297 94.7846 90.4237 102.998 77.0008 102.998C73.9432 107.991 68.6598 111.153 62.829 111.153C64.7125 108.013 65.3392 104.18 64.8531 100.532C57.6067 97.3736 52.7051 91.4411 52.7051 84.6529C52.7051 74.5212 63.578 66.3076 77.0008 66.3076ZM92.1849 84.6529C92.1849 82.9594 90.8307 81.5958 89.1488 81.5958C87.4669 81.5958 86.1091 82.9629 86.1091 84.6529C86.1091 86.3427 87.4669 87.7097 89.1488 87.7097C90.8307 87.7097 92.1849 86.3427 92.1849 84.6529ZM80.0369 84.6529C80.0369 82.9594 78.6793 81.5958 77.0008 81.5958C75.3226 81.5958 73.9613 82.9629 73.9613 84.6529C73.9613 86.3427 75.3189 87.7097 77.0008 87.7097C78.6828 87.7097 80.0369 86.3427 80.0369 84.6529ZM67.8891 84.6529C67.8891 82.9594 66.5313 81.5958 64.8494 81.5958C63.1675 81.5958 61.8133 82.9629 61.8133 84.6529C61.8133 86.3427 63.1711 87.7097 64.8494 87.7097C66.5276 87.7097 67.8891 86.3427 67.8891 84.6529Z" fill="white"/>
<path d="M89.1452 81.5957C90.8235 81.5957 92.1813 82.9628 92.1813 84.6527C92.1813 86.3425 90.8271 87.7096 89.1452 87.7096C87.4633 87.7096 86.1055 86.3425 86.1055 84.6527C86.1055 82.9628 87.4633 81.5957 89.1452 81.5957Z" fill="#2F3F64"/>
<path d="M76.9978 81.5957C78.676 81.5957 80.0338 82.9628 80.0338 84.6527C80.0338 86.3425 78.676 87.7096 76.9978 87.7096C75.3193 87.7096 73.958 86.3425 73.958 84.6527C73.958 82.9628 75.3158 81.5957 76.9978 81.5957Z" fill="#2F3F64"/>
<path d="M64.8544 81.5957C66.5364 81.5957 67.8942 82.9628 67.8942 84.6527C67.8942 86.3425 66.5364 87.7096 64.8544 87.7096C63.1725 87.7096 61.8184 86.3425 61.8184 84.6527C61.8184 82.9628 63.1762 81.5957 64.8544 81.5957Z" fill="#2F3F64"/>
<path d="M42.5806 76.4978V109.116C42.5806 111.357 40.7581 113.192 38.5325 113.192H34.4807C32.255 113.192 30.4326 111.357 30.4326 109.116V76.4978C30.4326 74.2567 32.255 72.4219 34.4807 72.4219H38.5325C40.7581 72.4219 42.5806 74.2567 42.5806 76.4978Z" fill="#BCC5DC"/>
<path d="M30.4292 92.8099V109.121L26.8061 107.304C24.0725 105.919 22.333 103.083 22.333 100.004V85.6119C22.333 82.5332 24.0761 79.6974 26.8061 78.3122L30.4292 76.499V92.8062V92.8099Z" fill="#2F3F64"/>
<path d="M119.522 114.538H115.47C112.503 114.538 110.086 112.104 110.086 109.116V76.4985C110.086 73.5104 112.499 71.0771 115.47 71.0771H119.522C122.49 71.0771 124.906 73.5104 124.906 76.4985V82.6159C124.906 83.3592 124.308 83.9611 123.574 83.9611C122.839 83.9611 122.241 83.3592 122.241 82.6159V76.4985C122.241 74.9898 121.024 73.7643 119.526 73.7643H115.474C113.976 73.7643 112.758 74.9898 112.758 76.4985V109.116C112.758 110.625 113.976 111.851 115.474 111.851H119.526C121.024 111.851 122.241 110.625 122.241 109.116V92.8057C122.241 92.0622 122.839 91.4602 123.574 91.4602C124.308 91.4602 124.906 92.0622 124.906 92.8057V109.116C124.906 112.104 122.49 114.538 119.522 114.538Z" fill="#2F3F64"/>
<path d="M38.5297 114.538H34.478C31.5104 114.538 29.0938 112.104 29.0938 109.116V92.8057C29.0938 92.0622 29.6916 91.4602 30.4263 91.4602C31.161 91.4602 31.7589 92.0622 31.7589 92.8057V109.116C31.7589 110.625 32.9762 111.851 34.4744 111.851H38.5261C40.0244 111.851 41.2417 110.625 41.2417 109.116V76.4985C41.2417 74.9898 40.0244 73.7643 38.5261 73.7643H34.4744C32.9762 73.7643 31.7589 74.9898 31.7589 76.4985V82.6159C31.7589 83.3592 31.161 83.9611 30.4263 83.9611C29.6916 83.9611 29.0938 83.3592 29.0938 82.6159V76.4985C29.0938 73.5104 31.5104 71.0771 34.478 71.0771H38.5297C41.4974 71.0771 43.914 73.5104 43.914 76.4985V109.116C43.914 112.104 41.5009 114.538 38.5297 114.538Z" fill="#2F3F64"/>
<path d="M123.568 110.462C123.078 110.462 122.606 110.19 122.372 109.715C122.045 109.052 122.311 108.243 122.974 107.913L126.568 106.111C126.615 106.085 126.662 106.06 126.712 106.035C126.759 106.009 126.806 105.991 126.849 105.958C126.882 105.937 126.914 105.915 126.95 105.893C129.035 104.682 130.332 102.423 130.332 100.001V85.6081C130.332 83.0551 128.862 80.6618 126.59 79.5088L122.974 77.6956C122.315 77.3657 122.045 76.5606 122.372 75.8933C122.7 75.2298 123.503 74.9578 124.162 75.2879L127.786 77.1009C130.955 78.7074 133.001 82.0435 133.001 85.6009V99.9933C133.001 103.355 131.214 106.488 128.329 108.185C128.182 108.283 128.048 108.352 127.948 108.406C127.915 108.424 127.879 108.442 127.847 108.461C127.825 108.472 127.804 108.482 127.786 108.493L124.162 110.31C123.971 110.404 123.77 110.451 123.568 110.451V110.462Z" fill="#2F3F64"/>
<path d="M30.4324 110.461C30.2343 110.461 30.029 110.418 29.8381 110.32L26.215 108.503C23.0457 106.897 21 103.56 21 100.003V85.6106C21 82.0532 23.0457 78.7171 26.2078 77.1143L29.8381 75.2975C30.4972 74.9676 31.3003 75.2396 31.6281 75.9032C31.9558 76.5667 31.6893 77.3753 31.0266 77.7055L27.4035 79.5185C25.1381 80.668 23.6687 83.0613 23.6687 85.6143V100.007C23.6687 102.56 25.1381 104.953 27.4107 106.106L31.0266 107.919C31.6857 108.249 31.9558 109.058 31.6281 109.721C31.394 110.193 30.9222 110.468 30.4324 110.468V110.461Z" fill="#2F3F64"/>
<path d="M117.309 41.1496C115.818 41.1496 114.413 40.5803 113.362 39.5468C103.688 30.086 90.8089 24.8642 77.098 24.8424H76.8962C63.1888 24.8606 50.3099 30.086 40.6325 39.5468C39.581 40.5803 38.1763 41.1496 36.6853 41.1496C35.1942 41.1496 33.8545 40.6093 32.8028 39.6303C31.7224 38.5931 31.1281 37.2298 31.1173 35.772C31.1065 34.3178 31.6828 32.947 32.7344 31.9136C44.5221 20.3822 60.196 14.0218 76.8747 14H77.1158C93.7946 14.0218 109.468 20.3822 121.253 31.91C122.308 32.947 122.88 34.3178 122.873 35.772C122.862 37.2261 122.268 38.5931 121.199 39.6194C120.136 40.613 118.757 41.1496 117.302 41.1496H117.309ZM76.8925 22.1554H77.098C91.5075 22.1772 105.046 27.6673 115.22 37.6213C115.775 38.1653 116.517 38.4662 117.309 38.4662C118.101 38.4662 118.821 38.1798 119.38 37.6613C119.906 37.1572 120.205 36.4754 120.212 35.7574C120.215 35.0394 119.927 34.3613 119.398 33.8391C108.111 22.7973 93.0958 16.7052 77.1158 16.687H76.8782C60.8982 16.7052 45.8836 22.7973 34.6 33.8391C34.0742 34.3577 33.7824 35.0394 33.7897 35.7574C33.7933 36.4754 34.0958 37.1572 34.6324 37.672C35.1762 38.1798 35.911 38.4627 36.6889 38.4627C37.4668 38.4627 38.2231 38.1653 38.7777 37.6213C48.952 27.6673 62.4937 22.1772 76.8999 22.1554H76.8925Z" fill="#2F3F64"/>
<path d="M127.615 79.8807C126.877 79.8807 126.283 79.2788 126.283 78.539C126.283 59.4867 123.715 45.2501 119.235 39.47C118.781 38.8862 118.885 38.0413 119.465 37.5842C120.045 37.1274 120.884 37.2325 121.338 37.8164C127.961 46.3597 128.948 66.9967 128.948 78.5354C128.948 79.2788 128.35 79.877 127.615 79.877V79.8807Z" fill="#2F3F64"/>
<path d="M26.2222 79.8809C25.4839 79.8809 24.8896 79.279 24.8896 78.5392C24.8896 69.2561 25.6316 46.7045 32.5213 37.8202C32.975 37.2364 33.8142 37.1313 34.394 37.5881C34.9739 38.045 35.0783 38.8899 34.6245 39.4737C30.1335 45.2684 27.5584 59.5087 27.5584 78.5429C27.5584 79.2862 26.9605 79.8846 26.2258 79.8846L26.2222 79.8809Z" fill="#2F3F64"/>
<path d="M99.2641 133.905C98.5473 133.905 97.9567 133.332 97.9315 132.607C97.9063 131.867 98.4825 131.243 99.2209 131.218C104.13 131.048 116.123 128.335 121.053 127.175C123.023 126.714 124.482 125.039 124.684 123.005L126.283 106.922C126.355 106.183 127.01 105.646 127.745 105.718C128.479 105.791 129.013 106.451 128.941 107.191L127.341 123.273C127.021 126.45 124.738 129.068 121.658 129.789C116.656 130.968 104.457 133.724 99.3108 133.902C99.2965 133.902 99.2784 133.902 99.2641 133.902V133.905Z" fill="#2F3F64"/>
<path d="M94.2118 139H80.04C76.5141 139 73.6436 136.109 73.6436 132.559C73.6436 129.009 76.5141 126.119 80.04 126.119H94.2118C97.7377 126.119 100.605 129.009 100.605 132.559C100.605 136.109 97.7377 139 94.2118 139ZM80.0363 128.806C77.9799 128.806 76.3088 130.489 76.3088 132.559C76.3088 134.63 77.9799 136.312 80.0363 136.312H94.2083C96.2611 136.312 97.9358 134.63 97.9358 132.559C97.9358 130.489 96.2648 128.806 94.2083 128.806H80.0363Z" fill="#FEC95C"/>
</g>
</g>
<defs>
<clipPath id="clip0_227_2">
<rect width="112" height="125" fill="white" transform="translate(21 14)"/>
</clipPath>
</defs>
</svg>
