<svg width="100" height="103" viewBox="0 0 100 103" fill="none" xmlns="http://www.w3.org/2000/svg">
<g clip-path="url(#clip0_227_44)">
<mask id="mask0_227_44" style="mask-type:luminance" maskUnits="userSpaceOnUse" x="0" y="0" width="100" height="103">
<path d="M99.6386 0.901367H0V103H99.6386V0.901367Z" fill="white"/>
</mask>
<g mask="url(#mask0_227_44)">
<path d="M85.4611 61.5977C88.1505 61.5977 90.3215 63.7522 90.3215 66.4211C90.3215 69.0902 88.1505 71.2448 85.4611 71.2448C82.7716 71.2448 80.6006 69.0902 80.6006 66.4211C80.6006 63.7522 82.7716 61.5977 85.4611 61.5977Z" fill="white"/>
<path d="M49.8164 61.5977C52.5058 61.5977 54.6768 63.7522 54.6768 66.4211C54.6768 69.0902 52.5058 71.2448 49.8164 71.2448C47.1271 71.2448 44.9561 69.0902 44.9561 66.4211C44.9561 63.7522 47.1271 61.5977 49.8164 61.5977Z" fill="white"/>
<path d="M14.1778 61.5977C16.8673 61.5977 19.0383 63.7522 19.0383 66.4211C19.0383 69.0902 16.8673 71.2448 14.1778 71.2448C11.4884 71.2448 9.31738 69.0902 9.31738 66.4211C9.31738 63.7522 11.4884 61.5977 14.1778 61.5977Z" fill="white"/>
<path d="M49.8164 2.10645C52.5058 2.10645 54.6768 4.26096 54.6768 6.93001C54.6768 9.59904 52.5058 11.7536 49.8164 11.7536C47.1271 11.7536 44.9561 9.59904 44.9561 6.93001C44.9561 4.26096 47.1271 2.10645 49.8164 2.10645Z" fill="white"/>
<path d="M49.8205 39.0872C49.8205 40.8557 48.3625 42.3028 46.5803 42.3028C44.7981 42.3028 43.3399 40.8557 43.3399 39.0872V31.0479C43.3399 32.8165 41.8819 34.2636 40.0997 34.2636C38.3175 34.2636 36.8594 32.8165 36.8594 31.0479V24.6165C36.8594 20.1788 40.4886 16.5771 44.9601 16.5771H54.6809C59.1526 16.5771 62.7816 20.1788 62.7816 24.6165V31.0479C62.7816 32.8165 61.3235 34.2636 59.5414 34.2636C57.7592 34.2636 56.3011 32.8165 56.3011 31.0479V39.0872C56.3011 40.8557 54.843 42.3028 53.0609 42.3028C51.2787 42.3028 49.8205 40.8557 49.8205 39.0872Z" fill="#FEC95C"/>
<path d="M20.6575 90.5391V98.5784C20.6575 100.347 19.1994 101.794 17.4172 101.794C15.635 101.794 14.177 100.347 14.177 98.5784C14.177 100.347 12.7188 101.794 10.9367 101.794C9.1545 101.794 7.69637 100.347 7.69637 98.5784V90.5391C7.69637 92.3077 6.23825 93.7548 4.4561 93.7548C2.67395 93.7548 1.21582 92.3077 1.21582 90.5391V84.1077C1.21582 79.67 4.84494 76.0684 9.31652 76.0684H19.0374C23.5089 76.0684 27.1381 79.67 27.1381 84.1077V90.5391C27.1381 92.3077 25.6799 93.7548 23.8978 93.7548C22.1156 93.7548 20.6575 92.3077 20.6575 90.5391Z" fill="white"/>
<path d="M49.8205 98.5784C49.8205 100.347 48.3625 101.794 46.5803 101.794C44.7981 101.794 43.3399 100.347 43.3399 98.5784V90.5391C43.3399 92.3077 41.8819 93.7548 40.0997 93.7548C38.3175 93.7548 36.8594 92.3077 36.8594 90.5391V84.1077C36.8594 79.67 40.4886 76.0684 44.9601 76.0684H54.6809C59.1526 76.0684 62.7816 79.67 62.7816 84.1077V90.5391C62.7816 92.3077 61.3235 93.7548 59.5414 93.7548C57.7592 93.7548 56.3011 92.3077 56.3011 90.5391V98.5784C56.3011 100.347 54.843 101.794 53.0609 101.794C51.2787 101.794 49.8205 100.347 49.8205 98.5784Z" fill="#BCC5DC"/>
<path d="M91.9407 90.5391V98.5784C91.9407 100.347 90.4826 101.794 88.7004 101.794C86.9183 101.794 85.4602 100.347 85.4602 98.5784C85.4602 100.347 84.002 101.794 82.2198 101.794C80.4378 101.794 78.9796 100.347 78.9796 98.5784V90.5391C78.9796 92.3077 77.5214 93.7548 75.7392 93.7548C73.9572 93.7548 72.499 92.3077 72.499 90.5391V84.1077C72.499 79.67 76.1281 76.0684 80.5998 76.0684H90.3205C94.7921 76.0684 98.4213 79.67 98.4213 84.1077V90.5391C98.4213 92.3077 96.9631 93.7548 95.1809 93.7548C93.3988 93.7548 91.9407 92.3077 91.9407 90.5391Z" fill="#BCC5DC"/>
<path d="M49.8206 12.9603C46.471 12.9603 43.7451 10.2551 43.7451 6.93083C43.7451 3.60658 46.471 0.901367 49.8206 0.901367C53.1703 0.901367 55.8961 3.60658 55.8961 6.93083C55.8961 10.2551 53.1703 12.9603 49.8206 12.9603ZM49.8206 3.31315C47.8117 3.31315 46.1753 4.93708 46.1753 6.93083C46.1753 8.92456 47.8117 10.5485 49.8206 10.5485C51.8296 10.5485 53.4659 8.92456 53.4659 6.93083C53.4659 4.93708 51.8296 3.31315 49.8206 3.31315Z" fill="#2F3F64"/>
<path d="M56.3002 30.6455C55.6298 30.6455 55.085 30.1049 55.085 29.4396V24.616C55.085 23.9508 55.6298 23.4102 56.3002 23.4102C56.9705 23.4102 57.5153 23.9508 57.5153 24.616V29.4396C57.5153 30.1049 56.9705 30.6455 56.3002 30.6455Z" fill="#2F3F64"/>
<path d="M53.058 43.5096C51.7821 43.5096 50.6298 42.975 49.8177 42.1189C49.0056 42.975 47.8533 43.5096 46.5774 43.5096C44.1209 43.5096 42.1221 41.5259 42.1221 39.088V31.0488C42.1221 30.3835 42.6669 29.8428 43.3372 29.8428C44.0075 29.8428 44.5523 30.3835 44.5523 31.0488V39.088C44.5523 40.1953 45.4616 41.0977 46.5774 41.0977C47.6933 41.0977 48.6026 40.1953 48.6026 39.088C48.6026 38.4228 49.1473 37.8821 49.8177 37.8821C50.488 37.8821 51.0328 38.4228 51.0328 39.088C51.0328 40.1953 51.9421 41.0977 53.058 41.0977C54.1739 41.0977 55.0832 40.1953 55.0832 39.088V31.0488C55.0832 30.3835 55.6279 29.8428 56.2983 29.8428C56.9686 29.8428 57.5134 30.3835 57.5134 31.0488V39.088C57.5134 41.5259 55.5145 43.5096 53.058 43.5096Z" fill="#2F3F64"/>
<path d="M43.3372 30.6455C42.6669 30.6455 42.1221 30.1049 42.1221 29.4396V24.616C42.1221 23.9508 42.6669 23.4102 43.3372 23.4102C44.0075 23.4102 44.5523 23.9508 44.5523 24.616V29.4396C44.5523 30.1049 44.0075 30.6455 43.3372 30.6455Z" fill="#2F3F64"/>
<path d="M59.5406 35.4703C57.084 35.4703 55.0851 33.4865 55.0851 31.0487V29.4408C55.0851 28.7755 55.6299 28.2349 56.3002 28.2349C56.9706 28.2349 57.5154 28.7755 57.5154 29.4408V31.0487C57.5154 32.156 58.4247 33.0584 59.5406 33.0584C60.6564 33.0584 61.5657 32.156 61.5657 31.0487V24.6172C61.5657 20.8487 58.4774 17.7838 54.6802 17.7838H44.9593C41.1621 17.7838 38.0738 20.8487 38.0738 24.6172V31.0487C38.0738 32.156 38.983 33.0584 40.0989 33.0584C41.2147 33.0584 42.1241 32.156 42.1241 31.0487V29.4408C42.1241 28.7755 42.6688 28.2349 43.3392 28.2349C44.0095 28.2349 44.5543 28.7755 44.5543 29.4408V31.0487C44.5543 33.4865 42.5554 35.4703 40.0989 35.4703C37.6424 35.4703 35.6436 33.4865 35.6436 31.0487V24.6172C35.6436 19.5204 39.8235 15.3721 44.9593 15.3721H54.6802C59.816 15.3721 63.9959 19.5204 63.9959 24.6172V31.0487C63.9959 33.4865 61.9971 35.4703 59.5406 35.4703Z" fill="#2F3F64"/>
<path d="M49.8186 40.2943C49.1483 40.2943 48.6035 39.7536 48.6035 39.0884V32.657C48.6035 31.9918 49.1483 31.4512 49.8186 31.4512C50.489 31.4512 51.0337 31.9918 51.0337 32.657V39.0884C51.0337 39.7536 50.489 40.2943 49.8186 40.2943Z" fill="#2F3F64"/>
<path d="M49.8206 72.4506C46.471 72.4506 43.7451 69.7453 43.7451 66.4211C43.7451 63.0968 46.471 60.3916 49.8206 60.3916C53.1703 60.3916 55.8961 63.0968 55.8961 66.4211C55.8961 69.7453 53.1703 72.4506 49.8206 72.4506ZM49.8206 62.8033C47.8117 62.8033 46.1753 64.4273 46.1753 66.4211C46.1753 68.4148 47.8117 70.0387 49.8206 70.0387C51.8296 70.0387 53.4659 68.4148 53.4659 66.4211C53.4659 64.4273 51.8296 62.8033 49.8206 62.8033Z" fill="#2F3F64"/>
<path d="M56.3002 90.1367C55.6298 90.1367 55.085 89.5961 55.085 88.9308V84.1072C55.085 83.442 55.6298 82.9014 56.3002 82.9014C56.9705 82.9014 57.5153 83.442 57.5153 84.1072V88.9308C57.5153 89.5961 56.9705 90.1367 56.3002 90.1367Z" fill="#2F3F64"/>
<path d="M53.058 103C51.7821 103 50.6298 102.465 49.8177 101.609C49.0056 102.465 47.8533 103 46.5774 103C44.1209 103 42.1221 101.016 42.1221 98.5782V90.539C42.1221 89.8738 42.6669 89.333 43.3372 89.333C44.0075 89.333 44.5523 89.8738 44.5523 90.539V98.5782C44.5523 99.6857 45.4616 100.588 46.5774 100.588C47.6933 100.588 48.6026 99.6857 48.6026 98.5782C48.6026 97.913 49.1473 97.3724 49.8177 97.3724C50.488 97.3724 51.0328 97.913 51.0328 98.5782C51.0328 99.6857 51.9421 100.588 53.058 100.588C54.1739 100.588 55.0832 99.6857 55.0832 98.5782V90.539C55.0832 89.8738 55.6279 89.333 56.2983 89.333C56.9686 89.333 57.5134 89.8738 57.5134 90.539V98.5782C57.5134 101.016 55.5145 103 53.058 103Z" fill="#2F3F64"/>
<path d="M43.3372 90.1367C42.6669 90.1367 42.1221 89.5961 42.1221 88.9308V84.1072C42.1221 83.442 42.6669 82.9014 43.3372 82.9014C44.0075 82.9014 44.5523 83.442 44.5523 84.1072V88.9308C44.5523 89.5961 44.0075 90.1367 43.3372 90.1367Z" fill="#2F3F64"/>
<path d="M59.5406 94.9605C57.084 94.9605 55.0851 92.9767 55.0851 90.5389V88.931C55.0851 88.2658 55.6299 87.7252 56.3002 87.7252C56.9706 87.7252 57.5154 88.2658 57.5154 88.931V90.5389C57.5154 91.6462 58.4247 92.5486 59.5406 92.5486C60.6564 92.5486 61.5657 91.6462 61.5657 90.5389V84.1074C61.5657 80.339 58.4774 77.2741 54.6802 77.2741H44.9593C41.1621 77.2741 38.0738 80.339 38.0738 84.1074V90.5389C38.0738 91.6462 38.983 92.5486 40.0989 92.5486C41.2147 92.5486 42.1241 91.6462 42.1241 90.5389V88.931C42.1241 88.2658 42.6688 87.7252 43.3392 87.7252C44.0095 87.7252 44.5543 88.2658 44.5543 88.931V90.5389C44.5543 92.9767 42.5554 94.9605 40.0989 94.9605C37.6424 94.9605 35.6436 92.9767 35.6436 90.5389V84.1074C35.6436 79.0106 39.8235 74.8623 44.9593 74.8623H54.6802C59.816 74.8623 63.9959 79.0106 63.9959 84.1074V90.5389C63.9959 92.9767 61.9971 94.9605 59.5406 94.9605Z" fill="#2F3F64"/>
<path d="M49.8186 99.7845C49.1483 99.7845 48.6035 99.2439 48.6035 98.5786V92.1473C48.6035 91.482 49.1483 90.9414 49.8186 90.9414C50.489 90.9414 51.0337 91.482 51.0337 92.1473V98.5786C51.0337 99.2439 50.489 99.7845 49.8186 99.7845Z" fill="#2F3F64"/>
<path d="M85.4603 72.4506C82.1106 72.4506 79.3848 69.7453 79.3848 66.4211C79.3848 63.0968 82.1106 60.3916 85.4603 60.3916C88.8098 60.3916 91.5357 63.0968 91.5357 66.4211C91.5357 69.7453 88.8098 72.4506 85.4603 72.4506ZM85.4603 62.8033C83.4512 62.8033 81.815 64.4273 81.815 66.4211C81.815 68.4148 83.4512 70.0387 85.4603 70.0387C87.4693 70.0387 89.1055 68.4148 89.1055 66.4211C89.1055 64.4273 87.4693 62.8033 85.4603 62.8033Z" fill="#2F3F64"/>
<path d="M14.1771 72.4506C10.8274 72.4506 8.10156 69.7453 8.10156 66.4211C8.10156 63.0968 10.8274 60.3916 14.1771 60.3916C17.5267 60.3916 20.2526 63.0968 20.2526 66.4211C20.2526 69.7453 17.5267 72.4506 14.1771 72.4506ZM14.1771 62.8033C12.1681 62.8033 10.5318 64.4273 10.5318 66.4211C10.5318 68.4148 12.1681 70.0387 14.1771 70.0387C16.186 70.0387 17.8224 68.4148 17.8224 66.4211C17.8224 64.4273 16.186 62.8033 14.1771 62.8033Z" fill="#2F3F64"/>
<path d="M91.9456 90.1367C91.2753 90.1367 90.7305 89.5961 90.7305 88.9308V84.1072C90.7305 83.442 91.2753 82.9014 91.9456 82.9014C92.616 82.9014 93.1607 83.442 93.1607 84.1072V88.9308C93.1607 89.5961 92.616 90.1367 91.9456 90.1367Z" fill="#2F3F64"/>
<path d="M88.7015 103C87.4256 103 86.2733 102.465 85.4612 101.609C84.6492 102.465 83.4968 103 82.2209 103C79.7644 103 77.7656 101.016 77.7656 98.5782V90.539C77.7656 89.8738 78.3103 89.333 78.9807 89.333C79.651 89.333 80.1958 89.8738 80.1958 90.539V98.5782C80.1958 99.6857 81.1051 100.588 82.2209 100.588C83.3368 100.588 84.2461 99.6857 84.2461 98.5782C84.2461 97.913 84.7909 97.3724 85.4612 97.3724C86.1316 97.3724 86.6764 97.913 86.6764 98.5782C86.6764 99.6857 87.5857 100.588 88.7015 100.588C89.8173 100.588 90.7266 99.6857 90.7266 98.5782V90.539C90.7266 89.8738 91.2715 89.333 91.9417 89.333C92.6121 89.333 93.1568 89.8738 93.1568 90.539V98.5782C93.1568 101.016 91.158 103 88.7015 103Z" fill="#2F3F64"/>
<path d="M78.9807 90.1367C78.3103 90.1367 77.7656 89.5961 77.7656 88.9308V84.1072C77.7656 83.442 78.3103 82.9014 78.9807 82.9014C79.651 82.9014 80.1958 83.442 80.1958 84.1072V88.9308C80.1958 89.5961 79.651 90.1367 78.9807 90.1367Z" fill="#2F3F64"/>
<path d="M7.69656 90.1367C7.02622 90.1367 6.48145 89.5961 6.48145 88.9308V84.1072C6.48145 83.442 7.02622 82.9014 7.69656 82.9014C8.36689 82.9014 8.91165 83.442 8.91165 84.1072V88.9308C8.91165 89.5961 8.36689 90.1367 7.69656 90.1367Z" fill="#2F3F64"/>
<path d="M17.4174 103C16.1416 103 14.9892 102.465 14.1771 101.609C13.365 102.465 12.2127 103 10.9368 103C8.48029 103 6.48145 101.016 6.48145 98.5782V90.539C6.48145 89.8738 7.02622 89.333 7.69656 89.333C8.36689 89.333 8.91165 89.8738 8.91165 90.539V98.5782C8.91165 99.6857 9.82096 100.588 10.9368 100.588C12.0527 100.588 12.962 99.6857 12.962 98.5782C12.962 97.913 13.5068 97.3724 14.1771 97.3724C14.8475 97.3724 15.3922 97.913 15.3922 98.5782C15.3922 99.6857 16.3015 100.588 17.4174 100.588C18.5332 100.588 19.4425 99.6857 19.4425 98.5782V90.539C19.4425 89.8738 19.9874 89.333 20.6576 89.333C21.328 89.333 21.8727 89.8738 21.8727 90.539V98.5782C21.8727 101.016 19.8739 103 17.4174 103Z" fill="#2F3F64"/>
<path d="M20.6565 90.1367C19.9862 90.1367 19.4414 89.5961 19.4414 88.9308V84.1072C19.4414 83.442 19.9862 82.9014 20.6565 82.9014C21.3268 82.9014 21.8716 83.442 21.8716 84.1072V88.9308C21.8716 89.5961 21.3268 90.1367 20.6565 90.1367Z" fill="#2F3F64"/>
<path d="M95.1862 94.9605C92.7296 94.9605 90.7308 92.9767 90.7308 90.5389V88.931C90.7308 88.2658 91.2756 87.7252 91.9459 87.7252C92.6161 87.7252 93.161 88.2658 93.161 88.931V90.5389C93.161 91.6462 94.0702 92.5486 95.1862 92.5486C96.302 92.5486 97.2113 91.6462 97.2113 90.5389V84.1074C97.2113 80.339 94.1229 77.2741 90.3257 77.2741H80.6049C76.8077 77.2741 73.7193 80.339 73.7193 84.1074V90.5389C73.7193 91.6462 74.6286 92.5486 75.7445 92.5486C76.8603 92.5486 77.7696 91.6462 77.7696 90.5389V88.931C77.7696 88.2658 78.3144 87.7252 78.9847 87.7252C79.6551 87.7252 80.1998 88.2658 80.1998 88.931V90.5389C80.1998 92.9767 78.201 94.9605 75.7445 94.9605C73.288 94.9605 71.2891 92.9767 71.2891 90.5389V84.1074C71.2891 79.0106 75.4691 74.8623 80.6049 74.8623H90.3257C95.4616 74.8623 99.6415 79.0106 99.6415 84.1074V90.5389C99.6415 92.9767 97.6427 94.9605 95.1862 94.9605Z" fill="#2F3F64"/>
<path d="M23.897 94.9605C21.4405 94.9605 19.4417 92.9767 19.4417 90.5389V88.931C19.4417 88.2658 19.9864 87.7252 20.6568 87.7252C21.3271 87.7252 21.8719 88.2658 21.8719 88.931V90.5389C21.8719 91.6462 22.7812 92.5486 23.897 92.5486C25.013 92.5486 25.9223 91.6462 25.9223 90.5389V84.1074C25.9223 80.339 22.8338 77.2741 19.0366 77.2741H9.3158C5.5186 77.2741 2.43021 80.339 2.43021 84.1074V90.5389C2.43021 91.6462 3.33952 92.5486 4.45538 92.5486C5.57126 92.5486 6.48055 91.6462 6.48055 90.5389V88.931C6.48055 88.2658 7.02533 87.7252 7.69566 87.7252C8.366 87.7252 8.91076 88.2658 8.91076 88.931V90.5389C8.91076 92.9767 6.91191 94.9605 4.45538 94.9605C1.99885 94.9605 0 92.9767 0 90.5389V84.1074C0 79.0106 4.17996 74.8623 9.3158 74.8623H19.0366C24.1724 74.8623 28.3525 79.0106 28.3525 84.1074V90.5389C28.3525 92.9767 26.3535 94.9605 23.897 94.9605Z" fill="#2F3F64"/>
<path d="M85.4622 99.7845C84.7918 99.7845 84.2471 99.2439 84.2471 98.5786V92.1473C84.2471 91.482 84.7918 90.9414 85.4622 90.9414C86.1325 90.9414 86.6773 91.482 86.6773 92.1473V98.5786C86.6773 99.2439 86.1325 99.7845 85.4622 99.7845Z" fill="#2F3F64"/>
<path d="M14.1751 99.7845C13.5047 99.7845 12.96 99.2439 12.96 98.5786V92.1473C12.96 91.482 13.5047 90.9414 14.1751 90.9414C14.8453 90.9414 15.3902 91.482 15.3902 92.1473V98.5786C15.3902 99.2439 14.8453 99.7845 14.1751 99.7845Z" fill="#2F3F64"/>
<path d="M85.4612 56.3726C84.7907 56.3726 84.2461 55.832 84.2461 55.1667V53.157H15.3902V55.1667C15.3902 55.832 14.8453 56.3726 14.1751 56.3726C13.5047 56.3726 12.96 55.832 12.96 55.1667V51.951C12.96 51.2857 13.5047 50.7451 14.1751 50.7451H85.4612C86.1314 50.7451 86.6763 51.2857 86.6763 51.951V55.1667C86.6763 55.832 86.1314 56.3726 85.4612 56.3726Z" fill="#BCC5DC"/>
<path d="M49.8186 56.3724C49.1483 56.3724 48.6035 55.8318 48.6035 55.1665V48.7352C48.6035 48.0699 49.1483 47.5293 49.8186 47.5293C50.489 47.5293 51.0337 48.0699 51.0337 48.7352V55.1665C51.0337 55.8318 50.489 56.3724 49.8186 56.3724Z" fill="#BCC5DC"/>
</g>
</g>
<defs>
<clipPath id="clip0_227_44">
<rect width="99.6386" height="102.099" fill="white" transform="translate(0 0.901367)"/>
</clipPath>
</defs>
</svg>
