<svg width="116" height="114" viewBox="0 0 116 114" fill="none" xmlns="http://www.w3.org/2000/svg">
<path fill-rule="evenodd" clip-rule="evenodd" d="M93.4608 62.3998C93.4608 43.9998 78.5508 29.0898 60.1508 29.0898C41.7508 29.0898 26.8408 43.9998 26.8408 62.3998H78.1508" fill="#BCC5DC"/>
<path d="M93.4608 63.3998C92.9108 63.3998 92.4608 62.9498 92.4608 62.3998C92.4608 44.5798 77.9708 30.0898 60.1508 30.0898C42.3308 30.0898 28.3908 44.0498 27.8608 61.3998H78.1508C78.7008 61.3998 79.1508 61.8498 79.1508 62.3998C79.1508 62.9498 78.7008 63.3998 78.1508 63.3998H26.8408C26.2908 63.3998 25.8408 62.9498 25.8408 62.3998C25.8408 43.4798 41.2308 28.0898 60.1508 28.0898C79.0708 28.0898 94.4608 43.4798 94.4608 62.3998C94.4608 62.9498 94.0108 63.3998 93.4608 63.3998Z" fill="#2F3F64"/>
<path d="M87.4906 18.4502H81.8506C81.3006 18.4502 80.8506 18.0002 80.8506 17.4502C80.8506 16.9002 81.3006 16.4502 81.8506 16.4502H87.4906C88.0406 16.4502 88.4906 16.9002 88.4906 17.4502C88.4906 18.0002 88.0406 18.4502 87.4906 18.4502Z" fill="#2F3F64"/>
<path d="M98.3102 26.4602C103.065 26.4602 106.92 22.6054 106.92 17.8502C106.92 13.0951 103.065 9.24023 98.3102 9.24023C93.555 9.24023 89.7002 13.0951 89.7002 17.8502C89.7002 22.6054 93.555 26.4602 98.3102 26.4602Z" fill="#FEC95C"/>
<path d="M98.3102 27.4502C93.0102 27.4502 88.7002 23.1402 88.7002 17.8502C88.7002 12.5602 93.0102 8.24023 98.3102 8.24023C103.61 8.24023 107.92 12.5502 107.92 17.8502C107.92 23.1502 103.61 27.4502 98.3102 27.4502ZM98.3102 10.2402C94.1202 10.2402 90.7002 13.6502 90.7002 17.8502C90.7002 22.0502 94.1102 25.4502 98.3102 25.4502C102.51 25.4502 105.92 22.0402 105.92 17.8502C105.92 13.6602 102.51 10.2402 98.3102 10.2402Z" fill="#2F3F64"/>
<path d="M98.3105 7.64C97.7605 7.64 97.3105 7.19 97.3105 6.64V1C97.3105 0.45 97.7605 0 98.3105 0C98.8605 0 99.3105 0.45 99.3105 1V6.64C99.3105 7.19 98.8605 7.64 98.3105 7.64Z" fill="#2F3F64"/>
<path d="M90.6604 10.8096C90.4004 10.8096 90.1505 10.7096 89.9505 10.5196L85.9605 6.52965C85.5705 6.13965 85.5705 5.50965 85.9605 5.11965C86.3505 4.72965 86.9804 4.72965 87.3704 5.11965L91.3604 9.10965C91.7504 9.49965 91.7504 10.1296 91.3604 10.5196C91.1604 10.7196 90.9105 10.8096 90.6505 10.8096H90.6604Z" fill="#2F3F64"/>
<path d="M86.6704 30.0899C86.4104 30.0899 86.1605 29.9899 85.9605 29.7999C85.5705 29.4099 85.5705 28.7799 85.9605 28.3899L89.9505 24.3999C90.3405 24.0099 90.9704 24.0099 91.3604 24.3999C91.7504 24.7899 91.7504 25.4199 91.3604 25.8099L87.3704 29.7999C87.1704 29.9999 86.9204 30.0899 86.6604 30.0899H86.6704Z" fill="#2F3F64"/>
<path d="M98.3105 34.9095C97.7605 34.9095 97.3105 34.4595 97.3105 33.9095V28.2695C97.3105 27.7195 97.7605 27.2695 98.3105 27.2695C98.8605 27.2695 99.3105 27.7195 99.3105 28.2695V33.9095C99.3105 34.4595 98.8605 34.9095 98.3105 34.9095Z" fill="#2F3F64"/>
<path d="M109.941 30.0899C109.681 30.0899 109.431 29.9899 109.231 29.7999L105.241 25.8099C104.851 25.4199 104.851 24.7899 105.241 24.3999C105.631 24.0099 106.261 24.0099 106.651 24.3999L110.641 28.3899C111.031 28.7799 111.031 29.4099 110.641 29.7999C110.441 29.9999 110.191 30.0899 109.931 30.0899H109.941Z" fill="#2F3F64"/>
<path d="M114.76 18.4502H109.12C108.57 18.4502 108.12 18.0002 108.12 17.4502C108.12 16.9002 108.57 16.4502 109.12 16.4502H114.76C115.31 16.4502 115.76 16.9002 115.76 17.4502C115.76 18.0002 115.31 18.4502 114.76 18.4502Z" fill="#2F3F64"/>
<path d="M105.951 10.8096C105.691 10.8096 105.441 10.7096 105.241 10.5196C104.851 10.1296 104.851 9.49965 105.241 9.10965L109.231 5.11965C109.621 4.72965 110.251 4.72965 110.641 5.11965C111.031 5.50965 111.031 6.13965 110.641 6.52965L106.651 10.5196C106.451 10.7196 106.201 10.8096 105.941 10.8096H105.951Z" fill="#2F3F64"/>
<path d="M60.1504 91.9296C59.6004 91.9296 59.1504 91.4796 59.1504 90.9296V62.3896C59.1504 61.8396 59.6004 61.3896 60.1504 61.3896C60.7004 61.3896 61.1504 61.8396 61.1504 62.3896V90.9296C61.1504 91.4796 60.7004 91.9296 60.1504 91.9296Z" fill="#2F3F64"/>
<path fill-rule="evenodd" clip-rule="evenodd" d="M98.7701 104.38C100.2 104.38 101.36 103.22 101.36 101.79V93.4405C101.36 92.0105 100.2 90.8505 98.7701 90.8505H35.0801C34.3901 90.8505 33.7401 90.5805 33.2501 90.0905L11.9601 68.8005C10.9501 67.7905 9.31004 67.7905 8.30004 68.8005L2.40008 74.7005C1.39008 75.7105 1.39008 77.3505 2.40008 78.3605L27.49 103.45C27.96 103.92 28.5901 104.18 29.2601 104.18L98.7701 104.36V104.38Z" fill="#2F3F64"/>
<path d="M98.7704 105.38L29.2604 105.2C28.3304 105.2 27.4503 104.83 26.7903 104.17L1.70038 79.0801C1.02038 78.4001 0.650391 77.5001 0.650391 76.5401C0.650391 75.5801 1.02038 74.6801 1.70038 74.0001L7.60034 68.1001C8.96034 66.7401 11.3203 66.7401 12.6703 68.1001L33.9604 89.3901C34.2604 89.6901 34.6604 89.8501 35.0804 89.8501H98.7704C100.75 89.8501 102.36 91.4601 102.36 93.4401V101.79C102.36 103.77 100.75 105.38 98.7704 105.38ZM10.1404 69.0501C9.72038 69.0501 9.32039 69.2201 9.02039 69.5101L3.12036 75.4101C2.50036 76.0301 2.50036 77.0401 3.12036 77.6601L28.2104 102.75C28.4904 103.03 28.8704 103.19 29.2704 103.19L98.7804 103.37C99.6604 103.37 100.37 102.66 100.37 101.78V93.4301C100.37 92.5501 99.6604 91.8401 98.7804 91.8401H35.0904C34.1304 91.8401 33.2304 91.4701 32.5504 90.7901L11.2604 69.5001C10.9604 69.2001 10.5604 69.0401 10.1404 69.0401V69.0501Z" fill="#2F3F64"/>
<path fill-rule="evenodd" clip-rule="evenodd" d="M58.4708 29.3006L58.3408 29.1406C40.7908 30.0806 26.8408 44.6106 26.8408 62.4006H46.1808C46.1808 39.7606 58.4608 29.3006 58.4608 29.3006H58.4708Z" fill="#2F3F64"/>
<path d="M46.1906 63.4002H26.8506C26.3006 63.4002 25.8506 62.9502 25.8506 62.4002C25.8506 44.1702 40.1006 29.1202 58.2906 28.1402C58.6306 28.1302 58.9206 28.2602 59.1206 28.5102L59.2506 28.6702C59.5906 29.0902 59.5306 29.7002 59.1206 30.0602C59.0006 30.1602 47.1906 40.5302 47.1906 62.4002C47.1906 62.9502 46.7406 63.4002 46.1906 63.4002ZM27.8606 61.4002H45.2006C45.4706 44.2402 52.5906 34.2102 56.0206 30.3602C40.3706 32.3502 28.3506 45.4802 27.8606 61.4002Z" fill="#2F3F64"/>
<path fill-rule="evenodd" clip-rule="evenodd" d="M73.4412 62.4008C73.4412 39.7608 61.1611 29.3008 61.1611 29.3008L73.4412 62.4008Z" fill="#BCC5DC"/>
<path d="M73.4407 63.4004C72.8907 63.4004 72.4407 62.9504 72.4407 62.4004C72.4407 50.9704 69.2007 42.7904 66.4807 37.9404C63.5307 32.6804 60.5407 30.0904 60.5107 30.0604C60.0907 29.7004 60.0407 29.0704 60.4007 28.6504C60.7607 28.2304 61.3907 28.1804 61.8107 28.5404C62.3307 28.9804 74.4407 39.5604 74.4407 62.4004C74.4407 62.9504 73.9907 63.4004 73.4407 63.4004Z" fill="#2F3F64"/>
<path d="M19.9907 113.35C19.7307 113.35 19.4808 113.25 19.2808 113.06C18.8908 112.67 18.8908 112.04 19.2808 111.65L27.4207 103.51C27.8107 103.12 28.4408 103.12 28.8308 103.51C29.2208 103.9 29.2208 104.53 28.8308 104.92L20.6908 113.06C20.4908 113.26 20.2407 113.35 19.9807 113.35H19.9907Z" fill="#2F3F64"/>
<path d="M108.04 113.35C107.78 113.35 107.53 113.25 107.33 113.06L99.19 104.92C98.8 104.53 98.8 103.9 99.19 103.51C99.58 103.12 100.21 103.12 100.6 103.51L108.74 111.65C109.13 112.04 109.13 112.67 108.74 113.06C108.54 113.26 108.29 113.35 108.03 113.35H108.04Z" fill="#2F3F64"/>
<path d="M114.76 113.35H5.83008C5.28008 113.35 4.83008 112.9 4.83008 112.35C4.83008 111.8 5.28008 111.35 5.83008 111.35H114.76C115.31 111.35 115.76 111.8 115.76 112.35C115.76 112.9 115.31 113.35 114.76 113.35Z" fill="#2F3F64"/>
</svg>
