<svg width="97" height="97" viewBox="0 0 97 97" fill="none" xmlns="http://www.w3.org/2000/svg">
<g clip-path="url(#clip0_227_19)">
<mask id="mask0_227_19" style="mask-type:luminance" maskUnits="userSpaceOnUse" x="0" y="0" width="97" height="97">
<path d="M97 0H0V97H97V0Z" fill="white"/>
</mask>
<g mask="url(#mask0_227_19)">
<path d="M48.4976 19.458H78.5762C80.6531 19.458 82.4871 20.8777 83.0073 22.8971L94.255 66.472C94.2859 66.5956 94.3168 66.7145 94.3168 66.8381H81.9227C80.1196 66.8381 78.3912 67.6493 77.2315 69.0382L73.2588 73.8088C72.0995 75.1977 70.3711 76.0089 68.5676 76.0089H28.4317C26.6284 76.0089 24.9 75.1977 23.7405 73.8088L19.7679 69.0382C18.6083 67.6493 16.8799 66.8381 15.0766 66.8381H2.67383C2.67383 66.7145 2.70469 66.5956 2.73555 66.472L13.9832 22.8971C14.5034 20.8777 16.3376 19.458 18.4143 19.458H48.4933H48.4976Z" fill="#BCC5DC"/>
<path d="M94.3546 89.77C94.3546 92.3053 92.3043 94.3552 89.769 94.3552H7.23096C4.69574 94.3552 2.64551 92.3053 2.64551 89.77V67.2261C2.64551 67.0896 2.64551 66.966 2.67637 66.8428H15.0703C16.8737 66.8428 18.602 67.654 19.7616 69.0429L23.7342 73.8135C24.8938 75.2024 26.6222 76.0136 28.4255 76.0136H68.5616C70.3647 76.0136 72.0931 75.2024 73.2528 73.8135L77.2251 69.0429C78.3848 67.654 80.1132 66.8428 81.9167 66.8428H94.3104C94.3413 66.966 94.3413 67.0853 94.3413 67.2261V89.77H94.3546Z" fill="#FEC95C"/>
<path d="M48.4996 64.9039C47.8558 64.9039 47.2121 64.6703 46.7051 64.2029L26.8334 45.861C25.762 44.869 25.6914 43.1981 26.6835 42.1221C27.6755 41.0462 29.3466 40.9801 30.4224 41.9723L48.4996 58.6563L66.5768 41.9723C67.6528 40.9801 69.3237 41.0462 70.3157 42.1221C71.3079 43.1981 71.2418 44.869 70.1658 45.861L50.2941 64.2029C49.7872 64.6703 49.1434 64.9039 48.4996 64.9039Z" fill="#2F3F64"/>
<path d="M89.7692 97.0006H7.23092C3.24509 97.0006 0 93.7555 0 89.7698V67.226C0 67.0628 0 66.8117 0.0485 66.5117C0.0749544 66.2164 0.136682 65.9782 0.171954 65.8327L11.4239 22.2357C12.2484 19.0435 15.1232 16.8125 18.4168 16.8125H30.1538C31.6132 16.8125 32.7992 17.9985 32.7992 19.4579C32.7992 20.9174 31.6132 22.1034 30.1538 22.1034H18.4168C17.5482 22.1034 16.7634 22.7163 16.5473 23.5584L5.30856 67.0938C5.30414 67.1423 5.29972 67.1907 5.29092 67.2436V89.7698C5.29092 90.8411 6.1595 91.7098 7.23092 91.7098H89.7692C90.8405 91.7098 91.7092 90.8411 91.7092 89.7698V67.2436C91.7002 67.1951 91.6959 67.1466 91.6916 67.0938L80.4525 23.5584C80.2366 22.7163 79.4473 22.1034 78.5833 22.1034H66.8463C65.387 22.1034 64.2007 20.9174 64.2007 19.4579C64.2007 17.9985 65.387 16.8125 66.8463 16.8125H78.5833C81.877 16.8125 84.7561 19.0435 85.5759 22.2357L96.8236 65.8108C96.8635 65.9693 96.9249 66.2118 96.9515 66.5074C97 66.8071 97 67.0542 97 67.2216V89.7652C97 93.7511 93.7548 96.9963 89.7692 96.9963V97.0006Z" fill="#2F3F64"/>
<path d="M68.574 78.6592H28.4381C25.8367 78.6592 23.3853 77.5128 21.7142 75.5067L17.7372 70.7361C17.0846 69.9558 16.0882 69.4884 15.0785 69.4884H2.68017C1.22076 69.4884 0.0214844 68.3022 0.0214844 66.8428C0.0214844 65.3835 1.18989 64.1973 2.65371 64.1973H15.0785C17.6799 64.1973 20.1269 65.3437 21.8024 67.3498L25.7794 72.1204C26.4319 72.901 27.4284 73.3684 28.4381 73.3684H68.574C69.5882 73.3684 70.5801 72.901 71.2372 72.1161L75.2096 67.3498C76.8851 65.3437 79.3321 64.1973 81.9335 64.1973H94.3275C95.7869 64.1973 96.9861 65.3835 96.9861 66.8428C96.9861 68.3022 95.8177 69.4884 94.3541 69.4884H81.9291C80.915 69.4884 79.923 69.9558 79.266 70.7404L75.2936 75.5067C73.618 77.5128 71.1711 78.6592 68.5697 78.6592H68.574Z" fill="#2F3F64"/>
<path d="M48.4997 64.902C47.0404 64.902 45.8545 63.7157 45.8545 62.2564V2.64546C45.8545 1.18604 47.0404 0 48.4997 0C49.9594 0 51.1453 1.18604 51.1453 2.64546V62.2564C51.1453 63.7157 49.9594 64.902 48.4997 64.902Z" fill="#2F3F64"/>
</g>
</g>
<defs>
<clipPath id="clip0_227_19">
<rect width="97" height="97" fill="white"/>
</clipPath>
</defs>
</svg>
