<svg width="127" height="126" viewBox="0 0 127 126" fill="none" xmlns="http://www.w3.org/2000/svg">
<g id="Capa_1" clip-path="url(#clip0_516_93)">
<g id="Group">
<g id="Group_2">
<g id="Group_3">
<path id="Vector" fill-rule="evenodd" clip-rule="evenodd" d="M22.6602 39.3304L44.3102 50.5904V22.0104L22.6602 11.9004V39.3304Z" fill="#BCC5DC"/>
<path id="Vector_2" d="M44.3104 51.5903C44.1504 51.5903 43.9904 51.5503 43.8504 51.4803L22.1904 40.2203C21.8604 40.0503 21.6504 39.7103 21.6504 39.3303V11.9003C21.6504 11.5603 21.8204 11.2403 22.1104 11.0603C22.4004 10.8803 22.7604 10.8503 23.0704 11.0003L44.7304 21.1103C45.0804 21.2703 45.3104 21.6303 45.3104 22.0203V50.6003C45.3104 50.9503 45.1304 51.2703 44.8304 51.4503C44.6704 51.5503 44.4904 51.6003 44.3104 51.6003V51.5903ZM23.6604 38.7203L43.3204 48.9403V22.6503L23.6604 13.4803V38.7203Z" fill="#2F3F64"/>
</g>
<g id="Group_4">
<path id="Vector_3" fill-rule="evenodd" clip-rule="evenodd" d="M65.9705 22.8704V39.3304L44.3105 50.5904V22.0104L65.9705 11.9004V22.8704Z" fill="white"/>
<path id="Vector_4" d="M44.3105 51.5903C44.1305 51.5903 43.9505 51.5403 43.7905 51.4403C43.4905 51.2603 43.3105 50.9403 43.3105 50.5903V22.0103C43.3105 21.6203 43.5305 21.2703 43.8905 21.1003L65.5505 10.9903C65.8605 10.8503 66.2205 10.8703 66.5105 11.0503C66.8005 11.2303 66.9705 11.5503 66.9705 11.8903V39.3103C66.9705 39.6803 66.7605 40.0203 66.4305 40.2003L44.7705 51.4603C44.6305 51.5403 44.4705 51.5703 44.3105 51.5703V51.5903ZM45.3105 22.6503V48.9403L64.9705 38.7203V13.4703L45.3105 22.6403V22.6503Z" fill="#2F3F64"/>
</g>
<g id="Group_5">
<path id="Vector_5" fill-rule="evenodd" clip-rule="evenodd" d="M65.9702 11.9004L45.5702 1.31043C44.7802 0.90043 43.8502 0.90043 43.0602 1.31043L22.6602 11.9104L44.3202 22.0204L65.9802 11.9104L65.9702 11.9004Z" fill="#2F3F64"/>
<path id="Vector_6" d="M44.3104 23.01C44.1704 23.01 44.0204 22.98 43.8904 22.92L22.2304 12.81C21.8904 12.65 21.6604 12.31 21.6504 11.93C21.6504 11.55 21.8504 11.2 22.1904 11.02L42.6004 0.42C43.6704 -0.14 44.9604 -0.14 46.0304 0.42L66.4304 11.02C66.7704 11.2 66.9804 11.55 66.9704 11.93C66.9704 12.31 66.7404 12.65 66.3904 12.81L44.7304 22.92C44.6004 22.98 44.4504 23.01 44.3104 23.01ZM24.9204 11.86L44.3104 20.91L63.7004 11.86L45.1104 2.19C44.6104 1.93 44.0204 1.93 43.5204 2.19L24.9204 11.85V11.86Z" fill="#2F3F64"/>
</g>
</g>
<g id="Group_6">
<g id="Group_7">
<path id="Vector_7" fill-rule="evenodd" clip-rule="evenodd" d="M44.3096 78.0108L65.9696 88.1208V60.6908L44.3096 50.5908V78.0108Z" fill="#BCC5DC"/>
<path id="Vector_8" d="M65.9696 89.1208C65.8296 89.1208 65.6796 89.0908 65.5496 89.0308L43.8896 78.9208C43.5396 78.7608 43.3096 78.4008 43.3096 78.0108V50.5908C43.3096 50.2508 43.4796 49.9308 43.7696 49.7508C44.0596 49.5708 44.4196 49.5408 44.7296 49.6908L66.3896 59.8008C66.7396 59.9608 66.9696 60.3208 66.9696 60.7108V88.1308C66.9696 88.4708 66.7996 88.7908 66.5096 88.9708C66.3496 89.0708 66.1596 89.1308 65.9696 89.1308V89.1208ZM45.3096 77.3708L64.9696 86.5408V61.3208L45.3096 52.1508V77.3708Z" fill="#2F3F64"/>
</g>
<g id="Group_8">
<path id="Vector_9" fill-rule="evenodd" clip-rule="evenodd" d="M87.6297 76.2808C87.6297 77.3408 87.0197 78.3008 86.0597 78.7508L65.9697 88.1208V60.7008L87.6297 50.5908V61.5608V76.2808Z" fill="white"/>
<path id="Vector_10" d="M65.9697 89.1207C65.7797 89.1207 65.5997 89.0707 65.4297 88.9607C65.1397 88.7807 64.9697 88.4607 64.9697 88.1207V60.7007C64.9697 60.3107 65.1897 59.9607 65.5497 59.7907L87.2097 49.6807C87.5197 49.5407 87.8797 49.5607 88.1697 49.7407C88.4597 49.9207 88.6297 50.2407 88.6297 50.5807V76.2707C88.6297 77.7107 87.7897 79.0307 86.4797 79.6407L66.3897 89.0107C66.2597 89.0707 66.1097 89.1007 65.9697 89.1007V89.1207ZM66.9697 61.3307V86.5507L85.6297 77.8407C86.2297 77.5607 86.6197 76.9507 86.6197 76.2807V52.1607L66.9597 61.3307H66.9697Z" fill="#2F3F64"/>
</g>
<g id="Group_9">
<path id="Vector_11" fill-rule="evenodd" clip-rule="evenodd" d="M87.6296 50.5908L65.9696 39.3408L44.3096 50.5908L65.9696 60.6908L87.6296 50.5908Z" fill="#2F3F64"/>
<path id="Vector_12" d="M65.9696 61.6904C65.8296 61.6904 65.6796 61.6604 65.5496 61.6004L43.8896 51.4904C43.5496 51.3304 43.3196 50.9904 43.3096 50.6104C43.3096 50.2304 43.5096 49.8804 43.8496 49.7004L65.5096 38.4504C65.7996 38.3004 66.1396 38.3004 66.4296 38.4504L88.0896 49.7004C88.4296 49.8804 88.6396 50.2304 88.6296 50.6104C88.6296 50.9904 88.3996 51.3304 88.0496 51.4904L66.3896 61.6004C66.2596 61.6604 66.1096 61.6904 65.9696 61.6904ZM46.5796 50.5404L65.9696 59.5904L85.3596 50.5404L65.9696 40.4604L46.5796 50.5404Z" fill="#2F3F64"/>
</g>
</g>
<g id="Group_10">
<g id="Group_11">
<path id="Vector_13" fill-rule="evenodd" clip-rule="evenodd" d="M44.3102 78.0108L22.6602 88.1208V60.6908L44.3102 50.5908V78.0108Z" fill="#BCC5DC"/>
<path id="Vector_14" d="M22.6602 89.1207C22.4702 89.1207 22.2902 89.0707 22.1202 88.9607C21.8302 88.7807 21.6602 88.4607 21.6602 88.1207V60.7007C21.6602 60.3107 21.8802 59.9607 22.2402 59.7907L43.9002 49.6807C44.2102 49.5407 44.5702 49.5607 44.8602 49.7407C45.1502 49.9207 45.3202 50.2407 45.3202 50.5807V78.0007C45.3202 78.3907 45.1002 78.7407 44.7402 78.9107L23.0802 89.0207C22.9502 89.0807 22.8002 89.1107 22.6602 89.1107V89.1207ZM23.6602 61.3307V86.5507L43.3202 77.3807V52.1607L23.6602 61.3307Z" fill="#2F3F64"/>
</g>
<g id="Group_12">
<path id="Vector_15" fill-rule="evenodd" clip-rule="evenodd" d="M1 76.2808C1 77.3408 1.61 78.3008 2.57 78.7508L22.66 88.1208V60.7008L1 50.5908V61.5608V76.2808Z" fill="white"/>
<path id="Vector_16" d="M22.66 89.1208C22.52 89.1208 22.37 89.0908 22.24 89.0308L2.15 79.6608C0.84 79.0408 0 77.7208 0 76.2808V50.5908C0 50.2508 0.17 49.9308 0.46 49.7508C0.75 49.5708 1.11 49.5408 1.42 49.6908L23.08 59.8008C23.43 59.9608 23.66 60.3208 23.66 60.7108V88.1308C23.66 88.4708 23.49 88.7908 23.2 88.9708C23.04 89.0708 22.85 89.1308 22.66 89.1308V89.1208ZM2 52.1608V76.2808C2 76.9508 2.39 77.5608 2.99 77.8408L21.65 86.5508V61.3308L2 52.1608Z" fill="#2F3F64"/>
</g>
<g id="Group_13">
<path id="Vector_17" fill-rule="evenodd" clip-rule="evenodd" d="M1 50.5908L22.66 39.3408L44.31 50.5908L22.66 60.6908L1 50.5908Z" fill="#2F3F64"/>
<path id="Vector_18" d="M22.66 61.6904C22.52 61.6904 22.37 61.6604 22.24 61.6004L0.58 51.4904C0.24 51.3304 0.01 50.9904 0 50.6104C0 50.2304 0.2 49.8804 0.54 49.7004L22.2 38.4504C22.49 38.3004 22.83 38.3004 23.12 38.4504L44.78 49.7004C45.12 49.8804 45.33 50.2304 45.32 50.6104C45.32 50.9904 45.09 51.3304 44.74 51.4904L23.08 61.6004C22.95 61.6604 22.8 61.6904 22.66 61.6904ZM3.26 50.5404L22.66 59.5904L42.05 50.5404L22.66 40.4604L3.26 50.5404Z" fill="#2F3F64"/>
</g>
</g>
</g>
<g id="Group_14">
<path id="Vector_19" d="M123.35 52.9199H68.1599C66.4699 52.9199 65.0898 54.2999 65.0898 55.9999V122.12C65.0898 123.82 66.4599 125.2 68.1599 125.2H122.57C124.56 125.2 126.18 123.49 126.18 121.39C126.23 105.6 126.41 56.0099 126.41 56.0099C126.41 54.3099 125.04 52.9299 123.34 52.9299L123.35 52.9199ZM122.91 121.38C122.91 121.71 122.71 121.93 122.57 121.93H70.0998C69.1398 121.93 68.3598 121.15 68.3598 120.19V57.9399C68.3598 56.9799 69.1398 56.1999 70.0998 56.1999H121.4C122.36 56.1999 123.14 56.9799 123.14 57.9399C123.1 66.8399 122.96 107.53 122.91 121.38Z" fill="#2F3F64"/>
<g id="Group_15">
<path id="Vector_20" d="M68.3594 120.19V57.9402C68.3594 56.9802 69.1394 56.2002 70.0994 56.2002H121.399C122.359 56.2002 123.139 56.9802 123.139 57.9402C123.099 66.8402 122.959 107.53 122.909 121.38C122.909 121.71 122.709 121.93 122.569 121.93H70.0994C69.1394 121.93 68.3594 121.15 68.3594 120.19Z" fill="white"/>
<path id="Vector_21" d="M122.569 122.93H70.0994C68.5894 122.93 67.3594 121.7 67.3594 120.19V57.9402C67.3594 56.4302 68.5894 55.2002 70.0994 55.2002H121.399C122.129 55.2002 122.819 55.4902 123.339 56.0102C123.859 56.5302 124.139 57.2202 124.129 57.9502C124.089 66.8502 123.949 107.54 123.899 121.39C123.899 122.24 123.299 122.94 122.559 122.94L122.569 122.93ZM70.0994 57.2002C69.6894 57.2002 69.3594 57.5302 69.3594 57.9402V120.19C69.3594 120.6 69.6894 120.93 70.0994 120.93H121.909C121.949 106.67 122.099 66.7402 122.129 57.9402C122.129 57.7402 122.059 57.5602 121.919 57.4202C121.779 57.2802 121.589 57.2002 121.399 57.2002H70.0994Z" fill="#2F3F64"/>
</g>
<path id="Vector_22" d="M117.859 74.5498H84.2395C83.4055 74.5498 82.7295 75.2258 82.7295 76.0598V79.0898C82.7295 79.9237 83.4055 80.5998 84.2395 80.5998H117.859C118.693 80.5998 119.369 79.9237 119.369 79.0898V76.0598C119.369 75.2258 118.693 74.5498 117.859 74.5498Z" fill="#FEC95C"/>
<path id="Vector_23" fill-rule="evenodd" clip-rule="evenodd" d="M80.1695 75.6094V79.5294C80.1695 80.6094 79.4095 81.4894 78.4695 81.4894H74.1795C73.2395 81.4894 72.4795 80.6094 72.4795 79.5294V75.6094C72.4795 74.5294 73.2395 73.6494 74.1795 73.6494H78.4695C79.4095 73.6494 80.1695 74.5294 80.1695 75.6094Z" fill="#FEC95C"/>
<path id="Vector_24" d="M78.2397 94.0193H74.4097C73.1797 94.0193 72.1797 93.0193 72.1797 91.7893V88.7593C72.1797 87.5293 73.1797 86.5293 74.4097 86.5293H78.2397C79.4697 86.5293 80.4697 87.5293 80.4697 88.7593V91.7893C80.4697 93.0193 79.4697 94.0193 78.2397 94.0193ZM74.4097 87.9593C73.9697 87.9593 73.6097 88.3193 73.6097 88.7593V91.7893C73.6097 92.2293 73.9697 92.5893 74.4097 92.5893H78.2397C78.6797 92.5893 79.0397 92.2293 79.0397 91.7893V88.7593C79.0397 88.3193 78.6797 87.9593 78.2397 87.9593H74.4097Z" fill="#BCC5DC"/>
<path id="Vector_25" d="M78.2397 106.63H74.4097C73.1797 106.63 72.1797 105.63 72.1797 104.4V101.37C72.1797 100.14 73.1797 99.1396 74.4097 99.1396H78.2397C79.4697 99.1396 80.4697 100.14 80.4697 101.37V104.4C80.4697 105.63 79.4697 106.63 78.2397 106.63ZM74.4097 100.58C73.9697 100.58 73.6097 100.94 73.6097 101.38V104.41C73.6097 104.85 73.9697 105.2 74.4097 105.2H78.2397C78.6797 105.2 79.0397 104.84 79.0397 104.41V101.38C79.0397 100.94 78.6797 100.58 78.2397 100.58H74.4097Z" fill="#BCC5DC"/>
<path id="Vector_26" d="M117.859 87.2197H84.2395C83.4055 87.2197 82.7295 87.8958 82.7295 88.7297V91.7597C82.7295 92.5937 83.4055 93.2697 84.2395 93.2697H117.859C118.693 93.2697 119.369 92.5937 119.369 91.7597V88.7297C119.369 87.8958 118.693 87.2197 117.859 87.2197Z" fill="#BCC5DC"/>
<path id="Vector_27" d="M117.859 99.8994H84.2395C83.4055 99.8994 82.7295 100.575 82.7295 101.409V104.439C82.7295 105.273 83.4055 105.949 84.2395 105.949H117.859C118.693 105.949 119.369 105.273 119.369 104.439V101.409C119.369 100.575 118.693 99.8994 117.859 99.8994Z" fill="#BCC5DC"/>
<path id="Vector_28" d="M79.3102 94.2093C79.0502 94.2093 78.8002 94.1093 78.6002 93.9193L72.6402 87.9593C72.2502 87.5693 72.2502 86.9393 72.6402 86.5493C73.0302 86.1593 73.6602 86.1593 74.0502 86.5493L80.0102 92.5093C80.4002 92.8993 80.4002 93.5293 80.0102 93.9193C79.8102 94.1193 79.5602 94.2093 79.3002 94.2093H79.3102Z" fill="#2F3F64"/>
<path id="Vector_29" d="M73.3502 94.2093C73.0902 94.2093 72.8402 94.1093 72.6402 93.9193C72.2502 93.5293 72.2502 92.8993 72.6402 92.5093L78.6002 86.5493C78.9902 86.1593 79.6202 86.1593 80.0102 86.5493C80.4002 86.9393 80.4002 87.5693 80.0102 87.9593L74.0502 93.9193C73.8502 94.1193 73.6002 94.2093 73.3402 94.2093H73.3502Z" fill="#2F3F64"/>
<path id="Vector_30" d="M75.9299 79.6095C75.6399 79.6095 75.3699 79.4895 75.1799 79.2795L73.5199 77.4195C73.1499 77.0095 73.1899 76.3795 73.5999 76.0095C74.0099 75.6395 74.6399 75.6795 75.0099 76.0895L75.9299 77.1095L79.4199 73.1995C79.7899 72.7895 80.4199 72.7495 80.8299 73.1195C81.2399 73.4895 81.2799 74.1195 80.9099 74.5295L76.6699 79.2695C76.4799 79.4795 76.2099 79.5995 75.9199 79.5995L75.9299 79.6095Z" fill="#2F3F64"/>
<g id="Group_16">
<path id="Vector_31" d="M105.1 48.7295H86.41C84.5488 48.7295 83.04 50.2383 83.04 52.0995V56.4595C83.04 58.3207 84.5488 59.8295 86.41 59.8295H105.1C106.961 59.8295 108.47 58.3207 108.47 56.4595V52.0995C108.47 50.2383 106.961 48.7295 105.1 48.7295Z" fill="#FEC95C"/>
<path id="Vector_32" d="M105.1 60.8297H86.41C84 60.8297 82.04 58.8697 82.04 56.4597V52.0897C82.04 49.6797 84 47.7197 86.41 47.7197H105.1C107.51 47.7197 109.47 49.6797 109.47 52.0897V56.4597C109.47 58.8697 107.51 60.8297 105.1 60.8297ZM86.4 49.7297C85.09 49.7297 84.03 50.7897 84.03 52.0997V56.4697C84.03 57.7797 85.09 58.8397 86.4 58.8397H105.09C106.4 58.8397 107.46 57.7797 107.46 56.4697V52.0997C107.46 50.7897 106.4 49.7297 105.09 49.7297H86.4Z" fill="#2F3F64"/>
</g>
</g>
</g>
<defs>
<clipPath id="clip0_516_93">
<rect width="126.41" height="125.2" fill="white"/>
</clipPath>
</defs>
</svg>
