<svg width="127" height="126" viewBox="0 0 127 126" fill="none" xmlns="http://www.w3.org/2000/svg">
<path fill-rule="evenodd" clip-rule="evenodd" d="M63.66 7.03609L54.25 1.32609C53.53 0.886094 52.62 0.886094 51.9 1.32609L7.88004 28.0561C7.20004 28.4661 6.79004 29.2061 6.79004 29.9961V86.7661H99.37V29.9961C99.37 29.1961 98.96 28.4661 98.28 28.0561L91.64 24.0261" fill="#BCC5DC"/>
<path d="M99.3603 87.7663H6.78027C6.23027 87.7663 5.78027 87.3163 5.78027 86.7663V29.9963C5.78027 28.8563 6.38027 27.7863 7.36027 27.1963L51.3803 0.476257C52.4203 -0.153743 53.7203 -0.163743 54.7703 0.476257L64.1803 6.18626C64.6503 6.47626 64.8003 7.08626 64.5203 7.55626C64.2303 8.02626 63.6203 8.17626 63.1503 7.89626L53.7403 2.18626C53.3303 1.93626 52.8303 1.93626 52.4203 2.18626L8.39027 28.9063C8.01027 29.1363 7.78027 29.5563 7.78027 29.9963V85.7663H98.3603V29.9963C98.3603 29.5563 98.1303 29.1363 97.7503 28.9063L91.1103 24.8763C90.6403 24.5863 90.4903 23.9763 90.7703 23.5063C91.0603 23.0363 91.6703 22.8863 92.1403 23.1663L98.7803 27.1963C99.7503 27.7863 100.35 28.8563 100.35 29.9963V86.7663C100.35 87.3163 99.9003 87.7663 99.3503 87.7663H99.3603Z" fill="#2F3F64"/>
<path d="M87.8005 34.2969H18.4805V86.7669H87.8005V34.2969Z" fill="white"/>
<path d="M87.8005 87.7669H18.4805C17.9305 87.7669 17.4805 87.3169 17.4805 86.7669V34.2969C17.4805 33.7469 17.9305 33.2969 18.4805 33.2969H87.8005C88.3505 33.2969 88.8005 33.7469 88.8005 34.2969V86.7669C88.8005 87.3169 88.3505 87.7669 87.8005 87.7669ZM19.4805 85.7669H86.8005V35.2969H19.4805V85.7669Z" fill="#2F3F64"/>
<path d="M89.1402 33.0957H17.1502C15.775 33.0957 14.6602 34.2105 14.6602 35.5857V40.6657C14.6602 42.0409 15.775 43.1557 17.1502 43.1557H89.1402C90.5153 43.1557 91.6302 42.0409 91.6302 40.6657V35.5857C91.6302 34.2105 90.5153 33.0957 89.1402 33.0957Z" fill="#2F3F64"/>
<path d="M77.56 61.1953H49.75V86.7653H77.56V61.1953Z" fill="#BCC5DC"/>
<path d="M77.56 87.7653H49.75C49.2 87.7653 48.75 87.3153 48.75 86.7653V61.1953C48.75 60.6453 49.2 60.1953 49.75 60.1953H77.56C78.11 60.1953 78.56 60.6453 78.56 61.1953V86.7653C78.56 87.3153 78.11 87.7653 77.56 87.7653ZM50.75 85.7653H76.56V62.1953H50.75V85.7653Z" fill="#2F3F64"/>
<path d="M49.7605 67.4258H28.7305V86.7658H49.7605V67.4258Z" fill="#2F3F64"/>
<path d="M49.7507 87.7658H28.7207C28.1707 87.7658 27.7207 87.3158 27.7207 86.7658V67.4258C27.7207 66.8758 28.1707 66.4258 28.7207 66.4258H49.7507C50.3007 66.4258 50.7507 66.8758 50.7507 67.4258V86.7658C50.7507 87.3158 50.3007 87.7658 49.7507 87.7658ZM29.7307 85.7658H48.7607V68.4258H29.7307V85.7658Z" fill="#2F3F64"/>
<path fill-rule="evenodd" clip-rule="evenodd" d="M67.2803 73.0553L63.6603 70.1953L60.0303 73.0553V61.1953H67.2803V73.0553Z" fill="#FEC95C"/>
<path d="M67.2805 74.0553C67.0605 74.0553 66.8405 73.9853 66.6605 73.8453L63.6505 71.4753L60.6405 73.8453C60.3405 74.0853 59.9305 74.1253 59.5805 73.9553C59.2405 73.7853 59.0205 73.4353 59.0205 73.0553V61.1953C59.0205 60.6453 59.4705 60.1953 60.0205 60.1953H67.2705C67.8205 60.1953 68.2705 60.6453 68.2705 61.1953V73.0553C68.2705 73.4353 68.0505 73.7853 67.7105 73.9553C67.5705 74.0253 67.4205 74.0553 67.2705 74.0553H67.2805ZM63.6605 69.1953C63.8805 69.1953 64.1005 69.2653 64.2805 69.4053L66.2905 70.9853V62.1853H61.0405V70.9853L63.0505 69.4053C63.2305 69.2653 63.4505 69.1953 63.6705 69.1953H63.6605Z" fill="#2F3F64"/>
<path fill-rule="evenodd" clip-rule="evenodd" d="M42.8703 79.9066L39.2404 77.0566L35.6104 79.9066V68.0566H42.8703V79.9066Z" fill="#FEC95C"/>
<path d="M42.8703 80.9069C42.6503 80.9069 42.4304 80.8369 42.2504 80.6969L39.2404 78.3269L36.2304 80.6969C35.9304 80.9369 35.5203 80.9769 35.1703 80.8069C34.8303 80.6369 34.6104 80.2869 34.6104 79.9069V68.0469C34.6104 67.4969 35.0604 67.0469 35.6104 67.0469H42.8604C43.4104 67.0469 43.8604 67.4969 43.8604 68.0469V79.9069C43.8604 80.2869 43.6404 80.6369 43.3004 80.8069C43.1603 80.8769 43.0104 80.9069 42.8604 80.9069H42.8703ZM39.2404 76.0569C39.4604 76.0569 39.6804 76.1269 39.8604 76.2669L41.8703 77.8469V69.0469H36.6203V77.8469L38.6304 76.2669C38.8104 76.1269 39.0304 76.0569 39.2504 76.0569H39.2404Z" fill="#2F3F64"/>
<path d="M105.14 87.7656H1C0.45 87.7656 0 87.3156 0 86.7656C0 86.2156 0.45 85.7656 1 85.7656H105.14C105.69 85.7656 106.14 86.2156 106.14 86.7656C106.14 87.3156 105.69 87.7656 105.14 87.7656Z" fill="#2F3F64"/>
<path d="M123.69 64.4668H74.72C73.22 64.4668 72 65.6968 72 67.1968V122.737C72 124.247 73.22 125.467 74.72 125.467H123C124.77 125.467 126.2 123.957 126.21 122.087C126.25 108.077 126.42 67.1968 126.42 67.1968C126.42 65.6868 125.2 64.4668 123.7 64.4668H123.69ZM123.3 122.077C123.3 122.367 123.12 122.567 123 122.567H76.45C75.6 122.567 74.91 121.877 74.91 121.027V68.9168C74.91 68.0668 75.6 67.3768 76.45 67.3768H121.96C122.81 67.3768 123.5 68.0668 123.5 68.9168C123.47 76.8168 123.34 109.787 123.3 122.077Z" fill="#2F3F64"/>
<path d="M74.9004 121.027V68.917C74.9004 68.067 75.5904 67.377 76.4404 67.377H121.95C122.8 67.377 123.49 68.067 123.49 68.917C123.46 76.817 123.33 109.787 123.29 122.077C123.29 122.367 123.11 122.567 122.99 122.567H76.4404C75.5904 122.567 74.9004 121.877 74.9004 121.027Z" fill="white"/>
<path d="M107.5 60.7363C109.15 60.7363 110.49 62.0763 110.49 63.7263V67.6063C110.49 69.2563 109.15 70.5963 107.5 70.5963H90.9099C89.2599 70.5963 87.9199 69.2563 87.9199 67.6063V63.7263C87.9199 62.0763 89.2599 60.7363 90.9099 60.7363H99.3799" fill="#FEC95C"/>
<path d="M107.5 71.5866H90.9099C88.7099 71.5866 86.9199 69.7966 86.9199 67.5966V63.7166C86.9199 61.5166 88.7099 59.7266 90.9099 59.7266H99.3799C99.9299 59.7266 100.38 60.1766 100.38 60.7266C100.38 61.2766 99.9299 61.7266 99.3799 61.7266H90.9099C89.8099 61.7266 88.9199 62.6166 88.9199 63.7166V67.5966C88.9199 68.6966 89.8099 69.5866 90.9099 69.5866H107.5C108.6 69.5866 109.49 68.6966 109.49 67.5966V63.7166C109.49 62.6166 108.6 61.7266 107.5 61.7266C106.95 61.7266 106.5 61.2766 106.5 60.7266C106.5 60.1766 106.95 59.7266 107.5 59.7266C109.7 59.7266 111.49 61.5166 111.49 63.7166V67.5966C111.49 69.7966 109.7 71.5866 107.5 71.5866Z" fill="#2F3F64"/>
<path d="M89.3105 78.917V76.877H92.7306V84.987H90.4605V78.917H89.3205H89.3105Z" fill="#2F3F64"/>
<path d="M94.71 78.917V76.877H98.13V84.987H95.86V78.917H94.72H94.71Z" fill="#2F3F64"/>
<path d="M100.11 78.917V76.877H103.53V84.987H101.26V78.917H100.12H100.11Z" fill="#2F3F64"/>
<path d="M105.51 78.917V76.877H108.93V84.987H106.66V78.917H105.52H105.51Z" fill="#2F3F64"/>
<path d="M88.2998 88.8271V86.7871H91.7198V94.8971H89.4498V88.8271H88.3098H88.2998Z" fill="#2F3F64"/>
<path d="M93.7002 88.8271V86.7871H97.1202V94.8971H94.8502V88.8271H93.7102H93.7002Z" fill="#2F3F64"/>
<path d="M99.1006 88.8271V86.7871H102.521V94.8971H100.251V88.8271H99.1106H99.1006Z" fill="#2F3F64"/>
<path d="M106.43 91.707C106.89 91.297 107.27 90.877 107.58 90.447C107.89 90.017 108.05 89.607 108.05 89.207C108.05 88.967 108 88.787 107.89 88.657C107.78 88.527 107.63 88.457 107.42 88.457C107.21 88.457 107.04 88.547 106.92 88.727C106.8 88.907 106.75 89.177 106.75 89.517H104.64C104.66 88.857 104.81 88.317 105.07 87.877C105.34 87.447 105.68 87.127 106.11 86.927C106.54 86.727 107.02 86.627 107.54 86.627C108.45 86.627 109.13 86.857 109.57 87.307C110.01 87.757 110.24 88.347 110.24 89.057C110.24 89.827 109.98 90.547 109.47 91.217C108.96 91.887 108.31 92.497 107.55 93.027H110.32V94.787H104.67V93.157C105.39 92.597 105.97 92.107 106.43 91.707Z" fill="#2F3F64"/>
<path d="M88.0801 98.7373V96.6973H91.5001V104.807H89.2301V98.7373H88.0901H88.0801Z" fill="#2F3F64"/>
<path d="M93.4805 98.7373V96.6973H96.9005V104.807H94.6305V98.7373H93.4905H93.4805Z" fill="#2F3F64"/>
<path d="M98.8799 98.7373V96.6973H102.3V104.807H100.03V98.7373H98.8899H98.8799Z" fill="#2F3F64"/>
<path d="M105.381 97.1973C105.871 96.7473 106.551 96.5273 107.421 96.5273C107.991 96.5273 108.471 96.6273 108.881 96.8173C109.281 97.0173 109.591 97.2773 109.801 97.6173C110.011 97.9573 110.111 98.3273 110.111 98.7573C110.111 99.2573 109.991 99.6573 109.741 99.9573C109.501 100.257 109.221 100.457 108.911 100.557V100.597C109.801 100.927 110.251 101.567 110.251 102.507C110.251 102.977 110.141 103.387 109.931 103.737C109.721 104.087 109.411 104.367 109.001 104.567C108.591 104.767 108.111 104.867 107.551 104.867C106.631 104.867 105.901 104.647 105.361 104.197C104.821 103.747 104.551 103.067 104.521 102.137H106.641C106.631 102.437 106.691 102.667 106.831 102.827C106.971 102.987 107.181 103.067 107.461 103.067C107.671 103.067 107.841 102.997 107.961 102.867C108.081 102.737 108.141 102.557 108.141 102.337C108.141 102.057 108.051 101.847 107.871 101.717C107.691 101.587 107.391 101.517 106.991 101.517H106.601V99.7573H106.981C107.261 99.7573 107.501 99.7173 107.691 99.6173C107.891 99.5173 107.981 99.3173 107.981 99.0173C107.981 98.7873 107.921 98.6173 107.811 98.4973C107.701 98.3873 107.551 98.3273 107.351 98.3273C107.141 98.3273 106.981 98.4073 106.881 98.5573C106.781 98.7073 106.721 98.8973 106.711 99.1173H104.591C104.621 98.2873 104.881 97.6373 105.371 97.1973H105.381Z" fill="#2F3F64"/>
<path d="M89.6001 114.716L88.4801 113.156L87.5901 114.716H85.2101L87.2801 111.486L85.1201 108.496H87.5601L88.6801 110.056L89.5801 108.496H91.9601L89.8401 111.666L92.0401 114.716H89.6001Z" fill="#2F3F64"/>
<path d="M96.7906 114.716L95.6705 113.156L94.7805 114.716H92.4006L94.4706 111.486L92.3105 108.496H94.7505L95.8706 110.056L96.7705 108.496H99.1506L97.0305 111.666L99.2306 114.716H96.7906Z" fill="#2F3F64"/>
<path d="M103.97 114.716L102.85 113.156L101.96 114.716H99.5802L101.65 111.486L99.4902 108.496H101.93L103.05 110.056L103.95 108.496H106.33L104.21 111.666L106.41 114.716H103.97Z" fill="#2F3F64"/>
<path d="M111.16 114.716L110.04 113.156L109.15 114.716H106.77L108.84 111.486L106.68 108.496H109.12L110.24 110.056L111.14 108.496H113.52L111.4 111.666L113.6 114.716H111.16Z" fill="#2F3F64"/>
</svg>
