<svg width="128" height="128" viewBox="0 0 128 128" fill="none" xmlns="http://www.w3.org/2000/svg">
<path fill-rule="evenodd" clip-rule="evenodd" d="M72.5098 1.00391V23.2939H94.4098L72.5098 1.00391Z" fill="#2F3F64"/>
<path d="M94.4098 24.2941H72.5098C71.9598 24.2941 71.5098 23.8441 71.5098 23.2941V1.00408C71.5098 0.594079 71.7598 0.234078 72.1298 0.0740782C72.5098 -0.0759219 72.9398 0.00407842 73.2198 0.294078L95.1198 22.5841C95.3998 22.8741 95.4898 23.3041 95.3298 23.6741C95.1698 24.0441 94.8098 24.2841 94.4098 24.2841V24.2941ZM73.5098 22.2941H92.0298L73.5098 3.44408V22.2941Z" fill="#2F3F64"/>
<path fill-rule="evenodd" clip-rule="evenodd" d="M1 1.00391V112.254H94.41V23.2939H72.51V1.00391H32.55" fill="white"/>
<path d="M94.41 113.254H1C0.45 113.254 0 112.804 0 112.254V1.00391C0 0.453906 0.45 0.00390625 1 0.00390625C1.55 0.00390625 2 0.453906 2 1.00391V111.254H93.41V24.2939H72.51C71.96 24.2939 71.51 23.8439 71.51 23.2939V2.00391H32.55C32 2.00391 31.55 1.55391 31.55 1.00391C31.55 0.453906 32 0.00390625 32.55 0.00390625H72.51C73.06 0.00390625 73.51 0.453906 73.51 1.00391V22.2939H94.41C94.96 22.2939 95.41 22.7439 95.41 23.2939V112.254C95.41 112.804 94.96 113.254 94.41 113.254Z" fill="#2F3F64"/>
<path d="M102.1 126.413C115.532 126.413 126.42 115.525 126.42 102.093C126.42 88.6619 115.532 77.7734 102.1 77.7734C88.6688 77.7734 77.7803 88.6619 77.7803 102.093C77.7803 115.525 88.6688 126.413 102.1 126.413Z" fill="#FEC95C"/>
<path d="M102.1 127.413C88.1403 127.413 76.7803 116.053 76.7803 102.093C76.7803 88.1334 88.1403 76.7734 102.1 76.7734C116.06 76.7734 127.42 88.1334 127.42 102.093C127.42 116.053 116.06 127.413 102.1 127.413ZM102.1 78.7834C89.2403 78.7834 78.7803 89.2434 78.7803 102.103C78.7803 114.963 89.2403 125.423 102.1 125.423C114.96 125.423 125.42 114.963 125.42 102.103C125.42 89.2434 114.96 78.7834 102.1 78.7834Z" fill="#2F3F64"/>
<path d="M102.1 105.034C101.33 105.034 100.71 104.414 100.71 103.644V87.9545C100.71 87.1845 101.33 86.5645 102.1 86.5645C102.87 86.5645 103.49 87.1845 103.49 87.9545V103.644C103.49 104.414 102.87 105.034 102.1 105.034Z" fill="#2F3F64"/>
<path d="M117.79 113.655H87.8596C87.0896 113.655 86.4697 113.035 86.4697 112.265V104.025C86.4697 103.255 87.0896 102.635 87.8596 102.635C88.6296 102.635 89.2496 103.255 89.2496 104.025V110.865H116.39V104.025C116.39 103.255 117.01 102.635 117.78 102.635C118.55 102.635 119.17 103.255 119.17 104.025V112.265C119.17 113.035 118.55 113.655 117.78 113.655H117.79Z" fill="#2F3F64"/>
<path d="M102.09 105.794C101.72 105.794 101.37 105.644 101.1 105.384L93.4099 97.6936C92.8699 97.1536 92.8699 96.2636 93.4099 95.7236C93.9499 95.1836 94.8399 95.1836 95.3799 95.7236L102.08 102.424L108.79 95.7136C109.33 95.1736 110.22 95.1736 110.76 95.7136C111.3 96.2536 111.3 97.1436 110.76 97.6836L103.06 105.384C102.8 105.644 102.44 105.794 102.07 105.794H102.09Z" fill="#2F3F64"/>
<path fill-rule="evenodd" clip-rule="evenodd" d="M31.7803 51.4745L47.7003 59.7545V38.7445L31.7803 31.3145V51.4745Z" fill="#BCC5DC"/>
<path d="M47.7003 60.7544C47.5403 60.7544 47.3802 60.7144 47.2402 60.6444L31.3203 52.3644C30.9903 52.1944 30.7803 51.8544 30.7803 51.4744V31.3144C30.7803 30.9744 30.9502 30.6544 31.2402 30.4744C31.5302 30.2944 31.8903 30.2644 32.2003 30.4144L48.1202 37.8444C48.4702 38.0044 48.7003 38.3644 48.7003 38.7544V59.7644C48.7003 60.1144 48.5203 60.4344 48.2203 60.6144C48.0603 60.7144 47.8803 60.7644 47.7003 60.7644V60.7544ZM32.7803 50.8644L46.7003 58.1044V39.3744L32.7803 32.8744V50.8544V50.8644Z" fill="#2F3F64"/>
<path fill-rule="evenodd" clip-rule="evenodd" d="M63.6201 51.4745L47.7002 59.7545V38.7445L63.6201 31.3145V39.3745" fill="white"/>
<path d="M47.7002 60.7544C47.5202 60.7544 47.3402 60.7044 47.1802 60.6044C46.8802 60.4244 46.7002 60.1044 46.7002 59.7544V38.7444C46.7002 38.3544 46.9202 38.0044 47.2802 37.8344L63.2002 30.4044C63.5102 30.2644 63.8702 30.2844 64.1602 30.4644C64.4502 30.6444 64.6201 30.9644 64.6201 31.3044V39.3644C64.6201 39.9144 64.1701 40.3644 63.6201 40.3644C63.0701 40.3644 62.6201 39.9144 62.6201 39.3644V32.8744L48.7002 39.3744V58.1044L63.1602 50.5844C63.6502 50.3344 64.2501 50.5244 64.5101 51.0144C64.7601 51.5044 64.5702 52.1044 64.0802 52.3644L48.1602 60.6444C48.0202 60.7244 47.8602 60.7544 47.7002 60.7544Z" fill="#2F3F64"/>
<path fill-rule="evenodd" clip-rule="evenodd" d="M63.6202 31.3138L48.6202 23.5238C48.0402 23.2238 47.3503 23.2238 46.7803 23.5238L31.7803 31.3138L47.7003 38.7438L63.6202 31.3138Z" fill="#2F3F64"/>
<path d="M47.7003 39.7441C47.5603 39.7441 47.4103 39.7141 47.2803 39.6541L31.3602 32.2241C31.0202 32.0641 30.7903 31.7241 30.7803 31.3441C30.7803 30.9641 30.9803 30.6141 31.3203 30.4341L46.3203 22.6441C47.1903 22.1941 48.2203 22.1941 49.0803 22.6441L64.0803 30.4341C64.4203 30.6141 64.6302 30.9641 64.6202 31.3441C64.6202 31.7241 64.3903 32.0641 64.0403 32.2241L48.1202 39.6541C47.9902 39.7141 47.8403 39.7441 47.7003 39.7441ZM34.0403 31.2641L47.7003 37.6341L61.3602 31.2641L48.1603 24.4041C47.8703 24.2541 47.5302 24.2541 47.2402 24.4041L34.0403 31.2641Z" fill="#2F3F64"/>
<path fill-rule="evenodd" clip-rule="evenodd" d="M47.7002 79.9139L63.6201 87.3439V67.1839L47.7002 59.7539V79.9139Z" fill="#BCC5DC"/>
<path d="M63.6201 88.3439C63.4801 88.3439 63.3302 88.3138 63.2002 88.2538L47.2802 80.8238C46.9302 80.6638 46.7002 80.3039 46.7002 79.9139V59.7538C46.7002 59.4138 46.8702 59.0939 47.1602 58.9139C47.4502 58.7339 47.8101 58.7039 48.1201 58.8539L64.0402 66.2839C64.3902 66.4439 64.6201 66.8039 64.6201 67.1939V87.3539C64.6201 87.6939 64.4502 88.0139 64.1602 88.1939C64.0002 88.2939 63.8101 88.3539 63.6201 88.3539V88.3439ZM48.7002 79.2739L62.6201 85.7739V67.8238L48.7002 61.3238V79.2739Z" fill="#2F3F64"/>
<path fill-rule="evenodd" clip-rule="evenodd" d="M79.5499 78.6341C79.5499 79.4141 79.0999 80.1141 78.3999 80.4441L63.6299 87.3341V67.1741L79.5499 59.7441V67.8041V78.6241V78.6341Z" fill="white"/>
<path d="M63.6201 88.3438C63.4301 88.3438 63.2502 88.2938 63.0802 88.1838C62.7902 88.0038 62.6201 87.6838 62.6201 87.3438V67.1838C62.6201 66.7938 62.8402 66.4438 63.2002 66.2738L79.1201 58.8438C79.4301 58.7038 79.7902 58.7238 80.0802 58.9038C80.3702 59.0838 80.5402 59.4038 80.5402 59.7438V78.6338C80.5402 79.7938 79.8602 80.8638 78.8102 81.3538L64.0402 88.2438C63.9102 88.3038 63.7601 88.3338 63.6201 88.3338V88.3438ZM64.6201 67.8138V85.7638L77.9602 79.5338C78.3102 79.3738 78.5402 79.0138 78.5402 78.6238V61.3038L64.6201 67.8038V67.8138Z" fill="#2F3F64"/>
<path fill-rule="evenodd" clip-rule="evenodd" d="M79.5502 59.7544L63.6201 51.4844L47.7002 59.7544L63.6201 67.1844L79.5502 59.7544Z" fill="#2F3F64"/>
<path d="M63.6201 68.1847C63.4801 68.1847 63.3302 68.1547 63.2002 68.0947L47.2802 60.6647C46.9402 60.5047 46.7102 60.1647 46.7002 59.7847C46.7002 59.4047 46.9001 59.0547 47.2401 58.8747L63.1602 50.6047C63.4502 50.4547 63.7902 50.4547 64.0802 50.6047L80.0001 58.8747C80.3401 59.0547 80.5502 59.4047 80.5402 59.7847C80.5402 60.1647 80.3102 60.5047 79.9602 60.6647L64.0402 68.0947C63.9102 68.1547 63.7601 68.1847 63.6201 68.1847ZM49.9702 59.7047L63.6301 66.0747L77.2902 59.7047L63.6301 52.6047L49.9702 59.7047Z" fill="#2F3F64"/>
<path fill-rule="evenodd" clip-rule="evenodd" d="M47.7003 79.9139L31.7803 87.3439V67.1839L47.7003 59.7539V79.9139Z" fill="#BCC5DC"/>
<path d="M31.7803 88.3438C31.5903 88.3438 31.4102 88.2938 31.2402 88.1838C30.9502 88.0038 30.7803 87.6838 30.7803 87.3438V67.1838C30.7803 66.7938 31.0002 66.4438 31.3602 66.2738L47.2803 58.8438C47.5903 58.7038 47.9502 58.7238 48.2402 58.9038C48.5302 59.0838 48.7003 59.4038 48.7003 59.7438V79.9038C48.7003 80.2938 48.4802 80.6438 48.1202 80.8138L32.2003 88.2438C32.0703 88.3038 31.9203 88.3338 31.7803 88.3338V88.3438ZM32.7803 67.8138V85.7638L46.7003 79.2638V61.3138L32.7803 67.8138Z" fill="#2F3F64"/>
<path fill-rule="evenodd" clip-rule="evenodd" d="M15.8604 78.6341C15.8604 79.4141 16.3104 80.1141 17.0104 80.4441L31.7804 87.3341V67.1741L15.8604 59.7441V67.8041V78.6241V78.6341Z" fill="white"/>
<path d="M31.7804 88.3439C31.6404 88.3439 31.4904 88.3138 31.3604 88.2538L16.5905 81.3638C15.5405 80.8738 14.8604 79.8038 14.8604 78.6438V59.7538C14.8604 59.4138 15.0304 59.0939 15.3204 58.9139C15.6104 58.7339 15.9704 58.7039 16.2804 58.8539L32.2004 66.2839C32.5504 66.4439 32.7804 66.8039 32.7804 67.1939V87.3539C32.7804 87.6939 32.6104 88.0139 32.3204 88.1939C32.1604 88.2939 31.9704 88.3539 31.7804 88.3539V88.3439ZM16.8604 61.3238V78.6438C16.8604 79.0338 17.0904 79.3839 17.4404 79.5539L30.7804 85.7839V67.8339L16.8604 61.3339V61.3238Z" fill="#2F3F64"/>
<path fill-rule="evenodd" clip-rule="evenodd" d="M15.8604 59.7544L31.7804 51.4844L47.7004 59.7544L31.7804 67.1844L15.8604 59.7544Z" fill="#2F3F64"/>
<path d="M31.7804 68.1847C31.6404 68.1847 31.4904 68.1547 31.3604 68.0947L15.4404 60.6647C15.1004 60.5047 14.8704 60.1647 14.8604 59.7847C14.8604 59.4047 15.0604 59.0547 15.4004 58.8747L31.3204 50.6047C31.6104 50.4547 31.9504 50.4547 32.2404 50.6047L48.1604 58.8747C48.5004 59.0547 48.7104 59.4047 48.7004 59.7847C48.7004 60.1647 48.4704 60.5047 48.1204 60.6647L32.2004 68.0947C32.0704 68.1547 31.9204 68.1847 31.7804 68.1847ZM18.1204 59.7047L31.7804 66.0747L45.4404 59.7047L31.7804 52.6047L18.1204 59.7047Z" fill="#2F3F64"/>
</svg>
