<svg viewBox="0 0 105 107" fill="none" xmlns="http://www.w3.org/2000/svg">
<g id="kb-faq">
<g id="Group">
<path id="Vector" fill-rule="evenodd" clip-rule="evenodd" d="M52.6103 62.0104C52.6103 46.0304 32.6503 33.0703 8.03027 33.0703V88.7604C27.2403 88.7604 43.9603 95.6702 52.6103 105.88V62.0104Z" fill="white"/>
<path id="Vector_2" d="M52.6103 106.87C52.3203 106.87 52.0403 106.75 51.8503 106.52C43.0803 96.1804 26.2903 89.7604 8.03027 89.7604C7.48027 89.7604 7.03027 89.3104 7.03027 88.7604V33.0703C7.03027 32.5203 7.48027 32.0703 8.03027 32.0703C33.1603 32.0703 53.6003 45.5004 53.6103 62.0104V105.88C53.6103 106.3 53.3503 106.67 52.9603 106.82C52.8503 106.86 52.7303 106.88 52.6203 106.88L52.6103 106.87ZM9.03027 87.7604C26.3303 87.9804 42.2903 93.8404 51.6103 103.3V62.0104C51.6103 46.8204 32.6003 34.4203 9.03027 34.0803V87.7704V87.7604Z" fill="#2F3F64"/>
</g>
<g id="Group_2">
<path id="Vector_3" fill-rule="evenodd" clip-rule="evenodd" d="M8.02995 88.76V50.29H5.53995C3.42995 50.29 1.70996 52 1.70996 54.12V102.05C1.70996 104.16 3.41995 105.88 5.53995 105.88H52.6099C43.9599 95.6799 27.24 88.76 8.02995 88.76Z" fill="#BCC5DC"/>
<path id="Vector_4" d="M52.6099 106.87H5.53995C2.87995 106.87 0.709961 104.7 0.709961 102.04V54.1102C0.709961 51.4502 2.87995 49.2803 5.53995 49.2803H8.02995C8.57995 49.2803 9.02995 49.7303 9.02995 50.2803V87.7502C27.48 87.9802 44.3999 94.6302 53.3699 105.22C53.6199 105.52 53.68 105.93 53.51 106.29C53.35 106.64 52.99 106.87 52.6 106.87H52.6099ZM5.53995 51.2903C3.97995 51.2903 2.70996 52.5602 2.70996 54.1202V102.05C2.70996 103.61 3.97995 104.88 5.53995 104.88H50.35C41.25 95.5101 25.3 89.7603 8.02995 89.7603C7.47995 89.7603 7.02995 89.3103 7.02995 88.7603V51.2903H5.53995Z" fill="#2F3F64"/>
</g>
<path id="Vector_5" d="M40.2796 58.4603C40.0896 58.4603 39.9096 58.4104 39.7396 58.3004C28.4596 51.0504 17.0196 49.5404 16.8996 49.5304C16.3496 49.4604 15.9596 48.9604 16.0296 48.4104C16.0996 47.8604 16.5996 47.4804 17.1496 47.5404C17.6296 47.6004 29.1396 49.1104 40.8196 56.6104C41.2796 56.9104 41.4196 57.5304 41.1196 57.9904C40.9296 58.2904 40.6096 58.4503 40.2796 58.4503V58.4603Z" fill="#2F3F64"/>
<path id="Vector_6" d="M40.2796 66.5804C40.0896 66.5804 39.9096 66.5305 39.7396 66.4205C28.4596 59.1705 17.0196 57.6605 16.8996 57.6505C16.3496 57.5805 15.9596 57.0805 16.0296 56.5305C16.0996 55.9805 16.5996 55.6005 17.1496 55.6605C17.6296 55.7205 29.1396 57.2305 40.8196 64.7305C41.2796 65.0305 41.4196 65.6505 41.1196 66.1105C40.9296 66.4105 40.6096 66.5704 40.2796 66.5704V66.5804Z" fill="#2F3F64"/>
<path id="Vector_7" d="M40.2796 74.6995C40.0896 74.6995 39.9096 74.6496 39.7396 74.5396C28.4596 67.2896 17.0196 65.7796 16.8996 65.7696C16.3496 65.6996 15.9596 65.1996 16.0296 64.6496C16.0996 64.0996 16.5996 63.7096 17.1496 63.7796C17.6296 63.8396 29.1396 65.3496 40.8196 72.8496C41.2796 73.1496 41.4196 73.7696 41.1196 74.2296C40.9296 74.5296 40.6096 74.6895 40.2796 74.6895V74.6995Z" fill="#2F3F64"/>
<path id="Vector_8" d="M40.2796 82.81C40.0896 82.81 39.9096 82.76 39.7396 82.65C28.4596 75.4 17.0196 73.89 16.8996 73.88C16.3496 73.81 15.9596 73.31 16.0296 72.76C16.0996 72.21 16.5996 71.82 17.1496 71.89C17.6296 71.95 29.1396 73.4599 40.8196 80.9599C41.2796 81.2599 41.4196 81.8799 41.1196 82.3399C40.9296 82.6399 40.6096 82.8 40.2796 82.8V82.81Z" fill="#2F3F64"/>
<path id="Vector_9" fill-rule="evenodd" clip-rule="evenodd" d="M52.7795 62.0101C52.7795 51.1201 62.0495 41.6301 75.7395 36.7001C78.8595 35.5701 82.2096 34.6901 85.7296 34.0701C89.4396 33.4201 93.3295 33.0801 97.3495 33.0801V88.7701C78.1395 88.7701 61.4195 95.68 52.7695 105.89V62.0201L52.7795 62.0101Z" fill="white"/>
<path id="Vector_10" d="M52.7695 106.871C52.6495 106.871 52.5395 106.851 52.4295 106.811C52.0395 106.671 51.7695 106.291 51.7695 105.871V62.0005C51.7695 51.0605 60.8196 41.0005 75.3896 35.7505C75.9096 35.5605 76.4796 35.8305 76.6696 36.3505C76.8596 36.8705 76.5896 37.4405 76.0695 37.6305C62.3195 42.5905 53.7695 51.9305 53.7695 62.0005V103.291C63.0895 93.8305 79.0495 87.9705 96.3495 87.7505V33.0605C96.3495 32.5105 96.7995 32.0605 97.3495 32.0605C97.8995 32.0605 98.3495 32.5105 98.3495 33.0605V88.7505C98.3495 89.3005 97.8995 89.7505 97.3495 89.7505C79.0895 89.7505 62.2995 96.1705 53.5295 106.51C53.3395 106.741 53.0595 106.861 52.7695 106.861V106.871Z" fill="#2F3F64"/>
<g id="Group_3">
<path id="Vector_11" fill-rule="evenodd" clip-rule="evenodd" d="M97.3505 88.76V50.29H99.8405C101.951 50.29 103.671 52 103.671 54.12V102.05C103.671 104.16 101.961 105.88 99.8405 105.88H52.7705C61.4205 95.6799 78.1405 88.76 97.3505 88.76Z" fill="#BCC5DC"/>
<path id="Vector_12" d="M99.8503 106.87H52.7803C52.3903 106.87 52.0403 106.64 51.8703 106.29C51.7103 105.94 51.7603 105.52 52.0103 105.22C60.9803 94.6302 77.9103 87.9902 96.3503 87.7502V50.2803C96.3503 49.7303 96.8003 49.2803 97.3503 49.2803H99.8403C102.5 49.2803 104.67 51.4502 104.67 54.1102V102.04C104.67 104.7 102.5 106.87 99.8403 106.87H99.8503ZM55.0303 104.87H99.8403C101.4 104.87 102.67 103.6 102.67 102.04V54.1102C102.67 52.5502 101.4 51.2803 99.8403 51.2803H98.3503V88.7502C98.3503 89.3002 97.9003 89.7502 97.3503 89.7502C80.0803 89.7502 64.1203 95.5004 55.0303 104.87Z" fill="#2F3F64"/>
</g>
<path id="Vector_13" d="M65.1001 58.4601C64.7701 58.4601 64.4501 58.3001 64.2601 58.0001C63.9601 57.5401 64.1001 56.9201 64.5601 56.6201C76.2401 49.1201 87.7501 47.6102 88.2301 47.5502C88.7701 47.4902 89.2801 47.8702 89.3501 48.4202C89.4201 48.9702 89.0301 49.4702 88.4801 49.5402C88.3701 49.5502 76.9301 51.0602 65.6401 58.3102C65.4701 58.4202 65.2901 58.4701 65.1001 58.4701V58.4601Z" fill="#2F3F64"/>
<path id="Vector_14" d="M65.1001 66.5802C64.7701 66.5802 64.4501 66.4202 64.2601 66.1202C63.9601 65.6602 64.1001 65.0402 64.5601 64.7402C76.2401 57.2402 87.7501 55.7303 88.2301 55.6703C88.7701 55.6103 89.2801 55.9903 89.3501 56.5403C89.4201 57.0903 89.0301 57.5903 88.4801 57.6603C88.3701 57.6703 76.9301 59.1803 65.6401 66.4303C65.4701 66.5403 65.2901 66.5902 65.1001 66.5902V66.5802Z" fill="#2F3F64"/>
<path id="Vector_15" d="M65.1001 74.7003C64.7701 74.7003 64.4501 74.5403 64.2601 74.2403C63.9601 73.7803 64.1001 73.1603 64.5601 72.8603C76.2401 65.3603 87.7501 63.8504 88.2301 63.7904C88.7701 63.7204 89.2801 64.1103 89.3501 64.6603C89.4201 65.2103 89.0301 65.7103 88.4801 65.7803C88.3701 65.7903 76.9301 67.3004 65.6401 74.5504C65.4701 74.6604 65.2901 74.7103 65.1001 74.7103V74.7003Z" fill="#2F3F64"/>
<path id="Vector_16" d="M65.1001 82.8098C64.7701 82.8098 64.4501 82.6497 64.2601 82.3497C63.9601 81.8897 64.1001 81.2697 64.5601 80.9697C76.2401 73.4697 87.7501 71.9597 88.2301 71.8997C88.7701 71.8297 89.2801 72.2197 89.3501 72.7697C89.4201 73.3197 89.0301 73.8197 88.4801 73.8897C88.3701 73.8997 76.9301 75.4097 65.6401 82.6597C65.4701 82.7697 65.2901 82.8196 65.1001 82.8196V82.8098Z" fill="#2F3F64"/>
<g id="Group_4">
<path id="Vector_17" fill-rule="evenodd" clip-rule="evenodd" d="M51.3198 1.17017C40.5798 1.74017 31.9998 10.8801 32.0698 21.6401C32.1098 27.1901 34.3598 32.2001 37.9898 35.8601C40.9598 38.8501 43.0598 42.5601 44.1298 46.5801C44.3898 47.5701 45.2898 48.2701 46.3198 48.2701H58.5598C59.5798 48.2701 60.4697 47.5901 60.7397 46.6101C61.8697 42.5001 64.1097 38.7401 67.1197 35.6101C70.6297 31.9501 72.7997 26.9801 72.7997 21.5101C72.7997 18.4001 72.0998 15.4402 70.8498 12.8002C69.8698 10.7402 68.5597 8.87013 66.9897 7.26013C63.0597 3.24013 57.4697 0.850168 51.3297 1.17017H51.3198Z" fill="#FEC95C"/>
<path id="Vector_18" d="M58.55 49.2602H46.31C44.83 49.2602 43.53 48.2602 43.15 46.8302C42.12 42.9402 40.09 39.3903 37.27 36.5603C33.3 32.5703 31.1 27.2702 31.06 21.6502C30.99 10.4002 40.05 0.770265 51.26 0.180265C57.4 -0.149735 63.39 2.18016 67.69 6.57016C68.08 6.96016 68.07 7.60019 67.68 7.98019C67.28 8.37019 66.65 8.36017 66.27 7.96017C62.38 3.99017 56.96 1.88026 51.38 2.17026C41.22 2.71026 33.01 11.4402 33.08 21.6302C33.11 26.7302 35.11 31.5302 38.71 35.1502C41.77 38.2302 43.98 42.1002 45.1 46.3202C45.25 46.8802 45.75 47.2602 46.32 47.2602H58.56C59.13 47.2602 59.63 46.8802 59.78 46.3302C60.92 42.1802 63.21 38.2302 66.4 34.9102C69.88 31.2902 71.8 26.5302 71.8 21.5002C71.8 20.9502 72.25 20.5002 72.8 20.5002C73.35 20.5002 73.8 20.9502 73.8 21.5002C73.8 27.0402 71.69 32.3002 67.85 36.2902C64.89 39.3702 62.77 43.0302 61.71 46.8602C61.32 48.2702 60.03 49.2602 58.56 49.2602H58.55Z" fill="#2F3F64"/>
<g id="Group_5">
<path id="Vector_19" d="M44.9395 48.2598H59.9395V56.5398C59.9395 57.7698 58.9495 58.7598 57.7195 58.7598H47.1595C45.9295 58.7598 44.9395 57.7698 44.9395 56.5398V48.2598Z" fill="#FEC95C"/>
<path id="Vector_20" d="M57.7097 59.7598H47.1497C45.3697 59.7598 43.9297 58.3198 43.9297 56.5398V48.2598C43.9297 47.7098 44.3797 47.2598 44.9297 47.2598H59.9297C60.4797 47.2598 60.9297 47.7098 60.9297 48.2598V56.5398C60.9297 58.3198 59.4897 59.7598 57.7097 59.7598ZM45.9397 49.2598V56.5398C45.9397 57.2098 46.4897 57.7598 47.1597 57.7598H57.7197C58.3897 57.7598 58.9397 57.2098 58.9397 56.5398V49.2598H45.9397Z" fill="#2F3F64"/>
</g>
<g id="Group_6">
<path id="Vector_21" fill-rule="evenodd" clip-rule="evenodd" d="M52.4301 64.3101C55.5001 64.3101 57.9901 61.82 57.9901 58.75H46.8701C46.8701 61.82 49.3601 64.3101 52.4301 64.3101Z" fill="#2F3F64"/>
<path id="Vector_22" d="M52.4301 65.3101C48.8101 65.3101 45.8701 62.37 45.8701 58.75C45.8701 58.2 46.3201 57.75 46.8701 57.75H57.9901C58.5401 57.75 58.9901 58.2 58.9901 58.75C58.9901 62.37 56.0501 65.3101 52.4301 65.3101ZM47.9801 59.76C48.4401 61.79 50.2601 63.3199 52.4301 63.3199C54.6001 63.3199 56.4201 61.8 56.8801 59.76H47.9801Z" fill="#2F3F64"/>
</g>
<path id="Vector_23" d="M54.0004 54.5098H44.9404C44.3904 54.5098 43.9404 54.0598 43.9404 53.5098C43.9404 52.9598 44.3904 52.5098 44.9404 52.5098H54.0004C54.5504 52.5098 55.0004 52.9598 55.0004 53.5098C55.0004 54.0598 54.5504 54.5098 54.0004 54.5098Z" fill="#2F3F64"/>
</g>
<path id="Vector_24" d="M68.08 23.6201C67.53 23.6201 67.08 23.1701 67.08 22.6201C67.08 14.1901 60.22 7.33008 51.79 7.33008C51.24 7.33008 50.79 6.88008 50.79 6.33008C50.79 5.78008 51.24 5.33008 51.79 5.33008C61.32 5.33008 69.08 13.0801 69.08 22.6201C69.08 23.1701 68.63 23.6201 68.08 23.6201Z" fill="#2F3F64"/>
<g id="Group_7">
<path id="Vector_25" fill-rule="evenodd" clip-rule="evenodd" d="M12.2598 89.1699V97.3999C25.8298 97.3999 41.9398 100.6 51.5398 105.88H52.6098C45.1798 97.1098 28.0698 90.7799 12.2598 89.1799V89.1699Z" fill="#2F3F64"/>
<path id="Vector_26" d="M52.6098 106.871H51.5398C51.3698 106.871 51.2098 106.83 51.0598 106.75C41.9698 101.75 26.3798 98.4003 12.2598 98.4003C11.7098 98.4003 11.2598 97.9504 11.2598 97.4004V89.1705C11.2598 88.8905 11.3798 88.6205 11.5898 88.4305C11.7998 88.2405 12.0798 88.1505 12.3598 88.1805C26.8298 89.6505 45.1198 95.5004 53.3798 105.23C53.6298 105.53 53.6898 105.94 53.5198 106.3C53.3598 106.65 52.9998 106.88 52.6098 106.88V106.871ZM13.2598 96.4004C25.7198 96.5404 39.1998 99.2004 48.4798 103.26C40.7398 96.9604 27.1798 91.8804 13.2598 90.2804V96.4004Z" fill="#2F3F64"/>
</g>
<g id="Group_8">
<path id="Vector_27" fill-rule="evenodd" clip-rule="evenodd" d="M93.1293 89.1699V97.3999C79.5593 97.3999 63.4493 100.6 53.8493 105.88H52.7793C60.2093 97.1098 77.3193 90.7799 93.1293 89.1799V89.1699Z" fill="#2F3F64"/>
<path id="Vector_28" d="M53.8396 106.87H52.7696C52.3796 106.87 52.0296 106.64 51.8596 106.29C51.6996 105.94 51.7496 105.52 51.9996 105.22C60.2596 95.4797 78.5496 89.6397 93.0196 88.1697C93.2996 88.1397 93.5796 88.2297 93.7896 88.4197C93.9996 88.6097 94.1196 88.8797 94.1196 89.1597V97.3897C94.1196 97.9397 93.6696 98.3896 93.1196 98.3896C78.9996 98.3896 63.4096 101.75 54.3196 106.74C54.1696 106.82 54.0096 106.86 53.8396 106.86V106.87ZM92.1296 90.2797C78.2096 91.8797 64.6496 96.9597 56.9096 103.26C66.1896 99.1997 79.6696 96.5297 92.1296 96.3997V90.2797Z" fill="#2F3F64"/>
</g>
</g>
</svg>
