<svg width="128" height="126" viewBox="0 0 128 126" fill="none" xmlns="http://www.w3.org/2000/svg">
<g clip-path="url(#clip0_583_3612)">
<path d="M8.63027 74.39L1.02027 4.12C0.920267 3.32 1.16027 2.53 1.69027 1.93C2.21027 1.34 2.97027 1 3.76027 1H21.7203C22.9903 1 24.2003 1.6 24.9703 2.6L28.4803 7.19C28.6703 7.44 28.9603 7.58 29.2703 7.58H105.01C106.51 7.58 107.74 8.8 107.77 10.29L106.61 74.38H8.63027V74.39Z" fill="#2F3F64"/>
<path d="M21.7205 2.00023C22.6805 2.00023 23.5905 2.45023 24.1705 3.21023L27.6805 7.80023C28.0605 8.30023 28.6505 8.59023 29.2705 8.59023H105.01C105.95 8.59023 106.74 9.35023 106.77 10.2902L105.63 73.3902H9.53046L2.01046 3.98023C1.95046 3.47023 2.10046 2.98023 2.44046 2.60023C2.78046 2.22023 3.25046 2.00023 3.76046 2.00023H21.7205ZM21.7205 0.000234375H3.76046C1.50046 0.000234375 -0.249539 1.98023 0.030461 4.23023L7.73046 75.3902H107.59L108.77 10.2802C108.73 8.23023 107.06 6.58023 105.01 6.58023H29.2705L25.7605 1.99023C24.8005 0.730234 23.3005 -0.00976562 21.7205 -0.00976562V0.000234375Z" fill="#2F3F64"/>
<path d="M75.78 75.3909H9.04004L27.23 20.5909C27.64 18.9009 29.15 17.7109 30.88 17.7109H126.39L107.5 75.3909" fill="white"/>
<path d="M75.78 75.3909H9.04004L27.23 20.5909C27.64 18.9009 29.15 17.7109 30.88 17.7109H126.39L107.5 75.3909" stroke="#2F3F64" stroke-width="2" stroke-linecap="round" stroke-linejoin="round"/>
<path d="M72.3008 47.5499C72.6908 42.3499 78.7108 38.2099 86.0708 38.2099C93.4308 38.2099 99.4508 42.3499 99.8408 47.5499C99.7308 48.2099 99.1608 48.6999 98.4808 48.6999H73.6608C72.9808 48.6999 72.4108 48.1999 72.3008 47.5499ZM86.0708 25.9199C89.4308 25.9199 92.1508 28.6699 92.1508 32.0699C92.1508 35.4699 89.4308 38.2199 86.0708 38.2199C82.7108 38.2199 79.9908 35.4699 79.9908 32.0699C79.9908 28.6699 82.7108 25.9199 86.0708 25.9199Z" fill="#2F3F64" stroke="#2F3F64" stroke-width="2" stroke-linecap="round" stroke-linejoin="round"/>
<path d="M35.6006 47.5499C35.9906 42.3499 42.0106 38.2099 49.3706 38.2099C56.7306 38.2099 62.7506 42.3499 63.1406 47.5499C63.0306 48.2099 62.4606 48.6999 61.7806 48.6999H36.9606C36.2806 48.6999 35.7106 48.1999 35.6006 47.5499ZM49.3706 25.9199C52.7306 25.9199 55.4506 28.6699 55.4506 32.0699C55.4506 35.4699 52.7306 38.2199 49.3706 38.2199C46.0106 38.2199 43.2906 35.4699 43.2906 32.0699C43.2906 28.6699 46.0106 25.9199 49.3706 25.9199Z" fill="#2F3F64" stroke="#2F3F64" stroke-width="2" stroke-linecap="round" stroke-linejoin="round"/>
<path d="M44.8311 63.8395C45.4711 55.2095 55.4711 48.3495 67.6811 48.3495C79.8911 48.3495 89.8811 55.2195 90.5311 63.8395C90.3511 64.9295 89.4011 65.7495 88.271 65.7495H47.0911C45.9611 65.7495 45.0211 64.9195 44.8311 63.8395ZM67.6711 27.9395C73.2411 27.9395 77.7611 32.5095 77.7611 38.1395C77.7611 43.7695 73.2411 48.3395 67.6711 48.3395C62.1011 48.3395 57.5811 43.7695 57.5811 38.1395C57.5811 32.5095 62.1011 27.9395 67.6711 27.9395Z" fill="#BCC5DC"/>
<path d="M90.5203 63.8395C90.3403 64.9295 89.3903 65.7495 88.2603 65.7495H47.0803C45.9503 65.7495 45.0103 64.9195 44.8203 63.8395C45.4603 55.2095 55.4603 48.3495 67.6703 48.3495C73.2303 48.3495 78.3203 49.7695 82.2903 52.1295M67.6703 27.9395C73.2403 27.9395 77.7603 32.5095 77.7603 38.1395C77.7603 43.7695 73.2403 48.3395 67.6703 48.3395C62.1003 48.3395 57.5803 43.7695 57.5803 38.1395C57.5803 32.5095 62.1003 27.9395 67.6703 27.9395Z" stroke="#2F3F64" stroke-width="2" stroke-linecap="round" stroke-linejoin="round"/>
<path d="M95.959 100.916L101.496 95.3794L124.272 118.155C125.799 119.683 125.799 122.157 124.272 123.685C122.744 125.212 120.269 125.212 118.742 123.685L95.9661 100.909L95.959 100.916Z" fill="#2F3F64" stroke="#2F3F64" stroke-width="2" stroke-linecap="round" stroke-linejoin="round"/>
<path d="M104.089 105.782C115.306 95.6574 116.191 78.3567 106.067 67.1397C95.942 55.9228 78.6413 55.0373 67.4243 65.1619C56.2074 75.2865 55.3219 92.5873 65.4465 103.804C75.5711 115.021 92.8719 115.907 104.089 105.782Z" fill="#BCC5DC" stroke="#2F3F64" stroke-width="2" stroke-linecap="round" stroke-linejoin="round"/>
<path d="M101.342 102.739C110.878 94.1316 111.631 79.4234 103.023 69.8874C94.416 60.3513 79.7078 59.5985 70.1718 68.2059C60.6358 76.8133 59.883 91.5215 68.4904 101.058C77.0978 110.594 91.8059 111.346 101.342 102.739Z" fill="#FEC95C" stroke="#2F3F64" stroke-width="2" stroke-linecap="round" stroke-linejoin="round"/>
<path fill-rule="evenodd" clip-rule="evenodd" d="M108.669 86.3203H96.9995C96.7595 86.3203 96.5395 86.4403 96.3995 86.6303L92.9495 91.6703C92.5895 92.1903 91.7795 92.0303 91.6495 91.4103L88.2195 75.3903C88.0595 74.6303 86.9795 74.6303 86.8095 75.3903L82.6595 93.9603C82.5095 94.6303 81.5895 94.7303 81.2995 94.1103L76.8395 84.6203C76.6595 84.2403 76.1895 84.0903 75.8295 84.3003L70.6195 87.3103C70.5095 87.3703 70.3895 87.4103 70.2595 87.4103H63.1895" fill="#FEC95C"/>
<path d="M108.669 86.3203H96.9995C96.7595 86.3203 96.5395 86.4403 96.3995 86.6303L92.9495 91.6703C92.5895 92.1903 91.7795 92.0303 91.6495 91.4103L88.2195 75.3903C88.0595 74.6303 86.9795 74.6303 86.8095 75.3903L82.6595 93.9603C82.5095 94.6303 81.5895 94.7303 81.2995 94.1103L76.8395 84.6203C76.6595 84.2403 76.1895 84.0903 75.8295 84.3003L70.6195 87.3103C70.5095 87.3703 70.3895 87.4103 70.2595 87.4103H63.1895" stroke="#2F3F64" stroke-width="2" stroke-linecap="round" stroke-linejoin="round"/>
</g>
<defs>
<clipPath id="clip0_583_3612">
<rect width="127.4" height="125.84" fill="white"/>
</clipPath>
</defs>
</svg>
