<svg width="128" height="118" viewBox="0 0 128 118" fill="none" xmlns="http://www.w3.org/2000/svg">
<g clip-path="url(#clip0_583_3568)">
<path d="M8.63027 74.39L1.02027 4.12C0.920267 3.32 1.16027 2.53 1.69027 1.93C2.21027 1.34 2.97027 1 3.76027 1H21.7203C22.9903 1 24.2003 1.6 24.9703 2.61L28.4803 7.2C28.6703 7.45 28.9603 7.59 29.2703 7.59H105.01C106.51 7.59 107.74 8.81 107.77 10.3L106.61 74.39H8.63027Z" fill="#2F3F64"/>
<path d="M21.7205 2.00023C22.6805 2.00023 23.5905 2.45023 24.1705 3.21023L27.6805 7.80023C28.0605 8.30023 28.6505 8.59023 29.2705 8.59023H105.01C105.95 8.59023 106.74 9.35023 106.77 10.2902L105.63 73.3902H9.53046L2.01046 3.98023C1.95046 3.47023 2.10046 2.98023 2.44046 2.60023C2.78046 2.22023 3.25046 2.00023 3.76046 2.00023H21.7205ZM21.7205 0.000234375H3.76046C1.50046 0.000234375 -0.249539 1.98023 0.030461 4.23023L7.73046 75.3902H107.59L108.77 10.2802C108.74 8.23023 107.06 6.58023 105.01 6.58023H29.2705L25.7605 1.99023C24.8005 0.730234 23.3005 -0.00976562 21.7205 -0.00976562V0.000234375Z" fill="#2F3F64"/>
<path d="M75.78 75.3909H9.04004L27.23 20.5909C27.64 18.9009 29.15 17.7109 30.88 17.7109H126.39L107.5 75.3909" fill="white"/>
<path d="M75.78 75.3909H9.04004L27.23 20.5909C27.64 18.9009 29.15 17.7109 30.88 17.7109H126.39L107.5 75.3909" stroke="#2F3F64" stroke-width="2" stroke-linecap="round" stroke-linejoin="round"/>
<path d="M72.2998 47.5499C72.6898 42.3499 78.7098 38.2099 86.0698 38.2099C93.4298 38.2099 99.4498 42.3499 99.8398 47.5499C99.7298 48.2099 99.1598 48.6999 98.4798 48.6999H73.6598C72.9798 48.6999 72.4098 48.1999 72.2998 47.5499ZM86.0698 25.9199C89.4298 25.9199 92.1498 28.6699 92.1498 32.0699C92.1498 35.4699 89.4298 38.2199 86.0698 38.2199C82.7098 38.2199 79.9898 35.4699 79.9898 32.0699C79.9898 28.6699 82.7098 25.9199 86.0698 25.9199Z" fill="#2F3F64" stroke="#2F3F64" stroke-width="2" stroke-linecap="round" stroke-linejoin="round"/>
<path d="M35.5996 47.5499C35.9896 42.3499 42.0096 38.2099 49.3696 38.2099C56.7296 38.2099 62.7496 42.3499 63.1396 47.5499C63.0296 48.2099 62.4596 48.6999 61.7796 48.6999H36.9596C36.2796 48.6999 35.7096 48.1999 35.5996 47.5499ZM49.3696 25.9199C52.7296 25.9199 55.4496 28.6699 55.4496 32.0699C55.4496 35.4699 52.7296 38.2199 49.3696 38.2199C46.0096 38.2199 43.2896 35.4699 43.2896 32.0699C43.2896 28.6699 46.0096 25.9199 49.3696 25.9199Z" fill="#2F3F64" stroke="#2F3F64" stroke-width="2" stroke-linecap="round" stroke-linejoin="round"/>
<path d="M44.8301 63.8395C45.4701 55.2095 55.4701 48.3495 67.6801 48.3495C79.8901 48.3495 89.8801 55.2195 90.5301 63.8395C90.3501 64.9295 89.4001 65.7495 88.2701 65.7495H47.0901C45.9601 65.7495 45.0201 64.9195 44.8301 63.8395ZM67.6701 27.9395C73.2401 27.9395 77.7601 32.5095 77.7601 38.1395C77.7601 43.7695 73.2401 48.3395 67.6701 48.3395C62.1001 48.3395 57.5801 43.7695 57.5801 38.1395C57.5801 32.5095 62.1001 27.9395 67.6701 27.9395Z" fill="#BCC5DC"/>
<path d="M90.5193 63.8395C90.3393 64.9295 89.3893 65.7495 88.2593 65.7495H47.0793C45.9493 65.7495 45.0093 64.9195 44.8193 63.8395C45.4593 55.2095 55.4593 48.3495 67.6693 48.3495C73.2293 48.3495 78.3193 49.7695 82.2893 52.1295M67.6693 27.9395C73.2393 27.9395 77.7593 32.5095 77.7593 38.1395C77.7593 43.7695 73.2393 48.3395 67.6693 48.3395C62.0993 48.3395 57.5793 43.7695 57.5793 38.1395C57.5793 32.5095 62.0993 27.9395 67.6693 27.9395Z" stroke="#2F3F64" stroke-width="2" stroke-linecap="round" stroke-linejoin="round"/>
<path d="M100.84 116.64C114.271 116.64 125.16 105.752 125.16 92.32C125.16 78.8884 114.271 68 100.84 68C87.408 68 76.5195 78.8884 76.5195 92.32C76.5195 105.752 87.408 116.64 100.84 116.64Z" fill="#FEC95C" stroke="#2F3F64" stroke-width="2" stroke-linecap="round" stroke-linejoin="round"/>
<path fill-rule="evenodd" clip-rule="evenodd" d="M113.88 90.9398H113.18C112.7 90.9398 112.29 90.6099 112.18 90.1599C111.91 89.0899 111.48 88.0799 110.92 87.1599C110.67 86.7499 110.73 86.2399 111.07 85.9099L111.57 85.4198C111.97 85.0198 111.97 84.3799 111.57 83.9799L110.31 82.7299C109.9 82.3299 109.25 82.3199 108.84 82.7299L108.34 83.2198C108 83.5498 107.47 83.6098 107.06 83.3598C106.12 82.7998 105.09 82.3698 103.99 82.0898C103.52 81.9698 103.19 81.5598 103.19 81.0898V80.3998C103.19 79.8298 102.72 79.3698 102.14 79.3598L100.34 79.3398C99.7598 79.3398 99.2898 79.7898 99.2898 80.3598V81.0598C99.2898 81.5298 98.9598 81.9399 98.4898 82.0499C97.3898 82.3099 96.3398 82.7298 95.3898 83.2798C94.9698 83.5198 94.4398 83.4599 94.0898 83.1199L93.5798 82.6199C93.1698 82.2099 92.4898 82.2099 92.0798 82.6199L90.7898 83.8699C90.3698 84.2699 90.3698 84.9298 90.7898 85.3298L91.2999 85.8298C91.6499 86.1698 91.7098 86.6898 91.4498 87.0998C90.8698 88.0298 90.4299 89.0498 90.1599 90.1298C90.0399 90.5898 89.6198 90.9198 89.1298 90.9198H88.4099C87.8199 90.9198 87.3398 91.3798 87.3398 91.9498V93.7299C87.3398 94.2999 87.8199 94.7698 88.4099 94.7698H89.1298C89.6198 94.7698 90.0399 95.0998 90.1599 95.5598C90.4399 96.6398 90.8798 97.6598 91.4498 98.5898C91.6998 98.9998 91.6399 99.5198 91.2999 99.8598L90.7898 100.36C90.3698 100.77 90.3698 101.42 90.7898 101.82L92.0798 103.07C92.4898 103.47 93.1698 103.47 93.5798 103.07L94.0898 102.57C94.4398 102.23 94.9698 102.17 95.3898 102.41C96.3398 102.96 97.3898 103.38 98.4898 103.64C98.9598 103.75 99.2898 104.16 99.2898 104.63V105.33C99.2898 105.9 99.7598 106.36 100.34 106.35L102.14 106.33C102.72 106.33 103.19 105.86 103.19 105.29V104.6C103.19 104.13 103.52 103.72 103.99 103.6C105.09 103.32 106.12 102.89 107.06 102.33C107.47 102.08 108 102.14 108.34 102.47L108.84 102.96C109.25 103.36 109.9 103.35 110.31 102.96L111.57 101.71C111.97 101.31 111.97 100.66 111.57 100.27L111.07 99.7798C110.73 99.4498 110.67 98.9298 110.92 98.5298C111.48 97.6098 111.91 96.5998 112.18 95.5298C112.3 95.0698 112.71 94.7498 113.18 94.7498H113.88C114.45 94.7498 114.91 94.2899 114.91 93.7299V91.9799C114.91 91.4199 114.45 90.9598 113.88 90.9598V90.9398Z" fill="#2F3F64"/>
<path fill-rule="evenodd" clip-rule="evenodd" d="M94.8899 92.8394C94.8899 96.2794 97.6799 99.0694 101.12 99.0694C104.56 99.0694 107.35 96.2794 107.35 92.8394C107.35 91.8394 107.12 90.8994 106.7 90.0594C106.51 89.6794 106.28 89.3194 106.02 88.9894C105.61 88.4694 105.13 88.0194 104.58 87.6594C103.59 86.9894 102.39 86.6094 101.11 86.6094C97.6699 86.6094 94.8799 89.3994 94.8799 92.8394H94.8899Z" fill="#FEC95C"/>
</g>
<defs>
<clipPath id="clip0_583_3568">
<rect width="127.4" height="117.63" fill="white"/>
</clipPath>
</defs>
</svg>
