<svg width="128" height="126" viewBox="0 0 128 126" fill="none" xmlns="http://www.w3.org/2000/svg">
<g clip-path="url(#clip0_583_3584)">
<path d="M8.63027 74.3898L1.02027 4.11977C0.920267 3.31977 1.16027 2.52977 1.69027 1.93977C2.21027 1.34977 2.97027 1.00977 3.76027 1.00977H21.7203C22.9903 1.00977 24.2003 1.60977 24.9703 2.61977L28.4803 7.20977C28.6703 7.45977 28.9603 7.59977 29.2703 7.59977H105.01C106.51 7.59977 107.74 8.81977 107.77 10.3098L106.61 74.3998H8.63027V74.3898Z" fill="#2F3F64"/>
<path d="M21.7205 2.00023C22.6805 2.00023 23.5905 2.45023 24.1705 3.21023L27.6805 7.80023C28.0605 8.30023 28.6505 8.59023 29.2705 8.59023H105.01C105.95 8.59023 106.74 9.35023 106.77 10.2902L105.63 73.3902H9.53046L2.01046 3.98023C1.95046 3.47023 2.10046 2.98023 2.44046 2.60023C2.78046 2.22023 3.25046 2.00023 3.76046 2.00023H21.7205ZM21.7205 0.000234375H3.76046C1.50046 0.000234375 -0.249539 1.98023 0.030461 4.23023L7.73046 75.3902H107.59L108.77 10.2802C108.73 8.23023 107.06 6.58023 105.01 6.58023H29.2705L25.7605 1.99023C24.8005 0.730234 23.3005 -0.00976562 21.7205 -0.00976562V0.000234375Z" fill="#2F3F64"/>
<path d="M75.78 75.3909H9.04004L27.23 20.5909C27.64 18.9009 29.15 17.7109 30.88 17.7109H126.39L107.5 75.3909" fill="white"/>
<path d="M75.78 75.3909H9.04004L27.23 20.5909C27.64 18.9009 29.15 17.7109 30.88 17.7109H126.39L107.5 75.3909" stroke="#2F3F64" stroke-width="2" stroke-linecap="round" stroke-linejoin="round"/>
<path d="M72.3008 47.5499C72.6908 42.3499 78.7108 38.2099 86.0708 38.2099C93.4308 38.2099 99.4508 42.3499 99.8408 47.5499C99.7308 48.2099 99.1608 48.6999 98.4808 48.6999H73.6608C72.9808 48.6999 72.4108 48.1999 72.3008 47.5499ZM86.0708 25.9199C89.4308 25.9199 92.1508 28.6699 92.1508 32.0699C92.1508 35.4699 89.4308 38.2199 86.0708 38.2199C82.7108 38.2199 79.9908 35.4699 79.9908 32.0699C79.9908 28.6699 82.7108 25.9199 86.0708 25.9199Z" fill="#2F3F64" stroke="#2F3F64" stroke-width="2" stroke-linecap="round" stroke-linejoin="round"/>
<path d="M35.6006 47.5499C35.9906 42.3499 42.0106 38.2099 49.3706 38.2099C56.7306 38.2099 62.7506 42.3499 63.1406 47.5499C63.0306 48.2099 62.4606 48.6999 61.7806 48.6999H36.9606C36.2806 48.6999 35.7106 48.1999 35.6006 47.5499ZM49.3706 25.9199C52.7306 25.9199 55.4506 28.6699 55.4506 32.0699C55.4506 35.4699 52.7306 38.2199 49.3706 38.2199C46.0106 38.2199 43.2906 35.4699 43.2906 32.0699C43.2906 28.6699 46.0106 25.9199 49.3706 25.9199Z" fill="#2F3F64" stroke="#2F3F64" stroke-width="2" stroke-linecap="round" stroke-linejoin="round"/>
<path d="M44.8311 63.8395C45.4711 55.2095 55.4711 48.3495 67.6811 48.3495C79.8911 48.3495 89.8811 55.2195 90.5311 63.8395C90.3511 64.9295 89.4011 65.7495 88.271 65.7495H47.0911C45.9611 65.7495 45.0211 64.9195 44.8311 63.8395ZM67.6711 27.9395C73.2411 27.9395 77.7611 32.5095 77.7611 38.1395C77.7611 43.7695 73.2411 48.3395 67.6711 48.3395C62.1011 48.3395 57.5811 43.7695 57.5811 38.1395C57.5811 32.5095 62.1011 27.9395 67.6711 27.9395Z" fill="#BCC5DC"/>
<path d="M90.5203 63.8395C90.3403 64.9295 89.3903 65.7495 88.2603 65.7495H47.0803C45.9503 65.7495 45.0103 64.9195 44.8203 63.8395C45.4603 55.2095 55.4603 48.3495 67.6703 48.3495C73.2303 48.3495 78.3203 49.7695 82.2903 52.1295M67.6703 27.9395C73.2403 27.9395 77.7603 32.5095 77.7603 38.1395C77.7603 43.7695 73.2403 48.3395 67.6703 48.3395C62.1003 48.3395 57.5803 43.7695 57.5803 38.1395C57.5803 32.5095 62.1003 27.9395 67.6703 27.9395Z" stroke="#2F3F64" stroke-width="2" stroke-linecap="round" stroke-linejoin="round"/>
<path d="M95.959 100.916L101.496 95.3794L124.272 118.155C125.799 119.683 125.799 122.157 124.272 123.685C122.744 125.212 120.269 125.212 118.742 123.685L95.9661 100.909L95.959 100.916Z" fill="#2F3F64" stroke="#2F3F64" stroke-width="2" stroke-linecap="round" stroke-linejoin="round"/>
<path d="M104.089 105.782C115.306 95.6574 116.191 78.3567 106.067 67.1397C95.942 55.9228 78.6413 55.0373 67.4243 65.1619C56.2074 75.2865 55.3219 92.5873 65.4465 103.804C75.5711 115.021 92.8719 115.907 104.089 105.782Z" fill="#BCC5DC" stroke="#2F3F64" stroke-width="2" stroke-linecap="round" stroke-linejoin="round"/>
<path d="M101.342 102.739C110.878 94.1316 111.631 79.4234 103.023 69.8874C94.416 60.3513 79.7078 59.5985 70.1718 68.2059C60.6358 76.8133 59.883 91.5215 68.4904 101.058C77.0978 110.594 91.8059 111.346 101.342 102.739Z" fill="#FEC95C" stroke="#2F3F64" stroke-width="2" stroke-linecap="round" stroke-linejoin="round"/>
<path d="M69.1598 71.209C70.5098 71.209 71.5798 71.729 72.3698 72.779C73.1598 73.829 73.5598 75.249 73.5598 77.049C73.5598 78.849 73.1598 80.279 72.3698 81.319C71.5798 82.359 70.5098 82.889 69.1598 82.889C67.8098 82.889 66.7598 82.369 65.9798 81.319C65.1998 80.269 64.7998 78.849 64.7998 77.049C64.7998 75.249 65.1898 73.819 65.9798 72.779C66.7698 71.739 67.8198 71.209 69.1598 71.209ZM69.1698 73.189C68.5498 73.189 68.0598 73.529 67.6998 74.209C67.3398 74.889 67.1598 75.829 67.1598 77.029C67.1598 78.229 67.3398 79.189 67.6998 79.879C68.0598 80.559 68.5498 80.909 69.1798 80.909C69.8098 80.909 70.2998 80.569 70.6598 79.879C71.0198 79.199 71.1998 78.249 71.1998 77.029C71.1998 75.809 71.0198 74.889 70.6598 74.209C70.2998 73.529 69.7998 73.189 69.1798 73.189H69.1698Z" fill="#2F3F64"/>
<path d="M81.3297 80.7199H82.7597C83.1497 80.7199 83.4397 80.7899 83.6097 80.9399C83.7797 81.0899 83.8697 81.3299 83.8697 81.6599C83.8697 81.9899 83.7897 82.2299 83.6097 82.3699C83.4297 82.5099 83.1497 82.5899 82.7497 82.5899H77.5497C77.1497 82.5899 76.8597 82.5199 76.6897 82.3699C76.5197 82.2199 76.4297 81.9899 76.4297 81.6599C76.4297 81.3299 76.5197 81.0799 76.6897 80.9399C76.8597 80.7899 77.1497 80.7199 77.5497 80.7199H79.1897V73.2899L78.1997 73.5399C78.0497 73.5799 77.9197 73.5999 77.8197 73.6199C77.7197 73.6399 77.6497 73.6499 77.5997 73.6499C77.3597 73.6499 77.1697 73.5699 77.0397 73.4199C76.9097 73.2699 76.8397 73.0499 76.8397 72.7699C76.8397 72.5599 76.9097 72.3899 77.0597 72.2499C77.2097 72.1099 77.4297 71.9999 77.7397 71.9199L79.9197 71.3199C80.0997 71.2699 80.2497 71.2399 80.3697 71.2099C80.4897 71.1899 80.5797 71.1699 80.6597 71.1699C80.8897 71.1699 81.0597 71.2299 81.1597 71.3599C81.2597 71.4899 81.3097 71.7099 81.3097 72.0099V80.6999L81.3297 80.7199Z" fill="#2F3F64"/>
<path d="M92.1598 80.7199H93.5898C93.9798 80.7199 94.2698 80.7899 94.4398 80.9399C94.6098 81.0899 94.6998 81.3299 94.6998 81.6599C94.6998 81.9899 94.6198 82.2299 94.4398 82.3699C94.2598 82.5099 93.9798 82.5899 93.5798 82.5899H88.3798C87.9798 82.5899 87.6898 82.5199 87.5198 82.3699C87.3498 82.2199 87.2598 81.9899 87.2598 81.6599C87.2598 81.3299 87.3498 81.0799 87.5198 80.9399C87.6898 80.7899 87.9798 80.7199 88.3798 80.7199H90.0198V73.2899L89.0298 73.5399C88.8798 73.5799 88.7498 73.5999 88.6498 73.6199C88.5498 73.6399 88.4798 73.6499 88.4298 73.6499C88.1898 73.6499 87.9998 73.5699 87.8698 73.4199C87.7398 73.2699 87.6698 73.0499 87.6698 72.7699C87.6698 72.5599 87.7398 72.3899 87.8898 72.2499C88.0398 72.1099 88.2598 71.9999 88.5698 71.9199L90.7498 71.3199C90.9298 71.2699 91.0798 71.2399 91.1998 71.2099C91.3198 71.1899 91.4098 71.1699 91.4898 71.1699C91.7198 71.1699 91.8898 71.2299 91.9898 71.3599C92.0898 71.4899 92.1398 71.7099 92.1398 72.0099V80.6999L92.1598 80.7199Z" fill="#2F3F64"/>
<path d="M101.62 71.209C102.97 71.209 104.04 71.729 104.83 72.779C105.62 73.829 106.02 75.249 106.02 77.049C106.02 78.849 105.62 80.279 104.83 81.319C104.04 82.359 102.97 82.889 101.62 82.889C100.27 82.889 99.2198 82.369 98.4398 81.319C97.6598 80.269 97.2598 78.849 97.2598 77.049C97.2598 75.249 97.6498 73.819 98.4398 72.779C99.2298 71.739 100.28 71.209 101.62 71.209ZM101.64 73.189C101.02 73.189 100.53 73.529 100.17 74.209C99.8098 74.889 99.6298 75.829 99.6298 77.029C99.6298 78.229 99.8098 79.189 100.17 79.879C100.53 80.559 101.02 80.909 101.65 80.909C102.28 80.909 102.77 80.569 103.13 79.879C103.49 79.199 103.67 78.249 103.67 77.029C103.67 75.809 103.49 74.889 103.13 74.209C102.77 73.529 102.27 73.189 101.65 73.189H101.64Z" fill="#2F3F64"/>
<path d="M70.5094 97.4816H71.9394C72.3294 97.4816 72.6194 97.5516 72.7894 97.7016C72.9594 97.8516 73.0494 98.0916 73.0494 98.4216C73.0494 98.7516 72.9694 98.9916 72.7894 99.1316C72.6094 99.2716 72.3294 99.3516 71.9294 99.3516H66.7294C66.3294 99.3516 66.0394 99.2816 65.8694 99.1316C65.6994 98.9816 65.6094 98.7516 65.6094 98.4216C65.6094 98.0916 65.6994 97.8416 65.8694 97.7016C66.0394 97.5516 66.3294 97.4816 66.7294 97.4816H68.3694V90.0516L67.3794 90.3016C67.2294 90.3416 67.0994 90.3616 66.9994 90.3816C66.8994 90.4016 66.8294 90.4116 66.7794 90.4116C66.5394 90.4116 66.3494 90.3316 66.2194 90.1816C66.0894 90.0316 66.0194 89.8116 66.0194 89.5316C66.0194 89.3216 66.0894 89.1516 66.2394 89.0116C66.3894 88.8716 66.6094 88.7616 66.9194 88.6816L69.0994 88.0816C69.2794 88.0316 69.4294 88.0016 69.5494 87.9716C69.6694 87.9516 69.7594 87.9316 69.8394 87.9316C70.0694 87.9316 70.2394 87.9916 70.3394 88.1216C70.4394 88.2516 70.4894 88.4716 70.4894 88.7716V97.4616L70.5094 97.4816Z" fill="#2F3F64"/>
<path d="M79.9791 87.9609C81.3291 87.9609 82.3991 88.4809 83.1891 89.5309C83.9791 90.5809 84.3791 92.0009 84.3791 93.8009C84.3791 95.6009 83.9791 97.0309 83.1891 98.0709C82.3991 99.1109 81.3291 99.6409 79.9791 99.6409C78.6291 99.6409 77.5791 99.1209 76.7991 98.0709C76.0191 97.0209 75.6191 95.6009 75.6191 93.8009C75.6191 92.0009 76.0091 90.5709 76.7991 89.5309C77.5891 88.4909 78.6391 87.9609 79.9791 87.9609ZM79.9991 89.9509C79.3791 89.9509 78.8891 90.2909 78.5291 90.9709C78.1691 91.6509 77.9891 92.5909 77.9891 93.7909C77.9891 94.9909 78.1691 95.9509 78.5291 96.6409C78.8891 97.3209 79.3791 97.6709 80.0091 97.6709C80.6391 97.6709 81.1291 97.3309 81.4891 96.6409C81.8491 95.9609 82.0291 95.0109 82.0291 93.7909C82.0291 92.5709 81.8491 91.6509 81.4891 90.9709C81.1291 90.2909 80.6291 89.9509 80.0091 89.9509H79.9991Z" fill="#2F3F64"/>
<path d="M90.7995 87.9609C92.1495 87.9609 93.2195 88.4809 94.0095 89.5309C94.7995 90.5809 95.1994 92.0009 95.1994 93.8009C95.1994 95.6009 94.7995 97.0309 94.0095 98.0709C93.2195 99.1109 92.1495 99.6409 90.7995 99.6409C89.4495 99.6409 88.3995 99.1209 87.6195 98.0709C86.8395 97.0209 86.4395 95.6009 86.4395 93.8009C86.4395 92.0009 86.8295 90.5709 87.6195 89.5309C88.4095 88.4909 89.4595 87.9609 90.7995 87.9609ZM90.8195 89.9509C90.1995 89.9509 89.7094 90.2909 89.3494 90.9709C88.9894 91.6509 88.8094 92.5909 88.8094 93.7909C88.8094 94.9909 88.9894 95.9509 89.3494 96.6409C89.7094 97.3209 90.1995 97.6709 90.8295 97.6709C91.4595 97.6709 91.9494 97.3309 92.3094 96.6409C92.6694 95.9609 92.8494 95.0109 92.8494 93.7909C92.8494 92.5709 92.6694 91.6509 92.3094 90.9709C91.9494 90.2909 91.4495 89.9509 90.8295 89.9509H90.8195Z" fill="#2F3F64"/>
<path d="M102.979 97.4816H104.409C104.799 97.4816 105.089 97.5516 105.259 97.7016C105.429 97.8516 105.519 98.0916 105.519 98.4216C105.519 98.7516 105.439 98.9916 105.259 99.1316C105.079 99.2716 104.799 99.3516 104.399 99.3516H99.1991C98.7991 99.3516 98.5091 99.2816 98.3391 99.1316C98.1691 98.9816 98.0791 98.7516 98.0791 98.4216C98.0791 98.0916 98.1691 97.8416 98.3391 97.7016C98.5091 97.5516 98.7991 97.4816 99.1991 97.4816H100.839V90.0516L99.8491 90.3016C99.6991 90.3416 99.5691 90.3616 99.4691 90.3816C99.3691 90.4016 99.2991 90.4116 99.2491 90.4116C99.0091 90.4116 98.8191 90.3316 98.6891 90.1816C98.5591 90.0316 98.4891 89.8116 98.4891 89.5316C98.4891 89.3216 98.5591 89.1516 98.7091 89.0116C98.8591 88.8716 99.0791 88.7616 99.3891 88.6816L101.569 88.0816C101.749 88.0316 101.899 88.0016 102.019 87.9716C102.139 87.9516 102.229 87.9316 102.309 87.9316C102.539 87.9316 102.709 87.9916 102.809 88.1216C102.909 88.2516 102.959 88.4716 102.959 88.7716V97.4616L102.979 97.4816Z" fill="#2F3F64"/>
</g>
<defs>
<clipPath id="clip0_583_3584">
<rect width="127.4" height="125.84" fill="white"/>
</clipPath>
</defs>
</svg>
