<svg width="128" height="115" viewBox="0 0 128 115" fill="none" xmlns="http://www.w3.org/2000/svg">
<g id="legal">
<path id="Vector" d="M102.991 16.0801H24.3711C23.8211 16.0801 23.3711 15.6301 23.3711 15.0801C23.3711 14.5301 23.8211 14.0801 24.3711 14.0801H102.991C103.541 14.0801 103.991 14.5301 103.991 15.0801C103.991 15.6301 103.541 16.0801 102.991 16.0801Z" fill="#2F3F64"/>
<path id="Vector_2" d="M112.231 114.94H15.0107C14.4607 114.94 14.0107 114.49 14.0107 113.94C14.0107 113.39 14.4607 112.94 15.0107 112.94H112.231C112.781 112.94 113.231 113.39 113.231 113.94C113.231 114.49 112.781 114.94 112.231 114.94Z" fill="#2F3F64"/>
<g id="Group">
<path id="Vector_3" d="M24.9307 100.6H102.311C103.971 100.6 105.311 101.94 105.311 103.6V113.73H21.9307V103.6C21.9307 101.94 23.2707 100.6 24.9307 100.6Z" fill="#2F3F64"/>
<path id="Vector_4" d="M105.311 114.73H21.9307C21.3807 114.73 20.9307 114.28 20.9307 113.73V103.6C20.9307 101.39 22.7207 99.5996 24.9307 99.5996H102.311C104.521 99.5996 106.311 101.39 106.311 103.6V113.73C106.311 114.28 105.861 114.73 105.311 114.73ZM22.9207 112.73H104.301V103.6C104.301 102.5 103.401 101.6 102.301 101.6H24.9207C23.8207 101.6 22.9207 102.5 22.9207 103.6V112.73Z" fill="#2F3F64"/>
</g>
<path id="Vector_5" d="M63.6211 101.6C63.0711 101.6 62.6211 101.15 62.6211 100.6V1C62.6211 0.45 63.0711 0 63.6211 0C64.1711 0 64.6211 0.45 64.6211 1V100.6C64.6211 101.15 64.1711 101.6 63.6211 101.6Z" fill="#2F3F64"/>
<g id="Group_2">
<path id="Vector_6" d="M63.6206 23.8496C68.4641 23.8496 72.3905 19.9231 72.3905 15.0796C72.3905 10.2361 68.4641 6.30957 63.6206 6.30957C58.7771 6.30957 54.8506 10.2361 54.8506 15.0796C54.8506 19.9231 58.7771 23.8496 63.6206 23.8496Z" fill="#FEC95C"/>
<path id="Vector_7" d="M63.6206 24.8496C58.2306 24.8496 53.8506 20.4696 53.8506 15.0796C53.8506 9.68959 58.2306 5.30957 63.6206 5.30957C69.0106 5.30957 73.3905 9.68959 73.3905 15.0796C73.3905 20.4696 69.0106 24.8496 63.6206 24.8496ZM63.6206 7.30957C59.3306 7.30957 55.8506 10.7996 55.8506 15.0796C55.8506 19.3596 59.3406 22.8496 63.6206 22.8496C67.9006 22.8496 71.3905 19.3596 71.3905 15.0796C71.3905 10.7996 67.9006 7.30957 63.6206 7.30957Z" fill="#2F3F64"/>
</g>
<path id="Vector_8" d="M47.6708 38.5605C47.4108 38.5605 47.1608 38.4605 46.9608 38.2705L25.0708 16.3805C24.6908 16.0005 24.0408 16.0005 23.6608 16.3805L1.77077 38.2705C1.38077 38.6605 0.750859 38.6605 0.360859 38.2705C-0.0291406 37.8805 -0.0291406 37.2506 0.360859 36.8606L22.2509 14.9705C23.3809 13.8405 25.3609 13.8405 26.4909 14.9705L48.3809 36.8606C48.7709 37.2506 48.7709 37.8805 48.3809 38.2705C48.1809 38.4705 47.9308 38.5605 47.6708 38.5605Z" fill="#2F3F64"/>
<g id="Group_3">
<path id="Vector_9" fill-rule="evenodd" clip-rule="evenodd" d="M47.6708 42.2998C47.6708 55.2098 37.2007 65.6798 24.2907 65.6798C12.1007 65.6798 2.09072 56.3598 1.01072 44.4498C0.900718 43.2898 1.84072 42.2998 3.01072 42.2998H24.3708" fill="#BCC5DC"/>
<path id="Vector_10" d="M24.2909 66.6798C11.6009 66.6798 1.16085 57.1598 0.0108523 44.5398C-0.0591477 43.7198 0.210872 42.8898 0.780872 42.2798C1.35087 41.6498 2.16085 41.2998 3.01085 41.2998H24.371C24.921 41.2998 25.371 41.7498 25.371 42.2998C25.371 42.8498 24.921 43.2998 24.371 43.2998H3.01085C2.72085 43.2998 2.45085 43.4198 2.26085 43.6298C2.07085 43.8298 1.99085 44.0898 2.01085 44.3598C3.07085 55.9398 12.6509 64.6798 24.3009 64.6798C36.6409 64.6798 46.6809 54.6398 46.6809 42.2998C46.6809 41.7498 47.1309 41.2998 47.6809 41.2998C48.2309 41.2998 48.6809 41.7498 48.6809 42.2998C48.6809 55.7398 37.7409 66.6798 24.3009 66.6798H24.2909Z" fill="#2F3F64"/>
</g>
<path id="Vector_11" d="M126.261 38.5605C126.001 38.5605 125.751 38.4605 125.551 38.2705L103.661 16.3805C103.281 16.0005 102.621 16.0005 102.251 16.3805L80.3607 38.2705C79.9707 38.6605 79.3407 38.6605 78.9507 38.2705C78.5607 37.8805 78.5607 37.2506 78.9507 36.8606L100.841 14.9705C101.971 13.8405 103.951 13.8405 105.081 14.9705L126.971 36.8606C127.361 37.2506 127.361 37.8805 126.971 38.2705C126.771 38.4705 126.521 38.5605 126.261 38.5605Z" fill="#2F3F64"/>
<g id="Group_4">
<path id="Vector_12" fill-rule="evenodd" clip-rule="evenodd" d="M79.6504 42.2998C79.6504 55.2098 90.1204 65.6798 103.03 65.6798C115.22 65.6798 125.23 56.3598 126.31 44.4498C126.42 43.2898 125.48 42.2998 124.31 42.2998H102.95" fill="#BCC5DC"/>
<path id="Vector_13" d="M103.03 66.6798C89.5904 66.6798 78.6504 55.7398 78.6504 42.2998C78.6504 41.7498 79.1004 41.2998 79.6504 41.2998C80.2004 41.2998 80.6504 41.7498 80.6504 42.2998C80.6504 54.6398 90.6904 64.6798 103.03 64.6798C114.68 64.6798 124.26 55.9398 125.32 44.3598C125.34 44.0898 125.26 43.8298 125.07 43.6298C124.88 43.4198 124.6 43.2998 124.32 43.2998H102.96C102.41 43.2998 101.96 42.8498 101.96 42.2998C101.96 41.7498 102.41 41.2998 102.96 41.2998H124.32C125.17 41.2998 125.98 41.6598 126.55 42.2898C127.11 42.8998 127.39 43.7298 127.31 44.5498C126.16 57.1698 115.72 66.6898 103.03 66.6898V66.6798Z" fill="#2F3F64"/>
</g>
</g>
</svg>
