<svg width="126" height="119" viewBox="0 0 126 119" fill="none" xmlns="http://www.w3.org/2000/svg">
<g id="license">
<g id="Group">
<path id="Vector" fill-rule="evenodd" clip-rule="evenodd" d="M116.95 94.94V98.32C116.92 100.81 114.79 102.82 112.17 102.82H4.73002C2.11002 102.82 -0.00996477 100.8 3.52327e-05 98.32L0.350011 17.25C0.360011 14.77 2.50003 12.75 5.12003 12.75H9.51999L9.18003 90.24C9.17003 92.83 11.38 94.94 14.11 94.94H116.95Z" fill="#2F3F64"/>
<path id="Vector_2" fill-rule="evenodd" clip-rule="evenodd" d="M114.84 5.69025L114.47 90.2402C114.46 92.8302 112.34 94.9402 109.75 94.9402H13.85C11.26 94.9402 9.15996 92.8402 9.16996 90.2402L9.53995 5.69025C9.54995 3.10025 11.6599 0.990234 14.2599 0.990234H110.16C112.75 0.990234 114.85 3.09025 114.84 5.69025Z" fill="white"/>
<path id="Vector_3" d="M109.76 95.94H13.8596C12.3396 95.94 10.9095 95.35 9.83954 94.27C8.76954 93.19 8.17958 91.76 8.18958 90.24L8.55957 5.69C8.56957 2.55 11.1395 0 14.2795 0H110.18C111.7 0 113.13 0.589983 114.2 1.66998C115.27 2.74998 115.86 4.18001 115.85 5.70001L115.48 90.25C115.47 93.39 112.9 95.94 109.76 95.94ZM14.2695 2C12.2295 2 10.5596 3.66001 10.5496 5.70001L10.1796 90.25C10.1796 91.24 10.5596 92.16 11.2496 92.86C11.9396 93.56 12.8696 93.94 13.8496 93.94H109.75C111.79 93.94 113.46 92.28 113.47 90.24L113.84 5.69C113.84 4.7 113.46 3.78002 112.77 3.08002C112.08 2.38002 111.15 2 110.16 2H14.2595H14.2695Z" fill="#2F3F64"/>
<path id="Vector_4" fill-rule="evenodd" clip-rule="evenodd" d="M9.51978 13.42L9.5498 5.45001C9.5598 2.99001 11.3698 1 13.5798 1H110.88C113.09 1 114.88 2.99001 114.87 5.45001L114.83 13.42H9.50977H9.51978Z" fill="#BCC5DC"/>
<path id="Vector_5" fill-rule="evenodd" clip-rule="evenodd" d="M20.5599 4.41992C22.0599 4.41992 23.2798 5.64991 23.2798 7.15991C23.2798 8.66991 22.0599 9.8999 20.5599 9.8999C19.0599 9.8999 17.8398 8.66991 17.8398 7.15991C17.8398 5.64991 19.0599 4.41992 20.5599 4.41992Z" fill="#2F3F64"/>
<path id="Vector_6" fill-rule="evenodd" clip-rule="evenodd" d="M30.9602 4.41992C32.4602 4.41992 33.6802 5.64991 33.6802 7.15991C33.6802 8.66991 32.4602 9.8999 30.9602 9.8999C29.4602 9.8999 28.2402 8.66991 28.2402 7.15991C28.2402 5.64991 29.4602 4.41992 30.9602 4.41992Z" fill="#2F3F64"/>
<path id="Vector_7" fill-rule="evenodd" clip-rule="evenodd" d="M41.8303 4.41992C43.3303 4.41992 44.5504 5.64991 44.5504 7.15991C44.5504 8.66991 43.3303 9.8999 41.8303 9.8999C40.3303 9.8999 39.1104 8.66991 39.1104 7.15991C39.1104 5.64991 40.3303 4.41992 41.8303 4.41992Z" fill="#2F3F64"/>
<path id="Vector_8" d="M78.1395 14.42H9.51953C9.24953 14.42 8.99957 14.31 8.80957 14.13C8.61957 13.94 8.51953 13.69 8.51953 13.42L8.54956 5.45001C8.55956 2.45001 10.8195 0 13.5795 0H110.91C112.17 0 113.37 0.510002 114.3 1.44C115.33 2.47 115.91 3.93996 115.9 5.45996L115.87 13.43C115.87 13.98 115.42 14.43 114.87 14.43C114.32 14.43 113.87 13.98 113.87 13.43L113.9 5.45996C113.9 4.45996 113.53 3.51999 112.88 2.85999C112.33 2.30999 111.63 2.01001 110.91 2.01001H13.5795C11.9195 2.01001 10.5596 3.55997 10.5496 5.46997L10.5195 12.44H78.1395C78.6895 12.44 79.1395 12.89 79.1395 13.44C79.1395 13.99 78.6895 14.44 78.1395 14.44V14.42Z" fill="#2F3F64"/>
<g id="Group_2">
<path id="Vector_9" d="M57.1103 74.0895C57.0303 74.0895 56.9503 74.0895 56.8703 74.0595C56.3303 73.9295 56.0102 73.3895 56.1402 72.8495L67.2403 27.8995C67.3703 27.3595 67.9102 27.0395 68.4502 27.1695C68.9902 27.2995 69.3103 27.8395 69.1803 28.3795L58.0802 73.3296C57.9702 73.7896 57.5603 74.0895 57.1103 74.0895Z" fill="#2F3F64"/>
<path id="Vector_10" d="M74.5894 66.68C74.3294 66.68 74.0794 66.58 73.8794 66.39C73.4894 66 73.4894 65.37 73.8794 64.98L87.3394 51.52C87.5294 51.33 87.6294 51.08 87.6294 50.81C87.6294 50.54 87.5294 50.29 87.3394 50.1L73.8794 36.64C73.4894 36.25 73.4894 35.62 73.8794 35.23C74.2694 34.84 74.8994 34.84 75.2894 35.23L88.7494 48.69C89.3194 49.26 89.6294 50.01 89.6294 50.81C89.6294 51.61 89.3194 52.36 88.7494 52.93L75.2894 66.39C75.0894 66.59 74.8394 66.68 74.5794 66.68H74.5894Z" fill="#2F3F64"/>
<path id="Vector_11" d="M50.8698 66.68C50.6098 66.68 50.3598 66.58 50.1598 66.39L36.6998 52.93C35.5298 51.76 35.5298 49.86 36.6998 48.69L50.1598 35.23C50.5498 34.84 51.1798 34.84 51.5698 35.23C51.9598 35.62 51.9598 36.25 51.5698 36.64L38.1098 50.1C37.7198 50.49 37.7198 51.12 38.1098 51.51L51.5698 64.97C51.9598 65.36 51.9598 65.99 51.5698 66.38C51.3698 66.58 51.1198 66.67 50.8598 66.67L50.8698 66.68Z" fill="#2F3F64"/>
</g>
</g>
<path id="Vector_12" fill-rule="evenodd" clip-rule="evenodd" d="M102.26 59.3603L105.18 58.4103C106.46 57.9903 107.87 58.3404 108.82 59.3104L110.96 61.5104C111.27 61.8204 111.66 62.0303 112.1 62.1103L115.12 62.6204C116.45 62.8504 117.54 63.8103 117.92 65.1003L118.79 68.0403C118.91 68.4603 119.17 68.8303 119.52 69.1003L121.96 70.9603C123.03 71.7803 123.55 73.1403 123.29 74.4603L122.7 77.4703C122.62 77.9003 122.67 78.3504 122.85 78.7404L124.15 81.5203C124.72 82.7403 124.55 84.1904 123.7 85.2404L121.78 87.6304C121.51 87.9704 121.35 88.3904 121.33 88.8304L121.19 91.8904C121.13 93.2404 120.3 94.4303 119.06 94.9703L116.25 96.1904C115.85 96.3604 115.51 96.6603 115.29 97.0403L113.74 99.6904C113.06 100.85 111.77 101.53 110.42 101.43L107.36 101.2C106.92 101.17 106.49 101.28 106.12 101.51L103.52 103.13C102.37 103.84 100.92 103.84 99.7802 103.13L97.1802 101.51C96.8102 101.28 96.3702 101.17 95.9402 101.2L92.8802 101.43C91.5302 101.53 90.2502 100.85 89.5602 99.6904L88.0102 97.0403C87.7902 96.6603 87.4502 96.3604 87.0502 96.1904L84.2402 94.9703C83.0002 94.4303 82.1802 93.2404 82.1102 91.8904L81.9702 88.8304C81.9502 88.3904 81.7902 87.9704 81.5202 87.6304L79.6002 85.2404C78.7502 84.1904 78.5802 82.7503 79.1502 81.5203L80.4502 78.7404C80.6402 78.3404 80.6902 77.9003 80.6002 77.4703L80.0102 74.4603C79.7502 73.1403 80.2602 71.7803 81.3402 70.9603L83.7802 69.1003C84.1302 68.8303 84.3802 68.4603 84.5102 68.0403L85.3802 65.1003C85.7602 63.8103 86.8502 62.8404 88.1802 62.6204L91.2002 62.1103C91.6302 62.0403 92.0302 61.8304 92.3402 61.5104L94.4802 59.3104C95.4202 58.3404 96.8302 57.9903 98.1202 58.4103L101.04 59.3603C101.46 59.5003 101.91 59.5003 102.32 59.3603H102.26Z" fill="#FEC95C"/>
<g id="Group_3">
<path id="Vector_13" fill-rule="evenodd" clip-rule="evenodd" d="M86.5307 95.9697L78.4207 109.61C78.3007 109.82 78.4607 110.08 78.7007 110.08H85.8907C86.1707 110.08 86.4207 110.25 86.5307 110.52L89.0907 117.2C89.1907 117.43 89.5107 117.45 89.6407 117.24L99.0007 102.66" fill="#FEC95C"/>
<path id="Vector_14" d="M89.3803 118.38C89.3803 118.38 89.3203 118.38 89.2803 118.38C88.8003 118.34 88.3803 118.05 88.1803 117.61L85.6803 111.08H78.7003C78.2403 111.08 77.8003 110.83 77.5703 110.43C77.3303 110.03 77.3303 109.53 77.5503 109.12L85.6703 95.4501C85.9503 94.9801 86.5703 94.8201 87.0403 95.1001C87.5203 95.3801 87.6703 96.0001 87.3903 96.4701L79.9003 109.07H85.8903C86.5803 109.07 87.2103 109.5 87.4603 110.15L89.5303 115.55L98.1603 102.11C98.4603 101.64 99.0803 101.51 99.5403 101.81C100 102.11 100.14 102.73 99.8403 103.19L90.4803 117.77C90.2403 118.15 89.8203 118.37 89.3703 118.37L89.3803 118.38Z" fill="#2F3F64"/>
</g>
<g id="Group_4">
<path id="Vector_15" fill-rule="evenodd" clip-rule="evenodd" d="M116.22 96.1797L123.51 109.61C123.63 109.82 123.47 110.08 123.23 110.08H116.04C115.76 110.08 115.51 110.25 115.4 110.52L112.84 117.2C112.74 117.43 112.42 117.45 112.29 117.24L103.08 103.34" fill="#FEC95C"/>
<path id="Vector_16" d="M112.56 118.38C112.11 118.38 111.7 118.16 111.45 117.78L102.25 103.89C101.94 103.43 102.07 102.81 102.53 102.5C102.99 102.19 103.61 102.32 103.92 102.78L112.4 115.58L114.48 110.16C114.73 109.51 115.36 109.08 116.05 109.08H122.09L115.35 96.6598C115.09 96.1698 115.27 95.5698 115.75 95.2998C116.23 95.0398 116.84 95.2198 117.11 95.6998L124.4 109.13C124.62 109.53 124.61 110.03 124.38 110.43C124.14 110.83 123.71 111.08 123.25 111.08H116.27L113.79 117.56C113.57 118.05 113.15 118.35 112.67 118.39C112.64 118.39 112.6 118.39 112.57 118.39L112.56 118.38ZM122.63 110.08C122.63 110.08 122.63 110.08 122.63 110.09V110.08Z" fill="#2F3F64"/>
</g>
<path id="Vector_17" d="M101.62 104.65C100.78 104.65 99.95 104.42 99.22 103.97L96.62 102.35C96.43 102.23 96.2 102.17 95.98 102.19L92.92 102.42C91.21 102.55 89.54 101.67 88.67 100.19L87.12 97.5403C87 97.3403 86.83 97.1903 86.62 97.1003L83.81 95.8804C82.23 95.2004 81.16 93.6403 81.08 91.9303L80.94 88.8703C80.93 88.6503 80.85 88.4303 80.71 88.2503L78.79 85.8603C77.7 84.5003 77.47 82.6803 78.21 81.0903L79.51 78.3103C79.61 78.1003 79.63 77.8803 79.59 77.6503L79 74.6404C78.67 72.9504 79.34 71.1903 80.7 70.1503L83.14 68.2903C83.32 68.1503 83.45 67.9603 83.52 67.7503L84.39 64.8103C84.89 63.1403 86.26 61.9204 87.98 61.6304L91 61.1203C91.22 61.0803 91.43 60.9803 91.58 60.8103L93.72 58.6103C94.92 57.3803 96.75 56.9303 98.38 57.4603L101.3 58.4103C101.52 58.4803 101.74 58.4803 101.96 58.4103L104.88 57.4603C106.51 56.9303 108.34 57.3803 109.54 58.6103L111.68 60.8103C111.84 60.9703 112.04 61.0803 112.27 61.1203L115.29 61.6304C117.01 61.9204 118.39 63.1403 118.88 64.8103L119.75 67.7503C119.81 67.9703 119.95 68.1603 120.13 68.2903L122.57 70.1503C123.94 71.1903 124.61 72.9504 124.27 74.6404L123.68 77.6503C123.64 77.8703 123.66 78.1003 123.76 78.3103L125.06 81.0903C125.8 82.6703 125.58 84.5003 124.48 85.8603L122.56 88.2503C122.42 88.4203 122.34 88.6403 122.33 88.8703L122.19 91.9303C122.11 93.6503 121.04 95.2004 119.46 95.8804L116.65 97.1003C116.44 97.1903 116.27 97.3403 116.16 97.5403L114.61 100.19C113.74 101.67 112.07 102.55 110.36 102.42L107.3 102.19C107.07 102.17 106.85 102.23 106.66 102.35L104.06 103.97C103.33 104.42 102.49 104.65 101.66 104.65H101.62ZM96.05 100.18C96.62 100.18 97.18 100.34 97.67 100.64L100.27 102.26C101.09 102.77 102.14 102.77 102.96 102.26L105.56 100.64C106.12 100.29 106.75 100.13 107.41 100.18L110.47 100.41C111.44 100.48 112.36 99.9903 112.85 99.1603L114.4 96.5104C114.73 95.9504 115.22 95.5103 115.82 95.2503L118.63 94.0303C119.51 93.6503 120.11 92.7804 120.16 91.8204L120.3 88.7604C120.33 88.1104 120.56 87.4903 120.98 86.9803L122.9 84.5903C123.51 83.8303 123.64 82.8103 123.22 81.9203L121.92 79.1404C121.64 78.5504 121.56 77.8903 121.69 77.2503L122.28 74.2403C122.47 73.3003 122.09 72.3103 121.33 71.7303L118.89 69.8703C118.37 69.4703 118 68.9303 117.81 68.3003L116.94 65.3603C116.66 64.4203 115.89 63.7404 114.93 63.5804L111.91 63.0704C111.26 62.9604 110.68 62.6503 110.22 62.1803L108.08 59.9803C107.41 59.2903 106.39 59.0403 105.47 59.3403L102.55 60.2903C101.93 60.4903 101.27 60.4903 100.65 60.2903L97.73 59.3403C96.82 59.0403 95.79 59.3003 95.12 59.9803L92.98 62.1803C92.52 62.6503 91.94 62.9604 91.3 63.0704L88.28 63.5804C87.32 63.7404 86.55 64.4303 86.27 65.3603L85.4 68.3003C85.22 68.9203 84.83 69.4703 84.32 69.8703L81.88 71.7303C81.12 72.3103 80.74 73.3003 80.93 74.2403L81.52 77.2503C81.65 77.8903 81.57 78.5504 81.29 79.1404L79.99 81.9203C79.58 82.8003 79.7 83.8303 80.31 84.5903L82.23 86.9803C82.64 87.4903 82.87 88.1004 82.9 88.7604L83.04 91.8204C83.08 92.7804 83.68 93.6503 84.57 94.0303L87.38 95.2503C87.98 95.5103 88.47 95.9504 88.8 96.5104L90.35 99.1603C90.84 99.9903 91.77 100.47 92.73 100.41L95.79 100.18C95.87 100.18 95.94 100.18 96.02 100.18H96.05Z" fill="#2F3F64"/>
</g>
</svg>
