<svg width="74" height="99" viewBox="0 0 74 99" fill="none" xmlns="http://www.w3.org/2000/svg">
<g id="location-1">
<path id="Vector" d="M5.8975 56.9746L6.0775 57.2446C6.3075 57.5846 6.5375 57.9146 6.7775 58.2746L33.5375 96.7246C34.8575 98.6146 37.4575 99.0846 39.3575 97.7646C39.7675 97.4846 40.1175 97.1246 40.3975 96.7246L67.0975 58.3146C67.3575 57.9546 67.5975 57.6046 67.8475 57.2846L68.0075 57.0346C79.0875 39.8846 74.1775 17.0046 57.0275 5.92459C39.8775 -5.15541 16.9975 -0.245405 5.9175 16.9046C-1.9725 29.1146 -1.9725 44.8246 5.9175 57.0346L5.8975 56.9846V56.9746Z" fill="#2F3F64"/>
<g id="Group">
<path id="Vector_2" d="M36.9679 17.8945C47.5079 17.8945 56.0579 26.4445 56.0579 36.9845C56.0579 47.5245 47.5079 56.0745 36.9679 56.0745C26.4279 56.0745 17.8779 47.5245 17.8779 36.9845C17.8779 26.4445 26.4279 17.8945 36.9679 17.8945Z" fill="#FEC95C"/>
<path id="Vector_3" d="M36.9679 57.0745C25.8879 57.0745 16.8779 48.0645 16.8779 36.9845C16.8779 25.9045 25.8879 16.8945 36.9679 16.8945C48.0479 16.8945 57.0579 25.9045 57.0579 36.9845C57.0579 48.0645 48.0479 57.0745 36.9679 57.0745ZM36.9679 18.8945C26.9979 18.8945 18.8779 27.0145 18.8779 36.9845C18.8779 46.9545 26.9979 55.0745 36.9679 55.0745C46.9379 55.0745 55.0579 46.9545 55.0579 36.9845C55.0579 27.0145 46.9379 18.8945 36.9679 18.8945Z" fill="#2F3F64"/>
</g>
</g>
</svg>
