<svg width="126" height="126" viewBox="0 0 126 126" fill="none" xmlns="http://www.w3.org/2000/svg">
<path d="M4.84594 37.47L1.01595 2.05C0.975954 1.77 1.05596 1.51 1.23596 1.31C1.41596 1.11 1.65596 1 1.92596 1H11.0959C11.5859 1 12.066 1.23 12.366 1.63L14.1559 3.97C14.3459 4.22 14.6359 4.36 14.9459 4.36H49.8459C50.3459 4.36 50.756 4.77 50.766 5.26L50.1859 37.47H4.85595H4.84594Z" fill="#2F3F64"/>
<path d="M11.0864 2C11.2664 2 11.4464 2.09 11.5564 2.23L13.3464 4.57C13.7264 5.07 14.3164 5.36 14.9364 5.36H49.7464L49.1864 36.47H5.73638L2.00637 2H11.0764M11.0864 0H1.91637C0.76637 0 -0.133624 1.01 0.0163757 2.16L3.94637 38.47H51.1564L51.7564 5.25C51.7364 4.2 50.8864 3.36 49.8364 3.36H14.9364L13.1464 1.02C12.6564 0.38 11.8964 0 11.0864 0Z" fill="#2F3F64"/>
<path d="M38.6759 38.4691H5.06589C4.84589 38.4691 4.68589 38.2491 4.75589 38.0491L13.8959 10.5091C14.1059 9.64906 14.8759 9.03906 15.7559 9.03906H58.1059C59.4059 9.03906 60.3259 10.3091 59.9259 11.5491L51.1059 38.4691" fill="#FEC95C"/>
<path d="M51.116 39.4691C51.016 39.4691 50.906 39.4491 50.806 39.4191C50.286 39.2491 49.996 38.6791 50.166 38.1591L58.986 11.2391C59.076 10.9591 59.026 10.6591 58.856 10.4191C58.686 10.1791 58.416 10.0391 58.116 10.0391H15.766C15.336 10.0391 14.976 10.3291 14.876 10.7391L6.00596 37.4691H38.676C39.226 37.4691 39.676 37.9191 39.676 38.4691C39.676 39.0191 39.226 39.4691 38.676 39.4691H5.06596C4.64596 39.4691 4.23595 39.2591 3.99595 38.9191C3.75595 38.5791 3.67596 38.1291 3.81596 37.7291L12.956 10.1891C13.246 8.95906 14.416 8.03906 15.766 8.03906H58.116C59.056 8.03906 59.916 8.47906 60.476 9.23906C61.026 9.99906 61.176 10.9591 60.886 11.8591L52.066 38.7791C51.926 39.1991 51.536 39.4691 51.116 39.4691Z" fill="#2F3F64"/>
<path d="M25.9163 25.3596L25.9563 25.4196C26.0063 25.4896 26.0563 25.5596 26.1063 25.6296L31.6763 33.6296C31.9463 34.0196 32.4963 34.1196 32.8863 33.8496C32.9663 33.7896 33.0463 33.7196 33.1063 33.6296L38.6663 25.6296C38.7163 25.5596 38.7663 25.4796 38.8263 25.4196L38.8563 25.3696C41.1663 21.7996 40.1363 17.0396 36.5663 14.7296C32.9963 12.4196 28.2363 13.4496 25.9263 17.0196C24.2863 19.5596 24.2863 22.8296 25.9263 25.3696L25.9163 25.3596Z" fill="#2F3F64"/>
<path d="M32.386 17.2188C34.576 17.2188 36.356 18.9987 36.356 21.1887C36.356 23.3787 34.576 25.1588 32.386 25.1588C30.196 25.1588 28.416 23.3787 28.416 21.1887C28.416 18.9987 30.196 17.2188 32.386 17.2188Z" fill="#FEC95C"/>
<path d="M69.4856 78.2005L65.6556 42.7805C65.6156 42.5005 65.6956 42.2405 65.8756 42.0405C66.0556 41.8405 66.2956 41.7305 66.5656 41.7305H75.7356C76.2256 41.7305 76.7056 41.9605 77.0056 42.3605L78.7956 44.7005C78.9856 44.9505 79.2756 45.0905 79.5856 45.0905H114.486C114.986 45.0905 115.396 45.5005 115.406 45.9905L114.826 78.1905H69.4956L69.4856 78.2005Z" fill="#2F3F64"/>
<path d="M75.726 42.7305C75.906 42.7305 76.086 42.8205 76.196 42.9605L77.986 45.3005C78.366 45.8005 78.956 46.0905 79.576 46.0905H114.386L113.826 77.2005H70.376L66.646 42.7305H75.716M75.726 40.7305H66.556C65.406 40.7305 64.506 41.7405 64.656 42.8905L68.586 79.2005H115.796L116.396 45.9805C116.376 44.9305 115.526 44.0905 114.476 44.0905H79.576L77.786 41.7505C77.296 41.1105 76.536 40.7305 75.726 40.7305Z" fill="#2F3F64"/>
<path d="M103.316 79.1995H69.7055C69.4855 79.1995 69.3255 78.9795 69.3955 78.7795L78.5355 51.2395C78.7455 50.3795 79.5155 49.7695 80.3955 49.7695H122.746C124.046 49.7695 124.966 51.0395 124.566 52.2795L115.746 79.1995" fill="white"/>
<path d="M115.756 80.1995C115.656 80.1995 115.546 80.1795 115.446 80.1495C114.926 79.9795 114.636 79.4095 114.806 78.8895L123.626 51.9695C123.716 51.6895 123.676 51.3895 123.496 51.1495C123.316 50.9095 123.056 50.7695 122.756 50.7695H80.4056C79.9756 50.7695 79.6156 51.0595 79.5156 51.4695L70.6456 78.1995H103.316C103.866 78.1995 104.316 78.6495 104.316 79.1995C104.316 79.7495 103.866 80.1995 103.316 80.1995H69.7056C69.2856 80.1995 68.8756 79.9895 68.6356 79.6495C68.3956 79.3095 68.3156 78.8595 68.4556 78.4595L77.5956 50.9195C77.8856 49.6895 79.0556 48.7695 80.4056 48.7695H122.756C123.696 48.7695 124.556 49.2095 125.116 49.9695C125.666 50.7395 125.816 51.6895 125.526 52.5895L116.706 79.5095C116.566 79.9295 116.176 80.1995 115.756 80.1995Z" fill="#2F3F64"/>
<path d="M90.556 66.0901L90.5959 66.1501C90.6459 66.2201 90.6959 66.2901 90.7459 66.3601L96.3159 74.3601C96.5859 74.7501 97.136 74.8501 97.526 74.5801C97.606 74.5201 97.6859 74.4501 97.7459 74.3601L103.306 66.3601C103.356 66.2901 103.406 66.2101 103.466 66.1501L103.496 66.1001C105.806 62.5301 104.776 57.7701 101.206 55.4601C97.636 53.1501 92.8759 54.1801 90.5659 57.7501C88.9259 60.2901 88.9259 63.5601 90.5659 66.1001L90.556 66.0901Z" fill="#2F3F64"/>
<path d="M97.0257 57.9609C99.2157 57.9609 100.996 59.7409 100.996 61.9309C100.996 64.1209 99.2157 65.9009 97.0257 65.9009C94.8357 65.9009 93.0557 64.1209 93.0557 61.9309C93.0557 59.7409 94.8357 57.9609 97.0257 57.9609Z" fill="white"/>
<path d="M69.4856 123.07L65.6556 87.6496C65.6156 87.3696 65.6956 87.1096 65.8756 86.9096C66.0556 86.7096 66.2956 86.5996 66.5656 86.5996H75.7356C76.2256 86.5996 76.7056 86.8296 77.0056 87.2296L78.7956 89.5696C78.9856 89.8196 79.2756 89.9596 79.5856 89.9596H114.486C114.986 89.9596 115.396 90.3696 115.406 90.8596L114.826 123.07H69.4956H69.4856Z" fill="#2F3F64"/>
<path d="M75.726 87.6094C75.906 87.6094 76.086 87.6994 76.196 87.8394L77.986 90.1794C78.366 90.6794 78.956 90.9694 79.576 90.9694H114.386L113.826 122.079H70.376L66.646 87.6094H75.716M75.726 85.6094H66.556C65.406 85.6094 64.506 86.6194 64.656 87.7694L68.586 124.079H115.796L116.396 90.8594C116.376 89.8094 115.526 88.9694 114.476 88.9694H79.576L77.786 86.6294C77.296 85.9894 76.536 85.6094 75.726 85.6094Z" fill="#2F3F64"/>
<path d="M103.316 124.069H69.7055C69.4855 124.069 69.3255 123.849 69.3955 123.649L78.5355 96.1087C78.7455 95.2487 79.5155 94.6387 80.3955 94.6387H122.746C124.046 94.6387 124.966 95.9087 124.566 97.1487L115.746 124.069" fill="#BCC5DC"/>
<path d="M115.756 125.069C115.656 125.069 115.546 125.049 115.446 125.019C114.926 124.849 114.636 124.279 114.806 123.759L123.626 96.8387C123.716 96.5587 123.676 96.2587 123.496 96.0187C123.316 95.7787 123.056 95.6387 122.756 95.6387H80.4056C79.9756 95.6387 79.6156 95.9287 79.5156 96.3387L70.6456 123.069H103.316C103.866 123.069 104.316 123.519 104.316 124.069C104.316 124.619 103.866 125.069 103.316 125.069H69.7056C69.2856 125.069 68.8756 124.859 68.6356 124.519C68.3956 124.179 68.3156 123.729 68.4556 123.329L77.5956 95.7887C77.8856 94.5587 79.0556 93.6387 80.4056 93.6387H122.756C123.696 93.6387 124.556 94.0787 125.116 94.8387C125.666 95.5987 125.816 96.5587 125.526 97.4587L116.706 124.379C116.566 124.799 116.176 125.069 115.756 125.069Z" fill="#2F3F64"/>
<path d="M90.556 110.971L90.5959 111.031C90.6459 111.101 90.6959 111.171 90.7459 111.241L96.3159 119.241C96.5859 119.631 97.136 119.731 97.526 119.461C97.606 119.401 97.6859 119.331 97.7459 119.241L103.306 111.241C103.356 111.171 103.406 111.091 103.466 111.031L103.496 110.981C105.806 107.411 104.776 102.651 101.206 100.341C97.636 98.031 92.8759 99.061 90.5659 102.631C88.9259 105.171 88.9259 108.441 90.5659 110.981L90.556 110.971Z" fill="#2F3F64"/>
<path d="M97.0257 102.83C99.2157 102.83 100.996 104.61 100.996 106.8C100.996 108.99 99.2157 110.77 97.0257 110.77C94.8357 110.77 93.0557 108.99 93.0557 106.8C93.0557 104.61 94.8357 102.83 97.0257 102.83Z" fill="#BCC5DC"/>
<path d="M69.3863 106.521H35.8663C33.0163 106.521 30.6963 104.201 30.6963 101.351V38.4609C30.6963 37.9109 31.1463 37.4609 31.6963 37.4609C32.2463 37.4609 32.6963 37.9109 32.6963 38.4609V101.351C32.6963 103.101 34.1163 104.521 35.8663 104.521H69.3863C69.9363 104.521 70.3863 104.971 70.3863 105.521C70.3863 106.071 69.9363 106.521 69.3863 106.521Z" fill="#2F3F64"/>
<path d="M69.3863 65.1807H35.8663C33.0163 65.1807 30.6963 62.8607 30.6963 60.0107V44.2207C30.6963 43.6707 31.1463 43.2207 31.6963 43.2207C32.2463 43.2207 32.6963 43.6707 32.6963 44.2207V60.0107C32.6963 61.7607 34.1163 63.1807 35.8663 63.1807H69.3863C69.9363 63.1807 70.3863 63.6307 70.3863 64.1807C70.3863 64.7307 69.9363 65.1807 69.3863 65.1807Z" fill="#2F3F64"/>
</svg>
