<svg width="129" height="123" viewBox="0 0 129 123" fill="none" xmlns="http://www.w3.org/2000/svg">
<g id="location-2">
<path id="Vector" fill-rule="evenodd" clip-rule="evenodd" d="M111.93 76.7929C113.1 76.7929 114.24 76.8829 115.36 77.0429V13.0429L77.2402 1.00293V92.9429L88.3502 96.4529C90.3902 85.2729 100.17 76.7929 111.93 76.7929Z" fill="white"/>
<path id="Vector_2" fill-rule="evenodd" clip-rule="evenodd" d="M39.1202 104.983L0.990234 92.9329V1.00293L39.1202 13.0429V104.983Z" fill="#2F3F64"/>
<path id="Vector_3" fill-rule="evenodd" clip-rule="evenodd" d="M39.1201 104.983L77.2401 92.9329V1.00293L39.1201 13.0429V104.983Z" fill="#BCC5DC"/>
<path id="Vector_4" d="M39.12 105.983C39.02 105.983 38.92 105.963 38.82 105.933L0.699997 93.8934C0.279997 93.7634 0 93.3734 0 92.9434V1.00339C0 0.683393 0.149988 0.383393 0.409988 0.193393C0.669988 0.00339293 0.999988 -0.0466072 1.29999 0.0433928L39.42 12.0834C39.84 12.2134 40.12 12.6034 40.12 13.0334V104.973C40.12 105.293 39.97 105.593 39.71 105.783C39.54 105.913 39.33 105.973 39.12 105.973V105.983ZM1.98999 92.2034L38.11 103.613V13.7734L1.98999 2.36339V92.2034Z" fill="#2F3F64"/>
<path id="Vector_5" d="M39.1201 105.984C38.9101 105.984 38.7001 105.914 38.5301 105.794C38.2701 105.604 38.1201 105.304 38.1201 104.984V13.0437C38.1201 12.6037 38.4001 12.2237 38.8201 12.0937L76.9401 0.0536926C77.2401 -0.0463074 77.5701 0.0136927 77.8301 0.203693C78.0901 0.393693 78.2401 0.693693 78.2401 1.01369V92.9537C78.2401 93.3937 77.9601 93.7737 77.5401 93.9037L39.4201 105.944C39.3201 105.974 39.2201 105.994 39.1201 105.994V105.984ZM40.1201 13.7737V103.614L76.2401 92.2037V2.36369L40.1201 13.7737Z" fill="#2F3F64"/>
<path id="Vector_6" d="M88.3502 97.4434C88.2502 97.4434 88.1502 97.4334 88.0502 97.3934L76.9402 93.8834C76.5202 93.7534 76.2402 93.3634 76.2402 92.9334V1.00339C76.2402 0.683393 76.3902 0.383393 76.6502 0.193393C76.9102 0.00339293 77.2402 -0.0466072 77.5402 0.0433928L115.66 12.0834C116.08 12.2134 116.36 12.6034 116.36 13.0334V49.5434C116.36 50.0934 115.91 50.5434 115.36 50.5434C114.81 50.5434 114.36 50.0934 114.36 49.5434V13.7734L78.2402 2.36339V92.2034L88.6502 95.4934C89.1802 95.6634 89.4702 96.2234 89.3002 96.7434C89.1702 97.1734 88.7702 97.4434 88.3502 97.4434Z" fill="#2F3F64"/>
<g id="Group">
<path id="Vector_7" d="M102.76 121.773C116.192 121.773 127.08 110.884 127.08 97.4528C127.08 84.0212 116.192 73.1328 102.76 73.1328C89.3289 73.1328 78.4404 84.0212 78.4404 97.4528C78.4404 110.884 89.3289 121.773 102.76 121.773Z" fill="#BCC5DC"/>
<path id="Vector_8" d="M102.76 122.763C88.8004 122.763 77.4404 111.403 77.4404 97.443C77.4404 83.483 88.8004 72.123 102.76 72.123C116.72 72.123 128.08 83.483 128.08 97.443C128.08 111.403 116.72 122.763 102.76 122.763ZM102.76 74.133C89.9004 74.133 79.4404 84.593 79.4404 97.453C79.4404 110.313 89.9004 120.773 102.76 120.773C115.62 120.773 126.08 110.313 126.08 97.453C126.08 84.593 115.62 74.133 102.76 74.133Z" fill="#2F3F64"/>
</g>
<g id="Group_2">
<path id="Vector_9" d="M91.0103 101.883L91.0803 101.983C91.1703 102.113 91.2503 102.233 91.3403 102.373L101.47 116.923C101.97 117.643 102.95 117.813 103.67 117.313C103.82 117.203 103.96 117.073 104.06 116.923L114.16 102.383C114.26 102.243 114.35 102.113 114.44 101.993L114.5 101.903C118.69 95.4135 116.83 86.7535 110.34 82.5635C103.85 78.3735 95.1903 80.2335 91.0003 86.7235C88.0103 91.3435 88.0103 97.2835 91.0003 101.903V101.883H91.0103Z" fill="#2F3F64"/>
<path id="Vector_10" d="M102.76 87.0938C106.75 87.0938 109.98 90.3238 109.98 94.3138C109.98 98.3038 106.75 101.534 102.76 101.534C98.77 101.534 95.54 98.3038 95.54 94.3138C95.54 90.3238 98.77 87.0938 102.76 87.0938Z" fill="#FEC95C"/>
</g>
</g>
</svg>
