<svg width="76" height="88" viewBox="0 0 76 88" fill="none" xmlns="http://www.w3.org/2000/svg">
<g id="lock">
<path id="Vector" d="M69.13 23.5098H6C3.23858 23.5098 1 25.7483 1 28.5098V81.0698C1 83.8312 3.23858 86.0698 6 86.0698H69.13C71.8914 86.0698 74.13 83.8312 74.13 81.0698V28.5098C74.13 25.7483 71.8914 23.5098 69.13 23.5098Z" fill="#BCC5DC"/>
<path id="Vector_2" d="M69.13 87.0698H6C2.69 87.0698 0 84.3798 0 81.0698V28.5098C0 25.1998 2.69 22.5098 6 22.5098H57.76C58.31 22.5098 58.76 22.9598 58.76 23.5098C58.76 24.0598 58.31 24.5098 57.76 24.5098H6C3.79 24.5098 2 26.2998 2 28.5098V81.0698C2 83.2798 3.79 85.0698 6 85.0698H69.13C71.34 85.0698 73.13 83.2798 73.13 81.0698V43.7698C73.13 43.2198 73.58 42.7698 74.13 42.7698C74.68 42.7698 75.13 43.2198 75.13 43.7698V81.0698C75.13 84.3798 72.44 87.0698 69.13 87.0698Z" fill="#2F3F64"/>
<path id="Vector_3" d="M52.7001 24.51C52.1501 24.51 51.7001 24.06 51.7001 23.51V18.1C51.7001 9.22004 44.4801 2 35.6001 2C26.7201 2 19.5 9.22004 19.5 18.1V23.51C19.5 24.06 19.05 24.51 18.5 24.51C17.95 24.51 17.5 24.06 17.5 23.51V18.1C17.5 8.12004 25.6201 0 35.6001 0C45.5801 0 53.7001 8.12004 53.7001 18.1V23.51C53.7001 24.06 53.2501 24.51 52.7001 24.51Z" fill="#2F3F64"/>
<path id="Vector_4" d="M45.2602 50.2596C45.2602 45.7196 41.3302 42.0995 36.6802 42.6095C33.2002 42.9995 30.3702 45.7796 29.9302 49.2496C29.4502 53.0296 31.7202 56.3496 35.0102 57.5096V64.9596C35.0102 66.0996 35.9303 67.0196 37.0703 67.0196H38.0603C39.2003 67.0196 40.1202 66.0996 40.1202 64.9596V57.5096C43.1102 56.4596 45.2602 53.6096 45.2602 50.2596Z" fill="#2F3F64"/>
</g>
</svg>
