<svg width="75" height="123" viewBox="0 0 75 123" fill="none" xmlns="http://www.w3.org/2000/svg">
<g id="mobility">
<g id="Group">
<path id="Vector" d="M37.4994 59.0794C36.9494 59.0794 36.4994 58.6294 36.4994 58.0794V44.2694C36.4994 40.4894 35.0294 36.9294 32.3494 34.2594L6.08937 7.99937C5.69938 7.60937 5.69938 6.97938 6.08937 6.58937C6.47938 6.19938 7.10938 6.19938 7.49938 6.58937L33.7594 32.8494C36.8094 35.8994 38.4894 39.9594 38.4894 44.2794V58.0894C38.4894 58.6394 38.0394 59.0894 37.4894 59.0894L37.4994 59.0794Z" fill="#2F3F64"/>
<path id="Vector_2" d="M17.2598 6.18977L17.1898 8.18976L7.33975 7.82977L7.69977 17.6898L5.69977 17.7598L5.25977 5.75977L17.2598 6.18977Z" fill="#2F3F64"/>
</g>
<g id="Group_2">
<path id="Vector_3" d="M37.5 59.0796C36.95 59.0796 36.5 58.6296 36.5 58.0796V44.2696C36.5 39.9496 38.18 35.8996 41.23 32.8396L67.49 6.57961C67.88 6.18961 68.51 6.18961 68.9 6.57961C69.29 6.96961 69.29 7.59961 68.9 7.98961L42.64 34.2496C39.97 36.9196 38.49 40.4796 38.49 44.2596V58.0696C38.49 58.6196 38.04 59.0696 37.49 59.0696L37.5 59.0796Z" fill="#2F3F64"/>
<path id="Vector_4" d="M69.3005 17.7598L67.3005 17.6898L67.6605 7.83977L57.8005 8.19977L57.7305 6.18977L69.7305 5.75977L69.3005 17.7598Z" fill="#2F3F64"/>
</g>
<g id="Group_3">
<path id="Vector_5" d="M37.5 44.3299C36.95 44.3299 36.5 43.8799 36.5 43.3299V2.16992C36.5 1.61992 36.95 1.16992 37.5 1.16992C38.05 1.16992 38.5 1.61992 38.5 2.16992V43.3299C38.5 43.8799 38.05 44.3299 37.5 44.3299Z" fill="#2F3F64"/>
<path id="Vector_6" d="M45.6703 8.8L44.2103 10.16L37.5003 2.94L30.7803 10.16L29.3203 8.8L37.5003 0L45.6703 8.8Z" fill="#2F3F64"/>
</g>
<path id="Vector_7" d="M37.5 121.44C57.6584 121.44 74 105.099 74 84.9404C74 64.782 57.6584 48.4404 37.5 48.4404C17.3416 48.4404 1 64.782 1 84.9404C1 105.099 17.3416 121.44 37.5 121.44Z" fill="#BCC5DC"/>
<path id="Vector_8" d="M37.5 122.43C16.83 122.43 0 105.61 0 84.9297C0 64.2497 16.82 47.4297 37.5 47.4297C43.74 47.4297 49.92 48.9997 55.37 51.9597C55.86 52.2197 56.04 52.8297 55.77 53.3197C55.51 53.7997 54.9 53.9797 54.41 53.7197C49.25 50.9197 43.4 49.4397 37.49 49.4397C17.92 49.4397 1.99002 65.3597 1.99002 84.9397C1.99002 104.52 17.91 120.44 37.49 120.44C57.07 120.44 72.99 104.52 72.99 84.9397C72.99 84.3897 73.44 83.9397 73.99 83.9397C74.54 83.9397 74.99 84.3897 74.99 84.9397C74.99 105.61 58.17 122.44 37.49 122.44L37.5 122.43Z" fill="#2F3F64"/>
<g id="Group_4">
<path id="Vector_9" d="M21.6703 88.8801L21.7603 89.0201C21.8803 89.1901 22.0003 89.3601 22.1203 89.5401L35.7603 109.13C36.4303 110.1 37.7603 110.33 38.7203 109.66C38.9303 109.52 39.1103 109.34 39.2503 109.13L52.8503 89.5601C52.9803 89.3801 53.1103 89.2001 53.2303 89.0401L53.3103 88.9101C58.9603 80.1701 56.4503 68.5101 47.7103 62.8701C38.9703 57.2201 27.3103 59.7301 21.6703 68.4701C17.6503 74.6901 17.6503 82.7001 21.6703 88.9201V88.8901V88.8801Z" fill="#2F3F64"/>
<path id="Vector_10" d="M37.5005 68.96C42.8705 68.96 47.2305 73.31 47.2305 78.69C47.2305 84.07 42.8805 88.42 37.5005 88.42C32.1205 88.42 27.7705 84.07 27.7705 78.69C27.7705 73.32 32.1205 68.96 37.5005 68.96Z" fill="#FEC95C"/>
</g>
</g>
</svg>
