<svg viewBox="0 0 129 127" fill="none" xmlns="http://www.w3.org/2000/svg">
<g id="monitoring">
<g id="Group">
<path id="Vector" d="M36.4996 1.05957H5.32959C3.26957 1.05957 1.59961 2.72953 1.59961 4.78955V26.4895C1.59961 28.5495 3.26957 30.2195 5.32959 30.2195H36.4996C38.5596 30.2195 40.2296 28.5495 40.2296 26.4895V4.78955C40.2296 2.72953 38.5596 1.05957 36.4996 1.05957Z" fill="white"/>
<path id="Vector_2" d="M36.4998 31.2197H5.31985C2.70985 31.2197 0.589844 29.0997 0.589844 26.4897V4.77979C0.589844 2.16979 2.70985 0.0498047 5.31985 0.0498047H36.4998C39.1098 0.0498047 41.2299 2.16979 41.2299 4.77979V26.4897C41.2299 29.0997 39.1098 31.2197 36.4998 31.2197ZM5.32983 2.05981C3.82983 2.05981 2.59985 3.27979 2.59985 4.78979V26.4998C2.59985 27.9998 3.81983 29.2297 5.32983 29.2297H36.5099C38.0099 29.2297 39.2398 28.0098 39.2398 26.4998V4.78979C39.2398 3.28979 38.0199 2.05981 36.5099 2.05981H5.32983Z" fill="#2F3F64"/>
</g>
<g id="Group_2">
<path id="Vector_3" d="M79.8903 1.05957H48.7202C46.6602 1.05957 44.9902 2.72953 44.9902 4.78955V26.4895C44.9902 28.5495 46.6602 30.2195 48.7202 30.2195H79.8903C81.9503 30.2195 83.6202 28.5495 83.6202 26.4895V4.78955C83.6202 2.72953 81.9503 1.05957 79.8903 1.05957Z" fill="#FEC95C"/>
<path id="Vector_4" d="M79.9002 31.2197H48.7202C46.1102 31.2197 43.9902 29.0997 43.9902 26.4897V4.77979C43.9902 2.16979 46.1102 0.0498047 48.7202 0.0498047H79.9002C82.5102 0.0498047 84.6302 2.16979 84.6302 4.77979V26.4897C84.6302 29.0997 82.5102 31.2197 79.9002 31.2197ZM48.7202 2.05981C47.2202 2.05981 45.9902 3.27979 45.9902 4.78979V26.4998C45.9902 27.9998 47.2102 29.2297 48.7202 29.2297H79.9002C81.4002 29.2297 82.6302 28.0098 82.6302 26.4998V4.78979C82.6302 3.28979 81.4102 2.05981 79.9002 2.05981H48.7202Z" fill="#2F3F64"/>
</g>
<g id="Group_3">
<path id="Vector_5" d="M123.28 1.05957H92.1099C90.0498 1.05957 88.3799 2.72953 88.3799 4.78955V26.4895C88.3799 28.5495 90.0498 30.2195 92.1099 30.2195H123.28C125.34 30.2195 127.01 28.5495 127.01 26.4895V4.78955C127.01 2.72953 125.34 1.05957 123.28 1.05957Z" fill="white"/>
<path id="Vector_6" d="M123.29 31.2197H92.1099C89.4999 31.2197 87.3799 29.0997 87.3799 26.4897V4.77979C87.3799 2.16979 89.4999 0.0498047 92.1099 0.0498047H123.29C125.9 0.0498047 128.02 2.16979 128.02 4.77979V26.4897C128.02 29.0997 125.9 31.2197 123.29 31.2197ZM92.1099 2.05981C90.6099 2.05981 89.3799 3.27979 89.3799 4.78979V26.4998C89.3799 27.9998 90.5999 29.2297 92.1099 29.2297H123.29C124.79 29.2297 126.02 28.0098 126.02 26.4998V4.78979C126.02 3.28979 124.8 2.05981 123.29 2.05981H92.1099Z" fill="#2F3F64"/>
</g>
<g id="Group_4">
<path id="Vector_7" d="M36.4996 37.959H5.32959C3.26957 37.959 1.59961 39.6289 1.59961 41.689V63.389C1.59961 65.4491 3.26957 67.119 5.32959 67.119H36.4996C38.5596 67.119 40.2296 65.4491 40.2296 63.389V41.689C40.2296 39.6289 38.5596 37.959 36.4996 37.959Z" fill="white"/>
<path id="Vector_8" d="M36.4998 68.1193H5.31985C2.70985 68.1193 0.589844 65.9993 0.589844 63.3893V41.6793C0.589844 39.0693 2.70985 36.9492 5.31985 36.9492H36.4998C39.1098 36.9492 41.2299 39.0693 41.2299 41.6793V63.3893C41.2299 65.9993 39.1098 68.1193 36.4998 68.1193ZM5.32983 38.9592C3.82983 38.9592 2.59985 40.1792 2.59985 41.6892V63.3993C2.59985 64.8993 3.81983 66.1293 5.32983 66.1293H36.5099C38.0099 66.1293 39.2398 64.9093 39.2398 63.3993V41.6892C39.2398 40.1892 38.0199 38.9592 36.5099 38.9592H5.32983Z" fill="#2F3F64"/>
</g>
<g id="Group_5">
<path id="Vector_9" d="M124 73.2295H4.60959C2.94721 73.2295 1.59961 74.5771 1.59961 76.2395V77.3096C1.59961 78.9719 2.94721 80.3195 4.60959 80.3195H124C125.662 80.3195 127.01 78.9719 127.01 77.3096V76.2395C127.01 74.5771 125.662 73.2295 124 73.2295Z" fill="#2F3F64"/>
<path id="Vector_10" d="M124.01 81.3197H4.60959C2.39959 81.3197 0.599609 79.5198 0.599609 77.3098V76.2297C0.599609 74.0197 2.39959 72.2197 4.60959 72.2197H124.01C126.22 72.2197 128.02 74.0197 128.02 76.2297V77.3098C128.02 79.5198 126.22 81.3197 124.01 81.3197ZM4.60959 74.2297C3.49959 74.2297 2.59961 75.1297 2.59961 76.2397V77.3197C2.59961 78.4297 3.49959 79.3297 4.60959 79.3297H124.01C125.12 79.3297 126.02 78.4297 126.02 77.3197V76.2397C126.02 75.1297 125.12 74.2297 124.01 74.2297H4.60959Z" fill="#2F3F64"/>
</g>
<g id="Group_6">
<path id="Vector_11" d="M79.8903 37.959H48.7202C46.6602 37.959 44.9902 39.6289 44.9902 41.689V63.389C44.9902 65.4491 46.6602 67.119 48.7202 67.119H79.8903C81.9503 67.119 83.6202 65.4491 83.6202 63.389V41.689C83.6202 39.6289 81.9503 37.959 79.8903 37.959Z" fill="white"/>
<path id="Vector_12" d="M79.9002 68.1193H48.7202C46.1102 68.1193 43.9902 65.9993 43.9902 63.3893V41.6793C43.9902 39.0693 46.1102 36.9492 48.7202 36.9492H79.9002C82.5102 36.9492 84.6302 39.0693 84.6302 41.6793V63.3893C84.6302 65.9993 82.5102 68.1193 79.9002 68.1193ZM48.7202 38.9592C47.2202 38.9592 45.9902 40.1792 45.9902 41.6892V63.3993C45.9902 64.8993 47.2102 66.1293 48.7202 66.1293H79.9002C81.4002 66.1293 82.6302 64.9093 82.6302 63.3993V41.6892C82.6302 40.1892 81.4102 38.9592 79.9002 38.9592H48.7202Z" fill="#2F3F64"/>
</g>
<g id="Group_7">
<path id="Vector_13" d="M123.28 37.959H92.1099C90.0498 37.959 88.3799 39.6289 88.3799 41.689V63.389C88.3799 65.4491 90.0498 67.119 92.1099 67.119H123.28C125.34 67.119 127.01 65.4491 127.01 63.389V41.689C127.01 39.6289 125.34 37.959 123.28 37.959Z" fill="white"/>
<path id="Vector_14" d="M123.29 68.1193H92.1099C89.4999 68.1193 87.3799 65.9993 87.3799 63.3893V41.6793C87.3799 39.0693 89.4999 36.9492 92.1099 36.9492H123.29C125.9 36.9492 128.02 39.0693 128.02 41.6793V63.3893C128.02 65.9993 125.9 68.1193 123.29 68.1193ZM92.1099 38.9592C90.6099 38.9592 89.3799 40.1792 89.3799 41.6892V63.3993C89.3799 64.8993 90.5999 66.1293 92.1099 66.1293H123.29C124.79 66.1293 126.02 64.9093 126.02 63.3993V41.6892C126.02 40.1892 124.8 38.9592 123.29 38.9592H92.1099Z" fill="#2F3F64"/>
</g>
<g id="Group_8">
<path id="Vector_15" d="M78.2895 52.9805H50.3195C47.072 52.9805 44.4395 55.613 44.4395 58.8605V86.8304C44.4395 90.0779 47.072 92.7104 50.3195 92.7104H78.2895C81.5369 92.7104 84.1695 90.0779 84.1695 86.8304V58.8605C84.1695 55.613 81.5369 52.9805 78.2895 52.9805Z" fill="#BCC5DC"/>
<path id="Vector_16" d="M78.2895 93.7202H50.3195C46.5295 93.7202 43.4395 90.6302 43.4395 86.8402V58.8702C43.4395 55.0802 46.5295 51.9902 50.3195 51.9902H78.2895C82.0795 51.9902 85.1695 55.0802 85.1695 58.8702V86.8402C85.1695 90.6302 82.0795 93.7202 78.2895 93.7202ZM50.3195 53.9802C47.6295 53.9802 45.4395 56.1702 45.4395 58.8602V86.8302C45.4395 89.5202 47.6295 91.7102 50.3195 91.7102H78.2895C80.9795 91.7102 83.1695 89.5202 83.1695 86.8302V58.8602C83.1695 56.1702 80.9795 53.9802 78.2895 53.9802H50.3195Z" fill="#2F3F64"/>
</g>
<g id="Group_9">
<path id="Vector_17" d="M78.2895 92.7197H50.3195C47.072 92.7197 44.4395 95.3523 44.4395 98.5997C44.4395 101.847 47.072 104.48 50.3195 104.48H78.2895C81.5369 104.48 84.1695 101.847 84.1695 98.5997C84.1695 95.3523 81.5369 92.7197 78.2895 92.7197Z" fill="#BCC5DC"/>
<path id="Vector_18" d="M78.2895 105.48H50.3195C46.5295 105.48 43.4395 102.39 43.4395 98.5997C43.4395 94.8097 46.5295 91.7197 50.3195 91.7197H78.2895C82.0795 91.7197 85.1695 94.8097 85.1695 98.5997C85.1695 102.39 82.0795 105.48 78.2895 105.48ZM50.3195 93.7197C47.6295 93.7197 45.4395 95.9097 45.4395 98.5997C45.4395 101.29 47.6295 103.48 50.3195 103.48H78.2895C80.9795 103.48 83.1695 101.29 83.1695 98.5997C83.1695 95.9097 80.9795 93.7197 78.2895 93.7197H50.3195Z" fill="#2F3F64"/>
</g>
<path id="Vector_19" d="M64.3096 120.479C63.7596 120.479 63.3096 120.029 63.3096 119.479V104.479C63.3096 103.929 63.7596 103.479 64.3096 103.479C64.8596 103.479 65.3096 103.929 65.3096 104.479V119.479C65.3096 120.029 64.8596 120.479 64.3096 120.479Z" fill="#2F3F64"/>
<path id="Vector_20" d="M79.4294 120.54H49.1895C48.6395 120.54 48.1895 120.09 48.1895 119.54C48.1895 118.99 48.6395 118.54 49.1895 118.54H79.4294C79.9794 118.54 80.4294 118.99 80.4294 119.54C80.4294 120.09 79.9794 120.54 79.4294 120.54Z" fill="#2F3F64"/>
<path id="Vector_21" d="M49.1996 125.74C50.9117 125.74 52.2996 124.352 52.2996 122.64C52.2996 120.928 50.9117 119.54 49.1996 119.54C47.4875 119.54 46.0996 120.928 46.0996 122.64C46.0996 124.352 47.4875 125.74 49.1996 125.74Z" fill="#2F3F64"/>
<path id="Vector_22" d="M79.4301 125.74C81.1422 125.74 82.5301 124.352 82.5301 122.64C82.5301 120.928 81.1422 119.54 79.4301 119.54C77.718 119.54 76.3301 120.928 76.3301 122.64C76.3301 124.352 77.718 125.74 79.4301 125.74Z" fill="#2F3F64"/>
<path id="Vector_23" d="M64.31 125.74C66.022 125.74 67.41 124.352 67.41 122.64C67.41 120.928 66.022 119.54 64.31 119.54C62.5979 119.54 61.21 120.928 61.21 122.64C61.21 124.352 62.5979 125.74 64.31 125.74Z" fill="#2F3F64"/>
<g id="Group_10">
<path id="Vector_24" fill-rule="evenodd" clip-rule="evenodd" d="M71.2804 52.9792C71.5004 52.2392 71.6204 51.4493 71.6204 50.6393C71.6204 46.0193 67.8804 42.2793 63.2604 42.2793C58.6404 42.2793 54.9004 46.0193 54.9004 50.6393C54.9004 51.4493 55.0204 52.2392 55.2404 52.9792H71.2804Z" fill="#2F3F64"/>
<path id="Vector_25" d="M71.2902 53.9795H55.2502C54.8102 53.9795 54.4202 53.6895 54.2902 53.2595C54.0402 52.3995 53.9102 51.5095 53.9102 50.6295C53.9102 45.4695 58.1101 41.2695 63.2701 41.2695C68.4301 41.2695 72.6302 45.4695 72.6302 50.6295C72.6302 51.5095 72.5002 52.3895 72.2502 53.2495C72.1302 53.6795 71.7302 53.9695 71.2902 53.9695V53.9795ZM56.0402 51.9795H70.5002C70.5802 51.5295 70.6302 51.0795 70.6302 50.6395C70.6302 46.5795 67.3301 43.2795 63.2701 43.2795C59.2101 43.2795 55.9102 46.5795 55.9102 50.6395C55.9102 51.0895 55.9502 51.5395 56.0402 51.9795Z" fill="#2F3F64"/>
</g>
<path id="Vector_26" d="M9.33008 126.739C8.78008 126.739 8.33008 126.289 8.33008 125.739V80.3193C8.33008 79.7693 8.78008 79.3193 9.33008 79.3193C9.88008 79.3193 10.3301 79.7693 10.3301 80.3193V125.739C10.3301 126.289 9.88008 126.739 9.33008 126.739Z" fill="#2F3F64"/>
<path id="Vector_27" d="M119.62 126.739C119.07 126.739 118.62 126.289 118.62 125.739V80.3193C118.62 79.7693 119.07 79.3193 119.62 79.3193C120.17 79.3193 120.62 79.7693 120.62 80.3193V125.739C120.62 126.289 120.17 126.739 119.62 126.739Z" fill="#2F3F64"/>
<g id="Group_11">
<path id="Vector_28" d="M19.4502 23.9802C20.3402 23.9802 21.0802 23.3202 21.2102 22.4502H17.7002C17.8302 23.3202 18.5702 23.9802 19.4602 23.9802H19.4502Z" fill="#2F3F64"/>
<path id="Vector_29" d="M25.5598 14.9204C27.5204 14.9204 29.1097 13.331 29.1097 11.3704C29.1097 9.40975 27.5204 7.82031 25.5598 7.82031C23.5991 7.82031 22.0098 9.40975 22.0098 11.3704C22.0098 13.331 23.5991 14.9204 25.5598 14.9204Z" fill="#2F3F64"/>
<path id="Vector_30" d="M20.0898 8.50012V7.76013C20.0898 7.40013 19.8098 7.12012 19.4498 7.12012C19.0898 7.12012 18.8098 7.40013 18.8098 7.76013V8.50012C16.0898 8.83012 13.9698 11.1501 13.9698 13.9501V18.9701C13.9698 19.6301 13.6898 20.1901 12.9998 20.1901C12.5698 20.1901 12.2098 20.5001 12.1898 20.8801C12.1598 21.1101 12.2398 21.3101 12.3898 21.4701C12.5398 21.6201 12.7498 21.7201 12.9498 21.7201H25.9298C26.1598 21.7201 26.3398 21.6401 26.4898 21.4701C26.6398 21.3201 26.6898 21.0901 26.6898 20.8801C26.6598 20.5001 26.2798 20.1901 25.8798 20.1901C25.2198 20.1901 24.9098 19.6601 24.9098 18.9701V16.4501C22.3898 16.1201 20.4498 13.9801 20.4498 11.3801C20.4498 10.4101 20.7298 9.52013 21.1898 8.76013C20.8298 8.63013 20.4498 8.56013 20.0698 8.51013L20.0898 8.50012Z" fill="#2F3F64"/>
</g>
<g id="Group_12">
<path id="Vector_31" fill-rule="evenodd" clip-rule="evenodd" d="M48.6494 16.9393H54.3694L58.3094 11.3394L59.9694 23.2094L63.2394 14.9294L65.2694 19.3794L68.3094 10.3594L71.0794 22.4493L73.3794 15.6394H79.9594" fill="#FEC95C"/>
<path id="Vector_32" d="M59.9696 24.2094C59.9696 24.2094 59.8896 24.2094 59.8496 24.2094C59.3996 24.1594 59.0396 23.8094 58.9796 23.3594L57.6696 13.9994L55.1796 17.5294C54.9896 17.7994 54.6896 17.9494 54.3596 17.9494H48.6396C48.0896 17.9494 47.6396 17.4994 47.6396 16.9494C47.6396 16.3994 48.0896 15.9494 48.6396 15.9494H53.8396L57.4796 10.7694C57.7196 10.4294 58.1296 10.2694 58.5296 10.3694C58.9296 10.4694 59.2296 10.7994 59.2896 11.1994L60.4296 19.3095L62.3096 14.5595C62.4596 14.1895 62.8096 13.9395 63.2096 13.9295C63.6396 13.9295 63.9796 14.1494 64.1496 14.5094L65.1296 16.6595L67.3596 10.0395C67.4996 9.61946 67.9196 9.3394 68.3596 9.3594C68.8096 9.3794 69.1796 9.69943 69.2796 10.1394L71.2596 18.7794L72.4196 15.3294C72.5596 14.9194 72.9396 14.6494 73.3696 14.6494H79.9596C80.5096 14.6494 80.9596 15.0994 80.9596 15.6494C80.9596 16.1994 80.5096 16.6494 79.9596 16.6494H74.0896L72.0196 22.7794C71.8796 23.1994 71.4596 23.4894 71.0196 23.4594C70.5696 23.4394 70.1996 23.1195 70.0996 22.6795L68.1196 14.0395L66.2096 19.6994C66.0796 20.0894 65.7196 20.3594 65.3096 20.3794C64.9096 20.3994 64.5196 20.1695 64.3496 19.7995L63.2996 17.4894L60.8896 23.5894C60.7396 23.9694 60.3696 24.2194 59.9596 24.2194L59.9696 24.2094Z" fill="#2F3F64"/>
</g>
<g id="Group_13">
<path id="Vector_33" fill-rule="evenodd" clip-rule="evenodd" d="M105.25 8.22986C105.51 7.82986 105.95 7.58984 106.43 7.58984C106.91 7.58984 107.35 7.82986 107.61 8.22986C109.5 11.1799 113.21 16.9699 115.23 20.1199C115.51 20.5499 115.53 21.0999 115.28 21.5499C115.03 21.9999 114.56 22.2799 114.05 22.2799H98.8099C98.2999 22.2799 97.8299 21.9999 97.5799 21.5499C97.3299 21.0999 97.3499 20.5499 97.6299 20.1199C99.6499 16.9799 103.36 11.1899 105.25 8.22986Z" fill="#2F3F64"/>
<g id="Group_14">
<path id="Vector_34" d="M107.51 19.36C107.51 19.96 107.04 20.41 106.43 20.41C105.82 20.41 105.35 19.96 105.35 19.33C105.35 18.7 105.8 18.26 106.45 18.26C107.1 18.26 107.52 18.71 107.52 19.36H107.51ZM107.33 17.1801H105.5V10.46H107.33V17.1801Z" fill="#FEC95C"/>
</g>
</g>
<g id="Group_15">
<path id="Vector_35" d="M20.9097 61.4502C25.7311 61.4502 29.6397 57.5417 29.6397 52.7202C29.6397 47.8988 25.7311 43.9902 20.9097 43.9902C16.0883 43.9902 12.1797 47.8988 12.1797 52.7202C12.1797 57.5417 16.0883 61.4502 20.9097 61.4502Z" fill="#FEC95C"/>
<path id="Vector_36" d="M20.9097 62.4502C15.5497 62.4502 11.1797 58.0902 11.1797 52.7202C11.1797 47.3502 15.5397 42.9902 20.9097 42.9902C26.2797 42.9902 30.6397 47.3502 30.6397 52.7202C30.6397 58.0902 26.2797 62.4502 20.9097 62.4502ZM20.9097 44.9902C16.6497 44.9902 13.1797 48.4602 13.1797 52.7202C13.1797 56.9802 16.6497 60.4502 20.9097 60.4502C25.1697 60.4502 28.6397 56.9802 28.6397 52.7202C28.6397 48.4602 25.1697 44.9902 20.9097 44.9902Z" fill="#2F3F64"/>
</g>
<g id="Group_16">
<path id="Vector_37" fill-rule="evenodd" clip-rule="evenodd" d="M20.9097 43.9902C16.0897 43.9902 12.1797 47.9002 12.1797 52.7202H20.9097V43.9902Z" fill="#BCC5DC"/>
<path id="Vector_38" d="M20.9097 53.7202H12.1797C11.6297 53.7202 11.1797 53.2702 11.1797 52.7202C11.1797 47.3502 15.5397 42.9902 20.9097 42.9902C21.4597 42.9902 21.9097 43.4402 21.9097 43.9902V52.7202C21.9097 53.2702 21.4597 53.7202 20.9097 53.7202ZM13.2497 51.7202H19.9097V45.0503C16.4497 45.5003 13.6897 48.2502 13.2497 51.7202Z" fill="#2F3F64"/>
</g>
<g id="Group_17">
<path id="Vector_39" d="M20.9098 53.7198C20.4898 53.7198 20.0897 53.4498 19.9597 53.0198C19.7897 52.4898 20.0797 51.9298 20.6097 51.7598L28.3297 49.2898C28.8597 49.1198 29.4197 49.4097 29.5897 49.9397C29.7597 50.4697 29.4698 51.0297 28.9398 51.1997L21.2198 53.6698C21.1198 53.6998 21.0198 53.7198 20.9098 53.7198Z" fill="#2F3F64"/>
</g>
<g id="Group_18">
<path id="Vector_40" d="M101.58 53.6895H95.7998V60.4595H101.58V53.6895Z" fill="#BCC5DC"/>
<path id="Vector_41" d="M101.58 61.4595H95.7998C95.2498 61.4595 94.7998 61.0095 94.7998 60.4595V53.6895C94.7998 53.1395 95.2498 52.6895 95.7998 52.6895H101.58C102.13 52.6895 102.58 53.1395 102.58 53.6895V60.4595C102.58 61.0095 102.13 61.4595 101.58 61.4595ZM96.7898 59.4595H100.57V54.6895H96.7898V59.4595Z" fill="#2F3F64"/>
</g>
<g id="Group_19">
<path id="Vector_42" d="M110.59 50.6201H104.81V60.4601H110.59V50.6201Z" fill="#BCC5DC"/>
<path id="Vector_43" d="M110.59 61.4601H104.81C104.26 61.4601 103.81 61.0101 103.81 60.4601V50.6201C103.81 50.0701 104.26 49.6201 104.81 49.6201H110.59C111.14 49.6201 111.59 50.0701 111.59 50.6201V60.4601C111.59 61.0101 111.14 61.4601 110.59 61.4601ZM105.81 59.4601H109.59V51.6201H105.81V59.4601Z" fill="#2F3F64"/>
</g>
<g id="Group_20">
<path id="Vector_44" d="M119.6 47.6299H113.82V60.4598H119.6V47.6299Z" fill="#BCC5DC"/>
<path id="Vector_45" d="M119.6 61.4598H113.82C113.27 61.4598 112.82 61.0098 112.82 60.4598V47.6299C112.82 47.0799 113.27 46.6299 113.82 46.6299H119.6C120.15 46.6299 120.6 47.0799 120.6 47.6299V60.4598C120.6 61.0098 120.15 61.4598 119.6 61.4598ZM114.82 59.4598H118.6V48.6299H114.82V59.4598Z" fill="#2F3F64"/>
</g>
</g>
</svg>
