<svg width="128" height="116" viewBox="0 0 128 116" fill="none" xmlns="http://www.w3.org/2000/svg">
<path fill-rule="evenodd" clip-rule="evenodd" d="M100.34 1.7793H110.57C111.89 1.7793 112.96 2.8493 112.96 4.1693V58.8293C112.96 60.1493 111.89 61.2193 110.57 61.2193H54.24V72.7093C54.24 74.5293 52.04 75.4393 50.76 74.1493L37.83 61.2193H3.39C2.07 61.2193 1 60.1493 1 58.8293V4.1693C1 2.8493 2.07 1.7793 3.39 1.7793H70" fill="white"/>
<path d="M52.18 75.7693C51.4 75.7693 50.64 75.4593 50.05 74.8693L37.41 62.2293H3.39C1.52 62.2293 0 60.7093 0 58.8393V4.1693C0 2.2993 1.52 0.779297 3.39 0.779297H70C70.55 0.779297 71 1.2293 71 1.7793C71 2.3293 70.55 2.7793 70 2.7793H3.39C2.62 2.7793 2 3.3993 2 4.1693V58.8293C2 59.5993 2.62 60.2193 3.39 60.2193H37.83C38.1 60.2193 38.35 60.3293 38.54 60.5093L51.47 73.4393C51.93 73.8993 52.45 73.7293 52.6 73.6693C52.75 73.6093 53.24 73.3493 53.24 72.7093V61.2193C53.24 60.6693 53.69 60.2193 54.24 60.2193H110.57C111.34 60.2193 111.96 59.5993 111.96 58.8293V4.1693C111.96 3.3993 111.34 2.7793 110.57 2.7793H100.34C99.79 2.7793 99.34 2.3293 99.34 1.7793C99.34 1.2293 99.79 0.779297 100.34 0.779297H110.57C112.44 0.779297 113.96 2.2993 113.96 4.1693V58.8293C113.96 60.6993 112.44 62.2193 110.57 62.2193H55.24V72.7093C55.24 73.9593 54.52 75.0393 53.36 75.5193C52.97 75.6793 52.57 75.7593 52.18 75.7593V75.7693Z" fill="#2F3F64"/>
<path d="M94.7902 114.719C112.375 114.719 126.63 100.464 126.63 82.8791C126.63 65.2943 112.375 51.0391 94.7902 51.0391C77.2054 51.0391 62.9502 65.2943 62.9502 82.8791C62.9502 100.464 77.2054 114.719 94.7902 114.719Z" fill="white"/>
<path d="M94.7902 115.709C76.6802 115.709 61.9502 100.979 61.9502 82.8693C61.9502 64.7593 76.6802 50.0293 94.7902 50.0293C112.9 50.0293 127.63 64.7593 127.63 82.8693C127.63 100.979 112.9 115.709 94.7902 115.709ZM94.7902 52.0393C77.7902 52.0393 63.9502 65.8693 63.9502 82.8793C63.9502 99.8893 77.7802 113.719 94.7902 113.719C111.8 113.719 125.63 99.8893 125.63 82.8793C125.63 65.8693 111.8 52.0393 94.7902 52.0393Z" fill="#2F3F64"/>
<path d="M94.7909 91.9989C102.059 91.9989 107.951 86.0398 107.951 78.6889C107.951 71.338 102.059 65.3789 94.7909 65.3789C87.5228 65.3789 81.6309 71.338 81.6309 78.6889C81.6309 86.0398 87.5228 91.9989 94.7909 91.9989Z" fill="#BCC5DC"/>
<path d="M69.4307 102.119C74.7007 96.0488 84.0907 92.0088 94.7907 92.0088C105.491 92.0088 114.881 96.0588 120.151 102.119C114.341 109.769 105.141 114.719 94.7907 114.719C84.4407 114.719 75.2407 109.779 69.4307 102.119Z" fill="#BCC5DC"/>
<path d="M94.7899 92.9989C86.9799 92.9989 80.6299 86.5789 80.6299 78.6889C80.6299 70.7989 86.9799 64.3789 94.7899 64.3789C102.6 64.3789 108.95 70.7989 108.95 78.6889C108.95 86.5789 102.6 92.9989 94.7899 92.9989ZM94.7899 66.3789C88.0799 66.3789 82.6299 71.8989 82.6299 78.6889C82.6299 85.4789 88.0899 90.9989 94.7899 90.9989C101.49 90.9989 106.95 85.4789 106.95 78.6889C106.95 71.8989 101.49 66.3789 94.7899 66.3789Z" fill="#2F3F64"/>
<path d="M94.79 115.709C85.34 115.709 76.35 111.629 70.1 104.509C70.1 104.509 70.08 104.489 70.08 104.479L68.9 103.039C68.45 102.489 68.45 101.689 68.9 101.159C70.05 99.7993 72.13 98.2193 73.67 97.1193C74.69 96.3993 75.55 95.8493 76.37 95.3993C81.72 92.5093 88.09 90.9893 94.78 90.9893C105.45 90.9893 115.21 94.8993 120.9 101.449C121.21 101.809 121.23 102.329 120.94 102.709C114.67 110.969 105.13 115.699 94.78 115.699L94.79 115.709ZM71.62 103.209C77.48 109.879 85.93 113.709 94.79 113.709C104.23 113.709 112.96 109.509 118.85 102.159C113.47 96.4093 104.55 92.9993 94.79 92.9993C88.43 92.9993 82.39 94.4393 77.33 97.1693C76.58 97.5793 75.79 98.0793 74.84 98.7493C73.03 100.039 71.6 101.219 70.74 102.119L71.63 103.199L71.62 103.209Z" fill="#2F3F64"/>
<path fill-rule="evenodd" clip-rule="evenodd" d="M22.3097 21.0796L25.4597 28.1596L33.1697 28.9696C34.1097 29.0696 34.4897 30.2296 33.7897 30.8596L28.0297 36.0496L29.6397 43.6296C29.8397 44.5496 28.8497 45.2696 28.0297 44.7996L21.3197 40.9196L14.6097 44.7996C13.7897 45.2696 12.7997 44.5496 12.9997 43.6296L14.6097 36.0496L8.8497 30.8596C8.1497 30.2296 8.5297 29.0596 9.4697 28.9696L17.1797 28.1596L20.3297 21.0796C20.7097 20.2196 21.9397 20.2196 22.3197 21.0796H22.3097Z" fill="#FEC95C"/>
<path d="M14.06 45.9592C13.63 45.9592 13.2 45.8192 12.83 45.5592C12.15 45.0692 11.84 44.2492 12.01 43.4392L13.5 36.4192L8.17003 31.6192C7.55003 31.0592 7.32003 30.2192 7.58003 29.4192C7.84003 28.6192 8.52003 28.0792 9.35003 27.9892L16.49 27.2392L19.41 20.6892C19.75 19.9192 20.48 19.4492 21.32 19.4492C22.16 19.4492 22.89 19.9292 23.23 20.6892L26.15 27.2392L33.29 27.9892C34.12 28.0792 34.8 28.6292 35.06 29.4192C35.32 30.2192 35.09 31.0592 34.47 31.6192L29.14 36.4192L30.63 43.4392C30.8 44.2592 30.49 45.0692 29.81 45.5692C29.13 46.0592 28.26 46.1092 27.54 45.6892L21.33 42.0992L15.12 45.6892C14.79 45.8792 14.43 45.9692 14.07 45.9692L14.06 45.9592ZM9.51003 30.1292L15.27 35.3192C15.54 35.5592 15.65 35.9192 15.58 36.2692L13.97 43.8492L14.6 44.8092L14.1 43.9392L20.81 40.0592C21.12 39.8792 21.5 39.8792 21.81 40.0592L28.52 43.9392L29.63 43.6392L28.65 43.8492L27.04 36.2692C26.97 35.9192 27.08 35.5592 27.35 35.3192L33.11 30.1292L33.06 29.9692L25.35 29.1592C24.99 29.1192 24.69 28.8992 24.54 28.5692L21.39 21.4892C21.39 21.4892 21.37 21.4392 21.31 21.4392L18.07 28.5792C17.92 28.9092 17.62 29.1292 17.26 29.1692L9.55003 29.9792L8.83003 30.8792L9.50003 30.1392L9.51003 30.1292Z" fill="#2F3F64"/>
<path fill-rule="evenodd" clip-rule="evenodd" d="M94.5802 21.0796L97.7302 28.1596L105.44 28.9696C106.38 29.0696 106.76 30.2296 106.06 30.8596L100.3 36.0496L101.91 43.6296C102.11 44.5496 101.12 45.2696 100.3 44.7996L93.5902 40.9196L86.8802 44.7996C86.0602 45.2696 85.0702 44.5496 85.2702 43.6296L86.8802 36.0496L81.1202 30.8596C80.4202 30.2296 80.8002 29.0596 81.7402 28.9696L89.4502 28.1596L92.6002 21.0796C92.9802 20.2196 94.2102 20.2196 94.5902 21.0796H94.5802Z" fill="#FEC95C"/>
<path d="M86.3198 45.9597C85.8898 45.9597 85.4598 45.8197 85.0898 45.5597C84.4098 45.0697 84.0998 44.2497 84.2698 43.4297L85.7598 36.4097L80.4298 31.6097C79.8098 31.0497 79.5798 30.2097 79.8398 29.4097C80.0998 28.6097 80.7798 28.0697 81.6098 27.9797L88.7498 27.2297L91.6698 20.6697C92.0098 19.9097 92.7398 19.4297 93.5798 19.4297C94.4198 19.4297 95.1498 19.8997 95.4898 20.6697L98.4098 27.2297L105.55 27.9797C106.38 28.0697 107.06 28.6197 107.32 29.4097C107.58 30.2097 107.35 31.0497 106.73 31.6097L101.4 36.4097L102.89 43.4297C103.06 44.2497 102.75 45.0597 102.07 45.5497C101.39 46.0397 100.52 46.0897 99.7998 45.6697L93.5898 42.0797L87.3798 45.6697C87.0498 45.8597 86.6898 45.9497 86.3298 45.9497L86.3198 45.9597ZM93.5898 39.9397C93.7598 39.9397 93.9398 39.9797 94.0898 40.0697L100.8 43.9497L100.93 43.8497L99.3198 36.2697C99.2498 35.9197 99.3598 35.5597 99.6298 35.3197L105.39 30.1297L105.34 29.9697L97.6298 29.1597C97.2698 29.1197 96.9698 28.8997 96.8198 28.5697L93.6698 21.4897C93.6698 21.4897 93.6498 21.4397 93.5898 21.4397L90.3498 28.5797C90.1998 28.9097 89.8998 29.1297 89.5398 29.1697L81.8298 29.9797L81.1098 30.8797L81.7798 30.1397L87.5398 35.3297C87.8098 35.5697 87.9198 35.9297 87.8498 36.2797L86.2398 43.8597L86.3698 43.9597L93.0798 40.0797C93.2298 39.9897 93.4098 39.9497 93.5798 39.9497L93.5898 39.9397Z" fill="#2F3F64"/>
<path fill-rule="evenodd" clip-rule="evenodd" d="M57.9793 10.5288L63.4893 22.8988L76.9493 24.3188C77.8893 24.4188 78.2693 25.5788 77.5693 26.2088L67.5093 35.2688L70.3193 48.5088C70.5193 49.4288 69.5293 50.1488 68.7093 49.6788L56.9893 42.9088L45.2693 49.6788C44.4493 50.1488 43.4593 49.4288 43.6593 48.5088L46.4693 35.2688L36.4093 26.2088C35.7093 25.5788 36.0893 24.4088 37.0293 24.3188L50.4893 22.8988L55.9993 10.5288C56.3793 9.66879 57.6093 9.66879 57.9893 10.5288H57.9793Z" fill="#FEC95C"/>
<path d="M44.7096 50.8191C44.2796 50.8191 43.8496 50.6791 43.4896 50.4191C42.8096 49.9291 42.4996 49.1091 42.6696 48.2891L45.3596 35.6091L35.7296 26.9391C35.1096 26.3791 34.8796 25.5391 35.1396 24.7391C35.3996 23.9391 36.0796 23.3991 36.9096 23.3091L49.7996 21.9491L55.0696 10.1091C55.4096 9.33914 56.1396 8.86914 56.9796 8.86914C57.8196 8.86914 58.5496 9.33914 58.8896 10.1091L64.1596 21.9491L77.0496 23.3091C77.8796 23.3991 78.5596 23.9491 78.8196 24.7391C79.0796 25.5391 78.8496 26.3791 78.2296 26.9391L68.5996 35.6091L71.2896 48.2891C71.4596 49.1091 71.1496 49.9191 70.4696 50.4191C69.7896 50.9091 68.9196 50.9591 68.1996 50.5391L56.9796 44.0591L45.7596 50.5391C45.4296 50.7291 45.0696 50.8291 44.7096 50.8291V50.8191ZM44.6296 48.7091L44.7596 48.8091L56.4796 42.0391C56.7896 41.8591 57.1696 41.8591 57.4796 42.0391L69.1996 48.8091L69.3296 48.7091L66.5196 35.4691C66.4496 35.1191 66.5596 34.7591 66.8296 34.5191L76.8896 25.4591L76.8396 25.2991L63.3796 23.8791C63.0196 23.8391 62.7196 23.6191 62.5696 23.2891L57.0596 10.9191C57.0596 10.9191 57.0396 10.8691 56.9796 10.8691L51.3896 23.2891C51.2396 23.6191 50.9396 23.8391 50.5796 23.8791L37.1196 25.2991L36.3996 26.1991L37.0696 25.4591L47.1296 34.5191C47.3996 34.7591 47.5096 35.1191 47.4396 35.4691L44.6296 48.7091Z" fill="#2F3F64"/>
</svg>
