<svg width="126" height="98" viewBox="0 0 126 98" fill="none" xmlns="http://www.w3.org/2000/svg">
<path fill-rule="evenodd" clip-rule="evenodd" d="M8.80003 87.78H4.37003C1.95003 87.78 -0.0099619 85.81 3.80959e-05 83.39L0.340004 4.39C0.340004 1.97 2.33004 0 4.75004 0H111.22C113.64 0 115.6 1.97 115.59 4.39L115.57 8.63H13.53C11.11 8.63 9.13003 10.6 9.12003 13.02L8.80003 87.78Z" fill="#2F3F64"/>
<path fill-rule="evenodd" clip-rule="evenodd" d="M124.57 11.3601L124.22 92.1201C124.21 94.6001 122.19 96.6101 119.71 96.6101H10.8705C8.39046 96.6101 6.39043 94.6001 6.40043 92.1201L6.75046 11.3601C6.76046 8.88012 8.78047 6.87012 11.2605 6.87012H120.1C122.58 6.87012 124.58 8.88012 124.57 11.3601Z" fill="white"/>
<path d="M119.72 97.6099H10.8801C9.42007 97.6099 8.04008 97.0399 7.01008 95.9999C5.98008 94.9599 5.41005 93.5799 5.42005 92.1199L5.77003 11.3599C5.78003 8.33988 8.25004 5.87988 11.28 5.87988H120.12C121.59 5.87988 122.96 6.44988 124 7.48988C125.03 8.52988 125.6 9.90988 125.59 11.3699L125.24 92.1299C125.23 95.1499 122.76 97.6099 119.73 97.6099H119.72ZM11.27 7.86988C9.34003 7.86988 7.77008 9.43988 7.76008 11.3599L7.41004 92.1199C7.41004 93.0499 7.77005 93.9299 8.42005 94.5799C9.08005 95.2399 9.95007 95.5999 10.8801 95.5999H119.72C121.64 95.5999 123.22 94.0299 123.23 92.1099L123.58 11.3499C123.58 10.4199 123.23 9.54988 122.57 8.88988C121.91 8.22988 121.04 7.86988 120.11 7.86988H11.27Z" fill="#2F3F64"/>
<path d="M124.86 7.45996H7.86035V19.64H124.86V7.45996Z" fill="#BCC5DC"/>
<path fill-rule="evenodd" clip-rule="evenodd" d="M17.8503 10.3203C19.3603 10.3203 20.5903 11.5603 20.5903 13.0803C20.5903 14.6003 19.3603 15.8403 17.8503 15.8403C16.3403 15.8403 15.1104 14.6003 15.1104 13.0803C15.1104 11.5603 16.3403 10.3203 17.8503 10.3203Z" fill="#2F3F64"/>
<path fill-rule="evenodd" clip-rule="evenodd" d="M28.3298 10.3203C29.8398 10.3203 31.0699 11.5603 31.0699 13.0803C31.0699 14.6003 29.8398 15.8403 28.3298 15.8403C26.8198 15.8403 25.5898 14.6003 25.5898 13.0803C25.5898 11.5603 26.8198 10.3203 28.3298 10.3203Z" fill="#2F3F64"/>
<path fill-rule="evenodd" clip-rule="evenodd" d="M39.28 10.3203C40.8 10.3203 42.02 11.5603 42.02 13.0803C42.02 14.6003 40.79 15.8403 39.28 15.8403C37.77 15.8403 36.54 14.6003 36.54 13.0803C36.54 11.5603 37.77 10.3203 39.28 10.3203Z" fill="#2F3F64"/>
<path d="M83.4597 20.3899H6.71973C6.44973 20.3899 6.19977 20.2799 6.00977 20.0999C5.81977 19.9099 5.71973 19.6599 5.71973 19.3899L5.74976 11.3599C5.75976 8.33988 8.22977 5.87988 11.2598 5.87988H120.1C121.57 5.87988 122.94 6.44988 123.98 7.48988C125.01 8.52988 125.58 9.90988 125.57 11.3699L125.53 19.3999C125.53 19.9499 125.08 20.3999 124.53 20.3999C123.98 20.3999 123.53 19.9499 123.53 19.3999L123.57 11.3699C123.57 10.4399 123.22 9.56988 122.56 8.90988C121.9 8.24988 121.03 7.88988 120.1 7.88988H11.2598C9.32977 7.88988 7.75976 9.45988 7.74976 11.3799L7.71973 18.4099H83.4497C83.9997 18.4099 84.4497 18.8599 84.4497 19.4099C84.4497 19.9599 83.9997 20.4099 83.4497 20.4099L83.4597 20.3899Z" fill="#2F3F64"/>
<path fill-rule="evenodd" clip-rule="evenodd" d="M91.6096 53.3599H90.2296C89.2896 53.3599 88.4696 52.7199 88.2496 51.8099C87.7096 49.6899 86.8696 47.6899 85.7496 45.8699C85.2596 45.0699 85.3796 44.0499 86.0496 43.3899L87.0296 42.4299C87.8296 41.6399 87.8296 40.3699 87.0296 39.5699L84.5396 37.0999C83.7396 36.2999 82.4396 36.2999 81.6296 37.0799L80.6496 38.0399C79.9796 38.6999 78.9396 38.7999 78.1196 38.3199C76.2596 37.2099 74.2196 36.3599 72.0496 35.8099C71.1196 35.5799 70.4696 34.7699 70.4696 33.8299V32.4599C70.4696 31.3399 69.5396 30.4199 68.3996 30.4099L64.8296 30.3799C63.6796 30.3799 62.7496 31.2699 62.7496 32.3999V33.7799C62.7496 34.7199 62.0896 35.5199 61.1596 35.7399C58.9696 36.2599 56.9096 37.0899 55.0196 38.1799C54.1896 38.6599 53.1296 38.5399 52.4496 37.8699L51.4496 36.8899C50.6296 36.0899 49.2996 36.0799 48.4796 36.8699L45.9296 39.3399C45.1096 40.1399 45.1096 41.4299 45.9296 42.2399L46.9396 43.2199C47.6296 43.8899 47.7396 44.9199 47.2396 45.7299C46.0996 47.5699 45.2296 49.5899 44.6796 51.7399C44.4496 52.6599 43.6096 53.2999 42.6396 53.2999H41.2096C40.0396 53.2999 39.0996 54.2099 39.0996 55.3499V58.8699C39.0996 59.9999 40.0496 60.9199 41.2096 60.9199H42.6396C43.6096 60.9199 44.4496 61.5599 44.6796 62.4799C45.2296 64.6299 46.0996 66.6399 47.2396 68.4899C47.7396 69.2999 47.6196 70.3299 46.9396 70.9999L45.9296 71.9799C45.1096 72.7799 45.1096 74.0799 45.9296 74.8799L48.4796 77.3499C49.2996 78.1399 50.6296 78.1299 51.4496 77.3299L52.4496 76.3499C53.1296 75.6799 54.1896 75.5599 55.0196 76.0399C56.9096 77.1299 58.9696 77.9699 61.1596 78.4799C62.0896 78.6999 62.7496 79.4999 62.7496 80.4399V81.8199C62.7496 82.9499 63.6796 83.8499 64.8296 83.8399L68.3996 83.8099C69.5496 83.8099 70.4696 82.8799 70.4696 81.7599V80.3899C70.4696 79.4499 71.1296 78.6399 72.0496 78.4099C74.2196 77.8699 76.2596 77.0099 78.1196 75.8999C78.9396 75.4099 79.9796 75.5199 80.6496 76.1799L81.6296 77.1399C82.4296 77.9299 83.7396 77.9199 84.5396 77.1199L87.0296 74.6499C87.8296 73.8599 87.8296 72.5799 87.0296 71.7899L86.0496 70.8299C85.3796 70.1699 85.2696 69.1499 85.7496 68.3499C86.8596 66.5199 87.7096 64.5299 88.2496 62.4099C88.4796 61.5099 89.2896 60.8699 90.2296 60.8599H91.6096C92.7396 60.8599 93.6496 59.9499 93.6496 58.8399V55.3799C93.6496 54.2699 92.7396 53.3599 91.6096 53.3599Z" fill="#FEC95C"/>
<path d="M64.7999 84.8401C63.9799 84.8401 63.2099 84.5201 62.6299 83.9501C62.0599 83.3801 61.7399 82.6201 61.7399 81.8201V80.4401C61.7399 79.9701 61.3999 79.5601 60.9199 79.4501C58.6699 78.9201 56.5099 78.0601 54.5099 76.9001C54.0599 76.6401 53.4998 76.7101 53.1398 77.0601L52.1398 78.0401C50.9398 79.2201 48.9798 79.2301 47.7698 78.0601L45.2198 75.5901C44.6298 75.0201 44.2999 74.2501 44.2999 73.4301C44.2999 72.6101 44.6198 71.8401 45.2198 71.2601L46.2299 70.2801C46.5699 69.9401 46.6399 69.4201 46.3799 69.0101C45.1699 67.0501 44.2698 64.9401 43.6998 62.7201C43.5798 62.2401 43.1399 61.9101 42.6299 61.9101H41.1998C40.3598 61.9101 39.5699 61.5901 38.9799 61.0001C38.4099 60.4301 38.0898 59.6701 38.0898 58.8601V55.3401C38.0898 54.5201 38.4199 53.7501 39.0099 53.1701C39.5999 52.6001 40.3698 52.2901 41.1998 52.2901H42.6299C43.1399 52.2901 43.5798 51.9601 43.6998 51.4801C44.2698 49.2701 45.1699 47.1501 46.3799 45.2001C46.6299 44.7901 46.5699 44.2601 46.2299 43.9301L45.2198 42.9501C44.6298 42.3701 44.2999 41.6001 44.2999 40.7801C44.2999 39.9601 44.6298 39.2001 45.2198 38.6201L47.7698 36.1501C48.9698 34.9901 50.9298 34.9901 52.1398 36.1701L53.1398 37.1501C53.4998 37.5001 54.0599 37.5701 54.5099 37.3101C56.5099 36.1501 58.6699 35.2901 60.9199 34.7601C61.3999 34.6401 61.7399 34.2401 61.7399 33.7701V32.3901C61.7399 31.5901 62.0599 30.8301 62.6299 30.2601C63.2099 29.6901 63.9799 29.3701 64.7999 29.3701H64.8298L68.3998 29.4001C70.0898 29.4101 71.4698 30.7801 71.4698 32.4501V33.8201C71.4698 34.2901 71.8099 34.7101 72.2999 34.8301C74.5299 35.3901 76.6698 36.2701 78.6398 37.4501C79.0698 37.7101 79.6098 37.6501 79.9598 37.3201L80.9399 36.3601C82.1299 35.2001 84.0599 35.2101 85.2499 36.3801L87.7399 38.8501C88.3199 39.4201 88.6398 40.1901 88.6398 41.0001C88.6398 41.8101 88.3199 42.5601 87.7399 43.1301L86.7599 44.0901C86.4299 44.4201 86.3699 44.9301 86.6199 45.3401C87.7999 47.2801 88.6799 49.3701 89.2299 51.5601C89.3499 52.0201 89.7699 52.3501 90.2499 52.3501H91.6299C93.3099 52.3501 94.6699 53.7101 94.6699 55.3701V58.8301C94.6699 60.4901 93.3099 61.8501 91.6299 61.8501H90.2499C89.7699 61.8501 89.3499 62.1801 89.2299 62.6401C88.6799 64.8301 87.7999 66.9201 86.6199 68.8601C86.3699 69.2701 86.4299 69.7801 86.7599 70.1101L87.7399 71.0701C88.3199 71.6401 88.6398 72.3901 88.6398 73.2001C88.6398 74.0101 88.3199 74.7801 87.7399 75.3501L85.2499 77.8201C84.0599 79.0001 82.1299 79.0101 80.9399 77.8401L79.9598 76.8801C79.6198 76.5401 79.0698 76.4901 78.6398 76.7501C76.6698 77.9301 74.5399 78.8101 72.2999 79.3701C71.8099 79.4901 71.4698 79.9101 71.4698 80.3801V81.7501C71.4698 83.4201 70.0898 84.7901 68.3998 84.8001L64.8298 84.8301H64.7999V84.8401ZM53.9199 74.7501C54.4599 74.7501 55.0099 74.8901 55.4999 75.1801C57.3299 76.2401 59.2999 77.0301 61.3699 77.5101C62.7599 77.8401 63.7299 79.0501 63.7299 80.4501V81.8301C63.7299 82.1001 63.8398 82.3501 64.0298 82.5401C64.2298 82.7401 64.4999 82.8501 64.7999 82.8501L68.3699 82.8201C68.9699 82.8201 69.4498 82.3401 69.4498 81.7701V80.4001C69.4498 79.0101 70.4099 77.8001 71.7899 77.4501C73.8399 76.9401 75.7898 76.1301 77.5898 75.0501C78.7998 74.3301 80.3398 74.5001 81.3298 75.4701L82.3099 76.4301C82.7199 76.8301 83.3999 76.8301 83.8099 76.4201L86.2999 73.9501C86.4999 73.7501 86.6099 73.5001 86.5999 73.2201C86.5999 72.9501 86.4899 72.7001 86.2999 72.5101L85.3199 71.5501C84.3199 70.5701 84.1299 69.0401 84.8699 67.8401C85.9499 66.0701 86.7499 64.1701 87.2499 62.1701C87.5899 60.8201 88.8098 59.8701 90.1998 59.8701H91.5798C92.1598 59.8701 92.6199 59.4101 92.6199 58.8501V55.3901C92.6199 54.8301 92.1498 54.3701 91.5798 54.3701H90.1998C88.7998 54.3701 87.5899 53.4201 87.2499 52.0701C86.7499 50.0801 85.9499 48.1701 84.8699 46.4001C84.1399 45.1901 84.3199 43.6701 85.3199 42.6901L86.2999 41.7301C86.4899 41.5401 86.5999 41.2901 86.5999 41.0201C86.5999 40.7501 86.4899 40.4901 86.2999 40.3001L83.8099 37.8301C83.3899 37.4201 82.7199 37.4101 82.3099 37.8201L81.3298 38.7801C80.3398 39.7501 78.7998 39.9301 77.5898 39.2001C75.7898 38.1201 73.8299 37.3201 71.7899 36.8001C70.4099 36.4501 69.4498 35.2401 69.4498 33.8501V32.4801C69.4498 31.9101 68.9599 31.4401 68.3699 31.4301L64.7999 31.4001H64.7899C64.4999 31.4001 64.2298 31.5101 64.0298 31.7101C63.8398 31.9001 63.7299 32.1501 63.7299 32.4201V33.8001C63.7299 35.2001 62.7599 36.4101 61.3699 36.7401C59.3099 37.2301 57.3299 38.0101 55.4999 39.0701C54.2799 39.7801 52.7299 39.5901 51.7299 38.6101L50.7299 37.6301C50.2999 37.2101 49.5898 37.2001 49.1498 37.6201L46.5999 40.0901C46.3999 40.2801 46.2899 40.5401 46.2899 40.8101C46.2899 41.0901 46.3999 41.3501 46.6099 41.5501L47.6199 42.5301C48.6399 43.5301 48.8298 45.0701 48.0798 46.2901C46.9698 48.0701 46.1498 50.0001 45.6398 52.0201C45.2898 53.3801 44.0499 54.3301 42.6299 54.3301H41.1998C40.8998 54.3301 40.6198 54.4401 40.3998 54.6501C40.1998 54.8501 40.0798 55.1101 40.0798 55.3801V58.9001C40.0798 59.1701 40.1899 59.4301 40.3799 59.6201C40.5899 59.8301 40.8799 59.9501 41.1899 59.9501H42.6199C44.0399 59.9501 45.2799 60.9001 45.6299 62.2601C46.1499 64.2801 46.9699 66.2001 48.0699 67.9901C48.8199 69.2001 48.6299 70.7501 47.6099 71.7401L46.5999 72.7201C46.3999 72.9201 46.2798 73.1801 46.2798 73.4601C46.2798 73.7301 46.3898 73.9901 46.5898 74.1801L49.1398 76.6501C49.5698 77.0701 50.2798 77.0601 50.7198 76.6401L51.7198 75.6601C52.3198 75.0801 53.1099 74.7701 53.9099 74.7701L53.9199 74.7501Z" fill="#2F3F64"/>
<path fill-rule="evenodd" clip-rule="evenodd" d="M52.6094 57.1104C52.6094 64.7004 58.7694 70.8604 66.3594 70.8604C73.9494 70.8604 80.1094 64.7004 80.1094 57.1104C80.1094 54.9104 79.5894 52.8304 78.6694 50.9804C78.2494 50.1404 77.7494 49.3504 77.1794 48.6204C76.2894 47.4804 75.2194 46.4904 74.0094 45.6804C71.8194 44.2104 69.1894 43.3604 66.3594 43.3604C58.7694 43.3604 52.6094 49.5204 52.6094 57.1104Z" fill="white"/>
<path d="M66.3594 71.8604C58.2294 71.8604 51.6094 65.2404 51.6094 57.1104C51.6094 48.9804 58.2294 42.3604 66.3594 42.3604C69.2994 42.3604 72.1394 43.2204 74.5694 44.8604C75.0294 45.1704 75.1494 45.7904 74.8394 46.2504C74.5294 46.7104 73.9093 46.8304 73.4493 46.5204C71.3493 45.1104 68.8994 44.3604 66.3494 44.3604C59.3194 44.3604 53.5994 50.0804 53.5994 57.1104C53.5994 64.1404 59.3194 69.8604 66.3494 69.8604C73.3794 69.8604 79.0994 64.1404 79.0994 57.1104C79.0994 56.5604 79.5494 56.1104 80.0994 56.1104C80.6494 56.1104 81.0994 56.5604 81.0994 57.1104C81.0994 65.2404 74.4794 71.8604 66.3494 71.8604H66.3594Z" fill="#2F3F64"/>
</svg>
