<svg width="127" height="113" viewBox="0 0 127 113" fill="none" xmlns="http://www.w3.org/2000/svg">
<path d="M92.5798 22.2002H7.49976C3.91543 22.2002 1.00977 25.1059 1.00977 28.6902V50.0702C1.00977 53.6545 3.91543 56.5602 7.49976 56.5602H92.5798C96.1641 56.5602 99.0698 53.6545 99.0698 50.0702V28.6902C99.0698 25.1059 96.1641 22.2002 92.5798 22.2002Z" fill="#BCC5DC"/>
<path d="M92.58 57.5604H7.48999C3.35999 57.5604 0 54.2004 0 50.0704V28.6804C0 24.5504 3.35999 21.1904 7.48999 21.1904H92.58C96.71 21.1904 100.07 24.5504 100.07 28.6804V50.0704C100.07 54.2004 96.71 57.5604 92.58 57.5604ZM7.5 23.2004C4.47 23.2004 2.01001 25.6604 2.01001 28.6904V50.0804C2.01001 53.1104 4.47 55.5704 7.5 55.5704H92.59C95.62 55.5704 98.08 53.1104 98.08 50.0804V28.6904C98.08 25.6604 95.62 23.2004 92.59 23.2004H7.5Z" fill="#2F3F64"/>
<path fill-rule="evenodd" clip-rule="evenodd" d="M89.8999 28.0898C92.4899 28.0898 94.5899 30.1898 94.5899 32.7798V45.9698C94.5899 48.5598 92.4899 50.6598 89.8999 50.6598H24.8599C22.2699 50.6598 20.1699 48.5598 20.1699 45.9698V32.7798C20.1699 30.1898 22.2699 28.0898 24.8599 28.0898H67.1599" fill="white"/>
<path d="M89.8999 51.6598H24.8599C21.7199 51.6598 19.1699 49.1098 19.1699 45.9698V32.7798C19.1699 29.6398 21.7199 27.0898 24.8599 27.0898H67.1599C67.7099 27.0898 68.1599 27.5398 68.1599 28.0898C68.1599 28.6398 67.7099 29.0898 67.1599 29.0898H24.8599C22.8199 29.0898 21.1699 30.7498 21.1699 32.7798V45.9698C21.1699 48.0098 22.8299 49.6598 24.8599 49.6598H89.8999C91.9399 49.6598 93.5899 47.9998 93.5899 45.9698V32.7798C93.5899 30.7398 91.9299 29.0898 89.8999 29.0898C89.3499 29.0898 88.8999 28.6398 88.8999 28.0898C88.8999 27.5398 89.3499 27.0898 89.8999 27.0898C93.0399 27.0898 95.5899 29.6398 95.5899 32.7798V45.9698C95.5899 49.1098 93.0399 51.6598 89.8999 51.6598Z" fill="#2F3F64"/>
<path d="M10.7095 37.2502C12.4492 37.2502 13.8596 35.8399 13.8596 34.1002C13.8596 32.3605 12.4492 30.9502 10.7095 30.9502C8.96984 30.9502 7.55957 32.3605 7.55957 34.1002C7.55957 35.8399 8.96984 37.2502 10.7095 37.2502Z" fill="#FEC95C"/>
<path d="M10.7095 38.2502C8.41953 38.2502 6.55957 36.3902 6.55957 34.1002C6.55957 31.8102 8.41953 29.9502 10.7095 29.9502C12.9995 29.9502 14.8596 31.8102 14.8596 34.1002C14.8596 36.3902 12.9995 38.2502 10.7095 38.2502ZM10.7095 31.9502C9.51953 31.9502 8.55957 32.9202 8.55957 34.1002C8.55957 35.2802 9.52953 36.2502 10.7095 36.2502C11.8895 36.2502 12.8596 35.2802 12.8596 34.1002C12.8596 32.9202 11.8895 31.9502 10.7095 31.9502Z" fill="#2F3F64"/>
<path d="M10.7095 47.8098C12.4492 47.8098 13.8596 46.3995 13.8596 44.6598C13.8596 42.9201 12.4492 41.5098 10.7095 41.5098C8.96984 41.5098 7.55957 42.9201 7.55957 44.6598C7.55957 46.3995 8.96984 47.8098 10.7095 47.8098Z" fill="#FEC95C"/>
<path d="M10.7095 48.8098C8.41953 48.8098 6.55957 46.9498 6.55957 44.6598C6.55957 42.3698 8.41953 40.5098 10.7095 40.5098C12.9995 40.5098 14.8596 42.3698 14.8596 44.6598C14.8596 46.9498 12.9995 48.8098 10.7095 48.8098ZM10.7095 42.5098C9.51953 42.5098 8.55957 43.4798 8.55957 44.6598C8.55957 45.8398 9.52953 46.8098 10.7095 46.8098C11.8895 46.8098 12.8596 45.8398 12.8596 44.6598C12.8596 43.4798 11.8895 42.5098 10.7095 42.5098Z" fill="#2F3F64"/>
<path d="M19.1893 56.5596H10.5693V60.6396H19.1893V56.5596Z" fill="#2F3F64"/>
<path d="M19.1796 61.6396H10.5596C10.0096 61.6396 9.55957 61.1896 9.55957 60.6396V56.5596C9.55957 56.0096 10.0096 55.5596 10.5596 55.5596H19.1796C19.7296 55.5596 20.1796 56.0096 20.1796 56.5596V60.6396C20.1796 61.1896 19.7296 61.6396 19.1796 61.6396ZM11.5696 59.6396H18.1896V57.5596H11.5696V59.6396Z" fill="#2F3F64"/>
<path d="M89.83 56.5596H81.21V60.6396H89.83V56.5596Z" fill="#2F3F64"/>
<path d="M89.83 61.6396H81.21C80.66 61.6396 80.21 61.1896 80.21 60.6396V56.5596C80.21 56.0096 80.66 55.5596 81.21 55.5596H89.83C90.38 55.5596 90.83 56.0096 90.83 56.5596V60.6396C90.83 61.1896 90.38 61.6396 89.83 61.6396ZM82.21 59.6396H88.83V57.5596H82.21V59.6396Z" fill="#2F3F64"/>
<path fill-rule="evenodd" clip-rule="evenodd" d="M33.62 37.5101V35.1201H29.42V37.5101H27.46V43.6401H35.58V37.5101H33.62Z" fill="#BCC5DC"/>
<path d="M35.58 44.6399H27.46C26.91 44.6399 26.46 44.1899 26.46 43.6399V37.5199C26.46 36.9699 26.91 36.5199 27.46 36.5199H28.42V35.1299C28.42 34.5799 28.87 34.1299 29.42 34.1299H33.62C34.17 34.1299 34.62 34.5799 34.62 35.1299V36.5199H35.58C36.13 36.5199 36.58 36.9699 36.58 37.5199V43.6399C36.58 44.1899 36.13 44.6399 35.58 44.6399ZM28.46 42.6399H34.58V38.5199H33.62C33.07 38.5199 32.62 38.0699 32.62 37.5199V36.1299H30.42V37.5199C30.42 38.0699 29.97 38.5199 29.42 38.5199H28.46V42.6399Z" fill="#2F3F64"/>
<path fill-rule="evenodd" clip-rule="evenodd" d="M50.8602 37.5101V35.1201H46.6602V37.5101H44.7002V43.6401H52.8202V37.5101H50.8602Z" fill="#BCC5DC"/>
<path d="M52.8202 44.6399H44.7002C44.1502 44.6399 43.7002 44.1899 43.7002 43.6399V37.5199C43.7002 36.9699 44.1502 36.5199 44.7002 36.5199H45.6602V35.1299C45.6602 34.5799 46.1102 34.1299 46.6602 34.1299H50.8602C51.4102 34.1299 51.8602 34.5799 51.8602 35.1299V36.5199H52.8202C53.3702 36.5199 53.8202 36.9699 53.8202 37.5199V43.6399C53.8202 44.1899 53.3702 44.6399 52.8202 44.6399ZM45.7002 42.6399H51.8202V38.5199H50.8602C50.3102 38.5199 49.8602 38.0699 49.8602 37.5199V36.1299H47.6602V37.5199C47.6602 38.0699 47.2102 38.5199 46.6602 38.5199H45.7002V42.6399Z" fill="#2F3F64"/>
<path fill-rule="evenodd" clip-rule="evenodd" d="M68.1002 37.5101V35.1201H63.9102V37.5101H61.9502V43.6401H70.0702V37.5101H68.1002Z" fill="#BCC5DC"/>
<path d="M70.0702 44.6399H61.9502C61.4002 44.6399 60.9502 44.1899 60.9502 43.6399V37.5199C60.9502 36.9699 61.4002 36.5199 61.9502 36.5199H62.9102V35.1299C62.9102 34.5799 63.3602 34.1299 63.9102 34.1299H68.1102C68.6602 34.1299 69.1102 34.5799 69.1102 35.1299V36.5199H70.0702C70.6202 36.5199 71.0702 36.9699 71.0702 37.5199V43.6399C71.0702 44.1899 70.6202 44.6399 70.0702 44.6399ZM62.9502 42.6399H69.0702V38.5199H68.1102C67.5602 38.5199 67.1102 38.0699 67.1102 37.5199V36.1299H64.9102V37.5199C64.9102 38.0699 64.4602 38.5199 63.9102 38.5199H62.9502V42.6399Z" fill="#2F3F64"/>
<path fill-rule="evenodd" clip-rule="evenodd" d="M85.3504 37.5101V35.1201H81.1504V37.5101H79.1904V43.6401H87.3104V37.5101H85.3504Z" fill="#BCC5DC"/>
<path d="M87.3104 44.6399H79.1904C78.6404 44.6399 78.1904 44.1899 78.1904 43.6399V37.5199C78.1904 36.9699 78.6404 36.5199 79.1904 36.5199H80.1504V35.1299C80.1504 34.5799 80.6004 34.1299 81.1504 34.1299H85.3504C85.9004 34.1299 86.3504 34.5799 86.3504 35.1299V36.5199H87.3104C87.8604 36.5199 88.3104 36.9699 88.3104 37.5199V43.6399C88.3104 44.1899 87.8604 44.6399 87.3104 44.6399ZM80.1904 42.6399H86.3104V38.5199H85.3504C84.8004 38.5199 84.3504 38.0699 84.3504 37.5199V36.1299H82.1504V37.5199C82.1504 38.0699 81.7004 38.5199 81.1504 38.5199H80.1904V42.6399Z" fill="#2F3F64"/>
<path d="M71.74 11.99C71.47 11.99 71.21 11.88 71.01 11.67C65.27 5.52 57.17 1.99 48.77 1.99C40.37 1.99 32.27 5.52 26.53 11.67C26.15 12.07 25.52 12.1 25.12 11.72C24.72 11.34 24.69 10.71 25.07 10.31C31.18 3.76 39.82 0 48.77 0C57.72 0 66.35 3.76 72.47 10.31C72.85 10.71 72.82 11.35 72.42 11.72C72.23 11.9 71.98 11.99 71.74 11.99Z" fill="#2F3F64"/>
<path d="M64.0202 16.0804C63.7502 16.0804 63.4902 15.9704 63.2902 15.7604C59.5402 11.7404 54.2502 9.44043 48.7603 9.44043C43.2703 9.44043 37.9802 11.7404 34.2302 15.7604C33.8502 16.1604 33.2202 16.1904 32.8202 15.8104C32.4202 15.4304 32.3902 14.8004 32.7702 14.4004C36.9002 9.98043 42.7302 7.44043 48.7603 7.44043C54.7903 7.44043 60.6302 9.98043 64.7502 14.4004C65.1302 14.8004 65.1003 15.4404 64.7003 15.8104C64.5103 15.9904 64.2602 16.0804 64.0202 16.0804Z" fill="#2F3F64"/>
<path d="M95.3867 87.0303L100.923 81.4937L123.699 104.27C125.227 105.797 125.227 108.272 123.699 109.799C122.172 111.326 119.697 111.326 118.17 109.799L95.3938 87.0232L95.3867 87.0303Z" fill="#2F3F64"/>
<path d="M120.93 111.949C119.67 111.949 118.41 111.469 117.46 110.509L94.69 87.7393C94.3 87.3493 94.3 86.7193 94.69 86.3293L100.22 80.7993C100.61 80.4093 101.24 80.4093 101.63 80.7993L124.4 103.569C126.32 105.489 126.32 108.599 124.4 110.519C123.44 111.479 122.18 111.959 120.93 111.959V111.949ZM96.7999 87.0293L118.87 109.099C119.97 110.199 121.89 110.199 122.99 109.099C124.13 107.959 124.13 106.119 122.99 104.979L100.92 82.9093L96.7999 87.0293Z" fill="#2F3F64"/>
<path d="M103.474 91.8602C114.69 81.7355 115.576 64.4348 105.451 53.2179C95.3267 42.0009 78.026 41.1154 66.8091 51.24C55.5921 61.3647 54.7066 78.6654 64.8313 89.8823C74.9559 101.099 92.2566 101.985 103.474 91.8602Z" fill="#BCC5DC"/>
<path d="M85.1792 99.9499C77.9192 99.9499 70.6492 97.1899 65.1192 91.6599C54.0592 80.5999 54.0592 62.6099 65.1192 51.5499C76.1792 40.4899 94.1692 40.4899 105.229 51.5499C116.289 62.6099 116.289 80.5999 105.229 91.6599C99.6992 97.1899 92.4392 99.9499 85.1692 99.9499H85.1792ZM85.1792 45.2399C78.4292 45.2399 71.6792 47.8099 66.5392 52.9499C56.2592 63.2299 56.2592 79.9599 66.5392 90.2399C76.8192 100.52 93.5492 100.52 103.829 90.2399C114.109 79.9599 114.109 63.2299 103.829 52.9499C98.6892 47.8099 91.9392 45.2399 85.1892 45.2399H85.1792Z" fill="#2F3F64"/>
<path d="M100.727 88.8161C110.263 80.2087 111.016 65.5005 102.408 55.9645C93.8008 46.4285 79.0926 45.6757 69.5566 54.2831C60.0205 62.8905 59.2677 77.5987 67.8751 87.1347C76.4825 96.6707 91.1907 97.4235 100.727 88.8161Z" fill="#FEC95C"/>
<path d="M85.1802 95.8488C78.9702 95.8488 72.7501 93.4888 68.0201 88.7588C63.4401 84.1787 60.9102 78.0888 60.9102 71.5988C60.9102 65.1088 63.4301 59.0288 68.0201 54.4388C77.4801 44.9788 92.8702 44.9788 102.33 54.4388C106.91 59.0188 109.44 65.1188 109.44 71.5988C109.44 78.0788 106.92 84.1688 102.33 88.7588C97.6002 93.4888 91.3902 95.8488 85.1702 95.8488H85.1802ZM85.1802 49.3488C79.4802 49.3488 73.7802 51.5188 69.4402 55.8588C65.2302 60.0688 62.9202 65.6488 62.9202 71.5988C62.9202 77.5488 65.2402 83.1388 69.4402 87.3388C78.1202 96.0188 92.2402 96.0188 100.92 87.3388C105.13 83.1288 107.44 77.5488 107.44 71.5988C107.44 65.6488 105.12 60.0588 100.92 55.8588C96.5802 51.5188 90.8802 49.3488 85.1802 49.3488Z" fill="#2F3F64"/>
<path d="M68.81 57.6396C70.16 57.6396 71.23 58.1596 72.02 59.2096C72.81 60.2596 73.21 61.6796 73.21 63.4796C73.21 65.2796 72.81 66.7096 72.02 67.7496C71.23 68.7996 70.16 69.3196 68.81 69.3196C67.46 69.3196 66.41 68.7996 65.63 67.7496C64.85 66.6996 64.46 65.2796 64.46 63.4796C64.46 61.6796 64.85 60.2496 65.63 59.2096C66.41 58.1696 67.47 57.6396 68.81 57.6396ZM68.83 59.6196C68.21 59.6196 67.72 59.9596 67.36 60.6396C67 61.3196 66.82 62.2596 66.82 63.4596C66.82 64.6596 67 65.6196 67.36 66.3096C67.72 66.9896 68.21 67.3396 68.84 67.3396C69.47 67.3396 69.96 66.9996 70.32 66.3096C70.68 65.6296 70.86 64.6796 70.86 63.4596C70.86 62.2396 70.68 61.3196 70.32 60.6396C69.96 59.9596 69.46 59.6196 68.84 59.6196H68.83Z" fill="#2F3F64"/>
<path d="M80.9896 67.1496H82.4196C82.8096 67.1496 83.0996 67.2196 83.2696 67.3696C83.4496 67.5196 83.5296 67.7596 83.5296 68.0896C83.5296 68.4196 83.4496 68.6596 83.2696 68.7996C83.0996 68.9496 82.8096 69.0196 82.4096 69.0196H77.2096C76.7996 69.0196 76.5196 68.9496 76.3496 68.7996C76.1796 68.6496 76.0996 68.4196 76.0996 68.0896C76.0996 67.7596 76.1896 67.5096 76.3596 67.3696C76.5296 67.2196 76.8196 67.1496 77.2196 67.1496H78.8596V59.7196L77.8696 59.9696C77.7196 60.0096 77.5896 60.0296 77.4896 60.0496C77.3896 60.0696 77.3196 60.0796 77.2696 60.0796C77.0296 60.0796 76.8396 59.9996 76.7096 59.8496C76.5796 59.6996 76.5096 59.4796 76.5096 59.1996C76.5096 58.9896 76.5796 58.8196 76.7296 58.6796C76.8796 58.5396 77.0996 58.4296 77.4096 58.3496L79.5896 57.7496C79.7696 57.6996 79.9196 57.6696 80.0396 57.6396C80.1596 57.6096 80.2497 57.5996 80.3297 57.5996C80.5597 57.5996 80.7297 57.6596 80.8297 57.7896C80.9297 57.9196 80.9796 58.1396 80.9796 58.4396V67.1296L80.9896 67.1496Z" fill="#2F3F64"/>
<path d="M91.8099 67.1496H93.2399C93.6299 67.1496 93.9199 67.2196 94.0899 67.3696C94.2699 67.5196 94.3499 67.7596 94.3499 68.0896C94.3499 68.4196 94.2699 68.6596 94.0999 68.7996C93.9299 68.9496 93.6399 69.0196 93.2399 69.0196H88.0399C87.6399 69.0196 87.3499 68.9496 87.1799 68.7996C87.0099 68.6496 86.9199 68.4196 86.9199 68.0896C86.9199 67.7596 87.0099 67.5096 87.1799 67.3696C87.3499 67.2296 87.6399 67.1496 88.0399 67.1496H89.6799V59.7196L88.6899 59.9696C88.5399 60.0096 88.4099 60.0296 88.3099 60.0496C88.2099 60.0696 88.1399 60.0796 88.0899 60.0796C87.8499 60.0796 87.6599 59.9996 87.5299 59.8496C87.3999 59.6996 87.33 59.4796 87.33 59.1996C87.33 58.9896 87.3999 58.8196 87.5499 58.6796C87.6999 58.5396 87.9199 58.4296 88.2299 58.3496L90.4099 57.7496C90.5899 57.6996 90.7399 57.6696 90.8599 57.6396C90.9799 57.6196 91.0699 57.5996 91.1499 57.5996C91.3899 57.5996 91.5499 57.6596 91.6499 57.7896C91.7499 57.9196 91.7999 58.1396 91.7999 58.4396V67.1296L91.8099 67.1496Z" fill="#2F3F64"/>
<path d="M101.27 57.6396C102.62 57.6396 103.69 58.1596 104.48 59.2096C105.27 60.2596 105.67 61.6796 105.67 63.4796C105.67 65.2796 105.27 66.7096 104.48 67.7496C103.69 68.7996 102.62 69.3196 101.27 69.3196C99.9199 69.3196 98.8699 68.7996 98.0899 67.7496C97.3099 66.6996 96.9199 65.2796 96.9199 63.4796C96.9199 61.6796 97.3099 60.2496 98.0899 59.2096C98.8699 58.1696 99.9299 57.6396 101.27 57.6396ZM101.29 59.6196C100.67 59.6196 100.18 59.9596 99.8199 60.6396C99.4599 61.3196 99.2799 62.2596 99.2799 63.4596C99.2799 64.6596 99.4599 65.6196 99.8199 66.3096C100.18 66.9896 100.67 67.3396 101.3 67.3396C101.93 67.3396 102.42 66.9996 102.78 66.3096C103.14 65.6296 103.32 64.6796 103.32 63.4596C103.32 62.2396 103.14 61.3196 102.78 60.6396C102.42 59.9596 101.92 59.6196 101.3 59.6196H101.29Z" fill="#2F3F64"/>
<path d="M70.1703 83.9094H71.6003C71.9903 83.9094 72.2803 83.9794 72.4503 84.1294C72.6303 84.2794 72.7103 84.5194 72.7103 84.8494C72.7103 85.1794 72.6303 85.4194 72.4603 85.5594C72.2903 85.7094 72.0003 85.7794 71.6003 85.7794H66.4003C66.0003 85.7794 65.7103 85.7094 65.5403 85.5594C65.3703 85.4094 65.2803 85.1794 65.2803 84.8494C65.2803 84.5194 65.3703 84.2694 65.5403 84.1294C65.7103 83.9894 66.0003 83.9094 66.4003 83.9094H68.0403V76.4794L67.0503 76.7294C66.9003 76.7694 66.7703 76.7894 66.6703 76.8094C66.5703 76.8294 66.5003 76.8394 66.4503 76.8394C66.2103 76.8394 66.0203 76.7594 65.8903 76.6094C65.7603 76.4594 65.6903 76.2394 65.6903 75.9594C65.6903 75.7494 65.7603 75.5794 65.9103 75.4394C66.0603 75.2994 66.2803 75.1894 66.5903 75.1094L68.7703 74.5094C68.9503 74.4594 69.1003 74.4294 69.2203 74.3994C69.3403 74.3794 69.4303 74.3594 69.5103 74.3594C69.7503 74.3594 69.9103 74.4194 70.0103 74.5494C70.1103 74.6794 70.1603 74.8994 70.1603 75.1994V83.8894L70.1703 83.9094Z" fill="#2F3F64"/>
<path d="M79.6306 74.3896C80.9806 74.3896 82.0505 74.9096 82.8405 75.9596C83.6305 77.0096 84.0305 78.4296 84.0305 80.2296C84.0305 82.0296 83.6305 83.4596 82.8405 84.4996C82.0505 85.5496 80.9806 86.0696 79.6306 86.0696C78.2806 86.0696 77.2306 85.5496 76.4506 84.4996C75.6706 83.4496 75.2705 82.0296 75.2705 80.2296C75.2705 78.4296 75.6606 76.9996 76.4506 75.9596C77.2306 74.9196 78.2906 74.3896 79.6306 74.3896ZM79.6505 76.3796C79.0305 76.3796 78.5405 76.7197 78.1805 77.3997C77.8205 78.0797 77.6406 79.0197 77.6406 80.2197C77.6406 81.4197 77.8205 82.3796 78.1805 83.0696C78.5405 83.7496 79.0305 84.0996 79.6605 84.0996C80.2905 84.0996 80.7806 83.7596 81.1406 83.0696C81.5006 82.3896 81.6805 81.4397 81.6805 80.2197C81.6805 78.9997 81.5006 78.0797 81.1406 77.3997C80.7806 76.7197 80.2805 76.3796 79.6605 76.3796H79.6505Z" fill="#2F3F64"/>
<path d="M90.4506 74.3896C91.8006 74.3896 92.8706 74.9096 93.6606 75.9596C94.4506 77.0096 94.8506 78.4296 94.8506 80.2296C94.8506 82.0296 94.4506 83.4596 93.6606 84.4996C92.8706 85.5496 91.8006 86.0696 90.4506 86.0696C89.1006 86.0696 88.0506 85.5496 87.2706 84.4996C86.4906 83.4496 86.1006 82.0296 86.1006 80.2296C86.1006 78.4296 86.4906 76.9996 87.2706 75.9596C88.0506 74.9196 89.1106 74.3896 90.4506 74.3896ZM90.4706 76.3796C89.8506 76.3796 89.3606 76.7197 89.0006 77.3997C88.6406 78.0797 88.4606 79.0197 88.4606 80.2197C88.4606 81.4197 88.6406 82.3796 89.0006 83.0696C89.3606 83.7496 89.8506 84.0996 90.4806 84.0996C91.1106 84.0996 91.6006 83.7596 91.9606 83.0696C92.3206 82.3896 92.5006 81.4397 92.5006 80.2197C92.5006 78.9997 92.3206 78.0797 91.9606 77.3997C91.6006 76.7197 91.1006 76.3796 90.4806 76.3796H90.4706Z" fill="#2F3F64"/>
<path d="M102.63 83.9094H104.06C104.45 83.9094 104.74 83.9794 104.91 84.1294C105.09 84.2794 105.17 84.5194 105.17 84.8494C105.17 85.1794 105.09 85.4194 104.92 85.5594C104.75 85.7094 104.46 85.7794 104.06 85.7794H98.8602C98.4602 85.7794 98.1702 85.7094 98.0002 85.5594C97.8302 85.4094 97.7402 85.1794 97.7402 84.8494C97.7402 84.5194 97.8302 84.2694 98.0002 84.1294C98.1702 83.9894 98.4602 83.9094 98.8602 83.9094H100.5V76.4794L99.5103 76.7294C99.3603 76.7694 99.2302 76.7894 99.1302 76.8094C99.0302 76.8294 98.9602 76.8394 98.9102 76.8394C98.6702 76.8394 98.4802 76.7594 98.3502 76.6094C98.2202 76.4594 98.1502 76.2394 98.1502 75.9594C98.1502 75.7494 98.2202 75.5794 98.3702 75.4394C98.5202 75.2994 98.7402 75.1894 99.0502 75.1094L101.23 74.5094C101.41 74.4594 101.56 74.4294 101.68 74.3994C101.8 74.3794 101.89 74.3594 101.97 74.3594C102.21 74.3594 102.37 74.4194 102.47 74.5494C102.57 74.6794 102.62 74.8994 102.62 75.1994V83.8894L102.63 83.9094Z" fill="#2F3F64"/>
</svg>
