<svg viewBox="0 0 127 127" fill="none" xmlns="http://www.w3.org/2000/svg">
<g id="new-user-4">
<path id="Vector" fill-rule="evenodd" clip-rule="evenodd" d="M125.6 12.8102V98.7502C125.6 101.39 123.46 103.53 120.82 103.53H13.8599C11.2299 103.53 9.08984 101.39 9.08984 98.7502V12.8102C9.08984 10.1702 11.2299 8.03027 13.8599 8.03027H120.82C123.46 8.03027 125.6 10.1702 125.6 12.8102Z" fill="white"/>
<path id="Vector_2" fill-rule="evenodd" clip-rule="evenodd" d="M115.6 103.36V106.91C115.6 109.54 113.45 111.69 110.81 111.69H5.61987C2.97987 111.69 0.839844 109.54 0.839844 106.91V20.8203C0.839844 18.1803 2.97987 16.0303 5.61987 16.0303H9.38965V98.5903C9.38965 101.22 11.5297 103.36 14.1597 103.36H115.6Z" fill="#2F3F64"/>
<path id="Vector_3" d="M121.23 104.53H13.4497C10.4897 104.53 8.08984 101.94 8.08984 98.7502V12.8102C8.08984 9.62024 10.4897 7.03027 13.4497 7.03027H67.4497C67.9997 7.03027 68.4497 7.48027 68.4497 8.03027C68.4497 8.58027 67.9997 9.03027 67.4497 9.03027H13.4497C11.5997 9.03027 10.0898 10.7302 10.0898 12.8102V98.7502C10.0898 100.83 11.5997 102.53 13.4497 102.53H121.23C123.09 102.53 124.6 100.83 124.6 98.7502V12.8102C124.6 10.7302 123.09 9.03027 121.23 9.03027H115.15C114.6 9.03027 114.15 8.58027 114.15 8.03027C114.15 7.48027 114.6 7.03027 115.15 7.03027H121.23C124.19 7.03027 126.6 9.62024 126.6 12.8102V98.7502C126.6 101.94 124.19 104.53 121.23 104.53Z" fill="#2F3F64"/>
<path id="Vector_4" fill-rule="evenodd" clip-rule="evenodd" d="M87.5796 1.68964V14.3796C87.5796 15.2496 86.8695 15.9597 85.9995 15.9597H42.4395C41.5595 15.9597 40.8496 15.2496 40.8496 14.3796V1.68964C40.8496 0.809636 41.5595 0.0996094 42.4395 0.0996094H85.9995C86.8695 0.0996094 87.5796 0.809636 87.5796 1.68964Z" fill="#BCC5DC"/>
<path id="Vector_5" fill-rule="evenodd" clip-rule="evenodd" d="M115.439 32.0696V36.5896C115.439 37.8296 114.419 38.8495 113.179 38.8495H74.6995C73.4495 38.8495 72.4395 37.8296 72.4395 36.5896V32.0696C72.4395 30.8196 73.4495 29.8096 74.6995 29.8096H113.179C114.419 29.8096 115.439 30.8196 115.439 32.0696Z" fill="#BCC5DC"/>
<path id="Vector_6" fill-rule="evenodd" clip-rule="evenodd" d="M106.99 48.5198V53.0397C106.99 54.2897 105.979 55.2997 104.729 55.2997H74.6995C73.4495 55.2997 72.4395 54.2897 72.4395 53.0397V48.5198C72.4395 47.2798 73.4495 46.2598 74.6995 46.2598H104.729C105.979 46.2598 106.99 47.2798 106.99 48.5198Z" fill="white"/>
<path id="Vector_7" d="M104.729 56.2997H74.6995C72.8995 56.2997 71.4395 54.8397 71.4395 53.0397V48.5198C71.4395 46.7198 72.8995 45.2598 74.6995 45.2598H104.729C106.529 45.2598 107.99 46.7198 107.99 48.5198V53.0397C107.99 54.8397 106.529 56.2997 104.729 56.2997ZM74.6995 47.2598C73.9995 47.2598 73.4395 47.8298 73.4395 48.5198V53.0397C73.4395 53.7297 74.0095 54.2997 74.6995 54.2997H104.729C105.429 54.2997 105.99 53.7297 105.99 53.0397V48.5198C105.99 47.8298 105.419 47.2598 104.729 47.2598H74.6995Z" fill="#BCC5DC"/>
<path id="Vector_8" d="M87.4495 62.7197H74.6995C73.4513 62.7197 72.4395 63.7316 72.4395 64.9797V69.4998C72.4395 70.7479 73.4513 71.7598 74.6995 71.7598H87.4495C88.6976 71.7598 89.7095 70.7479 89.7095 69.4998V64.9797C89.7095 63.7316 88.6976 62.7197 87.4495 62.7197Z" fill="white"/>
<path id="Vector_9" d="M87.4495 72.7598H74.6995C72.8995 72.7598 71.4395 71.2998 71.4395 69.4998V64.9797C71.4395 63.1797 72.8995 61.7197 74.6995 61.7197H87.4495C89.2495 61.7197 90.7095 63.1797 90.7095 64.9797V69.4998C90.7095 71.2998 89.2495 72.7598 87.4495 72.7598ZM74.6995 63.7197C73.9995 63.7197 73.4395 64.2897 73.4395 64.9797V69.4998C73.4395 70.1898 74.0095 70.7598 74.6995 70.7598H87.4495C88.1395 70.7598 88.7095 70.1898 88.7095 69.4998V64.9797C88.7095 64.2897 88.1395 63.7197 87.4495 63.7197H74.6995Z" fill="#BCC5DC"/>
<path id="Vector_10" d="M61.2302 29.8096H23.3801C22.2203 29.8096 21.2803 30.7497 21.2803 31.9095V69.7596C21.2803 70.9194 22.2203 71.8596 23.3801 71.8596H61.2302C62.39 71.8596 63.3303 70.9194 63.3303 69.7596V31.9095C63.3303 30.7497 62.39 29.8096 61.2302 29.8096Z" fill="#BCC5DC"/>
<path id="Vector_11" d="M61.2302 72.8596H23.3801C21.6701 72.8596 20.2803 71.4696 20.2803 69.7596V31.9095C20.2803 30.1995 21.6701 28.8096 23.3801 28.8096H61.2302C62.9402 28.8096 64.3303 30.1995 64.3303 31.9095V69.7596C64.3303 71.4696 62.9402 72.8596 61.2302 72.8596ZM23.3801 30.8096C22.7701 30.8096 22.2803 31.2995 22.2803 31.9095V69.7596C22.2803 70.3696 22.7701 70.8596 23.3801 70.8596H61.2302C61.8402 70.8596 62.3303 70.3696 62.3303 69.7596V31.9095C62.3303 31.2995 61.8402 30.8096 61.2302 30.8096H23.3801Z" fill="#2F3F64"/>
<path id="Vector_12" fill-rule="evenodd" clip-rule="evenodd" d="M21.3105 70.11C21.9005 62.27 31.0805 56.04 42.3005 56.04C53.5205 56.04 62.7105 62.27 63.3005 70.11C63.1305 71.1 62.2705 71.86 61.2305 71.86H23.3804C22.3404 71.86 21.4805 71.1 21.3105 70.11Z" fill="white"/>
<path id="Vector_13" d="M61.2297 72.8598H23.3796C21.8696 72.8598 20.5798 71.7798 20.3198 70.2798C20.3098 70.1998 20.2998 70.1198 20.3098 70.0398C20.9398 61.6298 30.5998 55.0498 42.2998 55.0498C53.9998 55.0498 63.6598 61.6398 64.2998 70.0398C64.2998 70.1198 64.2998 70.1998 64.2898 70.2798C64.0298 71.7798 62.7497 72.8598 61.2297 72.8598ZM22.3198 70.0398C22.4498 70.5198 22.8796 70.8498 23.3796 70.8498H61.2297C61.7297 70.8498 62.1598 70.5098 62.2898 70.0398C61.6398 62.7398 52.8898 57.0398 42.2998 57.0398C31.7098 57.0398 22.9698 62.7398 22.3198 70.0398Z" fill="#2F3F64"/>
<path id="Vector_14" fill-rule="evenodd" clip-rule="evenodd" d="M101.25 77.21C114.69 77.21 125.601 88.1199 125.601 101.56C125.601 115 114.69 125.91 101.25 125.91C87.8105 125.91 76.9004 115 76.9004 101.56C76.9004 88.1199 87.8105 77.21 101.25 77.21Z" fill="#FEC95C"/>
<path id="Vector_15" d="M101.25 126.91C87.2705 126.91 75.9004 115.54 75.9004 101.56C75.9004 87.5799 87.2705 76.21 101.25 76.21C115.23 76.21 126.601 87.5799 126.601 101.56C126.601 115.54 115.23 126.91 101.25 126.91ZM101.25 78.21C88.3705 78.21 77.9004 88.6799 77.9004 101.56C77.9004 114.44 88.3705 124.91 101.25 124.91C114.13 124.91 124.601 114.44 124.601 101.56C124.601 88.6799 114.13 78.21 101.25 78.21Z" fill="#2F3F64"/>
<path id="Vector_16" d="M101.25 118.76C100.7 118.76 100.25 118.31 100.25 117.76V85.3604C100.25 84.8104 100.7 84.3604 101.25 84.3604C101.8 84.3604 102.25 84.8104 102.25 85.3604V117.76C102.25 118.31 101.8 118.76 101.25 118.76Z" fill="#2F3F64"/>
<path id="Vector_17" d="M117.45 102.56H85.0498C84.4998 102.56 84.0498 102.11 84.0498 101.56C84.0498 101.01 84.4998 100.56 85.0498 100.56H117.45C118 100.56 118.45 101.01 118.45 101.56C118.45 102.11 118 102.56 117.45 102.56Z" fill="#2F3F64"/>
<path id="Vector_18" fill-rule="evenodd" clip-rule="evenodd" d="M42.3003 37.5C47.4203 37.5 51.5703 41.65 51.5703 46.77C51.5703 51.89 47.4203 56.04 42.3003 56.04C37.1803 56.04 33.0303 51.88 33.0303 46.77C33.0303 41.66 37.1903 37.5 42.3003 37.5Z" fill="white"/>
<path id="Vector_19" d="M42.3003 57.04C36.6403 57.04 32.0303 52.43 32.0303 46.77C32.0303 41.11 36.6403 36.5 42.3003 36.5C47.9603 36.5 52.5703 41.11 52.5703 46.77C52.5703 52.43 47.9603 57.04 42.3003 57.04ZM42.3003 38.5C37.7403 38.5 34.0303 42.21 34.0303 46.77C34.0303 51.33 37.7403 55.04 42.3003 55.04C46.8603 55.04 50.5703 51.33 50.5703 46.77C50.5703 42.21 46.8603 38.5 42.3003 38.5Z" fill="#2F3F64"/>
</g>
</svg>
