<svg viewBox="0 0 128 129" fill="none" xmlns="http://www.w3.org/2000/svg">
<g id="new-user-3">
<path id="Vector" fill-rule="evenodd" clip-rule="evenodd" d="M95.3997 111.07V113.5C95.3797 115.7 93.3098 117.48 90.7598 117.48H5.42969C2.80969 117.48 0.679688 115.64 0.679688 113.38V12.3898C0.679688 10.1298 2.80969 8.2998 5.42969 8.2998H8.9397V106.97C8.9397 109.23 11.0697 111.07 13.6897 111.07H95.3896H95.3997Z" fill="#2F3F64"/>
<path id="Vector_2" fill-rule="evenodd" clip-rule="evenodd" d="M103.67 105.48C103.66 108.57 101.15 111.07 98.0701 111.07H13.71C11.09 111.07 8.95996 109.23 8.95996 106.97V5.97986C8.95996 3.71986 11.09 1.87988 13.71 1.87988H99.28C101.9 1.87988 104.03 3.71986 104.03 5.97986C104.03 5.97986 103.75 83.7499 103.67 105.48Z" fill="white"/>
<path id="Vector_3" d="M98.0603 112.07H13.7002C10.5302 112.07 7.9502 109.78 7.9502 106.97V5.97986C7.9502 3.16986 10.5302 0.879883 13.7002 0.879883H59.8203C60.3703 0.879883 60.8203 1.32988 60.8203 1.87988C60.8203 2.42988 60.3703 2.87988 59.8203 2.87988H13.7002C11.6302 2.87988 9.9502 4.26986 9.9502 5.97986V106.97C9.9502 108.68 11.6302 110.07 13.7002 110.07H98.0603C100.59 110.07 102.66 108.01 102.66 105.48L103.02 5.97986C103.02 4.26986 101.34 2.87988 99.2703 2.87988H91.2402C90.6902 2.87988 90.2402 2.42988 90.2402 1.87988C90.2402 1.32988 90.6902 0.879883 91.2402 0.879883H99.2703C102.44 0.879883 105.02 3.16986 105.02 5.97986L104.66 105.48C104.65 109.11 101.68 112.07 98.0603 112.07Z" fill="#2F3F64"/>
<path id="Vector_4" d="M20.9495 49.1797H91.0496C92.2996 49.1797 93.3096 50.1897 93.3096 51.4397V55.9597C93.3096 57.2097 92.2996 58.2197 91.0496 58.2197H20.9495C19.6995 58.2197 18.6895 57.2097 18.6895 55.9597V51.4397C18.6895 50.1897 19.6995 49.1797 20.9495 49.1797Z" fill="white"/>
<path id="Vector_5" d="M91.0496 59.2197H20.9495C19.1495 59.2197 17.6895 57.7597 17.6895 55.9597V51.4397C17.6895 49.6397 19.1495 48.1797 20.9495 48.1797H91.0496C92.8496 48.1797 94.3096 49.6397 94.3096 51.4397V55.9597C94.3096 57.7597 92.8496 59.2197 91.0496 59.2197ZM20.9495 50.1797C20.2495 50.1797 19.6895 50.7497 19.6895 51.4397V55.9597C19.6895 56.6497 20.2595 57.2197 20.9495 57.2197H91.0496C91.7496 57.2197 92.3096 56.6497 92.3096 55.9597V51.4397C92.3096 50.7497 91.7396 50.1797 91.0496 50.1797H20.9495Z" fill="#BCC5DC"/>
<path id="Vector_6" d="M20.9495 66.2803H91.0496C92.2996 66.2803 93.3096 67.2902 93.3096 68.5402V73.0602C93.3096 74.3102 92.2996 75.3203 91.0496 75.3203H20.9495C19.6995 75.3203 18.6895 74.3102 18.6895 73.0602V68.5402C18.6895 67.2902 19.6995 66.2803 20.9495 66.2803Z" fill="white"/>
<path id="Vector_7" d="M91.0496 76.3203H20.9495C19.1495 76.3203 17.6895 74.8602 17.6895 73.0602V68.5402C17.6895 66.7402 19.1495 65.2803 20.9495 65.2803H91.0496C92.8496 65.2803 94.3096 66.7402 94.3096 68.5402V73.0602C94.3096 74.8602 92.8496 76.3203 91.0496 76.3203ZM20.9495 67.2803C20.2495 67.2803 19.6895 67.8502 19.6895 68.5402V73.0602C19.6895 73.7502 20.2595 74.3203 20.9495 74.3203H91.0496C91.7496 74.3203 92.3096 73.7502 92.3096 73.0602V68.5402C92.3096 67.8402 91.7396 67.2803 91.0496 67.2803H20.9495Z" fill="#BCC5DC"/>
<path id="Vector_8" d="M20.9502 83.3896H54.2302C55.4802 83.3896 56.4902 84.3997 56.4902 85.6497V90.1696C56.4902 91.4196 55.4802 92.4296 54.2302 92.4296H20.9602C19.7102 92.4296 18.7002 91.4196 18.7002 90.1696V85.6497C18.7002 84.3997 19.7102 83.3896 20.9602 83.3896H20.9502Z" fill="white"/>
<path id="Vector_9" d="M54.2195 93.4296H20.9495C19.1495 93.4296 17.6895 91.9696 17.6895 90.1696V85.6497C17.6895 83.8497 19.1495 82.3896 20.9495 82.3896H54.2195C56.0195 82.3896 57.4795 83.8497 57.4795 85.6497V90.1696C57.4795 91.9696 56.0195 93.4296 54.2195 93.4296ZM20.9495 84.3896C20.2495 84.3896 19.6895 84.9597 19.6895 85.6497V90.1696C19.6895 90.8596 20.2595 91.4296 20.9495 91.4296H54.2195C54.9195 91.4296 55.4795 90.8596 55.4795 90.1696V85.6497C55.4795 84.9597 54.9095 84.3896 54.2195 84.3896H20.9495Z" fill="#BCC5DC"/>
<path id="Vector_10" fill-rule="evenodd" clip-rule="evenodd" d="M18.6895 38.2103C19.1195 32.4203 25.8195 27.8203 34.0095 27.8203C42.1995 27.8203 48.8996 32.4203 49.3296 38.2103C49.2096 38.9403 48.5796 39.5003 47.8196 39.5003H20.2095C19.4495 39.5003 18.8195 38.9403 18.6995 38.2103H18.6895Z" fill="#FEC95C"/>
<path id="Vector_11" d="M47.8098 40.5003H20.1997C18.9597 40.5003 17.9097 39.6103 17.6997 38.3803C17.6897 38.3003 17.6797 38.2203 17.6897 38.1403C18.1597 31.7903 25.3298 26.8203 34.0098 26.8203C42.6898 26.8203 49.8498 31.7903 50.3298 38.1403C50.3298 38.2203 50.3298 38.3003 50.3198 38.3803C50.1098 39.6103 49.0598 40.5003 47.8198 40.5003H47.8098ZM19.6997 38.1303C19.7797 38.3403 19.9797 38.5003 20.1997 38.5003H47.8098C48.0298 38.5003 48.2398 38.3503 48.3098 38.1403C47.8098 32.9003 41.5597 28.8203 33.9997 28.8203C26.4397 28.8203 20.1897 32.9003 19.6897 38.1403L19.6997 38.1303Z" fill="#2F3F64"/>
<path id="Vector_12" d="M34.01 27.8196C37.7435 27.8196 40.77 24.7572 40.77 20.9796C40.77 17.202 37.7435 14.1396 34.01 14.1396C30.2766 14.1396 27.25 17.202 27.25 20.9796C27.25 24.7572 30.2766 27.8196 34.01 27.8196Z" fill="#FEC95C"/>
<path id="Vector_13" d="M34.01 28.8196C29.73 28.8196 26.25 25.2996 26.25 20.9796C26.25 16.6596 29.73 13.1396 34.01 13.1396C38.29 13.1396 41.77 16.6596 41.77 20.9796C41.77 25.2996 38.29 28.8196 34.01 28.8196ZM34.01 15.1396C30.83 15.1396 28.25 17.7596 28.25 20.9796C28.25 24.1996 30.84 26.8196 34.01 26.8196C37.18 26.8196 39.77 24.1996 39.77 20.9796C39.77 17.7596 37.18 15.1396 34.01 15.1396Z" fill="#2F3F64"/>
<path id="Vector_14" d="M61.72 14.1396H91.05C92.3 14.1396 93.3101 15.1497 93.3101 16.3997V20.9196C93.3101 22.1696 92.3 23.1796 91.05 23.1796H61.72C60.47 23.1796 59.46 22.1696 59.46 20.9196V16.3997C59.46 15.1497 60.47 14.1396 61.72 14.1396Z" fill="#BCC5DC"/>
<path id="Vector_15" d="M61.72 31.1602H91.05C92.3 31.1602 93.3101 32.1702 93.3101 33.4202V37.9402C93.3101 39.1902 92.3 40.2002 91.05 40.2002H61.72C60.47 40.2002 59.46 39.1902 59.46 37.9402V33.4202C59.46 32.1702 60.47 31.1602 61.72 31.1602Z" fill="#BCC5DC"/>
<path id="Vector_16" fill-rule="evenodd" clip-rule="evenodd" d="M101.91 79.21C115.35 79.21 126.26 90.1199 126.26 103.56C126.26 117 115.35 127.91 101.91 127.91C88.4704 127.91 77.5605 117 77.5605 103.56C77.5605 90.1199 88.4704 79.21 101.91 79.21Z" fill="#FEC95C"/>
<path id="Vector_17" d="M101.92 128.91C87.9402 128.91 76.5703 117.54 76.5703 103.56C76.5703 89.5799 87.9402 78.21 101.92 78.21C115.9 78.21 127.27 89.5799 127.27 103.56C127.27 117.54 115.9 128.91 101.92 128.91ZM101.92 80.21C89.0402 80.21 78.5703 90.6799 78.5703 103.56C78.5703 116.44 89.0402 126.91 101.92 126.91C114.8 126.91 125.27 116.44 125.27 103.56C125.27 90.6799 114.79 80.21 101.92 80.21Z" fill="#2F3F64"/>
<path id="Vector_18" d="M101.92 120.76C101.37 120.76 100.92 120.31 100.92 119.76V87.3604C100.92 86.8104 101.37 86.3604 101.92 86.3604C102.47 86.3604 102.92 86.8104 102.92 87.3604V119.76C102.92 120.31 102.47 120.76 101.92 120.76Z" fill="#2F3F64"/>
<path id="Vector_19" d="M118.12 104.56H85.7197C85.1697 104.56 84.7197 104.11 84.7197 103.56C84.7197 103.01 85.1697 102.56 85.7197 102.56H118.12C118.67 102.56 119.12 103.01 119.12 103.56C119.12 104.11 118.67 104.56 118.12 104.56Z" fill="#2F3F64"/>
</g>
</svg>
