<svg viewBox="0 0 128 127" fill="none" xmlns="http://www.w3.org/2000/svg">
<g id="new-user-1">
<path id="Vector" fill-rule="evenodd" clip-rule="evenodd" d="M126.43 12.7103V96.8903C126.43 99.4703 124.33 101.56 121.75 101.56H6.34009C3.76009 101.56 1.66016 99.4703 1.66016 96.8903V12.7103C1.66016 10.1303 3.76009 8.03027 6.34009 8.03027H121.75C124.33 8.03027 126.43 10.1303 126.43 12.7103Z" fill="white"/>
<path id="Vector_2" d="M121.75 102.56H6.34009C3.21009 102.56 0.660156 100.02 0.660156 96.8903V12.7103C0.660156 9.58027 3.21009 7.03027 6.34009 7.03027H64.1602C64.7102 7.03027 65.1602 7.48027 65.1602 8.03027C65.1602 8.58027 64.7102 9.03027 64.1602 9.03027H6.34009C4.31009 9.03027 2.66016 10.6803 2.66016 12.7103V96.8903C2.66016 98.9103 4.31009 100.56 6.34009 100.56H121.75C123.78 100.56 125.43 98.9103 125.43 96.8903V12.7103C125.43 10.6803 123.78 9.03027 121.75 9.03027H115.24C114.69 9.03027 114.24 8.58027 114.24 8.03027C114.24 7.48027 114.69 7.03027 115.24 7.03027H121.75C124.88 7.03027 127.43 9.58027 127.43 12.7103V96.8903C127.43 100.02 124.88 102.56 121.75 102.56Z" fill="#2F3F64"/>
<path id="Vector_3" fill-rule="evenodd" clip-rule="evenodd" d="M88.4099 1.68964V14.3796C88.4099 15.2496 87.6998 15.9597 86.8198 15.9597H43.2599C42.3799 15.9597 41.6699 15.2496 41.6699 14.3796V1.68964C41.6699 0.809636 42.3799 0.0996094 43.2599 0.0996094H86.8198C87.6998 0.0996094 88.4099 0.809636 88.4099 1.68964Z" fill="#BCC5DC"/>
<path id="Vector_4" d="M114.01 29.8096H67.3098C66.0617 29.8096 65.0498 30.8214 65.0498 32.0696V36.5896C65.0498 37.8378 66.0617 38.8495 67.3098 38.8495H114.01C115.258 38.8495 116.27 37.8378 116.27 36.5896V32.0696C116.27 30.8214 115.258 29.8096 114.01 29.8096Z" fill="#BCC5DC"/>
<path id="Vector_5" d="M103.95 46.2598H67.3098C66.0617 46.2598 65.0498 47.2716 65.0498 48.5198V53.0397C65.0498 54.2879 66.0617 55.2997 67.3098 55.2997H103.95C105.198 55.2997 106.21 54.2879 106.21 53.0397V48.5198C106.21 47.2716 105.198 46.2598 103.95 46.2598Z" fill="white"/>
<path id="Vector_6" d="M103.95 56.2997H67.3098C65.5098 56.2997 64.0498 54.8397 64.0498 53.0397V48.5198C64.0498 46.7198 65.5098 45.2598 67.3098 45.2598H103.95C105.75 45.2598 107.21 46.7198 107.21 48.5198V53.0397C107.21 54.8397 105.75 56.2997 103.95 56.2997ZM67.3098 47.2598C66.6198 47.2598 66.0498 47.8298 66.0498 48.5198V53.0397C66.0498 53.7297 66.6198 54.2997 67.3098 54.2997H103.95C104.64 54.2997 105.21 53.7297 105.21 53.0397V48.5198C105.21 47.8298 104.64 47.2598 103.95 47.2598H67.3098Z" fill="#BCC5DC"/>
<path id="Vector_7" d="M83.3698 62.7197H67.3098C66.0617 62.7197 65.0498 63.7316 65.0498 64.9797V69.4998C65.0498 70.7479 66.0617 71.7598 67.3098 71.7598H83.3698C84.6179 71.7598 85.6298 70.7479 85.6298 69.4998V64.9797C85.6298 63.7316 84.6179 62.7197 83.3698 62.7197Z" fill="white"/>
<path id="Vector_8" d="M83.3698 72.7598H67.3098C65.5098 72.7598 64.0498 71.2998 64.0498 69.4998V64.9797C64.0498 63.1797 65.5098 61.7197 67.3098 61.7197H83.3698C85.1698 61.7197 86.6298 63.1797 86.6298 64.9797V69.4998C86.6298 71.2998 85.1698 72.7598 83.3698 72.7598ZM67.3098 63.7197C66.6198 63.7197 66.0498 64.2897 66.0498 64.9797V69.4998C66.0498 70.1898 66.6198 70.7598 67.3098 70.7598H83.3698C84.0598 70.7598 84.6298 70.1898 84.6298 69.4998V64.9797C84.6298 64.2897 84.0598 63.7197 83.3698 63.7197H67.3098Z" fill="#BCC5DC"/>
<path id="Vector_9" d="M14.5396 29.8096H52.3895C53.5495 29.8096 54.4895 30.7495 54.4895 31.9095V69.7596C54.4895 70.9196 53.5495 71.8596 52.3895 71.8596H14.5396C13.3796 71.8596 12.4395 70.9196 12.4395 69.7596V31.9095C12.4395 30.7495 13.3796 29.8096 14.5396 29.8096Z" fill="#BCC5DC"/>
<path id="Vector_10" d="M52.3895 72.8596H14.5396C12.8296 72.8596 11.4395 71.4696 11.4395 69.7596V31.9095C11.4395 30.1995 12.8296 28.8096 14.5396 28.8096H52.3895C54.0995 28.8096 55.4895 30.1995 55.4895 31.9095V69.7596C55.4895 71.4696 54.0995 72.8596 52.3895 72.8596ZM14.5396 30.8096C13.9296 30.8096 13.4395 31.2995 13.4395 31.9095V69.7596C13.4395 70.3696 13.9396 70.8596 14.5396 70.8596H52.3895C52.9995 70.8596 53.4895 70.3696 53.4895 69.7596V31.9095C53.4895 31.2995 52.9895 30.8096 52.3895 30.8096H14.5396Z" fill="#2F3F64"/>
<path id="Vector_11" fill-rule="evenodd" clip-rule="evenodd" d="M12.4697 70.11C13.0597 62.27 22.2397 56.04 33.4697 56.04C44.6997 56.04 53.8697 62.27 54.4697 70.11C54.2997 71.1 53.4398 71.86 52.3998 71.86H14.5498C13.5098 71.86 12.6497 71.1 12.4797 70.11H12.4697Z" fill="white"/>
<path id="Vector_12" d="M52.39 72.8598H14.54C13.02 72.8598 11.74 71.7798 11.48 70.2798C11.47 70.1998 11.46 70.1198 11.47 70.0398C12.1 61.6298 21.76 55.0498 33.46 55.0498C45.16 55.0498 54.8199 61.6398 55.4499 70.0398C55.4499 70.1198 55.4499 70.1998 55.4399 70.2798C55.1799 71.7798 53.9 72.8598 52.38 72.8598H52.39ZM13.48 70.0398C13.61 70.5098 14.05 70.8598 14.54 70.8598H52.39C52.88 70.8598 53.3199 70.5198 53.4499 70.0398C52.7899 62.7398 44.05 57.0398 33.46 57.0398C22.87 57.0398 14.13 62.7398 13.47 70.0398H13.48Z" fill="#2F3F64"/>
<path id="Vector_13" fill-rule="evenodd" clip-rule="evenodd" d="M102.08 77.21C115.52 77.21 126.431 88.1199 126.431 101.56C126.431 115 115.52 125.91 102.08 125.91C88.6404 125.91 77.7305 115 77.7305 101.56C77.7305 88.1199 88.6404 77.21 102.08 77.21Z" fill="#FEC95C"/>
<path id="Vector_14" d="M102.08 126.91C88.1004 126.91 76.7305 115.54 76.7305 101.56C76.7305 87.5799 88.1004 76.21 102.08 76.21C116.06 76.21 127.431 87.5799 127.431 101.56C127.431 115.54 116.06 126.91 102.08 126.91ZM102.08 78.21C89.2004 78.21 78.7305 88.6799 78.7305 101.56C78.7305 114.44 89.2004 124.91 102.08 124.91C114.96 124.91 125.431 114.44 125.431 101.56C125.431 88.6799 114.96 78.21 102.08 78.21Z" fill="#2F3F64"/>
<path id="Vector_15" d="M102.08 118.76C101.53 118.76 101.08 118.31 101.08 117.76V85.3604C101.08 84.8104 101.53 84.3604 102.08 84.3604C102.63 84.3604 103.08 84.8104 103.08 85.3604V117.76C103.08 118.31 102.63 118.76 102.08 118.76Z" fill="#2F3F64"/>
<path id="Vector_16" d="M118.28 102.56H85.8799C85.3299 102.56 84.8799 102.11 84.8799 101.56C84.8799 101.01 85.3299 100.56 85.8799 100.56H118.28C118.83 100.56 119.28 101.01 119.28 101.56C119.28 102.11 118.83 102.56 118.28 102.56Z" fill="#2F3F64"/>
<path id="Vector_17" fill-rule="evenodd" clip-rule="evenodd" d="M33.4702 37.5C38.5902 37.5 42.7402 41.65 42.7402 46.77C42.7402 51.89 38.5802 56.04 33.4702 56.04C28.3602 56.04 24.2002 51.88 24.2002 46.77C24.2002 41.66 28.3502 37.5 33.4702 37.5Z" fill="white"/>
<path id="Vector_18" d="M33.4702 57.04C27.8102 57.04 23.2002 52.43 23.2002 46.77C23.2002 41.11 27.8102 36.5 33.4702 36.5C39.1302 36.5 43.7402 41.11 43.7402 46.77C43.7402 52.43 39.1302 57.04 33.4702 57.04ZM33.4702 38.5C28.9102 38.5 25.2002 42.21 25.2002 46.77C25.2002 51.33 28.9102 55.04 33.4702 55.04C38.0302 55.04 41.7402 51.33 41.7402 46.77C41.7402 42.21 38.0302 38.5 33.4702 38.5Z" fill="#2F3F64"/>
</g>
</svg>
