<svg viewBox="0 0 128 127" fill="none" xmlns="http://www.w3.org/2000/svg">
<g id="new-user-2">
<rect id="Rectangle 2" x="2" y="9" width="124" height="93" rx="4" fill="white"/>
<path id="Vector" d="M121.56 102.56H6.14978C3.01978 102.56 0.469727 100.02 0.469727 96.8903V12.7103C0.469727 9.58027 3.01978 7.03027 6.14978 7.03027H63.9697C64.5197 7.03027 64.9697 7.48027 64.9697 8.03027C64.9697 8.58027 64.5197 9.03027 63.9697 9.03027H6.14978C4.11978 9.03027 2.46973 10.6803 2.46973 12.7103V96.8903C2.46973 98.9103 4.11978 100.56 6.14978 100.56H121.56C123.59 100.56 125.24 98.9103 125.24 96.8903V12.7103C125.24 10.6803 123.59 9.03027 121.56 9.03027H115.05C114.5 9.03027 114.05 8.58027 114.05 8.03027C114.05 7.48027 114.5 7.03027 115.05 7.03027H121.56C124.69 7.03027 127.24 9.58027 127.24 12.7103V96.8903C127.24 100.02 124.69 102.56 121.56 102.56Z" fill="#2F3F64"/>
<path id="Vector_2" fill-rule="evenodd" clip-rule="evenodd" d="M88.2205 1.68964V14.3796C88.2205 15.2496 87.5105 15.9597 86.6305 15.9597H43.0704C42.1904 15.9597 41.4805 15.2496 41.4805 14.3796V1.68964C41.4805 0.809636 42.1904 0.0996094 43.0704 0.0996094H86.6305C87.5105 0.0996094 88.2205 0.809636 88.2205 1.68964Z" fill="#BCC5DC"/>
<path id="Vector_3" d="M67.3704 29.8096H114.07C115.32 29.8096 116.33 30.8196 116.33 32.0696V36.5896C116.33 37.8396 115.32 38.8495 114.07 38.8495H67.3704C66.1204 38.8495 65.1104 37.8396 65.1104 36.5896V32.0696C65.1104 30.8196 66.1204 29.8096 67.3704 29.8096Z" fill="#BCC5DC"/>
<path id="Vector_4" d="M67.3704 46.2598H104.01C105.26 46.2598 106.27 47.2698 106.27 48.5198V53.0397C106.27 54.2897 105.26 55.2997 104.01 55.2997H67.3704C66.1204 55.2997 65.1104 54.2897 65.1104 53.0397V48.5198C65.1104 47.2698 66.1204 46.2598 67.3704 46.2598Z" fill="white"/>
<path id="Vector_5" d="M104.01 56.2997H67.3704C65.5704 56.2997 64.1104 54.8397 64.1104 53.0397V48.5198C64.1104 46.7198 65.5704 45.2598 67.3704 45.2598H104.01C105.81 45.2598 107.27 46.7198 107.27 48.5198V53.0397C107.27 54.8397 105.81 56.2997 104.01 56.2997ZM67.3704 47.2598C66.6704 47.2598 66.1104 47.8298 66.1104 48.5198V53.0397C66.1104 53.7297 66.6804 54.2997 67.3704 54.2997H104.01C104.71 54.2997 105.27 53.7297 105.27 53.0397V48.5198C105.27 47.8298 104.7 47.2598 104.01 47.2598H67.3704Z" fill="#BCC5DC"/>
<path id="Vector_6" d="M67.3704 62.7197H83.4304C84.6804 62.7197 85.6903 63.7297 85.6903 64.9797V69.4998C85.6903 70.7498 84.6804 71.7598 83.4304 71.7598H67.3704C66.1204 71.7598 65.1104 70.7498 65.1104 69.4998V64.9797C65.1104 63.7297 66.1204 62.7197 67.3704 62.7197Z" fill="white"/>
<path id="Vector_7" d="M83.4304 72.7598H67.3704C65.5704 72.7598 64.1104 71.2998 64.1104 69.4998V64.9797C64.1104 63.1797 65.5704 61.7197 67.3704 61.7197H83.4304C85.2304 61.7197 86.6903 63.1797 86.6903 64.9797V69.4998C86.6903 71.2998 85.2304 72.7598 83.4304 72.7598ZM67.3704 63.7197C66.6704 63.7197 66.1104 64.2897 66.1104 64.9797V69.4998C66.1104 70.1898 66.6804 70.7598 67.3704 70.7598H83.4304C84.1204 70.7598 84.6903 70.1898 84.6903 69.4998V64.9797C84.6903 64.2897 84.1204 63.7197 83.4304 63.7197H67.3704Z" fill="#BCC5DC"/>
<path id="Vector_8" d="M14.6097 29.8096H52.4597C53.6197 29.8096 54.5598 30.7495 54.5598 31.9095V69.7596C54.5598 70.9196 53.6197 71.8596 52.4597 71.8596H14.6097C13.4497 71.8596 12.5098 70.9196 12.5098 69.7596V31.9095C12.5098 30.7495 13.4497 29.8096 14.6097 29.8096Z" fill="#BCC5DC"/>
<path id="Vector_9" d="M52.45 72.8596H14.6C12.89 72.8596 11.5 71.4696 11.5 69.7596V31.9095C11.5 30.1995 12.89 28.8096 14.6 28.8096H52.45C54.16 28.8096 55.55 30.1995 55.55 31.9095V69.7596C55.55 71.4696 54.16 72.8596 52.45 72.8596ZM14.61 30.8096C14 30.8096 13.51 31.2995 13.51 31.9095V69.7596C13.51 70.3696 14 70.8596 14.61 70.8596H52.46C53.07 70.8596 53.5601 70.3696 53.5601 69.7596V31.9095C53.5601 31.2995 53.07 30.8096 52.46 30.8096H14.61Z" fill="#2F3F64"/>
<path id="Vector_10" fill-rule="evenodd" clip-rule="evenodd" d="M12.5303 70.11C13.1203 62.27 22.3003 56.04 33.5303 56.04C44.7603 56.04 53.9303 62.27 54.5303 70.11C54.3603 71.1 53.5002 71.86 52.4602 71.86H14.6102C13.5702 71.86 12.7103 71.1 12.5403 70.11H12.5303Z" fill="#2F3F64"/>
<path id="Vector_11" d="M52.4495 72.8598H14.5995C13.0795 72.8598 11.7995 71.7798 11.5395 70.2798C11.5295 70.1998 11.5195 70.1198 11.5295 70.0398C12.1595 61.6298 21.8295 55.0498 33.5195 55.0498C45.2095 55.0498 54.8795 61.6398 55.5095 70.0398C55.5095 70.1198 55.5095 70.1998 55.4995 70.2898C55.2395 71.7898 53.9594 72.8698 52.4394 72.8698L52.4495 72.8598ZM13.5395 70.0398C13.6695 70.5098 14.1095 70.8598 14.5995 70.8598H52.4495C52.9495 70.8598 53.3795 70.5198 53.5095 70.0398C52.8495 62.7398 44.1095 57.0398 33.5195 57.0398C22.9295 57.0398 14.1895 62.7398 13.5295 70.0398H13.5395Z" fill="#2F3F64"/>
<path id="Vector_12" fill-rule="evenodd" clip-rule="evenodd" d="M37.8398 56.35C37.8798 56.6 37.9099 56.8601 37.9099 57.1301C37.9099 59.5401 35.9499 61.5001 33.5399 61.5001C31.1299 61.5001 29.1699 59.5401 29.1699 57.1301C29.1699 56.8601 29.1899 56.6 29.2399 56.35C30.6299 56.15 32.0699 56.04 33.5499 56.04C35.0299 56.04 36.4599 56.15 37.8599 56.35H37.8398Z" fill="white"/>
<path id="Vector_13" d="M33.5302 62.4999C30.5702 62.4999 28.1602 60.0899 28.1602 57.1299C28.1602 56.7999 28.1901 56.4799 28.2401 56.1699C28.3201 55.7499 28.6601 55.4199 29.0801 55.3599C32.0301 54.9399 35.0301 54.9399 37.9801 55.3599C38.4101 55.4199 38.7501 55.7499 38.8201 56.1699C38.8801 56.4799 38.9001 56.7999 38.9001 57.1299C38.9001 60.0899 36.4902 62.4999 33.5302 62.4999ZM30.1602 57.2299C30.2202 59.0399 31.7102 60.4899 33.5302 60.4899C35.3502 60.4899 36.8501 59.0399 36.9001 57.2299C34.6601 56.9699 32.4002 56.9699 30.1602 57.2299Z" fill="#2F3F64"/>
<path id="Vector_14" fill-rule="evenodd" clip-rule="evenodd" d="M102.14 77.21C115.58 77.21 126.49 88.1199 126.49 101.56C126.49 115 115.58 125.91 102.14 125.91C88.7 125.91 77.79 115 77.79 101.56C77.79 88.1199 88.7 77.21 102.14 77.21Z" fill="#FEC95C"/>
<path id="Vector_15" d="M102.14 126.91C88.16 126.91 76.79 115.54 76.79 101.56C76.79 87.5799 88.16 76.21 102.14 76.21C116.12 76.21 127.49 87.5799 127.49 101.56C127.49 115.54 116.12 126.91 102.14 126.91ZM102.14 78.21C89.26 78.21 78.79 88.6799 78.79 101.56C78.79 114.44 89.26 124.91 102.14 124.91C115.02 124.91 125.49 114.44 125.49 101.56C125.49 88.6799 115.02 78.21 102.14 78.21Z" fill="#2F3F64"/>
<path id="Vector_16" d="M102.14 118.76C101.59 118.76 101.14 118.31 101.14 117.76V85.3604C101.14 84.8104 101.59 84.3604 102.14 84.3604C102.69 84.3604 103.14 84.8104 103.14 85.3604V117.76C103.14 118.31 102.69 118.76 102.14 118.76Z" fill="#2F3F64"/>
<path id="Vector_17" d="M118.339 102.56H85.9395C85.3895 102.56 84.9395 102.11 84.9395 101.56C84.9395 101.01 85.3895 100.56 85.9395 100.56H118.339C118.889 100.56 119.339 101.01 119.339 101.56C119.339 102.11 118.889 102.56 118.339 102.56Z" fill="#2F3F64"/>
<path id="Vector_18" fill-rule="evenodd" clip-rule="evenodd" d="M33.5298 37.5C38.6498 37.5 42.7998 41.65 42.7998 46.77C42.7998 51.89 38.6498 56.04 33.5298 56.04C28.4098 56.04 24.2598 51.88 24.2598 46.77C24.2598 41.66 28.4198 37.5 33.5298 37.5Z" fill="white"/>
<path id="Vector_19" d="M33.5298 57.04C27.8698 57.04 23.2598 52.43 23.2598 46.77C23.2598 41.11 27.8698 36.5 33.5298 36.5C39.1898 36.5 43.7998 41.11 43.7998 46.77C43.7998 52.43 39.1898 57.04 33.5298 57.04ZM33.5298 38.5C28.9698 38.5 25.2598 42.21 25.2598 46.77C25.2598 51.33 28.9698 55.04 33.5298 55.04C38.0898 55.04 41.7998 51.33 41.7998 46.77C41.7998 42.21 38.0898 38.5 33.5298 38.5Z" fill="#2F3F64"/>
<path id="Vector_20" fill-rule="evenodd" clip-rule="evenodd" d="M34.6505 61.5L39.7505 71.76H27.3105L32.4105 61.5H34.6505Z" fill="white"/>
<path id="Vector_21" d="M39.75 72.7598H27.3C26.95 72.7598 26.6299 72.5797 26.4499 72.2897C26.2699 71.9997 26.25 71.6298 26.4 71.3198L31.5 61.0598C31.67 60.7198 32.02 60.5098 32.4 60.5098H34.64C35.02 60.5098 35.37 60.7198 35.54 61.0598L40.64 71.3198C40.79 71.6298 40.7799 71.9997 40.5899 72.2897C40.4099 72.5797 40.0899 72.7598 39.7399 72.7598H39.75ZM28.92 70.7598H38.14L34.03 62.4998H33.03L28.92 70.7598Z" fill="#2F3F64"/>
</g>
</svg>
