<svg width="128" height="98" viewBox="0 0 128 98" fill="none" xmlns="http://www.w3.org/2000/svg">
<g id="newspaper">
<g id="Group">
<path id="Vector" fill-rule="evenodd" clip-rule="evenodd" d="M36.9003 78.78V4.27C36.9003 2.47 38.3603 1 40.1703 1H123.15C124.95 1 126.42 2.46 126.42 4.27V76.17C126.42 87.53 117.21 96.74 105.85 96.74H18.9502C28.8602 96.74 36.9003 88.7 36.9003 78.79V78.78Z" fill="white"/>
<path id="Vector_2" d="M105.85 97.73H18.9502C18.4002 97.73 17.9502 97.28 17.9502 96.73C17.9502 96.18 18.4002 95.73 18.9502 95.73C28.3002 95.73 35.9003 88.13 35.9003 78.78V4.27C35.9003 1.92 37.8103 0 40.1703 0H123.15C125.5 0 127.42 1.91 127.42 4.27V76.17C127.42 88.06 117.75 97.74 105.85 97.74V97.73ZM27.4203 95.73H105.85C116.64 95.73 125.42 86.95 125.42 76.16V4.27C125.42 3.02 124.4 2 123.15 2H40.1703C38.9203 2 37.9003 3.02 37.9003 4.27V78.78C37.9003 86.19 33.6303 92.61 27.4203 95.73Z" fill="#2F3F64"/>
</g>
<g id="Group_2">
<path id="Vector_3" d="M18.9504 96.7305C9.04044 96.7305 1.00037 88.6905 1.00037 78.7805L1.00037 25.1005C1.00037 23.4305 2.36039 22.0805 4.02039 22.0805H36.9004L36.9004 78.7805C36.9004 88.6905 28.8604 96.7305 18.9504 96.7305Z" fill="#2F3F64"/>
<path id="Vector_4" d="M18.95 97.7301C8.49995 97.7301 0 89.2301 0 78.7801V25.1001C0 22.8801 1.80002 21.0801 4.02002 21.0801H36.9C37.45 21.0801 37.9 21.5301 37.9 22.0801V78.7801C37.9 89.2301 29.4 97.7301 18.95 97.7301ZM4.02002 23.0801C2.90002 23.0801 2 23.9901 2 25.1001V78.7801C2 88.1301 9.59995 95.7301 18.95 95.7301C28.3 95.7301 35.9 88.1301 35.9 78.7801V23.0801H4.02002Z" fill="#2F3F64"/>
</g>
<g id="Group_3">
<path id="Vector_5" d="M118.02 29.1602H88.7001C87.6673 29.1602 86.8301 29.9974 86.8301 31.0302V34.1202C86.8301 35.1529 87.6673 35.9902 88.7001 35.9902H118.02C119.053 35.9902 119.89 35.1529 119.89 34.1202V31.0302C119.89 29.9974 119.053 29.1602 118.02 29.1602Z" fill="#BCC5DC"/>
<g id="Group_4">
<path id="Vector_6" d="M118.899 11.4502H46.5692C45.5364 11.4502 44.6992 12.2874 44.6992 13.3202V16.4102C44.6992 17.443 45.5364 18.2802 46.5692 18.2802H118.899C119.932 18.2802 120.769 17.443 120.769 16.4102V13.3202C120.769 12.2874 119.932 11.4502 118.899 11.4502Z" fill="#2F3F64"/>
<path id="Vector_7" d="M118.9 19.2804H46.5594C44.9794 19.2804 43.6895 17.9904 43.6895 16.4104V13.3104C43.6895 11.7304 44.9794 10.4404 46.5594 10.4404H118.9C120.48 10.4404 121.77 11.7304 121.77 13.3104V16.4104C121.77 17.9904 120.48 19.2804 118.9 19.2804ZM46.5594 12.4504C46.0794 12.4504 45.6895 12.8404 45.6895 13.3204V16.4204C45.6895 16.9004 46.0794 17.2904 46.5594 17.2904H118.9C119.38 17.2904 119.77 16.9004 119.77 16.4204V13.3204C119.77 12.8404 119.38 12.4504 118.9 12.4504H46.5594Z" fill="#2F3F64"/>
</g>
<path id="Vector_8" d="M119.88 48.0801H86.8203C86.2703 48.0801 85.8203 47.6301 85.8203 47.0801C85.8203 46.5301 86.2703 46.0801 86.8203 46.0801H119.88C120.43 46.0801 120.88 46.5301 120.88 47.0801C120.88 47.6301 120.43 48.0801 119.88 48.0801Z" fill="#BCC5DC"/>
<path id="Vector_9" d="M119.88 58.21H86.8203C86.2703 58.21 85.8203 57.76 85.8203 57.21C85.8203 56.66 86.2703 56.21 86.8203 56.21H119.88C120.43 56.21 120.88 56.66 120.88 57.21C120.88 57.76 120.43 58.21 119.88 58.21Z" fill="#BCC5DC"/>
<path id="Vector_10" d="M119.84 69.25H44.2598C43.7098 69.25 43.2598 68.8 43.2598 68.25C43.2598 67.7 43.7098 67.25 44.2598 67.25H119.84C120.39 67.25 120.84 67.7 120.84 68.25C120.84 68.8 120.39 69.25 119.84 69.25Z" fill="#BCC5DC"/>
<path id="Vector_11" d="M119.84 79.3809H44.2598C43.7098 79.3809 43.2598 78.9309 43.2598 78.3809C43.2598 77.8309 43.7098 77.3809 44.2598 77.3809H119.84C120.39 77.3809 120.84 77.8309 120.84 78.3809C120.84 78.9309 120.39 79.3809 119.84 79.3809Z" fill="#BCC5DC"/>
<path id="Vector_12" d="M77.72 89.0107H44.25C43.7 89.0107 43.25 88.5607 43.25 88.0107C43.25 87.4607 43.7 87.0107 44.25 87.0107H77.72C78.27 87.0107 78.72 87.4607 78.72 88.0107C78.72 88.5607 78.27 89.0107 77.72 89.0107Z" fill="#BCC5DC"/>
<g id="Group_5">
<path id="Vector_13" d="M75.12 26.1709H47.3199C45.6244 26.1709 44.25 27.5454 44.25 29.2409V57.0409C44.25 58.7364 45.6244 60.1109 47.3199 60.1109H75.12C76.8155 60.1109 78.1899 58.7364 78.1899 57.0409V29.2409C78.1899 27.5454 76.8155 26.1709 75.12 26.1709Z" fill="#FEC95C"/>
<path id="Vector_14" d="M75.1198 61.1009H47.3297C45.0797 61.1009 43.2598 59.2709 43.2598 57.0309V29.2409C43.2598 26.9909 45.0897 25.1709 47.3297 25.1709H75.1198C77.3698 25.1709 79.1897 27.0009 79.1897 29.2409V57.0309C79.1897 59.2809 77.3598 61.1009 75.1198 61.1009ZM47.3297 27.1609C46.1897 27.1609 45.2598 28.0909 45.2598 29.2309V57.0209C45.2598 58.1609 46.1897 59.0909 47.3297 59.0909H75.1198C76.2598 59.0909 77.1897 58.1609 77.1897 57.0209V29.2309C77.1897 28.0909 76.2598 27.1609 75.1198 27.1609H47.3297Z" fill="#2F3F64"/>
</g>
</g>
</g>
</svg>
