<svg width="126" height="126" viewBox="0 0 126 126" fill="none" xmlns="http://www.w3.org/2000/svg">
<g clip-path="url(#clip0_227_18)">
<mask id="mask0_227_18" style="mask-type:luminance" maskUnits="userSpaceOnUse" x="0" y="0" width="126" height="126">
<path d="M126 0H0V126H126V0Z" fill="white"/>
</mask>
<g mask="url(#mask0_227_18)">
<path d="M66.3878 48.1449C70.893 50.3985 73.6384 55.1925 73.3108 60.2734L73.2107 61.8715L64.5618 62.4042C65.1561 60.7858 65.0536 58.9826 64.2748 57.4461C63.4758 55.9303 62.1031 54.8033 60.4434 54.35L64.9717 47.4277L66.3878 48.1449Z" fill="white"/>
<path d="M110.519 20.7943L114.781 18.3127C115.437 17.9235 116.238 17.8236 116.994 18.0259C117.731 18.2308 118.366 18.725 118.756 19.4011L124.083 28.741C124.882 30.1572 124.411 31.9576 123.018 32.7797L118.407 35.4637L114.286 28.2519L110.519 20.7943Z" fill="white"/>
<path d="M64.2763 57.4486C65.055 58.9855 65.1572 60.7883 64.5633 62.4067L54.8105 63.001L60.4448 54.3525C62.1045 54.8058 63.4772 55.93 64.2763 57.4486Z" fill="#FEC95C"/>
<path d="M73.3054 60.2749C73.633 55.1939 70.8876 50.3996 66.3824 48.146L64.9688 47.4292L95.7841 29.4177L110.516 20.7949L114.286 28.2525L118.407 35.4641L95.418 48.9041L73.2077 61.873L73.3054 60.2749Z" fill="#FEC95C"/>
<path d="M95.7859 99.0184V114.22H69.4372H45.7723H22.0254V73.1219V73.1012V25.8154V11.7812H46.3228H69.9902H95.7859V19.9764V29.4213L64.9705 47.4301L60.4422 54.3524L54.8079 63.0009L64.5606 62.4066L73.207 61.8739L95.4174 48.905L95.7859 49.5196V56.4447V58.9031V99.0184Z" fill="white"/>
<path d="M95.7852 99.018V58.9027V56.4443L103.981 70.6242L114.225 88.3643L103.981 94.2853L95.7852 99.018Z" fill="#BCC5DC"/>
<path d="M69.4383 114.219L51.6947 124.463L45.7734 114.219H69.4383Z" fill="#BCC5DC"/>
<path d="M22.0271 25.8164V73.1022L13.8315 58.9247L1.53809 37.6377L13.8315 30.5491L22.0271 25.8164Z" fill="#BCC5DC"/>
<path d="M95.7845 115.755H22.024C21.1762 115.755 20.4873 115.066 20.4873 114.219V73.1198C20.4873 72.2721 21.1762 71.5833 22.024 71.5833C22.8717 71.5833 23.5607 72.2721 23.5607 73.1198V112.682H94.248V49.5179C94.248 48.6702 94.9368 47.9814 95.7845 47.9814C96.6322 47.9814 97.3213 48.6702 97.3213 49.5179V114.219C97.3213 115.066 96.6322 115.755 95.7845 115.755Z" fill="#2F3F64"/>
<path d="M22.024 74.6373C21.1762 74.6373 20.4873 73.9485 20.4873 73.1008V11.7807C20.4873 10.933 21.1762 10.2441 22.024 10.2441H95.7845C96.6322 10.2441 97.3213 10.933 97.3213 11.7807V29.4207C97.3213 30.2684 96.6322 30.9573 95.7845 30.9573C94.9368 30.9573 94.248 30.2684 94.248 29.4207V13.3173H23.5607V73.1008C23.5607 73.9485 22.8717 74.6373 22.024 74.6373Z" fill="#2F3F64"/>
<path d="M13.8338 60.4593C13.3036 60.4593 12.7863 60.1828 12.502 59.6911L0.206029 38.4041C0.00113828 38.0506 -0.0526456 37.6306 0.0523611 37.2389C0.157367 36.8445 0.416041 36.5092 0.769478 36.3069L13.0629 29.218C13.7979 28.7929 14.7379 29.0464 15.1631 29.7814C15.5882 30.5164 15.3346 31.4562 14.5996 31.8788L3.63793 38.1993L15.1631 58.1542C15.5882 58.8892 15.3346 59.8293 14.5996 60.2542C14.3589 60.3928 14.095 60.4593 13.8338 60.4593Z" fill="#2F3F64"/>
<path d="M69.9944 13.3174C69.4645 13.3174 68.9469 13.0434 68.6627 12.5491L63.5096 3.63433L47.0953 13.1099C46.3603 13.5351 45.4206 13.2815 44.9953 12.5465C44.5701 11.8115 44.8238 10.8717 45.5588 10.4465L63.3024 0.205195C64.0374 -0.217366 64.9772 0.0336095 65.4 0.766048L71.3213 11.0099C71.7465 11.745 71.4952 12.6848 70.7602 13.1099C70.517 13.2508 70.2555 13.3174 69.9944 13.3174Z" fill="#2F3F64"/>
<path d="M103.982 95.8208C103.452 95.8208 102.935 95.5439 102.65 95.0525C102.225 94.3175 102.476 93.3774 103.211 92.9525L112.126 87.7998L102.65 71.389C102.225 70.654 102.479 69.7139 103.214 69.289C103.949 68.8666 104.889 69.1175 105.314 69.8525L115.558 87.5923C115.983 88.3273 115.73 89.267 114.997 89.6923L104.753 95.6132C104.51 95.7539 104.243 95.8208 103.982 95.8208Z" fill="#2F3F64"/>
<path d="M51.6954 125.999C51.1651 125.999 50.6478 125.722 50.3636 125.231L44.4423 114.986C44.0171 114.251 44.268 113.312 45.003 112.886C45.7384 112.462 46.6781 112.712 47.1034 113.447L52.2564 122.362L68.6707 112.886C69.4057 112.462 70.3455 112.715 70.7707 113.45C71.196 114.185 70.9422 115.125 70.2072 115.55L52.4636 125.794C52.2232 125.932 51.954 125.999 51.6954 125.999Z" fill="#2F3F64"/>
<path d="M42.5173 25.6113H34.3218C33.4741 25.6113 32.7852 24.9224 32.7852 24.0747C32.7852 23.227 33.4741 22.5381 34.3218 22.5381H42.5173C43.3653 22.5381 44.0541 23.227 44.0541 24.0747C44.0541 24.9224 43.3653 25.6113 42.5173 25.6113Z" fill="#BCC5DC"/>
<path d="M63.0066 39.9493H34.3218C33.4741 39.9493 32.7852 39.2605 32.7852 38.4128C32.7852 37.5651 33.4741 36.876 34.3218 36.876H63.0066C63.8543 36.876 64.5431 37.5651 64.5431 38.4128C64.5431 39.2605 63.8543 39.9493 63.0066 39.9493Z" fill="#BCC5DC"/>
<path d="M50.7132 52.2442H34.3218C33.4741 52.2442 32.7852 51.5551 32.7852 50.7077C32.7852 49.86 33.4741 49.1709 34.3218 49.1709H50.7132C51.5609 49.1709 52.2497 49.86 52.2497 50.7077C52.2497 51.5551 51.5609 52.2442 50.7132 52.2442Z" fill="#BCC5DC"/>
<path d="M44.5662 64.5353H34.3218C33.4741 64.5353 32.7852 63.8465 32.7852 62.9988C32.7852 62.1511 33.4741 61.4619 34.3218 61.4619H44.5662C45.4142 61.4619 46.103 62.1511 46.103 62.9988C46.103 63.8465 45.4142 64.5353 44.5662 64.5353Z" fill="#BCC5DC"/>
<path d="M83.4939 25.6113H54.8093C53.9613 25.6113 53.2725 24.9224 53.2725 24.0747C53.2725 23.227 53.9613 22.5381 54.8093 22.5381H83.4939C84.3416 22.5381 85.0304 23.227 85.0304 24.0747C85.0304 24.9224 84.3416 25.6113 83.4939 25.6113Z" fill="#BCC5DC"/>
<path d="M54.8075 64.5371C54.2622 64.5371 53.755 64.2476 53.481 63.7737C53.1891 63.2718 53.2045 62.6495 53.5219 62.163L59.1566 53.5145L63.687 46.5898C63.8175 46.3899 63.9918 46.2233 64.1966 46.1029L95.0123 28.0917L109.741 19.4689L114.006 16.9847C115.002 16.3957 116.242 16.2318 117.391 16.5442C118.539 16.8644 119.492 17.6045 120.086 18.634L125.418 27.979C126.627 30.1225 125.897 32.8653 123.797 34.1023L119.182 36.7912L96.1957 50.2287L73.9854 63.1976C73.7778 63.318 73.5447 63.3898 73.3043 63.4048L54.9023 64.5318C54.8715 64.5318 54.8411 64.5371 54.8075 64.5371ZM66.0586 48.5743L61.7277 55.1945L57.7608 61.2821L72.7485 60.3626L94.6434 47.5782L117.632 34.1407L122.245 31.4542C122.906 31.065 123.133 30.1866 122.747 29.4977L117.422 20.1655C117.238 19.8453 116.936 19.6097 116.582 19.5099C116.239 19.4177 115.863 19.4638 115.565 19.6379L111.293 22.1246L96.567 30.7449L66.0638 48.5743H66.0586Z" fill="#2F3F64"/>
<path d="M118.412 37.002C117.879 37.002 117.359 36.7227 117.075 36.226L112.954 29.0143C112.534 28.2767 112.79 27.3394 113.525 26.9169C114.263 26.4969 115.2 26.753 115.623 27.488L119.743 34.6997C120.164 35.4371 119.907 36.3744 119.172 36.7972C118.932 36.9355 118.67 37.002 118.412 37.002Z" fill="#2F3F64"/>
<path d="M73.2067 63.4112C73.1734 63.4112 73.1426 63.4112 73.1094 63.4087C72.2617 63.3548 71.6187 62.6251 71.6726 61.7798L71.7724 60.1817C72.0618 55.6975 69.6776 51.5129 65.695 49.5228L64.2736 48.8032C63.5155 48.4193 63.2131 47.4946 63.5974 46.7393C63.9814 45.9812 64.9061 45.6791 65.6617 46.0631L67.0754 46.7802C72.1567 49.3205 75.2069 54.6605 74.838 60.3791L74.7383 61.9744C74.6872 62.7889 74.011 63.4112 73.2067 63.4112Z" fill="#2F3F64"/>
<path d="M64.5582 63.9426C64.3815 63.9426 64.2023 63.9118 64.0283 63.8477C63.2317 63.5558 62.8219 62.6724 63.1166 61.8758C63.5646 60.6568 63.4851 59.2942 62.9013 58.142C62.3098 57.0178 61.2595 56.1673 60.038 55.8345C59.2183 55.6115 58.737 54.7666 58.9596 53.9469C59.1826 53.1276 60.0278 52.646 60.8472 52.8689C62.8912 53.4247 64.6352 54.8331 65.6341 56.7308C66.6124 58.6642 66.7429 60.9154 66.0027 62.9335C65.7748 63.5558 65.1858 63.9401 64.561 63.9401L64.5582 63.9426Z" fill="#2F3F64"/>
</g>
</g>
<defs>
<clipPath id="clip0_227_18">
<rect width="126" height="126" fill="white"/>
</clipPath>
</defs>
</svg>
