<svg width="121" height="123" viewBox="0 0 121 123" fill="none" xmlns="http://www.w3.org/2000/svg">
<path d="M20.1497 83.75C19.8197 83.75 19.4997 83.59 19.3097 83.29C14.6197 75.92 12.1396 67.38 12.1396 58.6C12.1396 33.2 32.7996 12.54 58.1996 12.54C83.5996 12.54 104.26 33.2 104.26 58.6C104.26 59.15 103.81 59.6 103.26 59.6C102.71 59.6 102.26 59.15 102.26 58.6C102.26 34.31 82.4996 14.54 58.1996 14.54C33.8996 14.54 14.1396 34.3 14.1396 58.6C14.1396 67 16.5096 75.17 20.9996 82.22C21.2996 82.69 21.1596 83.3 20.6896 83.6C20.5196 83.71 20.3397 83.76 20.1497 83.76V83.75Z" fill="#2F3F64"/>
<path d="M99.8597 51.58C107.901 51.58 114.42 45.0612 114.42 37.02C114.42 28.9787 107.901 22.46 99.8597 22.46C91.8185 22.46 85.2998 28.9787 85.2998 37.02C85.2998 45.0612 91.8185 51.58 99.8597 51.58Z" fill="white"/>
<path d="M99.8597 52.5702C91.2797 52.5702 84.2998 45.5902 84.2998 37.0102C84.2998 28.4302 91.2797 21.4502 99.8597 21.4502C108.44 21.4502 115.42 28.4302 115.42 37.0102C115.42 45.5902 108.44 52.5702 99.8597 52.5702ZM99.8597 23.4602C92.3897 23.4602 86.2998 29.5402 86.2998 37.0202C86.2998 44.5002 92.3797 50.5802 99.8597 50.5802C107.34 50.5802 113.42 44.5002 113.42 37.0202C113.42 29.5402 107.34 23.4602 99.8597 23.4602Z" fill="#2F3F64"/>
<path d="M107.95 37.21C107.95 41.91 104.73 45.25 99.9897 45.25C95.2497 45.25 91.7598 41.57 91.7598 37.02C91.7598 32.47 95.4397 28.79 99.9897 28.79C102.21 28.79 104.07 29.6 105.51 30.94L103.27 33.09C100.34 30.26 94.8898 32.39 94.8898 37.01C94.8898 39.88 97.1797 42.21 99.9897 42.21C103.25 42.21 104.47 39.87 104.66 38.66H99.9897V35.83H107.83C107.91 36.25 107.96 36.66 107.96 37.2L107.95 37.21Z" fill="#2F3F64"/>
<path d="M56.8101 30.8104C64.8513 30.8104 71.37 24.2917 71.37 16.2504C71.37 8.20916 64.8513 1.69043 56.8101 1.69043C48.7688 1.69043 42.25 8.20916 42.25 16.2504C42.25 24.2917 48.7688 30.8104 56.8101 30.8104Z" fill="white"/>
<path d="M56.8101 31.8104C48.2301 31.8104 41.25 24.8304 41.25 16.2504C41.25 7.67043 48.2301 0.69043 56.8101 0.69043C65.3901 0.69043 72.37 7.67043 72.37 16.2504C72.37 24.8304 65.3901 31.8104 56.8101 31.8104ZM56.8101 2.69043C49.3401 2.69043 43.25 8.77043 43.25 16.2504C43.25 23.7304 49.3301 29.8104 56.8101 29.8104C64.2901 29.8104 70.37 23.7304 70.37 16.2504C70.37 8.77043 64.2901 2.69043 56.8101 2.69043Z" fill="#2F3F64"/>
<path fill-rule="evenodd" clip-rule="evenodd" d="M47.9297 21.7405V13.4905L52.6697 17.6805C53.4997 18.4005 54.7197 18.4105 55.5497 17.7005L57.8196 15.7905C57.8196 15.7905 57.8797 15.7505 57.9097 15.7205L61.0497 13.0305V23.4205H49.6296C48.6996 23.4205 47.9396 22.6605 47.9396 21.7305L47.9297 21.7405ZM62.2496 23.4305H63.9896C64.9196 23.4305 65.6797 22.6705 65.6797 21.7405V9.06055L62.2496 12.0005V23.4305ZM53.4696 16.7805L47.9396 11.8905V9.07055L55.7096 15.7305C55.7596 15.7805 55.8196 15.8205 55.8796 15.8605L54.7797 16.7905C54.3997 17.1105 53.8496 17.1105 53.4696 16.7905V16.7805Z" fill="#2F3F64"/>
<path fill-rule="evenodd" clip-rule="evenodd" d="M34.7697 121.261C32.1897 121.261 30.0996 119.171 30.0996 116.591V69.7706C30.0996 67.1906 32.1897 65.1006 34.7697 65.1006H114.62C117.2 65.1006 119.29 67.1906 119.29 69.7706V116.591C119.29 119.171 117.2 121.261 114.62 121.261H34.7697Z" fill="white"/>
<path d="M114.62 122.261H34.7697C31.6397 122.261 29.0996 119.721 29.0996 116.591V69.7608C29.0996 66.6308 31.6397 64.0908 34.7697 64.0908H114.62C117.75 64.0908 120.29 66.6308 120.29 69.7608V116.591C120.29 119.721 117.75 122.261 114.62 122.261ZM34.7697 66.0908C32.7497 66.0908 31.0996 67.7408 31.0996 69.7608V116.591C31.0996 118.611 32.7497 120.261 34.7697 120.261H114.62C116.64 120.261 118.29 118.611 118.29 116.591V69.7608C118.29 67.7408 116.64 66.0908 114.62 66.0908H34.7697Z" fill="#2F3F64"/>
<path fill-rule="evenodd" clip-rule="evenodd" d="M35.3496 66.0303L71.6396 97.9303C73.4697 99.5703 75.9196 99.5703 77.7496 97.9303L113.39 66.0303H35.3496Z" fill="#FEC95C"/>
<path d="M31.2995 120.531C31.0395 120.531 30.7894 120.431 30.5894 120.241C30.1994 119.851 30.1994 119.221 30.5894 118.831L61.0495 88.3609C61.4395 87.9709 62.0694 87.9709 62.4594 88.3609C62.8494 88.7509 62.8494 89.3809 62.4594 89.7709L31.9994 120.241C31.7994 120.441 31.5494 120.531 31.2894 120.531H31.2995Z" fill="#2F3F64"/>
<path d="M117.9 120.531C117.64 120.531 117.39 120.431 117.19 120.241L86.8101 89.8607C86.4201 89.4707 86.4201 88.8407 86.8101 88.4507C87.2001 88.0607 87.83 88.0607 88.22 88.4507L118.6 118.831C118.99 119.221 118.99 119.851 118.6 120.241C118.4 120.441 118.15 120.531 117.89 120.531H117.9Z" fill="#2F3F64"/>
<path d="M74.6896 100.171C73.3896 100.171 72.0796 99.6708 70.9696 98.6708L34.3997 65.8408C33.9897 65.4708 33.9496 64.8408 34.3196 64.4308C34.6896 64.0208 35.3197 63.9908 35.7297 64.3508L72.2997 97.1808C73.7497 98.4808 75.6296 98.4808 77.0796 97.1808L100.29 76.3408C100.7 75.9708 101.33 76.0008 101.7 76.4208C102.07 76.8308 102.03 77.4608 101.62 77.8308L78.4097 98.6708C77.2997 99.6708 75.9896 100.171 74.6896 100.171Z" fill="#2F3F64"/>
<path d="M16.4496 55.62C24.4909 55.62 31.0096 49.1013 31.0096 41.06C31.0096 33.0187 24.4909 26.5 16.4496 26.5C8.40832 26.5 1.88965 33.0187 1.88965 41.06C1.88965 49.1013 8.40832 55.62 16.4496 55.62Z" fill="white"/>
<path d="M16.4496 56.6102C7.86959 56.6102 0.889648 49.6302 0.889648 41.0502C0.889648 32.4702 7.86959 25.4902 16.4496 25.4902C25.0296 25.4902 32.0096 32.4702 32.0096 41.0502C32.0096 49.6302 25.0296 56.6102 16.4496 56.6102ZM16.4496 27.5002C8.97959 27.5002 2.88965 33.5802 2.88965 41.0602C2.88965 48.5402 8.96959 54.6202 16.4496 54.6202C23.9296 54.6202 30.0096 48.5402 30.0096 41.0602C30.0096 33.5802 23.9296 27.5002 16.4496 27.5002Z" fill="#2F3F64"/>
<path d="M10.4592 46.98C10.9092 47.26 11.6492 47.57 12.4392 47.57C13.1592 47.57 13.8193 47.36 14.3693 47.01L16.4492 45.71V50.41C16.1192 50.41 15.7893 50.32 15.4993 50.14L10.4492 46.99L10.4592 46.98Z" fill="#2F3F64"/>
<path d="M15.1295 32.5302L6.47943 42.2902C5.80943 43.0402 5.98943 44.1802 6.84943 44.7302C6.84943 44.7302 10.0494 46.7302 10.4594 46.9802C10.9094 47.2602 11.6494 47.5702 12.4394 47.5702C13.1594 47.5702 13.8194 47.3602 14.3694 47.0102L16.4494 45.7102L11.4195 42.5602L16.4594 36.8802V31.9502C15.9694 31.9502 15.4795 32.1502 15.1395 32.5402L15.1295 32.5302Z" fill="#BCC5DC"/>
<path d="M11.4199 42.5601L11.4799 42.5901L16.4498 45.7001V36.8801V36.8701L11.4199 42.5601Z" fill="white"/>
<path d="M26.0597 44.72C26.9297 44.18 27.0997 43.04 26.4297 42.28L20.7496 35.88C20.2896 35.67 19.7796 35.54 19.2296 35.54C18.1596 35.54 17.2096 36 16.5696 36.72L16.4396 36.86L21.4696 42.54L16.4297 45.69V50.39C16.7597 50.39 17.0896 50.3 17.3796 50.12L26.0297 44.71L26.0597 44.72Z" fill="#2F3F64"/>
<path d="M16.4492 31.9404V36.8704L16.5792 36.7304C17.2092 36.0104 18.1693 35.5504 19.2393 35.5504C19.7793 35.5504 20.2993 35.6704 20.7593 35.8904L17.7793 32.5304C17.4293 32.1404 16.9492 31.9504 16.4592 31.9504L16.4492 31.9404Z" fill="#BCC5DC"/>
<path d="M21.4893 42.5609L16.4492 36.8809V45.7009L21.4893 42.5609Z" fill="#BCC5DC"/>
</svg>
