<svg viewBox="0 0 129 130" fill="none" xmlns="http://www.w3.org/2000/svg">
<g id="on-premise">
<path id="Vector" fill-rule="evenodd" clip-rule="evenodd" d="M1.93994 41.9495C1.93994 40.1595 2.88993 38.4995 4.42993 37.5895L62.28 3.52953C63.86 2.59953 65.8299 2.59953 67.4099 3.52953L125.26 37.5895C126.8 38.4995 127.75 40.1595 127.75 41.9495V100.09C127.75 102.88 125.48 105.15 122.69 105.15H6.97998C4.18998 105.15 1.91992 102.88 1.91992 100.09V41.9495H1.93994Z" fill="white"/>
<path id="Vector_2" fill-rule="evenodd" clip-rule="evenodd" d="M92.9094 18.6798L92.9695 18.5798L125.28 37.5998C126.82 38.5098 127.77 40.1698 127.77 41.9598V100.1C127.77 102.89 125.499 105.16 122.709 105.16H6.99951C4.20951 105.16 1.93945 102.89 1.93945 100.1V41.9598C1.93945 40.1698 2.88944 38.5098 4.42944 37.5998L64.8196 2.0498L64.8794 2.14984L4.4895 37.6998C2.9795 38.5898 2.05957 40.2098 2.05957 41.9598V100.1C2.05957 102.83 4.26951 105.04 6.99951 105.04H122.709C125.439 105.04 127.649 102.83 127.649 100.1V41.9598C127.649 40.2098 126.729 38.5898 125.219 37.6998L92.9094 18.6798Z" fill="white"/>
<path id="Vector_3" d="M122.709 106.15H6.99951C3.65951 106.15 0.939453 103.43 0.939453 100.09V41.9503C0.939453 39.8103 2.07944 37.8103 3.92944 36.7303L64.3196 1.1803C64.5496 1.0403 64.8196 1.01032 65.0796 1.07032C65.3396 1.14032 65.5595 1.31029 65.6895 1.54029L65.7495 1.64032C66.0295 2.12032 65.8694 2.72031 65.3894 3.00031L4.99951 38.5503C3.79951 39.2603 3.05957 40.5603 3.05957 41.9503V100.09C3.05957 102.26 4.82951 104.03 6.99951 104.03H122.709C124.879 104.03 126.649 102.26 126.649 100.09V41.9503C126.649 40.5603 125.909 39.2603 124.709 38.5503L92.3994 19.5303C91.9194 19.2503 91.7696 18.6403 92.0396 18.1603L92.0996 18.0603C92.2296 17.8303 92.4495 17.6603 92.7095 17.6003C92.9695 17.5303 93.2395 17.5703 93.4695 17.7103L125.78 36.7303C127.62 37.8103 128.77 39.8203 128.77 41.9503V100.09C128.77 103.43 126.049 106.15 122.709 106.15Z" fill="#2F3F64"/>
<path id="Vector_4" d="M31.8398 56.8799H96.7397C100.16 56.8799 102.94 59.6599 102.94 63.0799V75.4799C102.94 78.8999 100.16 81.6799 96.7397 81.6799H31.8398C28.4198 81.6799 25.6396 78.8999 25.6396 75.4799V63.0799C25.6396 59.6599 28.4198 56.8799 31.8398 56.8799Z" fill="#BCC5DC"/>
<path id="Vector_5" d="M96.7397 82.6896H31.8398C27.8698 82.6896 24.6396 79.4596 24.6396 75.4896V63.0897C24.6396 59.1197 27.8698 55.8896 31.8398 55.8896H96.7397C100.71 55.8896 103.94 59.1197 103.94 63.0897V75.4896C103.94 79.4596 100.71 82.6896 96.7397 82.6896ZM31.8398 57.8796C28.9698 57.8796 26.6396 60.2097 26.6396 63.0797V75.4796C26.6396 78.3496 28.9698 80.6796 31.8398 80.6796H96.7397C99.6097 80.6796 101.94 78.3496 101.94 75.4796V63.0797C101.94 60.2097 99.6097 57.8796 96.7397 57.8796H31.8398Z" fill="#2F3F64"/>
<path id="Vector_6" d="M31.8398 85.29H96.7397C100.16 85.29 102.94 88.0701 102.94 91.4901V103.89C102.94 107.31 100.16 110.09 96.7397 110.09H31.8398C28.4198 110.09 25.6396 107.31 25.6396 103.89V91.4901C25.6396 88.0701 28.4198 85.29 31.8398 85.29Z" fill="#BCC5DC"/>
<path id="Vector_7" d="M96.7397 111.09H31.8398C27.8698 111.09 24.6396 107.86 24.6396 103.89V91.4901C24.6396 87.5201 27.8698 84.29 31.8398 84.29H96.7397C100.71 84.29 103.94 87.5201 103.94 91.4901V103.89C103.94 107.86 100.71 111.09 96.7397 111.09ZM31.8398 86.29C28.9698 86.29 26.6396 88.6201 26.6396 91.4901V103.89C26.6396 106.76 28.9698 109.09 31.8398 109.09H96.7397C99.6097 109.09 101.94 106.76 101.94 103.89V91.4901C101.94 88.6201 99.6097 86.29 96.7397 86.29H31.8398Z" fill="#2F3F64"/>
<path id="Vector_8" fill-rule="evenodd" clip-rule="evenodd" d="M37.8101 65.1504C40.0901 65.1504 41.9399 67.0003 41.9399 69.2903C41.9399 71.5803 40.0901 73.4203 37.8101 73.4203C35.5301 73.4203 33.6699 71.5703 33.6699 69.2903C33.6699 67.0103 35.5201 65.1504 37.8101 65.1504Z" fill="#FEC95C"/>
<path id="Vector_9" d="M37.8098 74.4202C34.9798 74.4202 32.6797 72.1202 32.6797 69.2902C32.6797 66.4602 34.9798 64.1602 37.8098 64.1602C40.6398 64.1602 42.9397 66.4602 42.9397 69.2902C42.9397 72.1202 40.6398 74.4202 37.8098 74.4202ZM37.8098 66.1502C36.0798 66.1502 34.6797 67.5602 34.6797 69.2802C34.6797 71.0002 36.0898 72.4102 37.8098 72.4102C39.5298 72.4102 40.9397 71.0002 40.9397 69.2802C40.9397 67.5602 39.5298 66.1502 37.8098 66.1502Z" fill="#2F3F64"/>
<path id="Vector_10" fill-rule="evenodd" clip-rule="evenodd" d="M49.3293 65.1504C51.6093 65.1504 53.4592 67.0003 53.4592 69.2903C53.4592 71.5803 51.6093 73.4203 49.3293 73.4203C47.0493 73.4203 45.1992 71.5703 45.1992 69.2903C45.1992 67.0103 47.0493 65.1504 49.3293 65.1504Z" fill="#2F3F64"/>
<path id="Vector_11" d="M49.3293 74.4202C46.4993 74.4202 44.1992 72.1202 44.1992 69.2902C44.1992 66.4602 46.4993 64.1602 49.3293 64.1602C52.1593 64.1602 54.4592 66.4602 54.4592 69.2902C54.4592 72.1202 52.1593 74.4202 49.3293 74.4202ZM49.3293 66.1502C47.5993 66.1502 46.1992 67.5602 46.1992 69.2802C46.1992 71.0002 47.6093 72.4102 49.3293 72.4102C51.0493 72.4102 52.4592 71.0002 52.4592 69.2802C52.4592 67.5602 51.0493 66.1502 49.3293 66.1502Z" fill="#2F3F64"/>
<path id="Vector_12" fill-rule="evenodd" clip-rule="evenodd" d="M60.8391 65.1504C63.1191 65.1504 64.969 67.0003 64.969 69.2903C64.969 71.5803 63.1191 73.4203 60.8391 73.4203C58.5591 73.4203 56.709 71.5703 56.709 69.2903C56.709 67.0103 58.5591 65.1504 60.8391 65.1504Z" fill="#2F3F64"/>
<path id="Vector_13" d="M60.8391 74.4202C58.0091 74.4202 55.709 72.1202 55.709 69.2902C55.709 66.4602 58.0091 64.1602 60.8391 64.1602C63.6691 64.1602 65.969 66.4602 65.969 69.2902C65.969 72.1202 63.6691 74.4202 60.8391 74.4202ZM60.8391 66.1502C59.1091 66.1502 57.709 67.5602 57.709 69.2802C57.709 71.0002 59.1191 72.4102 60.8391 72.4102C62.5591 72.4102 63.969 71.0002 63.969 69.2802C63.969 67.5602 62.5591 66.1502 60.8391 66.1502Z" fill="#2F3F64"/>
<path id="Vector_14" d="M94.9395 70.29H69.8994C69.3494 70.29 68.8994 69.84 68.8994 69.29C68.8994 68.74 69.3494 68.29 69.8994 68.29H94.9395C95.4895 68.29 95.9395 68.74 95.9395 69.29C95.9395 69.84 95.4895 70.29 94.9395 70.29Z" fill="#2F3F64"/>
<path id="Vector_15" fill-rule="evenodd" clip-rule="evenodd" d="M37.8101 93.5596C40.0901 93.5596 41.9399 95.4096 41.9399 97.6896C41.9399 99.9696 40.0901 101.82 37.8101 101.82C35.5301 101.82 33.6699 99.9696 33.6699 97.6896C33.6699 95.4096 35.5201 93.5596 37.8101 93.5596Z" fill="#FEC95C"/>
<path id="Vector_16" d="M37.8098 102.83C34.9798 102.83 32.6797 100.53 32.6797 97.7003C32.6797 94.8703 34.9798 92.5703 37.8098 92.5703C40.6398 92.5703 42.9397 94.8703 42.9397 97.7003C42.9397 100.53 40.6398 102.83 37.8098 102.83ZM37.8098 94.5603C36.0798 94.5603 34.6797 95.9703 34.6797 97.6903C34.6797 99.4103 36.0898 100.82 37.8098 100.82C39.5298 100.82 40.9397 99.4103 40.9397 97.6903C40.9397 95.9703 39.5298 94.5603 37.8098 94.5603Z" fill="#2F3F64"/>
<path id="Vector_17" fill-rule="evenodd" clip-rule="evenodd" d="M49.3293 93.5596C51.6093 93.5596 53.4592 95.4096 53.4592 97.6896C53.4592 99.9696 51.6093 101.82 49.3293 101.82C47.0493 101.82 45.1992 99.9696 45.1992 97.6896C45.1992 95.4096 47.0493 93.5596 49.3293 93.5596Z" fill="#2F3F64"/>
<path id="Vector_18" d="M49.3293 102.83C46.4993 102.83 44.1992 100.53 44.1992 97.7003C44.1992 94.8703 46.4993 92.5703 49.3293 92.5703C52.1593 92.5703 54.4592 94.8703 54.4592 97.7003C54.4592 100.53 52.1593 102.83 49.3293 102.83ZM49.3293 94.5603C47.5993 94.5603 46.1992 95.9703 46.1992 97.6903C46.1992 99.4103 47.6093 100.82 49.3293 100.82C51.0493 100.82 52.4592 99.4103 52.4592 97.6903C52.4592 95.9703 51.0493 94.5603 49.3293 94.5603Z" fill="#2F3F64"/>
<path id="Vector_19" fill-rule="evenodd" clip-rule="evenodd" d="M60.8391 93.5596C63.1191 93.5596 64.969 95.4096 64.969 97.6896C64.969 99.9696 63.1191 101.82 60.8391 101.82C58.5591 101.82 56.709 99.9696 56.709 97.6896C56.709 95.4096 58.5591 93.5596 60.8391 93.5596Z" fill="#2F3F64"/>
<path id="Vector_20" d="M60.8391 102.83C58.0091 102.83 55.709 100.53 55.709 97.7003C55.709 94.8703 58.0091 92.5703 60.8391 92.5703C63.6691 92.5703 65.969 94.8703 65.969 97.7003C65.969 100.53 63.6691 102.83 60.8391 102.83ZM60.8391 94.5603C59.1091 94.5603 57.709 95.9703 57.709 97.6903C57.709 99.4103 59.1191 100.82 60.8391 100.82C62.5591 100.82 63.969 99.4103 63.969 97.6903C63.969 95.9703 62.5591 94.5603 60.8391 94.5603Z" fill="#2F3F64"/>
<path id="Vector_21" d="M94.9395 98.6895H69.8994C69.3494 98.6895 68.8994 98.2395 68.8994 97.6895C68.8994 97.1395 69.3494 96.6895 69.8994 96.6895H94.9395C95.4895 96.6895 95.9395 97.1395 95.9395 97.6895C95.9395 98.2395 95.4895 98.6895 94.9395 98.6895Z" fill="#2F3F64"/>
<path id="Vector_22" d="M63.8496 119.49C63.2996 119.49 62.8496 119.04 62.8496 118.49V111.1C62.8496 110.55 63.2996 110.1 63.8496 110.1C64.3996 110.1 64.8496 110.55 64.8496 111.1V118.49C64.8496 119.04 64.3996 119.49 63.8496 119.49Z" fill="#2F3F64"/>
<path id="Vector_23" d="M59.5393 123.33H47.8594C47.3094 123.33 46.8594 122.88 46.8594 122.33C46.8594 121.78 47.3094 121.33 47.8594 121.33H59.5393C60.0893 121.33 60.5393 121.78 60.5393 122.33C60.5393 122.88 60.0893 123.33 59.5393 123.33Z" fill="#2F3F64"/>
<path id="Vector_24" d="M80.7297 123.33H69.0498C68.4998 123.33 68.0498 122.88 68.0498 122.33C68.0498 121.78 68.4998 121.33 69.0498 121.33H80.7297C81.2797 121.33 81.7297 121.78 81.7297 122.33C81.7297 122.88 81.2797 123.33 80.7297 123.33Z" fill="#2F3F64"/>
<g id="Group">
<path id="Vector_25" d="M69.218 123.547C69.9323 120.521 68.058 117.489 65.0318 116.775C62.0056 116.061 58.9734 117.935 58.2591 120.961C57.5449 123.987 59.4191 127.019 62.4453 127.734C65.4715 128.448 68.5038 126.574 69.218 123.547Z" fill="#FEC95C"/>
<path id="Vector_26" d="M63.8489 128.96C60.1889 128.96 57.2188 125.98 57.2188 122.33C57.2188 118.68 60.1989 115.7 63.8489 115.7C67.4989 115.7 70.4788 118.68 70.4788 122.33C70.4788 125.98 67.4989 128.96 63.8489 128.96ZM63.8489 117.69C61.2989 117.69 59.2188 119.77 59.2188 122.32C59.2188 124.87 61.2989 126.95 63.8489 126.95C66.3989 126.95 68.4788 124.87 68.4788 122.32C68.4788 119.77 66.3989 117.69 63.8489 117.69Z" fill="#2F3F64"/>
</g>
<path id="Vector_27" fill-rule="evenodd" clip-rule="evenodd" d="M100 22.7098V1.21973H115V31.5397L100 22.7098Z" fill="#BCC5DC"/>
<path id="Vector_28" d="M115 32.5399C114.82 32.5399 114.65 32.49 114.49 32.4L99.49 23.5699C99.18 23.3899 99 23.06 99 22.71V1.20996C99 0.659961 99.45 0.209961 100 0.209961H115C115.55 0.209961 116 0.659961 116 1.20996V31.5399C116 31.8999 115.81 32.2299 115.5 32.4099C115.35 32.4999 115.17 32.5399 115 32.5399ZM101 22.14L114 29.7899V2.20996H101V22.1299V22.14Z" fill="#2F3F64"/>
</g>
</svg>
