<svg width="127" height="120" viewBox="0 0 127 120" fill="none" xmlns="http://www.w3.org/2000/svg">
<path d="M4.72009 44.01L16.4001 37.05C18.0301 36.08 19.3102 34.61 20.0402 32.86L25.6702 19.46C26.7502 16.88 29.2701 15.21 32.0701 15.21H50.8801V73.88H11.8002C8.42017 73.88 5.52008 71.44 4.96008 68.1L1.43017 51.14C0.950173 48.31 2.26009 45.48 4.72009 44.02V44.01Z" fill="#BCC5DC"/>
<path d="M50.88 74.8702H11.8C7.91002 74.8702 4.61995 72.0902 3.96995 68.2602L0.449928 51.3302C-0.100072 48.0802 1.40994 44.8102 4.20994 43.1402L12.85 37.9902C13.32 37.7102 13.9399 37.8602 14.2199 38.3402C14.4999 38.8102 14.35 39.4302 13.87 39.7102L5.22996 44.8602C3.13996 46.1102 2.01001 48.5602 2.41001 50.9602L5.93003 67.8902C6.42003 70.7902 8.89001 72.8702 11.79 72.8702H49.87V16.2002H32.06C29.66 16.2002 27.5099 17.6302 26.5799 19.8402C26.3699 20.3502 25.78 20.5902 25.27 20.3802C24.76 20.1702 24.52 19.5802 24.73 19.0702C25.97 16.1102 28.84 14.2002 32.05 14.2002H50.86C51.41 14.2002 51.86 14.6502 51.86 15.2002V73.8702C51.86 74.4202 51.41 74.8702 50.86 74.8702H50.88Z" fill="#2F3F64"/>
<path d="M115.87 73.9102L50.8802 73.9102L50.8802 4.79016C50.8802 2.80016 52.4903 1.19016 54.4803 1.19016L115.93 1.19016C117.92 1.19016 119.53 2.80016 119.53 4.79016L119.53 70.2402C119.53 72.2702 117.89 73.9102 115.86 73.9102H115.87Z" fill="#BCC5DC"/>
<path d="M115.87 74.9104H50.8799C50.3299 74.9104 49.8799 74.4604 49.8799 73.9104V4.79043C49.8799 2.25043 51.9399 0.19043 54.4799 0.19043H115.93C118.47 0.19043 120.53 2.25043 120.53 4.79043V70.2404C120.53 72.8204 118.43 74.9104 115.86 74.9104H115.87ZM51.8799 72.9104H115.87C117.34 72.9104 118.54 71.7104 118.54 70.2404V4.79043C118.54 3.36043 117.37 2.19043 115.94 2.19043H54.4899C53.0599 2.19043 51.8899 3.36043 51.8899 4.79043V72.9104H51.8799Z" fill="#2F3F64"/>
<path d="M25.9902 87.6407C33.424 87.6407 39.4502 81.6145 39.4502 74.1807C39.4502 66.7469 33.424 60.7207 25.9902 60.7207C18.5565 60.7207 12.5303 66.7469 12.5303 74.1807C12.5303 81.6145 18.5565 87.6407 25.9902 87.6407Z" fill="#2F3F64"/>
<path d="M25.9896 82.07C30.3472 82.07 33.8796 78.5376 33.8796 74.18C33.8796 69.8225 30.3472 66.29 25.9896 66.29C21.6321 66.29 18.0996 69.8225 18.0996 74.18C18.0996 78.5376 21.6321 82.07 25.9896 82.07Z" fill="#BCC5DC"/>
<path d="M25.9896 83.07C21.0896 83.07 17.0996 79.08 17.0996 74.18C17.0996 69.28 21.0896 65.29 25.9896 65.29C30.8896 65.29 34.8796 69.28 34.8796 74.18C34.8796 79.08 30.8896 83.07 25.9896 83.07ZM25.9896 67.29C22.1896 67.29 19.0996 70.38 19.0996 74.18C19.0996 77.98 22.1896 81.07 25.9896 81.07C29.7896 81.07 32.8796 77.98 32.8796 74.18C32.8796 70.38 29.7896 67.29 25.9896 67.29Z" fill="#2F3F64"/>
<path d="M91.9902 87.6407C99.424 87.6407 105.45 81.6145 105.45 74.1807C105.45 66.7469 99.424 60.7207 91.9902 60.7207C84.5565 60.7207 78.5303 66.7469 78.5303 74.1807C78.5303 81.6145 84.5565 87.6407 91.9902 87.6407Z" fill="#2F3F64"/>
<path d="M32.53 19.21H44.52C45.72 19.21 46.6999 20.12 46.6999 21.25V34.94C46.6999 36.07 45.73 36.98 44.52 36.98H27.64C26.15 36.98 25.1099 35.61 25.5799 34.29L30.4599 20.6C30.7599 19.77 31.59 19.21 32.52 19.21H32.53Z" fill="white"/>
<path d="M44.5296 37.9802H27.6496C26.5896 37.9802 25.6096 37.4802 25.0196 36.6402C24.4596 35.8402 24.3196 34.8602 24.6496 33.9502L29.5296 20.2602C29.9696 19.0302 31.1796 18.2002 32.5296 18.2002H44.5196C46.2696 18.2002 47.6996 19.5602 47.6996 21.2402V34.9302C47.6996 36.6102 46.2796 37.9702 44.5196 37.9702L44.5296 37.9802ZM32.5296 20.2102C32.0196 20.2102 31.5696 20.5002 31.4096 20.9402L26.5296 34.6302C26.3896 35.0302 26.5496 35.3402 26.6496 35.4902C26.8696 35.8002 27.2396 35.9802 27.6496 35.9802H44.5296C45.1796 35.9802 45.7096 35.5102 45.7096 34.9402V21.2502C45.7096 20.6802 45.1796 20.2102 44.5296 20.2102H32.5397H32.5296Z" fill="#2F3F64"/>
<path d="M1.42993 51.1309H12.2299C13.3499 51.1309 14.2998 51.9509 14.4598 53.0609L14.9999 56.8209C15.1899 58.1809 14.1399 59.3909 12.7699 59.3909H3.13989L1.41992 51.1309H1.42993Z" fill="#FEC95C"/>
<path d="M12.7797 60.3909H3.14967C2.67967 60.3909 2.26969 60.0609 2.16969 59.5909L0.449595 51.3309C0.389595 51.0409 0.459668 50.7309 0.649668 50.5009C0.839668 50.2709 1.1197 50.1309 1.4297 50.1309H12.2296C13.8396 50.1309 15.2196 51.3309 15.4496 52.9209L15.9896 56.6809C16.1196 57.6109 15.8496 58.5609 15.2296 59.2709C14.6096 59.9809 13.7197 60.3909 12.7697 60.3909H12.7797ZM3.9596 58.3909H12.7697C13.1397 58.3909 13.4696 58.2409 13.7096 57.9609C13.9496 57.6809 14.0496 57.3309 13.9996 56.9609L13.4596 53.2009C13.3696 52.5909 12.8396 52.1309 12.2196 52.1309H2.63966L3.93958 58.3909H3.9596Z" fill="#2F3F64"/>
<path d="M91.9896 82.07C96.3472 82.07 99.8796 78.5376 99.8796 74.18C99.8796 69.8225 96.3472 66.29 91.9896 66.29C87.6321 66.29 84.0996 69.8225 84.0996 74.18C84.0996 78.5376 87.6321 82.07 91.9896 82.07Z" fill="#BCC5DC"/>
<path d="M91.9896 83.07C87.0896 83.07 83.0996 79.08 83.0996 74.18C83.0996 69.28 87.0896 65.29 91.9896 65.29C96.8896 65.29 100.88 69.28 100.88 74.18C100.88 79.08 96.8896 83.07 91.9896 83.07ZM91.9896 67.29C88.1896 67.29 85.0996 70.38 85.0996 74.18C85.0996 77.98 88.1896 81.07 91.9896 81.07C95.7896 81.07 98.8796 77.98 98.8796 74.18C98.8796 70.38 95.7896 67.29 91.9896 67.29Z" fill="#2F3F64"/>
<path fill-rule="evenodd" clip-rule="evenodd" d="M113.38 45.3604V58.1404H125.93L113.38 45.3604Z" fill="#2F3F64"/>
<path d="M125.93 59.1403H113.38C112.83 59.1403 112.38 58.6903 112.38 58.1403V45.3703C112.38 44.9603 112.63 44.6003 113 44.4403C113.38 44.2903 113.81 44.3703 114.09 44.6603L126.64 57.4303C126.92 57.7203 127.01 58.1503 126.85 58.5203C126.69 58.8903 126.33 59.1303 125.93 59.1303V59.1403ZM114.38 57.1403H123.55L114.38 47.8103V57.1403Z" fill="#2F3F64"/>
<path fill-rule="evenodd" clip-rule="evenodd" d="M115.93 97.3V67.81H103.38V55.04H64.7904C63.4704 55.04 62.4004 56.11 62.4004 57.43V115.02C62.4004 117.1 64.0904 118.79 66.1704 118.79H114.14C115.12 118.79 115.92 118 115.92 117.01V114.82" fill="#BCC5DC"/>
<path d="M114.16 119.78H66.1898C63.5598 119.78 61.4199 117.64 61.4199 115.01V57.4203C61.4199 55.5503 62.9399 54.0303 64.8099 54.0303H103.4C103.95 54.0303 104.4 54.4803 104.4 55.0303V66.8003H115.95C116.5 66.8003 116.95 67.2503 116.95 67.8003V97.2903C116.95 97.8403 116.5 98.2903 115.95 98.2903C115.4 98.2903 114.95 97.8403 114.95 97.2903V68.8003H103.4C102.85 68.8003 102.4 68.3503 102.4 67.8003V56.0303H64.8099C64.0499 56.0303 63.4199 56.6503 63.4199 57.4203V115.01C63.4199 116.54 64.6598 117.78 66.1898 117.78H114.16C114.59 117.78 114.94 117.43 114.94 117.01V114.82C114.94 114.27 115.39 113.82 115.94 113.82C116.49 113.82 116.94 114.27 116.94 114.82V117.01C116.94 118.54 115.69 119.78 114.16 119.78Z" fill="#2F3F64"/>
<path fill-rule="evenodd" clip-rule="evenodd" d="M120.93 92.6301V63.1401H108.38V50.3701H69.7904C68.4704 50.3701 67.4004 51.4401 67.4004 52.7601V110.35C67.4004 112.43 69.0904 114.12 71.1704 114.12H119.14C120.12 114.12 120.92 113.33 120.92 112.34V110.15" fill="white"/>
<path d="M119.16 115.11H71.1898C68.5598 115.11 66.4199 112.97 66.4199 110.34V52.7504C66.4199 50.8804 67.9399 49.3604 69.8099 49.3604H108.4C108.95 49.3604 109.4 49.8104 109.4 50.3604V62.1303H120.95C121.5 62.1303 121.95 62.5803 121.95 63.1303V92.6204C121.95 93.1704 121.5 93.6204 120.95 93.6204C120.4 93.6204 119.95 93.1704 119.95 92.6204V64.1303H108.4C107.85 64.1303 107.4 63.6803 107.4 63.1303V51.3604H69.8099C69.0499 51.3604 68.4199 51.9804 68.4199 52.7504V110.34C68.4199 111.87 69.6598 113.11 71.1898 113.11H119.16C119.59 113.11 119.94 112.76 119.94 112.34V110.15C119.94 109.6 120.39 109.15 120.94 109.15C121.49 109.15 121.94 109.6 121.94 110.15V112.34C121.94 113.87 120.69 115.11 119.16 115.11Z" fill="#2F3F64"/>
<path fill-rule="evenodd" clip-rule="evenodd" d="M125.93 87.6301V58.1401H113.38V45.3701H74.7904C73.4704 45.3701 72.4004 46.4401 72.4004 47.7601V105.35C72.4004 107.43 74.0904 109.12 76.1704 109.12H124.14C125.12 109.12 125.92 108.33 125.92 107.34V105.15" fill="white"/>
<path d="M124.16 110.11H76.1898C73.5598 110.11 71.4199 107.97 71.4199 105.34V47.7504C71.4199 45.8804 72.9399 44.3604 74.8099 44.3604H113.4C113.95 44.3604 114.4 44.8104 114.4 45.3604V57.1303H125.95C126.5 57.1303 126.95 57.5803 126.95 58.1303V87.6204C126.95 88.1704 126.5 88.6204 125.95 88.6204C125.4 88.6204 124.95 88.1704 124.95 87.6204V59.1303H113.4C112.85 59.1303 112.4 58.6803 112.4 58.1303V46.3604H74.8099C74.0499 46.3604 73.4199 46.9804 73.4199 47.7504V105.34C73.4199 106.87 74.6598 108.11 76.1898 108.11H124.16C124.59 108.11 124.94 107.76 124.94 107.34V105.15C124.94 104.6 125.39 104.15 125.94 104.15C126.49 104.15 126.94 104.6 126.94 105.15V107.34C126.94 108.87 125.69 110.11 124.16 110.11Z" fill="#2F3F64"/>
<path d="M118.61 65.7607H90.7701C89.9969 65.7607 89.3701 66.3875 89.3701 67.1607V69.9807C89.3701 70.7539 89.9969 71.3807 90.7701 71.3807H118.61C119.383 71.3807 120.01 70.7539 120.01 69.9807V67.1607C120.01 66.3875 119.383 65.7607 118.61 65.7607Z" fill="#FEC95C"/>
<path d="M85.5499 65.7607H81.9899C81.2167 65.7607 80.5898 66.3875 80.5898 67.1607V69.9807C80.5898 70.7539 81.2167 71.3807 81.9899 71.3807H85.5499C86.3231 71.3807 86.9498 70.7539 86.9498 69.9807V67.1607C86.9498 66.3875 86.3231 65.7607 85.5499 65.7607Z" fill="#FEC95C"/>
<path d="M85.5499 95.5408H81.9899C80.8499 95.5408 79.9199 94.6108 79.9199 93.4708V90.6608C79.9199 89.5208 80.8499 88.5908 81.9899 88.5908H85.5499C86.6899 88.5908 87.6199 89.5208 87.6199 90.6608V93.4708C87.6199 94.6108 86.6899 95.5408 85.5499 95.5408ZM81.9999 89.9208C81.5899 89.9208 81.2599 90.2508 81.2599 90.6608V93.4708C81.2599 93.8808 81.5899 94.2108 81.9999 94.2108H85.5599C85.9699 94.2108 86.2999 93.8808 86.2999 93.4708V90.6608C86.2999 90.2508 85.9699 89.9208 85.5599 89.9208H81.9999Z" fill="#BCC5DC"/>
<path d="M118.95 77.5303H91.11C90.3368 77.5303 89.71 78.1571 89.71 78.9303V81.7503C89.71 82.5235 90.3368 83.1503 91.11 83.1503H118.95C119.723 83.1503 120.35 82.5235 120.35 81.7503V78.9303C120.35 78.1571 119.723 77.5303 118.95 77.5303Z" fill="#BCC5DC"/>
<path d="M118.95 89.29H91.11C90.3368 89.29 89.71 89.9168 89.71 90.69V93.51C89.71 94.2832 90.3368 94.91 91.11 94.91H118.95C119.723 94.91 120.35 94.2832 120.35 93.51V90.69C120.35 89.9168 119.723 89.29 118.95 89.29Z" fill="#BCC5DC"/>
<path d="M83.4095 70.53C83.1195 70.53 82.8495 70.41 82.6595 70.2L81.1195 68.48C80.7495 68.07 80.7894 67.44 81.1994 67.07C81.6094 66.7 82.2395 66.74 82.6095 67.15L83.3995 68.04L86.5895 64.47C86.9595 64.06 87.5895 64.02 87.9995 64.39C88.4095 64.76 88.4494 65.39 88.0794 65.8L84.1495 70.2C83.9595 70.41 83.6895 70.53 83.3995 70.53H83.4095Z" fill="#2F3F64"/>
<path d="M85.5499 77.8408H81.9899C81.2167 77.8408 80.5898 78.4676 80.5898 79.2408V82.0608C80.5898 82.834 81.2167 83.4608 81.9899 83.4608H85.5499C86.3231 83.4608 86.9498 82.834 86.9498 82.0608V79.2408C86.9498 78.4676 86.3231 77.8408 85.5499 77.8408Z" fill="#BCC5DC"/>
<path d="M83.4095 82.61C83.1195 82.61 82.8495 82.49 82.6595 82.28L81.1195 80.56C80.7495 80.15 80.7894 79.52 81.1994 79.15C81.6094 78.78 82.2395 78.8201 82.6095 79.2301L83.3995 80.12L86.5895 76.55C86.9595 76.14 87.5895 76.1 87.9995 76.47C88.4095 76.84 88.4494 77.47 88.0794 77.88L84.1495 82.28C83.9595 82.49 83.6895 82.61 83.3995 82.61H83.4095Z" fill="#2F3F64"/>
</svg>
