<svg viewBox="0 0 128 129" fill="none" xmlns="http://www.w3.org/2000/svg">
<g id="order-supplies">
<path id="Vector" fill-rule="evenodd" clip-rule="evenodd" d="M95.4398 111.01V113.44C95.4198 115.64 93.3498 117.42 90.7998 117.42H5.58984C2.96984 117.42 0.839844 115.59 0.839844 113.33V12.4796C0.839844 10.2196 2.96984 8.38965 5.58984 8.38965H9.09979V106.93C9.09979 109.19 11.2298 111.02 13.8498 111.02H95.4398V111.01Z" fill="#2F3F64"/>
<path id="Vector_2" fill-rule="evenodd" clip-rule="evenodd" d="M103.69 105.43C103.68 108.51 101.18 111.01 98.0898 111.01H13.8398C11.2198 111.01 9.08984 109.18 9.08984 106.92V6.07047C9.08984 3.81047 11.2198 1.98047 13.8398 1.98047H99.2898C101.91 1.98047 104.04 3.81047 104.04 6.07047C104.04 6.07047 103.76 83.7305 103.68 105.43H103.69Z" fill="white"/>
<path id="Vector_3" d="M98.0898 112.01H13.8398C10.6698 112.01 8.08984 109.73 8.08984 106.92V6.06973C8.08984 3.25973 10.6698 0.979736 13.8398 0.979736H59.8898C60.4398 0.979736 60.8898 1.42974 60.8898 1.97974C60.8898 2.52974 60.4398 2.97974 59.8898 2.97974H13.8398C11.7698 2.97974 10.0898 4.36973 10.0898 6.06973V106.92C10.0898 108.63 11.7698 110.01 13.8398 110.01H98.0898C100.62 110.01 102.68 107.96 102.69 105.43L103.05 6.05972C103.05 4.35972 101.37 2.96973 99.2998 2.96973H91.2798C90.7298 2.96973 90.2798 2.51973 90.2798 1.96973C90.2798 1.41973 90.7298 0.969727 91.2798 0.969727H99.2998C102.47 0.969727 105.05 3.24972 105.05 6.05972L104.69 105.43C104.68 109.05 101.72 112 98.0898 112V112.01Z" fill="#2F3F64"/>
<path id="Vector_4" fill-rule="evenodd" clip-rule="evenodd" d="M93.3503 68.3996V72.9096C93.3503 74.1596 92.3403 75.1696 91.0903 75.1696H21.0803C19.8303 75.1696 18.8203 74.1596 18.8203 72.9096V68.3996C18.8203 67.1496 19.8303 66.1396 21.0803 66.1396H91.0903C92.3403 66.1396 93.3503 67.1496 93.3503 68.3996Z" fill="#BCC5DC"/>
<path id="Vector_5" fill-rule="evenodd" clip-rule="evenodd" d="M56.5703 85.4797V89.9897C56.5703 91.2397 55.5603 92.2497 54.3103 92.2497H21.0803C19.8303 92.2497 18.8203 91.2397 18.8203 89.9897V85.4797C18.8203 84.2297 19.8303 83.2197 21.0803 83.2197H54.3103C55.5603 83.2197 56.5703 84.2297 56.5703 85.4797Z" fill="#BCC5DC"/>
<g id="Group">
<path id="Vector_6" d="M101.94 127.83C115.372 127.83 126.26 116.942 126.26 103.51C126.26 90.0789 115.372 79.1904 101.94 79.1904C88.5086 79.1904 77.6201 90.0789 77.6201 103.51C77.6201 116.942 88.5086 127.83 101.94 127.83Z" fill="#FEC95C"/>
<path id="Vector_7" d="M101.94 128.83C87.9801 128.83 76.6201 117.47 76.6201 103.51C76.6201 89.5504 87.9801 78.1904 101.94 78.1904C115.9 78.1904 127.26 89.5504 127.26 103.51C127.26 117.47 115.9 128.83 101.94 128.83ZM101.94 80.1904C89.0801 80.1904 78.6201 90.6504 78.6201 103.51C78.6201 116.37 89.0801 126.83 101.94 126.83C114.8 126.83 125.26 116.37 125.26 103.51C125.26 90.6504 114.8 80.1904 101.94 80.1904Z" fill="#2F3F64"/>
</g>
<path id="Vector_8" d="M97.1405 112.93C96.9105 112.93 96.6805 112.85 96.4905 112.69L87.7705 105.26C87.3505 104.9 87.3005 104.27 87.6605 103.85C88.0205 103.43 88.6505 103.38 89.0705 103.74L97.0905 110.57L114.75 92.9097C115.14 92.5197 115.77 92.5197 116.16 92.9097C116.55 93.2997 116.55 93.9297 116.16 94.3197L97.8405 112.63C97.6505 112.82 97.3905 112.92 97.1305 112.92L97.1405 112.93Z" fill="#2F3F64"/>
<path id="Vector_9" d="M69.1603 41.8H45.4304C44.8104 41.8 44.2604 41.39 44.0904 40.79L37.3104 17.29C37.2304 17.01 36.9704 16.82 36.6904 16.82H33.2604C32.4904 16.82 31.8604 16.2 31.8604 15.43C31.8604 14.66 32.4804 14.04 33.2604 14.04H36.6904C38.2104 14.04 39.5704 15.06 40.0004 16.53L46.4904 39.03H68.0704L71.7104 24.33H47.6204C46.8504 24.33 46.2203 23.71 46.2203 22.94C46.2203 22.17 46.8404 21.55 47.6204 21.55H73.4904C73.9204 21.55 74.3204 21.75 74.5904 22.08C74.8504 22.42 74.9503 22.86 74.8503 23.28L70.5204 40.77C70.3704 41.39 69.8103 41.83 69.1703 41.83L69.1603 41.8ZM53.5904 49.26C53.5904 46.7 51.5104 44.62 48.9504 44.62C46.3904 44.62 44.3104 46.7 44.3104 49.26C44.3104 51.82 46.3904 53.9 48.9504 53.9C51.5104 53.9 53.5904 51.82 53.5904 49.26ZM50.8004 49.26C50.8004 50.28 49.9704 51.11 48.9504 51.11C47.9304 51.11 47.1003 50.28 47.1003 49.26C47.1003 48.24 47.9304 47.41 48.9504 47.41C49.9704 47.41 50.8004 48.24 50.8004 49.26ZM70.6703 49.26C70.6703 46.7 68.5904 44.62 66.0304 44.62C63.4704 44.62 61.3904 46.7 61.3904 49.26C61.3904 51.82 63.4704 53.9 66.0304 53.9C68.5904 53.9 70.6703 51.82 70.6703 49.26ZM67.8804 49.26C67.8804 50.28 67.0504 51.11 66.0304 51.11C65.0104 51.11 64.1804 50.28 64.1804 49.26C64.1804 48.24 65.0104 47.41 66.0304 47.41C67.0504 47.41 67.8804 48.24 67.8804 49.26Z" fill="#BCC5DC"/>
</g>
</svg>
