<svg viewBox="0 0 109 129" fill="none" xmlns="http://www.w3.org/2000/svg">
<g id="partner">
<path id="Vector" fill-rule="evenodd" clip-rule="evenodd" d="M50.1604 88.2996L27.4004 127.72L22.3606 111.93L6.19043 115.47L28.9504 76.0596L50.1604 88.2996Z" fill="#FEC95C"/>
<path id="Vector_2" d="M27.4004 128.719C27.4004 128.719 27.3306 128.719 27.2906 128.719C26.9006 128.679 26.5705 128.409 26.4405 128.029L21.6805 113.109L6.40042 116.449C6.01042 116.529 5.6104 116.379 5.3804 116.059C5.1504 115.739 5.12059 115.309 5.32059 114.969L28.0806 75.5594C28.3606 75.0794 28.9705 74.9194 29.4505 75.1894L50.6604 87.4294C50.8904 87.5594 51.0604 87.7793 51.1304 88.0393C51.2004 88.2993 51.1606 88.5694 51.0306 88.7994L28.2705 128.219C28.0905 128.529 27.7604 128.719 27.4004 128.719ZM22.3706 110.929C22.8006 110.929 23.1906 111.199 23.3206 111.629L27.6704 125.259L48.8006 88.6694L29.3206 77.4294L8.20047 114.009L22.1604 110.949C22.2304 110.929 22.3006 110.929 22.3706 110.929Z" fill="#2F3F64"/>
<path id="Vector_3" fill-rule="evenodd" clip-rule="evenodd" d="M63.6904 88.2996L86.4504 127.72L91.4805 111.93L107.65 115.47L84.9004 76.0596L63.6904 88.2996Z" fill="#FEC95C"/>
<path id="Vector_4" d="M86.4496 128.72C86.0996 128.72 85.7597 128.53 85.5797 128.22L62.8197 88.7999C62.6897 88.5699 62.6496 88.2999 62.7196 88.0399C62.7896 87.7799 62.9596 87.5699 63.1896 87.4299L84.3995 75.1899C84.8795 74.9099 85.4897 75.0799 85.7697 75.5599L108.53 114.97C108.73 115.31 108.7 115.74 108.47 116.06C108.24 116.38 107.84 116.53 107.45 116.45L92.1696 113.11L87.4095 128.03C87.2895 128.41 86.9597 128.68 86.5597 128.72C86.5197 128.72 86.4896 128.72 86.4496 128.72ZM65.0497 88.6599L86.1796 125.25L90.5297 111.62C90.6897 111.13 91.1996 110.84 91.6996 110.95L105.66 114.01L84.5297 77.4299L65.0497 88.6699V88.6599Z" fill="#2F3F64"/>
<path id="Vector_5" fill-rule="evenodd" clip-rule="evenodd" d="M54.6602 1.18945C83.9102 1.18945 107.66 25.2695 107.66 54.9395C107.66 84.6095 83.9102 108.689 54.6602 108.689C25.4102 108.689 1.66016 84.6095 1.66016 54.9395C1.66016 25.2695 25.4102 1.18945 54.6602 1.18945Z" fill="white"/>
<path id="Vector_6" d="M54.6602 109.689C24.8902 109.689 0.660156 85.1295 0.660156 54.9395C0.660156 24.7495 24.8802 0.189453 54.6602 0.189453C73.5002 0.189453 91.2402 10.3794 100.97 26.7894C101.25 27.2594 101.09 27.8794 100.62 28.1594C100.14 28.4394 99.5302 28.2894 99.2502 27.8094C89.8802 12.0094 72.7902 2.18945 54.6602 2.18945C25.9902 2.18945 2.66016 25.8495 2.66016 54.9395C2.66016 84.0294 25.9902 107.689 54.6602 107.689C83.3302 107.689 106.66 84.0294 106.66 54.9395C106.66 54.3895 107.11 53.9395 107.66 53.9395C108.21 53.9395 108.66 54.3895 108.66 54.9395C108.66 85.1295 84.4402 109.689 54.6602 109.689Z" fill="#2F3F64"/>
<path id="Vector_7" fill-rule="evenodd" clip-rule="evenodd" d="M54.6606 14.0098C76.9306 14.0098 95.0208 32.3498 95.0208 54.9398C95.0208 77.5298 76.9406 95.8698 54.6606 95.8698C32.3806 95.8698 14.3008 77.5298 14.3008 54.9398C14.3008 32.3498 32.3806 14.0098 54.6606 14.0098Z" fill="#2F3F64"/>
<path id="Vector_8" d="M73.6808 51.0192C71.0908 46.3492 62.1009 46.7592 53.6109 51.9292C53.1309 52.2192 52.6808 52.5292 52.2408 52.8392C52.2408 52.8392 52.2108 52.8792 52.2208 52.8892C52.2208 52.9092 52.2509 52.9092 52.2709 52.8992C57.5409 51.3792 61.8409 51.4491 63.7809 53.4691C64.8509 54.5791 65.0709 56.1792 64.5809 58.0592C64.2409 59.8792 63.1809 61.8792 61.5409 63.8292C58.9909 67.2192 55.0507 70.9092 50.1507 74.2692C45.6307 77.3692 38.3407 80.8592 34.1507 82.3192C34.1507 82.3192 34.0909 82.3391 34.0609 82.3591C33.8809 82.4791 33.8308 82.7292 33.9408 82.8992C34.0408 83.0392 34.2507 83.0791 34.4107 83.0391C39.0607 81.8791 43.2309 79.8492 47.5909 77.8792C52.3609 75.7192 56.9509 73.1991 61.2709 70.2191C65.1309 67.5491 69.1209 64.6692 71.8209 60.7492C73.6609 58.0792 75.4208 54.1692 73.6808 51.0092V51.0192Z" fill="#BCC5DC"/>
<path id="Vector_9" d="M55.2005 37.2596C59.9405 35.5096 64.8606 35.0296 69.8506 35.0496C71.0806 35.0496 72.1405 35.2497 72.2205 33.4597C72.3005 31.7997 71.7206 31.1397 70.0606 31.0197C65.2206 30.6897 60.4104 31.0396 55.6404 31.7496C49.0504 32.7196 42.6504 34.4096 37.1404 38.4896C26.6304 46.2796 26.9906 62.0897 37.8406 69.3997C41.1206 71.6097 44.7506 72.9597 48.5706 73.8297C50.8006 74.4097 55.4406 74.9796 56.0806 75.0596C60.5506 75.4496 65.0205 75.6597 69.5205 75.2597C71.3705 75.0897 71.3106 74.1597 71.3506 72.8297C71.3906 71.3397 70.9006 70.7297 69.3606 70.7797C68.0606 70.8297 66.7705 70.8397 65.4805 70.7697H65.4104C64.3104 70.7197 63.2104 70.5797 62.1304 70.3997C57.8704 69.7797 55.0205 68.8596 55.0205 68.8596C46.7206 66.0396 43.2705 61.1697 43.2205 53.3297C43.1805 45.5997 47.2305 40.2097 55.2005 37.2697H55.2205L55.2005 37.2596Z" fill="white"/>
</g>
</svg>
