<svg width="128" height="128" viewBox="0 0 128 128" fill="none" xmlns="http://www.w3.org/2000/svg">
<path fill-rule="evenodd" clip-rule="evenodd" d="M72.5098 1.00391V23.2939H94.4098L72.5098 1.00391Z" fill="#2F3F64"/>
<path d="M94.4098 24.2941H72.5098C71.9598 24.2941 71.5098 23.8441 71.5098 23.2941V1.00408C71.5098 0.594078 71.7598 0.234078 72.1298 0.0740782C72.5098 -0.0759218 72.9397 0.00407824 73.2197 0.294078L95.1198 22.5841C95.3998 22.8741 95.4898 23.3041 95.3298 23.6741C95.1698 24.0441 94.8098 24.2841 94.4098 24.2841V24.2941ZM73.5098 22.2941H92.0298L73.5098 3.44408V22.2941Z" fill="#2F3F64"/>
<path fill-rule="evenodd" clip-rule="evenodd" d="M1.00977 1.00391V112.254H94.4098V23.2939H72.5098V1.00391H32.5598" fill="white"/>
<path d="M94.41 113.254H1C0.45 113.254 0 112.804 0 112.254V1.00391C0 0.453906 0.45 0.00390625 1 0.00390625C1.55 0.00390625 2 0.453906 2 1.00391V111.254H93.41V24.2939H72.51C71.96 24.2939 71.51 23.8439 71.51 23.2939V2.00391H32.55C32 2.00391 31.55 1.55391 31.55 1.00391C31.55 0.453906 32 0.00390625 32.55 0.00390625H72.51C73.06 0.00390625 73.51 0.453906 73.51 1.00391V22.2939H94.41C94.96 22.2939 95.41 22.7439 95.41 23.2939V112.254C95.41 112.804 94.96 113.254 94.41 113.254Z" fill="#2F3F64"/>
<path d="M102.11 126.414C115.542 126.414 126.43 115.526 126.43 102.094C126.43 88.6628 115.542 77.7744 102.11 77.7744C88.6784 77.7744 77.79 88.6628 77.79 102.094C77.79 115.526 88.6784 126.414 102.11 126.414Z" fill="#FEC95C"/>
<path d="M102.11 127.414C88.15 127.414 76.79 116.054 76.79 102.094C76.79 88.1344 88.15 76.7744 102.11 76.7744C116.07 76.7744 127.43 88.1344 127.43 102.094C127.43 116.054 116.07 127.414 102.11 127.414ZM102.11 78.7844C89.25 78.7844 78.79 89.2444 78.79 102.104C78.79 114.964 89.25 125.424 102.11 125.424C114.97 125.424 125.43 114.964 125.43 102.104C125.43 89.2444 114.97 78.7844 102.11 78.7844Z" fill="#2F3F64"/>
<path d="M102.11 105.034C101.34 105.034 100.72 104.414 100.72 103.644V87.9545C100.72 87.1845 101.34 86.5645 102.11 86.5645C102.88 86.5645 103.5 87.1845 103.5 87.9545V103.644C103.5 104.414 102.88 105.034 102.11 105.034Z" fill="#2F3F64"/>
<path d="M117.79 113.654H87.8597C87.0897 113.654 86.4697 113.034 86.4697 112.264V104.024C86.4697 103.254 87.0897 102.634 87.8597 102.634C88.6297 102.634 89.2498 103.254 89.2498 104.024V110.864H116.39V104.024C116.39 103.254 117.01 102.634 117.78 102.634C118.55 102.634 119.17 103.254 119.17 104.024V112.264C119.17 113.034 118.55 113.654 117.78 113.654H117.79Z" fill="#2F3F64"/>
<path d="M102.1 105.784C101.74 105.784 101.39 105.644 101.11 105.374L93.4196 97.6838C92.8796 97.1438 92.8796 96.2538 93.4196 95.7138C93.9596 95.1738 94.8496 95.1738 95.3896 95.7138L102.09 102.414L108.8 95.7038C109.34 95.1638 110.23 95.1638 110.77 95.7038C111.31 96.2438 111.31 97.1338 110.77 97.6738L103.07 105.374C102.8 105.644 102.44 105.784 102.08 105.784H102.1Z" fill="#2F3F64"/>
<path fill-rule="evenodd" clip-rule="evenodd" d="M64.4004 41.6836H16.1504C13.9604 41.6836 12.1904 43.4536 12.1904 45.6436V70.2736C12.1904 72.4636 13.9604 74.2336 16.1504 74.2336H82.3405C84.5305 74.2336 86.3004 72.4636 86.3004 70.2736V45.6436C86.3004 43.4536 84.5305 41.6836 82.3405 41.6836" fill="#BCC5DC"/>
<path d="M82.3405 75.2336H16.1504C13.4204 75.2336 11.1904 73.0136 11.1904 70.2736V45.6436C11.1904 42.9136 13.4104 40.6836 16.1504 40.6836H64.4004C64.9504 40.6836 65.4004 41.1336 65.4004 41.6836C65.4004 42.2336 64.9504 42.6836 64.4004 42.6836H16.1504C14.5204 42.6836 13.1904 44.0136 13.1904 45.6436V70.2736C13.1904 71.9036 14.5204 73.2336 16.1504 73.2336H82.3405C83.9705 73.2336 85.3004 71.9036 85.3004 70.2736V45.6436C85.3004 44.0136 83.9705 42.6836 82.3405 42.6836C81.7905 42.6836 81.3405 42.2336 81.3405 41.6836C81.3405 41.1336 81.7905 40.6836 82.3405 40.6836C85.0705 40.6836 87.3004 42.9036 87.3004 45.6436V70.2736C87.3004 73.0036 85.0805 75.2336 82.3405 75.2336Z" fill="#2F3F64"/>
<path d="M39.3301 57.2042C38.8501 58.0842 38.1001 58.8042 37.0901 59.3442C36.0701 59.8842 34.79 60.1542 33.24 60.1542H30.0801V67.4042H26.29V48.5342H33.24C34.7 48.5342 35.94 48.7842 36.97 49.2942C38 49.7942 38.77 50.4942 39.28 51.3742C39.79 52.2542 40.05 53.2542 40.05 54.3742C40.05 55.3842 39.8101 56.3342 39.3301 57.2142V57.2042ZM35.4 56.3742C35.9 55.8942 36.16 55.2242 36.16 54.3642C36.16 52.5242 35.1301 51.6042 33.0801 51.6042H30.0801V57.0942H33.0801C34.1301 57.0942 34.9 56.8542 35.41 56.3742H35.4Z" fill="#2F3F64"/>
<path d="M54.5498 49.6844C56.0498 50.4644 57.2198 51.5644 58.0398 52.9944C58.8598 54.4244 59.2698 56.0944 59.2698 57.9844C59.2698 59.8744 58.8598 61.5344 58.0398 62.9444C57.2198 64.3644 56.0598 65.4544 54.5498 66.2344C53.0398 67.0144 51.2998 67.3944 49.3198 67.3944H42.7197V48.5244H49.3198C51.2998 48.5244 53.0498 48.9144 54.5498 49.6844ZM53.7798 62.5544C54.8598 61.4744 55.3998 59.9544 55.3998 57.9844C55.3998 56.0144 54.8598 54.4844 53.7798 53.3744C52.6998 52.2644 51.1698 51.7144 49.1798 51.7144H46.4998V64.1744H49.1798C51.1598 64.1744 52.6998 63.6344 53.7798 62.5544Z" fill="#2F3F64"/>
<path d="M73.7704 48.5244V51.5844H65.9004V56.4244H71.9304V59.4244H65.9004V67.4044H62.1104V48.5344H73.7604L73.7704 48.5244Z" fill="#2F3F64"/>
</svg>
