<svg width="127" height="127" viewBox="0 0 127 127" fill="none" xmlns="http://www.w3.org/2000/svg">
<path fill-rule="evenodd" clip-rule="evenodd" d="M12.65 79.3899C14.44 70.3999 15.48 59.5899 15.48 47.9699C15.48 36.3499 14.44 25.5399 12.65 16.5499C12.44 15.5099 12.29 14.4699 12.17 13.4199H5.41003C2.98003 13.4199 1 15.3899 1 17.8299V77.6599C1 80.0899 2.97003 82.0699 5.41003 82.0699H12.23C12.34 81.1699 12.48 80.2799 12.65 79.3899Z" fill="#BCC5DC"/>
<path fill-rule="evenodd" clip-rule="evenodd" d="M87.53 13.4102H35.38C35.26 14.3602 35.12 15.3102 34.93 16.2502C33.11 25.3002 32.04 36.2102 32.04 47.9602C32.04 59.7102 33.11 70.6202 34.93 79.6702C35.09 80.4602 35.21 81.2602 35.32 82.0602H87.53C89.96 82.0602 91.94 80.0902 91.94 77.6502V17.8202C91.94 15.3902 89.97 13.4102 87.53 13.4102Z" fill="#BCC5DC"/>
<path d="M12.23 83.0702H5.41003C2.43003 83.0702 0 80.6402 0 77.6602V17.8202C0 14.8402 2.43003 12.4102 5.41003 12.4102H12.17C12.68 12.4102 13.11 12.7902 13.16 13.3002C13.28 14.3402 13.43 15.3602 13.63 16.3502C15.49 25.7402 16.48 36.6702 16.48 47.9602C16.48 59.2502 15.49 70.1902 13.63 79.5802C13.47 80.3802 13.34 81.2302 13.22 82.1902C13.16 82.6902 12.73 83.0702 12.23 83.0702ZM5.41003 14.4102C3.53003 14.4102 2 15.9402 2 17.8202V77.6502C2 79.5302 3.53003 81.0602 5.41003 81.0602H11.36C11.45 80.4002 11.56 79.7802 11.68 79.1902C13.52 69.9302 14.49 59.1302 14.49 47.9602C14.49 36.7902 13.52 26.0002 11.68 16.7302C11.53 15.9702 11.4 15.1902 11.29 14.4002H5.41003V14.4102Z" fill="#2F3F64"/>
<path d="M87.53 83.0704H35.32C34.82 83.0704 34.4 82.7004 34.33 82.2004C34.21 81.3104 34.09 80.5704 33.95 79.8704C32.05 70.4204 31.04 59.3904 31.04 47.9604C31.04 36.5304 32.04 25.5004 33.95 16.0504C34.12 15.1904 34.27 14.2804 34.39 13.2804C34.45 12.7804 34.88 12.4004 35.38 12.4004H59.65C60.2 12.4004 60.65 12.8504 60.65 13.4004C60.65 13.9504 60.2 14.4004 59.65 14.4004H36.26C36.16 15.1204 36.04 15.7904 35.91 16.4404C34.03 25.7604 33.04 36.6604 33.04 47.9504C33.04 59.2404 34.03 70.1404 35.91 79.4604C36.01 79.9604 36.1 80.4804 36.19 81.0504H87.53C89.41 81.0504 90.94 79.5204 90.94 77.6404V17.8204C90.94 15.9404 89.41 14.4104 87.53 14.4104C86.98 14.4104 86.53 13.9604 86.53 13.4104C86.53 12.8604 86.98 12.4104 87.53 12.4104C90.51 12.4104 92.94 14.8404 92.94 17.8204V77.6504C92.94 80.6304 90.51 83.0604 87.53 83.0604V83.0704Z" fill="#2F3F64"/>
<path fill-rule="evenodd" clip-rule="evenodd" d="M32.0499 47.9695C32.0499 36.2195 33.1199 25.3095 34.9399 16.2595C35.3999 13.9695 35.66 11.6495 35.66 9.31953V5.89953C35.66 3.19953 33.47 1.01953 30.78 1.01953H16.84C14.14 1.01953 11.96 3.19953 11.96 5.89953V9.70953C11.96 12.0095 12.21 14.2995 12.66 16.5495C14.45 25.5395 15.4899 36.3495 15.4899 47.9695C15.4899 59.5895 14.45 70.3995 12.66 79.3895C12.21 81.6395 11.96 83.9295 11.96 86.2295V87.0795C11.96 89.7795 14.14 91.9595 16.84 91.9595H30.78C33.48 91.9595 35.66 89.7795 35.66 87.0795V86.6195C35.66 84.2895 35.3999 81.9695 34.9399 79.6795C33.1199 70.6295 32.0499 59.7195 32.0499 47.9695Z" fill="white"/>
<path d="M30.7702 92.96H16.8302C13.5902 92.96 10.9502 90.32 10.9502 87.08V86.23C10.9502 83.96 11.1902 81.59 11.6702 79.19C13.5102 69.93 14.4802 59.13 14.4802 47.96C14.4802 36.79 13.5102 26 11.6702 16.73C11.1902 14.33 10.9502 11.97 10.9502 9.69V5.88C10.9502 2.64 13.5902 0 16.8302 0H30.7702C34.0102 0 36.6502 2.64 36.6502 5.88V9.3C36.6502 11.6 36.4002 14 35.9102 16.44C34.0302 25.76 33.0402 36.66 33.0402 47.95C33.0402 59.24 34.0302 70.14 35.9102 79.46C36.4002 81.89 36.6502 84.29 36.6502 86.6V87.06C36.6502 90.3 34.0102 92.94 30.7702 92.94V92.96ZM16.8402 2.02C14.7002 2.02 12.9602 3.76 12.9602 5.9V9.71C12.9602 11.85 13.1902 14.09 13.6402 16.36C15.5002 25.75 16.4902 36.68 16.4902 47.97C16.4902 59.26 15.5002 70.2 13.6402 79.59C13.1902 81.86 12.9602 84.1 12.9602 86.24V87.09C12.9602 89.23 14.7002 90.97 16.8402 90.97H30.7802C32.9202 90.97 34.6602 89.23 34.6602 87.09V86.63C34.6602 84.46 34.4302 82.19 33.9602 79.89C32.0602 70.44 31.0502 59.41 31.0502 47.98C31.0502 36.55 32.0502 25.52 33.9602 16.07C34.4202 13.77 34.6602 11.5 34.6602 9.33V5.91C34.6602 3.77 32.9202 2.03 30.7802 2.03H16.8402V2.02Z" fill="#2F3F64"/>
<path d="M79.1395 22.7695H44.9395C43.3047 22.7695 41.9795 24.0948 41.9795 25.7295V36.6795C41.9795 38.3143 43.3047 39.6395 44.9395 39.6395H79.1395C80.7742 39.6395 82.0995 38.3143 82.0995 36.6795V25.7295C82.0995 24.0948 80.7742 22.7695 79.1395 22.7695Z" fill="white"/>
<path d="M79.1397 40.6398H44.9297C42.7497 40.6398 40.9697 38.8698 40.9697 36.6798V25.7198C40.9697 23.5398 42.7397 21.7598 44.9297 21.7598H79.1397C81.3197 21.7598 83.0997 23.5298 83.0997 25.7198V36.6798C83.0997 38.8598 81.3297 40.6398 79.1397 40.6398ZM44.9297 23.7698C43.8497 23.7698 42.9697 24.6498 42.9697 25.7298V36.6898C42.9697 37.7698 43.8497 38.6498 44.9297 38.6498H79.1397C80.2197 38.6498 81.0997 37.7698 81.0997 36.6898V25.7298C81.0997 24.6498 80.2197 23.7698 79.1397 23.7698H44.9297Z" fill="#2F3F64"/>
<path d="M52.0004 47.7402H44.4104C43.6924 47.7402 43.1104 48.3223 43.1104 49.0402V50.0502C43.1104 50.7682 43.6924 51.3502 44.4104 51.3502H52.0004C52.7183 51.3502 53.3004 50.7682 53.3004 50.0502V49.0402C53.3004 48.3223 52.7183 47.7402 52.0004 47.7402Z" fill="#2F3F64"/>
<path d="M65.8304 46.9199H58.2404C57.5224 46.9199 56.9404 47.502 56.9404 48.2199V50.8799C56.9404 51.5979 57.5224 52.1799 58.2404 52.1799H65.8304C66.5484 52.1799 67.1304 51.5979 67.1304 50.8799V48.2199C67.1304 47.502 66.5484 46.9199 65.8304 46.9199Z" fill="#FEC95C"/>
<path d="M65.8304 53.1799H58.2404C56.9704 53.1799 55.9404 52.1499 55.9404 50.8799V48.2199C55.9404 46.9499 56.9704 45.9199 58.2404 45.9199H65.8304C67.1004 45.9199 68.1304 46.9499 68.1304 48.2199V50.8799C68.1304 52.1499 67.1004 53.1799 65.8304 53.1799ZM58.2404 47.9199C58.0704 47.9199 57.9404 48.0599 57.9404 48.2199V50.8799C57.9404 51.0499 58.0804 51.1799 58.2404 51.1799H65.8304C66.0004 51.1799 66.1304 51.0399 66.1304 50.8799V48.2199C66.1304 48.0499 65.9904 47.9199 65.8304 47.9199H58.2404Z" fill="#2F3F64"/>
<path d="M79.6605 47.7402H72.0705C71.3525 47.7402 70.7705 48.3223 70.7705 49.0402V50.0502C70.7705 50.7682 71.3525 51.3502 72.0705 51.3502H79.6605C80.3785 51.3502 80.9605 50.7682 80.9605 50.0502V49.0402C80.9605 48.3223 80.3785 47.7402 79.6605 47.7402Z" fill="#2F3F64"/>
<path d="M52.0004 57.46H44.4104C43.6924 57.46 43.1104 58.042 43.1104 58.76V59.77C43.1104 60.4879 43.6924 61.07 44.4104 61.07H52.0004C52.7183 61.07 53.3004 60.4879 53.3004 59.77V58.76C53.3004 58.042 52.7183 57.46 52.0004 57.46Z" fill="#2F3F64"/>
<path d="M65.8304 57.46H58.2404C57.5224 57.46 56.9404 58.042 56.9404 58.76V59.77C56.9404 60.4879 57.5224 61.07 58.2404 61.07H65.8304C66.5484 61.07 67.1304 60.4879 67.1304 59.77V58.76C67.1304 58.042 66.5484 57.46 65.8304 57.46Z" fill="#2F3F64"/>
<path d="M79.6605 57.46H72.0705C71.3525 57.46 70.7705 58.042 70.7705 58.76V59.77C70.7705 60.4879 71.3525 61.07 72.0705 61.07H79.6605C80.3785 61.07 80.9605 60.4879 80.9605 59.77V58.76C80.9605 58.042 80.3785 57.46 79.6605 57.46Z" fill="#2F3F64"/>
<path d="M52.0004 67.1904H44.4104C43.6924 67.1904 43.1104 67.7725 43.1104 68.4904V69.5004C43.1104 70.2184 43.6924 70.8004 44.4104 70.8004H52.0004C52.7183 70.8004 53.3004 70.2184 53.3004 69.5004V68.4904C53.3004 67.7725 52.7183 67.1904 52.0004 67.1904Z" fill="#2F3F64"/>
<path d="M65.8304 67.1904H58.2404C57.5224 67.1904 56.9404 67.7725 56.9404 68.4904V69.5004C56.9404 70.2184 57.5224 70.8004 58.2404 70.8004H65.8304C66.5484 70.8004 67.1304 70.2184 67.1304 69.5004V68.4904C67.1304 67.7725 66.5484 67.1904 65.8304 67.1904Z" fill="#2F3F64"/>
<path d="M79.6605 67.1904H72.0705C71.3525 67.1904 70.7705 67.7725 70.7705 68.4904V69.5004C70.7705 70.2184 71.3525 70.8004 72.0705 70.8004H79.6605C80.3785 70.8004 80.9605 70.2184 80.9605 69.5004V68.4904C80.9605 67.7725 80.3785 67.1904 79.6605 67.1904Z" fill="#2F3F64"/>
<path d="M95.5195 101.066L101.056 95.5297L123.832 118.306C125.359 119.833 125.359 122.308 123.832 123.835C122.305 125.363 119.83 125.363 118.303 123.835L95.5266 101.059L95.5195 101.066Z" fill="#2F3F64"/>
<path d="M121.049 125.981C119.789 125.981 118.53 125.501 117.58 124.541L94.8095 101.771C94.6195 101.581 94.5195 101.331 94.5195 101.061C94.5195 100.791 94.6295 100.541 94.8095 100.351L100.34 94.8208C100.73 94.4308 101.36 94.4308 101.75 94.8208L124.52 117.591C125.45 118.521 125.96 119.751 125.96 121.061C125.96 122.371 125.45 123.611 124.52 124.531C123.56 125.491 122.299 125.971 121.049 125.971V125.981ZM96.9295 101.071L119 123.141C120.1 124.241 122.02 124.241 123.12 123.141C123.67 122.591 123.97 121.861 123.97 121.081C123.97 120.301 123.67 119.571 123.12 119.021L101.049 96.9508L96.9295 101.071Z" fill="#2F3F64"/>
<path d="M103.614 105.894C114.831 95.7697 115.717 78.4689 105.592 67.252C95.4674 56.0351 78.1666 55.1496 66.9497 65.2742C55.7328 75.3988 54.8473 92.6996 64.9719 103.917C75.0965 115.133 92.3972 116.019 103.614 105.894Z" fill="#BCC5DC"/>
<path d="M85.3101 113.981C78.0501 113.981 70.7801 111.211 65.2501 105.691C54.1901 94.6311 54.1901 76.6411 65.2501 65.5811C76.3101 54.5211 94.3001 54.5211 105.36 65.5811C116.42 76.6411 116.42 94.6311 105.36 105.691C99.8301 111.221 92.5701 113.981 85.3001 113.981H85.3101ZM85.3101 59.2811C78.5601 59.2811 71.8101 61.8511 66.6701 66.9911C56.3901 77.2711 56.3901 94.0011 66.6701 104.281C76.9501 114.561 93.6801 114.561 103.96 104.281C114.24 94.0011 114.24 77.2711 103.96 66.9911C98.8201 61.8511 92.0701 59.2811 85.3201 59.2811H85.3101Z" fill="#2F3F64"/>
<path d="M100.867 102.85C110.403 94.2429 111.156 79.5347 102.549 69.9987C93.9414 60.4626 79.2332 59.7098 69.6972 68.3173C60.1612 76.9247 59.4083 91.6328 68.0158 101.169C76.6232 110.705 91.3313 111.458 100.867 102.85Z" fill="#FEC95C"/>
<path d="M85.3106 109.88C79.1006 109.88 72.8807 107.52 68.1507 102.79C58.6907 93.3301 58.6907 77.9401 68.1507 68.4801C72.7307 63.9001 78.8306 61.3701 85.3106 61.3701C91.7906 61.3701 97.8807 63.8901 102.471 68.4801C111.931 77.9401 111.931 93.3301 102.471 102.79C97.7407 107.52 91.5306 109.88 85.3106 109.88ZM85.3106 63.3701C79.3606 63.3701 73.7706 65.6901 69.5706 69.8901C60.8906 78.5701 60.8906 92.6901 69.5706 101.37C78.2506 110.05 92.3706 110.05 101.051 101.37C109.731 92.6901 109.731 78.5701 101.051 69.8901C96.8406 65.6801 91.2606 63.3701 85.3106 63.3701Z" fill="#2F3F64"/>
<path d="M68.9398 71.6709C70.2898 71.6709 71.3598 72.1909 72.1498 73.2409C72.9398 74.2909 73.3398 75.7109 73.3398 77.5109C73.3398 79.3109 72.9398 80.7409 72.1498 81.7909C71.3598 82.8409 70.2898 83.3609 68.9398 83.3609C67.5898 83.3609 66.5398 82.8409 65.7598 81.7909C64.9798 80.7409 64.5898 79.3209 64.5898 77.5109C64.5898 75.7009 64.9798 74.2809 65.7598 73.2409C66.5398 72.2009 67.5998 71.6709 68.9398 71.6709ZM68.9598 73.6509C68.3398 73.6509 67.8498 73.9909 67.4898 74.6709C67.1298 75.3509 66.9498 76.2909 66.9498 77.4909C66.9498 78.6909 67.1298 79.6609 67.4898 80.3409C67.8498 81.0209 68.3398 81.3709 68.9698 81.3709C69.5998 81.3709 70.0898 81.0309 70.4498 80.3409C70.8098 79.6609 70.9898 78.7109 70.9898 77.4909C70.9898 76.2709 70.8098 75.3509 70.4498 74.6709C70.0898 73.9909 69.5898 73.6509 68.9698 73.6509H68.9598Z" fill="#2F3F64"/>
<path d="M81.1194 81.1806H82.5494C82.9394 81.1806 83.2295 81.2506 83.3995 81.4006C83.5795 81.5506 83.6595 81.7906 83.6595 82.1206C83.6595 82.4506 83.5795 82.6906 83.3995 82.8306C83.2295 82.9806 82.9395 83.0506 82.5395 83.0506H77.3395C76.9295 83.0506 76.6495 82.9806 76.4795 82.8306C76.3095 82.6806 76.2295 82.4506 76.2295 82.1206C76.2295 81.7906 76.3194 81.5406 76.4894 81.4006C76.6594 81.2506 76.9495 81.1806 77.3495 81.1806H78.9894V73.7506L77.9995 74.0106C77.8495 74.0506 77.7194 74.0706 77.6194 74.0906C77.5194 74.1106 77.4495 74.1206 77.3995 74.1206C77.1595 74.1206 76.9695 74.0406 76.8395 73.8906C76.7095 73.7406 76.6395 73.5206 76.6395 73.2406C76.6395 73.0306 76.7094 72.8606 76.8594 72.7206C77.0094 72.5806 77.2295 72.4706 77.5395 72.3906L79.7195 71.7906C79.8995 71.7406 80.0495 71.7106 80.1695 71.6806C80.2895 71.6506 80.3795 71.6406 80.4595 71.6406C80.6895 71.6406 80.8595 71.7006 80.9595 71.8306C81.0595 71.9606 81.1094 72.1806 81.1094 72.4806V81.1706L81.1194 81.1806Z" fill="#2F3F64"/>
<path d="M91.9398 81.1806H93.3698C93.7598 81.1806 94.0498 81.2506 94.2198 81.4006C94.3998 81.5506 94.4799 81.7906 94.4799 82.1206C94.4799 82.4506 94.3999 82.6906 94.2299 82.8306C94.0599 82.9806 93.7698 83.0506 93.3698 83.0506H88.1699C87.7699 83.0506 87.4798 82.9806 87.3098 82.8306C87.1398 82.6806 87.0498 82.4506 87.0498 82.1206C87.0498 81.7906 87.1398 81.5406 87.3098 81.4006C87.4798 81.2506 87.7699 81.1806 88.1699 81.1806H89.8098V73.7506L88.8198 74.0106C88.6698 74.0506 88.5398 74.0706 88.4398 74.0906C88.3398 74.1106 88.2698 74.1206 88.2198 74.1206C87.9798 74.1206 87.7899 74.0406 87.6599 73.8906C87.5299 73.7406 87.4598 73.5206 87.4598 73.2406C87.4598 73.0306 87.5298 72.8606 87.6798 72.7206C87.8298 72.5806 88.0498 72.4706 88.3598 72.3906L90.5399 71.7906C90.7199 71.7406 90.8698 71.7106 90.9898 71.6806C91.1098 71.6606 91.1998 71.6406 91.2798 71.6406C91.5198 71.6406 91.6798 71.7006 91.7798 71.8306C91.8798 71.9606 91.9298 72.1806 91.9298 72.4806V81.1706L91.9398 81.1806Z" fill="#2F3F64"/>
<path d="M101.4 71.6709C102.75 71.6709 103.82 72.1909 104.61 73.2409C105.4 74.2909 105.8 75.7109 105.8 77.5109C105.8 79.3109 105.4 80.7409 104.61 81.7909C103.82 82.8409 102.75 83.3609 101.4 83.3609C100.05 83.3609 98.9998 82.8409 98.2198 81.7909C97.4398 80.7409 97.0498 79.3209 97.0498 77.5109C97.0498 75.7009 97.4398 74.2809 98.2198 73.2409C98.9998 72.2009 100.06 71.6709 101.4 71.6709ZM101.42 73.6509C100.8 73.6509 100.31 73.9909 99.9498 74.6709C99.5898 75.3509 99.4099 76.2909 99.4099 77.4909C99.4099 78.6909 99.5898 79.6609 99.9498 80.3409C100.31 81.0209 100.8 81.3709 101.43 81.3709C102.06 81.3709 102.55 81.0309 102.91 80.3409C103.27 79.6609 103.45 78.7109 103.45 77.4909C103.45 76.2709 103.27 75.3509 102.91 74.6709C102.55 73.9909 102.05 73.6509 101.43 73.6509H101.42Z" fill="#2F3F64"/>
<path d="M70.2894 97.9404H71.7194C72.1094 97.9404 72.3994 98.0104 72.5694 98.1604C72.7494 98.3104 72.8294 98.5504 72.8294 98.8804C72.8294 99.2104 72.7494 99.4504 72.5794 99.5904C72.4094 99.7404 72.1194 99.8104 71.7194 99.8104H66.5194C66.1194 99.8104 65.8294 99.7404 65.6594 99.5904C65.4894 99.4404 65.3994 99.2104 65.3994 98.8804C65.3994 98.5504 65.4894 98.3004 65.6594 98.1604C65.8294 98.0104 66.1194 97.9404 66.5194 97.9404H68.1594V90.5104L67.1694 90.7704C67.0194 90.8104 66.8894 90.8304 66.7894 90.8504C66.6894 90.8704 66.6194 90.8804 66.5694 90.8804C66.3294 90.8804 66.1394 90.8004 66.0094 90.6504C65.8794 90.5004 65.8094 90.2804 65.8094 90.0004C65.8094 89.7904 65.8794 89.6204 66.0294 89.4804C66.1794 89.3404 66.3994 89.2304 66.7094 89.1504L68.8894 88.5504C69.0694 88.5004 69.2194 88.4704 69.3394 88.4404C69.4594 88.4204 69.5494 88.4004 69.6294 88.4004C69.8694 88.4004 70.0294 88.4604 70.1294 88.5904C70.2294 88.7204 70.2794 88.9404 70.2794 89.2404V97.9304L70.2894 97.9404Z" fill="#2F3F64"/>
<path d="M79.7594 88.4199C81.1094 88.4199 82.1794 88.9399 82.9694 89.9899C83.7594 91.0399 84.1594 92.4599 84.1594 94.2599C84.1594 96.0599 83.7594 97.4899 82.9694 98.5399C82.1794 99.5899 81.1094 100.11 79.7594 100.11C78.4094 100.11 77.3594 99.5899 76.5794 98.5399C75.7994 97.4899 75.3994 96.0699 75.3994 94.2599C75.3994 92.4499 75.7894 91.0299 76.5794 89.9899C77.3594 88.9499 78.4194 88.4199 79.7594 88.4199ZM79.7794 90.4099C79.1594 90.4099 78.6694 90.7499 78.3094 91.4299C77.9494 92.1099 77.7694 93.0499 77.7694 94.2499C77.7694 95.4499 77.9494 96.4199 78.3094 97.0999C78.6694 97.7799 79.1594 98.1299 79.7894 98.1299C80.4194 98.1299 80.9094 97.7899 81.2694 97.0999C81.6294 96.4199 81.8094 95.4699 81.8094 94.2499C81.8094 93.0299 81.6294 92.1099 81.2694 91.4299C80.9094 90.7499 80.4094 90.4099 79.7894 90.4099H79.7794Z" fill="#2F3F64"/>
<path d="M90.5795 88.4199C91.9295 88.4199 92.9995 88.9399 93.7895 89.9899C94.5795 91.0399 94.9795 92.4599 94.9795 94.2599C94.9795 96.0599 94.5795 97.4899 93.7895 98.5399C92.9995 99.5899 91.9295 100.11 90.5795 100.11C89.2295 100.11 88.1795 99.5899 87.3995 98.5399C86.6195 97.4899 86.2295 96.0699 86.2295 94.2599C86.2295 92.4499 86.6195 91.0299 87.3995 89.9899C88.1795 88.9499 89.2395 88.4199 90.5795 88.4199ZM90.5995 90.4099C89.9795 90.4099 89.4895 90.7499 89.1295 91.4299C88.7695 92.1099 88.5895 93.0499 88.5895 94.2499C88.5895 95.4499 88.7695 96.4199 89.1295 97.0999C89.4895 97.7799 89.9794 98.1299 90.6094 98.1299C91.2394 98.1299 91.7295 97.7899 92.0895 97.0999C92.4495 96.4199 92.6295 95.4699 92.6295 94.2499C92.6295 93.0299 92.4495 92.1099 92.0895 91.4299C91.7295 90.7499 91.2294 90.4099 90.6094 90.4099H90.5995Z" fill="#2F3F64"/>
<path d="M102.759 97.9404H104.189C104.579 97.9404 104.869 98.0104 105.039 98.1604C105.219 98.3104 105.299 98.5504 105.299 98.8804C105.299 99.2104 105.219 99.4504 105.049 99.5904C104.879 99.7404 104.589 99.8104 104.189 99.8104H98.9891C98.5891 99.8104 98.2992 99.7404 98.1292 99.5904C97.9592 99.4404 97.8691 99.2104 97.8691 98.8804C97.8691 98.5504 97.9592 98.3004 98.1292 98.1604C98.2992 98.0104 98.5891 97.9404 98.9891 97.9404H100.629V90.5104L99.6392 90.7704C99.4892 90.8104 99.3592 90.8304 99.2592 90.8504C99.1592 90.8704 99.0892 90.8804 99.0392 90.8804C98.7992 90.8804 98.6092 90.8004 98.4792 90.6504C98.3492 90.5004 98.2792 90.2804 98.2792 90.0004C98.2792 89.7904 98.3491 89.6204 98.4991 89.4804C98.6491 89.3404 98.8691 89.2304 99.1791 89.1504L101.359 88.5504C101.539 88.5004 101.689 88.4704 101.809 88.4404C101.929 88.4204 102.019 88.4004 102.099 88.4004C102.339 88.4004 102.499 88.4604 102.599 88.5904C102.699 88.7204 102.749 88.9404 102.749 89.2404V97.9304L102.759 97.9404Z" fill="#2F3F64"/>
</svg>
