<svg width="99" height="94" viewBox="0 0 99 94" fill="none" xmlns="http://www.w3.org/2000/svg">
<g clip-path="url(#clip0_227_22)">
<mask id="mask0_227_22" style="mask-type:luminance" maskUnits="userSpaceOnUse" x="0" y="0" width="99" height="94">
<path d="M98.9987 0H0.84082V93.25H98.9987V0Z" fill="white"/>
</mask>
<g mask="url(#mask0_227_22)">
<path d="M19.5952 15.2793C23.1225 15.2793 25.9795 18.4451 25.9795 22.3318C25.9795 26.2186 23.1225 29.3844 19.5952 29.3844C16.0679 29.3844 13.2109 26.2343 13.2109 22.3318C13.2109 18.4294 16.0679 15.2793 19.5952 15.2793Z" fill="#FEC95C"/>
<path d="M57.9013 33.3197C57.9013 35.5449 53.8792 37.1768 53.1131 38.0055C47.8801 43.773 42.6748 48.1926 40.3445 48.1926C39.2753 48.1926 36.5939 47.2522 33.9603 46.2022C30.7363 44.9171 27.5761 43.4908 27.5761 43.4908V88.9404C27.5761 90.1158 27.1771 92.0748 24.3839 92.0748C20.7928 92.0748 20.5853 88.5487 18.7977 68.5665C14.9991 91.1973 14.4086 92.0748 11.6154 92.0748C8.82234 92.0748 8.42332 90.1158 8.42332 88.9404C8.42332 87.7649 10.0194 68.5665 10.0194 68.5665V51.327C10.0194 65.5261 7.92853 66.9994 5.23118 66.9994C2.90094 66.9994 2.03906 65.3224 2.03906 62.2976C2.03906 61.5141 2.74133 55.9346 2.74133 54.8533C2.74133 54.43 2.9169 50.2299 3.10843 45.7163C3.39771 39.2124 8.83829 34.0876 15.462 34.0876H24.4478C26.5067 34.0876 28.5336 34.5577 30.3692 35.451L33.8965 37.1906L40.3445 40.3564C47.926 34.1501 51.533 30.9531 54.7092 30.9531C55.8903 30.9531 56.6404 31.2351 57.1192 31.627C57.7418 32.1443 57.9013 32.8338 57.9013 33.3197Z" fill="#BCC5DC"/>
<path d="M33.9613 52.8938V46.2016C36.5948 47.2517 39.2763 48.192 40.3455 48.192C42.6757 48.192 47.881 43.7725 53.1141 38.0052C53.8802 37.1765 57.9022 35.5446 57.9022 33.3191C57.9022 32.8332 57.7427 32.1437 57.1201 31.6264C56.6414 31.2347 55.8912 30.9525 54.7101 30.9525C51.534 30.9525 47.9269 34.1498 40.3455 40.3561L33.8975 37.1902L33.9613 37.0648V5.87695H97.8039V59.1626H33.9613V52.8938Z" fill="white"/>
<path d="M65.8787 7.05252C65.2183 7.05252 64.6816 6.52554 64.6816 5.87711V1.17542C64.6816 0.52698 65.2183 0 65.8787 0C66.539 0 67.0757 0.52698 67.0757 1.17542V5.87711C67.0757 6.52554 66.539 7.05252 65.8787 7.05252Z" fill="#2F3F64"/>
<path d="M89.8198 93.2499C89.3268 93.2499 88.864 92.9483 88.6905 92.4663L79.1142 65.8236C78.8946 65.2123 79.222 64.5404 79.8443 64.3249C80.4688 64.1092 81.151 64.4307 81.3706 65.0417L90.9469 91.6847C91.1663 92.296 90.8392 92.9679 90.2166 93.1834C90.0851 93.2285 89.9536 93.2499 89.8198 93.2499Z" fill="#2F3F64"/>
<path d="M41.9385 93.2499C41.807 93.2499 41.6713 93.2285 41.5395 93.1834C40.9172 92.9679 40.5901 92.296 40.8094 91.6847L50.3857 65.0417C50.6054 64.4307 51.2895 64.1092 51.9121 64.3249C52.5344 64.5404 52.8618 65.2123 52.6421 65.8236L43.0659 92.4663C42.8924 92.9483 42.4313 93.2499 41.9385 93.2499Z" fill="#2F3F64"/>
<path d="M19.593 30.5603C15.4133 30.5603 12.0117 26.8696 12.0117 22.3324C12.0117 17.7953 15.4133 14.1045 19.593 14.1045C23.7727 14.1045 27.1743 17.7953 27.1743 22.3324C27.1743 26.8696 23.7727 30.5603 19.593 30.5603ZM19.593 16.4553C16.7321 16.4553 14.4058 19.0922 14.4058 22.3324C14.4058 25.5726 16.7321 28.2094 19.593 28.2094C22.454 28.2094 24.7802 25.5726 24.7802 22.3324C24.7802 19.0922 22.454 16.4553 19.593 16.4553Z" fill="#2F3F64"/>
<path d="M24.3833 93.2513C21.5123 93.2513 20.4789 91.2962 19.8106 88.3596C19.2978 86.1147 18.9028 82.7295 18.43 77.7593C17.4444 83.2662 16.6763 86.949 15.972 89.1571C14.9845 92.2542 13.9251 93.2493 11.6148 93.2493C8.86556 93.2493 7.22559 91.639 7.22559 88.9394C7.22559 87.7603 8.64011 70.7029 8.82166 68.5187V45.0572C8.82166 44.4086 9.35834 43.8818 10.0187 43.8818C10.6791 43.8818 11.2158 44.4086 11.2158 45.0572V68.5655C11.2158 68.597 11.2158 68.6303 11.2118 68.6615C10.5713 76.3585 9.61968 88.1127 9.61968 88.9394C9.61968 90.6616 10.5793 90.8987 11.6148 90.8987C12.5026 90.8987 12.9076 90.8987 13.6857 88.4558C14.6772 85.3407 15.8324 78.9956 17.616 68.3756C17.7137 67.7918 18.2384 67.3685 18.8429 67.3921C19.4455 67.4137 19.9382 67.874 19.9901 68.4637L20.1417 70.166C20.9557 79.2795 21.4465 84.7805 22.1468 87.8465C22.8431 90.9006 23.5912 90.9006 24.3833 90.9006C25.4188 90.9006 26.3783 90.6636 26.3783 88.9414V43.4918C26.3783 42.8435 26.9149 42.3164 27.5753 42.3164C28.2359 42.3164 28.7726 42.8435 28.7726 43.4918V88.9414C28.7726 91.641 27.1326 93.2513 24.3833 93.2513Z" fill="#2F3F64"/>
<path d="M5.23 68.1733C2.31718 68.1733 0.84082 66.1966 0.84082 62.2963C0.84082 61.8946 0.960525 60.7624 1.15604 58.9521C1.32762 57.3575 1.54309 55.373 1.54309 54.852C1.54309 54.4798 1.65681 51.6469 1.91018 45.6659C2.2274 38.5136 8.17871 32.9108 15.4608 32.9108H24.4466C26.673 32.9108 28.9037 33.4239 30.9007 34.3976L34.4339 36.1412L40.1798 38.9622C40.5908 38.6253 40.9879 38.2982 41.3749 37.9806C48.0243 32.5189 51.3602 29.7783 54.7099 29.7783C56.0507 29.7783 57.1199 30.0956 57.886 30.7246C58.6583 31.365 59.099 32.3093 59.099 33.3201C59.099 35.5593 56.6512 37.0894 55.0311 38.1021C54.648 38.3411 54.1234 38.6702 53.9997 38.7976C51.2923 41.7794 48.6629 44.3319 46.4045 46.1675C43.755 48.3206 41.7719 49.3687 40.3455 49.3687C39.9423 49.3687 38.7195 49.3687 33.5102 47.2919C30.2983 46.0107 27.1081 44.5729 27.0762 44.5592C26.4755 44.2888 26.2122 43.5894 26.4875 42.9997C26.7628 42.41 27.4752 42.1516 28.0757 42.4218C28.1076 42.4355 31.2519 43.852 34.4101 45.1135C38.8412 46.8787 40.0721 47.0178 40.3435 47.0178C40.5528 47.0178 41.7599 46.8904 44.8762 44.3575C47.0428 42.5963 49.5826 40.1298 52.2181 37.2246C52.5514 36.8641 53.078 36.535 53.7423 36.1196C54.7759 35.4732 56.703 34.2683 56.703 33.3201C56.703 33.1341 56.6571 32.7834 56.3459 32.5248C56.0328 32.2681 55.464 32.129 54.7079 32.129C52.228 32.129 48.9183 34.8482 42.9091 39.7831C42.3344 40.2552 41.7359 40.747 41.1096 41.2581C40.7445 41.558 40.2335 41.6167 39.8088 41.4071L33.3605 38.2412L29.8313 36.4997C28.1695 35.6906 26.3059 35.2617 24.4466 35.2617H15.4608C9.46554 35.2617 4.56363 39.8751 4.30229 45.7658C4.06087 51.4688 3.93719 54.5266 3.93719 54.852C3.93719 55.4532 3.77957 56.9636 3.53616 59.1989C3.40051 60.4451 3.23292 61.9964 3.23292 62.2963C3.23292 65.8224 4.48184 65.8224 5.22799 65.8224C6.1557 65.8224 6.86197 65.6953 7.52034 64.0556C8.39419 61.8769 8.81914 57.7121 8.81914 51.3257C8.81914 50.6771 9.35582 50.1503 10.0162 50.1503C10.6766 50.1503 11.2132 50.6771 11.2132 51.3257C11.2132 65.4874 9.11244 68.1733 5.23 68.1733Z" fill="#2F3F64"/>
<path d="M57.1015 32.8177C56.794 32.8177 56.4889 32.7021 56.2553 32.4729C55.7886 32.0145 55.7886 31.27 56.2553 30.8097L56.2713 30.794C56.3331 30.7331 56.4011 30.6803 56.473 30.6352L70.0234 22.1252C70.58 21.7746 71.3204 21.9352 71.6774 22.4818C72.0345 23.0283 71.8708 23.7552 71.3142 24.1058L57.8354 32.5689C57.62 32.7333 57.3606 32.8158 57.1034 32.8158L57.1015 32.8177Z" fill="#2F3F64"/>
<path d="M97.8014 60.3387H33.9588C33.2984 60.3387 32.7617 59.8116 32.7617 59.1633V52.8944C32.7617 52.2459 33.2984 51.719 33.9588 51.719C34.6191 51.719 35.1558 52.2459 35.1558 52.8944V57.9879H96.6044V7.05298H35.1558V29.3859C35.1558 30.0344 34.6191 30.5613 33.9588 30.5613C33.2984 30.5613 32.7617 30.0344 32.7617 29.3859V5.87756C32.7617 5.22911 33.2984 4.70215 33.9588 4.70215H97.8014C98.4617 4.70215 98.9984 5.22911 98.9984 5.87756V59.1633C98.9984 59.8116 98.4617 60.3387 97.8014 60.3387Z" fill="#2F3F64"/>
</g>
</g>
<defs>
<clipPath id="clip0_227_22">
<rect width="98.1579" height="93.25" fill="white" transform="translate(0.841797)"/>
</clipPath>
</defs>
</svg>
