<svg width="127" height="126" viewBox="0 0 127 126" fill="none" xmlns="http://www.w3.org/2000/svg">
<path fill-rule="evenodd" clip-rule="evenodd" d="M19.1299 13.46C16.2499 13.46 13.9199 15.79 13.9199 18.67V35.45H28.2099V13.46H19.1299Z" fill="#2F3F64"/>
<path d="M28.2099 36.45H13.9199C13.3699 36.45 12.9199 36 12.9199 35.45V18.67C12.9199 15.25 15.7099 12.46 19.1299 12.46H28.2099C28.7599 12.46 29.2099 12.91 29.2099 13.46V35.45C29.2099 36 28.7599 36.45 28.2099 36.45ZM14.9199 34.45H27.2099V14.46H19.1299C16.8099 14.46 14.9199 16.35 14.9199 18.67V34.45Z" fill="#2F3F64"/>
<path fill-rule="evenodd" clip-rule="evenodd" d="M93.9501 13.46H84.8701V35.45H99.1601V18.67C99.1601 15.79 96.8301 13.46 93.9501 13.46Z" fill="#2F3F64"/>
<path d="M99.1601 36.45H84.8701C84.3201 36.45 83.8701 36 83.8701 35.45V13.46C83.8701 12.91 84.3201 12.46 84.8701 12.46H93.9501C97.3701 12.46 100.16 15.25 100.16 18.67V35.45C100.16 36 99.7101 36.45 99.1601 36.45ZM85.8701 34.45H98.1601V18.67C98.1601 16.35 96.2701 14.46 93.9501 14.46H85.8701V34.45Z" fill="#2F3F64"/>
<path d="M33.5897 1.01H79.4897C82.4597 1.01 84.8697 3.42 84.8697 6.39V35.46H28.2197V6.38C28.2197 3.41 30.6297 1 33.5997 1L33.5897 1.01Z" fill="white"/>
<path d="M84.8697 36.45H28.2197C27.6697 36.45 27.2197 36 27.2197 35.45V6.38C27.2197 2.86 30.0797 0 33.5997 0H79.4997C83.0197 0 85.8797 2.86 85.8797 6.38V35.45C85.8797 36 85.4297 36.45 84.8797 36.45H84.8697ZM29.2097 34.45H83.8597V6.38C83.8597 3.97 81.8997 2 79.4797 2H33.5797C31.1697 2 29.1997 3.96 29.1997 6.38V34.45H29.2097Z" fill="#2F3F64"/>
<path fill-rule="evenodd" clip-rule="evenodd" d="M106.87 35.4502H6.21002C3.33002 35.4502 1 37.7802 1 40.6602V82.8002C1 85.6802 3.33002 88.0102 6.21002 88.0102H28.21V72.3402H84.86V88.0102H106.86C109.74 88.0102 112.07 85.6802 112.07 82.8002V40.6602C112.07 37.7802 109.74 35.4502 106.86 35.4502H106.87Z" fill="#BCC5DC"/>
<path d="M106.87 89.0102H84.8698C84.3197 89.0102 83.8698 88.5602 83.8698 88.0102V73.3402H29.2198V88.0102C29.2198 88.5602 28.7698 89.0102 28.2198 89.0102H6.21976C2.79976 89.0102 0.00976562 86.2202 0.00976562 82.8002V40.6602C0.00976562 37.2402 2.79976 34.4502 6.21976 34.4502H106.88C110.3 34.4502 113.09 37.2402 113.09 40.6602V82.8002C113.09 86.2202 110.3 89.0102 106.88 89.0102H106.87ZM85.8698 87.0102H106.87C109.19 87.0102 111.08 85.1202 111.08 82.8002V40.6602C111.08 38.3402 109.19 36.4502 106.87 36.4502H6.20978C3.88978 36.4502 1.99976 38.3402 1.99976 40.6602V82.8002C1.99976 85.1202 3.88978 87.0102 6.20978 87.0102H27.2098V72.3402C27.2098 71.7902 27.6598 71.3402 28.2098 71.3402H84.8598C85.4098 71.3402 85.8598 71.7902 85.8598 72.3402V87.0102H85.8698Z" fill="#2F3F64"/>
<path d="M106.87 89.0102H84.8698C84.3197 89.0102 83.8698 88.5602 83.8698 88.0102V73.3402H29.2198V88.0102C29.2198 88.5602 28.7698 89.0102 28.2198 89.0102H6.21976C2.79976 89.0102 0.00976562 86.2202 0.00976562 82.8002V40.6602C0.00976562 37.2402 2.79976 34.4502 6.21976 34.4502H106.88C110.3 34.4502 113.09 37.2402 113.09 40.6602V82.8002C113.09 86.2202 110.3 89.0102 106.88 89.0102H106.87ZM85.8698 87.0102H106.87C109.19 87.0102 111.08 85.1202 111.08 82.8002V40.6602C111.08 38.3402 109.19 36.4502 106.87 36.4502H6.20978C3.88978 36.4502 1.99976 38.3402 1.99976 40.6602V82.8002C1.99976 85.1202 3.88978 87.0102 6.20978 87.0102H27.2098V72.3402C27.2098 71.7902 27.6598 71.3402 28.2098 71.3402H84.8598C85.4098 71.3402 85.8598 71.7902 85.8598 72.3402V87.0102H85.8698Z" fill="#2F3F64"/>
<path d="M79.4904 98.0898H33.5903C30.6203 98.0898 28.2104 95.6798 28.2104 92.7098V72.3398H84.8604V92.7098C84.8604 95.6798 82.4503 98.0898 79.4803 98.0898H79.4904Z" fill="white"/>
<path d="M79.49 99.0898H33.5899C30.0699 99.0898 27.21 96.2298 27.21 92.7098V72.3398C27.21 71.7898 27.66 71.3398 28.21 71.3398H84.86C85.41 71.3398 85.86 71.7898 85.86 72.3398V92.7098C85.86 96.2298 83 99.0898 79.4799 99.0898H79.49ZM29.21 73.3398V92.7098C29.21 95.1198 31.1699 97.0898 33.5899 97.0898H79.49C81.9 97.0898 83.8699 95.1298 83.8699 92.7098V73.3398H29.2199H29.21Z" fill="#2F3F64"/>
<path d="M102.33 53.5498H1C0.45 53.5498 0 53.0998 0 52.5498C0 51.9998 0.45 51.5498 1 51.5498H102.33C102.88 51.5498 103.33 51.9998 103.33 52.5498C103.33 53.0998 102.88 53.5498 102.33 53.5498Z" fill="#2F3F64"/>
<path d="M102.84 48.7598C105.187 48.7598 107.09 46.857 107.09 44.5098C107.09 42.1626 105.187 40.2598 102.84 40.2598C100.493 40.2598 98.5898 42.1626 98.5898 44.5098C98.5898 46.857 100.493 48.7598 102.84 48.7598Z" fill="#FEC95C"/>
<path d="M102.84 49.7598C99.9398 49.7598 97.5898 47.3998 97.5898 44.5098C97.5898 41.6198 99.9498 39.2598 102.84 39.2598C105.73 39.2598 108.09 41.6198 108.09 44.5098C108.09 47.3998 105.73 49.7598 102.84 49.7598ZM102.84 41.2598C101.05 41.2598 99.5898 42.7198 99.5898 44.5098C99.5898 46.2998 101.05 47.7598 102.84 47.7598C104.63 47.7598 106.09 46.2998 106.09 44.5098C106.09 42.7198 104.63 41.2598 102.84 41.2598Z" fill="#2F3F64"/>
<path d="M16.5302 45.5098H6.41016C5.86016 45.5098 5.41016 45.0598 5.41016 44.5098C5.41016 43.9598 5.86016 43.5098 6.41016 43.5098H16.5302C17.0802 43.5098 17.5302 43.9598 17.5302 44.5098C17.5302 45.0598 17.0802 45.5098 16.5302 45.5098Z" fill="#2F3F64"/>
<path d="M92.3003 89.0098C91.7503 89.0098 91.3003 88.5598 91.3003 88.0098V77.6998C91.3003 75.2998 89.3403 73.3398 86.9403 73.3398H26.1403C23.7403 73.3398 21.7803 75.2998 21.7803 77.6998V88.0098C21.7803 88.5598 21.3303 89.0098 20.7803 89.0098C20.2303 89.0098 19.7803 88.5598 19.7803 88.0098V77.6998C19.7803 74.1898 22.6303 71.3398 26.1403 71.3398H86.9403C90.4503 71.3398 93.3003 74.1898 93.3003 77.6998V88.0098C93.3003 88.5598 92.8503 89.0098 92.3003 89.0098Z" fill="#2F3F64"/>
<path d="M95.3223 99.9004L100.859 94.3637L123.635 117.14C125.162 118.667 125.162 121.142 123.635 122.669C122.107 124.197 119.633 124.197 118.105 122.669L95.3293 99.8933L95.3223 99.9004Z" fill="#2F3F64"/>
<path d="M120.86 124.81C119.55 124.81 118.31 124.3 117.39 123.37L94.6196 100.6C94.2296 100.21 94.2296 99.58 94.6196 99.19L100.15 93.66C100.53 93.28 101.19 93.28 101.56 93.66L124.33 116.43C126.25 118.35 126.25 121.46 124.33 123.38C123.4 124.31 122.17 124.82 120.86 124.82V124.81ZM96.7297 99.89L118.8 121.96C119.9 123.06 121.82 123.06 122.92 121.96C124.06 120.82 124.06 118.98 122.92 117.84L100.85 95.77L96.7297 99.89Z" fill="#2F3F64"/>
<path d="M103.425 104.73C114.642 94.6057 115.527 77.3049 105.403 66.088C95.2779 54.871 77.9772 53.9855 66.7602 64.1102C55.5433 74.2348 54.6578 91.5355 64.7824 102.752C74.9071 113.969 92.2078 114.855 103.425 104.73Z" fill="#BCC5DC"/>
<path d="M85.12 112.81C77.86 112.81 70.59 110.05 65.06 104.52C59.7 99.1605 56.75 92.0405 56.75 84.4605C56.75 76.8805 59.7 69.7605 65.06 64.4005C76.12 53.3405 94.11 53.3405 105.17 64.4005C116.23 75.4605 116.23 93.4505 105.17 104.51C99.64 110.04 92.38 112.8 85.11 112.8L85.12 112.81ZM85.12 58.1005C78.37 58.1005 71.62 60.6705 66.48 65.8105C61.34 70.9505 58.76 77.4105 58.76 84.4505C58.76 91.4905 61.5 98.1105 66.48 103.09C76.76 113.37 93.49 113.37 103.77 103.09C114.05 92.8105 114.05 76.0805 103.77 65.8005C98.63 60.6605 91.88 58.0905 85.13 58.0905L85.12 58.1005Z" fill="#2F3F64"/>
<path d="M100.678 101.686C110.214 93.0788 110.967 78.3707 102.359 68.8346C93.7519 59.2986 79.0438 58.5458 69.5077 67.1532C59.9717 75.7606 59.2189 90.4688 67.8263 100.005C76.4337 109.541 91.1418 110.294 100.678 101.686Z" fill="#FEC95C"/>
<path d="M85.1206 108.72C78.6406 108.72 72.5506 106.2 67.9606 101.61C63.3806 97.0303 60.8506 90.9403 60.8506 84.4503C60.8506 77.9603 63.3706 71.8803 67.9606 67.2903C77.4206 57.8303 92.8106 57.8303 102.271 67.2903C111.731 76.7503 111.731 92.1403 102.271 101.6C97.6906 106.18 91.5906 108.71 85.1106 108.71L85.1206 108.72ZM85.1206 62.2003C79.4206 62.2003 73.7206 64.3703 69.3806 68.7103C65.0406 73.0503 62.8606 78.5103 62.8606 84.4503C62.8606 90.3903 65.1806 95.9903 69.3806 100.19C73.5806 104.39 79.1706 106.71 85.1206 106.71C91.0706 106.71 96.6606 104.39 100.861 100.19C109.541 91.5103 109.541 77.3903 100.861 68.7103C96.5206 64.3703 90.8206 62.2003 85.1206 62.2003Z" fill="#2F3F64"/>
<path d="M68.7399 70.3906C70.0899 70.3906 71.1599 70.9106 71.9499 71.9606C72.7399 73.0106 73.1399 74.4306 73.1399 76.2306C73.1399 78.0306 72.7399 79.4606 71.9499 80.5006C71.1599 81.5406 70.0899 82.0706 68.7399 82.0706C67.3899 82.0706 66.3399 81.5506 65.5599 80.5006C64.7799 79.4506 64.3799 78.0306 64.3799 76.2306C64.3799 74.4306 64.7699 73.0006 65.5599 71.9606C66.3499 70.9206 67.3999 70.3906 68.7399 70.3906ZM68.7599 72.3706C68.1399 72.3706 67.6499 72.7106 67.2899 73.3906C66.9299 74.0706 66.7499 75.0106 66.7499 76.2106C66.7499 77.4106 66.9299 78.3706 67.2899 79.0606C67.6499 79.7406 68.1399 80.0906 68.7699 80.0906C69.3999 80.0906 69.8899 79.7506 70.2499 79.0606C70.6099 78.3806 70.7899 77.4306 70.7899 76.2106C70.7899 74.9906 70.6099 74.0706 70.2499 73.3906C69.8899 72.7106 69.3899 72.3706 68.7699 72.3706H68.7599Z" fill="#2F3F64"/>
<path d="M80.9195 79.9104H82.3495C82.7395 79.9104 83.0295 79.9804 83.1995 80.1304C83.3695 80.2804 83.4595 80.5203 83.4595 80.8503C83.4595 81.1803 83.3795 81.4203 83.1995 81.5603C83.0195 81.7003 82.7395 81.7803 82.3395 81.7803H77.1395C76.7395 81.7803 76.4495 81.7103 76.2795 81.5603C76.1095 81.4103 76.0195 81.1803 76.0195 80.8503C76.0195 80.5203 76.1095 80.2704 76.2795 80.1304C76.4495 79.9804 76.7395 79.9104 77.1395 79.9104H78.7795V72.4804L77.7895 72.7304C77.6395 72.7704 77.5095 72.7903 77.4095 72.8103C77.3095 72.8303 77.2395 72.8404 77.1895 72.8404C76.9495 72.8404 76.7595 72.7604 76.6295 72.6104C76.4995 72.4604 76.4295 72.2404 76.4295 71.9604C76.4295 71.7503 76.4995 71.5804 76.6495 71.4404C76.7995 71.3004 77.0195 71.1904 77.3295 71.1104L79.5095 70.5104C79.6895 70.4604 79.8395 70.4304 79.9595 70.4004C80.0795 70.3804 80.1695 70.3604 80.2495 70.3604C80.4795 70.3604 80.6495 70.4204 80.7495 70.5504C80.8495 70.6804 80.8995 70.9004 80.8995 71.2004V79.8904L80.9195 79.9104Z" fill="#2F3F64"/>
<path d="M91.7399 79.9104H93.1699C93.5599 79.9104 93.8499 79.9804 94.0199 80.1304C94.1899 80.2804 94.2798 80.5203 94.2798 80.8503C94.2798 81.1803 94.1999 81.4203 94.0199 81.5603C93.8399 81.7003 93.5599 81.7803 93.1599 81.7803H87.9599C87.5599 81.7803 87.2699 81.7103 87.0999 81.5603C86.9299 81.4103 86.8398 81.1803 86.8398 80.8503C86.8398 80.5203 86.9299 80.2704 87.0999 80.1304C87.2699 79.9804 87.5599 79.9104 87.9599 79.9104H89.5999V72.4804L88.6099 72.7304C88.4599 72.7704 88.3299 72.7903 88.2299 72.8103C88.1299 72.8303 88.0599 72.8404 88.0099 72.8404C87.7699 72.8404 87.5799 72.7604 87.4499 72.6104C87.3199 72.4604 87.2498 72.2404 87.2498 71.9604C87.2498 71.7503 87.3198 71.5804 87.4698 71.4404C87.6198 71.3004 87.8399 71.1904 88.1499 71.1104L90.3299 70.5104C90.5099 70.4604 90.6598 70.4304 90.7798 70.4004C90.8998 70.3804 90.9899 70.3604 91.0699 70.3604C91.2999 70.3604 91.4699 70.4204 91.5699 70.5504C91.6699 70.6804 91.7198 70.9004 91.7198 71.2004V79.8904L91.7399 79.9104Z" fill="#2F3F64"/>
<path d="M101.21 70.3906C102.56 70.3906 103.63 70.9106 104.42 71.9606C105.21 73.0106 105.61 74.4306 105.61 76.2306C105.61 78.0306 105.21 79.4606 104.42 80.5006C103.63 81.5406 102.56 82.0706 101.21 82.0706C99.8596 82.0706 98.8096 81.5506 98.0296 80.5006C97.2496 79.4506 96.8496 78.0306 96.8496 76.2306C96.8496 74.4306 97.2396 73.0006 98.0296 71.9606C98.8196 70.9206 99.8696 70.3906 101.21 70.3906ZM101.23 72.3706C100.61 72.3706 100.12 72.7106 99.7596 73.3906C99.3996 74.0706 99.2196 75.0106 99.2196 76.2106C99.2196 77.4106 99.3996 78.3706 99.7596 79.0606C100.12 79.7406 100.61 80.0906 101.24 80.0906C101.87 80.0906 102.36 79.7506 102.72 79.0606C103.08 78.3806 103.26 77.4306 103.26 76.2106C103.26 74.9906 103.08 74.0706 102.72 73.3906C102.36 72.7106 101.86 72.3706 101.24 72.3706H101.23Z" fill="#2F3F64"/>
<path d="M70.1002 96.6701H71.5302C71.9202 96.6701 72.2102 96.7401 72.3802 96.8901C72.5502 97.0401 72.6402 97.2801 72.6402 97.6101C72.6402 97.9401 72.5602 98.1801 72.3802 98.3201C72.2002 98.4601 71.9202 98.5401 71.5202 98.5401H66.3202C65.9202 98.5401 65.6302 98.4701 65.4602 98.3201C65.2902 98.1701 65.2002 97.9401 65.2002 97.6101C65.2002 97.2801 65.2902 97.0301 65.4602 96.8901C65.6302 96.7401 65.9202 96.6701 66.3202 96.6701H67.9602V89.2401L66.9702 89.4901C66.8202 89.5301 66.6902 89.5501 66.5902 89.5701C66.4902 89.5901 66.4202 89.6001 66.3702 89.6001C66.1302 89.6001 65.9402 89.5201 65.8102 89.3701C65.6802 89.2201 65.6102 89.0001 65.6102 88.7201C65.6102 88.5101 65.6802 88.3401 65.8302 88.2001C65.9802 88.0601 66.2002 87.9501 66.5102 87.8701L68.6902 87.2701C68.8702 87.2201 69.0202 87.1901 69.1402 87.1601C69.2602 87.1401 69.3502 87.1201 69.4302 87.1201C69.6602 87.1201 69.8302 87.1801 69.9302 87.3101C70.0302 87.4401 70.0802 87.6601 70.0802 87.9601V96.6501L70.1002 96.6701Z" fill="#2F3F64"/>
<path d="M79.5699 87.1504C80.9199 87.1504 81.9899 87.6704 82.7799 88.7204C83.5699 89.7704 83.9699 91.1904 83.9699 92.9904C83.9699 94.7904 83.5699 96.2204 82.7799 97.2604C81.9899 98.3004 80.9199 98.8304 79.5699 98.8304C78.2199 98.8304 77.17 98.3104 76.39 97.2604C75.61 96.2104 75.21 94.7904 75.21 92.9904C75.21 91.1904 75.6 89.7604 76.39 88.7204C77.18 87.6804 78.2299 87.1504 79.5699 87.1504ZM79.58 89.1304C78.96 89.1304 78.47 89.4704 78.11 90.1504C77.75 90.8304 77.5699 91.7704 77.5699 92.9704C77.5699 94.1704 77.75 95.1304 78.11 95.8204C78.47 96.5004 78.9599 96.8504 79.5899 96.8504C80.2199 96.8504 80.7099 96.5104 81.0699 95.8204C81.4299 95.1404 81.61 94.1904 81.61 92.9704C81.61 91.7504 81.4299 90.8304 81.0699 90.1504C80.7099 89.4704 80.2099 89.1304 79.5899 89.1304H79.58Z" fill="#2F3F64"/>
<path d="M90.3903 87.1504C91.7403 87.1504 92.8103 87.6704 93.6003 88.7204C94.3903 89.7704 94.7903 91.1904 94.7903 92.9904C94.7903 94.7904 94.3903 96.2204 93.6003 97.2604C92.8103 98.3004 91.7403 98.8304 90.3903 98.8304C89.0403 98.8304 87.9903 98.3104 87.2103 97.2604C86.4303 96.2104 86.0303 94.7904 86.0303 92.9904C86.0303 91.1904 86.4203 89.7604 87.2103 88.7204C88.0003 87.6804 89.0503 87.1504 90.3903 87.1504ZM90.4003 89.1304C89.7803 89.1304 89.2903 89.4704 88.9303 90.1504C88.5703 90.8304 88.3903 91.7704 88.3903 92.9704C88.3903 94.1704 88.5703 95.1304 88.9303 95.8204C89.2903 96.5004 89.7803 96.8504 90.4103 96.8504C91.0403 96.8504 91.5303 96.5104 91.8903 95.8204C92.2503 95.1404 92.4303 94.1904 92.4303 92.9704C92.4303 91.7504 92.2503 90.8304 91.8903 90.1504C91.5303 89.4704 91.0303 89.1304 90.4103 89.1304H90.4003Z" fill="#2F3F64"/>
<path d="M102.56 96.6701H103.99C104.38 96.6701 104.67 96.7401 104.84 96.8901C105.01 97.0401 105.1 97.2801 105.1 97.6101C105.1 97.9401 105.02 98.1801 104.84 98.3201C104.66 98.4601 104.38 98.5401 103.98 98.5401H98.7802C98.3802 98.5401 98.0902 98.4701 97.9202 98.3201C97.7502 98.1701 97.6602 97.9401 97.6602 97.6101C97.6602 97.2801 97.7502 97.0301 97.9202 96.8901C98.0902 96.7401 98.3802 96.6701 98.7802 96.6701H100.42V89.2401L99.4302 89.4901C99.2802 89.5301 99.1502 89.5501 99.0502 89.5701C98.9502 89.5901 98.8802 89.6001 98.8302 89.6001C98.5902 89.6001 98.4002 89.5201 98.2702 89.3701C98.1402 89.2201 98.0702 89.0001 98.0702 88.7201C98.0702 88.5101 98.1402 88.3401 98.2902 88.2001C98.4402 88.0601 98.6602 87.9501 98.9702 87.8701L101.15 87.2701C101.33 87.2201 101.48 87.1901 101.6 87.1601C101.72 87.1401 101.81 87.1201 101.89 87.1201C102.12 87.1201 102.29 87.1801 102.39 87.3101C102.49 87.4401 102.54 87.6601 102.54 87.9601V96.6501L102.56 96.6701Z" fill="#2F3F64"/>
</svg>
