<svg viewBox="0 0 128 127" fill="none" xmlns="http://www.w3.org/2000/svg">
<g id="print-job">
<g id="Group">
<path id="Vector" d="M19.6298 1.59961H106.65C109.5 1.59961 111.82 3.91965 111.82 6.76965V26.4297H14.4697V6.76965C14.4697 3.91965 16.7898 1.59961 19.6398 1.59961H19.6298Z" fill="#2F3F64"/>
<path id="Vector_2" d="M111.81 27.4199H14.46C13.91 27.4199 13.46 26.9699 13.46 26.4199V6.75989C13.46 3.35989 16.23 0.589844 19.63 0.589844H106.65C110.05 0.589844 112.82 3.35989 112.82 6.75989V26.4199C112.82 26.9699 112.37 27.4199 111.82 27.4199H111.81ZM15.46 25.4199H110.81V6.75989C110.81 4.45989 108.94 2.58984 106.64 2.58984H19.62C17.32 2.58984 15.45 4.45989 15.45 6.75989V25.4199H15.46Z" fill="#2F3F64"/>
</g>
<g id="Group_2">
<path id="Vector_3" d="M37.78 6.97949H89.6C92.95 6.97949 95.67 9.69956 95.67 13.0496V26.4196H31.71V13.0496C31.71 9.69956 34.43 6.97949 37.78 6.97949Z" fill="white"/>
<path id="Vector_4" d="M95.6798 27.4198H31.7197C31.1697 27.4198 30.7197 26.9698 30.7197 26.4198V13.0398C30.7197 9.13979 33.8898 5.96973 37.7898 5.96973H89.6097C93.5097 5.96973 96.6798 9.13979 96.6798 13.0398V26.4198C96.6798 26.9698 96.2298 27.4198 95.6798 27.4198ZM32.7097 25.4198H94.6698V13.0398C94.6698 10.2398 92.3897 7.96973 89.5997 7.96973H37.7798C34.9798 7.96973 32.7097 10.2498 32.7097 13.0398V25.4198Z" fill="#2F3F64"/>
</g>
<g id="Group_3">
<path id="Vector_5" fill-rule="evenodd" clip-rule="evenodd" d="M120.52 85.7596C123.77 85.7596 126.4 83.1296 126.4 79.8796V32.3097C126.4 29.0597 123.77 26.4297 120.52 26.4297H6.87024C3.62024 26.4297 0.990234 29.0597 0.990234 32.3097V79.8796C0.990234 83.1296 3.62024 85.7596 6.87024 85.7596H31.7102V68.0696H95.6703V85.7596H104.06" fill="#BCC5DC"/>
<path id="Vector_6" d="M120.52 86.7596C119.97 86.7596 119.52 86.3096 119.52 85.7596C119.52 85.2096 119.97 84.7596 120.52 84.7596C123.21 84.7596 125.4 82.5696 125.4 79.8796V32.3097C125.4 29.6197 123.21 27.4297 120.52 27.4297H6.87024C4.18024 27.4297 1.99023 29.6197 1.99023 32.3097V79.8796C1.99023 82.5696 4.18024 84.7596 6.87024 84.7596H30.7102V68.0696C30.7102 67.5196 31.1602 67.0696 31.7102 67.0696H95.6703C96.2203 67.0696 96.6703 67.5196 96.6703 68.0696V84.7596H104.06C104.61 84.7596 105.06 85.2096 105.06 85.7596C105.06 86.3096 104.61 86.7596 104.06 86.7596H95.6703C95.1203 86.7596 94.6703 86.3096 94.6703 85.7596V69.0696H32.7102V85.7596C32.7102 86.3096 32.2602 86.7596 31.7102 86.7596H6.87024C3.08024 86.7596 -0.00976562 83.6696 -0.00976562 79.8796V32.3097C-0.00976562 28.5197 3.08024 25.4297 6.87024 25.4297H120.52C124.31 25.4297 127.4 28.5197 127.4 32.3097V79.8796C127.4 83.6696 124.31 86.7596 120.52 86.7596Z" fill="#2F3F64"/>
</g>
<g id="Group_4">
<path id="Vector_7" d="M89.6096 103.11H37.7897C34.4397 103.11 31.7196 100.39 31.7196 97.0403L31.7196 68.0703H95.6797V97.0403C95.6797 100.39 92.9596 103.11 89.6096 103.11Z" fill="white"/>
<path id="Vector_8" d="M89.6097 104.11H37.7898C33.8898 104.11 30.7197 100.94 30.7197 97.0404V68.0703C30.7197 67.5203 31.1697 67.0703 31.7197 67.0703H95.6798C96.2298 67.0703 96.6798 67.5203 96.6798 68.0703V97.0404C96.6798 100.94 93.5097 104.11 89.6097 104.11ZM32.7097 69.0703V97.0404C32.7097 99.8404 34.9898 102.11 37.7798 102.11H89.5997C92.3997 102.11 94.6698 99.8304 94.6698 97.0404V69.0703H32.7097Z" fill="#2F3F64"/>
</g>
<path id="Vector_9" d="M115.39 46.7305H0.990234C0.440234 46.7305 -0.00976562 46.2805 -0.00976562 45.7305C-0.00976562 45.1805 0.440234 44.7305 0.990234 44.7305H115.39C115.94 44.7305 116.39 45.1805 116.39 45.7305C116.39 46.2805 115.94 46.7305 115.39 46.7305Z" fill="#2F3F64"/>
<g id="Group_5">
<path id="Vector_10" d="M115.97 41.6597C118.737 41.6597 120.98 39.4166 120.98 36.6497C120.98 33.8827 118.737 31.6396 115.97 31.6396C113.203 31.6396 110.96 33.8827 110.96 36.6497C110.96 39.4166 113.203 41.6597 115.97 41.6597Z" fill="#FEC95C"/>
<path id="Vector_11" d="M115.97 42.6597C112.66 42.6597 109.96 39.9597 109.96 36.6497C109.96 33.3397 112.66 30.6396 115.97 30.6396C119.28 30.6396 121.98 33.3397 121.98 36.6497C121.98 39.9597 119.28 42.6597 115.97 42.6597ZM115.97 32.6296C113.76 32.6296 111.96 34.4296 111.96 36.6396C111.96 38.8496 113.76 40.6497 115.97 40.6497C118.18 40.6497 119.98 38.8496 119.98 36.6396C119.98 34.4296 118.18 32.6296 115.97 32.6296Z" fill="#2F3F64"/>
</g>
<path id="Vector_12" d="M18.5197 37.6504H7.09961C6.54961 37.6504 6.09961 37.2004 6.09961 36.6504C6.09961 36.1004 6.54961 35.6504 7.09961 35.6504H18.5197C19.0697 35.6504 19.5197 36.1004 19.5197 36.6504C19.5197 37.2004 19.0697 37.6504 18.5197 37.6504Z" fill="#2F3F64"/>
<path id="Vector_13" d="M37.42 37.6504H26C25.45 37.6504 25 37.2004 25 36.6504C25 36.1004 25.45 35.6504 26 35.6504H37.42C37.97 35.6504 38.42 36.1004 38.42 36.6504C38.42 37.2004 37.97 37.6504 37.42 37.6504Z" fill="#2F3F64"/>
<path id="Vector_14" d="M104.07 86.7604C103.52 86.7604 103.07 86.3104 103.07 85.7604V74.1204C103.07 71.3304 100.8 69.0703 98.0201 69.0703H29.3801C26.5901 69.0703 24.3301 71.3404 24.3301 74.1204V85.7604C24.3301 86.3104 23.8801 86.7604 23.3301 86.7604C22.7801 86.7604 22.3301 86.3104 22.3301 85.7604V74.1204C22.3301 70.2304 25.4901 67.0703 29.3801 67.0703H98.0201C101.91 67.0703 105.07 70.2304 105.07 74.1204V85.7604C105.07 86.3104 104.62 86.7604 104.07 86.7604Z" fill="#2F3F64"/>
<path id="Vector_15" d="M88.2098 77.9102H39.1699C38.6199 77.9102 38.1699 77.4602 38.1699 76.9102C38.1699 76.3602 38.6199 75.9102 39.1699 75.9102H88.2098C88.7598 75.9102 89.2098 76.3602 89.2098 76.9102C89.2098 77.4602 88.7598 77.9102 88.2098 77.9102Z" fill="#2F3F64"/>
<path id="Vector_16" d="M88.2098 86.7598H39.1699C38.6199 86.7598 38.1699 86.3098 38.1699 85.7598C38.1699 85.2098 38.6199 84.7598 39.1699 84.7598H88.2098C88.7598 84.7598 89.2098 85.2098 89.2098 85.7598C89.2098 86.3098 88.7598 86.7598 88.2098 86.7598Z" fill="#2F3F64"/>
<path id="Vector_17" d="M88.2098 95.5996H39.1699C38.6199 95.5996 38.1699 95.1496 38.1699 94.5996C38.1699 94.0496 38.6199 93.5996 39.1699 93.5996H88.2098C88.7598 93.5996 89.2098 94.0496 89.2098 94.5996C89.2098 95.1496 88.7598 95.5996 88.2098 95.5996Z" fill="#2F3F64"/>
<g id="Group_6">
<path id="Vector_18" d="M102.089 125.88C115.521 125.88 126.41 114.992 126.41 101.56C126.41 88.1287 115.521 77.2402 102.089 77.2402C88.6579 77.2402 77.7695 88.1287 77.7695 101.56C77.7695 114.992 88.6579 125.88 102.089 125.88Z" fill="#FEC95C"/>
<path id="Vector_19" d="M102.089 126.88C88.1295 126.88 76.7695 115.52 76.7695 101.56C76.7695 87.6003 88.1295 76.2402 102.089 76.2402C116.049 76.2402 127.41 87.6003 127.41 101.56C127.41 115.52 116.049 126.88 102.089 126.88ZM102.089 78.2502C89.2295 78.2502 78.7695 88.7102 78.7695 101.57C78.7695 114.43 89.2295 124.89 102.089 124.89C114.949 124.89 125.41 114.43 125.41 101.57C125.41 88.7102 114.949 78.2502 102.089 78.2502Z" fill="#2F3F64"/>
</g>
<path id="Vector_20" d="M102.09 112.72C101.32 112.72 100.7 112.1 100.7 111.33V90.2004C100.7 89.4304 101.32 88.8105 102.09 88.8105C102.86 88.8105 103.48 89.4304 103.48 90.2004V111.33C103.48 112.1 102.86 112.72 102.09 112.72Z" fill="#2F3F64"/>
<path id="Vector_21" d="M102.08 113.47C101.72 113.47 101.37 113.33 101.09 113.06L93.4001 105.37C92.8601 104.83 92.8601 103.94 93.4001 103.4C93.9401 102.86 94.8301 102.86 95.3701 103.4L102.07 110.1L108.78 103.39C109.32 102.85 110.21 102.85 110.75 103.39C111.29 103.93 111.29 104.82 110.75 105.36L103.05 113.06C102.78 113.33 102.42 113.47 102.06 113.47H102.08Z" fill="#2F3F64"/>
</g>
</svg>
