<svg width="128" height="111" viewBox="0 0 128 111" fill="none" xmlns="http://www.w3.org/2000/svg">
<g id="question">
<g id="Group">
<path id="Vector" fill-rule="evenodd" clip-rule="evenodd" d="M90.39 1H4C2.34 1 1 2.34 1 4V89.5C1 91.16 2.34 92.5 4 92.5H29.5599V106.92C29.5599 109.2 32.3199 110.34 33.9299 108.73L50.1699 92.49H123.41C125.07 92.49 126.41 91.15 126.41 89.49V4C126.41 2.34 125.07 1 123.41 1" fill="#BCC5DC"/>
<path id="Vector_2" d="M32.14 110.49C31.68 110.49 31.21 110.4 30.76 110.21C29.4 109.65 28.5599 108.39 28.5599 106.92V93.5H4C1.79 93.5 0 91.71 0 89.5V4C0 1.79 1.79 0 4 0H90.39C90.94 0 91.39 0.45 91.39 1C91.39 1.55 90.94 2 90.39 2H4C2.9 2 2 2.9 2 4V89.5C2 90.6 2.9 91.5 4 91.5H29.5599C30.1099 91.5 30.5599 91.95 30.5599 92.5V106.92C30.5599 107.57 30.9199 108.11 31.5199 108.36C32.1199 108.61 32.76 108.48 33.22 108.02L49.46 91.78C49.65 91.59 49.8999 91.49 50.1699 91.49H123.41C124.51 91.49 125.41 90.59 125.41 89.49V4C125.41 2.9 124.51 2 123.41 2C122.86 2 122.41 1.55 122.41 1C122.41 0.45 122.86 0 123.41 0C125.62 0 127.41 1.79 127.41 4V89.5C127.41 91.71 125.62 93.5 123.41 93.5H50.58L34.64 109.44C33.95 110.13 33.06 110.49 32.14 110.49Z" fill="#2F3F64"/>
</g>
<path id="Vector_3" d="M69.8101 54.9404C69.5601 55.7504 69.3901 56.8903 69.3101 58.3803C69.2701 59.2003 68.6001 59.8604 67.7701 59.8604H59.6302C58.7502 59.8604 58.0501 59.1104 58.0901 58.2304C58.3001 54.4104 58.7101 51.7104 59.3501 50.1404C60.0701 48.3503 61.9301 46.2903 64.9301 43.9604L67.9701 41.5904C68.9701 40.8404 69.7702 40.0204 70.3802 39.1304C71.4902 37.6004 72.0501 35.9204 72.0501 34.0904C72.0501 31.9804 71.4301 30.0604 70.2001 28.3204C68.9601 26.5904 66.7101 25.7204 63.4301 25.7204C60.1501 25.7204 57.9301 26.7904 56.5801 28.9304C55.5101 30.6404 54.8602 32.3904 54.6402 34.2004C54.5502 34.9904 53.9002 35.5904 53.1102 35.5904H44.1701C43.2601 35.5904 42.5502 34.8104 42.6302 33.9104C43.2702 26.8804 45.9901 21.8404 50.8001 18.7704C54.0701 16.6604 58.1002 15.6104 62.8702 15.6104C69.1402 15.6104 74.3502 17.1104 78.5002 20.1104C82.6502 23.1104 84.7201 27.5504 84.7201 33.4304C84.7201 37.0404 83.8202 40.0804 82.0102 42.5504C80.9602 44.0504 78.9301 45.9604 75.9301 48.3004L72.9701 50.5903C71.3601 51.8403 70.2902 53.3004 69.7602 54.9604L69.8101 54.9404ZM68.6001 77.5903H59.2701C58.4201 77.5903 57.7302 76.9004 57.7302 76.0504V67.0903C57.7302 66.2403 58.4201 65.5504 59.2701 65.5504H68.6001C69.4501 65.5504 70.1402 66.2403 70.1402 67.0903V76.0504C70.1402 76.9004 69.4501 77.5903 68.6001 77.5903Z" fill="#2F3F64"/>
</g>
</svg>
