<svg width="127" height="126" viewBox="0 0 127 126" fill="none" xmlns="http://www.w3.org/2000/svg">
<path d="M86.74 62.2096C87.32 62.9396 87.61 63.7696 87.61 64.7096C87.61 65.5596 87.4 66.3096 86.99 66.9496C86.57 67.5896 85.9701 68.0996 85.1801 68.4596C84.3901 68.8196 83.46 69.0097 82.38 69.0097H75.54V53.1396H82.09C83.17 53.1396 84.09 53.3096 84.88 53.6596C85.66 54.0096 86.25 54.4896 86.65 55.1196C87.05 55.7496 87.25 56.4496 87.25 57.2296C87.25 58.1496 87 58.9296 86.51 59.5496C86.02 60.1696 85.36 60.6096 84.54 60.8696C85.43 61.0396 86.17 61.4796 86.75 62.2096H86.74ZM78.71 59.6896H81.62C82.38 59.6896 82.96 59.5196 83.37 59.1796C83.78 58.8396 83.98 58.3496 83.98 57.7096C83.98 57.0696 83.78 56.5796 83.37 56.2296C82.96 55.8796 82.38 55.7096 81.62 55.7096H78.71V59.6896ZM83.73 65.8697C84.16 65.5097 84.38 64.9896 84.38 64.3196C84.38 63.6496 84.15 63.0997 83.7 62.7197C83.25 62.3296 82.63 62.1396 81.86 62.1396H78.72V66.4097H81.9301C82.7001 66.4097 83.31 66.2296 83.74 65.8596L83.73 65.8697Z" fill="#2F3F64"/>
<path fill-rule="evenodd" clip-rule="evenodd" d="M9.02051 19.1393L9.08044 6.23934C9.09044 3.51934 11.3105 1.31934 14.0205 1.31934H102.57C105.28 1.31934 107.48 3.51934 107.47 6.23934L107.411 19.1393H9.02051Z" fill="#BCC5DC"/>
<path fill-rule="evenodd" clip-rule="evenodd" d="M98.4901 112.53L98.4701 116.17C98.4601 118.89 96.2402 121.09 93.5302 121.09H4.98014C2.26014 121.09 0.0701122 118.89 0.0801122 116.17L0.520176 14.7901C0.530176 12.0801 2.75012 9.87012 5.46012 9.87012H9.06021L8.64017 107.61C8.63017 110.32 10.8202 112.53 13.5402 112.53H98.4901Z" fill="#2F3F64"/>
<path d="M102.08 113.53H13.5299C11.9499 113.53 10.4599 112.91 9.34985 111.79C8.23985 110.67 7.62988 109.18 7.62988 107.6L8.06982 6.2198C8.07982 2.9598 10.7499 0.299805 14.0099 0.299805H102.56C104.14 0.299805 105.63 0.919805 106.74 2.0398C107.85 3.1598 108.46 4.6498 108.46 6.2298L108.02 107.61C108.01 110.87 105.34 113.53 102.08 113.53ZM14.0199 2.3198C11.8599 2.3198 10.0898 4.0798 10.0798 6.2398L9.63989 107.62C9.63989 108.67 10.0399 109.65 10.7699 110.39C11.5099 111.13 12.4899 111.54 13.5299 111.54H102.08C104.24 111.54 106.01 109.78 106.02 107.62L106.46 6.2398C106.46 5.1898 106.06 4.2098 105.32 3.4698C104.58 2.7298 103.6 2.3198 102.56 2.3198H14.0099H14.0199Z" fill="#2F3F64"/>
<path d="M107.02 19.4297H49.6797C49.1297 19.4297 48.6797 18.9797 48.6797 18.4297C48.6797 17.8797 49.1297 17.4297 49.6797 17.4297H107.02C107.57 17.4297 108.02 17.8797 108.02 18.4297C108.02 18.9797 107.57 19.4297 107.02 19.4297Z" fill="#2F3F64"/>
<path fill-rule="evenodd" clip-rule="evenodd" d="M82.3597 85.2999C82.0397 85.2199 81.7098 85.3399 81.5098 85.5999C81.3098 85.8599 81.2698 86.2099 81.4298 86.4999C84.8298 93.0299 97.4597 117.28 101.07 124.21C101.23 124.51 101.56 124.69 101.9 124.66C102.24 124.62 102.53 124.39 102.62 124.06C103.49 121.02 105.15 115.17 106.36 110.96C107.26 107.81 109.42 105.18 112.33 103.68C116.37 101.61 122.09 98.6799 125.08 97.1399C125.39 96.9799 125.57 96.6399 125.53 96.2999C125.49 95.9499 125.24 95.6699 124.9 95.5899C116.94 93.6699 89.6497 87.0699 82.3797 85.3099L82.3597 85.2999Z" fill="white"/>
<path d="M101.79 125.65C101.11 125.65 100.49 125.28 100.17 124.66L80.5299 86.95C80.1999 86.31 80.2698 85.53 80.7198 84.97C81.1598 84.41 81.8898 84.15 82.5998 84.32L125.12 94.6C125.86 94.78 126.42 95.41 126.51 96.17C126.6 96.93 126.2 97.67 125.52 98.02L112.77 104.56C110.11 105.92 108.12 108.35 107.3 111.22L103.56 124.32C103.36 125.04 102.74 125.57 101.98 125.64C101.92 125.64 101.85 125.64 101.79 125.64V125.65ZM82.4698 86.35L101.75 123.37L105.37 110.66C106.34 107.26 108.7 104.38 111.85 102.77L124.2 96.43L82.4598 86.34L82.4698 86.35Z" fill="#2F3F64"/>
<path d="M20.8198 12.4396C22.6976 12.4396 24.2198 10.9084 24.2198 9.01961C24.2198 7.1308 22.6976 5.59961 20.8198 5.59961C18.9421 5.59961 17.4199 7.1308 17.4199 9.01961C17.4199 10.9084 18.9421 12.4396 20.8198 12.4396Z" fill="#2F3F64"/>
<path fill-rule="evenodd" clip-rule="evenodd" d="M33.8102 5.58984C35.6902 5.58984 37.2101 7.11984 37.2101 9.00984C37.2101 10.8998 35.6902 12.4298 33.8102 12.4298C31.9302 12.4298 30.4102 10.8998 30.4102 9.00984C30.4102 7.11984 31.9402 5.58984 33.8102 5.58984Z" fill="#2F3F64"/>
<path fill-rule="evenodd" clip-rule="evenodd" d="M47.3805 5.58984C49.2605 5.58984 50.7805 7.11984 50.7805 9.00984C50.7805 10.8998 49.2605 12.4298 47.3805 12.4298C45.5005 12.4298 43.9805 10.8998 43.9805 9.00984C43.9805 7.11984 45.5005 5.58984 47.3805 5.58984Z" fill="#2F3F64"/>
<path d="M51.5104 44.0293H24.2203C22.3426 44.0293 20.8203 45.5515 20.8203 47.4293V74.7193C20.8203 76.5971 22.3426 78.1193 24.2203 78.1193H51.5104C53.3881 78.1193 54.9104 76.5971 54.9104 74.7193V47.4293C54.9104 45.5515 53.3881 44.0293 51.5104 44.0293Z" fill="#FEC95C"/>
<path d="M51.5105 79.1195H24.2104C21.7804 79.1195 19.8105 77.1495 19.8105 74.7195V47.4195C19.8105 44.9995 21.7804 43.0195 24.2104 43.0195H51.5105C53.9405 43.0195 55.9105 44.9895 55.9105 47.4195V74.7195C55.9105 77.1495 53.9405 79.1195 51.5105 79.1195ZM24.2104 45.0295C22.8904 45.0295 21.8105 46.1095 21.8105 47.4295V74.7295C21.8105 76.0495 22.8904 77.1295 24.2104 77.1295H51.5105C52.8305 77.1295 53.9105 76.0495 53.9105 74.7295V47.4295C53.9105 46.1095 52.8305 45.0295 51.5105 45.0295H24.2104Z" fill="#2F3F64"/>
<path d="M94.9705 79.1195H67.6705C65.2405 79.1195 63.2705 77.1495 63.2705 74.7195V47.4195C63.2705 44.9995 65.2405 43.0195 67.6705 43.0195H94.9705C97.3905 43.0195 99.3705 44.9895 99.3705 47.4195V74.7195C99.3705 77.1495 97.4005 79.1195 94.9705 79.1195ZM67.6705 45.0295C66.3505 45.0295 65.2705 46.1095 65.2705 47.4295V74.7295C65.2705 76.0495 66.3505 77.1295 67.6705 77.1295H94.9705C96.2905 77.1295 97.3705 76.0495 97.3705 74.7295V47.4295C97.3705 46.1095 96.2905 45.0295 94.9705 45.0295H67.6705Z" fill="#2F3F64"/>
<path d="M41.0098 65.9999H34.6897L33.6398 69.0199H30.2998L36.0098 53.1299H39.7197L45.4298 69.0199H42.0598L41.0098 65.9999ZM40.1498 63.4499L37.8497 56.8099L35.5498 63.4499H40.1398H40.1498Z" fill="#2F3F64"/>
</svg>
