<svg viewBox="0 0 127 127" fill="none" xmlns="http://www.w3.org/2000/svg">
<g id="report-issue">
<path id="Vector" fill-rule="evenodd" clip-rule="evenodd" d="M93.8098 119.551V122.191C93.7898 124.571 91.7497 126.501 89.2397 126.501H5.22974C2.64974 126.501 0.549805 124.511 0.549805 122.061V12.5806C0.549805 10.1306 2.64974 8.14062 5.22974 8.14062H8.6897V115.101C8.6897 117.551 10.7898 119.541 13.3698 119.541H93.8098V119.551Z" fill="#2F3F64"/>
<path id="Vector_2" fill-rule="evenodd" clip-rule="evenodd" d="M101.94 114.05C101.94 117.09 99.4597 119.55 96.4197 119.55H13.3596C10.7796 119.55 8.67969 117.56 8.67969 115.11V5.63043C8.67969 3.18043 10.7796 1.19043 13.3596 1.19043H97.6096C100.19 1.19043 102.29 3.18043 102.29 5.63043C102.29 5.63043 102.01 91.2804 101.93 114.05H101.94Z" fill="white"/>
<path id="Vector_3" d="M96.4197 120.55H13.3596C10.2296 120.55 7.67969 118.11 7.67969 115.11V5.6402C7.67969 2.6402 10.2296 0.200195 13.3596 0.200195H97.6096C100.74 0.200195 103.29 2.6402 103.29 5.6402L102.93 114.06C102.92 117.64 99.9897 120.56 96.4097 120.56L96.4197 120.55ZM13.3696 2.19019C11.3396 2.19019 9.68958 3.73019 9.68958 5.63019V115.1C9.68958 117 11.3396 118.54 13.3696 118.54H96.4297C98.9097 118.54 100.94 116.52 100.95 114.04L101.31 5.62018C101.31 3.73018 99.6596 2.18018 97.6296 2.18018H13.3796L13.3696 2.19019Z" fill="#2F3F64"/>
<path id="Vector_4" d="M86.3198 29.6299H39.4498C38.2845 29.6299 37.3398 30.5745 37.3398 31.7399V35.9599C37.3398 37.1252 38.2845 38.0699 39.4498 38.0699H86.3198C87.4851 38.0699 88.4299 37.1252 88.4299 35.9599V31.7399C88.4299 30.5745 87.4851 29.6299 86.3198 29.6299Z" fill="#BCC5DC"/>
<path id="Vector_5" d="M25.7399 29.6299H31.0798C32.2398 29.6299 33.1898 30.5699 33.1898 31.7399V35.9599C33.1898 37.1199 32.2398 38.0699 31.0798 38.0699H25.7399C24.5799 38.0699 23.6299 37.1299 23.6299 35.9599V31.7399C23.6299 30.5799 24.5799 29.6299 25.7399 29.6299Z" fill="#BCC5DC"/>
<path id="Vector_6" d="M31.0896 56.7798H25.7496C24.0396 56.7798 22.6396 55.3799 22.6396 53.6699V49.4499C22.6396 47.7399 24.0296 46.3398 25.7496 46.3398H31.0896C32.7996 46.3398 34.1996 47.7299 34.1996 49.4499V53.6699C34.1996 55.3799 32.8096 56.7798 31.0896 56.7798ZM25.7396 48.3398C25.1296 48.3398 24.6296 48.8399 24.6296 49.4499V53.6699C24.6296 54.2799 25.1296 54.7798 25.7396 54.7798H31.0796C31.6896 54.7798 32.1896 54.2799 32.1896 53.6699V49.4499C32.1896 48.8399 31.6896 48.3398 31.0796 48.3398H25.7396Z" fill="#BCC5DC"/>
<path id="Vector_7" d="M31.0896 74.3697H25.7496C24.0396 74.3697 22.6396 72.9797 22.6396 71.2597V67.0397C22.6396 65.3297 24.0296 63.9297 25.7496 63.9297H31.0896C32.7996 63.9297 34.1996 65.3197 34.1996 67.0397V71.2597C34.1996 72.9697 32.8096 74.3697 31.0896 74.3697ZM25.7396 65.9297C25.1296 65.9297 24.6296 66.4297 24.6296 67.0397V71.2597C24.6296 71.8697 25.1296 72.3697 25.7396 72.3697H31.0796C31.6896 72.3697 32.1896 71.8697 32.1896 71.2597V67.0397C32.1896 66.4297 31.6896 65.9297 31.0796 65.9297H25.7396Z" fill="#BCC5DC"/>
<path id="Vector_8" d="M31.0896 92.0601H25.7496C24.0396 92.0601 22.6396 90.6701 22.6396 88.9501V84.7301C22.6396 83.0201 24.0296 81.6201 25.7496 81.6201H31.0896C32.7996 81.6201 34.1996 83.0101 34.1996 84.7301V88.9501C34.1996 90.6601 32.8096 92.0601 31.0896 92.0601ZM25.7396 83.6201C25.1296 83.6201 24.6296 84.1201 24.6296 84.7301V88.9501C24.6296 89.5601 25.1296 90.0601 25.7396 90.0601H31.0796C31.6896 90.0601 32.1896 89.5601 32.1896 88.9501V84.7301C32.1896 84.1201 31.6896 83.6201 31.0796 83.6201H25.7396Z" fill="#BCC5DC"/>
<path id="Vector_9" d="M86.3198 47.3105H39.4498C38.2845 47.3105 37.3398 48.2552 37.3398 49.4206V53.6406C37.3398 54.8059 38.2845 55.7505 39.4498 55.7505H86.3198C87.4851 55.7505 88.4299 54.8059 88.4299 53.6406V49.4206C88.4299 48.2552 87.4851 47.3105 86.3198 47.3105Z" fill="#BCC5DC"/>
<path id="Vector_10" d="M86.3198 64.9902H39.4498C38.2845 64.9902 37.3398 65.9349 37.3398 67.1003V71.3203C37.3398 72.4856 38.2845 73.4302 39.4498 73.4302H86.3198C87.4851 73.4302 88.4299 72.4856 88.4299 71.3203V67.1003C88.4299 65.9349 87.4851 64.9902 86.3198 64.9902Z" fill="#BCC5DC"/>
<path id="Vector_11" d="M86.3198 82.6699H39.4498C38.2845 82.6699 37.3398 83.6146 37.3398 84.7799V88.9999C37.3398 90.1652 38.2845 91.1099 39.4498 91.1099H86.3198C87.4851 91.1099 88.4299 90.1652 88.4299 88.9999V84.7799C88.4299 83.6146 87.4851 82.6699 86.3198 82.6699Z" fill="#BCC5DC"/>
<path id="Vector_12" d="M32.5702 56.6599C32.3102 56.6599 32.0602 56.5599 31.8602 56.3699L23.5503 48.0599C23.1603 47.6699 23.1603 47.0399 23.5503 46.6499C23.9403 46.2599 24.5702 46.2599 24.9602 46.6499L33.2703 54.9599C33.6603 55.3499 33.6603 55.9799 33.2703 56.3699C33.0703 56.5699 32.8203 56.6599 32.5603 56.6599H32.5702Z" fill="#2F3F64"/>
<path id="Vector_13" d="M24.2603 56.6599C24.0003 56.6599 23.7503 56.5599 23.5503 56.3699C23.1603 55.9799 23.1603 55.3499 23.5503 54.9599L31.8602 46.6499C32.2502 46.2599 32.8803 46.2599 33.2703 46.6499C33.6603 47.0399 33.6603 47.6699 33.2703 48.0599L24.9602 56.3699C24.7602 56.5699 24.5103 56.6599 24.2503 56.6599H24.2603Z" fill="#2F3F64"/>
<path id="Vector_14" fill-rule="evenodd" clip-rule="evenodd" d="M47.1398 60.2205C47.1398 60.2205 46.8498 59.0305 46.5298 57.7105C46.0198 55.6105 44.3498 53.9905 42.2398 53.5205C40.6598 53.1705 38.7998 52.7705 37.2998 52.4405C36.6898 52.3105 36.0498 52.5005 35.6198 52.9505C35.1898 53.4005 35.0297 54.0505 35.1897 54.6505C35.6197 56.2105 36.1497 58.1405 36.5897 59.7405C37.1097 61.6505 38.5898 63.1405 40.4898 63.6805C41.7698 64.0505 42.9597 64.3905 42.9597 64.3905" fill="white"/>
<path id="Vector_15" d="M42.9693 65.4002C42.8793 65.4002 42.7893 65.3902 42.6893 65.3602L40.2193 64.6502C37.9993 64.0202 36.2394 62.2402 35.6294 60.0102L34.2293 54.9202C33.9693 53.9902 34.2294 52.9702 34.8894 52.2602C35.5594 51.5602 36.5594 51.2502 37.5094 51.4602L42.4493 52.5402C44.9193 53.0802 46.8993 55.0102 47.4893 57.4702L48.0993 59.9802C48.2293 60.5202 47.8994 61.0602 47.3694 61.1902C46.8294 61.3202 46.2894 60.9902 46.1594 60.4602L45.5494 57.9502C45.1294 56.2302 43.7494 54.8802 42.0194 54.5002L37.0793 53.4202C36.8093 53.3602 36.5293 53.4502 36.3393 53.6502C36.1493 53.8502 36.0794 54.1402 36.1494 54.4002L37.5494 59.4902C37.9794 61.0502 39.2094 62.2902 40.7594 62.7402L43.2293 63.4502C43.7593 63.6002 44.0694 64.1602 43.9194 64.6902C43.7994 65.1302 43.3893 65.4102 42.9593 65.4102L42.9693 65.4002Z" fill="#2F3F64"/>
<path id="Vector_16" fill-rule="evenodd" clip-rule="evenodd" d="M72.83 96.8306L42.2801 66.2806C41.6501 65.6506 41.6501 64.6306 42.2801 64.0006L47.0201 59.2606C47.6501 58.6306 48.6701 58.6306 49.3001 59.2606L98.33 108.291C98.96 108.921 98.96 109.941 98.33 110.571L93.5901 115.311C92.9601 115.941 91.9401 115.941 91.3101 115.311L73.9301 97.9306L78.7201 93.1406C79.0201 92.8406 79.0201 92.3506 78.7201 92.0506C78.4201 91.7506 77.9301 91.7506 77.6301 92.0506L72.8401 96.8406L72.83 96.8306Z" fill="#2F3F64"/>
<path id="Vector_17" d="M92.4397 116.781C91.7397 116.781 91.0897 116.511 90.5897 116.021L73.2097 98.6406V97.5506H72.1197L41.5697 67.0006C40.5497 65.9806 40.5497 64.3306 41.5697 63.3106L46.3098 58.5706C47.2998 57.5806 49.0197 57.5806 49.9997 58.5706L99.0298 107.601C100.05 108.621 100.05 110.271 99.0298 111.291L94.2898 116.031C93.7998 116.521 93.1397 116.791 92.4397 116.791V116.781ZM75.3297 97.9206L92.0098 114.601C92.2397 114.831 92.6397 114.831 92.8697 114.601L97.6097 109.861C97.8497 109.621 97.8497 109.231 97.6097 109.001L48.5797 59.9706C48.3497 59.7406 47.9497 59.7406 47.7197 59.9706L42.9797 64.7106C42.7397 64.9506 42.7397 65.3306 42.9797 65.5706L72.8197 95.4106L76.9098 91.3206C77.5798 90.6506 78.7398 90.6506 79.4198 91.3206C80.1098 92.0106 80.1098 93.1306 79.4198 93.8306L75.3297 97.9206Z" fill="#2F3F64"/>
<path id="Vector_18" d="M96.7798 112.02C96.5198 112.02 96.2697 111.92 96.0697 111.73C95.6797 111.34 95.6797 110.71 96.0697 110.32L99.0598 107.33C99.2098 107.18 99.2998 106.97 99.2998 106.76C99.2998 106.55 99.2198 106.34 99.0598 106.19L82.4898 89.6205C82.0998 89.2305 82.0998 88.6005 82.4898 88.2105C82.8798 87.8205 83.5098 87.8205 83.8998 88.2105L100.47 104.78C101 105.31 101.29 106.02 101.29 106.77C101.29 107.52 101 108.23 100.47 108.76L97.4798 111.75C97.2798 111.95 97.0298 112.04 96.7698 112.04L96.7798 112.02Z" fill="#2F3F64"/>
<path id="Vector_19" d="M45.1402 63.2298C44.8802 63.2298 44.6302 63.1298 44.4302 62.9398L40.4302 58.9398C40.0402 58.5498 40.0402 57.9198 40.4302 57.5298C40.8202 57.1398 41.4501 57.1398 41.8401 57.5298L45.8401 61.5298C46.2301 61.9198 46.2301 62.5498 45.8401 62.9398C45.6401 63.1398 45.3901 63.2298 45.1301 63.2298H45.1402Z" fill="#2F3F64"/>
<path id="Vector_20" fill-rule="evenodd" clip-rule="evenodd" d="M39.4398 56.5306C40.1798 55.7906 41.3698 55.7906 42.1098 56.5306C42.8498 57.2706 42.8498 58.4606 42.1098 59.2006C41.3698 59.9406 40.1798 59.9406 39.4398 59.2006C38.6998 58.4606 38.6998 57.2706 39.4398 56.5306Z" fill="#2F3F64"/>
<path id="Vector_21" fill-rule="evenodd" clip-rule="evenodd" d="M101.03 18.1601C101.65 17.2001 102.71 16.6201 103.85 16.6201C104.99 16.6201 106.05 17.2001 106.67 18.1601C111.2 25.2201 120.07 39.0701 124.89 46.5901C125.55 47.6201 125.6 48.9301 125.01 50.0001C124.42 51.0701 123.3 51.7401 122.07 51.7401H85.6302C84.4102 51.7401 83.2802 51.0701 82.6902 50.0001C82.1002 48.9301 82.1503 47.6201 82.8103 46.5901C87.6303 39.0701 96.5002 25.2301 101.03 18.1601Z" fill="#FEC95C"/>
<path id="Vector_22" d="M122.07 52.7499H85.6296C84.0396 52.7499 82.5796 51.8799 81.8096 50.4899C81.0496 49.0899 81.1095 47.3899 81.9695 46.0599L100.19 17.6299C100.99 16.3799 102.36 15.6299 103.85 15.6299C105.34 15.6299 106.71 16.3799 107.51 17.6299L112.54 25.4799L110.86 26.5599L105.83 18.7099C105.4 18.0299 104.66 17.6299 103.85 17.6299C103.04 17.6299 102.31 18.0299 101.87 18.7099L83.6496 47.1399C83.1896 47.8599 83.1495 48.7799 83.5695 49.5299C83.9795 50.2799 84.7696 50.7499 85.6296 50.7499H122.07C122.93 50.7499 123.72 50.2799 124.13 49.5299C124.54 48.7799 124.51 47.8599 124.05 47.1399L120.29 41.2699C119.99 40.8099 120.13 40.1899 120.59 39.8899C121.05 39.5899 121.67 39.7299 121.97 40.1899L125.73 46.0699C126.59 47.4099 126.65 49.1099 125.88 50.4999C125.12 51.8899 123.66 52.7599 122.06 52.7599L122.07 52.7499Z" fill="#2F3F64"/>
<path id="Vector_23" d="M103.05 40.8905L102.05 30.7205V26.0205H106.21V30.7205L105.23 40.8905H103.06H103.05ZM102.22 46.0605V42.2205H106.06V46.0605H102.22Z" fill="#2F3F64"/>
<path id="Vector_24" d="M27.8698 36.2998C27.5898 36.2998 27.3098 36.1798 27.1198 35.9698L24.8099 33.3798C24.4399 32.9698 24.4799 32.3398 24.8899 31.9698C25.2999 31.5998 25.9299 31.6398 26.2999 32.0498L27.8698 33.7998L33.0299 28.0198C33.3999 27.6098 34.0298 27.5698 34.4398 27.9398C34.8498 28.3098 34.8899 28.9398 34.5199 29.3498L28.6098 35.9598C28.4198 36.1698 28.1498 36.2898 27.8598 36.2898L27.8698 36.2998Z" fill="#2F3F64"/>
</g>
</svg>
