<svg viewBox="0 0 128 128" fill="none" xmlns="http://www.w3.org/2000/svg">
<g id="request-support">
<path id="Vector" fill-rule="evenodd" clip-rule="evenodd" d="M46.2698 90.1699H14.6997C13.2597 90.1699 11.8697 89.5998 10.8497 88.5798C9.82973 87.5598 9.25977 86.1799 9.25977 84.7299C9.26977 66.4499 9.30981 8.35986 9.30981 8.35986C9.30981 8.35986 9.30981 7.84985 9.30981 7.09985C9.30981 5.64985 9.86977 4.25986 10.8898 3.22986C11.9098 2.19986 13.2998 1.62988 14.7498 1.62988H104.04C105.48 1.62988 106.87 2.19985 107.89 3.21985C108.91 4.23985 109.48 5.61982 109.48 7.06982V84.7299C109.48 87.7299 107.05 90.1699 104.04 90.1699H66.1198C66.1198 90.1699 65.7197 95.7599 65.3397 101.06C65.2297 102.65 64.1698 104.03 62.6598 104.55C61.1498 105.07 59.4698 104.65 58.3898 103.46C53.0598 97.6098 46.2698 90.1599 46.2698 90.1599V90.1699Z" fill="white"/>
<path id="Vector_2" fill-rule="evenodd" clip-rule="evenodd" d="M100.71 90.1704V92.8203C100.71 94.2603 100.14 95.6504 99.1198 96.6604C98.0998 97.6804 96.7198 98.2504 95.2698 98.2504H65.5398L66.1198 90.1604H100.71V90.1704ZM56.0098 100.86L55.4397 109.08C55.3297 110.69 54.2698 112.07 52.7398 112.59C51.2098 113.11 49.5297 112.66 48.4597 111.46L36.7498 98.2604H5.92983C2.92983 98.2604 0.489767 95.8303 0.489767 92.8203V14.5404C0.469767 13.0904 1.03984 11.7004 2.05984 10.6704C3.07984 9.64041 4.46982 9.07031 5.91982 9.07031H9.30984L9.25979 84.7303C9.25979 86.1703 9.82975 87.5603 10.8498 88.5803C11.8698 89.6003 13.2497 90.1704 14.6997 90.1704H46.2698L56.0098 100.86Z" fill="#2F3F64"/>
<path id="Vector_3" d="M61.0601 105.57C59.6601 105.57 58.2899 104.98 57.3199 103.89L45.91 91.0199H14.71C11.16 91.0199 8.27002 88.1298 8.27002 84.5798L8.25 7.06982C8.25 5.34982 8.92001 3.7299 10.14 2.5199C11.35 1.2999 12.9699 0.629883 14.6899 0.629883H54.6C55.15 0.629883 55.6 1.07988 55.6 1.62988C55.6 2.17988 55.15 2.62988 54.6 2.62988H14.6899C13.4999 2.62988 12.39 3.08993 11.55 3.92993C10.71 4.76993 10.25 5.87982 10.25 7.06982L10.27 84.5798C10.27 87.0298 12.26 89.0199 14.71 89.0199H46.36C46.65 89.0199 46.92 89.1399 47.11 89.3599L58.8199 102.56C59.6199 103.46 60.89 103.8 62.03 103.41C63.18 103.02 63.97 101.99 64.05 100.78L64.8 89.9598C64.84 89.4398 65.2701 89.0299 65.8 89.0299H104.03C105.22 89.0299 106.33 88.5699 107.17 87.7299C108 86.8999 108.47 85.7598 108.47 84.5898L108.38 7.07983C108.38 4.63983 106.38 2.6499 103.94 2.6499H98.8199C98.2699 2.6499 97.8199 2.1999 97.8199 1.6499C97.8199 1.0999 98.2699 0.649902 98.8199 0.649902H103.94C107.48 0.649902 110.37 3.52983 110.38 7.07983L110.47 84.5898C110.47 86.2898 109.79 87.9499 108.59 89.1499C107.38 90.3699 105.76 91.0399 104.03 91.0399H66.73L66.05 100.93C65.91 102.95 64.59 104.67 62.67 105.32C62.14 105.5 61.59 105.59 61.05 105.59L61.0601 105.57Z" fill="#2F3F64"/>
<path id="Vector_4" d="M88.6494 43.3495C88.0994 43.3495 87.6494 42.8995 87.6494 42.3495C87.6494 26.7495 74.9594 14.0596 59.3594 14.0596C43.7594 14.0596 31.0693 26.7495 31.0693 42.3495C31.0693 42.8995 30.6193 43.3495 30.0693 43.3495C29.5193 43.3495 29.0693 42.8995 29.0693 42.3495C29.0693 25.6495 42.6594 12.0596 59.3594 12.0596C76.0594 12.0596 89.6494 25.6495 89.6494 42.3495C89.6494 42.8995 89.1994 43.3495 88.6494 43.3495Z" fill="#2F3F64"/>
<path id="Vector_5" d="M79.5396 73.9696H66.5195C65.9695 73.9696 65.5195 73.5196 65.5195 72.9696C65.5195 72.4196 65.9695 71.9696 66.5195 71.9696H79.5396C81.7096 71.9696 83.7395 71.1296 85.2795 69.5896C86.8195 68.0496 87.6595 66.0196 87.6595 63.8496C87.6595 63.2996 88.1095 62.8496 88.6595 62.8496C89.2095 62.8496 89.6595 63.2996 89.6595 63.8496C89.6595 66.5496 88.6095 69.0896 86.6995 70.9996C84.7895 72.9096 82.2496 73.9596 79.5496 73.9596L79.5396 73.9696Z" fill="#2F3F64"/>
<path id="Vector_6" d="M54.1101 69.7197H66.4801C67.5601 69.7197 68.4302 70.5998 68.4302 71.6698V74.2698C68.4302 75.3498 67.5501 76.2197 66.4801 76.2197H54.1101C53.0301 76.2197 52.1602 75.3398 52.1602 74.2698V71.6698C52.1602 70.5898 53.0301 69.7197 54.1101 69.7197Z" fill="#BCC5DC"/>
<path id="Vector_7" d="M66.4801 77.2197H54.1101C52.4801 77.2197 51.1602 75.8898 51.1602 74.2698V71.6698C51.1602 70.0398 52.4901 68.7197 54.1101 68.7197H66.4801C68.1101 68.7197 69.4302 70.0498 69.4302 71.6698V74.2698C69.4302 75.8998 68.1101 77.2197 66.4801 77.2197ZM54.1101 70.7197C53.5801 70.7197 53.1602 71.1498 53.1602 71.6698V74.2698C53.1602 74.7998 53.5901 75.2197 54.1101 75.2197H66.4801C67.0101 75.2197 67.4302 74.7898 67.4302 74.2698V71.6698C67.4302 71.1398 67.0001 70.7197 66.4801 70.7197H54.1101Z" fill="#2F3F64"/>
<path id="Vector_8" fill-rule="evenodd" clip-rule="evenodd" d="M35.9395 64.7898C35.6195 64.8198 35.2895 64.8297 34.9495 64.8297C28.6595 64.8297 23.5596 59.7297 23.5596 53.4397C23.5596 47.1497 28.6595 42.0498 34.9495 42.0498C35.2795 42.0498 35.6095 42.0597 35.9395 42.0897V64.7898Z" fill="#BCC5DC"/>
<path id="Vector_9" d="M34.9495 65.8297C28.1195 65.8297 22.5596 60.2697 22.5596 53.4397C22.5596 46.6097 28.1195 41.0498 34.9495 41.0498C35.3095 41.0498 35.6695 41.0697 36.0195 41.0997C36.5395 41.1397 36.9395 41.5797 36.9395 42.0997V64.7998C36.9395 65.3198 36.5395 65.7498 36.0295 65.7998C35.6795 65.8298 35.3195 65.8497 34.9595 65.8497L34.9495 65.8297ZM34.9395 43.0498C29.2195 43.0498 24.5596 47.7197 24.5596 53.4397C24.5596 59.1597 29.2095 63.8197 34.9395 63.8297V43.0498Z" fill="#2F3F64"/>
<path id="Vector_10" fill-rule="evenodd" clip-rule="evenodd" d="M82.7793 64.7898C83.0993 64.8198 83.4293 64.8297 83.7693 64.8297C90.0593 64.8297 95.1593 59.7297 95.1593 53.4397C95.1593 47.1497 90.0593 42.0498 83.7693 42.0498C83.4393 42.0498 83.1093 42.0597 82.7793 42.0897V64.7898Z" fill="#BCC5DC"/>
<path id="Vector_11" d="M83.77 65.8302C83.41 65.8302 83.05 65.8103 82.7 65.7803C82.18 65.7403 81.79 65.3003 81.79 64.7803V42.0802C81.79 41.5602 82.19 41.1302 82.71 41.0802C83.06 41.0502 83.42 41.0303 83.78 41.0303C90.61 41.0303 96.17 46.5903 96.17 53.4203C96.17 60.2503 90.61 65.8103 83.78 65.8103L83.77 65.8302ZM83.78 43.0503V63.8302C89.5 63.8302 94.16 59.1602 94.16 53.4402C94.16 47.7202 89.51 43.0603 83.78 43.0503Z" fill="#2F3F64"/>
<path id="Vector_12" fill-rule="evenodd" clip-rule="evenodd" d="M102.03 77.5303C115.47 77.5303 126.38 88.4402 126.38 101.88C126.38 115.32 115.47 126.23 102.03 126.23C88.5897 126.23 77.6797 115.32 77.6797 101.88C77.6797 88.4402 88.5897 77.5303 102.03 77.5303Z" fill="#FEC95C"/>
<path id="Vector_13" d="M102.03 127.219C88.0497 127.219 76.6797 115.85 76.6797 101.87C76.6797 87.8895 88.0497 76.5195 102.03 76.5195C116.01 76.5195 127.38 87.8895 127.38 101.87C127.38 115.85 116.01 127.219 102.03 127.219ZM102.03 78.5295C89.1597 78.5295 78.6797 88.9995 78.6797 101.88C78.6797 114.76 89.1497 125.229 102.03 125.229C114.91 125.229 125.38 114.76 125.38 101.88C125.38 88.9995 114.91 78.5295 102.03 78.5295Z" fill="#2F3F64"/>
<path id="Vector_14" d="M98.0494 114.87C98.0494 114.07 98.2794 113.42 98.7494 112.92C99.2194 112.42 99.8294 112.17 100.599 112.17C101.369 112.17 101.979 112.42 102.449 112.92C102.919 113.42 103.149 114.07 103.149 114.87C103.149 115.67 102.919 116.27 102.449 116.77C101.979 117.27 101.369 117.52 100.599 117.52C99.8294 117.52 99.1694 117.27 98.7194 116.77C98.2694 116.27 98.0394 115.64 98.0394 114.87H98.0494ZM102.449 107.22C102.449 107.82 102.289 108.3 101.969 108.64C101.649 108.99 101.199 109.17 100.589 109.17C100.059 109.17 99.6293 108.99 99.3193 108.64C98.9993 108.29 98.8394 107.81 98.8394 107.22V103.67C98.8394 102.97 98.9593 102.44 99.1893 102.09C99.4193 101.74 99.8594 101.51 100.489 101.42L101.539 101.22C102.339 101.09 103.119 100.86 103.869 100.55C104.619 100.23 105.289 99.8199 105.869 99.3199C106.449 98.8199 106.909 98.22 107.249 97.52C107.579 96.82 107.749 95.99 107.749 95.02C107.749 94.05 107.599 93.2699 107.299 92.5699C106.999 91.8699 106.579 91.2899 106.049 90.8199C105.519 90.3499 104.909 89.99 104.229 89.74C103.549 89.49 102.799 89.36 101.999 89.36C101.129 89.36 100.379 89.48 99.7294 89.71C99.0794 89.94 98.5194 90.26 98.0494 90.66C97.5794 91.06 97.1794 91.52 96.8494 92.04C96.5194 92.56 96.2294 93.1 95.9994 93.66C95.8294 94.06 95.6194 94.38 95.3794 94.63C95.1394 94.88 94.7594 95.01 94.2594 95.01C93.7894 95.01 93.3994 94.8601 93.0894 94.5601C92.7694 94.2601 92.6094 93.86 92.6094 93.36C92.6094 93.16 92.6394 92.8901 92.7094 92.5601C92.9094 91.7601 93.2494 90.98 93.7294 90.21C94.2094 89.44 94.8494 88.76 95.6294 88.16C96.4094 87.56 97.3294 87.08 98.3794 86.73C99.4294 86.38 100.639 86.21 101.999 86.21C103.269 86.21 104.469 86.39 105.599 86.76C106.729 87.13 107.729 87.6801 108.599 88.4301C109.469 89.1801 110.159 90.1 110.669 91.21C111.189 92.31 111.449 93.58 111.449 95.01C111.449 96.44 111.179 97.81 110.649 98.91C110.119 100.01 109.419 100.92 108.579 101.63C107.729 102.35 106.759 102.91 105.679 103.33C104.599 103.75 103.519 104.02 102.459 104.16V107.21L102.449 107.22Z" fill="#2F3F64"/>
</g>
</svg>
