<svg viewBox="0 0 127 126" fill="none" xmlns="http://www.w3.org/2000/svg">
<g id="request-service">
<rect id="Rectangle 1" x="10" y="16" width="96" height="97" fill="white"/>
<path id="Vector" fill-rule="evenodd" clip-rule="evenodd" d="M9.40039 19.1794L9.46033 6.27939C9.47033 3.55939 11.6904 1.35938 14.4004 1.35938H102.95C105.66 1.35938 107.86 3.55939 107.85 6.27939L107.79 19.1794H9.40039Z" fill="#BCC5DC"/>
<path id="Vector_2" fill-rule="evenodd" clip-rule="evenodd" d="M98.8603 112.58L98.8402 116.22C98.8302 118.94 96.6103 121.14 93.9003 121.14H5.35025C2.63025 121.14 0.440229 118.94 0.450229 116.22L0.890293 14.8399C0.900293 12.1299 3.12023 9.91992 5.83023 9.91992H9.43033L9.01029 107.66C9.00029 110.37 11.1903 112.58 13.9103 112.58H98.8603Z" fill="#2F3F64"/>
<path id="Vector_3" d="M102.46 113.58H13.9098C12.3298 113.58 10.8397 112.96 9.72974 111.84C8.61974 110.72 8.00977 109.23 8.00977 107.65L8.44971 6.26959C8.45971 3.00959 11.1298 0.349609 14.3898 0.349609H102.94C104.52 0.349609 106.01 0.9696 107.12 2.0896C108.23 3.2096 108.84 4.6996 108.84 6.2796L108.4 107.66C108.39 110.92 105.72 113.58 102.46 113.58ZM14.3998 2.35959C12.2398 2.35959 10.4697 4.1196 10.4597 6.2796L10.0198 107.66C10.0198 108.71 10.4198 109.69 11.1498 110.43C11.8898 111.17 12.8698 111.58 13.9098 111.58H102.46C104.62 111.58 106.39 109.82 106.4 107.66L106.84 6.2796C106.84 5.2296 106.44 4.24961 105.7 3.50961C104.96 2.76961 103.98 2.35959 102.94 2.35959H14.3898H14.3998Z" fill="#2F3F64"/>
<path id="Vector_4" fill-rule="evenodd" clip-rule="evenodd" d="M78.8705 63.8493L72.4306 70.2393C71.9806 70.6793 71.2705 70.6793 70.8205 70.2393L35.1806 34.5993C34.7406 34.1593 34.7406 33.4393 35.1806 32.9993L41.6205 26.6093C42.0605 26.1693 42.7805 26.1693 43.2305 26.6093L78.8705 62.2493C79.3105 62.6893 79.3105 63.4093 78.8705 63.8493Z" fill="#FEC95C"/>
<path id="Vector_5" d="M71.6206 71.5601C71.0706 71.5601 70.5306 71.3501 70.1106 70.9401L34.4706 35.3001C34.0706 34.9001 33.8506 34.3601 33.8506 33.7901C33.8506 33.2201 34.0806 32.6901 34.4806 32.2801L40.9307 25.8901C41.7607 25.0601 43.1206 25.0601 43.9506 25.8901L79.5906 61.5301C79.9906 61.9301 80.2106 62.4701 80.2106 63.0401C80.2106 63.6101 79.9906 64.1501 79.5806 64.5501L73.1406 70.9401C72.7206 71.3501 72.1806 71.5601 71.6306 71.5601H71.6206ZM42.4207 27.2701C42.4207 27.2701 42.3506 27.2801 42.3206 27.3101L35.8706 33.7001V33.8801L71.5106 69.5201C71.5606 69.5701 71.6506 69.5701 71.7106 69.5201L78.1506 63.1301C78.1506 63.1301 78.1906 63.0601 78.1906 63.0401L42.5106 27.3101C42.5106 27.3101 42.4506 27.2701 42.4106 27.2701H42.4207Z" fill="#2F3F64"/>
<path id="Vector_6" d="M43.0698 35.4693C42.8098 35.4693 42.5599 35.3693 42.3599 35.1793C41.9699 34.7893 41.9699 34.1593 42.3599 33.7693L46.3699 29.7593C46.7599 29.3693 47.3899 29.3693 47.7799 29.7593C48.1699 30.1493 48.1699 30.7793 47.7799 31.1693L43.7699 35.1793C43.5699 35.3793 43.32 35.4693 43.06 35.4693H43.0698Z" fill="#2F3F64"/>
<path id="Vector_7" d="M47.6803 40.0796C47.4203 40.0796 47.1702 39.9797 46.9702 39.7897C46.5802 39.3997 46.5802 38.7697 46.9702 38.3797L50.9802 34.3696C51.3702 33.9796 52.0003 33.9796 52.3903 34.3696C52.7803 34.7596 52.7803 35.3897 52.3903 35.7797L48.3803 39.7897C48.1803 39.9897 47.9303 40.0796 47.6703 40.0796H47.6803Z" fill="#2F3F64"/>
<path id="Vector_8" d="M52.3004 44.69C52.0404 44.69 51.7904 44.59 51.5904 44.4C51.2004 44.01 51.2004 43.38 51.5904 42.99L55.6004 38.98C55.9904 38.59 56.6204 38.59 57.0104 38.98C57.4004 39.37 57.4004 40 57.0104 40.39L53.0004 44.4C52.8004 44.6 52.5504 44.69 52.2904 44.69H52.3004Z" fill="#2F3F64"/>
<path id="Vector_9" d="M56.9108 49.2994C56.6508 49.2994 56.4007 49.1994 56.2007 49.0094C55.8107 48.6194 55.8107 47.9894 56.2007 47.5994L60.2107 43.5894C60.6007 43.1994 61.2307 43.1994 61.6207 43.5894C62.0107 43.9794 62.0107 44.6094 61.6207 44.9994L57.6107 49.0094C57.4107 49.2094 57.1608 49.2994 56.9008 49.2994H56.9108Z" fill="#2F3F64"/>
<path id="Vector_10" d="M61.52 53.9195C61.26 53.9195 61.0101 53.8195 60.8101 53.6295C60.4201 53.2395 60.4201 52.6095 60.8101 52.2195L64.82 48.2095C65.21 47.8195 65.84 47.8195 66.23 48.2095C66.62 48.5995 66.62 49.2295 66.23 49.6195L62.22 53.6295C62.02 53.8295 61.77 53.9195 61.51 53.9195H61.52Z" fill="#2F3F64"/>
<path id="Vector_11" d="M66.1402 58.5298C65.8802 58.5298 65.6302 58.4298 65.4302 58.2398C65.0402 57.8498 65.0402 57.2198 65.4302 56.8298L69.4401 52.8198C69.8301 52.4298 70.4601 52.4298 70.8501 52.8198C71.2401 53.2098 71.2401 53.8398 70.8501 54.2298L66.8401 58.2398C66.6401 58.4398 66.3901 58.5298 66.1301 58.5298H66.1402Z" fill="#2F3F64"/>
<path id="Vector_12" d="M70.7505 63.1392C70.4905 63.1392 70.2405 63.0392 70.0405 62.8492C69.6505 62.4592 69.6505 61.8292 70.0405 61.4392L74.0506 57.4292C74.4406 57.0392 75.0705 57.0392 75.4605 57.4292C75.8505 57.8192 75.8505 58.4492 75.4605 58.8392L71.4505 62.8492C71.2505 63.0492 71.0005 63.1392 70.7405 63.1392H70.7505Z" fill="#2F3F64"/>
<path id="Vector_13" d="M107.401 19.4697H50.0605C49.5105 19.4697 49.0605 19.0197 49.0605 18.4697C49.0605 17.9197 49.5105 17.4697 50.0605 17.4697H107.401C107.951 17.4697 108.401 17.9197 108.401 18.4697C108.401 19.0197 107.951 19.4697 107.401 19.4697Z" fill="#2F3F64"/>
<path id="Vector_14" d="M31.4806 78.3594H84.8206C87.6506 78.3594 89.9506 80.6594 89.9506 83.4894V98.8894C89.9506 101.719 87.6506 104.019 84.8206 104.019H31.4806C28.6506 104.019 26.3506 101.719 26.3506 98.8894V83.4894C26.3506 80.6594 28.6506 78.3594 31.4806 78.3594Z" fill="#FEC95C"/>
<path id="Vector_15" d="M84.8206 105.019H31.4806C28.1006 105.019 25.3506 102.269 25.3506 98.8894V83.4894C25.3506 80.1094 28.1006 77.3594 31.4806 77.3594H84.8206C88.2006 77.3594 90.9506 80.1094 90.9506 83.4894V98.8894C90.9506 102.269 88.2006 105.019 84.8206 105.019ZM31.4806 79.3594C29.2006 79.3594 27.3506 81.2094 27.3506 83.4894V98.8894C27.3506 101.169 29.2006 103.019 31.4806 103.019H84.8206C87.1006 103.019 88.9506 101.169 88.9506 98.8894V83.4894C88.9506 81.2094 87.1006 79.3594 84.8206 79.3594H31.4806Z" fill="#2F3F64"/>
<path id="Vector_16" fill-rule="evenodd" clip-rule="evenodd" d="M82.7298 85.3399C82.4098 85.2599 82.0799 85.3799 81.8799 85.6399C81.6799 85.8999 81.6399 86.2499 81.7999 86.5399C85.1999 93.0699 97.8298 117.32 101.44 124.25C101.6 124.55 101.93 124.73 102.27 124.7C102.61 124.66 102.9 124.43 102.99 124.1C103.86 121.06 105.52 115.21 106.73 111C107.63 107.85 109.79 105.22 112.7 103.72C116.74 101.65 122.46 98.7199 125.45 97.1799C125.76 97.0199 125.94 96.6799 125.9 96.3399C125.86 95.9899 125.61 95.7099 125.27 95.6299C117.31 93.7099 90.0199 87.1099 82.7499 85.3499L82.7298 85.3399Z" fill="white"/>
<path id="Vector_17" d="M102.171 125.7C101.491 125.7 100.871 125.33 100.551 124.71L80.9107 86.9998C80.5807 86.3598 80.6507 85.5798 81.1007 85.0198C81.5407 84.4598 82.2707 84.1998 82.9807 84.3698L125.501 94.6498C126.241 94.8298 126.801 95.4598 126.891 96.2198C126.981 96.9798 126.581 97.7198 125.901 98.0698L113.151 104.61C110.491 105.97 108.501 108.4 107.681 111.27L103.941 124.37C103.741 125.09 103.121 125.62 102.361 125.69C102.301 125.69 102.231 125.69 102.171 125.69V125.7ZM82.8507 86.3998L102.131 123.42L105.751 110.71C106.721 107.31 109.081 104.43 112.231 102.82L124.581 96.4798L82.8406 86.3898L82.8507 86.3998Z" fill="#2F3F64"/>
<path id="Vector_18" d="M26.3505 62.2394C26.0905 62.2394 25.8405 62.1394 25.6405 61.9494L17.5405 53.8494C17.1505 53.4594 17.1505 52.8294 17.5405 52.4394L25.6405 44.3394C26.0305 43.9494 26.6606 43.9494 27.0506 44.3394C27.4406 44.7294 27.4406 45.3594 27.0506 45.7494L19.6605 53.1394L27.0506 60.5294C27.4406 60.9194 27.4406 61.5494 27.0506 61.9394C26.8506 62.1394 26.6005 62.2294 26.3405 62.2294L26.3505 62.2394Z" fill="#2F3F64"/>
<path id="Vector_19" d="M89.2505 62.2391C88.9905 62.2391 88.7405 62.1391 88.5405 61.9491C88.1505 61.5591 88.1505 60.9291 88.5405 60.5391L95.9306 53.1491L88.5405 45.7591C88.1505 45.3691 88.1505 44.7391 88.5405 44.3491C88.9305 43.9591 89.5605 43.9591 89.9505 44.3491L98.0506 52.4491C98.4406 52.8391 98.4406 53.4691 98.0506 53.8591L89.9505 61.9591C89.7505 62.1591 89.5005 62.2491 89.2405 62.2491L89.2505 62.2391Z" fill="#2F3F64"/>
<path id="Vector_20" d="M57.7103 99.0096C57.0303 99.0096 56.4703 98.4596 56.4703 97.7696V93.1896H51.8503C51.1703 93.1896 50.6104 92.6396 50.6104 91.9496V90.4096C50.6104 89.7296 51.1603 89.1696 51.8503 89.1696H56.4703V84.5896C56.4703 83.9096 57.0203 83.3496 57.7103 83.3496H59.1404C59.8204 83.3496 60.3804 83.8996 60.3804 84.5896V89.1696H65.0204C65.7004 89.1696 66.2604 89.7196 66.2604 90.4096V91.9496C66.2604 92.6296 65.7104 93.1896 65.0204 93.1896H60.3804V97.7696C60.3804 98.4496 59.8304 99.0096 59.1404 99.0096H57.7103Z" fill="#2F3F64"/>
<path id="Vector_21" d="M21.1899 12.4796C23.0677 12.4796 24.59 10.9484 24.59 9.05963C24.59 7.17082 23.0677 5.63965 21.1899 5.63965C19.3122 5.63965 17.79 7.17082 17.79 9.05963C17.79 10.9484 19.3122 12.4796 21.1899 12.4796Z" fill="#2F3F64"/>
<path id="Vector_22" fill-rule="evenodd" clip-rule="evenodd" d="M34.1899 5.63965C36.0699 5.63965 37.59 7.16963 37.59 9.05963C37.59 10.9496 36.0699 12.4796 34.1899 12.4796C32.3099 12.4796 30.79 10.9496 30.79 9.05963C30.79 7.16963 32.3199 5.63965 34.1899 5.63965Z" fill="#2F3F64"/>
<path id="Vector_23" fill-rule="evenodd" clip-rule="evenodd" d="M47.7604 5.63965C49.6404 5.63965 51.1604 7.16963 51.1604 9.05963C51.1604 10.9496 49.6404 12.4796 47.7604 12.4796C45.8804 12.4796 44.3604 10.9496 44.3604 9.05963C44.3604 7.16963 45.8804 5.63965 47.7604 5.63965Z" fill="#2F3F64"/>
<path id="Vector_24" fill-rule="evenodd" clip-rule="evenodd" d="M79.3498 35.27L42.9398 70.93C42.6098 71.26 42.0598 71.26 41.7298 70.93L36.8998 66.16C36.5698 65.83 36.5698 65.3 36.8998 64.97L73.3099 29.31C73.6399 28.98 74.1898 28.98 74.5198 29.31L79.3498 34.08C79.6798 34.41 79.6798 34.94 79.3498 35.27Z" fill="white"/>
<path id="Vector_25" d="M42.3403 72.1696C41.8603 72.1696 41.3904 71.9896 41.0304 71.6296L36.2003 66.8595C35.8503 66.5095 35.6504 66.0495 35.6504 65.5495C35.6504 65.0495 35.8503 64.5895 36.2003 64.2395L72.6104 28.5795C73.3304 27.8695 74.5003 27.8795 75.2203 28.5795L80.0504 33.3496C80.4004 33.6996 80.6003 34.1596 80.6003 34.6596C80.6003 35.1596 80.4004 35.6196 80.0504 35.9696L43.6504 71.6296C43.2904 71.9796 42.8203 72.1596 42.3503 72.1596L42.3403 72.1696ZM37.7303 65.5595L42.3403 70.1195L78.5304 34.6696L73.9204 30.1095L37.7303 65.5595Z" fill="#2F3F64"/>
<path id="Vector_26" d="M43.8503 65.0693C43.5903 65.0693 43.3303 64.9693 43.1403 64.7693C42.7503 64.3793 42.7603 63.7393 43.1403 63.3593L76.0504 30.8493C76.4404 30.4593 77.0803 30.4693 77.4603 30.8493C77.8503 31.2393 77.8403 31.8793 77.4603 32.2593L44.5504 64.7693C44.3504 64.9593 44.1003 65.0593 43.8503 65.0593V65.0693Z" fill="#2F3F64"/>
<path id="Vector_27" d="M79.6 35.9501C79.47 35.9501 79.34 35.9201 79.21 35.8701C78.7 35.6601 78.4601 35.0701 78.6801 34.5601L81.7801 27.1801L74.08 30.0001C73.56 30.1901 72.9901 29.9201 72.8001 29.4001C72.6101 28.8801 72.8801 28.3101 73.4001 28.1201L83.2501 24.5201C83.6301 24.3901 84.04 24.4801 84.32 24.7701C84.59 25.0601 84.6701 25.4801 84.5201 25.8501L80.5301 35.3401C80.3701 35.7201 80.0001 35.9501 79.6101 35.9501H79.6Z" fill="#2F3F64"/>
<path id="Vector_28" d="M46.7899 68.1994C46.5399 68.1994 46.2798 68.0994 46.0898 67.9094L40.2299 62.1194C39.8399 61.7294 39.8299 61.0993 40.2299 60.7093C40.6199 60.3193 41.2499 60.3093 41.6399 60.7093L47.4999 66.4994C47.8899 66.8894 47.8999 67.5194 47.4999 67.9094C47.2999 68.1094 47.0499 68.2093 46.7899 68.2093V68.1994Z" fill="#2F3F64"/>
</g>
</svg>
