<svg viewBox="0 0 129 48" fill="none" xmlns="http://www.w3.org/2000/svg">
<g id="reset-password-2">
<path id="Vector" d="M120.56 1.70996H8.18991C4.58901 1.70996 1.66992 4.62908 1.66992 8.22998V39.71C1.66992 43.3109 4.58901 46.23 8.18991 46.23H120.56C124.161 46.23 127.08 43.3109 127.08 39.71V8.22998C127.08 4.62908 124.161 1.70996 120.56 1.70996Z" fill="white"/>
<path id="Vector_2" d="M118.4 47.2297H10.3499C5.00991 47.2297 0.669922 42.8897 0.669922 37.5497V16.4297C0.669922 15.8797 1.11992 15.4297 1.66992 15.4297C2.21992 15.4297 2.66992 15.8797 2.66992 16.4297V37.5497C2.66992 41.7897 6.11991 45.2297 10.3499 45.2297H118.4C122.64 45.2297 126.08 41.7797 126.08 37.5497V10.3997C126.08 6.15972 122.63 2.71973 118.4 2.71973H31.5099C30.9599 2.71973 30.5099 2.26973 30.5099 1.71973C30.5099 1.16973 30.9599 0.719727 31.5099 0.719727H118.4C123.74 0.719727 128.08 5.05972 128.08 10.3997V37.5497C128.08 42.8897 123.74 47.2297 118.4 47.2297Z" fill="#2F3F64"/>
<g id="Group">
<path id="Vector_3" d="M37.0595 15.4505L39.4995 19.9005L34.1295 21.7805L39.4995 23.6104L36.8795 28.2404L32.5195 24.4005L33.6095 30.0705H28.4995L29.5495 24.4005L25.2296 28.2805L22.5195 23.5705L27.8896 21.6905L22.5595 19.9405L25.0495 15.4405L29.5895 19.2404L28.4595 13.4805H33.6495L32.5195 19.2404L37.0595 15.4405V15.4505Z" fill="#FEC95C"/>
<path id="Vector_4" d="M60.3691 15.4505L62.8091 19.9005L57.4391 21.7805L62.8091 23.6104L60.1891 28.2404L55.8291 24.4005L56.9191 30.0705H51.8091L52.8591 24.4005L48.5391 28.2805L45.8291 23.5705L51.1991 21.6905L45.8691 19.9405L48.3591 15.4405L52.8991 19.2404L51.7691 13.4805H56.9591L55.8291 19.2404L60.3691 15.4405V15.4505Z" fill="#BCC5DC"/>
<path id="Vector_5" d="M83.6699 15.4505L86.1099 19.9005L80.7399 21.7805L86.1099 23.6104L83.4899 28.2404L79.1299 24.4005L80.2198 30.0705H75.1099L76.1599 24.4005L71.8399 28.2805L69.1299 23.5705L74.4999 21.6905L69.1699 19.9405L71.6599 15.4405L76.1999 19.2404L75.0699 13.4805H80.2599L79.1299 19.2404L83.6699 15.4405V15.4505Z" fill="#BCC5DC"/>
<path id="Vector_6" d="M106.979 15.4505L109.419 19.9005L104.049 21.7805L109.419 23.6104L106.799 28.2404L102.439 24.4005L103.529 30.0705H98.4194L99.4694 24.4005L95.1495 28.2805L92.4395 23.5705L97.8094 21.6905L92.4894 19.9405L94.9794 15.4405L99.5195 19.2404L98.3895 13.4805H103.579L102.449 19.2404L106.989 15.4405L106.979 15.4505Z" fill="#BCC5DC"/>
</g>
<path id="Vector_7" d="M110.06 35.9102H18.7002C18.1502 35.9102 17.7002 35.4602 17.7002 34.9102C17.7002 34.3602 18.1502 33.9102 18.7002 33.9102H110.06C110.61 33.9102 111.06 34.3602 111.06 34.9102C111.06 35.4602 110.61 35.9102 110.06 35.9102Z" fill="#2F3F64"/>
</g>
</svg>
