<svg viewBox="0 0 128 128" fill="none" xmlns="http://www.w3.org/2000/svg">
<g id="reset-password-1">
<path id="Vector" d="M82.5501 35.3096H8.38013C4.37054 35.3096 1.12012 38.56 1.12012 42.5696V103.93C1.12012 107.939 4.37054 111.19 8.38013 111.19H82.5501C86.5597 111.19 89.8101 107.939 89.8101 103.93V42.5696C89.8101 38.56 86.5597 35.3096 82.5501 35.3096Z" fill="#BCC5DC"/>
<path id="Vector_2" d="M79.8301 112.19H6.93011C3.17011 112.19 0.120117 109.13 0.120117 105.38V41.1303C0.120117 37.3703 3.18011 34.3203 6.93011 34.3203H69.9501C70.5001 34.3203 70.9501 34.7703 70.9501 35.3203C70.9501 35.8703 70.5001 36.3203 69.9501 36.3203H6.93011C4.28011 36.3203 2.12012 38.4803 2.12012 41.1303V105.38C2.12012 108.03 4.28011 110.19 6.93011 110.19H79.8301C84.7801 110.19 88.8101 106.16 88.8101 101.21V54.4703C88.8101 53.9203 89.2601 53.4703 89.8101 53.4703C90.3601 53.4703 90.8101 53.9203 90.8101 54.4703V101.21C90.8101 107.26 85.8801 112.19 79.8301 112.19Z" fill="#2F3F64"/>
<path id="Vector_3" d="M120.02 93.4199H38.9204C35.3195 93.4199 32.4004 96.339 32.4004 99.9399V120.31C32.4004 123.911 35.3195 126.83 38.9204 126.83H120.02C123.621 126.83 126.54 123.911 126.54 120.31V99.9399C126.54 96.339 123.621 93.4199 120.02 93.4199Z" fill="white"/>
<path id="Vector_4" d="M120.02 127.83H38.9097C34.7697 127.83 31.3896 124.46 31.3896 120.31V104.46C31.3896 103.91 31.8396 103.46 32.3896 103.46C32.9396 103.46 33.3896 103.91 33.3896 104.46V120.31C33.3896 123.35 35.8597 125.83 38.9097 125.83H120.02C123.06 125.83 125.54 123.36 125.54 120.31V99.9301C125.54 96.8901 123.07 94.4102 120.02 94.4102H54.7996C54.2496 94.4102 53.7996 93.9602 53.7996 93.4102C53.7996 92.8602 54.2496 92.4102 54.7996 92.4102H120.02C124.16 92.4102 127.54 95.7801 127.54 99.9301V120.31C127.54 124.45 124.17 127.83 120.02 127.83Z" fill="#2F3F64"/>
<path id="Vector_5" d="M63.8296 36.3102C63.2796 36.3102 62.8296 35.8601 62.8296 35.3102V22.1501C62.8296 11.2701 53.9796 2.41016 43.0896 2.41016C32.1996 2.41016 23.3496 11.2701 23.3496 22.1501V35.3102C23.3496 35.8601 22.8996 36.3102 22.3496 36.3102C21.7996 36.3102 21.3496 35.8601 21.3496 35.3102V22.1501C21.3496 10.1601 31.0996 0.410156 43.0896 0.410156C55.0796 0.410156 64.8296 10.1601 64.8296 22.1501V35.3102C64.8296 35.8601 64.3796 36.3102 63.8296 36.3102Z" fill="#2F3F64"/>
<path id="Vector_6" d="M54.8 63.8102C54.8 58.3002 50.03 53.9102 44.4 54.5302C40.18 55.0002 36.75 58.3802 36.21 62.5802C35.63 67.1702 38.38 71.1902 42.37 72.6002V81.6302C42.37 83.0102 43.49 84.1302 44.87 84.1302H46.07C47.45 84.1302 48.57 83.0102 48.57 81.6302V72.6002C52.2 71.3202 54.81 67.8702 54.81 63.8002L54.8 63.8102Z" fill="#2F3F64"/>
<g id="Group">
<path id="Vector_7" d="M58.7996 105.94L60.6296 109.28L56.5996 110.69L60.6296 112.07L58.6596 115.54L55.3796 112.66L56.1996 116.92H52.3696L53.1596 112.66L49.9196 115.58L47.8896 112.04L51.9196 110.63L47.9196 109.32L49.7896 105.95L53.1996 108.8L52.3496 104.48H56.2496L55.3996 108.8L58.8096 105.95L58.7996 105.94Z" fill="#FEC95C"/>
<path id="Vector_8" d="M76.2996 105.94L78.1296 109.28L74.0996 110.69L78.1296 112.07L76.1596 115.54L72.8796 112.66L73.6996 116.92H69.8696L70.6596 112.66L67.4196 115.58L65.3896 112.04L69.4196 110.63L65.4196 109.32L67.2896 105.95L70.6996 108.8L69.8496 104.48H73.7496L72.8996 108.8L76.3096 105.95L76.2996 105.94Z" fill="#FEC95C"/>
<path id="Vector_9" d="M93.7899 105.94L95.6199 109.28L91.5899 110.69L95.6199 112.07L93.6499 115.54L90.3699 112.66L91.1899 116.92H87.3599L88.1499 112.66L84.9099 115.58L82.8799 112.04L86.9099 110.63L82.9099 109.32L84.7799 105.95L88.1899 108.8L87.3399 104.48H91.2399L90.3899 108.8L93.7999 105.95L93.7899 105.94Z" fill="#FEC95C"/>
<path id="Vector_10" d="M111.29 105.94L113.12 109.28L109.09 110.69L113.12 112.07L111.15 115.54L107.87 112.66L108.69 116.92H104.86L105.65 112.66L102.41 115.58L100.38 112.04L104.41 110.63L100.41 109.32L102.28 105.95L105.69 108.8L104.84 104.48H108.74L107.89 108.8L111.3 105.95L111.29 105.94Z" fill="#FEC95C"/>
</g>
</g>
</svg>
