<svg viewBox="0 0 128 80" fill="none" xmlns="http://www.w3.org/2000/svg">
<g id="reset-password-3">
<path id="Vector" d="M98.9603 1.70996H7.76025C4.15936 1.70996 1.24023 4.62908 1.24023 8.22998V39.71C1.24023 43.3109 4.15936 46.23 7.76025 46.23H98.9603C102.561 46.23 105.48 43.3109 105.48 39.71V8.22998C105.48 4.62908 102.561 1.70996 98.9603 1.70996Z" fill="white"/>
<path id="Vector_2" d="M94.1497 35.9102H14.9297C14.3797 35.9102 13.9297 35.4602 13.9297 34.9102C13.9297 34.3602 14.3797 33.9102 14.9297 33.9102H94.1497C94.6997 33.9102 95.1497 34.3602 95.1497 34.9102C95.1497 35.4602 94.6997 35.9102 94.1497 35.9102Z" fill="#2F3F64"/>
<path id="Vector_3" d="M98.2603 47.2297H8.45026C3.92026 47.2297 0.240234 42.8897 0.240234 37.5497V16.4297C0.240234 15.8797 0.690234 15.4297 1.24023 15.4297C1.79023 15.4297 2.24023 15.8797 2.24023 16.4297V37.5497C2.24023 41.7897 5.03026 45.2297 8.45026 45.2297H98.2603C101.69 45.2297 104.47 41.7797 104.47 37.5497V10.3997C104.47 6.15972 101.68 2.71973 98.2603 2.71973H26.0502C25.5002 2.71973 25.0502 2.26973 25.0502 1.71973C25.0502 1.16973 25.5002 0.719727 26.0502 0.719727H98.2603C102.79 0.719727 106.47 5.05972 106.47 10.3997V37.5497C106.47 42.8897 102.78 47.2297 98.2603 47.2297Z" fill="#2F3F64"/>
<g id="Group">
<path id="Vector_4" d="M28.6803 15.3298L30.8903 19.3498L26.0403 21.0498L30.8903 22.7098L28.5203 26.8898L24.5803 23.4198L25.5703 28.5498H20.9603L21.9103 23.4198L18.0103 26.9298L15.5703 22.6698L20.4203 20.9698L15.6103 19.3898L17.8603 15.3298L21.9603 18.7598L20.9303 13.5498H25.6203L24.5903 18.7598L28.6903 15.3298H28.6803Z" fill="#BCC5DC"/>
<path id="Vector_5" d="M49.7301 15.3298L51.9401 19.3498L47.0901 21.0498L51.9401 22.7098L49.5701 26.8898L45.6301 23.4198L46.6201 28.5498H42.0101L42.9601 23.4198L39.0601 26.9298L36.6201 22.6698L41.4701 20.9698L36.6601 19.3898L38.9101 15.3298L43.0101 18.7598L41.9801 13.5498H46.6701L45.6401 18.7598L49.7401 15.3298H49.7301Z" fill="#BCC5DC"/>
<path id="Vector_6" d="M70.7906 15.3298L73.0007 19.3498L68.1507 21.0498L73.0007 22.7098L70.6307 26.8898L66.6907 23.4198L67.6807 28.5498H63.0707L64.0207 23.4198L60.1207 26.9298L57.6807 22.6698L62.5307 20.9698L57.7206 19.3898L59.9706 15.3298L64.0707 18.7598L63.0406 13.5498H67.7307L66.7007 18.7598L70.8007 15.3298H70.7906Z" fill="#BCC5DC"/>
<path id="Vector_7" d="M91.8505 15.3298L94.0605 19.3498L89.2105 21.0498L94.0605 22.7098L91.6905 26.8898L87.7505 23.4198L88.7405 28.5498H84.1305L85.0805 23.4198L81.1805 26.9298L78.7305 22.6698L83.5805 20.9698L78.7705 19.3898L81.0205 15.3298L85.1205 18.7598L84.1005 13.5498H88.7905L87.7605 18.7598L91.8605 15.3298H91.8505Z" fill="#BCC5DC"/>
</g>
<g id="Group_2">
<path id="Vector_8" d="M106.17 78.8301C117.481 78.8301 126.65 69.6609 126.65 58.3501C126.65 47.0393 117.481 37.8701 106.17 37.8701C94.8596 37.8701 85.6904 47.0393 85.6904 58.3501C85.6904 69.6609 94.8596 78.8301 106.17 78.8301Z" fill="#FEC95C"/>
<path id="Vector_9" d="M106.17 79.8301C94.3304 79.8301 84.6904 70.1901 84.6904 58.3501C84.6904 46.5101 94.3304 36.8701 106.17 36.8701C118.01 36.8701 127.65 46.5101 127.65 58.3501C127.65 70.1901 118.01 79.8301 106.17 79.8301ZM106.17 38.8701C95.4304 38.8701 86.6904 47.6101 86.6904 58.3501C86.6904 69.0901 95.4304 77.8301 106.17 77.8301C116.91 77.8301 125.65 69.0901 125.65 58.3501C125.65 47.6101 116.91 38.8701 106.17 38.8701Z" fill="#2F3F64"/>
</g>
<path id="Vector_10" d="M106.17 71.1503C105.62 71.1503 105.17 70.7003 105.17 70.1503C105.17 69.6003 105.62 69.1503 106.17 69.1503C112.13 69.1503 116.98 64.3003 116.98 58.3403C116.98 52.3803 112.13 47.5303 106.17 47.5303C100.21 47.5303 95.3604 52.3803 95.3604 58.3403C95.3604 58.8903 94.9104 59.3403 94.3604 59.3403C93.8104 59.3403 93.3604 58.8903 93.3604 58.3403C93.3604 51.2803 99.1003 45.5303 106.17 45.5303C113.24 45.5303 118.98 51.2803 118.98 58.3403C118.98 65.4003 113.24 71.1503 106.17 71.1503Z" fill="#2F3F64"/>
<path id="Vector_11" d="M94.2396 60.2703C94.2396 60.2703 94.1796 60.2703 94.1596 60.2703C93.8896 60.2503 93.6296 60.1103 93.4596 59.9003L90.2796 55.9103C89.9396 55.4803 90.0096 54.8503 90.4396 54.5003C90.8696 54.1603 91.4996 54.2303 91.8496 54.6603L94.3696 57.8203L97.5796 54.9403C97.9896 54.5703 98.6196 54.6103 98.9896 55.0203C99.3596 55.4303 99.3196 56.0603 98.9096 56.4303L94.9096 60.0203C94.7296 60.1903 94.4896 60.2803 94.2396 60.2803V60.2703Z" fill="#2F3F64"/>
</g>
</svg>
