<svg viewBox="0 0 129 127" fill="none" xmlns="http://www.w3.org/2000/svg">
<g id="reservation">
<path id="Vector" fill-rule="evenodd" clip-rule="evenodd" d="M101.57 4.49973L101.31 63.6097C101.31 65.4197 99.8201 66.8897 98.0101 66.8897H11.94C10.13 66.8897 8.65997 65.4197 8.66997 63.6097L8.92998 4.49973C8.92998 2.68973 10.42 1.21973 12.23 1.21973H98.3001C100.11 1.21973 101.58 2.68973 101.57 4.49973Z" fill="#2F3F64"/>
<path id="Vector_2" d="M98.0102 67.8997H11.9401C10.8001 67.8997 9.72008 67.4497 8.91008 66.6397C8.10008 65.8297 7.66009 64.7497 7.67009 63.6097L7.9301 4.49973C7.9301 2.13973 9.87015 0.219727 12.2301 0.219727H98.3002C99.4502 0.219727 100.52 0.669736 101.33 1.47974C102.14 2.28974 102.58 3.36974 102.57 4.50974L102.31 63.6197C102.31 65.9797 100.37 67.8997 98.0102 67.8997ZM12.2201 2.21973C10.9601 2.21973 9.93009 3.24974 9.92009 4.50974L9.66008 63.6197C9.66008 64.2297 9.89024 64.7997 10.3202 65.2297C10.7502 65.6597 11.3201 65.8997 11.9301 65.8997H98.0002C99.2602 65.8997 100.29 64.8697 100.3 63.6097L100.56 4.49973C100.56 3.88973 100.33 3.31974 99.9001 2.88974C99.4701 2.45974 98.9002 2.21973 98.2902 2.21973H12.2201Z" fill="#2F3F64"/>
<path id="Vector_3" fill-rule="evenodd" clip-rule="evenodd" d="M55.23 1.83008C56.03 1.83008 56.6699 2.48008 56.6699 3.27008C56.6699 4.06008 56.02 4.71008 55.23 4.71008C54.44 4.71008 53.79 4.07008 53.79 3.27008C53.79 2.47008 54.44 1.83008 55.23 1.83008Z" fill="white"/>
<path id="Vector_4" fill-rule="evenodd" clip-rule="evenodd" d="M96.8896 8.61008L96.6897 54.1401C96.6897 55.5401 95.5497 56.6701 94.1497 56.6701H15.8599C14.4599 56.6701 13.3398 55.5401 13.3398 54.1401L13.5398 8.61008C13.5398 7.21008 14.6798 6.08008 16.0798 6.08008H94.3699C95.7699 6.08008 96.8896 7.21008 96.8896 8.61008Z" fill="white"/>
<path id="Vector_5" fill-rule="evenodd" clip-rule="evenodd" d="M66.1893 60.3594H105.419C107.189 60.3594 108.619 62.2694 108.609 64.6294V66.1094C108.589 68.4594 107.149 70.3694 105.389 70.3694H5.04937C3.27937 70.3694 1.84943 68.4594 1.85943 66.0994V64.6194C1.87943 62.2694 3.3194 60.3594 5.0794 60.3594H39.9793C40.5293 60.3594 41.0593 60.5794 41.4593 60.9694C41.8493 61.3594 42.0694 61.8894 42.0694 62.4494C42.0694 63.0294 42.0694 63.4994 42.0694 63.4994C42.0694 64.5294 42.6893 65.3594 43.4693 65.3594H64.7994C65.5694 65.3594 66.1993 64.5294 66.1993 63.4994V60.3594H66.1893Z" fill="white"/>
<path id="Vector_6" d="M105.38 71.3696H5.03968C4.07968 71.3696 3.14955 70.9596 2.40955 70.2196C1.40955 69.2196 0.839739 67.7096 0.849739 66.0896V64.6096C0.869739 61.7096 2.75971 59.3596 5.06971 59.3596H39.9696C40.7996 59.3596 41.5695 59.6796 42.1495 60.2596C42.7195 60.8396 43.0497 61.6296 43.0497 62.4396V63.4896C43.0497 63.8696 43.1897 64.1496 43.3097 64.2696C43.3597 64.3196 43.4096 64.3496 43.4396 64.3496H64.7697C64.8697 64.3496 65.1696 64.0496 65.1696 63.4896V60.3496C65.1696 59.7996 65.6196 59.3496 66.1696 59.3496H105.39C106.35 59.3496 107.28 59.7596 108.02 60.4996C109.02 61.4996 109.59 63.0096 109.58 64.6296V66.1096C109.56 69.0096 107.67 71.3596 105.36 71.3596L105.38 71.3696ZM5.06971 61.3596C3.87971 61.3596 2.85974 62.8496 2.84974 64.6196V66.0996C2.83974 67.1796 3.19971 68.1896 3.81971 68.8096C4.06971 69.0596 4.48967 69.3696 5.02967 69.3696H105.37C106.56 69.3696 107.58 67.8796 107.58 66.1096V64.6296C107.59 63.5496 107.23 62.5396 106.61 61.9196C106.36 61.6696 105.94 61.3596 105.4 61.3596H67.1696V63.4996C67.1696 65.1096 66.1097 66.3596 64.7697 66.3596H43.4396C42.8696 66.3596 42.3195 66.1196 41.8895 65.6896C41.3495 65.1496 41.0397 64.3496 41.0397 63.4896V62.4396C41.0397 62.1496 40.9196 61.8696 40.7196 61.6696C40.5196 61.4696 40.2396 61.3496 39.9496 61.3496H5.04969L5.06971 61.3596Z" fill="#2F3F64"/>
<path id="Vector_7" fill-rule="evenodd" clip-rule="evenodd" d="M127.79 115.27V119.89C127.79 123.05 125.97 125.61 123.73 125.61H46.8599C44.6199 125.61 42.7998 123.05 42.7998 119.89V115.27H127.8H127.79Z" fill="#2F3F64"/>
<path id="Vector_8" d="M123.72 126.619H46.8501C44.0601 126.619 41.79 123.599 41.79 119.899V115.279C41.79 114.729 42.24 114.279 42.79 114.279H127.79C128.34 114.279 128.79 114.729 128.79 115.279V119.899C128.79 123.609 126.52 126.619 123.73 126.619H123.72ZM43.79 116.269V119.889C43.79 122.449 45.1901 124.609 46.8501 124.609H123.72C125.38 124.609 126.78 122.449 126.78 119.889V116.269H43.78H43.79Z" fill="#2F3F64"/>
<path id="Vector_9" d="M46.7393 39.75H123.829C126.009 39.75 127.789 41.52 127.789 43.71V114.94C127.789 117.12 126.019 118.9 123.829 118.9H46.7393C44.5593 118.9 42.7793 117.13 42.7793 114.94V43.71C42.7793 41.53 44.5493 39.75 46.7393 39.75Z" fill="#FEC95C"/>
<path id="Vector_10" d="M123.72 119.9H46.8501C44.0601 119.9 41.79 117.68 41.79 114.94V43.71C41.79 40.98 44.0601 38.75 46.8501 38.75H108.97C109.52 38.75 109.97 39.2 109.97 39.75C109.97 40.3 109.52 40.75 108.97 40.75H46.8501C45.1601 40.75 43.79 42.08 43.79 43.71V114.94C43.79 116.57 45.1701 117.9 46.8501 117.9H123.72C125.41 117.9 126.78 116.57 126.78 114.94V43.71C126.78 42.08 125.41 40.75 123.72 40.75C123.17 40.75 122.72 40.3 122.72 39.75C122.72 39.2 123.17 38.75 123.72 38.75C126.51 38.75 128.78 40.97 128.78 43.71V114.94C128.78 117.67 126.51 119.9 123.72 119.9Z" fill="#2F3F64"/>
<path id="Vector_11" fill-rule="evenodd" clip-rule="evenodd" d="M127.79 55.5801V114.94C127.79 117.12 125.97 118.9 123.73 118.9H46.8599C44.6199 118.9 42.7998 117.13 42.7998 114.94V55.5801H127.8H127.79Z" fill="white"/>
<path id="Vector_12" d="M123.72 119.9H46.8501C44.0601 119.9 41.79 117.68 41.79 114.94V55.5801C41.79 55.0301 42.24 54.5801 42.79 54.5801H127.79C128.34 54.5801 128.79 55.0301 128.79 55.5801V114.94C128.79 117.67 126.52 119.9 123.73 119.9H123.72ZM43.79 56.5801V114.94C43.79 116.57 45.1701 117.9 46.8501 117.9H123.72C125.41 117.9 126.78 116.57 126.78 114.94V56.5801H43.78H43.79Z" fill="#2F3F64"/>
<path id="Vector_13" d="M60.8994 47.1596C60.3494 47.1596 59.8994 46.7096 59.8994 46.1596V33.3496C59.8994 32.7996 60.3494 32.3496 60.8994 32.3496C61.4494 32.3496 61.8994 32.7996 61.8994 33.3496V46.1596C61.8994 46.7096 61.4494 47.1596 60.8994 47.1596Z" fill="#2F3F64"/>
<path id="Vector_14" d="M77.1602 47.1596C76.6102 47.1596 76.1602 46.7096 76.1602 46.1596V33.3496C76.1602 32.7996 76.6102 32.3496 77.1602 32.3496C77.7102 32.3496 78.1602 32.7996 78.1602 33.3496V46.1596C78.1602 46.7096 77.7102 47.1596 77.1602 47.1596Z" fill="#2F3F64"/>
<path id="Vector_15" d="M93.4199 47.1596C92.8699 47.1596 92.4199 46.7096 92.4199 46.1596V33.3496C92.4199 32.7996 92.8699 32.3496 93.4199 32.3496C93.9699 32.3496 94.4199 32.7996 94.4199 33.3496V46.1596C94.4199 46.7096 93.9699 47.1596 93.4199 47.1596Z" fill="#2F3F64"/>
<path id="Vector_16" d="M109.68 47.1596C109.13 47.1596 108.68 46.7096 108.68 46.1596V33.3496C108.68 32.7996 109.13 32.3496 109.68 32.3496C110.23 32.3496 110.68 32.7996 110.68 33.3496V46.1596C110.68 46.7096 110.23 47.1596 109.68 47.1596Z" fill="#2F3F64"/>
<path id="Vector_17" d="M58.5703 69.0801H63.8503C66.2403 69.0801 68.1802 71.0201 68.1802 73.4101V78.3201C68.1802 80.7101 66.2403 82.6501 63.8503 82.6501H58.5703C56.1803 82.6501 54.2402 80.7101 54.2402 78.3201V73.4101C54.2402 71.0201 56.1803 69.0801 58.5703 69.0801Z" fill="#BCC5DC"/>
<path id="Vector_18" d="M63.8503 83.6501H58.5703C55.6303 83.6501 53.2402 81.2601 53.2402 78.3201V73.4101C53.2402 70.4701 55.6303 68.0801 58.5703 68.0801H63.8503C66.7903 68.0801 69.1802 70.4701 69.1802 73.4101V78.3201C69.1802 81.2601 66.7903 83.6501 63.8503 83.6501ZM58.5703 70.0801C56.7403 70.0801 55.2402 71.5701 55.2402 73.4101V78.3201C55.2402 80.1501 56.7303 81.6501 58.5703 81.6501H63.8503C65.6803 81.6501 67.1802 80.1601 67.1802 78.3201V73.4101C67.1802 71.5801 65.6903 70.0801 63.8503 70.0801H58.5703Z" fill="#2F3F64"/>
<path id="Vector_19" d="M88.3999 83.6501H83.1201C80.1801 83.6501 77.79 81.2601 77.79 78.3201V73.4101C77.79 70.4701 80.1801 68.0801 83.1201 68.0801H88.3999C91.3399 68.0801 93.73 70.4701 93.73 73.4101V78.3201C93.73 81.2601 91.3399 83.6501 88.3999 83.6501ZM83.1201 70.0801C81.2901 70.0801 79.79 71.5701 79.79 73.4101V78.3201C79.79 80.1501 81.2801 81.6501 83.1201 81.6501H88.3999C90.2299 81.6501 91.73 80.1601 91.73 78.3201V73.4101C91.73 71.5801 90.2399 70.0801 88.3999 70.0801H83.1201Z" fill="#2F3F64"/>
<path id="Vector_20" d="M107.67 69.0801H112.95C115.34 69.0801 117.28 71.0201 117.28 73.4101V78.3201C117.28 80.7101 115.34 82.6501 112.95 82.6501H107.67C105.28 82.6501 103.34 80.7101 103.34 78.3201V73.4101C103.34 71.0201 105.28 69.0801 107.67 69.0801Z" fill="#BCC5DC"/>
<path id="Vector_21" d="M112.95 83.6501H107.67C104.73 83.6501 102.34 81.2601 102.34 78.3201V73.4101C102.34 70.4701 104.73 68.0801 107.67 68.0801H112.95C115.89 68.0801 118.28 70.4701 118.28 73.4101V78.3201C118.28 81.2601 115.89 83.6501 112.95 83.6501ZM107.67 70.0801C105.84 70.0801 104.34 71.5701 104.34 73.4101V78.3201C104.34 80.1501 105.83 81.6501 107.67 81.6501H112.95C114.78 81.6501 116.28 80.1601 116.28 78.3201V73.4101C116.28 71.5801 114.79 70.0801 112.95 70.0801H107.67Z" fill="#2F3F64"/>
<path id="Vector_22" d="M63.8403 92.5195H58.5703C56.1789 92.5195 54.2402 94.4582 54.2402 96.8495V101.76C54.2402 104.151 56.1789 106.09 58.5703 106.09H63.8403C66.2317 106.09 68.1702 104.151 68.1702 101.76V96.8495C68.1702 94.4582 66.2317 92.5195 63.8403 92.5195Z" fill="#BCC5DC"/>
<path id="Vector_23" d="M63.8503 107.08H58.5703C55.6303 107.08 53.2402 104.69 53.2402 101.75V96.8398C53.2402 93.8998 55.6303 91.5098 58.5703 91.5098H63.8503C66.7903 91.5098 69.1802 93.8998 69.1802 96.8398V101.75C69.1802 104.69 66.7903 107.08 63.8503 107.08ZM58.5703 93.5197C56.7403 93.5197 55.2402 95.0098 55.2402 96.8498V101.76C55.2402 103.59 56.7303 105.09 58.5703 105.09H63.8503C65.6803 105.09 67.1802 103.6 67.1802 101.76V96.8498C67.1802 95.0198 65.6903 93.5197 63.8503 93.5197H58.5703Z" fill="#2F3F64"/>
<path id="Vector_24" d="M83.1201 92.5195H88.3999C90.7899 92.5195 92.73 94.4595 92.73 96.8495V101.76C92.73 104.15 90.7899 106.09 88.3999 106.09H83.1201C80.7301 106.09 78.79 104.15 78.79 101.76V96.8495C78.79 94.4595 80.7301 92.5195 83.1201 92.5195Z" fill="#BCC5DC"/>
<path id="Vector_25" d="M88.3999 107.08H83.1201C80.1801 107.08 77.79 104.69 77.79 101.75V96.8398C77.79 93.8998 80.1801 91.5098 83.1201 91.5098H88.3999C91.3399 91.5098 93.73 93.8998 93.73 96.8398V101.75C93.73 104.69 91.3399 107.08 88.3999 107.08ZM83.1201 93.5197C81.2901 93.5197 79.79 95.0098 79.79 96.8498V101.76C79.79 103.59 81.2801 105.09 83.1201 105.09H88.3999C90.2299 105.09 91.73 103.6 91.73 101.76V96.8498C91.73 95.0198 90.2399 93.5197 88.3999 93.5197H83.1201Z" fill="#2F3F64"/>
<path id="Vector_26" d="M107.67 92.5195H112.95C115.34 92.5195 117.28 94.4595 117.28 96.8495V101.76C117.28 104.15 115.34 106.09 112.95 106.09H107.67C105.28 106.09 103.34 104.15 103.34 101.76V96.8495C103.34 94.4595 105.28 92.5195 107.67 92.5195Z" fill="#BCC5DC"/>
<path id="Vector_27" d="M112.95 107.08H107.67C104.73 107.08 102.34 104.69 102.34 101.75V96.8398C102.34 93.8998 104.73 91.5098 107.67 91.5098H112.95C115.89 91.5098 118.28 93.8998 118.28 96.8398V101.75C118.28 104.69 115.89 107.08 112.95 107.08ZM107.67 93.5197C105.84 93.5197 104.34 95.0098 104.34 96.8498V101.76C104.34 103.59 105.83 105.09 107.67 105.09H112.95C114.78 105.09 116.28 103.6 116.28 101.76V96.8498C116.28 95.0198 114.79 93.5197 112.95 93.5197H107.67Z" fill="#2F3F64"/>
<path id="Vector_28" d="M85.1397 79.2694C84.8897 79.2694 84.6398 79.1794 84.4398 78.9894L80.4197 75.0794C80.0197 74.6994 80.0197 74.0595 80.3997 73.6695C80.7897 73.2795 81.4199 73.2595 81.8099 73.6495L85.1297 76.8795L97.9798 64.3695C98.3698 63.9895 99.0097 63.9895 99.3897 64.3895C99.7697 64.7895 99.7699 65.4194 99.3699 65.7994L85.8199 78.9894C85.6299 79.1794 85.3699 79.2694 85.1199 79.2694H85.1397Z" fill="#2F3F64"/>
</g>
</svg>
