<svg viewBox="0 0 108 127" fill="none" xmlns="http://www.w3.org/2000/svg">
<g id="rss-feeds">
<path id="Vector" fill-rule="evenodd" clip-rule="evenodd" d="M96.8599 1.38989C102.26 1.38989 106.64 5.76988 106.64 11.1599V102.38H17.2998V1.37988H96.8699L96.8599 1.38989Z" fill="white"/>
<path id="Vector_2" fill-rule="evenodd" clip-rule="evenodd" d="M17.2898 102.38H13.3499C10.2699 102.38 7.31966 103.6 5.14966 105.78C3.40966 107.52 2.27966 109.75 1.89966 112.15C1.79966 111.45 1.75977 110.74 1.75977 110.02V16.7696C1.75977 8.26962 8.64966 1.38965 17.1497 1.38965H17.2998V102.39L17.2898 102.38Z" fill="#2F3F64"/>
<path id="Vector_3" d="M1.89966 113.15H1.88965C1.38965 113.15 0.979668 112.78 0.909668 112.28C0.809668 111.53 0.759766 110.77 0.759766 110.01V16.7599C0.759766 7.72989 8.10966 0.379883 17.1497 0.379883H17.2998C17.8498 0.379883 18.2998 0.829883 18.2998 1.37988V102.38C18.2998 102.93 17.8498 103.38 17.2998 103.38H13.3599C10.5299 103.38 7.86986 104.48 5.85986 106.48C4.26986 108.07 3.23965 110.08 2.88965 112.31C2.80965 112.8 2.38966 113.15 1.89966 113.15ZM16.2898 2.40988C8.74979 2.84988 2.74976 9.11987 2.74976 16.7699V107.17C3.22976 106.42 3.7997 105.72 4.4397 105.08C6.8197 102.7 9.97985 101.39 13.3499 101.39H16.2898V2.41989V2.40988Z" fill="#2F3F64"/>
<path id="Vector_4" fill-rule="evenodd" clip-rule="evenodd" d="M106.64 102.38V125.58H13.3599C6.94986 125.58 1.75977 120.39 1.75977 113.98C1.75977 107.57 6.94986 102.38 13.3599 102.38H106.64Z" fill="#BCC5DC"/>
<path id="Vector_5" d="M106.64 126.59H13.3599C6.40986 126.59 0.759766 120.94 0.759766 113.99C0.759766 107.04 6.40986 101.39 13.3599 101.39H106.64C107.19 101.39 107.64 101.84 107.64 102.39V125.59C107.64 126.14 107.19 126.59 106.64 126.59ZM13.3499 103.38C7.50985 103.38 2.74976 108.13 2.74976 113.98C2.74976 119.83 7.49985 124.58 13.3499 124.58H105.63V103.38H13.3499Z" fill="#2F3F64"/>
<path id="Vector_6" fill-rule="evenodd" clip-rule="evenodd" d="M38.8098 75.4697C34.8098 75.4697 31.5598 78.7197 31.5598 82.7197C31.5598 86.7197 34.8098 89.9697 38.8098 89.9697C42.8098 89.9697 46.0598 86.7197 46.0598 82.7197C46.0598 78.7197 42.8098 75.4697 38.8098 75.4697ZM32.9197 34.5597L30.2197 34.8597L30.8298 40.2597L33.5298 39.9597C33.5298 39.9597 56.8398 37.2897 70.8198 53.8497C76.8798 61.0297 81.1099 71.8097 81.1099 87.8497V90.5697H86.5498V87.8497C86.5498 70.1197 81.6697 58.2797 74.9797 50.3397C59.1997 31.6397 32.9297 34.5497 32.9297 34.5497L32.9197 34.5597ZM32.9197 58.0497L30.2197 58.3497L30.8298 63.7497L33.5298 63.4497C33.5298 63.4497 45.3297 62.0697 52.3997 70.4497C55.4997 74.1197 57.6099 79.6497 57.6099 87.8497V90.5697H63.0498V87.8497C63.0498 77.9597 60.2898 71.3697 56.5498 66.9397C47.6798 56.4297 32.9197 58.0397 32.9197 58.0397V58.0497ZM32.9197 46.4297L30.2197 46.7297L30.8298 52.1297L33.5298 51.8297C33.5298 51.8297 51.0198 49.8097 61.5098 62.2397C66.0698 67.6497 69.2297 75.7697 69.2297 87.8497V90.5697H74.6697V87.8497C74.6697 74.0797 70.8597 64.8897 65.6697 58.7297C53.3897 44.1697 32.9297 46.4197 32.9297 46.4197L32.9197 46.4297Z" fill="#FEC95C"/>
<path id="Vector_7" d="M86.5394 91.5798H81.0995C80.5495 91.5798 80.0995 91.1298 80.0995 90.5798V87.8598C80.0995 73.6298 76.7194 62.4098 70.0494 54.4998C56.5894 38.5498 33.8693 40.9298 33.6393 40.9598L30.9393 41.2698C30.6693 41.2998 30.4093 41.2198 30.1993 41.0598C29.9893 40.8898 29.8595 40.6498 29.8295 40.3898L29.2194 34.9898C29.1894 34.7298 29.2693 34.4598 29.4293 34.2498C29.5993 34.0398 29.8395 33.9098 30.0995 33.8798L32.7994 33.5798C33.0694 33.5498 59.7894 30.8298 75.7294 49.7198C83.5594 59.0098 87.5394 71.8398 87.5394 87.8698V90.5898C87.5394 91.1398 87.0894 91.5898 86.5394 91.5898V91.5798ZM82.0995 89.5798H85.5394V87.8598C85.5394 72.3198 81.7293 59.9098 74.2093 50.9998C58.9993 32.9598 33.3594 35.5198 33.0294 35.5598L31.3194 35.7498L31.6993 39.1698L33.4093 38.9798C33.6493 38.9598 57.4195 36.4398 71.5695 53.2198C78.5494 61.4998 82.0895 73.1598 82.0895 87.8698V89.5898L82.0995 89.5798ZM74.6693 91.5798H69.2294C68.6794 91.5798 68.2294 91.1298 68.2294 90.5798V87.8598C68.2294 77.1898 65.7094 68.7898 60.7394 62.8998C50.7394 51.0398 33.8093 52.8198 33.6393 52.8398L30.9393 53.1398C30.3993 53.1998 29.8995 52.8098 29.8295 52.2598L29.2194 46.8598C29.1894 46.5998 29.2693 46.3298 29.4293 46.1198C29.5993 45.9098 29.8395 45.7798 30.0995 45.7498L32.7994 45.4498C33.6494 45.3598 53.9293 43.3098 66.4193 58.1098C72.5493 65.3798 75.6593 75.3898 75.6593 87.8698V90.5898C75.6593 91.1398 75.2093 91.5898 74.6593 91.5898L74.6693 91.5798ZM70.2294 89.5798H73.6693V87.8598C73.6693 75.8698 70.7193 66.2898 64.8993 59.3898C53.1193 45.4298 33.2494 47.4098 33.0294 47.4298L31.3194 47.6198L31.6993 51.0398L33.4093 50.8498C34.1393 50.7698 51.5594 48.9198 62.2594 61.6098C67.5394 67.8698 70.2194 76.6998 70.2194 87.8598V89.5798H70.2294ZM63.0494 91.5798H57.6095C57.0595 91.5798 56.6095 91.1298 56.6095 90.5798V87.8598C56.6095 80.6598 54.9393 75.0198 51.6293 71.0998C44.9993 63.2398 33.7493 64.4298 33.6393 64.4498L30.9293 64.7498C30.3893 64.8098 29.8894 64.4198 29.8194 63.8698L29.2093 58.4698C29.1793 58.2098 29.2593 57.9398 29.4193 57.7298C29.5893 57.5198 29.8295 57.3898 30.0895 57.3598L32.7894 57.0598C33.4094 56.9898 48.1894 55.5098 57.2994 66.3098C61.7694 71.5998 64.0294 78.8498 64.0294 87.8598V90.5798C64.0294 91.1298 63.5794 91.5798 63.0294 91.5798H63.0494ZM58.6095 89.5798H62.0494V87.8598C62.0494 79.3398 59.9394 72.5198 55.7894 67.5998C47.3894 57.6398 33.1994 59.0298 33.0294 59.0498L31.3295 59.2398L31.7093 62.6598L33.4193 62.4698C33.9193 62.4098 45.8293 61.1298 53.1593 69.8198C56.7793 74.1098 58.6095 80.1798 58.6095 87.8598V89.5798ZM38.8094 90.9798C34.2594 90.9798 30.5594 87.2798 30.5594 82.7298C30.5594 78.1798 34.2594 74.4798 38.8094 74.4798C43.3594 74.4798 47.0594 78.1798 47.0594 82.7298C47.0594 87.2798 43.3594 90.9798 38.8094 90.9798ZM38.8094 76.4698C35.3594 76.4698 32.5594 79.2698 32.5594 82.7198C32.5594 86.1698 35.3594 88.9698 38.8094 88.9698C42.2594 88.9698 45.0594 86.1698 45.0594 82.7198C45.0594 79.2698 42.2594 76.4698 38.8094 76.4698Z" fill="#2F3F64"/>
<path id="Vector_8" d="M107.629 109.149H8.51953V111.149H107.629V109.149Z" fill="#2F3F64"/>
<path id="Vector_9" d="M107.639 116.85H39.5996V118.85H107.639V116.85Z" fill="#2F3F64"/>
<path id="Vector_10" d="M87.8796 41.2299H73.9197C73.3697 41.2299 72.9197 40.7799 72.9197 40.2299C72.9197 39.6799 73.3697 39.2299 73.9197 39.2299H87.8796C90.5396 39.2299 92.7097 37.0599 92.7097 34.3999V22.7499C92.7097 20.0899 90.5396 17.9199 87.8796 17.9199H39.0498C36.3898 17.9199 34.2197 20.0899 34.2197 22.7499V28.8899C34.2197 29.4399 33.7697 29.8899 33.2197 29.8899C32.6697 29.8899 32.2197 29.4399 32.2197 28.8899V22.7499C32.2197 18.9899 35.2798 15.9199 39.0498 15.9199H87.8796C91.6396 15.9199 94.7097 18.9799 94.7097 22.7499V34.3999C94.7097 38.1599 91.6496 41.2299 87.8796 41.2299Z" fill="#2F3F64"/>
<path id="Vector_11" d="M106.64 103.38H17.2998C16.7498 103.38 16.2998 102.93 16.2998 102.38V1.37988C16.2998 0.829883 16.7498 0.379883 17.2998 0.379883H58.1296C58.6796 0.379883 59.1296 0.829883 59.1296 1.37988C59.1296 1.92988 58.6796 2.37988 58.1296 2.37988H18.2998V101.38H105.64V9.09988C105.64 7.30988 104.94 5.61988 103.67 4.34988C102.4 3.07988 100.72 2.37988 98.9197 2.37988C98.3697 2.37988 97.9197 1.92988 97.9197 1.37988C97.9197 0.829883 98.3697 0.379883 98.9197 0.379883C101.25 0.379883 103.44 1.28987 105.08 2.92987C106.72 4.56987 107.63 6.75987 107.63 9.08987V102.37C107.63 102.92 107.18 103.37 106.63 103.37L106.64 103.38Z" fill="#2F3F64"/>
</g>
</svg>
