<svg width="131" height="137" viewBox="0 0 131 137" fill="none" xmlns="http://www.w3.org/2000/svg">
<path d="M21.1199 85.2504C20.8099 85.2504 20.4999 85.1104 20.3099 84.8304C14.5999 76.9104 11.5898 67.5504 11.5898 57.7604C11.5898 32.2004 32.3798 11.4004 57.9498 11.4004C83.5198 11.4004 104.31 32.2004 104.31 57.7604C104.31 63.6004 103.24 69.2904 101.12 74.6804C100.92 75.1904 100.34 75.4504 99.8199 75.2504C99.3099 75.0504 99.0499 74.4704 99.2499 73.9504C101.27 68.7904 102.3 63.3504 102.3 57.7604C102.3 33.3004 82.3998 13.4004 57.9398 13.4004C33.4798 13.4004 13.5798 33.3004 13.5798 57.7604C13.5798 67.1304 16.4599 76.0904 21.9199 83.6604C22.2399 84.1104 22.1398 84.7304 21.6898 85.0604C21.5098 85.1904 21.3099 85.2504 21.1099 85.2504H21.1199Z" fill="#2F3F64"/>
<path d="M11.7891 109.33C13.0891 91.8905 33.289 78.0005 57.989 78.0005C82.689 78.0005 102.889 91.8805 104.189 109.33C103.819 111.53 101.909 113.2 99.6289 113.2H16.359C14.069 113.2 12.1691 111.53 11.7991 109.33H11.7891ZM57.989 36.7305C69.259 36.7305 78.3889 45.9705 78.3889 57.3605C78.3889 68.7505 69.259 77.9905 57.989 77.9905C46.719 77.9905 37.589 68.7505 37.589 57.3605C37.589 45.9705 46.719 36.7305 57.989 36.7305Z" fill="#BCC5DC"/>
<path d="M99.6289 114.2H16.359C13.609 114.2 11.2791 112.22 10.8091 109.5C10.7991 109.42 10.7891 109.34 10.7991 109.26C12.1491 91.17 32.879 77 57.989 77C68.949 77 79.6191 79.77 88.0591 84.79C88.5291 85.07 88.6889 85.69 88.4089 86.16C88.1289 86.63 87.5091 86.79 87.0391 86.51C78.9091 81.67 68.599 79 57.999 79C33.989 79 14.1691 92.29 12.8091 109.28C13.1491 110.98 14.629 112.2 16.359 112.2H99.6289C101.399 112.2 102.909 110.92 103.209 109.16C103.299 108.62 103.819 108.26 104.359 108.34C104.899 108.43 105.269 108.95 105.179 109.49C104.719 112.22 102.379 114.19 99.6289 114.19V114.2Z" fill="#2F3F64"/>
<path d="M57.9889 78.9905C46.1889 78.9905 36.5889 69.2905 36.5889 57.3605C36.5889 45.4305 46.1889 35.7305 57.9889 35.7305C69.7889 35.7305 79.3888 45.4305 79.3888 57.3605C79.3888 69.2905 69.7889 78.9905 57.9889 78.9905ZM57.9889 37.7305C47.2889 37.7305 38.589 46.5405 38.589 57.3605C38.589 68.1805 47.2889 76.9905 57.9889 76.9905C68.6889 76.9905 77.3888 68.1805 77.3888 57.3605C77.3888 46.5405 68.6889 37.7305 57.9889 37.7305Z" fill="#2F3F64"/>
<path d="M16.2495 55.0897C24.2908 55.0897 30.8096 48.571 30.8096 40.5297C30.8096 32.4885 24.2908 25.9697 16.2495 25.9697C8.20825 25.9697 1.68945 32.4885 1.68945 40.5297C1.68945 48.571 8.20825 55.0897 16.2495 55.0897Z" fill="white"/>
<path d="M16.2495 56.08C7.66951 56.08 0.689453 49.1 0.689453 40.52C0.689453 31.94 7.66951 24.96 16.2495 24.96C24.8295 24.96 31.8096 31.94 31.8096 40.52C31.8096 49.1 24.8295 56.08 16.2495 56.08ZM16.2495 26.97C8.76951 26.97 2.68945 33.05 2.68945 40.53C2.68945 48.01 8.76951 54.09 16.2495 54.09C23.7295 54.09 29.8096 48.01 29.8096 40.53C29.8096 33.05 23.7295 26.97 16.2495 26.97Z" fill="#2F3F64"/>
<path d="M9.63914 40.5003C9.61914 40.6903 9.53914 40.8703 9.38914 40.9903C9.23914 41.1203 9.04911 41.1803 8.85911 41.1603C8.66911 41.1403 8.48912 41.0503 8.36912 40.9103C8.23912 40.7603 8.17908 40.5703 8.19908 40.3803L8.29918 39.1303C8.36918 38.2503 8.59911 37.3903 8.97911 36.5903C9.34911 35.8103 9.8591 35.1003 10.4691 34.4903C11.1491 33.8103 11.9591 33.2603 12.8391 32.8803C13.7391 32.4903 14.7191 32.2803 15.6991 32.2803H15.7892C17.8692 32.2803 19.8691 33.1103 21.3491 34.5803C22.8191 36.0503 23.6492 38.0503 23.6492 40.1303V42.4703C23.6492 43.2903 23.3191 44.0803 22.7391 44.6603C22.1591 45.2403 21.3692 45.5703 20.5492 45.5703C19.7292 45.5703 18.9391 45.2403 18.3591 44.6603C17.7791 44.0803 17.4491 43.2903 17.4491 42.4703V40.1003C17.4491 39.6603 17.2791 39.2503 16.9691 38.9403C16.6591 38.6303 16.2492 38.4603 15.8092 38.4603C15.3692 38.4603 14.9592 38.6303 14.6492 38.9403C14.3392 39.2503 14.1692 39.6603 14.1692 40.1003V42.6403C14.1692 44.2903 14.8291 45.8703 15.9891 47.0303C16.4391 47.4803 16.9591 47.8603 17.5191 48.1503C17.6891 48.2403 17.8191 48.3903 17.8791 48.5803C17.9391 48.7603 17.9191 48.9603 17.8291 49.1303C17.7391 49.3003 17.5892 49.4303 17.3992 49.4903C17.2192 49.5503 17.0191 49.5303 16.8491 49.4403C16.1591 49.0803 15.5191 48.6103 14.9691 48.0603C13.5291 46.6203 12.7291 44.6703 12.7291 42.6403V40.1003C12.7291 39.2803 13.0591 38.4903 13.6291 37.9103C14.1991 37.3303 14.9991 37.0003 15.8191 37.0003C16.6391 37.0003 17.4191 37.3303 17.9991 37.9103C18.5791 38.4903 18.8992 39.2703 18.9092 40.0903V42.4603C18.9092 42.9003 19.0791 43.3103 19.3891 43.6203C19.6991 43.9303 20.1092 44.1003 20.5492 44.1003C20.9892 44.1003 21.3991 43.9203 21.7091 43.6203C22.0191 43.3203 22.1891 42.9003 22.1891 42.4603V40.1203C22.1891 38.4203 21.5092 36.7903 20.3092 35.5903C19.1092 34.3903 17.4792 33.7103 15.7792 33.7103H15.6891C14.8991 33.7103 14.1192 33.8803 13.3992 34.1903C12.6792 34.5003 12.0291 34.9503 11.4791 35.5003C10.9891 35.9903 10.5791 36.5703 10.2691 37.2003C9.96915 37.8403 9.77911 38.5203 9.72911 39.2303L9.62913 40.4803L9.63914 40.5003Z" fill="#2F3F64"/>
<path d="M13.6195 47.8602C13.7395 48.0102 13.7895 48.2102 13.7595 48.4002C13.7295 48.5902 13.6295 48.7602 13.4795 48.8802C13.3295 49.0002 13.1295 49.0502 12.9395 49.0202C12.7495 49.0002 12.5795 48.8902 12.4595 48.7402C11.7895 47.8602 11.2696 46.8702 10.9096 45.8202C10.5396 44.7102 10.3595 43.5602 10.3695 42.3902L10.3896 40.0402C10.3996 38.6202 10.9695 37.2502 11.9795 36.2502C12.9895 35.2502 14.3596 34.6702 15.7896 34.6602C17.2396 34.6602 18.6396 35.2402 19.6696 36.2702C20.6996 37.3002 21.2796 38.7002 21.2796 40.1502V42.4902C21.2796 42.6802 21.1995 42.8702 21.0695 43.0002C20.9395 43.1302 20.7496 43.2102 20.5596 43.2102C20.3696 43.2102 20.1796 43.1302 20.0496 43.0002C19.9196 42.8702 19.8395 42.6802 19.8395 42.4902V40.1502C19.8395 39.0802 19.4096 38.0502 18.6596 37.3002C17.9096 36.5502 16.8796 36.1202 15.8096 36.1202C14.7596 36.1202 13.7596 36.5402 13.0196 37.2802C12.2796 38.0202 11.8595 39.0102 11.8595 40.0602L11.8395 42.4102C11.8395 43.4202 11.9896 44.4102 12.2996 45.3602C12.5996 46.2602 13.0495 47.1102 13.6295 47.8702L13.6195 47.8602Z" fill="#2F3F64"/>
<path d="M21.2789 46.4106C21.4689 46.3706 21.6589 46.4006 21.8289 46.5006C21.9889 46.6006 22.1089 46.7606 22.1489 46.9506C22.1889 47.1406 22.149 47.3406 22.059 47.5006C21.959 47.6606 21.7989 47.7806 21.6089 47.8206C21.2289 47.9106 20.8489 47.9506 20.4589 47.9506C19.0489 47.9506 17.6989 47.3806 16.7089 46.3806C15.6689 45.3406 15.0889 43.9206 15.0889 42.4506V40.1106C15.0889 39.9206 15.169 39.7306 15.299 39.6006C15.429 39.4706 15.619 39.3906 15.809 39.3906C15.999 39.3906 16.1888 39.4706 16.3188 39.6006C16.4488 39.7306 16.5289 39.9206 16.5289 40.1106V42.4506C16.5289 43.5406 16.9589 44.5806 17.7189 45.3506C18.4389 46.0706 19.4188 46.4806 20.4388 46.4906C20.7188 46.4906 20.9889 46.4606 21.2589 46.4006L21.2789 46.4106Z" fill="#2F3F64"/>
<path d="M99.6594 51.0497C107.701 51.0497 114.219 44.531 114.219 36.4897C114.219 28.4484 107.701 21.9297 99.6594 21.9297C91.6182 21.9297 85.0996 28.4484 85.0996 36.4897C85.0996 44.531 91.6182 51.0497 99.6594 51.0497Z" fill="white"/>
<path d="M99.6594 52.0399C91.0794 52.0399 84.0996 45.0599 84.0996 36.4799C84.0996 27.8999 91.0794 20.9199 99.6594 20.9199C108.239 20.9199 115.219 27.8999 115.219 36.4799C115.219 45.0599 108.239 52.0399 99.6594 52.0399ZM99.6594 22.9299C92.1794 22.9299 86.0996 29.0099 86.0996 36.4899C86.0996 43.9699 92.1794 50.0499 99.6594 50.0499C107.139 50.0499 113.219 43.9699 113.219 36.4899C113.219 29.0099 107.139 22.9299 99.6594 22.9299Z" fill="#2F3F64"/>
<path fill-rule="evenodd" clip-rule="evenodd" d="M99.6589 27.5498C94.2989 27.5498 89.959 28.8698 89.959 30.4898V36.3698C89.959 37.9898 94.2989 39.3098 99.6589 39.3098C105.019 39.3098 109.359 37.9898 109.359 36.3698V30.4898C109.359 28.8698 105.019 27.5498 99.6589 27.5498Z" fill="#BCC5DC"/>
<path d="M99.6589 40.3098C94.5089 40.3098 88.959 39.0798 88.959 36.3698V30.4898C88.959 27.7798 94.4989 26.5498 99.6589 26.5498C104.819 26.5498 110.359 27.7798 110.359 30.4898V36.3698C110.359 39.0798 104.819 40.3098 99.6589 40.3098ZM99.6589 28.5498C94.0289 28.5498 91.119 29.9698 90.959 30.5098V36.3698C91.119 36.8898 94.0289 38.3098 99.6589 38.3098C105.289 38.3098 108.199 36.8898 108.359 36.3498V30.4898C108.199 29.9698 105.289 28.5498 99.6589 28.5498Z" fill="#2F3F64"/>
<path fill-rule="evenodd" clip-rule="evenodd" d="M99.6589 33.4293C94.2989 33.4293 89.959 32.1093 89.959 30.4893V36.3693C89.959 37.9893 94.2989 39.3093 99.6589 39.3093C105.019 39.3093 109.359 37.9893 109.359 36.3693V30.4893C109.359 32.1093 105.019 33.4293 99.6589 33.4293Z" fill="#BCC5DC"/>
<path d="M99.6589 40.3095C94.5089 40.3095 88.959 39.0795 88.959 36.3695V30.4895C88.959 29.9395 89.409 29.4895 89.959 29.4895C90.509 29.4895 90.959 29.9395 90.959 30.4895C91.109 31.0095 94.0289 32.4295 99.6589 32.4295C105.289 32.4295 108.179 31.0195 108.359 30.4795C108.359 30.4395 108.359 30.4095 108.359 30.3695C108.409 29.8695 108.839 29.4795 109.349 29.4795C109.899 29.4795 110.349 29.9395 110.349 30.4895V36.3695C110.349 39.0795 104.809 40.3095 99.6489 40.3095H99.6589ZM90.959 32.9095V36.3695C91.109 36.8895 94.0189 38.3095 99.6589 38.3095C105.299 38.3095 108.199 36.8895 108.359 36.3495V32.9095C106.279 33.9395 102.899 34.4295 99.6589 34.4295C96.4189 34.4295 93.039 33.9395 90.959 32.9095Z" fill="#2F3F64"/>
<path fill-rule="evenodd" clip-rule="evenodd" d="M99.6589 39.3004C94.2989 39.3004 89.959 37.9804 89.959 36.3604V42.2404C89.959 43.8604 94.2989 45.1804 99.6589 45.1804C105.019 45.1804 109.359 43.8604 109.359 42.2404V36.3604C109.359 37.9804 105.019 39.3004 99.6589 39.3004Z" fill="#BCC5DC"/>
<path d="M99.6589 46.1903C94.5089 46.1903 88.959 44.9604 88.959 42.2504V36.3703C88.959 35.8203 89.409 35.3703 89.959 35.3703C90.509 35.3703 90.959 35.8203 90.959 36.3703C91.109 36.8903 94.0289 38.3104 99.6589 38.3104C105.289 38.3104 108.179 36.9004 108.359 36.3604C108.359 36.3204 108.359 36.2904 108.359 36.2504C108.409 35.7504 108.839 35.3604 109.349 35.3604C109.899 35.3604 110.349 35.8203 110.349 36.3703V42.2504C110.349 44.9604 104.809 46.1903 99.6489 46.1903H99.6589ZM90.959 38.7904V42.2504C91.109 42.7704 94.0189 44.1903 99.6589 44.1903C105.299 44.1903 108.199 42.7704 108.359 42.2304V38.7904C106.279 39.8204 102.899 40.3104 99.6589 40.3104C96.4189 40.3104 93.039 39.8204 90.959 38.7904Z" fill="#2F3F64"/>
<path d="M99.6589 33.4298C105.016 33.4298 109.359 32.1135 109.359 30.4898C109.359 28.8661 105.016 27.5498 99.6589 27.5498C94.3018 27.5498 89.959 28.8661 89.959 30.4898C89.959 32.1135 94.3018 33.4298 99.6589 33.4298Z" fill="white"/>
<path d="M99.6589 34.4298C94.5089 34.4298 88.959 33.1998 88.959 30.4898C88.959 27.7798 94.4989 26.5498 99.6589 26.5498C104.819 26.5498 110.359 27.7798 110.359 30.4898C110.359 33.1998 104.819 34.4298 99.6589 34.4298ZM99.6589 28.5498C94.0289 28.5498 91.119 29.9698 90.959 30.5098C91.119 31.0098 94.0289 32.4298 99.6589 32.4298C105.289 32.4298 108.199 31.0098 108.359 30.4698C108.199 29.9698 105.289 28.5498 99.6589 28.5498Z" fill="#2F3F64"/>
<path d="M92.6094 36.3603C93.1838 36.3603 93.6492 35.8947 93.6492 35.3203C93.6492 34.7459 93.1838 34.2803 92.6094 34.2803C92.035 34.2803 91.5693 34.7459 91.5693 35.3203C91.5693 35.8947 92.035 36.3603 92.6094 36.3603Z" fill="#2F3F64"/>
<path d="M92.6094 42.2197C93.1838 42.2197 93.6492 41.754 93.6492 41.1796C93.6492 40.6053 93.1838 40.1396 92.6094 40.1396C92.035 40.1396 91.5693 40.6053 91.5693 41.1796C91.5693 41.754 92.035 42.2197 92.6094 42.2197Z" fill="#2F3F64"/>
<path d="M56.6099 30.2802C64.6511 30.2802 71.1697 23.7614 71.1697 15.7202C71.1697 7.67889 64.6511 1.16016 56.6099 1.16016C48.5686 1.16016 42.0498 7.67889 42.0498 15.7202C42.0498 23.7614 48.5686 30.2802 56.6099 30.2802Z" fill="white"/>
<path d="M56.6099 31.2802C48.0299 31.2802 41.0498 24.3002 41.0498 15.7202C41.0498 7.14016 48.0299 0.160156 56.6099 0.160156C65.1899 0.160156 72.1697 7.14016 72.1697 15.7202C72.1697 24.3002 65.1899 31.2802 56.6099 31.2802ZM56.6099 2.17016C49.1299 2.17016 43.0498 8.25016 43.0498 15.7302C43.0498 23.2102 49.1299 29.2902 56.6099 29.2902C64.0899 29.2902 70.1697 23.2102 70.1697 15.7302C70.1697 8.25016 64.0899 2.17016 56.6099 2.17016Z" fill="#2F3F64"/>
<path fill-rule="evenodd" clip-rule="evenodd" d="M52.2097 23.2093C52.2097 23.2093 52.1298 23.2093 52.0898 23.2093C49.1998 23.2093 46.8398 20.8593 46.8398 17.9693C46.8398 16.2393 47.6697 14.7093 48.9597 13.7593C48.9097 13.4193 48.8796 13.0793 48.8796 12.7293C48.8796 9.0293 51.8798 6.0293 55.5798 6.0293C57.6698 6.0293 59.5298 6.9893 60.7598 8.4793C61.5798 9.4793 62.1198 10.7193 62.2498 12.0893C64.5398 12.1793 66.3599 14.0593 66.3599 16.3693C66.3599 16.5693 66.3498 16.7593 66.3198 16.9593C67.2098 17.5793 67.7998 18.6193 67.7998 19.7993C67.7998 21.6893 66.2897 23.2193 64.4297 23.2193C64.3797 23.2193 64.3198 23.2193 64.2698 23.2193H52.1897L52.2097 23.2093Z" fill="#BCC5DC"/>
<path d="M64.4497 24.2098H64.3499C64.3499 24.2098 64.3098 24.2098 64.2898 24.2098H52.0898C48.6498 24.2098 45.8398 21.4098 45.8398 17.9598C45.8398 16.1898 46.5997 14.4998 47.9097 13.3198C47.8897 13.1198 47.8896 12.9198 47.8896 12.7098C47.8896 8.45976 51.3398 5.00977 55.5898 5.00977C57.8998 5.00977 60.0698 6.03977 61.5398 7.82977C61.8898 8.25977 61.8297 8.88977 61.3997 9.23977C60.9697 9.58977 60.3397 9.52977 59.9897 9.09977C58.8997 7.76977 57.2898 7.00977 55.5798 7.00977C52.4398 7.00977 49.8796 9.56976 49.8796 12.7098C49.8796 12.9998 49.8997 13.2998 49.9497 13.5898C50.0097 13.9598 49.8598 14.3198 49.5598 14.5498C48.4698 15.3598 47.8398 16.5998 47.8398 17.9598C47.8398 20.2998 49.7398 22.2098 52.0898 22.2098C52.1098 22.2098 52.1997 22.2098 52.2097 22.2098H64.2097C64.2097 22.2098 64.2698 22.2098 64.2998 22.2098L64.4397 23.2098V22.2098C65.7397 22.2098 66.8098 21.1198 66.8098 19.7898C66.8098 18.9798 66.4198 18.2298 65.7598 17.7698C65.4498 17.5598 65.2898 17.1898 65.3398 16.8098C65.3598 16.6598 65.3699 16.5098 65.3699 16.3598C65.3699 14.5898 63.9897 13.1498 62.2197 13.0798C61.6697 13.0598 61.2398 12.5898 61.2598 12.0398C61.2798 11.4898 61.7598 11.0298 62.2998 11.0798C65.1498 11.1898 67.3699 13.5098 67.3699 16.3598C67.3699 16.3998 67.3699 16.4498 67.3699 16.4898C68.2899 17.3198 68.8198 18.5198 68.8198 19.7798C68.8198 22.2198 66.8597 24.1998 64.4497 24.1998V24.2098Z" fill="#2F3F64"/>
<path d="M58.7998 13.5601C59.5898 12.6501 60.7498 12.0801 62.0498 12.0801C64.4198 12.0801 66.3499 14.0101 66.3499 16.3801" fill="#BCC5DC"/>
<path d="M66.3497 17.3798C65.7997 17.3798 65.3497 16.9298 65.3497 16.3798C65.3497 14.5598 63.8696 13.0798 62.0496 13.0798C61.0896 13.0798 60.1896 13.4898 59.5596 14.2198C59.1996 14.6398 58.5595 14.6798 58.1495 14.3198C57.7295 13.9598 57.6896 13.3298 58.0496 12.9098C59.0596 11.7498 60.5196 11.0898 62.0496 11.0898C64.9696 11.0898 67.3497 13.4698 67.3497 16.3898C67.3497 16.9398 66.8997 17.3898 66.3497 17.3898V17.3798Z" fill="#2F3F64"/>
<path d="M49.8195 15.7399C49.1695 14.6999 48.8293 13.4499 48.9293 12.1299L49.8195 15.7399Z" fill="#BCC5DC"/>
<path d="M49.8197 16.7496C49.4897 16.7496 49.1596 16.5796 48.9696 16.2796C48.1796 15.0196 47.8195 13.5596 47.9295 12.0695C47.9695 11.5195 48.4596 11.0995 48.9996 11.1495C49.5496 11.1895 49.9595 11.6695 49.9195 12.2195C49.8395 13.2795 50.0995 14.3195 50.6595 15.2295C50.9495 15.6995 50.8097 16.3096 50.3397 16.6096C50.1797 16.7096 49.9897 16.7596 49.8097 16.7596L49.8197 16.7496Z" fill="#2F3F64"/>
<path d="M113.009 120.462C122.545 111.854 123.298 97.146 114.69 87.61C106.083 78.074 91.3748 77.3212 81.8388 85.9286C72.3028 94.536 71.5499 109.244 80.1574 118.78C88.7648 128.316 103.473 129.069 113.009 120.462Z" fill="#FEC95C"/>
<path d="M97.5293 127.58C91.0493 127.58 84.9594 125.06 80.3694 120.47C70.9094 111.01 70.9094 95.6198 80.3694 86.1598C84.9494 81.5798 91.0393 79.0498 97.5293 79.0498C104.019 79.0498 110.099 81.5698 114.689 86.1598C124.149 95.6198 124.149 111.01 114.689 120.47C110.109 125.05 104.009 127.58 97.5293 127.58ZM97.5293 81.0598C91.5793 81.0598 85.9893 83.3798 81.7893 87.5798C73.1093 96.2598 73.1093 110.38 81.7893 119.06C85.9993 123.27 91.5793 125.58 97.5293 125.58C103.479 125.58 109.069 123.26 113.269 119.06C121.949 110.38 121.949 96.2598 113.269 87.5798C109.059 83.3698 103.469 81.0598 97.5293 81.0598Z" fill="#2F3F64"/>
<path d="M97.5293 117.27C96.9793 117.27 96.5293 116.82 96.5293 116.27V90.3701C96.5293 89.8201 96.9793 89.3701 97.5293 89.3701C98.0793 89.3701 98.5293 89.8201 98.5293 90.3701V116.27C98.5293 116.82 98.0793 117.27 97.5293 117.27Z" fill="#2F3F64"/>
<path d="M110.48 104.32H84.5801C84.0301 104.32 83.5801 103.87 83.5801 103.32C83.5801 102.77 84.0301 102.32 84.5801 102.32H110.48C111.03 102.32 111.48 102.77 111.48 103.32C111.48 103.87 111.03 104.32 110.48 104.32Z" fill="#2F3F64"/>
</svg>
