<svg width="109" height="118" viewBox="0 0 109 118" fill="none" xmlns="http://www.w3.org/2000/svg">
<g id="security">
<path id="Vector" fill-rule="evenodd" clip-rule="evenodd" d="M103.42 19.4796C105.94 20.4596 107.59 22.7596 107.59 25.2996C107.59 63.0196 88.2998 96.2296 59.1498 115.43C56.2298 117.32 52.3598 117.32 49.4498 115.43C20.2898 96.2296 1.00977 63.0196 1.00977 25.2996C1.00977 24.9796 1.00977 24.6496 1.00977 24.3296C1.02977 22.3596 2.29988 20.5896 4.24988 19.8296C13.6999 16.1496 41.6299 5.27957 51.1099 1.58957C53.1499 0.79957 55.4499 0.79957 57.4899 1.58957C63.7899 4.03957 78.2498 9.6696 90.0098 14.2496C95.3998 16.3496 100.22 18.2196 103.43 19.4696L103.42 19.4796Z" fill="#BCC5DC"/>
<path id="Vector_2" d="M54.2899 117.84C52.3999 117.84 50.5099 117.32 48.8999 116.27C18.2799 96.1 0 62.1 0 25.3V24.32C0.02 21.94 1.54989 19.81 3.88989 18.9L50.75 0.66C53.01 -0.22 55.59 -0.22 57.85 0.66L81.7 9.95004C82.21 10.15 82.4699 10.73 82.2699 11.24C82.0699 11.75 81.49 12.01 80.98 11.81L57.1299 2.51999C55.3299 1.81999 53.27 1.81999 51.48 2.51999L4.62 20.76C3.04999 21.37 2.01989 22.78 2.00989 24.34V25.3C2.00989 61.43 19.95 94.81 50 114.6C52.57 116.26 56.03 116.26 58.61 114.6C88.66 94.81 106.6 61.43 106.6 25.31C106.6 25.04 106.71 24.79 106.89 24.6C107.28 24.21 107.91 24.21 108.31 24.6C108.52 24.81 108.62 25.09 108.6 25.36C108.58 62.14 90.31 96.12 59.71 116.27C58.09 117.32 56.1999 117.84 54.3099 117.84H54.2899Z" fill="#2F3F64"/>
<g id="Group">
<path id="Vector_3" d="M91.4905 28.7207C93.4005 29.4607 94.6404 31.2007 94.6404 33.1307C94.6404 61.0107 80.7204 85.6407 59.5104 100.321C56.4004 102.431 52.1804 102.431 49.0704 100.321C27.8604 85.6407 13.9404 61.0107 13.9404 33.1307C13.9404 32.8307 13.9404 32.5307 13.9404 32.2307C13.9504 30.8407 14.8605 29.5907 16.2405 29.0507C22.9605 26.4307 42.9904 18.6407 50.9604 15.5307C53.0905 14.7007 55.4905 14.7007 57.6105 15.5307C65.2705 18.5107 84.0505 25.8307 91.4805 28.7207H91.4905Z" fill="#2F3F64"/>
<path id="Vector_4" d="M54.2902 102.91C52.2602 102.91 50.2401 102.32 48.5101 101.15C26.2401 85.7305 12.9502 60.3105 12.9502 33.1305V32.2305C12.9702 30.4205 14.1201 28.8105 15.8901 28.1205L50.6102 14.6005C52.9502 13.6905 55.6402 13.6905 57.9902 14.6005L91.8602 27.7905C94.1602 28.6805 95.6501 30.7805 95.6501 33.1305C95.6501 33.1505 95.6501 33.1705 95.6501 33.1905C95.6301 60.3405 82.3402 85.7405 60.0902 101.141C58.3602 102.321 56.3202 102.91 54.3002 102.91H54.2902ZM54.2902 15.9205C53.2802 15.9205 52.2702 16.1005 51.3302 16.4705L16.6102 29.9905C15.6102 30.3805 14.9602 31.2605 14.9502 32.2405V33.1305C14.9502 59.6505 27.9201 84.4605 49.6401 99.5005C52.4201 101.39 56.1702 101.38 58.9502 99.5005C80.6702 84.4705 93.6401 59.6605 93.6401 33.1405C93.6401 33.1205 93.6401 33.1005 93.6401 33.0805C93.6201 31.5805 92.6302 30.2505 91.1202 29.6605L57.2502 16.4705C56.3102 16.1005 55.3002 15.9205 54.2902 15.9205Z" fill="#2F3F64"/>
</g>
<g id="Group_2">
<path id="Vector_5" d="M86.8198 32.4498C88.4898 33.0998 89.5798 34.6198 89.5798 36.2998C89.5798 60.6898 77.4099 82.2298 58.8599 95.0598C56.1399 96.9098 52.4499 96.9098 49.7299 95.0598C31.1799 82.2198 19.0098 60.6798 19.0098 36.2998C19.0098 36.0398 19.0098 35.7698 19.0098 35.5098C19.0198 34.2998 19.8098 33.1998 21.0198 32.7298C26.8998 30.4398 44.4098 23.6198 51.3898 20.9098C53.2498 20.1798 55.3498 20.1798 57.2098 20.9098C63.9098 23.5198 80.3398 29.9098 86.8298 32.4398L86.8198 32.4498Z" fill="white"/>
<path id="Vector_6" d="M54.2899 97.4496C52.4899 97.4496 50.6999 96.9296 49.1599 95.8896C29.6499 82.3796 18 60.1096 18 36.2996V35.5096C18.02 33.8796 19.0599 32.4196 20.6499 31.7996L51.0199 19.9796C53.0999 19.1696 55.4799 19.1696 57.5599 19.9796L87.1799 31.5096C89.2399 32.3096 90.58 34.1896 90.58 36.2996C90.58 36.3196 90.58 36.3396 90.58 36.3596C90.56 60.1496 78.9199 82.3896 59.4299 95.8796C57.8899 96.9196 56.0899 97.4496 54.2899 97.4496ZM54.2899 21.3696C53.4199 21.3696 52.55 21.5296 51.74 21.8396L21.37 33.6596C20.55 33.9796 20.01 34.7095 20 35.5195V36.2996C20 59.4496 31.3199 81.1096 50.2899 94.2396C52.6799 95.8596 55.8999 95.8596 58.2899 94.2396C77.2499 81.1196 88.5699 59.4596 88.5699 36.3096C88.5699 36.2896 88.5699 36.2696 88.5699 36.2596C88.5499 35.0096 87.7199 33.8796 86.45 33.3896L56.83 21.8596C56.02 21.5496 55.1499 21.3896 54.2799 21.3896L54.2899 21.3696Z" fill="#2F3F64"/>
</g>
<g id="Group_3">
<path id="Vector_7" d="M65.5198 52.3102C65.5198 45.6902 59.7798 40.4001 53.0098 41.1501C47.9398 41.7101 43.7998 45.7801 43.1598 50.8401C42.4598 56.3601 45.7698 61.2002 50.5698 62.8902V73.7602C50.5698 75.4202 51.9098 76.7602 53.5698 76.7602H55.0098C56.6698 76.7602 58.0098 75.4202 58.0098 73.7602V62.8902C62.3798 61.3502 65.5098 57.2002 65.5098 52.3102H65.5198Z" fill="#FEC95C"/>
<path id="Vector_8" d="M55.02 77.7605H53.58C51.37 77.7605 49.58 75.9605 49.58 73.7605V63.5804C44.49 61.4604 41.47 56.2704 42.18 50.7204C42.88 45.2204 47.39 40.7805 52.91 40.1705C56.4 39.7805 59.87 40.8904 62.46 43.2104C65.05 45.5304 66.54 48.8505 66.54 52.3205C66.54 57.2505 63.55 61.6904 59.04 63.5904V73.7704C59.04 75.9804 57.24 77.7704 55.04 77.7704L55.02 77.7605ZM54.31 42.0804C53.92 42.0804 53.5201 42.1004 53.1201 42.1504C48.5101 42.6604 44.74 46.3704 44.15 50.9704C43.53 55.8204 46.31 60.3405 50.9 61.9505C51.3 62.0905 51.57 62.4705 51.57 62.8905V73.7605C51.57 74.8605 52.47 75.7605 53.57 75.7605H55.0099C56.1099 75.7605 57.0099 74.8605 57.0099 73.7605V62.8905C57.0099 62.4705 57.28 62.0905 57.68 61.9505C61.77 60.5105 64.5099 56.6405 64.5099 52.3105C64.5099 49.4005 63.27 46.6305 61.1 44.6905C59.2 42.9905 56.82 42.0804 54.29 42.0804H54.31Z" fill="#2F3F64"/>
</g>
</g>
</svg>
