<svg width="98" height="98" viewBox="0 0 98 98" fill="none" xmlns="http://www.w3.org/2000/svg">
<g clip-path="url(#clip0_202_273)">
<mask id="mask0_202_273" style="mask-type:luminance" maskUnits="userSpaceOnUse" x="0" y="0" width="98" height="98">
<path d="M98 0H0V98H98V0Z" fill="white"/>
</mask>
<g mask="url(#mask0_202_273)">
<path d="M87.8019 76.1045C88.1684 76.7261 88.0728 77.5386 87.5629 78.0488L85.9055 79.7219L70.9905 64.8066C74.2094 60.361 76.0898 54.911 76.0898 48.9992C76.0898 34.0364 63.963 21.9098 49.0002 21.9098C34.0374 21.9098 21.9107 34.0364 21.9107 48.9992C21.9107 63.962 34.0374 76.0888 49.0002 76.0888C54.912 76.0888 60.3619 74.2084 64.8076 70.9895L79.7229 85.9045L78.0498 87.5619C77.5396 88.0718 76.7271 88.1674 76.1055 87.801L68.9188 83.4985C68.664 83.6577 68.3929 83.8011 68.1221 83.9445C66.2898 84.9643 64.3615 85.8249 62.3698 86.5261C62.1147 86.6217 61.8599 86.7173 61.5887 86.7969C60.8398 87.052 60.0751 87.275 59.294 87.482L57.2705 95.5932C57.0953 96.3101 56.4577 96.8042 55.7248 96.8042H42.2756C41.5427 96.8042 40.9054 96.3101 40.7299 95.5932L38.7063 87.482C35.2962 86.5899 32.0613 85.2355 29.0815 83.4985L21.8948 87.801C21.2734 88.1674 20.4607 88.0718 19.9508 87.5619L10.4376 78.0488C9.92767 77.5386 9.83207 76.7261 10.1986 76.1045L14.501 68.9339V68.9179C12.7641 65.9381 11.4096 62.7032 10.5173 59.2931L2.40637 57.2695C1.68929 57.0943 1.19531 56.4567 1.19531 55.7238V42.2746C1.19531 41.5417 1.68929 40.9044 2.40637 40.7289L10.5173 38.7053C11.4096 35.2952 12.7641 32.0603 14.501 29.0805L10.1986 21.8939C9.83207 21.2724 9.92767 20.4597 10.4376 19.9498L19.9508 10.4366C20.4607 9.92669 21.2734 9.83109 21.8948 10.1976L29.0815 14.5C32.0613 12.7631 35.2962 11.4087 38.7063 10.5163L40.7299 2.40539C40.9054 1.68832 41.5427 1.19434 42.2756 1.19434H55.7248C56.4577 1.19434 57.0953 1.68832 57.2705 2.40539L59.294 10.5163C62.7041 11.4087 65.939 12.7631 68.9188 14.5H68.9349L76.1055 10.1976C76.7271 9.83109 77.5396 9.92669 78.0498 10.4366L87.5629 19.9498C88.0728 20.4597 88.1684 21.2724 87.8019 21.8939L83.4995 29.0805C85.2364 32.0603 86.5909 35.2952 87.483 38.7053L95.5941 40.7289C96.311 40.9044 96.8052 41.5417 96.8052 42.2746V55.7238C96.8052 56.4567 96.311 57.0943 95.5941 57.2695L87.483 59.2931C87.276 60.0741 87.053 60.8388 86.7979 61.5877C86.7183 61.8589 86.6227 62.1137 86.5271 62.3688C85.8259 64.3606 84.9653 66.2888 83.9455 68.1211C83.8021 68.3919 83.6586 68.6631 83.4995 68.9179V68.9339L87.8019 76.1045Z" fill="#BCC5DC"/>
<path d="M48.9991 29.877C59.5638 29.877 68.121 38.4341 68.121 48.9991C68.121 59.5638 59.5638 68.121 48.9991 68.121C38.4341 68.121 29.877 59.5638 29.877 48.9991C29.877 38.4341 38.4341 29.877 48.9991 29.877Z" fill="white"/>
<path d="M85.9089 79.723L79.726 85.9059L64.811 70.9909C60.3651 74.2098 54.9154 76.0899 49.0036 76.0899C34.0405 76.0899 21.9141 63.9634 21.9141 49.0006C21.9141 34.0375 34.0405 21.9111 49.0036 21.9111C63.9664 21.9111 76.0929 34.0375 76.0929 49.0006C76.0929 54.9124 74.2125 60.3621 70.9936 64.808L85.9089 79.723ZM68.1255 49.0006C68.1255 38.4356 59.5683 29.8787 49.0036 29.8787C38.4386 29.8787 29.8814 38.4356 29.8814 49.0006C29.8814 59.5653 38.4386 68.1225 49.0036 68.1225C59.5683 68.1225 68.1255 59.5653 68.1255 49.0006Z" fill="#FEC95C"/>
<path d="M87.244 82.2253C87.244 82.9585 86.9571 83.6276 86.4951 84.1218L84.1208 86.496C83.6266 86.9581 82.9576 87.245 82.2243 87.245C81.4914 87.245 80.7585 86.9263 80.2486 86.4322L79.7227 85.9065L85.9056 79.7236L86.4312 80.2496C86.9254 80.7595 87.244 81.4606 87.244 82.2253Z" fill="#FEC95C"/>
<path d="M55.7267 98.0012H42.2775C40.9887 98.0012 39.8771 97.1287 39.5706 95.8778L37.7181 88.4521C34.7244 87.6096 31.8301 86.4122 29.0972 84.8825L22.5101 88.8266C21.4026 89.4799 20.0063 89.3047 19.106 88.4064L9.59283 78.8929C8.6945 77.9946 8.51923 76.5986 9.16858 75.4968L13.1204 68.9097C11.5887 66.1728 10.3896 63.2768 9.54704 60.281L2.11736 58.4267C0.872441 58.1217 0 57.0104 0 55.7216V42.2724C0 40.9839 0.872441 39.8723 2.12134 39.5655L9.54704 37.713C10.3896 34.7193 11.5867 31.825 13.1165 29.0923L9.17256 22.5052C8.51923 21.3977 8.69251 20.0014 9.59283 19.1031L19.106 9.58992C20.0044 8.69159 21.4006 8.51629 22.5022 9.16564L29.0953 13.1135C31.828 11.5838 34.7223 10.3867 37.716 9.5441L39.5706 2.11443C39.8753 0.86951 40.9866 -0.00292969 42.2754 -0.00292969H55.7246C57.0134 -0.00292969 58.1247 0.86951 58.4315 2.12041L60.284 9.54609C63.2798 10.3887 66.1758 11.5878 68.9127 13.1195L75.4918 9.17161C76.6013 8.51828 77.9976 8.69159 78.8959 9.58992L88.4091 19.1031C89.3074 20.0014 89.4829 21.3977 88.8334 22.4992L84.8855 29.0923C86.4152 31.825 87.6123 34.7193 88.4551 37.713L95.8847 39.5676C97.1296 39.8723 98.0021 40.9839 98.0021 42.2724V55.7216C98.0021 57.0104 97.1296 58.1217 95.8788 58.4285L88.453 60.281C88.2837 60.8826 88.1124 61.4323 87.939 61.9482C87.8496 62.249 87.7459 62.5278 87.6524 62.7749C86.9233 64.8445 86.0268 66.8383 84.9912 68.7006C84.6705 69.2762 83.9415 69.4835 83.3656 69.1648C82.788 68.8441 82.581 68.115 82.9018 67.5395C83.8737 65.7924 84.7142 63.9183 85.3996 61.9722C85.4014 61.9642 85.4055 61.9562 85.4073 61.9482C85.497 61.7073 85.5828 61.4822 85.6505 61.2491C85.6544 61.2331 85.6603 61.2173 85.6663 61.2013C85.8896 60.5441 86.1067 59.8189 86.3276 58.9844C86.4393 58.5639 86.7719 58.2372 87.1942 58.1318L95.305 56.1079C95.4903 56.0622 95.6097 55.909 95.6097 55.7216V42.2724C95.6097 42.0853 95.4903 41.9318 95.3109 41.8881L87.1942 39.8622C86.7698 39.7568 86.4372 39.428 86.3276 39.0058C85.475 35.7513 84.1764 32.6141 82.4673 29.6799C82.2484 29.3035 82.2502 28.8374 82.4753 28.4649L86.7778 21.2782C86.8654 21.1308 86.8417 20.9157 86.7199 20.7942L77.2068 11.281C77.0853 11.1595 76.8682 11.1356 76.715 11.2272L69.5521 15.5257C69.3668 15.6372 69.1538 15.697 68.9368 15.697C68.7194 15.697 68.5023 15.6412 68.3191 15.5337C65.3871 13.8246 62.2478 12.5259 58.9933 11.6734C58.571 11.5619 58.2423 11.2312 58.1366 10.8069L56.113 2.69605C56.0673 2.51081 55.9138 2.3913 55.7267 2.3913H42.2775C42.0901 2.3913 41.9369 2.51081 41.8929 2.69008L39.8673 10.8069C39.7616 11.2312 39.4331 11.5639 39.0108 11.6734C35.756 12.5259 32.6189 13.8246 29.6849 15.5337C29.3084 15.7528 28.8423 15.7508 28.4698 15.5257L21.2831 11.2233C21.1357 11.1356 20.9206 11.1595 20.7971 11.281L11.284 20.7942C11.1624 20.9157 11.1385 21.1328 11.2302 21.2862L15.5286 28.4669C15.7517 28.8413 15.7557 29.3054 15.5366 29.6819C13.8276 32.6141 12.5289 35.753 11.6763 39.0078C11.5648 39.4301 11.2342 39.7589 10.8099 39.8643L2.69899 41.8881C2.51374 41.9339 2.39423 42.0874 2.39423 42.2745V55.7237C2.39423 55.9108 2.51374 56.0643 2.69301 56.1079L10.8099 58.1339C11.2342 58.2393 11.5668 58.568 11.6763 58.9903C12.5289 62.2451 13.8276 65.3823 15.5366 68.3164C15.6422 68.4996 15.6999 68.7066 15.6999 68.9177C15.6999 69.1289 15.6402 69.362 15.5306 69.5491L11.2282 76.72C11.1425 76.8673 11.1664 77.0823 11.2879 77.2041L20.8011 86.7172C20.9226 86.8387 21.1397 86.8624 21.2931 86.771L28.4738 82.4723C28.8483 82.2493 29.3124 82.2454 29.6888 82.4646C32.6209 84.1734 35.7599 85.4723 39.0147 86.3246C39.437 86.4363 39.7657 86.7668 39.8712 87.1912L41.895 95.302C41.9407 95.4873 42.0943 95.6067 42.2814 95.6067H55.7305C55.9179 95.6067 56.0711 95.4873 56.1151 95.3079L58.1407 87.1912C58.2462 86.7689 58.5728 86.4363 58.9933 86.3246C59.8257 86.1037 60.5509 85.8884 61.2102 85.6636C61.2262 85.6573 61.242 85.6535 61.258 85.6475C61.4849 85.5819 61.71 85.4961 61.9491 85.4064C61.9571 85.4046 61.971 85.3984 61.9791 85.3966C63.9272 84.7112 65.7996 83.8708 67.5484 82.8988C68.124 82.578 68.853 82.785 69.1737 83.3629C69.4945 83.9405 69.2872 84.6675 68.7096 84.9883C66.8473 86.0241 64.8552 86.9183 62.7839 87.6494C62.519 87.7489 62.252 87.8484 61.9571 87.9363C61.4412 88.1115 60.8916 88.2808 60.2899 88.45L58.4356 95.8817C58.1306 97.1266 57.0194 97.9991 55.7305 97.9991L55.7267 98.0012Z" fill="#2F3F64"/>
<path d="M48.9998 69.3157C37.7975 69.3157 28.6826 60.2011 28.6826 48.9988C28.6826 37.7965 37.7975 28.6816 48.9998 28.6816C60.2021 28.6816 69.3167 37.7965 69.3167 48.9988C69.3167 60.2011 60.2021 69.3157 48.9998 69.3157ZM48.9998 31.072C39.114 31.072 31.0729 39.113 31.0729 48.9988C31.0729 58.8844 39.114 66.9257 48.9998 66.9257C58.8853 66.9257 66.9267 58.8844 66.9267 48.9988C66.9267 39.113 58.8853 31.072 48.9998 31.072Z" fill="#2F3F64"/>
<path d="M82.2239 88.4394C81.178 88.4394 80.1822 88.0311 79.4152 87.2902L64.6674 72.5442C60.0364 75.6496 54.6405 77.2868 48.9974 77.2868C33.4012 77.2868 20.7129 64.5987 20.7129 49.0025C20.7129 33.4059 33.4012 20.7178 48.9974 20.7178C64.5937 20.7178 77.282 33.4059 77.282 49.0025C77.282 54.6452 75.6466 60.0411 72.5394 64.6724L87.2733 79.4062C88.0282 80.1852 88.4365 81.183 88.4365 82.2268C88.4365 83.2704 88.0561 84.2008 87.3647 84.9397C87.3549 84.9495 87.3469 84.9596 87.3368 84.9697L84.9626 87.3439C84.9626 87.3439 84.9447 87.3617 84.9346 87.3718C84.1958 88.0629 83.2336 88.4433 82.2218 88.4433L82.2239 88.4394ZM64.8069 69.7954C65.1158 69.7954 65.4205 69.9151 65.6515 70.1461L81.0924 85.5871C81.3912 85.8757 81.8075 86.0491 82.2239 86.0491C82.6403 86.0491 82.9987 85.9018 83.2915 85.6349L85.634 83.2924C85.9007 82.9996 86.0483 82.6212 86.0483 82.2248C86.0483 81.8283 85.8748 81.3921 85.5722 81.0794L85.0603 80.5674L70.1452 65.6524C69.7307 65.2381 69.6769 64.5827 70.0217 64.1066C73.2085 59.7047 74.8938 54.4801 74.8938 49.0004C74.8938 34.7227 63.2772 23.106 48.9995 23.106C34.7218 23.106 23.1051 34.7227 23.1051 49.0004C23.1051 63.2781 34.7218 74.8947 48.9995 74.8947C54.4792 74.8947 59.7038 73.2097 64.1058 70.0226C64.3169 69.8711 64.5619 69.7954 64.8069 69.7954Z" fill="#2F3F64"/>
</g>
</g>
<defs>
<clipPath id="clip0_202_273">
<rect width="98" height="98" fill="white"/>
</clipPath>
</defs>
</svg>
