<svg width="98" height="98" viewBox="0 0 98 98" fill="none" xmlns="http://www.w3.org/2000/svg">
<g clip-path="url(#clip0_202_193)">
<mask id="mask0_202_193" style="mask-type:luminance" maskUnits="userSpaceOnUse" x="0" y="0" width="98" height="98">
<path d="M98 0H0V98H98V0Z" fill="white"/>
</mask>
<g mask="url(#mask0_202_193)">
<path d="M48.9996 21.9072C63.9626 21.9072 76.0889 34.0336 76.0889 48.9966C76.0889 63.9596 63.9626 76.086 48.9996 76.086C48.4896 76.086 47.9638 76.07 47.4538 76.0382C47.0714 76.0222 46.689 75.9904 46.3066 75.9426C45.5418 75.8788 44.7928 75.7674 44.0438 75.624C43.4702 75.5282 42.8964 75.4008 42.3228 75.2574C42.02 75.1778 41.7174 75.098 41.4146 75.0024C39.2314 74.381 37.16 73.4726 35.2318 72.3254L44.219 62.4456C48.6968 64.103 53.7642 63.2584 57.493 60.151C61.6838 56.6614 63.341 52.1836 63.341 45.8096L53.78 53.777C53.78 53.777 49.7964 52.9804 47.406 50.59C45.0158 48.1998 44.219 44.216 44.219 44.216L52.1866 34.6552C45.8126 34.6552 41.3348 36.3124 37.8452 40.5032C34.7378 44.232 33.8932 49.2994 35.5504 53.777L25.6708 62.7644C24.5234 60.8362 23.6152 58.7648 22.9938 56.5816C22.8982 56.2788 22.8184 55.976 22.7388 55.6734C22.5954 55.0996 22.4678 54.526 22.3722 53.9524C22.2288 53.2034 22.1174 52.4544 22.0536 51.6896C22.0058 51.3072 21.9738 50.9248 21.958 50.5422C21.926 50.0324 21.9102 49.5066 21.9102 48.9966C21.9102 34.0336 34.0366 21.9072 48.9996 21.9072Z" fill="white"/>
<path d="M6.99516 79.7526L10.6761 76.4062C10.5168 77.3783 10.8196 78.414 11.5526 79.163L18.8348 86.4452C19.5838 87.1782 20.6196 87.481 21.5916 87.3216L18.2452 91.0026C16.7952 92.612 14.6918 93.616 12.3493 93.616C7.95126 93.616 4.38184 90.0466 4.38184 85.6484C4.38184 83.306 5.38574 81.2026 6.99516 79.7526Z" fill="#FEC95C"/>
<path d="M35.2338 72.3256L21.6094 87.3204H21.5936C20.6216 87.4799 19.5857 87.177 18.8368 86.444L11.5545 79.1616C10.8215 78.4128 10.5187 77.377 10.6781 76.405V76.389L25.6728 62.7646C27.9994 66.7006 31.298 69.999 35.2338 72.3256Z" fill="#FEC95C"/>
<path d="M53.7813 53.7783L63.3423 45.8106C63.3423 52.1847 61.6849 56.6625 57.4941 60.1523C53.7653 63.2595 48.6979 64.104 44.2203 62.4468L35.2329 72.3265C31.2971 70 27.9985 66.7015 25.6719 62.7654L35.5517 53.7783C33.8945 49.3005 34.7389 44.2333 37.8463 40.5045C41.3361 36.3135 45.8137 34.6562 52.1877 34.6562L44.2203 44.2173C44.2203 44.2173 45.0171 48.2011 47.4073 50.5913C49.7975 52.9815 53.7813 53.7783 53.7813 53.7783Z" fill="#FEC95C"/>
<path d="M16.1901 68.63C15.3296 67.196 14.5647 65.698 13.8795 64.1524C13.0828 62.272 12.4135 60.328 11.9195 58.3042L3.98394 57.3162C2.39044 57.109 1.19531 55.7546 1.19531 54.1452V43.8512C1.19531 42.2418 2.39044 40.8872 3.98394 40.6802L11.9195 39.6922C12.8278 36.0112 14.2779 32.5374 16.1901 29.3664L11.2981 23.056C10.3101 21.7812 10.4217 19.9807 11.553 18.8334L18.8353 11.5511C19.9826 10.4197 21.7832 10.3081 23.058 11.2961L29.3684 16.1881C32.5394 14.276 36.0132 12.8259 39.6942 11.9176L40.6822 3.98199C40.8892 2.38849 42.2438 1.19336 43.8532 1.19336H54.1472C55.7566 1.19336 57.111 2.38849 57.3182 3.98199L58.3062 11.9176C61.9872 12.8259 65.461 14.276 68.632 16.1881L74.9424 11.2961C76.2172 10.3081 78.0178 10.4197 79.165 11.5511L86.4474 18.8334C87.5788 19.9807 87.6902 21.7812 86.7024 23.056L81.8102 29.3664C83.7224 32.5374 85.1726 36.0112 86.0808 39.6922L94.0164 40.6802C95.61 40.8872 96.805 42.2418 96.805 43.8512V54.1452C96.805 55.7546 95.61 57.109 94.0164 57.3162L86.0808 58.3042C85.1726 61.9852 83.7224 65.459 81.8102 68.63L86.7024 74.9404C87.6902 76.2152 87.5788 78.0158 86.4474 79.163L79.165 86.4454C78.0178 87.5768 76.2172 87.6882 74.9424 86.7004L68.632 81.8082C65.461 83.7204 61.9872 85.1706 58.3062 86.0788L57.3182 94.0144C57.111 95.608 55.7566 96.803 54.1472 96.803H43.8532C42.2438 96.803 40.8892 95.608 40.6822 94.0144L39.6942 86.0788C39.0408 85.9194 38.4034 85.7442 37.766 85.537C37.4154 85.4414 37.065 85.33 36.7144 85.2024C36.1566 85.0112 35.5988 84.82 35.0412 84.5968C34.6428 84.4376 34.2444 84.2782 33.846 84.103C32.3004 83.4336 30.8024 82.6688 29.3684 81.8082L23.058 86.7004C22.6118 87.035 22.118 87.242 21.608 87.3218L35.2324 72.327C37.1606 73.4742 39.232 74.3826 41.4152 75.004C41.718 75.0996 42.0206 75.1794 42.3234 75.259C42.8972 75.4024 43.4708 75.5298 44.0444 75.6256C44.7934 75.769 45.5424 75.8804 46.3072 75.9442C46.6896 75.992 47.072 76.0238 47.4546 76.0398C47.9644 76.0716 48.4902 76.0876 49.0002 76.0876C63.9632 76.0876 76.0896 63.9612 76.0896 48.9982C76.0896 34.0352 63.9632 21.9088 49.0002 21.9088C34.0372 21.9088 21.9108 34.0352 21.9108 48.9982C21.9108 49.5082 21.9266 50.034 21.9586 50.5438C21.9744 50.9264 22.0064 51.3088 22.0542 51.6912C22.118 52.456 22.2294 53.205 22.3728 53.954C22.4684 54.5276 22.596 55.1012 22.7394 55.675C22.819 55.9778 22.8988 56.2804 22.9944 56.5832C23.6158 58.7664 24.524 60.8378 25.6714 62.766L10.6766 76.3904C10.7563 75.8804 10.9634 75.3864 11.2981 74.9404L16.1901 68.63Z" fill="#BCC5DC"/>
<path d="M44.0445 76.8198C43.9789 76.8198 43.9131 76.8138 43.8473 76.8038C43.3017 76.7122 42.7081 76.5867 42.0327 76.4173C41.7081 76.3317 41.3855 76.2482 41.0547 76.1426C40.4253 75.9434 40.0767 75.2722 40.2739 74.6426C40.4731 74.0132 41.1445 73.6646 41.7739 73.8618C42.0487 73.9496 42.3295 74.0231 42.6263 74.1009C43.2239 74.2501 43.7557 74.3638 44.2397 74.4436C44.8911 74.551 45.3313 75.1686 45.2217 75.8178C45.1241 76.4016 44.6183 76.8158 44.0445 76.8158V76.8198Z" fill="#2F3F64"/>
<path d="M47.4523 77.2343C47.4363 77.2343 47.4185 77.2343 47.4025 77.2343C46.9901 77.2163 46.5699 77.1825 46.1555 77.1307C45.5003 77.0491 45.0361 76.4515 45.1177 75.7961C45.1995 75.1409 45.7951 74.6767 46.4523 74.7583C46.8009 74.8021 47.1535 74.8321 47.5001 74.8461C48.1593 74.8739 48.6713 75.4297 48.6453 76.0889C48.6195 76.7323 48.0897 77.2343 47.4523 77.2343Z" fill="#2F3F64"/>
<path d="M22.0516 52.8866C21.458 52.8866 20.942 52.4444 20.8664 51.8388C20.8146 51.4246 20.7788 51.0062 20.7628 50.592C20.735 49.9326 21.2488 49.3748 21.9082 49.349C22.5654 49.3172 23.1252 49.835 23.151 50.4944C23.165 50.841 23.1948 51.1954 23.2386 51.542C23.3204 52.1974 22.8562 52.795 22.201 52.8766C22.1512 52.8826 22.1014 52.8866 22.0516 52.8866Z" fill="#2F3F64"/>
<path d="M22.9916 57.7781C22.4838 57.7781 22.0136 57.4515 21.8524 56.9435C21.7488 56.6129 21.663 56.2901 21.5814 55.9795C21.4102 55.2903 21.2826 54.6967 21.191 54.1509C21.0834 53.4995 21.5216 52.8841 22.173 52.7765C22.8244 52.6669 23.4398 53.1071 23.5474 53.7585C23.627 54.2425 23.7406 54.7743 23.894 55.3859C23.9676 55.6687 24.0414 55.9495 24.129 56.2245C24.3282 56.8539 23.9796 57.5251 23.3482 57.7243C23.2286 57.7621 23.1072 57.7801 22.9876 57.7801L22.9916 57.7781Z" fill="#2F3F64"/>
<path d="M86.0814 40.8865C85.5436 40.8865 85.0556 40.5221 84.9222 39.9783C84.0518 36.4527 82.6614 33.0885 80.789 29.9831C80.4484 29.4175 80.6296 28.6825 81.1954 28.3417C81.761 28.0011 82.494 28.1825 82.8366 28.7481C84.8326 32.0587 86.3164 35.6439 87.2446 39.4047C87.402 40.0461 87.0116 40.6933 86.3702 40.8507C86.2746 40.8747 86.175 40.8865 86.0814 40.8865Z" fill="#2F3F64"/>
<path d="M10.6757 77.5843C10.3511 77.5843 10.0264 77.4529 9.79134 77.1919C9.34716 76.7039 9.383 75.9471 9.873 75.5029L24.8678 61.8785L34.7474 52.8911C35.2354 52.4469 35.9924 52.4829 36.4366 52.9709C36.8808 53.4589 36.845 54.2157 36.357 54.6599L26.4772 63.6473L11.4824 77.2717C11.2534 77.4789 10.9665 77.5825 10.6797 77.5825L10.6757 77.5843Z" fill="#2F3F64"/>
<path d="M12.3501 94.8113C7.29872 94.8113 3.1875 90.7 3.1875 85.6486C3.1875 83.0592 4.28502 80.5873 6.19522 78.8645L9.87222 75.5221C10.3602 75.0779 11.1171 75.1136 11.5613 75.6016C12.0055 76.0896 11.9697 76.8467 11.4816 77.2909L7.80068 80.6371C6.38644 81.9118 5.57774 83.7364 5.57774 85.6486C5.57774 89.3834 8.61534 92.421 12.3501 92.421C14.2623 92.421 16.0888 91.6123 17.3577 90.2021L20.708 86.517C21.1522 86.029 21.907 85.9932 22.397 86.4374C22.8852 86.8816 22.921 87.6367 22.4768 88.1267L19.1304 91.8075C17.4114 93.7159 14.9395 94.8113 12.3501 94.8113Z" fill="#2F3F64"/>
<path d="M21.6078 88.5171C21.321 88.5171 21.0342 88.4155 20.8052 88.2063C20.3172 87.7621 20.2812 87.0073 20.7234 86.5173L34.3478 71.5225L43.3352 61.6427C43.7794 61.1547 44.5342 61.1189 45.0242 61.5631C45.5122 62.0073 45.5482 62.7621 45.104 63.2521L36.1166 73.1319L22.4922 88.1267C22.2572 88.3857 21.9326 88.5191 21.6078 88.5191V88.5171Z" fill="#2F3F64"/>
<path d="M58.3073 87.2727C57.7695 87.2727 57.2815 86.9081 57.1481 86.3643C56.9907 85.7231 57.3811 85.0757 58.0225 84.9183C61.5481 84.0479 64.9123 82.6575 68.0177 80.7851C68.5833 80.4445 69.3183 80.6259 69.6589 81.1915C69.9995 81.7571 69.8183 82.4921 69.2527 82.8327C65.9421 84.8287 62.3567 86.3125 58.5961 87.2409C58.5005 87.2647 58.4029 87.2767 58.3093 87.2767L58.3073 87.2727Z" fill="#2F3F64"/>
<path d="M29.3714 17.3844C28.967 17.3844 28.5708 17.1793 28.3476 16.8068C28.007 16.2411 28.1882 15.5061 28.754 15.1655C32.0644 13.1696 35.6498 11.6857 39.4104 10.7575C40.0518 10.6001 40.6992 10.9905 40.8566 11.6319C41.014 12.2733 40.6236 12.9207 39.9822 13.078C36.4566 13.9485 33.0922 15.3388 29.987 17.2112C29.7938 17.3267 29.5806 17.3844 29.3714 17.3844Z" fill="#2F3F64"/>
<path d="M11.9197 40.8865C11.8241 40.8865 11.7285 40.8747 11.6329 40.8507C10.9915 40.6933 10.6011 40.0441 10.7585 39.4047C11.6867 35.6439 13.1686 32.0587 15.1665 28.7481C15.5071 28.1825 16.2421 28.0011 16.8078 28.3417C17.3735 28.6825 17.5547 29.4175 17.2141 29.9831C15.3418 33.0885 13.9514 36.4527 13.081 39.9783C12.9475 40.5221 12.4576 40.8865 11.9197 40.8865Z" fill="#2F3F64"/>
<path d="M39.696 87.2735C39.6024 87.2735 39.5068 87.2615 39.4112 87.2395C38.6762 87.0603 38.019 86.8751 37.3974 86.6739C36.77 86.4707 36.4254 85.7955 36.6306 85.1681C36.8338 84.5405 37.509 84.1959 38.1364 84.4011C38.7002 84.5843 39.3036 84.7537 39.979 84.9191C40.6204 85.0763 41.0128 85.7217 40.8574 86.3631C40.7238 86.9089 40.2358 87.2755 39.698 87.2755L39.696 87.2735Z" fill="#2F3F64"/>
<path d="M36.7122 86.3965C36.5828 86.3965 36.4534 86.3765 36.3238 86.3307C35.7622 86.1375 35.1806 85.9383 34.595 85.7053C33.9814 85.4603 33.6846 84.7651 33.9296 84.1517C34.1746 83.5381 34.8698 83.2413 35.4834 83.4863C36.0132 83.6975 36.541 83.8787 37.1008 84.0719C37.7242 84.2851 38.0568 84.9663 37.8436 85.5897C37.6744 86.0857 37.2102 86.3965 36.7122 86.3965Z" fill="#2F3F64"/>
<path d="M81.8069 69.8245C81.5957 69.8245 81.3845 69.7687 81.1913 69.6533C80.6257 69.3127 80.4445 68.5777 80.7851 68.0119C82.6573 64.9065 84.0477 61.5423 84.9181 58.0167C85.0755 57.3753 85.7229 56.9849 86.3643 57.1423C87.0057 57.2997 87.3961 57.9489 87.2387 58.5883C86.3105 62.3491 84.8285 65.9343 82.8307 69.2449C82.6055 69.6173 82.2113 69.8245 81.8069 69.8245Z" fill="#2F3F64"/>
<path d="M34.5958 85.705L35.04 84.5956L34.5878 85.703C34.1894 85.5436 33.7772 85.3784 33.3628 85.197C32.7592 84.9322 32.4844 84.225 32.7494 83.6216C33.0142 83.018 33.7194 82.7432 34.3248 83.008C34.7034 83.1734 35.0778 83.3248 35.4762 83.484L34.5958 85.705Z" fill="#2F3F64"/>
<path d="M37.7667 86.733C37.6631 86.733 37.5575 86.719 37.4519 86.691C37.0715 86.5876 36.687 86.464 36.3066 86.3266C35.687 86.1014 35.3665 85.4142 35.5915 84.7948C35.8167 84.1754 36.5019 83.8546 37.1233 84.0798C37.4421 84.1952 37.7647 84.2988 38.0815 84.3844C38.7189 84.5578 39.0933 85.2152 38.9199 85.8526C38.7745 86.3844 38.2925 86.733 37.7667 86.733Z" fill="#2F3F64"/>
<path d="M68.6304 17.3825C68.4212 17.3825 68.208 17.3267 68.0148 17.2112C64.9096 15.3388 61.5452 13.9485 58.0196 13.078C57.3782 12.9207 56.9878 12.2713 57.1452 11.6319C57.3026 10.9906 57.95 10.6001 58.5914 10.7575C62.352 11.6857 65.9374 13.1677 69.2478 15.1655C69.8136 15.5061 69.9948 16.2411 69.6542 16.8068C69.429 17.1793 69.0346 17.3845 68.6304 17.3845V17.3825Z" fill="#2F3F64"/>
<path d="M58.3046 13.1125C57.711 13.1125 57.1952 12.6704 57.1194 12.0648L56.1314 4.12923C56.002 3.13927 55.1494 2.38833 54.1456 2.38833H43.8516C42.8496 2.38833 41.9952 3.13927 41.8656 4.13521L40.8778 12.0648C40.796 12.7202 40.2004 13.1862 39.5432 13.1026C38.8878 13.0209 38.4238 12.4234 38.5054 11.768L39.4934 3.83243C39.7782 1.64337 41.6506 -0.00390625 43.8496 -0.00390625H54.1436C56.3426 -0.00390625 58.217 1.64337 58.4998 3.82647L59.4878 11.768C59.5694 12.4234 59.1054 13.0209 58.45 13.1026C58.4002 13.1086 58.3504 13.1125 58.3006 13.1125H58.3046Z" fill="#2F3F64"/>
<path d="M16.1901 30.5608C15.8335 30.5608 15.481 30.4014 15.2439 30.0986L10.3519 23.7884C9.0054 22.0516 9.1548 19.5617 10.7005 17.9941L17.9887 10.7059C19.5603 9.15423 22.0522 9.00483 23.789 10.3513L30.0994 15.2434C30.6212 15.6477 30.7168 16.3986 30.3124 16.9205C29.908 17.4424 29.1572 17.538 28.6352 17.1336L22.325 12.2416C21.5302 11.6261 20.391 11.6958 19.6739 12.403L12.3976 19.6793C11.6964 20.3904 11.6267 21.5296 12.2422 22.3244L17.1342 28.6346C17.5386 29.1566 17.443 29.9074 16.9211 30.3118C16.704 30.4812 16.445 30.5628 16.1901 30.5628V30.5608Z" fill="#2F3F64"/>
<path d="M11.9213 59.4996C11.8715 59.4996 11.8217 59.4956 11.772 59.4898L3.83634 58.5018C1.64728 58.2168 0 56.3446 0 54.1456V43.8516C0 41.6526 1.64728 39.7782 3.83036 39.4954L11.772 38.5074C12.4273 38.4256 13.0248 38.8898 13.1065 39.5452C13.1882 40.2004 12.7241 40.798 12.0687 40.8796L4.13314 41.8676C3.14318 41.997 2.39224 42.8496 2.39224 43.8536V54.1476C2.39224 55.1494 3.14318 56.004 4.1391 56.1334L12.0687 57.1214C12.7241 57.203 13.1882 57.8006 13.1065 58.456C13.0308 59.0614 12.5169 59.5036 11.9213 59.5036V59.4996Z" fill="#2F3F64"/>
<path d="M54.1473 97.9995H43.8535C41.6543 97.9995 39.7801 96.3523 39.4971 94.1691L38.5093 86.2275C38.4275 85.5723 38.8917 84.9747 39.5469 84.8931C40.2023 84.8113 40.7999 85.2755 40.8815 85.9307L41.8695 93.8663C41.9989 94.8563 42.8515 95.6073 43.8553 95.6073H54.1493C55.1513 95.6073 56.0059 94.8563 56.1353 93.8605L57.1233 85.9307C57.2049 85.2755 57.8025 84.8113 58.4577 84.8931C59.1131 84.9747 59.5773 85.5723 59.4955 86.2275L58.5075 94.1631C58.2227 96.3523 56.3503 97.9995 54.1513 97.9995H54.1473Z" fill="#2F3F64"/>
<path d="M13.8815 65.3477C13.4154 65.3477 12.9732 65.0749 12.78 64.6187C11.9095 62.5631 11.2482 60.5911 10.7582 58.5873C10.6009 57.9459 10.9953 57.2985 11.6366 57.1433C12.278 56.9879 12.9254 57.3803 13.0808 58.0217C13.5389 59.8979 14.1603 61.7523 14.981 63.6865C15.238 64.2941 14.9551 64.9951 14.3476 65.2541C14.1962 65.3179 14.0369 65.3477 13.8815 65.3477Z" fill="#2F3F64"/>
<path d="M76.8984 88.5638C75.9502 88.5638 75.0002 88.261 74.2074 87.6454L67.897 82.7534C67.3752 82.349 67.2796 81.5982 67.684 81.0762C68.0884 80.5544 68.8392 80.4588 69.3612 80.8632L75.6714 85.7552C76.4662 86.3706 77.6054 86.301 78.3226 85.5938L85.5988 78.3176C86.3 77.6064 86.3696 76.467 85.7542 75.6724L80.8622 69.362C80.4578 68.8402 80.5534 68.0892 81.0754 67.685C81.5972 67.2806 82.3482 67.3762 82.7524 67.898L87.6444 74.2082C88.991 75.9452 88.8416 78.435 87.296 80.0026L80.0076 87.2908C79.1532 88.1334 78.0278 88.5638 76.8984 88.5638Z" fill="#2F3F64"/>
<path d="M86.0772 59.4979C85.4838 59.4979 84.9678 59.0557 84.8922 58.4501C84.8104 57.7947 85.2746 57.1973 85.9298 57.1155L93.8656 56.1275C94.8554 55.9981 95.6064 55.1455 95.6064 54.1417V43.8477C95.6064 42.8459 94.8554 41.9913 93.8596 41.8619L85.9298 40.8739C85.2746 40.7921 84.8104 40.1947 84.8922 39.5393C84.9738 38.8839 85.5714 38.4199 86.2266 38.5015L94.1622 39.4895C96.3514 39.7743 97.9986 41.6467 97.9986 43.8457V54.1397C97.9986 56.3387 96.3514 58.2131 94.1682 58.4959L86.2266 59.4839C86.1768 59.4899 86.127 59.4939 86.0772 59.4939V59.4979Z" fill="#2F3F64"/>
<path d="M81.8111 30.5609C81.5561 30.5609 81.2973 30.4791 81.0801 30.3099C80.5583 29.9055 80.4627 29.1545 80.8669 28.6327L85.7591 22.3225C86.3745 21.5277 86.3047 20.3883 85.5977 19.6712L78.3213 12.3949C77.6103 11.6938 76.4709 11.6241 75.6761 12.2396L69.3659 17.1316C68.8441 17.536 68.0931 17.4403 67.6887 16.9185C67.2845 16.3966 67.3801 15.6457 67.9019 15.2413L74.2121 10.3493C75.9491 9.00277 78.4409 9.15416 80.0065 10.6979L87.2947 17.9861C88.8465 19.5577 88.9959 22.0495 87.6493 23.7865L82.7573 30.0967C82.5223 30.3995 82.1697 30.5589 81.8111 30.5589V30.5609Z" fill="#2F3F64"/>
<path d="M48.8564 64.4703C47.1554 64.4703 45.4444 64.1735 43.807 63.5681C43.1876 63.3389 42.873 62.6517 43.102 62.0323C43.331 61.4129 44.0182 61.0961 44.6378 61.3271C48.731 62.8431 53.366 62.0403 56.7324 59.2357C59.9652 56.5427 61.6204 53.2343 62.0406 48.4557L54.5492 54.6983C54.2724 54.9293 53.9038 55.0229 53.5494 54.9513C53.372 54.9153 49.1812 54.0529 46.5638 51.4375C43.9486 48.8223 43.086 44.6293 43.0502 44.4521C42.9784 44.0975 43.072 43.7311 43.3032 43.4521L49.5456 35.9607C44.7672 36.3811 41.4566 38.0363 38.7656 41.2691C35.9592 44.6353 35.1584 49.2705 36.6742 53.3637C36.9032 53.9831 36.5866 54.6703 35.969 54.8995C35.3496 55.1285 34.6624 54.8117 34.4334 54.1943C32.6228 49.3003 33.5788 43.7629 36.9312 39.7413C40.5464 35.3991 45.2532 33.4629 52.1908 33.4629C52.655 33.4629 53.0772 33.7319 53.2724 34.1521C53.4696 34.5723 53.406 35.0683 53.1092 35.4249L45.528 44.5237C45.8228 45.6173 46.6436 48.1371 48.257 49.7505C49.8704 51.3639 52.388 52.1825 53.4836 52.4793L62.5824 44.8983C62.939 44.6015 63.435 44.5377 63.8552 44.7349C64.2756 44.9321 64.5444 45.3543 64.5444 45.8165C64.5444 52.7541 62.6084 57.4609 58.266 61.0763C55.591 63.3051 52.2446 64.4763 48.8624 64.4763L48.8564 64.4703Z" fill="#2F3F64"/>
<path d="M21.6094 88.5181C20.95 88.5181 20.4062 87.9823 20.4062 87.3229C20.4062 86.6637 20.934 86.1279 21.5934 86.1279H21.6094C22.2686 86.1279 22.8044 86.6637 22.8044 87.3229C22.8044 87.9823 22.2686 88.5181 21.6094 88.5181Z" fill="#2F3F64"/>
<path d="M10.6756 77.6013C10.0163 77.6013 9.48047 77.0655 9.48047 76.4063C9.48047 75.7469 10.0163 75.2031 10.6756 75.2031C11.3349 75.2031 11.8707 75.7311 11.8707 76.3903V76.4063C11.8707 77.0655 11.3349 77.6013 10.6756 77.6013Z" fill="#2F3F64"/>
<path d="M46.3108 77.14C46.277 77.14 46.2432 77.14 46.2112 77.136C45.4564 77.0722 44.6756 76.9628 43.823 76.7994C43.1756 76.6758 42.7494 76.0484 42.8728 75.401C42.9964 74.7538 43.6238 74.3274 44.2712 74.451C45.04 74.5984 45.7392 74.696 46.4084 74.7518C47.0658 74.8076 47.5558 75.3852 47.5 76.0424C47.4482 76.666 46.9264 77.14 46.3108 77.14Z" fill="#2F3F64"/>
<path d="M22.3693 55.1493C21.8075 55.1493 21.3055 54.7509 21.1961 54.1791C21.0327 53.3267 20.9231 52.5459 20.8595 51.7909C20.8057 51.1337 21.2937 50.5559 21.9509 50.5001C22.6083 50.4465 23.1859 50.9345 23.2417 51.5917C23.2975 52.2611 23.3951 52.9601 23.5425 53.7291C23.6659 54.3763 23.2417 55.0039 22.5923 55.1273C22.5167 55.1413 22.4409 55.1493 22.3673 55.1493H22.3693Z" fill="#2F3F64"/>
<path d="M48.9993 77.2837C48.4555 77.2837 47.9117 77.2679 47.3799 77.2339C46.7206 77.1921 46.2206 76.6245 46.2624 75.9671C46.3043 75.3079 46.8719 74.8079 47.5293 74.8497C48.0113 74.8795 48.5073 74.8955 49.0013 74.8955C63.2789 74.8955 74.8955 63.2789 74.8955 49.0012C74.8955 34.7235 63.2789 23.1069 49.0013 23.1069C34.7235 23.1069 23.107 34.7235 23.107 49.0012C23.107 49.4951 23.1229 49.9892 23.1527 50.4732C23.1945 51.1325 22.6926 51.7001 22.0354 51.7401C21.378 51.7819 20.8084 51.2799 20.7686 50.6225C20.7346 50.0907 20.7188 49.5449 20.7188 49.0031C20.7188 33.4069 33.4069 20.7188 49.0033 20.7188C64.5995 20.7188 77.2878 33.4069 77.2878 49.0031C77.2878 64.5995 64.5995 77.2878 49.0033 77.2878L48.9993 77.2837Z" fill="#2F3F64"/>
</g>
</g>
<defs>
<clipPath id="clip0_202_193">
<rect width="98" height="98" fill="white"/>
</clipPath>
</defs>
</svg>
