<svg width="97" height="62" viewBox="0 0 97 62" fill="none" xmlns="http://www.w3.org/2000/svg">
<g clip-path="url(#clip0_227_24)">
<mask id="mask0_227_24" style="mask-type:luminance" maskUnits="userSpaceOnUse" x="0" y="0" width="97" height="62">
<path d="M97 0H0V61.2632H97V0Z" fill="white"/>
</mask>
<g mask="url(#mask0_227_24)">
<path d="M39.6546 5.55792C37.6278 6.87206 32.9953 14.5438 30.4981 17.3142C30.4981 17.3142 32.8687 20.3154 37.0486 20.3154C41.2288 20.3154 45.8795 11.9866 50.4035 11.9866C50.9462 11.9866 53.4797 13.6559 57.0084 16.1599L57.9131 17.0478L33.1582 41.3416C33.3573 41.1464 32.5067 40.2052 32.5067 40.2052C32.2895 39.7968 31.9819 39.406 31.62 39.0685L31.258 38.7313C29.6113 37.2217 27.0781 37.1328 25.3227 38.5182L22.6988 40.596L22.6807 40.5781C23.676 39.7968 24.3093 38.6425 24.3817 37.3815C24.4722 36.1207 24.0198 34.8952 23.115 33.9895L23.0426 33.9186C21.5407 32.3913 19.1339 32.1427 17.3425 33.3149C17.3063 33.3149 17.2882 33.3325 17.2701 33.368C16.8177 33.7054 16.3834 34.0429 15.9853 34.3625C13.47 32.64 10.2489 31.8941 10.2489 31.8941C8.09554 31.6455 5.27261 31.5211 1.54488 31.5211C-2.78227 22.2156 3.35446 8.43484 3.35446 8.43484H17.8311C20.4007 8.43484 29.3581 4.08395 36.2706 2.18376C36.2706 2.18376 45.8795 0.851859 48.5939 2.2548C44.5041 3.21376 40.9575 4.70549 39.6546 5.55792Z" fill="#BCC5DC"/>
<path d="M19.4793 43.0476C17.6878 44.2195 15.2811 43.9708 13.7792 42.4436L13.7068 42.3726C12.802 41.467 12.3496 40.2417 12.4401 38.9807C12.5125 37.72 13.1458 36.5654 14.1411 35.784C14.702 35.3401 15.3173 34.8784 15.9869 34.3635C16.385 34.0439 16.8192 33.7065 17.2716 33.369C17.2897 33.3335 17.3078 33.3156 17.344 33.3156C19.1355 32.1435 21.5422 32.3921 23.0442 33.9196L23.1166 33.9906C24.0214 34.8962 24.4737 36.1215 24.3833 37.3825C24.3109 38.6432 23.6775 39.7975 22.6823 40.5789C21.7594 41.2893 20.7098 42.1061 19.5517 42.9942C19.5336 43.0118 19.4974 43.0297 19.4793 43.0476Z" fill="#FEC95C"/>
<path d="M27.9992 46.403L24.3981 49.9369C23.0409 50.6649 22.4076 50.1145 22.4076 50.1145C21.8466 49.9369 21.3037 49.6173 20.8333 49.191L20.4713 48.8535C19.4942 47.9657 18.9694 46.7047 19.0418 45.4085C19.0961 44.2718 19.5846 43.2063 20.3989 42.425L21.0504 41.8922L22.6971 40.5958L25.321 38.5179C27.0764 37.1329 29.6096 37.2217 31.2563 38.7311L31.6183 39.0685C31.9802 39.406 32.2878 39.7965 32.5051 40.2052C32.5051 40.2052 33.3556 41.1464 33.1565 41.3416L32.3603 42.1409L32.0527 42.425L27.9992 46.403Z" fill="#FEC95C"/>
<path d="M38.5864 43.1184C38.5864 43.1184 35.148 39.8862 32.3613 42.1415L33.1577 41.3425L57.9127 17.0485L58.5641 16.4092L62.1832 19.9609C62.2195 19.9787 62.2557 19.9964 62.2917 20.032H62.3098C68.1005 24.3118 74.8501 29.4618 79.8265 33.3155C80.08 33.5108 80.3332 33.6884 80.5685 33.8837C81.4732 34.5762 82.3056 35.2157 83.0477 35.7839C84.0429 36.5652 84.6762 37.7195 84.7487 38.9805C84.8391 40.2413 84.3868 41.4668 83.4819 42.3725L83.4096 42.4434C81.817 44.0595 79.2113 44.2372 77.4017 42.8519L76.4065 42.106C77.4561 42.9052 78.0894 44.1129 78.1617 45.4091C78.216 46.7056 77.6912 47.9663 76.7322 48.8544L76.3521 49.1918C74.7054 50.7012 72.1722 50.79 70.4167 49.405L67.9557 47.4691C68.9873 48.2862 69.5843 49.4936 69.6206 50.79C69.6387 52.0686 69.0776 53.3118 68.0823 54.1641L67.4853 54.6614C65.7842 56.1 63.287 56.1 61.5862 54.6792L59.5412 52.9743C60.428 53.7202 60.9347 54.8035 60.9347 55.9578C60.9166 57.1121 60.3918 58.1955 59.4869 58.9235C57.9308 60.1845 55.7049 60.2733 54.0401 59.1545L48.34 55.3008C48.8105 54.6437 49.0818 53.8269 49.0818 52.9922C49.0637 51.8555 48.5389 50.7724 47.6342 50.0442C46.0779 48.7834 43.8523 48.6946 42.1874 49.8134L38.152 52.5483L40.0522 50.9498C40.1788 50.8434 40.3054 50.7367 40.4141 50.6302C41.2103 49.8489 41.6807 48.7655 41.6989 47.6291C41.717 46.3505 41.1559 45.1074 40.1606 44.2727L39.5636 43.7575C39.256 43.4913 38.9303 43.2782 38.5864 43.1184Z" fill="#BCC5DC"/>
<path d="M93.8348 8.43551C93.8348 8.43551 99.2635 21.0087 95.6444 31.5218C91.3557 31.5218 88.2795 31.6995 86.0177 32.0191C86.0177 32.0191 80.9144 33.0315 79.8288 33.3156C74.8525 29.4619 68.1028 24.3118 62.3121 20.032H62.294C62.2578 19.9965 62.2215 19.9787 62.1855 19.9609L58.5664 16.4092L69.4963 5.68291L69.6229 5.55859L75.1059 7.28121C77.0059 7.97379 78.5259 8.43551 79.3584 8.43551H93.8348Z" fill="#FEC95C"/>
<path d="M69.4934 5.68195L58.5635 16.4082L57.9121 17.0475L57.0072 16.1596C53.4787 13.6556 50.9452 11.9863 50.4022 11.9863C45.8785 11.9863 41.2459 20.3151 37.0476 20.3151C32.8493 20.3151 30.4971 17.3139 30.4971 17.3139C32.9943 14.5435 37.6268 6.87179 39.6534 5.55764C40.9562 4.70521 44.5031 3.21348 48.5927 2.25451C50.9271 1.70399 53.4424 1.33105 55.8309 1.33105C59.0521 1.33105 64.0103 3.05366 68.5885 4.794L69.4934 5.68195Z" fill="#FEC95C"/>
<path d="M49.0798 52.9929C49.0798 53.8277 48.8084 54.6445 48.338 55.3018C48.1389 55.5502 47.9217 55.7812 47.6866 55.9943L47.1799 56.4204L43.1444 59.1553C41.4796 60.2741 39.2539 60.1852 37.6976 58.9245C36.7927 58.1962 36.2681 57.1132 36.25 55.9589C36.25 54.8046 36.7567 53.7212 37.6432 52.9753L38.1499 52.549L42.1854 49.8142C43.8502 48.6953 46.0758 48.7842 47.6322 50.0452C48.5368 50.7732 49.0617 51.8565 49.0798 52.9929Z" fill="#FEC95C"/>
<path d="M40.1581 44.2705C41.1534 45.1052 41.7142 46.3483 41.6961 47.6269C41.678 48.7633 41.2075 49.8467 40.4114 50.628C40.3029 50.7347 40.176 50.8412 40.0494 50.9476L38.1495 52.5461L37.6428 52.9721L35.5979 54.677C33.8968 56.0978 31.3998 56.0978 29.6987 54.6594L29.1014 54.1622C28.7757 53.8957 28.5044 53.5761 28.2871 53.2208C28.2871 53.2208 24.2157 50.1132 27.9977 46.4014L32.0512 42.4236L32.3588 42.1395C35.1455 39.884 38.5837 43.1162 38.5837 43.1162C38.9275 43.2759 39.2532 43.4891 39.5608 43.7553L40.1581 44.2705Z" fill="#FEC95C"/>
<path d="M63.6828 22.3824C63.4068 22.3824 63.1286 22.3002 62.8889 22.1293L62.3618 21.7542C59.6813 19.8518 51.7622 14.2267 50.1495 13.3321C48.4349 13.5075 46.39 15.401 44.4086 17.2368C41.9589 19.5055 39.6469 21.6476 37.0481 21.6476C32.2573 21.6476 29.5383 18.2735 29.4252 18.1314C29.0249 17.6253 29.0497 16.9127 29.4819 16.4332C30.459 15.3477 31.8704 13.3476 33.2345 11.4119C35.8877 7.64709 37.5931 5.30071 38.9075 4.44829C40.4296 3.45159 44.1416 1.93099 48.2787 0.960924C50.9796 0.323831 53.5197 0.00195312 55.8314 0.00195312C59.7446 0.00195312 75.4813 5.94002 77.2613 6.6193C77.9604 6.88567 78.3063 7.65595 78.0373 8.3419C77.7657 9.02784 76.981 9.36969 76.2818 9.10329C69.4757 6.51498 58.4147 2.66576 55.8314 2.66576C53.7617 2.66576 51.3686 2.9721 48.9099 3.55147C44.8857 4.4949 41.5155 5.94224 40.4071 6.66813C39.4323 7.30078 37.2314 10.4219 35.4647 12.9281C34.3359 14.5308 33.2526 16.0669 32.3206 17.2368C33.1959 17.9693 34.8133 18.986 37.0481 18.986C38.5682 18.986 40.5904 17.1125 42.5447 15.3011C45.0103 13.0169 47.5573 10.6572 50.4027 10.6572C51.0587 10.6572 51.3594 10.6572 63.9518 19.5987L64.4789 19.9716C65.0875 20.4023 65.223 21.2347 64.7842 21.8319C64.5198 22.1915 64.1035 22.3824 63.6828 22.3824Z" fill="#2F3F64"/>
<path d="M62.2898 21.362C62.0046 21.362 61.7198 21.2732 61.4778 21.0978C60.8896 20.7427 60.6566 19.9968 60.9665 19.3752C61.2968 18.7159 62.1019 18.4407 62.7737 18.7626C62.8575 18.8025 63.0497 18.8957 63.2465 19.0889C63.7759 19.6083 63.7759 20.4519 63.2465 20.9735C62.9818 21.2332 62.6336 21.3642 62.2875 21.3642L62.2898 21.362Z" fill="#2F3F64"/>
<path d="M80.1813 45.1239C78.9147 45.1239 77.6412 44.7221 76.5691 43.9006L75.585 43.1637C74.9903 42.7175 74.8749 41.8805 75.3295 41.2967C75.7841 40.7129 76.637 40.5998 77.2317 41.046L78.227 41.7917C79.4893 42.7596 81.3351 42.633 82.4365 41.5165L82.518 41.4343C83.1469 40.804 83.4612 39.9647 83.3956 39.0726C83.3458 38.1935 82.9093 37.3787 82.2014 36.8214L79.7359 34.9325C79.7223 34.9213 79.7085 34.9103 79.695 34.899C79.573 34.7992 79.4349 34.6948 79.2879 34.5841C79.1883 34.5108 79.0888 34.4352 78.9895 34.3597C73.0222 29.7402 66.4829 24.7811 61.4953 21.094C60.8959 20.6522 60.7759 19.8154 61.2283 19.2293C61.6785 18.6411 62.5314 18.5234 63.1284 18.9674C68.1318 22.6656 74.687 27.6381 80.6678 32.2686C80.7536 32.3352 80.8419 32.3995 80.9279 32.4661C81.0885 32.5861 81.2559 32.7104 81.4231 32.8503L83.8821 34.7349C85.2051 35.7738 86.0105 37.2921 86.1031 38.9082C86.2185 40.5286 85.6169 42.1404 84.4498 43.3079L84.375 43.3835C83.2373 44.5378 81.7129 45.1282 80.1793 45.1282L80.1813 45.1239Z" fill="#2F3F64"/>
<path d="M76.1344 43.2241C75.8449 43.2241 75.5508 43.1329 75.3042 42.9443L66.2021 36.0185C65.6096 35.5677 65.5009 34.731 65.9601 34.1492C66.4193 33.5677 67.2721 33.4613 67.8646 33.9118L76.9668 40.8376C77.5595 41.2884 77.668 42.1252 77.2088 42.7069C76.942 43.0464 76.5415 43.2241 76.1344 43.2241Z" fill="#2F3F64"/>
<path d="M79.8243 34.6471C79.2247 34.6471 78.6752 34.254 78.5146 33.6569C78.3224 32.9466 78.752 32.2162 79.4782 32.0276C80.5912 31.7369 85.5379 30.7556 85.7482 30.7135C85.7733 30.7089 85.798 30.7046 85.8253 30.7002C88.2593 30.3561 91.4712 30.1895 95.6445 30.1895C96.3932 30.1895 97.0018 30.7868 97.0018 31.5214C97.0018 32.2563 96.3932 32.8534 95.6445 32.8534C91.6249 32.8534 88.551 33.0088 86.2483 33.3307C84.8096 33.6171 81.0277 34.3783 80.1771 34.6004C80.0594 34.6315 79.9418 34.6448 79.8266 34.6448L79.8243 34.6471Z" fill="#2F3F64"/>
<path d="M93.8347 9.76729H79.3579C78.4259 9.76729 77.0123 9.3966 74.6327 8.53085C73.9292 8.27556 73.5719 7.5075 73.832 6.81936C74.0921 6.12897 74.8747 5.77824 75.5759 6.03353C78.003 6.91924 78.9712 7.10349 79.3556 7.10349H93.8324C94.581 7.10349 95.1896 7.70063 95.1896 8.4354C95.1896 9.17015 94.5833 9.76729 93.8347 9.76729Z" fill="#2F3F64"/>
<path d="M73.2629 51.7118C71.9555 51.7118 70.6437 51.2921 69.567 50.4421L67.1083 48.5085L59.7386 42.6614C59.155 42.1997 59.0647 41.3606 59.5374 40.7878C60.0079 40.2152 60.863 40.1264 61.4465 40.5902L68.8114 46.4329L71.268 48.3643C72.4938 49.332 74.2809 49.2676 75.4278 48.2177L75.8122 47.8759C76.4841 47.2498 76.8461 46.3709 76.8075 45.4629C76.7577 44.5616 76.3077 43.7136 75.5769 43.1564L75.2897 42.93C74.7039 42.4705 74.6112 41.6314 75.0794 41.0586C75.5475 40.4838 76.4027 40.3929 76.9862 40.8524L77.2575 41.0653C78.5944 42.082 79.4247 43.645 79.5197 45.334C79.5919 47.0366 78.9157 48.6639 77.6647 49.8205C77.658 49.8272 77.6512 49.8315 77.6445 49.8381L77.2644 50.1756C76.1538 51.1923 74.7108 51.7118 73.2629 51.7118Z" fill="#2F3F64"/>
<path d="M59.0308 53.8788C58.7189 53.8788 58.4044 53.7744 58.1486 53.5592L51.218 47.7344C50.648 47.2547 50.5824 46.4157 51.0689 45.8562C51.5575 45.2969 52.4124 45.2325 52.9824 45.7119L59.913 51.5368C60.483 52.0164 60.5486 52.8555 60.0623 53.4148C59.7933 53.7234 59.4132 53.8788 59.0308 53.8788Z" fill="#2F3F64"/>
<path d="M64.5255 57.0831C63.1706 57.0831 61.8133 56.6214 60.705 55.6935L58.6603 53.9886C58.088 53.5112 58.0201 52.6722 58.5041 52.1106C58.9883 51.549 59.8455 51.4824 60.4178 51.9575L62.4627 53.6624C63.6637 54.6658 65.4031 54.6612 66.5975 53.6511L67.2037 53.1472C67.8845 52.5657 68.2758 51.7065 68.2623 50.8075C68.2373 49.9151 67.8143 49.0694 67.1019 48.5055C66.5183 48.044 66.4277 47.2047 66.8984 46.6322C67.3689 46.0593 68.2237 45.9705 68.8075 46.4323C70.1374 47.4868 70.929 49.0628 70.9768 50.7544C70.9992 52.4547 70.271 54.0575 68.9747 55.1674L68.3618 55.6779C67.2558 56.6147 65.8894 57.0831 64.5255 57.0831Z" fill="#2F3F64"/>
<path d="M56.6063 61.2636C55.4436 61.2636 54.2742 60.9304 53.2698 60.2558L47.5674 56.3998C46.9499 55.9824 46.7937 55.1523 47.219 54.5484C47.6443 53.9424 48.4902 53.7892 49.1056 54.2066L54.8057 58.0603C55.9684 58.8416 57.5383 58.775 58.6193 57.8982C59.2166 57.4188 59.5628 56.7061 59.574 55.938C59.574 55.1967 59.2391 54.4774 58.6555 53.9868L58.1489 53.5584C57.5811 53.0788 57.5155 52.2377 58.0041 51.6805C58.4927 51.1232 59.3501 51.0589 59.9178 51.5383L60.4245 51.9646C61.6097 52.9614 62.2905 54.4174 62.2905 55.9582C62.2657 57.5298 61.5576 58.9792 60.3474 59.9538C59.2753 60.8217 57.9431 61.2636 56.6063 61.2636Z" fill="#2F3F64"/>
<path d="M62.3099 21.364H62.2918C61.5431 21.364 60.9346 20.7669 60.9346 20.0321C60.9346 19.2973 61.5431 18.7002 62.2918 18.7002C63.0405 18.7002 63.658 19.2973 63.658 20.0321C63.658 20.7669 63.0586 21.364 62.3099 21.364Z" fill="#2F3F64"/>
<path d="M16.9979 45.1173C15.4597 45.1173 13.9352 44.5203 12.7997 43.3683L12.7386 43.3083C11.5691 42.1361 10.9652 40.5267 11.0828 38.8887C11.1756 37.2902 11.9786 35.7742 13.2905 34.7442C13.666 34.4466 14.0686 34.1382 14.4961 33.8117C14.7042 33.6542 14.9169 33.4921 15.134 33.3234C15.5683 32.975 16.0094 32.6329 16.446 32.309C17.0431 31.8628 17.8936 31.9782 18.3483 32.5643C18.8007 33.1503 18.6853 33.9851 18.0882 34.431C17.6742 34.7396 17.2535 35.0661 16.8418 35.3967C16.835 35.4033 16.826 35.4079 16.8192 35.4145C16.593 35.5876 16.3736 35.7563 16.1609 35.9184C15.747 36.236 15.3557 36.5333 14.987 36.8241C14.2745 37.3836 13.8379 38.1982 13.7882 39.0594C13.7225 39.9697 14.037 40.811 14.6703 41.4436L14.7382 41.5125C15.7968 42.5869 17.4661 42.7643 18.7215 41.9452C19.3458 41.5368 20.1873 41.7034 20.6034 42.3161C21.0197 42.9287 20.85 43.7545 20.2257 44.1629C19.2372 44.809 18.1108 45.124 16.9934 45.124L16.9979 45.1173Z" fill="#2F3F64"/>
<path d="M19.4781 44.3784C19.1411 44.3784 18.804 44.2564 18.5416 44.0101C17.9988 43.5016 17.9784 42.6605 18.4941 42.1275C18.5778 42.041 18.657 41.981 18.7226 41.9368C19.3853 41.4283 20.0142 40.9423 20.6046 40.4872C21.0388 40.152 21.4528 39.8322 21.8441 39.5304C22.5431 38.9821 22.9774 38.1673 23.0271 37.3061C23.0927 36.3961 22.7783 35.5547 22.1472 34.9219L22.0839 34.8599C22.0839 34.8599 22.0726 34.8487 22.068 34.842C21.0298 33.7855 19.374 33.6035 18.1232 34.4025C17.7183 34.7223 17.1437 34.7976 16.6529 34.5513C15.9856 34.2161 15.721 33.4126 16.0648 32.7576C16.2208 32.4602 16.4584 32.236 16.7434 32.1071C19.0687 30.6866 22.0952 31.0417 24.0133 32.9819L24.0789 33.0463C25.2551 34.2228 25.8569 35.8322 25.7392 37.4725C25.6465 39.071 24.8435 40.587 23.5315 41.617C23.1312 41.9256 22.7195 42.2431 22.2875 42.5783C21.7016 43.0311 21.0773 43.5151 20.4168 44.021C20.3806 44.0499 20.3467 44.0767 20.315 44.0966C20.0707 44.2832 19.7744 44.3784 19.4781 44.3784Z" fill="#2F3F64"/>
<path d="M10.2481 33.2263C10.1961 33.2263 10.1418 33.224 10.0875 33.2174C7.97026 32.9734 5.17447 32.8534 1.54175 32.8534C0.79304 32.8534 0.18457 32.2563 0.18457 31.5214C0.18457 30.7868 0.79304 30.1895 1.54175 30.1895C5.28078 30.1895 8.18062 30.3138 10.4041 30.5713C11.1483 30.6579 11.6799 31.3195 11.594 32.0498C11.5125 32.7268 10.9267 33.2263 10.2481 33.2263Z" fill="#2F3F64"/>
<path d="M17.8328 9.76697H3.3562C2.60749 9.76697 1.99902 9.16984 1.99902 8.43509C1.99902 7.70031 2.60749 7.10318 3.3562 7.10318H17.8328C18.9389 7.10318 22.3047 5.79791 25.5618 4.53704C28.8575 3.26062 32.5943 1.8133 35.9059 0.900944C36.6275 0.703378 37.3762 1.11627 37.5799 1.8244C37.781 2.53253 37.3604 3.26729 36.6387 3.46708C33.463 4.33947 29.7964 5.76018 26.5594 7.01439C22.022 8.77249 19.38 9.76697 17.8328 9.76697Z" fill="#2F3F64"/>
<path d="M23.1245 51.6448C22.5409 51.6448 22.1021 51.4784 21.8284 51.3296C21.1408 51.0855 20.4825 50.6881 19.9103 50.1709L19.5325 49.8179C18.2681 48.6682 17.5895 47.0299 17.6822 45.3339C17.7524 43.871 18.3789 42.4947 19.4466 41.4713C19.9827 40.9564 20.8422 40.9651 21.3647 41.4912C21.8895 42.0173 21.8804 42.861 21.3444 43.3738C20.7698 43.9244 20.4328 44.668 20.3943 45.4669C20.3446 46.3772 20.7065 47.2497 21.3896 47.8713L21.7651 48.222C22.0773 48.5061 22.4482 48.7259 22.8214 48.8436C22.9255 48.8767 23.025 48.9212 23.1178 48.9788C23.2082 48.9788 23.4186 48.9388 23.7443 48.7634C24.4025 48.4106 25.2259 48.648 25.5856 49.2941C25.9453 49.9399 25.7031 50.7481 25.0449 51.1011C24.294 51.5029 23.6493 51.6382 23.1223 51.6382L23.1245 51.6448Z" fill="#2F3F64"/>
<path d="M20.4025 43.7572C20.0134 43.7572 19.6289 43.5951 19.3597 43.2776C18.8802 42.7137 18.9571 41.8723 19.5316 41.4019L20.1831 40.8692C20.1831 40.8692 20.1967 40.8579 20.2035 40.8536L24.4718 37.4816C26.7428 35.6901 30.0589 35.8078 32.185 37.759L32.5562 38.1031C32.9858 38.5049 33.3523 38.9623 33.6283 39.4374C34.1191 39.99 35.1438 41.2799 34.1214 42.2831C33.592 42.8025 32.7325 42.8025 32.2008 42.2831C31.9724 42.0589 31.8435 41.7748 31.8118 41.4818C31.7214 41.3575 31.5925 41.1954 31.4953 41.0889C31.4205 41.0068 31.3572 40.9156 31.3051 40.8202C31.1604 40.5496 30.9477 40.2764 30.6876 40.0345L30.3257 39.6993C29.188 38.656 27.3988 38.5914 26.1751 39.5571L21.9135 42.9248L21.2734 43.4509C21.02 43.6594 20.7101 43.7593 20.4048 43.7593L20.4025 43.7572Z" fill="#2F3F64"/>
<path d="M32.66 57.0811C31.2935 57.0811 29.9251 56.6107 28.8144 55.6695L28.2265 55.1789C27.8033 54.8325 27.4301 54.4019 27.1271 53.909C26.7404 53.2787 26.9484 52.4596 27.5907 52.0821C28.2332 51.7025 29.0679 51.9067 29.4523 52.5372C29.597 52.7748 29.7737 52.979 29.9725 53.1409L30.5788 53.6448C31.7824 54.6615 33.5194 54.6681 34.7204 53.6649L36.7676 51.96C37.3399 51.4827 38.1948 51.5516 38.6814 52.1132C39.1676 52.6748 39.0974 53.5138 38.5251 53.9912L36.4802 55.6961C35.3719 56.6217 34.0169 57.0834 32.6643 57.0834L32.66 57.0811Z" fill="#2F3F64"/>
<path d="M38.1529 53.8801C37.7708 53.8801 37.3907 53.7223 37.1214 53.4137C36.6328 52.8544 36.6984 52.0154 37.2684 51.5357L39.1686 49.9375C39.7386 49.4581 40.5937 49.5225 41.0823 50.0817C41.5709 50.6413 41.5053 51.4803 40.9353 51.9597L39.0351 53.5582C38.7796 53.7734 38.4651 53.8801 38.1529 53.8801Z" fill="#2F3F64"/>
<path d="M40.0546 52.2808C39.6722 52.2808 39.2898 52.1233 39.0231 51.8147C38.5368 51.2554 38.6044 50.414 39.1747 49.9367C39.2673 49.8591 39.3827 49.7613 39.4596 49.6881C40.0114 49.1464 40.3349 48.3895 40.3463 47.6082C40.3599 46.7224 39.9617 45.8545 39.2832 45.2861L38.67 44.7579C38.4574 44.5736 38.2335 44.4271 38.0074 44.3207C37.3312 44.0054 37.0414 43.2105 37.3649 42.5448C37.6862 41.8808 38.4959 41.5967 39.1747 41.9143C39.6293 42.1274 40.0658 42.4115 40.4661 42.7577L41.0611 43.2705C42.3504 44.3515 43.0856 45.95 43.0606 47.646C43.0381 49.1132 42.4249 50.5427 41.3776 51.5706C41.2375 51.7082 41.095 51.8279 40.9365 51.9612C40.681 52.1766 40.3645 52.2808 40.0546 52.2808Z" fill="#2F3F64"/>
<path d="M40.5767 61.2613C39.2399 61.2613 37.9097 60.8217 36.8353 59.9515C35.6274 58.9792 34.9195 57.5298 34.8945 55.9781C34.8945 54.4174 35.5753 52.9614 36.7631 51.9646L37.2675 51.5383C37.8352 51.0589 38.6923 51.1232 39.1809 51.6805C39.6695 52.2377 39.6039 53.0788 39.0362 53.5584L38.5295 53.9847C37.9436 54.4774 37.609 55.1944 37.609 55.9582C37.6202 56.7041 37.9664 57.4188 38.5591 57.8938C39.6447 58.7727 41.2146 58.8373 42.3794 58.0559L46.4102 55.3231C47.0277 54.906 47.8716 55.0568 48.2989 55.6628C48.7242 56.2688 48.5705 57.0969 47.953 57.5163L43.9176 60.2512C42.9111 60.9284 41.7415 61.2613 40.5767 61.2613Z" fill="#2F3F64"/>
<path d="M47.1811 57.752C46.7987 57.752 46.4189 57.5945 46.1496 57.2879C45.661 56.7309 45.7266 55.8896 46.2943 55.4099L46.7809 54.9995C46.9458 54.8484 47.102 54.6842 47.2444 54.5066C47.552 54.067 47.7195 53.5299 47.7195 52.9926C47.7082 52.2579 47.3598 51.5519 46.7694 51.0748C45.6838 50.1957 44.1139 50.129 42.9489 50.9127L38.9183 53.6453C38.3005 54.0627 37.4569 53.9115 37.0293 53.3055C36.604 52.6995 36.758 51.8717 37.3754 51.4521L41.4109 48.7172C43.5732 47.2655 46.4822 47.3898 48.4932 49.0169C49.6988 49.9869 50.4089 51.4299 50.4339 52.9704C50.4339 54.0849 50.0832 55.1769 49.4453 56.0672C49.4318 56.0871 49.416 56.1048 49.4024 56.1249C49.1581 56.4289 48.8888 56.7153 48.604 56.9729C48.5925 56.9839 48.5812 56.9928 48.5677 57.0038L48.061 57.4301C47.8055 57.6455 47.491 57.752 47.1765 57.752H47.1811Z" fill="#2F3F64"/>
<path d="M31.7399 56.7103C31.1561 56.7103 30.7173 56.5439 30.4437 56.3951C29.756 56.1511 29.0979 55.7536 28.5256 55.2365L28.1479 54.8834C26.8833 53.7335 26.2048 52.0952 26.2975 50.3992C26.3677 48.9366 26.9941 47.5602 28.0618 46.5368C28.5979 46.0217 29.4574 46.0306 29.9799 46.5567C30.5047 47.0828 30.4958 47.9265 29.9597 48.4393C29.3851 48.9897 29.0482 49.7335 29.0096 50.5325C28.9598 51.4427 29.3218 52.315 30.0049 52.9365L30.3804 53.2873C30.6926 53.5714 31.0635 53.7912 31.4367 53.9088C31.5408 53.9423 31.6404 53.9867 31.733 54.0444C31.8234 54.0444 32.034 54.0043 32.3597 53.8289C33.0178 53.4762 33.8412 53.7136 34.2009 54.3596C34.5606 55.0054 34.3183 55.8136 33.6603 56.1664C32.9093 56.5682 32.2645 56.7037 31.7376 56.7037L31.7399 56.7103Z" fill="#2F3F64"/>
<path d="M29.0127 48.8243C28.6237 48.8243 28.2393 48.6622 27.97 48.345C27.4906 47.7811 27.5674 46.9397 28.142 46.469L28.7935 45.9363C28.7935 45.9363 28.807 45.9253 28.8136 45.9207L33.0821 42.5489C35.3532 40.7575 38.6691 40.8752 40.7954 42.8264L41.1663 43.1705C41.5962 43.5723 41.9625 44.0295 42.2384 44.5045C42.7293 45.0574 43.7539 46.347 42.7316 47.3504C42.2024 47.8699 41.3427 47.8699 40.8113 47.3504C40.5828 47.1263 40.4539 46.842 40.4222 46.5489C40.3316 46.4246 40.2027 46.2628 40.1055 46.1561C40.0309 46.0739 39.9676 45.983 39.9155 45.8875C39.7708 45.6167 39.5582 45.3436 39.2981 45.1016L38.9361 44.7664C37.7984 43.7232 36.009 43.6588 34.7853 44.6245L30.5239 47.9919L29.8837 48.518C29.6302 48.7268 29.3203 48.8266 29.015 48.8266L29.0127 48.8243Z" fill="#2F3F64"/>
</g>
</g>
<defs>
<clipPath id="clip0_227_24">
<rect width="97" height="61.2632" fill="white"/>
</clipPath>
</defs>
</svg>
