<svg viewBox="0 0 127 95" fill="none" xmlns="http://www.w3.org/2000/svg">
<g id="shared-inbox">
<path id="Vector" d="M90.98 8.53027H5.5C2.73858 8.53027 0.5 10.7688 0.5 13.5303V63.6603C0.5 66.4217 2.73858 68.6603 5.5 68.6603H90.98C93.7414 68.6603 95.98 66.4217 95.98 63.6603V13.5303C95.98 10.7688 93.7414 8.53027 90.98 8.53027Z" fill="#2F3F64"/>
<g id="Group">
<path id="Vector_2" fill-rule="evenodd" clip-rule="evenodd" d="M12.96 61.1895C10.2 61.1895 7.95996 58.9495 7.95996 56.1895V6.05957C7.95996 3.29957 10.2 1.05957 12.96 1.05957H98.44C101.2 1.05957 103.44 3.29957 103.44 6.05957V56.1895C103.44 58.9495 101.2 61.1895 98.44 61.1895H12.96Z" fill="white"/>
<path id="Vector_3" d="M98.44 62.1895H12.96C9.64996 62.1895 6.95996 59.4995 6.95996 56.1895V6.05957C6.95996 2.74957 9.64996 0.0595703 12.96 0.0595703H98.44C101.75 0.0595703 104.44 2.74957 104.44 6.05957V56.1895C104.44 59.4995 101.75 62.1895 98.44 62.1895ZM12.96 2.06946C10.75 2.06946 8.95996 3.85946 8.95996 6.06946V56.1995C8.95996 58.4095 10.75 60.1995 12.96 60.1995H98.44C100.65 60.1995 102.44 58.4095 102.44 56.1995V6.06946C102.44 3.85946 100.65 2.06946 98.44 2.06946H12.96Z" fill="#2F3F64"/>
</g>
<path id="Vector_4" fill-rule="evenodd" clip-rule="evenodd" d="M13.5898 2.07031L52.4398 36.2203C54.3998 37.9803 57.0199 37.9803 58.9799 36.2203L97.1299 2.07031H13.5898Z" fill="#BCC5DC"/>
<path id="Vector_5" d="M9.24956 60.3397C8.98956 60.3397 8.73957 60.2398 8.53957 60.0498C8.14957 59.6598 8.14957 59.0298 8.53957 58.6398L41.1496 26.0298C41.5396 25.6398 42.1696 25.6398 42.5596 26.0298C42.9496 26.4198 42.9496 27.0497 42.5596 27.4397L9.94957 60.0498C9.74957 60.2498 9.49955 60.3397 9.23955 60.3397H9.24956Z" fill="#2F3F64"/>
<path id="Vector_6" d="M101.96 60.3396C101.7 60.3396 101.45 60.2397 101.25 60.0497L68.73 27.5297C68.34 27.1397 68.34 26.5096 68.73 26.1196C69.12 25.7296 69.75 25.7296 70.14 26.1196L102.66 58.6397C103.05 59.0297 103.05 59.6597 102.66 60.0497C102.46 60.2497 102.21 60.3396 101.95 60.3396H101.96Z" fill="#2F3F64"/>
<g id="Group_2">
<path id="Vector_7" d="M100.7 93.2592C114.131 93.2592 125.02 82.3707 125.02 68.9391C125.02 55.5075 114.131 44.6191 100.7 44.6191C87.2683 44.6191 76.3799 55.5075 76.3799 68.9391C76.3799 82.3707 87.2683 93.2592 100.7 93.2592Z" fill="#FEC95C"/>
<path id="Vector_8" d="M100.71 94.2494C86.7497 94.2494 75.3896 82.8894 75.3896 68.9294C75.3896 54.9694 86.7497 43.6094 100.71 43.6094C114.67 43.6094 126.03 54.9694 126.03 68.9294C126.03 82.8894 114.67 94.2494 100.71 94.2494ZM100.71 45.6194C87.8497 45.6194 77.3896 56.0793 77.3896 68.9393C77.3896 81.7993 87.8497 92.2594 100.71 92.2594C113.57 92.2594 124.03 81.7993 124.03 68.9393C124.03 56.0793 113.57 45.6194 100.71 45.6194Z" fill="#2F3F64"/>
</g>
<g id="Group_3">
<g id="Group_4">
<path id="Vector_9" d="M107.77 80.8801C107.6 80.8801 107.44 80.8401 107.28 80.7501L91.6999 72.0402C91.2199 71.7702 91.0499 71.1602 91.3099 70.6802C91.5799 70.2002 92.1899 70.0302 92.6699 70.3002L108.25 79.0101C108.73 79.2801 108.9 79.8901 108.64 80.3701C108.46 80.7001 108.12 80.8801 107.77 80.8801Z" fill="#2F3F64"/>
</g>
<g id="Group_5">
<path id="Vector_10" d="M92.4998 69.6803C92.1698 69.6803 91.8398 69.5102 91.6498 69.2102C91.3598 68.7402 91.4998 68.1202 91.9698 67.8302L107.69 58.0902C108.16 57.8002 108.78 57.9403 109.07 58.4103C109.36 58.8803 109.22 59.5003 108.75 59.7903L93.0298 69.5303C92.8698 69.6303 92.6798 69.6803 92.4998 69.6803Z" fill="#2F3F64"/>
</g>
<g id="Group_6">
<path id="Vector_11" d="M108.22 63.2098C110.578 63.2098 112.49 61.2981 112.49 58.9398C112.49 56.5816 110.578 54.6699 108.22 54.6699C105.862 54.6699 103.95 56.5816 103.95 58.9398C103.95 61.2981 105.862 63.2098 108.22 63.2098Z" fill="#2F3F64"/>
<path id="Vector_12" d="M108.22 64.2098C105.31 64.2098 102.95 61.8498 102.95 58.9398C102.95 56.0298 105.31 53.6699 108.22 53.6699C111.13 53.6699 113.49 56.0398 113.49 58.9398C113.49 61.8398 111.13 64.2098 108.22 64.2098ZM108.22 55.6699C106.42 55.6699 104.95 57.1398 104.95 58.9398C104.95 60.7398 106.42 62.2098 108.22 62.2098C110.02 62.2098 111.49 60.7398 111.49 58.9398C111.49 57.1398 110.02 55.6699 108.22 55.6699Z" fill="#2F3F64"/>
</g>
<g id="Group_7">
<path id="Vector_13" d="M107.77 84.1494C110.128 84.1494 112.04 82.2377 112.04 79.8794C112.04 77.5211 110.128 75.6094 107.77 75.6094C105.412 75.6094 103.5 77.5211 103.5 79.8794C103.5 82.2377 105.412 84.1494 107.77 84.1494Z" fill="#2F3F64"/>
<path id="Vector_14" d="M107.77 85.1494C104.86 85.1494 102.5 82.7794 102.5 79.8794C102.5 76.9794 104.86 74.6094 107.77 74.6094C110.68 74.6094 113.04 76.9694 113.04 79.8794C113.04 82.7894 110.68 85.1494 107.77 85.1494ZM107.77 76.6094C105.97 76.6094 104.5 78.0794 104.5 79.8794C104.5 81.6794 105.97 83.1494 107.77 83.1494C109.57 83.1494 111.04 81.6794 111.04 79.8794C111.04 78.0794 109.57 76.6094 107.77 76.6094Z" fill="#2F3F64"/>
</g>
<g id="Group_8">
<path id="Vector_15" d="M92.1899 73.6797C94.5482 73.6797 96.46 71.7679 96.46 69.4097C96.46 67.0514 94.5482 65.1396 92.1899 65.1396C89.8317 65.1396 87.9199 67.0514 87.9199 69.4097C87.9199 71.7679 89.8317 73.6797 92.1899 73.6797Z" fill="#2F3F64"/>
<path id="Vector_16" d="M92.1899 74.6797C89.2799 74.6797 86.9199 72.3197 86.9199 69.4097C86.9199 66.4997 89.2799 64.1396 92.1899 64.1396C95.0999 64.1396 97.46 66.4997 97.46 69.4097C97.46 72.3197 95.0999 74.6797 92.1899 74.6797ZM92.1899 66.1396C90.3899 66.1396 88.9199 67.6097 88.9199 69.4097C88.9199 71.2097 90.3899 72.6797 92.1899 72.6797C93.9899 72.6797 95.46 71.2097 95.46 69.4097C95.46 67.6097 93.9899 66.1396 92.1899 66.1396Z" fill="#2F3F64"/>
</g>
</g>
<path id="Vector_17" d="M55.6996 38.5399C54.3196 38.5399 52.9396 38.0098 51.7596 36.9498L12.6096 1.7999C12.1996 1.4299 12.1596 0.799868 12.5296 0.389868C12.8996 -0.0201319 13.5296 -0.060088 13.9396 0.309912L53.0896 35.4598C54.6696 36.8798 56.7096 36.8798 58.2996 35.4598L83.1497 13.1499C83.5597 12.7799 84.1896 12.8198 84.5596 13.2298C84.9296 13.6398 84.8896 14.2699 84.4796 14.6399L59.6296 36.9498C58.4496 38.0098 57.0696 38.5399 55.6896 38.5399H55.6996Z" fill="#2F3F64"/>
</g>
</svg>
