<svg viewBox="0 0 129 110" fill="none" xmlns="http://www.w3.org/2000/svg">
<g id="shared-folder">
<g id="Group">
<path id="Vector" d="M9.48963 75.0792L1.87964 4.80933C1.77964 4.00933 2.01963 3.21927 2.54963 2.62927C3.06963 2.03927 3.82963 1.69922 4.61963 1.69922H22.5797C23.8497 1.69922 25.0597 2.29933 25.8297 3.30933L29.3297 7.89929C29.5197 8.14929 29.8096 8.28931 30.1196 8.28931H105.87C107.37 8.28931 108.6 9.50927 108.63 10.9993L107.47 75.0892H9.48963V75.0792Z" fill="#2F3F64"/>
<path id="Vector_2" d="M22.5798 2.68958C23.5398 2.68958 24.4499 3.13966 25.0299 3.89966L28.5398 8.48962C28.9198 8.98962 29.5098 9.27966 30.1298 9.27966H105.87C106.81 9.27966 107.6 10.0396 107.63 10.9796L106.49 74.0796H10.3898L2.87983 4.66968C2.81983 4.15968 2.96982 3.66967 3.30982 3.28967C3.64982 2.90967 4.11983 2.68958 4.62983 2.68958H22.5898M22.5798 0.689575H4.61982C2.35982 0.689575 0.609836 2.66968 0.889836 4.91968L8.58985 76.0796H108.45L109.63 10.9696C109.59 8.9196 107.92 7.26965 105.87 7.26965H30.1298L26.6198 2.67969C25.6598 1.41969 24.1598 0.679688 22.5798 0.679688V0.689575Z" fill="#2F3F64"/>
</g>
<g id="Group_2">
<path id="Vector_3" d="M76.6394 76.0793H9.89941L28.0894 21.2794C28.4994 19.5894 30.0094 18.3994 31.7394 18.3994H127.249L108.359 76.0793" fill="white"/>
<path id="Vector_4" d="M108.37 77.0793C108.27 77.0793 108.16 77.0594 108.06 77.0294C107.54 76.8594 107.25 76.2894 107.42 75.7694L125.88 19.3994H31.7498C30.4698 19.3994 29.3698 20.2694 29.0698 21.5094L11.2898 75.0793H76.6398C77.1898 75.0793 77.6398 75.5293 77.6398 76.0793C77.6398 76.6293 77.1898 77.0793 76.6398 77.0793H9.8998C9.5798 77.0793 9.2798 76.9294 9.0898 76.6594C8.8998 76.3994 8.84979 76.0694 8.94979 75.7594L27.1398 20.9594C27.6398 18.8994 29.5398 17.3994 31.7398 17.3994H127.25C127.57 17.3994 127.87 17.5494 128.06 17.8094C128.25 18.0694 128.3 18.3994 128.2 18.7094L109.31 76.3894C109.17 76.8094 108.78 77.0793 108.36 77.0793H108.37Z" fill="#2F3F64"/>
</g>
<path id="Vector_5" d="M63.9902 95.4202C63.4402 95.4202 62.9902 94.9702 62.9902 94.4202V76.0801C62.9902 75.5301 63.4402 75.0801 63.9902 75.0801C64.5402 75.0801 64.9902 75.5301 64.9902 76.0801V94.4202C64.9902 94.9702 64.5402 95.4202 63.9902 95.4202Z" fill="#2F3F64"/>
<path id="Vector_6" d="M55.2096 101.97H39.0596C38.5096 101.97 38.0596 101.52 38.0596 100.97C38.0596 100.42 38.5096 99.9697 39.0596 99.9697H55.2096C55.7596 99.9697 56.2096 100.42 56.2096 100.97C56.2096 101.52 55.7596 101.97 55.2096 101.97Z" fill="#2F3F64"/>
<path id="Vector_7" d="M72.7695 101.99C72.2195 101.99 71.7695 101.54 71.7695 100.99C71.7695 100.44 72.2195 99.99 72.7695 99.99L90.2895 99.96C90.8395 99.96 91.2895 100.41 91.2895 100.96C91.2895 101.51 90.8395 101.96 90.2895 101.96L72.7695 101.99Z" fill="#2F3F64"/>
<g id="Group_3">
<path id="Vector_8" d="M63.9897 109.01C68.4191 109.01 72.0098 105.419 72.0098 100.99C72.0098 96.5604 68.4191 92.9697 63.9897 92.9697C59.5604 92.9697 55.9697 96.5604 55.9697 100.99C55.9697 105.419 59.5604 109.01 63.9897 109.01Z" fill="#FEC95C"/>
<path id="Vector_9" d="M63.9897 110.01C59.0197 110.01 54.9697 105.97 54.9697 100.99C54.9697 96.0097 59.0097 91.9697 63.9897 91.9697C68.9697 91.9697 73.0098 96.0097 73.0098 100.99C73.0098 105.97 68.9697 110.01 63.9897 110.01ZM63.9897 93.9797C60.1197 93.9797 56.9697 97.1298 56.9697 101C56.9697 104.87 60.1197 108.02 63.9897 108.02C67.8597 108.02 71.0098 104.87 71.0098 101C71.0098 97.1298 67.8597 93.9797 63.9897 93.9797Z" fill="#2F3F64"/>
</g>
<g id="Group_4">
<path id="Vector_10" d="M51.3094 51.49C54.5514 51.49 57.1794 48.8619 57.1794 45.62C57.1794 42.3781 54.5514 39.75 51.3094 39.75C48.0675 39.75 45.4395 42.3781 45.4395 45.62C45.4395 48.8619 48.0675 51.49 51.3094 51.49Z" fill="#BCC5DC"/>
<path id="Vector_11" d="M51.3094 52.49C47.5194 52.49 44.4395 49.41 44.4395 45.62C44.4395 41.83 47.5194 38.75 51.3094 38.75C55.0994 38.75 58.1794 41.83 58.1794 45.62C58.1794 49.41 55.0994 52.49 51.3094 52.49ZM51.3094 40.76C48.6294 40.76 46.4395 42.94 46.4395 45.63C46.4395 48.32 48.6194 50.5 51.3094 50.5C53.9994 50.5 56.1794 48.32 56.1794 45.63C56.1794 42.94 53.9994 40.76 51.3094 40.76Z" fill="#2F3F64"/>
</g>
<g id="Group_5">
<path id="Vector_12" d="M84.4296 42.7195C87.6715 42.7195 90.2996 40.0914 90.2996 36.8495C90.2996 33.6076 87.6715 30.9795 84.4296 30.9795C81.1877 30.9795 78.5596 33.6076 78.5596 36.8495C78.5596 40.0914 81.1877 42.7195 84.4296 42.7195Z" fill="#BCC5DC"/>
<path id="Vector_13" d="M84.4296 43.7195C80.6396 43.7195 77.5596 40.6395 77.5596 36.8495C77.5596 33.0595 80.6396 29.9795 84.4296 29.9795C88.2196 29.9795 91.2996 33.0595 91.2996 36.8495C91.2996 40.6395 88.2196 43.7195 84.4296 43.7195ZM84.4296 31.9895C81.7496 31.9895 79.5596 34.1695 79.5596 36.8595C79.5596 39.5495 81.7396 41.7295 84.4296 41.7295C87.1196 41.7295 89.2996 39.5495 89.2996 36.8595C89.2996 34.1695 87.1196 31.9895 84.4296 31.9895Z" fill="#2F3F64"/>
</g>
<g id="Group_6">
<path id="Vector_14" d="M82.7899 61.7292C86.0318 61.7292 88.6599 59.1012 88.6599 55.8593C88.6599 52.6173 86.0318 49.9893 82.7899 49.9893C79.548 49.9893 76.9199 52.6173 76.9199 55.8593C76.9199 59.1012 79.548 61.7292 82.7899 61.7292Z" fill="#BCC5DC"/>
<path id="Vector_15" d="M82.7899 62.7292C78.9999 62.7292 75.9199 59.6493 75.9199 55.8593C75.9199 52.0693 78.9999 48.9893 82.7899 48.9893C86.5799 48.9893 89.6599 52.0693 89.6599 55.8593C89.6599 59.6493 86.5799 62.7292 82.7899 62.7292ZM82.7899 50.9893C80.1099 50.9893 77.9199 53.1693 77.9199 55.8593C77.9199 58.5493 80.0999 60.7292 82.7899 60.7292C85.4799 60.7292 87.6599 58.5493 87.6599 55.8593C87.6599 53.1693 85.4799 50.9893 82.7899 50.9893Z" fill="#2F3F64"/>
</g>
<g id="Group_7">
<path id="Vector_16" d="M76.9299 54.8892C76.8299 54.8892 76.7399 54.8792 76.6399 54.8492L56.4699 48.7492C55.9399 48.5892 55.6399 48.0292 55.7999 47.4992C55.9599 46.9692 56.5199 46.6692 57.0499 46.8292L77.2199 52.9293C77.7499 53.0893 78.0499 53.6493 77.8899 54.1793C77.7599 54.6093 77.3599 54.8892 76.9299 54.8892Z" fill="#2F3F64"/>
</g>
<g id="Group_8">
<path id="Vector_17" d="M57.1699 45.3592C56.7299 45.3592 56.3299 45.0692 56.2099 44.6292C56.0599 44.0992 56.3798 43.5492 56.9098 43.3992L78.5099 37.4491C79.0399 37.2991 79.5899 37.6192 79.7399 38.1492C79.8899 38.6792 79.5698 39.2292 79.0398 39.3792L57.4399 45.3291C57.3499 45.3491 57.2599 45.3692 57.1699 45.3692V45.3592Z" fill="#2F3F64"/>
</g>
</g>
</svg>
