<svg viewBox="0 0 109 125" fill="none" xmlns="http://www.w3.org/2000/svg">
<g id="software-deployment">
<g id="Group">
<path id="Vector" d="M69.4404 97.7305H39.1504V123.75H69.4404V97.7305Z" fill="#2F3F64"/>
<path id="Vector_2" d="M69.4404 124.75H39.1504C38.6004 124.75 38.1504 124.3 38.1504 123.75V97.7305C38.1504 97.1805 38.6004 96.7305 39.1504 96.7305H69.4404C69.9904 96.7305 70.4404 97.1805 70.4404 97.7305V123.75C70.4404 124.3 69.9904 124.75 69.4404 124.75ZM40.1504 122.75H68.4404V98.7305H40.1504V122.75Z" fill="#2F3F64"/>
</g>
<path id="Vector_3" d="M82.8205 124.75H25.7705C25.2205 124.75 24.7705 124.3 24.7705 123.75C24.7705 123.2 25.2205 122.75 25.7705 122.75H82.8205C83.3705 122.75 83.8205 123.2 83.8205 123.75C83.8205 124.3 83.3705 124.75 82.8205 124.75Z" fill="#2F3F64"/>
<path id="Vector_4" d="M6.35016 28.7305H102.23C105.1 28.7305 107.43 31.0605 107.43 33.9305V97.7405H1.16016V33.9305C1.16016 31.0605 3.49017 28.7305 6.36017 28.7305H6.35016Z" fill="white"/>
<path id="Vector_5" d="M1.16034 96.2305H107.43V102.88C107.43 106.23 104.71 108.96 101.35 108.96H7.23035C3.88035 108.96 1.15039 106.24 1.15039 102.88V96.2305H1.16034Z" fill="#BCC5DC"/>
<path id="Vector_6" d="M91.4702 97.2197H1.16016C0.610156 97.2197 0.160156 96.7697 0.160156 96.2197C0.160156 95.6697 0.610156 95.2197 1.16016 95.2197H91.4702C92.0202 95.2197 92.4702 95.6697 92.4702 96.2197C92.4702 96.7697 92.0202 97.2197 91.4702 97.2197Z" fill="#2F3F64"/>
<path id="Vector_7" d="M101.35 109.95H7.23035C3.33035 109.95 0.150391 106.78 0.150391 102.87V34.7998C0.150391 30.8998 3.33035 27.7197 7.23035 27.7197H101.35C105.25 27.7197 108.43 30.8898 108.43 34.7998V102.87C108.43 106.77 105.25 109.95 101.35 109.95ZM7.24036 29.7297C4.44036 29.7297 2.16034 32.0098 2.16034 34.8098V102.88C2.16034 105.68 4.44036 107.96 7.24036 107.96H101.36C104.16 107.96 106.44 105.68 106.44 102.88V34.8098C106.44 32.0098 104.16 29.7297 101.36 29.7297H7.24036Z" fill="#2F3F64"/>
<g id="Group_2">
<g id="Group_3">
<path id="Vector_8" fill-rule="evenodd" clip-rule="evenodd" d="M25.2299 58.3406L54.2899 71.9006V32.2206L22.96 17.6006V54.7706C22.96 56.3006 23.8499 57.6906 25.2299 58.3406Z" fill="white"/>
<path id="Vector_9" d="M54.2899 72.9003C54.1499 72.9003 53.9999 72.8704 53.8699 72.8104L24.8099 59.2503C23.0799 58.4403 21.96 56.6903 21.96 54.7803V17.6103C21.96 17.2703 22.1299 16.9503 22.4199 16.7703C22.7099 16.5903 23.0699 16.5603 23.3799 16.7103L54.71 31.3303C55.06 31.4903 55.2899 31.8503 55.2899 32.2403V71.9204C55.2899 72.2604 55.12 72.5803 54.83 72.7603C54.67 72.8603 54.4799 72.9204 54.2899 72.9204V72.9003ZM23.96 19.1704V54.7703C23.96 55.9103 24.63 56.9504 25.65 57.4304L53.2899 70.3303V32.8603L23.96 19.1704Z" fill="#2F3F64"/>
</g>
<g id="Group_4">
<path id="Vector_10" fill-rule="evenodd" clip-rule="evenodd" d="M83.3598 58.3396L54.2998 71.8997V32.2196L85.6298 17.5996V54.7697C85.6298 56.2997 84.7398 57.6896 83.3598 58.3396Z" fill="white"/>
<path id="Vector_11" d="M54.29 72.8996C54.1 72.8996 53.9201 72.8496 53.7501 72.7396C53.4601 72.5596 53.29 72.2396 53.29 71.8996V32.2195C53.29 31.8295 53.5201 31.4796 53.8701 31.3096L85.2001 16.6895C85.5101 16.5495 85.87 16.5696 86.16 16.7496C86.45 16.9296 86.6201 17.2495 86.6201 17.5895V54.7596C86.6201 56.6696 85.5001 58.4295 83.7701 59.2295L54.7101 72.7896C54.5801 72.8496 54.43 72.8796 54.29 72.8796V72.8996ZM55.29 32.8596V70.3295L82.9301 57.4296C83.9601 56.9496 84.6201 55.9096 84.6201 54.7696V19.1696L55.29 32.8596Z" fill="#2F3F64"/>
</g>
<g id="Group_5">
<path id="Vector_12" fill-rule="evenodd" clip-rule="evenodd" d="M85.6299 17.5996L56.1099 2.26965C54.9699 1.67965 53.6199 1.67965 52.4799 2.26965L22.96 17.5996L54.2899 32.2196L85.6199 17.5996H85.6299Z" fill="#2F3F64"/>
<path id="Vector_13" d="M54.2899 33.2199C54.1499 33.2199 53.9999 33.19 53.8699 33.13L22.5399 18.51C22.1899 18.35 21.97 18.01 21.96 17.63C21.96 17.25 22.1599 16.8999 22.4999 16.7199L52.02 1.38996C53.44 0.649961 55.1499 0.649961 56.5699 1.38996L86.09 16.7199C86.43 16.8999 86.6399 17.25 86.6299 17.63C86.6299 18.01 86.3999 18.35 86.0499 18.51L54.7199 33.13C54.5899 33.19 54.4399 33.2199 54.2999 33.2199H54.2899ZM25.2199 17.55L54.2899 31.1199L83.3599 17.55L55.64 3.14997C54.79 2.70997 53.7799 2.70997 52.9299 3.14997L25.21 17.55H25.2199Z" fill="#2F3F64"/>
</g>
</g>
<g id="Group_6">
<path id="Vector_14" fill-rule="evenodd" clip-rule="evenodd" d="M74.2202 81.3302L83.6602 90.7703C84.0602 91.1703 84.7102 91.1703 85.1102 90.7703L96.5502 79.3302C97.1902 78.6902 96.7402 77.5802 95.8302 77.5802H91.2302V65.7002H77.5602V77.5802H72.9602C72.0502 77.5802 71.5902 78.6802 72.2402 79.3302L74.2402 81.3302H74.2202Z" fill="#FEC95C"/>
<path id="Vector_15" d="M84.3903 92.0702C83.8703 92.0702 83.3503 91.8702 82.9603 91.4802L73.5203 82.0403L71.5203 80.0403C70.9403 79.4603 70.7703 78.5902 71.0803 77.8302C71.3903 77.0702 72.1303 76.5802 72.9503 76.5802H76.5503V65.7002C76.5503 65.1502 77.0003 64.7002 77.5503 64.7002H91.2203C91.7703 64.7002 92.2203 65.1502 92.2203 65.7002V76.5802H95.8203C96.6403 76.5802 97.3703 77.0702 97.6903 77.8302C98.0003 78.5902 97.8303 79.4503 97.2503 80.0403L85.8103 91.4802C85.4203 91.8702 84.9003 92.0702 84.3803 92.0702H84.3903ZM74.9303 80.6202L84.3703 90.0603L95.8403 78.6202L91.2203 78.5802C90.6703 78.5802 90.2203 78.1302 90.2203 77.5802V66.7002H78.5503V77.5802C78.5503 78.1302 78.1003 78.5802 77.5503 78.5802H72.9503L74.9303 80.6202Z" fill="#2F3F64"/>
</g>
<g id="Group_7">
<path id="Vector_16" fill-rule="evenodd" clip-rule="evenodd" d="M15.6099 81.3302L25.0499 90.7703C25.4499 91.1703 26.0999 91.1703 26.4999 90.7703L37.9399 79.3302C38.5799 78.6902 38.1298 77.5802 37.2198 77.5802H32.6199V65.7002H18.9499V77.5802H14.3499C13.4399 77.5802 12.9799 78.6802 13.6299 79.3302L15.6299 81.3302H15.6099Z" fill="#FEC95C"/>
<path id="Vector_17" d="M25.7702 92.0699C25.2502 92.0699 24.7302 91.87 24.3402 91.48L14.9002 82.04L12.9002 80.04C12.3202 79.46 12.1502 78.6 12.4602 77.84C12.7702 77.08 13.5102 76.59 14.3302 76.59H17.9302V65.71C17.9302 65.16 18.3802 64.71 18.9302 64.71H32.6002C33.1502 64.71 33.6002 65.16 33.6002 65.71V76.59H37.2002C38.0202 76.59 38.7502 77.08 39.0702 77.84C39.3802 78.6 39.2102 79.46 38.6302 80.05L27.1902 91.49C26.8002 91.88 26.2802 92.08 25.7602 92.08L25.7702 92.0699ZM16.3102 80.62L25.7502 90.0601L37.2202 78.62L32.6002 78.58C32.0502 78.58 31.6002 78.13 31.6002 77.58V66.7H19.9302V77.58C19.9302 78.13 19.4802 78.58 18.9302 78.58H14.3302L16.3102 80.62Z" fill="#2F3F64"/>
</g>
<g id="Group_8">
<path id="Vector_18" fill-rule="evenodd" clip-rule="evenodd" d="M80.8805 39.4895L80.2905 39.6894C79.8905 39.8294 79.5405 39.6595 79.4405 39.2995C79.2105 38.4495 78.8505 37.6895 78.3805 37.0495C78.1705 36.7695 78.2205 36.2995 78.5105 35.9195L78.9305 35.3595C79.2705 34.8995 79.2705 34.3395 78.9305 34.1095L77.8705 33.3895C77.5305 33.1595 76.9705 33.3395 76.6305 33.7995L76.2105 34.3595C75.9205 34.7495 75.4805 34.9395 75.1305 34.8495C74.3405 34.6295 73.4705 34.5495 72.5505 34.6195C72.1605 34.6495 71.8805 34.3895 71.8805 33.9795V33.3795C71.8805 32.8895 71.4805 32.6195 71.0005 32.7795L69.4805 33.2795C68.9905 33.4395 68.5905 33.9694 68.5905 34.4694V35.0694C68.5905 35.4794 68.3105 35.9295 67.9105 36.1595C66.9805 36.6995 66.1005 37.3595 65.3005 38.1195C64.9505 38.4495 64.5005 38.5495 64.2105 38.3495L63.7805 38.0595C63.4305 37.8295 62.8605 38.0095 62.5205 38.4795L61.4305 39.9295C61.0805 40.3995 61.0805 40.9694 61.4305 41.1994L61.8605 41.4895C62.1505 41.6895 62.2005 42.1195 61.9905 42.5495C61.5005 43.5195 61.1305 44.5295 60.9005 45.5495C60.8005 45.9895 60.4405 46.3895 60.0305 46.5295L59.4205 46.7295C58.9205 46.8995 58.5205 47.4395 58.5205 47.9295V49.4795C58.5205 49.9795 58.9205 50.2394 59.4205 50.0794L60.0305 49.8695C60.4405 49.7295 60.8005 49.8895 60.9005 50.2595C61.1305 51.1195 61.5105 51.8795 61.9905 52.5295C62.2005 52.8095 62.1505 53.2795 61.8605 53.6795L61.4305 54.2595C61.0805 54.7295 61.0805 55.2995 61.4305 55.5295L62.5205 56.2495C62.8705 56.4795 63.4405 56.2795 63.7805 55.8095L64.2105 55.2295C64.5005 54.8395 64.9505 54.6294 65.3005 54.7194C66.1005 54.9294 66.9805 54.9995 67.9105 54.9095C68.3105 54.8695 68.5905 55.1295 68.5905 55.5395V56.1395C68.5905 56.6295 68.9905 56.8995 69.4805 56.7295L71.0005 56.1994C71.4905 56.0294 71.8805 55.4895 71.8805 54.9995V54.3995C71.8805 53.9895 72.1605 53.5395 72.5505 53.2995C73.4705 52.7495 74.3405 52.0794 75.1305 51.3294C75.4805 50.9994 75.9205 50.8994 76.2105 51.0894L76.6305 51.3695C76.9705 51.5995 77.5305 51.4094 77.8705 50.9394L78.9305 49.4995C79.2705 49.0395 79.2705 48.4795 78.9305 48.2495L78.5105 47.9694C78.2205 47.7794 78.1805 47.3495 78.3805 46.9195C78.8505 45.9595 79.2105 44.9594 79.4405 43.9494C79.5405 43.5194 79.8805 43.1195 80.2905 42.9895L80.8805 42.7895C81.3605 42.6295 81.7505 42.0995 81.7505 41.6095V40.0894C81.7505 39.5994 81.3605 39.3395 80.8805 39.4995V39.4895ZM70.2305 50.3394C67.1605 51.3894 64.6605 49.7295 64.6605 46.6295C64.6605 43.5295 67.1605 40.1695 70.2305 39.1495C73.2905 38.1295 75.7505 39.7995 75.7505 42.8795C75.7505 45.9595 73.2805 49.2894 70.2305 50.3394Z" fill="#2F3F64"/>
<path id="Vector_19" d="M69.1802 57.7798C68.8402 57.7798 68.5202 57.6798 68.2502 57.4898C67.8302 57.1898 67.5803 56.6998 67.5803 56.1398V55.9298C66.7303 55.9798 65.9002 55.8997 65.1202 55.6997C65.0902 55.7197 65.0402 55.7498 65.0002 55.8098L64.5703 56.3898C63.9003 57.2898 62.7503 57.5897 61.9503 57.0697L60.8602 56.3498C60.5002 56.1098 60.2502 55.7298 60.1702 55.2898C60.0702 54.7498 60.2302 54.1498 60.6002 53.6498L61.0303 53.0697C61.0303 53.0697 61.0603 53.0198 61.0703 52.9998C60.6203 52.3798 60.2703 51.6798 60.0203 50.9098L59.7103 51.0198C59.1503 51.2098 58.5903 51.1397 58.1503 50.8197C57.7303 50.5197 57.4902 50.0298 57.4902 49.4698V47.9198C57.4902 46.9998 58.1703 46.0698 59.0703 45.7698L59.6802 45.5598C59.7602 45.5298 59.8703 45.4098 59.8903 45.3098C60.1303 44.2498 60.5203 43.1798 61.0303 42.1398L60.8403 42.0098C60.4803 41.7698 60.2402 41.3897 60.1602 40.9397C60.0702 40.3997 60.2302 39.7998 60.6002 39.3098L61.6902 37.8598C62.3602 36.9598 63.5202 36.6697 64.3102 37.2097L64.5703 37.3798C64.5703 37.3798 64.5903 37.3698 64.5903 37.3598C65.4603 36.5498 66.4002 35.8398 67.3802 35.2698C67.4902 35.2098 67.5602 35.0798 67.5602 35.0398V34.4397C67.5602 33.5197 68.2402 32.5998 69.1302 32.2998L70.6503 31.7998C71.2003 31.6198 71.7602 31.6898 72.1902 31.9998C72.6102 32.2998 72.8502 32.7898 72.8502 33.3498V33.5697C73.7002 33.5397 74.5202 33.6297 75.2902 33.8297C75.3202 33.8097 75.3503 33.7798 75.3903 33.7398L75.8102 33.1798C76.4802 32.2798 77.6202 31.9998 78.4102 32.5398L79.4702 33.2598C79.8302 33.4998 80.0603 33.8797 80.1403 34.3297C80.2303 34.8697 80.0703 35.4497 79.7103 35.9397L79.2902 36.4998C79.2902 36.4998 79.2602 36.5398 79.2502 36.5598C79.6902 37.1798 80.0303 37.8698 80.2703 38.6198L80.5402 38.5298C81.0802 38.3498 81.6403 38.4198 82.0703 38.7298C82.4903 39.0298 82.7302 39.5197 82.7302 40.0697V41.5898C82.7302 42.4998 82.0602 43.4198 81.1802 43.7198L80.5903 43.9198C80.5303 43.9398 80.4203 44.0498 80.4003 44.1598C80.1603 45.2098 79.7902 46.2598 79.2902 47.2898L79.4603 47.4098C79.8103 47.6498 80.0502 48.0197 80.1302 48.4597C80.2202 48.9997 80.0703 49.5897 79.7103 50.0797L78.6503 51.5198C77.9803 52.4198 76.8402 52.7097 76.0502 52.1897L75.8102 52.0298C75.8102 52.0298 75.8102 52.0298 75.8002 52.0398C74.9402 52.8598 74.0102 53.5698 73.0402 54.1498C72.9302 54.2198 72.8602 54.3498 72.8502 54.3898V54.9898C72.8502 55.8998 72.1802 56.8198 71.2902 57.1298L69.7703 57.6598C69.5603 57.7298 69.3503 57.7698 69.1503 57.7698L69.1802 57.7798ZM67.9802 53.8998C68.3902 53.8998 68.7702 54.0398 69.0602 54.3098C69.4002 54.6198 69.5803 55.0498 69.5803 55.5398V55.6298L70.6602 55.2598C70.7502 55.2298 70.8602 55.0798 70.8702 54.9998V54.3998C70.8702 53.6298 71.3303 52.8697 72.0303 52.4397C72.8803 51.9297 73.6902 51.3198 74.4402 50.5998C75.1302 49.9398 76.0903 49.7998 76.7603 50.2498L77.0002 50.4098C77.0002 50.4098 77.0402 50.3698 77.0602 50.3398L78.1202 48.8998L77.9503 48.7898C77.2403 48.3098 77.0502 47.3598 77.4902 46.4698C77.9402 45.5598 78.2702 44.6398 78.4702 43.7198C78.6402 42.9598 79.2502 42.2798 79.9702 42.0298L80.5602 41.8297C80.6402 41.7997 80.7402 41.6598 80.7502 41.5898V40.5797L80.6102 40.6298C80.1402 40.7898 79.6602 40.7598 79.2502 40.5398C78.8702 40.3298 78.5902 39.9798 78.4802 39.5498C78.2902 38.8298 77.9803 38.1898 77.5803 37.6398C77.1003 36.9998 77.1603 36.0597 77.7103 35.3197L78.1302 34.7598L77.4902 34.3197C77.4902 34.3197 77.4602 34.3598 77.4402 34.3798L77.0203 34.9397C76.4903 35.6597 75.6302 35.9998 74.8702 35.7898C74.1802 35.5998 73.4302 35.5298 72.6302 35.5998C72.1602 35.6398 71.7203 35.4897 71.3903 35.1897C71.0603 34.8797 70.8702 34.4497 70.8702 33.9597V33.8498L69.7803 34.2097C69.7003 34.2397 69.5903 34.3797 69.5803 34.4497V35.0498C69.5803 35.8198 69.1202 36.5898 68.4102 37.0098C67.5502 37.5098 66.7402 38.1197 65.9802 38.8297C65.2802 39.4797 64.3203 39.6198 63.6403 39.1598L63.3802 38.9898C63.3802 38.9898 63.3302 39.0297 63.3102 39.0697L62.2202 40.5198L62.4102 40.6398C63.1302 41.1198 63.3202 42.0798 62.8802 42.9798C62.4202 43.8998 62.0802 44.8298 61.8702 45.7598C61.6902 46.5398 61.0903 47.2097 60.3403 47.4597L59.7302 47.6698C59.6302 47.6998 59.5203 47.8598 59.5103 47.9298V48.9798L59.7003 48.9198C60.1803 48.7598 60.6703 48.7898 61.0803 48.9998C61.4703 49.2098 61.7402 49.5598 61.8602 49.9898C62.0602 50.7198 62.3703 51.3698 62.7803 51.9198C63.2703 52.5698 63.2202 53.5098 62.6602 54.2598L62.2302 54.8398L62.9003 55.2798C62.9003 55.2798 62.9502 55.2297 62.9802 55.1897L63.4102 54.6098C63.9402 53.8898 64.8102 53.5298 65.5602 53.7298C66.2602 53.9098 67.0203 53.9598 67.8303 53.8898C67.8903 53.8898 67.9402 53.8898 68.0002 53.8898L67.9802 53.8998ZM68.4402 51.6498C67.3902 51.6498 66.4102 51.3598 65.6102 50.7898C64.3502 49.8898 63.6503 48.4098 63.6503 46.6298C63.6503 43.0698 66.4002 39.3697 69.9102 38.1997C71.7202 37.5897 73.5002 37.7898 74.8002 38.7198C76.0502 39.6198 76.7502 41.0998 76.7502 42.8698C76.7502 46.3898 74.0302 50.0898 70.5502 51.2798C69.8302 51.5298 69.1202 51.6498 68.4402 51.6498ZM71.9702 39.8398C71.5202 39.8398 71.0402 39.9198 70.5502 40.0898C67.9002 40.9698 65.6602 43.9698 65.6602 46.6198C65.6602 47.7398 66.0603 48.6398 66.7803 49.1598C67.5703 49.7298 68.6802 49.8098 69.9102 49.3898C72.5402 48.4898 74.7603 45.5098 74.7603 42.8698C74.7603 41.7598 74.3603 40.8598 73.6403 40.3398C73.1803 40.0098 72.6102 39.8398 71.9802 39.8398H71.9702Z" fill="#2F3F64"/>
</g>
</g>
</svg>
