<svg width="127" height="108" viewBox="0 0 127 108" fill="none" xmlns="http://www.w3.org/2000/svg">
<path d="M85.6095 19.92H5.04953C2.40953 19.92 0.269531 17.78 0.269531 15.14V4.78C0.269531 2.14 2.40953 0 5.04953 0H85.6095C88.2495 0 90.3895 2.14 90.3895 4.78V15.14C90.3895 17.78 88.2495 19.92 85.6095 19.92ZM5.04953 2C3.51953 2 2.26953 3.25 2.26953 4.78V15.14C2.26953 16.67 3.51953 17.92 5.04953 17.92H85.6095C87.1395 17.92 88.3895 16.67 88.3895 15.14V4.78C88.3895 3.25 87.1395 2 85.6095 2H5.04953Z" fill="#2F3F64"/>
<path d="M85.6095 44.8897H5.04953C2.40953 44.8897 0.269531 42.7497 0.269531 40.1097V29.7497C0.269531 27.1097 2.40953 24.9697 5.04953 24.9697H85.6095C88.2495 24.9697 90.3895 27.1097 90.3895 29.7497V40.1097C90.3895 42.7497 88.2495 44.8897 85.6095 44.8897ZM5.04953 26.9697C3.51953 26.9697 2.26953 28.2197 2.26953 29.7497V40.1097C2.26953 41.6397 3.51953 42.8897 5.04953 42.8897H85.6095C87.1395 42.8897 88.3895 41.6397 88.3895 40.1097V29.7497C88.3895 28.2197 87.1395 26.9697 85.6095 26.9697H5.04953Z" fill="#2F3F64"/>
<path d="M69.0695 50.9502H85.6095C87.6995 50.9502 89.3895 52.6402 89.3895 54.7302V65.0902C89.3895 67.1802 87.6995 68.8702 85.6095 68.8702H5.04953C2.95953 68.8702 1.26953 67.1802 1.26953 65.0902V54.7302C1.26953 52.6402 2.95953 50.9502 5.04953 50.9502H50.9195" fill="#BCC5DC"/>
<path d="M85.6095 69.8702H5.04953C2.40953 69.8702 0.269531 67.7302 0.269531 65.0902V54.7302C0.269531 52.0902 2.40953 49.9502 5.04953 49.9502H50.9195C51.4695 49.9502 51.9195 50.4002 51.9195 50.9502C51.9195 51.5002 51.4695 51.9502 50.9195 51.9502H5.04953C3.51953 51.9502 2.26953 53.2002 2.26953 54.7302V65.0902C2.26953 66.6202 3.51953 67.8702 5.04953 67.8702H85.6095C87.1395 67.8702 88.3895 66.6202 88.3895 65.0902V54.7302C88.3895 53.2002 87.1395 51.9502 85.6095 51.9502H69.0695C68.5195 51.9502 68.0695 51.5002 68.0695 50.9502C68.0695 50.4002 68.5195 49.9502 69.0695 49.9502H85.6095C88.2495 49.9502 90.3895 52.0902 90.3895 54.7302V65.0902C90.3895 67.7302 88.2495 69.8702 85.6095 69.8702Z" fill="#2F3F64"/>
<path d="M65.2893 68.6199H5.0593C2.9693 68.6199 1.2793 67.0398 1.2793 65.0898V104.39C1.2793 105.46 2.2093 106.33 3.3493 106.33H66.9993C68.1393 106.33 69.0693 105.46 69.0693 104.39V65.0898C69.0693 67.0398 67.3793 68.6199 65.2893 68.6199Z" fill="white"/>
<path d="M66.9895 107.33H3.33952C1.64952 107.33 0.269531 106.01 0.269531 104.39V65.0898C0.269531 64.5398 0.719531 64.0898 1.26953 64.0898C1.81953 64.0898 2.26953 64.5398 2.26953 65.0898C2.26953 66.4898 3.51953 67.6199 5.04953 67.6199H65.2795C66.8095 67.6199 68.0595 66.4798 68.0595 65.0898C68.0595 64.5398 68.5095 64.0898 69.0595 64.0898C69.6095 64.0898 70.0595 64.5398 70.0595 65.0898V104.39C70.0595 106.01 68.6795 107.33 66.9895 107.33ZM2.26953 68.7798V104.39C2.26953 104.91 2.74952 105.33 3.33952 105.33H66.9895C67.5795 105.33 68.0595 104.91 68.0595 104.39V68.7798C67.2795 69.3098 66.3195 69.6298 65.2795 69.6298H5.04953C4.00953 69.6298 3.04953 69.3198 2.26953 68.7798Z" fill="#2F3F64"/>
<path d="M86.0093 1H69.0693V18.92H86.0093C87.8793 18.92 89.3893 17.41 89.3893 15.54V4.38C89.3893 2.51 87.8793 1 86.0093 1Z" fill="#2F3F64"/>
<path d="M86.0093 19.92H69.0693C68.5193 19.92 68.0693 19.47 68.0693 18.92V1C68.0693 0.45 68.5193 0 69.0693 0H86.0093C88.4293 0 90.3893 1.96 90.3893 4.38V15.54C90.3893 17.96 88.4193 19.92 86.0093 19.92ZM70.0693 17.92H86.0093C87.3193 17.92 88.3893 16.85 88.3893 15.54V4.38C88.3893 3.07 87.3193 2 86.0093 2H70.0693V17.92Z" fill="#2F3F64"/>
<path d="M86.0093 25.9697H69.0693V43.8897H86.0093C87.8793 43.8897 89.3893 42.3797 89.3893 40.5097V29.3497C89.3893 27.4797 87.8793 25.9697 86.0093 25.9697Z" fill="#2F3F64"/>
<path d="M86.0093 44.8897H69.0693C68.5193 44.8897 68.0693 44.4397 68.0693 43.8897V25.9697C68.0693 25.4197 68.5193 24.9697 69.0693 24.9697H86.0093C88.4293 24.9697 90.3893 26.9297 90.3893 29.3497V40.5097C90.3893 42.9297 88.4193 44.8897 86.0093 44.8897ZM70.0693 42.8897H86.0093C87.3193 42.8897 88.3893 41.8197 88.3893 40.5097V29.3497C88.3893 28.0397 87.3193 26.9697 86.0093 26.9697H70.0693V42.8897Z" fill="#2F3F64"/>
<path d="M86.0093 50.9502H69.0693V68.6202H86.0093C87.8793 68.6202 89.3893 67.1302 89.3893 65.2902V54.2902C89.3893 52.4502 87.8793 50.9602 86.0093 50.9602V50.9502Z" fill="#FEC95C"/>
<path d="M86.0093 69.6202H69.0693C68.5193 69.6202 68.0693 69.1702 68.0693 68.6202V50.9502C68.0693 50.4002 68.5193 49.9502 69.0693 49.9502H86.0093C88.4293 49.9502 90.3893 51.8902 90.3893 54.2802V65.2802C90.3893 67.6702 88.4193 69.6102 86.0093 69.6102V69.6202ZM70.0693 67.6202H86.0093C87.3193 67.6202 88.3893 66.5702 88.3893 65.2902V54.2902C88.3893 53.0002 87.3193 51.9602 86.0093 51.9602H70.0693V67.6302V67.6202Z" fill="#2F3F64"/>
<path d="M77.9792 15.05C77.7192 15.05 77.4692 14.95 77.2692 14.76C76.8792 14.37 76.8792 13.74 77.2692 13.35L80.9492 9.67005L77.0892 6.48005C76.6592 6.13005 76.5992 5.50005 76.9592 5.07005C77.3092 4.65005 77.9392 4.59005 78.3692 4.94005L83.0791 8.83005C83.2991 9.01005 83.4292 9.27005 83.4392 9.55005C83.4492 9.83005 83.3492 10.1 83.1492 10.3L78.6992 14.75C78.4992 14.95 78.2492 15.04 77.9892 15.04L77.9792 15.05Z" fill="white"/>
<path d="M77.9792 40.1096C77.7192 40.1096 77.4692 40.0096 77.2692 39.8196C76.8792 39.4296 76.8792 38.7996 77.2692 38.4096L80.9492 34.7296L77.0892 31.5396C76.6592 31.1896 76.5992 30.5596 76.9592 30.1296C77.3092 29.7096 77.9392 29.6496 78.3692 29.9996L83.0791 33.8896C83.2991 34.0696 83.4292 34.3296 83.4392 34.6096C83.4492 34.8896 83.3492 35.1596 83.1492 35.3596L78.6992 39.8096C78.4992 40.0096 78.2492 40.0996 77.9892 40.0996L77.9792 40.1096Z" fill="white"/>
<path d="M79.4896 63.2902C79.2096 63.2902 78.9396 63.1702 78.7496 62.9602L74.7196 58.5102C74.3496 58.1002 74.3796 57.4702 74.7896 57.1002C75.1996 56.7302 75.8296 56.7602 76.1996 57.1702L79.4896 60.8102L83.0696 56.9102C83.4396 56.5002 84.0796 56.4802 84.4796 56.8502C84.8896 57.2202 84.9096 57.8602 84.5396 58.2602L80.2196 62.9702C80.0296 63.1802 79.7596 63.2902 79.4796 63.2902H79.4896Z" fill="#2F3F64"/>
<path d="M82.5393 66.97L101.819 103.99L105.439 91.28C106.409 87.88 108.769 85 111.919 83.39L124.269 77.05L82.5293 66.96L82.5393 66.97Z" fill="white"/>
<path d="M101.859 106.27C101.179 106.27 100.559 105.9 100.239 105.28L80.5992 67.5701C80.2692 66.9301 80.3392 66.1501 80.7892 65.5901C81.2292 65.0301 81.9592 64.7701 82.6692 64.9401L125.189 75.2201C125.929 75.4001 126.489 76.0301 126.579 76.7901C126.669 77.5501 126.269 78.2901 125.589 78.6401L112.839 85.1801C110.179 86.5401 108.189 88.9701 107.369 91.8401L103.629 104.94C103.429 105.66 102.809 106.19 102.049 106.26C101.989 106.26 101.919 106.26 101.859 106.26V106.27ZM82.5392 66.9701L101.819 103.99L105.439 91.2801C106.409 87.8801 108.769 85.0001 111.919 83.3901L124.269 77.0501L82.5292 66.9601L82.5392 66.9701Z" fill="#2F3F64"/>
<path d="M60.4593 77.1602H9.61929C9.15537 77.1602 8.7793 77.5362 8.7793 78.0002V80.9402C8.7793 81.4041 9.15537 81.7802 9.61929 81.7802H60.4593C60.9232 81.7802 61.2993 81.4041 61.2993 80.9402V78.0002C61.2993 77.5362 60.9232 77.1602 60.4593 77.1602Z" fill="#BCC5DC"/>
<path d="M60.4593 86.25H9.61929C9.15537 86.25 8.7793 86.6261 8.7793 87.09V90.03C8.7793 90.4939 9.15537 90.87 9.61929 90.87H60.4593C60.9232 90.87 61.2993 90.4939 61.2993 90.03V87.09C61.2993 86.6261 60.9232 86.25 60.4593 86.25Z" fill="#BCC5DC"/>
<path d="M47.5993 95.3398H9.61929C9.15537 95.3398 8.7793 95.7159 8.7793 96.1798V99.1199C8.7793 99.5838 9.15537 99.9598 9.61929 99.9598H47.5993C48.0632 99.9598 48.4393 99.5838 48.4393 99.1199V96.1798C48.4393 95.7159 48.0632 95.3398 47.5993 95.3398Z" fill="#BCC5DC"/>
<path d="M61.2993 60.9404H8.7793C8.2293 60.9404 7.7793 60.4904 7.7793 59.9404C7.7793 59.3904 8.2293 58.9404 8.7793 58.9404H61.2993C61.8493 58.9404 62.2993 59.3904 62.2993 59.9404C62.2993 60.4904 61.8493 60.9404 61.2993 60.9404Z" fill="#2F3F64"/>
<path d="M61.2993 35.9297H8.7793C8.2293 35.9297 7.7793 35.4797 7.7793 34.9297C7.7793 34.3797 8.2293 33.9297 8.7793 33.9297H61.2993C61.8493 33.9297 62.2993 34.3797 62.2993 34.9297C62.2993 35.4797 61.8493 35.9297 61.2993 35.9297Z" fill="#2F3F64"/>
<path d="M61.2993 10.96H8.7793C8.2293 10.96 7.7793 10.51 7.7793 9.95996C7.7793 9.40996 8.2293 8.95996 8.7793 8.95996H61.2993C61.8493 8.95996 62.2993 9.40996 62.2993 9.95996C62.2993 10.51 61.8493 10.96 61.2993 10.96Z" fill="#2F3F64"/>
</svg>
