<svg width="127" height="88" viewBox="0 0 127 88" fill="none" xmlns="http://www.w3.org/2000/svg">
<path d="M116.38 2.31969C115.49 1.41969 114.3 0.929688 113.03 0.929688H12.9096C10.2996 0.929688 8.1596 3.05969 8.1496 5.66969L7.84961 74.4297C7.84961 75.6997 8.32961 76.8897 9.22961 77.7897C10.1196 78.6897 11.3196 79.1797 12.5796 79.1797H112.7C115.32 79.1797 117.45 77.0497 117.46 74.4397L117.76 5.67969C117.76 4.40969 117.28 3.21969 116.38 2.31969Z" fill="#2F3F64"/>
<path fill-rule="evenodd" clip-rule="evenodd" d="M122.5 75.0898H82.32C79.98 75.0898 78.08 76.9898 78.08 79.3298V79.7898H47.77V79.3298C47.77 76.9898 45.87 75.0898 43.53 75.0898H4.92999C3.03999 75.0898 1.5 76.6198 1.5 78.5198V83.3098C1.5 85.1998 3.02999 86.7398 4.92999 86.7398H122.5C124.39 86.7398 125.93 85.2098 125.93 83.3098V78.5198C125.93 76.6298 124.4 75.0898 122.5 75.0898Z" fill="#BCC5DC"/>
<path d="M122.5 87.7296H4.92975C2.48975 87.7296 0.509766 85.7496 0.509766 83.3096V78.5196C0.509766 76.0796 2.48975 74.0996 4.92975 74.0996H43.5298C46.2398 74.0996 48.4697 76.1696 48.7397 78.7996H77.1198C77.3897 76.1596 79.6197 74.0996 82.3297 74.0996H122.51C124.95 74.0996 126.93 76.0796 126.93 78.5196V83.3096C126.93 85.7496 124.95 87.7296 122.51 87.7296H122.5ZM4.92975 76.0796C3.58975 76.0796 2.48975 77.1696 2.48975 78.5196V83.3096C2.48975 84.6496 3.57975 85.7496 4.92975 85.7496H122.5C123.84 85.7496 124.94 84.6596 124.94 83.3096V78.5196C124.94 77.1796 123.85 76.0796 122.5 76.0796H82.3198C80.5298 76.0796 79.0698 77.5396 79.0698 79.3296V79.7896C79.0698 80.3396 78.6297 80.7796 78.0797 80.7796H47.7697C47.2197 80.7796 46.7798 80.3396 46.7798 79.7896V79.3296C46.7798 77.5396 45.3198 76.0796 43.5298 76.0796H4.92975Z" fill="#2F3F64"/>
<path d="M106.529 9.30957H19.6094C16.848 9.30957 14.6094 11.5481 14.6094 14.3096V63.1496C14.6094 65.911 16.848 68.1496 19.6094 68.1496H106.529C109.291 68.1496 111.529 65.911 111.529 63.1496V14.3096C111.529 11.5481 109.291 9.30957 106.529 9.30957Z" fill="white"/>
<path d="M62.8 7.61945C61.37 7.61945 60.21 6.45945 60.21 5.02945C60.21 3.59945 61.37 2.43945 62.8 2.43945C64.23 2.43945 65.39 3.59945 65.39 5.02945C65.39 6.45945 64.23 7.61945 62.8 7.61945Z" fill="#BCC5DC"/>
<path d="M56.4291 58.7094L77.0191 62.5694C79.3591 63.0094 81.5991 61.4694 82.0391 59.1294L86.9191 33.0794C87.1591 31.8194 86.8191 30.5194 85.9891 29.5294L77.6491 19.5394C76.1191 17.7094 73.4991 17.2194 71.4091 18.3694L60.0191 24.6594C58.8991 25.2794 58.1091 26.3694 57.8691 27.6294L52.9891 53.6794C52.5491 56.0194 54.0891 58.2594 56.4291 58.6994V58.7094Z" fill="#2F3F64"/>
<path d="M77.8195 63.6398C77.4895 63.6398 77.1595 63.6098 76.8295 63.5498L56.2395 59.6898C54.8495 59.4298 53.6395 58.6398 52.8395 57.4698C52.0395 56.2998 51.7395 54.8898 51.9995 53.4998L56.8795 27.4498C57.1695 25.8898 58.1395 24.5498 59.5295 23.7798L70.9195 17.4898C73.4295 16.1098 76.5695 16.6998 78.4095 18.8898L86.7495 28.8798C87.7695 30.0998 88.1795 31.6898 87.8895 33.2598L83.0095 59.3098C82.7495 60.6998 81.9595 61.9098 80.7895 62.7098C79.8995 63.3198 78.8695 63.6398 77.8095 63.6398H77.8195ZM56.6095 57.7298L77.1995 61.5898C78.0695 61.7598 78.9495 61.5698 79.6695 61.0698C80.3995 60.5698 80.8895 59.8198 81.0495 58.9498L85.9295 32.8998C86.1095 31.9298 85.8495 30.9298 85.2195 30.1698L76.8795 20.1798C75.6595 18.7198 73.5595 18.3198 71.8895 19.2498L60.4995 25.5398C59.6295 26.0198 59.0295 26.8498 58.8495 27.8198L53.9695 53.8698C53.8095 54.7398 53.9895 55.6198 54.4895 56.3398C54.9895 57.0698 55.7395 57.5598 56.6095 57.7198V57.7298Z" fill="#2F3F64"/>
<path d="M73.8548 30.7301C75.4728 30.1878 76.3449 28.4364 75.8025 26.8183C75.2602 25.2002 73.5088 24.3282 71.8907 24.8705C70.2727 25.4129 69.4006 27.1643 69.9429 28.7823C70.4853 30.4004 72.2367 31.2725 73.8548 30.7301Z" fill="#2F3F64"/>
<path d="M72.8791 31.8895C72.6291 31.8895 72.3691 31.8695 72.1191 31.8195C71.0491 31.6195 70.1191 31.0095 69.4991 30.1095C68.8791 29.2095 68.6491 28.1195 68.8591 27.0495C69.0591 25.9795 69.6691 25.0495 70.5691 24.4295C71.4691 23.8095 72.5591 23.5895 73.6291 23.7895C74.6991 23.9895 75.6291 24.5995 76.2491 25.4995C76.8691 26.3995 77.0991 27.4895 76.8891 28.5595C76.6891 29.6295 76.0791 30.5595 75.1791 31.1795C74.4891 31.6495 73.6991 31.8895 72.8791 31.8895ZM72.8591 25.7195C72.4391 25.7195 72.0391 25.8395 71.6891 26.0895C71.2291 26.3995 70.9191 26.8795 70.8191 27.4295C70.7191 27.9795 70.8291 28.5295 71.1491 28.9895C71.4691 29.4495 71.9391 29.7595 72.4891 29.8595C73.0391 29.9595 73.5891 29.8495 74.0491 29.5295C74.5091 29.2195 74.8191 28.7395 74.9191 28.1895C75.1291 27.0595 74.3791 25.9695 73.2491 25.7595C73.1191 25.7395 72.9891 25.7195 72.8591 25.7195Z" fill="#2F3F64"/>
<path d="M46.7902 52.1202L64.9502 61.3902C67.0102 62.4402 69.5301 61.6202 70.5801 59.5602L82.3101 36.5702C82.8801 35.4602 82.9202 34.1502 82.4202 33.0002L77.3802 21.3802C76.4602 19.2502 74.1502 18.0702 71.8802 18.5702L59.5102 21.3102C58.2902 21.5802 57.2502 22.3802 56.6902 23.5002L44.9601 46.4902C43.9101 48.5502 44.7302 51.0702 46.7902 52.1202Z" fill="#BCC5DC"/>
<path d="M66.8401 62.8498C66.0501 62.8498 65.2401 62.6698 64.4901 62.2798L46.3301 53.0098C43.7801 51.7098 42.7701 48.5798 44.0701 46.0298L55.8001 23.0398C56.5101 21.6598 57.7801 20.6698 59.3001 20.3298L71.6701 17.5898C74.4001 16.9898 77.1901 18.4098 78.3101 20.9798L83.3501 32.5998C83.9701 34.0298 83.9201 35.6398 83.2101 37.0198L71.4801 60.0098C70.5601 61.8098 68.7401 62.8398 66.8501 62.8398L66.8401 62.8498ZM47.2401 51.2298L65.4001 60.4998C66.9701 61.2998 68.8901 60.6698 69.6901 59.1098L81.4201 36.1198C81.8501 35.2698 81.8801 34.2798 81.5001 33.3998L76.4601 21.7798C75.7301 20.0898 73.8901 19.1598 72.0901 19.5498L59.7201 22.2898C58.7901 22.4998 58.0001 23.0998 57.5701 23.9498L45.8401 46.9398C45.0401 48.5098 45.6701 50.4298 47.2301 51.2298H47.2401Z" fill="#2F3F64"/>
<path d="M73.6657 27.8173C73.6807 26.1605 72.3498 24.8052 70.693 24.7902C69.0362 24.7751 67.6809 26.106 67.6659 27.7628C67.6509 29.4196 68.9818 30.7749 70.6385 30.7899C72.2953 30.805 73.6506 29.4741 73.6657 27.8173Z" fill="#BCC5DC"/>
<path d="M70.64 31.7898C70.03 31.7898 69.41 31.6498 68.83 31.3498C66.86 30.3498 66.08 27.9298 67.08 25.9598C68.08 23.9898 70.5 23.2098 72.47 24.2098C74.44 25.2098 75.22 27.6298 74.22 29.5998C73.51 30.9898 72.11 31.7798 70.65 31.7798L70.64 31.7898ZM70.65 25.7798C70.44 25.7798 70.23 25.8098 70.03 25.8798C69.52 26.0498 69.11 26.3998 68.86 26.8798C68.36 27.8598 68.75 29.0699 69.73 29.5799C70.21 29.8199 70.75 29.8698 71.26 29.6998C71.77 29.5298 72.18 29.1798 72.43 28.6998C72.93 27.7198 72.54 26.5098 71.56 25.9998C71.27 25.8498 70.96 25.7798 70.65 25.7798Z" fill="#2F3F64"/>
<path d="M34.7904 42.9694L50.6604 58.8394C52.4604 60.6394 55.3804 60.6394 57.1804 58.8394L77.2704 38.7494C78.2404 37.7794 78.7304 36.4194 78.6004 35.0494L77.2704 21.1694C77.0304 18.6194 75.0104 16.6094 72.4604 16.3594L58.5804 15.0294C57.2104 14.8994 55.8504 15.3894 54.8804 16.3594L34.7904 36.4494C32.9904 38.2494 32.9904 41.1694 34.7904 42.9694Z" fill="#FEC95C"/>
<path d="M53.92 61.1895C52.48 61.1895 51.05 60.6395 49.95 59.5495L34.08 43.6795C31.89 41.4895 31.89 37.9295 34.08 35.7495L54.17 15.6595C55.36 14.4695 57 13.8795 58.67 14.0395L72.55 15.3695C75.57 15.6595 77.97 18.0595 78.26 21.0795L79.59 34.9595C79.75 36.6295 79.16 38.2695 77.97 39.4595L57.88 59.5495C56.79 60.6395 55.35 61.1895 53.91 61.1895H53.92ZM35.5 42.2595L51.37 58.1295C52.78 59.5395 55.07 59.5395 56.48 58.1295L76.57 38.0395C77.33 37.2795 77.71 36.2195 77.61 35.1395L76.28 21.2595C76.08 19.1895 74.44 17.5495 72.37 17.3495L58.49 16.0195C57.41 15.9195 56.36 16.2995 55.59 17.0595L35.5 37.1495C34.09 38.5595 34.09 40.8495 35.5 42.2595Z" fill="#2F3F64"/>
<path d="M71.3575 25.6959C71.4156 23.8687 69.9815 22.3405 68.1543 22.2824C66.3272 22.2244 64.7989 23.6585 64.7409 25.4856C64.6828 27.3128 66.1169 28.841 67.9441 28.8991C69.7712 28.9571 71.2995 27.523 71.3575 25.6959Z" fill="white"/>
<path d="M68.0402 29.8991C66.8902 29.8991 65.8102 29.4491 65.0002 28.6391C63.3202 26.9591 63.3202 24.2291 65.0002 22.5491C65.8102 21.7391 66.8902 21.2891 68.0402 21.2891C69.1902 21.2891 70.2702 21.7391 71.0802 22.5491C72.7602 24.2291 72.7602 26.9591 71.0802 28.6391C70.2702 29.4491 69.1902 29.8991 68.0402 29.8991ZM66.4102 23.9591C65.5102 24.8591 65.5102 26.3191 66.4102 27.2191C67.3102 28.1191 68.7702 28.1191 69.6702 27.2191C70.5702 26.3191 70.5702 24.8591 69.6702 23.9591C68.7702 23.0591 67.3102 23.0591 66.4102 23.9591Z" fill="#2F3F64"/>
</svg>
