<svg viewBox="0 0 130 128" fill="none" xmlns="http://www.w3.org/2000/svg">
<g id="technical-assistance-2">
<path id="Vector" d="M6.62036 1.33984H108.16C111.03 1.33984 113.37 3.66993 113.37 6.54993V100.28C113.37 103.15 111.04 105.49 108.16 105.49H6.61035C3.74035 105.49 1.40039 103.16 1.40039 100.28V6.54993C1.40039 3.67993 3.73035 1.33984 6.61035 1.33984H6.62036Z" fill="white"/>
<path id="Vector_2" d="M108.17 106.48H6.62988C3.20988 106.48 0.419922 103.69 0.419922 100.27V6.54016C0.419922 3.12016 3.19988 0.330078 6.62988 0.330078H108.17C111.59 0.330078 114.38 3.11016 114.38 6.54016V46.8002C114.38 47.3502 113.93 47.8002 113.38 47.8002C112.83 47.8002 112.38 47.3502 112.38 46.8002V6.54016C112.38 4.22016 110.49 2.33008 108.17 2.33008H6.62988C4.30988 2.33008 2.41992 4.22016 2.41992 6.54016V100.27C2.41992 102.59 4.30988 104.48 6.62988 104.48H108.17C110.49 104.48 112.38 102.59 112.38 100.27V80.8002C112.38 80.2502 112.83 79.8002 113.38 79.8002C113.93 79.8002 114.38 80.2502 114.38 80.8002V100.27C114.38 103.69 111.6 106.48 108.17 106.48Z" fill="#2F3F64"/>
<path id="Vector_3" fill-rule="evenodd" clip-rule="evenodd" d="M106.98 85.1707C101.92 82.7707 98.4102 77.6106 98.4102 71.6406C98.4102 66.4206 101.09 61.8206 105.15 59.1406V68.1506L105.02 68.3007L113.43 76.7106L121.71 68.4307L121.61 68.3007H121.71V59.2206C125.7 61.9106 128.32 66.4706 128.32 71.6306C128.32 77.6006 124.81 82.7606 119.75 85.1606C119.75 85.2506 119.76 85.3307 119.76 85.4207V124.211C119.76 125.621 118.61 126.771 117.2 126.771H109.51C108.1 126.771 106.95 125.621 106.95 124.211V85.4207C106.95 85.3307 106.95 85.2406 106.96 85.1606L106.98 85.1707Z" fill="#FEC95C"/>
<path id="Vector_4" d="M117.22 127.79H109.53C107.57 127.79 105.97 126.19 105.97 124.23V85.7903C100.75 83.0503 97.4199 77.5703 97.4199 71.6503C97.4199 66.2703 100.11 61.2902 104.61 58.3202C104.92 58.1202 105.31 58.1003 105.63 58.2703C105.95 58.4403 106.16 58.7803 106.16 59.1503V68.0303L113.44 75.3103L120.65 68.1003C120.67 68.0303 120.69 67.9603 120.72 67.8903V59.2403C120.72 58.8703 120.92 58.5303 121.25 58.3603C121.58 58.1903 121.97 58.2103 122.28 58.4103C126.7 61.3903 129.33 66.3403 129.33 71.6503C129.33 77.5703 125.99 83.0403 120.78 85.7903V124.23C120.78 126.19 119.18 127.79 117.22 127.79ZM104.15 61.1703C101.15 63.8103 99.4099 67.6003 99.4099 71.6503C99.4099 77.0203 102.55 81.9703 107.4 84.2703C107.78 84.4503 108.01 84.8503 107.97 85.2703C107.97 85.3203 107.97 85.3803 107.97 85.4303V124.22C107.97 125.08 108.67 125.78 109.53 125.78H117.22C118.08 125.78 118.78 125.08 118.78 124.22V85.4303C118.78 85.3803 118.78 85.3303 118.78 85.2803C118.73 84.8603 118.96 84.4503 119.34 84.2603C124.2 81.9603 127.34 77.0003 127.34 71.6403C127.34 67.6603 125.64 63.9103 122.73 61.2703V68.3003C122.73 68.3003 122.73 68.3403 122.73 68.3603C122.75 68.6403 122.65 68.9203 122.44 69.1303L114.16 77.4103C113.78 77.7903 113.12 77.7903 112.75 77.4103L104.34 69.0003C104.02 68.6803 103.96 68.1903 104.17 67.8103V61.1503L104.15 61.1703Z" fill="#2F3F64"/>
<path id="Vector_5" d="M87.4701 18.7998H22.5701C19.1459 18.7998 16.3701 21.5756 16.3701 24.9998V37.4098C16.3701 40.834 19.1459 43.6097 22.5701 43.6097H87.4701C90.8943 43.6097 93.6702 40.834 93.6702 37.4098V24.9998C93.6702 21.5756 90.8943 18.7998 87.4701 18.7998Z" fill="#BCC5DC"/>
<path id="Vector_6" d="M87.4701 44.6105H22.5701C18.6001 44.6105 15.3701 41.3805 15.3701 37.4105V25.0105C15.3701 21.0405 18.6001 17.8105 22.5701 17.8105H87.4701C91.4401 17.8105 94.6702 21.0405 94.6702 25.0105V37.4105C94.6702 41.3805 91.4401 44.6105 87.4701 44.6105ZM22.5801 19.8005C19.7101 19.8005 17.3801 22.1305 17.3801 25.0005V37.4005C17.3801 40.2705 19.7101 42.6005 22.5801 42.6005H87.4801C90.3501 42.6005 92.6802 40.2705 92.6802 37.4005V25.0005C92.6802 22.1305 90.3501 19.8005 87.4801 19.8005H22.5801Z" fill="#2F3F64"/>
<path id="Vector_7" d="M87.4701 47.21H22.5701C19.1459 47.21 16.3701 49.9859 16.3701 53.41V65.8199C16.3701 69.2441 19.1459 72.02 22.5701 72.02H87.4701C90.8943 72.02 93.6702 69.2441 93.6702 65.8199V53.41C93.6702 49.9859 90.8943 47.21 87.4701 47.21Z" fill="#BCC5DC"/>
<path id="Vector_8" d="M87.4701 73.0198H22.5701C18.6001 73.0198 15.3701 69.7897 15.3701 65.8197V53.4198C15.3701 49.4498 18.6001 46.2197 22.5701 46.2197H87.4701C91.4401 46.2197 94.6702 49.4498 94.6702 53.4198V65.8197C94.6702 69.7897 91.4401 73.0198 87.4701 73.0198ZM22.5801 48.2097C19.7101 48.2097 17.3801 50.5398 17.3801 53.4098V65.8098C17.3801 68.6798 19.7101 71.0098 22.5801 71.0098H87.4801C90.3501 71.0098 92.6802 68.6798 92.6802 65.8098V53.4098C92.6802 50.5398 90.3501 48.2097 87.4801 48.2097H22.5801Z" fill="#2F3F64"/>
<path id="Vector_9" fill-rule="evenodd" clip-rule="evenodd" d="M28.5402 27.0703C30.8202 27.0703 32.6702 28.9203 32.6702 31.2003C32.6702 33.4803 30.8202 35.3403 28.5402 35.3403C26.2602 35.3403 24.4102 33.4903 24.4102 31.2003C24.4102 28.9103 26.2602 27.0703 28.5402 27.0703Z" fill="#BCC5DC"/>
<path id="Vector_10" d="M28.5402 36.3401C25.7102 36.3401 23.4102 34.0401 23.4102 31.2101C23.4102 28.3801 25.7102 26.0801 28.5402 26.0801C31.3702 26.0801 33.6702 28.3801 33.6702 31.2101C33.6702 34.0401 31.3702 36.3401 28.5402 36.3401ZM28.5402 28.0701C26.8102 28.0701 25.4102 29.4801 25.4102 31.2001C25.4102 32.9201 26.8202 34.3301 28.5402 34.3301C30.2602 34.3301 31.6702 32.9201 31.6702 31.2001C31.6702 29.4801 30.2602 28.0701 28.5402 28.0701Z" fill="#2F3F64"/>
<path id="Vector_11" fill-rule="evenodd" clip-rule="evenodd" d="M40.0597 27.0703C42.3397 27.0703 44.1996 28.9203 44.1996 31.2003C44.1996 33.4803 42.3497 35.3403 40.0597 35.3403C37.7697 35.3403 35.9297 33.4903 35.9297 31.2003C35.9297 28.9103 37.7797 27.0703 40.0597 27.0703Z" fill="#BCC5DC"/>
<path id="Vector_12" d="M40.0597 36.3401C37.2297 36.3401 34.9297 34.0401 34.9297 31.2101C34.9297 28.3801 37.2297 26.0801 40.0597 26.0801C42.8897 26.0801 45.1996 28.3801 45.1996 31.2101C45.1996 34.0401 42.8997 36.3401 40.0597 36.3401ZM40.0597 28.0701C38.3297 28.0701 36.9297 29.4801 36.9297 31.2001C36.9297 32.9201 38.3397 34.3301 40.0597 34.3301C41.7797 34.3301 43.1996 32.9201 43.1996 31.2001C43.1996 29.4801 41.7897 28.0701 40.0597 28.0701Z" fill="#2F3F64"/>
<path id="Vector_13" fill-rule="evenodd" clip-rule="evenodd" d="M51.5696 27.0703C53.8496 27.0703 55.6996 28.9203 55.6996 31.2003C55.6996 33.4803 53.8496 35.3403 51.5696 35.3403C49.2896 35.3403 47.4297 33.4903 47.4297 31.2003C47.4297 28.9103 49.2796 27.0703 51.5696 27.0703Z" fill="#BCC5DC"/>
<path id="Vector_14" d="M51.5696 36.3401C48.7396 36.3401 46.4297 34.0401 46.4297 31.2101C46.4297 28.3801 48.7296 26.0801 51.5696 26.0801C54.4096 26.0801 56.6996 28.3801 56.6996 31.2101C56.6996 34.0401 54.3996 36.3401 51.5696 36.3401ZM51.5696 28.0701C49.8396 28.0701 48.4297 29.4801 48.4297 31.2001C48.4297 32.9201 49.8396 34.3301 51.5696 34.3301C53.2996 34.3301 54.6996 32.9201 54.6996 31.2001C54.6996 29.4801 53.2896 28.0701 51.5696 28.0701Z" fill="#2F3F64"/>
<path id="Vector_15" d="M85.6699 32.21H60.6299C60.0799 32.21 59.6299 31.76 59.6299 31.21C59.6299 30.66 60.0799 30.21 60.6299 30.21H85.6699C86.2199 30.21 86.6699 30.66 86.6699 31.21C86.6699 31.76 86.2199 32.21 85.6699 32.21Z" fill="#2F3F64"/>
<path id="Vector_16" fill-rule="evenodd" clip-rule="evenodd" d="M28.5402 55.4805C30.8202 55.4805 32.6702 57.3305 32.6702 59.6205C32.6702 61.9105 30.8202 63.7505 28.5402 63.7505C26.2602 63.7505 24.4102 61.9005 24.4102 59.6205C24.4102 57.3405 26.2602 55.4805 28.5402 55.4805Z" fill="#BCC5DC"/>
<path id="Vector_17" d="M28.5402 64.7505C25.7102 64.7505 23.4102 62.4505 23.4102 59.6205C23.4102 56.7905 25.7102 54.4805 28.5402 54.4805C31.3702 54.4805 33.6702 56.7805 33.6702 59.6205C33.6702 62.4605 31.3702 64.7505 28.5402 64.7505ZM28.5402 56.4805C26.8102 56.4805 25.4102 57.8905 25.4102 59.6205C25.4102 61.3505 26.8202 62.7505 28.5402 62.7505C30.2602 62.7505 31.6702 61.3405 31.6702 59.6205C31.6702 57.9005 30.2602 56.4805 28.5402 56.4805Z" fill="#2F3F64"/>
<path id="Vector_18" fill-rule="evenodd" clip-rule="evenodd" d="M40.0597 55.4805C42.3397 55.4805 44.1996 57.3305 44.1996 59.6205C44.1996 61.9105 42.3497 63.7505 40.0597 63.7505C37.7697 63.7505 35.9297 61.9005 35.9297 59.6205C35.9297 57.3405 37.7797 55.4805 40.0597 55.4805Z" fill="#BCC5DC"/>
<path id="Vector_19" d="M40.0597 64.7505C37.2297 64.7505 34.9297 62.4505 34.9297 59.6205C34.9297 56.7905 37.2297 54.4805 40.0597 54.4805C42.8897 54.4805 45.1996 56.7805 45.1996 59.6205C45.1996 62.4605 42.8997 64.7505 40.0597 64.7505ZM40.0597 56.4805C38.3297 56.4805 36.9297 57.8905 36.9297 59.6205C36.9297 61.3505 38.3397 62.7505 40.0597 62.7505C41.7797 62.7505 43.1996 61.3405 43.1996 59.6205C43.1996 57.9005 41.7897 56.4805 40.0597 56.4805Z" fill="#2F3F64"/>
<path id="Vector_20" fill-rule="evenodd" clip-rule="evenodd" d="M51.5696 55.4805C53.8496 55.4805 55.6996 57.3305 55.6996 59.6205C55.6996 61.9105 53.8496 63.7505 51.5696 63.7505C49.2896 63.7505 47.4297 61.9005 47.4297 59.6205C47.4297 57.3405 49.2796 55.4805 51.5696 55.4805Z" fill="#BCC5DC"/>
<path id="Vector_21" d="M51.5696 64.7505C48.7396 64.7505 46.4297 62.4505 46.4297 59.6205C46.4297 56.7905 48.7296 54.4805 51.5696 54.4805C54.4096 54.4805 56.6996 56.7805 56.6996 59.6205C56.6996 62.4605 54.3996 64.7505 51.5696 64.7505ZM51.5696 56.4805C49.8396 56.4805 48.4297 57.8905 48.4297 59.6205C48.4297 61.3505 49.8396 62.7505 51.5696 62.7505C53.2996 62.7505 54.6996 61.3405 54.6996 59.6205C54.6996 57.9005 53.2896 56.4805 51.5696 56.4805Z" fill="#2F3F64"/>
<path id="Vector_22" d="M85.6699 60.6104H60.6299C60.0799 60.6104 59.6299 60.1604 59.6299 59.6104C59.6299 59.0604 60.0799 58.6104 60.6299 58.6104H85.6699C86.2199 58.6104 86.6699 59.0604 86.6699 59.6104C86.6699 60.1604 86.2199 60.6104 85.6699 60.6104Z" fill="#2F3F64"/>
<path id="Vector_23" d="M54.5801 88.7605C54.0301 88.7605 53.5801 88.3105 53.5801 87.7605V72.0205C53.5801 71.4705 54.0301 71.0205 54.5801 71.0205C55.1301 71.0205 55.5801 71.4705 55.5801 72.0205V87.7605C55.5801 88.3105 55.1301 88.7605 54.5801 88.7605Z" fill="#2F3F64"/>
<path id="Vector_24" d="M50.2699 90.4404H38.5898C38.0398 90.4404 37.5898 89.9904 37.5898 89.4404C37.5898 88.8904 38.0398 88.4404 38.5898 88.4404H50.2699C50.8199 88.4404 51.2699 88.8904 51.2699 89.4404C51.2699 89.9904 50.8199 90.4404 50.2699 90.4404Z" fill="#2F3F64"/>
<path id="Vector_25" d="M71.4602 90.4404H59.7803C59.2303 90.4404 58.7803 89.9904 58.7803 89.4404C58.7803 88.8904 59.2303 88.4404 59.7803 88.4404H71.4602C72.0102 88.4404 72.4602 88.8904 72.4602 89.4404C72.4602 89.9904 72.0102 90.4404 71.4602 90.4404Z" fill="#2F3F64"/>
<path id="Vector_26" d="M59.7907 91.5948C60.9806 88.7222 59.6164 85.4288 56.7438 84.2389C53.8711 83.049 50.5778 84.4132 49.3879 87.2859C48.198 90.1585 49.5621 93.4519 52.4347 94.6418C55.3074 95.8317 58.6008 94.4675 59.7907 91.5948Z" fill="#2F3F64"/>
</g>
</svg>
