<svg xmlns="http://www.w3.org/2000/svg" id="Layer_2" data-name="Layer 2" viewBox="0 0 132.7 126.59">
  <g id="Layer_2-2" data-name="Layer 2">
    <path d="M1 41s5.05-15.53 7.89-24.24A8.35 8.35 0 0 1 16.81 11h67.74a8.34 8.34 0 0 1 7.61 4.93C95.97 24.44 103.39 41 103.39 41z" style="fill:#fff;fill-rule:evenodd"/>
    <path d="M103.38 42H1a.995.995 0 0 1-.95-1.31l7.89-24.24A9.305 9.305 0 0 1 16.82 10h67.74c.55 0 1 .45 1 1s-.45 1-1 1H16.82c-3.19 0-5.99 2.04-6.97 5.07L2.39 40h99.46l-5.38-12c-.23-.5 0-1.1.5-1.32.51-.22 1.1 0 1.32.5l6.01 13.41a1 1 0 0 1-.91 1.41Z" fill="#2F3F64"/>
    <path d="M69.69 12c-.55 0-1-.45-1-1V6.65c0-1.24-.48-2.41-1.36-3.29S65.27 2 64.04 2H40.33c-1.22 0-2.42.5-3.29 1.36s-1.36 2.04-1.36 3.29V11c0 .55-.45 1-1 1s-1-.45-1-1V6.65c0-1.78.69-3.44 1.95-4.7S38.55 0 40.33 0h23.71c1.75 0 3.46.71 4.7 1.95s1.95 2.92 1.95 4.7V11c0 .55-.45 1-1 1" fill="#2F3F64"/>
    <path d="M103.38 41v38.72a6.45 6.45 0 0 1-6.45 6.45H7.45A6.45 6.45 0 0 1 1 79.72V41z" style="fill-rule:evenodd" fill="#BCC5DC"/>
    <path d="M96.93 87.17H7.45c-1.99 0-3.86-.78-5.27-2.18A7.4 7.4 0 0 1 0 79.72V41c0-.55.45-1 1-1h102.38c.55 0 1 .45 1 1v38.72c0 1.99-.78 3.86-2.18 5.27a7.4 7.4 0 0 1-5.27 2.18M2 42v37.72c0 1.46.57 2.83 1.6 3.85a5.52 5.52 0 0 0 3.85 1.6h89.48a5.4 5.4 0 0 0 3.85-1.6c1.03-1.03 1.6-2.4 1.6-3.85V42z" fill="#2F3F64"/>
    <rect width="94.91" height="8.79" x="36.78" y="116.8" fill="#FEC95C" rx="1.76" ry="1.76"/>
    <path d="M129.94 126.59h-91.4c-1.52 0-2.76-1.24-2.76-2.76v-5.27c0-1.52 1.24-2.76 2.76-2.76h91.4c1.52 0 2.76 1.24 2.76 2.76v5.27c0 1.52-1.24 2.76-2.76 2.76m-91.4-8.79a.76.76 0 0 0-.76.76v5.27c0 .42.34.76.76.76h91.4c.42 0 .76-.34.76-.76v-5.27a.76.76 0 0 0-.76-.76z" fill="#2F3F64"/>
    <path d="M13.38 31h10v20h-10z" fill="#BCC5DC"/>
    <path d="M23.38 52h-10c-.55 0-1-.45-1-1V31c0-.55.45-1 1-1h10c.55 0 1 .45 1 1v20c0 .55-.45 1-1 1m-9-2h8V32h-8z" fill="#2F3F64"/>
    <path d="M81.38 31h10v20h-10z" fill="#BCC5DC"/>
    <path d="M91.38 52h-10c-.55 0-1-.45-1-1V31c0-.55.45-1 1-1h10c.55 0 1 .45 1 1v20c0 .55-.45 1-1 1m-9-2h8V32h-8z" fill="#2F3F64"/>
    <path d="M126.22 116.8c0-23.18-18.79-41.98-41.98-41.98S42.26 93.61 42.26 116.8z" fill="#FEC95C"/>
    <path d="M126.22 117.8H42.26c-.55 0-1-.45-1-1 0-23.7 19.28-42.98 42.98-42.98 6.86 0 13.68 1.65 19.72 4.78 1.09.56 2.17 1.18 3.21 1.84.47.29.61.91.31 1.38s-.91.61-1.38.31c-.99-.62-2.02-1.21-3.06-1.75-5.85-3.03-12.17-4.56-18.8-4.56-22.26 0-40.43 17.84-40.97 39.98h81.93a40.86 40.86 0 0 0-6.14-20.6 1.003 1.003 0 0 1 1.7-1.06 42.86 42.86 0 0 1 6.45 22.65c0 .55-.45 1-1 1Z" fill="#2F3F64"/>
    <path d="M73.53 100.46c-.55 0-1-.45-1-1V76.67c0-.55.45-1 1-1s1 .45 1 1v22.79c0 .55-.45 1-1 1M61.85 107.05c-.55 0-1-.45-1-1V82.66c0-.55.45-1 1-1s1 .45 1 1v23.39c0 .55-.45 1-1 1M106.63 107.05c-.55 0-1-.45-1-1V81.28c0-.55.45-1 1-1s1 .45 1 1v24.77c0 .55-.45 1-1 1M94.71 100.46c-.55 0-1-.45-1-1V76.67c0-.55.45-1 1-1s1 .45 1 1v22.79c0 .55-.45 1-1 1" fill="#2F3F64"/>
  </g>
</svg>
