<svg width="127" height="99" viewBox="0 0 127 99" fill="none" xmlns="http://www.w3.org/2000/svg">
<g clip-path="url(#clip0_344_167)">
<path fill-rule="evenodd" clip-rule="evenodd" d="M8.67 88.78H4.42C1.97 88.78 0 86.79 0 84.34V4.44C0 1.99 2.01 0 4.46 0H112.26C114.71 0 116.69 1.99 116.68 4.44L116.66 8.73H13.46C11.01 8.73 9.01 10.72 9 13.17L8.67 88.78Z" fill="#2F3F64"/>
<path fill-rule="evenodd" clip-rule="evenodd" d="M125.77 11.4902L125.42 93.1702C125.41 95.6802 123.37 97.7102 120.86 97.7102H10.77C8.27004 97.7102 6.24004 95.6802 6.25004 93.1702L6.60004 11.4902C6.61004 8.9902 8.65004 6.9502 11.16 6.9502H121.24C123.75 6.9502 125.77 8.9802 125.76 11.4902H125.77Z" fill="white"/>
<path d="M120.85 98.71H10.77C9.29 98.71 7.9 98.13 6.86 97.09C5.82 96.04 5.25 94.65 5.25 93.17L5.6 11.49C5.61 8.43996 8.11 5.95996 11.16 5.95996H121.24C122.72 5.95996 124.11 6.53996 125.15 7.57996C126.19 8.62996 126.76 10.02 126.76 11.5L126.41 93.18C126.4 96.23 123.9 98.72 120.85 98.72V98.71ZM11.17 7.94996C9.22 7.94996 7.62 9.53996 7.61 11.49L7.26 93.17C7.26 94.11 7.62 95 8.28 95.67C8.95 96.34 9.83 96.71 10.77 96.71H120.85C122.8 96.71 124.4 95.12 124.41 93.17L124.76 11.49C124.76 10.55 124.4 9.65996 123.74 8.98996C123.08 8.31996 122.19 7.94996 121.24 7.94996H11.17Z" fill="#2F3F64"/>
<path d="M126.05 7.54004H7.71973V19.86H126.05V7.54004Z" fill="#BCC5DC"/>
<path d="M42.0997 38.8398H103.12C104.04 38.8398 104.79 39.5898 104.79 40.5098V42.7498C104.79 43.6698 104.04 44.4198 103.12 44.4198H42.0997C41.1797 44.4198 40.4297 43.6698 40.4297 42.7498V40.5098C40.4297 39.5898 41.1797 38.8398 42.0997 38.8398Z" fill="#BCC5DC"/>
<path d="M42.0997 48.71H73.6097C74.5297 48.71 75.2797 49.46 75.2797 50.38V52.62C75.2797 53.54 74.5297 54.29 73.6097 54.29H42.0997C41.1797 54.29 40.4297 53.54 40.4297 52.62V50.38C40.4297 49.46 41.1797 48.71 42.0997 48.71Z" fill="#BCC5DC"/>
<path fill-rule="evenodd" clip-rule="evenodd" d="M17.82 10.4404C19.35 10.4404 20.6 11.6904 20.6 13.2304C20.6 14.7704 19.36 16.0204 17.82 16.0204C16.28 16.0204 15.04 14.7704 15.04 13.2304C15.04 11.6904 16.28 10.4404 17.82 10.4404Z" fill="#2F3F64"/>
<path fill-rule="evenodd" clip-rule="evenodd" d="M28.4304 10.4404C29.9604 10.4404 31.2104 11.6904 31.2104 13.2304C31.2104 14.7704 29.9704 16.0204 28.4304 16.0204C26.8904 16.0204 25.6504 14.7704 25.6504 13.2304C25.6504 11.6904 26.8904 10.4404 28.4304 10.4404Z" fill="#2F3F64"/>
<path fill-rule="evenodd" clip-rule="evenodd" d="M39.4997 10.4404C41.0297 10.4404 42.2797 11.6904 42.2797 13.2304C42.2797 14.7704 41.0397 16.0204 39.4997 16.0204C37.9597 16.0204 36.7197 14.7704 36.7197 13.2304C36.7197 11.6904 37.9597 10.4404 39.4997 10.4404Z" fill="#2F3F64"/>
<path d="M84.1803 20.6102H6.57031C6.30031 20.6102 6.05031 20.5002 5.86031 20.3202C5.67031 20.1302 5.57031 19.8802 5.57031 19.6102L5.61031 11.4802C5.62031 8.4302 8.12031 5.9502 11.1703 5.9502H121.25C122.73 5.9502 124.12 6.5302 125.16 7.5702C126.2 8.6202 126.77 10.0102 126.77 11.4902L126.74 19.6102C126.74 20.1602 126.29 20.6102 125.74 20.6102C125.19 20.6102 124.74 20.1602 124.74 19.6102L124.77 11.4802C124.77 10.5402 124.41 9.6502 123.75 8.9802C123.08 8.31019 122.2 7.9402 121.25 7.9402H11.1703C9.22031 7.9402 7.62031 9.53019 7.61031 11.4802L7.58031 18.6002H84.1903C84.7403 18.6002 85.1903 19.0502 85.1903 19.6002C85.1903 20.1502 84.7403 20.6002 84.1903 20.6002L84.1803 20.6102Z" fill="#2F3F64"/>
<path d="M62.3297 28.9805H42.3497C41.2893 28.9805 40.4297 29.8401 40.4297 30.9005V32.6505C40.4297 33.7109 41.2893 34.5705 42.3497 34.5705H62.3297C63.3901 34.5705 64.2497 33.7109 64.2497 32.6505V30.9005C64.2497 29.8401 63.3901 28.9805 62.3297 28.9805Z" fill="#2F3F64"/>
<path d="M42.0997 72.7695H103.12C104.04 72.7695 104.79 73.5195 104.79 74.4395V76.6795C104.79 77.5995 104.04 78.3495 103.12 78.3495H42.0997C41.1797 78.3495 40.4297 77.5995 40.4297 76.6795V74.4395C40.4297 73.5195 41.1797 72.7695 42.0997 72.7695Z" fill="#BCC5DC"/>
<path d="M42.0997 82.6299H73.6097C74.5297 82.6299 75.2797 83.3799 75.2797 84.2999V86.5399C75.2797 87.4599 74.5297 88.2099 73.6097 88.2099H42.0997C41.1797 88.2099 40.4297 87.4599 40.4297 86.5399V84.2999C40.4297 83.3799 41.1797 82.6299 42.0997 82.6299Z" fill="#BCC5DC"/>
<path d="M62.3297 62.9102H42.3497C41.2893 62.9102 40.4297 63.7698 40.4297 64.8302V66.5802C40.4297 67.6405 41.2893 68.5002 42.3497 68.5002H62.3297C63.3901 68.5002 64.2497 67.6405 64.2497 66.5802V64.8302C64.2497 63.7698 63.3901 62.9102 62.3297 62.9102Z" fill="#2F3F64"/>
<path d="M30.1296 36.5503C32.7475 36.5503 34.8696 34.4281 34.8696 31.8103C34.8696 29.1925 32.7475 27.0703 30.1296 27.0703C27.5118 27.0703 25.3896 29.1925 25.3896 31.8103C25.3896 34.4281 27.5118 36.5503 30.1296 36.5503Z" fill="#FEC95C"/>
<path d="M30.0805 33.5597C29.8505 33.5597 29.6205 33.4797 29.4305 33.3197L27.7305 31.8697C27.3105 31.5097 27.2605 30.8797 27.6205 30.4597C27.9805 30.0397 28.6105 29.9897 29.0305 30.3497L30.0305 31.1997L33.8205 27.4097C34.2105 27.0197 34.8405 27.0197 35.2305 27.4097C35.6205 27.7997 35.6205 28.4297 35.2305 28.8197L30.7905 33.2597C30.6005 33.4497 30.3405 33.5497 30.0805 33.5497V33.5597Z" fill="#2F3F64"/>
<path d="M30.1296 70.44C32.7475 70.44 34.8696 68.3178 34.8696 65.7C34.8696 63.0821 32.7475 60.96 30.1296 60.96C27.5118 60.96 25.3896 63.0821 25.3896 65.7C25.3896 68.3178 27.5118 70.44 30.1296 70.44Z" fill="#FEC95C"/>
<path d="M30.0805 67.4601C29.8505 67.4601 29.6205 67.3801 29.4305 67.2201L27.7305 65.7701C27.3105 65.4101 27.2605 64.7801 27.6205 64.3601C27.9805 63.9401 28.6105 63.8901 29.0305 64.2501L30.0305 65.1001L33.8205 61.3101C34.2105 60.9201 34.8405 60.9201 35.2305 61.3101C35.6205 61.7001 35.6205 62.3301 35.2305 62.7201L30.7905 67.1601C30.6005 67.3501 30.3405 67.4501 30.0805 67.4501V67.4601Z" fill="#2F3F64"/>
</g>
<defs>
<clipPath id="clip0_344_167">
<rect width="126.76" height="98.71" fill="white"/>
</clipPath>
</defs>
</svg>
