<svg width="127" height="99" viewBox="0 0 127 99" fill="none" xmlns="http://www.w3.org/2000/svg">
<g clip-path="url(#clip0_344_139)">
<path fill-rule="evenodd" clip-rule="evenodd" d="M8.67 88.78H4.42C1.97 88.78 0 86.79 0 84.34V4.44C0 1.99 2.01 0 4.46 0H112.26C114.71 0 116.69 1.99 116.68 4.44L116.66 8.73H13.46C11.01 8.73 9.01 10.72 9 13.17L8.67 88.78Z" fill="#2F3F64"/>
<path fill-rule="evenodd" clip-rule="evenodd" d="M125.77 11.4902L125.42 93.1702C125.41 95.6802 123.37 97.7102 120.86 97.7102H10.77C8.27004 97.7102 6.24004 95.6802 6.25004 93.1702L6.60004 11.4902C6.61004 8.9902 8.65004 6.9502 11.16 6.9502H121.24C123.75 6.9502 125.77 8.9802 125.76 11.4902H125.77Z" fill="white"/>
<path d="M120.85 98.71H10.7701C9.29013 98.71 7.90013 98.13 6.86013 97.09C5.82013 96.04 5.24013 94.65 5.25013 93.17L5.60013 11.49C5.61013 8.43996 8.11013 5.95996 11.1601 5.95996H121.24C122.72 5.95996 124.11 6.53996 125.15 7.57996C126.19 8.61996 126.76 10.02 126.76 11.5L126.41 93.18C126.4 96.23 123.9 98.72 120.85 98.72V98.71ZM11.1701 7.94996C9.22013 7.94996 7.62013 9.53996 7.61013 11.49L7.26013 93.17C7.26013 94.11 7.62013 95 8.29013 95.67C8.95013 96.34 9.84013 96.7 10.7801 96.7H120.86C122.81 96.7 124.41 95.11 124.42 93.16L124.77 11.48C124.77 10.54 124.41 9.64996 123.75 8.97996C123.08 8.30996 122.2 7.93996 121.26 7.93996H11.1701V7.94996Z" fill="#2F3F64"/>
<path d="M126.05 7.54004H7.71973V19.86H126.05V7.54004Z" fill="#BCC5DC"/>
<path fill-rule="evenodd" clip-rule="evenodd" d="M17.82 10.4404C19.35 10.4404 20.6 11.6904 20.6 13.2304C20.6 14.7704 19.36 16.0204 17.82 16.0204C16.28 16.0204 15.04 14.7704 15.04 13.2304C15.04 11.6904 16.28 10.4404 17.82 10.4404Z" fill="#2F3F64"/>
<path fill-rule="evenodd" clip-rule="evenodd" d="M28.4304 10.4404C29.9604 10.4404 31.2104 11.6904 31.2104 13.2304C31.2104 14.7704 29.9704 16.0204 28.4304 16.0204C26.8904 16.0204 25.6504 14.7704 25.6504 13.2304C25.6504 11.6904 26.8904 10.4404 28.4304 10.4404Z" fill="#2F3F64"/>
<path fill-rule="evenodd" clip-rule="evenodd" d="M39.4997 10.4404C41.0297 10.4404 42.2797 11.6904 42.2797 13.2304C42.2797 14.7704 41.0397 16.0204 39.4997 16.0204C37.9597 16.0204 36.7197 14.7704 36.7197 13.2304C36.7197 11.6904 37.9597 10.4404 39.4997 10.4404Z" fill="#2F3F64"/>
<path d="M84.1803 20.6102H6.57031C6.30031 20.6102 6.05031 20.5002 5.86031 20.3202C5.67031 20.1302 5.57031 19.8802 5.57031 19.6102L5.61031 11.4802C5.62031 8.4302 8.12031 5.9502 11.1703 5.9502H121.25C122.73 5.9502 124.12 6.5302 125.16 7.5702C126.2 8.6102 126.77 10.0102 126.77 11.4902L126.73 19.6202C126.73 20.1702 126.28 20.6202 125.73 20.6202C125.18 20.6202 124.73 20.1702 124.73 19.6202L124.77 11.4902C124.77 10.5502 124.41 9.6602 123.75 8.9902C123.08 8.3202 122.2 7.9502 121.26 7.9502H11.1703C9.22031 7.9502 7.62031 9.5402 7.61031 11.4902L7.58031 18.6102H84.1903C84.7403 18.6102 85.1903 19.0602 85.1903 19.6102C85.1903 20.1602 84.7403 20.6102 84.1903 20.6102H84.1803Z" fill="#2F3F64"/>
<path d="M74.3203 65.79H21.5203C19.4769 65.79 17.8203 67.4466 17.8203 69.49V77.13C17.8203 79.1735 19.4769 80.83 21.5203 80.83H74.3203C76.3638 80.83 78.0203 79.1735 78.0203 77.13V69.49C78.0203 67.4466 76.3638 65.79 74.3203 65.79Z" fill="#FEC95C"/>
<path d="M85.8999 83.4796C86.2999 78.0996 92.5299 73.8196 100.14 73.8196C107.75 73.8196 113.98 78.0996 114.38 83.4796C114.26 84.1596 113.68 84.6696 112.97 84.6696H87.2899C86.5899 84.6696 85.9999 84.1596 85.8799 83.4796H85.8999ZM100.15 61.0996C103.62 61.0996 106.44 63.9496 106.44 67.4596C106.44 70.9696 103.62 73.8196 100.15 73.8196C96.6799 73.8196 93.8599 70.9696 93.8599 67.4596C93.8599 63.9496 96.6799 61.0996 100.15 61.0996Z" fill="#BCC5DC"/>
<path d="M77.9898 77.6897C77.9898 75.7997 79.1898 74.1797 80.8698 73.5697C81.1098 73.4797 81.1098 73.1297 80.8698 73.0497C79.1898 72.4397 77.9798 70.8297 77.9798 68.9297L74.5098 72.1897L77.9798 77.6897H77.9898Z" fill="#FEC95C"/>
<path d="M40.3003 75.6201C41.554 75.6201 42.5703 74.6038 42.5703 73.3501C42.5703 72.0964 41.554 71.0801 40.3003 71.0801C39.0466 71.0801 38.0303 72.0964 38.0303 73.3501C38.0303 74.6038 39.0466 75.6201 40.3003 75.6201Z" fill="#2F3F64"/>
<path d="M47.9204 75.8203C49.1741 75.8203 50.1904 74.804 50.1904 73.5503C50.1904 72.2966 49.1741 71.2803 47.9204 71.2803C46.6667 71.2803 45.6504 72.2966 45.6504 73.5503C45.6504 74.804 46.6667 75.8203 47.9204 75.8203Z" fill="#2F3F64"/>
<path d="M55.5405 75.8203C56.7942 75.8203 57.8105 74.804 57.8105 73.5503C57.8105 72.2966 56.7942 71.2803 55.5405 71.2803C54.2868 71.2803 53.2705 72.2966 53.2705 73.5503C53.2705 74.804 54.2868 75.8203 55.5405 75.8203Z" fill="#2F3F64"/>
<path d="M56.8496 49.2305L109.65 49.2305C111.693 49.2305 113.35 47.5739 113.35 45.5305V37.8905C113.35 35.847 111.693 34.1905 109.65 34.1905L56.8496 34.1905C54.8062 34.1905 53.1496 35.847 53.1496 37.8905V45.5305C53.1496 47.5739 54.8062 49.2305 56.8496 49.2305Z" fill="#BCC5DC"/>
<path d="M19.4302 51.89C19.8302 46.51 26.0602 42.23 33.6702 42.23C41.2802 42.23 47.5102 46.51 47.9102 51.89C47.7902 52.57 47.2102 53.08 46.5002 53.08H20.8202C20.1202 53.08 19.5302 52.57 19.4102 51.89H19.4302ZM33.6702 29.5C37.1402 29.5 39.9602 32.35 39.9602 35.86C39.9602 39.37 37.1402 42.22 33.6702 42.22C30.2002 42.22 27.3802 39.37 27.3802 35.86C27.3802 32.35 30.2002 29.5 33.6702 29.5Z" fill="#BCC5DC"/>
<path d="M53.1801 37.3301C53.1801 39.2201 51.9801 40.8401 50.3001 41.4501C50.0601 41.5401 50.0601 41.8901 50.3001 41.9701C51.9801 42.5801 53.1901 44.1901 53.1901 46.0901L56.6601 42.8301L53.1901 37.3301H53.1801Z" fill="#BCC5DC"/>
<path d="M90.8706 43.9404C92.1243 43.9404 93.1406 42.9241 93.1406 41.6704C93.1406 40.4167 92.1243 39.4004 90.8706 39.4004C89.6169 39.4004 88.6006 40.4167 88.6006 41.6704C88.6006 42.9241 89.6169 43.9404 90.8706 43.9404Z" fill="#2F3F64"/>
<path d="M83.2505 43.7402C84.5042 43.7402 85.5205 42.7239 85.5205 41.4702C85.5205 40.2165 84.5042 39.2002 83.2505 39.2002C81.9968 39.2002 80.9805 40.2165 80.9805 41.4702C80.9805 42.7239 81.9968 43.7402 83.2505 43.7402Z" fill="#2F3F64"/>
<path d="M75.6303 43.7402C76.884 43.7402 77.9004 42.7239 77.9004 41.4702C77.9004 40.2165 76.884 39.2002 75.6303 39.2002C74.3767 39.2002 73.3604 40.2165 73.3604 41.4702C73.3604 42.7239 74.3767 43.7402 75.6303 43.7402Z" fill="#2F3F64"/>
</g>
<defs>
<clipPath id="clip0_344_139">
<rect width="126.77" height="98.71" fill="white"/>
</clipPath>
</defs>
</svg>
