<svg width="98" height="98" viewBox="0 0 98 98" fill="none" xmlns="http://www.w3.org/2000/svg">
<g id="time">
<path id="Vector" d="M48.51 96.0103C74.7491 96.0103 96.02 74.7393 96.02 48.5002C96.02 22.2612 74.7491 0.990234 48.51 0.990234C22.271 0.990234 1 22.2612 1 48.5002C1 74.7393 22.271 96.0103 48.51 96.0103Z" fill="#BCC5DC"/>
<path id="Vector_2" d="M48.51 97.02C21.76 97.02 0 75.26 0 48.51C0 21.76 21.76 0 48.51 0C55.01 0 61.31 1.26 67.26 3.75C67.77 3.96 68.01 4.55 67.8 5.06C67.59 5.57 67 5.80998 66.49 5.59998C60.79 3.20998 54.75 2 48.52 2C22.87 2 2.01001 22.87 2.01001 48.51C2.01001 74.15 22.88 95.02 48.52 95.02C74.16 95.02 95.03 74.15 95.03 48.51C95.03 43.01 94.0801 37.63 92.2101 32.52C92.0201 32 92.2901 31.43 92.8101 31.24C93.3301 31.05 93.9001 31.32 94.0901 31.84C96.0401 37.17 97.03 42.79 97.03 48.52C97.03 75.27 75.27 97.03 48.52 97.03L48.51 97.02Z" fill="#2F3F64"/>
<g id="Group">
<path id="Vector_3" d="M48.51 89.6803C71.2531 89.6803 89.6901 71.2434 89.6901 48.5003C89.6901 25.7572 71.2531 7.32031 48.51 7.32031C25.7669 7.32031 7.33008 25.7572 7.33008 48.5003C7.33008 71.2434 25.7669 89.6803 48.51 89.6803Z" fill="white"/>
<path id="Vector_4" d="M48.51 90.6803C25.25 90.6803 6.33008 71.7603 6.33008 48.5003C6.33008 25.2403 25.25 6.32031 48.51 6.32031C71.77 6.32031 90.6901 25.2403 90.6901 48.5003C90.6901 71.7603 71.77 90.6803 48.51 90.6803ZM48.51 8.32031C26.36 8.32031 8.33008 26.3403 8.33008 48.5003C8.33008 70.6603 26.35 88.6803 48.51 88.6803C70.67 88.6803 88.6901 70.6603 88.6901 48.5003C88.6901 26.3403 70.67 8.32031 48.51 8.32031Z" fill="#2F3F64"/>
</g>
<path id="Vector_5" d="M48.5098 49.5303C48.2498 49.5303 47.9898 49.4202 47.7998 49.2402C47.6098 49.0502 47.5098 48.8003 47.5098 48.5303V25.4902C47.5098 24.9402 47.9598 24.4902 48.5098 24.4902C49.0598 24.4902 49.5098 24.9402 49.5098 25.4902V47.5303L66.1898 47.5002C66.7398 47.5002 67.1898 47.9502 67.1898 48.5002C67.1898 49.0502 66.7398 49.5002 66.1898 49.5002L48.5098 49.5303Z" fill="#2F3F64"/>
<g id="Group_2">
<path id="Vector_6" d="M48.5103 54.6896C51.9289 54.6896 54.7003 51.9182 54.7003 48.4996C54.7003 45.0809 51.9289 42.3096 48.5103 42.3096C45.0916 42.3096 42.3203 45.0809 42.3203 48.4996C42.3203 51.9182 45.0916 54.6896 48.5103 54.6896Z" fill="#FEC95C"/>
<path id="Vector_7" d="M48.5103 55.6896C44.5403 55.6896 41.3203 52.4596 41.3203 48.4996C41.3203 44.5396 44.5503 41.3096 48.5103 41.3096C52.4703 41.3096 55.7003 44.5396 55.7003 48.4996C55.7003 52.4596 52.4703 55.6896 48.5103 55.6896ZM48.5103 43.3096C45.6503 43.3096 43.3203 45.6396 43.3203 48.4996C43.3203 51.3596 45.6503 53.6896 48.5103 53.6896C51.3703 53.6896 53.7003 51.3596 53.7003 48.4996C53.7003 45.6396 51.3703 43.3096 48.5103 43.3096Z" fill="#2F3F64"/>
</g>
<g id="Group_3">
<path id="Vector_8" d="M48.5107 19.9598C47.9607 19.9598 47.5107 19.5098 47.5107 18.9598V8.2998C47.5107 7.7498 47.9607 7.2998 48.5107 7.2998C49.0607 7.2998 49.5107 7.7498 49.5107 8.2998V18.9598C49.5107 19.5098 49.0607 19.9598 48.5107 19.9598Z" fill="#2F3F64"/>
<g id="Group_4">
<path id="Vector_9" d="M27.6206 28.6194C27.3606 28.6194 27.1107 28.5194 26.9107 28.3294L19.3706 20.7894C18.9806 20.3994 18.9806 19.7694 19.3706 19.3794C19.7606 18.9894 20.3907 18.9894 20.7807 19.3794L28.3207 26.9194C28.7107 27.3094 28.7107 27.9394 28.3207 28.3294C28.1207 28.5294 27.8706 28.6194 27.6106 28.6194H27.6206Z" fill="#2F3F64"/>
</g>
<g id="Group_5">
<path id="Vector_10" d="M18.9705 49.5H8.31055C7.76055 49.5 7.31055 49.05 7.31055 48.5C7.31055 47.95 7.76055 47.5 8.31055 47.5H18.9705C19.5205 47.5 19.9705 47.95 19.9705 48.5C19.9705 49.05 19.5205 49.5 18.9705 49.5Z" fill="#2F3F64"/>
</g>
<g id="Group_6">
<path id="Vector_11" d="M20.0905 77.9202C19.8305 77.9202 19.5804 77.8202 19.3804 77.6302C18.9904 77.2402 18.9904 76.6102 19.3804 76.2202L26.9204 68.6802C27.3104 68.2902 27.9405 68.2902 28.3305 68.6802C28.7205 69.0702 28.7205 69.7002 28.3305 70.0902L20.7904 77.6302C20.5904 77.8302 20.3405 77.9202 20.0805 77.9202H20.0905Z" fill="#2F3F64"/>
</g>
<g id="Group_7">
<path id="Vector_12" d="M48.5107 89.6902C47.9607 89.6902 47.5107 89.2402 47.5107 88.6902V78.0303C47.5107 77.4803 47.9607 77.0303 48.5107 77.0303C49.0607 77.0303 49.5107 77.4803 49.5107 78.0303V88.6902C49.5107 89.2402 49.0607 89.6902 48.5107 89.6902Z" fill="#2F3F64"/>
</g>
<g id="Group_8">
<path id="Vector_13" d="M76.9302 77.9202C76.6702 77.9202 76.4201 77.8202 76.2201 77.6302L68.6802 70.0902C68.2902 69.7002 68.2902 69.0702 68.6802 68.6802C69.0702 68.2902 69.7002 68.2902 70.0902 68.6802L77.6301 76.2202C78.0201 76.6102 78.0201 77.2402 77.6301 77.6302C77.4301 77.8302 77.1802 77.9202 76.9202 77.9202H76.9302Z" fill="#2F3F64"/>
</g>
<g id="Group_9">
<path id="Vector_14" d="M88.701 49.5H78.041C77.491 49.5 77.041 49.05 77.041 48.5C77.041 47.95 77.491 47.5 78.041 47.5H88.701C89.251 47.5 89.701 47.95 89.701 48.5C89.701 49.05 89.251 49.5 88.701 49.5Z" fill="#2F3F64"/>
</g>
<g id="Group_10">
<path id="Vector_15" d="M69.3902 28.6194C69.1302 28.6194 68.8802 28.5194 68.6802 28.3294C68.2902 27.9394 68.2902 27.3094 68.6802 26.9194L76.2201 19.3794C76.6101 18.9894 77.2401 18.9894 77.6301 19.3794C78.0201 19.7694 78.0201 20.3994 77.6301 20.7894L70.0902 28.3294C69.8902 28.5294 69.6401 28.6194 69.3801 28.6194H69.3902Z" fill="#2F3F64"/>
</g>
</g>
</g>
</svg>
