<svg viewBox="0 0 120 115" fill="none" xmlns="http://www.w3.org/2000/svg">
<g id="training">
<g id="Group">
<path id="Vector" d="M95.7697 68.8496L24.7197 68.8496C21.8997 68.8496 19.5997 66.5596 19.5997 63.7296L19.5997 3.0896L100.89 3.0896L100.89 63.7296C100.89 66.5496 98.5997 68.8496 95.7697 68.8496Z" fill="white"/>
<path id="Vector_2" d="M95.7598 69.8499H24.7098C21.3398 69.8499 18.5898 67.1099 18.5898 63.7299V3.08984C18.5898 2.53984 19.0398 2.08984 19.5898 2.08984H100.88C101.43 2.08984 101.88 2.53984 101.88 3.08984V63.7299C101.88 67.0999 99.1398 69.8499 95.7598 69.8499ZM20.5998 4.08984V63.7299C20.5998 65.9999 22.4498 67.8499 24.7198 67.8499H95.7698C98.0398 67.8499 99.8898 65.9999 99.8898 63.7299V4.08984H20.5998Z" fill="#2F3F64"/>
</g>
<g id="Group_2">
<path id="Vector_3" d="M108.751 1.84961H11.7207V9.70959H108.751V1.84961Z" fill="#FEC95C"/>
<path id="Vector_4" d="M108.76 10.7096H11.7305C11.1805 10.7096 10.7305 10.2596 10.7305 9.70959V1.84961C10.7305 1.29961 11.1805 0.849609 11.7305 0.849609H108.76C109.311 0.849609 109.76 1.29961 109.76 1.84961V9.70959C109.76 10.2596 109.311 10.7096 108.76 10.7096ZM12.7205 8.70959H107.75V2.84961H12.7205V8.70959Z" fill="#2F3F64"/>
</g>
<g id="Group_3">
<g id="Group_4">
<path id="Vector_5" d="M19.5995 45.8605C23.946 45.8605 27.4695 42.2967 27.4695 37.9005C27.4695 33.5043 23.946 29.9404 19.5995 29.9404C15.253 29.9404 11.7295 33.5043 11.7295 37.9005C11.7295 42.2967 15.253 45.8605 19.5995 45.8605Z" fill="#BCC5DC"/>
<path id="Vector_6" d="M19.5995 46.8702C14.7095 46.8702 10.7295 42.8503 10.7295 37.9103C10.7295 32.9703 14.7095 28.9502 19.5995 28.9502C24.4895 28.9502 28.4795 32.9703 28.4795 37.9103C28.4795 42.8503 24.4995 46.8702 19.5995 46.8702ZM19.5995 30.9402C15.8095 30.9402 12.7295 34.0603 12.7295 37.9003C12.7295 41.7403 15.8095 44.8602 19.5995 44.8602C23.3895 44.8602 26.4795 41.7403 26.4795 37.9003C26.4795 34.0603 23.3995 30.9402 19.5995 30.9402Z" fill="#2F3F64"/>
</g>
<g id="Group_5">
<path id="Vector_7" d="M56.3395 45.8701H19.5995C10.0695 45.8701 2.26953 51.2301 1.76953 57.9601V80.3401C1.76953 82.4401 3.46952 84.1401 5.56952 84.1401H8.69952V79.5701C8.69952 81.2601 8.77951 82.9601 8.93951 84.6401L11.7295 113.66H27.9695L30.7595 84.6401C30.9195 82.9501 30.9995 81.2601 30.9995 79.5701V53.0801H53.0695C54.8795 53.0801 56.3495 51.6102 56.3495 49.8002V45.8701H56.3395Z" fill="#BCC5DC"/>
<path id="Vector_8" d="M27.9598 114.66H11.7197C11.1997 114.66 10.7697 114.27 10.7197 113.76L7.96973 85.1499H5.55975C2.90975 85.1499 0.759766 82.9999 0.759766 80.3499V57.9698C1.30977 50.5898 9.57978 44.8799 19.5898 44.8799H56.3298C56.8798 44.8799 57.3298 45.3299 57.3298 45.8799V49.8099C57.3298 52.1699 55.4097 54.0898 53.0497 54.0898H31.9797V79.5798C31.9797 81.2998 31.8997 83.0399 31.7297 84.7499L28.9398 113.77C28.8898 114.28 28.4598 114.67 27.9398 114.67L27.9598 114.66ZM12.6298 112.66H27.0497L29.7498 84.5399C29.9098 82.8899 29.9897 81.2198 29.9897 79.5698V53.0798C29.9897 52.5298 30.4397 52.0798 30.9897 52.0798H53.0598C54.3098 52.0798 55.3398 51.0599 55.3398 49.7999V46.8699H19.5997C10.6297 46.8699 3.22977 51.7799 2.75977 58.0399V80.3398C2.75977 81.8798 4.01975 83.1399 5.55975 83.1399H7.68976V79.5698C7.68976 79.0198 8.13976 78.5698 8.68976 78.5698C9.23976 78.5698 9.68976 79.0198 9.68976 79.5698C9.68976 81.2298 9.76975 82.8999 9.92975 84.5399L12.6298 112.66Z" fill="#2F3F64"/>
</g>
</g>
<path id="Vector_9" d="M19.8398 114.66C19.2898 114.66 18.8398 114.21 18.8398 113.66V84.1396C18.8398 83.5896 19.2898 83.1396 19.8398 83.1396C20.3898 83.1396 20.8398 83.5896 20.8398 84.1396V113.66C20.8398 114.21 20.3898 114.66 19.8398 114.66Z" fill="#2F3F64"/>
<path id="Vector_10" d="M8.69043 80.5696C8.14043 80.5696 7.69043 80.1196 7.69043 79.5696V56.9297C7.69043 56.3797 8.14043 55.9297 8.69043 55.9297C9.24043 55.9297 9.69043 56.3797 9.69043 56.9297V79.5696C9.69043 80.1196 9.24043 80.5696 8.69043 80.5696Z" fill="#2F3F64"/>
<g id="Group_6">
<path id="Vector_11" d="M56.3404 46.8703C56.0804 46.8703 55.8304 46.7702 55.6304 46.5802C55.2404 46.1902 55.2404 45.5603 55.6304 45.1703L72.5004 28.3003C72.8904 27.9103 73.5204 27.9103 73.9104 28.3003C74.3004 28.6903 74.3004 29.3202 73.9104 29.7102L57.0404 46.5802C56.8404 46.7802 56.5904 46.8703 56.3304 46.8703H56.3404Z" fill="#2F3F64"/>
</g>
<path id="Vector_12" d="M93.0098 21.6797H29.0498C28.4998 21.6797 28.0498 21.2297 28.0498 20.6797C28.0498 20.1297 28.4998 19.6797 29.0498 19.6797H93.0098C93.5598 19.6797 94.0098 20.1297 94.0098 20.6797C94.0098 21.2297 93.5598 21.6797 93.0098 21.6797Z" fill="#2F3F64"/>
<path id="Vector_13" d="M63.3696 26.3105H29.0596C28.5096 26.3105 28.0596 25.8605 28.0596 25.3105C28.0596 24.7605 28.5096 24.3105 29.0596 24.3105H63.3696C63.9196 24.3105 64.3696 24.7605 64.3696 25.3105C64.3696 25.8605 63.9196 26.3105 63.3696 26.3105Z" fill="#2F3F64"/>
<g id="Group_7">
<path id="Vector_14" d="M42.2197 112.161C42.7197 105.431 50.5197 100.071 60.0497 100.071C69.5797 100.071 77.3798 105.431 77.8798 112.161C77.7398 113.011 76.9998 113.651 76.1198 113.651H43.9797C43.0997 113.651 42.3597 113.011 42.2197 112.161ZM60.0497 84.1406C64.3997 84.1406 67.9197 87.7106 67.9197 92.1006C67.9197 96.4906 64.3897 100.061 60.0497 100.061C55.7097 100.061 52.1797 96.4906 52.1797 92.1006C52.1797 87.7106 55.7097 84.1406 60.0497 84.1406Z" fill="#BCC5DC"/>
<path id="Vector_15" d="M76.12 114.66H43.98C42.62 114.66 41.46 113.68 41.23 112.33C41.22 112.25 41.21 112.17 41.22 112.09C41.67 106.03 47.44 101.07 55.11 99.5504C52.74 97.9404 51.17 95.2004 51.17 92.1104C51.17 87.1704 55.15 83.1504 60.05 83.1504C64.95 83.1504 68.92 87.1704 68.92 92.1104C68.92 95.2104 67.36 97.9404 64.98 99.5504C72.65 101.07 78.42 106.04 78.87 112.09C78.87 112.17 78.87 112.25 78.86 112.33C78.63 113.68 77.48 114.66 76.11 114.66H76.12ZM43.23 112.1C43.33 112.43 43.63 112.66 43.98 112.66H76.12C76.47 112.66 76.77 112.43 76.87 112.1C76.3 105.91 68.95 101.07 60.05 101.07C51.15 101.07 43.79 105.9 43.23 112.1ZM60.05 85.1404C56.26 85.1404 53.17 88.2603 53.17 92.1003C53.17 95.9403 56.25 99.0604 60.05 99.0604C63.85 99.0604 66.92 95.9403 66.92 92.1003C66.92 88.2603 63.84 85.1404 60.05 85.1404Z" fill="#2F3F64"/>
</g>
<g id="Group_8">
<path id="Vector_16" d="M83.0498 112.161C83.5498 105.431 91.3498 100.071 100.88 100.071C110.41 100.071 118.21 105.431 118.71 112.161C118.57 113.011 117.83 113.651 116.95 113.651H84.8098C83.9298 113.651 83.1898 113.011 83.0498 112.161ZM100.88 84.1406C105.23 84.1406 108.75 87.7106 108.75 92.1006C108.75 96.4906 105.22 100.061 100.88 100.061C96.5398 100.061 93.0098 96.4906 93.0098 92.1006C93.0098 87.7106 96.5398 84.1406 100.88 84.1406Z" fill="#BCC5DC"/>
<path id="Vector_17" d="M116.95 114.66H84.81C83.45 114.66 82.29 113.68 82.06 112.33C82.05 112.25 82.04 112.17 82.05 112.09C82.5 106.03 88.2701 101.07 95.9401 99.5504C93.5701 97.9404 92.0001 95.2004 92.0001 92.1104C92.0001 87.1704 95.9801 83.1504 100.88 83.1504C105.78 83.1504 109.75 87.1704 109.75 92.1104C109.75 95.2104 108.19 97.9404 105.81 99.5504C113.48 101.07 119.25 106.04 119.7 112.09C119.7 112.17 119.7 112.25 119.69 112.33C119.46 113.68 118.31 114.66 116.94 114.66H116.95ZM84.06 112.1C84.16 112.43 84.46 112.66 84.81 112.66H116.95C117.3 112.66 117.6 112.43 117.7 112.1C117.13 105.91 109.78 101.07 100.88 101.07C91.9801 101.07 84.62 105.9 84.06 112.1ZM100.88 85.1404C97.0901 85.1404 94.0001 88.2603 94.0001 92.1003C94.0001 95.9403 97.0801 99.0604 100.88 99.0604C104.68 99.0604 107.75 95.9403 107.75 92.1003C107.75 88.2603 104.67 85.1404 100.88 85.1404Z" fill="#2F3F64"/>
</g>
</g>
</svg>
