<svg width="128" height="128" viewBox="0 0 128 128" fill="none" xmlns="http://www.w3.org/2000/svg">
<path d="M58.7196 69.3705H8.54962C4.42962 69.3705 1.09961 66.0305 1.09961 61.9205V8.68047C1.09961 4.56047 4.43962 1.23047 8.54962 1.23047H61.7896C65.9096 1.23047 69.2396 4.57047 69.2396 8.68047V58.5005" fill="#BCC5DC"/>
<path d="M58.7196 70.3705H8.54962C3.88962 70.3705 0.0996094 66.5805 0.0996094 61.9205V8.68047C0.0996094 4.02047 3.88962 0.230469 8.54962 0.230469H61.7896C66.4496 0.230469 70.2396 4.02047 70.2396 8.68047V42.1305C70.2396 42.6805 69.7896 43.1305 69.2396 43.1305C68.6896 43.1305 68.2396 42.6805 68.2396 42.1305V8.68047C68.2396 5.12047 65.3496 2.23047 61.7896 2.23047H8.54962C4.98962 2.23047 2.09961 5.12047 2.09961 8.68047V61.9205C2.09961 65.4805 4.98962 68.3705 8.54962 68.3705H58.7196C59.2696 68.3705 59.7196 68.8205 59.7196 69.3705C59.7196 69.9205 59.2696 70.3705 58.7196 70.3705Z" fill="#2F3F64"/>
<path d="M119.41 58.5H66.1697C62.0552 58.5 58.7197 61.8355 58.7197 65.95V119.19C58.7197 123.305 62.0552 126.64 66.1697 126.64H119.41C123.524 126.64 126.86 123.305 126.86 119.19V65.95C126.86 61.8355 123.524 58.5 119.41 58.5Z" fill="white"/>
<path d="M119.4 127.64H66.1599C61.4999 127.64 57.71 123.85 57.71 119.19V65.95C57.71 61.29 61.4999 57.5 66.1599 57.5H119.4C124.06 57.5 127.85 61.29 127.85 65.95V119.19C127.85 123.85 124.06 127.64 119.4 127.64ZM66.1699 59.5C62.6099 59.5 59.7199 62.39 59.7199 65.95V119.19C59.7199 122.75 62.6099 125.64 66.1699 125.64H119.41C122.97 125.64 125.86 122.75 125.86 119.19V65.95C125.86 62.39 122.97 59.5 119.41 59.5H66.1699Z" fill="#2F3F64"/>
<path d="M42.5792 46.5407H27.6992L25.2391 53.6607H17.3691L30.7991 16.2607H39.5192L52.9492 53.6607H45.0292L42.5692 46.5407H42.5792ZM40.5491 40.5407L35.1492 24.9207L29.7491 40.5407H40.5591H40.5491Z" fill="#2F3F64"/>
<path d="M110.51 85.1504H75.0596C73.6796 85.1504 72.5596 84.0304 72.5596 82.6504C72.5596 81.2704 73.6796 80.1504 75.0596 80.1504H110.51C111.89 80.1504 113.01 81.2704 113.01 82.6504C113.01 84.0304 111.89 85.1504 110.51 85.1504Z" fill="#2F3F64"/>
<path d="M77.52 112.34C76.87 112.34 76.5 112.31 76.47 112.31C75.09 112.2 74.07 110.99 74.18 109.62C74.29 108.24 75.5 107.2 76.87 107.33C77.83 107.4 100.25 108.77 102.69 82.4203C102.82 81.0403 104.04 80.0203 105.41 80.1603C106.79 80.2903 107.8 81.5103 107.67 82.8803C105.09 110.72 82.69 112.34 77.53 112.34H77.52Z" fill="#2F3F64"/>
<path d="M108.649 112.36C89.0394 112.36 81.2094 93.61 81.1294 93.41C80.6094 92.13 81.2294 90.67 82.5094 90.15C83.7894 89.63 85.2394 90.25 85.7594 91.52C86.0294 92.19 92.4594 107.35 108.639 107.35C108.869 107.35 109.089 107.35 109.319 107.35C110.699 107.31 111.849 108.4 111.879 109.78C111.909 111.16 110.829 112.31 109.449 112.34C109.179 112.34 108.909 112.35 108.639 112.35L108.649 112.36Z" fill="#2F3F64"/>
<path d="M92.7891 84.4803C91.4091 84.4803 90.2891 83.3603 90.2891 81.9803V75.2803C90.2891 73.9003 91.4091 72.7803 92.7891 72.7803C94.1691 72.7803 95.2891 73.9003 95.2891 75.2803V81.9803C95.2891 83.3603 94.1691 84.4803 92.7891 84.4803Z" fill="#2F3F64"/>
<path d="M108.209 52.6104C107.439 52.6104 106.809 51.9904 106.809 51.2204V35.4104C106.809 33.9104 105.799 32.6804 104.569 32.6804H82.8092C82.0392 32.6804 81.4092 32.0604 81.4092 31.2904C81.4092 30.5204 82.0292 29.9004 82.8092 29.9004H104.569C107.349 29.9004 109.599 32.3704 109.599 35.4104V51.2204C109.599 51.9904 108.979 52.6104 108.199 52.6104H108.209Z" fill="#2F3F64"/>
<path d="M90.2292 40.9005C89.8692 40.9005 89.5192 40.7605 89.2392 40.4905L81.0193 32.2705C80.4793 31.7305 80.4793 30.8405 81.0193 30.3005L89.2292 22.0905C89.7692 21.5505 90.6593 21.5505 91.1993 22.0905C91.7393 22.6305 91.7393 23.5205 91.1993 24.0605L83.9792 31.2805L91.2093 38.5105C91.7493 39.0505 91.7493 39.9405 91.2093 40.4805C90.9393 40.7505 90.5792 40.8905 90.2192 40.8905L90.2292 40.9005Z" fill="#2F3F64"/>
<path d="M46.0698 97.9805H23.7198C20.8898 97.9805 18.5898 95.5105 18.5898 92.4705V76.6605C18.5898 75.8905 19.2098 75.2705 19.9898 75.2705C20.7698 75.2705 21.3898 75.8905 21.3898 76.6605V92.4705C21.3898 93.9705 22.4398 95.2005 23.7298 95.2005H46.0798C46.8498 95.2005 47.4798 95.8205 47.4798 96.5905C47.4798 97.3605 46.8598 97.9805 46.0798 97.9805H46.0698Z" fill="#2F3F64"/>
<path d="M38.6696 106.19C38.3096 106.19 37.9597 106.05 37.6797 105.78C37.1397 105.24 37.1397 104.35 37.6797 103.81L44.8997 96.5903L37.6696 89.3604C37.1296 88.8204 37.1296 87.9304 37.6696 87.3904C38.2096 86.8504 39.0997 86.8504 39.6397 87.3904L47.8597 95.6104C48.1197 95.8704 48.2697 96.2304 48.2697 96.6004C48.2697 96.9704 48.1197 97.3203 47.8597 97.5903L39.6497 105.8C39.3797 106.07 39.0196 106.21 38.6596 106.21L38.6696 106.19Z" fill="#2F3F64"/>
</svg>
