<svg width="126" height="126" viewBox="0 0 126 126" fill="none" xmlns="http://www.w3.org/2000/svg">
<g id="Capa_1" clip-path="url(#clip0_516_32)">
<g id="Group">
<path id="Vector" fill-rule="evenodd" clip-rule="evenodd" d="M85.8801 1C90.7001 1 94.6001 4.91 94.6001 9.72V91.14H14.8701V1H85.8901H85.8801Z" fill="white"/>
<path id="Vector_2" fill-rule="evenodd" clip-rule="evenodd" d="M14.8698 91.14H11.3598C8.60978 91.14 5.97978 92.23 4.03978 94.17C2.48978 95.72 1.47978 97.72 1.13978 99.86C1.04978 99.24 1.00978 98.6 1.00978 97.96V14.73C0.999778 7.15 7.14978 1 14.7298 1H14.8698V91.14Z" fill="#2F3F64"/>
<path id="Vector_3" d="M1.13 100.86H1.12C0.62 100.86 0.21 100.49 0.14 100C0.05 99.33 0 98.64 0 97.96V14.73C0 6.61 6.61 0 14.73 0H14.87C15.42 0 15.87 0.45 15.87 1V91.14C15.87 91.69 15.42 92.14 14.87 92.14H11.36C8.86 92.14 6.51 93.11 4.75 94.88C3.35 96.28 2.44 98.06 2.13 100.02C2.05 100.51 1.63 100.86 1.14 100.86H1.13ZM13.87 2.03C7.25 2.48 2 8 2 14.73V95.06C2.39 94.5 2.83 93.97 3.33 93.47C5.47 91.33 8.33 90.14 11.36 90.14H13.87V2.03Z" fill="#2F3F64"/>
<path id="Vector_4" fill-rule="evenodd" clip-rule="evenodd" d="M94.61 91.1396V111.85H11.35C5.63 111.85 1 107.21 1 101.5C1 95.7796 5.64 91.1396 11.35 91.1396H94.61Z" fill="#BCC5DC"/>
<path id="Vector_5" d="M94.61 112.85H11.35C5.09 112.85 0 107.76 0 101.5C0 95.2396 5.09 90.1396 11.35 90.1396H94.61C95.16 90.1396 95.61 90.5896 95.61 91.1396V111.85C95.61 112.4 95.16 112.85 94.61 112.85ZM11.35 92.1396C6.19 92.1396 2 96.3396 2 101.49C2 106.64 6.2 110.85 11.35 110.85H93.61V92.1396H11.35Z" fill="#2F3F64"/>
<path id="Vector_6" d="M95.6097 97.0801H6.92969V99.0801H95.6097V97.0801Z" fill="#2F3F64"/>
<path id="Vector_7" d="M95.6099 103.95H34.6699V105.95H95.6099V103.95Z" fill="#2F3F64"/>
<path id="Vector_8" d="M94.6101 92.14H14.8701C14.3201 92.14 13.8701 91.69 13.8701 91.14V1C13.8701 0.45 14.3201 0 14.8701 0H51.3201C51.8701 0 52.3201 0.45 52.3201 1C52.3201 1.55 51.8701 2 51.3201 2H15.8701V90.14H93.6101V7.88C93.6101 6.31 93.0001 4.83 91.8901 3.72C90.7801 2.61 89.3001 2 87.7301 2C87.1801 2 86.7301 1.55 86.7301 1C86.7301 0.45 87.1801 0 87.7301 0C89.8401 0 91.8201 0.82 93.3101 2.31C94.8001 3.8 95.6201 5.78 95.6201 7.89V91.15C95.6201 91.7 95.1701 92.15 94.6201 92.15L94.6101 92.14Z" fill="#2F3F64"/>
</g>
<g id="Group_2">
<path id="Vector_9" d="M54.5804 57.7504C54.1604 57.7504 53.7404 57.6504 53.3604 57.4404C50.3104 55.7904 38.7604 49.5604 31.3204 45.5804C29.8404 44.7904 28.5304 44.0904 27.4804 43.5304C26.6404 43.0804 26.1104 42.2104 26.1104 41.2504C26.1104 40.2904 26.6404 39.4204 27.4804 38.9704L35.1903 34.8304C35.6803 34.5704 36.2804 34.7504 36.5404 35.2404C36.8004 35.7304 36.6204 36.3304 36.1304 36.5904L28.4104 40.7304C28.1304 40.8804 28.1004 41.1404 28.1004 41.2404C28.1004 41.3404 28.1304 41.6004 28.4104 41.7504C29.4604 42.3104 30.7803 43.0104 32.2603 43.8004C39.7003 47.7804 51.2504 54.0204 54.3004 55.6604C54.4704 55.7504 54.6803 55.7504 54.8503 55.6604L80.5303 41.2804C80.8004 41.1304 80.8304 40.8704 80.8304 40.7704C80.8304 40.6704 80.8003 40.4104 80.5203 40.2704L54.8904 26.8304C54.7204 26.7404 54.5103 26.7404 54.3503 26.8304L49.2004 29.5904C48.7104 29.8504 48.1103 29.6704 47.8503 29.1804C47.5903 28.6904 47.7703 28.0904 48.2603 27.8304L53.4104 25.0704C54.1704 24.6604 55.0704 24.6704 55.8304 25.0704L81.4604 38.5104C82.3004 38.9604 82.8203 39.8204 82.8403 40.7604C82.8603 41.7004 82.3403 42.5804 81.5203 43.0404L55.8404 57.4204C55.4504 57.6404 55.0104 57.7504 54.5804 57.7504Z" fill="#2F3F64"/>
<g id="Group_3">
<path id="Vector_10" d="M55.3499 56.5404C54.8799 56.8004 54.3099 56.8104 53.8299 56.5504C50.8599 54.9504 39.8199 48.9904 32.3799 45.0004V59.2304C32.3799 60.1104 32.8999 60.9104 33.7099 61.2704L49.4599 70.5104C52.6299 71.8904 56.2299 71.9004 59.4099 70.5404L75.5199 61.2704C76.3399 60.9204 76.8699 60.1204 76.8699 59.2304V44.6904H76.5099L55.3499 56.5404Z" fill="#BCC5DC"/>
<path id="Vector_11" d="M54.4799 72.5502C52.6299 72.5502 50.7899 72.1802 49.0699 71.4302C49.0299 71.4102 48.9999 71.4002 48.9599 71.3802L33.2599 62.1702C32.1199 61.6502 31.3799 60.5002 31.3799 59.2402V45.0102C31.3799 44.6602 31.5599 44.3302 31.8699 44.1502C32.1699 43.9702 32.5499 43.9602 32.8599 44.1302C40.2999 48.1202 51.3399 54.0702 54.3099 55.6802C54.4799 55.7702 54.6899 55.7702 54.8599 55.6802L76.0199 43.8302C76.1699 43.7502 76.3399 43.7002 76.5099 43.7002H76.8699C77.4199 43.7002 77.8699 44.1502 77.8699 44.7002V59.2402C77.8699 60.5102 77.1299 61.6502 75.9699 62.1702L59.9099 71.4102C59.9099 71.4102 59.8399 71.4502 59.7999 71.4602C58.0999 72.1802 56.2899 72.5502 54.4699 72.5502H54.4799ZM49.9199 69.6202C52.7899 70.8502 56.0899 70.8602 58.9699 69.6502L75.0199 60.4102C75.0199 60.4102 75.0899 60.3702 75.1299 60.3602C75.5799 60.1702 75.8699 59.7302 75.8699 59.2402V46.2102L55.8399 57.4302C55.0599 57.8602 54.1399 57.8702 53.3599 57.4502C50.5799 55.9502 40.7399 50.6402 33.3899 46.7002V59.2602C33.3899 59.7502 33.6799 60.1802 34.1199 60.3802C34.1599 60.4002 34.1899 60.4102 34.2299 60.4302L49.9199 69.6302V69.6202Z" fill="#2F3F64"/>
</g>
<path id="Vector_12" d="M81.8402 55.0704C81.2902 55.0704 80.8402 54.6204 80.8402 54.0704V41.9404H53.2402C52.6902 41.9404 52.2402 41.4904 52.2402 40.9404C52.2402 40.3904 52.6902 39.9404 53.2402 39.9404H81.8402C82.3902 39.9404 82.8402 40.3904 82.8402 40.9404V54.0704C82.8402 54.6204 82.3902 55.0704 81.8402 55.0704Z" fill="#2F3F64"/>
</g>
<g id="Group_4">
<path id="Vector_13" d="M99.7204 124.18C113.152 124.18 124.04 113.292 124.04 99.86C124.04 86.4285 113.152 75.54 99.7204 75.54C86.2888 75.54 75.4004 86.4285 75.4004 99.86C75.4004 113.292 86.2888 124.18 99.7204 124.18Z" fill="#FEC95C"/>
<path id="Vector_14" d="M99.7204 125.18C85.7604 125.18 74.4004 113.82 74.4004 99.86C74.4004 85.9 85.7604 74.54 99.7204 74.54C113.68 74.54 125.04 85.9 125.04 99.86C125.04 113.82 113.68 125.18 99.7204 125.18ZM99.7204 76.55C86.8604 76.55 76.4004 87.01 76.4004 99.87C76.4004 112.73 86.8604 123.19 99.7204 123.19C112.58 123.19 123.04 112.73 123.04 99.87C123.04 87.01 112.58 76.55 99.7204 76.55Z" fill="#2F3F64"/>
</g>
<path id="Vector_15" d="M103.33 92.9699L99.9897 111.85H95.1797L98.5197 92.9699H103.33ZM99.5497 90.0699C99.0897 89.6399 98.8697 89.0899 98.8697 88.4299C98.8697 87.5199 99.2197 86.7399 99.9097 86.0999C100.6 85.4499 101.41 85.1299 102.35 85.1299C103.08 85.1299 103.67 85.3499 104.12 85.7799C104.57 86.2099 104.8 86.7599 104.8 87.4199C104.8 88.3299 104.46 89.1099 103.78 89.7499C103.1 90.3999 102.29 90.7199 101.36 90.7199C100.61 90.7199 100.01 90.4999 99.5497 90.0699Z" fill="#2F3F64"/>
</g>
<defs>
<clipPath id="clip0_516_32">
<rect width="125.04" height="125.18" fill="white"/>
</clipPath>
</defs>
</svg>
