<svg width="115" height="108" viewBox="0 0 115 108" fill="none" xmlns="http://www.w3.org/2000/svg">
<path fill-rule="evenodd" clip-rule="evenodd" d="M85.1296 59.5605H1.38965V64.4305C1.38965 67.7905 4.1096 70.5106 7.4696 70.5106H70.3997C74.4997 66.2306 79.6296 62.9305 85.3796 61.0205C86.1796 60.7505 85.9796 59.5605 85.1296 59.5605Z" fill="#BCC5DC"/>
<path d="M7.46936 1.49047H86.7494C90.0994 1.49047 92.8294 4.21047 92.8294 7.57047V59.5605H1.39941V7.56047C1.39941 4.21047 4.11937 1.48047 7.47937 1.48047L7.46936 1.49047Z" fill="white"/>
<path d="M60.1393 93.8906H22.5693C22.0193 93.8906 21.5693 93.4406 21.5693 92.8906C21.5693 92.3406 22.0193 91.8906 22.5693 91.8906H60.1393C60.6893 91.8906 61.1393 92.3406 61.1393 92.8906C61.1393 93.4406 60.6893 93.8906 60.1393 93.8906Z" fill="#2F3F64"/>
<path d="M85.1296 60.5605H1.38965C0.839648 60.5605 0.389648 60.1105 0.389648 59.5605C0.389648 59.0105 0.839648 58.5605 1.38965 58.5605H85.1296C85.6796 58.5605 86.1296 59.0105 86.1296 59.5605C86.1296 60.1105 85.6796 60.5605 85.1296 60.5605Z" fill="#2F3F64"/>
<path d="M47.1093 67.8603C45.5693 67.8603 44.3193 66.6103 44.3193 65.0703C44.3193 63.5303 45.5693 62.2803 47.1093 62.2803C48.6493 62.2803 49.8994 63.5303 49.8994 65.0703C49.8994 66.6103 48.6493 67.8603 47.1093 67.8603Z" fill="#2F3F64"/>
<path d="M60.1401 70.5098H34.0801V92.8998H60.1401V70.5098Z" fill="#2F3F64"/>
<path d="M60.1401 93.89H34.0801C33.5301 93.89 33.0801 93.44 33.0801 92.89V70.5C33.0801 69.95 33.5301 69.5 34.0801 69.5H60.1401C60.6901 69.5 61.1401 69.95 61.1401 70.5V92.89C61.1401 93.44 60.6901 93.89 60.1401 93.89ZM35.0801 91.89H59.1401V71.5H35.0801V91.89Z" fill="#2F3F64"/>
<path d="M70.3997 71.5105H7.4696C3.5696 71.5105 0.389648 68.3305 0.389648 64.4305V7.56047C0.389648 3.66047 3.5696 0.480469 7.4696 0.480469H86.7496C90.6496 0.480469 93.8297 3.65047 93.8297 7.56047V59.3805C93.8297 59.9305 93.3797 60.3805 92.8297 60.3805C92.2796 60.3805 91.8297 59.9305 91.8297 59.3805V7.56047C91.8297 4.76047 89.5496 2.48047 86.7496 2.48047H7.4696C4.6696 2.48047 2.38965 4.76047 2.38965 7.56047V64.4205C2.38965 67.2205 4.6696 69.5005 7.4696 69.5005H70.3997C70.9497 69.5005 71.3997 69.9505 71.3997 70.5005C71.3997 71.0505 70.9497 71.5005 70.3997 71.5005V71.5105Z" fill="#2F3F64"/>
<path d="M88.8893 106.04C102.321 106.04 113.209 95.152 113.209 81.7204C113.209 68.2888 102.321 57.4004 88.8893 57.4004C75.4578 57.4004 64.5693 68.2888 64.5693 81.7204C64.5693 95.152 75.4578 106.04 88.8893 106.04Z" fill="#FEC95C"/>
<path d="M88.8893 107.04C74.9293 107.04 63.5693 95.6804 63.5693 81.7204C63.5693 67.7604 74.9293 56.4004 88.8893 56.4004C102.849 56.4004 114.209 67.7604 114.209 81.7204C114.209 95.6804 102.849 107.04 88.8893 107.04ZM88.8893 58.4104C76.0293 58.4104 65.5693 68.8704 65.5693 81.7304C65.5693 94.5904 76.0293 105.05 88.8893 105.05C101.749 105.05 112.209 94.5904 112.209 81.7304C112.209 68.8704 101.749 58.4104 88.8893 58.4104Z" fill="#2F3F64"/>
<path d="M62.7996 25.6307H30.6497C29.9397 25.6307 29.2697 25.3107 28.8197 24.7607C28.3697 24.2107 28.1897 23.4907 28.3297 22.8007L28.9897 19.5007C29.3697 17.6207 31.0297 16.2607 32.9497 16.2607H60.2996C62.1297 16.2607 63.7397 17.5007 64.1997 19.2707L65.0897 22.6607C65.2797 23.3807 65.1296 24.1207 64.6696 24.7107C64.2196 25.2907 63.5396 25.6307 62.7996 25.6307ZM32.9497 18.2607C31.9797 18.2607 31.1397 18.9507 30.9497 19.9007L30.2896 23.2007C30.2596 23.3507 30.3197 23.4507 30.3697 23.5007C30.4097 23.5507 30.4997 23.6307 30.6497 23.6307H62.7996C62.9596 23.6307 63.0497 23.5407 63.0897 23.4907C63.1297 23.4407 63.1897 23.3207 63.1497 23.1707L62.2597 19.7807C62.0297 18.8807 61.2196 18.2607 60.2896 18.2607H32.9397H32.9497Z" fill="#2F3F64"/>
<path d="M56.7198 53.4301H37.2099C35.1699 53.4301 33.4799 51.9001 33.2799 49.8601L30.8299 24.7201C30.7999 24.4401 30.8899 24.1601 31.0799 23.9501C31.2699 23.7401 31.5399 23.6201 31.8199 23.6201H62.1099C62.3899 23.6201 62.6598 23.7401 62.8498 23.9501C63.0398 24.1601 63.1298 24.4401 63.0998 24.7201L60.6499 49.8601C60.4499 51.8901 58.7598 53.4301 56.7198 53.4301ZM32.9198 25.6301L35.2599 49.6701C35.3599 50.6701 36.1899 51.4301 37.1999 51.4301H56.7099C57.7199 51.4301 58.5499 50.6701 58.6499 49.6701L60.9899 25.6301H32.9098H32.9198Z" fill="#2F3F64"/>
<path d="M52.7195 18.2606H40.7295C40.1795 18.2606 39.7295 17.8106 39.7295 17.2606V14.3406C39.7295 12.4206 41.2995 10.8506 43.2195 10.8506H50.2295C52.1495 10.8506 53.7195 12.4206 53.7195 14.3406V17.2606C53.7195 17.8106 53.2695 18.2606 52.7195 18.2606ZM41.7295 16.2606H51.7195V14.3406C51.7195 13.5206 51.0495 12.8506 50.2295 12.8506H43.2195C42.3995 12.8506 41.7295 13.5206 41.7295 14.3406V16.2606Z" fill="#2F3F64"/>
<path d="M46.7295 50.1209C46.1795 50.1209 45.7295 49.6709 45.7295 49.1209V28.1709C45.7295 27.6209 46.1795 27.1709 46.7295 27.1709C47.2795 27.1709 47.7295 27.6209 47.7295 28.1709V49.1209C47.7295 49.6709 47.2795 50.1209 46.7295 50.1209Z" fill="#2F3F64"/>
<path d="M40.5294 50.0806C40.0094 50.0806 39.5694 49.6806 39.5294 49.1606L37.8894 28.2706C37.8494 27.7206 38.2594 27.2406 38.8094 27.1906C39.3594 27.1406 39.8394 27.5606 39.8894 28.1106L41.5294 49.0006C41.5694 49.5506 41.1594 50.0306 40.6094 50.0806C40.5794 50.0806 40.5594 50.0806 40.5294 50.0806Z" fill="#2F3F64"/>
<path d="M52.7293 50.0802C52.7293 50.0802 52.6793 50.0802 52.6493 50.0802C52.0993 50.0402 51.6893 49.5602 51.7293 49.0002L53.3693 28.1102C53.4093 27.5602 53.8993 27.1502 54.4493 27.1902C54.9993 27.2302 55.4093 27.7102 55.3693 28.2702L53.7293 49.1602C53.6893 49.6802 53.2493 50.0802 52.7293 50.0802Z" fill="#2F3F64"/>
<path d="M88.9196 70.7705C89.8896 72.4205 90.8697 74.0605 91.8397 75.7105C91.1697 76.1005 90.5197 76.5305 89.8397 76.9105C89.5497 77.0605 89.2696 77.2305 89.0096 77.4105C89.0096 77.4505 89.0096 77.5305 89.0096 77.5705C89.8796 77.8205 90.7796 77.9305 91.6696 78.1205C92.6696 78.2705 93.6696 78.4805 94.6696 78.6305C94.9796 78.7005 95.2896 78.7605 95.6096 78.8305C96.0196 78.9305 96.4496 78.9805 96.8696 79.0605C97.0096 78.6105 97.2496 78.2005 97.4296 77.7605C97.9196 76.6105 98.4296 75.4705 98.9296 74.3205C99.1396 73.8605 99.3396 73.3905 99.5496 72.9305C99.7496 72.4705 99.9396 72.0005 100.17 71.5505C100.2 71.4305 100.32 71.2905 100.24 71.1605C100.18 71.0505 100.02 71.1105 99.9296 71.1505C99.5496 71.3405 99.1997 71.5805 98.8297 71.7805C98.2697 72.0905 97.7396 72.4405 97.1696 72.7405C96.8896 72.1705 96.5396 71.6405 96.2496 71.0905C95.6796 70.1305 95.1396 69.1605 94.5696 68.2105C94.4096 67.9305 94.2196 67.6605 94.0096 67.4105C93.7696 67.1505 93.4797 66.9405 93.1497 66.8005C92.6097 66.5805 92.0196 66.5005 91.4396 66.5505C91.0596 66.5505 90.6896 66.5405 90.3096 66.5505C88.9996 66.5505 87.6996 66.5505 86.3896 66.5505C86.7496 67.1105 87.0796 67.6805 87.4396 68.2405C87.9196 69.0905 88.4596 69.9205 88.9396 70.7705H88.9196Z" fill="#2F3F64"/>
<path d="M87.9495 70.9506C87.1995 69.6906 86.4595 68.4306 85.6895 67.1906C85.5495 66.9206 85.3095 66.7206 85.0195 66.6406C84.2095 66.6906 83.4695 67.1406 83.0695 67.8506C82.4895 68.7506 81.9894 69.6906 81.4094 70.5906C80.7694 71.6706 80.0995 72.7406 79.4495 73.8206C79.3495 73.9606 79.2595 74.1206 79.1895 74.2706C79.7395 74.5606 80.2595 74.9206 80.8195 75.2106C81.5595 75.6506 82.3194 76.0406 83.0494 76.5006C83.6894 76.8906 84.3694 77.2106 84.9794 77.6306C85.3094 77.1606 85.5795 76.6706 85.8795 76.1906C86.4095 75.3306 86.9095 74.4506 87.4495 73.5906C87.6995 73.1706 87.9495 72.7506 88.1995 72.3306C88.2895 72.1706 88.3895 72.0206 88.5095 71.8806C88.3095 71.5806 88.1295 71.2706 87.9495 70.9506Z" fill="#2F3F64"/>
<path d="M79.9992 86.0705C80.3592 85.5105 80.6892 84.9405 81.0492 84.3805C81.2192 84.0805 81.4292 83.8105 81.5892 83.5005C81.9892 83.6705 82.3692 83.9005 82.7492 84.1005C83.3392 84.4305 83.9392 84.7405 84.5292 85.0805C84.5892 85.1005 84.6492 85.0805 84.6892 85.0505C84.7392 85.0105 84.7592 84.9605 84.7592 84.9005C84.7092 84.7305 84.6292 84.5605 84.5392 84.4005C83.8592 83.0205 83.1892 81.6405 82.4992 80.2705C82.0592 79.3405 81.5892 78.4105 81.1392 77.4805C79.7692 77.6105 78.3992 77.8305 77.0192 77.9505C75.9392 78.0805 74.8692 78.2205 73.7892 78.3105C73.6192 78.3105 73.4092 78.3605 73.3592 78.5505C73.4192 78.6305 73.4892 78.7005 73.5792 78.7505C74.4692 79.2505 75.3692 79.7405 76.2392 80.2705C76.2092 80.3405 76.1692 80.4105 76.1392 80.4705C75.2492 82.0105 74.2792 83.5105 73.3592 85.0405C73.0192 85.5705 72.8792 86.2105 72.9492 86.8305C73.0792 87.4405 73.3492 88.0105 73.7292 88.5005C74.5192 89.7905 75.2892 91.0805 76.1092 92.3505C76.8892 91.1005 77.6392 89.8305 78.4492 88.5905C78.9592 87.7405 79.4892 86.9105 80.0092 86.0705H79.9992Z" fill="#2F3F64"/>
<path d="M104.809 85.7407C104.649 85.1507 104.389 84.6007 104.029 84.1107C102.949 82.2407 101.859 80.3807 100.779 78.5107C100.569 78.5907 100.369 78.7007 100.189 78.8207C99.1592 79.4307 98.1292 80.0407 97.0992 80.6507C96.3792 81.0607 95.6792 81.5207 94.9492 81.9207C96.1692 83.8907 97.3492 85.8907 98.5592 87.8807C100.429 87.8807 102.299 87.8907 104.169 87.8807C104.469 87.6607 104.679 87.3507 104.759 86.9907C104.849 86.5807 104.869 86.1607 104.799 85.7507L104.809 85.7407Z" fill="#2F3F64"/>
<path d="M97.1094 88.7607C95.8294 88.7607 94.5595 88.7807 93.2795 88.7607C93.2795 87.5907 93.2795 86.4207 93.2795 85.2507C93.2795 85.1907 93.2794 85.1107 93.2394 85.0607C93.1994 85.0007 93.1294 84.9707 93.0494 84.9707C92.9794 84.9707 92.9094 85.0107 92.8594 85.0707C92.6294 85.3707 92.4294 85.7007 92.2194 86.0107C91.7094 86.8207 91.1494 87.6107 90.6194 88.4107C90.1994 89.0607 89.7394 89.6907 89.3094 90.3407C89.0194 90.7707 88.7095 91.1807 88.4395 91.6207C89.5795 93.1407 90.6794 94.7007 91.7994 96.2307C92.1694 96.7607 92.5594 97.2807 92.9794 97.7707C93.0494 97.7807 93.1194 97.7707 93.1694 97.7207C93.2194 97.6807 93.2495 97.6107 93.2495 97.5407C93.2595 96.6807 93.2495 95.8207 93.2495 94.9507C93.3895 94.9307 93.5194 94.9207 93.6594 94.9307C94.4794 94.9307 95.2894 94.9307 96.1094 94.9307C96.6194 94.9307 97.1195 94.9307 97.6295 94.9307C97.9595 94.9307 98.2794 94.9307 98.6094 94.9307C99.3494 94.9207 100.049 94.5807 100.519 94.0207C100.719 93.7707 100.889 93.5007 101.049 93.2207C101.769 92.0807 102.469 90.9407 103.159 89.7907C103.359 89.4707 103.569 89.1607 103.749 88.8307C102.279 88.8307 100.809 88.8307 99.3395 88.8307C98.5895 88.8407 97.8395 88.7107 97.0895 88.7407L97.1094 88.7607Z" fill="#2F3F64"/>
<path d="M85.3495 88.4801C84.0795 88.4901 82.7996 88.4901 81.5296 88.4901C80.8796 88.4901 80.2296 88.4701 79.5896 88.5001C79.0296 89.3601 78.4996 90.2501 77.9396 91.1201C77.6896 91.5401 77.4096 91.9401 77.1896 92.3701C76.9596 92.7701 76.9296 93.2401 77.0896 93.6701C77.3796 94.2601 77.9095 94.6901 78.5495 94.8501C78.7595 94.9101 78.9696 94.9401 79.1796 94.9401H86.4496C86.4496 92.7901 86.4496 90.6501 86.4496 88.5001C86.0796 88.4701 85.7195 88.4601 85.3495 88.4801Z" fill="#2F3F64"/>
</svg>
