<svg width="87" height="87" viewBox="0 0 87 87" fill="none" xmlns="http://www.w3.org/2000/svg">
<path d="M62.72 40.1999C62.72 25.1099 50.4901 12.8799 35.4001 12.8799C20.3101 12.8799 8.08008 25.1099 8.08008 40.1999V59.5699H62.7101V40.1999H62.72Z" fill="#BCC5DC"/>
<path d="M62.7198 60.5699H8.08984C7.53984 60.5699 7.08984 60.1199 7.08984 59.5699V40.1999C7.08984 24.5899 19.7898 11.8799 35.4098 11.8799C51.0298 11.8799 63.7298 24.5799 63.7298 40.1999V59.5699C63.7298 60.1199 63.2798 60.5699 62.7298 60.5699H62.7198ZM9.08984 58.5699H61.7198V40.1999C61.7198 25.6899 49.9098 13.8799 35.3998 13.8799C20.8898 13.8799 9.07983 25.6899 9.07983 40.1999V58.5699H9.08984Z" fill="#2F3F64"/>
<path d="M66.4294 73.3496H4.23944C2.41944 73.3496 0.939453 71.8696 0.939453 70.0496V61.8596C0.939453 60.0396 2.41944 58.5596 4.23944 58.5596H66.4294C68.2494 58.5596 69.7294 60.0396 69.7294 61.8596V70.0496C69.7294 71.8696 68.2494 73.3496 66.4294 73.3496ZM4.23944 60.5696C3.51944 60.5696 2.93945 61.1496 2.93945 61.8696V70.0596C2.93945 70.7796 3.51944 71.3596 4.23944 71.3596H66.4294C67.1494 71.3596 67.7294 70.7796 67.7294 70.0596V61.8696C67.7294 61.1496 67.1494 60.5696 66.4294 60.5696H4.23944Z" fill="#2F3F64"/>
<path d="M35.3994 12.8893C37.6594 12.8893 39.8493 13.1693 41.9493 13.6893C42.4493 12.6993 42.7293 11.5893 42.7293 10.3993C42.7293 6.34934 39.4494 3.06934 35.3994 3.06934C31.3494 3.06934 28.0693 6.34934 28.0693 10.3993C28.0693 11.5793 28.3593 12.6993 28.8493 13.6893C30.9493 13.1693 33.1394 12.8893 35.3994 12.8893Z" fill="#2F3F64"/>
<path d="M41.9493 14.6796C41.8693 14.6796 41.7894 14.6796 41.7094 14.6496C37.5794 13.6296 33.2294 13.6296 29.0894 14.6496C28.6294 14.7596 28.1694 14.5496 27.9594 14.1296C27.3694 12.9596 27.0693 11.6996 27.0693 10.3896C27.0693 5.79957 30.8094 2.05957 35.3994 2.05957C39.9894 2.05957 43.7293 5.79957 43.7293 10.3896C43.7293 11.6896 43.4294 12.9496 42.8394 14.1296C42.6694 14.4696 42.3193 14.6796 41.9493 14.6796ZM35.3994 4.05957C31.9094 4.05957 29.0693 6.89957 29.0693 10.3896C29.0693 11.1196 29.1893 11.8296 29.4393 12.5196C33.3593 11.6796 37.4393 11.6796 41.3593 12.5196C41.6093 11.8396 41.7293 11.1196 41.7293 10.3896C41.7293 6.89957 38.8894 4.05957 35.3994 4.05957Z" fill="#2F3F64"/>
<path d="M20.0098 72.3496C21.4098 79.5796 27.7697 85.0396 35.4097 85.0396C43.0497 85.0396 49.4098 79.5796 50.8098 72.3496H20.0098Z" fill="#2F3F64"/>
<path d="M35.3996 86.0396C27.4296 86.0396 20.5396 80.3596 19.0196 72.5396C18.9596 72.2496 19.0396 71.9396 19.2296 71.7096C19.4196 71.4796 19.6996 71.3496 19.9996 71.3496H50.7996C51.0996 71.3496 51.3796 71.4796 51.5696 71.7096C51.7596 71.9396 51.8396 72.2396 51.7796 72.5396C50.2596 80.3596 43.3696 86.0396 35.3996 86.0396ZM21.2696 73.3496C23.0396 79.6096 28.7996 84.0396 35.3996 84.0396C41.9996 84.0396 47.7696 79.6096 49.5296 73.3496H21.2596H21.2696Z" fill="#2F3F64"/>
<path d="M65.5398 42.0298C76.718 42.0298 85.7798 32.9681 85.7798 21.7898C85.7798 10.6116 76.718 1.5498 65.5398 1.5498C54.3616 1.5498 45.2998 10.6116 45.2998 21.7898C45.2998 32.9681 54.3616 42.0298 65.5398 42.0298Z" fill="#FEC95C"/>
<path d="M65.5398 43.02C53.8298 43.02 44.2998 33.49 44.2998 21.78C44.2998 10.07 53.8298 0.540039 65.5398 0.540039C77.2498 0.540039 86.7798 10.07 86.7798 21.78C86.7798 33.49 77.2498 43.02 65.5398 43.02ZM65.5398 2.54004C54.9298 2.54004 46.2998 11.17 46.2998 21.78C46.2998 32.39 54.9298 41.02 65.5398 41.02C76.1498 41.02 84.7798 32.39 84.7798 21.78C84.7798 11.17 76.1498 2.54004 65.5398 2.54004Z" fill="#2F3F64"/>
<path d="M67.7891 15.0796C67.3391 14.6996 66.6891 14.4996 65.8491 14.4996C64.5891 14.4996 63.6591 15.0096 63.0591 16.0296C62.4591 17.0496 62.1591 18.6996 62.1391 20.9896C62.5791 20.2596 63.2191 19.6796 64.0591 19.2696C64.8991 18.8596 65.8191 18.6496 66.8091 18.6496C67.9991 18.6496 69.0491 18.9096 69.9691 19.4196C70.8891 19.9296 71.5991 20.6796 72.1091 21.6596C72.6191 22.6396 72.8791 23.8196 72.8791 25.1896C72.8791 26.4896 72.6191 27.6496 72.0991 28.6696C71.5791 29.6896 70.8091 30.4796 69.8091 31.0496C68.7991 31.6196 67.5991 31.8996 66.2091 31.8996C64.2991 31.8996 62.8091 31.4796 61.7191 30.6396C60.6291 29.7996 59.8691 28.6196 59.4391 27.1096C59.0091 25.5996 58.7891 23.7296 58.7891 21.5196C58.7891 18.1696 59.3691 15.6296 60.5191 13.9196C61.6691 12.2096 63.4991 11.3496 65.9891 11.3496C67.9091 11.3496 69.4091 11.8696 70.4691 12.9196C71.5291 13.9596 72.1491 15.2696 72.3091 16.8196H68.7391C68.5591 16.0496 68.2391 15.4696 67.7891 15.0896V15.0796ZM63.4891 22.6696C62.8291 23.2396 62.4991 24.0596 62.4991 25.1396C62.4991 26.2196 62.8091 27.0696 63.4191 27.6996C64.0291 28.3196 64.8991 28.6296 66.0191 28.6296C67.0091 28.6296 67.7891 28.3296 68.3691 27.7196C68.9491 27.1196 69.2391 26.2996 69.2391 25.2696C69.2391 24.2396 68.9591 23.3596 68.3991 22.7396C67.8391 22.1196 67.0191 21.8096 65.9391 21.8096C64.9691 21.8096 64.1491 22.0896 63.4891 22.6596V22.6696Z" fill="#2F3F64"/>
</svg>
