<svg width="128" height="88" viewBox="0 0 128 88" fill="none" xmlns="http://www.w3.org/2000/svg">
<g id="update-1">
<g id="asset-laptop">
<path id="Vector" d="M116.781 1.40002C115.881 0.500024 114.681 0 113.401 0H12.4907C9.86066 0 7.70061 2.14003 7.69061 4.78003L7.39062 74.08C7.39062 75.36 7.88064 76.56 8.78064 77.46C9.68064 78.37 10.8806 78.86 12.1606 78.86H113.071C115.711 78.86 117.861 76.72 117.871 74.08L118.171 4.78003C118.171 3.50003 117.681 2.30001 116.781 1.39001V1.40002Z" fill="#2F3F64"/>
<g id="Group">
<path id="Vector_2" fill-rule="evenodd" clip-rule="evenodd" d="M122.96 74.75H82.4604C80.1004 74.75 78.1805 76.66 78.1805 79.03V79.5H47.6304V79.03C47.6304 76.67 45.7205 74.75 43.3505 74.75H4.44043C2.53043 74.75 0.980469 76.3 0.980469 78.21V83.04C0.980469 84.95 2.53043 86.5 4.44043 86.5H122.94C124.85 86.5 126.4 84.95 126.4 83.04V78.21C126.4 76.3 124.85 74.75 122.94 74.75H122.96Z" fill="#BCC5DC"/>
<path id="Vector_3" d="M122.96 87.4902H4.46002C2.00002 87.4902 0 85.4903 0 83.0303V78.2003C0 75.7403 2.00002 73.7402 4.46002 73.7402H43.37C46.1 73.7402 48.35 75.8202 48.62 78.4802H77.22C77.49 75.8202 79.74 73.7402 82.47 73.7402H122.97C125.43 73.7402 127.43 75.7403 127.43 78.2003V83.0303C127.43 85.4903 125.43 87.4902 122.97 87.4902H122.96ZM4.46002 75.7502C3.11002 75.7502 2 76.8503 2 78.2103V83.0402C2 84.3902 3.10002 85.5002 4.46002 85.5002H122.96C124.31 85.5002 125.42 84.4002 125.42 83.0402V78.2103C125.42 76.8603 124.32 75.7502 122.96 75.7502H82.46C80.65 75.7502 79.1801 77.2203 79.1801 79.0303V79.5002C79.1801 80.0502 78.7301 80.5002 78.1801 80.5002H47.63C47.08 80.5002 46.63 80.0502 46.63 79.5002V79.0303C46.63 77.2203 45.16 75.7502 43.35 75.7502H4.44H4.46002Z" fill="#2F3F64"/>
</g>
<path id="Vector_4" d="M106.9 8.4502H19.21C16.4485 8.4502 14.21 10.6888 14.21 13.4502V62.7502C14.21 65.5116 16.4485 67.7502 19.21 67.7502H106.9C109.661 67.7502 111.9 65.5116 111.9 62.7502V13.4502C111.9 10.6888 109.661 8.4502 106.9 8.4502Z" fill="white"/>
<path id="Vector_5" d="M62.7799 6.7395C61.3399 6.7395 60.1699 5.56952 60.1699 4.12952C60.1699 2.68952 61.3399 1.51953 62.7799 1.51953C64.2199 1.51953 65.3899 2.68952 65.3899 4.12952C65.3899 5.56952 64.2199 6.7395 62.7799 6.7395Z" fill="#FEC95C"/>
</g>
<path id="UPDATE" d="M41.76 21.826V26.866C41.76 27.37 41.884 27.758 42.132 28.03C42.38 28.302 42.744 28.438 43.224 28.438C43.704 28.438 44.072 28.302 44.328 28.03C44.584 27.758 44.712 27.37 44.712 26.866V21.826H46.764V26.854C46.764 27.606 46.604 28.242 46.284 28.762C45.964 29.282 45.532 29.674 44.988 29.938C44.452 30.202 43.852 30.334 43.188 30.334C42.524 30.334 41.928 30.206 41.4 29.95C40.88 29.686 40.468 29.294 40.164 28.774C39.86 28.246 39.708 27.606 39.708 26.854V21.826H41.76ZM54.6249 24.538C54.6249 25.026 54.5129 25.474 54.2889 25.882C54.0649 26.282 53.7209 26.606 53.2569 26.854C52.7929 27.102 52.2169 27.226 51.5289 27.226H50.2569V30.25H48.2049V21.826H51.5289C52.2009 21.826 52.7689 21.942 53.2329 22.174C53.6969 22.406 54.0449 22.726 54.2769 23.134C54.5089 23.542 54.6249 24.01 54.6249 24.538ZM51.3729 25.594C51.7649 25.594 52.0569 25.502 52.2489 25.318C52.4409 25.134 52.5369 24.874 52.5369 24.538C52.5369 24.202 52.4409 23.942 52.2489 23.758C52.0569 23.574 51.7649 23.482 51.3729 23.482H50.2569V25.594H51.3729ZM58.8492 21.826C59.7372 21.826 60.5132 22.002 61.1772 22.354C61.8412 22.706 62.3532 23.202 62.7132 23.842C63.0812 24.474 63.2652 25.206 63.2652 26.038C63.2652 26.862 63.0812 27.594 62.7132 28.234C62.3532 28.874 61.8372 29.37 61.1652 29.722C60.5012 30.074 59.7292 30.25 58.8492 30.25H55.6932V21.826H58.8492ZM58.7172 28.474C59.4932 28.474 60.0972 28.262 60.5292 27.838C60.9612 27.414 61.1772 26.814 61.1772 26.038C61.1772 25.262 60.9612 24.658 60.5292 24.226C60.0972 23.794 59.4932 23.578 58.7172 23.578H57.7452V28.474H58.7172ZM69.656 28.762H66.512L66.008 30.25H63.86L66.908 21.826H69.284L72.332 30.25H70.16L69.656 28.762ZM69.128 27.178L68.084 24.094L67.052 27.178H69.128ZM79.3196 21.826V23.47H77.0876V30.25H75.0356V23.47H72.8036V21.826H79.3196ZM82.4015 23.47V25.174H85.1495V26.758H82.4015V28.606H85.5095V30.25H80.3495V21.826H85.5095V23.47H82.4015Z" fill="#2F3F64"/>
<rect id="Rectangle 3" x="26" y="39.25" width="75" height="15" rx="6" fill="#BCC5DC"/>
<rect id="Rectangle 4" x="26" y="39.25" width="55" height="15" rx="6" fill="#FEC95C"/>
</g>
</svg>
