<svg width="126" height="126" viewBox="0 0 126 126" fill="none" xmlns="http://www.w3.org/2000/svg">
<g id="update-2">
<path id="Vector" fill-rule="evenodd" clip-rule="evenodd" d="M116.95 94.94V98.32C116.92 100.81 114.79 102.82 112.17 102.82H4.73002C2.11002 102.82 -0.00996477 100.8 3.52327e-05 98.32L0.350011 17.25C0.360011 14.77 2.50003 12.75 5.12003 12.75H9.51999L9.18003 90.2401C9.17003 92.83 11.38 94.94 14.11 94.94H116.95Z" fill="#2F3F64"/>
<path id="Vector_2" fill-rule="evenodd" clip-rule="evenodd" d="M114.84 5.70001L114.47 90.25C114.46 92.84 112.34 94.95 109.75 94.95H13.85C11.26 94.95 9.15996 92.85 9.16996 90.25L9.53995 5.70001C9.54995 3.11001 11.6599 1 14.2599 1H110.16C112.75 1 114.85 3.10001 114.84 5.70001Z" fill="white"/>
<path id="Vector_3" d="M109.76 95.94H13.8596C12.3396 95.94 10.9096 95.35 9.8396 94.27C8.7696 93.19 8.17958 91.76 8.18958 90.2401L8.55963 5.69C8.56963 2.55 11.1396 0 14.2796 0H110.18C111.7 0 113.13 0.590044 114.2 1.67004C115.27 2.75004 115.86 4.18001 115.85 5.70001L115.48 90.2401C115.47 93.3801 112.9 95.93 109.76 95.93V95.94ZM14.2696 2C12.2296 2 10.5596 3.66001 10.5496 5.70001L10.1796 90.2401C10.1796 91.23 10.5596 92.15 11.2496 92.85C11.9396 93.55 12.8696 93.93 13.8596 93.93H109.76C111.8 93.93 113.47 92.27 113.48 90.23L113.85 5.69C113.85 4.7 113.47 3.78002 112.78 3.08002C112.08 2.38002 111.16 2 110.17 2H14.2696Z" fill="#2F3F64"/>
<path id="Vector_4" fill-rule="evenodd" clip-rule="evenodd" d="M9.51978 13.4297L9.5498 5.45978C9.5598 2.99978 11.3698 1.00977 13.5798 1.00977H110.88C113.09 1.00977 114.88 2.99978 114.87 5.45978L114.83 13.4297H9.50977H9.51978Z" fill="#BCC5DC"/>
<path id="Vector_5" fill-rule="evenodd" clip-rule="evenodd" d="M20.5599 4.41992C22.0599 4.41992 23.2798 5.64991 23.2798 7.15991C23.2798 8.66991 22.0599 9.8999 20.5599 9.8999C19.0599 9.8999 17.8398 8.66991 17.8398 7.15991C17.8398 5.64991 19.0599 4.41992 20.5599 4.41992Z" fill="#2F3F64"/>
<path id="Vector_6" fill-rule="evenodd" clip-rule="evenodd" d="M30.97 4.41992C32.47 4.41992 33.6899 5.64991 33.6899 7.15991C33.6899 8.66991 32.47 9.8999 30.97 9.8999C29.47 9.8999 28.25 8.66991 28.25 7.15991C28.25 5.64991 29.47 4.41992 30.97 4.41992Z" fill="#2F3F64"/>
<path id="Vector_7" fill-rule="evenodd" clip-rule="evenodd" d="M41.8303 4.41992C43.3303 4.41992 44.5504 5.64991 44.5504 7.15991C44.5504 8.66991 43.3303 9.8999 41.8303 9.8999C40.3303 9.8999 39.1104 8.66991 39.1104 7.15991C39.1104 5.64991 40.3303 4.41992 41.8303 4.41992Z" fill="#2F3F64"/>
<path id="Vector_8" d="M78.1395 14.4297H9.51953C9.24953 14.4297 8.99957 14.3198 8.80957 14.1398C8.61957 13.9498 8.51953 13.6997 8.51953 13.4297L8.54956 5.45978C8.55956 2.45978 10.8195 0.00976562 13.5795 0.00976562H110.91C112.17 0.00976562 113.37 0.519768 114.3 1.44977C115.33 2.47977 115.91 3.94979 115.9 5.46979L115.87 13.4398C115.87 13.9898 115.42 14.4398 114.87 14.4398C114.32 14.4398 113.87 13.9898 113.87 13.4398L113.9 5.46979C113.9 4.46979 113.53 3.52975 112.88 2.86975C112.34 2.31975 111.63 2.01978 110.91 2.01978H13.5795C11.9195 2.01978 10.5596 3.5698 10.5496 5.4798L10.5195 12.4498H78.1395C78.6895 12.4498 79.1395 12.8998 79.1395 13.4498C79.1395 13.9998 78.6895 14.4498 78.1395 14.4498V14.4297Z" fill="#2F3F64"/>
<path id="Vector_9" fill-rule="evenodd" clip-rule="evenodd" d="M100.91 76.5098C114.14 76.5098 124.88 87.2498 124.88 100.48C124.88 113.71 114.14 124.45 100.91 124.45C87.6805 124.45 76.9404 113.71 76.9404 100.48C76.9404 87.2498 87.6805 76.5098 100.91 76.5098Z" fill="#FEC95C"/>
<path id="Vector_10" d="M100.9 125.46C87.1297 125.46 75.9297 114.26 75.9297 100.49C75.9297 86.7196 87.1297 75.5195 100.9 75.5195C114.67 75.5195 125.87 86.7196 125.87 100.49C125.87 114.26 114.67 125.46 100.9 125.46ZM100.9 77.5095C88.2297 77.5095 77.9297 87.8196 77.9297 100.48C77.9297 113.14 88.2397 123.45 100.9 123.45C113.56 123.45 123.87 113.15 123.87 100.48C123.87 87.8096 113.56 77.5095 100.9 77.5095Z" fill="#2F3F64"/>
<g id="Group">
<path id="Vector_11" d="M56.6103 79.6798C56.5303 79.6798 56.4503 79.6799 56.3703 79.6499C55.8303 79.5199 55.5102 78.9799 55.6402 78.4399L68.1602 27.7599C68.2902 27.2199 68.8303 26.8999 69.3703 27.0299C69.9103 27.1599 70.2302 27.6999 70.1002 28.2399L57.5802 78.9199C57.4702 79.3799 57.0603 79.6798 56.6103 79.6798Z" fill="#2F3F64"/>
<path id="Vector_12" d="M76.3101 71.3198C76.0501 71.3198 75.8001 71.2199 75.6001 71.0299C75.2101 70.6399 75.2101 70.0098 75.6001 69.6198L90.9601 54.2598C91.1501 54.0698 91.2501 53.8199 91.2501 53.5499C91.2501 53.2799 91.1501 53.0299 90.9601 52.8399L75.6101 37.4799C75.2201 37.0899 75.2201 36.4598 75.6101 36.0698C76.0001 35.6798 76.6301 35.6798 77.0201 36.0698L92.3801 51.4298C92.9501 51.9998 93.2601 52.7499 93.2601 53.5499C93.2601 54.3499 92.9501 55.0999 92.3801 55.6699L77.0201 71.0299C76.8201 71.2299 76.5701 71.3198 76.3101 71.3198Z" fill="#2F3F64"/>
<path id="Vector_13" d="M49.5699 71.3203C49.3099 71.3203 49.0599 71.2204 48.8599 71.0304L33.5099 55.6803C32.9399 55.1103 32.6299 54.3603 32.6299 53.5603C32.6299 52.7603 32.9399 52.0103 33.5099 51.4403L48.8599 36.0904C49.2499 35.7004 49.8799 35.7004 50.2699 36.0904C50.6599 36.4804 50.6599 37.1103 50.2699 37.5003L34.9199 52.8504C34.7299 53.0404 34.6299 53.2903 34.6299 53.5603C34.6299 53.8303 34.7299 54.0803 34.9199 54.2703L50.2699 69.6303C50.6599 70.0203 50.6599 70.6504 50.2699 71.0404C50.0699 71.2404 49.8199 71.3303 49.5599 71.3303L49.5699 71.3203Z" fill="#2F3F64"/>
</g>
<g id="Group_2">
<path id="Vector_14" d="M88.4693 101.74C87.9693 101.74 87.5394 101.37 87.4794 100.87C87.0094 97.1697 88.0794 93.5097 90.4994 90.5597C92.8994 87.6197 96.3493 85.7297 100.209 85.2397C106.739 84.4197 113.019 87.8797 115.479 93.6797C115.699 94.1897 115.459 94.7697 114.949 94.9897C114.439 95.1997 113.849 94.9697 113.639 94.4597C111.529 89.4897 106.119 86.5097 100.459 87.2297C97.1193 87.6497 94.1294 89.2897 92.0494 91.8297C89.9894 94.3597 89.0693 97.4797 89.4693 100.63C89.5393 101.18 89.1494 101.68 88.5994 101.75C88.5594 101.75 88.5193 101.75 88.4693 101.75V101.74Z" fill="#2F3F64"/>
<path id="Vector_15" d="M88.4596 102.76C88.2096 102.76 87.9696 102.67 87.7796 102.49L83.5996 98.6297C83.1896 98.2497 83.1696 97.6197 83.5396 97.2197C83.9096 96.8097 84.5496 96.7897 84.9496 97.1597L88.3896 100.34L91.7896 96.6197C92.1596 96.2097 92.7896 96.1797 93.1996 96.5497C93.6096 96.9197 93.6396 97.5497 93.2596 97.9597L89.1896 102.43C89.0096 102.63 88.7596 102.74 88.4896 102.76C88.4796 102.76 88.4596 102.76 88.4496 102.76H88.4596Z" fill="#2F3F64"/>
</g>
<g id="Group_3">
<path id="Vector_16" d="M100.87 116.861C95.1401 116.861 89.96 113.671 87.65 108.581C87.42 108.081 87.65 107.481 88.15 107.261C88.65 107.031 89.25 107.261 89.47 107.761C91.64 112.551 96.8 115.381 102.3 114.791C105.65 114.431 108.67 112.861 110.8 110.361C112.91 107.871 113.89 104.771 113.56 101.621C113.5 101.071 113.9 100.581 114.45 100.521C115.01 100.461 115.49 100.861 115.55 101.411C115.95 105.111 114.8 108.751 112.33 111.661C109.87 114.551 106.39 116.371 102.52 116.781C101.97 116.841 101.41 116.871 100.87 116.871V116.861Z" fill="#2F3F64"/>
<path id="Vector_17" d="M110.42 105.87C110.17 105.87 109.93 105.78 109.73 105.6C109.33 105.22 109.31 104.59 109.69 104.19L113.85 99.8002C114.03 99.6102 114.29 99.5002 114.55 99.4902C114.81 99.4902 115.07 99.5802 115.27 99.7702L119.37 103.71C119.77 104.09 119.78 104.73 119.4 105.12C119.02 105.52 118.38 105.53 117.99 105.15L114.61 101.9L111.14 105.56C110.94 105.77 110.68 105.87 110.41 105.87H110.42Z" fill="#2F3F64"/>
</g>
</g>
</svg>
