<svg width="126" height="127" viewBox="0 0 126 127" fill="none" xmlns="http://www.w3.org/2000/svg">
<g id="user-offboarding">
<path id="Vector" fill-rule="evenodd" clip-rule="evenodd" d="M124.76 12.7097V98.6497C124.76 101.29 122.62 103.43 119.98 103.43H13.02C10.39 103.43 8.25 101.29 8.25 98.6497V12.7097C8.25 10.0697 10.39 7.92969 13.02 7.92969H119.98C122.62 7.92969 124.76 10.0697 124.76 12.7097Z" fill="white"/>
<path id="Vector_2" fill-rule="evenodd" clip-rule="evenodd" d="M114.76 103.26V106.81C114.76 109.44 112.61 111.59 109.97 111.59H4.77997C2.13997 111.59 0 109.44 0 106.81V20.7197C0 18.0797 2.13997 15.9297 4.77997 15.9297H8.54999V98.4897C8.54999 101.12 10.69 103.26 13.32 103.26H114.76Z" fill="#2F3F64"/>
<path id="Vector_3" d="M120.39 104.43H12.61C9.64999 104.43 7.25 101.84 7.25 98.6497V12.7097C7.25 9.51972 9.64999 6.92969 12.61 6.92969H66.61C67.16 6.92969 67.61 7.37969 67.61 7.92969C67.61 8.47969 67.16 8.92969 66.61 8.92969H12.61C10.76 8.92969 9.25 10.6297 9.25 12.7097V98.6497C9.25 100.73 10.76 102.43 12.61 102.43H120.39C122.25 102.43 123.76 100.73 123.76 98.6497V12.7097C123.76 10.6297 122.25 8.92969 120.39 8.92969H114.31C113.76 8.92969 113.31 8.47969 113.31 7.92969C113.31 7.37969 113.76 6.92969 114.31 6.92969H120.39C123.35 6.92969 125.76 9.51972 125.76 12.7097V98.6497C125.76 101.84 123.35 104.43 120.39 104.43Z" fill="#2F3F64"/>
<path id="Vector_4" fill-rule="evenodd" clip-rule="evenodd" d="M86.7397 1.59003V14.28C86.7397 15.15 86.0297 15.86 85.1597 15.86H41.5997C40.7197 15.86 40.0098 15.15 40.0098 14.28V1.59003C40.0098 0.710027 40.7197 0 41.5997 0H85.1597C86.0297 0 86.7397 0.710027 86.7397 1.59003Z" fill="#BCC5DC"/>
<path id="Vector_5" fill-rule="evenodd" clip-rule="evenodd" d="M114.6 31.9709V36.4909C114.6 37.7309 113.58 38.7509 112.34 38.7509H73.8596C72.6096 38.7509 71.5996 37.7309 71.5996 36.4909V31.9709C71.5996 30.7209 72.6096 29.7109 73.8596 29.7109H112.34C113.58 29.7109 114.6 30.7209 114.6 31.9709Z" fill="#BCC5DC"/>
<path id="Vector_6" fill-rule="evenodd" clip-rule="evenodd" d="M106.15 48.4201V52.9401C106.15 54.1901 105.14 55.2001 103.89 55.2001H73.8596C72.6096 55.2001 71.5996 54.1901 71.5996 52.9401V48.4201C71.5996 47.1801 72.6096 46.1602 73.8596 46.1602H103.89C105.14 46.1602 106.15 47.1801 106.15 48.4201Z" fill="white"/>
<path id="Vector_7" d="M103.89 56.2001H73.8596C72.0596 56.2001 70.5996 54.7401 70.5996 52.9401V48.4201C70.5996 46.6201 72.0596 45.1602 73.8596 45.1602H103.89C105.69 45.1602 107.15 46.6201 107.15 48.4201V52.9401C107.15 54.7401 105.69 56.2001 103.89 56.2001ZM73.8596 47.1602C73.1596 47.1602 72.5996 47.7301 72.5996 48.4201V52.9401C72.5996 53.6301 73.1696 54.2001 73.8596 54.2001H103.89C104.59 54.2001 105.15 53.6301 105.15 52.9401V48.4201C105.15 47.7301 104.58 47.1602 103.89 47.1602H73.8596Z" fill="#BCC5DC"/>
<path id="Vector_8" d="M86.6096 62.6201H73.8596C72.6115 62.6201 71.5996 63.632 71.5996 64.8801V69.4001C71.5996 70.6483 72.6115 71.6602 73.8596 71.6602H86.6096C87.8578 71.6602 88.8696 70.6483 88.8696 69.4001V64.8801C88.8696 63.632 87.8578 62.6201 86.6096 62.6201Z" fill="white"/>
<path id="Vector_9" d="M86.6096 72.6602H73.8596C72.0596 72.6602 70.5996 71.2001 70.5996 69.4001V64.8801C70.5996 63.0801 72.0596 61.6201 73.8596 61.6201H86.6096C88.4096 61.6201 89.8696 63.0801 89.8696 64.8801V69.4001C89.8696 71.2001 88.4096 72.6602 86.6096 72.6602ZM73.8596 63.6201C73.1596 63.6201 72.5996 64.1901 72.5996 64.8801V69.4001C72.5996 70.0901 73.1696 70.6602 73.8596 70.6602H86.6096C87.2996 70.6602 87.8696 70.0901 87.8696 69.4001V64.8801C87.8696 64.1901 87.2996 63.6201 86.6096 63.6201H73.8596Z" fill="#BCC5DC"/>
<path id="Vector_10" d="M60.3895 29.7109H22.5394C21.3796 29.7109 20.4395 30.6511 20.4395 31.8109V69.6609C20.4395 70.8207 21.3796 71.7609 22.5394 71.7609H60.3895C61.5493 71.7609 62.4894 70.8207 62.4894 69.6609V31.8109C62.4894 30.6511 61.5493 29.7109 60.3895 29.7109Z" fill="#BCC5DC"/>
<path id="Vector_11" d="M60.3895 72.7609H22.5394C20.8294 72.7609 19.4395 71.3709 19.4395 69.6609V31.8109C19.4395 30.1009 20.8294 28.7109 22.5394 28.7109H60.3895C62.0995 28.7109 63.4894 30.1009 63.4894 31.8109V69.6609C63.4894 71.3709 62.0995 72.7609 60.3895 72.7609ZM22.5394 30.7109C21.9294 30.7109 21.4395 31.2009 21.4395 31.8109V69.6609C21.4395 70.271 21.9294 70.7609 22.5394 70.7609H60.3895C60.9995 70.7609 61.4894 70.271 61.4894 69.6609V31.8109C61.4894 31.2009 60.9995 30.7109 60.3895 30.7109H22.5394Z" fill="#2F3F64"/>
<path id="Vector_12" fill-rule="evenodd" clip-rule="evenodd" d="M20.4697 70.0104C21.0597 62.1704 30.2397 55.9404 41.4597 55.9404C52.6797 55.9404 61.8697 62.1704 62.4597 70.0104C62.2897 71.0004 61.4298 71.7604 60.3898 71.7604H22.5397C21.4997 71.7604 20.6397 71.0004 20.4697 70.0104Z" fill="white"/>
<path id="Vector_13" d="M60.39 72.7604H22.54C21.03 72.7604 19.74 71.6804 19.48 70.1804C19.47 70.1004 19.46 70.0204 19.47 69.9404C20.1 61.5304 29.76 54.9404 41.46 54.9404C53.16 54.9404 62.82 61.5304 63.4599 69.9404C63.4599 70.0204 63.46 70.1004 63.45 70.1804C63.19 71.6804 61.91 72.7604 60.39 72.7604ZM21.48 69.9404C21.61 70.4204 22.04 70.7504 22.54 70.7504H60.39C60.89 70.7504 61.32 70.4104 61.45 69.9404C60.8 62.6404 52.0499 56.9304 41.46 56.9304C30.87 56.9304 22.13 62.6304 21.48 69.9404Z" fill="#2F3F64"/>
<path id="Vector_14" fill-rule="evenodd" clip-rule="evenodd" d="M100.41 77.1104C113.85 77.1104 124.76 88.0204 124.76 101.46C124.76 114.9 113.85 125.81 100.41 125.81C86.9695 125.81 76.0596 114.9 76.0596 101.46C76.0596 88.0204 86.9695 77.1104 100.41 77.1104Z" fill="#FEC95C"/>
<path id="Vector_15" d="M100.41 126.81C86.4295 126.81 75.0596 115.44 75.0596 101.46C75.0596 87.4804 86.4295 76.1104 100.41 76.1104C114.39 76.1104 125.76 87.4804 125.76 101.46C125.76 115.44 114.39 126.81 100.41 126.81ZM100.41 78.1104C87.5295 78.1104 77.0596 88.5804 77.0596 101.46C77.0596 114.34 87.5295 124.81 100.41 124.81C113.29 124.81 123.76 114.34 123.76 101.46C123.76 88.5804 113.29 78.1104 100.41 78.1104Z" fill="#2F3F64"/>
<path id="Vector_16" d="M114.76 102.461H86.0596C85.5096 102.461 85.0596 102.011 85.0596 101.461C85.0596 100.911 85.5096 100.461 86.0596 100.461H114.76C115.31 100.461 115.76 100.911 115.76 101.461C115.76 102.011 115.31 102.461 114.76 102.461Z" fill="#2F3F64"/>
<path id="Vector_17" fill-rule="evenodd" clip-rule="evenodd" d="M41.4594 37.4004C46.5794 37.4004 50.7294 41.5503 50.7294 46.6703C50.7294 51.7903 46.5794 55.9404 41.4594 55.9404C36.3394 55.9404 32.1895 51.7803 32.1895 46.6703C32.1895 41.5603 36.3494 37.4004 41.4594 37.4004Z" fill="white"/>
<path id="Vector_18" d="M41.4594 56.9404C35.7994 56.9404 31.1895 52.3303 31.1895 46.6703C31.1895 41.0103 35.7994 36.4004 41.4594 36.4004C47.1194 36.4004 51.7294 41.0103 51.7294 46.6703C51.7294 52.3303 47.1194 56.9404 41.4594 56.9404ZM41.4594 38.4004C36.8994 38.4004 33.1895 42.1103 33.1895 46.6703C33.1895 51.2303 36.8994 54.9404 41.4594 54.9404C46.0194 54.9404 49.7294 51.2303 49.7294 46.6703C49.7294 42.1103 46.0194 38.4004 41.4594 38.4004Z" fill="#2F3F64"/>
</g>
</svg>
