<svg width="126" height="97" viewBox="0 0 126 97" fill="none" xmlns="http://www.w3.org/2000/svg">
<g clip-path="url(#clip0_227_14)">
<path d="M63.842 82.1982L74.0946 61.5693C74.8132 60.099 76.3415 59.1533 77.9761 59.1533H121.518C121.888 59.1533 122.24 59.3515 122.434 59.681C122.652 60.0105 122.652 60.404 122.501 60.755L107.032 91.8291C106.293 93.3211 104.785 94.2667 103.127 94.2667H57.8408L62.2046 85.4868L63.8391 82.195L63.842 82.1982Z" fill="#FEC95C"/>
<path d="M53.4804 72.3208V85.4877H38.2091C38.2091 81.7995 35.2433 78.9044 31.5772 78.9044H14.2138V72.3208H1.12598V63.5409C1.12598 53.8428 8.93438 45.9844 18.5774 45.9844H20.7577C22.6135 51.2285 27.8929 54.7642 33.8454 54.7642C39.798 54.7642 45.0774 51.2315 46.9334 45.9844C56.5734 45.9844 64.3846 53.8399 64.3846 63.5409V72.3208H53.4771H53.4804Z" fill="#BCC5DC"/>
<path d="M63.8394 72.3203V82.1943L62.2019 85.4858H62.181H54.152H53.4756V78.8998V72.3203H60.2827H63.8394Z" fill="white"/>
<path d="M62.2064 85.4893L57.8426 94.2691H29.4837C27.0851 94.2691 25.1201 92.2955 25.1201 89.8792V85.4893H62.2064Z" fill="#FEC95C"/>
<path d="M46.9336 2.09375C46.9336 2.09375 51.2967 5.21123 51.2967 10.8727C51.2967 16.5342 46.7607 19.8682 46.7607 19.8682C46.7607 19.8682 46.761 19.8469 46.7397 19.8011C46.412 19.0995 43.7529 13.615 38.2104 13.615C32.2977 13.615 29.487 19.6486 29.487 19.6486C21.9827 18.4193 21.7431 27.0671 25.1239 28.4275C25.1239 28.4275 20.7607 28.4275 20.7607 17.4554C20.7607 4.42117 35.8544 4.29002 38.2104 4.29002C45.0144 4.29002 46.9336 2.09375 46.9336 2.09375Z" fill="#2F3F64"/>
<path d="M46.9283 21.8432V28.4258C46.9283 34.4808 42.0439 39.3981 36.022 39.3981C30.0004 39.3981 25.1157 34.4808 25.1157 28.4258C21.7349 27.0654 21.9744 18.4176 29.4789 19.6469C29.4789 19.6469 32.2925 13.6133 38.202 13.6133C43.7419 13.6133 46.4038 19.0978 46.7313 19.7994C46.7525 19.8452 46.7525 19.8665 46.7525 19.8665C46.8617 20.5041 46.9283 21.1599 46.9283 21.8432Z" fill="white"/>
<path d="M38.2083 85.4879H25.1206V89.8779H12.0328C7.21128 89.8779 3.30859 85.9487 3.30859 81.1009V72.3242H14.2161V78.9075H31.5796C35.2457 78.9075 38.2115 81.8058 38.2115 85.4908L38.2083 85.4879Z" fill="white"/>
<path d="M103.13 95.3977H57.8445C57.4563 95.3977 57.0924 95.1963 56.8893 94.8607C56.6861 94.528 56.6649 94.1101 56.8407 93.7594L73.0913 61.0591C73.9918 59.2164 75.9113 58.0205 77.9795 58.0205H121.522C122.277 58.0205 122.989 58.4233 123.387 59.0729C123.787 59.6955 123.844 60.4886 123.532 61.2026C123.523 61.2206 123.517 61.239 123.508 61.2573L108.04 92.3317C107.103 94.2201 105.223 95.3916 103.13 95.3916V95.3977ZM59.6639 93.1371H103.133C104.367 93.1371 105.477 92.4444 106.032 91.325L121.482 60.2872L77.9795 60.2843C76.7635 60.2843 75.6354 60.9828 75.1048 62.0687L59.6639 93.1371Z" fill="#2F3F64"/>
<path d="M36.0265 40.5274C29.3923 40.5274 23.9951 35.0978 23.9951 28.4267C23.9951 27.8014 24.4984 27.2981 25.117 27.2981C25.7355 27.2981 26.2389 27.8045 26.2389 28.4267C26.2389 33.8533 30.6292 38.2703 36.0233 38.2703C41.4174 38.2703 45.805 33.8565 45.805 28.4267V21.844C45.805 21.2614 45.7532 20.6788 45.6472 20.0626C45.541 19.4465 45.9505 18.8638 46.56 18.7571C47.1753 18.6503 47.7544 19.0621 47.8575 19.6752C47.985 20.4195 48.0487 21.1303 48.0487 21.844V28.4267C48.0487 35.101 42.6514 40.5274 36.0204 40.5274H36.0265Z" fill="#2F3F64"/>
<path d="M25.1182 91.0049H12.0318C6.60133 91.0049 2.18359 86.5605 2.18359 81.0972V72.3214C2.18359 71.6959 2.68692 71.1895 3.30545 71.1895C3.924 71.1895 4.42734 71.6959 4.42734 72.3214V81.0972C4.42734 85.3127 7.83841 88.7445 12.0287 88.7445H25.1152C25.7368 88.7445 26.2371 89.2507 26.2371 89.8762C26.2371 90.5013 25.7337 91.0078 25.1152 91.0078L25.1182 91.0049Z" fill="#2F3F64"/>
<path d="M38.2065 86.6155C37.5848 86.6155 37.0845 86.109 37.0845 85.4836C37.0845 82.4272 34.665 80.0295 31.5752 80.0295H14.2137C13.5921 80.0295 13.0918 79.5231 13.0918 78.8979V72.3152C13.0918 71.69 13.5951 71.1836 14.2137 71.1836C14.8322 71.1836 15.3355 71.69 15.3355 72.3152V77.7663H31.5752C35.8505 77.7663 39.3282 81.2255 39.3282 85.4807C39.3282 86.1058 38.825 86.6123 38.2065 86.6123V86.6155Z" fill="#2F3F64"/>
<path d="M60.2817 73.4482H51.2946C50.6732 73.4482 50.1729 72.9421 50.1729 72.3198V63.5408C50.1729 62.9185 50.6761 62.4121 51.2946 62.4121C51.9133 62.4121 52.4166 62.9185 52.4166 63.5408V71.1879H60.2817C60.9034 71.1879 61.4037 71.6943 61.4037 72.3198C61.4037 72.945 60.9002 73.4482 60.2817 73.4482Z" fill="#2F3F64"/>
<path d="M16.3931 73.4496H1.12198C0.500345 73.4496 0 72.9431 0 72.3206V63.541C0 53.2386 8.33302 44.8555 18.5734 44.8555H20.7537C21.2298 44.8555 21.6513 45.1576 21.812 45.6058C23.5102 50.4076 28.3438 53.6321 33.8415 53.6321C39.3392 53.6321 44.173 50.4076 45.871 45.6058C46.0316 45.1544 46.4534 44.8555 46.9292 44.8555C57.1728 44.8555 65.5059 53.2386 65.5059 63.541C65.5059 64.1662 65.0024 64.6726 64.3839 64.6726C63.7651 64.6726 63.2619 64.1662 63.2619 63.541C63.2619 54.7396 56.345 47.534 47.6935 47.1312C45.4556 52.4027 39.9972 55.8927 33.8447 55.8927C27.6918 55.8927 22.2214 52.3966 19.9895 47.1129H18.5765C9.57328 47.1129 2.25004 54.4803 2.25004 63.5378V71.1858H15.2742V63.5378C15.2742 62.9155 15.7775 62.4091 16.3962 62.4091C17.0148 62.4091 17.5182 62.9155 17.5182 63.5378V72.3177C17.5182 72.9399 17.0148 73.4464 16.3962 73.4464L16.3931 73.4496Z" fill="#2F3F64"/>
<path d="M25.12 29.554H25.1139C24.553 29.554 19.6289 29.2154 19.6289 17.4532C19.6289 4.18718 33.8464 3.15616 38.2034 3.15616C44.2556 3.15616 46.0869 1.34119 46.1049 1.32289C46.4842 0.889735 47.1117 0.834829 47.5785 1.17037C47.7756 1.31069 52.4146 4.69661 52.4146 10.8705C52.4146 17.0445 47.621 20.6286 47.4179 20.7812C47.0753 21.0313 46.6236 21.0679 46.2475 20.8757C45.9777 20.7385 45.7807 20.5006 45.6896 20.2199C45.1651 19.1279 42.7788 14.7445 38.2063 14.7445C33.0669 14.7445 30.5232 20.0735 30.499 20.1284C30.2865 20.5859 29.7955 20.8452 29.3013 20.7629C28.8767 20.6927 28.4705 20.6591 28.0884 20.6591C25.1291 20.6591 24.4075 22.7517 24.2346 23.6546C23.9314 25.2408 24.5015 26.9155 25.4839 27.3578C25.9265 27.5103 26.2449 27.9312 26.2449 28.4284C26.2449 29.0538 25.7416 29.5601 25.123 29.5601L25.12 29.554ZM46.8995 3.5405C45.6957 4.31224 43.1155 5.41646 38.2034 5.41646C33.2914 5.41646 21.8757 6.58783 21.8757 17.4532C21.8757 19.4726 22.0243 21.0771 22.2577 22.3552C22.9581 20.3114 24.7683 18.3988 28.0854 18.3988C28.337 18.3988 28.5917 18.411 28.8555 18.4324C29.8802 16.6876 32.8973 12.4842 38.2005 12.4842C42.9517 12.4842 45.8019 16.0012 47.0601 18.0603C48.2668 16.8066 50.1619 14.2931 50.1619 10.8705C50.1619 7.07892 48 4.57457 46.8963 3.5405H46.8995Z" fill="#2F3F64"/>
<path d="M57.8397 95.3989H29.4807C26.4544 95.3989 23.9951 92.9218 23.9951 89.88V85.49C23.9951 84.8678 24.4985 84.3613 25.1171 84.3613H53.4759C54.0976 84.3613 54.5979 84.8678 54.5979 85.49C54.5979 86.1126 54.0947 86.6219 53.4759 86.6219H26.2391V89.88C26.2391 91.6769 27.6916 93.1383 29.4807 93.1383H57.8397C58.4614 93.1383 58.9617 93.6447 58.9617 94.267C58.9617 94.8893 58.4582 95.3957 57.8397 95.3957V95.3989Z" fill="#2F3F64"/>
<path d="M53.4772 80.0325C52.8558 80.0325 52.3555 79.526 52.3555 78.9009V72.3181C52.3555 71.6927 52.8587 71.1865 53.4772 71.1865C54.096 71.1865 54.5992 71.6927 54.5992 72.3181V78.9009C54.5992 79.526 54.096 80.0325 53.4772 80.0325Z" fill="#2F3F64"/>
</g>
<defs>
<clipPath id="clip0_227_14">
<rect width="125.152" height="96.0471" fill="white" transform="translate(0 0.953125)"/>
</clipPath>
</defs>
</svg>
