<svg width="127" height="124" viewBox="0 0 127 124" fill="none" xmlns="http://www.w3.org/2000/svg">
<g id="virus">
<path id="Vector" fill-rule="evenodd" clip-rule="evenodd" d="M84.74 59.0703H1V63.9403C1 67.3003 3.72002 70.0203 7.08002 70.0203H70.01C74.11 65.7403 79.24 62.4403 84.99 60.5303C85.79 60.2603 85.59 59.0703 84.74 59.0703Z" fill="#BCC5DC"/>
<path id="Vector_2" d="M7.07977 1H86.3597C89.7097 1 92.4398 3.71996 92.4398 7.07996V59.0699H1.00977V7.07996C1.00977 3.72996 3.72972 1 7.08972 1H7.07977Z" fill="white"/>
<path id="Vector_3" d="M59.7497 93.4102H22.1797C21.6297 93.4102 21.1797 92.9602 21.1797 92.4102C21.1797 91.8602 21.6297 91.4102 22.1797 91.4102H59.7497C60.2997 91.4102 60.7497 91.8602 60.7497 92.4102C60.7497 92.9602 60.2997 93.4102 59.7497 93.4102Z" fill="#2F3F64"/>
<path id="Vector_4" d="M46.72 60.0703H1C0.45 60.0703 0 59.6203 0 59.0703C0 58.5203 0.45 58.0703 1 58.0703H46.72C47.27 58.0703 47.72 58.5203 47.72 59.0703C47.72 59.6203 47.27 60.0703 46.72 60.0703Z" fill="#2F3F64"/>
<path id="Vector_5" d="M46.7197 67.3798C45.1797 67.3798 43.9297 66.1298 43.9297 64.5898C43.9297 63.0498 45.1797 61.7998 46.7197 61.7998C48.2597 61.7998 49.5097 63.0498 49.5097 64.5898C49.5097 66.1298 48.2597 67.3798 46.7197 67.3798Z" fill="#2F3F64"/>
<g id="Group">
<path id="Vector_6" d="M59.7504 70.0195H33.6904V92.4095H59.7504V70.0195Z" fill="#2F3F64"/>
<path id="Vector_7" d="M59.7504 93.4095H33.6904C33.1404 93.4095 32.6904 92.9595 32.6904 92.4095V70.0195C32.6904 69.4695 33.1404 69.0195 33.6904 69.0195H59.7504C60.3004 69.0195 60.7504 69.4695 60.7504 70.0195V92.4095C60.7504 92.9595 60.3004 93.4095 59.7504 93.4095ZM34.6904 91.4095H58.7504V71.0195H34.6904V91.4095Z" fill="#2F3F64"/>
</g>
<g id="Group_2">
<g id="Group_3">
<path id="Vector_8" d="M97.2897 114.73C108.12 114.73 116.9 105.95 116.9 95.1198C116.9 84.2895 108.12 75.5098 97.2897 75.5098C86.4594 75.5098 77.6797 84.2895 77.6797 95.1198C77.6797 105.95 86.4594 114.73 97.2897 114.73Z" fill="#FEC95C"/>
<path id="Vector_9" d="M97.2897 115.73C85.9197 115.73 76.6797 106.48 76.6797 95.1198C76.6797 83.7598 85.9297 74.5098 97.2897 74.5098C108.65 74.5098 117.9 83.7598 117.9 95.1198C117.9 106.48 108.65 115.73 97.2897 115.73ZM97.2897 76.4998C87.0297 76.4998 78.6797 84.8498 78.6797 95.1098C78.6797 105.37 87.0297 113.72 97.2897 113.72C107.55 113.72 115.9 105.37 115.9 95.1098C115.9 84.8498 107.55 76.4998 97.2897 76.4998Z" fill="#2F3F64"/>
</g>
<path id="Vector_10" d="M97.29 76.4998C96.74 76.4998 96.29 76.0498 96.29 75.4998V68.2197C96.29 67.6697 96.74 67.2197 97.29 67.2197C97.84 67.2197 98.29 67.6697 98.29 68.2197V75.4998C98.29 76.0498 97.84 76.4998 97.29 76.4998Z" fill="#2F3F64"/>
<path id="Vector_11" d="M101.6 68.9297H92.9902C92.4402 68.9297 91.9902 68.4797 91.9902 67.9297C91.9902 67.3797 92.4402 66.9297 92.9902 66.9297H101.6C102.15 66.9297 102.6 67.3797 102.6 67.9297C102.6 68.4797 102.15 68.9297 101.6 68.9297Z" fill="#2F3F64"/>
<g id="Group_4">
<path id="Vector_12" d="M87.3396 78.9094C86.9896 78.9094 86.6496 78.7293 86.4696 78.3993L83.0396 72.3694C82.7696 71.8894 82.9296 71.2793 83.4196 71.0093C83.8996 70.7393 84.5096 70.8993 84.7796 71.3893L88.2097 77.4194C88.4797 77.8994 88.3196 78.5094 87.8296 78.7794C87.6696 78.8694 87.4996 78.9094 87.3396 78.9094Z" fill="#2F3F64"/>
</g>
<g id="Group_5">
<path id="Vector_13" d="M80.02 74.7497C79.67 74.7497 79.33 74.5697 79.15 74.2397C78.88 73.7597 79.04 73.1496 79.53 72.8796L87.01 68.6197C87.49 68.3497 88.1 68.5097 88.37 68.9997C88.64 69.4797 88.48 70.0897 87.99 70.3597L80.51 74.6197C80.35 74.7097 80.18 74.7497 80.02 74.7497Z" fill="#2F3F64"/>
</g>
<g id="Group_6">
<path id="Vector_14" d="M79.95 86.1698C79.78 86.1698 79.6 86.1298 79.44 86.0298L73.58 82.5398C73.11 82.2598 72.9499 81.6398 73.2299 81.1698C73.5099 80.6998 74.1299 80.5398 74.5999 80.8198L80.46 84.3098C80.93 84.5898 81.09 85.2098 80.81 85.6798C80.62 85.9898 80.29 86.1698 79.95 86.1698Z" fill="#2F3F64"/>
</g>
<g id="Group_7">
<path id="Vector_15" d="M71.63 86.2292C71.46 86.2292 71.28 86.1892 71.12 86.0892C70.65 85.8092 70.49 85.1892 70.77 84.7192L75.17 77.3192C75.45 76.8492 76.07 76.6892 76.54 76.9692C77.01 77.2492 77.17 77.8692 76.89 78.3392L72.49 85.7392C72.3 86.0492 71.97 86.2292 71.63 86.2292Z" fill="#2F3F64"/>
</g>
<g id="Group_8">
<path id="Vector_16" d="M77.6698 96.1898H77.6498L70.3698 96.0498C69.8198 96.0398 69.3798 95.5798 69.3898 95.0298C69.3998 94.4898 69.8498 94.0498 70.3898 94.0498H70.4098L77.6898 94.1898C78.2398 94.1998 78.6798 94.6598 78.6698 95.2098C78.6598 95.7498 78.2098 96.1898 77.6698 96.1898Z" fill="#2F3F64"/>
</g>
<g id="Group_9">
<path id="Vector_17" d="M70.0099 100.349H69.9899C69.4399 100.339 68.9999 99.8792 69.0099 99.3292L69.1799 90.7192C69.1899 90.1792 69.6399 89.7393 70.1799 89.7393H70.1999C70.7499 89.7493 71.1899 90.2092 71.1799 90.7592L71.0099 99.3693C70.9999 99.9093 70.5499 100.349 70.0099 100.349Z" fill="#2F3F64"/>
</g>
<g id="Group_10">
<path id="Vector_18" d="M73.7901 109.509C73.4401 109.509 73.0901 109.319 72.9101 108.989C72.6501 108.499 72.8302 107.899 73.3102 107.629L79.7002 104.149C80.1802 103.889 80.7902 104.069 81.0602 104.549C81.3302 105.029 81.1401 105.639 80.6601 105.909L74.2702 109.389C74.1202 109.469 73.9501 109.509 73.7901 109.509Z" fill="#2F3F64"/>
</g>
<g id="Group_11">
<path id="Vector_19" d="M75.5896 113.429C75.2396 113.429 74.8896 113.239 74.7096 112.909L70.5996 105.339C70.3396 104.849 70.5196 104.249 70.9996 103.979C71.4796 103.719 72.0896 103.899 72.3596 104.379L76.4696 111.949C76.7296 112.439 76.5496 113.039 76.0696 113.309C75.9196 113.389 75.7496 113.429 75.5896 113.429Z" fill="#2F3F64"/>
</g>
<g id="Group_12">
<path id="Vector_20" d="M83.4002 119.52C83.2202 119.52 83.0402 119.47 82.8702 119.37C82.4002 119.08 82.2602 118.46 82.5502 117.99L86.3902 111.81C86.6802 111.34 87.3002 111.2 87.7702 111.49C88.2402 111.78 88.3802 112.4 88.0902 112.87L84.2502 119.05C84.0602 119.35 83.7302 119.52 83.4002 119.52Z" fill="#2F3F64"/>
</g>
<g id="Group_13">
<path id="Vector_21" d="M86.8998 122.04C86.7198 122.04 86.5399 121.99 86.3699 121.89L79.0499 117.35C78.5799 117.06 78.4399 116.44 78.7299 115.97C79.0199 115.5 79.6399 115.36 80.1099 115.65L87.4299 120.19C87.8999 120.48 88.0399 121.1 87.7499 121.57C87.5599 121.87 87.2298 122.04 86.8998 122.04Z" fill="#2F3F64"/>
</g>
<g id="Group_14">
<path id="Vector_22" d="M96.6999 123.47C96.6999 123.47 96.6699 123.47 96.6599 123.47C96.1099 123.45 95.6799 122.98 95.6999 122.43L95.9799 115.16C95.9999 114.61 96.5199 114.17 97.0199 114.2C97.5699 114.22 97.9999 114.69 97.9799 115.24L97.6999 122.51C97.6799 123.05 97.2399 123.47 96.6999 123.47Z" fill="#2F3F64"/>
</g>
<g id="Group_15">
<path id="Vector_23" d="M100.99 123.93C100.99 123.93 100.96 123.93 100.95 123.93L92.3503 123.6C91.8003 123.58 91.3703 123.11 91.3903 122.56C91.4103 122.01 91.9203 121.56 92.4303 121.6L101.03 121.93C101.58 121.95 102.01 122.42 101.99 122.97C101.97 123.51 101.53 123.93 100.99 123.93Z" fill="#2F3F64"/>
</g>
<g id="Group_16">
<path id="Vector_24" d="M110.21 120.33C109.85 120.33 109.5 120.13 109.32 119.79L105.97 113.33C105.72 112.84 105.91 112.24 106.4 111.98C106.89 111.73 107.49 111.92 107.75 112.41L111.1 118.87C111.35 119.36 111.16 119.96 110.67 120.22C110.52 120.3 110.37 120.33 110.21 120.33Z" fill="#2F3F64"/>
</g>
<g id="Group_17">
<path id="Vector_25" d="M106.53 122.57C106.17 122.57 105.82 122.37 105.64 122.03C105.39 121.54 105.58 120.94 106.07 120.68L113.71 116.71C114.2 116.46 114.8 116.65 115.06 117.14C115.31 117.63 115.12 118.23 114.63 118.49L106.99 122.46C106.84 122.54 106.69 122.57 106.53 122.57Z" fill="#2F3F64"/>
</g>
<g id="Group_18">
<path id="Vector_26" d="M120.4 110.91C120.21 110.91 120.02 110.86 119.86 110.75L113.75 106.79C113.29 106.49 113.15 105.87 113.46 105.41C113.76 104.95 114.38 104.81 114.84 105.12L120.95 109.08C121.41 109.38 121.55 110 121.24 110.46C121.05 110.75 120.73 110.92 120.4 110.92V110.91Z" fill="#2F3F64"/>
</g>
<g id="Group_19">
<path id="Vector_27" d="M118.31 114.69C118.12 114.69 117.93 114.64 117.77 114.53C117.31 114.23 117.17 113.61 117.48 113.15L122.16 105.92C122.46 105.46 123.08 105.32 123.54 105.63C124 105.93 124.14 106.55 123.83 107.01L119.15 114.24C118.96 114.53 118.64 114.7 118.31 114.7V114.69Z" fill="#2F3F64"/>
</g>
<g id="Group_20">
<path id="Vector_28" d="M124.609 97.69C124.609 97.69 124.569 97.69 124.549 97.69L117.279 97.2701C116.729 97.2401 116.309 96.7701 116.339 96.2101C116.369 95.6601 116.849 95.2401 117.399 95.2701L124.669 95.69C125.219 95.72 125.639 96.1901 125.609 96.7501C125.579 97.2801 125.139 97.69 124.609 97.69Z" fill="#2F3F64"/>
</g>
<g id="Group_21">
<path id="Vector_29" d="M124.66 102.01C124.66 102.01 124.62 102.01 124.6 102.01C124.05 101.98 123.63 101.51 123.66 100.95L124.16 92.3497C124.19 91.7997 124.68 91.3797 125.22 91.4097C125.77 91.4397 126.19 91.9097 126.16 92.4697L125.66 101.07C125.63 101.6 125.19 102.01 124.66 102.01Z" fill="#2F3F64"/>
</g>
<g id="Group_22">
<path id="Vector_30" d="M115.21 87.3501C114.84 87.3501 114.49 87.1501 114.31 86.7901C114.06 86.2901 114.27 85.7001 114.76 85.4501L121.28 82.2201C121.78 81.9701 122.37 82.1801 122.62 82.6701C122.87 83.1601 122.66 83.7601 122.17 84.0101L115.65 87.2401C115.51 87.3101 115.36 87.3401 115.21 87.3401V87.3501Z" fill="#2F3F64"/>
</g>
<g id="Group_23">
<path id="Vector_31" d="M123.91 87.8499C123.54 87.8499 123.19 87.6499 123.01 87.2899L119.19 79.5698C118.94 79.0698 119.15 78.4799 119.64 78.2299C120.14 77.9799 120.73 78.1899 120.98 78.6799L124.8 86.3998C125.05 86.8998 124.84 87.4899 124.35 87.7399C124.21 87.8099 124.06 87.8398 123.91 87.8398V87.8499Z" fill="#2F3F64"/>
</g>
<g id="Group_24">
<path id="Vector_32" d="M108.44 79.7801C108.25 79.7801 108.05 79.7202 107.88 79.6102C107.42 79.3002 107.3 78.6801 107.61 78.2201L111.68 72.1901C111.99 71.7301 112.61 71.6101 113.07 71.9201C113.53 72.2301 113.65 72.8502 113.34 73.3102L109.27 79.3401C109.08 79.6301 108.76 79.7801 108.44 79.7801Z" fill="#2F3F64"/>
</g>
<g id="Group_25">
<path id="Vector_33" d="M116.25 75.91C116.06 75.91 115.86 75.85 115.69 75.74L108.56 70.92C108.1 70.61 107.98 69.99 108.29 69.53C108.6 69.07 109.22 68.95 109.68 69.26L116.81 74.08C117.27 74.39 117.39 75.01 117.08 75.47C116.89 75.76 116.57 75.91 116.25 75.91Z" fill="#2F3F64"/>
</g>
</g>
<path id="Vector_34" d="M70.01 71.02H7.08002C3.18002 71.02 0 67.8499 0 63.9399V7.07996C0 3.17996 3.18002 0 7.08002 0H86.36C90.26 0 93.44 3.17996 93.44 7.07996V58.9C93.44 59.45 92.99 59.9 92.44 59.9C91.89 59.9 91.44 59.45 91.44 58.9V7.07996C91.44 4.27996 89.16 2 86.36 2H7.08002C4.28002 2 2 4.27996 2 7.07996V63.9399C2 66.7399 4.28002 69.02 7.08002 69.02H70.01C70.56 69.02 71.01 69.47 71.01 70.02C71.01 70.57 70.56 71.02 70.01 71.02Z" fill="#2F3F64"/>
<path id="Vector_35" d="M99.2396 105.5C99.2396 106.91 98.1396 107.98 96.6896 107.98C95.2396 107.98 94.1396 106.91 94.1396 105.43C94.1396 103.95 95.2096 102.92 96.7196 102.92C98.2296 102.92 99.2296 103.99 99.2296 105.5H99.2396ZM98.8196 100.37H94.5096V84.5596H98.8196V100.37Z" fill="#2F3F64"/>
</g>
</svg>
