<svg viewBox="0 0 128 128" fill="none" xmlns="http://www.w3.org/2000/svg">
<g id="vpn">
<path id="Vector" fill-rule="evenodd" clip-rule="evenodd" d="M24.2205 74.9C24.0505 74.9 23.8704 74.9 23.6904 74.9C11.2904 74.9 1.23047 64.8299 1.23047 52.4399C1.23047 45.0499 4.81056 38.49 10.3206 34.4C10.1006 32.96 9.98047 31.48 9.98047 29.98C9.98047 14.14 22.8404 1.29004 38.6804 1.29004C53.5904 1.29004 65.8605 12.69 67.2405 27.24C77.0305 27.62 84.8606 35.6899 84.8606 45.5699C84.8606 46.4199 84.8004 47.26 84.6904 48.08C88.5204 50.72 91.0405 55.18 91.0405 60.24C91.0405 68.34 84.5804 74.91 76.6304 74.91C76.4004 74.91 76.1804 74.91 75.9504 74.89V74.91H24.2205V74.9Z" fill="white"/>
<path id="Vector_2" d="M76.6206 75.9098C76.4406 75.9098 76.2606 75.9098 76.0806 75.9098C76.0406 75.9098 75.9904 75.9098 75.9504 75.9098H24.2205C24.2205 75.9098 24.1604 75.9098 24.1304 75.9098C23.9804 75.9098 23.8404 75.9098 23.6904 75.9098C10.7504 75.9098 0.230469 65.3797 0.230469 52.4497C0.230469 45.2597 3.59048 38.3997 9.24048 33.9697C9.06048 32.6497 8.97046 31.3197 8.97046 29.9897C8.97046 13.6197 22.2904 0.299805 38.6704 0.299805C46.9704 0.299805 54.9505 3.8097 60.5605 9.9397C60.9305 10.3497 60.9105 10.9797 60.5005 11.3497C60.0905 11.7197 59.4606 11.6898 59.0906 11.2898C53.8506 5.57979 46.4104 2.2998 38.6704 2.2998C23.4004 2.2998 10.9705 14.7197 10.9705 29.9897C10.9705 31.4197 11.0805 32.8498 11.3005 34.2598C11.3605 34.6298 11.2104 34.9897 10.9104 35.2197C5.4704 39.2597 2.23047 45.7097 2.23047 52.4597C2.23047 64.2997 11.8604 73.9198 23.6904 73.9198C23.8604 73.9198 24.0304 73.9198 24.1904 73.9198C24.2304 73.9198 24.2806 73.9198 24.3206 73.9198H75.7805C75.8505 73.9098 75.9305 73.8998 76.0005 73.9098C76.2105 73.9098 76.4204 73.9198 76.6304 73.9198C84.0304 73.9198 90.0405 67.7898 90.0405 60.2498C90.0405 55.6998 87.8306 51.4598 84.1206 48.9098C83.8106 48.6998 83.6404 48.3197 83.7004 47.9497C83.8104 47.1697 83.8606 46.3697 83.8606 45.5797C83.8606 36.2197 76.5404 28.6098 67.2004 28.2498C66.6504 28.2298 66.2205 27.7597 66.2405 27.2097C66.2605 26.6597 66.7405 26.2098 67.2805 26.2498C77.7005 26.6598 85.8606 35.1497 85.8606 45.5797C85.8606 46.2597 85.8205 46.9498 85.7505 47.6198C89.7005 50.5698 92.0405 55.2498 92.0405 60.2498C92.0405 68.8898 85.1304 75.9198 76.6304 75.9198L76.6206 75.9098Z" fill="#2F3F64"/>
<path id="Vector_3" d="M84.7709 46.67C84.2209 46.67 83.7709 46.22 83.7709 45.67C83.7709 36.06 75.9509 28.25 66.3509 28.25C64.0009 28.25 61.7309 28.71 59.5809 29.61C59.0709 29.83 58.4809 29.59 58.2709 29.08C58.0609 28.57 58.2909 27.98 58.8009 27.77C61.1909 26.76 63.7309 26.25 66.3509 26.25C77.0609 26.25 85.7709 34.96 85.7709 45.67C85.7709 46.22 85.3209 46.67 84.7709 46.67Z" fill="#2F3F64"/>
<path id="Vector_4" d="M13.9507 43.9295C13.6207 43.9295 13.2908 43.7594 13.1008 43.4594C10.0908 38.6394 8.72061 33.0894 9.13061 27.4094C9.17061 26.8594 9.65067 26.4394 10.2007 26.4894C10.7507 26.5294 11.1608 27.0095 11.1208 27.5595C10.7408 32.8095 12.0108 37.9394 14.7908 42.3994C15.0808 42.8694 14.9407 43.4794 14.4707 43.7794C14.3007 43.8794 14.1207 43.9295 13.9407 43.9295H13.9507Z" fill="#2F3F64"/>
<path id="Vector_5" d="M95.7002 120.969C95.1502 120.969 94.7002 120.519 94.7002 119.969V104.229C94.7002 103.679 95.1502 103.229 95.7002 103.229C96.2502 103.229 96.7002 103.679 96.7002 104.229V119.969C96.7002 120.519 96.2502 120.969 95.7002 120.969Z" fill="#2F3F64"/>
<path id="Vector_6" d="M91.3909 122.64H79.7109C79.1609 122.64 78.7109 122.19 78.7109 121.64C78.7109 121.09 79.1609 120.64 79.7109 120.64H91.3909C91.9409 120.64 92.3909 121.09 92.3909 121.64C92.3909 122.19 91.9409 122.64 91.3909 122.64Z" fill="#2F3F64"/>
<path id="Vector_7" d="M112.581 122.64H100.9C100.35 122.64 99.9004 122.19 99.9004 121.64C99.9004 121.09 100.35 120.64 100.9 120.64H112.581C113.131 120.64 113.581 121.09 113.581 121.64C113.581 122.19 113.131 122.64 112.581 122.64Z" fill="#2F3F64"/>
<path id="Vector_8" fill-rule="evenodd" clip-rule="evenodd" d="M95.7004 116.01C98.8104 116.01 101.331 118.53 101.331 121.64C101.331 124.75 98.8104 127.27 95.7004 127.27C92.5904 127.27 90.0605 124.75 90.0605 121.64C90.0605 118.53 92.5904 116.01 95.7004 116.01Z" fill="#2F3F64"/>
<path id="Vector_9" fill-rule="evenodd" clip-rule="evenodd" d="M123.961 45.9401C125.441 46.5601 126.401 48.0101 126.401 49.6101C126.401 73.3901 115.091 94.3202 97.9907 106.42C96.2807 107.61 94.0108 107.61 92.3008 106.42C75.2008 94.3202 63.8906 73.3801 63.8906 49.6101C63.8906 49.4101 63.8906 49.2001 63.8906 49.0001C63.8906 47.7601 64.6508 46.6402 65.7908 46.1602C71.3308 43.8402 87.7108 36.9902 93.2708 34.6602C94.4708 34.1602 95.8107 34.1602 97.0107 34.6602C102.401 36.9202 117.961 43.4302 123.961 45.9302V45.9401Z" fill="#BCC5DC"/>
<path id="Vector_10" d="M95.1409 108.31C93.9409 108.31 92.7509 107.95 91.7209 107.24C73.6609 94.46 62.8809 72.92 62.8809 49.61V48.99C62.8909 47.35 63.8809 45.87 65.4009 45.24L92.8809 33.74C94.3109 33.14 95.9609 33.14 97.3909 33.74L124.331 45.0101C126.191 45.7901 127.391 47.59 127.391 49.6C127.391 72.91 116.611 94.45 98.551 107.23C97.521 107.94 96.3211 108.3 95.1211 108.3L95.1409 108.31ZM95.1409 35.2901C94.6309 35.2901 94.1309 35.39 93.6609 35.59L66.1809 47.09C65.4009 47.41 64.9009 48.1701 64.8909 49.0101V49.61C64.8909 72.27 75.3509 93.2 92.8809 105.6C94.2309 106.54 96.0609 106.54 97.4209 105.6C114.941 93.2 125.401 72.27 125.401 49.61C125.401 48.4 124.681 47.32 123.571 46.86L96.6211 35.59C96.1511 35.39 95.6409 35.2901 95.1409 35.2901Z" fill="#2F3F64"/>
<path id="Vector_11" fill-rule="evenodd" clip-rule="evenodd" d="M116.051 52.5502C117.121 53.0002 117.821 54.0501 117.821 55.2101C117.821 72.0501 110.001 86.9302 98.0808 95.7902C96.3308 97.0702 93.9607 97.0702 92.2107 95.7902C80.2907 86.9202 72.4707 72.0501 72.4707 55.2101C72.4707 55.0301 72.4707 54.8502 72.4707 54.6602C72.4707 53.8202 72.9907 53.0701 73.7607 52.7401C77.5407 51.1601 88.7908 46.4501 93.2708 44.5801C94.4708 44.0801 95.8107 44.0801 97.0107 44.5801C101.311 46.3801 111.871 50.8002 116.041 52.5402L116.051 52.5502Z" fill="#FEC95C"/>
<path id="Vector_12" d="M95.1406 97.7597C93.9106 97.7597 92.6708 97.3797 91.6208 96.6097C79.0008 87.2197 71.4707 71.7497 71.4707 55.2197V54.6697C71.4807 53.4297 72.2306 52.3196 73.3806 51.8396L92.9006 43.6697C94.3306 43.0697 95.9806 43.0697 97.4106 43.6697L116.441 51.6297C117.891 52.2397 118.831 53.6396 118.831 55.2096C118.831 71.7396 111.301 87.2096 98.6807 96.5896C97.6207 97.3596 96.3806 97.7497 95.1406 97.7497V97.7597ZM95.1406 45.2096C94.6306 45.2096 94.1306 45.3097 93.6606 45.5097L74.1406 53.6797C73.7306 53.8497 73.4707 54.2397 73.4607 54.6797V55.2197C73.4607 71.1197 80.6908 85.9897 92.8008 94.9997C94.2008 96.0197 96.0807 96.0197 97.4807 94.9997C109.581 85.9997 116.811 71.1297 116.811 55.2297C116.811 54.4697 116.361 53.7797 115.651 53.4897L96.6208 45.5297C96.1509 45.3297 95.6406 45.2297 95.1406 45.2297V45.2096Z" fill="#2F3F64"/>
<path id="Vector_13" d="M91.0606 77.2497C90.7906 77.2497 90.5406 77.1396 90.3506 76.9596L81.7105 68.3097C81.3205 67.9197 81.3205 67.2897 81.7105 66.8997C82.1005 66.5097 82.7306 66.5097 83.1206 66.8997L91.0606 74.8396L109.24 56.6597C109.63 56.2697 110.26 56.2697 110.65 56.6597C111.04 57.0497 111.04 57.6796 110.65 58.0696L91.7705 76.9496C91.5805 77.1396 91.3306 77.2396 91.0606 77.2396V77.2497Z" fill="#2F3F64"/>
</g>
</svg>
