<svg width="109" height="108" viewBox="0 0 109 108" fill="none" xmlns="http://www.w3.org/2000/svg">
<g id="web">
<g id="Group">
<path id="Vector" d="M50.26 99.52C77.4656 99.52 99.52 77.4656 99.52 50.26C99.52 23.0545 77.4656 1 50.26 1C23.0545 1 1 23.0545 1 50.26C1 77.4656 23.0545 99.52 50.26 99.52Z" fill="#BCC5DC"/>
<path id="Vector_2" d="M50.26 100.52C22.55 100.52 0 77.98 0 50.26C0 22.54 22.54 0 50.26 0C51.47 0 52.69 0.0400049 53.89 0.130005C54.44 0.170005 54.8599 0.650012 54.8199 1.20001C54.7799 1.75001 54.31 2.17 53.75 2.13C52.6 2.05 51.42 2.01001 50.26 2.01001C23.65 2.01001 2 23.66 2 50.27C2 76.88 23.65 98.53 50.26 98.53C76.87 98.53 98.52 76.88 98.52 50.27C98.52 37.74 93.7399 25.86 85.0499 16.83C84.6699 16.43 84.68 15.8 85.08 15.42C85.48 15.04 86.11 15.05 86.49 15.45C95.53 24.86 100.52 37.23 100.52 50.28C100.52 77.99 77.98 100.54 50.26 100.54V100.52Z" fill="#2F3F64"/>
<path id="Vector_3" d="M49.9803 30.7896C36.4703 30.7896 23.5402 26.5996 12.6003 18.6696C12.1503 18.3496 12.0503 17.7196 12.3803 17.2696C12.7003 16.8196 13.3303 16.7196 13.7803 17.0496C24.3803 24.7296 36.9003 28.7896 49.9903 28.7896C63.0803 28.7896 75.8703 24.6496 86.5403 16.8096C86.9803 16.4796 87.6102 16.5796 87.9402 17.0196C88.2702 17.4696 88.1703 18.0896 87.7303 18.4196C76.7103 26.5096 63.6603 30.7896 49.9903 30.7896H49.9803Z" fill="#2F3F64"/>
<path id="Vector_4" d="M12.5298 82.9798C12.2198 82.9798 11.9198 82.8398 11.7198 82.5698C11.3898 82.1198 11.4897 81.4998 11.9297 81.1698C22.9497 73.0798 35.9997 68.7998 49.6697 68.7998C63.3397 68.7998 76.1097 72.9898 87.0497 80.9198C87.4997 81.2398 87.5998 81.8698 87.2698 82.3198C86.9498 82.7698 86.3198 82.8698 85.8698 82.5398C75.2698 74.8598 62.7499 70.7998 49.6599 70.7998C36.5699 70.7998 23.7798 74.9398 13.1098 82.7798C12.9298 82.9098 12.7198 82.9698 12.5198 82.9698L12.5298 82.9798Z" fill="#2F3F64"/>
<path id="Vector_5" d="M49.9596 100.42C48.2896 100.42 46.6197 99.8397 45.2897 98.6997C31.2097 86.5497 23.1396 68.9296 23.1396 50.3596C23.1396 31.7896 31.2196 14.1496 45.3196 1.98965C47.9896 -0.310352 51.9997 -0.310352 54.6597 1.98965C68.7397 14.1396 76.8096 31.7697 76.8096 50.3297C76.8096 68.8897 68.7296 86.5397 54.6296 98.6897C53.2996 99.8397 51.6296 100.41 49.9596 100.41V100.42ZM49.9796 2.25967C48.7796 2.25967 47.5696 2.66966 46.6196 3.49966C32.9696 15.2797 25.1396 32.3496 25.1396 50.3496C25.1396 68.3496 32.9596 85.4097 46.5996 97.1796C48.5196 98.8397 51.4096 98.8397 53.3296 97.1796C66.9796 85.3997 74.8096 68.3297 74.8096 50.3297C74.8096 32.3297 66.9896 15.2697 53.3496 3.49966C52.3896 2.66966 51.1896 2.25967 49.9796 2.25967Z" fill="#2F3F64"/>
<path id="Vector_6" d="M50.2598 100.52C49.7098 100.52 49.2598 100.07 49.2598 99.5197V1.00977C49.2598 0.459766 49.7098 0.00976562 50.2598 0.00976562C50.8098 0.00976562 51.2598 0.459766 51.2598 1.00977V99.5197C51.2598 100.07 50.8098 100.52 50.2598 100.52Z" fill="#2F3F64"/>
<path id="Vector_7" d="M99.5198 51.2598H1.00977C0.459766 51.2598 0.00976562 50.8098 0.00976562 50.2598C0.00976562 49.7098 0.459766 49.2598 1.00977 49.2598H99.5198C100.07 49.2598 100.52 49.7098 100.52 50.2598C100.52 50.8098 100.07 51.2598 99.5198 51.2598Z" fill="#2F3F64"/>
</g>
<g id="Group_2">
<path id="Vector_8" fill-rule="evenodd" clip-rule="evenodd" d="M106.82 102.9L96.4195 92.4999C96.0295 92.1099 96.0295 91.4798 96.4195 91.0898L100.94 86.5699C101.42 86.0899 101.3 85.2999 100.7 84.9799L73.6096 72.3299C72.7396 71.8699 71.7996 72.8099 72.2596 73.6799L84.9096 100.77C85.2296 101.36 86.0196 101.48 86.4996 101.01L91.7796 95.7299C92.1696 95.3399 92.7995 95.3399 93.1895 95.7299L103.59 106.13C103.98 106.52 104.61 106.52 105 106.13L106.81 104.32C107.2 103.93 107.2 103.3 106.81 102.91L106.82 102.9Z" fill="#2F3F64"/>
<path id="Vector_9" d="M104.3 107.42C103.77 107.42 103.26 107.21 102.89 106.83L92.4899 96.4295L87.2098 101.71C86.7598 102.16 86.1299 102.37 85.4999 102.27C84.8699 102.18 84.3299 101.8 84.0299 101.23L71.3598 74.0895C70.9698 73.3495 71.1099 72.4095 71.7399 71.7795C72.3699 71.1495 73.3098 71.0095 74.0898 71.4295L101.14 84.0595C101.75 84.3795 102.13 84.9195 102.23 85.5495C102.33 86.1795 102.12 86.8096 101.67 87.2596L97.1499 91.7795L107.55 102.18C108.33 102.96 108.33 104.23 107.55 105.01L105.74 106.82C105.36 107.2 104.86 107.41 104.33 107.41L104.3 107.42ZM92.4899 94.4295C93.0199 94.4295 93.5299 94.6395 93.8999 95.0195L104.3 105.42L106.82 102.9L106.11 103.61L95.7098 93.2095C95.3298 92.8295 95.1199 92.3295 95.1199 91.7995C95.1199 91.2695 95.3298 90.7596 95.7098 90.3896L100.23 85.8695L73.1798 73.2395L85.8098 100.36L91.0698 95.0295C91.4498 94.6495 91.9498 94.4395 92.4798 94.4395L92.4899 94.4295Z" fill="#2F3F64"/>
</g>
</g>
</svg>
