<svg width="125" height="125" viewBox="0 0 125 125" fill="none" xmlns="http://www.w3.org/2000/svg">
<g clip-path="url(#clip0_227_46)">
<mask id="mask0_227_46" style="mask-type:luminance" maskUnits="userSpaceOnUse" x="0" y="0" width="125" height="125">
<path d="M125 0H0V125H125V0Z" fill="white"/>
</mask>
<g mask="url(#mask0_227_46)">
<path d="M62.4986 107.214C87.1946 107.214 107.214 87.1946 107.214 62.4986C107.214 37.803 87.1946 17.7832 62.4986 17.7832C37.803 17.7832 17.7832 37.803 17.7832 62.4986C17.7832 87.1946 37.803 107.214 62.4986 107.214Z" fill="#FEC95C"/>
<path d="M84.8591 46.2398V68.5976C84.8591 70.8333 83.0298 72.6626 80.794 72.6626H44.2086C41.9728 72.6626 40.1436 70.8333 40.1436 68.5976V46.2398C40.1436 44.0041 41.9728 42.1748 44.2086 42.1748H80.794C83.0298 42.1748 84.8591 44.0041 84.8591 46.2398Z" fill="white"/>
<path d="M66.5649 72.6631L68.5975 82.8257H56.4023L58.4349 72.6631H66.5649Z" fill="#BCC5DC"/>
<path d="M13.375 32.0127C18.4563 32.0127 21.8506 36.0778 21.8506 38.1103V39.838C21.8506 41.1184 20.9766 42.1753 19.8994 42.1753H3.47661C2.39937 42.1753 1.52539 41.1184 1.52539 39.838V38.1103C1.52539 36.0778 4.9197 32.0127 10.001 32.0127H13.375Z" fill="#BCC5DC"/>
<path d="M13.375 88.9229C18.4563 88.9229 21.8506 92.9879 21.8506 95.0205V96.7482C21.8506 98.029 20.9766 99.0855 19.8994 99.0855H3.47661C2.39937 99.0855 1.52539 98.029 1.52539 96.7482V95.0205C1.52539 92.9879 4.9197 88.9229 10.001 88.9229H13.375Z" fill="#BCC5DC"/>
<path d="M60.8135 113.312H64.1875C69.2687 113.312 72.6631 117.378 72.6631 119.41V121.137C72.6631 122.418 71.7891 123.475 70.7119 123.475H54.2891C53.2119 123.475 52.3379 122.418 52.3379 121.137V119.41C52.3379 117.378 55.7322 113.312 60.8135 113.312Z" fill="#BCC5DC"/>
<path d="M111.626 88.9229H115.001C120.082 88.9229 123.476 92.9879 123.476 95.0205V96.7482C123.476 98.029 122.602 99.0855 121.525 99.0855H105.102C104.025 99.0855 103.15 98.029 103.15 96.7482V95.0205C103.15 92.9879 106.545 88.9229 111.626 88.9229Z" fill="#BCC5DC"/>
<path d="M113.313 32.0127H115.001C120.082 32.0127 123.476 36.0778 123.476 38.1103V39.838C123.476 41.1184 122.602 42.1753 121.525 42.1753H105.102C104.025 42.1753 103.15 41.1184 103.15 39.838V38.1103C103.15 36.0778 106.545 32.0127 111.626 32.0127H113.313Z" fill="#BCC5DC"/>
<path d="M62.5005 13.7217H64.1875C69.2687 13.7217 72.6631 17.7867 72.6631 19.8193V21.5469C72.6631 22.8274 71.7891 23.8843 70.7119 23.8843H54.2891C53.2119 23.8843 52.3379 22.8274 52.3379 21.5469V19.8193C52.3379 17.7867 55.7322 13.7217 60.8135 13.7217H62.5005Z" fill="#BCC5DC"/>
<path d="M11.6874 19.8174C15.0614 19.8174 17.785 22.5409 17.785 25.9149C17.785 29.2889 15.0614 32.0125 11.6874 32.0125C8.31342 32.0125 5.58984 29.2889 5.58984 25.9149C5.58984 22.5409 8.31342 19.8174 11.6874 19.8174Z" fill="#BCC5DC"/>
<path d="M11.6874 76.7266C15.0614 76.7266 17.785 79.4501 17.785 82.8241C17.785 86.1981 15.0614 88.9216 11.6874 88.9216C8.31342 88.9216 5.58984 86.1981 5.58984 82.8241C5.58984 79.4501 8.31342 76.7266 11.6874 76.7266Z" fill="#BCC5DC"/>
<path d="M62.4999 101.118C65.8739 101.118 68.5975 103.842 68.5975 107.216C68.5975 110.59 65.8739 113.313 62.4999 113.313C59.1259 113.313 56.4023 110.59 56.4023 107.216C56.4023 103.842 59.1259 101.118 62.4999 101.118Z" fill="#BCC5DC"/>
<path d="M113.314 76.7266C116.688 76.7266 119.411 79.4501 119.411 82.8241C119.411 86.1981 116.688 88.9216 113.314 88.9216C109.94 88.9216 107.217 86.1981 107.217 82.8241C107.217 79.4501 109.94 76.7266 113.314 76.7266Z" fill="#BCC5DC"/>
<path d="M113.314 19.8174C116.688 19.8174 119.411 22.5409 119.411 25.9149C119.411 29.2889 116.688 32.0125 113.314 32.0125C109.94 32.0125 107.217 29.2889 107.217 25.9149C107.217 22.5409 109.94 19.8174 113.314 19.8174Z" fill="#BCC5DC"/>
<path d="M62.4999 1.52441C65.8739 1.52441 68.5975 4.24799 68.5975 7.62197C68.5975 10.9959 65.8739 13.7196 62.4999 13.7196C59.1259 13.7196 56.4023 10.9959 56.4023 7.62197C56.4023 4.24799 59.1259 1.52441 62.4999 1.52441Z" fill="#BCC5DC"/>
<path d="M80.7929 74.187H44.2075C41.1258 74.187 38.6182 71.6793 38.6182 68.5976V46.2398C38.6182 43.158 41.1258 40.6504 44.2075 40.6504H80.7929C83.8748 40.6504 86.3823 43.158 86.3823 46.2398V68.5976C86.3823 71.6793 83.8748 74.187 80.7929 74.187ZM44.2075 43.6992C42.8076 43.6992 41.6669 44.8399 41.6669 46.2398V68.5976C41.6669 69.9974 42.8076 71.1382 44.2075 71.1382H80.7929C82.1928 71.1382 83.3336 69.9974 83.3336 68.5976V46.2398C83.3336 44.8399 82.1928 43.6992 80.7929 43.6992H44.2075Z" fill="#2F3F64"/>
<path d="M68.5944 84.3494C67.883 84.3494 67.2453 83.8489 67.1005 83.1249L65.0679 72.9623C64.9029 72.1366 65.4389 71.3337 66.2646 71.1685C67.0904 71.0035 67.8932 71.5395 68.0584 72.3652L70.0909 82.5278C70.256 83.3535 69.7199 84.1564 68.8942 84.3215C68.7926 84.3418 68.6935 84.352 68.5944 84.352V84.3494Z" fill="#2F3F64"/>
<path d="M56.4032 84.3493C56.3042 84.3493 56.2026 84.3391 56.1034 84.3188C55.2777 84.1537 54.7417 83.3508 54.9068 82.5252L56.9393 72.3625C57.1044 71.5368 57.9073 71.0032 58.733 71.1659C59.5587 71.331 60.0948 72.1339 59.9297 72.9596L57.8972 83.1222C57.7523 83.8463 57.1146 84.3467 56.4032 84.3467V84.3493Z" fill="#2F3F64"/>
<path d="M72.6621 84.3486H52.3369C51.496 84.3486 50.8125 83.6651 50.8125 82.8242C50.8125 81.9832 51.496 81.2998 52.3369 81.2998H72.6621C73.5031 81.2998 74.1865 81.9832 74.1865 82.8242C74.1865 83.6651 73.5031 84.3486 72.6621 84.3486Z" fill="#2F3F64"/>
<path d="M62.4989 15.2439C58.2966 15.2439 54.877 11.8242 54.877 7.62195C54.877 3.41972 58.2966 0 62.4989 0C66.7011 0 70.1208 3.41972 70.1208 7.62195C70.1208 11.8242 66.7011 15.2439 62.4989 15.2439ZM62.4989 3.04878C59.976 3.04878 57.9257 5.10163 57.9257 7.62195C57.9257 10.1423 59.976 12.1951 62.4989 12.1951C65.0217 12.1951 67.0721 10.1423 67.0721 7.62195C67.0721 5.10163 65.0217 3.04878 62.4989 3.04878Z" fill="#2F3F64"/>
<path d="M70.7109 25.4067H54.2881C52.3724 25.4067 50.8125 23.674 50.8125 21.545V19.8173C50.8125 16.7482 55.0122 12.1953 60.8125 12.1953H64.1865C69.9868 12.1953 74.1865 16.7482 74.1865 19.8173V21.545C74.1865 23.674 72.6265 25.4067 70.7109 25.4067ZM60.8125 15.2441C56.5925 15.2441 53.8613 18.6409 53.8613 19.8173V21.545C53.8613 22.0403 54.1408 22.358 54.2881 22.358H70.7109C70.8582 22.358 71.1377 22.0403 71.1377 21.545V19.8173C71.1377 18.6409 68.4065 15.2441 64.1865 15.2441H60.8125Z" fill="#2F3F64"/>
<path d="M62.4989 114.838C58.2966 114.838 54.877 111.418 54.877 107.216C54.877 103.013 58.2966 99.5938 62.4989 99.5938C66.7011 99.5938 70.1208 103.013 70.1208 107.216C70.1208 111.418 66.7011 114.838 62.4989 114.838ZM62.4989 102.643C59.976 102.643 57.9257 104.696 57.9257 107.216C57.9257 109.736 59.976 111.789 62.4989 111.789C65.0217 111.789 67.0721 109.736 67.0721 107.216C67.0721 104.696 65.0217 102.643 62.4989 102.643Z" fill="#2F3F64"/>
<path d="M70.7109 125H54.2881C52.3724 125 50.8125 123.267 50.8125 121.138V119.411C50.8125 116.341 55.0122 111.788 60.8125 111.788H64.1865C69.9868 111.788 74.1865 116.341 74.1865 119.411V121.138C74.1865 123.267 72.6265 125 70.7109 125ZM60.8125 114.837C56.5925 114.837 53.8613 118.234 53.8613 119.411V121.138C53.8613 121.633 54.1408 121.951 54.2881 121.951H70.7109C70.8582 121.951 71.1377 121.633 71.1377 121.138V119.411C71.1377 118.234 68.4065 114.837 64.1865 114.837H60.8125Z" fill="#2F3F64"/>
<path d="M113.313 33.5369C109.11 33.5369 105.69 30.1172 105.69 25.915C105.69 21.7127 109.11 18.293 113.313 18.293C117.515 18.293 120.934 21.7127 120.934 25.915C120.934 30.1172 117.515 33.5369 113.313 33.5369ZM113.313 21.3418C110.79 21.3418 108.739 23.3946 108.739 25.915C108.739 28.4353 110.79 30.4881 113.313 30.4881C115.835 30.4881 117.886 28.4353 117.886 25.915C117.886 23.3946 115.835 21.3418 113.313 21.3418Z" fill="#2F3F64"/>
<path d="M11.6884 33.5369C7.48612 33.5369 4.06641 30.1172 4.06641 25.915C4.06641 21.7127 7.48612 18.293 11.6884 18.293C15.8906 18.293 19.3103 21.7127 19.3103 25.915C19.3103 30.1172 15.8906 33.5369 11.6884 33.5369ZM11.6884 21.3418C9.16551 21.3418 7.11518 23.3946 7.11518 25.915C7.11518 28.4353 9.16551 30.4881 11.6884 30.4881C14.2112 30.4881 16.2616 28.4353 16.2616 25.915C16.2616 23.3946 14.2112 21.3418 11.6884 21.3418Z" fill="#2F3F64"/>
<path d="M121.525 43.6987H105.102C103.186 43.6987 101.626 41.9659 101.626 39.8369V38.1092C101.626 35.0401 105.825 30.4873 111.626 30.4873H115C120.801 30.4873 125 35.0401 125 38.1092V39.8369C125 41.9659 123.44 43.6987 121.525 43.6987ZM111.626 33.5361C107.406 33.5361 104.675 36.9329 104.675 38.1092V39.8369C104.675 40.3323 104.955 40.6499 105.102 40.6499H121.525C121.672 40.6499 121.951 40.3323 121.951 39.8369V38.1092C121.951 36.9329 119.22 33.5361 115 33.5361H111.626Z" fill="#2F3F64"/>
<path d="M19.8984 43.6987H3.47561C1.55996 43.6987 0 41.9659 0 39.8369V38.1092C0 35.0401 4.19969 30.4873 10 30.4873H13.374C19.1743 30.4873 23.374 35.0401 23.374 38.1092V39.8369C23.374 41.9659 21.814 43.6987 19.8984 43.6987ZM10 33.5361C5.77998 33.5361 3.04878 36.9329 3.04878 38.1092V39.8369C3.04878 40.3323 3.32825 40.6499 3.47561 40.6499H19.8984C20.0457 40.6499 20.3252 40.3323 20.3252 39.8369V38.1092C20.3252 36.9329 17.594 33.5361 13.374 33.5361H10Z" fill="#2F3F64"/>
<path d="M113.313 90.4482C109.11 90.4482 105.69 87.0287 105.69 82.8261C105.69 78.6238 109.11 75.2041 113.313 75.2041C117.515 75.2041 120.934 78.6238 120.934 82.8261C120.934 87.0287 117.515 90.4482 113.313 90.4482ZM113.313 78.2529C110.79 78.2529 108.739 80.3057 108.739 82.8261C108.739 85.3464 110.79 87.3994 113.313 87.3994C115.835 87.3994 117.886 85.3464 117.886 82.8261C117.886 80.3057 115.835 78.2529 113.313 78.2529Z" fill="#2F3F64"/>
<path d="M11.6884 90.4482C7.48612 90.4482 4.06641 87.0287 4.06641 82.8261C4.06641 78.6238 7.48612 75.2041 11.6884 75.2041C15.8906 75.2041 19.3103 78.6238 19.3103 82.8261C19.3103 87.0287 15.8906 90.4482 11.6884 90.4482ZM11.6884 78.2529C9.16551 78.2529 7.11518 80.3057 7.11518 82.8261C7.11518 85.3464 9.16551 87.3994 11.6884 87.3994C14.2112 87.3994 16.2616 85.3464 16.2616 82.8261C16.2616 80.3057 14.2112 78.2529 11.6884 78.2529Z" fill="#2F3F64"/>
<path d="M121.525 100.61H105.102C103.186 100.61 101.626 98.877 101.626 96.7478V95.02C101.626 91.9515 105.825 87.3984 111.626 87.3984H115C120.801 87.3984 125 91.9515 125 95.02V96.7478C125 98.877 123.44 100.61 121.525 100.61ZM111.626 90.4472C107.406 90.4472 104.675 93.8445 104.675 95.02V96.7478C104.675 97.2435 104.955 97.5611 105.102 97.5611H121.525C121.672 97.5611 121.951 97.2435 121.951 96.7478V95.02C121.951 93.8445 119.22 90.4472 115 90.4472H111.626Z" fill="#2F3F64"/>
<path d="M19.8984 100.61H3.47561C1.55996 100.61 0 98.877 0 96.7478V95.02C0 91.9515 4.19969 87.3984 10 87.3984H13.374C19.1743 87.3984 23.374 91.9515 23.374 95.02V96.7478C23.374 98.877 21.814 100.61 19.8984 100.61ZM10 90.4472C5.77998 90.4472 3.04878 93.8445 3.04878 95.02V96.7478C3.04878 97.2435 3.32825 97.5611 3.47561 97.5611H19.8984C20.0457 97.5611 20.3252 97.2435 20.3252 96.7478V95.02C20.3252 93.8445 17.594 90.4472 13.374 90.4472H10Z" fill="#2F3F64"/>
<path d="M92.9905 46.7473C92.4622 46.7473 91.9485 46.4729 91.6669 45.9825C91.2473 45.2533 91.4991 44.3209 92.2285 43.9017L93.9965 42.8854C94.7259 42.4663 95.6583 42.7177 96.0778 43.4469C96.4965 44.1761 96.2448 45.1085 95.5162 45.5277L93.7473 46.544C93.5085 46.6812 93.2473 46.7473 92.9905 46.7473Z" fill="#2F3F64"/>
<path d="M32.0094 46.7473C31.7528 46.7473 31.4912 46.6813 31.2523 46.5441L29.484 45.5278C28.7549 45.1086 28.5034 44.1762 28.9225 43.4471C29.3418 42.7179 30.2742 42.4639 31.0034 42.8856L32.7717 43.9019C33.5008 44.3211 33.7523 45.2535 33.3332 45.9826C33.0511 46.473 32.5379 46.7473 32.0094 46.7473Z" fill="#2F3F64"/>
<path d="M94.7533 82.3168C94.4973 82.3168 94.2354 82.2507 93.9965 82.1135L92.2285 81.0972C91.4991 80.678 91.2473 79.7456 91.6669 79.0164C92.0864 78.2872 93.0187 78.0332 93.7473 78.4549L95.5162 79.4712C96.2448 79.8904 96.4965 80.8228 96.0778 81.552C95.7953 82.0424 95.2824 82.3168 94.7533 82.3168Z" fill="#2F3F64"/>
<path d="M30.2463 82.3156C29.7178 82.3156 29.2046 82.0412 28.9225 81.5509C28.5034 80.8217 28.7549 79.8893 29.484 79.4701L31.2523 78.4538C31.9815 78.0346 32.9139 78.2861 33.3332 79.0153C33.7523 79.7445 33.5008 80.6769 32.7717 81.0961L31.0034 82.1123C30.7646 82.2496 30.5028 82.3156 30.2463 82.3156Z" fill="#2F3F64"/>
<path d="M62.4989 35.5686C61.658 35.5686 60.9746 34.8852 60.9746 34.0442V32.0117C60.9746 31.1707 61.658 30.4873 62.4989 30.4873C63.3399 30.4873 64.0233 31.1707 64.0233 32.0117V34.0442C64.0233 34.8852 63.3399 35.5686 62.4989 35.5686Z" fill="#2F3F64"/>
<path d="M62.4989 94.512C61.658 94.512 60.9746 93.8288 60.9746 92.988V90.9555C60.9746 90.1139 61.658 89.4307 62.4989 89.4307C63.3399 89.4307 64.0233 90.1139 64.0233 90.9555V92.988C64.0233 93.8288 63.3399 94.512 62.4989 94.512Z" fill="#2F3F64"/>
</g>
</g>
<defs>
<clipPath id="clip0_227_46">
<rect width="125" height="125" fill="white"/>
</clipPath>
</defs>
</svg>
