<svg width="128" height="106" viewBox="0 0 128 106" fill="none" xmlns="http://www.w3.org/2000/svg">
<g id="wharehouse">
<g id="Group">
<g id="Group_2">
<path id="Vector" fill-rule="evenodd" clip-rule="evenodd" d="M76.45 8.29704L65.1199 1.41703C64.2499 0.887031 63.1599 0.887031 62.2899 1.41703L9.27994 33.607C8.45994 34.107 7.95996 34.987 7.95996 35.947V104.317H119.45V35.947C119.45 34.987 118.95 34.097 118.13 33.607L110.14 28.7571" fill="#BCC5DC"/>
<path id="Vector_2" d="M119.44 105.308H7.9502C7.4002 105.308 6.9502 104.858 6.9502 104.308V35.9375C6.9502 34.6375 7.64018 33.4175 8.75018 32.7375L61.7602 0.5475C62.9502 -0.1825 64.4402 -0.1825 65.6302 0.5475L76.9602 7.42751C77.4302 7.7175 77.5802 8.3275 77.3002 8.7975C77.0102 9.2675 76.4002 9.4175 75.9302 9.1375L64.6002 2.25752C64.0502 1.91752 63.3602 1.91752 62.8002 2.25752L9.79019 34.4475C9.27019 34.7575 8.9502 35.3275 8.9502 35.9375V103.308H118.44V35.9375C118.44 35.3375 118.12 34.7675 117.6 34.4475L109.61 29.5975C109.14 29.3075 108.99 28.6975 109.27 28.2275C109.56 27.7575 110.17 27.6075 110.64 27.8875L118.63 32.7375C119.74 33.4075 120.43 34.6375 120.43 35.9375V104.308C120.43 104.858 119.98 105.308 119.43 105.308H119.44Z" fill="#2F3F64"/>
</g>
<g id="Group_3">
<path id="Vector_3" d="M105.52 41.127H22.04V104.317H105.52V41.127Z" fill="white"/>
<path id="Vector_4" d="M105.53 105.307H22.0498C21.4998 105.307 21.0498 104.857 21.0498 104.307V41.1172C21.0498 40.5672 21.4998 40.1172 22.0498 40.1172H105.53C106.08 40.1172 106.53 40.5672 106.53 41.1172V104.307C106.53 104.857 106.08 105.307 105.53 105.307ZM23.0398 103.307H104.52V42.1172H23.0398V103.307Z" fill="#2F3F64"/>
</g>
<path id="Vector_5" d="M107.14 39.6777H20.4404C18.7836 39.6777 17.4404 41.0209 17.4404 42.6777V48.7878C17.4404 50.4446 18.7836 51.7878 20.4404 51.7878H107.14C108.797 51.7878 110.14 50.4446 110.14 48.7878V42.6777C110.14 41.0209 108.797 39.6777 107.14 39.6777Z" fill="#2F3F64"/>
<g id="Group_4">
<path id="Vector_6" d="M93.1902 73.5176H59.7002V104.318H93.1902V73.5176Z" fill="#BCC5DC"/>
<path id="Vector_7" d="M93.1902 105.308H59.7002C59.1502 105.308 58.7002 104.858 58.7002 104.308V73.5078C58.7002 72.9578 59.1502 72.5078 59.7002 72.5078H93.1902C93.7402 72.5078 94.1902 72.9578 94.1902 73.5078V104.308C94.1902 104.858 93.7402 105.308 93.1902 105.308ZM60.7002 103.308H92.1902V74.5078H60.7002V103.308Z" fill="#2F3F64"/>
</g>
<g id="Group_5">
<path id="Vector_8" d="M59.6999 81.0176H34.3799V104.308H59.6999V81.0176Z" fill="#2F3F64"/>
<path id="Vector_9" d="M59.6999 105.308H34.3799C33.8299 105.308 33.3799 104.858 33.3799 104.308V81.0176C33.3799 80.4676 33.8299 80.0176 34.3799 80.0176H59.6999C60.2499 80.0176 60.6999 80.4676 60.6999 81.0176V104.308C60.6999 104.858 60.2499 105.308 59.6999 105.308ZM35.3799 103.308H58.6999V82.0176H35.3799V103.308Z" fill="#2F3F64"/>
</g>
<g id="Group_6">
<path id="Vector_10" fill-rule="evenodd" clip-rule="evenodd" d="M80.8201 87.7976L76.4501 84.3576L72.0801 87.7976V73.5176H80.8201V87.7976Z" fill="#FEC95C"/>
<path id="Vector_11" d="M80.8201 88.7976C80.6001 88.7976 80.3801 88.7276 80.2001 88.5876L76.4501 85.6376L72.7001 88.5876C72.4001 88.8276 71.9901 88.8676 71.6401 88.6976C71.3001 88.5276 71.0801 88.1776 71.0801 87.7976V73.5176C71.0801 72.9676 71.5301 72.5176 72.0801 72.5176H80.8201C81.3701 72.5176 81.8201 72.9676 81.8201 73.5176V87.7976C81.8201 88.1776 81.6001 88.5276 81.2601 88.6976C81.1201 88.7676 80.9701 88.7976 80.8201 88.7976ZM76.4501 83.3576C76.6701 83.3576 76.8901 83.4276 77.0701 83.5676L79.8201 85.7376V74.5176H73.0801V85.7376L75.8301 83.5676C76.0101 83.4276 76.2301 83.3576 76.4501 83.3576Z" fill="#2F3F64"/>
</g>
<g id="Group_7">
<path id="Vector_12" fill-rule="evenodd" clip-rule="evenodd" d="M51.4099 96.0476L47.0399 92.6076L42.6699 96.0476V81.7676H51.4099V96.0476Z" fill="#FEC95C"/>
<path id="Vector_13" d="M42.6699 97.0476C42.5199 97.0476 42.3699 97.0176 42.2299 96.9476C41.8899 96.7776 41.6699 96.4276 41.6699 96.0476V81.7676C41.6699 81.2176 42.1199 80.7676 42.6699 80.7676H51.4099C51.9599 80.7676 52.4099 81.2176 52.4099 81.7676V96.0476C52.4099 96.4276 52.1899 96.7776 51.8499 96.9476C51.5099 97.1176 51.0999 97.0676 50.7899 96.8376L47.0399 93.8876L43.2899 96.8376C43.1099 96.9776 42.8899 97.0476 42.6699 97.0476ZM47.0399 91.6076C47.2599 91.6076 47.4799 91.6776 47.6599 91.8176L50.4099 93.9876V82.7676H43.6699V93.9876L46.4199 91.8176C46.5999 91.6776 46.8199 91.6076 47.0399 91.6076Z" fill="#2F3F64"/>
</g>
</g>
<path id="Vector_14" d="M126.41 105.308H1C0.45 105.308 0 104.858 0 104.308C0 103.758 0.45 103.308 1 103.308H126.41C126.96 103.308 127.41 103.758 127.41 104.308C127.41 104.858 126.96 105.308 126.41 105.308Z" fill="#2F3F64"/>
</g>
</svg>
