<svg width="99" height="99" viewBox="0 0 99 99" fill="none" xmlns="http://www.w3.org/2000/svg">
<g clip-path="url(#clip0_202_611)">
<mask id="mask0_202_611" style="mask-type:luminance" maskUnits="userSpaceOnUse" x="0" y="0" width="99" height="99">
<path d="M99 0H0V99H99V0Z" fill="white"/>
</mask>
<g mask="url(#mask0_202_611)">
<path d="M91.353 49.5008C91.353 51.1427 91.2564 52.7525 91.0632 54.3461C90.2583 54.3944 88.1335 54.6359 88.1335 55.9398C88.1335 57.5495 89.7432 60.769 89.7432 60.769L89.7915 60.7851C86.6687 72.0213 78.974 81.3578 68.8164 86.6218V86.5251C68.8164 83.3056 72.036 80.0861 72.036 76.8666C72.036 73.6471 72.036 72.0374 70.4261 68.8179C68.8164 65.5984 60.7676 70.4276 60.7676 60.769C60.7676 57.5495 62.3774 57.5495 63.9871 54.33C65.5969 51.1105 70.4261 49.5008 75.2555 49.5008C80.0847 49.5008 83.3042 51.1105 84.914 51.1105C86.5237 51.1105 86.5237 49.5008 86.5237 47.891C86.5237 46.2813 89.7432 46.2813 89.7432 43.0618C89.7432 42.8686 89.7271 42.6753 89.695 42.4983L90.7251 42.3213C91.1438 44.6553 91.353 47.054 91.353 49.5008Z" fill="#FEC95C"/>
<path d="M90.7251 42.3202L89.695 42.4974C89.1477 39.8412 84.8174 39.8412 83.3042 39.8412C81.6945 39.8412 81.6945 43.0607 78.475 43.0607C75.2555 43.0607 73.6456 39.8412 72.036 39.8412C70.4261 39.8412 65.5969 41.451 63.9871 41.451C62.3774 41.451 60.7676 41.451 60.7676 38.2315C60.7676 35.012 67.2066 30.1826 68.8164 30.1826C70.4261 30.1826 73.6456 26.9631 73.6456 23.7436C73.6456 20.5241 68.8164 18.9144 68.8164 17.3046C68.8164 16.3066 71.9071 15.9203 74.2574 15.7754C82.789 22.0373 88.8579 31.4544 90.7251 42.3202Z" fill="#FEC95C"/>
<path d="M89.6986 42.4968C89.7308 42.6738 89.7469 42.867 89.7469 43.0601C89.7469 46.2796 86.5274 46.2796 86.5274 47.8894C86.5274 49.4991 86.5274 51.109 84.9178 51.109C83.3079 51.109 80.0884 49.4991 75.2592 49.4991C70.4299 49.4991 65.6007 51.109 63.9908 54.3285C62.3812 57.548 60.7713 57.548 60.7713 60.7675C60.7713 70.426 68.8202 65.5967 70.4299 68.8162C72.0397 72.0357 72.0397 73.6456 72.0397 76.8651C72.0397 80.0846 68.8202 83.3041 68.8202 86.5236V86.6201C63.0411 89.6465 56.4734 91.3528 49.5031 91.3528C45.8168 91.3528 42.243 90.8699 38.8304 89.9685C39.2972 87.4089 38.2347 82.6923 38.2347 80.0846C38.2347 76.8651 43.0641 76.8651 43.0641 72.0357C43.0641 67.2065 35.0152 67.2065 33.4055 65.5967C31.7957 63.987 26.9665 62.3772 22.1372 62.3772C18.9176 62.3772 18.9176 68.8162 18.9176 70.426C18.9176 72.0357 23.747 75.2552 25.3567 78.4747C26.4514 80.664 27.5461 83.6098 28.6406 85.767C16.1006 78.5553 7.64941 65.0173 7.64941 49.4991C7.64941 46.0543 8.06795 42.7221 8.85674 39.5187C11.6255 42.6738 14.0884 46.8914 14.0884 51.109C14.0884 55.9381 15.6982 59.1577 17.308 59.1577C18.9176 59.1577 20.5275 54.3285 20.5275 52.7186C20.5275 51.109 23.747 51.109 23.747 49.4991C23.747 47.8894 23.747 44.6699 25.3567 41.4504C26.9665 38.2309 26.9665 38.2309 30.186 38.2309C33.4055 38.2309 33.4055 35.0114 35.0152 33.4015C36.6251 31.7919 38.2347 33.4015 38.2347 30.182C38.2347 26.9625 35.0152 23.743 31.7957 23.743C28.7695 23.743 24.3266 25.1597 19.8192 20.0084C22.6041 17.1753 25.8075 14.7606 29.3167 12.845C30.4597 13.4084 32.7295 14.5514 35.0152 15.6943C38.2347 17.304 38.2347 18.9138 39.8446 18.9138C41.4542 18.9138 43.0641 20.5235 43.0641 15.6943C43.0641 12.6036 41.0841 10.1728 39.6675 8.82064C42.8226 8.04795 46.1225 7.64551 49.5031 7.64551C58.7752 7.64551 67.3392 10.6557 74.2612 15.7748C71.9108 15.9197 68.8202 16.306 68.8202 17.304C68.8202 18.9138 73.6494 20.5235 73.6494 23.743C73.6494 26.9625 70.4299 30.182 68.8202 30.182C67.2104 30.182 60.7713 35.0114 60.7713 38.2309C60.7713 41.4504 62.3812 41.4504 63.9908 41.4504C65.6007 41.4504 70.4299 39.8406 72.0397 39.8406C73.6494 39.8406 75.2592 43.0601 78.4787 43.0601C81.6982 43.0601 81.6982 39.8406 83.3079 39.8406C84.8211 39.8406 89.1514 39.8406 89.6986 42.4968Z" fill="#BCC5DC"/>
<path d="M49.4987 1.20703C76.1725 1.20703 97.7914 22.8261 97.7914 49.4997C97.7914 76.1733 76.1725 97.7924 49.4987 97.7924C22.8251 97.7924 1.20605 76.1733 1.20605 49.4997C1.20605 22.8261 22.8251 1.20703 49.4987 1.20703ZM91.0626 54.3452C91.2559 52.7514 91.3523 51.1418 91.3523 49.4997C91.3523 47.0529 91.1431 44.6544 90.7246 42.3202C88.8572 31.4543 82.7885 22.0373 74.2567 15.7753C67.3348 10.6563 58.771 7.64605 49.4987 7.64605C46.1182 7.64605 42.8182 8.04849 39.6631 8.82118C35.9929 9.69045 32.5158 11.0587 29.3124 12.8456C25.8031 14.7612 22.5997 17.1759 19.8148 20.0089C14.5509 25.3051 10.6875 32.0017 8.8524 39.5032V39.5191C8.06362 42.7227 7.64508 46.0548 7.64508 49.4997C7.64508 65.0177 16.0963 78.5559 28.6364 85.7676C31.7914 87.6026 35.2202 89.0353 38.8261 89.969C42.2388 90.8705 45.8124 91.3534 49.4987 91.3534C56.4689 91.3534 63.0368 89.647 68.8158 86.6207C78.9733 81.3567 86.668 72.0202 89.791 60.7842C90.4026 58.7075 90.8211 56.5505 91.0626 54.3452Z" fill="white"/>
<path d="M39.6622 8.82031C41.0788 10.1725 43.0588 12.6032 43.0588 15.694C43.0588 20.5232 41.4489 18.9135 39.8393 18.9135C38.2294 18.9135 38.2294 17.3037 35.0099 15.694C32.7242 14.551 30.4544 13.4081 29.3115 12.8447C32.5149 11.0579 35.992 9.68957 39.6622 8.82031Z" fill="#FEC95C"/>
<path d="M43.0634 72.0365C43.0634 76.8658 38.2341 76.8658 38.2341 80.0852C38.2341 82.6931 39.2966 87.4097 38.8298 89.9692C35.2238 89.0354 31.795 87.6028 28.64 85.7678C27.5454 83.6106 26.4507 80.6647 25.356 78.4755C23.7463 75.256 18.917 72.0365 18.917 70.4268C18.917 68.817 18.917 62.3779 22.1365 62.3779C26.9659 62.3779 31.795 63.9878 33.4049 65.5974C35.0146 67.2073 43.0634 67.2073 43.0634 72.0365Z" fill="#FEC95C"/>
<path d="M38.2336 30.1834C38.2336 33.403 36.6237 31.7931 35.0141 33.403C33.4042 35.0126 33.4042 38.2321 30.1847 38.2321C26.9652 38.2321 26.9652 38.2321 25.3555 41.4517C23.7457 44.6712 23.7457 47.8907 23.7457 49.5005C23.7457 51.1102 20.5262 51.1102 20.5262 52.72C20.5262 54.3297 18.9165 59.1591 17.3066 59.1591C15.6969 59.1591 14.0872 55.9395 14.0872 51.1102C14.0872 46.8926 11.6242 42.6751 8.85547 39.52V39.5039C10.6906 32.0025 14.554 25.3059 19.8179 20.0098C24.3252 25.161 28.7682 23.7444 31.7945 23.7444C35.0141 23.7444 38.2336 26.9639 38.2336 30.1834Z" fill="#FEC95C"/>
<path d="M49.5 99C36.2778 99 23.8466 93.8508 14.4979 84.5022C5.14921 75.1534 0 62.7222 0 49.5C0 36.2778 5.14921 23.8466 14.4979 14.4979C23.8466 5.14921 36.2778 0 49.5 0C62.7222 0 75.1534 5.14921 84.5022 14.4979C93.8508 23.8466 99 36.2778 99 49.5C99 62.7222 93.8508 75.1534 84.5022 84.5022C75.1534 93.8508 62.7222 99 49.5 99ZM49.5 2.41463C36.9218 2.41463 25.0982 7.31233 16.2042 16.2042C7.31031 25.0962 2.41463 36.9218 2.41463 49.5C2.41463 62.0782 7.31233 73.9018 16.2042 82.7957C25.0962 91.6898 36.9218 96.5854 49.5 96.5854C62.0782 96.5854 73.9018 91.6878 82.7957 82.7957C91.6898 73.9038 96.5854 62.0782 96.5854 49.5C96.5854 36.9218 91.6878 25.0982 82.7957 16.2042C73.9038 7.31031 62.0782 2.41463 49.5 2.41463Z" fill="#2F3F64"/>
<path d="M68.8197 87.8117C68.1535 87.8117 67.6122 87.2704 67.6122 86.6044V86.5239C67.6122 84.6284 68.4957 82.8637 69.3488 81.1554C70.1114 79.6301 70.8317 78.1914 70.8317 76.8653C70.8317 73.7445 70.8317 72.3219 69.3488 69.3559C69.0912 68.8388 68.1938 68.7341 66.7491 68.6195C65.2218 68.4986 63.4913 68.3619 62.0426 67.2934C60.3725 66.0619 59.5615 63.927 59.5615 60.7678C59.5615 58.3512 60.4027 57.3108 61.294 56.2082C61.789 55.5964 62.3525 54.9002 62.9077 53.7896C63.7992 52.0068 65.5478 50.554 67.9665 49.5861C70.0832 48.7389 72.6025 48.2922 75.2567 48.2922C78.4782 48.2922 80.9833 48.9643 82.8124 49.4532C83.7098 49.6927 84.4845 49.9019 84.9153 49.9019C85.058 49.9019 85.1084 49.8757 85.1084 49.8757C85.3176 49.6645 85.3176 48.4652 85.3176 47.8897C85.3176 46.598 86.3056 45.8996 87.028 45.3887C87.9636 44.7266 88.5371 44.2598 88.5371 43.0605C88.5371 42.9417 88.5291 42.8271 88.511 42.7264C88.2695 41.6158 86.5269 41.0503 83.3316 41.0483C83.2007 41.1369 82.9472 41.497 82.7762 41.7384C82.1062 42.6842 80.9873 44.2678 78.4762 44.2678C76.1541 44.2678 74.5523 42.9397 73.3813 41.9698C72.9648 41.6259 72.2686 41.0483 72.0372 41.0483C71.3811 41.0483 69.7473 41.4567 68.3066 41.817C66.5761 42.2496 64.9421 42.6581 63.9883 42.6581C62.4409 42.6581 59.5615 42.6581 59.5615 38.2312C59.5615 35.8528 61.958 33.3677 63.3866 32.098C64.6906 30.9391 67.3025 28.9752 68.8177 28.9752C69.6285 28.9752 72.4396 26.4418 72.4396 23.7434C72.4396 22.4355 71.0692 21.3329 69.8599 20.359C68.7029 19.4272 67.6102 18.548 67.6102 17.3044C67.6102 15.6504 69.5159 14.8576 74.1842 14.5698C74.8461 14.5276 75.4217 15.0347 75.4639 15.7007C75.5042 16.3667 74.9991 16.9381 74.333 16.9804C72.001 17.1234 70.8479 17.3829 70.3027 17.564C70.5943 17.8518 71.0412 18.2098 71.3751 18.4795C72.844 19.6606 74.8562 21.2805 74.8562 23.7434C74.8562 27.4257 71.3288 31.3716 68.8377 31.3898C67.5721 31.5487 61.9781 35.8286 61.9781 38.2312C61.9781 39.1992 62.1451 39.843 62.4469 40.0442C62.7488 40.2454 63.3787 40.2434 63.9903 40.2434C64.6463 40.2434 66.2803 39.835 67.721 39.4747C69.4515 39.0421 71.0853 38.6337 72.0392 38.6337C73.1418 38.6337 74.0071 39.352 74.9246 40.1107C75.9589 40.9678 77.0273 41.8532 78.4782 41.8532C79.6775 41.8532 80.1443 41.2797 80.8063 40.3441C81.3174 39.6217 82.0156 38.6337 83.3074 38.6337C84.9956 38.6337 90.1347 38.6337 90.8813 42.2536C90.8813 42.2637 90.8853 42.2717 90.8873 42.2818C90.9316 42.5293 90.9558 42.7909 90.9558 43.0605C90.9558 45.5718 89.3723 46.6905 88.4264 47.3606C88.1849 47.5316 87.8249 47.7852 87.7363 47.9159C87.7363 49.4693 87.7201 52.3167 84.9193 52.3167C84.1707 52.3167 83.2974 52.0831 82.1928 51.7854C80.4923 51.3307 78.1643 50.7068 75.2607 50.7068C70.4112 50.7068 66.3165 52.3789 65.073 54.868C64.3988 56.2143 63.7207 57.0532 63.1774 57.7275C62.3807 58.7114 61.9822 59.2064 61.9822 60.7678C61.9822 65.8204 64.1714 65.9935 66.9442 66.2128C68.6707 66.3497 70.6265 66.5046 71.514 68.2773C73.2505 71.7524 73.2505 73.5675 73.2505 76.8653C73.2505 78.7609 72.3671 80.5256 71.514 82.234C70.7514 83.7592 70.031 85.1979 70.031 86.5239V86.6044C70.031 87.2704 69.4897 87.8117 68.8237 87.8117H68.8197ZM68.8237 31.3898H68.8197H68.8237Z" fill="#2F3F64"/>
<path d="M89.7437 61.9752C89.3011 61.9752 88.8745 61.7318 88.6633 61.3072C88.3735 60.7277 86.9268 57.7416 86.9268 55.9387C86.9268 55.1701 87.3231 53.359 90.9913 53.1397C91.6575 53.1015 92.2288 53.6065 92.2691 54.2725C92.3093 54.9387 91.8023 55.51 91.1363 55.5503C90.0677 55.6147 89.4964 55.8562 89.3434 55.9909C89.3736 56.9287 90.2208 59.0193 90.8243 60.2286C91.1222 60.8243 90.8807 61.5507 90.283 61.8485C90.11 61.935 89.925 61.9752 89.7437 61.9752Z" fill="#2F3F64"/>
<path d="M41.679 20.3811C41.2847 20.3811 40.9083 20.3025 40.5865 20.2361C40.3108 20.1777 40.0512 20.1235 39.84 20.1235C38.534 20.1235 37.8438 19.4312 37.1758 18.7632C36.6104 18.1977 35.9061 17.4935 34.4713 16.7752C33.6625 16.3707 32.8576 15.9663 32.103 15.588C30.7247 14.8978 29.5173 14.2921 28.7788 13.9279C28.1813 13.6321 27.9358 12.9097 28.2296 12.3121C28.5232 11.7145 29.2478 11.469 29.8453 11.7628C30.5858 12.127 31.7991 12.7367 33.1836 13.4289C33.9382 13.8072 34.743 14.2116 35.5499 14.614C37.3348 15.5075 38.2664 16.4371 38.8822 17.0528C39.4978 17.6686 39.5763 17.7047 39.84 17.7047C40.3007 17.7047 40.7152 17.7913 41.0795 17.8678C41.2364 17.9 41.4577 17.9462 41.5966 17.9603C41.681 17.7671 41.8522 17.1918 41.8522 15.6926C41.8522 13.119 40.2081 11.0082 38.8298 9.69222C38.3469 9.23143 38.3308 8.4668 38.7895 7.98588C39.2503 7.50296 40.015 7.48685 40.4959 7.94564C42.2163 9.58758 44.2668 12.2638 44.2668 15.6926C44.2668 18.0025 43.9287 19.2199 43.0997 19.8941C42.6408 20.2663 42.1478 20.377 41.679 20.377V20.3811Z" fill="#2F3F64"/>
<path d="M17.3016 60.3657C14.7361 60.3657 12.8749 56.472 12.8749 51.1095C12.8749 46.6082 9.78412 42.4148 7.94296 40.3162C7.50229 39.8152 7.55259 39.0525 8.05364 38.6117C8.55468 38.1711 9.31729 38.2214 9.75796 38.7225C11.8245 41.0768 15.2895 45.8154 15.2895 51.1095C15.2895 53.1983 15.6114 55.1018 16.197 56.47C16.6537 57.5345 17.0924 57.8665 17.2493 57.9369C17.9958 57.4539 19.3139 54.1601 19.3139 52.7192C19.3139 51.1679 20.6843 50.4838 21.5917 50.0289C21.8996 49.8761 22.4047 49.6225 22.5334 49.4656C22.5334 47.7934 22.5455 44.3626 24.2699 40.9117C26.087 37.2797 26.4732 37.0242 30.1797 37.0242C31.5199 37.0242 31.9364 36.3119 32.6768 34.8289C33.0712 34.0401 33.4798 33.2231 34.1558 32.547C35.0131 31.6898 35.9004 31.4805 36.488 31.3418C36.6288 31.3075 36.8179 31.2632 36.8984 31.229C36.9307 31.1587 37.0233 30.8991 37.0233 30.1808C37.0233 27.6373 34.3348 24.949 31.7916 24.949C31.3308 24.949 30.8076 24.9873 30.2542 25.0274C27.2178 25.2467 23.0586 25.5486 18.9054 20.8018C18.4668 20.3007 18.517 19.5383 19.018 19.0975C19.5191 18.6589 20.2817 18.7092 20.7223 19.2102C24.0828 23.0494 27.2681 22.82 30.0792 22.6168C30.6767 22.5725 31.2422 22.5323 31.7916 22.5323C35.6509 22.5323 39.4379 26.3193 39.4379 30.1788C39.4379 32.8972 38.2547 33.4023 37.0432 33.6899C36.5744 33.8007 36.2365 33.8812 35.8641 34.2534C35.4658 34.6517 35.1619 35.2615 34.8379 35.9073C34.0934 37.3964 33.0732 39.4368 30.1817 39.4368C28.9039 39.4368 28.1333 39.4368 27.8336 39.6359C27.4975 39.8613 27.0729 40.7065 26.433 41.9883C24.95 44.9522 24.95 47.9082 24.95 49.4977C24.95 51.0874 23.5798 51.7332 22.6723 52.1881C22.3644 52.341 21.8593 52.5945 21.7305 52.7514C21.7083 54.4378 20.1007 60.3637 17.3037 60.3637L17.3016 60.3657Z" fill="#2F3F64"/>
<path d="M38.832 91.1766C38.7597 91.1766 38.6872 91.1705 38.6147 91.1564C37.9588 91.0378 37.5242 90.4079 37.6429 89.752C37.8944 88.3676 37.6147 86.0354 37.3652 83.9789C37.1902 82.5342 37.0272 81.172 37.0272 80.0854C37.0272 78.0651 38.3511 76.9847 39.5203 76.0289C40.774 75.0047 41.8564 74.1212 41.8564 72.0367C41.8564 69.952 39.4076 68.9781 36.2062 68.0445C34.5804 67.5716 33.2966 67.1952 32.5521 66.4507C31.3508 65.2495 27.0628 63.5854 22.137 63.5854C21.1671 63.5854 20.1288 65.3743 20.1247 70.3906C20.2595 70.8675 21.5372 72.1452 22.3865 72.9945C23.8654 74.4734 25.5436 76.1515 26.4351 77.9364C26.9863 79.041 27.5397 80.3309 28.0729 81.5804C28.6142 82.8461 29.1755 84.1561 29.7148 85.2225C30.0167 85.8181 29.7792 86.5445 29.1836 86.8464C28.5881 87.1483 27.8617 86.9108 27.5598 86.3152C26.9822 85.1783 26.4069 83.8321 25.8495 82.5302C25.3303 81.3148 24.791 80.0572 24.2718 79.0168C23.5555 77.5822 22.0242 76.0529 20.6741 74.7028C18.9497 72.9784 17.7041 71.7328 17.7041 70.4289C17.7041 69.6219 17.7041 67.479 18.1347 65.5393C18.9376 61.9313 20.7506 61.1729 22.1309 61.1729C26.924 61.1729 32.2502 62.7423 34.2524 64.7464C34.5603 65.0543 35.8441 65.4285 36.8742 65.7284C39.816 66.5856 44.2631 67.8834 44.2631 72.0387C44.2631 75.2703 42.3997 76.7914 41.0396 77.9022C39.9831 78.7633 39.4338 79.2524 39.4338 80.0874C39.4338 81.0291 39.5907 82.3229 39.7558 83.6933C40.0375 86.0294 40.3291 88.444 40.0113 90.1886C39.9046 90.7722 39.3975 91.1786 38.824 91.1786L38.832 91.1766Z" fill="#2F3F64"/>
<path d="M8.85674 40.7273C8.19071 40.7273 7.64941 40.1862 7.64941 39.52C7.64941 38.8541 8.19071 38.3047 8.85674 38.3047C9.52278 38.3047 10.0641 38.8379 10.0641 39.5039V39.52C10.0641 40.1862 9.52278 40.7273 8.85674 40.7273Z" fill="#2F3F64"/>
</g>
</g>
<defs>
<clipPath id="clip0_202_611">
<rect width="99" height="99" fill="white"/>
</clipPath>
</defs>
</svg>
