<svg width="126" height="98" viewBox="0 0 126 98" fill="none" xmlns="http://www.w3.org/2000/svg">
<g id="Capa_1" clip-path="url(#clip0_516_53)">
<g id="Group">
<path id="Vector" fill-rule="evenodd" clip-rule="evenodd" d="M8.8 87.78H4.37C1.95 87.78 0 85.82 0 83.39L0.34 4.39C0.35 1.97 2.33 0 4.75 0H111.22C113.64 0 115.6 1.97 115.59 4.39L115.57 8.63H13.53C11.11 8.63 9.13 10.6 9.12 13.02L8.8 87.78Z" fill="#2F3F64"/>
<path id="Vector_2" fill-rule="evenodd" clip-rule="evenodd" d="M124.57 11.3601L124.22 92.1201C124.21 94.6001 122.19 96.6101 119.71 96.6101H10.8802C8.40019 96.6101 6.40019 94.6001 6.41019 92.1201L6.76019 11.3601C6.77019 8.88012 8.79019 6.87012 11.2702 6.87012H120.11C122.59 6.87012 124.59 8.88012 124.58 11.3601H124.57Z" fill="white"/>
<path id="Vector_3" d="M119.71 97.6099H10.8703C9.41029 97.6099 8.03029 97.0399 7.00029 95.9999C5.97029 94.9599 5.40029 93.5799 5.41029 92.1199L5.76029 11.3599C5.77029 8.33988 8.24029 5.87988 11.2703 5.87988H120.11C121.58 5.87988 122.95 6.44988 123.99 7.48988C125.02 8.52988 125.59 9.90988 125.58 11.3699L125.23 92.1299C125.22 95.1499 122.75 97.6099 119.72 97.6099H119.71ZM11.2703 7.86988C9.34029 7.86988 7.77029 9.43988 7.76029 11.3599L7.41029 92.1199C7.41029 93.0499 7.77029 93.9299 8.42029 94.5799C9.07029 95.2399 9.95029 95.5999 10.8803 95.5999H119.72C121.64 95.5999 123.22 94.0299 123.23 92.1099L123.58 11.3499C123.58 10.4199 123.23 9.54988 122.57 8.88988C121.91 8.22988 121.04 7.86988 120.11 7.86988H11.2703Z" fill="#2F3F64"/>
<path id="Vector_4" d="M124.86 7.45996H7.86035V19.64H124.86V7.45996Z" fill="#BCC5DC"/>
<path id="Vector_5" fill-rule="evenodd" clip-rule="evenodd" d="M17.8504 10.3203C19.3604 10.3203 20.5904 11.5603 20.5904 13.0803C20.5904 14.6003 19.3604 15.8403 17.8504 15.8403C16.3404 15.8403 15.1104 14.6003 15.1104 13.0803C15.1104 11.5603 16.3404 10.3203 17.8504 10.3203Z" fill="#2F3F64"/>
<path id="Vector_6" fill-rule="evenodd" clip-rule="evenodd" d="M28.3298 10.3203C29.8398 10.3203 31.0698 11.5603 31.0698 13.0803C31.0698 14.6003 29.8398 15.8403 28.3298 15.8403C26.8198 15.8403 25.5898 14.6003 25.5898 13.0803C25.5898 11.5603 26.8198 10.3203 28.3298 10.3203Z" fill="#2F3F64"/>
<path id="Vector_7" fill-rule="evenodd" clip-rule="evenodd" d="M39.28 10.3203C40.8 10.3203 42.02 11.5603 42.02 13.0803C42.02 14.6003 40.79 15.8403 39.28 15.8403C37.77 15.8403 36.54 14.6003 36.54 13.0803C36.54 11.5603 37.77 10.3203 39.28 10.3203Z" fill="#2F3F64"/>
<path id="Vector_8" d="M124.54 20.3896C123.99 20.3896 123.54 19.9396 123.54 19.3896L123.57 11.3596C123.57 10.4296 123.22 9.55965 122.56 8.89965C121.9 8.23965 121.03 7.87965 120.1 7.87965H11.2697C9.33973 7.87965 7.76973 9.44965 7.75973 11.3696L7.72973 18.3996H83.4597C84.0097 18.3996 84.4597 18.8496 84.4597 19.3996C84.4597 19.9496 84.0097 20.3996 83.4597 20.3996H6.71973C6.44973 20.3996 6.19973 20.2896 6.00973 20.1096C5.81973 19.9197 5.71973 19.6696 5.71973 19.3996L5.74973 11.3696C5.75973 8.34965 8.22973 5.88965 11.2597 5.88965H120.1C121.57 5.88965 122.94 6.45965 123.98 7.49965C125.01 8.53965 125.58 9.91965 125.57 11.3796L125.54 19.4096C125.54 19.9596 125.09 20.4096 124.54 20.4096V20.3896Z" fill="#2F3F64"/>
</g>
<g id="g7433">
<g id="path7429">
<path id="Vector_9" d="M90.9197 41.8501C90.3297 39.8001 88.5997 38.1901 86.3997 37.6401C82.3897 36.6201 66.3497 36.6201 66.3497 36.6201C66.3497 36.6201 50.3097 36.6201 46.2997 37.6001C44.1497 38.1501 42.3697 39.8001 41.7797 41.8501C40.7197 45.5901 40.7197 53.3501 40.7197 53.3501C40.7197 53.3501 40.7197 61.1401 41.7797 64.8501C42.3697 66.9001 44.0997 68.5101 46.2997 69.0601C50.3497 70.0801 66.3497 70.0801 66.3497 70.0801C66.3497 70.0801 82.3897 70.0801 86.3997 69.1001C88.5897 68.5501 90.3297 66.9301 90.9197 64.8901C91.9797 61.1501 91.9797 53.3901 91.9797 53.3901C91.9797 53.3901 92.0197 45.6001 90.9197 41.8601V41.8501Z" fill="#FEC95C"/>
<path id="Vector_10" d="M66.36 71.0704C65.7 71.0704 50.19 71.0603 46.07 70.0203C43.53 69.3803 41.53 67.5004 40.84 65.1204C39.76 61.3304 39.75 53.6703 39.75 53.3503C39.75 53.0303 39.76 45.4104 40.84 41.5804C41.52 39.2104 43.58 37.2704 46.07 36.6304C50.16 35.6304 65.71 35.6104 66.37 35.6104C67.03 35.6104 82.58 35.6204 86.67 36.6604C89.21 37.3004 91.21 39.1804 91.9 41.5604C93.02 45.4004 93 53.0604 92.99 53.3804C92.99 53.7004 92.98 61.3104 91.9 65.1404C91.21 67.5303 89.2 69.4104 86.66 70.0504C82.58 71.0504 67.03 71.0603 66.37 71.0603L66.36 71.0704ZM66.36 37.6104C66.2 37.6104 50.4 37.6204 46.55 38.5704C44.74 39.0304 43.25 40.4304 42.76 42.1304C41.76 45.6904 41.74 53.2703 41.74 53.3503C41.74 53.4303 41.75 61.0504 42.76 64.5704C43.25 66.2704 44.71 67.6203 46.56 68.0903C50.45 69.0703 66.21 69.0804 66.37 69.0804C66.53 69.0804 82.33 69.0704 86.18 68.1204C88.03 67.6604 89.48 66.3103 89.97 64.6003C90.97 61.0403 90.99 53.4604 90.99 53.3804C90.99 53.3004 91.02 45.6804 89.98 42.1304C89.49 40.4204 88.03 39.0804 86.18 38.6104C82.33 37.6304 66.53 37.6203 66.38 37.6203L66.36 37.6104Z" fill="#2F3F64"/>
</g>
<g id="polygon7431">
<path id="Vector_11" d="M61.25 46.1799V60.5099L74.59 53.3399L61.25 46.1699V46.1799Z" fill="#2F3F64"/>
</g>
</g>
<path id="Vector_12" d="M112.55 85.1104H29.6201C29.0701 85.1104 28.6201 84.6604 28.6201 84.1104C28.6201 83.5604 29.0701 83.1104 29.6201 83.1104H112.56C113.11 83.1104 113.56 83.5604 113.56 84.1104C113.56 84.6604 113.11 85.1104 112.56 85.1104H112.55Z" fill="#2F3F64"/>
<g id="polygon7431_2">
<path id="Vector_13" d="M15.5801 80.1496V88.0796C15.5801 88.9996 16.5601 89.5796 17.3601 89.1496L24.7401 85.1896C25.5901 84.7296 25.5901 83.5096 24.7401 83.0596L17.3601 79.0996C16.5501 78.6696 15.5801 79.2496 15.5801 80.1696V80.1496Z" fill="#2F3F64"/>
</g>
<path id="Vector_14" d="M34.6299 88.7199C34.0799 88.7199 33.6299 88.2699 33.6299 87.7199V79.9199C33.6299 79.3699 34.0799 78.9199 34.6299 78.9199C35.1799 78.9199 35.6299 79.3699 35.6299 79.9199V87.7199C35.6299 88.2699 35.1799 88.7199 34.6299 88.7199Z" fill="#2F3F64"/>
</g>
<defs>
<clipPath id="clip0_516_53">
<rect width="125.57" height="97.61" fill="white"/>
</clipPath>
</defs>
</svg>
