<svg width="410" height="410" viewBox="0 0 410 410" fill="none" xmlns="http://www.w3.org/2000/svg">
<path d="M191.187 110.908C211.278 109.891 237.736 117.282 251.245 132.929C278.912 125.986 308.637 130.583 333.926 143.139C330.242 149.866 330.955 150.931 331.924 158.354C340.829 164.752 355.419 163.199 351.943 175.17L299.492 299.292C296.025 312.392 281.987 300.693 266.86 293.886C237.279 280.577 207.554 267.565 177.974 254.248C164.841 267.428 146.207 261.887 145.342 242.836L144.341 241.835C118.42 235.758 91.8816 232.186 65.8643 226.621C63.8863 226.196 49.0879 222.865 48.8477 222.016C49.5844 219.91 49.0158 217.652 49.248 216.811C49.7285 215.073 69.6199 198.617 72.6709 195.791C75.4016 193.26 75.89 191.65 77.4756 190.185C83.4254 184.684 89.9518 179.695 95.8936 174.169C103.669 166.938 145.102 127.084 148.745 124.921C152.397 122.751 154.527 122.303 158.755 123.72C162.863 121.574 166.667 116.185 170.767 114.511C173.649 113.334 187.639 111.084 191.187 110.908Z" fill="#1E2B62"/>
<path d="M333.327 160.957C335.914 161.902 348.974 166.426 349.543 168.364V170.366L297.092 294.487L294.489 298.691L290.085 297.49L178.176 246.44C176.91 242.597 193.142 244.006 195.593 244.238C221.25 246.657 258.63 263.978 279.274 279.873L333.127 167.563L333.327 160.957Z" fill="#40B0E5"/>
<path d="M75.073 194.99C78.0839 194.293 77.5634 200.996 77.2751 202.798C76.7786 205.897 72.2382 210.709 73.8718 211.406C97.0224 208.547 130.151 213.368 147.544 229.824C155.824 237.664 149.425 235.494 139.536 233.828C110.492 228.943 81.7435 221.744 52.6511 217.012C51.0415 215.922 53.0835 214.569 55.0534 212.607C57.1355 210.533 73.7757 195.286 75.073 194.99Z" fill="#40B0E5"/>
<path d="M50.6477 218.613L148.743 236.631C151.634 237.824 147.75 239.426 150.145 247.241C151.114 250.412 155.494 255.513 158.753 256.65C170.421 260.718 175.417 248.21 177.972 248.242C216.193 265.715 255.135 281.819 292.884 300.293C293.421 300.557 295.727 299.668 295.487 302.095C294.886 308.125 276.989 296.954 268.46 293.086C238.375 279.441 208.049 266.316 177.972 252.646C175.498 252.358 174.264 257.163 169.163 259.053C159.338 262.688 149.464 257.259 146.942 247.241C146.469 245.351 147.943 241.988 145.54 240.635L57.4543 223.418C54.6196 221.929 49.1422 222.761 50.6477 218.613Z" fill="#00A5F3"/>
<path d="M153.151 124.121C156.138 123.745 157.844 124.177 155.554 126.523C150.052 132.169 117.957 155.696 108.508 164.36C114.105 158.466 146.561 127.692 149.147 126.123C149.956 125.634 152.591 124.193 153.151 124.121Z" fill="#40B0E5"/>
<path d="M189.985 112.109C206.273 111.132 229.832 116.281 242.837 126.523C244.687 127.98 249.668 131.864 249.043 134.33L167.163 224.618C139.536 195.974 115.793 194.597 77.6758 192.787C77.8439 191.594 78.7488 190.978 79.4775 190.185C81.2793 188.231 114.824 160.668 120.317 156.152C136.589 142.779 153.51 130.158 169.565 116.513C173.305 114.495 185.549 112.373 189.985 112.109Z" fill="white"/>
<path d="M114.712 172.969C131.616 174.09 148.961 178.951 161.758 190.386L152.349 200.195C138.423 189.104 121.206 185.893 103.901 183.779L103.301 183.179L114.712 172.969Z" fill="#FFE02E"/>
<path d="M271.265 130.927C290.844 129.91 314.995 134.731 332.324 143.94L277.07 254.447L275.669 255.849C248.755 238.44 213.729 220.935 180.776 223.817C177.053 224.146 168.316 226.644 168.164 225.619C179.071 214.761 245.207 138.102 250.444 134.931C254.224 132.64 266.604 131.167 271.265 130.927Z" fill="white"/>
<path d="M211.205 188.984C231.625 189.849 253.27 192.139 271.064 202.798C267.909 206.618 265.506 211.07 262.055 214.609C242.932 206.073 222.12 200.412 200.795 200.596C199.258 200.051 209.668 189.217 211.205 188.984Z" fill="#FFE02E"/>
<path d="M230.823 171.767C242.811 170.71 261.629 173.664 272.864 178.173C287.735 184.139 284.123 183.426 276.067 195.79C257.697 185.9 236.421 182.049 215.608 184.579L215.008 183.979L225.218 172.567C227.012 172.207 229.013 171.927 230.823 171.767Z" fill="#FFE02E"/>
<path d="M255.648 151.347C264.633 151.235 274.498 152.26 283.275 154.15C285.525 154.638 300.027 158.514 299.891 160.356C299.851 160.917 294.534 168.564 293.685 169.765C281.553 165.289 269.029 162.174 256.048 161.357C235.22 160.052 229.454 165.945 242.035 152.148C246.535 152.1 251.171 151.403 255.648 151.347Z" fill="#1E2B62"/>
<path d="M264.058 136.933C275.381 136.404 292.206 138.334 302.896 142.138C309.759 144.58 307.957 143.955 301.294 154.95C283.661 148.112 266.941 146.59 248.043 148.144C246.097 147.055 252.239 141.145 254.849 137.733C257.86 137.389 261.047 137.069 264.058 136.933Z" fill="#FFE02E"/>
<path d="M185.981 224.618C215.61 223.433 251.766 241.291 275.869 257.651C278.672 283.348 282.363 279.064 264.858 268.661C239.225 253.431 207.955 241.131 177.573 243.036C175.956 237.383 173.593 232.09 169.766 227.621C170.078 226.468 184.068 224.699 185.981 224.618Z" fill="white"/>
<path d="M242.836 250.645C252.67 254.937 262.311 259.829 271.063 266.06L242.836 250.645Z" fill="#1E2B62"/>
<path d="M213.207 236.631C220.006 236.719 227.101 237.672 233.026 241.235L213.207 236.631Z" fill="#1E2B62"/>
<path d="M181.176 229.023C183.274 228.871 188.831 228.839 190.785 229.023C203.309 230.224 182.689 229.72 179.975 229.824C178.557 229.88 176.587 230.28 175.17 230.624C173.376 229.872 180.671 229.063 181.176 229.023Z" fill="#1E2B62"/>
<path d="M257.25 250.645L269.062 256.45C268.805 257.091 258.099 251.966 257.25 250.645Z" fill="#1E2B62"/>
<path d="M179.176 234.629L190.587 235.229C180.281 234.277 171.008 237.704 179.176 234.629Z" fill="#1E2B62"/>
<path d="M79.0781 194.589C112.319 194.477 142.588 198.769 164.962 225.219L152.75 232.626C131.481 212.687 104.415 207.794 75.875 209.804C79.4465 203.614 78.0771 195.037 79.0781 194.589Z" fill="white"/>
<path d="M139.136 210.205C145.318 214.561 153.374 216.731 158.154 222.817C152.397 219.118 145.782 215.939 140.337 211.807C139.897 211.47 138.543 210.694 139.136 210.205Z" fill="#1E2B62"/>
<path d="M108.305 202.998C114.207 203.743 119.924 205.561 124.921 208.804C123.8 208.147 107.52 203.422 108.305 202.998Z" fill="#1E2B62"/>
<path d="M84.6816 203.398C95.7564 202.157 96.1168 204.647 81.0781 204.599C81.6227 203.958 83.9129 203.486 84.6816 203.398Z" fill="#1E2B62"/>
<path d="M148.344 221.016L156.151 226.821C155.767 227.598 148.664 222.369 148.344 221.016Z" fill="#1E2B62"/>
<path d="M93.4912 198.193C96.8705 198.337 92.1939 199.674 85.6836 198.793C87.7496 198.881 92.3541 198.145 93.4912 198.193Z" fill="#1E2B62"/>
<path d="M329.32 152.148C330.569 152.012 332.25 166.522 331.522 167.964L279.671 275.068C278.75 274.804 277.045 257.892 277.469 256.05L329.32 152.148Z" fill="white"/>
<path d="M311.703 194.189L312.304 194.79L280.473 260.254C289.634 237.672 301.333 216.227 311.703 194.189Z" fill="#1E2B62"/>
<path d="M329.722 164.16L330.322 164.36C326.711 172.552 322.723 180.72 317.71 188.184C316.437 187.735 329.233 166.018 329.722 164.16Z" fill="#1E2B62"/>
<path d="M293.686 238.232C290.819 247.529 285.662 256.01 281.273 264.658C279.88 264.202 292.741 240.018 293.686 238.232Z" fill="#1E2B62"/>
<path d="M134.739 152.356C151.644 153.478 168.989 158.338 181.785 169.773L172.376 179.583C158.45 168.492 141.234 165.281 123.929 163.167L123.328 162.566L134.739 152.356Z" fill="#1E2B62"/>
<path d="M165.169 127.532C182.073 128.653 199.418 133.514 212.215 144.949L202.806 154.759C188.88 143.668 171.663 140.457 154.358 138.343L153.758 137.742L165.169 127.532Z" fill="#FFE02E"/>
</svg>
