<svg width="449" height="369" viewBox="0 0 449 369" fill="none" xmlns="http://www.w3.org/2000/svg">
<g clip-path="url(#clip0_3073_37970)">
<path d="M274.249 74.5482L294.284 133.215L308.053 135.902C308.053 135.902 287.033 181.61 251.616 173.952C216.199 166.293 223.984 135.902 223.984 135.902L231.478 135.292C235.961 134.925 239.038 130.602 237.912 126.233L229.49 93.5493C229.49 93.5493 263.809 65.837 274.24 74.5388L274.249 74.5482Z" fill="#FFE9DD"/>
<path d="M259.486 175.746C256.888 175.746 254.196 175.474 251.42 174.873C239.817 172.363 231.526 167.186 226.78 159.489C219.933 148.391 222.953 136.184 223.084 135.677C223.187 135.292 223.515 135.01 223.919 134.972L231.413 134.361C233.27 134.211 234.968 133.252 236.047 131.73C237.125 130.208 237.482 128.291 237.013 126.486L228.59 93.8028C228.496 93.4458 228.627 93.0699 228.909 92.8349C230.334 91.6885 263.951 64.7467 274.85 73.8338C274.981 73.9466 275.084 74.0875 275.141 74.2567L294.997 132.407L308.232 134.991C308.513 135.047 308.757 135.226 308.888 135.489C309.02 135.743 309.029 136.053 308.907 136.306C308.71 136.739 290.382 175.756 259.496 175.756L259.486 175.746ZM224.754 136.786C224.247 139.407 222.812 149.5 228.384 158.521C232.858 165.767 240.736 170.644 251.814 173.04C283.057 179.797 303.195 143.411 306.665 136.598L294.097 134.145C293.768 134.079 293.496 133.844 293.384 133.525L273.443 75.1118C265.292 68.9285 240.221 86.1911 230.55 93.9062L238.823 125.998C239.433 128.347 238.973 130.828 237.566 132.811C236.159 134.784 233.974 136.034 231.554 136.231L224.754 136.786Z" fill="#1E2B62"/>
<path d="M265.873 4.82074C273.996 7.25462 280.852 13.5789 283.947 21.482C285.532 25.5416 286.17 29.9207 287.671 34.0085C289.181 38.0962 291.854 42.0994 295.953 43.5748C298.007 44.3172 300.24 44.3548 302.35 44.8904C306.59 45.9617 310.341 49.2695 311.401 53.5171C312.452 57.7646 310.407 62.7451 306.421 64.5588C307.903 68.2331 307.115 72.7249 304.47 75.6757C301.825 78.6264 297.454 79.9044 293.646 78.8237C293.505 87.3564 287.296 94.9211 279.68 98.7552C272.063 102.589 263.265 103.266 254.749 103.059C238.616 102.674 222.389 99.2908 208.095 91.7731C204.399 89.8278 200.779 87.5725 198.077 84.3869C195.376 81.2012 193.669 76.9631 194.307 72.8377C188.613 69.2104 183.033 64.9441 179.881 58.9674C176.739 52.9908 176.673 44.9374 181.335 40.0603C185.105 36.1134 191.08 34.9388 194.879 31.0295C198.181 27.6372 199.315 22.76 201.013 18.3339C203.142 12.799 206.453 7.56473 211.256 4.09716C217.118 -0.140981 224.978 -1.01492 231.806 1.08066C235.521 2.21772 237.969 4.37907 241.092 6.47465C244.112 8.50445 247.939 5.25301 251.156 4.47305C255.977 3.30779 261.108 3.38297 265.864 4.81135L265.873 4.82074Z" fill="#1E2B62"/>
<path d="M261.493 92.534C258.782 99.0932 254.683 105.192 249.074 109.534C243.465 113.875 236.252 116.337 229.208 115.52C217.418 114.148 208.198 103.895 204.437 92.6186C200.676 81.3513 201.323 69.1443 202.12 57.2851C202.12 57.2851 207.185 39.468 220.401 33.5947C222.914 59.5028 267.411 40.3983 255.649 76.8407C255.649 76.8407 263.781 66.9548 268.931 67.5186C274.493 68.12 279.173 73.157 279.473 78.7577C279.783 84.3584 275.984 89.8182 270.769 91.8574C267.824 93.0038 264.972 93.7744 261.502 92.534H261.493Z" fill="#FFE9DD"/>
<path d="M231.911 116.61C230.963 116.61 230.025 116.554 229.097 116.45C217.907 115.153 207.88 105.916 203.547 92.9197C199.589 81.051 200.47 67.8385 201.183 57.2197C201.183 57.1539 201.202 57.0881 201.221 57.0224C201.436 56.28 206.558 38.7166 220.017 32.7306C220.289 32.6084 220.608 32.6272 220.871 32.7776C221.134 32.9279 221.302 33.2004 221.33 33.5011C222.381 44.3455 231.029 46.7794 240.183 49.3636C246.899 51.2619 253.849 53.2165 256.917 58.9582C258.821 62.5291 259.065 67.2277 257.629 73.2419C260.584 70.2348 265.321 66.1752 269.026 66.5793C274.972 67.2277 280.075 72.6593 280.403 78.7017C280.722 84.6031 276.811 90.4952 271.098 92.7317C268.557 93.7184 265.583 94.6769 262.019 93.6902C259.036 100.597 254.769 106.32 249.647 110.276C244.348 114.373 238.017 116.61 231.911 116.61ZM203.05 57.4546C202.356 67.8855 201.502 80.8443 205.329 92.3276C208.696 102.411 217.419 113.208 229.322 114.59C235.784 115.341 242.772 113.227 248.512 108.792C253.577 104.882 257.761 99.1312 260.64 92.1773C260.828 91.7168 261.353 91.4819 261.822 91.651C264.824 92.7223 267.347 92.1961 270.433 90.9838C275.413 89.0386 278.827 83.9171 278.546 78.8145C278.264 73.6554 273.912 69.0132 268.838 68.4587C265.03 68.0547 258.549 74.8019 256.382 77.4425C256.091 77.7902 255.603 77.8841 255.209 77.668C254.816 77.4519 254.628 76.982 254.769 76.5591C257.16 69.1447 257.329 63.685 255.285 59.8603C252.593 54.8234 246.327 53.0567 239.696 51.1867C231.104 48.7622 221.415 46.0276 219.652 35.0141C208.302 40.8967 203.472 56.139 203.068 57.4546H203.05Z" fill="#1E2B62"/>
<path d="M262.637 85.8719C262.365 85.8719 262.103 85.7591 261.915 85.5336C261.587 85.1389 261.634 84.5469 262.028 84.2086C264.072 82.4983 265.817 80.4779 267.224 78.2132C267.496 77.7715 268.078 77.6305 268.518 77.9124C268.959 78.185 269.091 78.7676 268.818 79.2093C267.308 81.6525 265.432 83.8233 263.238 85.6651C263.059 85.8155 262.844 85.8813 262.637 85.8813V85.8719Z" fill="#1E2B62"/>
<path d="M148.14 160.081C158.617 145.901 174.628 136.889 192.168 135.272C202.157 134.352 214.679 133.374 228.645 132.651C229.414 135.169 230.493 137.603 231.881 139.905C235.933 146.577 242.264 151.718 249.337 154.903C256.409 158.098 264.316 159.536 272.044 158.606C279.604 157.694 286.808 154.462 292.032 148.823C296.291 144.228 301.403 138.665 302.716 132.632C315.387 133.355 325.367 134.399 337.261 136.269C359.959 139.83 379.506 153.597 391.897 172.983C418.938 215.261 449.009 259.889 449.009 311.376C449.009 369.911 308.747 364.827 308.747 364.827H171.993L84.5469 290.392C84.5469 290.392 111.766 209.294 148.14 160.072V160.081Z" fill="#40B0E5"/>
<path d="M321.213 355.309C322.245 362.291 308.748 364.828 308.748 364.828H266.906L204.597 356.803C204.597 356.803 199.729 276.372 287.822 286.089C287.822 286.089 314.404 309.253 321.213 355.309Z" fill="#FFE9DD"/>
<path d="M308.738 365.767H266.896C266.896 365.767 266.812 365.767 266.774 365.767L204.466 357.742C204.016 357.685 203.678 357.319 203.65 356.868C203.631 356.53 201.858 322.747 224.097 301.537C238.701 287.61 260.171 282.104 287.916 285.158C288.432 285.214 288.797 285.675 288.741 286.191C288.685 286.708 288.216 287.075 287.709 287.018C260.546 284.021 239.583 289.358 225.401 302.881C205.648 321.713 205.385 350.863 205.497 355.966L266.952 363.878H308.729C309.245 363.878 309.667 364.301 309.667 364.818C309.667 365.335 309.245 365.758 308.729 365.758L308.738 365.767Z" fill="#1E2B62"/>
<path d="M250.482 358.053C250.022 358.053 249.619 357.714 249.553 357.244C248.85 352.414 249.966 347.067 252.695 342.19C254.937 338.187 258.239 334.428 262.778 330.697C263.66 329.974 264.692 329.166 265.892 328.639C266.371 328.433 266.924 328.639 267.13 329.128C267.337 329.607 267.13 330.162 266.643 330.368C265.667 330.801 264.786 331.487 263.97 332.163C259.608 335.744 256.457 339.324 254.327 343.12C251.795 347.631 250.754 352.555 251.401 356.981C251.476 357.498 251.12 357.968 250.604 358.043C250.557 358.043 250.51 358.053 250.463 358.053H250.482Z" fill="#1E2B62"/>
<path d="M230.343 356.896C230.343 356.896 230.258 356.896 230.212 356.896C229.696 356.821 229.339 356.351 229.414 355.834C230.183 350.403 231.29 344.041 233.682 338.045C236.196 331.74 239.901 326.571 244.403 323.113C244.816 322.794 245.397 322.878 245.716 323.282C246.035 323.696 245.95 324.288 245.547 324.598C241.308 327.859 237.809 332.745 235.427 338.741C233.11 344.557 232.031 350.778 231.281 356.097C231.215 356.567 230.812 356.905 230.352 356.905L230.343 356.896Z" fill="#1E2B62"/>
<path d="M214.21 356.897C213.741 356.897 213.337 356.549 213.281 356.07C210.467 332.473 225.953 317.738 226.112 317.588C226.488 317.231 227.088 317.259 227.435 317.635C227.791 318.011 227.763 318.612 227.388 318.96C227.238 319.101 212.446 333.225 215.148 355.844C215.213 356.361 214.838 356.831 214.332 356.887C214.294 356.887 214.257 356.887 214.219 356.887L214.21 356.897Z" fill="#1E2B62"/>
<path d="M52.4311 369H279.707C281.058 369 282.399 368.652 283.506 367.891C286.104 366.096 287.005 362.892 285.982 360.148C283.3 354.519 277.766 352.536 269.577 352.536H37.5176L40.5284 360.74C42.3856 365.711 47.1316 369.009 52.4311 369.009V369Z" fill="#1E2B62"/>
<path d="M41.3273 363.221L0.695043 261.064C-0.130359 258.978 -0.261673 256.638 0.53559 254.542C1.84873 251.075 5.1222 248.895 8.67706 248.895H148.358C156.771 248.895 164.275 254.204 167.089 262.154L204.86 369H49.8346C46.0828 369 42.7155 366.707 41.3273 363.221Z" fill="#1E2B62"/>
<path d="M393.998 288.485H393.979L292.361 286.549C291.845 286.54 291.432 286.108 291.442 285.591C291.451 285.074 291.873 284.67 292.38 284.67H292.398L394.017 286.606C394.532 286.615 394.945 287.047 394.936 287.564C394.926 288.081 394.504 288.485 393.998 288.485Z" fill="#1E2B62"/>
<path d="M360.063 282.714C359.66 282.714 359.285 282.451 359.163 282.047C355.495 269.822 350.44 258 344.137 246.911C342.392 243.838 340.76 242.429 339.016 242.485C338.5 242.513 338.068 242.1 338.049 241.574C338.031 241.057 338.434 240.624 338.959 240.606C342.289 240.512 344.428 243.622 345.769 245.981C352.147 257.192 357.259 269.145 360.954 281.502C361.104 282 360.823 282.527 360.326 282.677C360.232 282.705 360.148 282.714 360.054 282.714H360.063Z" fill="#1E2B62"/>
</g>
<defs>
<clipPath id="clip0_3073_37970">
<rect width="449" height="369" fill="white"/>
</clipPath>
</defs>
</svg>
