<svg width="279" height="497" viewBox="0 0 279 497" fill="none" xmlns="http://www.w3.org/2000/svg">
<g clip-path="url(#clip0_3214_4563)">
<mask id="mask0_3214_4563" style="mask-type:alpha" maskUnits="userSpaceOnUse" x="-26" y="-18" width="408" height="383">
<rect x="-26" y="-18" width="408" height="383" fill="#D9D9D9"/>
</mask>
<g mask="url(#mask0_3214_4563)">
<path d="M278.582 496.972L213.988 284.252L141.358 259.891L70.8242 309.782L66.3008 496.972H278.582Z" fill="#F0F9FD"/>
<path d="M66.3135 497H66.2993C65.91 496.992 65.5985 496.666 65.6056 496.277L70.1148 309.767C70.1148 309.54 70.2281 309.335 70.4121 309.207L140.939 259.316C141.123 259.188 141.357 259.153 141.569 259.223L214.205 283.591C214.425 283.662 214.588 283.84 214.659 284.059L278.963 495.993C279.076 496.369 278.864 496.766 278.489 496.879C278.107 496.992 277.717 496.78 277.604 496.404L213.406 284.818L141.456 260.684L71.5094 310.157L67.0072 496.312C67.0001 496.695 66.6816 497.007 66.2993 497.007L66.3135 497Z" fill="#1E2B62"/>
<path d="M157.356 112.307L149.145 111.414L151.311 83.3457C151.311 83.3457 144.487 49.1397 118.217 74.6843L113.403 112.789L105.723 114.142C105.723 114.142 108.809 131.536 130.86 131.486C149.59 131.444 157.682 125.114 157.356 112.307Z" fill="#FFE9DD"/>
<path d="M106.657 114.682C106.317 114.682 106.02 114.441 105.963 114.093C105.899 113.71 106.154 113.342 106.536 113.271L112.766 112.172L117.516 74.5856C117.537 74.4225 117.608 74.2808 117.728 74.1674C125.904 66.2219 133.117 63.1458 139.177 65.0311C148.882 68.0576 151.884 82.5806 152.011 83.1973C152.025 83.2611 152.025 83.3249 152.025 83.3887L149.916 110.769L154.071 111.223C154.46 111.265 154.743 111.612 154.701 112.002C154.659 112.392 154.312 112.669 153.922 112.633L149.087 112.109C148.705 112.066 148.429 111.733 148.457 111.35L150.616 83.3887C150.347 82.1554 147.296 69.0429 138.766 66.3849C133.287 64.6838 126.605 67.5828 118.903 75.0108L114.125 112.867C114.089 113.179 113.849 113.42 113.544 113.477L106.798 114.667C106.756 114.674 106.713 114.682 106.678 114.682H106.657Z" fill="#1E2B62"/>
<path d="M102.808 51.3723C100.104 46.8432 97.6756 41.8533 97.8313 36.5799C97.9871 31.3066 101.534 25.7993 106.758 25.0976C105.314 19.0233 107.728 12.2048 112.669 8.40575C117.61 4.60666 124.809 4.01837 130.302 6.974C136.291 0.0775256 147.001 -1.83619 155.368 1.82114C163.736 5.48555 169.47 14.0973 170.503 23.1768C170.949 27.0822 170.56 31.1932 168.627 34.6095C165.923 39.3938 160.522 42.1581 155.099 43.0157C152.013 43.5048 148.495 43.6253 146.4 45.9501C145.097 47.396 144.651 49.3877 144.035 51.2305C141.848 57.7514 136.829 63.2586 130.543 66.03C125.425 68.291 116.59 69.6377 111.522 66.3985C109.561 65.144 109.186 62.7483 108.23 60.7283C106.68 57.4678 104.662 54.4555 102.808 51.3652V51.3723Z" fill="#FFE02E"/>
<path d="M163.114 54.8738C165.612 63.4855 166.504 73.3093 161.818 80.95C157.734 87.6055 149.529 91.4542 141.806 90.3485C134.083 89.2428 127.294 83.2323 125.242 75.6979C117.929 75.6341 110.949 70.4316 108.79 63.4359C107.976 60.8063 108.019 57.475 110.227 55.8377C112.754 53.9665 116.265 55.4408 119.168 56.6599C122.063 57.879 124.25 60.0408 125.78 57.2907C124.675 50.3517 119.345 38.5717 129.517 35.1129C133.304 33.83 154.491 30.1514 154.491 30.1514C154.491 30.1514 161.761 50.2171 163.114 54.8596V54.8738Z" fill="#FFE9DD"/>
<path d="M144.451 91.2417C143.531 91.2417 142.617 91.1779 141.704 91.0503C133.903 89.9305 126.987 83.9412 124.701 76.3927C117.24 76.0879 110.316 70.8003 108.108 63.6416C107.244 60.8419 107.23 57.1633 109.8 55.2638C112.652 53.1516 116.411 54.7322 119.427 56.0009C120.107 56.2844 120.729 56.6105 121.324 56.9223C123.568 58.0918 124.304 58.3045 125.033 57.1491C124.828 55.9584 124.503 54.6117 124.163 53.1941C122.563 46.5599 120.383 37.4662 129.281 34.4468C133.075 33.1568 153.498 29.6129 154.368 29.464C154.708 29.4073 155.041 29.5987 155.154 29.9176C155.451 30.7398 162.445 50.0613 163.79 54.6684C166.983 65.6617 166.523 74.6278 162.417 81.3116C158.679 87.4001 151.565 91.2346 144.451 91.2346V91.2417ZM113.113 55.6536C112.214 55.6536 111.371 55.8663 110.642 56.4049C108.667 57.865 108.773 60.9908 109.46 63.2234C111.548 69.9782 118.188 74.9255 125.246 74.9893C125.564 74.9893 125.84 75.2019 125.925 75.5138C127.9 82.7717 134.477 88.5838 141.909 89.6469C149.349 90.7172 157.285 86.989 161.221 80.5816C165.107 74.2521 165.518 65.6687 162.438 55.0724C161.235 50.9402 155.218 34.2412 154.036 30.9666C150.595 31.5691 133.089 34.6594 129.748 35.7935C122.067 38.4018 123.915 46.085 125.55 52.8681C125.925 54.4132 126.272 55.8733 126.485 57.1846C126.513 57.3405 126.485 57.5035 126.407 57.6453C124.878 60.3812 122.655 59.2117 120.687 58.1911C120.114 57.8934 119.519 57.5815 118.896 57.3193C116.999 56.5254 114.939 55.6607 113.127 55.6607L113.113 55.6536Z" fill="#1E2B62"/>
<path d="M122.346 67.0935C122.148 67.0935 121.95 67.0085 121.815 66.8525C120.251 65.0451 117.794 64.0599 115.416 64.2655C115.019 64.3009 114.68 64.0103 114.651 63.6205C114.616 63.2306 114.906 62.8833 115.296 62.855C118.113 62.6069 121.029 63.7835 122.891 65.924C123.146 66.2217 123.118 66.6682 122.82 66.9234C122.686 67.0368 122.523 67.1006 122.353 67.1006L122.346 67.0935Z" fill="#1E2B62"/>
<path d="M263.434 207.199C276.091 179.932 239.621 133.032 198.054 117.652C182.155 111.769 167.537 111.244 157.407 111.84C156.522 114.668 155.262 117.411 153.386 119.721C149.769 124.179 143.985 126.639 138.435 127.518C133.105 128.368 127.499 128.078 122.296 126.625C117.616 125.321 113.058 122.946 109.596 119.494C108.003 117.907 106.708 116.099 105.724 114.136C73.3876 116.709 53.0287 120.636 35.9474 141.516C13.9391 168.429 -4.40934 219.043 0.935219 251.002C6.27978 282.961 20.9543 292.849 39.6779 299.008L38.8568 316.289C37.9507 335.433 56.8584 349.29 74.8104 342.634L224.345 287.172C231.622 284.471 235.43 276.469 232.946 269.112C227.481 256.304 222.009 243.496 216.544 230.696C253.701 226.507 261.983 210.318 263.427 207.199H263.434Z" fill="#98E0FF"/>
<path d="M213.987 228.697C213.753 228.697 213.526 228.584 213.392 228.371L167.768 157.393C167.556 157.067 167.655 156.628 167.981 156.415C168.306 156.202 168.745 156.302 168.958 156.628L214.581 227.605C214.793 227.931 214.694 228.371 214.369 228.584C214.248 228.662 214.121 228.697 213.987 228.697Z" fill="#1E2B62"/>
<path d="M193.231 115.674C182.259 105.637 183.937 83.7501 164.095 74.9258C162.021 78.0657 158.679 81.0497 157.143 81.886C149.378 76.1023 146.992 74.139 139.821 68.9223C137.549 67.2638 134.498 65.7683 131.567 66.1652C130.144 66.3565 128.283 67.3489 127.511 68.5609C125.982 70.9637 128.346 74.1957 129.812 76.3646C133.875 82.368 136.416 83.5658 140.565 88.0666C140.565 88.0666 130.491 89.6118 131.008 99.1024C131.008 99.1024 125.062 100.158 127.759 111.634C127.759 111.634 124.389 120.614 132.417 125.639C138.193 129.254 141.987 127.815 141.987 127.815C141.987 127.815 161.292 152.006 173.871 160.299C186.45 168.592 203.503 125.072 193.224 115.667L193.231 115.674Z" fill="#FFE9DD"/>
<path d="M136.127 128.134C136.049 128.134 135.978 128.12 135.9 128.098C134.633 127.666 133.338 127.042 132.049 126.241C124.333 121.415 126.57 113.044 127.031 111.598C125.933 106.785 126.174 103.135 127.745 100.739C128.595 99.4423 129.643 98.8469 130.287 98.5917C130.181 91.0999 136.467 88.4561 139.206 87.6623C138.151 86.5637 137.21 85.6139 136.297 84.6925C133.798 82.1763 131.646 80.0003 128.368 75.9177C127.455 74.7766 125.452 71.7997 126.521 68.8015C127.441 66.2286 130.379 65.0875 132.828 65.293C135.242 65.4986 137.394 66.7248 139.404 67.9722C143.461 70.4884 145.924 72.4943 148.522 74.6206C150.872 76.5343 153.3 78.5189 157.165 81.1131C159.162 79.6955 162.312 77.1723 163.685 74.4576C163.855 74.1174 164.265 73.9756 164.605 74.1316C177.085 79.7735 181.481 90.6746 185.361 100.293C187.718 106.14 189.948 111.669 193.707 115.163C193.99 115.432 194.011 115.879 193.742 116.163C193.473 116.446 193.027 116.467 192.744 116.198C188.751 112.484 186.465 106.821 184.044 100.817C180.327 91.6031 176.13 81.1769 164.612 75.6909C162.871 78.6253 159.501 81.2194 157.569 82.5448C157.328 82.7079 157.017 82.715 156.776 82.5448C152.621 79.7806 150.079 77.7109 147.623 75.7051C145.053 73.6142 142.632 71.6366 138.654 69.163C136.722 67.9651 134.81 66.8665 132.708 66.6893C130.853 66.5334 128.531 67.3839 127.859 69.2622C127.278 70.8782 127.887 73.0259 129.473 75.0175C132.701 79.0434 134.831 81.1982 137.302 83.6789C138.456 84.8413 139.652 86.0533 141.082 87.563C141.259 87.7544 141.323 88.0308 141.238 88.2789C141.153 88.527 140.933 88.7113 140.679 88.7467C140.296 88.8105 131.25 90.3202 131.724 99.0454C131.745 99.3998 131.49 99.7187 131.143 99.7825C131.101 99.7896 129.862 100.052 128.906 101.547C127.979 102.986 127.151 105.878 128.46 111.456C128.489 111.591 128.482 111.733 128.432 111.867C128.305 112.215 125.374 120.38 132.807 125.022C134.003 125.767 135.2 126.348 136.36 126.738C136.729 126.865 136.927 127.262 136.806 127.638C136.707 127.935 136.431 128.12 136.134 128.12L136.127 128.134Z" fill="#1E2B62"/>
<path d="M141.875 128.439C141.755 128.439 141.634 128.411 141.528 128.347C137.812 126.242 134.669 122.365 133.593 119.785C133.444 119.424 133.614 119.005 133.975 118.857C134.336 118.708 134.747 118.878 134.902 119.239C135.745 121.259 138.576 125.044 142.229 127.114C142.569 127.305 142.689 127.738 142.498 128.078C142.371 128.305 142.13 128.439 141.882 128.439H141.875Z" fill="#1E2B62"/>
<path d="M165.532 86.6706C165.454 86.6706 165.376 86.6565 165.298 86.6281C165.051 86.5431 159.161 84.4592 156.733 82.5101C156.429 82.262 156.379 81.8155 156.627 81.5107C156.875 81.2059 157.313 81.1563 157.625 81.4044C159.869 83.2047 165.716 85.2672 165.773 85.2885C166.141 85.4161 166.332 85.8201 166.205 86.1887C166.105 86.4793 165.829 86.6635 165.539 86.6635L165.532 86.6706Z" fill="#1E2B62"/>
<path d="M211.742 147.569H136.381C135.305 147.569 134.356 148.278 134.052 149.313L105.418 245.899C104.957 247.458 106.125 249.025 107.746 249.025H183.108C184.184 249.025 185.133 248.316 185.437 247.281L214.071 150.695C214.531 149.136 213.363 147.569 211.742 147.569Z" fill="#1E2B62"/>
<path d="M173.051 222.792C176.286 219.666 178.268 216.271 176.201 212.947C174.134 209.623 168.931 208.843 165.986 211.423C168.166 209.701 170.41 207.915 171.741 205.469C173.072 203.024 173.249 199.735 171.415 197.637C169.808 195.795 167.048 195.341 164.662 195.865C163.487 196.128 162.376 196.588 161.307 197.148C162.34 195.596 162.623 193.392 161.753 191.691C160.259 188.785 156.599 187.544 153.357 187.913C150.115 188.281 147.17 189.919 144.332 191.528C125.318 202.244 87.7429 224.018 87.7429 224.018C86.7519 229.433 106.552 273.045 114.041 280.331C118.89 278.871 155.212 249.733 168.98 237.911C171.288 235.926 173.666 233.828 174.834 231.021C176.01 228.214 175.571 224.479 173.043 222.785L173.051 222.792Z" fill="#FFE9DD"/>
<path d="M138.999 212.33C138.759 212.33 138.532 212.21 138.398 211.99C138.192 211.657 138.299 211.217 138.631 211.012C145.576 206.731 152.534 202.258 159.309 197.708C159.634 197.488 160.073 197.58 160.293 197.899C160.512 198.225 160.427 198.665 160.102 198.885C153.313 203.442 146.34 207.929 139.375 212.217C139.261 212.288 139.134 212.323 139.006 212.323L138.999 212.33Z" fill="#1E2B62"/>
<path d="M147.807 225.387C147.588 225.387 147.368 225.281 147.234 225.089C147.007 224.77 147.078 224.331 147.397 224.097L165.342 211.247C165.66 211.02 166.099 211.091 166.333 211.41C166.559 211.729 166.488 212.168 166.17 212.402L148.225 225.252C148.098 225.344 147.956 225.387 147.814 225.387H147.807Z" fill="#1E2B62"/>
<path d="M156.225 236.096C155.998 236.096 155.772 235.99 155.637 235.784C155.418 235.458 155.503 235.019 155.829 234.799C161.272 231.113 166.61 227.123 171.685 222.948C171.99 222.7 172.436 222.743 172.683 223.047C172.931 223.352 172.889 223.799 172.584 224.047C167.473 228.25 162.108 232.269 156.621 235.983C156.501 236.068 156.359 236.103 156.225 236.103V236.096Z" fill="#1E2B62"/>
<path d="M56.5596 301.992C51.4486 301.992 46.3235 301.588 41.2338 300.758C40.8445 300.695 40.5826 300.333 40.6463 299.943C40.71 299.56 41.071 299.291 41.4603 299.355C66.5479 303.438 92.676 297.136 113.148 282.054C113.467 281.82 113.906 281.89 114.139 282.202C114.373 282.514 114.302 282.961 113.991 283.195C97.3623 295.442 77.06 301.992 56.5596 301.992Z" fill="#1E2B62"/>
<path d="M45.3249 249.4C45.0771 249.4 44.8435 249.272 44.709 249.046C44.5108 248.705 44.6311 248.273 44.9709 248.075L85.2922 224.741C85.632 224.543 86.0638 224.663 86.262 225.004C86.4603 225.344 86.3399 225.776 86.0001 225.975L45.6788 249.308C45.5655 249.372 45.4452 249.4 45.3249 249.4Z" fill="#1E2B62"/>
<path d="M58.2393 239.045C58.1897 239.045 58.1473 239.045 58.0977 239.031C57.7155 238.953 57.4677 238.577 57.5456 238.195L68.4046 185.178C68.4824 184.795 68.8505 184.547 69.2399 184.625C69.6221 184.703 69.8699 185.078 69.792 185.461L58.9401 238.478C58.8693 238.811 58.5791 239.045 58.2464 239.045H58.2393Z" fill="#1E2B62"/>
</g>
</g>
<defs>
<clipPath id="clip0_3214_4563">
<rect width="279" height="497" fill="white"/>
</clipPath>
</defs>
</svg>
