<svg width="498" height="456" viewBox="0 0 498 456" fill="none" xmlns="http://www.w3.org/2000/svg">
<path d="M462.568 455.4H34.3454C20.5843 455.4 9.59437 443.934 10.1785 430.187L20.7799 180.101C21.2662 168.6 30.7319 159.528 42.2435 159.528H473.061C486.822 159.528 497.812 170.994 497.228 184.741L486.735 432.235C486.186 445.184 475.528 455.4 462.568 455.4Z" fill="#1E2B62"/>
<path d="M462.573 456H34.3527C27.5306 456 21.1757 453.288 16.4564 448.363C11.7372 443.44 9.29738 436.973 9.58537 430.159L20.1867 180.073C20.6894 168.214 30.3806 158.925 42.2508 158.925H473.068C479.89 158.925 486.245 161.636 490.965 166.562C495.684 171.485 498.124 177.951 497.836 184.765L487.343 432.259C486.778 445.572 475.899 456 462.576 456H462.573ZM42.248 160.126C31.0245 160.126 21.8604 168.909 21.3849 180.122L10.7835 430.208C10.5091 436.693 12.8294 442.844 17.3204 447.531C21.8115 452.218 27.8593 454.796 34.35 454.796H462.573C475.253 454.796 485.604 444.874 486.142 432.208L496.635 184.714C496.909 178.228 494.589 172.077 490.098 167.391C485.607 162.704 479.559 160.126 473.068 160.126H42.248Z" fill="#1E2B62"/>
<path d="M453.014 455.4H24.7907C11.0296 455.4 0.0396814 443.934 0.623817 430.187L11.2252 180.101C11.7115 168.6 21.1772 159.528 32.6888 159.528H463.506C477.267 159.528 488.257 170.994 487.673 184.741L477.181 432.235C476.632 445.184 465.973 455.4 453.014 455.4Z" fill="#F0F9FD"/>
<path d="M453.013 456H24.7902C17.9708 456 11.6132 453.288 6.89394 448.363C2.17466 443.44 -0.265122 436.973 0.0228705 430.159L10.6243 180.073C11.1269 168.214 20.8181 158.925 32.6883 158.925H463.503C470.325 158.925 476.68 161.636 481.399 166.562C486.119 171.485 488.558 177.951 488.27 184.765L477.778 432.259C477.213 445.572 466.334 456 453.01 456H453.013ZM32.6883 160.126C21.4647 160.126 12.3006 168.909 11.8251 180.122L1.22375 430.208C0.94934 436.693 3.26957 442.844 7.76334 447.531C12.2544 452.218 18.3022 454.796 24.7929 454.796H453.016C465.696 454.796 476.047 444.874 476.585 432.208L487.078 184.714C487.352 178.228 485.032 172.077 480.541 167.391C476.05 162.704 470.002 160.126 463.511 160.126H32.6883Z" fill="#1E2B62"/>
<path d="M176.311 427.584H37.0944C33.1576 427.584 29.957 424.384 29.957 420.447C29.957 416.51 33.1576 413.31 37.0944 413.31H176.311C180.248 413.31 183.449 416.51 183.449 420.447C183.449 424.384 180.248 427.584 176.311 427.584ZM37.0944 414.51C33.8205 414.51 31.1579 417.173 31.1579 420.447C31.1579 423.721 33.8205 426.383 37.0944 426.383H176.311C179.585 426.383 182.248 423.721 182.248 420.447C182.248 417.173 179.585 414.51 176.311 414.51H37.0944Z" fill="#1E2B62"/>
<path d="M118.03 361.816H49.5696C44.6846 361.816 40.707 357.841 40.707 352.954V347.332C40.707 342.447 44.6819 338.47 49.5696 338.47H118.03C122.915 338.47 126.893 342.445 126.893 347.332V352.954C126.893 357.839 122.918 361.816 118.03 361.816ZM49.5669 339.673C45.3421 339.673 41.9079 343.11 41.9079 347.332V352.954C41.9079 357.178 45.3448 360.613 49.5669 360.613H118.028C122.252 360.613 125.687 357.176 125.687 352.954V347.332C125.687 343.107 122.25 339.673 118.028 339.673H49.5669Z" fill="#1E2B62"/>
<path d="M225.968 361.816H157.507C152.622 361.816 148.645 357.841 148.645 352.954V347.332C148.645 342.447 152.619 338.47 157.507 338.47H225.968C230.853 338.47 234.83 342.445 234.83 347.332V352.954C234.83 357.839 230.855 361.816 225.968 361.816ZM157.504 339.673C153.28 339.673 149.845 343.11 149.845 347.332V352.954C149.845 357.178 153.282 360.613 157.504 360.613H225.965C230.19 360.613 233.624 357.176 233.624 352.954V347.332C233.624 343.107 230.187 339.673 225.965 339.673H157.504Z" fill="#1E2B62"/>
<path d="M333.909 361.816H265.448C260.563 361.816 256.586 357.841 256.586 352.954V347.332C256.586 342.447 260.561 338.47 265.448 338.47H333.909C338.794 338.47 342.772 342.445 342.772 347.332V352.954C342.772 357.839 338.797 361.816 333.909 361.816ZM265.448 339.673C261.224 339.673 257.79 343.11 257.79 347.332V352.954C257.79 357.178 261.226 360.613 265.448 360.613H333.909C338.134 360.613 341.568 357.176 341.568 352.954V347.332C341.568 343.107 338.131 339.673 333.909 339.673H265.448Z" fill="#1E2B62"/>
<path d="M441.843 361.816H373.382C368.497 361.816 364.52 357.841 364.52 352.954V347.332C364.52 342.447 368.494 338.47 373.382 338.47H441.843C446.728 338.47 450.705 342.445 450.705 347.332V352.954C450.705 357.839 446.73 361.816 441.843 361.816ZM373.382 339.673C369.157 339.673 365.72 343.11 365.72 347.332V352.954C365.72 357.178 369.157 360.613 373.382 360.613H441.843C446.068 360.613 449.502 357.176 449.502 352.954V347.332C449.502 343.107 446.065 339.673 441.843 339.673H373.382Z" fill="#1E2B62"/>
<path d="M436.75 216.276H360.945C353.251 216.276 346.988 210.016 346.988 202.319C346.988 194.622 353.248 188.362 360.945 188.362H436.75C444.444 188.362 450.706 194.622 450.706 202.319C450.706 210.016 444.447 216.276 436.75 216.276ZM360.945 189.566C353.911 189.566 348.189 195.288 348.189 202.322C348.189 209.356 353.911 215.078 360.945 215.078H436.75C443.784 215.078 449.505 209.356 449.505 202.322C449.505 195.288 443.784 189.566 436.75 189.566H360.945Z" fill="#00A5F3"/>
<path d="M107.745 238.4H57.9091C51.4764 238.4 46.2617 243.615 46.2617 250.048V289.818C46.2617 296.251 51.4764 301.465 57.9091 301.465H107.745C114.178 301.465 119.393 296.251 119.393 289.818V250.048C119.393 243.615 114.178 238.4 107.745 238.4Z" fill="#FFE02E"/>
<path d="M93.561 284.123H72.2441C68.723 284.123 65.8594 281.259 65.8594 277.738V262.469C65.8594 258.948 68.723 256.084 72.2441 256.084H93.561C97.0821 256.084 99.9457 258.948 99.9457 262.469V277.738C99.9457 281.259 97.0821 284.123 93.561 284.123ZM72.2441 257.285C69.3859 257.285 67.0602 259.611 67.0602 262.469V277.738C67.0602 280.596 69.3859 282.922 72.2441 282.922H93.561C96.4192 282.922 98.7448 280.596 98.7448 277.738V262.469C98.7448 259.611 96.4192 257.285 93.561 257.285H72.2441Z" fill="white"/>
<path d="M65.9692 268.544C65.9692 268.544 65.9529 268.544 65.942 268.544L45.7771 267.678C45.4457 267.664 45.1876 267.384 45.2039 267.053C45.2174 266.721 45.4891 266.46 45.8287 266.479L65.9936 267.346C66.3251 267.36 66.5832 267.64 66.5669 267.971C66.5533 268.294 66.2871 268.547 65.9665 268.547L65.9692 268.544Z" fill="white"/>
<path d="M65.9691 276.771C65.9691 276.771 65.961 276.771 65.9555 276.771L45.6222 276.339C45.2907 276.331 45.0272 276.057 45.0353 275.725C45.0435 275.394 45.3315 275.125 45.6494 275.138L65.9827 275.57C66.3142 275.578 66.5777 275.853 66.5696 276.184C66.5614 276.51 66.2951 276.771 65.9691 276.771Z" fill="white"/>
<path d="M99.3467 268.544C99.0207 268.544 98.7544 268.283 98.7463 267.957C98.7381 267.626 99.0017 267.351 99.3331 267.343L119.666 266.911C120.003 266.903 120.272 267.167 120.28 267.498C120.289 267.83 120.025 268.104 119.694 268.112L99.3603 268.544C99.3603 268.544 99.3522 268.544 99.3467 268.544Z" fill="white"/>
<path d="M119.729 276.771C119.729 276.771 119.721 276.771 119.715 276.771L99.3331 276.339C99.0017 276.33 98.7381 276.056 98.7463 275.725C98.7544 275.399 99.0207 275.138 99.3467 275.138C99.3522 275.138 99.3549 275.138 99.3603 275.138L119.743 275.57C120.074 275.578 120.338 275.852 120.329 276.184C120.321 276.51 120.055 276.771 119.729 276.771Z" fill="white"/>
<path d="M76.9308 256.418C76.6048 256.418 76.3358 256.157 76.3304 255.829L75.9962 237.979C75.9907 237.647 76.2543 237.373 76.5857 237.367C76.9145 237.362 77.1916 237.625 77.197 237.957L77.5312 255.807C77.5367 256.138 77.2731 256.413 76.9417 256.418C76.9389 256.418 76.9335 256.418 76.9308 256.418Z" fill="white"/>
<path d="M86.685 255.986C86.685 255.986 86.6578 255.986 86.6469 255.986C86.3155 255.965 86.0655 255.679 86.0873 255.348L87.1876 238.362C87.2093 238.03 87.5 237.78 87.8261 237.802C88.1575 237.824 88.4075 238.109 88.3857 238.441L87.2854 255.427C87.2637 255.745 87.0001 255.989 86.6877 255.989L86.685 255.986Z" fill="white"/>
<path d="M75.3962 302.22C75.3827 302.22 75.3664 302.22 75.3528 302.22C75.0213 302.196 74.7741 301.908 74.7985 301.576L76.1162 283.487C76.1407 283.155 76.426 282.906 76.7601 282.933C77.0916 282.957 77.3388 283.245 77.3144 283.577L75.9967 301.666C75.9722 301.981 75.7087 302.223 75.399 302.223L75.3962 302.22Z" fill="white"/>
<path d="M87.0713 302.22C86.7561 302.22 86.4926 301.976 86.4736 301.658L85.3216 283.568C85.2999 283.237 85.5526 282.952 85.884 282.93C86.2073 282.908 86.5007 283.161 86.5225 283.492L87.6745 301.582C87.6962 301.913 87.4435 302.198 87.112 302.22C87.0985 302.22 87.0849 302.22 87.074 302.22H87.0713Z" fill="white"/>
<path d="M303.647 184.76C303.492 184.76 303.335 184.701 303.218 184.581C302.987 184.345 302.99 183.964 303.226 183.731L345.295 142.493C345.531 142.263 345.912 142.265 346.145 142.502C346.376 142.738 346.373 143.118 346.137 143.352L304.068 184.589C303.952 184.703 303.799 184.76 303.647 184.76Z" fill="#1E2B62"/>
<path d="M298.675 177.845C298.566 177.845 298.455 177.816 298.354 177.753C298.074 177.576 297.99 177.207 298.167 176.924L312.835 153.619C313.012 153.339 313.381 153.255 313.664 153.431C313.944 153.608 314.028 153.977 313.851 154.26L299.183 177.566C299.069 177.748 298.873 177.845 298.675 177.845Z" fill="#1E2B62"/>
<path d="M378.25 5.47406C379.277 6.03918 380.196 6.63418 380.981 7.2482C385.401 10.7014 389.004 15.0729 393.066 18.9391C401.197 26.6768 407.335 25.6987 417.442 27.6522C422.517 28.633 427.804 31.214 429.717 36.0148C431.129 39.5631 430.415 43.6086 431.339 47.3144C433.072 54.2643 446.355 58.8504 444.076 66.7594C443.203 69.7806 439.913 71.6254 439.041 74.6438C438.389 76.9016 439.231 79.3468 438.835 81.6643C438.014 86.4597 432.55 88.7636 427.804 89.8341C422.001 91.1409 415.456 91.7468 410.522 88.424C408.009 86.7314 406.191 84.1829 403.781 82.3463C396.964 77.1488 386.488 78.328 380.391 72.2991C375.376 67.3408 372.947 58.864 368.931 53.0254C363.196 44.6818 357.876 38.403 348.209 34.7216C339.35 31.3472 332.514 28.9699 331.737 17.5969C330.215 -4.67631 364.304 -2.20664 378.253 5.47406H378.25Z" fill="#1E2B62"/>
<path d="M372.312 157.504C372.312 157.504 388.084 163.378 394.268 158.43C400.452 153.483 384.683 145.134 380.971 145.753C377.26 146.373 372.312 157.504 372.312 157.504Z" fill="#1E2B62"/>
<path d="M293.059 283.582L307.901 309.555L315.943 298.424L302.954 273.067L293.059 283.582Z" fill="#8C5745"/>
<path d="M307.9 310.156C307.9 310.156 307.879 310.156 307.868 310.156C307.664 310.145 307.479 310.031 307.379 309.855L292.536 283.878C292.406 283.65 292.438 283.362 292.62 283.169L302.515 272.655C302.649 272.513 302.844 272.443 303.037 272.473C303.23 272.5 303.398 272.619 303.488 272.793L316.475 298.15C316.578 298.351 316.559 298.593 316.426 298.775L308.387 309.906C308.273 310.064 308.093 310.156 307.9 310.156ZM293.8 283.669L307.96 308.45L315.239 298.37L302.806 274.097L293.8 283.666V283.669Z" fill="#1E2B62"/>
<path d="M302.758 305.595C306.673 313.664 316.579 333.234 326.126 342.615C328.454 344.903 332.389 343.84 333.223 340.683C336.209 329.384 338.2 305.844 327.069 287.291C327.069 287.291 321.776 286.671 311.881 288.527L314.082 297.805L312.868 296.936C311.039 295.629 308.556 295.74 306.85 297.202L304 299.647C302.282 301.12 301.774 303.56 302.761 305.595H302.758Z" fill="#1E2B62"/>
<path d="M327.692 339.844C327.621 339.844 327.55 339.83 327.48 339.806C327.17 339.689 327.012 339.341 327.132 339.032C335.606 316.639 324.168 290.274 324.051 290.01C323.918 289.706 324.054 289.353 324.358 289.217C324.66 289.084 325.016 289.22 325.151 289.524C325.271 289.793 336.902 316.606 328.257 339.455C328.167 339.694 327.939 339.844 327.694 339.844H327.692Z" fill="white"/>
<path d="M308.519 317.446C308.324 317.446 308.131 317.348 308.014 317.172C307.835 316.894 307.914 316.522 308.191 316.34L315.613 311.526C315.89 311.346 316.263 311.425 316.445 311.702C316.624 311.98 316.545 312.352 316.268 312.534L308.845 317.348C308.745 317.413 308.631 317.446 308.519 317.446Z" fill="white"/>
<path d="M312.231 324.037C312.051 324.037 311.872 323.955 311.753 323.803C311.552 323.54 311.6 323.162 311.864 322.961L318.667 317.739C318.931 317.538 319.308 317.587 319.509 317.85C319.71 318.114 319.662 318.492 319.398 318.693L312.595 323.914C312.486 323.999 312.358 324.039 312.231 324.039V324.037Z" fill="white"/>
<path d="M246.056 284.199C246.056 284.819 232.449 314.504 232.449 314.504L247.911 315.74L258.426 290.383L246.056 284.199Z" fill="#8C5745"/>
<path d="M247.911 316.342C247.895 316.342 247.878 316.342 247.862 316.342L232.4 315.106C232.205 315.09 232.028 314.981 231.93 314.813C231.83 314.644 231.821 314.438 231.903 314.258C237.182 302.739 245.121 285.272 245.463 284.109C245.49 283.938 245.591 283.786 245.74 283.693C245.917 283.584 246.14 283.574 246.324 283.666L258.694 289.85C258.977 289.991 259.102 290.325 258.98 290.616L248.465 315.973C248.373 316.198 248.153 316.342 247.911 316.342ZM233.354 313.973L247.525 315.106L257.657 290.67L246.371 285.027C245.254 287.823 240.891 297.528 233.354 313.973Z" fill="#1E2B62"/>
<path d="M246.674 308.32C246.674 308.32 243.582 300.897 235.543 304.609C235.543 304.609 220.784 325.925 215.299 343.528C213.747 348.506 218.858 352.991 223.613 350.848C234.733 345.827 252.167 335.285 262.138 315.74C262.138 315.74 259.046 307.7 254.099 303.989L246.676 308.317L246.674 308.32Z" fill="#1E2B62"/>
<path d="M219.846 346.082C219.219 346.082 218.847 346.033 218.754 346.02C218.425 345.971 218.2 345.667 218.249 345.338C218.298 345.009 218.599 344.784 218.928 344.832C219.091 344.854 235.596 346.802 257.937 316.006C258.133 315.737 258.508 315.677 258.777 315.873C259.046 316.069 259.106 316.443 258.91 316.712C239.098 344.02 223.96 346.082 219.846 346.082Z" fill="white"/>
<path d="M232.448 329.33C232.345 329.33 232.242 329.303 232.146 329.248L224.724 324.92C224.439 324.752 224.341 324.385 224.506 324.1C224.672 323.815 225.042 323.717 225.327 323.882L232.75 328.211C233.035 328.379 233.133 328.746 232.967 329.031C232.856 329.221 232.654 329.33 232.448 329.33Z" fill="white"/>
<path d="M236.16 323.763C236.065 323.763 235.967 323.738 235.875 323.69L227.836 319.362C227.545 319.204 227.434 318.84 227.591 318.549C227.749 318.256 228.113 318.147 228.404 318.305L236.443 322.633C236.734 322.79 236.845 323.154 236.687 323.445C236.579 323.646 236.372 323.76 236.158 323.76L236.16 323.763Z" fill="white"/>
<path d="M325.218 134.533C325.218 134.533 284.907 141.73 255.858 172.189C248.525 179.878 245.936 190.944 249.08 201.092C255.532 221.912 269.581 259.932 293.055 288.527L310.99 273.065C310.99 273.065 306.662 237.194 294.911 214.929C283.16 192.664 351.809 144.425 351.809 144.425L325.215 134.53L325.218 134.533Z" fill="white"/>
<path d="M293.057 289.13C293.041 289.13 293.022 289.13 293.006 289.13C292.845 289.117 292.696 289.038 292.593 288.913C268.937 260.097 254.817 221.634 248.508 201.273C245.299 190.919 247.948 179.617 255.425 171.779C284.276 141.526 324.709 134.016 325.114 133.946C325.22 133.927 325.329 133.938 325.429 133.973L352.022 143.868C352.232 143.947 352.381 144.134 352.408 144.354C352.435 144.574 352.34 144.794 352.158 144.922C351.476 145.4 284.075 193.109 295.445 214.654C307.112 236.762 311.546 272.639 311.589 272.997C311.614 273.195 311.538 273.394 311.386 273.524L293.451 288.986C293.343 289.081 293.201 289.133 293.06 289.133L293.057 289.13ZM325.166 135.155C322.373 135.695 283.953 143.604 256.295 172.605C249.119 180.128 246.576 190.976 249.657 200.915C255.909 221.08 269.844 259.068 293.136 287.671L310.361 272.823C309.897 269.226 305.368 236.02 294.386 215.214C283.138 193.903 342.013 150.701 350.542 144.596L325.168 135.155H325.166Z" fill="#1E2B62"/>
<path d="M241.105 289.766L262.134 295.95C262.134 295.95 300.478 214.932 311.612 203.181C322.743 191.43 344.391 172.257 367.273 165.454C390.155 158.651 390.155 141.333 390.155 141.333L351.192 130.202C351.192 130.202 296.767 153.703 278.832 180.297C260.898 206.89 241.105 289.763 241.105 289.763V289.766Z" fill="white"/>
<path d="M262.134 296.553C262.077 296.553 262.02 296.545 261.966 296.529L240.94 290.345C240.633 290.255 240.451 289.94 240.524 289.63C240.722 288.802 260.545 206.346 278.335 179.968C296.164 153.535 350.409 129.892 350.956 129.656C351.083 129.602 351.224 129.591 351.358 129.629L390.321 140.76C390.579 140.833 390.756 141.07 390.756 141.339C390.756 141.515 390.489 159.183 367.444 166.036C341.857 173.643 318.573 196.709 312.047 203.6C301.106 215.146 263.061 295.404 262.678 296.214C262.577 296.428 262.363 296.559 262.134 296.559V296.553ZM241.823 289.351L261.808 295.23C265.251 287.976 300.418 214.119 311.172 202.768C317.749 195.824 341.224 172.572 367.097 164.881C387.215 158.901 389.31 144.504 389.525 141.782L351.23 130.841C347.633 132.425 296.419 155.29 279.324 180.633C262.42 205.7 243.589 282.064 241.817 289.351H241.823Z" fill="#1E2B62"/>
<path d="M421.697 77.6349C411.183 56.606 393.865 53.5142 393.865 53.5142L364.18 51.0391C354.897 50.4115 345.029 56.1441 341.364 64.697L314.086 128.346C314.086 128.346 319.653 143.188 344.39 145.664C369.128 148.139 386.136 146.59 394.178 156.488C399.478 163.011 399.31 119.502 396.262 85.0901L421.7 77.6349H421.697Z" fill="#00A5F3"/>
<path d="M395.18 157.746C394.769 157.746 394.261 157.542 393.71 156.868C387.64 149.399 375.976 148.601 359.835 147.5C355.176 147.182 349.897 146.821 344.33 146.264C319.506 143.781 313.757 129.18 313.523 128.561C313.469 128.417 313.471 128.256 313.534 128.112L340.812 64.4633C344.517 55.8181 354.581 49.7893 364.22 50.4441L393.916 52.9192C394.147 52.9572 411.707 56.3153 422.235 77.3687C422.313 77.529 422.319 77.7137 422.248 77.8767C422.178 78.0397 422.036 78.162 421.868 78.2136L396.902 85.5303C398.263 101.079 399.043 118.514 398.989 132.267C398.894 156.341 396.467 157.327 395.669 157.651C395.527 157.708 395.364 157.748 395.18 157.748V157.746ZM314.74 128.349C315.55 130.153 322.027 142.824 344.452 145.066C350 145.62 355.271 145.981 359.92 146.299C376.365 147.421 388.246 148.234 394.644 156.11C394.921 156.452 395.131 156.572 395.218 156.537C395.47 156.433 397.701 154.879 397.788 132.261C397.842 118.397 397.046 100.783 395.663 85.1445C395.639 84.8592 395.818 84.5957 396.092 84.5141L420.835 77.2627C410.546 57.3152 393.93 54.1364 393.761 54.1065L364.131 51.6396C354.98 51.0201 345.43 56.7365 341.915 64.9361L314.737 128.351L314.74 128.349Z" fill="#1E2B62"/>
<path d="M342.535 133.297L356.141 127.113L366.656 131.441C366.656 131.441 423.059 124.296 397.838 83.9413C397.729 83.7674 417.658 79.7383 417.658 79.7383C417.658 79.7383 440.645 134.536 367.892 135.772C367.892 135.772 364.181 137.008 359.233 134.536C354.286 132.061 345.627 137.011 342.535 133.299V133.297Z" fill="#8C5745"/>
<path d="M365.414 136.685C363.792 136.685 361.54 136.359 358.964 135.071C356.823 134 353.81 134.449 350.9 134.881C347.319 135.413 343.937 135.916 342.073 133.68C341.954 133.536 341.907 133.343 341.948 133.161C341.989 132.979 342.114 132.827 342.285 132.748L355.891 126.564C356.043 126.496 356.215 126.493 356.369 126.556L366.734 130.824C368.976 130.506 394.67 126.529 401.851 111.396C405.412 103.889 403.891 94.7572 397.33 84.2591C397.226 84.0934 397.21 83.8814 397.286 83.6994C397.452 83.3136 397.501 83.1968 417.538 79.1459C417.818 79.0888 418.1 79.2382 418.212 79.5018C418.301 79.7164 427.055 101.066 416.362 117.449C408.444 129.577 392.17 135.94 367.99 136.367C367.696 136.451 366.778 136.682 365.417 136.682L365.414 136.685ZM355.565 133.204C356.981 133.204 358.323 133.405 359.502 133.995C364.143 136.315 367.669 135.209 367.704 135.198C367.761 135.179 367.821 135.169 367.881 135.169C391.681 134.764 407.654 128.585 415.348 116.802C424.844 102.264 418.464 83.569 417.28 80.4255C410.667 81.765 401.378 83.6804 398.764 84.2998C405.203 94.8876 406.605 104.174 402.932 111.912C395.175 128.254 367.886 131.889 366.729 132.036C366.626 132.05 366.52 132.036 366.425 131.995L356.152 127.765L343.616 133.462C345.206 134.511 347.895 134.112 350.724 133.691C352.348 133.449 354 133.201 355.565 133.201V133.204Z" fill="#1E2B62"/>
<path d="M395.134 87.8451L422.759 80.0367L421.694 77.635C421.694 77.635 418.554 75.2333 417.953 75.2333C417.353 75.2333 401.739 74.6328 401.739 74.6328L392.129 77.635L395.131 87.8451H395.134Z" fill="#00A5F3"/>
<path d="M395.133 88.4457C394.873 88.4457 394.634 88.2746 394.557 88.0137L391.555 77.8036C391.463 77.4857 391.645 77.1516 391.963 77.0592C392.281 76.9641 392.615 77.1488 392.707 77.4667L395.544 87.1063L421.933 79.6484L421.151 77.8797C421.015 77.5754 421.151 77.2222 421.455 77.0863C421.759 76.9532 422.112 77.0864 422.248 77.3934L423.313 79.7951C423.384 79.9554 423.381 80.1374 423.308 80.295C423.234 80.4526 423.096 80.5694 422.927 80.6183L395.302 88.4267C395.248 88.443 395.193 88.4485 395.139 88.4485L395.133 88.4457Z" fill="#1E2B62"/>
<path d="M290.44 137.355H344.083L304.316 76.1951C303.074 74.2851 300.909 73.125 298.58 73.125H255.044C252.279 73.125 250.6 76.0837 252.075 78.355L290.438 137.355H290.44Z" fill="#1E2B62"/>
<path d="M279.75 94.57C281.494 97.2515 285.241 99.4251 288.123 99.4251C291.006 99.4251 291.927 97.2515 290.183 94.57C288.438 91.8884 284.692 89.7148 281.809 89.7148C278.927 89.7148 278.005 91.8884 279.75 94.57Z" fill="white"/>
<path d="M288.12 100.026C285.012 100.026 281.113 97.7732 279.244 94.8988C278.228 93.3365 277.994 91.7961 278.6 90.6767C279.146 89.6714 280.285 89.1172 281.809 89.1172C284.917 89.1172 288.816 91.3695 290.685 94.244C291.701 95.8062 291.935 97.3467 291.329 98.4661C290.783 99.4713 289.644 100.028 288.12 100.028V100.026ZM280.252 94.244C281.896 96.7707 285.425 98.8247 288.12 98.8247C289.183 98.8247 289.946 98.4932 290.272 97.8928C290.663 97.1728 290.446 96.0806 289.677 94.8988C288.036 92.372 284.504 90.3181 281.809 90.3181C280.747 90.3181 279.983 90.6495 279.657 91.25C279.266 91.9699 279.483 93.0621 280.252 94.244Z" fill="#1E2B62"/>
<path d="M377.553 141.955H293.402C291.666 141.955 290.253 140.545 290.253 138.806V136.959H380.699V138.806C380.699 140.542 379.289 141.955 377.55 141.955H377.553Z" fill="#1E2B62"/>
<path d="M374.076 49.1863C373.524 48.9119 366.083 40.1308 361.73 34.9605C362.059 33.526 362.01 33.0668 361.893 30.8906C361.893 30.8906 364.148 28.6301 363.243 25.6959C362.192 22.2834 358.953 25.0221 358.953 25.0221C358.953 25.0221 357.454 22.4003 351.813 26.9212C346.173 31.4421 340.215 25.9431 340.215 25.9431C340.215 25.9431 340.218 29.3311 343.195 33.4445C344.839 35.7158 345.116 38.7153 345.195 41.5164L348.355 41.0627C350.096 43.1221 351.387 44.1328 353.778 45.1218C353.778 45.1218 355.666 44.7767 357.628 43.152L361.092 51.0392L357.56 52.8949C357.56 52.8949 356.761 57.8423 366.039 59.0785C375.317 60.3147 382.737 52.8949 382.737 52.8949C382.737 52.8949 377.79 51.0392 374.078 49.1835L374.076 49.1863Z" fill="#8C5745"/>
<path d="M368.171 59.8228C367.448 59.8228 366.709 59.7766 365.959 59.676C362.052 59.1544 359.354 57.9263 357.942 56.0272C356.727 54.3944 356.958 52.8647 356.966 52.8023C356.996 52.6148 357.113 52.4545 357.279 52.3676L360.313 50.7727L357.385 44.1C355.567 45.396 353.961 45.703 353.885 45.7166C353.771 45.7383 353.654 45.7247 353.548 45.6812C351.223 44.7194 349.864 43.7332 348.114 41.7091L345.281 42.1167C345.112 42.1411 344.938 42.0922 344.808 41.9808C344.678 41.8694 344.599 41.7091 344.593 41.5379C344.517 38.764 344.235 35.9085 342.708 33.8002C339.651 29.5781 339.613 26.0923 339.613 25.9483C339.613 25.7092 339.755 25.4946 339.972 25.3995C340.189 25.3044 340.445 25.3452 340.621 25.5082C340.849 25.7174 346.275 30.597 351.437 26.4591C354.084 24.3372 356.252 23.4216 357.884 23.7313C358.398 23.8291 358.767 24.0329 359.02 24.234C359.669 23.7965 360.889 23.1472 362.044 23.4841C362.878 23.7286 363.476 24.416 363.818 25.5272C364.666 28.274 363.077 30.4502 362.509 31.1159L362.514 31.2083C362.612 32.9607 362.644 33.5747 362.384 34.8082C372.499 46.8169 374.123 48.4661 374.382 48.6726C378.019 50.4875 382.899 52.3241 382.948 52.3404C383.138 52.411 383.282 52.5768 383.323 52.7751C383.366 52.9734 383.304 53.1826 383.16 53.3266C382.872 53.6146 376.552 59.8282 368.171 59.8282V59.8228ZM358.143 53.2696C358.153 53.6744 358.273 54.4759 358.93 55.3453C360.134 56.9347 362.62 58.0214 366.117 58.486C373.395 59.456 379.579 54.8399 381.609 53.1066C379.992 52.4762 376.55 51.0933 373.808 49.724C373.586 49.6126 373.064 49.3518 361.27 35.3461C361.147 35.2021 361.101 35.0092 361.145 34.8245C361.438 33.5502 361.414 33.1128 361.311 31.2653L361.291 30.923C361.283 30.7518 361.346 30.5861 361.465 30.4666C361.544 30.385 363.451 28.4153 362.666 25.875C362.449 25.174 362.126 24.7556 361.702 24.6306C360.876 24.3888 359.691 25.1849 359.338 25.4837C359.202 25.5979 359.023 25.6468 358.846 25.6169C358.67 25.587 358.518 25.4783 358.431 25.3234C358.431 25.3234 358.208 24.9947 357.605 24.8969C356.887 24.7828 355.233 24.9539 352.19 27.3937C347.759 30.9447 343.126 28.7087 341.002 27.2905C341.279 28.5973 341.969 30.7247 343.683 33.0938C345.27 35.2863 345.658 38.0766 345.772 40.8288L348.269 40.4702C348.473 40.4403 348.68 40.5191 348.813 40.6767C350.503 42.6763 351.698 43.5919 353.831 44.4939C354.306 44.3717 355.76 43.9207 357.243 42.6926C357.39 42.5731 357.583 42.5269 357.765 42.5704C357.95 42.6139 358.102 42.7415 358.175 42.9127L361.639 50.7999C361.767 51.0879 361.647 51.4275 361.368 51.5742L358.14 53.2696H358.143Z" fill="#1E2B62"/>
<path d="M357.623 43.7525C357.46 43.7525 357.295 43.6846 357.178 43.5541C356.955 43.3069 356.977 42.9293 357.221 42.7065L358.243 41.7881C358.487 41.5654 358.87 41.5871 359.091 41.8316C359.313 42.0789 359.292 42.4565 359.047 42.6793L358.025 43.5976C357.911 43.7008 357.767 43.7525 357.623 43.7525Z" fill="#1E2B62"/>
</svg>
