<svg width="414" height="325" viewBox="0 0 414 325" fill="none" xmlns="http://www.w3.org/2000/svg">
<g clip-path="url(#clip0_3214_4961)">
<path d="M221.641 98.023C221.457 92.8015 220.036 87.6027 217.132 83.2261C214.235 78.8621 209.86 75.8617 206.371 72.0265C204.488 69.9571 202.931 67.6069 202.188 64.8848C201.366 61.8743 201.531 58.712 201.943 55.6509C202.746 49.7083 205.921 36.1282 200.022 26.1353C194.842 17.3619 184.405 12.6538 174.479 13.2357C168.849 13.5671 163.389 15.4063 158.523 18.2169C153.594 21.0655 149.492 24.8881 145.728 29.1231C141.946 33.3757 138.246 37.9673 133.142 40.6996C128.474 43.199 123.105 43.8593 117.91 44.3628C112.774 44.8586 107.491 45.1647 102.602 46.9634C98.2973 48.5471 94.7281 51.3502 92.2206 55.1955C87.3142 62.7243 86.5913 72.0973 83.5454 80.3825C82.0034 84.5795 79.7815 88.5944 76.2629 91.448C72.0466 94.8683 66.6372 96.0902 61.3745 96.7809C55.9954 97.4867 50.5254 97.679 45.2373 98.9743C40.5281 100.128 36.1349 102.331 32.3306 105.334C24.7271 111.345 19.4694 120.415 18.3067 130.068C17.0453 140.56 21.115 150.904 27.8085 158.868C35.2906 167.773 45.6746 173.47 56.7032 176.772C67.8935 180.121 79.7588 181.378 91.4067 181.459C102.476 181.535 113.55 180.392 124.381 178.105C135.218 175.815 145.819 172.387 155.948 167.9C166.069 163.417 175.727 157.871 184.676 151.349C193.715 144.764 202.281 137.17 209.412 128.528C216.525 119.911 222.043 109.473 221.639 98.0129L221.641 98.023Z" fill="#1E2B62"/>
<path d="M265.459 324.443L205.286 215.693L113.235 225.798C113.235 225.798 94.5427 269.642 91.5625 324.443H265.462H265.459Z" fill="#1E2B62"/>
<path d="M265.189 324.509C264.994 324.509 264.802 324.405 264.701 324.223L204.981 216.288L113.623 226.316C111.992 230.267 95.0412 272.465 92.1419 323.952C92.1242 324.258 91.8588 324.501 91.5554 324.476C91.2496 324.458 91.0145 324.195 91.0322 323.889C94.0731 269.862 112.538 226.017 112.725 225.58C112.804 225.395 112.976 225.266 113.178 225.246L205.228 215.142C205.451 215.119 205.668 215.23 205.777 215.425L265.677 323.684C265.826 323.952 265.728 324.291 265.46 324.44C265.374 324.489 265.283 324.511 265.192 324.511L265.189 324.509Z" fill="#1E2B62"/>
<path d="M178.753 325C178.73 325 178.707 325 178.684 324.995C178.379 324.957 178.164 324.678 178.199 324.375L179.352 314.994C180.199 308.098 184.721 302.193 191.156 299.582L193.788 298.515C194.073 298.398 194.397 298.538 194.513 298.821C194.63 299.107 194.49 299.431 194.207 299.547L191.576 300.615C185.514 303.074 181.255 308.634 180.459 315.131L179.306 324.511C179.271 324.795 179.031 325 178.755 325H178.753Z" fill="white"/>
<path d="M108.937 175.92C108.937 175.92 76.766 229.701 123.529 235.358C170.293 241.015 211.849 237.341 220.683 224.04C229.518 210.738 240.117 180.886 240.117 180.886C240.117 180.886 278.549 202.64 299.329 199.068C352.202 189.975 314.273 120.954 314.273 120.954L268.425 119.056L278.405 145.015C278.405 145.015 258.592 111.973 228.843 106.291C205.765 101.881 157.373 103.346 136.828 104.227C129.907 104.523 123.082 105.901 116.588 108.32C103.595 113.159 80.8862 122.963 60.5959 138.498C50.9172 145.908 33.1825 138.149 30.5005 150.3C19.434 200.451 29.1254 220.052 47.7019 228.077C59.4205 233.139 73.0881 229.026 80.2871 218.474C87.2688 208.241 97.3772 193.317 108.937 175.92Z" fill="#98E0FF"/>
<path d="M286.839 125.917L256.934 72.3149L276.845 66.2383L304.572 122.487L286.839 125.917Z" fill="#1E2B62"/>
<path d="M261.624 41.5117H280.084V77.1141H261.624C254.855 77.1141 249.359 71.6142 249.359 64.8393V53.7865C249.359 47.0116 254.855 41.5117 261.624 41.5117Z" fill="#1E2B62"/>
<path d="M280.082 77.6705H261.622C254.551 77.6705 248.801 71.9152 248.801 64.8392V53.7864C248.801 46.7104 254.551 40.9551 261.622 40.9551H280.082C280.39 40.9551 280.638 41.203 280.638 41.5116V77.114C280.638 77.4226 280.388 77.6705 280.082 77.6705ZM261.622 42.0682C255.166 42.0682 249.913 47.3252 249.913 53.7864V64.8392C249.913 71.3004 255.166 76.5574 261.622 76.5574H279.526V42.0682H261.622Z" fill="#1E2B62"/>
<path d="M401.19 15.5586C401.19 15.5586 398.29 -0.776544 385.983 0.541498C376.997 1.50536 319.791 21.2077 289.559 31.7748C278.376 35.6834 270.887 46.2429 270.887 58.1002C270.887 72.3483 281.617 84.3043 295.772 85.8272L387.161 95.6556C387.161 95.6556 396.855 94.4463 401.478 79.5709C406.101 64.698 401.19 15.5611 401.19 15.5611V15.5586Z" fill="#FFE02E"/>
<path d="M388.08 95.7289C374.073 95.7289 362.719 74.4227 362.719 48.1428C362.719 21.8629 374.073 0.556641 388.08 0.556641V95.7289Z" fill="white"/>
<path d="M388.082 0.556641C402.088 0.556641 413.443 21.8629 413.443 48.1428C413.443 74.4227 402.088 95.7289 388.082 95.7289V0.556641Z" fill="white"/>
<path d="M388.08 96.2854C387.771 96.2854 387.523 96.0375 387.523 95.7289C387.523 95.4202 387.774 95.1723 388.08 95.1723C401.757 95.1723 412.884 74.076 412.884 48.1427C412.884 22.2094 401.757 1.11313 388.08 1.11313C387.771 1.11313 387.523 0.865203 387.523 0.556563C387.523 0.247924 387.774 0 388.08 0C402.371 0 413.997 21.5972 413.997 48.1427C413.997 74.6883 402.369 96.2854 388.08 96.2854Z" fill="#1E2B62"/>
<path d="M371.563 67.9922C371.273 67.9922 371.028 67.7645 371.01 67.471C370.99 67.1649 371.225 66.8993 371.531 66.8816C378.163 66.4667 384.437 62.1078 387.147 56.0362C389.857 49.9646 388.911 42.3776 384.794 37.1586C381.563 33.0653 376.434 30.4672 371.068 30.2117C370.762 30.1965 370.525 29.9359 370.54 29.6298C370.555 29.3237 370.815 29.0884 371.121 29.1011C376.803 29.3718 382.241 32.1268 385.666 36.4705C390.034 42.0058 391.035 50.0531 388.163 56.4916C385.289 62.9325 378.634 67.5545 371.599 67.9947C371.586 67.9947 371.576 67.9947 371.563 67.9947V67.9922Z" fill="#1E2B62"/>
<path d="M395.797 85.316C395.695 85.316 395.592 85.2882 395.501 85.23C395.24 85.0656 395.165 84.7215 395.329 84.4635C400.652 76.0391 404.148 66.4182 405.442 56.6404C407.189 43.4498 404.96 29.5889 399.169 17.6127C398.334 15.8898 397.495 14.3922 396.6 13.0337C396.431 12.7781 396.502 12.4316 396.76 12.2621C397.015 12.0926 397.361 12.1634 397.531 12.4214C398.453 13.823 399.318 15.3611 400.172 17.1295C406.059 29.3005 408.324 43.3841 406.55 56.7896C405.235 66.7243 401.681 76.4996 396.272 85.0605C396.166 85.2275 395.986 85.3211 395.802 85.3211L395.797 85.316Z" fill="#1E2B62"/>
<path d="M273.941 134.387C273.941 134.387 301.807 139.378 317.474 127.926L314.274 120.954C314.274 120.954 318.412 116.86 314.221 115.36C314.221 115.36 318.119 107.584 311.349 107.123C311.349 107.123 315.854 96.981 305.449 98.9088C305.449 98.9088 311.701 87.4663 300.043 90.234C290.819 92.4223 288.895 95.4277 288.895 95.4277C288.895 95.4277 294.042 82.6799 287.591 83.9979C285.566 84.4128 282.467 85.7511 279.196 87.7902C268.686 94.3399 264.234 107.399 268.428 119.059L273.941 134.39V134.387Z" fill="#D08F79"/>
<path d="M283.021 157.573C282.799 157.573 282.586 157.437 282.503 157.217L267.91 119.256C263.636 107.374 268.262 93.9455 278.903 87.3148C282.061 85.3466 285.266 83.9021 287.48 83.4492C288.858 83.1659 289.899 83.4391 290.582 84.2562C292.197 86.1991 291.059 90.7984 290.165 93.5433C291.767 92.4301 294.714 90.9223 299.917 89.6903C303.42 88.858 305.778 89.1995 306.926 90.7073C308.513 92.7919 307.199 96.45 306.415 98.1981C309.052 97.887 310.912 98.4005 311.956 99.7262C313.589 101.798 312.651 105.191 312.131 106.653C313.647 106.898 314.722 107.561 315.333 108.634C316.547 110.759 315.482 113.833 314.964 115.07C315.872 115.512 316.418 116.14 316.595 116.942C316.961 118.594 315.568 120.367 314.939 121.065L317.565 126.788C317.694 127.066 317.57 127.397 317.292 127.526C317.012 127.653 316.683 127.532 316.554 127.253L313.771 121.189C313.673 120.977 313.721 120.726 313.885 120.562C314.426 120.026 315.773 118.368 315.51 117.182C315.386 116.628 314.891 116.193 314.037 115.887C313.887 115.834 313.766 115.717 313.708 115.57C313.65 115.424 313.655 115.257 313.726 115.113C313.743 115.075 315.591 111.325 314.368 109.185C313.857 108.292 312.828 107.786 311.312 107.682C311.13 107.67 310.968 107.571 310.874 107.414C310.781 107.26 310.768 107.068 310.842 106.901C310.862 106.858 312.747 102.527 311.082 100.417C310.177 99.2683 308.316 98.947 305.551 99.458C305.341 99.4959 305.126 99.4125 305 99.2379C304.874 99.0633 304.858 98.8331 304.962 98.6434C305.728 97.2368 307.419 93.1891 306.041 91.3853C305.195 90.2772 303.167 90.0673 300.172 90.7756C291.375 92.8627 289.378 95.7063 289.361 95.7341C289.201 95.9694 288.888 96.0503 288.635 95.9188C288.382 95.7847 288.271 95.4862 288.377 95.2205C289.275 92.9968 291.264 86.824 289.722 84.9722C289.32 84.489 288.655 84.3473 287.7 84.5421C285.607 84.9696 282.538 86.3611 279.487 88.261C269.288 94.6159 264.854 107.49 268.947 118.869L283.534 156.817C283.645 157.103 283.501 157.427 283.216 157.538C283.15 157.563 283.082 157.576 283.016 157.576L283.021 157.573Z" fill="#1E2B62"/>
<path d="M280.617 114.503L292.048 136.672C293.999 140.459 298.529 142.116 302.462 140.479C306.704 138.713 308.663 133.803 306.802 129.599L306.054 127.909C306.054 127.909 297.609 129.442 300.92 123.78C300.92 123.78 291.358 124.921 296.087 117.443C296.087 117.443 293.739 118.222 291.661 117.276C288.625 115.892 286.166 112.026 292.462 106.595C287.594 108.71 283.021 107.867 283.021 107.867C283.021 107.867 281.795 112.135 280.62 114.5L280.617 114.503Z" fill="#1E2B62"/>
<path d="M288.597 109.276C288.4 109.276 288.208 109.172 288.107 108.985C287.96 108.714 288.059 108.378 288.329 108.231C293.299 105.524 298.276 102.67 303.127 99.751C303.39 99.5917 303.731 99.6777 303.89 99.9408C304.049 100.204 303.963 100.545 303.701 100.705C298.837 103.634 293.845 106.496 288.863 109.21C288.779 109.256 288.686 109.278 288.597 109.278V109.276Z" fill="#1E2B62"/>
<path d="M291.554 120.809C291.354 120.809 291.162 120.701 291.061 120.513C290.917 120.243 291.021 119.904 291.294 119.762C297.871 116.286 304.319 112.4 310.462 108.211C310.717 108.039 311.061 108.102 311.235 108.358C311.407 108.613 311.344 108.96 311.088 109.132C304.911 113.346 298.427 117.255 291.814 120.749C291.731 120.792 291.642 120.812 291.554 120.812V120.809Z" fill="#1E2B62"/>
<path d="M297.413 126.163C297.216 126.163 297.026 126.059 296.925 125.874C296.776 125.606 296.874 125.267 297.145 125.118L311.46 117.22C311.73 117.073 312.066 117.169 312.215 117.44C312.365 117.708 312.266 118.047 311.995 118.196L297.681 126.095C297.595 126.14 297.504 126.163 297.413 126.163Z" fill="#1E2B62"/>
<path d="M283.875 109.053C283.875 109.053 283.855 109.053 283.845 109.053C281.916 108.952 280.592 107.044 280.468 105.334C280.195 101.524 282.94 98.0255 288.627 94.9365C288.898 94.7898 289.234 94.891 289.381 95.1592C289.527 95.4299 289.426 95.7689 289.158 95.9156C283.89 98.7768 281.34 101.919 281.577 105.256C281.666 106.5 282.621 107.877 283.9 107.942C284.206 107.958 284.444 108.221 284.426 108.527C284.411 108.825 284.166 109.056 283.87 109.056L283.875 109.053Z" fill="#1E2B62"/>
<path d="M46.2722 76.573C40.2258 71.7208 34.5814 65.3785 31.4646 68.5307C28.3479 71.6829 36.6617 80.173 36.6617 80.173C27.1447 78.731 21.3334 66.8357 17.5999 68.2676C13.8639 69.6995 16.5762 75.6699 16.5762 75.6699C16.5762 75.6699 12.8781 68.1841 8.46211 70.9442C4.0436 73.7042 10.4439 81.615 10.4439 81.615C10.4439 81.615 4.76654 74.9666 1.07097 80.1502C-2.6246 85.3339 14.8826 95.4557 14.8826 95.4557C11.3766 93.6874 5.65378 92.8601 4.76401 95.524C3.87424 98.1879 10.2922 101.031 16.7683 105.008C23.2444 108.983 33.4514 111.604 33.4514 111.604C32.2457 124.736 30.906 136.221 30.3701 145.868C30.1148 150.475 33.2088 154.616 37.6981 155.661C38.5777 155.866 39.4599 156.048 40.3446 156.212C47.9633 157.621 55.8043 157.616 63.4761 156.65L63.5671 156.637C68.6478 155.995 72.1816 151.261 71.3475 146.204C69.3733 134.241 65.3188 114.951 63.6303 103.015C61.3881 87.1832 52.3262 81.4227 46.2798 76.5705L46.2722 76.573Z" fill="#D08F79"/>
<path d="M30.503 150.857H30.4954C30.187 150.854 29.9418 150.601 29.9444 150.293C30.0708 139.571 30.9656 127.749 32.8386 112.016C30.733 111.447 22.2322 109.016 16.474 105.482C15.0989 104.637 13.7364 103.85 12.4195 103.089C7.17692 100.06 3.39035 97.872 4.23462 95.3447C4.48487 94.5933 5.06372 94.014 5.90799 93.6649C7.17945 93.1412 8.94888 93.1564 10.7335 93.4903C6.70676 90.7733 0.892935 86.2904 0.0966941 82.6146C-0.130803 81.5647 0.0436113 80.6261 0.614883 79.8217C1.61334 78.4201 2.84689 77.6789 4.28012 77.6156C5.55663 77.5499 6.80534 78.0609 7.867 78.7085C6.93426 76.9832 6.11274 74.8556 6.41101 73.067C6.59807 71.9513 7.18703 71.0786 8.16275 70.4663C9.26484 69.7782 10.42 69.5986 11.6005 69.9351C12.9933 70.3323 14.2015 71.3998 15.1242 72.4902C15.0129 71.5415 15.0483 70.5372 15.4022 69.6669C15.7763 68.7562 16.4462 68.1085 17.3966 67.7442C19.3961 66.9777 21.5902 69.1053 24.3656 71.797C27.2397 74.5824 30.7381 77.9698 35.0428 79.2423C32.7198 76.5961 28.3443 70.8888 31.0642 68.1389C33.9231 65.2473 38.1545 68.9029 43.0533 73.1353C44.211 74.1346 45.4091 75.1693 46.6149 76.1382C47.1331 76.5531 47.6715 76.9756 48.2276 77.4107C54.0768 81.9821 62.0872 88.246 64.1676 102.939C64.3066 103.928 65.3455 109.55 66.5462 116.064C68.3308 125.743 70.5527 137.788 70.8029 139.918C70.8383 140.224 70.6209 140.5 70.3151 140.535C70.0117 140.571 69.7337 140.353 69.6983 140.047C69.4531 137.955 67.2337 125.928 65.4542 116.264C64.251 109.739 63.2121 104.106 63.068 103.094C61.0483 88.8456 53.5611 82.9915 47.5451 78.2861C46.9865 77.8484 46.443 77.4234 45.9198 77.006C44.6963 76.0244 43.4931 74.9846 42.3278 73.9777C37.8486 70.1122 33.9812 66.7702 31.8554 68.9206C29.6158 71.1848 34.8482 77.5296 37.0524 79.7812C37.2192 79.9532 37.2597 80.2112 37.151 80.4238C37.0423 80.6363 36.8072 80.7602 36.5721 80.7197C31.1248 79.895 26.9465 75.8473 23.5896 72.5939C21.1933 70.2741 19.1231 68.273 17.7909 68.7815C17.1287 69.0345 16.6838 69.462 16.4285 70.0843C15.5943 72.1158 17.0604 75.3995 17.0756 75.4324C17.202 75.7082 17.0806 76.0345 16.8077 76.166C16.5347 76.2976 16.206 76.1812 16.0721 75.9105C16.0519 75.8701 13.9943 71.7717 11.2921 71.0052C10.4175 70.7573 9.58587 70.8913 8.75171 71.4125C8.049 71.8527 7.6395 72.4523 7.50806 73.2492C6.97976 76.3988 10.832 81.2105 10.8725 81.2586C11.0646 81.4964 11.0292 81.8405 10.7967 82.0378C10.5616 82.2326 10.2153 82.2048 10.0181 81.972C9.99031 81.9391 7.08845 78.5972 4.32815 78.7288C3.24122 78.7768 2.32364 79.346 1.52235 80.4693C1.1356 81.0132 1.02438 81.6381 1.18363 82.3768C2.28825 87.4744 15.0306 94.8944 15.1596 94.9678C15.4199 95.1196 15.5134 95.4484 15.3719 95.7141C15.2278 95.9797 14.8992 96.0834 14.6313 95.9468C12.1793 94.7097 8.30935 93.8774 6.33265 94.692C5.7816 94.9197 5.44036 95.2486 5.29122 95.6964C4.73512 97.361 8.73907 99.6733 12.9781 102.122C14.3027 102.886 15.6702 103.678 17.0579 104.531C23.3874 108.416 33.4857 111.035 33.5869 111.063C33.8573 111.133 34.0343 111.391 34.0014 111.667C32.0955 127.6 31.188 139.516 31.0591 150.305C31.0566 150.611 30.8063 150.857 30.503 150.857Z" fill="#1E2B62"/>
<path d="M20.8479 98.7647C20.7619 98.7647 20.6734 98.7445 20.59 98.7015L15.2565 95.9212C14.9835 95.7795 14.8773 95.443 15.0214 95.1698C15.163 94.8966 15.4991 94.7903 15.7721 94.9345L21.1057 97.7148C21.3787 97.8565 21.4849 98.193 21.3408 98.4662C21.2422 98.6559 21.0476 98.7647 20.8479 98.7647Z" fill="#1E2B62"/>
<path d="M24.8265 90.5001C24.7557 90.5001 24.685 90.4874 24.6142 90.4571C19.7381 88.4458 15.1553 85.7819 10.9921 82.5412C10.7495 82.3515 10.7065 82.0024 10.8936 81.7595C11.0831 81.5166 11.432 81.4711 11.6746 81.6634C15.7595 84.8434 20.2563 87.4567 25.0388 89.4299C25.322 89.5463 25.4585 89.8727 25.3422 90.156C25.2537 90.371 25.0464 90.5001 24.8265 90.5001Z" fill="#1E2B62"/>
<path d="M29.5346 84.2333C29.4789 84.2333 29.4208 84.2257 29.3627 84.2054C24.7521 82.7078 20.4068 80.2083 16.7947 76.9752C16.5647 76.7703 16.547 76.4186 16.7517 76.1884C16.9565 75.9582 17.3078 75.9405 17.5379 76.1454C21.0363 79.2773 25.2424 81.6984 29.7064 83.148C29.9997 83.2441 30.1589 83.5578 30.0629 83.8487C29.987 84.084 29.7696 84.2333 29.5346 84.2333Z" fill="#1E2B62"/>
<path d="M38.7536 95.577C38.4755 95.577 38.2329 95.3671 38.2025 95.0837C38.0155 93.414 38.3163 91.7646 38.607 90.1708C38.7333 89.4751 38.8648 88.7541 38.9507 88.0508C39.1403 86.4924 39.1833 83.6514 37.333 82.131C37.0954 81.9362 37.06 81.5845 37.2546 81.3467C37.4493 81.1089 37.8006 81.076 38.0382 81.2683C40.3006 83.1252 40.2728 86.3988 40.0554 88.1824C39.9669 88.9185 39.8304 89.6547 39.7015 90.3681C39.4133 91.9518 39.1403 93.4495 39.3097 94.9547C39.3451 95.2608 39.1252 95.5366 38.8193 95.572C38.7991 95.572 38.7763 95.5745 38.7561 95.5745L38.7536 95.577Z" fill="#1E2B62"/>
<path d="M38.9054 114.999C38.7765 114.999 38.6475 114.956 38.5439 114.864C37.3306 113.82 35.9605 112.987 34.4717 112.393C34.1861 112.279 34.047 111.955 34.1608 111.669C34.2745 111.383 34.5981 111.244 34.8837 111.358C36.4863 111.998 37.9625 112.894 39.2694 114.019C39.5019 114.219 39.5297 114.571 39.3275 114.804C39.2163 114.933 39.0621 114.999 38.9054 114.999Z" fill="#1E2B62"/>
<path d="M158.556 195.743C155.621 195.743 152.689 195.325 149.873 194.473C141.534 191.951 134.444 185.687 130.907 177.718C130.783 177.437 130.907 177.108 131.19 176.982C131.471 176.858 131.8 176.982 131.923 177.265C135.331 184.94 142.161 190.974 150.194 193.405C158.227 195.836 167.254 194.599 174.339 190.099C174.599 189.932 174.943 190.01 175.108 190.271C175.272 190.531 175.196 190.875 174.936 191.04C170.065 194.136 164.309 195.743 158.556 195.743Z" fill="#1E2B62"/>
<path d="M210.248 191.566C207.855 191.566 205.461 191.286 203.13 190.714C202.832 190.641 202.65 190.339 202.723 190.041C202.797 189.742 203.1 189.558 203.396 189.634C211.545 191.637 220.493 189.927 227.333 185.06C234.174 180.19 238.723 172.292 239.505 163.928C239.532 163.622 239.8 163.394 240.111 163.425C240.417 163.452 240.642 163.726 240.614 164.032C239.803 172.712 235.078 180.913 227.981 185.965C222.837 189.626 216.542 191.566 210.248 191.566Z" fill="#1E2B62"/>
<path d="M75.414 186.896C75.1233 186.896 74.8782 186.669 74.8605 186.373L72.8838 153.834C72.8661 153.528 73.0986 153.262 73.4045 153.244C73.7103 153.234 73.9758 153.46 73.9934 153.766L75.9701 186.304C75.9878 186.61 75.7553 186.876 75.4494 186.894C75.4368 186.894 75.4267 186.894 75.414 186.894V186.896Z" fill="#1E2B62"/>
<path d="M165.494 64.3458L159.64 97.2488C159.177 99.8495 157.059 101.833 154.438 102.124L132.52 104.555C132.52 104.555 148.955 118.069 180.357 117.437C211.759 116.804 218.711 104.904 218.711 104.904L194.467 102.233C191.386 101.894 189.065 99.2676 189.101 96.166L189.336 76.5143C189.336 76.5143 172.276 60.5561 165.494 64.3483V64.3458Z" fill="#D08F79"/>
<path d="M163.509 62.6946C162.096 63.5548 161.434 65.3965 161.783 67.0156C162.129 68.6347 163.368 69.9805 164.872 70.6712C166.373 71.3618 168.107 71.4428 169.73 71.124C171.252 76.3152 189.224 85.8072 195.058 79.3384C199.156 74.7948 198.478 63.1702 197 57.2327C195.521 51.2952 192.943 45.636 191.964 39.5947C185.142 41.2062 178.373 43.5134 172.612 47.5106C171.335 48.396 170.097 49.3801 169.189 50.6425C168.284 51.9049 167.736 53.4886 167.976 55.0242C168.221 56.5952 169.237 57.936 169.708 59.4539C170.061 60.5974 169.978 63.2689 168.307 63.3549C167.559 63.3929 166.791 62.5024 166.052 62.3253C165.203 62.1204 164.26 62.2367 163.512 62.6946H163.509Z" fill="#D08F79"/>
<path d="M189.204 82.0805C187.95 82.0805 186.572 81.911 185.081 81.572C178.42 80.0515 170.926 75.3157 169.368 71.7512C168.074 71.946 166.33 71.9535 164.639 71.1769C162.905 70.38 161.603 68.8317 161.239 67.1317C160.832 65.2318 161.666 63.1649 163.221 62.2188C164.078 61.6976 165.157 61.5408 166.181 61.7836C166.59 61.8823 166.962 62.1226 167.321 62.3528C167.672 62.578 168.034 62.8234 168.279 62.8006C168.549 62.788 168.754 62.6691 168.921 62.4262C169.404 61.7356 169.394 60.3264 169.176 59.6206C168.992 59.0261 168.719 58.462 168.428 57.8624C168.011 57.0022 167.581 56.1117 167.425 55.1125C167.179 53.544 167.647 51.8414 168.737 50.3209C169.74 48.922 171.097 47.8847 172.293 47.0549C177.336 43.5536 183.547 41.0112 191.835 39.0531C191.987 39.0177 192.144 39.0455 192.272 39.1315C192.401 39.2175 192.487 39.3516 192.513 39.5059C193.084 43.035 194.234 46.5135 195.349 49.8757C196.127 52.2234 196.931 54.652 197.538 57.0984C198.832 62.2946 200.028 74.6579 195.468 79.7125C194.052 81.2836 191.921 82.0805 189.201 82.0805H189.204ZM169.732 70.5672C169.975 70.5672 170.195 70.7266 170.266 70.9669C171.125 73.899 178.246 78.8676 185.331 80.4841C188.337 81.1697 192.394 81.4632 194.646 78.9662C198.491 74.7035 198.003 63.557 196.461 57.3665C195.862 54.9607 195.066 52.5548 194.295 50.2248C193.228 47.0069 192.128 43.6852 191.519 40.2725C183.658 42.1799 177.74 44.6314 172.933 47.9682C171.815 48.7449 170.551 49.7062 169.647 50.9686C168.739 52.2335 168.332 53.678 168.529 54.9404C168.658 55.7753 169.035 56.5519 169.434 57.3767C169.73 57.9863 170.036 58.6188 170.243 59.2917C170.529 60.2101 170.589 61.9885 169.839 63.0662C169.472 63.5899 168.954 63.8834 168.34 63.9163C167.733 63.939 167.197 63.6 166.722 63.2914C166.441 63.1118 166.153 62.9246 165.926 62.8689C165.195 62.6944 164.401 62.8082 163.802 63.1725C162.637 63.8809 162.018 65.4494 162.331 66.9015C162.622 68.2651 163.686 69.5148 165.107 70.1675C166.745 70.9188 168.469 70.8075 169.626 70.5798C169.662 70.5723 169.697 70.5697 169.732 70.5697V70.5672Z" fill="#1E2B62"/>
<path d="M171.077 68.2445C170.979 68.2445 170.88 68.2192 170.791 68.1635C169.313 67.273 167.705 66.6608 166.009 66.3471C165.706 66.2914 165.508 66.0005 165.564 65.6995C165.62 65.3959 165.908 65.196 166.211 65.2542C168.039 65.5932 169.773 66.251 171.365 67.2123C171.628 67.3717 171.714 67.7132 171.555 67.9763C171.451 68.1509 171.267 68.2445 171.077 68.2445Z" fill="#1E2B62"/>
</g>
<defs>
<clipPath id="clip0_3214_4961">
<rect width="414" height="325" fill="white"/>
</clipPath>
</defs>
</svg>
