<svg width="704" height="449" viewBox="0 0 704 449" fill="none" xmlns="http://www.w3.org/2000/svg">
<g clip-path="url(#clip0_3214_26288)">
<path d="M379.133 223.465L461.939 175.202L462.423 239.361L496.348 219.723V347.329L379.686 414.345L379.133 223.465Z" fill="white"/>
<path d="M191.508 261.598L192.189 389.211L379.684 414.345L378.579 224.732L254.104 206.694L254.002 270.248L191.508 261.598Z" fill="white"/>
<path d="M242.798 170.996L242.293 235.473L191.508 261.598L254.002 270.249L254.102 207.002L303.651 180.534L242.798 170.996Z" fill="#1E2B62"/>
<path d="M462.266 219.929L462.417 239.362L495.86 219.929H462.266Z" fill="#1E2B62"/>
<path d="M328.947 125.987L242.797 170.996L302.887 180.529L254.103 206.694L378.579 225.412L461.359 176.484L404.613 167.313L442.338 146.262L328.947 125.987Z" fill="#FFE02E"/>
<path d="M404.617 167.313L442.343 173.412V146.262L404.617 167.313Z" fill="#1E2B62"/>
<path d="M379.684 414.912C379.658 414.912 379.635 414.912 379.609 414.907L192.115 389.773C191.836 389.734 191.625 389.496 191.625 389.214L191.172 261.634C191.172 261.321 191.423 261.067 191.736 261.067C192.048 261.067 192.299 261.318 192.302 261.631L192.753 388.719L379.568 413.761L495.779 347.003V219.726C495.779 219.413 496.032 219.159 496.345 219.159C496.658 219.159 496.911 219.413 496.911 219.726V347.332C496.911 347.534 496.804 347.722 496.627 347.822L379.965 414.838C379.878 414.887 379.781 414.912 379.684 414.912Z" fill="#1E2B62"/>
<path d="M463.402 366.598C463.092 366.598 462.838 366.347 462.836 366.036L461.367 177C461.367 176.687 461.616 176.433 461.928 176.431C462.223 176.441 462.495 176.679 462.497 176.992L463.966 366.029C463.966 366.341 463.717 366.595 463.405 366.598H463.399H463.402Z" fill="#1E2B62"/>
<path d="M404.618 167.88C404.59 167.88 404.559 167.88 404.531 167.872L286.424 149.504C286.116 149.455 285.904 149.165 285.952 148.857C286.001 148.55 286.291 148.337 286.598 148.385L404.705 166.754C405.012 166.803 405.225 167.093 405.176 167.4C405.133 167.68 404.892 167.88 404.618 167.88Z" fill="#1E2B62"/>
<path d="M379.132 288.135C379.106 288.135 379.081 288.135 379.055 288.13L191.432 262.159C191.189 262.126 190.994 261.936 190.953 261.693C190.912 261.449 191.033 261.208 191.253 261.095L241.73 235.127L241.751 171.25C241.751 170.937 242.005 170.683 242.317 170.683C242.63 170.683 242.884 170.937 242.884 171.25L242.863 235.473C242.863 235.686 242.745 235.879 242.556 235.976L193.362 261.282L379.022 286.981L494.248 220.285L462.273 220.241C461.961 220.241 461.709 219.988 461.709 219.675C461.709 219.362 461.963 219.11 462.276 219.11L496.355 219.157C496.611 219.157 496.834 219.328 496.9 219.577C496.967 219.823 496.859 220.085 496.636 220.213L379.424 288.058C379.337 288.109 379.239 288.135 379.142 288.135H379.132Z" fill="#1E2B62"/>
<path d="M424.545 389.142C424.235 389.142 423.982 388.891 423.979 388.58L422.957 199.867L302.041 181.096C301.733 181.047 301.521 180.76 301.569 180.45C301.618 180.139 301.91 179.929 302.215 179.978L423.607 198.823C423.882 198.867 424.084 199.103 424.087 199.38L425.112 388.575C425.112 388.888 424.861 389.142 424.551 389.144H424.548L424.545 389.142Z" fill="#1E2B62"/>
<path d="M253.798 397.787C253.486 397.787 253.232 397.533 253.234 397.22L253.542 206.694C253.542 206.381 253.796 206.13 254.108 206.13C254.421 206.13 254.675 206.384 254.672 206.697L254.365 397.223C254.365 397.536 254.111 397.787 253.798 397.787Z" fill="#1E2B62"/>
<path d="M302.464 181.152C302.261 181.152 302.067 181.044 301.967 180.855C301.818 180.58 301.921 180.236 302.195 180.088L383.968 135.938C384.242 135.79 384.585 135.892 384.734 136.167C384.883 136.441 384.78 136.785 384.506 136.933L302.733 181.083C302.648 181.129 302.556 181.149 302.464 181.149V181.152Z" fill="#1E2B62"/>
<path d="M317.025 406.602C316.712 406.602 316.458 406.348 316.461 406.036L316.625 216.091C316.625 215.886 316.735 215.697 316.915 215.597L404.336 166.818C404.607 166.667 404.953 166.764 405.105 167.036C405.256 167.308 405.158 167.654 404.887 167.805L317.755 216.422L317.591 406.036C317.591 406.348 317.337 406.6 317.025 406.6V406.602Z" fill="#1E2B62"/>
<path d="M379.129 351.974C379.104 351.974 379.078 351.974 379.052 351.968L191.894 325.967C191.584 325.924 191.368 325.639 191.412 325.329C191.455 325.018 191.737 324.803 192.05 324.846L379.016 350.822L496.062 283.036C496.334 282.88 496.68 282.972 496.836 283.241C496.993 283.513 496.9 283.859 496.631 284.016L379.419 351.899C379.332 351.951 379.234 351.976 379.134 351.976L379.129 351.974Z" fill="#1E2B62"/>
<path d="M379.686 414.912C379.376 414.912 379.123 414.661 379.12 414.351L378.016 225.417C378.016 225.104 378.267 224.85 378.577 224.848H378.579C378.889 224.848 379.143 225.099 379.146 225.409L380.25 414.343C380.25 414.656 379.999 414.91 379.689 414.912H379.686Z" fill="#1E2B62"/>
<path d="M254.057 237.787C254.029 237.787 254 237.787 253.972 237.782L242.21 236.035C241.899 235.989 241.687 235.702 241.733 235.392C241.779 235.081 242.069 234.868 242.376 234.914L254.139 236.661C254.449 236.707 254.662 236.994 254.615 237.305C254.574 237.587 254.334 237.787 254.057 237.787Z" fill="#1E2B62"/>
<path d="M442.34 173.322C442.027 173.322 441.773 173.068 441.773 172.756V146.826C441.773 146.513 442.027 146.259 442.34 146.259C442.652 146.259 442.906 146.513 442.906 146.826V172.756C442.906 173.068 442.652 173.322 442.34 173.322Z" fill="#1E2B62"/>
<path d="M208.395 166.541L256.963 138.429V76.9062L206.266 98.2243L208.395 166.541Z" fill="#1E2B62"/>
<g clip-path="url(#clip1_3214_26288)">
<path d="M251.022 111.99C250.563 110.767 250.002 109.575 249.338 108.451L232.344 114.832L234.945 121.761L244.677 118.107C245.112 120.493 244.557 122.957 243.129 124.926L244.817 129.422L250.623 127.242C252.855 122.828 253.077 117.465 251.022 111.99Z" fill="#4285F4"/>
<path d="M240.319 136.067C245.179 134.243 248.678 131.111 250.631 127.24L243.137 124.924C241.934 126.628 240.082 128.032 237.653 128.945C232.952 130.709 227.778 129.039 224.749 125.318L218.758 127.568L220.498 132.202C225.838 137.13 233.507 138.625 240.319 136.067Z" fill="#34A853"/>
<path d="M224.744 125.32C223.15 123.369 222.241 120.949 222.157 118.431L220.417 113.797L214.432 116.044C213.786 122.088 216.035 128.077 220.499 132.202L224.744 125.32Z" fill="#FBBC04"/>
<path d="M229.478 107.202C232.031 106.198 234.876 106.231 237.402 107.305L240.617 100.236C236.213 98.4047 231.259 98.3486 226.804 100.082C219.992 102.64 215.202 108.813 214.427 116.044L222.152 118.432C221.974 113.633 224.777 108.967 229.478 107.202Z" fill="#EA4335"/>
</g>
<path d="M256.965 76.906L208.607 103.015L208.504 166.484L208.299 166.541L146.008 157.918L146.236 158.044L146.008 94.1103L197.141 67.396L256.965 76.906Z" fill="white"/>
<path d="M208.302 167.105C208.276 167.105 208.251 167.105 208.225 167.1L146.485 158.555C146.321 158.634 146.126 158.629 145.964 158.539L145.736 158.413C145.498 158.28 145.388 157.998 145.475 157.739C145.513 157.626 145.583 157.534 145.672 157.467L145.447 94.1156C145.447 93.9053 145.562 93.7104 145.752 93.6129L196.885 66.8987C196.993 66.8422 197.116 66.8217 197.236 66.8422L257.06 76.3497C257.301 76.3882 257.488 76.5754 257.529 76.8139C257.57 77.0524 257.452 77.291 257.239 77.4064L209.176 103.354L209.073 166.487C209.073 166.744 208.902 166.967 208.653 167.034L208.448 167.087C208.399 167.1 208.351 167.105 208.302 167.105ZM146.802 157.457L207.941 165.92L208.043 103.015C208.043 102.807 208.158 102.618 208.34 102.518L255.227 77.2038L197.241 67.9861L146.579 94.4542L146.802 157.457Z" fill="#1E2B62"/>
<path d="M208.609 103.918C208.581 103.918 208.553 103.918 208.525 103.913L145.928 94.672C145.618 94.6258 145.405 94.3386 145.452 94.0282C145.498 93.7179 145.787 93.505 146.095 93.5512L208.691 102.792C209.001 102.838 209.214 103.125 209.168 103.436C209.127 103.718 208.886 103.92 208.609 103.92V103.918Z" fill="#1E2B62"/>
<path d="M208.401 167.105C208.207 167.105 208.017 167.003 207.912 166.823C207.756 166.551 207.848 166.205 208.12 166.049L256.403 138.101V76.9037C256.403 76.5908 256.657 76.3369 256.97 76.3369C257.282 76.3369 257.536 76.5908 257.536 76.9037V138.427C257.536 138.629 257.428 138.816 257.254 138.916L208.688 167.028C208.599 167.08 208.501 167.105 208.407 167.105H208.401Z" fill="#1E2B62"/>
<path d="M118.387 179.726L148.439 178.767C148.439 178.767 168.152 400.265 171.368 434.14L178.856 442.26C181.226 444.829 179.407 448.997 175.917 448.997H127.697C120.89 448.997 115.322 443.562 115.137 436.738L111.959 318.46C111.959 318.46 102.324 389.357 52.7254 435.017L55.3598 438.874C58.2915 443.165 55.2265 448.995 50.0397 448.995H42.5438C33.6384 448.995 25.0124 445.763 18.375 439.81C12.4321 434.483 5.73325 426.627 1.0794 415.699C-0.865683 411.134 -0.135316 405.863 2.89379 401.937C15.7098 385.33 51.4158 338.167 60.3545 316.806C71.3074 290.638 69.8954 223.701 95.161 181.329L118.382 179.718L118.387 179.726Z" fill="#1E2B62"/>
<path d="M112.388 316.05C112.078 316.05 111.824 315.798 111.822 315.488C111.66 289.641 110.361 263.488 107.965 237.756L98.8854 235.838C98.5804 235.774 98.3856 235.474 98.4497 235.166C98.5138 234.861 98.8136 234.663 99.1211 234.73L108.608 236.733C108.849 236.784 109.031 236.987 109.054 237.233C111.478 263.134 112.791 289.459 112.955 315.478C112.955 315.791 112.706 316.045 112.393 316.047H112.391L112.388 316.05Z" fill="white"/>
<path d="M51.0264 432.383C50.9726 432.383 50.9162 432.375 50.8598 432.357C32.5417 426.74 17.1502 412.827 9.69272 395.135C9.57228 394.848 9.70554 394.514 9.99512 394.394C10.2847 394.273 10.6153 394.407 10.7357 394.697C18.065 412.083 33.1901 425.758 51.193 431.277C51.4902 431.37 51.6594 431.685 51.5671 431.985C51.4928 432.229 51.2699 432.385 51.0264 432.385V432.383Z" fill="white"/>
<path d="M44.8156 440.708C44.608 440.708 44.4081 440.593 44.3107 440.395C44.1698 440.115 44.2826 439.774 44.5619 439.636C46.9426 438.441 49.1491 436.928 51.1224 435.132C51.353 434.922 51.7118 434.94 51.9219 435.171C52.1321 435.402 52.1141 435.761 51.8835 435.971C49.8333 437.835 47.5423 439.408 45.0693 440.649C44.9873 440.69 44.9002 440.708 44.8156 440.708Z" fill="#1E2B62"/>
<path d="M141.128 435.981C133.158 435.981 125.188 435.519 117.267 434.596C116.956 434.56 116.734 434.278 116.769 433.968C116.805 433.657 117.09 433.437 117.397 433.47C134.267 435.435 151.358 435.296 168.195 433.055C168.508 433.014 168.79 433.232 168.831 433.542C168.872 433.852 168.654 434.137 168.344 434.178C159.32 435.378 150.225 435.979 141.13 435.979L141.128 435.981Z" fill="white"/>
<path d="M190.997 136.406C194.923 129.84 199.19 126.283 204.321 120.615C209.451 114.946 214.684 111.222 220.602 107.175C223.174 105.413 224.517 103.923 225.881 105.034C227.154 106.072 227.439 107.011 226.706 108.483C225.727 110.448 224.169 112.764 221.186 116.108C222.595 115.5 224.807 116.426 225.025 117.95C225.245 119.473 223.641 121.153 222.39 121.956C223.843 121.848 226.35 121.192 226.498 122.646C226.647 124.1 224.415 127.419 222.969 127.609C224.615 127.491 225.881 129.122 224.758 130.335C223.636 131.548 220.994 132.959 219.728 134.018C217.783 135.646 216.045 137.98 214.687 140.124C212.752 143.176 209.267 146.718 208.221 150.676L190.992 136.411L190.997 136.406Z" fill="#FFE9DD"/>
<path d="M208.219 151.237C208.106 151.237 207.993 151.204 207.893 151.135C207.637 150.955 207.576 150.601 207.755 150.347C209.08 148.46 210.11 146.644 211.107 144.89C211.978 143.356 212.878 141.771 213.949 140.191C215.643 137.693 217.47 135.162 219.359 133.579C219.861 133.159 220.543 132.669 221.266 132.148C222.362 131.358 223.608 130.463 224.269 129.76C224.71 129.293 224.881 128.85 224.738 128.545C224.577 128.203 224.028 127.998 223.408 128.044C223.136 128.068 222.89 127.888 222.821 127.624C222.752 127.36 222.88 127.085 223.126 126.967C224.346 126.388 225.343 125.354 225.725 124.272C225.884 123.823 226.007 123.154 225.694 122.502C225.412 121.917 224.922 121.651 223.252 122.02C222.977 122.081 222.698 121.93 222.598 121.666C222.501 121.402 222.611 121.104 222.86 120.971C224.295 120.196 224.764 119.104 224.251 117.727C224.036 117.147 223.572 116.847 223.221 116.696C222.59 116.426 221.834 116.426 221.201 116.701C220.966 116.803 220.691 116.731 220.533 116.531C220.374 116.329 220.371 116.044 220.527 115.841C221.627 114.387 222.749 113.161 223.736 112.076C225.363 110.294 226.647 108.886 227.206 107.27C227.434 106.611 227.275 105.957 226.768 105.475C226.147 104.885 225.204 104.723 224.364 105.062C222.652 105.754 209.398 115.834 204.349 121.409C202.976 122.928 201.704 124.251 200.474 125.531C197.171 128.968 194.319 131.938 191.474 136.695C191.315 136.965 190.967 137.052 190.698 136.89C190.429 136.729 190.342 136.382 190.503 136.113C193.414 131.245 196.31 128.232 199.659 124.744C200.884 123.469 202.148 122.153 203.511 120.648C208.685 114.934 222.037 104.78 223.941 104.01C225.192 103.505 226.606 103.756 227.547 104.652C228.377 105.441 228.649 106.557 228.272 107.637C227.636 109.473 226.214 111.033 224.566 112.836C223.872 113.597 223.108 114.433 222.339 115.364C222.793 115.38 223.244 115.475 223.659 115.652C224.443 115.988 225.028 116.583 225.304 117.329C225.778 118.606 225.622 119.786 224.889 120.74C225.64 120.822 226.299 121.163 226.706 122.012C227.088 122.805 227.114 123.715 226.786 124.649C226.452 125.59 225.766 126.495 224.879 127.196C225.274 127.396 225.581 127.691 225.755 128.06C225.925 128.414 226.194 129.365 225.087 130.537C224.351 131.317 223.116 132.207 221.922 133.066C221.217 133.574 220.551 134.054 220.082 134.446C218.3 135.939 216.53 138.393 214.882 140.825C213.836 142.368 212.985 143.864 212.086 145.446C211.076 147.224 210.031 149.062 208.675 150.994C208.565 151.15 208.391 151.235 208.211 151.235L208.219 151.237Z" fill="#1E2B62"/>
<path d="M97.2293 176.322C97.2293 176.322 87.2681 185.602 79.5391 219.251C79.5391 219.251 93.4878 216.561 118.928 222.608C131.175 225.519 143.255 217.174 144.793 204.647C145.636 197.789 146.143 190.172 145.769 182.762L147.886 213.593C148.242 218.779 152.543 222.806 157.727 222.806C157.727 222.806 150.554 184.055 147.714 175.699L97.2319 176.322H97.2293Z" fill="#40B0E5"/>
<path d="M111.047 111.486C131.3 109.094 149.465 112.158 157.447 116.331C169.461 122.61 182.726 146.829 182.726 146.829L192.451 132.658C192.451 132.658 206.769 136.754 210.48 148.549C210.48 148.549 195.944 179.547 175.722 179.916C155.5 180.285 148.142 163.879 148.142 163.879L147.712 176.833C147.712 176.833 107.298 174.892 95.8096 177.962L87.509 140.909C86.1687 126.485 96.3554 113.456 110.676 111.533C110.804 111.515 110.929 111.499 111.05 111.486H111.047Z" fill="#40B0E5"/>
<path d="M187.008 155.407C186.79 155.407 186.58 155.279 186.487 155.066C185.424 152.594 184.119 150.214 182.613 147.985C182.438 147.726 182.505 147.375 182.764 147.198C183.023 147.023 183.374 147.09 183.548 147.349C185.096 149.634 186.434 152.081 187.528 154.617C187.651 154.905 187.52 155.238 187.233 155.361C187.161 155.392 187.085 155.407 187.01 155.407H187.008Z" fill="#1E2B62"/>
<path d="M147.712 163.148C147.504 163.148 147.304 163.032 147.204 162.835C143.778 155.946 139.913 149.188 135.713 142.74L134.729 143.104C134.437 143.212 134.111 143.063 134.004 142.768C133.896 142.476 134.045 142.15 134.337 142.043L135.744 141.522C135.99 141.43 136.269 141.522 136.413 141.742C140.731 148.339 144.7 155.266 148.216 162.33C148.355 162.609 148.242 162.95 147.963 163.089C147.881 163.13 147.796 163.148 147.712 163.148Z" fill="#1E2B62"/>
<path d="M132.283 70.312C132.283 70.312 144.151 95.6516 139.408 100.119C136.371 102.979 130.471 102.979 130.471 102.979L129.531 111.045L115.92 113.133C115.92 113.133 104.378 75.5261 132.283 70.3146V70.312Z" fill="#FFE9DD"/>
<path d="M129.529 111.612C129.505 111.612 129.485 111.612 129.462 111.607C129.152 111.571 128.929 111.289 128.965 110.979L129.905 102.912C129.939 102.628 130.179 102.412 130.466 102.412C130.523 102.412 136.181 102.376 139.016 99.7065C141.186 97.6625 139.585 89.4502 134.621 77.1728C134.503 76.883 134.644 76.5521 134.933 76.4367C135.223 76.3187 135.553 76.4598 135.669 76.7496C139.364 85.8878 143.08 97.4342 139.792 100.532C137.127 103.043 132.509 103.461 130.974 103.531L130.09 111.112C130.056 111.399 129.81 111.612 129.529 111.612Z" fill="#1E2B62"/>
<path d="M130.582 102.007C130.272 102.007 130.018 101.756 130.016 101.445C130.008 100.643 130.375 99.845 131.015 99.2577C131.656 98.6729 132.481 98.3831 133.275 98.4626C133.586 98.4934 133.814 98.7704 133.783 99.0833C133.752 99.3936 133.475 99.6219 133.165 99.5911C132.686 99.5424 132.184 99.7271 131.779 100.096C131.374 100.466 131.143 100.956 131.146 101.438C131.146 101.751 130.897 102.005 130.585 102.01H130.58L130.582 102.007Z" fill="#1E2B62"/>
<path d="M126.325 92.6739C126.107 92.6739 125.902 92.5483 125.807 92.338C125.22 91.0094 123.803 90.0861 122.355 90.0861C122.347 90.0861 122.34 90.0861 122.332 90.0861C122.022 90.0861 121.768 89.8348 121.766 89.5245C121.766 89.2116 122.014 88.9576 122.327 88.9551C124.239 88.9525 126.074 90.1451 126.842 91.8789C126.968 92.1636 126.84 92.4995 126.555 92.6252C126.481 92.6586 126.404 92.6739 126.327 92.6739H126.325Z" fill="#1E2B62"/>
<path d="M75.1947 145.297C80.6506 148.942 91.4524 153.964 110.296 154.841C117.174 155.161 122.61 148.732 120.857 142.058C120.803 141.855 120.744 141.65 120.68 141.445C118.061 133.187 112.959 127.362 121.244 119.204C129.529 111.048 128.084 96.8572 125.657 94.5054C125.657 94.5054 115.311 92.5382 118.33 86.3418C119.868 83.1898 121.736 83.6027 123.202 84.7671C124.568 85.852 126.559 85.5314 127.448 84.0285C128.947 81.4919 131.402 78.3501 134.877 77.0113C134.877 77.0113 141.389 76.0265 143.17 71.4356C144.951 66.8447 135.374 55.188 117.149 61.723C98.9227 68.2579 100.865 81.8587 99.3506 87.26C97.8361 92.6613 95.3605 101.333 87.3957 105.634C79.4308 109.935 76.0609 115.462 77.9906 124.941C79.3898 131.812 76.9578 136.126 74.513 138.609C72.6012 140.55 72.9318 143.787 75.1972 145.3L75.1947 145.297Z" fill="#1E2B62"/>
<path d="M699.462 350.758C669.873 354.372 651.801 371.284 651.801 371.284L637.876 383.484C635.09 385.918 636.346 389.971 639.839 389.971H670.711C676.139 389.971 681.418 388.186 685.739 384.89C685.739 384.89 696.561 374.69 699.921 371.063C703.475 367.227 704.313 363.503 702.535 358.814L699.462 350.756V350.758Z" fill="white"/>
<path d="M670.715 390.537H639.842C638.076 390.537 636.621 389.578 636.044 388.036C635.408 386.344 635.985 384.389 637.507 383.058L651.433 370.858C651.602 370.699 669.966 353.792 699.399 350.196C699.658 350.166 699.904 350.314 699.996 350.555L703.069 358.614C704.909 363.466 704.068 367.426 700.339 371.45C697.005 375.051 686.24 385.202 686.129 385.302C686.114 385.315 686.101 385.328 686.086 385.341C681.693 388.693 676.235 390.54 670.717 390.54L670.715 390.537ZM699.094 351.374C670.302 355.036 652.368 371.527 652.189 371.697L638.251 383.91C637.084 384.928 636.633 386.392 637.102 387.639C637.518 388.744 638.54 389.406 639.842 389.406H670.715C675.978 389.406 681.183 387.649 685.376 384.459C685.919 383.946 696.272 374.174 699.509 370.681C702.953 366.965 703.699 363.477 702.01 359.019L699.094 351.376V351.374Z" fill="#1E2B62"/>
<path d="M637.752 122.22L586.562 134.379L652.331 369.532C652.331 369.532 674.143 374.879 701.622 355.051L637.752 122.22Z" fill="#40B0E5"/>
<path d="M510.285 381.145C506.843 384.138 508.955 389.812 513.511 389.812H567.243C573.089 389.812 577.994 385.398 578.624 379.571L579.55 371.017C553.802 363.087 527.442 366.221 527.442 366.221L510.285 381.143V381.145Z" fill="white"/>
<path d="M567.247 390.376H513.515C511.168 390.376 509.197 389.006 508.374 386.803C507.549 384.595 508.141 382.261 509.917 380.717L527.074 365.795C527.159 365.721 527.266 365.675 527.379 365.659C527.646 365.629 554.154 362.602 579.72 370.476C579.978 370.555 580.145 370.809 580.117 371.079L579.192 379.632C578.528 385.757 573.395 390.378 567.249 390.378L567.247 390.376ZM527.682 366.765L510.658 381.571C508.971 383.038 508.917 385.031 509.433 386.406C509.945 387.778 511.285 389.242 513.515 389.242H567.247C572.813 389.242 577.464 385.056 578.067 379.506L578.94 371.42C554.813 364.11 529.98 366.519 527.684 366.762L527.682 366.765Z" fill="#1E2B62"/>
<path d="M651.337 162.391C654.533 156.054 655.758 148.544 654.884 141.499C653.869 133.333 649.494 122.93 649.494 122.93L605.186 137.364L566.948 221.47C562.437 231.388 559.462 241.939 558.122 252.754L527.18 366.99C527.18 366.99 553.44 371.504 579.287 371.786L609.768 244.868L651.335 162.394L651.337 162.391Z" fill="#40B0E5"/>
<path d="M613.472 238.094C613.387 238.094 613.3 238.074 613.218 238.033C612.939 237.892 612.826 237.551 612.967 237.274L647.128 169.493C647.269 169.213 647.609 169.1 647.886 169.241C648.166 169.383 648.278 169.724 648.137 170.001L613.977 237.781C613.877 237.979 613.677 238.092 613.472 238.092V238.094Z" fill="white"/>
<path d="M539.471 83.8283L544.668 72.3178C548.774 63.2284 556.641 56.3113 566.246 53.6953C566.308 53.6773 566.372 53.6619 566.433 53.644C583.432 49.0916 621.324 39.8714 632.356 51.2844L642.22 81.7765L539.469 83.8283H539.471Z" fill="white"/>
<path d="M539.471 84.3925C539.282 84.3925 539.105 84.2976 539 84.1386C538.892 83.9771 538.877 83.7719 538.956 83.5949L544.156 72.0844C548.397 62.6923 556.395 55.7906 566.1 53.149L566.29 53.0977C602.452 43.4107 624.817 42.6695 632.764 50.8894C632.823 50.951 632.869 51.0254 632.894 51.1074L642.758 81.5995C642.815 81.7688 642.784 81.956 642.681 82.1022C642.576 82.2484 642.412 82.3356 642.233 82.3408L539.482 84.3925C539.482 84.3925 539.474 84.3925 539.471 84.3925ZM612.852 46.3217C601.622 46.3217 586.166 48.9454 566.58 54.1928L566.395 54.2416C557.016 56.796 549.287 63.4695 545.184 72.5512L540.353 83.2435L641.446 81.2251L631.857 51.5845C628.382 48.0734 622.026 46.3191 612.849 46.3191L612.852 46.3217Z" fill="#1E2B62"/>
<path d="M585.032 170.232L635.996 140.732V76.1729L582.797 98.5424L585.032 170.232Z" fill="white"/>
<path d="M585.033 170.798C584.938 170.798 584.844 170.775 584.759 170.726C584.585 170.629 584.474 170.449 584.469 170.249L582.235 98.56C582.227 98.3266 582.365 98.1111 582.581 98.0214L635.782 75.6518C635.956 75.5774 636.156 75.5979 636.315 75.7031C636.474 75.8082 636.569 75.9852 636.569 76.175V140.734C636.569 140.937 636.461 141.124 636.287 141.224L585.323 170.724C585.236 170.775 585.138 170.801 585.041 170.801L585.033 170.798ZM583.375 98.9139L585.569 169.27L635.434 140.409V77.0265L583.375 98.9165V98.9139Z" fill="#1E2B62"/>
<path d="M585.249 103.572L585.142 170.175L584.927 170.232L519.801 161.317L519.562 94.2285L585.249 103.572Z" fill="#1E2B62"/>
<path d="M519.562 94.2283L573.22 66.1958L572.877 66.3753L635.996 76.1726L585.249 103.572L519.562 94.2283Z" fill="white"/>
<path d="M585.251 104.136C585.225 104.136 585.197 104.136 585.172 104.131L519.485 94.7874C519.241 94.7541 519.049 94.5643 519.008 94.3232C518.967 94.0821 519.085 93.8385 519.303 93.7256L572.96 65.6931C573.237 65.5495 573.578 65.6546 573.724 65.9316L636.087 75.6135C636.328 75.6519 636.518 75.8366 636.559 76.0777C636.6 76.3162 636.485 76.5573 636.269 76.6727L585.523 104.069C585.441 104.113 585.349 104.136 585.254 104.136H585.251ZM521.384 93.9154L585.146 102.984L634.247 76.4752L572.973 66.9626L521.384 93.9154Z" fill="#1E2B62"/>
<path d="M584.93 170.799C584.905 170.799 584.879 170.799 584.854 170.793L519.728 161.878C519.448 161.84 519.241 161.601 519.238 161.319L519 94.2284C519 93.9155 519.251 93.6616 519.564 93.6616C519.876 93.6616 520.128 93.913 520.13 94.2259L520.366 160.824L584.579 169.614L584.687 103.569C584.687 103.256 584.941 103.005 585.253 103.005C585.566 103.005 585.82 103.259 585.817 103.572L585.709 170.178C585.709 170.434 585.538 170.657 585.289 170.724L585.074 170.781C585.025 170.793 584.977 170.799 584.928 170.799H584.93Z" fill="#1E2B62"/>
<path d="M585.034 170.799C584.839 170.799 584.65 170.696 584.545 170.516C584.388 170.245 584.481 169.898 584.752 169.742L635.435 140.406V76.1728C635.435 75.8599 635.688 75.606 636.001 75.606C636.314 75.606 636.567 75.8599 636.567 76.1728V140.732C636.567 140.935 636.46 141.122 636.286 141.222L585.321 170.722C585.232 170.773 585.134 170.799 585.039 170.799H585.034Z" fill="#1E2B62"/>
<path d="M519.4 94.3463C519.4 94.3463 508.801 96.1493 508.875 107.55C508.983 123.561 519.095 123.259 524.303 123.979C529.513 124.702 533.218 123.143 531.842 120.822C531.842 120.822 537.678 118.706 532.088 114.092C532.088 114.092 534.964 110.658 528.857 107.806C528.857 107.806 531.355 102.638 519.423 101.412L519.4 94.3438V94.3463Z" fill="#D08F79"/>
<path d="M526.746 124.721C525.947 124.721 525.098 124.662 524.219 124.541C523.791 124.482 523.33 124.428 522.843 124.374C517.444 123.761 508.408 122.738 508.305 107.555C508.226 95.8109 519.189 93.8104 519.299 93.7899C519.463 93.7616 519.632 93.8078 519.758 93.9155C519.886 94.0232 519.958 94.1797 519.96 94.3464L519.981 100.91C524.917 101.481 528.002 102.82 529.158 104.895C529.747 105.954 529.673 106.937 529.537 107.516C531.669 108.596 532.912 109.891 533.24 111.366C533.491 112.505 533.125 113.454 532.828 113.99C534.521 115.495 535.262 116.942 535.029 118.296C534.77 119.799 533.379 120.707 532.584 121.109C532.781 121.727 532.705 122.338 532.351 122.869C531.564 124.051 529.44 124.723 526.744 124.723L526.746 124.721ZM518.83 95.0543C516.567 95.6493 509.374 98.273 509.435 107.547C509.53 121.727 517.618 122.643 522.971 123.251C523.469 123.307 523.94 123.361 524.376 123.42C528.135 123.941 530.759 123.223 531.41 122.24C531.549 122.033 531.692 121.689 531.351 121.112C531.264 120.966 531.249 120.791 531.305 120.632C531.362 120.473 531.487 120.348 531.646 120.291C531.664 120.284 533.671 119.532 533.917 118.098C534.088 117.09 533.33 115.857 531.723 114.531C531.608 114.436 531.533 114.297 531.521 114.146C531.508 113.995 531.554 113.846 531.651 113.731C531.679 113.695 532.407 112.789 532.136 111.594C531.864 110.402 530.647 109.268 528.614 108.319C528.476 108.255 528.371 108.14 528.32 107.996C528.269 107.852 528.279 107.696 528.343 107.56C528.361 107.524 528.799 106.544 528.158 105.421C527.459 104.19 525.365 102.595 519.361 101.976C519.074 101.946 518.853 101.705 518.853 101.415L518.833 95.0517L518.83 95.0543Z" fill="#1E2B62"/>
<path d="M526.41 109.937C525.975 109.937 525.557 109.886 525.19 109.84C521.657 109.401 518.105 108.783 514.63 108.006C514.325 107.937 514.132 107.634 514.202 107.329C514.271 107.024 514.571 106.834 514.878 106.901C518.317 107.673 521.833 108.283 525.331 108.716C525.993 108.798 526.541 108.852 527.056 108.745C527.458 108.66 527.958 108.416 528.148 107.983C528.273 107.696 528.607 107.567 528.894 107.693C529.181 107.819 529.309 108.152 529.183 108.439C528.876 109.142 528.166 109.67 527.287 109.853C526.992 109.914 526.697 109.937 526.41 109.937Z" fill="#1E2B62"/>
<path d="M529.328 116.01C528.639 116.01 527.965 115.89 527.353 115.782L516.241 113.818C515.933 113.764 515.728 113.469 515.782 113.161C515.836 112.853 516.131 112.648 516.438 112.702L527.55 114.667C528.306 114.8 529.085 114.938 529.82 114.849C530.556 114.759 531.176 114.42 531.478 113.938C531.645 113.674 531.994 113.594 532.258 113.764C532.522 113.93 532.601 114.282 532.432 114.546C531.942 115.323 531.038 115.844 529.954 115.975C529.744 116 529.533 116.01 529.326 116.01H529.328Z" fill="#1E2B62"/>
<path d="M530.16 121.384C525.509 121.384 520.899 120.707 516.435 119.363C516.135 119.273 515.966 118.958 516.055 118.658C516.145 118.357 516.46 118.188 516.76 118.278C521.675 119.755 526.767 120.409 531.895 120.219C532.223 120.209 532.469 120.453 532.482 120.763C532.492 121.076 532.249 121.338 531.939 121.35C531.347 121.374 530.755 121.384 530.165 121.384H530.16Z" fill="#1E2B62"/>
<path d="M617.978 135.313C617.978 135.313 624.052 149.935 613.911 158.508C613.911 158.508 610.008 163.235 607.043 163.22C607.043 163.22 605.277 167.875 601.308 166.523C601.308 166.523 597.428 174.022 589.053 168.608L592.584 166.364L594.224 159.868C594.224 159.868 582.113 169.35 578.433 164.946C575.791 161.784 592.925 151.248 592.925 151.248L602.594 140.768L617.981 135.318L617.978 135.313Z" fill="#D08F79"/>
<path d="M592.581 166.928C592.535 166.928 592.489 166.923 592.442 166.91C592.14 166.833 591.956 166.526 592.032 166.223L593.283 161.263C589.972 163.622 581.264 169.219 577.994 165.305C577.653 164.895 577.522 164.374 577.615 163.794C578.273 159.75 590.766 151.909 592.548 150.809C593.25 149.996 599.316 142.984 601.827 140.889C609.108 134.815 617.613 134.746 617.972 134.746C618.192 134.746 618.395 134.874 618.487 135.074C618.613 135.351 621.58 141.922 620.335 148.914C620.281 149.221 619.986 149.427 619.679 149.37C619.371 149.316 619.166 149.021 619.223 148.714C620.253 142.943 618.187 137.311 617.608 135.89C615.912 135.977 608.68 136.649 602.555 141.758C600.015 143.877 593.416 151.535 593.35 151.614C593.311 151.658 593.268 151.696 593.216 151.727C589.357 154.102 579.229 160.929 578.735 163.976C578.681 164.312 578.783 164.482 578.865 164.579C581.595 167.847 590.625 161.96 593.875 159.419C594.065 159.27 594.329 159.257 594.531 159.391C594.733 159.521 594.831 159.768 594.772 160.004L593.132 166.5C593.068 166.757 592.837 166.928 592.583 166.928H592.581Z" fill="#1E2B62"/>
<path d="M601.035 167.308C600.942 167.308 600.85 167.285 600.763 167.239C600.489 167.09 600.389 166.744 600.538 166.472C602.206 163.42 603.259 159.975 603.582 156.508C603.61 156.198 603.879 155.969 604.197 155.997C604.507 156.026 604.738 156.303 604.707 156.613C604.369 160.232 603.272 163.828 601.529 167.016C601.427 167.203 601.232 167.311 601.032 167.311L601.035 167.308Z" fill="#1E2B62"/>
<path d="M606.877 164.043C606.79 164.043 606.702 164.023 606.62 163.982C606.341 163.838 606.233 163.497 606.374 163.22C607.881 160.273 608.824 157.111 609.181 153.817C609.214 153.507 609.498 153.281 609.803 153.315C610.113 153.348 610.339 153.628 610.306 153.938C609.936 157.367 608.952 160.663 607.381 163.733C607.282 163.928 607.084 164.04 606.877 164.04V164.043Z" fill="#1E2B62"/>
<path d="M613.301 159.711C613.222 159.711 613.142 159.696 613.065 159.66C612.781 159.529 612.655 159.193 612.786 158.911C614.152 155.923 614.847 152.604 614.793 149.319C614.788 149.006 615.036 148.75 615.349 148.744C615.651 148.734 615.918 148.988 615.923 149.301C615.979 152.756 615.251 156.241 613.814 159.383C613.719 159.591 613.514 159.714 613.299 159.714L613.301 159.711Z" fill="#1E2B62"/>
<path d="M596.508 133.902L626.186 154.225C626.186 154.225 646.47 131.363 654.566 114.092C661.823 98.6142 648.835 71.3075 632.355 51.2847L609.28 67.0347L623.836 94.226C624.649 96.2957 622.45 100.384 621.153 102.189L596.508 133.902Z" fill="white"/>
<path d="M649.091 124.405C648.989 124.405 648.884 124.377 648.792 124.318C648.528 124.151 648.448 123.802 648.615 123.538C650.837 120.001 652.669 116.742 654.063 113.846C662.061 97.2419 644.512 63.6003 631.973 51.6948C631.747 51.4794 631.737 51.1203 631.952 50.8946C632.167 50.6689 632.524 50.6587 632.752 50.8741C645.501 62.9797 663.291 97.2958 655.083 114.338C653.671 117.27 651.818 120.568 649.573 124.141C649.466 124.313 649.281 124.405 649.094 124.405H649.091Z" fill="#1E2B62"/>
<path d="M620.072 150.604C619.962 150.604 619.852 150.573 619.754 150.504L596.19 134.369C596.062 134.282 595.975 134.144 595.952 133.99C595.929 133.836 595.967 133.679 596.065 133.556L622.276 99.7402C623.621 97.8679 623.967 96.1367 623.327 94.4671L610.772 71.0152C610.623 70.7408 610.728 70.3971 611.003 70.2483C611.279 70.0996 611.62 70.2047 611.769 70.4792L624.339 93.9618C624.349 93.9824 624.359 94.0029 624.367 94.0234C625.164 96.0598 624.767 98.2116 623.183 100.417L597.325 133.777L620.395 149.573C620.654 149.75 620.718 150.101 620.541 150.36C620.431 150.519 620.254 150.607 620.074 150.607L620.072 150.604Z" fill="#1E2B62"/>
<path d="M574.82 41.1202C575.048 41.5768 580.978 50.5995 580.978 50.5995C580.978 50.5995 575.151 54.4748 577.901 57.5089C580.648 60.543 592.347 54.8595 595.873 47.2371L587.672 34.1313L574.823 41.1202H574.82Z" fill="#D08F79"/>
<path d="M580.278 58.907C579.04 58.907 578.082 58.5634 577.472 57.8888C576.785 57.1297 576.495 56.2602 576.616 55.3036C576.882 53.1672 579.194 51.2128 580.201 50.4562C578.763 48.2685 574.522 41.8003 574.309 41.372C574.174 41.1001 574.279 40.7667 574.545 40.6205L587.394 33.6316C587.658 33.488 587.986 33.5752 588.143 33.8291L596.343 46.9349C596.446 47.0964 596.459 47.2991 596.377 47.4735C593.719 53.2185 586.405 58.0581 581.505 58.8044C581.07 58.8711 580.662 58.9045 580.278 58.9045V58.907ZM575.606 41.3335C576.534 42.7979 579.435 47.2324 581.444 50.2895C581.616 50.5486 581.544 50.8999 581.285 51.0718C581.252 51.0949 578.007 53.28 577.738 55.4472C577.661 56.0679 577.848 56.6193 578.312 57.1297C578.835 57.7093 579.909 57.9068 581.336 57.6888C585.875 56.9963 592.612 52.5747 595.221 47.276L587.469 34.8832L575.609 41.3335H575.606Z" fill="#1E2B62"/>
<path d="M570.122 26.6066C570.122 26.6066 559.312 16.5888 561.278 7.51476C563.779 -4.01884 586.064 -1.36691 591.541 9.30751C591.541 9.30751 599.354 8.59708 600.784 18.6483C601.866 26.2501 595.149 34.6753 589.624 36.8784C584.099 39.0815 570.122 26.6066 570.122 26.6066Z" fill="#1E2B62"/>
<path d="M585.853 39.0326C585.853 39.0326 580.102 48.5145 571.399 45.7625C562.696 43.0105 565.82 32.6439 568.365 20.6794C569.09 21.9515 570.641 22.3388 571.837 22.385C575.786 22.5312 581.053 16.681 583.995 20.5409C586.368 23.6545 583.618 26.2192 584.607 28.9276C585.02 30.0561 585.443 30.5639 587.805 30.9486C587.805 30.9486 589.482 27.3298 592.526 30.0151C595.57 32.7003 593.364 40.7664 585.853 39.0326Z" fill="#D08F79"/>
<path d="M574.536 46.8268C573.487 46.8268 572.383 46.6678 571.23 46.3036C562.765 43.6286 564.805 34.3186 567.165 23.5391C567.381 22.5619 567.598 21.5668 567.811 20.564C567.86 20.3332 568.044 20.1587 568.277 20.1228C568.508 20.0869 568.739 20.1972 568.857 20.4024C569.546 21.6104 571.186 21.7976 571.86 21.8233C573.236 21.8746 574.907 21.0641 576.522 20.2819C579.256 18.9585 582.354 17.4555 584.446 20.2023C585.983 22.2208 585.586 24.0571 585.235 25.6781C585.002 26.7475 584.784 27.7606 585.14 28.7403C585.424 29.52 585.588 29.9689 587.508 30.3305C587.856 29.7688 588.623 28.7711 589.809 28.5223C590.814 28.312 591.854 28.6737 592.902 29.597C594.576 31.0743 594.906 34.0057 593.669 36.4192C592.282 39.1173 589.476 40.3175 586.116 39.6738C585.114 41.1383 580.812 46.8345 574.536 46.8345V46.8268ZM568.68 21.9079C568.544 22.5388 568.406 23.1621 568.27 23.7802C565.935 34.4392 564.09 42.8566 571.568 45.2213C572.596 45.547 573.582 45.6881 574.52 45.6881C581.053 45.6881 585.319 38.8172 585.368 38.7377C585.494 38.5299 585.74 38.4248 585.978 38.4812C590.296 39.4789 592.087 37.0039 592.656 35.8959C593.648 33.9621 593.425 31.5667 592.149 30.4408C591.385 29.7662 590.673 29.4918 590.042 29.6226C588.958 29.8483 588.32 31.1768 588.315 31.1897C588.208 31.4179 587.959 31.5487 587.713 31.5077C585.181 31.0948 584.566 30.4664 584.074 29.1225C583.602 27.835 583.869 26.6142 584.125 25.4318C584.453 23.9161 584.763 22.4875 583.543 20.8846C582.116 19.0097 580.122 19.792 577.011 21.2975C575.271 22.1387 573.475 23.0133 571.817 22.9492C571.15 22.9235 569.736 22.7645 568.68 21.9053V21.9079Z" fill="#1E2B62"/>
<path d="M588.457 35.5114C588.359 35.5114 588.259 35.4857 588.167 35.4319C587.898 35.2728 587.811 34.924 587.97 34.6547C588.687 33.4519 590 32.644 591.396 32.5491C591.711 32.5286 591.978 32.7645 591.998 33.0749C592.019 33.3878 591.783 33.6571 591.473 33.6776C590.458 33.7468 589.464 34.3572 588.941 35.2318C588.836 35.4088 588.646 35.5088 588.454 35.5088L588.457 35.5114Z" fill="#1E2B62"/>
<g clip-path="url(#clip2_3214_26288)">
<path d="M548.277 112.505L560.151 113.693L544.17 148.984C544.006 149.347 543.732 149.649 543.387 149.848C543.042 150.047 542.644 150.132 542.248 150.093L533.006 149.168C532.706 149.138 532.417 149.037 532.164 148.874C531.911 148.71 531.7 148.488 531.549 148.227C531.399 147.966 531.312 147.672 531.298 147.371C531.283 147.07 531.34 146.769 531.464 146.494L546.354 113.614C546.518 113.251 546.792 112.949 547.137 112.75C547.482 112.551 547.88 112.466 548.277 112.505Z" fill="url(#paint0_linear_3214_26288)"/>
<path d="M563.086 138.73L544.255 136.846C544.08 136.828 543.904 136.864 543.749 136.948C543.595 137.032 543.469 137.16 543.388 137.317C543.308 137.473 543.276 137.65 543.298 137.825C543.319 137.999 543.393 138.163 543.509 138.296L554.479 150.8C554.799 151.164 555.244 151.393 555.726 151.441L566.389 152.508L563.086 138.73Z" fill="#0078D4"/>
<path d="M548.282 112.506C547.882 112.464 547.478 112.552 547.131 112.755C546.784 112.959 546.511 113.269 546.352 113.639L531.487 146.465C531.356 146.74 531.293 147.043 531.304 147.347C531.315 147.652 531.399 147.949 531.549 148.215C531.699 148.48 531.911 148.705 532.166 148.871C532.422 149.037 532.713 149.14 533.017 149.169L542.497 150.117C542.856 150.09 543.202 149.967 543.498 149.762C543.795 149.557 544.031 149.277 544.184 148.95L547.145 142.44L554.551 150.876C554.865 151.193 555.279 151.392 555.722 151.44L566.345 152.503L563.018 138.723L549.436 137.367L560.2 113.698L548.282 112.506Z" fill="url(#paint1_linear_3214_26288)"/>
<path d="M563.319 115.309C563.23 114.921 563.022 114.571 562.723 114.309C562.425 114.046 562.052 113.883 561.656 113.843L548.422 112.52C548.817 112.559 549.191 112.722 549.489 112.985C549.787 113.248 549.996 113.597 550.085 113.985L558.166 149.165C558.233 149.459 558.23 149.765 558.156 150.057C558.081 150.35 557.939 150.62 557.739 150.847C557.54 151.073 557.289 151.249 557.009 151.359C556.728 151.469 556.425 151.511 556.124 151.481L569.359 152.805C569.659 152.835 569.962 152.793 570.243 152.683C570.524 152.572 570.774 152.397 570.974 152.17C571.173 151.944 571.316 151.673 571.39 151.381C571.464 151.089 571.467 150.783 571.4 150.489L563.319 115.309Z" fill="url(#paint2_linear_3214_26288)"/>
</g>
</g>
<defs>
<linearGradient id="paint0_linear_3214_26288" x1="552.324" y1="115.74" x2="536.347" y2="150.939" gradientUnits="userSpaceOnUse">
<stop stop-color="#114A8B"/>
<stop offset="1" stop-color="#0669BC"/>
</linearGradient>
<linearGradient id="paint1_linear_3214_26288" x1="554.483" y1="133.105" x2="551.534" y2="133.784" gradientUnits="userSpaceOnUse">
<stop stop-opacity="0.3"/>
<stop offset="0.071" stop-opacity="0.2"/>
<stop offset="0.321" stop-opacity="0.1"/>
<stop offset="0.623" stop-opacity="0.05"/>
<stop offset="1" stop-opacity="0"/>
</linearGradient>
<linearGradient id="paint2_linear_3214_26288" x1="554.718" y1="114.906" x2="564.647" y2="152.326" gradientUnits="userSpaceOnUse">
<stop stop-color="#3CCBF4"/>
<stop offset="1" stop-color="#2892DF"/>
</linearGradient>
<clipPath id="clip0_3214_26288">
<rect width="704" height="449" fill="white"/>
</clipPath>
<clipPath id="clip1_3214_26288">
<rect width="37.7266" height="38.4384" fill="white" transform="translate(208.789 106.846) rotate(-20.58)"/>
</clipPath>
<clipPath id="clip2_3214_26288">
<rect width="44" height="44" fill="white" transform="translate(533.375 108) rotate(5.71282)"/>
</clipPath>
</defs>
</svg>
