<svg width="697" height="312" viewBox="0 0 697 312" fill="none" xmlns="http://www.w3.org/2000/svg">
<path d="M754.444 311.655H2.55622C1.56181 311.655 0.761719 310.84 0.761719 309.826C0.761719 308.812 1.56181 307.996 2.55622 307.996H754.433C755.427 307.996 756.228 308.812 756.228 309.826C756.228 310.84 755.427 311.655 754.433 311.655H754.444Z" fill="#1E2B62"/>
<path fill-rule="evenodd" clip-rule="evenodd" d="M327.512 309.825L329.981 306.819C334.53 301.295 337.261 294.571 337.913 287.392L341.148 251.195H415.854L419.089 287.392C419.729 294.571 422.472 301.295 427.021 306.819L429.49 309.825H327.512Z" fill="white"/>
<path d="M414.218 253.026L417.304 287.556C417.979 295.072 420.882 302.204 425.648 307.996H331.351C336.105 302.204 339.02 295.084 339.694 287.556L342.781 253.026H414.218ZM417.487 249.378H339.5L339.203 252.699L336.117 287.229C335.511 294.035 332.905 300.41 328.596 305.654L323.658 311.655H433.318L428.38 305.654C424.071 300.41 421.476 294.047 420.859 287.229L417.773 252.699L417.476 249.378H417.487Z" fill="#1E2B62"/>
<path fill-rule="evenodd" clip-rule="evenodd" d="M340.496 260.146V266.287L417.774 269.235V260.146H340.496Z" fill="#1E2B62"/>
<path d="M408.699 299.478H348.314C347.32 299.478 346.52 298.662 346.52 297.648C346.52 296.634 347.32 295.818 348.314 295.818H408.699C409.693 295.818 410.493 296.634 410.493 297.648C410.493 298.662 409.693 299.478 408.699 299.478Z" fill="#1E2B62"/>
<path d="M574.125 12.1084H182.887C177.566 12.1084 173.252 16.5068 173.252 21.9325V249.67C173.252 255.095 177.566 259.494 182.887 259.494H574.125C579.446 259.494 583.76 255.095 583.76 249.67V21.9325C583.76 16.5068 579.446 12.1084 574.125 12.1084Z" fill="white"/>
<path d="M574.113 10.2783H182.887C176.578 10.2783 171.457 15.4992 171.457 21.9321V249.658C171.457 256.091 176.578 261.311 182.887 261.311H574.113C580.422 261.311 585.543 256.091 585.543 249.658V21.9321C585.543 15.4992 580.422 10.2783 574.113 10.2783ZM182.887 13.9376H574.113C578.434 13.9376 581.954 17.5269 581.954 21.9321V222.446H175.035V21.9321C175.035 17.5269 178.555 13.9376 182.876 13.9376H182.887ZM574.113 257.664H182.887C178.566 257.664 175.046 254.074 175.046 249.669V226.105H581.966V249.669C581.966 254.074 578.445 257.664 574.125 257.664H574.113Z" fill="#1E2B62"/>
<path d="M378.5 247.711C381.656 247.711 384.215 245.103 384.215 241.884C384.215 238.666 381.656 236.058 378.5 236.058C375.344 236.058 372.785 238.666 372.785 241.884C372.785 245.103 375.344 247.711 378.5 247.711Z" fill="#1E2B62"/>
<path d="M488.136 293.826C485.542 294.141 483.553 297.194 483.553 300.854V307.391C483.553 308.743 484.33 309.839 485.29 309.839H530.29C531.25 309.839 532.027 308.743 532.027 307.391V300.854C532.027 297.194 530.039 294.153 527.444 293.826C514.357 292.23 501.201 292.23 488.125 293.826H488.136Z" fill="white"/>
<path d="M530.301 311.656H485.301C483.324 311.656 481.77 309.78 481.77 307.379V300.841C481.77 296.238 484.421 292.439 487.93 292.008C501.121 290.4 514.494 290.4 527.672 292.008C531.181 292.439 533.833 296.238 533.833 300.841V307.379C533.833 309.78 532.279 311.656 530.301 311.656ZM485.496 307.997H530.107C530.176 307.892 530.244 307.671 530.244 307.379V300.841C530.244 298.173 528.895 295.83 527.238 295.632C514.334 294.059 501.246 294.059 488.342 295.632C486.684 295.83 485.336 298.173 485.336 300.841V307.379C485.336 307.671 485.416 307.892 485.473 307.997H485.496Z" fill="#1E2B62"/>
<path d="M635.066 222.098C634.472 221.9 633.797 222.191 633.603 222.809C632.986 224.708 632.654 226.736 632.654 228.857C632.654 237.9 638.701 245.487 646.885 247.701C647.73 245.498 648.211 243.121 648.211 240.616C648.211 231.98 642.701 224.673 635.077 222.098H635.066Z" fill="white"/>
<path d="M647.958 249.88L646.415 249.46C637.248 246.978 630.848 238.506 630.848 228.845C630.848 226.607 631.202 224.382 631.888 222.226C632.128 221.48 632.642 220.874 633.328 220.524C634.025 220.163 634.86 220.105 635.614 220.349C644.209 223.251 649.981 231.386 649.981 240.604C649.981 243.237 649.49 245.848 648.541 248.353L647.958 249.868V249.88ZM635.1 224.044C634.665 225.617 634.437 227.225 634.437 228.845C634.437 236.28 639.009 242.864 645.741 245.405C646.187 243.832 646.404 242.223 646.404 240.604C646.404 233.192 641.889 226.607 635.1 224.044Z" fill="#1E2B62"/>
<path d="M628.391 234.147C627.808 234.112 627.294 234.544 627.214 235.126C627.008 236.665 626.973 238.238 627.145 239.846C628.185 249.787 636.369 257.164 645.924 257.28C646.267 255.427 646.37 253.504 646.153 251.535C645.147 241.955 637.501 234.753 628.391 234.136V234.147Z" fill="white"/>
<path d="M647.41 259.133L645.913 259.11C635.328 258.982 626.493 250.777 625.361 240.044C625.179 238.331 625.213 236.595 625.441 234.882C625.647 233.343 626.996 232.213 628.516 232.33C638.689 233.005 646.861 241.012 647.947 251.348C648.164 253.434 648.084 255.555 647.696 257.63L647.41 259.133ZM628.916 236.024C628.802 237.236 628.802 238.448 628.928 239.66C629.808 248.027 636.323 254.53 644.392 255.369C644.507 254.157 644.507 252.945 644.381 251.733C643.501 243.377 637.054 236.863 628.916 236.024Z" fill="#1E2B62"/>
<path d="M667.379 222.098C667.973 221.9 668.648 222.191 668.842 222.809C669.459 224.708 669.791 226.736 669.791 228.857C669.791 237.9 663.744 245.487 655.56 247.701C654.714 245.498 654.234 243.121 654.234 240.616C654.234 231.98 659.744 224.673 667.367 222.098H667.379Z" fill="white"/>
<path d="M654.474 249.88L653.891 248.365C652.931 245.86 652.451 243.261 652.451 240.616C652.451 231.397 658.223 223.263 666.819 220.361C668.373 219.837 670.042 220.676 670.545 222.226C671.242 224.382 671.585 226.608 671.585 228.845C671.585 238.506 665.184 246.978 656.017 249.461L654.474 249.88ZM667.333 224.044C660.544 226.619 656.029 233.192 656.029 240.604C656.029 242.224 656.246 243.832 656.692 245.405C663.424 242.853 667.996 236.269 667.996 228.845C667.996 227.225 667.779 225.617 667.333 224.044Z" fill="#1E2B62"/>
<path d="M674.042 234.147C674.625 234.112 675.139 234.544 675.219 235.126C675.425 236.665 675.459 238.238 675.288 239.846C674.248 249.787 666.064 257.164 656.508 257.28C656.166 255.427 656.063 253.504 656.28 251.535C657.286 241.955 664.932 234.753 674.054 234.136L674.042 234.147Z" fill="white"/>
<path d="M655.034 259.133L654.748 257.629C654.359 255.555 654.268 253.446 654.497 251.348C655.582 240.999 663.755 233.005 673.928 232.329C675.425 232.224 676.796 233.355 677.002 234.893C677.231 236.594 677.254 238.342 677.082 240.055C675.951 250.8 667.127 258.993 656.531 259.121L655.034 259.144V259.133ZM673.516 236.023C665.378 236.862 658.92 243.377 658.051 251.733C657.926 252.944 657.926 254.156 658.04 255.368C666.109 254.529 672.625 248.027 673.505 239.659C673.63 238.447 673.63 237.235 673.516 236.023Z" fill="#1E2B62"/>
<path d="M652.13 213.333C651.685 212.704 650.736 212.704 650.302 213.333C645.798 219.755 643.146 227.621 643.146 236.116C643.146 245.171 646.164 253.515 651.216 260.146C656.268 253.504 659.286 245.171 659.286 236.116C659.286 227.621 656.634 219.755 652.13 213.333Z" fill="white"/>
<path d="M651.216 263.13L649.798 261.266C644.266 254.005 641.352 245.3 641.352 236.105C641.352 227.505 643.946 219.254 648.838 212.262C649.387 211.481 650.267 211.015 651.216 211.015C652.164 211.015 653.044 211.481 653.593 212.262C658.497 219.254 661.08 227.493 661.08 236.105C661.08 245.3 658.154 253.994 652.633 261.254L651.216 263.118V263.13ZM651.216 215.198C647.101 221.398 644.929 228.612 644.929 236.128C644.929 243.645 647.089 250.87 651.216 257.059C655.33 250.87 657.502 243.68 657.502 236.128C657.502 228.577 655.33 221.398 651.216 215.198Z" fill="#1E2B62"/>
<path d="M623.292 256.988C619.612 262.675 617.554 269.563 617.806 276.94C618.389 294.304 632.082 308.684 649.09 309.756C668.521 310.98 684.648 295.283 684.648 275.739C684.648 268.677 682.545 262.128 678.933 256.685C676.853 253.551 673.31 251.756 669.595 251.756H632.848C629.007 251.756 625.418 253.725 623.292 256.988Z" fill="white"/>
<path d="M680.419 255.66C678.042 252.071 673.996 249.927 669.595 249.927H632.848C628.39 249.927 624.252 252.188 621.806 255.987C617.772 262.221 615.76 269.493 616.023 277.01C616.64 295.271 631.122 310.456 648.987 311.587C649.741 311.633 650.507 311.657 651.25 311.657C660.257 311.657 668.738 308.242 675.344 301.914C682.397 295.155 686.443 285.61 686.443 275.74C686.443 268.549 684.363 261.604 680.419 255.66ZM624.79 257.991C626.584 255.229 629.59 253.574 632.848 253.574H669.595C672.796 253.574 675.733 255.113 677.448 257.7C680.077 261.662 681.78 266.125 682.477 270.81C680.225 271.486 678.842 273.153 677.688 274.563C676.248 276.322 675.345 277.313 673.493 277.313C671.641 277.313 670.738 276.322 669.298 274.563C667.812 272.756 665.972 270.496 662.349 270.496C658.725 270.496 656.885 272.745 655.399 274.563C653.959 276.322 653.056 277.313 651.204 277.313C649.353 277.313 648.438 276.322 647.01 274.563C645.535 272.756 643.683 270.496 640.06 270.496C636.437 270.496 634.597 272.756 633.111 274.563C631.671 276.322 630.779 277.313 628.916 277.313C627.053 277.313 626.161 276.322 624.721 274.563C623.578 273.153 622.195 271.498 619.955 270.822C620.641 266.254 622.252 261.895 624.778 257.991H624.79ZM672.887 299.245C666.463 305.41 658.062 308.498 649.204 307.927C633.156 306.914 620.161 293.267 619.6 276.87C619.578 276.113 619.578 275.344 619.6 274.598C620.412 275.052 621.098 275.833 621.966 276.905C623.441 278.711 625.293 280.972 628.916 280.972C632.539 280.972 634.379 278.723 635.865 276.905C637.305 275.145 638.197 274.155 640.06 274.155C641.923 274.155 642.815 275.145 644.255 276.905C645.729 278.711 647.581 280.972 651.204 280.972C654.828 280.972 656.668 278.723 658.154 276.905C659.594 275.145 660.497 274.155 662.349 274.155C664.2 274.155 665.103 275.145 666.543 276.905C668.029 278.711 669.87 280.972 673.493 280.972C677.116 280.972 678.968 278.723 680.442 276.905C681.311 275.833 681.997 275.052 682.808 274.609C682.82 274.982 682.854 275.367 682.854 275.74C682.854 284.736 679.311 293.081 672.876 299.245H672.887Z" fill="#1E2B62"/>
<path d="M673.504 274.154C674.495 274.154 675.298 273.335 675.298 272.325C675.298 271.314 674.495 270.495 673.504 270.495C672.512 270.495 671.709 271.314 671.709 272.325C671.709 273.335 672.512 274.154 673.504 274.154Z" fill="#1E2B62"/>
<path d="M662.361 280.983C663.352 280.983 664.155 280.164 664.155 279.154C664.155 278.143 663.352 277.324 662.361 277.324C661.37 277.324 660.566 278.143 660.566 279.154C660.566 280.164 661.37 280.983 662.361 280.983Z" fill="#1E2B62"/>
<path d="M651.216 274.154C652.207 274.154 653.011 273.335 653.011 272.325C653.011 271.314 652.207 270.495 651.216 270.495C650.225 270.495 649.422 271.314 649.422 272.325C649.422 273.335 650.225 274.154 651.216 274.154Z" fill="#1E2B62"/>
<path d="M640.072 280.983C641.063 280.983 641.866 280.164 641.866 279.154C641.866 278.143 641.063 277.324 640.072 277.324C639.081 277.324 638.277 278.143 638.277 279.154C638.277 280.164 639.081 280.983 640.072 280.983Z" fill="#1E2B62"/>
<path d="M628.927 274.154C629.918 274.154 630.722 273.335 630.722 272.325C630.722 271.314 629.918 270.495 628.927 270.495C627.936 270.495 627.133 271.314 627.133 272.325C627.133 273.335 627.936 274.154 628.927 274.154Z" fill="#1E2B62"/>
<path d="M233.008 204.593V11.6537C233.008 6.23471 237.328 1.82959 242.643 1.82959H511.614C516.929 1.82959 521.249 6.23471 521.249 11.6537V204.593H232.996H233.008Z" fill="white"/>
<path d="M511.625 0H242.655C236.345 0 231.225 5.22087 231.225 11.6537V206.411H523.055V11.6537C523.055 5.22087 517.935 0 511.625 0ZM242.655 3.65927H511.625C515.946 3.65927 519.466 7.24862 519.466 11.6537V20.5455H234.802V11.6537C234.802 7.24862 238.323 3.65927 242.643 3.65927H242.655ZM234.802 202.763V24.2048H519.466V202.763H234.802Z" fill="#1E2B62"/>
<path d="M245.089 15.6041C246.983 15.6041 248.518 14.0388 248.518 12.1079C248.518 10.1771 246.983 8.61182 245.089 8.61182C243.195 8.61182 241.66 10.1771 241.66 12.1079C241.66 14.0388 243.195 15.6041 245.089 15.6041Z" fill="#1E2B62"/>
<path d="M258.806 15.6041C260.7 15.6041 262.235 14.0388 262.235 12.1079C262.235 10.1771 260.7 8.61182 258.806 8.61182C256.912 8.61182 255.377 10.1771 255.377 12.1079C255.377 14.0388 256.912 15.6041 258.806 15.6041Z" fill="#1E2B62"/>
<path d="M272.521 15.6041C274.415 15.6041 275.95 14.0388 275.95 12.1079C275.95 10.1771 274.415 8.61182 272.521 8.61182C270.627 8.61182 269.092 10.1771 269.092 12.1079C269.092 14.0388 270.627 15.6041 272.521 15.6041Z" fill="#1E2B62"/>
<g clip-path="url(#clip0_3073_37200)">
<path d="M258.4 55.3589C256.922 55.0157 255.511 54.4948 254.24 53.6354C250.038 50.7931 249.896 44.6406 253.972 41.6087C256.103 40.0195 258.582 39.3642 261.141 38.9849C262.99 38.7089 264.853 38.572 266.73 38.6993C267.376 38.7425 267.602 39.0017 267.569 39.6475C267.536 40.3436 267.126 40.2692 266.647 40.2668C264.713 40.2596 262.806 40.4468 260.969 41.1262C257.879 42.2688 256.313 44.3669 256.327 47.3724C256.342 50.4259 257.867 52.3823 261.084 53.4793C261.843 53.5393 262.636 53.4265 263.298 53.9522C264.343 54.1827 265.402 54.2019 266.461 54.1683C267.058 54.1491 267.249 54.3867 267.232 54.9653C267.216 55.4814 267.239 55.8439 266.522 55.9087C264.369 56.1055 262.237 55.9303 260.103 55.7238C259.483 55.8463 258.891 55.8438 258.398 55.3565L258.4 55.3589Z" fill="#00A5F3"/>
<path d="M275.302 55.8612C274.187 55.8612 273.069 55.83 271.953 55.8732C271.258 55.8996 271.008 55.7124 271.116 54.949C271.793 50.2056 272.434 45.4549 273.088 40.7067C273.104 40.5938 273.128 40.4834 273.142 40.3706C273.368 38.6302 273.368 38.6518 275.076 38.6854C275.717 38.6974 275.915 38.9423 275.826 39.5688C275.458 42.123 275.104 44.6795 274.75 47.2361C274.486 49.1469 274.243 51.0602 273.953 52.9662C273.88 53.4415 274.007 53.5567 274.451 53.5519C275.986 53.5327 277.521 53.5687 279.056 53.5327C279.71 53.5183 279.96 53.7055 279.879 54.4089C279.719 55.8108 279.698 55.8612 278.318 55.8612C277.314 55.8612 276.309 55.8612 275.304 55.8612H275.302Z" fill="#00A5F3"/>
<path d="M296.447 55.8607C295.195 55.8607 295.197 55.8343 295.376 54.5716C296.081 49.5761 296.78 44.5782 297.447 39.5779C297.532 38.9417 297.758 38.6417 298.39 38.6969C298.501 38.7065 298.614 38.6969 298.725 38.6969C300.135 38.6921 300.102 38.6873 299.899 40.1228C299.22 44.9503 298.572 49.7801 297.895 54.6076C297.718 55.8631 297.692 55.8607 296.447 55.8583V55.8607Z" fill="#00A5F3"/>
<path d="M263.3 53.9549C262.543 53.89 261.803 53.7436 261.086 53.4819C262.965 52.3993 264.251 50.839 264.743 48.6737C264.875 48.0928 264.482 47.7879 263.998 47.6054C263.017 47.2382 261.984 47.1998 260.956 47.1614C260.442 47.1421 259.928 47.1589 259.404 47.0845C260.991 46.3812 262.623 45.8891 264.324 45.6178C265.21 45.4762 266.088 45.4138 266.977 45.625C268.184 45.9131 268.797 46.8757 268.521 48.0976C268.09 49.9988 266.689 51.1678 265.366 52.3753C264.727 52.9586 263.993 53.4339 263.303 53.9573L263.3 53.9549Z" fill="#80D2F8"/>
<path d="M258.401 55.3594C258.969 55.4818 259.537 55.6042 260.106 55.7267C258.023 56.9221 255.823 57.8391 253.555 58.5953C253.375 58.6649 253.347 58.5785 253.382 58.4249C254.804 57.6399 256.231 56.8645 257.641 56.0579C257.934 55.8899 258.351 55.8179 258.401 55.3594Z" fill="#82D3F8"/>
<path d="M253.075 58.7818C252.854 58.9499 252.606 59.0387 252.307 59.0435C252.406 58.7314 252.679 58.7218 252.887 58.6162C252.95 58.669 253.054 58.6786 253.073 58.7842L253.075 58.7818Z" fill="#A3DEFA"/>
<path d="M253.075 58.7825C253.014 58.7273 252.95 58.6697 252.889 58.6144C253.054 58.552 253.219 58.4872 253.384 58.4248C253.441 58.4824 253.499 58.54 253.556 58.5952C253.436 58.7633 253.252 58.7657 253.075 58.7801V58.7825Z" fill="#97DAF9"/>
<path d="M289.135 38.6831C287.854 38.7575 286.567 38.7167 285.281 38.6855C284.602 38.6687 284.3 38.8871 284.204 39.6289C283.553 44.61 282.855 49.5815 282.164 54.5578C281.982 55.8613 281.966 55.8589 283.213 55.8589C284.546 55.8589 284.546 55.8541 284.713 54.5314C284.824 53.6576 284.965 52.791 285.062 51.9148C285.307 49.6871 285.3 49.6871 287.453 49.6871C287.564 49.6871 287.677 49.6871 287.788 49.6871C291.059 49.6871 293.479 47.5338 293.91 44.2403C294.25 41.6477 292.712 38.4718 289.135 38.6807V38.6831ZM287.89 47.2314C287.696 47.2122 287.501 47.229 287.305 47.229C285.737 47.229 285.725 47.229 285.911 45.6542C286.067 44.3603 286.274 43.0713 286.423 41.7774C286.477 41.3141 286.661 41.1508 287.116 41.1748C287.755 41.2084 288.399 41.1796 289.041 41.1844C290.312 41.1964 291.109 41.9262 291.304 43.2129C291.571 44.9701 290.38 47.4714 287.89 47.2314Z" fill="#00A5F3"/>
</g>
<path d="M377.14 54.5283C344.462 54.5283 318.104 82.171 319.362 115.78C320.505 146.336 344.919 171.24 374.888 172.394C407.853 173.676 434.965 146.803 434.965 113.485H377.14V54.5283Z" fill="#1E2B62"/>
<path d="M382.912 48.6309V107.587H440.737C440.737 75.0266 414.848 48.6309 382.912 48.6309Z" fill="#FFE02E"/>
<path d="M332.072 159.329H299.999C299.21 159.329 298.456 158.863 298.227 158.094C297.839 156.835 298.753 155.67 299.931 155.67H332.083C332.826 155.67 333.523 155.367 334.049 154.842L340.427 148.34C341.296 147.442 342.85 147.664 343.387 149.004C343.65 149.668 343.422 150.449 342.919 150.962L336.587 157.418C335.398 158.63 333.775 159.317 332.083 159.317L332.072 159.329Z" fill="#1E2B62"/>
<path d="M418.311 73.3361C417.613 73.3361 416.916 72.9165 416.596 72.0891C416.356 71.4365 416.585 70.6907 417.065 70.1896L423.42 63.7101C424.609 62.4981 426.232 61.8105 427.923 61.8105H459.996C460.785 61.8105 461.539 62.2767 461.768 63.0458C462.156 64.3044 461.242 65.4698 460.064 65.4698H427.912C427.169 65.4698 426.472 65.7728 425.946 66.2972L419.568 72.8C419.214 73.1613 418.756 73.3361 418.299 73.3361H418.311Z" fill="#1E2B62"/>
<path d="M457.109 161.557C457.109 163.561 455.521 165.181 453.555 165.181C451.589 165.181 450 163.561 450 161.557C450 159.552 451.589 157.933 453.555 157.933C455.521 157.933 457.109 159.552 457.109 161.557Z" fill="#98E0FF"/>
<path d="M457.109 176.054C457.109 178.058 455.521 179.678 453.555 179.678C451.589 179.678 450 178.058 450 176.054C450 174.05 451.589 172.43 453.555 172.43C455.521 172.43 457.109 174.05 457.109 176.054Z" fill="#00A5F3"/>
<path d="M499.113 163.387H464.903C464.115 163.387 463.36 162.921 463.132 162.152C462.743 160.893 463.658 159.728 464.835 159.728H499.045C499.833 159.728 500.588 160.194 500.816 160.963C501.205 162.221 500.291 163.387 499.113 163.387Z" fill="#1E2B62"/>
<path d="M499.113 177.884H464.903C464.115 177.884 463.36 177.418 463.132 176.649C462.743 175.39 463.658 174.225 464.835 174.225H499.045C499.833 174.225 500.588 174.691 500.816 175.46C501.205 176.719 500.291 177.884 499.113 177.884Z" fill="#1E2B62"/>
<path d="M287.185 159.328H260.908C259.913 159.328 259.113 158.512 259.113 157.499C259.113 156.485 259.913 155.669 260.908 155.669H287.185C288.18 155.669 288.98 156.485 288.98 157.499C288.98 158.512 288.18 159.328 287.185 159.328Z" fill="#00A5F3"/>
<path d="M287.185 166.636H260.908C259.913 166.636 259.113 165.82 259.113 164.806C259.113 163.792 259.913 162.977 260.908 162.977H287.185C288.18 162.977 288.98 163.792 288.98 164.806C288.98 165.82 288.18 166.636 287.185 166.636Z" fill="#00A5F3"/>
<path d="M277.756 173.954H260.908C259.913 173.954 259.113 173.138 259.113 172.125C259.113 171.111 259.913 170.295 260.908 170.295H277.756C278.75 170.295 279.55 171.111 279.55 172.125C279.55 173.138 278.75 173.954 277.756 173.954Z" fill="#00A5F3"/>
<path d="M499.074 65.4698H472.796C471.802 65.4698 471.002 64.654 471.002 63.6402C471.002 62.6263 471.802 61.8105 472.796 61.8105H499.074C500.068 61.8105 500.869 62.6263 500.869 63.6402C500.869 64.654 500.068 65.4698 499.074 65.4698Z" fill="#1E2B62"/>
<path d="M489.644 72.7764H472.796C471.802 72.7764 471.002 71.9607 471.002 70.9468C471.002 69.933 471.802 69.1172 472.796 69.1172H489.644C490.639 69.1172 491.439 69.933 491.439 70.9468C491.439 71.9607 490.639 72.7764 489.644 72.7764Z" fill="#1E2B62"/>
<g clip-path="url(#clip1_3073_37200)">
<path d="M117.432 252.731C116.955 252.671 116.474 252.833 116.112 253.165C115.754 253.494 115.547 253.96 115.547 254.452V285.424C115.547 285.916 115.754 286.382 116.112 286.711C116.427 286.998 116.832 287.155 117.25 287.155C117.31 287.155 117.369 287.155 117.432 287.145C126.909 286.117 134.057 278.72 134.057 269.94C134.057 261.16 126.909 253.759 117.432 252.734V252.731ZM118.956 283.39V256.483C125.743 257.999 130.651 263.51 130.651 269.936C130.651 276.363 125.743 281.874 118.956 283.39Z" fill="#1E2B62"/>
<path d="M118.957 243.795V237.78C118.957 234.572 116.208 231.96 112.836 231.96H51.1209C47.7462 231.96 45 234.572 45 237.78V293.792C45 303.766 53.6944 311.879 64.3808 311.879H99.5762C109.43 311.879 117.581 305.062 118.8 296.101C133.043 294.469 144 283.228 144 269.937C144 256.646 133.125 245.487 118.957 243.795ZM117.122 292.78C116.258 292.838 115.576 293.546 115.532 294.424C115.168 302.141 108.01 308.418 99.573 308.418H64.3808C55.5702 308.418 48.4061 301.857 48.4061 293.792V237.78C48.4061 236.5 49.6504 235.421 51.1209 235.421H112.833C114.303 235.421 115.548 236.503 115.548 237.78V245.372C115.548 246.282 116.245 247.039 117.138 247.1C130.288 247.994 140.591 258.025 140.591 269.94C140.591 281.855 130.281 291.896 117.122 292.783V292.78Z" fill="#1E2B62"/>
<path d="M76.8938 225.721C76.3784 226.523 76.6015 227.592 77.3871 228.116C77.673 228.307 77.9967 228.397 78.3172 228.397C78.8733 228.397 79.4169 228.122 79.7437 227.615C83.951 221.073 80.5261 214.959 77.5065 209.56C73.8144 202.964 71.3761 198.606 79.6117 193.785C80.4255 193.309 80.7052 192.249 80.237 191.422C79.7688 190.596 78.7319 190.311 77.9118 190.787C66.7446 197.326 71.0713 205.058 74.5466 211.271C77.3305 216.249 79.9636 220.948 76.8938 225.721Z" fill="#1E2B62"/>
<path d="M52.7206 240.245C51.7811 240.245 51.0176 241.018 51.0176 241.976V279.237C51.0176 280.192 51.778 280.968 52.7206 280.968C53.6633 280.968 54.4237 280.195 54.4237 279.237V241.976C54.4237 241.021 53.6633 240.245 52.7206 240.245Z" fill="#1E2B62"/>
<path d="M80.3868 208.606C82.7088 211.68 84.0379 213.73 82.8691 216.246C82.4669 217.111 82.8314 218.142 83.6797 218.548C83.9154 218.66 84.1605 218.714 84.4056 218.714C85.0434 218.714 85.6562 218.347 85.9452 217.721C88.0851 213.114 85.3137 209.442 83.0859 206.495C80.17 202.636 79.1362 200.95 82.9351 197.952C83.6766 197.364 83.8117 196.279 83.2367 195.525C82.6617 194.772 81.5902 194.632 80.8487 195.219C74.225 200.449 77.7851 205.161 80.3868 208.603V208.606Z" fill="#1E2B62"/>
<path d="M117.141 247.1C116.245 247.039 115.551 246.286 115.551 245.372V237.78C115.551 236.5 114.307 235.421 112.836 235.421H51.1211C49.6474 235.421 48.4062 236.503 48.4062 237.78V293.792C48.4062 301.857 55.5735 308.418 64.381 308.418H99.5763C108.013 308.418 115.171 302.141 115.535 294.424C115.576 293.547 116.261 292.838 117.125 292.78C130.285 291.893 140.594 281.861 140.594 269.937C140.594 258.012 130.291 247.99 117.141 247.096V247.1ZM54.4235 279.234C54.4235 280.188 53.6631 280.964 52.7204 280.964C51.7778 280.964 51.0174 280.192 51.0174 279.234V241.972C51.0174 241.018 51.7778 240.242 52.7204 240.242C53.6631 240.242 54.4235 241.014 54.4235 241.972V279.234ZM117.433 287.145C117.373 287.152 117.314 287.155 117.251 287.155C116.833 287.155 116.428 286.998 116.113 286.711C115.755 286.382 115.548 285.916 115.548 285.424V254.452C115.548 253.961 115.755 253.495 116.113 253.166C116.472 252.837 116.952 252.671 117.433 252.732C126.91 253.756 134.058 261.154 134.058 269.937C134.058 278.72 126.91 286.117 117.433 287.142V287.145Z" fill="white"/>
</g>
<defs>
<clipPath id="clip0_3073_37200">
<rect width="49" height="20.3901" fill="white" transform="translate(251 38.6514)"/>
</clipPath>
<clipPath id="clip1_3073_37200">
<rect width="99" height="121.321" fill="white" transform="translate(45 190.558)"/>
</clipPath>
</defs>
</svg>
