<svg width="149" height="130" viewBox="0 0 149 130" fill="none" xmlns="http://www.w3.org/2000/svg">
<g clip-path="url(#clip0_3214_5030)">
<path d="M83.8711 15.7316L84.3705 7.86191C84.6389 3.5979 81.2694 -0.0078125 77.0129 -0.0078125H24.6527C20.7615 -0.0078125 17.5412 3.02188 17.2952 6.91934L10.9291 118.173C10.6607 122.437 14.0301 126.042 18.2866 126.042L136.283 128.526C140.175 128.526 143.395 125.496 143.641 121.599L148.986 23.5939C149.254 19.3299 145.885 15.7241 141.628 15.7241H83.8785L83.8711 15.7316Z" fill="#00A5F3"/>
<path d="M127.052 121.397L133.411 40.8968L121.901 28.374H36.8308C32.4997 28.374 28.9141 31.7329 28.6085 36.0642L22.6523 121.397H127.052Z" fill="white"/>
<path d="M128.089 122.52H21.4531L27.4912 35.9826C27.8342 31.0827 31.9341 27.2451 36.8317 27.2451H122.394L134.567 40.4935L128.089 122.52ZM23.8535 120.275H126.024L132.264 41.2939L121.418 29.4893H36.8317C33.1045 29.4893 29.9885 32.4068 29.7276 36.1397L23.8535 120.275Z" fill="#1E2B62"/>
<path d="M133.421 42.0194C133.421 42.0194 133.398 42.0194 133.383 42.0194L120.383 41.6304C120.077 41.623 119.786 41.4883 119.578 41.2564C119.376 41.0245 119.272 40.7178 119.302 40.4111L120.271 29.1227C120.323 28.5018 120.86 28.0529 121.479 28.0978C122.097 28.1502 122.552 28.6963 122.5 29.3097L121.635 39.4161L133.45 39.7677C134.069 39.7902 134.554 40.3064 134.531 40.9198C134.516 41.5257 134.017 42.012 133.413 42.012L133.421 42.0194Z" fill="#1E2B62"/>
<path d="M109.937 57.213H43.6299C43.0112 57.213 42.5117 56.7118 42.5117 56.0909C42.5117 55.47 43.0112 54.9688 43.6299 54.9688H109.93C110.549 54.9688 111.048 55.47 111.048 56.0909C111.048 56.7118 110.549 57.213 109.93 57.213H109.937Z" fill="#00A5F3"/>
<path d="M110.551 49.2081H44.251C43.6323 49.2081 43.1328 48.7069 43.1328 48.086C43.1328 47.4651 43.6323 46.9639 44.251 46.9639H110.551C111.17 46.9639 111.669 47.4651 111.669 48.086C111.669 48.7069 111.17 49.2081 110.551 49.2081Z" fill="#00A5F3"/>
<path d="M111.779 41.1964H80.4697C79.851 41.1964 79.3516 40.6952 79.3516 40.0743C79.3516 39.4534 79.851 38.9521 80.4697 38.9521H111.779C112.397 38.9521 112.897 39.4534 112.897 40.0743C112.897 40.6952 112.397 41.1964 111.779 41.1964Z" fill="#00A5F3"/>
<path d="M63.8936 41.1964H45.4736C44.8549 41.1964 44.3555 40.6952 44.3555 40.0743C44.3555 39.4534 44.8549 38.9521 45.4736 38.9521H63.8936C64.5124 38.9521 65.0118 39.4534 65.0118 40.0743C65.0118 40.6952 64.5124 41.1964 63.8936 41.1964Z" fill="#00A5F3"/>
<path d="M136.036 128.878H17.8824C14.2222 128.878 11.1137 126.746 10.5844 123.881L1.1918 72.7428C0.543266 69.2194 3.99469 66.0625 8.48973 66.0625H126.643C130.303 66.0625 133.412 68.1945 133.941 71.0596L143.334 122.19C143.982 125.714 140.531 128.871 136.036 128.871V128.878Z" fill="#00A5F3"/>
<path d="M136.036 130H52.6057C51.987 130 51.4875 129.499 51.4875 128.878C51.4875 128.257 51.987 127.756 52.6057 127.756H136.036C138.198 127.756 140.181 126.918 141.344 125.519C141.888 124.861 142.484 123.784 142.231 122.4L132.838 71.2691C132.413 68.9426 129.745 67.1921 126.643 67.1921H8.49011C6.32831 67.1921 4.34542 68.03 3.18253 69.4289C2.63835 70.0872 2.04199 71.1644 2.29544 72.5483L6.70104 96.524C6.81285 97.13 6.41031 97.721 5.8065 97.8332C5.20269 97.9454 4.61378 97.5414 4.50197 96.9355L0.0963745 72.9448C-0.224168 71.1943 0.260373 69.4363 1.468 67.9851C3.04835 66.0775 5.67232 64.9404 8.49011 64.9404H126.643C130.878 64.9404 134.411 67.4315 135.037 70.8577L144.43 121.988C144.75 123.739 144.266 125.497 143.058 126.948C141.478 128.856 138.854 129.993 136.036 129.993V130Z" fill="#1E2B62"/>
</g>
<defs>
<clipPath id="clip0_3214_5030">
<rect width="149" height="130" fill="white"/>
</clipPath>
</defs>
</svg>
