<svg width="479" height="543" viewBox="0 0 479 543" fill="none" xmlns="http://www.w3.org/2000/svg">
<g clip-path="url(#clip0_3073_38060)">
<path d="M476.94 542.34L9.75456 543C9.70177 542.815 6.61359 541.707 8.76476 540.361C15.0203 538.131 121.879 542.208 141.728 540.361C146.69 539.899 146.4 540.07 142.388 539.041C120.48 533.433 59.3634 517.36 51.3262 494.505C45.9681 479.264 50.0461 458.52 66.1732 451.949C99.6549 438.318 136.066 465.211 169.112 461.186C173.824 434.293 174.972 406.965 173.402 379.702H172.082C165.232 402.781 144.909 442.316 116.323 419.619C103.337 409.313 63.8901 344.852 63.2038 340.115C62.28 333.834 66.3976 335.061 66.5031 332.857C66.5427 332.105 60.9735 319.635 60.5643 319.002C59.9573 318.078 53.3058 313.552 50.0065 307.785C48.8451 305.753 39.607 280.285 39.4486 278.754C38.5512 270.204 44.5296 269.715 44.7275 268.858C38.3004 255.464 46.496 256.203 48.0269 254.342C52.7779 236.66 64.2596 257.404 65.5133 265.229C88.7539 240.764 105.013 281.209 80.6903 269.187C71.7029 278.57 82.5511 284.97 83.9896 285.022C87.5001 285.141 87.223 273.384 91.2482 272.486C101.542 270.19 96.1708 301.596 87.6189 313.723C101.12 324.755 110.266 340.247 123.582 351.661C131.197 322.063 135.908 270.309 163.504 254.342C166.051 225.707 200.667 201.097 185.279 171.209C186.454 139.473 175.012 116.684 203.426 93.6838C224.383 76.714 257.957 75.1833 279.97 91.0446C311.855 114.018 300.518 137.441 301.416 171.209C286.305 201.493 320.71 225.404 323.191 254.342C353.308 272.539 353.466 321.298 364.433 351.661L389.178 322.96C407.034 309.039 395.684 315.465 391.158 294.589C390.062 289.549 388.452 278.055 391.818 274.136C397.664 267.314 400.013 282.66 400.396 283.373C402.296 286.883 409.911 281.948 409.634 276.115C409.001 262.537 398.416 276.947 394.457 269.517C390.735 262.55 407.522 248.497 421.182 265.229C423.175 256.691 434.432 236.317 438.668 255.002C446.362 255.794 444.884 263.5 441.968 268.858C455.178 270.877 436.082 315.742 426.131 319.002C426.329 322.894 421.195 329.941 420.852 331.538C419.756 336.644 425.51 333.187 423.491 340.775C422.092 346.04 378.224 423.103 358.494 426.217C333.644 430.15 321.581 397.846 313.953 379.702C311.142 406.899 313.32 434.293 317.583 461.186C339.398 465.29 359.788 453.005 379.61 449.97C408.605 445.523 441.426 448.953 437.348 486.588C433.983 517.69 367.812 532.958 342.328 540.031L478.59 540.361C479.54 542.102 478.801 542.604 476.94 542.34Z" fill="#1E2B62"/>
<path d="M141.729 540.361L142.388 539.041C146.4 540.07 146.691 539.899 141.729 540.361Z" fill="#98E0FF"/>
<path d="M434.71 477.681C435.383 488.937 433.628 496.564 425.142 504.072C406.811 520.29 339.108 542.499 312.964 540.361C328.537 522.111 293.142 501.578 278.651 502.753C276.936 502.898 238.611 516.991 258.195 502.753C260.597 501.011 278.097 493.595 283.6 490.877C318.481 480.901 417.342 424.172 434.71 477.681Z" fill="#3A80B3"/>
<path d="M160.205 464.485C164.732 467.731 169.312 463.825 174.722 466.464C174.696 467.797 173.337 468.932 176.372 470.423C177.705 471.083 189.939 472.877 192.209 473.062C197.422 473.471 290.014 473.471 295.148 473.062C321.648 470.924 310.233 465.29 310.655 464.155C311.645 461.489 325.476 466.174 334.74 463.825C321.701 470.581 261.323 496.92 256.216 500.773C252.468 503.597 250.132 509.179 249.617 509.35C249.142 509.509 240.181 508.862 239.719 508.691C238.994 508.413 237.832 504.56 234.44 502.093C229.861 498.767 163.148 470.053 151.957 463.825C152.313 463.627 155.415 464.683 160.205 464.485Z" fill="#3A80B3"/>
<path d="M179.01 463.825C180.343 463.244 204.098 465.105 208.044 465.145C241.487 465.422 274.889 465.184 308.344 463.825C312.172 470.726 304.702 467.837 294.487 470.423C278.188 469.314 185.398 472.468 178.35 468.444C176.793 467.559 177.981 464.261 179.01 463.825Z" fill="#3A80B3"/>
<path d="M201.776 490.217C207.372 492.922 236.221 504.336 236.749 509.021C237.04 511.686 226.125 534.027 224.872 539.371L159.215 540.361C134.562 535.373 58.5852 517.163 52.6464 489.887C51.9997 486.891 51.7489 480.188 51.9865 477.021C53.8341 477.087 54.0189 471.479 57.2654 466.794C80.5587 433.119 171.964 481.072 201.776 490.217Z" fill="#3A80B3"/>
<path d="M201.776 490.216C171.963 481.072 80.5586 433.118 57.2653 466.794C54.0187 471.478 53.834 477.087 51.9863 477.021C53.1213 461.872 64.1015 452.952 78.7109 451.289C116.205 447.014 168.202 473.999 201.776 490.216Z" fill="#F0F9FD"/>
<path d="M434.709 477.681C417.341 424.172 318.48 480.901 283.6 490.877C316.54 474.593 370.768 447.37 407.325 451.289C423.307 453.005 433.746 461.318 434.709 477.681Z" fill="#F0F9FD"/>
<path d="M174.722 466.465C169.311 463.826 164.732 467.731 160.205 464.485C166.315 464.235 173.35 462.506 175.052 463.166C176.9 464.221 174.749 465.501 174.722 466.465Z" fill="#F0F9FD"/>
<path d="M357.505 358.919C353.955 363.762 349.045 367.721 353.546 368.156C351.869 372.115 353.11 373.329 356.845 369.806C364.169 362.891 388.228 333.095 397.757 322.631C407.008 330.548 410.057 332.686 421.512 338.136C391.29 389.454 350.576 482.643 314.613 371.785C313.822 363.656 320.42 315.597 320.552 301.847C320.592 297.941 321.159 295.593 318.903 296.239C315.973 327.751 311.802 359.605 310.654 391.249C309.836 386.855 307.619 399.984 307.355 403.455C306.484 415.186 309.466 457.491 311.644 459.867C311.763 459.999 313.056 459.788 313.954 459.867C313.822 460.329 311.38 461.107 310.984 461.186C301.891 463.152 196.999 463.02 182.31 461.846C180.594 461.714 173.56 461.068 172.742 459.867C175.843 460.078 177.269 448.149 178.021 442.382C183.313 401.924 174.51 346.924 170.762 305.146L169.443 306.136C167.965 294.26 166.447 291.251 166.143 299.868C165.827 308.802 172.425 355.792 172.082 372.445C166.5 390.378 151.468 431.245 126.221 422.919C108.642 417.112 74.8704 356.029 65.1836 338.136C76.9424 332.607 79.4103 330.786 88.9388 322.631C101.014 335.906 117.445 357.098 129.191 369.146C134.707 374.807 132.978 371.152 133.81 368.156C133.849 368.024 135.591 367.773 135.13 365.847C135.011 365.332 130.906 361.176 128.531 357.599C136.185 333.834 141.992 274.704 164.494 261.27C171.488 257.087 188.777 253.036 197.157 249.394C203.518 253.999 239.481 281.051 244.338 280.404C260.676 271.299 275.114 259.568 290.198 248.734C304.993 257.285 321.304 255.134 332.43 271.497C344.057 288.586 353.994 336.816 357.505 358.919Z" fill="#98E0FF"/>
<path d="M201.447 241.477C203.888 241.279 236.895 265.942 242.358 268.528C246.991 269.135 282.069 241.53 284.59 241.477C285.606 241.45 289.486 243.826 289.539 245.106C289.71 248.787 249.023 274.862 243.018 277.765C237.093 274.11 197.435 248.814 197.157 245.106C197.078 243.984 201.169 241.503 201.447 241.477Z" fill="#98E0FF"/>
<path d="M357.506 358.919C353.995 336.816 344.058 288.585 332.431 271.497C321.305 255.134 304.993 257.285 290.199 248.734C290.344 248.628 291.519 246.741 292.509 246.095C309.771 252.627 325.568 253.801 336.39 270.177C350.749 291.91 354.035 329.083 362.125 353.97C362.085 354.3 358.034 358.206 357.506 358.919Z" fill="white"/>
<path d="M197.157 249.394C188.777 253.036 171.488 257.087 164.494 261.27C141.992 274.703 136.186 333.833 128.531 357.599C128.003 356.807 124.73 355.448 125.232 353.31C131.553 332.289 133.876 308.445 141.728 287.991C153.632 257.008 164.454 256.084 194.188 246.095C195.481 247.045 196.973 249.262 197.157 249.394Z" fill="white"/>
<path d="M172.743 459.867C174.036 438.213 177.692 416.69 176.702 394.878C173.244 365.451 173.099 335.51 169.443 306.136L170.763 305.146C174.511 346.924 183.314 401.924 178.022 442.382C177.269 448.149 175.844 460.078 172.743 459.867Z" fill="white"/>
<path d="M133.81 368.156C132.979 371.151 134.708 374.806 129.191 369.145C117.446 357.098 101.015 335.905 88.9395 322.63C89.0714 322.512 88.7283 320.545 91.249 319.991C105.238 336.196 119.557 352.176 133.81 368.156Z" fill="white"/>
<path d="M397.756 322.63C388.228 333.095 364.169 362.891 356.845 369.805C353.11 373.329 351.869 372.115 353.545 368.156C355.103 364.474 389.534 328.278 395.447 319.991C397.967 320.545 397.624 322.512 397.756 322.63Z" fill="white"/>
<path d="M310.654 391.248C309.822 414.367 311.855 436.892 313.953 459.866C313.056 459.787 311.762 459.998 311.644 459.866C309.466 457.491 306.483 415.185 307.354 403.454C307.618 399.984 309.836 386.854 310.654 391.248Z" fill="white"/>
<path d="M433.061 250.054C440.016 249.658 432.81 258.988 432.071 260.941C431.081 263.553 424.456 280.998 424.812 282.054C427.241 289.364 433.219 256.916 438.999 257.312C448.581 257.972 427.373 292.505 435.37 287.332C436.228 286.778 440.134 272.922 441.639 272.487C443.737 271.88 445.215 275.298 445.268 276.776C445.347 279.336 434.578 316.218 420.193 319.662C424.918 322.71 419.362 329.123 417.224 333.188C413.634 332.251 399.473 322.011 399.077 319.662C398.866 318.461 401.07 315.413 401.387 315.373C401.691 315.334 405.095 318.633 405.346 318.672C412.103 319.609 403.116 313.988 401.057 311.085C397.005 305.345 391.159 288.137 391.819 281.394C393.297 266.127 398.602 285.261 399.077 286.013C399.645 286.91 406.56 291.317 408.975 295.25C413.555 302.719 411.615 308.591 412.275 310.425C414.479 316.495 419.428 299.763 405.016 287.332C404.739 284.68 415.812 283.598 410.955 271.497C406.31 259.925 395.263 276.155 396.438 266.219C396.781 263.263 404.99 257.114 413.265 261.271C424.799 267.05 414.452 278.834 418.544 278.425C420.576 278.227 426.858 250.397 433.061 250.054Z" fill="#FFE9DD"/>
<path d="M52.9761 250.054C59.6935 248.814 66.2394 277.924 68.153 278.425C73.1944 279.731 62.1746 268.436 72.7721 261.93C84.9928 254.422 95.0624 268.977 87.949 269.848C85.9694 270.085 75.1212 258.024 75.0816 280.734C90.5489 291.08 68.8393 288.427 72.7721 311.414C75.0948 311.982 74.105 303.233 76.4014 297.889C78.7769 292.36 86.9196 287.794 88.279 285.353C88.9256 284.205 89.2952 278.874 90.2586 277.435C95.1812 270.059 96.5801 288.48 90.2586 303.167C85.7451 313.631 79.2784 316.152 79.0408 317.023C77.5231 322.473 84.874 315.373 85.3096 315.373C85.7055 315.373 87.949 318.078 87.6191 319.662C87.1176 322.129 73.1152 332.185 69.4727 333.188C59.7463 317.075 67.3876 321.641 66.5033 319.662C66.1206 318.804 57.6083 315.4 52.6461 307.126C50.2178 303.088 40.9269 277.303 42.0883 274.136C45.6251 264.49 51.7487 294.22 53.9659 286.672C54.5202 284.772 37.8783 255.003 49.0169 257.312C52.8441 258.104 56.9221 277.858 59.2448 281.394C65.4344 290.829 57.7535 268.502 53.9659 258.961C53.7679 258.447 47.1692 251.123 52.9761 250.054Z" fill="#FFE9DD"/>
<path d="M224.543 214.426C245.328 230.96 261.178 213.819 262.815 215.086C262.419 232.781 259.384 235.724 276.342 243.786C271.618 246.65 246.807 264.662 244.998 265.229C243.019 265.836 243.679 265.836 241.699 265.229C239.891 264.662 214.988 246.637 210.355 243.786C210.355 242.599 220.056 240.237 223.553 234.549L224.543 214.426Z" fill="#FFE9DD"/>
<path d="M287.89 157.023C299.688 152.458 304.716 174.547 289.21 184.735C276.659 192.982 286.9 178.928 286.24 158.673C286.821 158.264 287.494 157.182 287.89 157.023Z" fill="#FFE9DD"/>
<path d="M193.528 157.023C205.01 154.266 198.094 169.005 204.416 185.724C203.756 190.409 193.436 181.832 191.218 178.467C185.095 169.203 188.117 158.33 193.528 157.023Z" fill="#FFE9DD"/>
<path d="M266.114 110.839C268.067 111.103 265.414 138.286 282.61 144.488C286.543 158.462 282.294 186.345 274.362 198.921C263.329 216.392 243.599 225.734 225.202 212.446C204.165 197.245 202.08 168.702 202.437 144.818C225.466 137.217 248.984 128.732 266.114 110.839Z" fill="#FFE9DD"/>
<path d="M256.215 160.982C257.007 161.061 258.103 165.706 260.834 166.26C266.311 167.382 267.024 161.827 267.433 161.642C270.917 160.111 269.954 165.548 266.773 167.58C258.076 173.135 252.058 160.56 256.215 160.982Z" fill="#1E2B62"/>
<path d="M217.943 160.982C219.672 160.533 220.543 168.992 227.181 165.601C229.319 164.505 229.596 161.734 229.82 161.642C233.846 159.9 230.744 170.246 222.562 168.9C218.972 168.306 214.828 161.8 217.943 160.982Z" fill="#1E2B62"/>
<path d="M260.175 144.488C264.029 143.894 272.462 145.372 271.723 148.116C271.182 150.135 269.07 146.889 259.515 147.127C259.238 147.127 254.817 150.228 255.226 146.797C255.318 146.045 259.475 144.593 260.175 144.488Z" fill="#1E2B62"/>
<path d="M220.584 144.488C226.087 143.762 232.131 145.979 230.812 148.117C220.029 145.372 216.717 149.225 215.965 149.107C212.256 148.526 216.493 145.029 220.584 144.488Z" fill="#1E2B62"/>
<path d="M210.026 200.569L221.573 213.435V232.569C220.755 236.488 204.14 245.329 203.757 238.507C203.651 236.567 211.53 223.767 210.026 200.569Z" fill="#1E2B62"/>
<path d="M274.032 203.869C274.666 222.897 283.125 236.713 282.941 238.508C282.254 245.159 265.52 236.674 265.124 231.91C265.494 217.131 262.471 213.74 274.032 203.869Z" fill="#1E2B62"/>
<path d="M233.12 83.1269C280.472 78.3105 309.467 110.97 298.447 157.683C295.306 153.949 291.769 154.213 287.23 154.384C287.85 139.077 279.14 142.653 273.702 132.941C268.951 124.443 270.179 114.757 268.753 105.56C266.14 104.451 256.651 122.173 221.243 135.91C210.091 140.238 196.471 137.441 199.797 153.394C198.939 155.321 193.832 152.787 187.92 157.353C186.56 145.147 185.254 129.576 188.579 117.766C193.264 101.166 216.201 84.8424 233.12 83.1269Z" fill="#1E2B62"/>
<path d="M293.828 184.075C296.018 213.093 317.372 228.4 320.222 254.013C305.798 244.683 288.588 248.603 281.62 229.931C279.377 223.926 276.552 204.172 277.661 198.261C279.548 188.126 287.862 190.422 293.828 184.075Z" fill="#1E2B62"/>
<path d="M192.868 184.075C195.006 186.173 197.5 187.928 200.126 189.354C203.571 191.227 209.364 184.339 207.055 214.755C204.574 247.613 193.699 242.216 167.133 252.693C168.862 228.994 189.779 216.999 192.868 184.075Z" fill="#1E2B62"/>
<g clip-path="url(#clip1_3073_38060)">
<path d="M419.621 161.874C420.406 162.294 421.399 161.98 421.828 161.178C422.256 160.376 421.963 159.376 421.178 158.957C420.392 158.538 419.399 158.851 418.971 159.653C418.543 160.456 418.835 161.455 419.621 161.874ZM431.176 164.294C428.599 169.122 416.907 167.922 405.08 161.61C393.254 155.297 385.75 146.25 388.327 141.422L394.555 129.754C391.978 134.582 399.482 143.628 411.308 149.941C423.135 156.253 434.827 157.453 437.404 152.625L431.176 164.294Z" fill="white"/>
<path d="M425.849 150.206C426.635 150.626 427.628 150.312 428.056 149.51C428.484 148.708 428.192 147.708 427.406 147.289C426.621 146.87 425.628 147.183 425.2 147.985C424.771 148.788 425.064 149.787 425.849 150.206ZM437.405 152.626C434.828 157.454 423.135 156.254 411.309 149.942C399.482 143.629 391.978 134.582 394.555 129.754L400.783 118.086C398.206 122.914 405.71 131.961 417.537 138.273C429.363 144.586 441.056 145.785 443.633 140.957L437.405 152.626Z" fill="white"/>
<path d="M432.078 138.537C432.863 138.957 433.856 138.643 434.285 137.841C434.713 137.039 434.42 136.04 433.635 135.62C432.849 135.201 431.856 135.514 431.428 136.316C431 137.119 431.292 138.118 432.078 138.537ZM443.633 140.957C441.056 145.785 429.364 144.585 417.537 138.273C405.711 131.96 398.207 122.913 400.784 118.086L407.012 106.417C404.435 111.245 411.939 120.292 423.765 126.604C435.592 132.917 447.284 134.116 449.861 129.288L443.633 140.957Z" fill="white"/>
<path d="M449.862 129.289C447.285 134.117 435.593 132.917 423.766 126.604C411.94 120.292 404.436 111.245 407.012 106.417C409.589 101.59 421.282 102.789 433.108 109.102C444.935 115.414 452.439 124.461 449.862 129.289Z" fill="#98E0FF"/>
<path d="M433.635 135.621C434.421 136.04 434.713 137.04 434.285 137.842C433.857 138.644 432.864 138.957 432.078 138.538C431.293 138.119 431 137.119 431.429 136.317C431.857 135.515 432.85 135.201 433.635 135.621Z" fill="#1E2B62"/>
<path d="M427.407 147.289C428.192 147.708 428.485 148.707 428.057 149.51C427.628 150.312 426.635 150.625 425.85 150.206C425.064 149.787 424.772 148.787 425.2 147.985C425.628 147.183 426.621 146.869 427.407 147.289Z" fill="#1E2B62"/>
<path d="M421.178 158.958C421.964 159.377 422.256 160.376 421.828 161.179C421.4 161.981 420.407 162.294 419.621 161.875C418.836 161.456 418.543 160.456 418.971 159.654C419.4 158.852 420.393 158.538 421.178 158.958Z" fill="#1E2B62"/>
<path d="M423.181 127.698C417.329 124.574 412.309 120.689 409.047 116.757C405.543 112.534 404.439 108.659 405.94 105.845C407.442 103.032 411.276 101.792 416.735 102.354C421.817 102.876 427.839 104.884 433.691 108.007C439.544 111.131 444.563 115.017 447.826 118.949C451.33 123.171 452.434 127.047 450.932 129.86C449.431 132.673 445.596 133.913 440.138 133.352C435.055 132.83 429.034 130.822 423.181 127.698ZM432.524 110.195C426.937 107.213 421.228 105.3 416.447 104.81C412.109 104.363 409.06 105.158 408.083 106.989C407.106 108.819 408.142 111.795 410.927 115.151C413.997 118.851 418.763 122.528 424.349 125.51C429.936 128.492 435.645 130.406 440.426 130.896C444.764 131.342 447.813 130.547 448.79 128.717C449.767 126.886 448.731 123.911 445.945 120.555C442.876 116.855 438.11 113.177 432.524 110.195Z" fill="#1E2B62"/>
<path d="M416.954 139.367C411.101 136.243 406.082 132.357 402.82 128.425C399.315 124.203 398.211 120.327 399.713 117.514C400.035 116.91 400.777 116.676 401.368 116.992C401.959 117.307 402.178 118.054 401.855 118.657C400.878 120.488 401.915 123.463 404.7 126.819C407.77 130.519 412.535 134.197 418.122 137.179C423.708 140.161 429.418 142.074 434.198 142.564C438.537 143.011 441.585 142.216 442.563 140.385C442.885 139.782 443.627 139.548 444.218 139.863C444.809 140.178 445.027 140.925 444.705 141.529C443.203 144.342 439.369 145.582 433.911 145.021C428.828 144.498 422.807 142.49 416.954 139.367Z" fill="#1E2B62"/>
<path d="M410.725 151.036C404.873 147.912 399.854 144.026 396.591 140.094C393.087 135.872 391.983 131.996 393.484 129.183C393.807 128.579 394.549 128.345 395.14 128.661C395.731 128.976 395.949 129.723 395.627 130.326C394.65 132.157 395.686 135.132 398.471 138.488C401.541 142.188 406.307 145.866 411.893 148.848C417.48 151.83 423.189 153.743 427.97 154.233C432.308 154.68 435.357 153.885 436.334 152.054C436.656 151.451 437.398 151.217 437.989 151.532C438.58 151.847 438.799 152.594 438.477 153.198C436.975 156.011 433.14 157.251 427.682 156.689C422.6 156.167 416.578 154.159 410.725 151.036Z" fill="#1E2B62"/>
<path d="M404.496 162.703C398.643 159.579 393.624 155.694 390.362 151.762C386.857 147.54 385.753 143.664 387.255 140.85L405.94 105.845C406.262 105.241 407.004 105.007 407.595 105.323C408.186 105.638 408.404 106.385 408.082 106.988L389.397 141.994C388.42 143.825 389.457 146.8 392.242 150.156C395.312 153.856 400.077 157.534 405.664 160.515C411.25 163.497 416.96 165.411 421.74 165.901C426.079 166.347 429.128 165.552 430.105 163.722L448.789 128.716C449.111 128.113 449.853 127.879 450.444 128.194C451.035 128.51 451.254 129.256 450.932 129.86L432.247 164.865C430.745 167.679 426.911 168.919 421.453 168.357C416.37 167.835 410.349 165.827 404.496 162.703Z" fill="#1E2B62"/>
</g>
</g>
<g clip-path="url(#clip2_3073_38060)">
<path d="M277.377 46.9101C279.872 47.9493 281.908 49.9891 282.858 52.6374C281.886 53.8106 280.515 54.672 278.909 54.993L263.729 58.0282C263.487 56.8181 262.384 56.004 261.173 56.1204C261.087 56.1097 260.992 56.1286 260.898 56.1475C259.589 56.4092 258.746 57.6683 259.007 58.9724L211.443 68.4824C207.719 69.2271 204.095 66.8198 203.353 63.1091L203.084 61.7646L230.597 56.2637C231.123 56.1585 231.678 56.271 232.115 56.5612L233.96 57.7863C234.397 58.0765 234.953 58.1891 235.479 58.0839L252.723 54.636C253.249 54.5308 253.719 54.2131 254.011 53.7773L255.243 51.937C255.534 51.5012 256.004 51.1836 256.53 51.0783L259.256 50.5334L259.565 52.0795C259.796 53.2357 261.061 54.2273 262.397 53.9602L267.079 53.024C268.374 52.765 269.231 51.5032 268.97 50.1991C268.852 49.6075 268.515 49.1156 268.067 48.7717L277.377 46.9101Z" fill="#98E0FF"/>
<path d="M261.928 51.6076C263.417 47.8282 266.79 44.8329 271.094 43.9723L272.443 43.7025L265.185 7.40216L205.815 19.2728L213.073 55.5732L260.812 46.0281L261.928 51.6076ZM276.744 44.1569L277.298 46.9265L268.068 48.7718C268.516 49.1158 268.853 49.6077 268.971 50.1993C269.232 51.5034 268.376 52.7652 267.08 53.0242L262.398 53.9603C261.062 54.2274 259.798 53.2359 259.566 52.0797L259.257 50.5336L256.532 51.0785C256.005 51.1837 255.536 51.5014 255.244 51.9372L254.012 53.7775C253.72 54.2133 253.251 54.5309 252.724 54.6362L235.48 58.084C234.954 58.1893 234.398 58.0767 233.961 57.7865L232.117 56.5614C231.68 56.2712 231.124 56.1586 230.598 56.2639L209.832 60.4159L201.767 20.0822C201.321 17.8504 202.769 15.6873 205.009 15.2395L264.379 3.36879C266.619 2.92094 268.787 4.361 269.233 6.5928L276.744 44.1569Z" fill="#F0F9FD"/>
<path d="M265.184 7.40177L272.442 43.7021L258.382 46.5133L257.576 42.4799C258.358 42.3234 258.99 41.7637 259.236 41.0293C259.493 40.2789 259.329 39.4588 258.806 38.8782L238.061 15.3417C237.551 14.7584 236.753 14.4846 235.984 14.6384L235.715 13.2939L265.184 7.40177Z" fill="white"/>
<path d="M260.811 46.0283L271.092 43.9725C266.788 44.8332 263.416 47.8285 261.926 51.6078L260.811 46.0283Z" fill="#F0F9FD"/>
<path d="M258.807 38.8788C259.33 39.4594 259.494 40.2795 259.237 41.03C258.991 41.7643 258.359 42.3241 257.577 42.4805L225.328 48.9285C224.856 49.0229 224.359 48.8565 224.033 48.4883C223.707 48.12 223.605 47.6091 223.764 47.1438L234.324 16.0896C234.57 15.3553 235.202 14.7955 235.985 14.639C236.767 14.4825 237.552 14.759 238.062 15.3423L258.807 38.8788ZM241.957 38.6126C241.809 37.8732 241.081 37.3896 240.339 37.5379C239.597 37.6863 239.11 38.4127 239.258 39.1522C239.406 39.8916 240.134 40.3752 240.876 40.2269C241.618 40.0785 242.105 39.3521 241.957 38.6126Z" fill="#FFE02E"/>
<path d="M257.576 42.4799L258.382 46.5133L213.073 55.5728L205.814 19.2725L235.715 13.294L235.984 14.6384C235.201 14.7949 234.57 15.3547 234.324 16.089L223.764 47.1432C223.604 47.6085 223.706 48.1194 224.033 48.4877C224.359 48.8559 224.855 49.0223 225.327 48.9279L257.576 42.4799Z" fill="white"/>
<path d="M240.338 37.5378C241.08 37.3894 241.808 37.873 241.956 38.6125C242.104 39.3519 241.617 40.0784 240.875 40.2267C240.133 40.3751 239.405 39.8915 239.257 39.1521C239.109 38.4126 239.595 37.6862 240.338 37.5378Z" fill="#1E2B62"/>
<path d="M256.173 60.5881L211.646 69.4911C207.368 70.3464 203.194 67.5737 202.342 63.3118L202.073 61.9673C201.961 61.4111 202.325 60.8683 202.883 60.7566L230.396 55.2557C231.185 55.0978 232.021 55.261 232.689 55.706L234.533 56.9311C234.746 57.0722 235.025 57.1264 235.278 57.0759L252.522 53.628C252.775 53.5774 253.01 53.4202 253.154 53.208L254.386 51.3678C254.831 50.7019 255.54 50.2282 256.329 50.0703C256.888 49.9587 257.432 50.3201 257.543 50.8763C257.654 51.4326 257.291 51.9754 256.733 52.087C256.48 52.1376 256.244 52.2947 256.101 52.507L254.869 54.3472C254.423 55.0131 253.715 55.4868 252.925 55.6447L235.681 59.0925C234.892 59.2504 234.056 59.0872 233.388 58.6422L231.543 57.4171C231.331 57.276 231.052 57.2218 230.799 57.2724L204.298 62.571L204.365 62.9071C204.996 66.0582 208.08 68.1068 211.243 67.4744L255.77 58.5714C256.328 58.4598 256.872 58.8212 256.984 59.3774C257.095 59.9337 256.731 60.4765 256.173 60.5881Z" fill="#1E2B62"/>
<path d="M208.957 56.0467C208.399 56.1584 207.855 55.797 207.743 55.2407L200.754 20.2849C200.198 17.5052 202.016 14.7892 204.806 14.2315L264.176 2.36078C266.966 1.803 269.688 3.61113 270.244 6.39079L276.427 37.3133C276.538 37.8696 276.175 38.4123 275.616 38.524C275.058 38.6356 274.514 38.2742 274.403 37.718L268.22 6.79547C267.886 5.12666 266.254 4.04259 264.579 4.37747L205.209 16.2481C203.534 16.583 202.444 18.2114 202.778 19.8802L209.767 54.8361C209.879 55.3923 209.515 55.9351 208.957 56.0467Z" fill="#1E2B62"/>
<path d="M239.732 34.5126C239.174 34.6243 238.63 34.2629 238.519 33.7066L236.637 24.2955C236.526 23.7392 236.889 23.1964 237.448 23.0848C238.006 22.9731 238.55 23.3345 238.661 23.8908L240.543 33.302C240.654 33.8582 240.291 34.401 239.732 34.5126Z" fill="#1E2B62"/>
<path d="M257.778 43.4885L225.529 49.9364C224.696 50.103 223.825 49.8088 223.258 49.1688C222.69 48.5257 222.509 47.6232 222.787 46.8109L233.346 15.7604C233.71 14.6757 234.642 13.8583 235.783 13.6303C236.923 13.4023 238.085 13.8009 238.84 14.6654L259.583 38.1989C260.345 39.0462 260.591 40.2606 260.215 41.3601C259.852 42.4427 258.918 43.2605 257.779 43.4882L257.778 43.4885ZM236.186 15.647C235.771 15.7299 235.433 16.0229 235.303 16.4143L224.742 47.4722C224.701 47.5906 224.725 47.7149 224.809 47.8067C224.89 47.8987 225.015 47.942 225.128 47.9194L257.376 41.4715C257.791 41.3885 258.129 41.0955 258.259 40.7041C258.396 40.301 258.311 39.8671 258.04 39.5647L237.285 16.0214C237.015 15.7137 236.586 15.5671 236.186 15.647Z" fill="#1E2B62"/>
<path d="M276.134 69.1809C268.88 70.6314 261.803 65.931 260.358 58.7029C260.246 58.1466 260.61 57.6038 261.168 57.4922C261.726 57.3806 262.27 57.742 262.382 58.2982C263.604 64.4138 269.593 68.3914 275.731 67.1642C281.869 65.937 285.868 59.9623 284.645 53.8467C283.798 49.6066 280.667 46.2756 276.474 45.1495C274.8 44.6961 273.011 44.6377 271.296 44.9807C267.457 45.7483 264.314 48.3656 262.889 51.9818C262.68 52.5111 262.082 52.7723 261.551 52.5639C261.02 52.3572 260.759 51.761 260.969 51.2314C262.653 46.9605 266.362 43.8682 270.894 42.962C272.921 42.5566 275.038 42.6262 277.017 43.1621C281.968 44.4915 285.669 48.4286 286.671 53.44C288.116 60.6681 283.39 67.7285 276.136 69.1789L276.134 69.1809Z" fill="#1E2B62"/>
<path d="M266.811 51.6794L262.128 52.6155C261.57 52.7271 261.026 52.3658 260.915 51.8095L259.799 46.23C259.688 45.6738 260.051 45.131 260.61 45.0193C261.168 44.9077 261.712 45.2691 261.823 45.8253L262.737 50.3965L266.407 49.6627C266.966 49.551 267.51 49.9124 267.621 50.4687C267.732 51.0249 267.369 51.5677 266.811 51.6794Z" fill="#1E2B62"/>
</g>
<g clip-path="url(#clip3_3073_38060)">
<path d="M103.725 118.319C107.649 124.537 105.779 132.767 99.5493 136.698L45.6483 170.709C38.7289 175.076 29.5762 173.014 25.2181 166.107C21.3417 159.964 22.5626 152.038 27.7534 147.294C27.9302 147.13 28.0946 146.973 28.2872 146.834C26.5784 145.376 25.0617 143.639 23.7985 141.637C17.0404 130.927 20.2607 116.754 30.9908 109.984C39.8782 104.376 51.1322 105.602 58.5783 112.291C59.6185 110.218 61.2233 108.401 63.3292 107.072C69.5592 103.141 77.7925 104.996 81.7163 111.214C82.5848 112.59 83.1709 114.075 83.4809 115.594C84.0491 115.078 84.6614 114.604 85.3383 114.177C91.5683 110.246 99.8016 112.1 103.725 118.319Z" fill="#98E0FF"/>
<path d="M100.14 137.637L93.8729 141.592C93.3543 141.919 92.6673 141.764 92.3407 141.247C92.014 140.729 92.17 140.042 92.6887 139.715L98.9562 135.76C104.658 132.162 106.376 124.604 102.784 118.912C99.1931 113.221 91.6314 111.518 85.9295 115.115C85.3294 115.494 84.7722 115.92 84.2261 116.416C83.9304 116.683 83.5125 116.774 83.134 116.65C82.7539 116.527 82.4704 116.209 82.3917 115.817C82.1023 114.397 81.5578 113.048 80.7752 111.808C77.184 106.116 69.6223 104.413 63.9204 108.011C62.0511 109.19 60.5456 110.842 59.5693 112.788C59.4144 113.098 59.1215 113.317 58.7817 113.383C58.441 113.447 58.0901 113.349 57.8325 113.118C50.6103 106.63 39.8159 105.727 31.5804 110.924C21.3846 117.357 18.3146 130.868 24.7361 141.045C25.9164 142.916 27.3544 144.58 29.0069 145.991C29.2668 146.212 29.4083 146.54 29.3953 146.881C29.3808 147.222 29.2113 147.537 28.9338 147.736C28.8134 147.823 28.6908 147.938 28.5497 148.068L28.5055 148.109C23.6026 152.591 22.6178 159.908 26.1558 165.515C30.1822 171.896 38.6607 173.806 45.0536 169.773L50.0677 166.609C50.5863 166.281 51.2733 166.436 51.5999 166.954C51.9266 167.472 51.7706 168.158 51.2519 168.485L46.2379 171.649C38.8092 176.337 28.9568 174.117 24.2771 166.701C20.2575 160.331 21.2613 152.061 26.6249 146.834C25.192 145.472 23.9292 143.929 22.8574 142.231C15.7835 131.02 19.1662 116.133 30.3977 109.046C34.9213 106.191 40.1175 104.938 45.4262 105.421C50.1092 105.847 54.6204 107.667 58.2724 110.58C59.4006 108.798 60.9233 107.278 62.7346 106.135C69.4738 101.883 78.4094 103.896 82.6539 110.622C83.2609 111.584 83.7471 112.605 84.1059 113.666C84.3152 113.519 84.5259 113.377 84.7437 113.24C91.4829 108.987 100.419 111 104.663 117.727C108.908 124.454 106.878 133.386 100.139 137.638L100.14 137.637Z" fill="#303E58"/>
<path d="M86.4907 141.002C85.9721 141.329 85.2851 141.174 84.9585 140.657C79.6254 132.205 68.3991 129.676 59.9316 135.019C54.6653 138.342 51.4939 144.041 51.448 150.262C51.4428 150.876 50.9425 151.371 50.3286 151.367C49.7148 151.362 49.2202 150.863 49.2253 150.25C49.2751 143.267 52.8345 136.871 58.7448 133.141C68.248 127.145 80.8508 129.984 86.8362 139.47C87.1628 139.987 87.0068 140.674 86.4882 141.001L86.4907 141.002Z" fill="#303E58"/>
<path d="M80.4579 167.55C76.5517 170.015 71.8812 171.088 67.3042 170.574C62.798 170.067 58.5473 168.052 55.334 164.897C54.2187 163.81 53.2182 162.572 52.3656 161.221C52.0389 160.703 52.1949 160.016 52.7136 159.689C53.2322 159.362 53.9192 159.516 54.2458 160.034C55.0057 161.238 55.8952 162.339 56.8883 163.309C59.7528 166.12 63.5392 167.916 67.5547 168.367C71.6906 168.832 75.7425 167.9 79.2727 165.672C84.539 162.349 87.7104 156.65 87.7563 150.428C87.7599 149.816 88.2603 149.321 88.8756 149.324C89.4895 149.328 89.9841 149.827 89.9789 150.441C89.9292 157.424 86.3698 163.82 80.4595 167.549L80.4579 167.55Z" fill="#303E58"/>
<path d="M58.4 146.481L50.8789 151.226C50.3603 151.554 49.6733 151.399 49.3467 150.881L44.6097 143.374C44.283 142.856 44.4391 142.17 44.9577 141.842C45.4764 141.515 46.1633 141.67 46.49 142.188L50.6348 148.756L57.2158 144.604C57.7344 144.276 58.4214 144.431 58.748 144.949C59.0747 145.467 58.9187 146.153 58.4 146.481Z" fill="#303E58"/>
<path d="M94.2477 158.85C93.729 159.177 93.0421 159.022 92.7154 158.504L88.5706 151.936L81.9896 156.088C81.471 156.416 80.784 156.261 80.4574 155.743C80.1307 155.225 80.2867 154.539 80.8054 154.211L88.3264 149.466C88.8451 149.138 89.532 149.293 89.8587 149.811L94.5957 157.318C94.9223 157.836 94.7663 158.522 94.2477 158.85Z" fill="#303E58"/>
</g>
<defs>
<clipPath id="clip0_3073_38060">
<rect width="471" height="463" fill="white" transform="translate(8 80)"/>
</clipPath>
<clipPath id="clip1_3073_38060">
<rect width="51" height="62" fill="white" transform="translate(411.195 96) rotate(28.0915)"/>
</clipPath>
<clipPath id="clip2_3073_38060">
<rect width="84.6253" height="67.8678" fill="white" transform="translate(193 16.5918) rotate(-11.3069)"/>
</clipPath>
<clipPath id="clip3_3073_38060">
<rect width="94.1196" height="76.1921" fill="white" transform="translate(0 128.227) rotate(-32.2517)"/>
</clipPath>
</defs>
</svg>
