<?xml version="1.0" encoding="UTF-8"?>
<svg id="Capa_2" data-name="Capa 2" xmlns="http://www.w3.org/2000/svg" viewBox="0 0 1052.46 630.46">
  <defs>
    <style>
      .cls-1 {
        fill: none;
      }

      .cls-2 {
        fill: #ffe9de;
      }

      .cls-3 {
        fill: #00a5f3;
      }

      .cls-4 {
        fill: #fff;
      }

      .cls-5 {
        fill: #fefefe;
      }

      .cls-6 {
        fill: #1e2b62;
      }

      .cls-7 {
        fill: #98e0ff;
      }

      .cls-8 {
        fill: #8b5745;
      }

      .cls-9 {
        fill: #92cff3;
      }

      .cls-10 {
        fill: #ffe02d;
      }
    </style>
  </defs>
  <g id="Capa_5" data-name="Capa 5">
    <g>
      <path class="cls-10" d="M574.51,533.57l-8.99-22.5h-79.46l-8.99,22.5c-1.12,2.8.94,5.85,3.96,5.85h89.53c3.02,0,5.08-3.05,3.96-5.85Z"/>
      <g>
        <path class="cls-4" d="M461.33,83.09c-23.07,39.88-38.45,83.86-45.19,129.67h0c-7.14,48.58-4.41,98.11,8.05,145.61l35.34,134.8c2.76,10.55,12.3,17.9,23.2,17.9h80.79c10.9,0,20.43-7.35,23.2-17.9l35.34-134.8c12.45-47.5,15.19-97.03,8.05-145.61h0c-6.78-46.09-22.31-90.34-45.62-130.41-19.46,3.6-41,5.6-63.67,5.6-21.05,0-41.13-1.73-59.47-4.85Z"/>
        <path class="cls-6" d="M563.51,511.56h-80.79c-11.12,0-20.86-7.51-23.68-18.27l-35.34-134.8c-12.54-47.83-15.25-96.89-8.06-145.81,6.75-45.95,21.98-89.63,45.25-129.85l.17-.3.34.06c18.87,3.22,38.85,4.85,59.39,4.85,22.12,0,43.51-1.88,63.58-5.59l.35-.06.18.3c23.52,40.42,38.89,84.36,45.68,130.59,7.19,48.92,4.48,97.98-8.06,145.81l-35.34,134.8c-2.82,10.76-12.56,18.27-23.68,18.27ZM461.59,83.64c-23.11,40.02-38.23,83.49-44.95,129.19-7.17,48.79-4.47,97.71,8.03,145.41l35.34,134.8c2.71,10.32,12.04,17.53,22.71,17.53h80.79c10.67,0,20.01-7.21,22.71-17.53l35.34-134.8c12.5-47.7,15.21-96.62,8.03-145.41-6.76-45.99-22.03-89.71-45.38-129.93-20.03,3.68-41.36,5.54-63.42,5.54-20.47,0-40.39-1.62-59.21-4.8Z"/>
      </g>
      <g>
        <path class="cls-3" d="M522.21,208.3c-3.09,0-6.18-.09-9.27.03-1.92.08-2.62-.44-2.32-2.52,1.88-12.9,3.64-25.82,5.45-38.72.04-.3.11-.61.16-.91.63-4.73.6-4.47,5.35-4.47,1.78,0,2.33.6,2.07,2.29-1.02,6.95-1.99,13.89-2.98,20.85-.73,5.19-1.41,10.4-2.2,15.58-.2,1.29.16,1.61,1.37,1.58,4.25-.06,8.5.04,12.75-.04,1.81-.04,2.5.47,2.28,2.38-.44,3.81-.49,3.94-4.33,3.94h-8.34.01Z"/>
        <path class="cls-3" d="M580.72,208.3c-3.46,0-3.46-.07-2.97-3.51,1.96-13.58,3.88-27.17,5.73-40.76.24-1.73.87-2.54,2.61-2.39.3.02.62,0,.92,0,3.9,0,3.81-.02,3.25,3.88-1.88,13.13-3.68,26.25-5.55,39.38-.48,3.42-.56,3.41-4,3.41h.01Z"/>
        <path class="cls-3" d="M560.82,161.72h-10.99c-1.88,0-2.71.55-2.98,2.56-1.8,13.54-3.73,26.96-5.64,40.48-.51,3.54-.54,3.54,2.9,3.54q3.69,0,4.15-3.61c.3-2.37.7-4.73.97-7.11.67-6.06.65-6.06,6.62-6.06h.93c9.05,0,15.75-5.86,16.94-14.8.94-7.05-2.98-15.02-12.89-15.02h0ZM557.05,184.85h-1.62c-4.34-.07-4.37,0-3.85-4.28.43-3.52,1-7.02,1.42-10.54.15-1.26.66-1.71,1.92-1.64,1.76.09,3.55,0,5.33.02,3.52.03,5.72,2.02,6.26,5.51.74,4.78-2.53,10.85-9.45,10.92h0Z"/>
        <path class="cls-9" d="M502.34,182.77c-2.75-4.9-12.33-4.47-21.38.96-.51.3-.99.63-1.46.96,0,0-.03.04-.02.06,0,.02.03.02.06.01,5.61-1.6,10.19-1.53,12.26.6,1.14,1.17,1.37,2.84.85,4.82-.36,1.91-1.49,4.01-3.24,6.06-2.72,3.56-6.91,7.44-12.14,10.97-4.81,3.25-12.58,6.92-17.04,8.45,0,0-.07.02-.1.05-.19.12-.25.38-.12.56.1.15.33.19.49.15,4.96-1.21,9.4-3.35,14.04-5.42,5.08-2.27,9.97-4.91,14.58-8.05,4.11-2.8,8.36-5.82,11.24-9.95,1.96-2.8,3.83-6.91,1.98-10.23h0Z"/>
        <path class="cls-3" d="M482.66,168.31c5.05-1.83,10.3-2.34,15.6-2.32,1.32,0,2.44.2,2.53-1.67.09-1.74-.53-2.44-2.3-2.56-5.16-.35-10.28.02-15.36.76-7.02,1.02-13.84,2.8-19.7,7.08-11.19,8.18-10.81,24.79.74,32.47,3.5,2.32,7.36,3.73,11.43,4.65,2.37.61,7.32,1.2,8,1.29,4.77.4,9.52.63,14.32.2,1.97-.18,1.91-1.16,1.94-2.55.04-1.56-.48-2.2-2.12-2.15-1.38.04-2.76.06-4.14-.01h-.08c-1.17-.06-2.34-.2-3.5-.39-4.54-.65-7.58-1.62-7.58-1.62-8.85-2.96-12.52-8.07-12.57-16.31-.04-8.11,4.27-13.78,12.76-16.87h.02Z"/>
      </g>
      <path class="cls-6" d="M424.19,358.36c-2.11-8.03-3.93-16.12-5.48-24.26l-3.2,4.84c-37.41,56.66-57.36,123.07-57.36,190.97v100.05h10.34l23.88-79.44c11.19-37.21,30.3-71.42,55.87-100.36l-24.06-91.8Z"/>
      <path class="cls-6" d="M622.05,358.36c2.11-8.03,3.93-16.12,5.48-24.26l3.2,4.84c37.41,56.66,57.36,123.07,57.36,190.97v100.05h-10.34s-23.88-79.44-23.88-79.44c-11.19-37.21-30.3-71.42-55.87-100.36l24.06-91.8Z"/>
      <path class="cls-6" d="M529.22,349.29l6.07,19.75c9.8,31.92,13.11,65.48,9.72,98.69l-16.56,162.23h-5.32s-16.56-162.23-16.56-162.23c-3.39-33.22-.09-66.77,9.72-98.69l6.07-19.75c.46-1.51,1.86-2.54,3.44-2.54h0c1.58,0,2.98,1.03,3.44,2.54Z"/>
      <path class="cls-6" d="M529.34,3.17c-3.07-4.23-9.37-4.23-12.44,0l-35.12,48.42c-7.37,10.16-14.19,20.68-20.45,31.49,18.34,3.13,38.42,4.85,59.47,4.85,22.67,0,44.21-2,63.67-5.6-6.14-10.55-12.81-20.82-20.01-30.75l-35.12-48.42Z"/>
      <g>
        <path class="cls-3" d="M490.19,251.95v-15.25h26.56v70h-17.07v-54.75h-9.49Z"/>
        <path class="cls-3" d="M531.04,251.95v-15.25h26.56v70h-17.07v-54.75h-9.49Z"/>
      </g>
      <path class="cls-6" d="M103.73,607.56c-.28-.36-.42-.8-.42-1.24-28.58-3.16-63.79-25.61-63.68-25.97l-6.15,10.86c-1.97,3.49-.76,7.92,2.71,9.92l47.08,27.12c1.95,1.12,4.15,1.71,6.4,1.71h24.53c2.91,0,4.54-3.36,2.74-5.65l-13.21-16.75Z"/>
      <path class="cls-6" d="M246.13,626.05l-10.73-9.15-.07-.85h-63.4l-.04,7.5c-.02,3.54,2.85,6.42,6.39,6.42h66.4c2.07,0,3.02-2.57,1.44-3.92Z"/>
      <path class="cls-6" d="M156.46,501.2l14.26-45.4c.35-1.13,2.02-.87,2.02.31l-.8,159.93h63.4l-18.72-242.52c-12.21,3.86-25.31,3.85-37.53,0l-15.6-4.93-.17-13.02c-.01-.97-1.14-1.51-1.9-.9l-11.56,9.18-16-8.3-2.74,3.7c-8.37,11.27-13.8,24.44-15.83,38.33l-8.95,61.41c-.72,3.59-2,7.04-3.8,10.22l-62.91,111.16c-.12.36,35.1,22.81,63.68,25.97,0-.33.05-.66.21-.97l50.72-98.75c.89-1.74,1.64-3.55,2.22-5.41Z"/>
      <rect class="cls-6" y="629.46" width="1052.46" height="1"/>
      <path class="cls-4" d="M171.2,455.9l-.97-.22c2.3-10.09,6.39-24,10.36-37.46,2.43-8.24,4.72-16.03,6.47-22.51l.96.26c-1.76,6.49-4.05,14.28-6.48,22.53-3.96,13.44-8.05,27.33-10.34,37.4Z"/>
      <path class="cls-4" d="M103.25,606.82c-18.9-2.18-34.48-10.44-49.54-18.43-4.3-2.28-8.75-4.64-13.16-6.79l.44-.9c4.42,2.16,8.88,4.52,13.19,6.8,14.98,7.95,30.47,16.17,49.19,18.32l-.11.99Z"/>
      <path class="cls-7" d="M232.99,314.77c2.51-13.46,12.39-23.02,14.34-24.8-.32.13-.72.03-.88-.33l-9.74-22.38c-2.79-6.4-7.58-11.73-13.65-15.17h0c-11.18-6.34-23.92-9.4-36.76-8.82l-7.42.33c-10.42.47-19.71,6.73-24.05,16.22l-22.15,48.47c-6.12,13.4,1.19,29.11,15.39,33.05l-14.22,14.22,16,8.3,11.56-9.18c.76-.61,1.89-.07,1.9.9l.17,13.02,15.6,4.93c12.21,3.86,25.31,3.86,37.53,0l-1.68-31.46c-.45-8.42,1.89-16.75,6.65-23.71l5.09-7.43s.02-.01.03,0l6.29,3.85h0Z"/>
      <path class="cls-6" d="M168.02,312.5l-.9-.45c4.63-9.32,8.71-19.02,12.13-28.84l.94.33c-3.44,9.86-7.53,19.6-12.18,28.96Z"/>
      <path class="cls-10" d="M231.08,323.61c-1.24-.2-2.47.37-3.12,1.45l-5.88,9.86.2.04-5.05,8.12,21.81,7.15c3.79,1.24,4.52,6.29,1.23,8.55l-9.64,6.63c-2.98,2.05-6.76,2.55-10.18,1.35l-14.37-5.05-10.79,18.09c-1.12,1.88.03,4.29,2.2,4.59l39.03,5.51c1.22.17,2.42-.4,3.05-1.46l32.3-53.98c1.11-1.85,0-4.24-2.13-4.59l-38.67-6.28Z"/>
      <path class="cls-6" d="M243.84,325.68l-3.64,5.82c-.45.72,0,1.67.85,1.76l12.6,2.12c.48.05.94-.19,1.16-.62l3.58-6.72-14.55-2.36Z"/>
      <g>
        <path class="cls-2" d="M232.99,314.77h0s5.95,3.65,5.95,3.65c9.79,6,22.63,2.16,27.52-8.24l22.84-48.65,3.19-.85c3.76-1,6.28-4.53,5.99-8.42l-.87-11.64c-.34-4.52-4.63-7.9-9.02-6.76-.22.06-.45.13-.67.21l-8.05,2.85c-4.85,1.72-8.83,5.26-11.1,9.87l-21.1,42.86c-.25.51-.99.5-1.22-.03,0,0-12.45,10.13-13.46,25.14Z"/>
        <path class="cls-6" d="M249.02,321.76c-3.61,0-7.2-.99-10.34-2.91l-6.21-3.81.02-.3c1.01-15.05,13.52-25.39,13.65-25.49l.51-.42.26.6c.04.09.12.09.16.1.04,0,.11-.01.15-.1l21.1-42.86c2.34-4.76,6.38-8.35,11.38-10.12l8.05-2.85c.24-.08.47-.16.71-.22,2.14-.55,4.42-.11,6.27,1.21,1.96,1.41,3.19,3.6,3.37,6l.87,11.64c.31,4.12-2.37,7.88-6.36,8.94l-2.96.79-22.74,48.44c-2.39,5.08-6.84,8.92-12.23,10.54-1.85.56-3.76.83-5.67.83ZM233.51,314.51l5.69,3.49c4.55,2.79,10.09,3.51,15.19,1.98,5.11-1.53,9.34-5.18,11.61-10l22.94-48.86,3.42-.91c3.53-.94,5.89-4.26,5.62-7.9l-.87-11.64c-.16-2.11-1.24-4.03-2.96-5.26-1.62-1.17-3.56-1.54-5.43-1.05-.21.05-.42.12-.63.19l-8.05,2.85c-4.75,1.68-8.59,5.1-10.82,9.62l-21.1,42.86c-.2.41-.61.66-1.08.65-.23,0-.45-.08-.64-.2-2.03,1.8-11.88,11.16-12.9,24.17Z"/>
      </g>
      <path class="cls-6" d="M281.07,263.21l-.8-.6c1.85-2.46,3.82-5.43,4.34-8.83.44-2.85-.37-5.73-2.1-7.51-.35-.36-.48-.86-.36-1.35.12-.47.47-.84.93-.99,1.65-.52,3.5-1.27,4.81-2.81.9-1.07,1.29-2.37,1.06-3.57-.17-.88-.57-1.49-1.2-1.83-.89-.48-2.22-.37-3.87.32l-.38-.92c1.96-.81,3.55-.91,4.72-.28.89.48,1.48,1.35,1.7,2.52.29,1.5-.17,3.11-1.27,4.41-1.47,1.74-3.49,2.55-5.27,3.12-.18.06-.24.2-.26.28-.04.14,0,.3.11.41,1.95,2,2.85,5.21,2.37,8.36-.56,3.62-2.6,6.72-4.53,9.28Z"/>
      <path class="cls-6" d="M279.97,236.9l2.95-1.05-5.55-16.91c-.27-.82-1.15-1.27-1.98-1h0c-.82.27-1.27,1.15-1,1.98l5.58,16.98Z"/>
      <path class="cls-6" d="M289.54,261.6c-2.86-3.06-4.65-7.22-4.91-11.4l1-.06c.24,3.96,1.93,7.89,4.64,10.78l-.73.68Z"/>
      <g>
        <path class="cls-2" d="M148.08,341.33l72.38,25.45c3.41,1.2,7.19.7,10.18-1.35l9.64-6.63c3.29-2.26,2.56-7.31-1.23-8.55l-21.81-7.15,5.05-8.12-4.52-.98c-1.5-.32-3.06-.11-4.42.6h0c-6.15,3.21-13.61,2.54-19.08-1.71l-27.38-21.27-30.77-10.8-3.91,8.3c-5.57,11.84,0,25.92,12.15,30.75l3.73,1.48Z"/>
        <path class="cls-6" d="M224.21,367.91c-1.32,0-2.64-.22-3.91-.67l-72.4-25.45-3.73-1.48c-6.01-2.39-10.63-7.01-13.01-13.03-2.38-6.01-2.17-12.55.59-18.4l4.1-8.71,31.34,11.03,27.38,21.27c5.31,4.12,12.59,4.78,18.55,1.67,1.46-.76,3.15-.99,4.76-.64l5.21,1.13-5.09,8.18,21.21,6.96c1.94.63,3.32,2.28,3.61,4.3s-.57,3.99-2.25,5.14l-9.64,6.63c-1.99,1.37-4.34,2.08-6.71,2.08ZM148.26,340.86l72.37,25.44c3.25,1.14,6.89.66,9.73-1.3l9.64-6.63c1.38-.95,2.07-2.51,1.83-4.17-.24-1.66-1.33-2.97-2.93-3.49l-22.42-7.35,5.01-8.05-3.82-.83c-1.38-.3-2.83-.1-4.08.55-6.3,3.29-14.01,2.6-19.62-1.76l-27.31-21.22-30.27-10.62-3.72,7.89c-2.64,5.6-2.84,11.85-.56,17.6,2.27,5.76,6.69,10.18,12.45,12.47l3.72,1.48Z"/>
      </g>
      <path class="cls-6" d="M201.97,216.56c-1.72-.96-2.88-2.79-3.2-4.73-.32-1.94.16-3.98,1.17-5.67.62-1.04,1.46-1.99,2.55-2.52,1.09-.53,2.45-.6,3.49.03.96.58,1.52,1.64,2.03,2.64,9.51.84,18.47-4.12,23.96-11.93,1.12-1.59,2.43-3.3,3.45-5,.18-.61.36-1.25.53-1.95-15.61,2.3-28.57,4.18-44.18,6.48.25,7.71-3.58,15.43-9.87,19.89-5.25,3.73-11.75,5.12-17.76,7.45-6.01,2.33-12.08,6.22-13.95,12.38-.84,2.79-.72,5.79-.23,8.67.28,1.67.69,3.39.32,5.04-.46,2.06-2.06,3.68-3.78,4.91-1.72,1.23-3.63,2.21-5.18,3.64-3.2,2.95-4.5,7.8-3.2,11.95,1.29,4.15,5.1,7.4,9.39,8.02l7.34-16.06c4.34-9.49,13.62-15.75,24.05-16.22l7.42-.33c1.37-.06,2.73-.07,4.09-.05,4.05-.44,8.24-2.03,10.7-4.84,3.31-3.79,5.04-8.78,5.57-13.78.24-2.26-.06-5.11-.35-7.54-1.42.43-3.04.26-4.35-.48Z"/>
      <g>
        <path class="cls-2" d="M219.91,231.05c-1.93-.66-3.77-1.61-5.33-2.93-3.35-2.82-5.4-7.6-6.99-11.68-.39.26-.82.45-1.27.59.29,2.44.59,5.28.35,7.54-.53,5.01-2.26,9.99-5.57,13.78-2.46,2.81-6.65,4.4-10.7,4.84-.23,0-.46,0-.69,0,.26.51,13.91,26.96,28.09,6.19,0,0-4.26-11.46,2.11-18.34Z"/>
        <path class="cls-6" d="M206.25,257.84c-.21,0-.42,0-.62-.02-9.2-.58-16.08-13.82-16.37-14.39l-.38-.73h1.52c4.3-.46,8.18-2.21,10.32-4.66,3.78-4.33,5.05-9.73,5.45-13.51.23-2.16-.05-4.86-.35-7.43l-.05-.42.4-.12c.42-.13.8-.3,1.14-.53l.52-.34.23.58c1.72,4.41,3.74,8.86,6.85,11.48,1.42,1.19,3.15,2.15,5.17,2.84l.73.25-.52.56c-6.09,6.57-2.05,17.71-2.01,17.82l.09.24-.15.21c-3.7,5.42-7.72,8.16-11.96,8.16ZM190.54,243.69c1.56,2.8,7.58,12.65,15.15,13.13,4.04.26,7.93-2.27,11.55-7.5-.59-1.72-3.59-11.49,1.81-18.04-1.84-.71-3.45-1.63-4.79-2.77-3.15-2.65-5.2-6.98-6.92-11.34-.15.08-.31.15-.48.21.29,2.51.53,5.11.3,7.25-.41,3.92-1.74,9.54-5.69,14.06-2.32,2.66-6.31,4.47-10.94,5Z"/>
      </g>
      <g>
        <path class="cls-2" d="M208.01,206.31c-.51-1-1.07-2.06-2.03-2.64-1.04-.62-2.4-.56-3.49-.03s-1.93,1.48-2.55,2.52c-1.01,1.69-1.49,3.73-1.17,5.67s1.48,3.77,3.2,4.73,3.98.97,5.62-.11c1.59,4.08,3.64,8.86,6.99,11.68,2.17,1.83,4.87,2.96,7.64,3.58,3.32.74,6.86.74,10.04-.46s5.94-3.71,7-6.94c.56-1.68.64-3.49.58-5.26-.09-2.75-.53-5.47-.96-8.18-1.05-6.58-2.2-15.27-3.25-21.85-1.03,1.81-2.47,3.65-3.67,5.36-5.49,7.81-14.45,12.77-23.96,11.93Z"/>
        <path class="cls-6" d="M226.68,232.71c-1.48,0-3.01-.17-4.57-.52-3.13-.7-5.77-1.94-7.85-3.69-3.15-2.65-5.2-6.98-6.92-11.34-1.69.85-3.87.8-5.61-.17-1.8-1.01-3.1-2.91-3.45-5.09-.33-1.99.11-4.12,1.24-6.01.76-1.28,1.69-2.19,2.76-2.71,1.32-.65,2.84-.63,3.96.05,1.02.62,1.62,1.68,2.09,2.59,8.77.66,17.66-3.81,23.23-11.74.32-.46.66-.92,1-1.39.93-1.29,1.9-2.62,2.64-3.93l.71-1.23.22,1.4c.52,3.29,1.08,7.18,1.63,10.93.54,3.75,1.1,7.63,1.62,10.92.43,2.68.87,5.46.96,8.24.08,2.25-.11,3.93-.6,5.43-1.06,3.21-3.79,5.92-7.3,7.25-1.76.67-3.7,1-5.75,1ZM207.83,215.69l.23.58c1.72,4.41,3.74,8.86,6.85,11.48,1.95,1.64,4.45,2.81,7.42,3.47,3.54.79,6.92.63,9.75-.44,3.23-1.22,5.74-3.7,6.7-6.63.46-1.39.63-2.96.56-5.09-.09-2.72-.53-5.46-.95-8.12-.52-3.29-1.08-7.18-1.63-10.93-.47-3.25-.95-6.6-1.41-9.58-.62.96-1.31,1.91-1.98,2.84-.34.47-.67.93-.99,1.38-5.84,8.3-15.19,12.96-24.41,12.14l-.28-.02-.13-.25c-.43-.85-.97-1.91-1.84-2.44-.84-.5-1.99-.51-3.01,0-.89.44-1.68,1.22-2.34,2.33-1,1.68-1.4,3.58-1.11,5.33.31,1.88,1.41,3.51,2.95,4.38,1.61.9,3.65.86,5.1-.1l.52-.34Z"/>
      </g>
      <path class="cls-10" d="M189.43,192.51c-.15,1.16.86,2.14,2.01,1.96l56.73-8.84c.82-.12.84-1.3.02-1.44l-13.43-2.29c-1.13-.19-2.13-.84-2.76-1.79l-2.61-3.88c-3-4.47-7.62-7.62-12.88-8.77l-1.01-.22c-5.7-1.25-11.67-.05-16.45,3.3h0c-3.38,2.37-5.96,5.67-7.45,9.46-.62,1.57-.97,3.23-1.19,4.91l-.98,7.59Z"/>
      <path class="cls-6" d="M225.71,181.45c-1.15-2.28-3.11-4.29-5.66-5.81-2.22-1.32-4.9-2.28-7.98-2.84-3.8-.7-7.28-.63-10.33.2-3.5.96-6.44,3-8.08,5.62l-.85-.53c1.77-2.82,4.93-5.03,8.67-6.05,3.19-.87,6.82-.94,10.77-.22,3.19.59,5.98,1.58,8.31,2.97,2.71,1.61,4.8,3.76,6.04,6.22l-.89.45Z"/>
      <path class="cls-7" d="M224.74,212.75c-.73,0-1.46-.1-2.18-.31-2.73-.8-5.13-3.12-6.33-6.09-1.34.24-2.76.48-4.19.71-1.58.26-3.16.52-4.62.79l-.18-.98c1.47-.27,3.05-.53,4.64-.79,1.57-.26,3.13-.52,4.58-.78l.42-.08.14.4c1.04,2.87,3.27,5.11,5.83,5.87,2.82.83,5.98-.29,7.34-2.59.95-1.61,1.64-3.41,1.94-5.08l.03-.17.13-.12c1.06-.91,2.71-.46,3.7.5.44.43.79.92,1.12,1.4.32.45.62.88.98,1.24.78.77,1.88,1.18,3.14,1.15,1.43-.03,2.82-.64,3.74-1.62,1.6-1.72,2.07-4.63,1.2-7.2-13.11,1.9-26.29,4.35-39.19,7.3l-.22-.97c13.06-2.99,26.4-5.47,39.67-7.38l.39-.06.15.37c1.18,3,.66,6.54-1.26,8.62-1.09,1.18-2.76,1.91-4.45,1.94-1.5.03-2.89-.48-3.87-1.44-.43-.42-.77-.91-1.1-1.37-.32-.46-.63-.89-1-1.26-.61-.59-1.6-.94-2.22-.56-.34,1.73-1.06,3.57-2.03,5.22-1.24,2.1-3.73,3.35-6.31,3.35Z"/>
      <path class="cls-6" d="M226.75,311.5l-.67-.74c4.34-3.93,6.31-10.87,5.39-19.05-.35-3.12-1.02-6.25-1.68-9.28-.8-3.73-1.63-7.58-1.87-11.47l1-.06c.24,3.81,1.06,7.63,1.85,11.32.66,3.06,1.34,6.22,1.69,9.38.56,5,.56,14.23-5.72,19.9Z"/>
      <path class="cls-6" d="M363.87,629.96h80.64c3.14,0,4.29-4.14,1.59-5.76l-17.67-10.58c-1.57-.94-2.7-2.36-3.32-3.99-19.93,10.23-51.74,9.38-62.09,8.79-.01,1.96.06,3.93.26,5.88l.58,5.67Z"/>
      <g>
        <path class="cls-8" d="M391.16,454.28l5.64-4.92c.82-.72,1.93-1.02,3.01-.81l6.94,1.32c2.83.54,5.66-.9,6.89-3.5l.11-.24c.38-.81.08-1.78-.69-2.23l-8.27-4.83c-3.7-2.16-8.03-2.97-12.26-2.3l-17.78,2.81-5.09.14c-1.01,6-1.82,14.05-.33,19.75l3.11.42c6.76.92,13.6-1.12,18.74-5.61Z"/>
        <path class="cls-6" d="M375.62,460.6c-1.08,0-2.18-.07-3.26-.22l-3.44-.47-.08-.32c-1.53-5.85-.67-14.08.33-19.96l.07-.41,5.51-.15,17.72-2.8c4.33-.69,8.8.16,12.59,2.37l8.27,4.83c1,.59,1.39,1.82.89,2.87l-.11.24c-1.33,2.81-4.39,4.35-7.43,3.78l-6.94-1.32c-.93-.18-1.87.08-2.58.7l-5.64,4.92c-4.42,3.86-10.07,5.95-15.87,5.95ZM369.72,459.01l2.77.38c6.62.9,13.31-1.1,18.34-5.49l5.64-4.92c.95-.83,2.2-1.16,3.43-.93l6.94,1.32c2.6.5,5.21-.83,6.34-3.22l.11-.24c.27-.58.06-1.26-.49-1.58l-8.27-4.83c-3.59-2.09-7.82-2.89-11.93-2.24l-17.78,2.81-4.75.13c-.93,5.64-1.69,13.29-.36,18.81Z"/>
      </g>
      <path class="cls-7" d="M376.75,462.55l-1.06,2.95h79.6c1.51,0,2.89-.89,3.51-2.27l23.58-52.67c.88-1.95-.56-4.16-2.7-4.16h-35.59c-1.2,0-2.28.72-2.73,1.83l-21.3,51.88-39.72-.09c-1.61,0-3.05,1.01-3.6,2.53Z"/>
      <g>
        <path class="cls-8" d="M347.3,341.94c-1.6-1.49-2.95-3.25-3.87-5.23-1.58-3.38-1.96-8.03-.5-11.46-1.55-.59-2.73-1.51-3.68-2.7l-7.36,1.02s-3.36,14.07-11.86,16.16l.93,3.1c2.71,9.01,12.16,14.17,21.21,11.58,0,0-1.41-7.95,5.13-12.47Z"/>
        <path class="cls-6" d="M337.47,355.57c-7.62,0-14.7-4.97-17-12.59l-1.08-3.6.51-.13c8.1-2,11.46-15.65,11.49-15.79l.08-.33,7.98-1.1.18.22c.95,1.18,2.09,2.01,3.47,2.54l.48.18-.2.48c-1.33,3.13-1.13,7.57.49,11.05.86,1.84,2.12,3.55,3.76,5.07l.46.42-.51.35c-6.2,4.27-4.94,11.89-4.93,11.97l.08.44-.43.12c-1.61.46-3.23.68-4.83.68ZM320.65,340.07l.79,2.61c2.58,8.57,11.57,13.59,20.18,11.36-.18-1.75-.4-8.11,4.91-12.15-1.52-1.51-2.72-3.18-3.55-4.96-1.66-3.55-1.92-8.06-.69-11.4-1.26-.56-2.33-1.36-3.25-2.44l-6.75.93c-.57,2.17-3.94,13.71-11.64,16.06Z"/>
      </g>
      <g>
        <path class="cls-8" d="M379.49,306.45c-1.98,7.15-3.97,14.3-5.95,21.46-1.2,4.32-2.44,8.73-4.99,12.41s-6.7,6.58-11.17,6.42c-2.25-.08-4.41-.92-6.36-2.04-3.23-1.86-6.02-4.6-7.6-7.98s-1.96-8.03-.5-11.46c-2.4-.92-3.93-2.61-5.09-4.91-1.28-2.54-1.41-5.73.05-8.17,1.67-2.79,5.57-4.23,8.43-2.37,2.05,1.33,2.72,4.02,1.88,6.31-.24.64-.49,1.36-.74,2.11-.22.65.13,1.37.79,1.57.51.16,1.04.29,1.56.43.68.18,1.38-.24,1.53-.93.51-2.45,1.06-5.1,1.56-7.5.2-.93,1.06-2.03,1.93-2.4.96-.41,2.01-.49,3.03-.68,4.13-.77,7.85-3.53,9.79-7.26,3.25,2.74,7.61,5.13,11.86,5Z"/>
        <path class="cls-6" d="M357.73,347.24c-.12,0-.25,0-.37,0-2.08-.08-4.29-.79-6.59-2.11-3.51-2.02-6.28-4.94-7.8-8.2-1.66-3.55-1.92-8.06-.69-11.4-2.09-.92-3.65-2.51-4.89-4.96-1.44-2.86-1.42-6.17.06-8.65.97-1.62,2.67-2.85,4.54-3.28,1.64-.38,3.27-.11,4.6.75,2.16,1.41,3.03,4.31,2.07,6.9-.23.64-.49,1.35-.74,2.09-.06.19-.05.4.04.58.09.17.23.29.41.35.37.11.75.21,1.13.31l.41.11c.2.05.41.02.58-.08.17-.1.29-.27.33-.46l.69-3.34c.29-1.41.59-2.83.87-4.16.23-1.12,1.21-2.33,2.23-2.76.77-.33,1.58-.46,2.37-.58.26-.04.51-.08.77-.13,3.96-.74,7.58-3.42,9.44-7l.29-.55.48.4c2.24,1.89,6.72,5.03,11.52,4.89l.68-.02-6.13,22.11c-1.2,4.31-2.43,8.77-5.06,12.57-2.85,4.12-7.12,6.64-11.23,6.64ZM343.45,309.46c-.4,0-.81.05-1.23.14-1.61.37-3.07,1.43-3.91,2.82-1.29,2.15-1.3,5.17-.03,7.68,1.22,2.42,2.71,3.87,4.82,4.67l.48.18-.2.48c-1.33,3.13-1.13,7.57.49,11.05,1.44,3.08,4.06,5.84,7.39,7.76,2.15,1.24,4.21,1.91,6.13,1.98,4.66.21,8.6-3.09,10.75-6.2,2.53-3.66,3.74-8.03,4.92-12.26l5.78-20.82c-4.56-.12-8.7-2.84-11.06-4.73-2.07,3.57-5.79,6.22-9.84,6.98-.26.05-.53.09-.79.13-.76.12-1.47.23-2.13.51-.71.3-1.47,1.26-1.64,2.04-.28,1.33-.57,2.75-.86,4.16l-.69,3.34c-.1.47-.37.86-.78,1.11-.41.25-.9.32-1.36.2l-.41-.11c-.39-.1-.79-.21-1.17-.32-.44-.13-.8-.43-1.01-.85-.22-.42-.25-.91-.1-1.36.25-.76.51-1.48.75-2.12.8-2.16.09-4.57-1.68-5.72-.76-.5-1.66-.75-2.6-.75Z"/>
      </g>
      <path class="cls-6" d="M387.29,293.53c-1.15-3.01-3.66-5.43-6.62-6.68-2.97-1.25-6.49-1.81-9.61-.99,1.02-1.64,2.07-3.47,1.77-5.37-.21-1.37-1.13-2.56-2.27-3.35-1.14-.8-2.48-1.24-3.82-1.58-3.57-.89-7.38-1.05-10.91,0-3.53,1.05-6.43,3.38-8.1,6.65-1.24-2.47-3.99-3.99-6.75-4.11-2.76-.12-5.48,1.03-7.61,2.8s-3.71,4.1-4.97,6.57c-2.94,5.76-4.19,12.37-3.56,18.81.63,6.44,3.14,12.68,7.15,17.76,3.55.98,7.2,1.43,10.86,1.42.03-.07.04-.15.07-.21-2.4-.92-3.93-2.61-5.09-4.91-1.28-2.54-1.41-5.73.05-8.17,1.67-2.79,5.57-4.23,8.43-2.37,2.05,1.33,2.72,4.02,1.88,6.31-.24.64-.49,1.36-.74,2.11-.22.65.13,1.37.79,1.57.51.16,1.04.29,1.56.43.68.18,1.38-.24,1.53-.93.51-2.45,1.06-5.1,1.56-7.5.2-.93,1.06-2.03,1.93-2.4.96-.41,2.01-.49,3.03-.68,4.13-.77,7.85-3.53,9.79-7.26,2.84,2.39,6.51,4.51,10.22,4.93,3.2.37,6.74-.9,8.52-3.58,1.78-2.68,2.06-6.25.9-9.26Z"/>
      <g>
        <path class="cls-3" d="M448.44,475.56c.96-5.23-3.06-10.06-8.38-10.06h-87.25c-13.87,5.01-32.86,11.35-41,11.65l-1.73,2.1c-20.06,24.28-58.51,19.69-72.3-8.63h0c-1.59,21.11,2.87,42.24,12.85,60.9l24.27,45.35-75.43-17.15h0l15.95,53.77,31.49,4.98,74.71,11.49h14.71c5,0,8.77-4.53,7.86-9.45l-17.77-96.13,51.2-6.08-14.02,92.47c-.38,2.53-.56,5.09-.58,7.64,10.35.6,42.16,1.44,62.09-8.79-.5-1.33-.68-2.78-.41-4.24l23.73-129.83Z"/>
        <path class="cls-6" d="M199.47,559.72h0l-7.63-1.73c-3.09-.7-6.15,1.28-6.77,4.39l-8.43,42.42c-1.4,7.04.74,14.31,5.72,19.47l5.49,5.68h65.29l-6.22-11.49-31.49-4.98-15.95-53.77Z"/>
      </g>
      <path class="cls-4" d="M253.14,630.46h-65.5l-5.63-5.83c-5.09-5.28-7.28-12.72-5.85-19.92l8.43-42.42c.33-1.64,1.28-3.04,2.68-3.95,1.4-.91,3.07-1.21,4.7-.83l7.63,1.73-.22.97-7.63-1.73c-1.36-.31-2.76-.06-3.93.7-1.17.76-1.97,1.93-2.24,3.3l-8.43,42.42c-1.37,6.87.73,13.99,5.59,19.03l5.34,5.53h65.07v1Z"/>
      <rect class="cls-4" x="323.52" y="491.79" width="1" height="33.71" transform="translate(-84.77 65.25) rotate(-10.18)"/>
      <g>
        <path class="cls-4" d="M369.65,439.71l-31.07.82,4.05-10.52c5.08-13.2,7.31-27.26,6.63-41.28-.33-6.75-1.51-13.44-3.26-19.97l-3.84-14.35c-9.05,2.59-18.5-2.57-21.21-11.58l-.93-3.1c-71.05,1.92-82.25,130.89-82.25,130.89h0c13.78,28.32,52.23,32.91,72.3,8.63l.54-.65c.72-.88,1.75-1.45,2.88-1.57,15.14-1.67,55.49-17.6,55.49-17.6l.33.05c-1.49-5.71-.68-13.75.33-19.75Z"/>
        <path class="cls-6" d="M276.77,495.47c-1.74,0-3.5-.1-5.26-.31-14.86-1.77-27.64-10.86-34.18-24.32l-.06-.12v-.14c.04-.32,2.95-32.68,14.52-64.85,15.36-42.71,38.95-65.71,68.22-66.5h.38s1.04,3.46,1.04,3.46c2.62,8.7,11.86,13.74,20.59,11.24l.49-.14,3.97,14.84c1.87,6.98,2.97,13.74,3.28,20.08.69,14.23-1.55,28.19-6.67,41.49l-3.78,9.82,30.93-.82-.1.6c-.98,5.78-1.83,13.86-.34,19.54l.19.72-.94-.13c-2.47.97-40.88,15.97-55.5,17.59-.99.11-1.9.61-2.55,1.4l-.54.65c-8.4,10.17-20.71,15.9-33.69,15.9ZM238.29,470.53c6.42,13.08,18.87,21.91,33.34,23.64,14.51,1.73,28.74-3.96,38.06-15.23l.54-.65c.82-.99,1.96-1.61,3.21-1.75,14.51-1.6,52.86-16.59,55.25-17.53-1.28-5.6-.54-13.14.37-18.77l-31.21.83,4.32-11.22c5.06-13.17,7.29-26.99,6.6-41.08-.3-6.27-1.4-12.95-3.25-19.87l-3.71-13.87c-9.11,2.33-18.61-2.99-21.33-12.05l-.82-2.73c-36.17,1.22-56.35,36.43-66.92,65.81-11.15,30.99-14.23,62.15-14.45,64.48Z"/>
      </g>
      <path class="cls-6" d="M299.83,479.4c-6.43,0-11.36-1.53-14.39-3.5-6.74-4.39-9.42-12.92-11.79-20.45l-.1-.32c-7.57-24.05-8.74-49.55-9.88-74.21l1-.05c1.13,24.6,2.3,50.03,9.83,73.95l.1.32c2.32,7.37,4.95,15.72,11.38,19.91,4.57,2.98,14.6,5.08,27.79,1.18l.28.96c-5.3,1.57-10.08,2.2-14.23,2.2Z"/>
      <path class="cls-6" d="M309.96,442.29l-.02-.5c-.83-24.39-2.23-49.1-4.15-73.42l1-.08c1.91,24.17,3.3,48.72,4.13,72.96l27.64-1.21.04,1-28.65,1.26Z"/>
      <polygon class="cls-3" points="709.49 400.96 657.49 629.96 645.96 629.96 698.25 400.14 709.49 400.96"/>
      <polygon class="cls-7" points="687.99 400.96 739.99 629.96 751.52 629.96 698.97 399 687.99 400.96"/>
      <path class="cls-7" d="M812.55,629.96h11.53l-65.32-230.96h-109.31l-65.32,230.96h11.53l24.57-86.86h167.75l24.57,86.86ZM657.85,410.1h92.52l15.67,55.4h-123.86l15.67-55.4ZM623.38,532l15.67-55.4h130.13l15.67,55.4h-161.47Z"/>
      <path class="cls-3" d="M680.43,241.81l-6.42-36.21,14.53-2.54-1.61-9.34-5.82,2.88c-5.61,2.77-12.37,1.43-16.5-3.27l-43.45-49.52,28.21-24.01,26.23,37.01c.7,1.08,2.32.98,2.88-.19l13.94-29.24c1.82-3.82,4.99-6.82,8.9-8.43l22.53-9.3c5.49-2.26,11.65-2.25,17.13.04h0c9.69,4.04,17.42,11.69,21.58,21.33l29,67.2c1.37,3.18.99,6.84-1,9.67h0c-1.13,1.61-2.71,2.84-4.54,3.55l-10.35,4.02,2.24,11.27h0c-21.56,17.38-48.88,25.98-76.5,24.09l-10.06-.69,2.86-11.96-13.78,3.64Z"/>
      <g>
        <path class="cls-2" d="M674.54,206.14c-16.18,1.21-35.36-3.91-48.04-14.03,1.04,4.2,1.31,7.31,2.3,11.43.05.22-.11.44-.34.45-6.32.17-9.63-.4-16.69-.82-1.71-.1-3.5-.16-5.08.51s-2.9,2.28-2.67,3.98c.17,1.3,1.19,2.36,2.37,2.93s2.5.75,3.8.92l17.64,2.27c.44.06.4.7-.04.71-7.21.16-14.21.45-21.54.54-2.6.03-5.62.26-6.8,2.85-.46,1-.47,2.18-.1,3.22.95,2.67,3.57,3.99,6.18,4.34,2.02.28,4.07.05,6.1-.13,5.96-.51,11.99-1.11,19.26-1.25.43,0,.51.61.09.7-7.14,1.59-14.35,3.41-21.47,4.92-1.94.41-4.12.98-4.83,3.02-.32.91-.22,1.94.19,2.81.95,2.03,3.1,2.96,5.21,3.13,1.68.14,3.36-.16,5.02-.46l17.81-3.19c.4-.07.59.47.23.67-3.67,1.95-7.5,4.06-11.1,5.95-2.27,1.18-4.85,2.81-4.49,5.6.14,1.09.79,2.07,1.7,2.69,2.31,1.57,5.11.98,7.35-.28,1.73-.97,4.05-2.14,5.74-3.18,7.92-4.88,16.07-8.48,25.27-10.7,7.06-1.7,14.12-3.41,21.18-5.11l-4.23-24.5Z"/>
        <path class="cls-6" d="M622.39,251.34c-1.26,0-2.43-.34-3.44-1.03-1.06-.72-1.76-1.83-1.91-3.04-.43-3.4,3.07-5.23,4.75-6.11,2.14-1.11,4.35-2.31,6.56-3.5,1.25-.67,2.5-1.35,3.73-2.01l-16.91,3.03c-1.66.3-3.38.61-5.14.47-2.65-.21-4.7-1.46-5.62-3.42-.48-1.03-.56-2.19-.21-3.19.78-2.24,2.99-2.88,5.2-3.35,4.11-.87,8.32-1.86,12.39-2.82,2.55-.6,5.11-1.2,7.65-1.78-5.79.16-10.83.6-15.71,1.03l-2.65.23c-1.84.16-3.75.33-5.63.07-3.29-.45-5.69-2.15-6.58-4.67-.42-1.19-.38-2.5.12-3.59,1.41-3.07,5.21-3.12,7.25-3.15,4.46-.06,8.88-.19,13.15-.31,2.16-.06,4.32-.13,6.5-.18l-15.76-2.03c-1.26-.16-2.69-.35-3.96-.96-1.48-.72-2.46-1.96-2.64-3.32-.27-2.02,1.29-3.79,2.97-4.51,1.66-.71,3.45-.66,5.3-.55,2.19.13,4.03.28,5.7.41,3.64.29,6.53.52,10.77.42-.46-1.94-.77-3.68-1.06-5.36-.32-1.84-.66-3.74-1.19-5.9l-.35-1.43,1.15.92c12.17,9.71,30.88,15.18,47.69,13.92l.45-.03,4.39,25.4-21.63,5.22c-8.69,2.09-16.9,5.58-25.12,10.64-1.08.67-2.41,1.38-3.68,2.06-.73.39-1.44.77-2.08,1.13-1.51.85-3.03,1.28-4.44,1.28ZM632.97,234.49c.36,0,.68.22.8.58.14.41-.03.83-.41,1.04-1.5.79-3.01,1.62-4.53,2.44-2.22,1.2-4.43,2.39-6.57,3.51-2.37,1.24-4.53,2.71-4.23,5.1.12.91.67,1.78,1.48,2.33,2.48,1.68,5.34.54,6.82-.3.64-.36,1.36-.74,2.09-1.14,1.26-.68,2.57-1.38,3.63-2.03,8.31-5.12,16.63-8.64,25.42-10.76l20.72-5-4.07-23.59c-16.41,1.11-34.56-4.07-46.81-13.3.36,1.63.63,3.13.88,4.58.3,1.72.62,3.49,1.09,5.47.06.25,0,.52-.16.73-.16.21-.4.33-.66.34-4.39.11-7.33-.12-11.05-.41-1.67-.13-3.49-.28-5.68-.41-1.72-.1-3.39-.15-4.85.47-1.3.55-2.57,1.95-2.37,3.46.16,1.2,1.18,2.11,2.09,2.55,1.11.55,2.4.71,3.64.87l17.64,2.27c.46.06.77.43.75.89-.02.46-.38.8-.84.81-2.82.06-5.6.14-8.38.23-4.27.13-8.69.26-13.16.31-2.52.03-5.3.26-6.35,2.56-.39.86-.42,1.89-.08,2.84,1.08,3.06,4.4,3.83,5.78,4.01,1.77.24,3.62.08,5.4-.08l2.65-.23c5.3-.47,10.78-.95,17.23-1.07.42-.03.81.31.87.75s-.23.84-.66.94c-3.01.67-6.04,1.38-9.07,2.09-4.08.96-8.29,1.95-12.41,2.82-2,.42-3.85.95-4.46,2.7-.26.76-.2,1.65.17,2.44,1.08,2.31,3.72,2.76,4.8,2.85,1.63.13,3.29-.17,4.89-.46l17.81-3.19c.05,0,.11-.01.16-.01Z"/>
      </g>
      <path class="cls-10" d="M643.42,106.43h-37.1c-3.34,0-6.05,2.71-6.05,6.05h0c0,3.34,2.71,6.05,6.05,6.05h16.14s.03-.02.05-.03c3.69-2.48,7.39-4.97,11.08-7.45.48-.32.96-.64,1.49-.86,2.4-.96,5.06.48,7.09,2.07,1.85,1.46,3.54,3.11,5.08,4.9,1.35-1.11,2.22-2.79,2.22-4.68h0c0-3.34-2.71-6.05-6.05-6.05Z"/>
      <rect class="cls-6" x="577.82" y="111.98" width="22.45" height="1"/>
      <polygon class="cls-6" points="564.73 114.69 577.82 115.76 577.82 109.21 564.73 110.27 564.73 114.69"/>
      <g>
        <path class="cls-2" d="M637.33,106.43l-1.77-1.44c-4.45-3.62-10.01-5.6-15.74-5.6h-10.05c-1.95,0-3.52,1.58-3.52,3.52h0c0,1.95,1.58,3.52,3.52,3.52h27.56Z"/>
        <path class="cls-6" d="M638.73,106.93h-28.97c-2.22,0-4.02-1.8-4.02-4.02s1.8-4.02,4.02-4.02h10.05c5.83,0,11.54,2.03,16.06,5.72l2.86,2.33ZM609.76,99.89c-1.67,0-3.02,1.36-3.02,3.02s1.36,3.02,3.02,3.02h26.16l-.68-.55c-4.34-3.54-9.82-5.49-15.43-5.49h-10.05Z"/>
      </g>
      <g>
        <path class="cls-2" d="M619.15,134.84c.4-2.93,2.36-5.73,4.9-7.24-1.49.42-3.2-.07-4.24-1.21s-1.36-2.89-.8-4.34c.61-1.55,2.06-2.58,3.45-3.52h-8.75l-1.4,8.29c-.56,3.33.51,6.73,2.88,9.14l5.37,5.45h0c-1.19-1.95-1.72-4.31-1.41-6.57Z"/>
        <path class="cls-6" d="M620.81,142.37l-.6-.6-5.37-5.45c-2.48-2.51-3.6-6.09-3.02-9.57l1.47-8.71h10.81l-1.36.92c-1.47.99-2.72,1.92-3.26,3.29-.5,1.27-.22,2.8.7,3.82.92,1.01,2.42,1.44,3.73,1.07l3.67-1.04-3.28,1.96c-2.46,1.47-4.29,4.17-4.66,6.88-.29,2.13.18,4.34,1.34,6.24l.11.19-.3,1.04ZM614.14,119.03l-1.33,7.88c-.54,3.16.49,6.42,2.74,8.71l3.45,3.5c-.42-1.41-.54-2.89-.34-4.34l.5.07-.5-.07c.34-2.44,1.73-4.87,3.7-6.56-1.1-.14-2.16-.66-2.91-1.49-1.17-1.29-1.53-3.24-.89-4.85.46-1.17,1.32-2.05,2.35-2.83h-6.76Z"/>
      </g>
      <g>
        <path class="cls-2" d="M701.31,118.96s2.25-9.79-2.2-16.05l10.07-14.97,9.1,4.07s1.18,14.62,9.2,16.5c0,0-23.97,26.49-26.17,10.44Z"/>
        <path class="cls-6" d="M705.77,124.61c-.51,0-.99-.07-1.44-.21-1.92-.59-3.1-2.4-3.51-5.38v-.09s0-.09,0-.09c.02-.1,2.15-9.65-2.12-15.64l-.2-.28,10.5-15.6,9.75,4.36.02.3c.01.14,1.24,14.27,8.82,16.06l.83.19-.57.63c-.62.68-14.36,15.76-22.09,15.76ZM701.82,118.98c.36,2.51,1.3,4.01,2.8,4.48,5.97,1.84,19.11-11.67,21.95-14.69-7.05-2.47-8.55-14.32-8.76-16.42l-8.45-3.78-9.64,14.34c4.1,6.11,2.33,15.01,2.1,16.07Z"/>
      </g>
      <g>
        <path class="cls-2" d="M678.77,64.96c.2,7.16.4,14.32.59,21.48.09,3.17.18,6.37.98,9.43.8,3.06,2.39,6.03,4.95,7.89,2.79,2.03,6.5,2.56,9.9,1.93,3.73-.69,7.2-2.72,9.63-5.63s3.81-6.68,3.83-10.47c1.55.37,2.99-.05,3.99-1.29s1.42-2.85,1.55-4.44c.14-1.75-.08-3.57-.92-5.11s-2.39-2.75-4.13-2.91c-1.59-.14-3.18.6-4.32,1.72s-1.88,2.59-2.42,4.1c.72-3.45-.94-6.15-3.21-8.85s-5.46-4.49-8.8-5.62-8.11-1.71-11.6-2.23Z"/>
        <path class="cls-6" d="M692.46,106.44c-2.79,0-5.41-.79-7.46-2.28-3.07-2.23-4.49-5.68-5.14-8.17-.82-3.13-.91-6.39-1-9.54l-.61-22.08,2.08.3c3.24.46,7.27,1.04,10.2,2.03,3.86,1.31,6.9,3.26,9.02,5.78,1.64,1.95,3.14,4.08,3.44,6.62.43-.74.91-1.37,1.46-1.9,1.33-1.31,3.09-2,4.71-1.86,1.81.16,3.55,1.38,4.53,3.17.81,1.48,1.14,3.3.98,5.39-.15,1.96-.71,3.54-1.66,4.71-.96,1.19-2.36,1.75-3.89,1.57-.15,3.69-1.57,7.38-3.93,10.2-2.49,2.98-6.1,5.09-9.92,5.8-.95.18-1.89.26-2.82.26ZM679.29,65.54l.58,20.89c.09,3.1.17,6.3.96,9.32.61,2.34,1.94,5.56,4.76,7.62,2.5,1.83,5.97,2.49,9.51,1.84,3.59-.67,6.99-2.66,9.33-5.46,2.34-2.8,3.69-6.51,3.71-10.16v-.63s.62.15.62.15c1.4.33,2.64-.06,3.49-1.11.82-1.01,1.3-2.41,1.44-4.16.14-1.87-.16-3.54-.86-4.83-.82-1.5-2.26-2.52-3.74-2.65-1.33-.12-2.8.47-3.92,1.58-.94.92-1.69,2.2-2.29,3.91l-.96-.27c.65-3.16-.77-5.65-3.11-8.43-2.01-2.38-4.89-4.22-8.58-5.47-2.84-.96-6.82-1.53-10.02-1.99l-.91-.13Z"/>
      </g>
      <path class="cls-6" d="M726.46,64.96h-20.34c-9.1.56-18.21.67-27.35,0,3.49.51,8.26,1.09,11.6,2.23,3.34,1.13,6.53,2.93,8.8,5.62,2.27,2.7,3.93,5.4,3.21,8.85.54-1.51,1.28-2.98,2.42-4.1,1.14-1.12,2.73-1.86,4.32-1.72,1.75.16,3.29,1.37,4.13,2.91.84,1.54,1.06,3.36.92,5.11-.12,1.59-.55,3.2-1.55,4.44s-2.44,1.65-3.99,1.29c0,.11-.01.23-.02.34,2.97,1.68,6.5,2.79,9.72,2.77,7.61-7.17,10.78-17.76,8.11-27.74Z"/>
      <path class="cls-10" d="M665.7,64.96h60.76s-.84-24.2-24.26-24.19c-16.04,0-21.6,11.38-23.03,15.25-.31.83-.92,1.51-1.73,1.88l-12.07,5.61c-.74.34-.49,1.45.32,1.45Z"/>
      <path class="cls-3" d="M673.62,88.36c-.96,0-1.95-.25-2.85-.75-1.61-.9-2.9-2.55-3.61-4.65-.55-1.63-.6-3.53-.65-5.21l-.04-1.24h40.63l-2.67,2.18-5.62.31c-.96.09-1.96.24-2.48.88-.43.52-.47,1.28-.51,2.08-.02.4-.04.82-.12,1.23-.3,1.67-1.55,3.22-3.27,4.04-1.42.68-3.18.91-5.09.67-1.49-.19-3.45-.76-4.37-2.43-.46-.83-.55-1.74-.64-2.62-.03-.28-.06-.56-.1-.84l-.04-.29c-.13-.91-.31-2.16-.98-2.32-.38-.08-.79.16-1.03.44-.29.34-.46.79-.62,1.36-.1.36-.2.73-.3,1.1-.49,1.89-1,3.85-2.59,5.07-.85.66-1.92.99-3.04.99ZM667.5,77.5v.22c.05,1.68.1,3.42.6,4.91.64,1.86,1.76,3.32,3.16,4.1,1.57.88,3.54.81,4.79-.16,1.31-1.02,1.78-2.8,2.23-4.53.1-.38.2-.76.31-1.13.17-.6.39-1.22.83-1.73.53-.62,1.32-.92,2.01-.76,1.34.31,1.58,1.95,1.75,3.15l.04.29c.04.29.08.59.11.88.08.82.17,1.6.52,2.24.76,1.37,2.6,1.79,3.62,1.92,1.72.21,3.29.01,4.54-.58,1.43-.68,2.47-1.96,2.71-3.32.06-.35.08-.72.1-1.11.05-.93.1-1.88.74-2.66.77-.94,1.99-1.13,3.18-1.24l5.31-.29.25-.2h-36.79Z"/>
      <path class="cls-6" d="M686.62,60.64l-.99-.11c.7-6.57,4.68-12.72,10.39-16.04,5.71-3.32,13.03-3.74,19.08-1.1l-.4.92c-5.77-2.52-12.73-2.12-18.18,1.04-5.44,3.16-9.24,9.02-9.9,15.28Z"/>
      <path class="cls-3" d="M704.22,451.69c-10.35-.44-20.54-2.57-30.58-5.14-.35,2.33-1.54,4.51-3.43,6.08l-10.95,9.06c-1.55,1.28-.65,3.81,1.37,3.81h75.52v-11.42c0-2.55-.32-5.09-.95-7.55-9.65,4.22-20.43,5.62-30.98,5.17Z"/>
      <g>
        <path class="cls-4" d="M810.21,515.67l-38.91-240.84c9.23-10.3,12.7-24.53,9.24-37.93l-2.63-10.17h0c-21.56,17.38-48.88,25.98-76.5,24.09l-10.06-.69-51.74,61.89c-4.8,5.74-6.25,13.57-3.82,20.65l37.45,109.26c.52,1.52.64,3.1.41,4.62,10.04,2.58,20.23,4.7,30.58,5.14,10.55.45,21.33-.94,30.98-5.17-.31-1.21-.68-2.4-1.13-3.57l-37.03-95.85c-.71-1.85-.24-3.94,1.19-5.31l21.53-20.53,35.31,184.51c.35,1.82.1,3.66-.63,5.29,17.17,8.3,37.45,9.88,55.76,4.61Z"/>
        <path class="cls-6" d="M788.43,519.22c-11.84,0-23.65-2.6-34.21-7.7l-.44-.21.2-.44c.71-1.59.91-3.32.59-4.99l-35.14-183.61-20.87,19.9c-1.29,1.23-1.71,3.1-1.07,4.76l37.03,95.85c.44,1.14.83,2.36,1.14,3.63l.1.41-.39.17c-9.03,3.95-19.52,5.7-31.2,5.21-11.24-.48-22.3-3.01-30.68-5.16l-.44-.11.07-.45c.22-1.47.08-2.99-.39-4.39l-37.45-109.26c-2.47-7.2-.97-15.3,3.91-21.13l51.91-62.08,10.31.71c27.58,1.9,54.63-6.62,76.16-23.98l.6-.49,2.82,10.92c3.49,13.51.06,27.77-9.19,38.21l38.94,241.04-.43.12c-7.12,2.05-14.52,3.06-21.91,3.06ZM755.09,510.82c16.7,7.94,36.53,9.58,54.55,4.5l-38.88-240.64.16-.18c9.14-10.2,12.55-24.2,9.13-37.47l-2.44-9.42c-21.62,17.19-48.67,25.6-76.25,23.71l-9.8-.67-51.58,61.69c-4.66,5.57-6.09,13.3-3.74,20.17l37.45,109.26c.48,1.41.65,2.92.49,4.41,8.28,2.12,19.09,4.55,30.05,5.02,11.36.49,21.57-1.19,30.36-4.96-.29-1.08-.62-2.12-1-3.1l-37.03-95.85c-.79-2.04-.27-4.34,1.31-5.85l22.19-21.16.17.9,35.31,184.51c.33,1.72.16,3.48-.48,5.14Z"/>
      </g>
      <path class="cls-3" d="M751.68,514.57l-18.14,13.67c-1.61,1.21-.75,3.77,1.26,3.77h69.73c4.35,0,7.67-3.9,6.98-8.2l-1.31-8.13c-18.31,5.27-38.59,3.69-55.76-4.61-.6,1.36-1.53,2.57-2.76,3.5Z"/>
      <g>
        <path class="cls-2" d="M649.47,119.99c-2.04-2.91-4.51-5.52-7.3-7.72-2.03-1.6-4.69-3.04-7.09-2.07-.53.21-1.01.54-1.49.86-3.69,2.48-7.39,4.97-11.08,7.45-1.4.94-2.88,1.98-3.5,3.55-.56,1.44-.24,3.19.8,4.34s2.75,1.63,4.24,1.21c-2.54,1.51-4.5,4.32-4.9,7.24s.59,6.02,2.62,8.17c9.81-7.74,17.89-15.28,27.7-23.02Z"/>
        <path class="cls-6" d="M621.72,143.68l-.31-.33c-2.15-2.27-3.18-5.48-2.75-8.58.34-2.44,1.73-4.87,3.7-6.56-1.1-.14-2.16-.66-2.91-1.49-1.17-1.29-1.53-3.24-.89-4.85.69-1.78,2.35-2.89,3.68-3.79l11.08-7.45c.49-.33,1-.67,1.58-.91,2.14-.86,4.69-.14,7.58,2.15,2.84,2.23,5.33,4.87,7.4,7.83l.27.39-.37.29c-4.89,3.86-9.44,7.74-13.83,11.49-4.4,3.76-8.96,7.65-13.87,11.53l-.36.28ZM627.59,126.07l-3.28,1.96c-2.46,1.47-4.29,4.17-4.66,6.88-.36,2.61.47,5.41,2.18,7.42,4.76-3.77,9.19-7.55,13.47-11.21,4.29-3.66,8.72-7.45,13.49-11.22-1.96-2.72-4.29-5.15-6.92-7.23-2.6-2.04-4.81-2.72-6.59-2-.49.2-.95.51-1.4.81l-11.08,7.45c-1.49,1-2.77,1.95-3.31,3.32-.5,1.27-.22,2.81.7,3.82.92,1.01,2.42,1.44,3.73,1.07l3.67-1.04Z"/>
      </g>
      <path class="cls-6" d="M686.43,193.8c-2.12-13.76-1.89-28.15.69-44.01l.99.16c-2.56,15.75-2.79,30.05-.69,43.7l-.99.15Z"/>
      <path class="cls-6" d="M688.65,203.55l-.23-.97,46.5-10.82c-2.31-5.79-5.01-12.14-7.62-18.29-2.69-6.33-5.48-12.89-7.83-18.83l.93-.37c2.35,5.93,5.13,12.48,7.82,18.8,2.7,6.34,5.49,12.91,7.84,18.86l.21.54-47.63,11.09Z"/>
      <path class="cls-6" d="M694.32,238.66l-.23-.97c26.39-6.33,52.48-12.83,81.42-22.69l.32.95c-28.98,9.88-55.09,16.38-81.5,22.72Z"/>
      <path class="cls-6" d="M720.1,321.63l-.68-.74c7.54-6.92,15.35-13.85,22.89-20.56,9.45-8.4,19.22-17.08,28.64-25.87l.68.73c-9.43,8.79-19.21,17.48-28.66,25.89-7.54,6.71-15.34,13.64-22.88,20.55Z"/>
      <path class="cls-6" d="M984.54,327.25l-20.67-52.38c-4.9-12.41-16.65-20.77-29.98-21.32l-53.45-2.21c-5.59-.23-11.03,1.88-15.01,5.82l-.18.18c-4.99,4.95-7.12,12.04-5.68,18.87.2.97.41,1.94.6,2.87,1.06,5.05.17,10.32-2.48,14.74h0c-3.07,5.11-3.52,11.37-1.23,16.88l8.42,20.21c2.74,6.57,3.66,13.76,2.66,20.81l-2.97,21.01,4.56,1.33c24.33,7.12,50.14,7.51,74.68,1.13h0s-9-14.5-9-14.5l41.11-14.51c7.72-2.73,11.64-11.31,8.63-18.93ZM933.55,328.2l5.25-21.5,8.68,14.46c.55.92.12,2.12-.89,2.47l-13.03,4.56Z"/>
      <g>
        <path class="cls-8" d="M872.41,196.11c-2.33,6.33-4.25,12.82-5.75,19.4-1.14,5.04-1.99,10.54.26,15.19,1.33,2.76,3.69,4.97,6.43,6.33,4.2,2.09,9.33,2.21,13.61.31s7.65-5.78,8.92-10.29c3.05.22,6.18-.94,8.34-3.1s3.32-5.29,3.09-8.35c-.15-2-1-4.1-2.74-5.11-2.25-1.29-5.25-.29-7.03,1.59s-2.62,4.44-3.41,6.91c-2.27,1.49-6.36.33-7.65-2.06s-1.19-5.25-1.11-7.96.06-5.61-1.42-7.88c-1.82-2.81-8.23-4.5-11.55-4.99Z"/>
        <path class="cls-6" d="M880.5,239.2c-2.54,0-5.08-.57-7.37-1.72-2.96-1.48-5.33-3.81-6.66-6.56-2.28-4.72-1.49-10.25-.3-15.52,1.5-6.58,3.44-13.13,5.77-19.46l.14-.38.4.06c3.26.48,9.94,2.2,11.89,5.21,1.54,2.37,1.58,5.34,1.5,8.17-.08,2.73-.17,5.47,1.05,7.71.56,1.04,1.82,1.91,3.29,2.28,1.31.33,2.6.21,3.5-.31.75-2.35,1.62-4.97,3.47-6.93,1.85-1.96,5.07-3.17,7.64-1.68,1.69.97,2.8,3.03,2.99,5.5.24,3.2-.97,6.47-3.24,8.74-2.17,2.17-5.27,3.38-8.33,3.27-1.39,4.51-4.76,8.32-9.08,10.23-2.1.93-4.39,1.4-6.67,1.4ZM872.73,196.67c-2.25,6.17-4.13,12.54-5.59,18.95-1.16,5.09-1.93,10.42.22,14.86,1.24,2.56,3.44,4.72,6.2,6.1,4.08,2.04,9.01,2.15,13.19.3,4.17-1.85,7.4-5.58,8.64-9.97l.11-.39.41.03c2.92.22,5.89-.89,7.95-2.96,2.06-2.07,3.17-5.04,2.95-7.96-.16-2.14-1.09-3.9-2.49-4.71-2.1-1.21-4.88-.13-6.42,1.5-1.74,1.84-2.57,4.43-3.3,6.72l-.05.17-.15.1c-1.15.76-2.77.95-4.44.53-1.76-.44-3.23-1.48-3.93-2.77-1.34-2.48-1.26-5.35-1.17-8.13.08-2.76.05-5.56-1.33-7.68-1.57-2.43-7.17-4.11-10.8-4.7Z"/>
      </g>
      <path class="cls-6" d="M920.34,206.12c3.02,1.77,6.94,2.05,10.05.41,3.75-1.98,5.89-6.73,4.62-10.78-.7-2.22-2.27-4.09-4.11-5.53-1.61-1.26-3.48-2.25-5.49-2.61s-4.19-.06-5.9,1.05c-1.76,1.14-2.91,3.05-3.55,5.05-.5,1.59-.62,3.01-.73,4.57-.02.33-.46.41-.6.12-3.12-6.37-8.53-11.6-15.01-14.48-6.87-3.04-14.88-3.41-22-1.01-2.01.68-3.99,1.59-5.56,3.02-1.57,1.43-2.71,3.43-2.73,5.56-.02,2.03,1.13,4.11,2.98,4.93.04-.1.07-.21.11-.31,3.31.49,9.73,2.18,11.55,4.99,1.48,2.28,1.5,5.17,1.42,7.88-.08,2.71-.18,5.58,1.11,7.96s5.39,3.55,7.65,2.06c.79-2.47,1.63-5.03,3.41-6.91,1.78-1.89,4.78-2.89,7.03-1.59,1.74,1,2.59,3.1,2.74,5.11.23,3.05-.93,6.18-3.09,8.35-2.15,2.15-5.25,3.31-8.29,3.11-.03.04-.06.07-.09.11-.23.8-.55,1.57-.9,2.33-.09,1.23.28,2.55,1.02,3.55,1.34,1.82,3.53,2.81,5.7,3.44,1.43.42,3.09.87,3.7,2.23.44.97.17,2.12-.35,3.05-.52.93-1.26,1.7-1.86,2.58-1.87,2.7-2.07,4.88-.81,7.91,10.77.45,18.47,2.9,29.23,3.47.26-3.63.57-8.86-.18-12.42-.76-3.56-2.68-7.03-5.85-8.83-1.5-.85-3.18-1.28-4.78-1.92-1.6-.64-3.18-1.55-4.05-3.03-1.33-2.25-.66-5.15.52-7.48,1.18-2.33,2.83-4.45,3.53-6.97.76-2.73.57-6.07-.85-8.55-.16-.27.15-.56.42-.4Z"/>
      <g>
        <path class="cls-8" d="M906.17,252.4c-1.24-.05-2.51-.1-3.83-.15-1.26-3.03-1.06-5.21.81-7.91.6-.87,1.35-1.65,1.86-2.58.52-.93.78-2.08.35-3.05-.61-1.36-2.27-1.81-3.7-2.23-2.17-.63-4.36-1.62-5.7-3.44-.52-.71-.84-1.57-.96-2.45l-.92.48c-1.69,2.73-4.17,4.97-7.11,6.27-.92.41-1.87.7-2.85.92l1.68,13.29-4.26.78s-3.38,12.03,11.49,12.51c14.28.47,13.15-12.45,13.15-12.45h0Z"/>
        <path class="cls-6" d="M893.77,265.37c-.25,0-.5,0-.76-.01-5-.16-8.54-1.62-10.54-4.34-2.78-3.8-1.48-8.6-1.42-8.8l.08-.3,4.1-.75-1.68-13.27.44-.1c1.03-.24,1.93-.53,2.76-.89,2.77-1.23,5.22-3.39,6.89-6.08l.07-.12,1.67-.88.1.7c.12.83.42,1.6.87,2.22,1.05,1.43,2.83,2.5,5.44,3.26l.11.03c1.44.42,3.22.93,3.92,2.47.45,1,.32,2.27-.37,3.5-.34.6-.76,1.14-1.17,1.66-.25.31-.5.63-.72.96-1.69,2.45-1.94,4.41-.88,7.14,1.2.05,2.37.1,3.51.14l.59.02-.1.51c.05.7.26,5.76-3.17,9.37-2.24,2.36-5.51,3.56-9.75,3.56ZM881.94,252.77c-.22,1.06-.78,4.76,1.34,7.65,1.8,2.46,5.08,3.78,9.76,3.93,4.3.14,7.58-.95,9.74-3.23,2.74-2.89,2.93-6.93,2.91-8.25-1.09-.04-2.21-.09-3.37-.13h-.32s-.12-.31-.12-.31c-1.33-3.21-1.09-5.56.86-8.38.24-.35.5-.68.76-1.01.4-.51.78-.99,1.08-1.53.25-.45.78-1.6.33-2.6-.5-1.12-1.98-1.54-3.28-1.92l-.11-.03c-2.83-.82-4.78-2.01-5.97-3.63-.42-.58-.74-1.25-.92-1.99l-.2.11c-1.77,2.81-4.35,5.06-7.26,6.35-.76.34-1.58.62-2.5.85l1.68,13.32-4.41.81Z"/>
      </g>
      <path class="cls-5" d="M900.06,340.66l-.32-.95c5.12-1.72,9.86-3.48,14.87-5.34,5.9-2.19,12.01-4.45,18.79-6.65l.31.95c-6.76,2.19-12.85,4.45-18.75,6.64-5.02,1.86-9.76,3.62-14.9,5.35Z"/>
      <polygon class="cls-5" points="909.9 368.87 906.82 360.42 907.76 360.07 910.52 367.64 934.65 360.22 934.95 361.17 909.9 368.87"/>
      <path class="cls-1" d="M899.9,472.58l-35.64,138.36h35.51c.08-.43.13-.86.13-1.3v-137.06Z"/>
      <path class="cls-7" d="M899.9,472.58v137.06c0,.44-.05.88-.13,1.3h58.51v-180.94c0-15.55-3.39-30.91-9.94-45.02l-4.54-9.78c-24.54,6.38-50.35,5.99-74.68-1.13l-4.56-1.33-60.71,238.21h60.41l35.64-138.36Z"/>
      <path class="cls-6" d="M800.04,617.23l-14.19,9.64c-1.38.94-.71,3.09.95,3.09h72.56l4.9-19.02h-60.41l-.35,1.36c-.51,2.01-1.74,3.76-3.46,4.93Z"/>
      <path class="cls-6" d="M897.8,614.52l-13.2,12.52c-1.11,1.05-.36,2.92,1.16,2.92h72.51v-19.02h-58.51c-.27,1.36-.95,2.62-1.97,3.58Z"/>
      <rect class="cls-4" x="864.74" y="452.31" width="70.82" height="1" transform="translate(440.33 1349.39) rotate(-89.55)"/>
      <g>
        <path class="cls-8" d="M907.62,361.15c-9.32,4.29-19.07,7.63-29.06,9.95-1.85.43-3.81.82-5.6.2-1.79-.62-2.54-2.47-1.86-4.24-2.77,1.01-4.06-.29-4.98-1.71s-.5-3.48.86-4.48c-1.74,1.15-4.35.65-5.54-1.05-1.2-1.7-.75-4.43.92-5.67-3.36-.84-3.36-3.9-2.58-5.19s2.25-1.95,3.64-2.53c3.41-1.44,7.1-2.78,10.52-4.22-.63-1.51-1.24-3.4-1.86-4.9,2.75-1.26,5.97-1.45,8.85-.53,2.4.77,4.51,2.25,6.84,3.2,3.82,1.57,8.24,1.64,12.11.19,2.35,6.41,5.4,14.57,7.75,20.98Z"/>
        <path class="cls-6" d="M875.02,372.13c-.75,0-1.49-.1-2.22-.35-.95-.33-1.7-.99-2.11-1.86-.3-.66-.4-1.38-.29-2.12-2.52.56-3.83-.83-4.7-2.16-.71-1.09-.74-2.51-.21-3.67-1.67.24-3.48-.44-4.46-1.84-1.18-1.67-.95-4.19.38-5.74-1.33-.55-1.95-1.45-2.25-2.17-.54-1.3-.29-2.69.19-3.5.89-1.48,2.61-2.21,3.87-2.73,1.71-.72,3.52-1.43,5.27-2.11,1.59-.62,3.23-1.27,4.8-1.92-.25-.64-.5-1.32-.75-2.01-.31-.84-.61-1.68-.92-2.43l-.19-.45.44-.2c2.86-1.31,6.21-1.51,9.21-.56,1.42.45,2.75,1.15,4.03,1.83.92.49,1.88.99,2.85,1.39,3.71,1.52,7.99,1.59,11.74.18l.47-.18.17.47c1.19,3.24,2.55,6.92,3.92,10.59,1.34,3.61,2.67,7.21,3.84,10.38l.16.43-.42.19c-9.34,4.29-19.14,7.65-29.15,9.99-1.24.29-2.46.54-3.66.54ZM871.96,366.22l-.39,1.03c-.3.77-.29,1.57.03,2.25.29.63.82,1.1,1.53,1.34,1.64.56,3.45.22,5.33-.22,9.79-2.28,19.39-5.55,28.54-9.73-1.13-3.07-2.4-6.5-3.68-9.95-1.3-3.5-2.6-7.01-3.75-10.13-3.87,1.31-8.21,1.19-12-.36-1.01-.42-1.99-.93-2.93-1.43-1.24-.66-2.53-1.33-3.87-1.76-2.6-.83-5.51-.71-8.05.32.25.64.5,1.33.75,2.02.31.84.61,1.68.92,2.43l.19.46-.46.19c-1.71.72-3.52,1.43-5.28,2.12-1.74.68-3.54,1.39-5.24,2.1-1.47.62-2.74,1.22-3.4,2.33-.34.57-.53,1.62-.12,2.6.38.91,1.21,1.55,2.4,1.85l1.02.26-.84.63c-1.45,1.08-1.85,3.51-.81,4.98s3.35,1.92,4.86.92l.57.82c-1.16.85-1.51,2.62-.74,3.8.98,1.51,2.11,2.34,4.39,1.51l1.03-.38Z"/>
      </g>
      <g>
        <path class="cls-10" d="M864.47,346.01c3.11-1.28,6.39-2.5,9.46-3.79-.22-.53-.44-1.11-.65-1.7l-2.38-6.13c4.4-3.95,6.15-10.34,3.88-16.18-2.34-6.03-8.24-9.62-14.37-9.32l6.69,17.24-8.59,3.33-6.69-17.24c-4.73,3.91-6.67,10.54-4.33,16.57,2.28,5.88,7.95,9.44,13.91,9.33l3.06,7.89Z"/>
        <path class="cls-10" d="M886.9,375.64l-2.35-6.07c-1.99.55-3.98,1.07-5.99,1.54-1.36.32-2.79.61-4.16.5l2.98,7.69c-4.48,3.94-6.27,10.39-3.99,16.27,2.92,7.54,11.4,11.27,18.94,8.35s11.27-11.4,8.35-18.94c-2.26-5.84-7.87-9.38-13.78-9.33ZM889.58,396.82c-3.62,1.41-7.7-.39-9.11-4.02-1.41-3.62.39-7.7,4.02-9.11,3.62-1.41,7.7.39,9.11,4.02,1.41,3.62-.39,7.7-4.02,9.11Z"/>
      </g>
    </g>
  </g>
</svg>