<svg width="537" height="463" viewBox="0 0 537 463" fill="none" xmlns="http://www.w3.org/2000/svg">
<g clip-path="url(#clip0_3214_3897)">
<path d="M402.18 92.7635C402.265 92.7635 401.908 91.1295 402.605 91.0614C406.039 90.7551 427.183 90.2444 427.676 88.9338L383.909 45.9563L339.292 88.9338C339.258 90.2615 360.198 90.9593 365.637 91.9125C364.396 97.1549 368.475 140.354 362.663 137.869C360.657 137.001 363.274 99.2144 362.238 94.0401C330.419 92.6784 324.623 95.5719 360.963 62.1261C363.835 59.4708 381.784 43.0968 383.909 43.4032C390.232 47.8967 430.599 85.6829 431.075 88.9338C432.316 97.6144 407.143 92.2018 405.58 95.7422C409.03 155.996 399.988 152.319 402.18 92.7635Z" fill="#1E2B62"/>
<path d="M1 405.5V461H198.572L398 459V409L389.458 403L328.553 406L168.119 424L1 405.5Z" fill="#D08F79" stroke="white"/>
<path d="M137 405.5V461H334.572L534 459V409L525.458 403L464.553 406L304.119 424L137 405.5Z" fill="#FFE9DD" stroke="white"/>
<path d="M385.184 92.7635C384.181 98.1251 386.629 136.609 384.759 137.869C384.453 138.073 382.974 138.005 382.634 137.443C381.513 135.554 383.484 99.5038 382.634 93.6146C382.991 93.6146 380.595 92.4572 385.184 92.7635Z" fill="#1E2B62"/>
<path d="M378.386 92.7632C377.468 98.7545 379.524 135.519 378.386 137.443C378.046 138.004 376.567 138.073 376.261 137.868C374.391 136.609 376.856 98.2609 375.836 92.7632C377.451 92.661 377.536 92.7632 378.386 92.7632Z" fill="#1E2B62"/>
<path d="M397.932 92.7634L396.658 137.869L395.383 92.7634C397.337 92.6102 397.813 92.7634 397.932 92.7634Z" fill="#1E2B62"/>
<path d="M391.133 93.6147C390.589 99.9294 393.326 135.197 391.983 137.443C391.643 138.005 390.164 138.073 389.858 137.869C387.989 136.609 390.402 98.2443 389.433 92.7636L390.708 91.9126L391.133 93.6147Z" fill="#1E2B62"/>
<path d="M371.586 93.6147L370.312 137.869L369.887 92.7636L371.161 91.9126L371.586 93.6147Z" fill="#1E2B62"/>
<path d="M402.182 92.7633C400.958 92.8824 401.519 90.9931 400.907 91.0612C400.737 91.0782 398.799 92.6782 397.932 92.7633C397.813 92.7633 397.337 92.6101 395.383 92.7633C394.533 92.8314 393.411 90.2102 391.134 93.6143L390.709 91.9122L389.434 92.7633C386.799 90.8059 385.882 92.8143 385.185 92.7633C380.595 92.4569 382.992 93.6313 382.635 93.6143C381.836 93.5973 383.825 92.7633 378.386 92.7633C377.536 92.7633 377.451 92.6611 375.836 92.7633C374.969 92.8143 373.882 90.2102 371.587 93.6143L371.162 91.9122L369.887 92.7633C368.324 91.4697 367.066 92.1675 365.638 91.9122C360.199 90.9591 339.259 90.2612 339.293 88.9336L383.91 45.9561L427.677 88.9336C427.184 90.2442 406.04 90.7548 402.606 91.0612C401.91 91.1293 402.267 92.7463 402.182 92.7633Z" fill="#FFE02E"/>
<path d="M383.06 57.0195C417.206 86.7719 417.631 96.0653 382.21 61.2747C349.525 96.2014 347.077 88.0825 383.06 57.0195Z" fill="#1E2B62"/>
<path d="M170.173 91.9121C170.275 91.8951 170.751 90.3122 171.448 90.2101C174.592 89.7505 194.665 90.2441 195.668 88.9335L152.751 45.956L108.984 88.9335C109.154 90.159 130.689 91.4015 133.63 91.9121C132.899 100.337 134.615 133.749 133.63 136.592C129.448 148.574 129.975 106.465 130.23 94.0397C125.896 92.6611 103.664 94.1929 103.035 90.6356C117.16 73.0361 134.258 58.3131 151.051 43.4028C157.663 47.3176 200.427 86.3974 200.767 89.7845C201.345 95.5546 179.198 93.1206 175.697 93.6142C171.023 95.4354 177.448 157.51 170.173 135.741C169.17 132.745 170.921 100.474 170.173 91.9121Z" fill="#1E2B62"/>
<path d="M153.176 92.7632C152.462 99.2651 154.128 135.417 153.176 137.443C152.87 138.09 151.782 137.919 151.051 137.868C148.808 137.681 151.901 96.6099 150.627 92.7632C151.51 92.7632 152.275 92.7632 153.176 92.7632Z" fill="#1E2B62"/>
<path d="M159.125 92.7632C159.652 98.363 161.114 135.519 159.975 137.443C159.635 138.004 158.156 138.073 157.85 137.868C155.981 136.609 158.394 98.2439 157.426 92.7632C157.918 92.7632 158.547 92.7632 159.125 92.7632Z" fill="#1E2B62"/>
<path d="M139.579 92.7633L139.154 137.868L137.879 93.6144C138.219 90.04 139.409 92.7803 139.579 92.7633Z" fill="#1E2B62"/>
<path d="M165.923 93.6142C168.88 152.013 162.711 153.357 164.223 93.6142C164.308 93.6142 163.934 91.9802 164.648 91.9122C166.569 91.7079 165.821 93.6313 165.923 93.6142Z" fill="#1E2B62"/>
<path d="M146.377 92.7632L145.103 137.868L144.678 92.7632C145.375 92.7291 145.885 92.7632 146.377 92.7632Z" fill="#1E2B62"/>
<path d="M170.173 91.9122C167.828 92.3207 166.638 93.4952 165.924 93.6143C165.822 93.6143 166.57 91.708 164.649 91.9122C163.935 91.9803 164.309 93.6143 164.224 93.6143C163.918 93.6143 165.142 92.8314 159.125 92.7633C158.547 92.7633 157.918 92.7633 157.426 92.7633C155.964 92.7463 154.57 92.7633 153.176 92.7633C152.275 92.7633 151.511 92.7633 150.627 92.7633C149.182 92.7633 147.89 92.7292 146.378 92.7633C145.885 92.7633 145.375 92.7292 144.678 92.7633C144.423 92.7633 144.253 92.3548 139.579 92.7633C139.409 92.7633 138.219 90.0399 137.879 93.6143L136.604 91.0612C135.89 92.1165 134.701 92.0995 133.63 91.9122C130.689 91.4016 109.154 90.1591 108.984 88.9336L152.751 45.9561L195.669 88.9336C194.666 90.2442 174.592 89.7506 171.448 90.2102C170.751 90.3123 170.275 91.8952 170.173 91.9122Z" fill="#FFE02E"/>
<path d="M152.751 57.0195C187.713 89.0016 185.062 95.2993 151.901 61.2747C119.947 96.9333 114.576 89.7165 152.751 57.0195Z" fill="#1E2B62"/>
<path d="M285.753 48.5093C286.059 48.4582 286.467 46.62 291.277 45.9562C293.639 45.6328 309.905 45.6498 310.398 44.6796L268.331 2.55312L224.564 45.5307C225.38 46.603 245.708 46.3477 248.784 46.8072C249.481 46.9093 249.957 48.4923 250.059 48.5093C251.844 110.822 244.076 116.507 246.66 50.6369C245.317 47.5902 220.179 50.8582 219.465 46.3817C233.368 29.0886 250.399 14.9443 266.631 0C272.631 4.76583 314.732 41.4457 315.497 44.6796C317.265 52.1518 297.481 47.3349 290.002 50.6369C291.855 116.712 283.934 110.499 285.753 48.5093Z" fill="#1E2B62"/>
<path d="M262.805 49.3603L261.531 97.0186L260.256 49.3603C260.375 49.3603 261.072 49.2923 262.805 49.3603Z" fill="#1E2B62"/>
<path d="M269.606 49.3604L268.331 97.0186L267.056 50.2114C267.328 50.2284 265.033 49.037 269.606 49.3604Z" fill="#1E2B62"/>
<path d="M282.352 49.3604L281.078 97.0186L279.803 48.5093C282.93 48.237 282.216 49.3774 282.352 49.3604Z" fill="#1E2B62"/>
<path d="M256.008 49.3603C257.538 114.533 251.793 108.286 254.308 48.5093L256.008 49.3603Z" fill="#1E2B62"/>
<path d="M275.553 50.2114C276.318 113.886 273.055 110.805 273.853 49.3603L275.128 48.5093L275.553 50.2114Z" fill="#1E2B62"/>
<path d="M285.751 48.5094C283.389 48.8839 283.134 49.2243 282.352 49.3604C282.216 49.3775 282.93 48.2371 279.802 48.5094C277.508 48.7137 277.185 47.8115 275.553 50.2115L275.128 48.5094L273.854 49.3604C271.032 47.2499 269.808 49.3604 269.604 49.3604C265.032 49.037 267.327 50.2285 267.055 50.2115C266.29 50.1604 268.109 49.5817 262.806 49.3604C261.072 49.2924 260.375 49.3604 260.256 49.3604C259.576 49.3264 258.182 46.1095 256.007 49.3604L254.307 48.5094C251.656 46.535 250.636 48.6285 250.058 48.5094C249.956 48.4924 249.48 46.9094 248.783 46.8073C245.707 46.3478 225.378 46.6031 224.562 45.5308L268.33 2.55322L310.397 44.6797C309.904 45.6499 293.638 45.6329 291.275 45.9563C286.465 46.6201 286.057 48.4583 285.751 48.5094Z" fill="#FFE02E"/>
<path d="M267.479 13.6167C303.326 44.0669 300.555 51.9986 267.479 17.8719C264.216 20.4761 245.553 41.0542 243.684 40.85C235.984 39.999 265.865 17.4294 267.479 13.6167Z" fill="#1E2B62"/>
<path d="M226.262 286.801C226.585 290.852 209.758 290.545 201.192 292.758C137.488 309.217 151.408 358.816 146.377 427.223C146.003 432.21 144.354 460.89 141.703 462.115C139.187 462.473 139.697 461.247 139.578 461.264C149.045 416.142 134.071 325.949 169.323 303.396C169.051 299.856 146.751 300.162 146.377 293.609L173.997 300.418C186.796 292.707 211.594 285.048 226.262 286.801Z" fill="#1E2B62"/>
<path d="M92.837 294.46C91.1033 295.618 95.8284 300.094 97.5111 301.269C111.653 311.192 135.686 308.962 145.527 293.609H146.377C146.751 300.162 169.051 299.856 169.323 303.396C134.071 325.949 149.046 416.142 139.578 461.264C132.984 461.826 53.7271 461.809 48.6451 461.264C41.3874 424.806 47.2683 386.934 50.3447 350.204C49.3079 348.621 47.8292 348.45 46.9454 350.204C44.6848 354.646 41.0135 408.568 40.9965 417.01H40.1466C35.1155 414.661 5.88086 411.717 4.45312 407.223C6.93467 373.658 9.16127 328.349 41.4214 308.928C61.6307 296.758 85.6643 299.584 92.837 293.609V294.46Z" fill="#98E0FF"/>
<path d="M48.645 461.264C47.8461 461.179 47.5062 462.54 46.5204 462.115C41.7272 460.294 40.9794 423.41 40.9964 417.01C41.0134 408.567 44.6847 354.645 46.9453 350.203C47.8291 348.45 49.3079 348.62 50.3447 350.203C47.2682 386.934 41.3873 424.805 48.645 461.264Z" fill="#1E2B62"/>
<path d="M149.351 298.715C156.745 298.715 141.006 314.629 121.307 315.736C103.001 316.757 85.6131 306.221 85.1882 302.545C84.3723 295.566 94.6214 309.046 106.859 311.48C137.216 317.523 147.023 298.715 149.351 298.715Z" fill="#1E2B62"/>
<path d="M145.527 293.609C135.686 308.962 111.652 311.192 97.5106 301.268C95.8279 300.094 91.1028 295.618 92.8365 294.46C108.525 306.953 128.632 308.128 142.977 293.184C137.674 285.592 132.575 272.52 135.329 263.397C134.734 260.589 115.187 252.844 120.031 240.419C120.524 239.16 141.023 232.658 133.629 220.845C127.085 210.394 111.21 239.381 115.357 198.293L83.0632 193.186C70.1966 205.697 75.1597 220.147 62.242 232.76C78.95 239.891 57.126 259.533 83.4882 249.781C77.0293 260.01 66.7632 250.257 72.4402 265.099C80.7177 286.75 126.286 259.806 98.7854 276.163C99.2953 282.137 97.4596 289.762 92.8365 293.609C85.6638 299.583 61.6302 296.758 41.4208 308.928C9.16074 328.349 6.93414 373.658 4.45259 407.223C5.88033 411.716 35.115 414.661 40.1461 417.01C29.0301 421.231 5.35343 411.597 4.45259 413.18C2.82089 419.665 3.99368 459.613 2.7529 461.69C-0.969416 467.919 0.152379 431.971 0.20337 429.35C0.91724 397.181 2.71891 348.059 22.2993 322.119C53.1997 281.184 100.009 308.638 94.9611 276.588C60.4914 283.567 68.4629 245.73 65.6414 238.717C65.4545 238.24 58.0098 234.734 57.9928 231.909C57.9758 229.628 65.3015 224.777 66.4913 222.547C68.4459 218.854 69.6017 202.599 79.2389 192.761C55.3923 190.361 62.718 159.179 89.0122 160.847C91.6127 161.017 137.504 170.327 140.003 171.059C172.246 180.489 179.606 217.969 159.974 242.972C144.456 262.75 126.779 253.372 145.527 293.609Z" fill="#1E2B62"/>
<path d="M80.5144 164.251C87.1771 162.991 145.358 175.535 151.901 179.569C170.904 191.263 170.513 223.126 158.275 239.568C153.499 245.967 141.55 253.167 135.754 259.567C106.622 238.053 135.227 243.482 137.879 229.355C140.428 215.756 129.363 212.505 118.332 217.441L117.908 194.888C109.188 193.458 75.7042 190.173 71.1661 186.378C64.0444 180.403 72.3388 165.782 80.5144 164.251Z" fill="#1E2B62"/>
<path d="M92.8366 294.46V293.609C97.4598 289.763 99.2954 282.137 98.7855 276.163C126.287 259.806 78.6952 287.414 72.4403 265.099C70.7746 259.142 71.7265 252.998 70.2477 251.585C67.0013 248.47 73.7321 237.662 62.2422 232.76C75.1598 220.147 70.1967 205.697 83.0634 193.187L115.358 198.293C111.21 239.381 127.085 210.395 133.629 220.845C141.023 232.658 120.525 239.16 120.032 240.419C115.188 252.844 134.734 260.589 135.329 263.397C132.575 272.521 137.674 285.592 142.977 293.184C128.632 308.128 108.525 306.954 92.8366 294.46Z" fill="#D08F79"/>
<path d="M124.705 222.122C136.535 221.066 130.603 236.351 123.006 234.887C115.255 233.389 132.609 228.913 127.255 225.526C121.527 228.998 118.077 222.717 124.705 222.122Z" fill="#1E2B62"/>
<path d="M190.568 431.478C179.028 436.056 159.668 430.644 148.076 427.222C151.408 423.257 160.977 428.363 165.498 428.924C176.019 430.218 185.792 428.618 190.568 431.478Z" fill="#1E2B62"/>
<path d="M227.962 286.8H228.812L230.512 288.502C231.191 288.928 237.31 295.379 243.684 297.864C258.539 303.651 288.182 303.242 293.825 286.8C315.445 292.094 334.125 286.613 356.714 300.417C394.821 323.701 389.093 379.836 391.982 418.286C381.291 423.971 362.34 420.413 353.739 422.967C353.314 423.086 352.583 422.898 352.039 422.967C352.005 414.371 349.813 349.318 346.94 346.798C345.921 345.913 344.697 346.833 344.391 347.65C342.368 352.977 354.113 441.894 346.94 461.263C333.377 462.744 211.594 461.757 193.968 460.412C195.056 444.26 202.178 359.768 199.917 352.756C199.475 351.36 197.912 351.394 197.368 352.756C195.923 356.381 193.764 419.818 193.118 430.626C191.963 430.337 191.487 431.12 190.569 431.477C185.793 428.617 176.02 430.217 165.498 428.924C160.977 428.362 151.408 423.256 148.077 427.222C147.652 427.103 146.921 427.29 146.377 427.222C151.408 358.815 137.488 309.217 201.192 292.757C209.758 290.545 226.585 290.851 226.262 286.8C226.806 286.868 227.401 286.766 227.962 286.8Z" fill="#98E0FF"/>
<path d="M352.039 422.967C352.09 435.273 352.277 447.681 351.189 459.987L349.064 462.115C348.079 462.54 347.739 461.179 346.94 461.264C354.112 441.894 342.368 352.977 344.39 347.65C344.696 346.833 345.92 345.914 346.94 346.799C349.812 349.318 352.005 414.371 352.039 422.967Z" fill="#1E2B62"/>
<path d="M193.968 460.413C193.747 460.396 192.982 463.903 190.568 460.839C191.061 450.763 192.523 440.686 193.118 430.627C193.764 419.819 195.922 356.382 197.367 352.757C197.911 351.395 199.475 351.361 199.917 352.757C202.177 359.769 195.056 444.261 193.968 460.413Z" fill="#1E2B62"/>
<path d="M224.138 291.055C227.13 290.579 240.149 316.501 279.378 306.374C294.029 302.595 302.919 286.46 302.749 294.034C302.579 302.17 264.064 322.68 234.336 304.672C230.087 302.102 219.566 291.804 224.138 291.055Z" fill="#1E2B62"/>
<path d="M149.352 413.606C150.167 413.061 164.054 418.933 168.048 419.563C182.224 421.81 192.609 417.64 191.419 421.691C189.498 428.244 141.652 418.695 149.352 413.606Z" fill="#1E2B62"/>
<path d="M384.759 408.499C403.422 407.325 370.244 418.388 356.714 414.456C356.29 414.337 355.321 412.856 354.59 412.329C364.465 411.988 375.088 409.112 384.759 408.499Z" fill="#1E2B62"/>
<path d="M364.788 301.268C405.461 332.553 390.045 416.397 397.932 461.264C397.813 461.264 398.323 462.472 395.807 462.115C391.575 460.158 393.207 422.967 390.708 422.116C379.592 425.027 363.411 427.699 353.74 422.967C362.34 420.414 381.292 423.971 391.983 418.286C389.093 379.836 394.821 323.702 356.714 300.417C334.125 286.613 315.446 292.094 293.826 286.801C288.183 303.243 258.54 303.651 243.685 297.864C237.311 295.379 231.192 288.928 230.512 288.503C230.41 288.435 231.192 286.358 228.813 286.801H227.963C238.348 273.814 239.521 260.895 239.861 244.674C192.354 221.543 192.898 155.536 230.937 140.422C244.467 135.043 276.591 134.226 293.826 127.656C330.029 116.644 345.632 158.753 315.497 164.676C322.873 174.038 321.412 187.348 325.695 197.867C328.091 203.756 335.672 210.667 335.893 211.484C338.324 220.249 326.103 222.615 325.695 223.398C322.873 228.93 329.944 276.656 291.276 264.674C283.475 303.839 327.208 272.367 364.788 301.268Z" fill="#1E2B62"/>
<path d="M230.512 288.503L228.812 286.801C231.192 286.359 230.41 288.435 230.512 288.503Z" fill="#1E2B62"/>
<path d="M303.173 129.358C322.617 125.937 332.373 146.243 326.544 155.315C321.784 162.702 276.216 164.949 265.78 165.953C263.587 213.322 262.958 182.208 244.534 192.335C238.823 195.484 233.588 210.309 245.383 218.718C250.108 222.088 265.406 222.19 254.307 236.164C246.216 246.342 237.072 240.062 229.236 234.036C200.58 212.011 199.373 165.545 224.137 148.081C238.806 137.733 282.828 136.796 303.173 129.358Z" fill="#1E2B62"/>
<path d="M320.595 242.972C315.02 273.542 292.567 263.687 271.729 253.61C266.817 256.385 286.703 263.04 287.451 265.099C287.434 272.299 286.686 280.861 292.55 286.375C275.57 304.23 249.752 300.792 231.361 286.375C241.712 275.942 242.902 260.504 242.409 246.376C243.123 244.674 259.814 242.257 261.106 228.505C262.381 214.905 246.676 220.777 242.409 210.633C239.367 203.399 243.871 191.995 255.582 194.037C265.185 195.722 266.12 209.492 269.179 169.357L310.822 164.251C319.745 172.438 318.453 188.982 322.295 198.718C327.785 212.658 342.606 213.033 322.295 221.696" fill="#FFE9DD"/>
<path d="M250.482 198.293C253.61 197.561 257.417 198.599 259.406 201.271C259.967 205.305 251.094 199.11 249.208 202.973C246.709 208.08 263.638 210.02 258.981 212.76C252.301 216.709 238.262 201.152 250.482 198.293Z" fill="#1E2B62"/>
<path d="M389.432 293.609C390.299 299.175 371.245 301.881 366.486 300.418C369.92 296.554 383.806 295.873 389.432 293.609Z" fill="#1E2B62"/>
<path d="M497.363 417.01C496.428 416.721 496.003 415.836 494.813 416.159C494.745 406.679 492.298 354.731 489.714 350.204C488.762 348.519 486.876 348.638 486.315 350.204C485.227 353.301 491.142 393.453 491.414 415.734C491.601 431.001 491.907 446.405 488.015 461.264C483.34 461.792 404.424 461.826 397.931 461.264C390.045 416.397 405.461 332.553 364.787 301.269C366.742 301.575 366.419 300.486 366.487 300.418C371.246 301.881 390.299 299.175 389.433 293.609H390.282C402.35 310.12 431.653 312.843 444.248 295.311C519.544 302.92 527.243 338.919 532.207 407.223C531.255 411.325 501.952 414.593 497.363 417.01Z" fill="#98E0FF"/>
<path d="M494.813 416.159C494.932 431.086 495.969 446.558 491.414 460.838C489.51 463.408 488.814 461.179 488.015 461.264C491.907 446.405 491.601 431.001 491.414 415.733C491.142 393.453 485.227 353.301 486.315 350.203C486.876 348.637 488.763 348.518 489.714 350.203C492.298 354.73 494.745 406.678 494.813 416.159Z" fill="#1E2B62"/>
<path d="M387.309 298.715C389.773 298.715 400.277 319.225 432.35 310.629C440.883 308.349 450.979 297.387 451.472 301.693C451.71 303.821 436.719 317.08 414.504 315.736C394.107 314.493 380.323 298.698 387.309 298.715Z" fill="#1E2B62"/>
<path d="M497.364 417.01C501.953 414.593 531.255 411.325 532.207 407.223C527.244 338.918 519.544 302.919 444.248 295.311C431.654 312.842 402.351 310.119 390.283 293.609C412.022 252.725 390.045 261.78 375.836 242.121C366.334 228.964 362.374 205.781 369.887 191.058C380.663 169.953 402.215 171.246 419.603 167.655C433.54 164.778 456.945 153.579 467.619 168.08C482.389 188.131 458.271 191.927 458.271 193.612C467.075 203.16 468.418 218.87 469.319 220.845C470.95 224.402 477.579 229.253 477.817 230.206C479.245 236.147 471.018 236.981 470.168 239.568C467.908 246.41 476.304 283.396 441.699 276.588C437.568 304.264 471.936 288.145 501.188 308.928C524.644 325.591 531.085 358.339 533.907 385.096C534.825 393.827 538.343 458.353 536.456 461.689C530.524 472.123 534.519 417.248 532.207 413.18C521.499 414.525 508.14 420.414 497.364 417.01Z" fill="#1E2B62"/>
<path d="M447.648 164.251C467.246 163.298 470.39 178.463 467.62 184.25C463.88 192.063 419.229 192.352 417.479 196.165L418.328 216.59C399.751 210.326 394.227 224.147 400.482 234.462C403.966 240.198 423.818 242.445 408.555 254.461C405.513 256.861 401.162 258.529 397.507 257.014C396.555 256.623 382.465 244.589 381.785 243.823C365.213 225.202 363.378 188.999 389.009 177.017C391.728 175.74 444.657 164.404 447.648 164.251Z" fill="#1E2B62"/>
<path d="M465.92 256.589C465.563 265.406 460.43 274.052 451.048 274.886C442.94 275.601 413.45 263.874 437.875 276.163C437.586 282.273 438.096 288.946 442.974 293.184C433.779 304.758 417.428 306.358 404.306 301.269C383.06 293.031 404.697 289.609 402.181 261.695C402.759 260.18 411.02 258.172 414.079 253.185C425.688 234.241 397.728 239.994 401.332 223.398C401.502 222.65 404.476 218.939 405.156 218.718C416.816 214.99 422 235.364 422.153 197.442C429.988 198.293 447.41 193.187 450.198 193.187C462.299 193.221 464.356 218.667 466.77 223.398C469.88 229.492 481.336 229.458 466.77 237.866" fill="#FFE9DD"/>
<path d="M409.404 222.122C414.418 221.475 421.217 226.002 408.129 226.802C413.45 232.334 419.942 239.142 408.554 233.185C403.829 230.717 402.877 222.956 409.404 222.122Z" fill="#1E2B62"/>
</g>
<defs>
<clipPath id="clip0_3214_3897">
<rect width="537" height="463" fill="white"/>
</clipPath>
</defs>
</svg>
