<svg width="539" height="539" viewBox="0 0 539 539" fill="none" xmlns="http://www.w3.org/2000/svg">
<g clip-path="url(#clip0_3073_38403)">
<path d="M174.817 103.26C95.5517 146.55 81.73 236.813 80.801 243.622C79.3301 254.411 70.0768 331.748 125.692 396.047C174.702 452.709 255.231 477.447 323.52 456.259C430.053 423.208 497.02 281.429 436.636 175.282C384.716 84.005 260.031 56.724 174.817 103.26Z" fill="#F0F9FD"/>
<path d="M351.629 318.002C350.165 319.192 348.688 320.345 347.247 321.427C346.942 321.658 346.509 321.593 346.278 321.287C346.047 320.981 346.118 320.542 346.417 320.317C347.847 319.245 349.309 318.103 350.76 316.925C351.057 316.683 351.492 316.728 351.733 317.025C351.975 317.323 351.93 317.758 351.633 317.999L351.629 318.002ZM355.786 314.344C355.51 314.568 355.102 314.549 354.851 314.284C354.584 314.007 354.596 313.568 354.87 313.305C356.184 312.046 357.459 310.718 358.659 309.356C358.912 309.067 359.348 309.04 359.637 309.293C359.926 309.546 359.953 309.982 359.7 310.271C358.474 311.66 357.172 313.021 355.829 314.309C355.815 314.321 355.8 314.332 355.786 314.344ZM342.772 324.642C342.772 324.642 342.744 324.665 342.729 324.677C341.169 325.749 339.597 326.771 338.063 327.714C337.737 327.914 337.311 327.814 337.112 327.488C336.913 327.163 337.016 326.734 337.338 326.537C338.858 325.605 340.409 324.594 341.948 323.54C342.266 323.323 342.694 323.403 342.91 323.721C343.116 324.018 343.054 324.425 342.778 324.649L342.772 324.642ZM333.338 330.425C333.306 330.451 333.27 330.48 333.229 330.496C331.562 331.393 329.881 332.229 328.232 332.981C327.885 333.138 327.474 332.984 327.316 332.637C327.159 332.289 327.313 331.879 327.66 331.721C329.278 330.983 330.935 330.16 332.577 329.277C332.914 329.098 333.334 329.22 333.513 329.557C333.672 329.856 333.592 330.218 333.342 330.422L333.338 330.425ZM363.092 306.045C362.852 306.24 362.502 306.256 362.244 306.062C361.936 305.837 361.872 305.4 362.098 305.092C363.18 303.63 364.21 302.102 365.161 300.557C365.361 300.233 365.789 300.13 366.112 300.331C366.436 300.531 366.54 300.959 366.339 301.282C365.365 302.865 364.312 304.422 363.207 305.916C363.173 305.961 363.132 306.006 363.089 306.041L363.092 306.045ZM323.264 334.997C323.207 335.043 323.137 335.082 323.065 335.111C321.289 335.764 319.495 336.336 317.736 336.814C317.365 336.913 316.987 336.697 316.888 336.326C316.788 335.954 317.004 335.577 317.375 335.477C319.094 335.008 320.847 334.452 322.586 333.811C322.944 333.681 323.342 333.863 323.475 334.225C323.58 334.508 323.483 334.819 323.261 335L323.264 334.997ZM368.883 296.628C368.678 296.794 368.385 296.836 368.133 296.708C367.79 296.535 367.656 296.12 367.825 295.78C368.642 294.159 369.399 292.479 370.072 290.79C370.214 290.437 370.619 290.263 370.972 290.404C371.324 290.545 371.499 290.951 371.358 291.303C370.668 293.03 369.894 294.741 369.06 296.4C369.015 296.491 368.951 296.566 368.88 296.624L368.883 296.628ZM312.597 337.88C312.508 337.953 312.401 338.004 312.277 338.027C310.417 338.344 308.547 338.567 306.714 338.683C306.335 338.706 306.004 338.416 305.981 338.036C305.957 337.656 306.247 337.326 306.627 337.302C308.414 337.189 310.237 336.973 312.05 336.665C312.427 336.603 312.785 336.853 312.848 337.23C312.89 337.487 312.79 337.729 312.6 337.884L312.597 337.88ZM372.995 286.368C372.824 286.508 372.585 286.565 372.356 286.496C371.99 286.382 371.784 285.997 371.897 285.631C372.428 283.892 372.887 282.109 373.274 280.331C373.355 279.956 373.721 279.718 374.096 279.799C374.472 279.881 374.71 280.247 374.628 280.622C374.237 282.438 373.767 284.26 373.223 286.034C373.18 286.171 373.102 286.287 372.998 286.372L372.995 286.368ZM301.572 338.574C301.443 338.679 301.28 338.735 301.103 338.729C299.242 338.642 297.366 338.448 295.527 338.153C295.149 338.091 294.891 337.736 294.953 337.359C295.014 336.981 295.369 336.723 295.747 336.785C297.538 337.072 299.362 337.26 301.171 337.342C301.553 337.359 301.847 337.684 301.831 338.066C301.82 338.272 301.722 338.452 301.575 338.572L301.572 338.574ZM375.319 275.553C375.175 275.669 374.989 275.725 374.792 275.702C374.413 275.653 374.143 275.307 374.192 274.928C374.421 273.124 374.581 271.287 374.657 269.471C374.673 269.089 374.996 268.791 375.378 268.808C375.76 268.824 376.058 269.147 376.042 269.529C375.962 271.384 375.805 273.261 375.565 275.103C375.543 275.287 375.448 275.441 375.316 275.549L375.319 275.553ZM290.667 336.834C290.498 336.971 290.27 337.026 290.046 336.963C288.276 336.475 286.487 335.884 284.73 335.207C284.373 335.068 284.195 334.666 284.333 334.31C284.472 333.953 284.874 333.775 285.23 333.913C286.943 334.579 288.688 335.153 290.414 335.63C290.781 335.73 291 336.111 290.897 336.48C290.859 336.624 290.774 336.747 290.667 336.834ZM375.793 264.504C375.682 264.594 375.538 264.651 375.383 264.658C375.001 264.671 374.678 264.375 374.661 263.996C374.586 262.178 374.431 260.341 374.204 258.539C374.158 258.161 374.423 257.814 374.805 257.765C375.184 257.719 375.531 257.984 375.58 258.367C375.816 260.209 375.971 262.081 376.048 263.939C376.058 264.164 375.954 264.373 375.793 264.504ZM280.359 332.859C280.155 333.025 279.862 333.067 279.613 332.942C277.984 332.131 276.339 331.22 274.722 330.239C274.394 330.041 274.291 329.614 274.489 329.287C274.686 328.959 275.114 328.856 275.441 329.054C277.028 330.018 278.642 330.907 280.233 331.701C280.573 331.871 280.71 332.288 280.544 332.632C280.498 332.722 280.435 332.798 280.359 332.859ZM374.4 253.527C374.317 253.594 374.22 253.643 374.11 253.668C373.734 253.747 373.368 253.509 373.289 253.134C372.908 251.356 372.443 249.569 371.914 247.828C371.801 247.462 372.008 247.073 372.373 246.967C372.739 246.854 373.128 247.061 373.235 247.426C373.776 249.205 374.251 251.025 374.641 252.844C374.695 253.108 374.597 253.367 374.4 253.527ZM270.898 327.144C270.661 327.336 270.318 327.353 270.062 327.169C269.157 326.524 268.237 325.845 267.335 325.145C266.755 324.695 266.18 324.222 265.626 323.738C265.338 323.486 265.31 323.05 265.563 322.761C265.812 322.475 266.252 322.445 266.541 322.698C267.07 323.166 267.623 323.62 268.182 324.052C269.073 324.738 269.975 325.408 270.864 326.041C271.176 326.264 271.246 326.694 271.026 327.01C270.991 327.062 270.944 327.106 270.898 327.144ZM371.168 242.945C371.114 242.988 371.055 243.025 370.99 243.048C370.634 243.188 370.232 243.015 370.088 242.663C369.413 240.976 368.654 239.296 367.834 237.673C367.663 237.33 367.801 236.915 368.143 236.744C368.486 236.572 368.901 236.71 369.076 237.05C369.912 238.708 370.69 240.425 371.381 242.147C371.496 242.434 371.407 242.756 371.178 242.943L371.168 242.945ZM262.669 319.785C262.375 320.023 261.943 319.982 261.698 319.688L261.474 319.412C260.382 318.069 259.357 316.618 258.435 315.096C258.236 314.77 258.339 314.341 258.668 314.145C258.993 313.946 259.419 314.052 259.618 314.378C260.509 315.848 261.493 317.249 262.547 318.545L262.763 318.81C263.008 319.105 262.969 319.54 262.672 319.782L262.665 319.788L262.669 319.785ZM366.19 233.068C366.169 233.085 366.144 233.106 366.116 233.122C365.79 233.322 365.364 233.222 365.165 232.896C364.212 231.351 363.179 229.824 362.097 228.36C361.869 228.051 361.926 227.624 362.243 227.391C362.551 227.164 362.984 227.228 363.212 227.537C364.317 229.036 365.373 230.592 366.346 232.168C366.531 232.47 366.462 232.853 366.193 233.071L366.19 233.068ZM256.919 310.363C256.873 310.4 256.817 310.434 256.761 310.461C256.411 310.615 256.001 310.455 255.85 310.108C255.114 308.434 254.461 306.657 253.904 304.838C253.79 304.472 253.998 304.084 254.363 303.977C254.729 303.864 255.118 304.071 255.224 304.437C255.764 306.205 256.4 307.924 257.111 309.552C257.242 309.845 257.148 310.176 256.915 310.366L256.919 310.363ZM359.616 224.174C359.329 224.407 358.903 224.372 358.659 224.095C357.456 222.724 356.186 221.388 354.879 220.131C354.604 219.867 354.594 219.429 354.862 219.152C355.126 218.878 355.564 218.867 355.841 219.135C357.175 220.418 358.475 221.782 359.701 223.182C359.954 223.471 359.922 223.907 359.64 224.16C359.633 224.166 359.626 224.171 359.618 224.177L359.616 224.174ZM253.673 299.792C253.587 299.862 253.484 299.91 253.366 299.934C252.991 300.007 252.63 299.759 252.557 299.385C252.212 297.577 251.942 295.709 251.768 293.834C251.732 293.453 252.013 293.118 252.394 293.082C252.775 293.046 253.11 293.327 253.146 293.708C253.318 295.536 253.576 297.361 253.916 299.125C253.965 299.382 253.863 299.638 253.673 299.792ZM351.651 216.504C351.404 216.705 351.036 216.713 350.779 216.506C349.365 215.359 347.887 214.258 346.382 213.24C346.066 213.027 345.982 212.595 346.195 212.279C346.409 211.963 346.84 211.88 347.156 212.093C348.692 213.134 350.2 214.258 351.647 215.431C351.944 215.672 351.991 216.109 351.75 216.406C351.72 216.442 351.684 216.478 351.648 216.507L351.651 216.504ZM252.638 288.774C252.52 288.87 252.366 288.929 252.203 288.926C251.822 288.926 251.51 288.615 251.51 288.234C251.506 286.364 251.595 284.483 251.766 282.638C251.802 282.257 252.139 281.977 252.519 282.013C252.899 282.049 253.179 282.387 253.143 282.767C252.977 284.567 252.892 286.409 252.897 288.236C252.897 288.456 252.796 288.646 252.638 288.774ZM342.5 210.293C342.285 210.468 341.98 210.502 341.722 210.36C340.137 209.472 338.494 208.642 336.836 207.89C336.489 207.733 336.334 207.323 336.491 206.975C336.649 206.628 337.058 206.473 337.406 206.63C339.098 207.396 340.776 208.245 342.394 209.154C342.73 209.339 342.847 209.761 342.661 210.096C342.617 210.174 342.561 210.244 342.496 210.296L342.5 210.293ZM253.661 277.755C253.507 277.88 253.304 277.938 253.092 277.896C252.718 277.825 252.47 277.462 252.545 277.085C252.912 275.188 253.37 273.352 253.915 271.637C254.031 271.275 254.419 271.072 254.785 271.186C255.15 271.299 255.349 271.69 255.236 272.056C254.71 273.72 254.261 275.501 253.906 277.347C253.876 277.515 253.786 277.653 253.664 277.752L253.661 277.755ZM257.067 267.249C256.863 267.414 256.57 267.456 256.321 267.332C255.978 267.159 255.843 266.745 256.013 266.405C256.174 266.083 256.341 265.769 256.507 265.462C256.693 265.127 257.112 265.006 257.444 265.188C257.776 265.37 257.9 265.793 257.718 266.125C257.557 266.417 257.401 266.716 257.248 267.024C257.202 267.115 257.139 267.19 257.064 267.251L257.067 267.249ZM332.431 205.726C332.248 205.874 331.997 205.924 331.763 205.841C330.051 205.234 328.29 204.691 326.53 204.23C326.159 204.133 325.939 203.753 326.033 203.385C326.13 203.014 326.507 202.791 326.878 202.888C328.676 203.36 330.473 203.909 332.223 204.533C332.583 204.662 332.772 205.056 332.643 205.416C332.601 205.54 332.525 205.644 332.428 205.722L332.431 205.726ZM321.73 202.927C321.58 203.049 321.383 203.108 321.177 203.073C319.385 202.764 317.556 202.525 315.745 202.368C315.365 202.332 315.081 201.997 315.117 201.617C315.153 201.237 315.488 200.953 315.868 200.989C317.718 201.151 319.585 201.393 321.413 201.71C321.787 201.775 322.042 202.133 321.976 202.513C321.949 202.684 321.855 202.832 321.733 202.931L321.73 202.927ZM310.712 201.962C310.594 202.058 310.44 202.118 310.273 202.117C308.456 202.113 306.611 202.185 304.799 202.332C304.418 202.362 304.083 202.081 304.051 201.697C304.021 201.317 304.301 200.982 304.685 200.949C306.538 200.799 308.416 200.724 310.275 200.73C310.656 200.73 310.968 201.041 310.964 201.424C310.962 201.64 310.863 201.834 310.709 201.959L310.712 201.962ZM232.467 262.508C232.338 262.613 232.172 262.671 231.992 262.662C231.611 262.639 231.316 262.314 231.339 261.932C231.439 260.102 231.758 258.219 232.283 256.341C232.387 255.972 232.767 255.758 233.137 255.862C233.506 255.966 233.72 256.346 233.616 256.715C233.121 258.498 232.819 260.278 232.722 262.01C232.711 262.215 232.614 262.389 232.467 262.508ZM299.688 202.864C299.599 202.936 299.492 202.988 299.365 203.007C297.569 203.307 295.765 203.692 294.009 204.143C293.639 204.236 293.261 204.013 293.165 203.646C293.072 203.275 293.294 202.898 293.662 202.802C295.462 202.338 297.303 201.948 299.135 201.642C299.513 201.579 299.867 201.832 299.933 202.213C299.975 202.47 299.875 202.712 299.685 202.866L299.688 202.864ZM235.347 251.895C235.147 252.058 234.86 252.1 234.61 251.983C234.262 251.819 234.118 251.407 234.282 251.06C235.048 249.456 235.972 247.806 237.035 246.158C237.242 245.835 237.668 245.744 237.991 245.951C238.314 246.159 238.405 246.585 238.197 246.908C237.166 248.507 236.27 250.104 235.533 251.655C235.486 251.752 235.422 251.834 235.347 251.895ZM288.972 205.621C288.911 205.67 288.841 205.709 288.763 205.737C287.048 206.34 285.337 207.023 283.679 207.764C283.332 207.921 282.921 207.767 282.764 207.413C282.606 207.065 282.764 206.652 283.114 206.498C284.81 205.738 286.555 205.039 288.308 204.423C288.669 204.297 289.063 204.488 289.189 204.849C289.288 205.132 289.191 205.436 288.973 205.614L288.972 205.621ZM241.279 242.571C241.032 242.772 240.673 242.784 240.416 242.577C240.115 242.339 240.065 241.904 240.299 241.607C241.394 240.218 242.611 238.788 243.917 237.352C244.176 237.07 244.611 237.05 244.896 237.306C245.178 237.564 245.199 237.999 244.943 238.285C243.659 239.697 242.46 241.105 241.385 242.467C241.351 242.506 241.318 242.545 241.278 242.577L241.279 242.571ZM278.886 210.149C278.854 210.175 278.825 210.198 278.787 210.217C277.2 211.103 275.631 212.063 274.119 213.077C273.802 213.294 273.374 213.207 273.158 212.89C272.944 212.575 273.025 212.141 273.346 211.928C274.886 210.89 276.49 209.907 278.112 209.006C278.446 208.817 278.867 208.939 279.055 209.274C279.221 209.573 279.144 209.939 278.886 210.149ZM248.707 234.363C248.435 234.584 248.029 234.569 247.777 234.31C247.51 234.039 247.509 233.6 247.783 233.329C249.033 232.094 250.389 230.807 251.826 229.502C252.109 229.243 252.549 229.265 252.802 229.547C253.062 229.83 253.043 230.268 252.757 230.524C251.338 231.82 249.993 233.092 248.755 234.312C248.737 234.327 248.719 234.341 248.701 234.356L248.707 234.363ZM256.88 226.882C256.59 227.117 256.163 227.083 255.917 226.795C255.669 226.504 255.701 226.068 255.992 225.819C257.295 224.7 258.685 223.529 260.239 222.242C260.542 222.008 260.971 222.039 261.213 222.337C261.455 222.634 261.416 223.069 261.119 223.311C259.569 224.594 258.187 225.754 256.89 226.873C256.887 226.876 256.88 226.882 256.876 226.885L256.88 226.882ZM269.71 216.322L269.384 216.587C268.593 217.23 267.784 217.888 266.961 218.551L265.41 219.811C265.113 220.053 264.675 220.004 264.434 219.707C264.192 219.41 264.237 218.975 264.534 218.733L266.088 217.47C266.911 216.807 267.723 216.153 268.515 215.51L268.84 215.245C269.138 215.003 269.575 215.052 269.814 215.352C270.052 215.646 270.004 216.084 269.71 216.322Z" fill="#97DAF9"/>
<path d="M371.056 365.384C372.248 363.047 334.182 321.685 331.371 319.478C328.561 317.272 320.467 315.501 317.933 313.326C315.398 311.152 305.768 301.791 305.643 299.603C305.518 297.415 310.337 298.369 311.822 299.172C313.161 299.898 317.071 302.828 317.832 303.399C317.863 303.421 317.902 303.389 317.882 303.358C317.325 302.365 313.919 296.308 312.732 294.263C311.44 292.037 305.18 284.54 307.821 280.312C310.462 276.084 320.195 272.842 335.755 290.062C339.609 294.328 342.156 303.344 345.373 307.075C348.59 310.806 385.511 343.851 387.924 355.087C390.339 366.327 369.86 367.717 371.049 365.383L371.056 365.384Z" fill="white"/>
<path d="M309.372 403.923C316.151 390.996 297.607 381.262 276.202 377.38C258.121 374.098 238.074 373.4 228.742 394.724C199.475 461.595 299.949 421.895 309.372 403.923Z" fill="#00A5F3"/>
<path d="M190.754 318.288C190.754 318.288 232.453 270.532 166.344 242.09C100.234 213.649 190.754 318.288 190.754 318.288Z" fill="#1E2B62"/>
<path d="M283.953 278.022C286.116 275.723 288.31 268.736 290.422 266.674C292.534 264.612 301.528 256.868 303.463 256.93C305.399 256.993 304.181 261.164 303.358 262.405C302.615 263.525 299.728 266.74 299.165 267.364C299.143 267.388 299.169 267.427 299.197 267.41C300.115 266.997 305.713 264.475 307.605 263.591C309.669 262.627 316.754 257.707 320.272 260.367C323.787 263.023 325.881 271.848 309.504 284.196C305.445 287.257 297.312 288.788 293.773 291.326C290.234 293.864 207.794 363.207 197.713 364.449C190.685 365.314 186.419 345.33 189.645 337.118C191.051 333.543 281.79 280.321 283.953 278.022Z" fill="#FFE9DD"/>
<path d="M311.98 283.14C311.329 283.669 310.643 284.209 309.918 284.751C307.688 286.433 304.365 287.634 301.151 288.801C298.381 289.804 295.76 290.751 294.173 291.892C293.535 292.351 290.141 295.14 285.001 299.359C248.311 329.501 205.241 364.223 197.792 365.139C196.007 365.358 194.271 364.451 192.766 362.504C188.388 356.862 186.417 343.441 188.994 336.867C189.813 334.786 210.291 322.121 253.025 296.284C268.22 287.097 282.569 278.42 283.443 277.55C284.434 276.494 285.5 274.242 286.529 272.062C287.683 269.619 288.77 267.314 289.933 266.184C290.936 265.208 300.979 256.165 303.484 256.247C304.118 256.266 304.627 256.585 304.913 257.143C305.712 258.688 304.59 261.807 303.933 262.799C303.545 263.382 302.634 264.479 301.73 265.517C303.729 264.611 306.19 263.498 307.31 262.974C307.638 262.821 308.132 262.544 308.707 262.219C311.746 260.516 317.408 257.341 320.689 259.819C322.427 261.131 323.418 263.346 323.421 265.895C323.42 269.596 321.369 275.515 311.983 283.143L311.98 283.14ZM291.223 292.47C292.358 291.547 293.084 290.969 293.364 290.765C295.107 289.515 297.813 288.535 300.675 287.499C303.79 286.371 307.017 285.205 309.081 283.647C320.343 275.153 322.031 268.875 322.031 265.889C322.032 262.891 320.504 261.414 319.847 260.92C317.291 258.989 312.141 261.872 309.38 263.421C308.756 263.773 308.266 264.047 307.89 264.221C306.032 265.089 300.552 267.557 299.475 268.046L298.962 268.278L298.596 267.814C298.395 267.538 298.418 267.156 298.641 266.904C300.2 265.178 302.217 262.861 302.769 262.026C303.395 261.083 304.09 258.573 303.674 257.769C303.625 257.672 303.577 257.628 303.43 257.622C302.057 257.579 293.977 264.158 290.895 267.169C289.913 268.127 288.826 270.426 287.777 272.647C286.652 275.03 285.59 277.279 284.448 278.493C283.608 279.384 272.791 285.946 253.74 297.463C229.035 312.399 191.71 334.969 190.265 337.399C187.883 343.474 189.786 356.409 193.851 361.652C195.058 363.21 196.326 363.922 197.616 363.76C205.62 362.773 262.648 315.922 284.115 298.283C287.23 295.722 289.624 293.758 291.214 292.466L291.223 292.47Z" fill="#1E2B62"/>
<path d="M130.531 213.161C130.531 213.161 159.862 209.566 186.544 215.975C193.215 217.576 217.027 226.08 221.401 227.057C233.114 229.681 238.27 225.359 242.935 226.891C242.998 226.91 243.065 226.927 243.125 226.956C255.778 232.962 247.069 237.091 241.231 236.91C236.778 236.772 232.402 236.802 229.718 237.246C226.168 237.83 228.104 238.867 231.013 239.768C232.714 240.295 232.365 242.821 230.585 242.84C227.218 242.876 223.243 242.141 219.808 239.407C212.014 233.205 180.481 234.867 169.584 238.485C158.687 242.102 130.531 213.161 130.531 213.161Z" fill="#FFE9DD"/>
<path d="M248.889 235.475C246.984 237.023 243.583 237.682 241.206 237.604C235.954 237.442 232.124 237.551 229.828 237.931C229.334 238.011 229.004 238.095 228.787 238.164C229.14 238.365 229.839 238.683 231.212 239.107C232.303 239.446 232.948 240.474 232.782 241.608C232.617 242.73 231.715 243.522 230.588 243.534C226.194 243.578 222.418 242.371 219.375 239.95C211.75 233.884 180.573 235.566 169.801 239.141C158.622 242.851 131.195 214.835 130.035 213.642L129.062 212.643L130.448 212.474C130.74 212.439 160.213 208.937 186.705 215.303C190.287 216.162 198.517 218.912 206.476 221.572C213.193 223.814 219.538 225.936 221.549 226.384C228.273 227.889 232.733 227.07 236.325 226.411C238.963 225.926 241.049 225.545 243.15 226.234C243.268 226.27 243.347 226.294 243.422 226.328C248.514 228.744 250.804 231.152 250.242 233.483C250.054 234.26 249.566 234.918 248.893 235.466L248.889 235.475ZM227.519 237.262C227.981 236.887 228.774 236.7 229.602 236.562C231.988 236.169 235.907 236.053 241.25 236.218C244.484 236.319 248.439 235.032 248.891 233.159C249.263 231.62 247.052 229.587 242.827 227.579L242.713 227.547C240.945 226.968 239.016 227.323 236.568 227.772C233.054 228.416 228.235 229.299 221.242 227.733C219.164 227.269 212.787 225.137 206.036 222.881C198.472 220.357 189.901 217.493 186.376 216.647C163.431 211.133 138.221 213.09 132.034 213.694C137.144 218.766 160.127 240.89 169.359 237.829C180.284 234.201 212.022 232.331 220.231 238.868C223.02 241.085 226.501 242.193 230.57 242.151C231.112 242.144 231.358 241.766 231.408 241.41C231.462 241.045 231.328 240.595 230.797 240.432C228.041 239.573 227.042 238.922 227.102 238.023C227.125 237.707 227.275 237.46 227.515 237.265L227.519 237.262Z" fill="#1E2B62"/>
<path d="M186.4 331.091C195.974 320.484 199.348 304.259 191.685 277.492C184.021 250.724 166.308 239.774 166.308 239.774C166.308 239.774 170.954 240.244 173.292 239.272C175.626 238.296 140.778 205.356 130.306 210.96C117.876 217.608 120.339 219.293 112.338 231.404C96.2072 255.827 106.929 330.495 125.351 349.327C148.153 372.633 173.376 377.664 202.346 365.108C215.007 359.623 211.502 331.986 202.348 321.762C188.723 332.771 186.4 331.084 186.4 331.084L186.4 331.091Z" fill="white"/>
<path d="M205.245 364.149C204.443 364.801 203.565 365.336 202.62 365.747C173.235 378.48 147.797 373.273 124.853 349.814C116.096 340.862 108.384 318.387 105.198 292.548C101.843 265.324 104.295 242.325 111.76 231.024C113.976 227.664 115.396 225.094 116.538 223.031C119.58 217.519 120.838 215.241 129.981 210.35C133.706 208.356 140.285 210.473 149.536 216.639C154.858 220.187 160.968 225.07 166.304 230.041C169.276 232.811 174.242 237.678 174.094 239.178C174.063 239.513 173.861 239.784 173.559 239.91C172.205 240.476 170.189 240.592 168.619 240.577C173.481 244.328 186.209 255.832 192.353 277.299C199.163 301.085 197.742 318.446 188 330.296C189.781 329.758 193.742 327.828 201.916 321.226L202.428 320.81L202.87 321.302C209.385 328.579 212.903 343.794 210.552 354.531C209.615 358.807 207.805 362.074 205.256 364.147L205.245 364.149ZM123.46 216.066C120.742 218.275 119.611 220.33 117.748 223.7C116.594 225.786 115.162 228.383 112.915 231.786C96.8533 256.105 107.762 330.359 125.843 348.843C148.339 371.839 173.274 376.955 202.073 364.474C206.527 362.542 208.406 357.839 209.192 354.233C211.369 344.291 208.144 329.796 202.257 322.722C189.666 332.807 186.625 332.109 185.99 331.65L185.367 331.198L185.882 330.625C196.25 319.142 197.929 301.82 191.018 277.683C183.513 251.476 166.116 240.476 165.944 240.367L163.39 238.79L166.377 239.093C166.416 239.097 170.32 239.48 172.578 238.798C170.854 235.638 153.643 219.284 140.905 213.24C136.261 211.038 132.708 210.464 130.628 211.578C127.319 213.345 125.099 214.74 123.459 216.073L123.46 216.066Z" fill="#1E2B62"/>
<path d="M166.747 240.315C166.597 240.437 166.401 240.496 166.194 240.461C160.098 239.428 155.204 238.207 150.89 237.134C143.86 235.384 138.781 234.118 133.442 234.924C133.066 234.98 132.712 234.721 132.656 234.344C132.6 233.968 132.859 233.614 133.236 233.558C138.848 232.708 144.038 234.002 151.225 235.791C155.517 236.858 160.382 238.073 166.424 239.097C166.801 239.159 167.053 239.52 166.991 239.897C166.963 240.068 166.869 240.216 166.744 240.318L166.747 240.315Z" fill="#1E2B62"/>
<path d="M178.061 340.455C168.934 347.874 157.74 353.291 152.35 355.168C151.989 355.295 151.595 355.103 151.468 354.742C151.342 354.382 151.533 353.988 151.894 353.861C159.084 351.353 176.789 342.452 185.607 330.944C185.842 330.64 186.274 330.586 186.578 330.814C186.882 331.049 186.939 331.485 186.708 331.786C184.331 334.883 181.331 337.798 178.061 340.455Z" fill="#1E2B62"/>
<path d="M319.003 340.823C320.961 339.522 309.395 290.467 308.171 287.506C306.948 284.545 301.399 279.606 300.377 276.79C299.352 273.978 295.938 262.432 296.805 260.668C297.673 258.904 301.018 261.769 301.821 263.05C302.549 264.201 304.316 268.212 304.659 268.992C304.672 269.023 304.719 269.015 304.716 268.981C304.717 267.958 304.716 261.731 304.689 259.613C304.655 257.303 303.063 248.694 306.984 246.554C310.906 244.413 319.938 246.154 324.532 266.453C325.67 271.482 323.695 279.646 324.568 283.975C325.44 288.304 345.967 344.843 342.914 354.687C339.861 364.531 317.048 342.126 319.003 340.823Z" fill="#D08F79"/>
<path d="M342.215 357.035C341.528 357.594 340.652 357.878 339.596 357.874C332.763 357.837 319.259 344.857 318.268 341.553C318.072 340.903 318.301 340.533 318.49 340.349C318.824 339.18 317.791 331.705 313.916 314.075C311.164 301.574 308.105 289.162 307.529 287.774C306.968 286.417 305.326 284.492 303.74 282.629C301.964 280.546 300.287 278.578 299.725 277.031C299.24 275.695 295.065 262.643 296.183 260.367C296.465 259.792 296.965 259.457 297.599 259.424C299.36 259.331 301.77 261.666 302.409 262.687C302.792 263.297 303.433 264.62 304.026 265.898C304.022 263.683 304.017 260.904 304 259.633C303.995 259.268 303.943 258.692 303.888 258.024C303.578 254.504 303.004 247.953 306.655 245.955C308.591 244.899 311.048 244.9 313.399 245.963C317.06 247.614 322.078 252.486 325.206 266.306C325.829 269.07 325.559 272.644 325.298 276.098C325.069 279.079 324.857 281.898 325.247 283.841C325.437 284.793 326.682 288.556 328.402 293.766C334.552 312.402 346 347.096 343.578 354.893C343.289 355.818 342.831 356.535 342.219 357.033L342.215 357.035ZM319.605 341.216C320.271 343.309 332.317 355.678 339.054 356.453C340.759 356.649 341.775 356.025 342.252 354.484C344.539 347.106 332.749 311.37 327.081 294.197C325.285 288.746 324.095 285.146 323.886 284.114C323.457 281.983 323.678 279.073 323.914 275.991C324.169 272.638 324.435 269.169 323.852 266.609C320.691 252.645 315.588 248.466 312.826 247.22C310.053 245.965 308.048 246.762 307.315 247.162C304.457 248.723 304.979 254.692 305.262 257.893C305.326 258.615 305.375 259.188 305.381 259.605C305.407 261.766 305.411 268.252 305.41 268.984L305.408 269.545L304.836 269.689C304.501 269.759 304.161 269.583 304.026 269.271C303.078 267.109 301.782 264.279 301.238 263.419C300.626 262.447 298.59 260.753 297.673 260.803C297.558 260.807 297.496 260.834 297.426 260.974C296.811 262.229 299.532 272.448 301.027 276.555C301.502 277.864 303.176 279.828 304.797 281.728C306.529 283.764 308.168 285.685 308.811 287.244C309.433 288.748 312.622 301.685 315.458 314.641C320.438 337.404 320.169 340.513 319.605 341.216Z" fill="#1E2B62"/>
<path d="M319.395 413.288C316.301 406.227 312.668 397.184 304.186 392.403C303.392 391.954 302.403 395.536 302.403 395.536C295.255 391.973 268.668 387.289 256.971 385.585L257.121 383.025C235.112 384.642 213.659 402.078 213.659 402.078C213.659 402.078 164.025 372.046 164.095 369.484C164.122 368.529 151.393 347.872 142.288 340.671C131.812 332.385 118.575 339.575 113.737 342.205C111.481 343.432 132.736 383.988 138.589 392.191C146.493 403.269 179.531 430.645 196.299 442.328C220.66 459.299 285.72 486.536 310.808 477.355C341.863 465.989 356.158 434.061 356.622 402.032C356.823 388.035 344.456 301.554 336.831 296.482C332.082 293.324 298.979 293.8 303.536 303.643C318.071 335.031 319.387 413.294 319.387 413.294L319.395 413.288Z" fill="#97DAF9"/>
<path d="M329.251 467.668C323.812 472.089 317.709 475.569 311.064 478.002C286.119 487.132 221.454 460.68 195.923 442.892C178.656 430.859 145.856 403.541 138.043 392.59C132.847 385.311 112.032 346.205 112.94 342.273C113.033 341.883 113.256 341.689 113.427 341.592C118.477 338.843 131.897 331.54 142.739 340.124C147.667 344.022 153.326 351.467 157.204 357.021C160.211 361.328 164.494 367.987 164.791 369.363C165.996 371.774 195.181 390.064 213.626 401.235C216.633 398.892 236.723 383.824 257.085 382.333C257.283 382.32 257.482 382.39 257.622 382.532C257.765 382.672 257.84 382.867 257.829 383.066L257.712 384.992C269.396 386.725 293.995 391.097 301.981 394.574C302.352 393.434 302.936 392.061 303.663 391.756C303.955 391.631 304.264 391.654 304.534 391.803C311.95 395.981 315.739 403.321 318.616 409.779C318.145 394.187 315.473 331.039 302.921 303.927C301.963 301.857 302.402 299.954 304.192 298.416C310.484 293.011 333.273 293.263 337.227 295.896C341.906 299.004 347.461 328.489 350.361 345.789C354.244 368.974 357.438 394.735 357.331 402.036C357.086 418.941 353.101 434.759 345.807 447.776C341.396 455.65 335.804 462.342 329.251 467.668ZM114.266 342.712C114.069 346.53 133.092 383.28 139.163 391.787C146.898 402.628 179.516 429.78 196.706 441.756C209.585 450.731 232.419 461.676 253.519 468.994C279.388 477.966 299.655 480.703 310.581 476.705C343.402 464.695 355.532 430.25 355.938 402.02C356.042 394.787 352.859 369.142 348.988 346.024C344.194 317.395 339.506 299.087 336.454 297.059C332.795 294.627 310.883 294.512 305.086 299.48C303.761 300.616 303.47 301.845 304.17 303.358C318.601 334.515 320.074 412.502 320.088 413.287C320.093 413.616 319.866 413.907 319.541 413.975C319.219 414.047 318.892 413.879 318.759 413.576L318.326 412.584C315.419 405.919 311.812 397.64 304.099 393.162C303.811 393.569 303.37 394.658 303.072 395.733C303.019 395.931 302.874 396.096 302.688 396.182C302.499 396.264 302.283 396.261 302.096 396.17C295.045 392.653 268.583 387.992 256.877 386.284C256.521 386.234 256.265 385.919 256.286 385.557L256.393 383.793C235.129 385.726 214.317 402.458 214.109 402.626C213.883 402.81 213.563 402.832 213.316 402.682C213.189 402.607 200.758 395.082 188.494 387.339C164.262 372.041 163.425 370.33 163.416 369.558C162.792 367.686 150.451 348.01 141.874 341.225C131.875 333.313 119.234 340.024 114.265 342.725L114.266 342.712ZM164.789 369.382C164.797 369.429 164.8 369.469 164.803 369.502C164.802 369.449 164.799 369.409 164.789 369.382Z" fill="#1E2B62"/>
<path d="M202.163 434.614C201.995 434.751 201.766 434.806 201.537 434.743C201.167 434.639 200.953 434.26 201.057 433.89C201.603 431.942 202.038 429.953 202.501 427.845C204.079 420.627 205.862 412.446 213.09 401.688C213.303 401.372 213.732 401.285 214.051 401.502C214.366 401.715 214.453 402.144 214.237 402.463C207.156 413 205.401 421.046 203.851 428.146C203.386 430.272 202.949 432.281 202.389 434.27C202.351 434.414 202.264 434.533 202.16 434.617L202.163 434.614Z" fill="#1E2B62"/>
<path d="M327.215 455.293C327.078 455.403 326.905 455.461 326.72 455.445C326.34 455.409 326.056 455.074 326.092 454.694C326.768 446.996 325.915 426.909 318.952 413.953C318.774 413.617 318.896 413.196 319.236 413.015C319.573 412.837 319.993 412.959 320.174 413.299C327.289 426.53 328.164 446.986 327.477 454.818C327.46 455.01 327.364 455.183 327.224 455.297L327.215 455.293Z" fill="#1E2B62"/>
<path d="M118.597 318.149C118.213 317.171 113.739 319.831 113.981 318.79C114.945 314.664 117.422 310.843 115.98 307.912C114.352 304.607 104.509 309.01 102.304 318.682C101.156 323.737 102.091 326.307 102.519 327.339C107.296 338.914 114.071 337.564 116.56 343.969C119.961 352.712 136.375 348.281 128.178 332.54C126.932 330.144 120.509 328.299 120.009 325.708C119.519 323.174 119.338 320.033 118.591 318.148L118.597 318.149Z" fill="#D08F79"/>
<path d="M128.129 347.314C126.485 348.65 124.329 349.29 122.122 349.032C119.276 348.698 116.955 346.904 115.913 344.224C114.917 341.667 113.224 340.462 111.075 338.938C108.223 336.914 104.678 334.396 101.878 327.607C101.508 326.713 100.384 323.992 101.627 318.534C103.38 310.822 109.573 306.603 113.206 306.178C114.816 305.987 116.051 306.512 116.594 307.611C117.72 309.896 116.787 312.516 115.802 315.291C115.465 316.237 115.122 317.206 114.846 318.191C115.118 318.101 115.425 317.988 115.674 317.899C117.275 317.317 118.789 316.764 119.236 317.9C119.751 319.206 119.998 320.974 120.259 322.838C120.386 323.763 120.523 324.722 120.687 325.582C120.899 326.676 122.869 327.841 124.609 328.871C126.418 329.94 128.125 330.95 128.787 332.226C132.579 339.503 130.94 343.786 129.625 345.693C129.2 346.312 128.695 346.854 128.125 347.317L128.129 347.314ZM108.497 309.904C106.113 311.842 103.872 314.895 102.973 318.837C101.828 323.866 102.825 326.285 103.153 327.076C105.801 333.495 109.025 335.786 111.874 337.806C114.026 339.334 116.055 340.778 117.202 343.717C118.065 345.942 119.921 347.377 122.281 347.654C124.744 347.941 127.12 346.885 128.489 344.904C130.453 342.052 130.123 337.777 127.56 332.86C127.078 331.937 125.464 330.983 123.903 330.058C121.717 328.765 119.655 327.545 119.326 325.838C119.153 324.938 119.017 323.966 118.885 323.02C118.66 321.419 118.43 319.768 118.027 318.615C117.603 318.656 116.672 318.996 116.144 319.188C114.846 319.66 114.061 319.947 113.553 319.497C113.316 319.286 113.221 318.971 113.302 318.631C113.608 317.312 114.06 316.046 114.496 314.818C115.42 312.217 116.219 309.974 115.354 308.215C114.988 307.471 113.951 307.476 113.37 307.544C111.969 307.707 110.198 308.522 108.501 309.901L108.497 309.904Z" fill="#1E2B62"/>
<path d="M128.031 337.906L129.167 335.983C129.167 335.983 131.445 331.74 129.744 326.926C128.46 323.283 126.214 317.549 123.588 315.116C122.903 314.478 120.783 313.055 119.597 313.929C118.418 314.798 119.168 317.352 120.649 319.539C122.57 322.379 120.373 328.792 120.373 328.792L128.03 337.912L128.031 337.906Z" fill="white"/>
<path d="M130.108 336.371C129.915 336.528 129.638 336.575 129.396 336.468C129.048 336.317 128.887 335.907 129.038 335.559C129.055 335.521 130.685 331.638 129.101 327.151C127.012 321.236 125.005 317.355 123.127 315.615C122.408 314.951 120.709 313.971 120.02 314.477C119.778 314.656 119.633 314.916 119.584 315.266C119.46 316.116 119.929 317.329 120.831 318.511C123.038 321.403 120.995 327.031 120.904 327.271C120.772 327.628 120.373 327.81 120.016 327.678C119.659 327.546 119.473 327.15 119.609 326.79C120.133 325.364 121.184 321.251 119.734 319.349C118.581 317.836 118.042 316.317 118.217 315.069C118.32 314.354 118.656 313.766 119.203 313.363C120.822 312.172 123.27 313.852 124.075 314.601C126.147 316.521 128.219 320.475 130.412 326.692C132.181 331.707 130.39 335.935 130.313 336.11C130.266 336.214 130.197 336.305 130.115 336.372L130.108 336.371Z" fill="#1E2B62"/>
<path d="M121.871 329.884C121.825 329.922 121.769 329.955 121.711 329.979C121.36 330.133 120.95 329.972 120.8 329.619C120.757 329.523 120.607 329.323 120.475 329.146C120.068 328.608 119.508 327.868 119.552 326.993C119.568 326.611 119.894 326.317 120.276 326.333C120.658 326.35 120.953 326.676 120.936 327.058C120.92 327.433 121.287 327.921 121.581 328.312C121.774 328.571 121.962 328.817 122.068 329.064C122.195 329.353 122.105 329.688 121.872 329.877L121.871 329.884Z" fill="#1E2B62"/>
<path d="M250.685 440.173C250.685 440.173 251.832 406.452 256.817 386.343C264.383 385.973 302.408 395.539 302.408 395.539L290.15 439.593L250.681 440.176L250.685 440.173Z" fill="white"/>
<path d="M252.104 439.214C252.025 439.278 251.932 439.324 251.828 439.35C251.454 439.439 251.081 439.207 250.995 438.837C248.526 428.432 255.981 387.211 256.299 385.459C256.368 385.083 256.728 384.831 257.105 384.9C257.482 384.968 257.733 385.329 257.662 385.702C257.585 386.127 249.934 428.387 252.341 438.51C252.405 438.779 252.305 439.045 252.105 439.208L252.104 439.214Z" fill="#1E2B62"/>
<path d="M287.502 451.018C287.316 451.17 287.058 451.218 286.821 451.132C286.461 450.996 286.282 450.6 286.418 450.24C290.676 438.916 301.755 395.613 301.863 395.175C301.96 394.804 302.334 394.584 302.705 394.675C303.075 394.772 303.296 395.146 303.205 395.517C303.095 395.952 292.002 439.332 287.716 450.725C287.671 450.845 287.595 450.943 287.506 451.015L287.502 451.018Z" fill="#1E2B62"/>
<path d="M162.432 326.288C164.925 325.119 170.816 321.407 172.689 312.759C173.283 310.022 173.578 308.885 173.578 308.885C173.578 308.885 177.811 305.563 177.781 303.631C177.751 301.699 172.081 299.391 172.081 299.391C172.081 299.391 169.314 292.76 167.316 289.834C165.318 286.908 158.009 283.987 158.009 283.987L162.429 326.284L162.432 326.288Z" fill="#FFE9DD"/>
<path d="M166.419 324.574C164.968 325.753 163.626 326.493 162.73 326.913C162.526 327.006 162.288 326.998 162.096 326.887C161.9 326.778 161.77 326.581 161.747 326.355L157.327 284.058C157.302 283.816 157.402 283.58 157.598 283.433C157.79 283.289 158.046 283.253 158.273 283.342C158.579 283.463 165.804 286.374 167.899 289.442C169.711 292.096 172.075 297.573 172.619 298.856C174.288 299.557 178.452 301.519 178.485 303.615C178.516 305.636 175.245 308.437 174.204 309.278C174.092 309.726 173.816 310.878 173.374 312.902C172.106 318.768 169.086 322.413 166.425 324.575L166.419 324.574ZM163.017 325.21C165.688 323.734 170.383 320.145 172.013 312.611C172.602 309.89 172.9 308.756 172.911 308.711C172.949 308.568 173.038 308.436 173.152 308.343C174.795 307.049 177.107 304.736 177.092 303.642C177.077 302.761 174.356 301.066 171.824 300.037C171.655 299.967 171.517 299.834 171.447 299.66C171.417 299.594 168.687 293.06 166.752 290.225C165.332 288.15 160.886 286.001 158.824 285.089L163.016 325.217L163.017 325.21Z" fill="#1E2B62"/>
<path d="M102.709 316.809C102.709 316.809 27.9508 315.969 54.5985 272.382C72.1767 243.63 68.8898 243.947 65.148 232.459C76.9899 234.818 100.861 251.106 84.9171 274.764C68.9696 298.425 103.351 307.021 103.351 307.021L102.702 316.808L102.709 316.809Z" fill="#1E2B62"/>
<path d="M103.567 299.188C103.567 299.188 96.4027 300.236 97.9602 309.622C99.5141 319.01 105.243 321.574 106.765 319.32C108.287 317.066 102.142 308.227 103.567 299.188Z" fill="#00A5F3"/>
<path d="M158.707 283.273C145.852 270.771 126.799 272.709 112.8 283.908C97.2918 296.317 100.587 317.315 113.442 329.817C126.298 342.319 146.85 342.035 159.35 329.182C171.849 316.328 171.562 295.775 158.707 283.273Z" fill="#1E2B62"/>
<path d="M305.047 434.896C305.007 432.103 303.953 423.659 296.736 418.32C294.453 416.631 293.523 415.882 293.523 415.882C293.523 415.882 292.216 410.586 290.414 409.803C288.615 409.023 284.121 413.306 284.121 413.306C284.121 413.306 276.84 413.098 273.299 413.723C269.76 414.351 263.35 420.899 263.35 420.899L305.044 434.892L305.047 434.896Z" fill="#D08F79"/>
<path d="M305.479 435.433C305.479 435.433 305.461 435.448 305.451 435.456C305.266 435.588 305.036 435.627 304.821 435.552L263.126 421.559C262.898 421.483 262.73 421.298 262.672 421.066C262.614 420.833 262.685 420.591 262.85 420.421C263.117 420.151 269.458 413.707 273.173 413.048C276.385 412.477 282.443 412.579 283.85 412.612C285.193 411.367 288.741 408.328 290.688 409.172C292.569 409.987 293.793 414.178 294.133 415.489C294.5 415.78 295.448 416.514 297.139 417.768C305.161 423.702 305.707 433.072 305.732 434.889C305.733 435.102 305.64 435.302 305.476 435.436L305.479 435.433ZM264.635 420.606L304.298 433.914C304.062 431.143 302.827 423.69 296.32 418.874C294.049 417.193 293.122 416.448 293.086 416.418C292.968 416.323 292.886 416.194 292.849 416.045C292.34 413.985 291.161 410.881 290.14 410.438C289.315 410.08 286.608 411.894 284.6 413.805C284.465 413.932 284.288 413.999 284.101 413.996C284.029 413.996 276.849 413.795 273.42 414.405C271.035 414.828 266.814 418.502 264.639 420.603L264.635 420.606Z" fill="#1E2B62"/>
<path d="M294.145 422.754C278.886 412.717 256.683 416.734 250.23 436.377C244.53 453.726 242.551 467.972 257.813 478.007C273.075 488.041 293.365 482.16 301.13 465.631C309.976 446.79 309.41 432.786 294.148 422.751L294.145 422.754Z" fill="#1E2B62"/>
<path d="M244.504 141.579C244.504 141.579 295.385 183.094 322.516 113.683C349.647 44.272 244.504 141.579 244.504 141.579Z" fill="#1E2B62"/>
<path d="M264.114 203.73C262.906 205.807 295.603 245.538 298.057 247.701C300.514 249.861 307.82 251.892 310.026 254.006C312.232 256.121 320.563 265.163 320.563 267.168C320.566 269.176 316.207 268.056 314.893 267.244C313.705 266.515 310.279 263.638 309.615 263.077C309.591 263.055 309.552 263.08 309.568 263.115C310.026 264.051 312.836 269.761 313.818 271.687C314.887 273.792 320.229 280.957 317.6 284.688C314.972 288.419 305.915 290.891 292.563 274.362C289.253 270.266 287.387 261.898 284.636 258.324C281.885 254.749 237.606 212.197 235.97 201.799C234.332 191.408 265.329 201.655 264.12 203.731L264.114 203.73Z" fill="#FFE9DD"/>
<path d="M316.947 286.379C315.654 287.43 313.924 288.045 311.989 288.108C307.894 288.242 301.107 286.045 292.02 274.792C290.205 272.544 288.843 269.149 287.529 265.864C286.394 263.027 285.319 260.35 284.084 258.743C283.48 257.956 280.645 255.068 276.721 251.067C262.693 236.764 236.579 210.137 235.283 201.906C234.957 199.845 235.748 198.287 237.578 197.4C243.85 194.354 262.061 200.16 264.453 202.736C264.922 203.241 264.877 203.676 264.786 203.928C265.002 205.138 269.303 211.521 280.809 225.94C288.97 236.163 297.363 246.16 298.517 247.178C299.645 248.171 302.019 249.197 304.312 250.188C306.878 251.297 309.299 252.344 310.508 253.502C311.556 254.506 321.256 264.583 321.256 267.164C321.258 267.811 320.951 268.34 320.39 268.653C318.824 269.528 315.573 268.477 314.527 267.834C313.895 267.444 312.674 266.491 311.552 265.578C312.556 267.61 313.828 270.186 314.428 271.37C314.597 271.702 314.902 272.209 315.256 272.79C317.126 275.874 320.601 281.613 318.157 285.081C317.815 285.567 317.406 286 316.944 286.376L316.947 286.379ZM237.488 199.073C236.736 199.685 236.467 200.539 236.647 201.69C237.873 209.483 264.777 236.914 277.706 250.099C281.811 254.286 284.521 257.05 285.178 257.902C286.529 259.658 287.637 262.427 288.808 265.353C290.086 268.542 291.406 271.841 293.094 273.925C302.286 285.301 308.85 286.829 311.941 286.725C315.052 286.623 316.533 284.985 317.029 284.285C318.95 281.557 315.777 276.322 314.073 273.508C313.689 272.875 313.386 272.377 313.195 271.997C312.184 270.006 309.275 264.086 308.944 263.415L308.697 262.914L309.143 262.534C309.411 262.322 309.794 262.325 310.057 262.546C311.898 264.101 314.364 266.111 315.252 266.656C316.255 267.274 318.886 267.907 319.711 267.444C319.819 267.387 319.867 267.329 319.865 267.165C319.861 265.734 312.766 257.59 309.542 254.501C308.515 253.516 306.094 252.469 303.755 251.456C301.252 250.374 298.887 249.352 297.594 248.215C296.345 247.118 287.596 236.697 279.165 226.112C264.374 207.534 263.219 204.518 263.398 203.641C261.897 202.036 245.28 196.106 238.71 198.419C238.21 198.594 237.8 198.814 237.478 199.076L237.488 199.073ZM310.188 262.802C310.188 262.802 310.188 262.802 310.191 262.806C310.191 262.806 310.191 262.806 310.188 262.802Z" fill="#1E2B62"/>
<path d="M231.107 137.513C242.421 147.058 259.331 149.99 286.767 141.137C314.204 132.283 332.362 105.386 332.362 105.386C332.362 105.386 345.545 118.3 346.638 120.683C347.724 123.065 323.858 169.161 328.188 174.158C332.515 179.152 338.714 183.707 344.404 182.74C350.096 181.776 384.535 126.902 381.242 115.044C374.483 90.7057 344.522 67.306 331.706 57.4127C307.701 38.8899 228.949 55.2305 210.102 74.9507C186.772 99.3548 188.061 135.056 202.067 164.608C208.188 177.523 258.477 251.188 267.754 252.403C273.528 253.157 303.64 237.806 295.026 230.837C267.57 208.631 231.104 137.51 231.104 137.51L231.107 137.513Z" fill="#00A5F3"/>
<path d="M332.798 105.921C332.654 106.037 332.465 106.096 332.271 106.07C331.892 106.021 331.626 105.672 331.678 105.29C333.688 90.4235 331.245 77.8558 329.459 68.6858C329.247 67.5911 329.046 66.5534 328.862 65.5731C328.792 65.1952 329.04 64.8337 329.414 64.7674C329.792 64.6982 330.153 64.9455 330.22 65.3198C330.401 66.2965 330.603 67.3277 330.815 68.4224C332.617 77.6925 335.09 90.3846 333.046 105.48C333.021 105.662 332.929 105.819 332.797 105.927L332.798 105.921Z" fill="#1E2B62"/>
<path d="M231.248 137.81C231.011 138.002 230.668 138.019 230.408 137.838C217.934 128.922 207.919 110.578 205.02 103.091C204.884 102.733 205.059 102.334 205.418 102.197C205.776 102.06 206.175 102.236 206.312 102.595C209.161 109.955 218.993 127.978 231.213 136.714C231.525 136.937 231.595 137.367 231.373 137.679C231.338 137.731 231.291 137.775 231.244 137.813L231.248 137.81Z" fill="#1E2B62"/>
<path d="M332.32 80.3648C332.148 80.5045 331.913 80.5589 331.684 80.4893C318.249 76.4633 299.45 79.9792 299.259 80.0153C298.884 80.0881 298.522 79.8407 298.45 79.4658C298.377 79.0908 298.624 78.7293 298.999 78.6565C299.782 78.5078 318.323 75.0471 332.083 79.1658C332.449 79.2725 332.658 79.6616 332.545 80.0272C332.504 80.1673 332.424 80.2804 332.32 80.3648Z" fill="#1E2B62"/>
<path d="M225.561 112.616C225.536 112.636 225.507 112.659 225.477 112.672C221.549 115.003 215.528 120.485 215.47 120.538C215.187 120.798 214.749 120.779 214.493 120.493C214.234 120.211 214.253 119.773 214.538 119.517C214.788 119.29 220.723 113.884 224.773 111.478C225.102 111.282 225.527 111.388 225.719 111.72C225.895 112.017 225.823 112.397 225.562 112.609L225.561 112.616Z" fill="#1E2B62"/>
<path d="M323.133 192.431C322.604 193.193 326.75 195.177 325.872 195.509C322.371 196.827 318.344 196.877 316.898 199.378C315.269 202.195 323.334 207.267 331.52 204.14C335.799 202.506 337.227 200.554 337.774 199.734C343.935 190.546 339.617 186.235 343.102 181.261C347.854 174.473 336.546 164.584 329.003 178.334C327.855 180.427 329.647 186.048 327.992 187.684C326.37 189.288 324.15 190.962 323.129 192.434L323.133 192.431Z" fill="#FFE9DD"/>
<path d="M336.431 202.216C335.425 203.034 333.949 203.954 331.774 204.782C325.213 207.29 319.031 204.791 316.922 202.312C315.971 201.194 315.74 199.995 316.303 199.027C317.445 197.052 319.843 196.447 322.386 195.807C323.194 195.602 324.026 195.396 324.833 195.139C324.663 195.009 324.486 194.88 324.337 194.769C323.144 193.894 321.909 192.989 322.568 192.037C323.278 191.008 324.459 189.959 325.709 188.848C326.326 188.299 326.962 187.735 327.51 187.188C328.186 186.519 328.078 184.52 327.981 182.755C327.878 180.888 327.781 179.129 328.404 177.993C331.907 171.6 335.895 170.697 337.958 170.726C340.572 170.767 342.95 172.266 344.167 174.648C345.332 176.931 345.151 179.546 343.674 181.651C342.297 183.614 342.243 185.443 342.178 187.755C342.091 190.853 341.979 194.709 338.357 200.115C338.101 200.496 337.57 201.29 336.431 202.216ZM318.249 198.861C317.945 199.108 317.692 199.39 317.5 199.725C317.161 200.316 317.65 201.043 317.975 201.421C319.903 203.683 325.6 205.666 331.28 203.494C335.515 201.878 336.787 199.976 337.206 199.35C340.61 194.276 340.71 190.792 340.797 187.724C340.861 185.382 340.926 183.171 342.541 180.864C343.734 179.164 343.875 177.128 342.937 175.286C341.951 173.363 340.039 172.152 337.939 172.122C334.912 172.078 331.956 174.403 329.62 178.669C329.188 179.455 329.277 181.101 329.366 182.688C329.487 184.945 329.608 187.076 328.49 188.181C327.913 188.751 327.263 189.327 326.634 189.892C325.594 190.821 324.521 191.776 323.873 192.618C324.138 192.908 324.788 193.385 325.16 193.66C326.169 194.397 326.779 194.848 326.69 195.491C326.648 195.798 326.435 196.049 326.125 196.164C324.999 196.586 323.844 196.877 322.729 197.158C320.913 197.617 319.293 198.024 318.258 198.865L318.249 198.861Z" fill="#1E2B62"/>
<path d="M333.014 175.799L331.045 175.907C331.045 175.907 326.81 176.316 324.108 179.927C322.065 182.659 318.954 187.12 318.451 190.247C318.321 191.06 318.314 193.32 319.538 193.758C320.752 194.199 322.261 192.396 323.143 190.233C324.285 187.432 330.076 185.901 330.076 185.901L333.017 175.802L333.014 175.799Z" fill="#FFE9DD"/>
<path d="M321.741 193.885C321.534 194.054 321.323 194.189 321.099 194.294C320.505 194.58 319.877 194.621 319.298 194.413C317.578 193.789 317.608 191.119 317.765 190.141C318.161 187.666 320.052 184.19 323.552 179.519C326.386 175.735 330.401 174.975 330.572 174.943C330.95 174.874 331.308 175.125 331.377 175.502C331.443 175.877 331.196 176.238 330.818 176.307C330.761 176.318 327.152 177.027 324.663 180.353C321.352 184.78 319.492 188.148 319.136 190.364C318.985 191.313 319.16 192.896 319.773 193.117C320.001 193.2 320.242 193.182 320.502 193.055C321.164 192.736 321.814 191.816 322.232 190.596C323.288 187.513 328.467 186.247 328.689 186.192C329.063 186.102 329.433 186.331 329.522 186.704C329.612 187.077 329.38 187.45 329.01 187.537C327.715 187.846 324.212 189.081 323.54 191.043C323.108 192.304 322.482 193.289 321.741 193.891L321.741 193.885Z" fill="#1E2B62"/>
<path d="M329.416 187.3C329.348 187.355 329.281 187.404 329.204 187.448C328.876 187.644 328.45 187.538 328.254 187.209C328.059 186.881 328.165 186.455 328.494 186.26C328.755 186.106 328.925 185.612 329.064 185.213C329.161 184.938 329.251 184.675 329.387 184.469C329.591 184.149 330.02 184.055 330.343 184.263C330.666 184.47 330.757 184.896 330.55 185.219C330.503 185.293 330.429 185.502 330.371 185.673C330.194 186.186 329.956 186.867 329.423 187.3L329.416 187.3Z" fill="#1E2B62"/>
<path d="M235.245 112.533C236.541 115.072 240.586 121.044 249.603 122.684C252.456 123.202 253.645 123.472 253.645 123.472C253.645 123.472 257.23 127.737 259.228 127.642C261.225 127.546 263.417 121.596 263.417 121.596C263.417 121.596 270.182 118.506 273.146 116.335C276.109 114.165 278.875 106.498 278.875 106.498L235.251 112.534L235.245 112.533Z" fill="#FFE9DD"/>
<path d="M260.598 127.742C260.169 128.091 259.72 128.307 259.258 128.332C257.171 128.434 254.161 125.141 253.265 124.097C252.803 123.997 251.602 123.748 249.477 123.364C240.042 121.648 235.946 115.438 234.625 112.847C234.524 112.65 234.526 112.411 234.628 112.214C234.734 112.015 234.925 111.878 235.145 111.848L278.768 105.813C279.008 105.778 279.248 105.875 279.399 106.062C279.553 106.251 279.593 106.505 279.51 106.732C279.395 107.052 276.643 114.618 273.541 116.895C270.854 118.865 265.247 121.507 263.952 122.108C263.434 123.475 262.16 126.473 260.591 127.748L260.598 127.742ZM236.33 113.079C237.94 115.791 241.82 120.565 249.722 121.999C252.556 122.515 253.742 122.782 253.794 122.794C253.941 122.828 254.07 122.907 254.17 123.023C255.57 124.686 258.051 127 259.191 126.947C260.111 126.901 261.783 124.019 262.763 121.355C262.827 121.185 262.956 121.044 263.125 120.966C263.19 120.937 269.86 117.883 272.728 115.778C274.836 114.231 276.928 109.497 277.793 107.349L236.329 113.086L236.33 113.079Z" fill="#1E2B62"/>
<path d="M228.045 110.099C226.048 105.002 220.754 106.075 221.027 98.3184C221.302 90.5653 217.798 89.4585 218.419 84.2608C219.041 79.063 219.57 64.1092 227.258 60.0551C234.943 55.9974 239.232 50.7686 247.171 49.0499C255.11 47.3313 260.69 52.6811 267.15 51.9086C273.61 51.1361 282.8 61.1041 282.902 68.2531C282.97 73.0694 291.592 83.9268 287.82 90.2818C284 96.7171 287.291 103.736 281.84 107.316C278.73 109.357 271.113 117.647 263.657 116.44C255.906 115.186 256.375 118.404 249.806 119.336C243.327 120.254 242.113 117.018 239.18 115.364C236.241 113.708 229.68 114.254 228.049 110.096L228.045 110.099Z" fill="#1E2B62"/>
<path d="M451.445 313.437C450.94 310.862 395.467 301.793 391.895 301.788C388.323 301.783 380.86 305.381 377.525 305.237C374.191 305.092 360.835 303.666 359.391 302.021C357.944 300.372 362.326 298.154 363.989 297.867C365.489 297.612 370.374 297.507 371.328 297.487C371.364 297.488 371.376 297.436 371.341 297.423C370.29 296.986 363.873 294.322 361.677 293.442C359.283 292.486 349.737 290.45 349.205 285.494C348.673 280.537 354.329 271.979 377.2 275.931C382.866 276.91 390.431 282.435 395.263 283.391C400.095 284.346 449.538 287.57 458.371 294.926C467.204 302.281 451.95 316.012 451.445 313.437Z" fill="#8C5745"/>
<path d="M454.753 312.936C453.532 313.929 452.425 314.513 451.718 314.44C451.27 314.394 450.934 314.119 450.799 313.712C449.796 312.873 441.694 310.734 421.801 307.175C407.709 304.653 393.577 302.49 391.891 302.486C390.241 302.483 387.547 303.353 384.947 304.193C382.046 305.13 379.31 306.015 377.495 305.932C375.915 305.861 360.72 304.586 358.87 302.479C358.418 301.966 358.296 301.334 358.516 300.697C359.164 298.874 362.559 297.411 363.868 297.186C364.72 297.041 366.544 296.944 368.223 296.881C365.876 295.91 362.812 294.642 361.416 294.088C361.035 293.934 360.419 293.739 359.707 293.514C355.964 292.334 349.001 290.131 348.514 285.567C348.255 283.148 349.301 280.639 351.383 278.685C354.637 275.636 361.777 272.562 377.319 275.244C380.423 275.778 383.979 277.586 387.421 279.333C390.401 280.848 393.219 282.274 395.395 282.706C396.389 282.904 399.415 283.203 403.607 283.627C419.211 285.193 451.686 288.458 458.813 294.387C461.945 296.998 462.645 300.646 460.833 304.95C459.554 307.993 456.963 311.134 454.754 312.93L454.753 312.936ZM452.04 313.036C453.364 312.691 457.909 308.735 459.722 304.015C461.086 300.462 460.484 297.578 457.929 295.451C451.132 289.788 418.939 286.556 403.471 285.004C399.244 284.58 396.188 284.274 395.131 284.063C392.765 283.595 389.862 282.124 386.795 280.567C383.444 278.866 379.981 277.107 377.083 276.608C361.313 273.885 354.802 277.376 352.332 279.692C349.829 282.042 349.791 284.475 349.894 285.414C350.287 289.08 356.688 291.103 360.129 292.19C360.898 292.433 361.505 292.624 361.936 292.797C364.12 293.669 370.376 296.267 371.606 296.778L372.126 296.992L372.039 297.581C371.974 297.918 371.68 298.163 371.335 298.17C368.702 298.223 365.224 298.349 364.102 298.542C362.79 298.764 360.178 300.137 359.822 301.147C359.765 301.312 359.788 301.412 359.908 301.553C361.029 302.83 373.149 304.338 377.554 304.534C379.121 304.605 381.867 303.717 384.52 302.863C387.351 301.948 390.021 301.086 391.891 301.089C393.705 301.089 408.389 303.338 422.937 305.961C448.634 310.588 451.588 312.202 452.034 313.029L452.04 313.036Z" fill="#1E2B62"/>
<path d="M409.021 275.244C404.427 276.557 401.712 278.652 400.449 280.201C396.508 285.046 392.988 291.469 394.156 297.574C395.986 307.083 400.089 313.133 409.865 313.865C416.421 312.134 421.408 312.541 424.658 313.183C436.223 315.457 440.441 323.507 459.776 335.524C468.214 340.769 470.55 341.119 472.496 341.208C482.743 341.693 492.358 333.17 495.473 320.885C500.077 302.721 444.166 265.193 409.022 275.238L409.021 275.244Z" fill="#1E2B62"/>
<path d="M398.654 207.767C396.396 206.569 355.45 243.026 353.252 245.728C351.054 248.431 349.195 256.299 347.035 258.733C344.874 261.167 335.595 270.41 333.457 270.495C331.319 270.579 332.328 265.893 333.135 264.458C333.862 263.165 336.784 259.399 337.354 258.667C337.374 258.64 337.348 258.601 337.314 258.617C336.338 259.143 330.375 262.372 328.363 263.496C326.17 264.719 318.759 270.701 314.678 268.058C310.598 265.416 307.59 255.87 324.628 240.969C328.851 237.275 337.683 234.944 341.373 231.867C345.063 228.791 377.874 193.314 388.875 191.141C399.876 188.968 400.909 208.961 398.645 207.763L398.654 207.767Z" fill="#FFF5DD"/>
<path d="M337.604 268.719C335.849 270.145 334.321 271.155 333.488 271.19C332.815 271.219 332.252 270.922 331.908 270.351C330.92 268.734 331.902 265.253 332.537 264.124C332.943 263.402 333.968 261.992 334.934 260.701C332.783 261.867 329.964 263.402 328.708 264.103C328.356 264.299 327.835 264.646 327.226 265.045C324.03 267.156 318.077 271.084 314.31 268.644C312.314 267.352 311.05 265.014 310.852 262.231C310.539 257.888 312.595 250.585 324.18 240.454C326.492 238.433 330.051 236.842 333.49 235.308C336.465 233.978 339.282 232.711 340.939 231.341C341.697 230.707 343.787 228.604 346.679 225.688C358.282 213.991 379.873 192.225 388.751 190.469C392.659 189.695 395.864 191.414 398.015 195.435C400.377 199.856 400.974 206.81 399.599 208.19C399.287 208.502 398.864 208.596 398.467 208.444C397.203 208.703 390.603 213.533 375.701 226.401C365.141 235.525 354.828 244.895 353.791 246.165C352.777 247.412 351.783 249.986 350.818 252.472C349.748 255.245 348.732 257.866 347.556 259.191C346.843 259.996 341.626 265.444 337.601 268.716L337.604 268.719ZM325.416 241.222C325.305 241.312 325.194 241.402 325.093 241.497C313.348 251.768 311.993 258.835 312.233 262.131C312.473 265.463 314.291 266.982 315.063 267.479C318.074 269.427 323.531 265.825 326.463 263.887C327.121 263.453 327.639 263.11 328.032 262.891C330.086 261.745 336.291 258.391 336.993 258.011L337.49 257.744L337.891 258.179C338.113 258.438 338.119 258.826 337.911 259.096C336.331 261.124 334.293 263.833 333.75 264.804C333.115 265.933 332.552 268.745 333.094 269.631C333.178 269.771 333.266 269.813 333.44 269.808C335.057 269.742 343.755 261.4 346.528 258.278C347.538 257.135 348.557 254.511 349.534 251.975C350.581 249.268 351.57 246.71 352.72 245.293C353.836 243.923 364.561 234.176 375.482 224.764C394.66 208.237 397.786 206.904 398.708 207.058C399.26 205.813 399.032 199.914 396.554 195.665C394.706 192.499 392.169 191.206 389.018 191.829C380.559 193.5 358.341 215.9 347.662 226.662C344.743 229.605 342.631 231.732 341.827 232.404C340.027 233.914 337.122 235.204 334.055 236.574C330.874 237.993 327.586 239.458 325.416 241.222Z" fill="#1E2B62"/>
<path d="M343.662 216.437C341.832 220.726 341.755 224.071 342.152 225.978C343.4 231.94 346.107 238.555 351.447 241.423C359.775 245.882 366.877 246.485 373.44 239.533C377.325 233.075 387.739 226.133 398.416 220.577C403.969 219.055 414.76 216.338 421.292 216.246C439.535 215.989 443.492 185.492 427.097 179.756C409.848 173.721 357.632 183.642 343.658 216.44L343.662 216.437Z" fill="#FFE02E"/>
<path d="M421.731 216.783C421.613 216.879 421.463 216.936 421.298 216.938C412.615 216.973 399.676 218.788 387.342 227.237C382.277 230.706 377.787 234.985 373.994 239.954C373.979 239.972 373.964 239.99 373.949 240.008C367.775 246.555 360.736 247.179 351.127 242.036C345.249 238.879 342.637 231.641 341.481 226.122C341.212 224.848 340.831 221.328 343.03 216.168C351.384 196.561 372.241 186.9 383.931 182.882C400.032 177.349 417.881 175.795 427.331 179.104C427.692 179.233 427.881 179.627 427.756 179.984C427.63 180.342 427.233 180.534 426.875 180.408C417.691 177.192 400.212 178.749 384.38 184.188C372.908 188.13 352.445 197.596 344.302 216.71C342.256 221.508 342.596 224.692 342.836 225.836C343.933 231.064 346.373 237.906 351.781 240.814C360.853 245.669 367.172 245.154 372.919 239.085C376.795 234.014 381.382 229.642 386.561 226.093C399.185 217.445 412.416 215.587 421.297 215.554C421.677 215.554 421.99 215.858 421.993 216.243C421.994 216.462 421.895 216.656 421.737 216.784L421.731 216.783Z" fill="#1E2B62"/>
<path d="M126.415 176.866C126.218 177.026 125.941 177.073 125.693 176.959C125.345 176.802 125.191 176.392 125.348 176.044C132.848 159.344 142.964 144.449 155.419 131.774C155.686 131.503 156.127 131.496 156.398 131.764C156.669 132.031 156.676 132.472 156.408 132.743C144.07 145.298 134.045 160.055 126.612 176.605C126.566 176.708 126.498 176.793 126.419 176.857L126.415 176.866Z" fill="#1E2B62"/>
<path d="M120.713 191.395C120.534 191.54 120.285 191.593 120.054 191.513C119.693 191.391 119.497 190.997 119.62 190.635C120.404 188.315 121.251 185.985 122.132 183.711C122.271 183.354 122.673 183.176 123.029 183.314C123.386 183.453 123.564 183.855 123.425 184.212C122.55 186.463 121.711 188.775 120.932 191.079C120.889 191.209 120.813 191.313 120.713 191.395Z" fill="#1E2B62"/>
<path d="M126.851 205.918C126.69 206.049 126.474 206.106 126.256 206.057C125.881 205.969 125.654 205.594 125.742 205.226C130.941 183.164 140.552 163.493 154.305 146.766C154.545 146.47 154.982 146.429 155.279 146.67C155.572 146.914 155.616 147.348 155.375 147.645C141.758 164.208 132.245 183.686 127.093 205.543C127.058 205.697 126.969 205.829 126.854 205.922L126.851 205.918Z" fill="#1E2B62"/>
<path d="M163.26 128.658C162.447 129.319 161.364 129.646 160.25 129.469C158.168 129.139 156.747 127.178 157.076 125.096C157.406 123.014 159.367 121.593 161.449 121.923C163.531 122.253 164.952 124.214 164.622 126.296C164.467 127.261 163.965 128.085 163.26 128.658ZM159.312 123.808C158.861 124.175 158.538 124.699 158.445 125.316C158.232 126.643 159.143 127.895 160.469 128.107C161.796 128.32 163.048 127.409 163.26 126.083C163.472 124.756 162.562 123.504 161.235 123.292C160.525 123.179 159.838 123.387 159.319 123.809L159.312 123.808Z" fill="#1E2B62"/>
<path d="M123.563 164.778C123.28 164.175 123.124 163.595 123.035 162.965C122.948 162.34 122.95 161.684 123.115 161.038C123.198 160.715 123.312 160.402 123.461 160.103C123.549 159.954 123.606 159.813 123.724 159.658L123.908 159.424L124.109 159.231C124.651 158.749 125.207 158.505 125.739 158.245C126.27 157.998 126.782 157.772 127.245 157.515C127.711 157.261 128.128 156.97 128.416 156.629C128.956 156.065 128.949 154.929 128.961 153.795C128.968 153.218 128.97 152.622 129.052 151.99C129.136 151.369 129.305 150.678 129.765 150.073C130.039 149.737 130.391 149.504 130.709 149.376C131.035 149.236 131.346 149.15 131.648 149.083C132.252 148.949 132.827 148.88 133.375 148.786C133.912 148.694 134.459 148.583 134.82 148.384C135.008 148.285 135.09 148.189 135.209 148.021C135.314 147.858 135.386 147.639 135.443 147.409C135.541 146.93 135.555 146.384 135.551 145.816C135.551 145.53 135.545 145.238 135.557 144.93C135.573 144.62 135.58 144.3 135.746 143.897C135.852 143.632 136.154 143.5 136.422 143.609C136.686 143.715 136.813 144.011 136.714 144.276L136.701 144.304C136.652 144.433 136.631 144.7 136.63 144.963C136.629 145.225 136.643 145.505 136.655 145.798C136.678 146.375 136.703 146.984 136.597 147.636C136.53 147.964 136.443 148.303 136.257 148.638C136.077 148.957 135.76 149.292 135.434 149.461C134.79 149.824 134.183 149.919 133.602 150.046C133.023 150.16 132.46 150.243 131.949 150.367C131.435 150.482 130.983 150.694 130.824 150.901C130.588 151.217 130.453 151.673 130.39 152.181C130.328 152.69 130.324 153.241 130.324 153.811C130.32 154.385 130.331 154.977 130.253 155.612C130.21 155.932 130.153 156.257 130.023 156.601L129.924 156.854L129.784 157.105C129.69 157.282 129.573 157.401 129.463 157.544C128.998 158.077 128.44 158.429 127.902 158.718C127.36 159.01 126.818 159.236 126.305 159.468C125.805 159.702 125.299 159.935 124.973 160.207L124.854 160.303L124.775 160.409C124.715 160.475 124.653 160.603 124.591 160.695C124.474 160.903 124.389 161.127 124.319 161.356C124.053 162.28 124.177 163.405 124.516 164.349L124.531 164.39C124.628 164.662 124.486 164.956 124.22 165.053C123.968 165.145 123.689 165.021 123.575 164.786L123.563 164.778Z" fill="#1E2B62"/>
<path d="M447.428 268.233C447.284 268.35 447.098 268.406 446.903 268.386C446.525 268.337 446.255 267.991 446.304 267.612C448.343 251.545 445.261 234.131 442.314 222.355C442.221 221.984 442.45 221.608 442.817 221.518C443.187 221.425 443.561 221.65 443.654 222.021C446.629 233.912 449.738 251.505 447.673 267.79C447.651 267.974 447.556 268.129 447.42 268.239L447.428 268.233Z" fill="#1E2B62"/>
<path d="M437.766 250.468C437.748 250.483 437.73 250.497 437.712 250.512L435.626 251.88C435.309 252.09 434.879 252 434.669 251.683C434.459 251.366 434.542 250.935 434.866 250.726L436.952 249.357C437.269 249.147 437.7 249.237 437.91 249.554C438.105 249.853 438.041 250.25 437.769 250.472L437.766 250.468Z" fill="#1E2B62"/>
<path d="M430.461 255.26C430.444 255.274 430.426 255.289 430.408 255.304L428.321 256.672C428.004 256.882 427.574 256.792 427.364 256.475C427.154 256.158 427.241 255.724 427.565 255.515L429.651 254.146C429.968 253.936 430.398 254.027 430.609 254.343C430.804 254.643 430.74 255.039 430.468 255.261L430.461 255.26Z" fill="#1E2B62"/>
<path d="M431.361 250.938C431.343 250.952 431.325 250.967 431.304 250.984C430.987 251.194 430.557 251.104 430.344 250.783L428.974 248.696C428.768 248.376 428.858 247.946 429.175 247.736C429.492 247.526 429.922 247.617 430.135 247.937L431.505 250.024C431.7 250.323 431.636 250.72 431.364 250.941L431.361 250.938Z" fill="#1E2B62"/>
<path d="M436.15 258.246C436.132 258.261 436.114 258.275 436.093 258.293C435.776 258.503 435.346 258.412 435.133 258.092L433.764 256.005C433.553 255.688 433.644 255.258 433.964 255.045C434.281 254.835 434.711 254.925 434.924 255.246L436.294 257.333C436.489 257.632 436.425 258.028 436.153 258.25L436.15 258.246Z" fill="#1E2B62"/>
<path d="M416.118 338.412C415.119 339.224 413.782 339.598 412.426 339.313C410.041 338.814 408.504 336.471 409 334.081C409.241 332.922 409.921 331.929 410.906 331.283C411.895 330.634 413.076 330.412 414.229 330.652C415.385 330.89 416.378 331.57 417.027 332.559C417.677 333.548 417.899 334.729 417.655 335.884C417.437 336.918 416.877 337.795 416.118 338.412ZM411.411 332.628C410.87 333.067 410.499 333.672 410.355 334.366C410.012 336.006 411.069 337.621 412.711 337.958C414.349 338.298 415.96 337.244 416.303 335.604C416.467 334.81 416.315 333.994 415.873 333.319C415.428 332.639 414.748 332.175 413.951 332.008C413.158 331.844 412.348 331.996 411.669 332.441C411.581 332.501 411.496 332.564 411.417 332.628L411.411 332.628Z" fill="#1E2B62"/>
<path d="M293.373 193.652C292.664 194.228 291.708 194.494 290.748 194.293C289.049 193.937 287.955 192.269 288.308 190.567C288.478 189.744 288.961 189.036 289.662 188.574C290.365 188.115 291.205 187.956 292.027 188.126C292.85 188.297 293.558 188.78 294.016 189.483C294.475 190.187 294.635 191.027 294.464 191.849C294.313 192.585 293.911 193.209 293.37 193.649L293.373 193.652ZM290.276 189.842C289.961 190.098 289.747 190.45 289.663 190.851C289.467 191.802 290.079 192.738 291.032 192.938C291.983 193.135 292.919 192.523 293.119 191.569C293.215 191.11 293.127 190.635 292.868 190.244C292.61 189.853 292.215 189.579 291.753 189.486C291.293 189.389 290.821 189.481 290.428 189.736C290.378 189.77 290.329 189.804 290.279 189.845L290.276 189.842Z" fill="#1E2B62"/>
</g>
<defs>
<clipPath id="clip0_3073_38403">
<rect width="383" height="383" fill="white" transform="translate(0.109375 241.681) rotate(-39.104)"/>
</clipPath>
</defs>
</svg>
