<svg width="600" height="455" viewBox="0 0 600 455" fill="none" xmlns="http://www.w3.org/2000/svg">
<g clip-path="url(#clip0_3214_5541)">
<path d="M389.529 168.029L364.644 88.6074L316.52 100.543L332.353 163.999L389.529 168.029Z" fill="#D08F79"/>
<path d="M389.527 168.949C389.506 168.949 389.485 168.949 389.46 168.949L332.287 164.923C331.89 164.894 331.554 164.614 331.458 164.224L315.625 100.765C315.566 100.527 315.604 100.276 315.729 100.066C315.855 99.857 316.06 99.7064 316.299 99.6478L364.424 87.7117C364.901 87.5946 365.383 87.8666 365.525 88.3311L390.411 167.753C390.503 168.045 390.444 168.359 390.256 168.598C390.08 168.82 389.812 168.949 389.531 168.949H389.527ZM333.083 163.128L388.237 167.012L364.017 89.7081L317.635 101.213L333.083 163.128Z" fill="#121A3D"/>
<path d="M370.063 22.4452C356.379 10.8649 339.883 3.49069 322.475 1.1219C310.051 -0.568898 297.221 -0.656786 285.208 3.09728C273.194 6.85135 262.023 14.7822 255.903 26.2997C249.783 37.8172 249.473 53.0553 256.716 63.8278C263.962 74.5962 279.117 79.1873 289.941 72.5413C286.431 75.9857 287.469 82.6651 291.185 85.8668C294.9 89.0684 300.262 89.3153 304.89 87.9761C309.519 86.6327 313.658 83.9249 317.934 81.6314C322.211 79.3338 326.886 77.3919 331.669 77.7853C339.175 78.4005 345.165 84.5024 352.244 87.2018C365.749 92.3496 368.518 82.5145 375.747 69.5406C385.109 52.7372 386.152 36.072 370.067 22.4536L370.063 22.4452Z" fill="#121A3D"/>
<path d="M360.616 67.7741C361.34 62.8775 362.065 57.9181 361.504 53.0006C360.942 48.083 358.936 43.1362 355.078 40.035C349.583 35.6197 341.607 35.8624 334.88 37.9759C328.153 40.0894 322.004 43.7974 315.243 45.7979C308.483 47.7942 300.449 47.7482 295.188 43.0567C295.393 54.4988 295.598 65.941 295.807 77.3874C296.004 88.3817 296.675 100.548 304.428 108.349C311.327 115.292 322.217 116.765 331.864 115.058C345.821 112.589 358.601 104.097 366.275 92.1902C375.67 87.0802 381.534 78.9233 380.902 70.9422C380.831 70.055 380.169 61.6345 374.07 59.295C370.895 58.0771 366.648 58.6589 363.745 61.3667C361.173 63.7647 360.72 66.8408 360.62 67.7699L360.616 67.7741Z" fill="#D08F79"/>
<path d="M324.601 116.636C316.173 116.636 308.692 113.957 303.766 109.002C295.946 101.134 295.087 89.0767 294.878 77.4044L294.258 43.0737C294.254 42.7054 294.463 42.3706 294.794 42.2199C295.129 42.0692 295.519 42.1278 295.795 42.3706C300.126 46.2334 307.297 47.1835 314.975 44.9151C318.414 43.8981 321.774 42.3957 325.024 40.9434C328.107 39.5623 331.299 38.1352 334.6 37.1015C342.956 34.4774 350.63 35.2851 355.652 39.3196C359.355 42.2952 361.755 47.1165 362.417 52.8962C362.744 55.763 362.648 58.6256 362.371 61.4548C362.597 61.1953 362.844 60.9442 363.108 60.6931C366.103 57.9016 370.635 56.9934 374.397 58.4331C380.563 60.8019 381.635 68.5528 381.815 70.8714C382.46 79.0408 376.755 87.4613 366.916 92.8894C359.121 104.859 346.094 113.48 332.019 115.966C329.494 116.414 327.01 116.632 324.601 116.632V116.636ZM296.143 44.9653L296.725 77.3709C296.926 88.6666 297.739 100.318 305.077 107.701C310.979 113.643 320.932 116.058 331.697 114.15C345.352 111.735 357.985 103.34 365.492 91.6924C365.575 91.5627 365.689 91.4581 365.827 91.3827C375.147 86.3145 380.567 78.5092 379.976 71.0178C379.863 69.5614 379.026 62.1914 373.735 60.1574C370.673 58.9814 366.82 59.7556 364.369 62.0449C362.589 63.7064 361.906 65.7278 361.642 67.1215C361.605 67.3851 361.563 67.6488 361.525 67.9083C361.45 68.4063 360.993 68.7537 360.495 68.6867C359.996 68.6239 359.64 68.1719 359.694 67.6739C359.72 67.4228 359.761 67.1382 359.82 66.8243C360.482 62.3086 361.102 57.6631 360.582 53.1054C359.979 47.8112 357.818 43.4252 354.496 40.7551C348.054 35.5823 338.822 37.7041 335.153 38.8592C331.957 39.8637 328.815 41.2699 325.778 42.6259C322.473 44.1032 319.055 45.635 315.499 46.6854C308.051 48.8826 300.985 48.2256 296.139 44.9653H296.143Z" fill="#121A3D"/>
<path d="M367.206 84.6109C367.055 84.6109 366.9 84.5732 366.762 84.4979C366.313 84.251 366.154 83.6901 366.401 83.2465C368.756 78.9819 372.722 75.5417 377.275 73.809C377.749 73.6291 378.285 73.8676 378.465 74.3405C378.645 74.8177 378.406 75.3492 377.929 75.5291C373.778 77.1111 370.163 80.2458 368.014 84.1338C367.847 84.4393 367.532 84.6109 367.206 84.6109Z" fill="#121A3D"/>
<path d="M357.28 61.0069C357.28 61.0069 354.612 20.0302 343.809 7.30742C342.904 6.24021 343.578 4.67078 345.019 4.54104L351.114 3.99697C354.616 3.68309 359.202 7.22372 360.966 10.8188C364.451 17.9251 371.668 36.1347 371.744 55.8467L357.28 61.0069Z" fill="white"/>
<path d="M356.439 62.2873L356.359 61.0694C356.334 60.6634 353.591 20.2517 343.106 7.90556C342.461 7.14805 342.298 6.15617 342.666 5.25637C343.043 4.33982 343.91 3.71623 344.937 3.62416L351.031 3.08009C355.082 2.72436 359.949 6.6542 361.792 10.4125C363.593 14.0828 372.578 33.5228 372.662 55.8421V56.495L356.435 62.2873H356.439ZM351.542 4.90063C351.425 4.90063 351.308 4.90481 351.195 4.91737L345.1 5.46144C344.761 5.49073 344.488 5.67488 344.375 5.95528C344.325 6.07665 344.241 6.39054 344.514 6.71279C354.462 18.4312 357.57 52.6949 358.114 59.7343L370.815 55.2018C370.563 33.5605 361.889 14.7985 360.138 11.2286C358.487 7.86789 354.412 4.90481 351.542 4.90481V4.90063Z" fill="#121A3D"/>
<path d="M383.182 78.6424C385.058 68.3058 379.248 58.5978 370.205 56.9589C361.161 55.3201 352.309 62.3711 350.433 72.7077C348.556 83.0444 354.366 92.7523 363.41 94.3912C372.453 96.03 381.306 88.979 383.182 78.6424Z" fill="white"/>
<path d="M366.062 95.5595C365.128 95.5595 364.186 95.4758 363.252 95.3042C358.61 94.463 354.631 91.6171 352.038 87.2896C349.471 83.0041 348.583 77.7684 349.529 72.5496C351.494 61.731 360.847 54.3317 370.377 56.0601C375.018 56.9013 378.997 59.7472 381.59 64.0747C384.158 68.3603 385.046 73.5959 384.099 78.8147C383.152 84.0336 380.476 88.6205 376.568 91.7343C373.418 94.2412 369.769 95.5553 366.062 95.5553V95.5595ZM367.595 57.6547C359.963 57.6547 352.96 64.0077 351.347 72.8802C350.48 77.6596 351.288 82.4432 353.626 86.3438C355.938 90.2067 359.473 92.7471 363.582 93.4878C367.687 94.2328 371.893 93.0986 375.416 90.2904C378.976 87.457 381.414 83.2635 382.281 78.4841C383.148 73.7047 382.34 68.9211 380.002 65.0205C377.69 61.1576 374.155 58.6172 370.046 57.8723C369.225 57.7258 368.404 57.6505 367.591 57.6505L367.595 57.6547Z" fill="#121A3D"/>
<path d="M378.562 77.8062C379.909 70.3853 375.737 63.4153 369.242 62.2385C362.748 61.0617 356.392 66.1236 355.045 73.5446C353.698 80.9656 357.87 87.9355 364.364 89.1123C370.858 90.2891 377.215 85.2272 378.562 77.8062Z" fill="#121A3D"/>
<path d="M348.365 94.4712H328.996C328.485 94.4712 328.074 94.0569 328.074 93.5505C328.074 93.0441 328.489 92.6298 328.996 92.6298H347.988L366.167 75.0229C366.531 74.6671 367.118 74.6755 367.474 75.0438C367.83 75.4079 367.821 75.9938 367.453 76.3496L349.005 94.2159C348.834 94.3833 348.603 94.4754 348.365 94.4754V94.4712Z" fill="#121A3D"/>
<path d="M369.654 78.5177C371.223 76.9503 371.223 74.4091 369.654 72.8417C368.085 71.2743 365.542 71.2743 363.973 72.8417C362.405 74.4091 362.405 76.9503 363.973 78.5177C365.542 80.0851 368.085 80.0851 369.654 78.5177Z" fill="white"/>
<path d="M366.814 80.6186C364.091 80.6186 361.875 78.4046 361.875 75.6843C361.875 72.9639 364.091 70.75 366.814 70.75C369.536 70.75 371.752 72.9639 371.752 75.6843C371.752 78.4046 369.536 80.6186 366.814 80.6186ZM366.814 72.5915C365.109 72.5915 363.722 73.9767 363.722 75.6801C363.722 77.3834 365.109 78.7729 366.814 78.7729C368.518 78.7729 369.909 77.3876 369.909 75.6801C369.909 73.9726 368.523 72.5915 366.814 72.5915Z" fill="#121A3D"/>
<path d="M332.113 95.9065C333.417 94.6038 333.417 92.4919 332.113 91.1893C330.809 89.8866 328.696 89.8867 327.392 91.1893C326.088 92.4919 326.088 94.6038 327.392 95.9064C328.696 97.2091 330.809 97.2091 332.113 95.9065Z" fill="#121A3D"/>
<path d="M599.981 371.297C599.294 325.968 577.031 290.951 556.707 248.547C538.218 209.969 503.079 181.966 461.292 172.666C416.074 162.601 332.848 162.371 268.488 164.108C218.219 165.464 174.769 199.907 162.425 248.614C155.97 274.089 148.405 297.723 141.125 305.75C84.3091 368.393 162.94 336.272 162.94 336.272L215.165 353.611L324.684 355.005C324.684 355.005 417.821 400.786 475.58 437.649C533.338 474.515 601.213 452.736 599.977 371.297H599.981Z" fill="#1E2B62"/>
<path d="M205.936 340.972C205.936 340.972 247.216 275.734 270.861 267.071C299.098 256.729 396.725 294.513 396.725 294.513C396.725 294.513 395.418 329.747 354.427 374.336C354.427 374.336 204.541 356.285 205.931 340.972H205.936Z" fill="#D08F79"/>
<path d="M233.797 347.63C233.663 347.63 233.533 347.601 233.404 347.542C232.943 347.324 232.746 346.776 232.964 346.316C240.424 330.496 251.482 316.225 264.936 305.038C265.326 304.711 265.908 304.766 266.235 305.155C266.562 305.548 266.507 306.13 266.118 306.452C252.869 317.468 241.982 331.521 234.635 347.098C234.476 347.433 234.145 347.626 233.802 347.626L233.797 347.63Z" fill="#121A3D"/>
<path d="M265.296 355.427C265.183 355.427 265.066 355.406 264.952 355.36C264.479 355.168 264.253 354.632 264.441 354.159C269.899 340.641 278.118 327.931 288.204 317.401C288.556 317.033 289.142 317.02 289.511 317.372C289.88 317.723 289.892 318.309 289.54 318.677C279.613 329.04 271.529 341.549 266.159 354.85C266.012 355.21 265.669 355.427 265.304 355.427H265.296Z" fill="#121A3D"/>
<path d="M341.762 150.983L347.982 137.678L392.316 134.473L400.455 163.283L348.807 190.796L342.097 168.029L319.214 191.273L309.496 162.873L319.528 137.678H336.576L341.762 150.983Z" fill="white"/>
<path d="M400.457 164.204C400.055 164.204 399.682 163.94 399.569 163.53L391.636 135.444L348.592 138.558L342.598 151.373C342.443 151.707 342.104 151.929 341.731 151.904C341.362 151.891 341.036 151.661 340.902 151.318L335.946 138.599H320.155L310.353 163.212C310.165 163.685 309.629 163.915 309.155 163.727C308.682 163.539 308.452 163.003 308.64 162.53L318.672 137.336C318.81 136.984 319.15 136.754 319.531 136.754H336.579C336.96 136.754 337.299 136.988 337.438 137.34L341.84 148.635L347.147 137.285C347.29 136.984 347.583 136.779 347.918 136.754L392.252 133.548C392.691 133.519 393.089 133.795 393.207 134.218L401.345 163.028C401.484 163.518 401.199 164.028 400.709 164.167C400.625 164.192 400.541 164.2 400.457 164.2V164.204Z" fill="#121A3D"/>
<path d="M54.7209 378.148H355.029V369.109C355.029 361.161 348.578 354.716 340.624 354.716H33.6055L36.0684 363.865C38.3387 372.289 45.9832 378.144 54.7167 378.144L54.7209 378.148Z" fill="#121A3D"/>
<path d="M46.1549 367.543H227.335C235.072 367.543 240.756 360.286 238.896 352.782L204.653 214.764C203.338 209.457 198.567 205.729 193.092 205.729H11.9119C4.17534 205.729 -1.50879 212.986 0.351013 220.49L34.594 358.507C35.9093 363.814 40.6802 367.543 46.1549 367.543Z" fill="#121A3D"/>
<path d="M101.676 258.985C101.676 262.287 104.352 264.962 107.657 264.962C110.962 264.962 113.639 262.287 113.639 258.985C113.639 255.683 110.962 253.009 107.657 253.009C104.352 253.009 101.676 255.683 101.676 258.985Z" fill="white"/>
<path d="M514.417 318.962C514.346 318.962 514.275 318.954 514.2 318.937L405.372 292.759C404.878 292.638 404.572 292.144 404.689 291.646C404.811 291.152 405.309 290.842 405.803 290.964L514.631 317.142C515.125 317.263 515.431 317.761 515.314 318.255C515.213 318.678 514.832 318.962 514.417 318.962Z" fill="#121A3D"/>
<path d="M482.846 310.064C482.502 310.064 482.176 309.872 482.012 309.545L463.737 271.783C463.515 271.322 463.707 270.774 464.164 270.552C464.625 270.33 465.174 270.523 465.396 270.979L483.671 308.742C483.893 309.202 483.7 309.75 483.244 309.972C483.114 310.035 482.976 310.064 482.842 310.064H482.846Z" fill="#121A3D"/>
</g>
<defs>
<clipPath id="clip0_3214_5541">
<rect width="600" height="455" fill="white"/>
</clipPath>
</defs>
</svg>
