<svg width="319" height="251" viewBox="0 0 319 251" fill="none" xmlns="http://www.w3.org/2000/svg">
<g clip-path="url(#clip0_3214_422)">
<path d="M311.258 172.714L122.635 146.409C117.898 145.802 114.349 141.761 114.349 136.974L111.762 5.04242C111.762 5.04242 116.062 1.93435 118.498 0.743101C119.738 0.136648 121.166 -0.127592 122.652 0.0608416L310.716 24.111C315.453 24.7175 319.001 28.7591 319.001 33.5457V163.127C319.001 165.445 317.945 167.489 316.31 168.837C314.805 170.078 311.26 172.714 311.26 172.714H311.258Z" fill="#1E2B62"/>
<path d="M305.504 174.465L117.44 150.415C112.703 149.809 109.154 145.767 109.154 140.981V11.3989C109.154 6.94579 113.053 3.50417 117.457 4.06731L305.521 28.1175C310.257 28.724 313.806 32.7655 313.806 37.5522V167.134C313.806 171.587 309.908 175.029 305.504 174.465Z" fill="#1E2B62"/>
<path d="M313.805 73.5907C313.41 73.5907 313.092 73.2702 313.092 72.876V37.5544C313.092 33.1381 309.798 29.389 305.431 28.8302L272.885 24.6673C272.494 24.6175 272.218 24.2579 272.267 23.8659C272.317 23.4739 272.674 23.1945 273.067 23.2465L305.612 27.4093C310.69 28.0591 314.52 32.4191 314.52 37.5544V72.876C314.52 73.2723 314.2 73.5907 313.807 73.5907H313.805Z" fill="#505F9E"/>
<path d="M109.156 40.7771C108.761 40.7771 108.443 40.4565 108.443 40.0623V11.3988C108.443 9.07043 109.443 6.85255 111.184 5.31476C112.927 3.77697 115.245 3.06005 117.55 3.35678L265.195 22.237C265.586 22.2868 265.862 22.6463 265.813 23.0383C265.763 23.4304 265.404 23.7076 265.013 23.6578L117.368 4.77761C115.474 4.53503 113.562 5.12199 112.126 6.38904C110.692 7.6561 109.869 9.48195 109.869 11.3988V40.0602C109.869 40.4565 109.549 40.7749 109.156 40.7749V40.7771Z" fill="#505F9E"/>
<path d="M301.505 169.124L121.934 146.159C118.489 145.719 115.91 142.78 115.91 139.298V14.3054C115.91 11.3316 118.513 9.03358 121.455 9.40828L301.026 32.3733C304.471 32.813 307.05 35.7522 307.05 39.8154V164.81C307.05 167.203 304.447 169.501 301.505 169.124Z" fill="white"/>
<path d="M195.788 250.781L2.37159 225.767C0.85749 225.572 0.00432335 224.301 0.0237626 223.032C0.0367221 222.154 0.107999 215.982 0.107999 215.982L102.376 157.355C107.499 154.42 114.13 153.287 119.981 154.039L310.954 178.743C312.103 178.893 313.09 179.64 313.544 180.708L313.851 181.429C313.851 181.429 313.687 186.577 313.754 187.779C313.805 188.719 313.384 189.69 312.401 190.253L212.7 247.415C207.576 250.35 201.639 251.531 195.785 250.779L195.788 250.781Z" fill="#1E2B62"/>
<path d="M195.788 243.909L3.06302 218.944C0.505685 218.615 -0.168209 215.213 2.07162 213.93L101.238 157.136C106.361 154.201 112.299 153.021 118.152 153.772L310.875 178.737C313.432 179.066 314.106 182.468 311.866 183.751L212.7 240.545C207.577 243.48 201.639 244.66 195.786 243.909H195.788Z" fill="white"/>
<path d="M199.191 244.842C198.024 244.842 196.856 244.768 195.694 244.619L2.97107 219.655C1.49585 219.466 0.357573 218.398 0.0681441 216.934C-0.221285 215.472 0.42669 214.049 1.71832 213.309L100.884 156.514C106.111 153.521 112.276 152.295 118.244 153.062L310.968 178.026C312.444 178.217 313.582 179.282 313.871 180.746C314.161 182.208 313.513 183.631 312.221 184.372L213.055 241.166C208.846 243.577 204.027 244.842 199.191 244.842ZM195.877 243.2C201.539 243.928 207.39 242.765 212.347 239.925L311.513 183.131C312.422 182.611 312.604 181.704 312.47 181.028C312.336 180.352 311.824 179.583 310.785 179.449L118.06 154.485C112.399 153.759 106.548 154.92 101.591 157.76L2.42461 214.552C1.51529 215.072 1.33385 215.979 1.46777 216.655C1.60168 217.331 2.11358 218.1 3.1525 218.234L195.877 243.2Z" fill="#505F9E"/>
<path d="M233.519 212.384L66.4025 190.578C64.0914 190.281 63.4845 187.208 65.5062 186.049L104.799 163.773C109.428 161.122 114.791 160.056 120.076 160.734L287.193 182.54C289.504 182.837 290.111 185.91 288.09 187.069L248.797 209.346C244.168 211.997 238.805 213.062 233.519 212.384Z" fill="#1E2B62"/>
<path d="M295.932 69.5232C295.904 69.5232 295.876 69.5232 295.848 69.5188L124.083 49.1269C123.692 49.0792 123.411 48.724 123.458 48.332C123.504 47.9399 123.86 47.6605 124.251 47.706L296.016 68.098C296.407 68.1457 296.688 68.5009 296.64 68.8929C296.597 69.2568 296.288 69.5253 295.932 69.5253V69.5232Z" fill="#1E2B62"/>
<path d="M153.219 140.006C152.823 140.006 152.506 139.686 152.506 139.291V23.955C152.506 23.5586 152.826 23.2402 153.219 23.2402C153.612 23.2402 153.931 23.5608 153.931 23.955V139.289C153.931 139.686 153.612 140.004 153.219 140.004V140.006Z" fill="#1E2B62"/>
<path d="M192.801 147.65C192.405 147.65 192.088 147.329 192.088 146.935V31.6005C192.088 31.2041 192.408 30.8857 192.801 30.8857C193.194 30.8857 193.513 31.2063 193.513 31.6005V146.935C193.513 147.331 193.194 147.65 192.801 147.65Z" fill="#1E2B62"/>
<path d="M230.83 147.65C230.435 147.65 230.117 147.329 230.117 146.935V31.6005C230.117 31.2041 230.437 30.8857 230.83 30.8857C231.223 30.8857 231.543 31.2063 231.543 31.6005V146.935C231.543 147.331 231.223 147.65 230.83 147.65Z" fill="#1E2B62"/>
<path d="M270.412 155.293C270.017 155.293 269.699 154.973 269.699 154.578V39.244C269.699 38.8477 270.019 38.5293 270.412 38.5293C270.805 38.5293 271.125 38.8499 271.125 39.244V154.578C271.125 154.975 270.805 155.293 270.412 155.293Z" fill="#1E2B62"/>
<path d="M148.968 81.8344L122.865 78.4967C122.364 78.4318 121.99 78.0051 121.99 77.5004V59.3307C121.99 58.8975 122.368 58.5639 122.796 58.6181L148.898 61.9557C149.4 62.0207 149.773 62.4474 149.773 63.0365V81.2063C149.773 81.555 149.395 81.8885 148.968 81.8344Z" fill="#F0F9FD"/>
<path d="M186.616 108.518L160.513 105.18C160.012 105.115 159.639 104.689 159.639 104.184V86.0143C159.639 85.5811 160.017 85.2475 160.444 85.3017L186.547 88.6393C187.048 88.7043 187.422 89.131 187.422 89.7201V107.89C187.422 108.239 187.044 108.572 186.616 108.518Z" fill="#FFE02E"/>
<path d="M224.567 89.2611L198.465 85.9235C197.964 85.8585 197.59 85.4318 197.59 84.9272V66.7574C197.59 66.3242 197.968 65.9907 198.396 66.0448L224.498 69.3825C224.999 69.4475 225.373 69.8742 225.373 70.4633V88.633C225.373 88.9817 224.995 89.3153 224.567 89.2611Z" fill="#FFE02E"/>
<path d="M224.567 115.098L198.465 111.76C197.964 111.695 197.59 111.269 197.59 110.764V92.5943C197.59 92.1612 197.968 91.8276 198.396 91.8818L224.498 95.2194C224.999 95.2844 225.373 95.7111 225.373 96.3002V114.47C225.373 114.819 224.995 115.152 224.567 115.098Z" fill="#F0F9FD"/>
<path d="M264.298 96.5082L238.195 93.1706C237.694 93.1056 237.32 92.6789 237.32 92.1742V74.0045C237.32 73.5713 237.698 73.2378 238.126 73.2919L264.229 76.6296C264.73 76.6945 265.103 77.1212 265.103 77.7103V95.8801C265.103 96.2288 264.725 96.5624 264.298 96.5082Z" fill="#F0F9FD"/>
<path d="M147.968 40.3505L123.859 37.2684C123.396 37.2099 123.051 36.8157 123.051 36.3479V29.9801C123.051 29.5816 123.401 29.2719 123.796 29.3217L147.905 32.4038C148.367 32.4622 148.713 32.8564 148.713 33.4022V39.77C148.713 40.0905 148.363 40.4003 147.968 40.3483V40.3505Z" fill="#FFE02E"/>
<path d="M185.616 45.5751L161.507 42.493C161.045 42.4345 160.699 42.0403 160.699 41.5725V35.2047C160.699 34.8062 161.049 34.4965 161.444 34.5463L185.553 37.6284C186.016 37.6868 186.361 38.081 186.361 38.6268V44.9946C186.361 45.3152 186.011 45.6249 185.616 45.5729V45.5751Z" fill="#00A5F3"/>
<path d="M224.093 49.9171L199.984 46.835C199.521 46.7765 199.176 46.3823 199.176 45.9145V39.5467C199.176 39.1482 199.526 38.8385 199.921 38.8905L224.03 41.9726C224.492 42.031 224.838 42.4252 224.838 42.971V49.3388C224.838 49.6593 224.488 49.9691 224.093 49.9171Z" fill="#00A5F3"/>
<path d="M261.741 55.1415L237.632 52.0594C237.17 52.0009 236.824 51.6067 236.824 51.1389V44.7711C236.824 44.3726 237.174 44.0629 237.569 44.1127L261.678 47.1948C262.141 47.2533 262.486 47.6474 262.486 48.1933V54.561C262.486 54.8816 262.136 55.1913 261.741 55.1393V55.1415Z" fill="#00A5F3"/>
<path d="M300.313 61.5135L276.204 58.4315C275.742 58.373 275.396 57.9788 275.396 57.511V51.1432C275.396 50.7447 275.746 50.4349 276.142 50.4848L300.251 53.5668C300.713 53.6253 301.058 54.0195 301.058 54.5653V60.9331C301.058 61.2536 300.709 61.5634 300.313 61.5114V61.5135Z" fill="#00A5F3"/>
<path d="M222.136 133.524L198.027 130.441C197.564 130.383 197.219 129.989 197.219 129.521V123.153C197.219 122.755 197.569 122.445 197.964 122.497L222.073 125.579C222.535 125.637 222.881 126.032 222.881 126.577V132.945C222.881 133.266 222.531 133.576 222.136 133.524Z" fill="#00A5F3"/>
<path d="M300.313 105.849L276.204 102.767C275.742 102.709 275.396 102.315 275.396 101.847V95.4791C275.396 95.0806 275.746 94.7709 276.142 94.8207L300.251 97.9028C300.713 97.9613 301.058 98.3555 301.058 98.9013V105.269C301.058 105.59 300.709 105.899 300.313 105.847V105.849Z" fill="#00A5F3"/>
<path d="M145.005 103.484L120.896 100.402C120.433 100.344 120.088 99.9495 120.088 99.4817V93.1139C120.088 92.7154 120.438 92.4056 120.833 92.4555L144.942 95.5375C145.404 95.596 145.75 95.9902 145.75 96.536V102.904C145.75 103.224 145.4 103.534 145.005 103.482V103.484Z" fill="#00A5F3"/>
<path d="M163.06 61.2498C163.06 60.0434 162.084 59.0645 160.881 59.0645C159.677 59.0645 158.701 60.0434 158.701 61.2498C158.701 62.4563 159.677 63.4352 160.881 63.4352C162.084 63.4352 163.06 62.4563 163.06 61.2498Z" fill="#00A5F3"/>
<path d="M188.357 64.6653C188.329 64.6653 188.301 64.6653 188.273 64.6609L165.538 61.9622C165.147 61.9146 164.866 61.5594 164.913 61.1673C164.959 60.7753 165.317 60.4937 165.706 60.5414L188.441 63.2401C188.832 63.2878 189.113 63.643 189.066 64.035C189.022 64.3989 188.714 64.6674 188.357 64.6674V64.6653Z" fill="#00A5F3"/>
<path d="M162.422 70.0961C163.273 69.2426 163.273 67.8589 162.422 67.0055C161.571 66.152 160.191 66.152 159.34 67.0055C158.489 67.8589 158.489 69.2426 159.34 70.0961C160.191 70.9495 161.571 70.9495 162.422 70.0961Z" fill="#00A5F3"/>
<path d="M188.357 71.9647C188.329 71.9647 188.301 71.9647 188.273 71.9603L165.538 69.2616C165.147 69.214 164.866 68.8588 164.913 68.4667C164.959 68.0747 165.317 67.7953 165.706 67.8408L188.441 70.5395C188.832 70.5872 189.113 70.9424 189.066 71.3344C189.022 71.6983 188.714 71.9668 188.357 71.9668V71.9647Z" fill="#00A5F3"/>
<path d="M161.376 79.0306C162.548 78.7546 163.275 77.5783 162.999 76.4033C162.724 75.2283 161.551 74.4996 160.379 74.7756C159.208 75.0516 158.481 76.2279 158.756 77.4029C159.031 78.5778 160.204 79.3066 161.376 79.0306Z" fill="#00A5F3"/>
<path d="M188.357 80.3055C188.329 80.3055 188.301 80.3055 188.273 80.3012L165.538 77.6024C165.147 77.5548 164.866 77.1996 164.913 76.8076C164.959 76.4155 165.313 76.1361 165.706 76.1816L188.441 78.8803C188.832 78.928 189.113 79.2832 189.066 79.6752C189.022 80.0391 188.714 80.3077 188.357 80.3077V80.3055Z" fill="#00A5F3"/>
<path d="M237.423 111.689C238.605 111.46 239.377 110.313 239.149 109.128C238.92 107.943 237.776 107.169 236.595 107.398C235.413 107.627 234.641 108.774 234.869 109.959C235.098 111.144 236.242 111.919 237.423 111.689Z" fill="#00A5F3"/>
<path d="M264.484 112.972C264.456 112.972 264.428 112.972 264.4 112.967L241.665 110.268C241.274 110.221 240.993 109.866 241.04 109.474C241.086 109.082 241.44 108.802 241.833 108.848L264.568 111.546C264.959 111.594 265.24 111.949 265.193 112.341C265.149 112.705 264.841 112.974 264.484 112.974V112.972Z" fill="#00A5F3"/>
<path d="M237.355 120.047C238.544 119.854 239.351 118.732 239.159 117.54C238.966 116.349 237.847 115.539 236.659 115.732C235.471 115.925 234.664 117.047 234.856 118.238C235.048 119.43 236.167 120.239 237.355 120.047Z" fill="#00A5F3"/>
<path d="M264.484 121.31C264.456 121.31 264.428 121.31 264.4 121.306L241.665 118.607C241.274 118.56 240.993 118.204 241.04 117.812C241.086 117.42 241.44 117.141 241.833 117.186L264.568 119.885C264.959 119.933 265.24 120.288 265.193 120.68C265.149 121.044 264.841 121.313 264.484 121.313V121.31Z" fill="#00A5F3"/>
</g>
<defs>
<clipPath id="clip0_3214_422">
<rect width="319" height="251" fill="white"/>
</clipPath>
</defs>
</svg>
