<svg width="511" height="458" viewBox="0 0 511 458" fill="none" xmlns="http://www.w3.org/2000/svg">
<path d="M324.921 282.247L220.562 282.903C219.887 282.903 219.664 283.531 219.664 284.134V372.921C219.664 381.421 160.369 403.507 159.791 402.385L159.719 411.781C159.713 413.531 161.254 415.083 163.213 415.083H252.042C256.102 415.083 260.112 414.173 263.788 412.635L311.894 392.378C320.554 388.73 326.018 380.899 326.018 372.357V283.478C326.018 282.875 325.594 282.247 324.919 282.247H324.921Z" fill="white"/>
<path d="M209.097 277.732V366.538C209.097 375.293 203.463 383.269 194.61 387.047L162.157 400.9C160.036 401.805 160.759 404.646 163.109 404.646H252.275C256.285 404.646 260.245 403.853 263.871 402.327L299.826 387.187C308.746 383.433 314.436 375.424 314.436 366.625V277.729C314.436 277.366 314.107 277.07 313.699 277.07H209.834C209.426 277.07 209.097 277.366 209.097 277.729V277.732Z" fill="#1E2B62"/>
<path d="M14.7031 328.054L443.808 328.989L451.259 329.005L465.113 329.036C469.05 329.036 472.285 325.961 472.784 322.048L508.662 41.6608C509.535 34.8403 504.562 28.3965 497.697 28.3965L53.1147 28.8011L14.7031 328.056V328.054Z" fill="#00A5F3"/>
<path d="M481.018 28.3296C488.757 28.3296 495.05 36.1241 494.059 43.8181L457.922 322.059C457.42 325.972 454.096 328.902 450.161 328.902L446.773 329.03L8.74876 328.902C4.02964 328.902 0.382155 324.744 0.987743 320.053L37.8533 36.152C38.3556 32.2394 41.364 28.3324 45.2989 28.3324H481.015L481.018 28.3296Z" fill="#98E0FF"/>
<path d="M461.243 42.6099C468.324 42.6099 474.081 49.5699 473.174 56.4435L440.115 304.958C439.654 308.452 436.615 311.069 433.015 311.069L429.918 311.184L29.183 311.069C24.8658 311.069 21.5309 307.355 22.0834 303.166L55.8094 49.595C56.2698 46.1011 59.0215 42.6126 62.6215 42.6126H461.246L461.243 42.6099Z" fill="white"/>
<path d="M480.699 149.866C480.66 149.866 480.621 149.866 480.582 149.858C480.077 149.793 479.72 149.333 479.784 148.825L493.143 43.6983C493.584 40.2853 492.532 36.8471 490.263 34.2685C488.002 31.701 484.748 30.2275 481.333 30.2275L462.886 30.5791C462.378 30.5735 461.957 30.1828 461.945 29.6749C461.937 29.167 462.342 28.7456 462.85 28.7344L481.313 28.3828C485.276 28.3828 489.035 30.0852 491.647 33.0517C494.268 36.0294 495.479 39.9978 494.971 43.9355L481.614 149.059C481.556 149.526 481.157 149.866 480.702 149.866H480.699Z" fill="#1E2B62"/>
<path d="M413.679 330.027L74.8819 329.706C74.3712 329.706 73.9582 329.293 73.961 328.782C73.961 328.274 74.374 327.861 74.8819 327.861L413.679 328.182C414.19 328.182 414.6 328.595 414.6 329.106C414.6 329.614 414.187 330.027 413.679 330.027Z" fill="#1E2B62"/>
<path d="M5.45947 329.1C5.3283 329.1 5.19714 329.072 5.07156 329.014C1.59152 327.395 -0.417802 323.745 0.073366 319.933L36.9389 36.0293C37.4998 31.6702 41.231 28.3827 45.6152 28.3827L256.262 26.8896H256.268C256.773 26.8896 257.186 27.2999 257.189 27.805C257.191 28.3129 256.781 28.7315 256.273 28.7343L45.618 30.2273C42.152 30.2273 39.2077 32.8227 38.764 36.2637L1.8985 320.167C1.51059 323.178 3.09572 326.061 5.84459 327.339C6.30506 327.554 6.50599 328.101 6.29111 328.564C6.13483 328.899 5.80273 329.098 5.45389 329.098L5.45947 329.1Z" fill="#1E2B62"/>
<path d="M156.792 64.5897H112.012C111.027 64.5897 110.318 63.8139 110.427 62.8538L110.6 61.3245C110.854 59.0696 109.182 57.2417 106.866 57.2417H90.9254C88.6091 57.2417 86.5244 59.0696 86.2705 61.3245L84.4677 77.2512C84.4677 77.2512 84.4677 77.2707 84.4649 77.2819L80.3095 114C79.9523 117.156 82.2909 119.715 85.5365 119.715H150.558C153.801 119.715 156.72 117.156 157.077 114L162.019 70.3079C162.376 67.1516 160.038 64.5925 156.792 64.5925V64.5897Z" fill="#98E0FF"/>
<path d="M146.706 153.717H101.926C100.941 153.717 100.232 152.941 100.341 151.981L100.514 150.452C100.768 148.197 99.0964 146.369 96.7801 146.369H80.8395C78.5232 146.369 76.4385 148.197 76.1845 150.452L74.3817 166.379C74.3817 166.379 74.3817 166.398 74.3789 166.409L70.2235 203.127C69.8663 206.283 72.2049 208.842 75.4506 208.842H140.472C143.715 208.842 146.634 206.283 146.991 203.127L151.933 159.435C152.29 156.279 149.952 153.72 146.706 153.72V153.717Z" fill="#00A5F3"/>
<path d="M140.472 209.766H75.4505C73.5919 209.766 71.9286 209.046 70.7621 207.743C69.6235 206.47 69.1072 204.793 69.3081 203.024L75.2691 150.346C75.5733 147.644 78.0738 145.445 80.8422 145.445H96.7828C98.1866 145.445 99.4452 145.99 100.33 146.98C101.192 147.946 101.586 149.216 101.432 150.558L101.259 152.087C101.237 152.283 101.287 152.453 101.401 152.584C101.524 152.721 101.711 152.796 101.929 152.796H146.709C148.568 152.796 150.234 153.516 151.397 154.822C152.536 156.095 153.052 157.769 152.851 159.541L147.909 203.233C147.502 206.836 144.167 209.769 140.472 209.769V209.766ZM80.8422 147.29C78.9836 147.29 77.3063 148.755 77.1026 150.552L71.1416 203.23C71.0021 204.472 71.3565 205.636 72.1379 206.512C72.95 207.419 74.1249 207.921 75.4505 207.921H140.472C143.257 207.921 145.768 205.725 146.075 203.024L151.018 159.332C151.157 158.093 150.803 156.926 150.022 156.05C149.209 155.14 148.035 154.641 146.709 154.641H101.929C101.189 154.641 100.497 154.339 100.026 153.812C99.5568 153.287 99.3447 152.601 99.4256 151.881L99.5987 150.351C99.6908 149.539 99.4619 148.78 98.9512 148.211C98.421 147.619 97.6507 147.293 96.78 147.293H80.8394L80.8422 147.29Z" fill="#1E2B62"/>
<path d="M136.566 243.361H91.7856C90.8004 243.361 90.0916 242.585 90.2004 241.625L90.3735 240.096C90.6274 237.841 88.9558 236.013 86.6395 236.013H70.6988C68.3825 236.013 66.2979 237.841 66.0439 240.096L64.2411 256.022C64.2411 256.022 64.2411 256.042 64.2383 256.053L60.0829 292.771C59.7257 295.927 62.0643 298.486 65.3099 298.486H130.331C133.574 298.486 136.493 295.927 136.85 292.771L141.793 249.079C142.15 245.923 139.811 243.363 136.566 243.363V243.361Z" fill="#98E0FF"/>
<path d="M250.675 64.8407H205.895C204.91 64.8407 204.201 64.0649 204.31 63.1048L204.483 61.5755C204.737 59.3206 203.065 57.4927 200.749 57.4927H184.808C182.492 57.4927 180.407 59.3206 180.153 61.5755L178.35 77.5022C178.35 77.5022 178.35 77.5217 178.348 77.5329L174.192 114.25C173.835 117.407 176.174 119.966 179.419 119.966H244.44C247.683 119.966 250.602 117.407 250.96 114.25L255.902 70.5589C256.259 67.4026 253.921 64.8435 250.675 64.8435V64.8407Z" fill="#98E0FF"/>
<path d="M240.597 153.971H195.817C194.832 153.971 194.123 153.195 194.232 152.235L194.405 150.706C194.659 148.451 192.987 146.623 190.671 146.623H174.73C172.414 146.623 170.329 148.451 170.075 150.706L168.272 166.633C168.272 166.633 168.272 166.652 168.27 166.663L164.114 203.381C163.757 206.537 166.096 209.096 169.341 209.096H234.362C237.605 209.096 240.524 206.537 240.881 203.381L245.824 159.689C246.181 156.533 243.842 153.974 240.597 153.974V153.971Z" fill="#98E0FF"/>
<path d="M230.511 243.107H185.731C184.746 243.107 184.037 242.331 184.146 241.371L184.319 239.842C184.573 237.587 182.901 235.759 180.585 235.759H164.644C162.328 235.759 160.243 237.587 159.989 239.842L158.186 255.768C158.186 255.768 158.186 255.788 158.184 255.799L154.028 292.517C153.671 295.673 156.01 298.232 159.255 298.232H224.276C227.519 298.232 230.438 295.673 230.796 292.517L235.738 248.825C236.095 245.669 233.757 243.11 230.511 243.11V243.107Z" fill="#98E0FF"/>
<path d="M343.558 64.8407H298.778C297.793 64.8407 297.084 64.0649 297.193 63.1048L297.366 61.5755C297.62 59.3206 295.948 57.4927 293.632 57.4927H277.691C275.375 57.4927 273.29 59.3206 273.036 61.5755L271.233 77.5022C271.233 77.5022 271.233 77.5217 271.23 77.5329L267.075 114.25C266.718 117.407 269.057 119.966 272.302 119.966H337.323C340.566 119.966 343.485 117.407 343.842 114.25L348.785 70.5589C349.142 67.4026 346.803 64.8435 343.558 64.8435V64.8407Z" fill="#00A5F3"/>
<path d="M333.472 153.968H288.692C287.707 153.968 286.998 153.192 287.107 152.232L287.28 150.703C287.534 148.448 285.862 146.62 283.546 146.62H267.605C265.289 146.62 263.204 148.448 262.95 150.703L261.147 166.63C261.147 166.63 261.147 166.649 261.145 166.66L256.989 203.378C256.632 206.534 258.971 209.093 262.216 209.093H327.237C330.48 209.093 333.399 206.534 333.757 203.378L338.699 159.686C339.056 156.53 336.717 153.971 333.472 153.971V153.968Z" fill="#00A5F3"/>
<path d="M323.386 243.104H278.606C277.621 243.104 276.912 242.328 277.021 241.368L277.194 239.839C277.448 237.584 275.776 235.756 273.46 235.756H257.519C255.203 235.756 253.118 237.584 252.864 239.839L251.061 255.765C251.061 255.765 251.061 255.785 251.059 255.796L246.903 292.514C246.546 295.67 248.885 298.229 252.13 298.229H317.151C320.394 298.229 323.313 295.67 323.671 292.514L328.613 248.822C328.97 245.666 326.632 243.107 323.386 243.107V243.104Z" fill="#98E0FF"/>
<path d="M437.964 65.0946H393.184C392.199 65.0946 391.49 64.3187 391.599 63.3587L391.772 61.8294C392.026 59.5745 390.354 57.7466 388.038 57.7466H372.097C369.781 57.7466 367.696 59.5745 367.442 61.8294L365.64 77.7561C365.64 77.7561 365.64 77.7756 365.637 77.7868L361.481 114.504C361.124 117.661 363.463 120.22 366.708 120.22H431.73C434.972 120.22 437.891 117.661 438.249 114.504L443.191 70.8128C443.548 67.6565 441.21 65.0973 437.964 65.0973V65.0946Z" fill="#00A5F3"/>
<path d="M427.823 154.73H383.043C382.058 154.73 381.349 153.954 381.458 152.994L381.631 151.465C381.885 149.21 380.214 147.382 377.897 147.382H361.957C359.64 147.382 357.556 149.21 357.302 151.465L355.499 167.391C355.499 167.391 355.499 167.411 355.496 167.422L351.341 204.14C350.984 207.296 353.322 209.855 356.568 209.855H421.589C424.832 209.855 427.751 207.296 428.108 204.14L433.05 160.448C433.408 157.292 431.069 154.733 427.823 154.733V154.73Z" fill="#00A5F3"/>
<path d="M417.745 243.866H372.965C371.98 243.866 371.271 243.09 371.38 242.13L371.553 240.6C371.807 238.346 370.135 236.518 367.819 236.518H351.879C349.562 236.518 347.478 238.346 347.224 240.6L345.421 256.527C345.421 256.527 345.421 256.547 345.418 256.558L341.263 293.275C340.905 296.432 343.244 298.991 346.49 298.991H411.511C414.754 298.991 417.673 296.432 418.03 293.275L422.972 249.584C423.329 246.427 420.991 243.868 417.745 243.868V243.866Z" fill="#98E0FF"/>
<path d="M124.237 189.946C129.363 182.893 127.801 173.02 120.748 167.894C113.695 162.768 103.822 164.33 98.6957 171.383C93.5696 178.436 95.1316 188.309 102.185 193.435C109.237 198.561 119.111 196.999 124.237 189.946Z" fill="white"/>
<path d="M118.999 174.734C115.764 180.263 111.79 185.948 110.42 188.278C110.16 188.716 109.538 188.738 109.256 188.314C107.699 185.97 105.031 181.471 103.736 179.266C103.51 178.879 103.923 178.435 104.325 178.63L109.602 181.17C109.764 181.248 109.957 181.223 110.091 181.108L118.312 174.162C118.7 173.833 119.255 174.296 118.999 174.734Z" fill="#00A5F3"/>
<path d="M412.578 272.87H258.435C253.102 272.87 249.273 268.583 249.884 263.298L279.073 10.7397C279.684 5.45124 284.503 1.16748 289.836 1.16748H443.979C449.313 1.16748 453.141 5.45403 452.53 10.7397L423.342 263.298C422.731 268.586 417.911 272.87 412.578 272.87Z" fill="white"/>
<path d="M437.037 36.0461H309.289L310.372 26.6748H438.12L437.037 36.0461Z" fill="#98E0FF"/>
<path d="M401.539 54.4958H307.156L308.239 45.1245H402.621L401.539 54.4958Z" fill="#98E0FF"/>
<path d="M431.272 85.9611H303.523L304.606 76.5898H432.355L431.272 85.9611Z" fill="#98E0FF"/>
<path d="M395.773 104.41H301.391L302.473 95.0391H396.856L395.773 104.41Z" fill="#98E0FF"/>
<path d="M425.501 135.876H297.75L298.836 126.505H426.584L425.501 135.876Z" fill="#00A5F3"/>
<path d="M390 154.325H295.617L296.703 144.954H391.085L390 154.325Z" fill="#00A5F3"/>
<path d="M419.736 185.791H291.984L293.067 176.42H420.818L419.736 185.791Z" fill="#98E0FF"/>
<path d="M384.234 204.24H289.852L290.934 194.869H385.317L384.234 204.24Z" fill="#98E0FF"/>
<path d="M414.905 229.318H287.156L288.239 219.946H415.987L414.905 229.318Z" fill="#98E0FF"/>
<path d="M379.406 247.768H285.023L286.106 238.396H380.489L379.406 247.768Z" fill="#98E0FF"/>
<path d="M300.685 40.5979H286.891L288.47 26.9233H302.265L300.685 40.5979Z" fill="#98E0FF"/>
<path d="M294.302 89.8259H280.508L282.09 76.1514H295.885L294.302 89.8259Z" fill="#98E0FF"/>
<path d="M289.248 139.512H275.453L277.033 125.838H290.827L289.248 139.512Z" fill="#00A5F3"/>
<path d="M283.787 189.765H269.992L271.572 176.091H285.366L283.787 189.765Z" fill="#98E0FF"/>
<path d="M278.38 233.523H264.586L266.168 219.849H279.963L278.38 233.523Z" fill="#98E0FF"/>
<path d="M412.581 273.794H258.438C255.588 273.794 253.032 272.686 251.237 270.674C249.449 268.667 248.645 266.01 248.969 263.192L278.157 10.6365C278.818 4.90711 284.059 0.246582 289.836 0.246582H443.979C446.828 0.246582 449.385 1.3545 451.179 3.36661C452.968 5.37315 453.772 8.02994 453.448 10.8486L442.427 106.208C442.369 106.713 441.908 107.078 441.406 107.017C440.901 106.958 440.538 106.501 440.597 105.996L451.617 10.6365C451.882 8.34808 451.238 6.202 449.806 4.59454C448.369 2.9815 446.301 2.09127 443.985 2.09127H289.842C284.969 2.09127 280.554 6.02061 279.996 10.8486L250.808 263.404C250.543 265.692 251.187 267.838 252.619 269.446C254.056 271.059 256.124 271.949 258.44 271.949H412.583C413.091 271.949 413.504 272.362 413.504 272.87C413.504 273.378 413.091 273.791 412.583 273.791L412.581 273.794Z" fill="#1E2B62"/>
<path d="M486.541 417.809L485.118 431.364L475.953 432.438V416.366L486.541 417.809Z" fill="#FFE9DD"/>
<path d="M475.947 433.362C475.724 433.362 475.503 433.281 475.333 433.13C475.135 432.955 475.023 432.703 475.023 432.441V416.369C475.023 416.101 475.138 415.85 475.339 415.674C475.54 415.499 475.805 415.42 476.07 415.454L486.658 416.897C487.152 416.964 487.504 417.41 487.451 417.907L486.027 431.461C485.983 431.891 485.645 432.232 485.218 432.282L476.053 433.356C476.017 433.362 475.981 433.362 475.944 433.362H475.947ZM476.871 417.421V431.4L484.275 430.532L485.528 418.599L476.874 417.419L476.871 417.421Z" fill="#1E2B62"/>
<path d="M474.507 456.036C478.328 456.575 484.59 457.047 491.944 456.028C494.355 455.693 495.951 453.357 495.371 450.994C493.752 444.413 490.961 431.93 486.175 426.145L484.987 429.282L483.343 426.326C483.117 425.922 482.715 425.648 482.254 425.59L478.657 425.135C477.906 425.04 477.206 425.536 477.05 426.279L476.478 429L475.222 425.425L471.036 451.443C470.743 453.664 472.289 455.718 474.507 456.031V456.036Z" fill="#00A5F3"/>
<path d="M483.173 457.551C479.649 457.551 476.64 457.267 474.38 456.949C471.673 456.569 469.764 454.046 470.121 451.328L474.31 425.285C474.377 424.869 474.717 424.551 475.139 424.512C475.557 424.473 475.951 424.727 476.09 425.126L476.28 425.665C476.688 424.705 477.706 424.085 478.77 424.225L482.367 424.682C483.115 424.777 483.779 425.227 484.145 425.885L484.823 427.105L485.308 425.824C485.425 425.517 485.696 425.293 486.02 425.24C486.346 425.185 486.673 425.31 486.882 425.561C491.479 431.115 494.258 442.532 495.916 449.352L496.265 450.776C496.602 452.151 496.34 453.611 495.545 454.783C494.746 455.961 493.479 456.748 492.067 456.943C488.866 457.387 485.866 457.551 483.171 457.551H483.173ZM475.555 429.164L471.946 451.593C471.723 453.287 472.929 454.881 474.636 455.121C478.51 455.665 484.638 456.106 491.816 455.112C492.712 454.987 493.513 454.49 494.018 453.745C494.529 452.994 494.688 452.096 494.473 451.214L494.124 449.785C492.628 443.634 490.2 433.66 486.436 428.048L485.844 429.611C485.716 429.946 485.406 430.177 485.049 430.202C484.694 430.23 484.351 430.043 484.175 429.731L482.534 426.775C482.453 426.627 482.303 426.527 482.135 426.507L478.538 426.05C478.262 426.011 478.008 426.201 477.949 426.468L477.377 429.192C477.29 429.597 476.947 429.895 476.534 429.923C476.121 429.946 475.742 429.7 475.605 429.309L475.555 429.164Z" fill="#1E2B62"/>
<path d="M485.128 453.19C478.936 453.19 474.024 451.814 473.739 451.733C473.251 451.594 472.966 451.083 473.106 450.595C473.245 450.106 473.756 449.819 474.244 449.961C474.339 449.986 483.652 452.59 492.524 450.567C493.02 450.455 493.514 450.765 493.629 451.262C493.74 451.758 493.431 452.252 492.934 452.367C490.269 452.975 487.595 453.193 485.125 453.193L485.128 453.19Z" fill="#1E2B62"/>
<path d="M487.316 443.11C487.316 443.11 487.296 443.11 487.285 443.11L478.695 442.826C478.188 442.809 477.788 442.382 477.805 441.874C477.822 441.366 478.243 440.97 478.757 440.984L487.347 441.268C487.855 441.285 488.254 441.712 488.237 442.22C488.22 442.72 487.81 443.113 487.316 443.113V443.11Z" fill="#1E2B62"/>
<path d="M443.611 410.593L442.235 430.373H431.206L430.695 410.593H443.611Z" fill="#FFE9DD"/>
<path d="M442.237 431.294H431.208C430.709 431.294 430.298 430.895 430.287 430.396L429.774 410.615C429.768 410.367 429.86 410.127 430.036 409.948C430.209 409.769 430.449 409.669 430.697 409.669H443.613C443.87 409.669 444.112 409.775 444.288 409.962C444.464 410.149 444.551 410.4 444.534 410.654L443.161 430.435C443.127 430.918 442.725 431.294 442.24 431.294H442.237ZM432.11 429.45H441.378L442.622 411.514H431.641L432.107 429.45H432.11Z" fill="#1E2B62"/>
<path d="M445.117 441.539C445.145 443.411 443.867 445.052 442.044 445.476C435.704 446.953 421.421 450.237 417.346 450.843C412.058 451.63 405.561 450.011 402.768 446.917C399.974 443.824 409.024 436.44 413.319 433.753C419.699 429.762 425.83 421.873 428.401 421.518C430.971 421.164 435.768 428.621 435.768 428.621L443.61 425.327C443.61 425.327 444.977 432.048 445.117 441.539Z" fill="#00A5F3"/>
<path d="M414.599 451.965C409.637 451.965 404.513 450.229 402.082 447.539C401.471 446.861 401.22 445.984 401.357 445.002C401.962 440.662 410.047 434.715 412.829 432.974C415.933 431.032 418.961 428.16 421.634 425.623C424.866 422.559 426.766 420.815 428.273 420.605C430.896 420.248 434.555 425.146 436.118 427.473L443.254 424.476C443.508 424.37 443.798 424.381 444.041 424.51C444.286 424.638 444.459 424.87 444.512 425.14C444.568 425.419 445.897 432.053 446.039 441.522C446.072 443.813 444.479 445.853 442.252 446.372C436.182 447.784 421.62 451.139 417.481 451.756C416.541 451.895 415.573 451.962 414.599 451.962V451.965ZM428.608 422.428C428.577 422.428 428.552 422.428 428.524 422.433C427.531 422.57 425.178 424.803 422.901 426.963C420.166 429.558 417.066 432.497 413.806 434.537C409.612 437.16 403.586 442.342 403.182 445.256C403.101 445.836 403.296 446.132 403.45 446.302C405.945 449.065 412.118 450.689 417.208 449.936C421.28 449.328 435.786 445.99 441.831 444.581C443.22 444.257 444.211 442.984 444.191 441.555C444.085 434.467 443.285 428.899 442.902 426.625L436.121 429.474C435.708 429.647 435.23 429.499 434.988 429.123C432.872 425.838 429.85 422.431 428.605 422.431L428.608 422.428Z" fill="#1E2B62"/>
<path d="M414.692 448.323C410.59 448.323 406.973 447.542 404.648 445.446C404.269 445.106 404.241 444.522 404.581 444.143C404.922 443.763 405.505 443.735 405.885 444.076C413.919 451.329 441.614 440.138 441.893 440.024C442.365 439.831 442.904 440.057 443.096 440.529C443.289 441.001 443.063 441.539 442.591 441.732C441.718 442.089 426.282 448.323 414.692 448.323Z" fill="#1E2B62"/>
<path d="M426.914 436.354C426.693 436.354 426.473 436.276 426.297 436.117L420.687 431.057C420.308 430.717 420.28 430.133 420.62 429.754C420.964 429.374 421.544 429.346 421.924 429.687L427.533 434.746C427.913 435.087 427.941 435.67 427.6 436.05C427.419 436.251 427.168 436.354 426.916 436.354H426.914Z" fill="#1E2B62"/>
<path d="M489.668 281.635C489.668 281.635 493.086 343.472 494.872 364.821C496.661 386.168 490.692 420.482 490.692 420.482L473.668 419.586C473.668 419.586 472.502 377.865 471.238 366.278C471.238 366.278 464.046 350.572 461.917 336.562C459.784 322.553 452.526 300.428 452.526 300.428C452.526 300.428 446.629 410.865 446.062 419.542C446.062 419.542 432.714 420.136 427.928 417.125C427.928 417.125 419.447 376.855 420.667 354.948C421.884 333.038 420.547 278.604 420.547 278.604L489.67 281.635H489.668Z" fill="white"/>
<path d="M490.694 421.404C490.677 421.404 490.66 421.404 490.644 421.404L473.62 420.508C473.14 420.483 472.761 420.092 472.747 419.612C472.736 419.196 471.577 378.142 470.336 366.524C469.621 364.928 463.024 349.981 461.003 336.703C459.508 326.874 455.419 312.859 453.175 305.558C452.009 327.356 447.474 412.094 446.983 419.604C446.952 420.073 446.572 420.444 446.104 420.466C445.548 420.494 432.41 421.038 427.436 417.91C427.224 417.776 427.076 417.564 427.026 417.321C426.94 416.916 418.534 376.68 419.745 354.901C420.948 333.278 419.639 279.175 419.625 278.63C419.62 278.374 419.72 278.128 419.902 277.949C420.083 277.771 420.337 277.679 420.588 277.687L489.712 280.718C490.186 280.74 490.565 281.114 490.593 281.589C490.627 282.208 494.032 343.657 495.798 364.747C497.576 385.967 491.665 420.299 491.606 420.642C491.528 421.086 491.143 421.407 490.699 421.407L490.694 421.404ZM474.569 418.711L489.921 419.517C490.797 414.218 495.564 384.078 493.956 364.897C492.299 345.128 489.209 289.977 488.793 282.521L421.489 279.571C421.662 287.056 422.701 334.93 421.584 355.001C420.451 375.385 427.875 412.298 428.745 416.54C432.786 418.753 442.331 418.716 445.191 418.647C445.992 405.463 451.543 301.458 451.601 300.381C451.627 299.938 451.961 299.575 452.402 299.516C452.843 299.458 453.262 299.723 453.399 300.144C453.471 300.367 460.708 322.506 462.826 336.426C464.913 350.148 472.004 365.74 472.074 365.896C472.116 365.986 472.141 366.081 472.152 366.181C473.308 376.752 474.39 412.708 474.563 418.711H474.569Z" fill="#1E2B62"/>
<path d="M479.574 367.199H474.369C473.861 367.199 473.445 366.786 473.445 366.278C473.445 365.77 473.858 365.357 474.369 365.357H479.574C480.082 365.357 480.495 365.77 480.495 366.278C480.495 366.786 480.082 367.199 479.574 367.199Z" fill="#1E2B62"/>
<path d="M437.298 399.318C436.796 399.318 436.386 398.916 436.377 398.413C436.196 388.598 424.838 370.046 424.723 369.862C424.455 369.426 424.592 368.86 425.025 368.592C425.457 368.327 426.026 368.458 426.294 368.893C426.774 369.672 438.032 388.065 438.222 398.38C438.23 398.888 437.826 399.309 437.318 399.32H437.301L437.298 399.318Z" fill="#1E2B62"/>
<path d="M415.159 182.735C413.92 182.638 407.836 195.095 388.801 194.574C369.765 194.052 354.492 172.75 354.492 172.75C354.492 172.75 347.917 161.665 342.927 157.658C337.937 153.65 337.156 153.12 337.156 153.12C337.156 153.12 335.593 155.205 337.156 157.658C338.718 160.111 343.038 164.699 343.038 164.699C343.038 164.699 338.28 167.311 340.426 172.753C342.893 179.01 349.848 178.507 349.848 178.507C349.848 178.507 363.963 240.997 422.292 211.301L415.156 182.738L415.159 182.735Z" fill="#FFE9DD"/>
<path d="M393.361 220.229C387.412 220.229 381.861 219.026 376.729 216.618C357.397 207.542 350.3 183.855 349.123 179.426C347.102 179.345 341.733 178.594 339.562 173.091C337.932 168.96 339.855 165.997 341.63 164.545C340.315 163.111 337.583 160.055 336.369 158.155C334.483 155.199 336.33 152.674 336.408 152.568C336.704 152.174 337.257 152.082 337.661 152.358C337.695 152.381 338.532 152.953 343.494 156.941C348.459 160.931 354.757 171.416 355.251 172.245C355.91 173.146 370.787 193.162 388.815 193.656C403.497 194.035 410.153 186.623 413 183.447C414.038 182.289 414.515 181.753 415.221 181.817C415.617 181.848 415.947 182.127 416.044 182.512L423.18 211.075C423.284 211.491 423.088 211.926 422.703 212.122C412.093 217.522 402.281 220.229 393.359 220.229H393.361ZM349.843 177.584C350.27 177.584 350.649 177.88 350.744 178.304C350.806 178.574 357.085 205.368 377.524 214.954C389.647 220.642 404.346 219.247 421.216 210.81L414.621 184.407C414.54 184.496 414.459 184.588 414.378 184.678C411.362 188.043 404.282 195.93 388.771 195.497C369.498 194.97 354.372 174.173 353.739 173.289C353.722 173.266 353.708 173.244 353.694 173.222C353.63 173.113 347.147 162.232 342.347 158.375C339.735 156.277 338.286 155.141 337.499 154.535C337.318 155.18 337.268 156.126 337.929 157.161C339.428 159.514 343.664 164.021 343.706 164.065C343.901 164.272 343.991 164.559 343.946 164.841C343.901 165.123 343.728 165.369 343.48 165.505C343.318 165.595 339.47 167.816 341.284 172.41C343.466 177.944 349.525 177.595 349.784 177.584C349.806 177.584 349.826 177.584 349.846 177.584H349.843Z" fill="#1E2B62"/>
<path d="M509.503 211.301C509.503 211.301 503.79 174.43 483.608 165.358C463.425 156.285 436.121 157.546 428.591 162.079C421.062 166.608 401.438 187.092 401.438 187.092L418.779 211.301C418.779 211.301 414.816 276.473 417.95 293.678C417.95 293.678 437.243 295.927 445.425 292.707C453.607 289.484 480.51 284.971 493.37 290.879L491.034 208.368L509.506 211.304L509.503 211.301Z" fill="#1E2B62"/>
<path d="M431.546 295.369C424.644 295.369 418.301 294.646 417.846 294.593C417.444 294.545 417.118 294.241 417.045 293.842C414.009 277.168 417.508 217.139 417.84 211.571L400.689 187.627C400.429 187.267 400.465 186.773 400.772 186.452C401.576 185.612 420.57 165.829 428.116 161.285C436.304 156.357 463.985 155.525 483.986 164.514C504.392 173.685 510.177 209.632 510.414 211.158C510.459 211.449 510.361 211.745 510.155 211.954C509.946 212.163 509.65 212.261 509.359 212.211L491.987 209.448L494.292 290.848C494.301 291.166 494.144 291.467 493.879 291.643C493.614 291.819 493.277 291.847 492.986 291.713C480.774 286.101 454.192 290.242 445.764 293.56C442.209 294.961 436.72 295.369 431.546 295.369ZM418.745 292.832C422.23 293.186 438.068 294.607 445.089 291.844C453.04 288.713 478.773 284.27 492.411 289.472L490.115 208.39C490.106 208.117 490.221 207.851 490.427 207.67C490.634 207.489 490.91 207.408 491.181 207.452L508.372 210.184C507.146 203.696 500.65 174.025 483.233 166.197C463.153 157.172 436.092 158.643 429.07 162.865C422.417 166.87 405.821 183.885 402.637 187.175L419.532 210.762C419.654 210.935 419.716 211.144 419.702 211.354C419.663 211.996 415.881 274.954 418.745 292.829V292.832Z" fill="#1E2B62"/>
<path d="M475.639 274.793C475.586 274.793 475.53 274.79 475.477 274.779C443.995 269.214 434.766 247.251 434.677 247.028C434.487 246.556 434.713 246.021 435.184 245.828C435.656 245.636 436.192 245.864 436.384 246.336C436.471 246.548 445.365 267.585 475.795 272.962C476.297 273.052 476.632 273.529 476.543 274.031C476.465 274.478 476.074 274.793 475.636 274.793H475.639Z" fill="#98E0FF"/>
<path d="M420.239 237.073H459.513L447.211 193.203H407.938L420.239 237.073Z" fill="white"/>
<path d="M459.513 237.994H420.239C419.826 237.994 419.463 237.718 419.352 237.322L407.05 193.451C406.972 193.172 407.028 192.874 407.204 192.645C407.377 192.416 407.65 192.279 407.938 192.279H447.212C447.625 192.279 447.987 192.556 448.099 192.952L460.4 236.822C460.479 237.101 460.423 237.4 460.247 237.629C460.074 237.857 459.8 237.994 459.513 237.994ZM420.94 236.15H458.296L446.511 194.124H409.154L420.94 236.15Z" fill="#1E2B62"/>
<path d="M506.038 211.44L486.162 202.555C486.162 202.555 488.961 236.233 448.747 220.68C448.747 220.68 450.229 216.352 450.02 211.298C449.81 206.244 446.785 211.133 446.361 215.244C445.937 219.352 436.496 217.686 430.822 216.065C425.149 214.446 417.7 215.506 430.822 222.743C443.944 229.979 446.819 226.753 446.819 226.753C446.819 226.753 463.574 250.201 484.424 245.219C510.068 239.094 506.035 211.44 506.035 211.44H506.038Z" fill="#FFE9DD"/>
<path d="M478.468 246.849C462.005 246.849 449.319 231.548 446.595 227.993C444.87 228.752 440.494 229.134 430.383 223.555C424.325 220.212 421.967 217.89 422.734 216.026C423.675 213.743 428.606 214.477 431.081 215.183C436.406 216.701 442.716 217.6 444.811 216.179C445.202 215.914 445.403 215.588 445.451 215.152C445.702 212.719 447.209 208.226 449.207 208.226C449.221 208.226 449.235 208.226 449.249 208.226C450.823 208.273 450.918 210.523 450.948 211.262C451.11 215.152 450.315 218.588 449.885 220.128C462.725 224.953 472.286 225.118 478.311 220.619C486.142 214.77 485.257 202.756 485.249 202.633C485.224 202.309 485.369 201.994 485.637 201.804C485.902 201.617 486.248 201.581 486.547 201.715L506.422 210.601C506.71 210.729 506.914 210.997 506.958 211.31C507 211.594 510.809 239.867 484.649 246.118C482.542 246.621 480.48 246.849 478.473 246.849H478.468ZM446.832 225.813C446.851 225.813 446.871 225.813 446.888 225.813C447.167 225.827 447.407 225.989 447.572 226.218C447.736 226.446 464.213 249.099 484.214 244.324C506.894 238.904 505.549 215.761 505.183 212.069L487.133 204.001C487.133 207.64 486.405 216.863 479.419 222.087C472.727 227.094 462.295 226.91 448.414 221.543C447.954 221.365 447.714 220.854 447.876 220.385C447.89 220.343 449.299 216.149 449.101 211.34C449.084 210.908 449.045 210.601 449.003 210.386C448.395 211.201 447.496 213.255 447.281 215.342C447.181 216.322 446.684 217.139 445.841 217.709C442.364 220.064 433.275 217.728 430.57 216.958C427.347 216.04 424.727 216.297 424.431 216.74C424.439 216.74 424.417 218.164 431.268 221.942C443.212 228.531 446.137 226.131 446.165 226.109C446.338 225.913 446.57 225.819 446.829 225.819L446.832 225.813Z" fill="#1E2B62"/>
<path d="M452.984 148.551C454.7 150.123 458.057 152.043 460.683 150.72C462.639 149.735 463.731 147.184 463.664 144.259C464.568 144.335 465.757 144.271 466.605 143.52C467.908 142.367 467.666 140.246 467.615 138.851C467.381 132.418 471.118 131.43 470.202 127.063C469.482 123.63 466.789 121.587 466.284 121.205C463.739 119.274 462.014 119.899 457.739 118.777C450.539 116.891 450.31 113.787 445.569 113.773C445.295 113.773 438.84 113.843 436.649 118.303C434.869 121.931 436.948 126.337 439.1 128.654C441.885 131.654 443.886 130.172 446.682 132.686C451.591 137.101 447.885 143.877 452.986 148.546L452.984 148.551Z" fill="#1E2B62"/>
<path d="M438.619 137.07L438.903 136.825C440.326 135.597 441.811 134.171 442.188 132.329C443.795 124.498 450.97 121.654 451.3 128.846C451.383 130.66 458.011 130.568 457.224 132.471C455.173 137.436 455.128 136.102 458.022 137.93C458.352 137.944 458.676 138.014 458.982 138.159C460.467 138.851 460.992 140.866 460.155 142.657C459.647 143.746 458.754 144.497 457.799 144.767V152.612C457.799 155.553 459.577 158.202 462.301 159.315L464.949 160.398C464.949 160.398 452.595 168.461 440.056 159.608L441.73 158.858C444.677 157.535 446.611 154.649 446.714 151.42L446.728 149.885C445.886 149.961 445.068 149.902 444.314 149.685C440.806 148.663 439.643 144.622 440.24 139.599L438.811 138.831C438.144 138.474 438.044 137.559 438.616 137.065L438.619 137.07Z" fill="#FFE9DD"/>
<path d="M452.728 164.657C448.713 164.657 444.122 163.61 439.528 160.367C439.258 160.177 439.11 159.854 439.143 159.524C439.174 159.195 439.38 158.908 439.685 158.771L441.359 158.02C443.966 156.851 445.707 154.25 445.799 151.395L445.805 150.84C445.191 150.82 444.607 150.731 444.063 150.574C440.48 149.531 438.747 145.738 439.263 140.123L438.381 139.649C437.801 139.336 437.41 138.759 437.34 138.106C437.268 137.45 437.522 136.802 438.021 136.372L438.306 136.127C439.581 135.027 440.968 133.724 441.292 132.145C442.406 126.717 446.028 123.599 448.721 123.797C449.491 123.859 452.008 124.395 452.229 128.751C452.491 129.075 453.887 129.465 454.646 129.678C456.222 130.118 457.584 130.501 458.061 131.483C458.265 131.902 458.274 132.365 458.087 132.82C457.788 133.545 457.528 134.137 457.319 134.626C457.051 135.242 456.797 135.828 456.716 136.116C456.836 136.191 457.023 136.292 457.196 136.384C457.503 136.548 457.877 136.746 458.329 137.026C458.701 137.067 459.052 137.165 459.384 137.319C460.355 137.771 461.05 138.636 461.343 139.758C461.62 140.815 461.5 141.982 461.003 143.042C460.509 144.103 459.702 144.932 458.734 145.395V152.609C458.734 155.188 460.277 157.482 462.661 158.458L465.309 159.541C465.627 159.669 465.845 159.965 465.878 160.309C465.912 160.649 465.753 160.981 465.465 161.168C465.382 161.221 460.004 164.648 452.74 164.648L452.728 164.657ZM441.976 159.767C450.775 165.097 459.301 162.17 462.795 160.518L461.957 160.175C458.874 158.913 456.884 155.947 456.884 152.617V144.773C456.884 144.36 457.157 144 457.554 143.885C458.29 143.676 458.952 143.073 459.326 142.272C459.641 141.6 459.719 140.874 459.552 140.232C459.401 139.654 459.063 139.216 458.597 138.999C458.413 138.912 458.209 138.865 457.986 138.856C457.824 138.848 457.668 138.8 457.531 138.714C457.046 138.407 456.644 138.192 456.32 138.019C454.3 136.939 454.632 136.174 455.62 133.9C455.815 133.448 456.052 132.901 456.326 132.242C455.963 131.972 454.838 131.656 454.141 131.461C452.327 130.953 450.451 130.428 450.381 128.893C450.34 127.956 450.074 125.759 448.57 125.642C446.94 125.491 444.044 127.889 443.095 132.519C442.654 134.667 441.013 136.23 439.509 137.528L439.227 137.771C439.185 137.807 439.168 137.852 439.174 137.905C439.179 137.958 439.207 137.999 439.255 138.025L440.681 138.792C441.016 138.971 441.206 139.336 441.161 139.713C440.882 142.066 440.656 147.661 444.577 148.802C445.193 148.981 445.891 149.04 446.65 148.97C446.91 148.948 447.166 149.034 447.356 149.21C447.546 149.386 447.655 149.637 447.652 149.896L447.638 151.431C447.526 155.009 445.355 158.246 442.11 159.703L441.973 159.764L441.976 159.767Z" fill="#1E2B62"/>
<path d="M446.733 150.815C446.287 150.815 445.893 150.489 445.824 150.034C445.745 149.529 446.091 149.06 446.594 148.982C450.972 148.309 452.968 144.924 452.985 144.888C453.238 144.447 453.802 144.296 454.243 144.547C454.684 144.801 454.838 145.365 454.584 145.806C454.486 145.976 452.119 149.997 446.873 150.801C446.825 150.81 446.778 150.812 446.731 150.812L446.733 150.815Z" fill="#1E2B62"/>
<path d="M51.4991 367.914L55.9866 364.948L53.9047 359.456C54.8201 358.582 55.6545 357.647 56.3941 356.654L62.0927 358.055L64.4956 353.241L59.9439 349.523C60.2955 348.323 60.5439 347.098 60.6918 345.856L66.3347 344.218L66.0081 338.849L60.2174 337.906C59.9243 336.703 59.5253 335.514 59.0229 334.353L63.089 330.114L60.1225 325.626L54.6303 327.708C53.7568 326.793 52.8219 325.958 51.8284 325.219L53.2294 319.52L48.4154 317.117L44.6981 321.669C43.4981 321.317 42.273 321.069 41.0311 320.921L39.393 315.278L34.0236 315.605L33.0803 321.396C31.8775 321.689 30.6887 322.088 29.5277 322.59L25.2886 318.524L20.8011 321.49L22.883 326.983C21.9677 327.856 21.1332 328.791 20.3937 329.785L14.695 328.384L12.2922 333.198L16.8439 336.915C16.4923 338.115 16.2439 339.34 16.096 340.582L10.4531 342.22L10.7796 347.589L16.5704 348.533C16.8634 349.735 17.2625 350.924 17.7648 352.085L13.6987 356.324L16.6653 360.812L22.1574 358.73C23.0309 359.645 23.9658 360.48 24.9593 361.219L23.5584 366.918L28.3696 369.321L32.0868 364.769C33.2869 365.121 34.512 365.369 35.7539 365.517L37.392 371.16L42.7614 370.833L43.7018 365.043C44.9046 364.75 46.0935 364.35 47.2544 363.848L51.4936 367.914H51.4991ZM26.8431 350.857C22.6263 344.478 24.3761 335.888 30.7557 331.671C37.1353 327.454 45.7251 329.204 49.9419 335.584C54.1615 341.963 52.4089 350.553 46.0293 354.77C39.6497 358.987 31.0599 357.237 26.8431 350.857Z" fill="#00A5F3"/>
<path d="M37.9211 369.487C37.5137 369.487 37.1509 369.219 37.0365 368.823L35.5658 363.758C34.6867 363.63 33.8104 363.451 32.9509 363.225L29.6159 367.311C29.3424 367.643 28.8764 367.746 28.4885 367.551L23.6745 365.148C23.2893 364.955 23.0884 364.523 23.1917 364.101L24.4503 358.989C23.7582 358.442 23.0884 357.847 22.4521 357.211L17.5237 359.081C17.1191 359.234 16.6642 359.086 16.427 358.726L13.4604 354.239C13.2232 353.879 13.2651 353.402 13.5637 353.092L17.2139 349.288C16.8791 348.454 16.5944 347.602 16.36 346.751L11.1636 345.906C10.7395 345.836 10.4185 345.482 10.3906 345.052L10.0641 339.682C10.039 339.253 10.3125 338.862 10.7283 338.742L15.7935 337.271C15.9218 336.389 16.1004 335.513 16.3265 334.653L12.2409 331.319C11.906 331.045 11.8055 330.579 12.0009 330.191L14.4037 325.377C14.5962 324.992 15.026 324.788 15.4502 324.894L20.5628 326.153C21.1098 325.461 21.7042 324.791 22.3405 324.152L20.4707 319.224C20.3172 318.822 20.4651 318.367 20.8251 318.127L25.3126 315.16C25.6726 314.923 26.1498 314.965 26.4596 315.264L30.2634 318.914C31.0978 318.579 31.949 318.294 32.8002 318.06L33.6457 312.864C33.7155 312.437 34.0699 312.116 34.4997 312.09L39.8691 311.764C40.2905 311.742 40.6895 312.012 40.8095 312.428L42.2803 317.493C43.1621 317.622 44.0384 317.8 44.8952 318.026L48.2301 313.941C48.5036 313.609 48.9696 313.505 49.3575 313.701L54.1715 316.104C54.5567 316.296 54.7576 316.729 54.6543 317.15L53.3957 322.263C54.0906 322.81 54.7576 323.404 55.3939 324.04L60.3223 322.173C60.7242 322.02 61.1791 322.168 61.4191 322.528L64.3856 327.015C64.6228 327.375 64.581 327.853 64.2823 328.162L60.6321 331.966C60.967 332.8 61.2516 333.649 61.486 334.503L66.6824 335.348C67.1093 335.418 67.4303 335.773 67.4554 336.202L67.7819 341.572C67.807 342.001 67.5335 342.392 67.1177 342.512L62.0526 343.983C61.9242 344.862 61.7456 345.738 61.5195 346.598L65.6051 349.933C65.94 350.206 66.0405 350.672 65.8479 351.06L63.4451 355.874C63.2526 356.259 62.82 356.46 62.3986 356.357L57.286 355.098C56.739 355.79 56.1446 356.46 55.5083 357.097L57.3781 362.025C57.5316 362.43 57.3837 362.884 57.0237 363.122L52.5362 366.088C52.179 366.325 51.699 366.284 51.3892 365.985L47.5854 362.335C46.7482 362.67 45.8998 362.954 45.0487 363.189L44.2031 368.385C44.1333 368.812 43.7789 369.133 43.3491 369.158L37.9797 369.485C37.9602 369.485 37.9407 369.485 37.9239 369.485L37.9211 369.487ZM32.616 361.252C32.7025 361.252 32.789 361.263 32.8755 361.288C34.0253 361.623 35.2086 361.866 36.3946 362.005C36.763 362.047 37.0672 362.307 37.1704 362.664L38.6021 367.598L42.4979 367.361L43.3212 362.298C43.3798 361.933 43.6533 361.637 44.0133 361.551C45.1575 361.271 46.3017 360.886 47.418 360.406C47.7585 360.261 48.1547 360.331 48.4226 360.588L52.1287 364.143L55.3855 361.989L53.5632 357.186C53.432 356.84 53.5213 356.446 53.7892 356.19C54.6683 355.352 55.472 354.448 56.1753 353.505C56.3958 353.206 56.7753 353.072 57.1353 353.162L62.1167 354.387L63.8609 350.893L59.8814 347.642C59.5939 347.407 59.4767 347.025 59.58 346.668C59.9149 345.518 60.1577 344.335 60.2972 343.151C60.3418 342.783 60.5986 342.479 60.9558 342.375L65.8898 340.944L65.6526 337.048L60.5902 336.225C60.2246 336.166 59.9288 335.893 59.8423 335.533C59.5632 334.386 59.1781 333.239 58.6981 332.128C58.5502 331.787 58.6228 331.391 58.8795 331.123L62.4349 327.417L60.2804 324.16L55.4748 325.98C55.1288 326.108 54.7353 326.022 54.4813 325.754C53.6469 324.875 52.7427 324.074 51.7966 323.368C51.5008 323.147 51.3641 322.768 51.4534 322.408L52.6785 317.426L49.1845 315.682L45.9333 319.662C45.6989 319.949 45.3138 320.069 44.9594 319.963C43.8152 319.628 42.6319 319.388 41.4402 319.246C41.0719 319.201 40.7677 318.942 40.6644 318.587L39.2328 313.653L35.3369 313.891L34.5137 318.953C34.4551 319.318 34.1816 319.614 33.8216 319.701C32.6802 319.977 31.5332 320.362 30.4169 320.845C30.0764 320.993 29.6801 320.92 29.4122 320.664L25.7061 317.108L22.4493 319.263L24.2689 324.065C24.4001 324.412 24.3108 324.802 24.0428 325.059C23.1638 325.896 22.36 326.8 21.6568 327.744C21.4363 328.042 21.0568 328.176 20.6968 328.09L15.7153 326.865L13.9711 330.359L17.9507 333.61C18.2381 333.844 18.3553 334.227 18.2521 334.584C17.9172 335.731 17.6772 336.914 17.5349 338.1C17.493 338.468 17.2335 338.773 16.8763 338.876L11.9423 340.308L12.1795 344.203L17.2446 345.027C17.6102 345.085 17.906 345.359 17.9926 345.719C18.2688 346.863 18.6567 348.007 19.1368 349.123C19.2847 349.464 19.2121 349.86 18.9554 350.128L15.4 353.834L17.5544 357.091L22.3572 355.269C22.7033 355.137 23.0968 355.224 23.3535 355.495C24.1935 356.374 25.095 357.177 26.0382 357.881C26.3368 358.101 26.4708 358.481 26.3843 358.841L25.1591 363.822L28.6531 365.566L31.9043 361.587C32.0829 361.369 32.3453 361.249 32.6188 361.249L32.616 361.252ZM38.9481 355.4C37.9574 355.4 36.9611 355.299 35.9676 355.098C32.1025 354.309 28.7759 352.065 26.5992 348.772C22.1089 341.979 23.9787 332.798 30.7713 328.307C34.0616 326.131 38.0021 325.366 41.8672 326.156C45.7324 326.943 49.0589 329.189 51.2357 332.482C55.726 339.275 53.8562 348.456 47.0636 352.947C44.6189 354.563 41.8142 355.403 38.9481 355.403V355.4ZM28.1368 347.756C30.0401 350.636 32.9536 352.601 36.336 353.29C39.7212 353.979 43.1677 353.312 46.0477 351.406C51.992 347.474 53.6301 339.442 49.7008 333.495C47.7947 330.615 44.884 328.651 41.5016 327.961C38.1193 327.272 34.6699 327.939 31.7899 329.845C25.8457 333.777 24.2075 341.812 28.1368 347.756Z" fill="#1E2B62"/>
<path d="M128.994 434.735L136.672 429.658L133.108 420.259C134.676 418.766 136.099 417.164 137.366 415.465L147.117 417.862L151.228 409.626L143.439 403.266C144.039 401.212 144.466 399.114 144.717 396.99L154.373 394.188L153.815 385.001L143.905 383.391C143.403 381.331 142.719 379.3 141.862 377.313L148.822 370.059L143.746 362.382L134.347 365.946C132.854 364.377 131.252 362.954 129.552 361.687L131.95 351.936L123.714 347.826L117.354 355.615C115.3 355.015 113.202 354.588 111.078 354.334L108.276 344.678L99.0889 345.236L97.4786 355.146C95.419 355.648 93.3874 356.332 91.4004 357.189L84.1473 350.228L76.47 355.305L80.0338 364.704C78.4654 366.197 77.0421 367.799 75.7751 369.498L66.0243 367.101L61.9136 375.337L69.7025 381.697C69.1025 383.751 68.6755 385.849 68.4216 387.973L58.7656 390.778L59.3238 399.965L69.2336 401.575C69.736 403.635 70.4197 405.666 71.2765 407.653L64.3164 414.909L69.3927 422.586L78.7919 419.023C80.2849 420.591 81.8868 422.014 83.5864 423.281L81.1891 433.032L89.4246 437.143L95.7846 429.354C97.8386 429.954 99.9372 430.381 102.061 430.635L104.866 440.291L114.053 439.733L115.663 429.823C117.723 429.321 119.754 428.637 121.741 427.78L128.994 434.74V434.735ZM86.8041 405.549C79.5873 394.635 82.5845 379.933 93.499 372.716C104.414 365.499 119.115 368.497 126.332 379.411C133.549 390.326 130.552 405.027 119.637 412.244C108.722 419.461 94.0209 416.464 86.8041 405.549Z" fill="#00A5F3"/>
<path d="M105.765 436.773C105.357 436.773 104.995 436.505 104.88 436.108L102.246 427.033C100.485 426.796 98.7321 426.438 97.0186 425.967L91.0409 433.287C90.7674 433.619 90.3013 433.722 89.9134 433.53L81.678 429.419C81.2929 429.226 81.0919 428.794 81.1952 428.372L83.4473 419.211C82.0575 418.136 80.718 416.947 79.4538 415.661L70.6211 419.01C70.2193 419.163 69.7616 419.015 69.5244 418.655L64.448 410.978C64.2108 410.618 64.2527 410.143 64.5513 409.831L71.09 403.013C70.4034 401.35 69.8313 399.653 69.3876 397.948L60.0749 396.433C59.6508 396.363 59.3298 396.008 59.3019 395.579L58.7438 386.392C58.7187 385.962 58.9922 385.571 59.408 385.451L68.4834 382.817C68.7206 381.056 69.0778 379.303 69.5495 377.59L62.2294 371.612C61.8945 371.338 61.7941 370.872 61.9894 370.484L66.1001 362.249C66.2927 361.864 66.7197 361.66 67.1467 361.766L76.3086 364.018C77.3858 362.623 78.5747 361.286 79.8584 360.025L76.5095 351.192C76.3561 350.79 76.504 350.335 76.864 350.095L84.5413 345.019C84.9013 344.782 85.3785 344.824 85.6883 345.122L92.506 351.661C94.1693 350.974 95.8688 350.402 97.5712 349.959L99.0865 340.646C99.1563 340.222 99.5107 339.901 99.9405 339.873L109.128 339.315C109.546 339.292 109.948 339.563 110.068 339.979L112.702 349.054C114.463 349.292 116.216 349.649 117.93 350.12L123.907 342.8C124.181 342.468 124.65 342.368 125.035 342.56L133.27 346.671C133.655 346.864 133.856 347.296 133.753 347.718L131.501 356.88C132.893 357.957 134.233 359.146 135.494 360.429L144.327 357.081C144.729 356.927 145.184 357.075 145.424 357.435L150.5 365.112C150.737 365.472 150.695 365.949 150.397 366.259L143.858 373.077C144.545 374.74 145.117 376.44 145.561 378.142L154.873 379.657C155.297 379.727 155.618 380.082 155.646 380.511L156.204 389.699C156.229 390.128 155.956 390.519 155.54 390.639L146.465 393.273C146.227 395.034 145.87 396.787 145.399 398.5L152.719 404.478C153.054 404.752 153.154 405.221 152.959 405.606L148.848 413.841C148.655 414.226 148.226 414.427 147.801 414.324L138.64 412.072C137.565 413.464 136.373 414.804 135.09 416.065L138.439 424.898C138.592 425.3 138.444 425.755 138.084 425.995L130.407 431.071C130.05 431.308 129.572 431.266 129.26 430.968L122.442 424.429C120.779 425.116 119.079 425.688 117.377 426.132L115.862 435.444C115.792 435.868 115.437 436.189 115.008 436.217L105.821 436.775C105.801 436.775 105.781 436.775 105.765 436.775V436.773ZM96.6865 423.991C96.773 423.991 96.8595 424.002 96.946 424.027C98.9442 424.611 101.007 425.032 103.072 425.278C103.44 425.319 103.744 425.579 103.848 425.936L106.446 434.883L114.162 434.414L115.655 425.23C115.714 424.864 115.987 424.571 116.347 424.482C118.343 423.997 120.338 423.324 122.28 422.49C122.621 422.342 123.017 422.414 123.285 422.671L130.008 429.12L136.454 424.856L133.153 416.146C133.022 415.8 133.111 415.407 133.379 415.15C134.911 413.69 136.309 412.116 137.534 410.473C137.755 410.177 138.132 410.04 138.494 410.129L147.528 412.351L150.98 405.435L143.763 399.541C143.476 399.307 143.359 398.925 143.462 398.567C144.045 396.567 144.467 394.507 144.712 392.442C144.754 392.073 145.014 391.769 145.371 391.666L154.318 389.068L153.849 381.354L144.667 379.861C144.302 379.803 144.009 379.529 143.92 379.169C143.434 377.174 142.764 375.178 141.927 373.236C141.782 372.896 141.852 372.499 142.108 372.231L148.558 365.509L144.294 359.062L135.584 362.363C135.235 362.495 134.844 362.405 134.587 362.137C133.131 360.608 131.557 359.21 129.91 357.982C129.614 357.761 129.478 357.382 129.567 357.022L131.788 347.988L124.873 344.536L118.979 351.753C118.744 352.04 118.359 352.16 118.005 352.054C116.007 351.471 113.944 351.05 111.879 350.804C111.511 350.76 111.207 350.503 111.103 350.146L108.505 341.199L100.789 341.667L99.2958 350.852C99.2372 351.217 98.9637 351.51 98.6037 351.6C96.6084 352.085 94.613 352.758 92.6707 353.592C92.3302 353.74 91.9339 353.667 91.666 353.411L84.9431 346.961L78.4965 351.226L81.798 359.935C81.9291 360.281 81.8398 360.675 81.5719 360.932C80.0426 362.388 78.6445 363.962 77.4137 365.609C77.1933 365.905 76.8137 366.042 76.4537 365.952L67.4201 363.731L63.968 370.646L71.1848 376.54C71.4723 376.775 71.5895 377.157 71.4862 377.514C70.903 379.512 70.4816 381.572 70.236 383.64C70.1941 384.008 69.9346 384.312 69.5774 384.416L60.6303 387.014L61.0992 394.727L70.2806 396.22C70.6462 396.279 70.9393 396.553 71.0286 396.913C71.5141 398.908 72.1867 400.903 73.0211 402.843C73.169 403.183 73.0965 403.58 72.8397 403.848L66.3904 410.57L70.6546 417.017L79.3645 413.716C79.7105 413.584 80.1012 413.671 80.3607 413.942C81.8231 415.474 83.3971 416.872 85.038 418.1C85.3366 418.32 85.4706 418.7 85.3841 419.06L83.1626 428.093L90.0781 431.546L95.9721 424.329C96.1507 424.111 96.413 423.991 96.6865 423.991ZM107.512 412.652C99.5191 412.652 91.6716 408.773 86.9413 401.621C79.4538 390.299 82.5738 374.997 93.8958 367.509C105.218 360.022 120.519 363.142 128.007 374.464C135.494 385.786 132.374 401.087 121.052 408.575C116.883 411.332 112.172 412.652 107.512 412.652ZM107.425 365.263C103.005 365.263 98.6819 366.555 94.9116 369.047C89.8381 372.402 86.3748 377.531 85.1608 383.492C83.9468 389.453 85.1245 395.528 88.479 400.602C95.4056 411.076 109.563 413.961 120.037 407.037C130.51 400.111 133.396 385.956 126.469 375.483C123.115 370.409 117.983 366.946 112.024 365.732C110.495 365.419 108.955 365.266 107.428 365.266L107.425 365.263Z" fill="#1E2B62"/>
</svg>
