<svg width="421" height="621" viewBox="0 0 421 621" fill="none" xmlns="http://www.w3.org/2000/svg">
<g clip-path="url(#clip0_3214_5456)">
<path d="M420.146 34.8545H284.855V48.1408H420.146V34.8545Z" fill="#1E2B62"/>
<path d="M421 49H284V34H421V49ZM285.714 47.2863H419.29V35.7137H285.714V47.2863Z" fill="#1E2B62"/>
<path d="M391.753 34.8545H284.855V48.1408H391.753V34.8545Z" fill="#FFE02E"/>
<path d="M392.611 49H284V34H392.611V49ZM285.714 47.2863H390.898V35.7137H285.714V47.2863Z" fill="#1E2B62"/>
</g>
<g clip-path="url(#clip1_3214_5456)">
<mask id="mask0_3214_5456" style="mask-type:alpha" maskUnits="userSpaceOnUse" x="20" y="-36" width="419" height="380">
<rect x="20" y="-36" width="419" height="380" rx="30" fill="white"/>
</mask>
<g mask="url(#mask0_3214_5456)">
<path d="M240.365 237.278L196.525 171.47L138.035 189.964L119.315 225.782L5.61719 590.714L115.177 582.233L173.528 318.672L204.983 596.167L285.145 576.649L240.365 237.278Z" fill="white"/>
<path d="M204.981 597.036C204.802 597.036 204.628 596.981 204.481 596.878C204.275 596.736 204.144 596.51 204.113 596.262L173.249 323.959L116.027 582.419C115.944 582.794 115.627 583.067 115.242 583.098L5.67843 591.579C5.38909 591.602 5.11165 591.48 4.92933 591.255C4.747 591.029 4.69151 590.729 4.77871 590.452L118.477 225.517C118.492 225.47 118.512 225.418 118.536 225.375L137.26 189.556C137.367 189.351 137.549 189.201 137.767 189.13L196.253 170.635C196.626 170.521 197.026 170.659 197.244 170.983L241.088 236.792C241.16 236.902 241.211 237.029 241.227 237.159L286.003 576.531C286.063 576.969 285.777 577.384 285.345 577.487L205.183 597.004C205.115 597.02 205.044 597.028 204.977 597.028L204.981 597.036ZM173.526 317.802C173.526 317.802 173.558 317.802 173.574 317.802C173.998 317.826 174.347 318.15 174.394 318.573L205.738 595.084L284.176 575.985L239.527 237.586L196.158 172.493L138.643 190.679L120.121 226.11L6.82786 589.749L114.465 581.419L172.674 318.486C172.761 318.087 173.118 317.806 173.526 317.806V317.802Z" fill="#1E2B62"/>
<path d="M173.523 319.541C173.464 319.541 173.405 319.533 173.341 319.521C172.869 319.422 172.568 318.96 172.667 318.49L181.149 278.265L181.351 277.178C183.765 264.264 187.106 248.986 191.581 245.446L195.973 241.972C196.349 241.672 196.896 241.735 197.198 242.11C197.499 242.486 197.435 243.035 197.059 243.331L192.667 246.805C188.125 250.397 184.316 270.792 183.068 277.494L182.858 278.605L174.376 318.849C174.288 319.26 173.928 319.541 173.523 319.541Z" fill="#1E2B62"/>
<path d="M328.149 39.2383L328.149 39.2382C330.866 37.7672 333.725 36.6752 336.524 37.0085C339.332 37.3428 341.84 39.4985 341.937 41.9784C341.992 43.3932 341.434 44.5421 340.433 45.6225C339.403 46.7331 337.966 47.7064 336.361 48.7472C336.22 48.8384 336.078 48.9301 335.935 49.0224C334.491 49.9559 332.948 50.9525 331.674 52.1059C330.259 53.3867 329.082 54.9398 328.696 56.9532L328.16 59.7512L330.327 57.9023C332.143 56.3538 334.785 56.0557 337.203 56.8258C339.621 57.596 341.599 59.3652 342.176 61.6756L342.343 62.34L343.022 62.4253C344.815 62.6504 346.426 63.8053 347.448 65.4102C348.47 67.0152 348.833 68.9592 348.276 70.6711L348.073 71.2939L348.563 71.7286C350.877 73.7816 351.755 77.3306 350.662 80.2172L350.661 80.2182C349.571 83.1052 346.557 85.197 343.462 85.2144L342.538 85.2197L342.47 86.1407C342.002 92.4719 341.287 98.781 340.333 105.057C334.828 107.549 326.693 109.543 317.04 107.079L316.681 106.987L316.674 106.99C304.452 103.797 297.895 98.071 294.374 93.0818C295.701 88.8655 297.028 84.6676 298.474 80.5342C304.268 63.9859 312.997 47.4408 328.149 39.2383Z" fill="#FFE9DD" stroke="#1E2B62" stroke-width="2"/>
<path d="M202.261 87.6373C203.827 86.7363 210.2 91.4508 211.765 92.3162C218.555 96.0743 225.345 99.8324 232.13 103.594C247.54 112.126 262.947 120.658 278.357 129.19C285.412 118.232 289.348 105.736 293.275 93.2488C296.906 98.5836 303.783 104.733 316.787 108.052C327.005 110.66 335.574 108.408 341.234 105.744C338.186 125.483 332.76 144.859 325.083 163.309C321.492 171.936 317.14 180.705 309.641 186.304C302.146 191.9 292.217 193.623 282.939 192.374C273.66 191.125 264.944 187.13 256.977 182.226C236.874 169.849 220.977 151.079 211.425 129.589C206.649 118.844 203.442 107.392 202.09 95.7107C201.904 94.1103 200.533 88.6332 202.261 87.6413V87.6373Z" fill="#98E0FF"/>
<path d="M288.657 193.627C286.735 193.627 284.785 193.497 282.823 193.232C274.539 192.117 265.934 188.758 256.517 182.961C236.699 170.762 220.405 151.932 210.627 129.937C205.736 118.935 202.573 107.451 201.225 95.8056C201.194 95.529 201.122 95.1299 201.039 94.6596C200.429 91.1505 200.028 87.914 201.824 86.8865C203.247 86.0725 205.894 87.4793 210.595 90.5498C211.277 90.9963 211.868 91.3797 212.185 91.5575L278.058 128.032C284.793 117.311 288.681 104.95 292.442 92.992C292.541 92.6719 292.815 92.4387 293.148 92.3913C293.485 92.3439 293.81 92.4861 293.996 92.7628C297.218 97.497 303.825 103.847 317.004 107.21C327.23 109.818 335.625 107.428 340.865 104.958C341.154 104.82 341.499 104.855 341.756 105.049C342.014 105.242 342.145 105.558 342.097 105.879C339.033 125.728 333.58 145.163 325.89 163.641C322.248 172.394 317.821 181.282 310.167 187C304.388 191.315 296.766 193.627 288.657 193.627ZM202.68 88.4C202.105 88.7597 202.129 90.7671 202.755 94.3632C202.847 94.8769 202.918 95.3077 202.954 95.608C204.281 107.08 207.397 118.39 212.216 129.233C221.852 150.909 237.912 169.466 257.428 181.483C266.632 187.146 275.011 190.426 283.049 191.509C292.827 192.825 302.327 190.675 309.113 185.605C316.433 180.14 320.726 171.497 324.273 162.973C331.709 145.111 337.036 126.353 340.119 107.187C334.582 109.506 326.374 111.391 316.564 108.894C304.123 105.721 297.274 99.9312 293.58 95.1615C289.858 106.969 285.894 119.077 279.081 129.66C278.831 130.043 278.328 130.174 277.924 129.949L211.332 93.075C210.956 92.8695 210.373 92.4861 209.632 92.0001C208.158 91.0359 203.695 88.1195 202.672 88.3961L202.68 88.4Z" fill="#1E2B62"/>
<path d="M319.713 89.5069C319.126 89.5069 318.54 89.4002 317.969 89.1591C317.525 88.9734 317.315 88.4636 317.501 88.021C317.687 87.5784 318.199 87.369 318.643 87.5547C320.264 88.2305 322.245 87.1635 323.288 85.812C324.326 84.4684 324.849 82.8008 325.4 81.0383L325.678 80.1689C326.356 78.0784 327.315 75.743 329.285 74.2966C330.343 73.5181 331.552 73.1032 332.717 72.7041C333.28 72.5104 333.811 72.3287 334.322 72.1074C335.63 71.5462 337.045 70.4555 337.089 69.0882C337.14 67.472 335.333 66.2509 334.251 65.666C330.244 63.5005 325.396 62.8129 320.945 63.781C316.494 64.7453 312.372 67.3811 309.63 71.0088C309.34 71.3921 308.793 71.4711 308.409 71.1787C308.024 70.8902 307.949 70.3449 308.238 69.9616C311.227 66.0059 315.721 63.133 320.573 62.0778C325.428 61.0267 330.712 61.7736 335.079 64.1367C337.557 65.4763 338.888 67.2546 338.829 69.1396C338.769 70.9969 337.343 72.7001 335.008 73.7039C334.437 73.9489 333.847 74.1504 333.28 74.344C332.19 74.7195 331.159 75.0751 330.311 75.6955C328.742 76.8494 327.921 78.8727 327.331 80.7024L327.061 81.556C326.486 83.3896 325.892 85.2825 324.663 86.8711C323.534 88.3372 321.635 89.499 319.709 89.499L319.713 89.5069Z" fill="#1E2B62"/>
<path d="M332.175 79.8171C330.486 79.8171 328.774 79.2165 327.644 77.7939C327.347 77.4184 327.41 76.8692 327.787 76.5728C328.167 76.2764 328.714 76.3396 329.012 76.715C330.24 78.2681 332.642 78.359 334.279 77.6555C335.908 76.9561 337.363 75.5256 338.726 73.277C340.712 70.0089 341.897 66.2627 342.159 62.4493C342.19 61.9711 342.599 61.6273 343.09 61.6431C343.57 61.6747 343.934 62.0896 343.899 62.5718C343.617 66.6579 342.345 70.6728 340.217 74.178C338.655 76.7467 336.939 78.4064 334.965 79.256C334.125 79.6156 333.15 79.8211 332.167 79.8211L332.175 79.8171Z" fill="#1E2B62"/>
<path d="M338.056 83.9903C335.044 83.9903 332.194 82.129 331.362 79.513C331.215 79.0546 331.469 78.5645 331.929 78.4223C332.392 78.2761 332.88 78.529 333.023 78.9874C333.685 81.0699 336.162 82.4886 338.643 82.2199C340.87 81.9788 343.102 80.5444 344.767 78.284C346.257 76.2646 347.157 73.9489 348.179 71.1313C348.342 70.6808 348.845 70.4437 349.297 70.6097C349.749 70.7717 349.983 71.2696 349.82 71.7241C348.98 74.0437 347.929 76.9325 346.174 79.3154C344.22 81.967 341.54 83.6544 338.829 83.9468C338.572 83.9745 338.31 83.9903 338.056 83.9903Z" fill="#1E2B62"/>
<path d="M342.753 86.8514C340.704 86.8514 338.651 85.8002 337.537 84.0772C337.276 83.6742 337.395 83.1367 337.799 82.8759C338.203 82.6151 338.742 82.7297 339.004 83.1367C339.971 84.6344 341.937 85.4208 343.677 85.0099C344.141 84.9032 344.616 85.1877 344.727 85.654C344.838 86.1203 344.549 86.5906 344.081 86.7012C343.645 86.8039 343.201 86.8553 342.757 86.8553L342.753 86.8514Z" fill="#1E2B62"/>
<path d="M269.368 140.429C269.138 140.429 268.909 140.338 268.738 140.16C268.405 139.813 268.417 139.263 268.766 138.931C271.255 136.556 273.518 133.929 275.5 131.123C275.777 130.728 276.32 130.633 276.713 130.913C277.105 131.19 277.2 131.731 276.923 132.123C274.878 135.019 272.539 137.734 269.971 140.188C269.8 140.35 269.586 140.429 269.368 140.429Z" fill="#1E2B62"/>
<path d="M206.823 77.1411C209.447 77.8247 211.492 79.8559 212.201 82.468C222.558 120.768 246.557 154.658 255.42 193.397C256.961 200.139 258.02 207.264 256.054 213.895C254.262 219.933 250.077 225.047 245.162 229.002C240.247 232.958 234.595 235.886 228.987 238.783C221.218 221.265 214.992 203.119 208.777 185C202.752 167.442 196.716 149.829 192.911 131.667C190.247 118.947 148.024 120.077 148.392 107.064C148.496 103.369 135.23 83.4678 137.707 80.4447C143.636 73.2091 201.726 75.8133 206.827 77.1411H206.823Z" fill="#98E0FF"/>
<path d="M228.981 239.656C228.881 239.656 228.786 239.641 228.691 239.609C228.465 239.53 228.279 239.36 228.184 239.139C220.396 221.569 214.066 203.123 207.946 185.284C202.009 167.98 195.869 150.09 192.052 131.845C190.859 126.147 180.253 123.282 169.999 120.508C158.331 117.354 147.308 114.374 147.514 107.04C147.55 105.736 145.092 101.025 142.924 96.8722C138.129 87.6883 135.338 81.9583 137.027 79.8955C143.333 72.2014 202.377 75.0902 207.042 76.3034C209.956 77.0621 212.254 79.3383 213.039 82.2428C217.93 100.334 226.032 117.761 233.86 134.611C242.572 153.362 251.585 172.75 256.262 193.204C257.732 199.629 258.957 207.142 256.88 214.14C255.215 219.759 251.351 225.13 245.703 229.678C240.697 233.709 234.946 236.681 229.381 239.554C229.254 239.617 229.119 239.652 228.981 239.652V239.656ZM174.482 76.4851C158.16 76.4851 141.232 77.5086 138.374 80.9941C137.288 82.3219 141.957 91.2646 144.466 96.066C147.467 101.808 149.302 105.416 149.254 107.087C149.084 113.055 159.948 115.991 170.451 118.828C181.212 121.737 192.342 124.744 193.753 131.485C197.55 149.624 203.673 167.462 209.591 184.715C215.6 202.233 221.811 220.336 229.401 237.582C234.629 234.879 239.979 232.049 244.605 228.323C249.975 223.996 253.642 218.922 255.207 213.646C257.165 207.035 255.98 199.795 254.561 193.591C249.924 173.315 240.95 154.01 232.274 135.342C224.411 118.425 216.281 100.931 211.351 82.6933C210.729 80.3895 208.905 78.5835 206.595 77.9828C204.228 77.3664 189.615 76.4851 174.478 76.4851H174.482Z" fill="#1E2B62"/>
<path d="M143.973 215.31H219.974C223.846 215.31 226.657 211.635 225.626 207.912C223.252 199.361 218.912 167.474 213.086 146.589C204.053 114.221 198.218 91.4269 195.067 83.8594C191.912 76.2918 191.357 72.2017 178.496 71.6287C166.637 71.1031 152.396 69.2893 150.993 82.6462C150.719 85.2385 149.304 87.574 147.204 89.127L138.785 95.3471L143.977 215.31H143.973Z" fill="#30428D"/>
<path d="M85.4988 234.618C75.8357 223.202 77.6549 197.444 81.563 173.603C87.0604 140.049 97.1119 124.207 123.335 102.464C127.639 98.8959 132.518 95.2208 133.818 89.7911C134.69 86.1436 134.876 80.8878 138.622 80.5598C138.622 80.5598 146.169 79.726 151.357 88.3921C153.961 92.7351 154.726 97.904 155.411 102.919C159.866 135.528 160.83 168.498 161.789 201.392C161.916 205.735 162.003 210.272 160.092 214.176C156.862 220.787 144.516 211.872 144.516 211.872C144.674 223.012 141.714 237.045 141.337 248.177C127.734 248.892 96.7671 247.932 85.4948 234.618H85.4988Z" fill="#98E0FF"/>
<path d="M134.868 249.192C122.145 249.192 95.3829 247.635 84.836 235.175C76.8059 225.687 75.4543 205.502 80.706 173.461C86.1162 140.444 95.5534 124.368 122.779 101.792L123.722 101.014C127.709 97.7297 131.836 94.3352 132.973 89.5852C133.128 88.9371 133.262 88.2337 133.397 87.5224C134.031 84.1792 134.824 80.018 138.55 79.69C138.863 79.6584 146.695 78.8997 152.113 87.9413C152.359 88.3522 152.224 88.8857 151.812 89.1347C151.4 89.3797 150.864 89.2453 150.615 88.8344C145.767 80.7491 138.792 81.413 138.724 81.4209C136.465 81.6185 135.803 84.2108 135.113 87.8464C134.975 88.5893 134.836 89.3165 134.673 89.9922C133.397 95.3113 129.045 98.8955 124.836 102.361L123.901 103.132C97.0635 125.388 87.7611 141.227 82.4341 173.745C77.2696 205.257 78.4943 224.984 86.1756 234.061C98.312 248.398 133.576 247.643 140.512 247.35C140.722 242.537 141.388 237.155 142.03 231.939C142.874 225.082 143.746 217.993 143.659 211.888C143.655 211.56 143.837 211.255 144.13 211.105C144.424 210.955 144.776 210.979 145.042 211.172C147.178 212.713 153.516 216.511 157.131 215.614C158.134 215.365 158.851 214.768 159.323 213.8C159.533 213.369 160.056 213.188 160.488 213.397C160.92 213.607 161.102 214.128 160.892 214.559C160.187 216.001 159.065 216.922 157.555 217.297C153.627 218.274 147.995 215.144 145.407 213.504C145.339 219.329 144.539 225.837 143.762 232.148C143.056 237.87 142.39 243.272 142.228 248.208C142.212 248.658 141.855 249.022 141.403 249.046C140.504 249.093 138.157 249.196 134.88 249.196L134.868 249.192Z" fill="#1E2B62"/>
<path d="M214.91 306.971L164.138 277.744C160.063 275.396 158.664 270.2 161.018 266.137L206.452 187.68C208.807 183.617 214.019 182.222 218.093 184.57L268.866 213.797C272.94 216.144 274.34 221.341 271.985 225.403L226.551 303.861C224.197 307.923 218.985 309.318 214.91 306.971Z" fill="#1E2B62"/>
<path d="M222.189 244.071C221.809 241.771 220.152 239.914 218.562 238.203C220.671 239.408 222.601 239.606 223.985 238.227C225.368 236.847 224.916 235.168 224.092 233.398C223.267 231.627 221.741 230.295 220.203 229.086C203.656 216.101 181.773 212.232 160.762 210.798C149.454 210.027 154.96 210.584 143.664 209.64C139.367 227.3 138.293 234.259 140.441 248.71C156.581 249.343 148.214 249.532 164.139 250.094C173.374 250.418 183.616 251.532 190.695 257.452C192.526 258.981 194.48 261.028 196.83 260.613C199.078 260.218 200.322 257.543 199.934 255.298C199.549 253.053 198.004 251.2 196.446 249.536C194.888 247.873 193.208 246.209 192.427 244.071C196.478 246.81 200.532 249.548 204.583 252.287C205.427 252.856 206.323 253.445 207.342 253.5C209.748 253.626 211.258 250.532 210.501 248.248C209.748 245.964 207.619 244.451 205.59 243.154C203.561 241.854 201.385 240.483 200.398 238.29C205.467 241.491 210.54 244.696 215.61 247.896C216.553 248.493 217.56 249.11 218.677 249.118C221.016 249.141 222.57 246.375 222.185 244.071H222.189Z" fill="#FFE9DD"/>
<path d="M196.204 261.537C194.103 261.537 192.375 260.044 190.829 258.708C190.596 258.506 190.366 258.305 190.136 258.115C183.275 252.377 173.128 251.279 164.107 250.962C156.026 250.678 154.175 250.488 152.217 250.287C150.322 250.093 148.36 249.891 140.409 249.579C139.989 249.564 139.64 249.251 139.581 248.836C137.369 233.966 138.638 226.624 142.819 209.434C142.918 209.015 143.307 208.726 143.739 208.774C150.207 209.315 151.166 209.362 152.91 209.449C154.214 209.517 155.998 209.604 160.825 209.932C161.305 209.963 161.67 210.378 161.634 210.86C161.602 211.338 161.206 211.69 160.703 211.666C155.895 211.338 154.119 211.251 152.823 211.184C151.131 211.101 150.168 211.054 144.337 210.568C140.342 227.046 139.2 233.926 141.202 247.872C148.61 248.169 150.532 248.366 152.399 248.556C154.329 248.753 156.152 248.939 164.171 249.224C173.489 249.552 183.988 250.706 191.257 256.783C191.495 256.981 191.733 257.186 191.971 257.396C193.477 258.7 195.035 260.044 196.68 259.759C198.424 259.451 199.383 257.23 199.077 255.448C198.721 253.381 197.203 251.618 195.812 250.133L195.427 249.722C193.933 248.137 192.387 246.497 191.61 244.367C191.479 244.011 191.594 243.616 191.892 243.383C192.189 243.154 192.605 243.138 192.918 243.347L205.074 251.563C205.93 252.14 206.644 252.587 207.389 252.626C208.198 252.697 208.76 252.172 209.089 251.741C209.771 250.856 210.009 249.528 209.676 248.512C209.01 246.497 207.06 245.118 205.122 243.877L205.043 243.826C202.997 242.518 200.683 241.036 199.605 238.637C199.446 238.285 199.537 237.874 199.831 237.625C200.12 237.372 200.544 237.341 200.869 237.546L216.081 247.153C216.882 247.659 217.789 248.232 218.693 248.24C219.509 248.208 220.1 247.769 220.445 247.362C221.162 246.525 221.511 245.288 221.333 244.205C220.98 242.083 219.288 240.253 217.924 238.783C217.635 238.467 217.615 237.989 217.884 237.653C218.15 237.317 218.626 237.226 218.998 237.444C220.909 238.538 222.379 238.593 223.37 237.606C224.23 236.748 224.21 235.705 223.303 233.757C222.53 232.097 221.02 230.824 219.668 229.765C211.507 223.36 201.559 218.775 189.252 215.752C188.784 215.638 188.499 215.168 188.614 214.701C188.729 214.235 189.204 213.95 189.668 214.065C202.221 217.151 212.387 221.842 220.746 228.398C222.256 229.583 223.949 231.018 224.884 233.025C225.752 234.891 226.398 237.04 224.599 238.835C223.893 239.538 222.819 240.166 221.281 240.04C222.11 241.174 222.807 242.458 223.049 243.924C223.314 245.517 222.819 247.268 221.765 248.497C220.932 249.465 219.87 249.99 218.669 249.978C217.274 249.967 216.093 249.22 215.146 248.623L209.478 245.043C210.286 245.873 210.952 246.833 211.329 247.967C211.848 249.544 211.515 251.437 210.473 252.796C209.652 253.871 208.523 254.428 207.294 254.361C206.002 254.29 204.944 253.575 204.095 252.998L195.419 247.133C195.835 247.607 196.267 248.066 196.699 248.524L197.088 248.939C198.653 250.611 200.362 252.602 200.798 255.147C201.242 257.74 199.787 260.968 196.989 261.462C196.723 261.51 196.462 261.533 196.204 261.533V261.537Z" fill="#1E2B62"/>
<path d="M216.736 238.033C216.55 238.033 216.364 237.974 216.205 237.851C212.836 235.267 209.269 232.88 205.595 230.758C205.179 230.517 205.036 229.983 205.278 229.568C205.52 229.153 206.051 229.011 206.471 229.252C210.209 231.414 213.839 233.844 217.268 236.472C217.648 236.764 217.719 237.31 217.426 237.689C217.256 237.91 216.994 238.029 216.733 238.029L216.736 238.033Z" fill="#1E2B62"/>
<path d="M143.668 210.508C143.629 210.508 143.593 210.508 143.554 210.501C125.555 208.122 125.23 207.47 124.992 206.995C124.838 206.687 124.517 206.047 131.885 144.597C131.94 144.123 132.368 143.779 132.856 143.839C133.332 143.894 133.676 144.329 133.617 144.807C130.886 167.577 126.915 201.53 126.645 206.051C128.591 206.608 136.613 207.833 143.787 208.782C144.263 208.845 144.6 209.283 144.537 209.758C144.477 210.196 144.104 210.512 143.672 210.512L143.668 210.508Z" fill="#1E2B62"/>
<path d="M157.38 14.1469C158.398 10.6694 159.98 7.17605 162.845 4.95122C165.715 2.72639 170.134 2.18105 172.913 4.52048C179.488 0.0234045 188.283 -1.40712 195.683 1.54482C203.083 4.49677 208.612 12.0683 208.394 20.0113C208.176 27.9543 201.696 35.4863 193.757 36.2055C192.493 43.1013 186.004 48.3176 179.056 49.3925C172.782 50.3607 160.618 48.2662 158.121 41.4732C154.986 32.9295 154.839 22.8328 157.384 14.143L157.38 14.1469Z" fill="#1E2B62"/>
<path d="M190.491 61.2158L185.294 94.0034C185.294 94.0034 161.406 79.1804 161.232 78.9472C161.057 78.7141 165.302 50.8148 165.302 50.8148C165.302 50.8148 170.827 41.5915 190.495 61.2158H190.491Z" fill="#FFE9DD"/>
<path d="M188.219 76.43C188.175 76.43 188.127 76.43 188.08 76.4182C187.604 76.3431 187.279 75.9005 187.355 75.4223L189.558 61.5162C178.904 50.9729 172.693 49.1867 169.356 49.5621C167.359 49.7834 166.407 50.7911 166.13 51.1468C165.88 52.7986 164.16 64.1401 163.05 71.8025C162.983 72.2767 162.555 72.6087 162.063 72.5376C161.588 72.4704 161.255 72.0278 161.326 71.5536C162.519 63.3102 164.418 50.8109 164.437 50.6844C164.453 50.5738 164.493 50.4671 164.552 50.3683C164.604 50.2814 165.86 48.2423 169.067 47.8471C172.824 47.3887 179.697 49.2183 191.108 60.6033C191.306 60.8009 191.397 61.0775 191.354 61.3541L189.079 75.6989C189.011 76.1257 188.639 76.434 188.219 76.434V76.43Z" fill="#1E2B62"/>
<path d="M199.234 31.7357C199.234 31.7357 208.152 55.1735 199.234 62.7173C193.943 67.1947 177.22 69.542 166.527 53.4268C166.527 53.4268 159.123 53.7904 157.435 46.2386C155.746 38.6868 159.527 35.8455 165.647 41.1566C165.647 41.1566 173.051 44.9147 170.617 34.4505C169.555 29.8902 173.463 25.737 182.008 23.279C197.47 18.8293 196.031 22.7218 199.238 31.7396L199.234 31.7357Z" fill="#FFE9DD"/>
<path d="M188.197 66.8985C187.084 66.8985 185.93 66.8235 184.745 66.6535C179.533 65.9146 172.098 63.1641 166.053 54.2925C164.238 54.2095 158.138 53.3954 156.58 46.4325C155.657 42.299 156.271 39.2522 158.269 38.0666C159.398 37.3949 161.919 36.8179 166.129 40.4298C166.822 40.7538 168.53 41.315 169.434 40.6116C170.37 39.8765 170.488 37.7624 169.763 34.6523C168.55 29.44 172.922 24.9903 181.761 22.4494C195.26 18.5609 196.723 20.8726 198.966 28.1122C199.276 29.112 199.624 30.2422 200.052 31.4475C200.473 32.554 209.054 55.561 199.795 63.3933C197.559 65.2862 193.306 66.9064 188.197 66.9064V66.8985ZM166.529 52.5616C166.822 52.5616 167.096 52.7078 167.254 52.9529C172.981 61.5874 180.06 64.2351 184.991 64.9345C191.039 65.7921 196.319 64.0454 198.669 62.0616C207.024 54.9919 198.507 32.2773 198.419 32.0481C198.419 32.0402 198.415 32.0363 198.411 32.0284C197.972 30.7875 197.615 29.6336 197.298 28.618C195.32 22.2241 194.789 20.5012 182.244 24.1131C174.416 26.3655 170.488 30.0644 171.463 34.2532C172.387 38.2247 172.074 40.7538 170.508 41.9749C168.495 43.5438 165.383 41.9986 165.253 41.9314C165.189 41.8998 165.13 41.8603 165.078 41.8129C162.609 39.6711 160.397 38.8254 159.169 39.5565C157.9 40.3112 157.563 42.7969 158.293 46.0492C159.803 52.8066 166.22 52.5774 166.493 52.5577C166.509 52.5577 166.521 52.5577 166.537 52.5577L166.529 52.5616Z" fill="#1E2B62"/>
<path d="M166.681 49.3372C166.379 49.3372 166.082 49.1792 165.924 48.8986C165.004 47.2981 163.149 46.2272 161.298 46.2272C161.29 46.2272 161.286 46.2272 161.274 46.2272C160.795 46.2272 160.402 45.8399 160.402 45.3618C160.402 44.8797 160.791 44.4924 161.27 44.4884C163.759 44.441 166.189 45.8716 167.434 48.0332C167.671 48.4481 167.529 48.9816 167.109 49.2187C166.97 49.2977 166.823 49.3333 166.677 49.3333L166.681 49.3372Z" fill="#1E2B62"/>
<path d="M189.454 97.7224C189.292 97.7224 189.129 97.679 188.986 97.5841L184.738 94.8772C184.333 94.6164 184.214 94.0829 184.472 93.6759C184.73 93.2688 185.273 93.1542 185.677 93.4111L189.926 96.118C190.33 96.3788 190.449 96.9123 190.191 97.3194C190.025 97.5802 189.744 97.7224 189.454 97.7224Z" fill="#1E2B62"/>
</g>
</g>
<defs>
<clipPath id="clip0_3214_5456">
<rect width="137" height="15" fill="white" transform="translate(284 34)"/>
</clipPath>
<clipPath id="clip1_3214_5456">
<rect width="353" height="621" fill="white"/>
</clipPath>
</defs>
</svg>
