<svg width="662" height="472" viewBox="0 0 662 472" fill="none" xmlns="http://www.w3.org/2000/svg">
<g clip-path="url(#clip0_3073_38653)">
<path d="M449.149 181.995L340.287 433.6L305.827 460.234C303.68 461.845 303.402 464.504 303.879 466.09L304.13 466.868C304.922 469.442 306.664 470.829 309.353 470.829H396.946C405.014 470.829 411.777 464.889 414.52 457.309L485.579 289.069C485.579 289.069 492.528 324.415 515.901 358.494C544.604 400.349 600.299 440.38 600.299 440.38L597.234 450.051C596.829 452.244 595.556 454.181 593.702 455.419L585.767 460.728C584.319 461.901 583.417 463.257 583.533 464.886L583.808 467.019C584.081 469.021 586.241 471.396 588.262 471.379L630.953 470.936L660.639 407.924C663.059 400.961 659.338 393.362 652.353 390.998L560.694 298.348L537.419 189.701L449.154 181.995H449.149Z" fill="#1E2B62"/>
<path d="M583.195 467.098L582.917 464.931C582.796 463.224 583.599 461.691 585.423 460.215L593.358 454.906C595.064 453.766 596.255 451.955 596.626 449.94C596.632 449.914 596.637 449.889 596.646 449.864L599.577 440.619C594.704 437.062 542.62 398.545 515.392 358.845C495.29 329.533 487.228 298.932 485.396 291.1L415.106 457.52C412.091 465.852 404.794 471.447 396.949 471.447H309.355C306.436 471.447 304.424 469.926 303.542 467.056L303.286 466.267C302.707 464.342 303.14 461.478 305.447 459.746L339.781 433.21L448.578 181.751C448.685 181.507 448.929 181.35 449.202 181.381L537.466 189.087C537.736 189.11 537.961 189.309 538.017 189.573L561.255 298.042L652.684 390.462C656.157 391.678 658.953 394.159 660.574 397.466C662.215 400.819 662.443 404.606 661.217 408.129C661.209 408.149 661.203 408.171 661.192 408.191L631.505 471.203C631.404 471.419 631.188 471.557 630.952 471.559L588.261 472.003H588.233C585.805 472.003 583.49 469.333 583.186 467.104L583.195 467.098ZM660.065 407.691C661.17 404.491 660.959 401.052 659.467 398.008C657.972 394.957 655.376 392.674 652.153 391.585C652.06 391.554 651.978 391.501 651.911 391.433L560.252 298.784C560.168 298.699 560.111 298.593 560.086 298.478L536.907 190.28L449.544 182.653L340.86 433.848C340.818 433.943 340.753 434.027 340.672 434.092L306.203 460.731C304.238 462.208 304.092 464.639 304.472 465.903L304.725 466.689C305.455 469.061 306.97 470.212 309.355 470.212H396.949C404.274 470.212 411.102 464.942 413.951 457.07L485.008 288.831C485.112 288.581 485.373 288.427 485.643 288.455C485.913 288.483 486.135 288.685 486.188 288.952C486.259 289.303 493.379 324.558 516.414 358.146C544.727 399.432 600.108 439.479 600.664 439.881C600.88 440.038 600.973 440.316 600.892 440.571L597.837 450.206C597.396 452.534 596.016 454.622 594.047 455.939L586.156 461.214C584.715 462.385 584.06 463.572 584.147 464.81L584.42 466.938C584.647 468.614 586.539 470.762 588.236 470.762H588.253L630.553 470.324L660.06 407.694L660.065 407.691Z" fill="#1E2B62"/>
<path d="M562.757 312.869C562.788 312.869 562.819 312.869 562.85 312.863C563.19 312.812 563.423 312.498 563.373 312.161L561.31 298.259C561.26 297.922 560.942 297.689 560.608 297.737C560.268 297.787 560.034 298.102 560.085 298.439L562.147 312.341C562.192 312.65 562.457 312.869 562.76 312.869H562.757Z" fill="#1E2B62"/>
<path d="M485.579 289.688C485.602 289.688 485.627 289.688 485.652 289.682C485.992 289.643 486.237 289.334 486.195 288.994L478.214 220.822C478.189 220.615 478.063 220.435 477.877 220.339L471.561 217.184C471.254 217.032 470.883 217.156 470.729 217.462C470.577 217.768 470.701 218.138 471.007 218.293L477.026 221.3L484.967 289.14C485.003 289.455 485.27 289.688 485.582 289.688H485.579Z" fill="#F0F9FD"/>
<path d="M600.306 441.001C600.371 441.001 600.432 440.99 600.497 440.97C600.798 440.872 630.889 430.763 648.271 395.78C648.423 395.474 648.299 395.103 647.993 394.949C647.687 394.797 647.316 394.92 647.164 395.226C630.023 429.721 600.413 439.693 600.115 439.788C599.789 439.895 599.612 440.243 599.719 440.569C599.803 440.83 600.047 440.995 600.309 440.995L600.306 441.001Z" fill="#F0F9FD"/>
<path d="M400.859 444.505C404.591 444.505 408.311 444.345 411.964 443.988C412.304 443.955 412.554 443.651 412.521 443.312C412.487 442.972 412.189 442.722 411.843 442.756C379.173 445.945 340.874 433.143 340.491 433.014C340.165 432.907 339.814 433.079 339.705 433.402C339.595 433.724 339.769 434.075 340.092 434.188C340.435 434.303 370.945 444.505 400.859 444.505Z" fill="#F0F9FD"/>
<path d="M542.801 160.73C542.801 160.73 545.451 176.269 545.271 182.49C545.007 191.608 538.474 192.192 538.474 192.192L446.567 184.725C446.567 184.725 434.44 182.235 436.432 170.786C438.424 159.337 442.161 150.873 442.161 150.873L542.801 160.73Z" fill="#00A5F3"/>
<path d="M451.624 170.174L526.935 177.147C541.058 178.655 553.902 168.885 556.2 154.882C560.977 125.752 562.357 88.47 551.412 76.7687C537.562 61.9597 501.387 53.8379 501.387 53.8379L485.745 55.3623C485.745 55.3623 457.193 62.2601 444.107 72.0664C431.022 81.8726 433.615 162.198 433.615 162.198L451.624 170.171V170.174Z" fill="#00A5F3"/>
<path d="M455.086 141.785C455.103 141.785 455.12 141.785 455.137 141.785L527.512 136.053C527.852 136.024 528.107 135.727 528.079 135.387C528.051 135.047 527.762 134.795 527.413 134.82L455.038 140.553C454.698 140.581 454.443 140.878 454.471 141.218C454.496 141.541 454.769 141.788 455.089 141.788L455.086 141.785Z" fill="#1E2B62"/>
<path d="M517.97 136.8C518.268 136.8 518.532 136.583 518.582 136.28L524.014 103.046C524.07 102.709 523.84 102.389 523.502 102.336C523.162 102.283 522.845 102.51 522.792 102.847L517.36 136.081C517.304 136.418 517.534 136.738 517.871 136.791C517.905 136.797 517.939 136.8 517.973 136.8H517.97Z" fill="#1E2B62"/>
<path d="M542.87 173.818C543.202 173.818 543.477 173.554 543.489 173.22C543.5 172.877 543.233 172.591 542.89 172.58L451.922 169.57C451.582 169.551 451.293 169.826 451.282 170.168C451.27 170.511 451.537 170.797 451.88 170.808L542.848 173.818C542.848 173.818 542.862 173.818 542.87 173.818Z" fill="#1E2B62"/>
<path d="M517.437 27.2289C516.479 24.8258 515.018 22.7034 512.919 21.1593C512.264 20.6793 511.562 20.2778 510.826 19.9409C511.553 16.7461 511.494 13.3772 510.517 10.2245C509.853 8.08525 508.567 6.10042 506.158 5.82249C504.481 5.62878 502.994 6.2829 501.75 7.29076C501.415 6.10042 500.935 4.955 500.277 3.88257C499.367 2.39465 497.951 0.833736 496.051 0.878654C494.199 0.920765 492.983 2.47045 492.292 4.02294C492.084 4.48897 491.89 4.96062 491.707 5.43507C491.612 5.34804 491.513 5.26101 491.415 5.17679C490.454 4.24192 489.364 3.44462 488.183 2.81295C486.351 1.70122 484.373 0.873039 482.35 0.541766C480.234 0.196456 477.992 0.449122 476.216 1.73772C474.46 3.01228 473.496 5.02799 473.738 7.20654C473.878 8.46425 474.342 9.57318 475.013 10.5558C472.358 11.9482 470.068 14.0398 468.461 16.5776C467.171 18.6186 465.951 21.3109 468.076 23.2424C468.84 23.9387 469.79 24.4412 470.813 24.8174C470.453 26.3137 470.341 27.8718 470.807 29.3036C471.31 30.8477 473.075 33.3491 477.042 33.5147C477.975 33.554 478.871 33.3884 479.734 33.0936C479.11 35.9066 479.759 39.02 481.912 41.0329C484.143 43.1188 487.503 43.6494 490.218 42.445C490.468 42.6724 490.729 42.8942 491.007 43.102C492.651 44.3288 494.627 45.5079 496.622 46.0329C498.768 46.5972 500.898 46.2294 502.621 44.8145C502.677 44.7668 502.736 44.719 502.795 44.6685C505.223 45.6904 507.94 45.7971 510.354 44.3007C512.219 43.1413 513.585 41.2098 513.686 38.9779C513.737 37.8914 513.47 36.8555 513.012 35.8982C514.417 35.8533 515.777 35.3732 516.847 34.2867C518.834 32.2738 518.396 29.6293 517.437 27.2261V27.2289Z" fill="#1E2B62"/>
<path d="M483.173 41.1482L485.893 55.3059C485.893 55.3059 479.998 60.4042 480.225 63.9134C480.453 67.4255 490.827 66.2744 497.231 62.2149C503.126 58.4783 501.994 55.7579 501.994 55.7579L497.458 36.3896L483.173 41.1454V41.1482Z" fill="#FFE9DD"/>
<path d="M485.801 55.3453C485.84 55.3453 485.88 55.3425 485.919 55.3341C486.256 55.2695 486.475 54.9439 486.408 54.6098L483.879 41.5638L497.001 37.1927L500.792 53.4616C500.87 53.7957 501.202 54.0006 501.536 53.9248C501.871 53.8462 502.079 53.5149 502 53.1808L498.055 36.2494C498.015 36.0781 497.906 35.935 497.754 35.8507C497.602 35.7665 497.423 35.7497 497.257 35.803L482.971 40.5588C482.676 40.657 482.499 40.9574 482.558 41.2634L485.191 54.8428C485.247 55.1376 485.509 55.3453 485.798 55.3453H485.801Z" fill="#1E2B62"/>
<path d="M488.998 18.6135C492.398 24.0149 498.234 22.9986 499.692 29.4837C499.819 30.0452 500.62 30.4102 501.946 29.7954C504.25 29.1244 506.144 29.8796 506.785 31.2552C507.717 33.2513 506.785 35.8229 504.652 37.1873C503.612 37.8526 502.44 38.094 501.376 37.9593C500.24 43.7032 497.102 46.6735 489.054 47.2377C477.067 48.0743 476.353 39.7532 476.148 30.5281C475.831 16.2075 485.601 13.2233 488.995 18.6163L488.998 18.6135Z" fill="#FFE9DD"/>
<path d="M479.505 45.359C476.065 42.2231 475.669 36.7908 475.531 30.5387C475.326 21.2996 479.131 16.8442 482.758 15.7522C485.4 14.9605 488.055 15.9515 489.522 18.2816C490.93 20.5191 492.798 21.6028 494.608 22.6499C496.974 24.02 499.418 25.4377 500.298 29.3456C500.306 29.3877 500.354 29.4158 500.391 29.4354C500.593 29.5365 501.04 29.5337 501.689 29.2333C501.717 29.2193 501.745 29.208 501.776 29.1996C504.229 28.4837 506.525 29.2221 507.351 30.9907C508.419 33.276 507.404 36.162 504.99 37.706C504.038 38.3152 502.956 38.6325 501.874 38.61C500.511 44.6263 496.769 47.313 489.103 47.8492C488.53 47.8885 487.976 47.9081 487.443 47.9081C483.995 47.9081 481.39 47.0687 479.51 45.3562L479.505 45.359ZM501.456 37.3439C502.425 37.4702 503.442 37.226 504.319 36.6645C506.179 35.4742 507.016 33.2114 506.224 31.5157C505.769 30.5387 504.302 29.7695 502.161 30.3787C501.265 30.783 500.441 30.8447 499.84 30.5472C499.446 30.3535 499.18 30.0222 499.087 29.6179C498.325 26.2378 496.313 25.0727 493.987 23.7224C492.141 22.6527 490.045 21.4371 488.474 18.9414C487.294 17.0688 485.242 16.2996 483.115 16.9369C480.069 17.8521 476.579 21.9537 476.771 30.5079C476.903 36.4736 477.262 41.6364 480.342 44.441C482.247 46.176 485.079 46.8862 489.013 46.6139C496.327 46.103 499.624 43.6409 500.77 37.8352C500.829 37.5432 501.085 37.3355 501.377 37.3355C501.402 37.3355 501.43 37.3355 501.456 37.3411V37.3439Z" fill="#1E2B62"/>
<path d="M501.237 35.3513C501.521 35.3513 501.773 35.1576 501.841 34.8684C501.92 34.5343 502.26 33.5826 502.892 33.1952C503.195 33.0099 503.538 32.9678 503.948 33.0689C504.28 33.1531 504.617 32.9509 504.699 32.6197C504.783 32.2884 504.581 31.9515 504.249 31.8701C503.51 31.6848 502.836 31.7774 502.24 32.1452C501.029 32.8892 500.65 34.5287 500.633 34.5961C500.557 34.9302 500.768 35.2614 501.102 35.3372C501.147 35.3485 501.195 35.3513 501.24 35.3513H501.237Z" fill="#1E2B62"/>
<path d="M212.851 181.591L321.713 433.196L356.173 459.83C358.32 461.441 358.598 464.1 358.121 465.686L357.871 466.463C357.078 469.038 355.336 470.425 352.647 470.425H265.054C256.987 470.425 250.223 464.484 247.481 456.904L176.424 288.665C176.424 288.665 169.475 324.01 146.102 358.089C117.399 399.945 61.7036 439.976 61.7036 439.976L64.7692 449.647C65.1738 451.84 66.4467 453.777 68.3013 455.015L76.2365 460.324C77.6835 461.497 78.5855 462.853 78.4703 464.481L78.195 466.615C77.9224 468.617 75.7616 470.992 73.7412 470.975L31.0503 470.531L1.36367 407.519C-1.05566 400.557 2.66465 392.957 9.65008 390.593L101.309 297.944L124.584 189.297L212.848 181.591H212.851Z" fill="#1E2B62"/>
<path d="M73.7652 471.596H73.7371L31.0462 471.152C30.8101 471.152 30.5938 471.012 30.4926 470.796L0.803146 407.784C0.794716 407.764 0.786287 407.744 0.777857 407.722C-0.447262 404.199 -0.21966 400.411 1.42133 397.059C3.03983 393.752 5.8385 391.27 9.31154 390.055L100.74 297.635L123.978 189.166C124.034 188.899 124.259 188.702 124.529 188.68L212.794 180.974C213.064 180.943 213.311 181.1 213.418 181.344L322.214 432.803L356.549 459.339C358.856 461.071 359.288 463.937 358.709 465.86L358.454 466.649C357.571 469.518 355.56 471.04 352.64 471.04H265.047C257.202 471.04 249.904 465.442 246.889 457.112L176.599 290.692C174.77 298.525 166.708 329.126 146.604 358.438C119.376 398.137 67.2912 436.655 62.4188 440.212L65.3495 449.457C65.3579 449.482 65.3636 449.507 65.3692 449.532C65.7401 451.548 66.9315 453.359 68.6371 454.499L76.5723 459.807C78.3959 461.284 79.2024 462.814 79.0787 464.524L78.8005 466.691C78.4943 468.92 76.1817 471.59 73.754 471.59L73.7652 471.596ZM31.4452 469.917L73.7455 470.355H73.7624C75.4624 470.355 77.3506 468.207 77.5782 466.531L77.8508 464.403C77.9379 463.162 77.2804 461.975 75.8417 460.804L67.9515 455.529C65.9818 454.212 64.6021 452.124 64.1609 449.796L61.1066 440.161C61.0251 439.906 61.1178 439.628 61.3342 439.471C61.8905 439.072 117.271 399.022 145.584 357.736C168.619 324.148 175.74 288.893 175.81 288.542C175.863 288.275 176.082 288.073 176.355 288.045C176.625 288.017 176.883 288.169 176.99 288.421L248.047 456.66C250.896 464.532 257.724 469.802 265.05 469.802H352.643C355.028 469.802 356.546 468.648 357.274 466.279L357.526 465.492C357.906 464.229 357.762 461.798 355.796 460.321L321.326 433.682C321.245 433.617 321.177 433.533 321.138 433.438L212.454 182.243L125.091 189.87L101.912 298.067C101.887 298.183 101.831 298.289 101.746 298.374L10.0927 391.029C10.0253 391.096 9.94096 391.15 9.85105 391.181C6.63089 392.27 4.03173 394.552 2.53686 397.604C1.04761 400.647 0.834055 404.083 1.93835 407.287L31.4452 469.917Z" fill="#1E2B62"/>
<path d="M99.2473 312.464C99.2164 312.464 99.1854 312.464 99.1545 312.459C98.8145 312.408 98.5813 312.094 98.6319 311.757L100.694 297.855C100.745 297.518 101.062 297.285 101.397 297.332C101.737 297.383 101.97 297.697 101.919 298.034L99.857 311.936C99.8121 312.245 99.5479 312.464 99.2445 312.464H99.2473Z" fill="#1E2B62"/>
<path d="M176.425 289.284C176.402 289.284 176.377 289.284 176.352 289.278C176.012 289.239 175.767 288.93 175.809 288.59L183.79 220.418C183.815 220.21 183.941 220.031 184.127 219.935L190.443 216.78C190.75 216.628 191.121 216.752 191.275 217.058C191.427 217.364 191.303 217.734 190.997 217.889L184.978 220.895L177.037 288.736C177.001 289.051 176.734 289.284 176.422 289.284H176.425Z" fill="#F0F9FD"/>
<path d="M61.7018 440.597C61.6372 440.597 61.5753 440.586 61.5107 440.566C61.21 440.468 31.1188 430.358 13.7367 395.375C13.5849 395.069 13.7086 394.699 14.0149 394.544C14.3211 394.393 14.692 394.516 14.8438 394.822C31.9842 429.317 61.595 439.289 61.8929 439.384C62.2188 439.491 62.3958 439.839 62.2891 440.165C62.2048 440.426 61.9603 440.591 61.699 440.591L61.7018 440.597Z" fill="#F0F9FD"/>
<path d="M261.149 444.101C257.417 444.101 253.697 443.94 250.044 443.584C249.704 443.55 249.454 443.247 249.487 442.907C249.521 442.568 249.819 442.318 250.165 442.351C282.835 445.541 321.134 432.739 321.517 432.61C321.843 432.503 322.194 432.674 322.303 432.997C322.413 433.32 322.239 433.671 321.916 433.783C321.573 433.898 291.063 444.101 261.149 444.101Z" fill="#F0F9FD"/>
<path d="M119.205 160.326C119.205 160.326 116.555 175.865 116.735 182.086C116.999 191.204 123.532 191.788 123.532 191.788L215.439 184.32C215.439 184.32 227.566 181.83 225.574 170.382C223.582 158.933 219.845 150.469 219.845 150.469L119.205 160.326Z" fill="#00A5F3"/>
<path d="M210.383 169.772L135.072 176.746C120.949 178.254 108.105 168.484 105.807 154.481C101.03 125.351 99.6501 88.0686 110.595 76.3674C124.445 61.5583 160.619 53.4365 160.619 53.4365L176.262 54.9609C176.262 54.9609 204.814 61.8587 217.899 71.665C230.985 81.4712 228.392 161.797 228.392 161.797L210.383 169.77V169.772Z" fill="#00A5F3"/>
<path d="M206.925 141.381C206.908 141.381 206.891 141.381 206.874 141.381L134.499 135.648C134.159 135.62 133.904 135.323 133.932 134.983C133.96 134.643 134.249 134.391 134.598 134.416L206.973 140.149C207.313 140.177 207.568 140.474 207.54 140.814C207.515 141.137 207.242 141.384 206.922 141.384L206.925 141.381Z" fill="#1E2B62"/>
<path d="M144.029 136.397C143.731 136.397 143.467 136.181 143.417 135.878L137.985 102.644C137.929 102.307 138.159 101.987 138.496 101.934C138.836 101.88 139.154 102.108 139.207 102.444L144.639 135.679C144.695 136.015 144.465 136.335 144.127 136.389C144.094 136.394 144.06 136.397 144.026 136.397H144.029Z" fill="#1E2B62"/>
<path d="M119.134 173.414C118.803 173.414 118.527 173.15 118.516 172.816C118.505 172.473 118.772 172.187 119.114 172.176L210.082 169.166C210.422 169.146 210.712 169.422 210.723 169.764C210.734 170.107 210.467 170.393 210.125 170.404L119.157 173.414C119.157 173.414 119.143 173.414 119.134 173.414Z" fill="#1E2B62"/>
<path d="M144.56 26.8276C145.518 24.4244 146.979 22.302 149.078 20.758C149.733 20.2779 150.436 19.8764 151.172 19.5395C150.444 16.3447 150.503 12.9758 151.481 9.82313C152.144 7.68389 153.431 5.69905 155.839 5.42112C157.516 5.22741 159.003 5.88154 160.248 6.88939C160.582 5.69905 161.063 4.55363 161.72 3.48121C162.63 1.99328 164.047 0.432369 165.946 0.477287C167.798 0.519398 169.015 2.06908 169.706 3.62158C169.914 4.0876 170.108 4.55925 170.29 5.0337C170.386 4.94667 170.484 4.85964 170.583 4.77542C171.544 3.84055 172.634 3.04325 173.814 2.41159C175.646 1.29986 177.624 0.471672 179.647 0.140399C181.763 -0.204912 184.005 0.0477546 185.781 1.33635C187.538 2.61091 188.501 4.62663 188.26 6.80517C188.119 8.06289 187.656 9.17181 186.984 10.1544C189.639 11.5469 191.929 13.6384 193.537 16.1763C194.826 18.2173 196.046 20.9096 193.922 22.841C193.157 23.5373 192.208 24.0398 191.185 24.416C191.544 25.9123 191.657 27.4704 191.19 28.9022C190.687 30.4463 188.923 32.9477 184.955 33.1133C184.022 33.1526 183.126 32.987 182.263 32.6922C182.887 35.5052 182.238 38.6186 180.086 40.6315C177.855 42.7174 174.494 43.248 171.78 42.0437C171.529 42.2711 171.268 42.4929 170.99 42.7006C169.346 43.9274 167.371 45.1065 165.376 45.6315C163.229 46.1958 161.099 45.828 159.377 44.4131C159.32 44.3654 159.261 44.3177 159.202 44.2671C156.775 45.289 154.057 45.3957 151.644 43.8994C149.778 42.7399 148.412 40.8084 148.311 38.5765C148.261 37.4901 148.528 36.4541 148.986 35.4968C147.581 35.4519 146.221 34.9718 145.15 33.8854C143.163 31.8725 143.602 29.2279 144.56 26.8247V26.8276Z" fill="#1E2B62"/>
<path d="M178.83 40.7439L176.11 54.9016C176.11 54.9016 182.005 59.9999 181.777 63.5091C181.55 67.0212 171.176 65.8701 164.772 61.8106C158.877 58.074 160.009 55.3536 160.009 55.3536L164.544 35.9854L178.83 40.7411V40.7439Z" fill="#D08F79"/>
<path d="M176.2 54.941C176.161 54.941 176.121 54.9382 176.082 54.9298C175.745 54.8652 175.526 54.5396 175.593 54.2055L178.122 41.1595L165 36.7884L161.209 53.0573C161.131 53.3914 160.799 53.5963 160.465 53.5205C160.13 53.4419 159.922 53.1106 160.001 52.7765L163.946 35.8451C163.985 35.6738 164.095 35.5307 164.247 35.4465C164.399 35.3622 164.578 35.3454 164.744 35.3987L179.03 40.1545C179.325 40.2527 179.502 40.5531 179.443 40.8591L176.81 54.4385C176.754 54.7333 176.492 54.941 176.203 54.941H176.2Z" fill="#1E2B62"/>
<path d="M173.007 18.2092C169.607 23.6106 163.771 22.5943 162.313 29.0794C162.186 29.6409 161.385 30.0059 160.059 29.3911C157.755 28.7201 155.861 29.4753 155.22 30.8509C154.287 32.847 155.22 35.4186 157.353 36.783C158.393 37.4483 159.564 37.6897 160.629 37.555C161.765 43.2989 164.903 46.2692 172.951 46.8335C184.938 47.6701 185.652 39.3489 185.857 30.1238C186.174 15.8032 176.404 12.819 173.01 18.212L173.007 18.2092Z" fill="#D08F79"/>
<path d="M174.566 47.5097C174.032 47.5097 173.478 47.49 172.905 47.4507C165.237 46.9145 161.497 44.225 160.134 38.2116C159.052 38.234 157.97 37.9168 157.018 37.3076C154.604 35.7635 153.59 32.8775 154.657 30.5923C155.483 28.8236 157.779 28.0853 160.232 28.8012C160.263 28.8096 160.291 28.8208 160.319 28.8349C160.968 29.1353 161.415 29.1381 161.617 29.037C161.654 29.0201 161.699 28.9893 161.71 28.9472C162.59 25.0393 165.034 23.6215 167.4 22.2515C169.207 21.2043 171.076 20.1207 172.486 17.8832C173.953 15.553 176.608 14.562 179.25 15.3537C182.88 16.443 186.685 20.8983 186.477 30.1403C186.336 36.3952 185.943 41.8275 182.504 44.9606C180.627 46.6731 178.019 47.5125 174.571 47.5125L174.566 47.5097ZM160.628 36.9342C160.921 36.9342 161.179 37.1392 161.235 37.4339C162.382 43.2396 165.678 45.7017 172.992 46.2127C176.926 46.485 179.758 45.7775 181.663 44.0397C184.74 41.2352 185.1 36.0695 185.235 30.1066C185.426 21.5525 181.936 17.448 178.89 16.5356C176.763 15.8955 174.712 16.6648 173.532 18.5401C171.961 21.0359 169.867 22.2487 168.018 23.3211C165.689 24.6715 163.677 25.8366 162.918 29.2167C162.829 29.6209 162.562 29.9494 162.165 30.1459C161.564 30.4407 160.741 30.3817 159.844 29.9775C157.703 29.3711 156.237 30.1375 155.781 31.1145C154.989 32.8101 155.826 35.0729 157.686 36.2632C158.563 36.8247 159.58 37.0662 160.55 36.9426C160.578 36.9398 160.603 36.937 160.628 36.937V36.9342Z" fill="#1E2B62"/>
<path d="M160.762 34.947C160.478 34.947 160.225 34.7533 160.158 34.4641C160.079 34.13 159.739 33.1783 159.107 32.7909C158.804 32.6056 158.461 32.5635 158.051 32.6646C157.719 32.7488 157.382 32.5466 157.3 32.2154C157.216 31.8841 157.418 31.5472 157.75 31.4658C158.489 31.2805 159.163 31.3732 159.759 31.7409C160.97 32.4849 161.349 34.1244 161.366 34.1918C161.442 34.5259 161.231 34.8571 160.897 34.9329C160.852 34.9442 160.804 34.947 160.759 34.947H160.762Z" fill="#1E2B62"/>
<path d="M387.436 32.9029C353.484 36.1117 328.749 68.1975 332.194 104.565C332.225 104.882 331.75 104.927 331.722 104.61C328.277 68.2396 297.961 41.3588 264.008 44.5704C230.054 47.7793 205.321 79.8651 208.766 116.232C217.681 210.398 343.818 232.36 343.818 232.36C343.818 232.36 343.894 232.226 344.021 231.995C344.189 232.2 344.29 232.315 344.29 232.315C344.29 232.315 464.065 187.108 455.15 92.942C451.705 56.5721 421.391 29.6912 387.436 32.9029Z" fill="#FFE02E"/>
<path d="M206.922 140.763C206.922 140.763 213.289 140.808 213.815 140.547C214.34 140.285 220.662 131.995 221.713 130.154C222.767 128.312 225.268 126.338 227.111 129.101C228.954 131.863 224.742 140.415 224.742 140.415C224.742 140.415 241.2 140.415 244.493 140.547C247.784 140.678 251.998 140.942 252.13 143.573C252.263 146.203 248.708 146.86 248.708 146.86C248.708 146.86 256.081 147.124 255.949 150.148C255.817 153.174 249.762 154.227 249.762 154.227C249.762 154.227 255.424 154.752 254.895 157.646C254.37 160.541 248.969 161.33 248.969 161.33C252.392 162.382 254.103 165.67 247.651 167.119C241.2 168.567 210.103 169.786 210.103 169.786L206.922 140.763Z" fill="#D08F79"/>
<path d="M233.587 147.868C233.253 147.868 232.977 147.602 232.969 147.265C232.961 146.922 233.23 146.639 233.573 146.63L249.505 146.223C249.828 146.198 250.132 146.484 250.14 146.827C250.149 147.169 249.879 147.453 249.536 147.461L233.604 147.868C233.604 147.868 233.593 147.868 233.587 147.868Z" fill="#1E2B62"/>
<path d="M236.267 155.3C235.935 155.3 235.66 155.036 235.649 154.702C235.638 154.36 235.904 154.073 236.247 154.062L250.336 153.568C250.685 153.554 250.966 153.823 250.977 154.166C250.988 154.508 250.721 154.795 250.378 154.806L236.289 155.3C236.289 155.3 236.275 155.3 236.267 155.3Z" fill="#1E2B62"/>
<path d="M239.174 162.403C238.845 162.403 238.569 162.144 238.555 161.81C238.539 161.468 238.806 161.179 239.146 161.165L248.986 160.718C249.315 160.707 249.618 160.968 249.632 161.308C249.649 161.65 249.382 161.939 249.042 161.953L239.202 162.4C239.202 162.4 239.182 162.4 239.174 162.4V162.403Z" fill="#1E2B62"/>
<path d="M455.099 140.69C455.099 140.69 450.373 140.81 449.847 140.547C449.322 140.283 442.999 131.995 441.949 130.154C440.895 128.312 438.394 126.338 436.551 129.101C434.707 131.863 438.92 140.415 438.92 140.415C438.92 140.415 422.462 140.415 419.169 140.547C415.875 140.678 411.663 140.942 411.531 143.573C411.399 146.203 414.954 146.86 414.954 146.86C414.954 146.86 407.581 147.124 407.713 150.148C407.845 153.174 413.9 154.227 413.9 154.227C413.9 154.227 408.238 154.752 408.766 157.646C409.292 160.541 414.692 161.33 414.692 161.33C411.27 162.382 409.559 165.67 416.01 167.119C422.462 168.564 453.559 169.786 453.559 169.786L455.099 140.69Z" fill="#FFE9DD"/>
<path d="M430.077 147.869C430.077 147.869 430.066 147.869 430.06 147.869L414.128 147.462C413.785 147.454 413.515 147.17 413.524 146.828C413.532 146.485 413.824 146.201 414.159 146.224L430.091 146.631C430.434 146.639 430.703 146.923 430.695 147.265C430.687 147.602 430.411 147.869 430.077 147.869Z" fill="#1E2B62"/>
<path d="M427.39 155.3C427.39 155.3 427.376 155.3 427.367 155.3L413.279 154.806C412.936 154.795 412.669 154.508 412.68 154.166C412.691 153.823 412.995 153.554 413.321 153.568L427.41 154.062C427.752 154.073 428.019 154.36 428.008 154.702C427.997 155.036 427.721 155.3 427.39 155.3Z" fill="#1E2B62"/>
<path d="M424.483 162.403C424.483 162.403 424.463 162.403 424.455 162.403L414.614 161.956C414.274 161.942 414.007 161.65 414.024 161.311C414.041 160.968 414.333 160.71 414.67 160.721L424.511 161.167C424.851 161.181 425.118 161.473 425.101 161.813C425.087 162.144 424.811 162.405 424.483 162.405V162.403Z" fill="#1E2B62"/>
</g>
<defs>
<clipPath id="clip0_3073_38653">
<rect width="662" height="472" fill="white"/>
</clipPath>
</defs>
</svg>
