<svg width="379" height="423" viewBox="0 0 379 423" fill="none" xmlns="http://www.w3.org/2000/svg">
<path d="M303.749 214.604C298.228 207.882 290.432 203.008 281.838 201.566C278.364 200.981 274.524 200.787 271.921 198.408C267.78 194.624 269.347 187.488 273.072 183.295C276.797 179.101 282.07 176.598 286.125 172.722C296.007 163.28 296.185 145.581 286.494 135.941C276.631 126.134 260.047 125.311 250.874 114.859C244.054 107.088 243.037 95.7745 244.187 85.5C245.338 75.2256 248.313 65.1227 248.208 54.7879C248.039 38.2865 239.445 22.0901 225.874 12.6956C212.302 3.30121 194.109 0.959756 178.599 6.60848C160.603 -3.53889 136.62 -1.86143 120.21 10.6846C103.8 23.2338 95.9052 45.9304 100.994 65.9487C102.764 72.9159 105.946 80.2611 103.387 86.9773C99.9163 96.0763 87.4572 99.4598 84.5332 108.749C81.8061 117.413 88.8271 126.712 86.7961 135.567C85.4835 141.279 80.7096 145.463 77.8523 150.584C73.4249 158.527 73.9016 168.503 77.1721 176.985C80.4426 185.471 86.2177 192.734 92.1961 199.59C129.456 242.317 179.963 275.45 236.13 283.234C265.692 287.332 315.687 272.01 311.886 233.695C311.189 226.683 308.218 220.04 303.752 214.601L303.749 214.604Z" fill="#FFE02E"/>
<path d="M205.424 183.037C205.424 183.037 346.059 309.377 363.889 334.399C381.719 359.422 383.893 395.319 331.248 391.166C278.602 387.014 192.691 315.903 192.691 315.903L205.424 183.037Z" fill="#FFE9DD"/>
<path d="M206.551 185.941C224.032 201.696 346.385 312.253 362.744 335.216C367.715 342.189 371.208 349.627 372.851 356.721C374.606 364.298 374.094 371.091 371.373 376.365C366.739 385.349 355.634 390.099 339.253 390.099C336.755 390.099 334.098 389.988 331.355 389.772C310.066 388.094 279.519 374.624 243.013 350.821C217.847 334.412 197.751 318.225 194.153 315.293L206.548 185.938L206.551 185.941ZM205.42 183.037L192.688 315.903C192.688 315.903 278.598 387.014 331.244 391.166C334.072 391.389 336.736 391.497 339.253 391.497C383.607 391.497 380.759 358.078 363.885 334.399C346.055 309.377 205.42 183.037 205.42 183.037Z" fill="#1E2B62"/>
<path d="M45.0123 169.224C45.0123 169.224 87.6973 158.231 123.142 160.57C158.587 162.908 205.419 183.037 205.419 183.037C205.419 183.037 225.395 253.214 231.637 296.835C234.212 314.82 227.134 333.043 212.504 343.823C210.292 345.453 207.978 346.863 205.601 347.918L194.639 402.423H19.7891L37.4638 341.386L45.0123 169.224Z" fill="#3C487D"/>
<path d="M222.679 411.118H299.102C303.628 411.118 307.702 408.367 309.387 404.167L378.185 232.716C381.106 225.438 375.744 217.518 367.9 217.518H298.037C289.548 217.518 281.91 222.68 278.751 230.556L212.394 395.919C209.473 403.198 214.835 411.118 222.679 411.118Z" fill="#00A5F3"/>
<path d="M267.893 258.32C267.807 258.32 267.718 258.304 267.632 258.269C267.273 258.126 267.098 257.716 267.241 257.357L278.102 230.295C281.388 222.108 289.213 216.815 298.039 216.815C298.427 216.815 298.739 217.13 298.739 217.514C298.739 217.899 298.424 218.213 298.039 218.213C289.788 218.213 282.475 223.16 279.402 230.813L268.541 257.875C268.433 258.148 268.169 258.314 267.89 258.314L267.893 258.32Z" fill="#98E0FF"/>
<path d="M325.88 360.82L321.393 374.255C321.393 374.255 334.929 374.166 342.522 357.404C347.566 346.272 356.72 323.684 362.301 309.765C365.263 302.382 363.432 293.934 357.651 288.466C349.772 281.013 338.645 271.679 331.242 270.494C318.701 268.486 328.614 283.11 335.682 290.789C335.682 290.789 321.374 278.319 316.291 285.391C308.679 295.986 335.778 303.246 337.097 319.817C337.097 319.817 312.576 292.752 308.463 302.671C304.487 312.262 323.033 322.025 327.13 334.4C327.13 334.4 312.573 314.95 304.935 322.282C297.832 329.1 323.665 349.058 325.877 360.82H325.88Z" fill="#FFE9DD"/>
<path d="M321.393 374.955C321.167 374.955 320.957 374.847 320.827 374.665C320.694 374.484 320.659 374.246 320.729 374.033L325.159 360.772C324.142 355.88 318.882 349.399 313.79 343.13C306.677 334.368 299.958 326.092 304.455 321.778C305.886 320.405 307.627 319.792 309.639 319.957C314.639 320.367 320.319 325.577 323.955 329.533C321.863 326.289 319.038 323.201 316.273 320.183C310.672 314.067 305.384 308.288 307.821 302.408C308.422 300.959 309.436 300.101 310.841 299.86C317.404 298.741 331.357 312.72 336.061 317.676C334.516 311.001 328.633 305.89 323.382 301.327C317.242 295.99 311.441 290.948 315.723 284.988C316.727 283.59 318.122 282.777 319.867 282.577C323.43 282.164 327.877 284.419 331.22 286.596C327.111 281.303 323.23 274.771 324.978 271.514C325.874 269.849 328.02 269.274 331.354 269.808C338.899 271.015 350.08 280.346 358.131 287.962C364.151 293.655 366.042 302.319 362.949 310.029C357.756 322.975 348.281 346.381 343.158 357.694C335.47 374.665 321.536 374.955 321.396 374.955H321.39H321.393ZM309.004 321.33C307.618 321.33 306.445 321.81 305.425 322.788C301.859 326.21 308.476 334.365 314.877 342.247C320.141 348.728 325.579 355.429 326.57 360.69C326.593 360.807 326.586 360.928 326.545 361.039L322.397 373.461C325.614 373.032 335.768 370.615 341.884 357.116C346.997 345.828 356.463 322.442 361.653 309.505C364.529 302.328 362.772 294.271 357.171 288.975C349.264 281.496 338.327 272.337 331.134 271.187C329.291 270.892 326.939 270.822 326.214 272.172C324.606 275.165 330.159 283.752 336.201 290.316C336.452 290.589 336.449 291.012 336.188 291.278C335.927 291.545 335.508 291.561 335.225 291.317C335.133 291.237 325.935 283.269 320.029 283.962C318.675 284.121 317.639 284.721 316.864 285.798C313.498 290.484 317.496 294.347 324.301 300.263C330.314 305.489 337.132 311.414 337.796 319.757C337.822 320.056 337.65 320.335 337.377 320.456C337.103 320.574 336.779 320.507 336.579 320.285C331.465 314.642 316.915 300.212 311.079 301.232C310.167 301.391 309.525 301.947 309.115 302.935C307.017 307.993 311.785 313.2 317.305 319.23C321.577 323.894 325.995 328.72 327.8 334.178C327.908 334.505 327.765 334.861 327.46 335.02C327.155 335.178 326.78 335.093 326.574 334.819C326.478 334.692 316.857 321.952 309.522 321.352C309.344 321.336 309.172 321.33 309.001 321.33H309.004Z" fill="#1E2B62"/>
<path d="M349.85 304.044C349.685 304.044 349.52 303.987 349.386 303.866L335.224 291.313C334.934 291.056 334.909 290.615 335.163 290.325C335.421 290.033 335.862 290.008 336.152 290.265L350.314 302.817C350.603 303.075 350.629 303.516 350.375 303.805C350.238 303.961 350.044 304.041 349.85 304.041V304.044Z" fill="#1E2B62"/>
<path d="M45.015 169.224L84.5217 325.51C84.5217 325.51 138.207 265.98 174.529 258.339C210.851 250.698 255.125 266.91 253.631 278.37C252.137 289.829 228.932 276.308 214.884 281.07C214.884 281.07 221.848 282.243 226.326 284.673C231.726 287.602 231.647 296.831 224.168 297.912C224.168 297.912 228.214 311.103 212.885 310.575C212.885 310.575 215.701 327.143 197.41 324.44C197.41 324.44 187.817 326.219 181.578 323.414C181.578 323.414 120.666 420.312 76.3407 422.273C32.0157 424.233 6.77654 316.789 2.27603 275.92C-2.22449 235.048 0.521588 179.346 45.0182 169.227L45.015 169.224Z" fill="#FFE9DD"/>
<path d="M75.1528 423C51.3026 423 34.0506 391.824 23.7178 365.414C11.8976 335.204 4.08211 298.738 1.57759 275.997C-1.27337 250.101 -0.256308 228.183 4.597 210.852C11.1761 187.358 24.7254 173.122 44.8601 168.544C45.2351 168.452 45.6134 168.693 45.6992 169.071C45.785 169.449 45.5498 169.824 45.1716 169.91C25.5772 174.368 12.3807 188.27 5.94779 211.23C1.14216 228.389 0.140983 250.127 2.97288 275.844C5.46786 298.493 13.2516 334.813 25.0273 364.906C35.3696 391.335 52.6693 422.632 76.3097 421.577C88.4922 421.04 103.167 413.091 119.92 397.959C120.206 397.699 120.651 397.721 120.911 398.01C121.172 398.296 121.146 398.741 120.86 398.998C103.856 414.356 88.8895 422.422 76.3701 422.975C75.9632 422.994 75.5596 423 75.1559 423H75.1528Z" fill="#1E2B62"/>
<path d="M246.691 283.819C243.69 283.819 240.032 283.148 236.059 282.424C233.704 281.992 231.266 281.547 228.832 281.217C228.447 281.166 228.18 280.813 228.231 280.429C228.282 280.045 228.635 279.774 229.019 279.828C231.486 280.162 233.939 280.61 236.314 281.045C242.642 282.205 248.62 283.298 251.318 281.328C252.224 280.667 252.752 279.673 252.933 278.281C253.721 272.239 239.641 264.213 220.876 260.013C220.498 259.931 220.26 259.556 220.346 259.178C220.428 258.8 220.8 258.562 221.182 258.647C241.294 263.149 255.231 271.482 254.319 278.462C254.09 280.229 253.356 281.573 252.138 282.459C250.781 283.45 248.916 283.819 246.688 283.819H246.691Z" fill="#1E2B62"/>
<path d="M222.144 297.648C222.001 297.648 221.855 297.603 221.731 297.511C218.527 295.157 214.58 293.715 210.61 293.451C210.226 293.425 209.933 293.092 209.959 292.704C209.984 292.32 210.324 292.043 210.705 292.053C214.936 292.336 219.147 293.873 222.564 296.383C222.875 296.612 222.942 297.05 222.713 297.362C222.577 297.549 222.364 297.648 222.147 297.648H222.144Z" fill="#1E2B62"/>
<path d="M210.622 310.232C210.441 310.232 210.26 310.162 210.123 310.023C207.819 307.681 204.497 306.296 201.208 306.296C201.138 306.296 201.071 306.296 201.001 306.296C200.617 306.309 200.296 305.994 200.289 305.607C200.283 305.219 200.591 304.901 200.979 304.895C204.713 304.809 208.505 306.379 211.124 309.038C211.394 309.314 211.391 309.756 211.115 310.029C210.978 310.162 210.8 310.229 210.622 310.229V310.232Z" fill="#1E2B62"/>
<path d="M68.4988 348.604C68.359 348.604 68.2191 348.563 68.0952 348.477C67.7773 348.255 67.701 347.817 67.9267 347.502L82.3118 327.071C82.5343 326.753 82.9729 326.677 83.2876 326.902C83.6054 327.125 83.6817 327.563 83.456 327.878L69.0709 348.309C68.9342 348.503 68.7181 348.608 68.4988 348.608V348.604Z" fill="#1E2B62"/>
<path d="M90.8081 166.653L95.1497 164.143L134.265 76.2705L173.206 128.666L154.327 166.946L156.965 169.071C159.021 170.729 160.178 173.255 160.093 175.895L157.41 257.617L89.5813 173.223C87.8904 171.12 88.4721 168.007 90.8113 166.653H90.8081Z" fill="#FFE9DD"/>
<path d="M156.959 169.773C156.807 169.773 156.648 169.722 156.521 169.618L153.883 167.492C153.628 167.286 153.549 166.93 153.695 166.638L172.387 128.742L134.415 77.6526L95.786 164.43C95.627 164.785 95.2139 164.941 94.8611 164.785C94.5083 164.626 94.3494 164.213 94.5051 163.861L133.621 75.9879C133.723 75.7591 133.935 75.6034 134.183 75.5749C134.434 75.5463 134.676 75.6543 134.822 75.8544L173.763 128.25C173.919 128.463 173.944 128.742 173.83 128.977L155.198 166.752L157.398 168.528C157.7 168.769 157.748 169.211 157.503 169.513C157.366 169.684 157.163 169.773 156.956 169.773H156.959Z" fill="#1E2B62"/>
<path d="M148.529 179.26C148.424 179.26 148.319 179.238 148.217 179.187C147.871 179.015 147.728 178.596 147.903 178.25L155.064 163.833C155.235 163.486 155.655 163.343 156.001 163.518C156.348 163.69 156.491 164.109 156.316 164.455L149.155 178.873C149.031 179.12 148.786 179.263 148.526 179.263L148.529 179.26Z" fill="#1E2B62"/>
<path d="M220.302 82.2882C220.302 82.2882 202.484 160.077 170.376 154.384C130.86 147.379 133.746 97.9477 133.746 97.9477C133.746 97.9477 119.418 93.6842 120.508 77.4052C121.599 61.1293 147.143 57.4408 148.532 79.2065C148.532 79.2065 164.69 72.1091 167.494 52.167C167.494 52.167 174.95 79.1462 220.302 82.2882Z" fill="#FFE9DD"/>
<path d="M168 56.8528C169.449 59.566 171.912 63.2609 175.93 67.0669C182.804 73.5798 195.74 81.6462 218.551 83.5588C215.91 94.0779 199.869 153.278 173.724 153.278C172.701 153.278 171.655 153.186 170.622 153.002C161.929 151.461 154.663 147.652 149.035 141.679C144.502 136.872 140.993 130.652 138.603 123.186C134.494 110.347 135.139 98.1476 135.149 98.0269C135.187 97.382 134.773 96.7911 134.154 96.6036C133.613 96.4416 120.91 92.4227 121.911 77.4971C122.435 69.6594 128.998 65.4308 134.907 65.4308C140.39 65.4308 146.482 69.0716 147.137 79.2952C147.166 79.7527 147.417 80.1657 147.808 80.404C148.03 80.5406 148.285 80.6074 148.536 80.6074C148.726 80.6074 148.92 80.5692 149.098 80.4898C149.734 80.2102 163.607 73.9293 168 56.8497V56.8528ZM167.498 52.1699C164.694 72.112 148.536 79.2095 148.536 79.2095C147.859 68.5951 141.435 64.0329 134.907 64.0329C128.048 64.0329 121.069 69.0684 120.512 77.4081C119.422 93.6839 133.75 97.9475 133.75 97.9475C133.75 97.9475 130.864 147.375 170.38 154.384C171.515 154.584 172.627 154.683 173.727 154.683C203.724 154.683 220.306 82.288 220.306 82.288C174.954 79.1459 167.498 52.1699 167.498 52.1699Z" fill="#1E2B62"/>
<path d="M137.182 91.797H137.173C136.785 91.7907 136.476 91.473 136.483 91.0854C136.572 85.2651 133.991 79.5242 129.579 75.7277C129.287 75.4767 129.252 75.0319 129.506 74.7396C129.757 74.4442 130.202 74.4124 130.495 74.6666C135.218 78.7331 137.983 84.8775 137.884 91.1076C137.878 91.492 137.567 91.797 137.185 91.797H137.182Z" fill="#1E2B62"/>
</svg>
