<svg width="802" height="524" viewBox="0 0 802 524" fill="none" xmlns="http://www.w3.org/2000/svg">
<g clip-path="url(#clip0_3214_21160)">
<path d="M708.177 361.613L764.726 11.5199L764.212 361.613H775.77V0.643066H755.065L696.438 361.613H708.177Z" fill="white"/>
<path d="M775.767 362.256H764.205C764.033 362.256 763.869 362.189 763.749 362.066C763.63 361.946 763.562 361.779 763.562 361.61L764.068 19.6263L708.811 361.715C708.761 362.028 708.492 362.256 708.174 362.256H696.434C696.244 362.256 696.066 362.174 695.943 362.028C695.82 361.885 695.768 361.695 695.797 361.508L754.427 0.540628C754.477 0.22794 754.749 0 755.065 0H775.77C776.126 0 776.416 0.289309 776.416 0.642909V361.61C776.416 361.966 776.126 362.253 775.77 362.253L775.767 362.256ZM764.851 360.967H775.121V1.28874H755.608L697.188 360.967H707.621L764.088 11.4175C764.141 11.0843 764.448 10.8476 764.778 10.8769C765.115 10.9032 765.372 11.1837 765.372 11.5198L764.854 360.967H764.851Z" fill="#1E2B62"/>
<path d="M535.704 361.613L592.256 11.5199L591.739 361.613H603.3V0.643066H582.595L523.965 361.613H535.704Z" fill="white"/>
<path d="M603.301 362.256H591.74C591.567 362.256 591.403 362.189 591.284 362.066C591.164 361.946 591.096 361.779 591.096 361.61L591.602 19.6263L536.342 361.715C536.293 362.028 536.021 362.256 535.705 362.256H523.965C523.775 362.256 523.597 362.174 523.474 362.028C523.352 361.885 523.299 361.695 523.328 361.508L581.959 0.540628C582.008 0.22794 582.28 0 582.596 0H603.301C603.657 0 603.947 0.289309 603.947 0.642909V361.61C603.947 361.966 603.657 362.253 603.301 362.253V362.256ZM592.386 360.967H602.655V1.28874H583.142L524.723 360.967H535.155L591.62 11.4175C591.675 11.0843 591.982 10.8476 592.31 10.8769C592.646 10.9032 592.903 11.1837 592.903 11.5198L592.386 360.967Z" fill="#1E2B62"/>
<path d="M755.063 0.645996L706.921 303.693H532.793L582.595 0.645996H755.063Z" fill="white"/>
<path d="M706.92 304.339H532.792C532.602 304.339 532.424 304.257 532.301 304.111C532.178 303.967 532.126 303.774 532.158 303.587L581.957 0.540628C582.007 0.22794 582.279 0 582.591 0H755.062C755.252 0 755.431 0.0818248 755.554 0.225018C755.676 0.368211 755.729 0.558162 755.7 0.74519L707.558 303.795C707.508 304.108 707.239 304.339 706.92 304.339ZM533.552 303.05H706.371L754.308 1.28874H583.141L533.552 303.05Z" fill="#1E2B62"/>
<path d="M448.475 182.27C448.475 182.27 490.23 448.3 490.639 512.702C490.674 518.334 486.132 522.916 480.502 522.916H412.549C409.568 522.916 407.945 519.435 409.86 517.153L420.986 503.9L408.416 323.553L387.389 512.296C386.717 518.342 381.601 522.919 375.515 522.919H290.807C287.714 522.919 286.446 518.95 288.966 517.156L302.821 507.296C302.821 507.296 359.648 253.528 365.667 181.841L448.475 182.273V182.27Z" fill="white"/>
<path d="M480.502 523.559H412.55C410.916 523.559 409.475 522.641 408.785 521.16C408.095 519.681 408.32 517.986 409.369 516.735L420.328 503.684L408.273 330.701L388.036 512.366C387.326 518.749 381.944 523.562 375.522 523.562H290.814C289.118 523.562 287.692 522.519 287.174 520.905C286.657 519.292 287.218 517.612 288.598 516.63L302.252 506.913C304.29 497.79 359.167 251.646 365.03 181.786C365.057 181.452 365.337 181.195 365.674 181.195H365.676L448.485 181.628C448.8 181.628 449.069 181.859 449.119 182.171C449.537 184.831 490.885 448.984 491.292 512.697C491.309 515.596 490.196 518.325 488.155 520.379C486.118 522.431 483.402 523.559 480.511 523.559H480.502ZM408.416 322.907H408.431C408.764 322.913 409.039 323.173 409.062 323.506L421.632 503.854C421.644 504.02 421.591 504.184 421.483 504.313L410.357 517.565C409.624 518.439 409.472 519.582 409.954 520.616C410.436 521.651 411.407 522.27 412.55 522.27H480.502C483.048 522.27 485.44 521.277 487.234 519.471C489.032 517.662 490.014 515.26 489.997 512.705C489.599 450.475 450.04 196.444 447.923 182.914L366.258 182.487C360.046 254.192 304.018 504.903 303.451 507.434C303.415 507.589 303.325 507.726 303.196 507.816L289.34 517.676C288.23 518.468 288.124 519.658 288.396 520.508C288.668 521.358 289.446 522.267 290.808 522.267H375.516C381.28 522.267 386.113 517.948 386.75 512.217L407.776 323.474C407.811 323.147 408.089 322.901 408.416 322.901V322.907Z" fill="#1E2B62"/>
<path d="M407.974 323.307C407.637 323.307 407.351 323.044 407.33 322.702L403.235 257.406C402.873 252 399.537 247.35 394.527 245.273C394.197 245.135 394.042 244.758 394.179 244.431C394.316 244.101 394.693 243.946 395.021 244.083C400.487 246.348 404.127 251.421 404.521 257.324L408.617 322.623C408.64 322.98 408.368 323.284 408.014 323.307C408 323.307 407.988 323.307 407.974 323.307Z" fill="#1E2B62"/>
<path d="M484.18 503.658H420.545C420.189 503.658 419.902 503.369 419.902 503.015C419.902 502.661 420.192 502.372 420.545 502.372H484.18C484.537 502.372 484.823 502.661 484.823 503.015C484.823 503.369 484.534 503.658 484.18 503.658Z" fill="#1E2B62"/>
<path d="M381.26 507.05H302.377C302.021 507.05 301.734 506.761 301.734 506.405C301.734 506.048 302.024 505.759 302.377 505.759H381.26C381.616 505.759 381.906 506.048 381.906 506.405C381.906 506.761 381.616 507.05 381.26 507.05Z" fill="#1E2B62"/>
<path d="M290.785 87.4095C290.785 87.4095 278.599 78.3971 275.193 74.5864C271.791 70.7786 271.411 67.2836 271.411 67.2836C271.411 67.2836 265.748 60.4453 266.295 57.0116C266.71 54.4049 269.002 54.9193 271.457 57.0116C271.457 57.0116 267.914 53.0081 269.575 50.0916C270.843 47.8619 273.366 50.4218 274.644 51.9794C275.921 53.537 282.08 59.7323 282.08 59.7323C282.08 59.7323 274.533 50.0741 277.327 47.7596C279.56 45.9098 282.589 50.5504 284.673 52.7363C286.757 54.9222 298.482 65.9948 298.482 65.9948C298.482 65.9948 296.86 54.0776 301.312 54.9806C303.37 55.3985 302.902 58.3296 305.314 62.5991C306.524 64.7441 319.026 79.905 319.555 83.1342C320.085 86.3633 320.579 92.3775 320.579 92.3775C320.579 92.3775 300.49 100.972 292.148 97.0123C291.464 96.6879 291.3 87.7894 290.783 87.4066L290.785 87.4095Z" fill="#FFE9DD"/>
<path d="M297.887 98.7011C295.607 98.7011 293.531 98.3826 291.874 97.5965C291.269 97.3101 291.108 96.4889 290.719 91.7548C290.602 90.3082 290.441 88.3591 290.289 87.8418C288.968 86.8628 277.986 78.6774 274.715 75.0158C271.637 71.5704 270.935 68.3763 270.801 67.5522C269.833 66.3628 265.112 60.3545 265.662 56.9091C265.887 55.4889 266.603 54.9424 267.164 54.7349C267.76 54.5158 268.482 54.5684 269.292 54.881C268.558 53.379 268.059 51.4532 269.014 49.7728C269.532 48.8611 270.222 48.6214 270.707 48.5805C271.932 48.4695 273.431 49.4806 275.141 51.5701C275.58 52.1048 276.621 53.2124 277.787 54.4252C276.276 51.6256 275.279 48.6185 276.916 47.2626C279.205 45.366 281.777 48.3935 283.847 50.8219C284.309 51.3655 284.744 51.8769 285.142 52.2919C286.784 54.0131 294.572 61.4036 297.662 64.3289C297.442 61.6199 297.331 56.687 299.182 54.9512C299.79 54.3813 300.57 54.1709 301.441 54.3492C302.999 54.6648 303.444 56.0441 304.005 57.7887C304.4 59.0103 304.888 60.5328 305.876 62.2833C306.241 62.9291 307.837 65.0185 309.688 67.4411C315.224 74.6826 319.834 80.8546 320.191 83.0346C320.717 86.2521 321.199 92.0821 321.22 92.3305C321.243 92.6081 321.085 92.8653 320.831 92.9763C320.161 93.2627 307.308 98.704 297.884 98.707L297.887 98.7011ZM292.575 96.5006C299.983 99.8204 316.981 93.1575 319.895 91.9652C319.767 90.4924 319.352 85.8868 318.919 83.2392C318.586 81.1994 312.374 73.0754 308.665 68.2214C306.63 65.5621 305.163 63.6392 304.753 62.9174C303.701 61.053 303.189 59.4632 302.777 58.1862C302.239 56.5175 301.97 55.7753 301.184 55.6145C300.722 55.521 300.366 55.6087 300.062 55.8951C298.387 57.4644 298.816 63.6567 299.123 65.9128C299.158 66.1845 299.021 66.4476 298.778 66.5732C298.536 66.6989 298.238 66.655 298.042 66.468C297.562 66.0151 286.282 55.3574 284.209 53.1861C283.788 52.7448 283.341 52.2188 282.867 51.6636C280.777 49.2088 278.95 47.2626 277.74 48.262C276.147 49.58 279.617 55.5356 282.593 59.3405C282.803 59.6093 282.768 59.9951 282.511 60.2201C282.254 60.4451 281.868 60.4334 281.628 60.1909C281.377 59.9366 275.431 53.9576 274.15 52.3941C272.806 50.7518 271.572 49.8079 270.821 49.8722C270.654 49.8868 270.403 49.9569 270.14 50.4187C268.728 52.8968 271.914 56.5555 271.946 56.5935C272.169 56.8478 272.16 57.2306 271.923 57.4702C271.686 57.7128 271.303 57.7303 271.046 57.5082C269.342 56.0558 268.155 55.7519 267.614 55.9506C267.269 56.0792 267.041 56.4708 266.939 57.1166C266.53 59.6941 270.391 65.0361 271.914 66.8742C271.996 66.9706 272.046 67.0905 272.057 67.2161C272.06 67.2483 272.473 70.5709 275.679 74.1595C279 77.8767 291.049 86.8015 291.172 86.8921C291.587 87.1989 291.69 87.7775 292.005 91.6496C292.143 93.3445 292.35 95.8606 292.578 96.5006H292.575Z" fill="#1E2B62"/>
<path d="M281.343 71.471C281.2 71.471 281.057 71.4243 280.937 71.3278C280.799 71.2168 277.537 68.5633 276.397 66.696C276.216 66.3979 276.04 66.1027 275.874 65.8222C274.541 63.5691 273.98 62.821 272.869 63.271C271.67 63.759 271.875 66.3073 272.042 67.1606C272.109 67.5113 271.881 67.8474 271.533 67.9175C271.185 67.9847 270.846 67.7568 270.779 67.4061C270.691 66.9619 270.007 63.046 272.386 62.0787C274.626 61.167 275.772 63.1103 276.988 65.1676C277.151 65.4452 277.321 65.7345 277.502 66.0268C278.525 67.7042 281.72 70.3021 281.752 70.3284C282.03 70.5534 282.071 70.9596 281.849 71.2343C281.72 71.3921 281.536 71.474 281.346 71.474L281.343 71.471Z" fill="#1E2B62"/>
<path d="M271.352 56.877C271.352 56.877 276.146 63.1687 280.13 66.2956L271.352 56.877Z" fill="white"/>
<path d="M280.132 66.9383C279.992 66.9383 279.851 66.8944 279.734 66.8009C275.73 63.6594 271.038 57.5255 270.839 57.2654C270.623 56.982 270.678 56.5787 270.962 56.3624C271.245 56.1462 271.649 56.2017 271.865 56.4852C271.912 56.5465 276.653 62.7477 280.529 65.7869C280.81 66.0061 280.86 66.4123 280.638 66.6928C280.512 66.8535 280.322 66.9383 280.129 66.9383H280.132Z" fill="#1E2B62"/>
<path d="M299.342 75.2673C299.061 75.2673 298.804 75.0832 298.722 74.7997C297.603 70.8634 297.828 66.1614 297.837 65.9626C297.854 65.6061 298.164 65.3343 298.512 65.3519C298.869 65.3694 299.14 65.6733 299.123 66.0269C299.123 66.0737 298.898 70.7172 299.959 74.4461C300.055 74.788 299.857 75.1445 299.515 75.241C299.456 75.2585 299.398 75.2673 299.336 75.2673H299.342Z" fill="#1E2B62"/>
<path d="M504.491 175.336L489.708 150.075C489.708 150.075 488.548 150.251 486.633 150.587L489.36 148.757L482.023 136.694C479.258 134.374 469.126 102.638 445.194 100.311C430.104 98.8444 372.018 101.913 360 105.647C351.684 108.231 341.757 120.633 336.428 128.029L333.838 130.943L322.309 87.2778L287.289 95.7818C287.289 95.7818 287.771 185.415 324.305 185.909C345.168 186.189 357.662 178.811 364.54 172.428C362.061 187.808 356.054 224.954 354.432 234.145C353.835 237.526 376.429 238.908 400.84 238.803C401.717 238.8 403.582 223.624 404.462 223.615C405.666 223.604 405.889 238.759 407.096 238.741C433.674 238.356 460.251 236.278 459.76 233.157C459.07 228.788 458.044 217.85 457.071 206.423C466.127 215.395 478.185 222.528 486.788 216.169C498.802 207.286 507.668 176.891 507.668 176.891L504.497 175.336H504.491Z" fill="#40B0E5"/>
<path d="M462.057 183.539C461.934 183.539 461.808 183.504 461.697 183.428C461.402 183.229 461.326 182.829 461.525 182.533L475.267 162.215C475.465 161.92 475.866 161.844 476.161 162.042C476.456 162.241 476.532 162.641 476.334 162.936L462.592 183.255C462.466 183.439 462.264 183.539 462.057 183.539Z" fill="#1E2B62"/>
<path d="M368.09 163.772C368.047 163.772 368.003 163.766 367.959 163.757C367.611 163.684 367.386 163.343 367.459 162.995L372.487 138.93C372.56 138.582 372.899 138.357 373.25 138.43C373.598 138.503 373.823 138.845 373.75 139.193L368.722 163.258C368.658 163.562 368.392 163.769 368.09 163.769V163.772Z" fill="#1E2B62"/>
<path d="M456.134 206.985C455.888 206.985 455.654 206.844 455.546 206.605C450.743 195.976 445.736 179.547 442.418 168.676C440.951 163.869 439.793 160.07 439.141 158.375C439.012 158.042 439.179 157.671 439.512 157.542C439.846 157.413 440.217 157.58 440.345 157.913C441.012 159.649 442.178 163.468 443.652 168.302C446.958 179.141 451.953 195.523 456.721 206.076C456.867 206.4 456.721 206.783 456.4 206.929C456.315 206.967 456.224 206.988 456.137 206.988L456.134 206.985Z" fill="#1E2B62"/>
<path d="M524.115 145.178H483.784C482.495 145.178 481.58 143.915 481.983 142.691L502.162 81.3078C502.416 80.5304 503.144 80.0044 503.962 80.0044H544.294C545.583 80.0044 546.498 81.2668 546.094 82.4913L525.916 143.874C525.661 144.652 524.933 145.178 524.115 145.178Z" fill="#1E2B62"/>
<path d="M522.932 89.8759C524.493 89.8759 525.759 88.6107 525.759 87.05C525.759 85.4893 524.493 84.2241 522.932 84.2241C521.371 84.2241 520.105 85.4893 520.105 87.05C520.105 88.6107 521.371 89.8759 522.932 89.8759Z" fill="#00A5F3"/>
<path d="M512.49 159.579C513.522 158.079 517.278 151.896 520.397 148.296C522.04 146.399 522.37 145.943 522.931 145.177C522.633 145.192 516.22 145.145 516.188 145.116C518.284 139.011 523.428 127.214 520.517 125.487C518.05 124.026 515.621 128.225 515.621 128.225C515.621 128.225 518.892 122.439 515.211 121.349C512.896 120.662 509.42 125.884 509.42 125.884C509.42 125.884 508.701 123.234 505.43 124.829C502.159 126.428 496.658 136.229 496.658 136.229C496.658 136.229 500.104 129.061 497.377 128.453C494.653 127.845 488.917 138.593 487.067 141.212C485.404 143.564 478.73 159.383 477.403 162.548C477.254 162.901 477.172 163.097 477.172 163.097L504.504 175.292C504.504 175.292 507.962 166.805 512.484 159.579H512.49Z" fill="#FFE9DD"/>
<path d="M504.511 175.935C504.43 175.935 504.348 175.92 504.269 175.888C503.939 175.754 503.781 175.377 503.915 175.049C503.95 174.965 507.446 166.428 511.948 159.24C512.194 158.88 512.565 158.307 513.033 157.583C514.693 155.008 517.47 150.698 519.914 147.875C521.51 146.034 521.837 145.584 522.384 144.841L522.936 145.177L523.457 145.56C522.878 146.346 522.518 146.837 520.887 148.719C518.502 151.472 515.754 155.733 514.114 158.281C513.638 159.023 513.261 159.605 513.024 159.947C508.598 167.019 505.143 175.453 505.108 175.537C505.005 175.786 504.766 175.938 504.511 175.938V175.935Z" fill="#1E2B62"/>
<path d="M493.888 142.337C493.789 142.337 493.689 142.314 493.596 142.267C493.277 142.106 493.151 141.718 493.312 141.402L496.089 135.937C496.25 135.619 496.636 135.493 496.957 135.654C497.276 135.815 497.402 136.203 497.241 136.519L494.464 141.984C494.35 142.209 494.125 142.337 493.888 142.337Z" fill="#1E2B62"/>
<path d="M502.378 140.49C502.282 140.49 502.182 140.467 502.089 140.42C501.77 140.259 501.645 139.871 501.802 139.555L508.847 125.592C509.008 125.274 509.397 125.148 509.713 125.306C510.031 125.467 510.157 125.855 509.999 126.171L502.954 140.134C502.84 140.359 502.615 140.487 502.378 140.487V140.49Z" fill="#1E2B62"/>
<path d="M510.245 140.28C510.155 140.28 510.058 140.259 509.97 140.218C509.649 140.067 509.511 139.684 509.664 139.362L515.045 127.951C515.197 127.629 515.58 127.489 515.905 127.644C516.226 127.796 516.363 128.179 516.211 128.5L510.83 139.912C510.722 140.145 510.488 140.283 510.245 140.283V140.28Z" fill="#1E2B62"/>
<path d="M515.882 148.103C515.8 148.103 515.715 148.086 515.633 148.053C515.306 147.916 515.151 147.539 515.288 147.209L517.571 141.762C517.709 141.434 518.086 141.279 518.416 141.417C518.744 141.554 518.899 141.931 518.761 142.261L516.478 147.709C516.376 147.957 516.136 148.103 515.885 148.103H515.882Z" fill="#1E2B62"/>
<path d="M422.097 52.3677C420.855 51.3565 419.128 50.9913 417.613 51.3945C418.262 47.9404 418.368 44.2232 415.74 41.5493C414.45 40.2371 412.442 39.641 410.65 39.9332C410.735 36.669 410.083 33.4661 407.213 31.3679C405.593 30.1815 403.48 29.7197 401.583 30.5C400.253 31.0465 399.256 32.0547 398.402 33.1798C397.388 30.2341 395.92 27.2708 392.991 25.9324C388.943 24.0797 384.491 26.0961 381.594 29.0593C375.797 34.9828 372.403 44.4365 375.145 52.5196C376.54 56.6313 379.363 60.2813 383.31 62.2071C383.345 62.2246 383.38 62.2334 383.415 62.248C383.362 63.6273 383.701 65.0154 384.488 66.1844C385.113 67.1137 385.973 67.8559 386.949 68.3761C387.768 70.0184 388.761 71.5673 389.79 72.9612C391.351 75.074 393.266 76.7865 395.818 77.5697C398.244 78.3149 400.89 78.3003 403.38 77.9437C408.031 77.2775 412.343 75.036 415.883 71.9968C417.698 70.4363 419.303 68.6391 420.689 66.687C422.153 64.6209 423.539 62.2714 424.114 59.7845C424.714 57.1924 424.269 54.1357 422.097 52.3706V52.3677Z" fill="#1E2B62"/>
<path d="M386.27 83.8322L392.952 99.9341L387.053 102.634L405.446 148.594L426.677 100.007L415.013 97.1755L406.174 74.2207L386.27 83.8322Z" fill="white"/>
<path d="M397.5 111L389.5 102.5L393 100L388 88.5H389.5L395 86.5L401 83.5L403.5 80L406.5 78.5H408.5L415.5 97L425 100L414 111L406.5 104.5L402 108L397.5 111Z" fill="#FFE9DD"/>
<path d="M397.245 112.159C397.198 112.159 397.154 112.156 397.11 112.147C396.853 112.103 396.067 111.974 388.028 102.828C387.791 102.559 387.82 102.153 388.086 101.919C388.355 101.685 388.762 101.711 388.995 101.977C392.457 105.914 396.397 110.171 397.318 110.838C397.771 110.601 398.888 109.403 399.826 108.137C400.036 107.851 400.44 107.79 400.726 108.003C401.013 108.213 401.074 108.617 400.861 108.903C399.262 111.066 398.046 112.159 397.242 112.159H397.245Z" fill="#1E2B62"/>
<path d="M413.943 110.665C413.896 110.665 413.855 110.656 413.82 110.651C413.306 110.548 412.765 110.011 411.736 108.894C411.426 108.558 410.964 108.059 410.78 107.921C410.508 107.845 410.312 107.597 410.312 107.302C410.312 106.945 410.602 106.659 410.956 106.659C411.403 106.659 411.751 107.009 412.683 108.023C413.031 108.403 413.636 109.058 413.966 109.309C415.15 108.517 420.076 103.801 424.373 99.5049C424.624 99.2536 425.034 99.2536 425.285 99.5049C425.536 99.7562 425.536 100.165 425.285 100.417C415.796 109.902 414.422 110.668 413.946 110.668L413.943 110.665Z" fill="#1E2B62"/>
<path d="M387.055 103.281C386.81 103.281 386.576 103.14 386.467 102.904C386.318 102.579 386.462 102.196 386.786 102.05L392.121 99.6073L385.678 84.0781C385.547 83.7625 385.687 83.4001 385.994 83.2511L405.898 73.6425C406.059 73.5636 406.249 73.5578 406.415 73.625C406.582 73.6922 406.713 73.8237 406.781 73.9932L415.498 96.6324L426.837 99.3881C427.182 99.4729 427.395 99.8206 427.31 100.165C427.226 100.51 426.878 100.727 426.533 100.639L414.866 97.8042C414.662 97.7545 414.492 97.6055 414.416 97.4097L405.831 75.1095L387.105 84.1512L393.553 99.692C393.685 100.013 393.542 100.382 393.226 100.525L387.327 103.225C387.239 103.266 387.149 103.284 387.058 103.284L387.055 103.281Z" fill="#1E2B62"/>
<path d="M376.337 71.4533C375.807 74.7526 375.606 78.2652 376.968 81.3161C379.049 85.9772 384.565 88.4933 389.649 88.0228C394.732 87.5523 399.313 84.557 402.733 80.7697C403.534 79.8813 404.338 78.9111 405.454 78.4844C406.875 77.9438 408.454 78.4084 409.974 78.4844C413.306 78.648 416.65 76.6989 418.15 73.721C419.033 71.9706 419.252 69.735 418.15 68.1131C417.089 66.5526 415.037 65.9126 413.154 66.0441C411.272 66.1785 409.503 66.9559 407.778 67.7244C408.559 66.7835 408.743 65.4421 408.459 64.2527C408.176 63.0634 407.468 62.0113 406.635 61.12C403.838 58.1217 399.778 56.6547 395.84 55.5033C387.056 52.9405 385.936 49.6353 384.972 49.7873C384.01 49.9363 382.917 52.7125 382.484 53.5015C379.435 59.0773 377.342 65.1762 376.339 71.4504L376.337 71.4533Z" fill="#FFE9DD"/>
<path d="M388.421 88.7214C383.224 88.7214 378.292 85.8517 376.384 81.5764C374.872 78.1952 375.226 74.3349 375.705 71.3512C376.723 64.9864 378.816 58.8788 381.92 53.1949C382.002 53.0429 382.11 52.815 382.239 52.549C383.078 50.7869 383.852 49.314 384.876 49.1533C385.472 49.0598 385.896 49.4397 386.542 50.0154C387.769 51.1112 390.055 53.1481 396.025 54.8898C400.079 56.0733 404.23 57.5959 407.109 60.6847C408.144 61.7952 408.811 62.9466 409.088 64.1097C409.278 64.9104 409.278 65.7199 409.103 66.4563C410.357 65.9449 411.705 65.5066 413.111 65.4072C414.943 65.2757 417.376 65.8251 418.685 67.7567C420.039 69.7468 419.594 72.2951 418.729 74.0163C417.124 77.2046 413.505 79.3086 409.948 79.1333C409.5 79.1099 409.053 79.0573 408.621 79.0047C407.565 78.8791 406.566 78.7592 405.692 79.0924C404.815 79.4255 404.139 80.1795 403.426 80.9773L403.219 81.2082C399.269 85.5799 394.475 88.2305 389.713 88.6717C389.284 88.7126 388.851 88.7302 388.424 88.7302L388.421 88.7214ZM376.977 71.5557C376.527 74.3641 376.188 77.9819 377.562 81.0533C379.412 85.1913 384.469 87.8535 389.594 87.3801C394.028 86.971 398.527 84.4695 402.26 80.3373L402.461 80.1123C403.248 79.2356 404.06 78.3267 405.23 77.8826C406.402 77.4384 407.606 77.5816 408.77 77.7218C409.199 77.7744 409.606 77.8212 410.009 77.8416C413.081 77.9965 416.195 76.1788 417.577 73.4319C418.46 71.6814 418.475 69.7351 417.621 68.4756C416.618 66.9999 414.692 66.5849 413.204 66.6872C411.412 66.8128 409.699 67.5756 408.045 68.3149C407.77 68.4347 407.451 68.3558 407.27 68.1162C407.089 67.8766 407.098 67.5463 407.288 67.3155C407.884 66.5937 408.094 65.4803 407.837 64.4048C407.612 63.4639 407.051 62.5053 406.168 61.5585C403.499 58.6976 399.541 57.2539 395.665 56.123C389.418 54.2995 386.898 52.0522 385.685 50.9739C385.443 50.7576 385.171 50.5151 385.036 50.4391C384.56 50.6671 383.697 52.4877 383.405 53.0984C383.265 53.3936 383.145 53.6449 383.054 53.8115C380.017 59.3639 377.974 65.3341 376.98 71.5528L376.977 71.5557Z" fill="#1E2B62"/>
<path d="M407.32 75.6325C407.188 75.6325 407.057 75.5916 406.943 75.5098C406.653 75.3023 406.589 74.899 406.8 74.6097C408.235 72.6313 410.734 71.5442 413.16 71.8394C413.514 71.8832 413.766 72.2047 413.722 72.5583C413.678 72.9119 413.359 73.1603 413.006 73.1194C411.067 72.8827 408.992 73.7856 407.843 75.3666C407.718 75.542 407.522 75.6325 407.32 75.6325Z" fill="#1E2B62"/>
<path d="M183.271 460.934V470.192H48.2844L0.91124 241.848C-0.731591 233.931 5.31356 226.506 13.402 226.506H116.965C123.387 226.506 128.809 231.281 129.619 237.652L155.732 443.169L171.061 446.135C178.153 447.506 183.274 453.713 183.274 460.934H183.271Z" fill="white"/>
<path d="M183.27 470.834H48.2834C47.9794 470.834 47.7134 470.621 47.652 470.32L0.281783 241.979C-0.539633 238.016 0.454251 233.942 3.00912 230.804C5.56398 227.665 9.35243 225.865 13.401 225.865H116.961C123.69 225.865 129.405 230.897 130.253 237.572L156.307 442.628L171.177 445.503C178.555 446.929 183.911 453.42 183.911 460.933V470.191C183.911 470.548 183.621 470.837 183.267 470.837L183.27 470.834ZM48.8067 469.545H182.624V460.933C182.624 454.037 177.708 448.078 170.935 446.769L155.605 443.803C155.334 443.75 155.123 443.528 155.088 443.25L128.975 237.733C128.209 231.701 123.044 227.151 116.961 227.151H13.401C9.74122 227.151 6.31817 228.779 4.00885 231.616C1.69953 234.454 0.799187 238.136 1.5446 241.716L48.8096 469.545H48.8067Z" fill="#1E2B62"/>
<path d="M119.691 449.82H64.7993C64.4982 449.82 64.2352 449.609 64.1708 449.317L16.5083 236.184C16.4293 235.836 16.6486 235.492 16.9964 235.416C17.3443 235.34 17.6892 235.556 17.7652 235.904L65.3138 448.531H119.688C120.045 448.531 120.331 448.82 120.331 449.174C120.331 449.528 120.042 449.817 119.688 449.817L119.691 449.82Z" fill="#1E2B62"/>
<path d="M184.425 523.874C184.106 523.874 183.831 523.64 183.787 523.316L176.9 472.278C176.853 471.924 177.099 471.6 177.453 471.553C177.812 471.503 178.131 471.755 178.178 472.105L185.065 523.144C185.111 523.497 184.866 523.822 184.512 523.868C184.483 523.871 184.454 523.874 184.425 523.874Z" fill="#1E2B62"/>
<path d="M50.1497 523.874C50.1292 523.874 50.1117 523.874 50.0912 523.874C49.7375 523.842 49.4744 523.529 49.5066 523.176L54.096 472.137C54.1281 471.784 54.4351 471.524 54.7946 471.553C55.1483 471.585 55.4114 471.898 55.3793 472.251L50.7898 523.29C50.7606 523.626 50.4771 523.877 50.1497 523.877V523.874Z" fill="#1E2B62"/>
<path d="M86.3232 372.115V403.472C86.3232 429.632 107.537 450.84 133.705 450.84H247.157L225.8 357.437L86.3203 372.115H86.3232Z" fill="#00A5F3"/>
<path d="M227.128 320.987L201.454 332.34L67.2301 341.478L54.7539 338.138L76.2861 253.113C81.7262 231.628 99.4202 215.435 121.306 211.911L145.311 208.045L193.161 202.995C193.161 202.995 233.387 199.713 230.566 230.994C228.833 250.205 227.126 320.992 227.126 320.992L227.128 320.987Z" fill="#98E0FF"/>
<path d="M188.975 203.542L180.337 309.561L162.029 311.633L140.465 208.668L188.975 203.542Z" fill="white"/>
<path d="M208.782 292.792C208.765 292.792 208.744 292.792 208.727 292.792C208.373 292.763 208.11 292.45 208.139 292.094L211.734 250.594C211.764 250.24 212.071 249.968 212.433 250.006C212.787 250.036 213.05 250.348 213.021 250.705L209.425 292.205C209.396 292.541 209.115 292.792 208.785 292.792H208.782Z" fill="#1E2B62"/>
<path d="M181.328 137.945C180.267 135.502 178.264 133.605 175.774 132.664C173.333 131.741 170.617 131.893 168.267 133.015C167.095 133.573 166.022 134.371 165.166 135.35C164.259 136.384 163.663 137.802 162.105 137.892C160.711 137.974 159.392 137.325 158.039 137.1C156.905 136.91 155.747 136.966 154.63 137.235C152.391 137.773 150.36 139.158 149.053 141.051C148.363 142.048 147.948 143.158 147.705 144.336C147.442 145.61 147.276 147.025 146.308 147.989C145.513 148.781 144.39 149.111 143.335 149.398C142.254 149.69 141.137 149.941 140.152 150.496C137.749 151.855 137.302 154.877 136.96 157.367C136.129 163.433 136.851 169.804 139.246 175.456C141.406 180.558 145.276 185.117 150.772 186.663C153.528 187.437 156.384 187.256 159.056 186.245C161.795 185.208 164.327 183.536 166.653 181.777C167.823 180.894 168.843 179.892 169.632 178.65C170.41 177.423 170.971 176.069 171.485 174.716C172.593 171.809 173.435 168.752 173.576 165.631C173.616 164.722 173.59 163.813 173.497 162.913C176.671 161.101 179.115 158.024 180.527 154.64C181.661 151.919 182.216 148.98 182.409 146.049C182.591 143.322 182.43 140.484 181.331 137.951L181.328 137.945Z" fill="#1E2B62"/>
<path d="M151.002 201.5C151.002 201.5 150.008 202.06 151.999 199C153.99 195.94 158.887 168.927 158.887 168.927L180.413 176.607C180.413 176.607 178.729 191.902 178.729 194.655C178.729 197.408 180.413 197 180.413 197C180.413 197 174 205.312 169.5 206C154.919 208.23 151.999 202.5 151.999 202.5L151.002 201.5Z" fill="#D08F79"/>
<path d="M163.675 311.449L180.34 309.561L182.369 284.671L171.407 228.432L176.131 217.788L167.414 207.102L161.082 219.033L167.805 228.601L163.675 311.449Z" fill="#1E2B62"/>
<path d="M140.467 209.31C140.21 209.31 139.967 209.156 139.868 208.901C139.739 208.571 139.903 208.197 140.234 208.066C140.312 208.033 148.231 204.918 150.085 202.069C151.663 199.643 156.519 177.226 158.255 168.796C158.293 168.611 158.407 168.457 158.571 168.363C158.734 168.272 158.927 168.255 159.103 168.319L180.629 175.999C180.91 176.098 181.085 176.379 181.053 176.677C181.035 176.829 179.372 191.967 179.372 194.655C179.372 196.3 185.18 200.52 189.305 202.99C189.609 203.174 189.708 203.568 189.527 203.872C189.346 204.179 188.948 204.275 188.644 204.094C186.882 203.039 178.083 197.621 178.083 194.652C178.083 192.148 179.419 179.757 179.714 177.039L159.363 169.78C158.375 174.535 153.04 199.88 151.16 202.77C149.082 205.967 141.037 209.132 140.695 209.264C140.619 209.293 140.54 209.308 140.462 209.308L140.467 209.31Z" fill="#1E2B62"/>
<path d="M165.616 207.446C159.273 207.446 151.357 202.916 150.994 202.709C150.684 202.531 150.582 202.136 150.757 201.829C150.936 201.522 151.33 201.414 151.637 201.593C151.731 201.645 161.024 206.958 167.098 206.055C173.14 205.155 179.434 196.674 179.498 196.59C179.709 196.303 180.112 196.242 180.398 196.452C180.685 196.663 180.746 197.066 180.536 197.352C180.267 197.72 173.853 206.353 167.288 207.332C166.747 207.414 166.186 207.449 165.613 207.449L165.616 207.446Z" fill="#1E2B62"/>
<path d="M157.994 224.589C157.856 224.589 157.722 224.545 157.611 224.463L143.819 214.232C143.533 214.019 143.474 213.615 143.685 213.332C143.898 213.045 144.301 212.987 144.585 213.197L157.81 223.008L159.888 219.606C160.075 219.302 160.47 219.206 160.774 219.393C161.078 219.577 161.174 219.974 160.987 220.278L158.54 224.282C158.447 224.437 158.292 224.545 158.114 224.577C158.073 224.586 158.032 224.589 157.991 224.589H157.994Z" fill="#1E2B62"/>
<path d="M179.573 221.254C179.424 221.254 179.281 221.204 179.164 221.108L175.72 218.288C175.446 218.063 175.405 217.657 175.63 217.382C175.855 217.107 176.261 217.066 176.536 217.291L179.421 219.655L187.261 207.583C187.454 207.285 187.852 207.201 188.153 207.393C188.451 207.586 188.536 207.987 188.343 208.285L180.111 220.962C180.012 221.117 179.851 221.219 179.67 221.248C179.637 221.254 179.602 221.257 179.57 221.257L179.573 221.254Z" fill="#1E2B62"/>
<path d="M158.481 187.572C161.82 190.433 165.208 193.194 169.528 194.013C173.849 194.831 178.529 194.165 182.191 191.733C188.324 187.665 190.549 179.413 189.464 172.133C188.38 164.854 184.597 158.299 180.832 151.978C180.832 151.978 176.982 155.952 171.437 156.718C164.413 157.688 155.181 156.207 153.284 164.757C151.606 169.036 151.41 173.212 152.384 177.303C152.384 177.303 149.455 174.643 146.765 176.4C143.857 178.296 142.685 182.388 144.088 185.564C145.491 188.741 149.124 190.69 152.58 190.348C154.532 190.155 156.321 189.778 157.894 188.118L158.481 187.575V187.572Z" fill="#D08F79"/>
<path d="M173.061 194.991C171.854 194.991 170.629 194.877 169.407 194.646C165.218 193.855 161.947 191.373 158.466 188.41C158.44 188.466 158.402 188.515 158.361 188.562C156.563 190.459 154.467 190.812 152.643 190.991C148.822 191.365 144.987 189.193 143.499 185.824C141.976 182.373 143.283 177.905 146.414 175.859C148.282 174.64 150.199 175.216 151.444 175.882C150.819 172.06 151.228 168.261 152.669 164.567C154.318 157.285 161.076 156.846 167.043 156.458C168.557 156.358 169.983 156.268 171.351 156.078C176.616 155.35 180.334 151.569 180.369 151.528C180.51 151.385 180.706 151.311 180.907 151.335C181.106 151.358 181.284 151.472 181.387 151.645C184.76 157.311 188.958 164.36 190.101 172.037C191.355 180.45 188.388 188.393 182.547 192.268C179.858 194.05 176.531 194.988 173.061 194.988V194.991ZM158.478 186.929C158.627 186.929 158.776 186.978 158.896 187.084C162.386 190.076 165.607 192.615 169.644 193.381C174.041 194.214 178.484 193.419 181.831 191.198C188.002 187.104 189.788 178.723 188.823 172.229C187.762 165.108 183.924 158.442 180.685 152.995C179.364 154.158 175.996 156.738 171.524 157.355C170.112 157.551 168.592 157.647 167.121 157.743C161.056 158.138 155.329 158.509 153.912 164.894C153.903 164.927 153.894 164.959 153.882 164.991C152.304 169.012 152.017 172.989 153.008 177.154C153.073 177.428 152.953 177.715 152.71 177.858C152.468 178.001 152.158 177.969 151.95 177.779C151.845 177.685 149.351 175.479 147.115 176.937C144.49 178.65 143.394 182.402 144.674 185.301C145.943 188.176 149.237 190.026 152.511 189.705C154.546 189.503 156.075 189.094 157.419 187.674C157.533 187.554 157.685 187.487 157.837 187.475C157.855 187.361 157.905 187.247 157.987 187.154C158.115 187.005 158.293 186.929 158.475 186.929H158.478Z" fill="#1E2B62"/>
<path d="M153.574 163.977C153.574 163.977 156.801 174.234 158.99 178.843C161.18 183.451 167.751 184.258 170.747 180.573C173.744 176.885 189.19 170.202 189.19 170.202C189.19 170.202 193.455 178.846 190.228 185.988C187 193.133 173.168 199.702 167.289 197.741C162.302 196.079 151.381 175.961 151.381 175.961C151.381 175.961 150.46 165.245 153.571 163.977H153.574Z" fill="#1E2B62"/>
<path d="M169.716 198.726C168.737 198.726 167.848 198.606 167.088 198.355C161.917 196.631 151.268 177.101 150.818 176.271C150.777 176.192 150.751 176.107 150.742 176.02C150.581 174.152 149.95 164.76 153.332 163.384C153.498 163.316 153.685 163.319 153.849 163.398C154.013 163.474 154.136 163.614 154.188 163.787C154.22 163.889 157.427 174.053 159.573 178.571C160.52 180.567 162.47 181.923 164.782 182.2C166.957 182.46 169.003 181.701 170.248 180.169C173.309 176.403 188.299 169.889 188.936 169.614C189.255 169.477 189.62 169.614 189.769 169.921C189.951 170.286 194.131 178.922 190.816 186.259C187.784 192.969 176.527 198.732 169.713 198.732L169.716 198.726ZM152.016 175.774C155.077 181.397 163.633 195.845 167.498 197.13C172.976 198.954 186.46 192.77 189.647 185.722C192.254 179.95 189.714 173.039 188.869 171.046C186.039 172.3 173.794 177.849 171.254 180.976C169.725 182.855 167.252 183.79 164.633 183.475C161.876 183.144 159.552 181.517 158.412 179.117C156.577 175.254 154.068 167.621 153.238 165.035C151.858 166.765 151.73 172.241 152.016 175.771V175.774Z" fill="#1E2B62"/>
<path d="M152.588 184.007C152.26 184.007 151.98 183.758 151.947 183.425C151.886 182.817 151.293 181.97 150.41 181.602C149.89 181.385 149.097 181.268 148.27 181.941C147.992 182.166 147.589 182.125 147.364 181.847C147.139 181.572 147.18 181.166 147.457 180.941C148.472 180.117 149.729 179.924 150.904 180.412C152.155 180.932 153.114 182.119 153.231 183.299C153.266 183.653 153.009 183.969 152.655 184.004C152.631 184.004 152.611 184.007 152.591 184.007H152.588Z" fill="#1E2B62"/>
<path d="M628.33 387.989H84.5414C74.74 387.989 71.2994 374.991 79.8205 370.143L292.076 302.985C293.514 302.167 295.143 301.737 296.797 301.737H727.441C735.793 301.737 740.119 311.697 734.422 317.798L635.311 384.956C633.504 386.891 630.976 387.989 628.33 387.989Z" fill="#D2EBF7"/>
<path d="M160.54 349.426L202.04 332.29C202.04 332.29 201.137 322.068 187.304 312.448C173.472 302.827 143.699 313.95 143.699 313.95L160.54 349.424V349.426Z" fill="#D08F79"/>
<path d="M160.539 350.07C160.296 350.07 160.065 349.933 159.957 349.702L143.117 314.228C142.965 313.906 143.102 313.521 143.424 313.369C143.745 313.217 144.128 313.354 144.283 313.675L160.86 348.597L201.794 331.694C202.121 331.56 202.498 331.715 202.636 332.045C202.773 332.375 202.615 332.749 202.285 332.887L160.784 350.023C160.703 350.055 160.621 350.073 160.539 350.073V350.07Z" fill="#1E2B62"/>
<path d="M189.327 337.653C189.119 337.653 188.914 337.553 188.789 337.366C182.083 327.31 170.589 329.891 170.101 330.008C169.753 330.087 169.408 329.876 169.326 329.528C169.244 329.184 169.458 328.836 169.803 328.754C169.931 328.725 182.65 325.841 189.859 336.653C190.057 336.948 189.975 337.349 189.68 337.547C189.569 337.62 189.446 337.655 189.324 337.655L189.327 337.653Z" fill="#1E2B62"/>
<path d="M198.72 333.935C198.486 333.935 198.261 333.807 198.147 333.585C191.181 320.034 172.706 320.431 172.519 320.437C172.177 320.446 171.868 320.168 171.856 319.812C171.844 319.455 172.125 319.16 172.478 319.148C172.668 319.145 191.95 318.713 199.293 332.994C199.457 333.31 199.331 333.699 199.015 333.862C198.922 333.909 198.819 333.932 198.72 333.932V333.935Z" fill="#1E2B62"/>
<path d="M193.046 317.7C192.929 317.7 192.809 317.668 192.701 317.6C185.507 313.056 174.954 313.006 174.846 313.006C174.49 313.006 174.203 312.717 174.203 312.364C174.203 312.01 174.493 311.718 174.846 311.718C175.293 311.718 185.881 311.773 193.388 316.513C193.689 316.703 193.78 317.101 193.59 317.402C193.467 317.595 193.259 317.703 193.043 317.703L193.046 317.7Z" fill="#1E2B62"/>
<path d="M145.7 312.352C145.7 312.352 154.817 324.71 158.813 335.271C162.809 345.833 163.382 351.54 163.382 351.54L101.545 378.466C78.8143 388.364 53.5228 371.213 54.315 346.44L54.812 338.135L145.7 312.352Z" fill="#98E0FF"/>
<path d="M111.617 323.126C111.336 323.126 111.079 322.942 110.997 322.658C110.901 322.317 111.099 321.96 111.441 321.864L144.909 312.349C145.248 312.252 145.608 312.451 145.704 312.793C145.8 313.135 145.602 313.491 145.26 313.588L111.792 323.103C111.734 323.12 111.675 323.126 111.614 323.126H111.617Z" fill="#1E2B62"/>
<path d="M117.757 321.13C117.757 321.13 117.731 321.13 117.719 321.13C117.366 321.109 117.094 320.805 117.114 320.449L119.912 271.588C119.932 271.231 120.239 270.968 120.593 270.98C120.947 271 121.219 271.304 121.198 271.661L118.401 320.522C118.38 320.864 118.097 321.13 117.757 321.13Z" fill="#1E2B62"/>
<path d="M660.535 433.014L536.411 440.46C513.043 441.862 495.478 462.322 497.632 485.624L501.078 523.357H591.84L682.559 513.743L660.535 433.014Z" fill="white"/>
<path d="M501.079 524C500.749 524 500.468 523.748 500.439 523.415L496.992 485.682C495.934 474.239 499.474 463.131 506.966 454.408C514.455 445.685 524.9 440.503 536.376 439.817L660.501 432.371C660.784 432.35 661.082 432.549 661.161 432.844L683.185 513.57C683.234 513.751 683.202 513.947 683.094 514.105C682.989 514.26 682.816 514.362 682.629 514.382L602.739 522.84C602.379 522.878 602.066 522.62 602.031 522.267C601.993 521.913 602.25 521.595 602.604 521.557L681.741 513.178L660.056 433.686L536.455 441.1C525.33 441.766 515.207 446.789 507.945 455.244C500.687 463.698 497.252 474.464 498.278 485.56L501.725 523.293C501.757 523.646 501.497 523.962 501.14 523.994C501.12 523.994 501.099 523.994 501.082 523.994L501.079 524Z" fill="#1E2B62"/>
<path d="M565.768 500.04C565.414 500.04 565.128 499.756 565.125 499.403C565.122 499.046 565.409 498.757 565.765 498.751L602.58 498.418H602.586C602.939 498.418 603.226 498.701 603.229 499.055C603.232 499.412 602.945 499.701 602.589 499.707L565.774 500.04H565.768Z" fill="#1E2B62"/>
<path d="M688.599 273.669C688.599 273.669 698.456 261.647 700.16 247.666C700.818 242.275 699.371 226.652 688.599 226.652C688.599 226.652 670.469 206.164 655.605 217.388C652.86 219.46 642.781 215.337 638.165 224.568C633.55 233.797 636.628 245.334 644.064 252.257C651.501 259.18 660.209 271.676 670.469 276.033C680.727 280.39 688.599 273.669 688.599 273.669Z" fill="#1E2B62"/>
<path d="M654.074 257.664C654.074 257.664 656.556 250.495 662.531 252.772C667.43 254.639 667.728 261.053 666.53 264.478C665.545 267.287 663.376 267.369 663.376 267.369C663.376 267.369 669.056 271.127 675.726 274.461C682.394 277.795 683.227 271.252 683.227 271.252C683.227 271.252 685.022 266.381 689.126 268.944L699.463 298.406L670.739 299.175L662.788 282.255C662.788 282.255 657.404 282.766 653.042 278.666C648.681 274.566 642.785 249.952 643.039 247.643C643.294 245.334 651.318 258.079 651.318 258.079L654.077 257.664H654.074Z" fill="#8C5745"/>
<path d="M670.733 299.818C670.485 299.818 670.257 299.675 670.149 299.447L662.382 282.915C660.938 282.945 656.416 282.728 652.595 279.131C647.973 274.783 642.121 250.013 642.396 247.567C642.469 246.921 642.922 246.766 643.062 246.737C643.504 246.632 644.682 246.369 651.636 257.374L653.609 257.079C654.024 256.086 655.346 253.38 657.839 252.216C659.348 251.512 661.002 251.498 662.759 252.167C667.804 254.09 668.544 260.674 667.135 264.689C666.571 266.299 665.65 267.129 664.864 267.556C666.846 268.809 671.189 271.469 676.013 273.88C677.922 274.835 679.465 275.011 680.596 274.409C682.268 273.517 682.584 271.188 682.587 271.165C682.593 271.118 682.604 271.068 682.622 271.024C682.66 270.919 683.587 268.462 685.688 267.743C686.864 267.342 688.135 267.562 689.468 268.391C689.591 268.47 689.684 268.587 689.734 268.725L700.07 298.187C700.138 298.383 700.111 298.597 699.994 298.766C699.878 298.936 699.688 299.038 699.48 299.044L670.757 299.812C670.757 299.812 670.745 299.812 670.739 299.812L670.733 299.818ZM662.785 281.609C663.034 281.609 663.262 281.752 663.37 281.98L671.143 298.521L698.562 297.787L688.594 269.376C687.679 268.853 686.843 268.716 686.106 268.967C684.744 269.432 683.99 271.1 683.856 271.422C683.774 271.933 683.271 274.449 681.207 275.551C679.684 276.364 677.746 276.191 675.44 275.037C668.813 271.723 663.08 267.944 663.025 267.906C662.791 267.752 662.686 267.465 662.759 267.193C662.835 266.924 663.078 266.735 663.355 266.723C663.42 266.72 665.106 266.594 665.925 264.265C666.951 261.34 666.942 255.139 662.306 253.374C660.891 252.833 659.573 252.839 658.398 253.385C655.872 254.56 654.703 257.842 654.691 257.877C654.612 258.102 654.413 258.269 654.176 258.304L651.417 258.719C651.16 258.76 650.911 258.64 650.777 258.423C648.181 254.3 645.129 249.905 643.735 248.464C644.311 253.058 649.54 274.485 653.49 278.199C657.588 282.056 662.68 281.621 662.733 281.615C662.753 281.615 662.774 281.615 662.794 281.615L662.785 281.609Z" fill="#1E2B62"/>
<path d="M662.486 282.433C662.244 282.433 662.013 282.295 661.902 282.062L659.695 277.374C659.543 277.053 659.68 276.667 660.005 276.518C660.326 276.366 660.709 276.503 660.861 276.828L663.068 281.515C663.22 281.837 663.083 282.222 662.758 282.371C662.67 282.412 662.577 282.433 662.483 282.433H662.486Z" fill="#1E2B62"/>
<path d="M657.66 262.581C657.601 262.581 657.54 262.572 657.482 262.555C657.14 262.456 656.944 262.099 657.04 261.757C657.148 261.38 658.157 258.057 660.031 257.073C660.618 256.766 661.25 256.71 661.863 256.912C662.2 257.026 662.384 257.388 662.27 257.727C662.159 258.063 661.793 258.247 661.454 258.133C661.174 258.04 660.911 258.063 660.63 258.212C659.452 258.832 658.531 261.24 658.277 262.114C658.195 262.394 657.938 262.578 657.657 262.578L657.66 262.581Z" fill="#1E2B62"/>
<path d="M570.574 383.481L520.178 327.828C518.184 325.628 519.748 322.109 522.715 322.109H589.805C590.79 322.109 591.729 322.533 592.381 323.275L640.441 378.06C642.367 380.258 640.835 383.7 637.912 383.741L573.155 384.609C572.173 384.624 571.231 384.211 570.571 383.484L570.574 383.481Z" fill="#1E2B62"/>
<path d="M525.172 326.621H589.318L635.499 379.261L573.592 380.091L525.172 326.621Z" fill="white"/>
<path d="M582.42 367.721C582.42 367.721 574.416 361.929 572.089 358.746C566.362 350.906 566.684 340.789 563.767 337.53C560.849 334.272 557.996 337.671 557.719 340.593C557.444 343.518 557.608 346.478 557.608 346.478C557.608 346.478 538.385 331.405 533.734 332.58C531.179 333.226 531.074 336.131 533.854 338.176C533.854 338.176 526.584 332.606 524.766 336.157C523.333 338.951 526.946 342.127 526.946 342.127C526.946 342.127 524.432 343.907 526.663 348.033C528.645 351.698 531.249 354.339 530.96 354.112C530.67 353.884 528.39 356.16 530.46 358.901C532.53 361.642 542.98 376.213 552.688 383.598C562.396 390.979 571.057 396.906 571.057 396.906L582.42 367.724V367.721Z" fill="#8C5745"/>
<path d="M571.062 397.548C570.933 397.548 570.807 397.51 570.699 397.434C570.611 397.376 561.912 391.414 552.303 384.108C543.315 377.273 533.759 364.406 530.619 360.181C530.344 359.812 530.122 359.511 529.956 359.289C528.173 356.925 529.175 354.795 530 353.944C529.172 352.971 527.494 350.905 526.106 348.336C524.337 345.06 525.328 343.032 526.047 342.138C525.033 341.077 522.899 338.406 524.203 335.858C524.595 335.095 525.235 334.596 526.059 334.409C527.608 334.058 529.631 334.85 531.283 335.744C531.145 335.242 531.119 334.742 531.216 334.26C531.441 333.117 532.303 332.275 533.586 331.951C537.91 330.864 552.52 341.741 556.931 345.128C556.913 343.976 556.925 342.258 557.089 340.531C557.267 338.658 558.474 336.332 560.366 335.709C561.129 335.458 562.649 335.306 564.256 337.097C565.613 338.608 566.265 341.253 567.095 344.599C568.13 348.778 569.416 353.976 572.62 358.363C574.859 361.428 582.728 367.139 582.807 367.197C583.044 367.369 583.137 367.679 583.029 367.954L571.667 397.136C571.596 397.32 571.444 397.461 571.257 397.519C571.196 397.539 571.132 397.548 571.067 397.548H571.062ZM531.005 354.76C530.827 354.915 530.456 355.356 530.309 356.022C530.128 356.846 530.353 357.685 530.979 358.512C531.148 358.737 531.373 359.041 531.651 359.412C534.764 363.603 544.238 376.358 553.081 383.083C561.132 389.205 568.542 394.377 570.755 395.909L581.641 367.948C579.963 366.712 573.654 361.975 571.57 359.126C568.217 354.535 566.896 349.199 565.835 344.911C565.081 341.863 564.429 339.233 563.289 337.959C562.438 337.01 561.587 336.662 560.763 336.934C559.597 337.316 558.521 338.985 558.363 340.654C558.094 343.497 558.255 346.414 558.255 346.443C558.27 346.694 558.135 346.934 557.91 347.051C557.685 347.167 557.413 347.144 557.214 346.986C549.588 341.007 537.085 332.395 533.896 333.205C533.107 333.403 532.601 333.868 532.475 334.511C532.326 335.268 532.683 336.451 534.107 337.553C534.171 337.6 534.218 337.638 534.25 337.661C534.53 337.877 534.586 338.278 534.373 338.561C534.159 338.845 533.759 338.903 533.475 338.693C533.426 338.658 533.379 338.623 533.332 338.585C531.923 337.536 528.289 335.23 526.337 335.668C525.878 335.77 525.562 336.019 525.343 336.446C524.153 338.766 527.342 341.612 527.375 341.641C527.524 341.77 527.603 341.963 527.594 342.159C527.582 342.354 527.483 342.536 527.322 342.65C527.246 342.708 525.325 344.19 527.234 347.723C528.751 350.528 530.643 352.723 531.265 353.445C531.502 353.722 531.862 354.137 531.452 354.567C531.335 354.69 531.172 354.754 531.005 354.757V354.76Z" fill="#1E2B62"/>
<path d="M545.975 348.115C545.838 348.115 545.7 348.071 545.583 347.98L533.464 338.684C533.18 338.468 533.128 338.062 533.344 337.781C533.56 337.501 533.964 337.445 534.247 337.661L546.367 346.957C546.65 347.174 546.703 347.58 546.487 347.86C546.361 348.027 546.168 348.112 545.975 348.112V348.115Z" fill="#1E2B62"/>
<path d="M541.93 355.593C541.78 355.593 541.631 355.543 541.511 355.438L526.53 342.618C526.258 342.387 526.229 341.981 526.46 341.709C526.691 341.437 527.1 341.408 527.369 341.639L542.35 354.459C542.622 354.69 542.652 355.096 542.421 355.368C542.292 355.517 542.111 355.593 541.93 355.593Z" fill="#1E2B62"/>
<path d="M540.774 363.79C540.619 363.79 540.461 363.734 540.339 363.62L530.528 354.585C530.265 354.345 530.251 353.936 530.49 353.673C530.733 353.413 531.139 353.395 531.402 353.635L541.213 362.671C541.476 362.91 541.49 363.319 541.251 363.582C541.125 363.72 540.95 363.79 540.777 363.79H540.774Z" fill="#1E2B62"/>
<path d="M741.357 304.391C736.975 297.623 729.349 293.666 721.293 293.979L702.754 294.701C701.245 291.504 699.255 287.448 698.512 286.705C697.255 285.449 663.7 287.781 662.803 289.037C662.224 289.847 661.128 293.701 660.417 296.346L634.348 297.325C634.348 297.325 631.703 370.301 640.528 387.943C649.353 405.588 660.017 494.54 660.017 494.54C660.017 494.54 740.907 495.642 740.907 496.747C740.907 497.851 742.378 305.972 742.378 305.972L741.354 304.391H741.357Z" fill="#FFE02E"/>
<path d="M662.128 296.807C661.783 296.807 661.497 296.536 661.485 296.188C661.47 295.831 661.748 295.533 662.105 295.519L700.863 294.084C701.22 294.066 701.518 294.35 701.53 294.703C701.544 295.06 701.267 295.358 700.91 295.373L662.151 296.807C662.151 296.807 662.134 296.807 662.128 296.807Z" fill="#1E2B62"/>
<path d="M634.349 297.343C634.349 297.343 618.97 298.708 614.416 314.888C609.864 331.072 610.153 388.224 610.153 388.224L576.776 359.34L560.582 399.349C560.582 399.349 601.556 447.897 629.885 448.403C658.214 448.909 667.319 397.327 667.319 397.327L634.355 297.343H634.349Z" fill="#FFE02E"/>
<path d="M652.148 435.992C651.826 435.992 651.548 435.752 651.507 435.425L640.317 343.95C640.274 343.597 640.525 343.275 640.879 343.232C641.232 343.188 641.554 343.439 641.595 343.793L652.785 435.267C652.829 435.62 652.577 435.942 652.224 435.986C652.197 435.989 652.171 435.992 652.145 435.992H652.148Z" fill="#1E2B62"/>
<path d="M611.337 410.985C610.997 410.985 610.711 410.72 610.693 410.375L609.513 388.259C609.495 387.902 609.767 387.601 610.12 387.581C610.492 387.566 610.778 387.835 610.799 388.188L611.98 410.305C611.997 410.661 611.725 410.962 611.372 410.983C611.36 410.983 611.348 410.983 611.337 410.983V410.985Z" fill="#1E2B62"/>
<path d="M680.845 274.21C680.845 274.21 671.108 287.839 672.081 301.469C673.054 315.099 680.333 310.061 675.463 325.152C670.593 340.242 659.962 353.258 665.752 372.052C673.338 396.672 716.391 389.577 734.406 375.947C752.422 362.317 734.895 338.466 725.643 331.651C716.391 324.836 721.685 311.399 720.773 300.499C719.08 280.238 693.993 282.974 690.585 271.293C687.176 259.61 681.821 263.017 680.848 274.213L680.845 274.21Z" fill="#1E2B62"/>
<path d="M583.593 523.485H755.956L801.025 319.189C802.893 310.826 796.529 302.889 787.959 302.889H708.281C702.125 302.889 696.761 307.088 695.285 313.064L649.362 498.929H604.567C597.566 498.929 591.295 503.263 588.822 509.812L583.59 523.488L583.593 523.485Z" fill="white"/>
<path d="M756.002 523.895C755.956 523.895 755.909 523.889 755.862 523.88C755.514 523.804 755.295 523.459 755.371 523.112L800.397 319.052C801.245 315.256 800.339 311.34 797.906 308.307C795.474 305.274 791.85 303.532 787.962 303.532H740.197C739.84 303.532 739.551 303.243 739.551 302.889C739.551 302.535 739.84 302.243 740.197 302.243H787.962C792.244 302.243 796.234 304.16 798.912 307.5C801.59 310.841 802.589 315.154 801.657 319.33L756.631 523.389C756.564 523.69 756.298 523.895 756.002 523.895Z" fill="#1E2B62"/>
<path d="M583.867 523.988C583.794 523.988 583.718 523.977 583.645 523.947C583.312 523.825 583.139 523.453 583.262 523.12L588.22 509.584C590.775 502.819 597.343 498.278 604.569 498.278H648.859L655.895 469.797C655.979 469.452 656.327 469.242 656.675 469.326C657.02 469.411 657.231 469.762 657.146 470.107L649.987 499.078C649.917 499.368 649.657 499.569 649.361 499.569H604.566C597.872 499.569 591.789 503.775 589.424 510.034L584.47 523.564C584.373 523.825 584.127 523.988 583.864 523.988H583.867Z" fill="#1E2B62"/>
<path d="M667.229 499.572H651.709C651.353 499.572 651.066 499.283 651.066 498.929C651.066 498.575 651.356 498.283 651.709 498.283H666.723L709.863 322.83C711.041 317.909 715.406 314.467 720.472 314.467H791.248C791.605 314.467 791.891 314.756 791.891 315.11C791.891 315.463 791.602 315.753 791.248 315.753H720.472C716.002 315.753 712.155 318.786 711.115 323.131L667.854 499.078C667.784 499.367 667.524 499.569 667.229 499.569V499.572Z" fill="#1E2B62"/>
<path d="M378.398 383.326H448.33L510.591 330.555H447.652L378.398 383.326Z" fill="white"/>
<path d="M448.33 383.972H378.398C378.121 383.972 377.875 383.797 377.788 383.534C377.7 383.271 377.788 382.981 378.007 382.815L447.263 330.044C447.377 329.959 447.511 329.912 447.655 329.912H510.594C510.866 329.912 511.105 330.082 511.199 330.336C511.292 330.59 511.216 330.874 511.012 331.049L448.751 383.82C448.634 383.919 448.488 383.972 448.333 383.972H448.33ZM380.307 382.683H448.093L508.834 331.201H447.871L380.307 382.683Z" fill="#1E2B62"/>
<path d="M301.383 219.001C301.383 219.001 302.552 209.828 299.714 202.657C296.878 195.485 285.197 195.485 280.193 200.821C275.188 206.158 264.177 208.326 259.003 211.996C253.831 215.667 257.167 227.341 257.167 227.341C257.167 227.341 252.662 232.511 252.829 239.685C252.995 246.857 258.576 259.99 267.214 266.267C275.852 272.544 278.857 270.542 286.697 267.874C294.54 265.206 303.046 256.033 304.215 252.362C305.385 248.692 307.218 236.518 307.218 236.518L301.377 219.004L301.383 219.001Z" fill="#1E2B62"/>
<path d="M297.648 211.318C297.648 211.318 316.725 239.928 317.634 247.193C318.543 254.458 301.758 262.05 301.758 262.05L285.611 289.198L254.949 285.566C254.949 285.566 266.078 266.72 267.215 266.267C267.215 266.267 272.018 269.484 276.785 268.119C281.556 266.758 286.067 263.54 286.067 263.54C286.067 263.54 288.487 262.503 292.308 259.157C297.555 254.566 299.238 253.549 299.238 253.549C299.238 253.549 295.093 253.481 292.653 244.922C290.434 237.143 295.321 234.162 298.66 236.427C301.583 238.411 302.419 240.381 302.419 240.381L304.918 239.019C304.918 239.019 299.466 229.936 298.56 225.395C297.651 220.854 297.651 211.318 297.651 211.318H297.648Z" fill="#FFE9DD"/>
<path d="M285.615 289.84C285.589 289.84 285.566 289.84 285.539 289.835L254.878 286.202C254.662 286.176 254.475 286.044 254.375 285.849C254.279 285.653 254.288 285.422 254.399 285.235C258.596 278.125 265.814 266.132 266.98 265.664C267.176 265.585 267.401 265.609 267.576 265.728C267.623 265.758 272.195 268.762 276.612 267.499C281.216 266.184 285.65 263.046 285.694 263.017C285.729 262.99 285.77 262.967 285.811 262.949C285.835 262.938 288.205 261.894 291.886 258.674C294.899 256.038 296.747 254.568 297.787 253.791C296.218 253.054 293.71 250.971 292.035 245.1C290.857 240.968 291.506 237.522 293.768 235.886C295.332 234.755 297.346 234.758 299.024 235.895C301.102 237.306 302.187 238.723 302.675 239.509L304.026 238.773C302.801 236.678 298.726 229.503 297.928 225.523C297.016 220.97 297.007 211.712 297.007 211.321C297.007 211.037 297.194 210.786 297.466 210.704C297.738 210.622 298.033 210.728 298.188 210.964C298.971 212.136 317.361 239.784 318.279 247.116C319.191 254.422 304.172 261.646 302.213 262.555L286.168 289.531C286.051 289.726 285.84 289.846 285.615 289.846V289.84ZM256.012 285.039L285.273 288.505L301.208 261.716C301.275 261.602 301.374 261.512 301.497 261.459C301.661 261.386 317.841 253.984 316.999 247.271C316.25 241.286 302.517 219.924 298.322 213.507C298.381 216.584 298.571 222.16 299.194 225.269C300.07 229.65 305.42 238.598 305.473 238.685C305.563 238.837 305.587 239.016 305.543 239.185C305.496 239.355 305.385 239.498 305.23 239.583L302.731 240.944C302.57 241.032 302.383 241.047 302.21 240.988C302.038 240.93 301.9 240.798 301.83 240.632C301.824 240.617 301.006 238.793 298.302 236.961C297.086 236.137 295.639 236.125 294.525 236.929C292.719 238.235 292.254 241.158 293.277 244.746C295.528 252.645 299.226 252.905 299.264 252.905C299.547 252.917 299.796 253.116 299.863 253.39C299.93 253.665 299.819 253.954 299.576 254.101C299.562 254.109 297.84 255.179 292.736 259.641C289.182 262.751 286.817 263.905 286.39 264.101C285.84 264.486 281.564 267.423 276.966 268.736C272.756 269.937 268.62 267.841 267.293 267.064C265.784 268.829 259.909 278.467 256.012 285.036V285.039Z" fill="#1E2B62"/>
<path d="M300.924 245.413C300.693 245.413 300.471 245.29 300.354 245.071C297.869 240.416 296.042 240.954 296.025 240.962C295.697 241.07 295.329 240.904 295.206 240.579C295.086 240.255 295.23 239.899 295.545 239.764C295.832 239.644 298.439 238.747 301.491 244.463C301.658 244.776 301.541 245.168 301.225 245.334C301.129 245.387 301.023 245.41 300.921 245.41L300.924 245.413Z" fill="#1E2B62"/>
<path d="M403.668 346.276C403.668 346.276 426.872 338.298 434.265 337.115C441.655 335.931 447.715 336.966 450.673 341.253C450.673 341.253 453.482 341.992 456.733 344.061C459.983 346.13 460.427 351.154 460.427 351.154C460.427 351.154 462.386 353.585 465.447 359.772C468.928 366.814 470.255 369.818 469.665 372.776C469.074 375.73 466.145 376.972 463.336 375.938C463.336 375.938 465.093 384.372 458.507 382.627C455.21 381.753 453.777 375.385 451.263 373.17C448.749 370.955 441.655 374.5 437.369 378.194C433.084 381.888 417.267 390.015 417.267 390.015L403.668 346.276Z" fill="#FFE9DD"/>
<path d="M417.265 390.658C417.18 390.658 417.095 390.641 417.016 390.608C416.841 390.535 416.706 390.386 416.651 390.205L403.052 346.467C402.95 346.134 403.128 345.78 403.459 345.666C404.409 345.339 426.8 337.656 434.164 336.478C442.284 335.178 448.122 336.636 451.069 340.695C451.82 340.92 454.278 341.736 457.079 343.515C460.224 345.514 460.928 349.909 461.048 350.9C461.522 351.528 463.355 354.082 466.024 359.483C469.619 366.754 470.917 369.793 470.297 372.899C470.002 374.381 469.148 375.585 467.897 376.283C466.792 376.903 465.456 377.087 464.121 376.824C464.278 378.32 464.322 381.079 462.77 382.549C461.744 383.522 460.256 383.756 458.341 383.25C456.114 382.66 454.746 380.085 453.425 377.592C452.574 375.991 451.773 374.477 450.838 373.653C448.8 371.853 442.267 374.825 437.791 378.682C433.497 382.385 418.212 390.255 417.563 390.588C417.472 390.635 417.37 390.658 417.268 390.658H417.265ZM404.47 346.683L417.654 389.086C420.726 387.487 433.269 380.871 436.947 377.704C441.115 374.112 448.68 370.032 451.688 372.683C452.799 373.662 453.656 375.275 454.562 376.985C455.754 379.232 456.985 381.555 458.669 381.999C460.119 382.382 461.2 382.254 461.881 381.608C463.238 380.325 462.934 377.169 462.706 376.061C462.659 375.833 462.738 375.594 462.916 375.442C463.095 375.29 463.34 375.243 463.559 375.325C464.863 375.804 466.214 375.743 467.269 375.152C468.198 374.632 468.809 373.764 469.034 372.639C469.578 369.927 468.324 367.031 464.869 360.047C461.887 354.018 459.946 351.572 459.926 351.549C459.847 351.449 459.797 351.33 459.786 351.201C459.78 351.154 459.327 346.464 456.386 344.594C453.267 342.609 450.534 341.873 450.507 341.864C450.358 341.826 450.23 341.733 450.142 341.607C446.862 336.85 439.753 336.879 434.368 337.741C427.774 338.796 408.139 345.424 404.47 346.674V346.683Z" fill="#1E2B62"/>
<path d="M463.33 376.008C463.33 376.008 456.226 363.854 454.253 361.809C450.857 358.284 445.203 360.02 445.203 360.02L463.33 376.011V376.008Z" fill="white"/>
<path d="M463.331 376.651C463.109 376.651 462.892 376.537 462.772 376.333C462.702 376.213 455.687 364.223 453.79 362.256C450.711 359.065 445.444 360.619 445.391 360.634C445.052 360.736 444.69 360.546 444.587 360.207C444.482 359.868 444.675 359.509 445.014 359.404C445.26 359.328 451.089 357.595 454.719 361.362C456.722 363.44 463.597 375.184 463.886 375.684C464.065 375.991 463.962 376.385 463.655 376.567C463.553 376.625 463.442 376.654 463.331 376.654V376.651Z" fill="#1E2B62"/>
<path d="M460.343 351.168C460.343 351.168 457.458 348.027 451.261 348.789C446.455 349.38 442.199 351.104 442.199 351.104L460.343 351.168Z" fill="white"/>
<path d="M460.343 351.812C460.17 351.812 459.998 351.741 459.869 351.604C459.758 351.487 457.098 348.717 451.339 349.427C446.674 350 442.482 351.683 442.441 351.701C442.111 351.832 441.734 351.674 441.602 351.344C441.468 351.014 441.629 350.64 441.956 350.505C442.134 350.432 446.35 348.74 451.182 348.147C457.636 347.355 460.688 350.593 460.816 350.73C461.056 350.993 461.039 351.4 460.778 351.639C460.656 351.753 460.498 351.809 460.343 351.809V351.812Z" fill="#1E2B62"/>
<path d="M450.597 341.361C450.597 341.361 445.394 341.566 440.211 343.027L450.597 341.361Z" fill="white"/>
<path d="M440.214 343.673C439.934 343.673 439.674 343.486 439.595 343.202C439.498 342.86 439.697 342.504 440.039 342.407C445.236 340.943 450.358 340.727 450.574 340.718C450.91 340.706 451.229 340.981 451.244 341.338C451.258 341.694 450.981 341.992 450.627 342.007C450.574 342.007 445.435 342.229 440.39 343.649C440.331 343.667 440.273 343.673 440.214 343.673Z" fill="#1E2B62"/>
<path d="M441.059 502.15C436.06 476.91 413.911 458.722 388.173 458.722H343.585L332.921 409.048C341.112 426.465 358.429 432.064 384.916 417.298L423.628 389.802L405.291 344.483L370.327 353.615L351.291 305.642C346.956 295.747 337.496 289.064 326.716 288.284L304.923 286.705C302.208 282.921 297.791 276.886 296.031 275.124C293.409 272.503 248.783 268.985 245.501 272.591C243.668 274.607 241.224 278.292 239.461 281.965L222.615 280.747C208.987 279.759 196.505 288.377 192.603 301.469L188.68 312.059L256.316 522.697L380.944 522.539L383.417 523.796H445.324L441.053 502.153L441.059 502.15Z" fill="#00A5F3"/>
<path d="M189.121 313.801C189.059 313.801 188.998 313.792 188.937 313.774C188.595 313.672 188.402 313.312 188.504 312.974L191.988 301.287C196.011 287.801 208.615 279.086 222.664 280.106C223.018 280.133 223.287 280.439 223.261 280.796C223.234 281.152 222.922 281.413 222.571 281.392C209.139 280.416 197.069 288.753 193.222 301.655L189.738 313.342C189.656 313.622 189.398 313.803 189.121 313.803V313.801Z" fill="#1E2B62"/>
<path d="M393.335 501.478H375.659C375.302 501.478 375.016 501.189 375.016 500.832C375.016 500.476 375.305 500.189 375.659 500.189H393.335C393.692 500.189 393.978 500.479 393.978 500.832C393.978 501.186 393.689 501.478 393.335 501.478Z" fill="#1E2B62"/>
<path d="M298.33 286.915C298.312 286.915 298.292 286.915 298.274 286.915L245.148 282.325C244.795 282.295 244.532 281.983 244.561 281.626C244.593 281.272 244.897 281.001 245.259 281.039L298.385 285.63C298.739 285.659 299.002 285.972 298.973 286.328C298.944 286.664 298.663 286.918 298.333 286.918L298.33 286.915Z" fill="#1E2B62"/>
<path d="M382.367 388.408C382.101 388.408 381.853 388.241 381.759 387.978L369.716 353.831C369.599 353.495 369.774 353.127 370.111 353.01C370.447 352.89 370.815 353.068 370.932 353.405L382.975 387.552C383.092 387.888 382.917 388.256 382.581 388.373C382.511 388.399 382.438 388.411 382.367 388.411V388.408Z" fill="#1E2B62"/>
<path d="M221.277 523.793L181.866 322.323C180.08 313.211 187.058 304.733 196.345 304.733H289.039C296.107 304.733 302.182 309.742 303.526 316.68L338.812 498.831H362.698C372.096 498.831 380.143 505.555 381.812 514.798L383.344 523.79H221.277V523.793Z" fill="white"/>
<path d="M194.657 388.191C194.356 388.191 194.084 387.978 194.026 387.671L181.234 322.445C179.781 315.034 183.853 307.728 190.913 305.069C191.246 304.946 191.617 305.112 191.743 305.446C191.869 305.779 191.699 306.15 191.366 306.276C184.897 308.71 181.167 315.408 182.497 322.196L195.289 387.422C195.356 387.773 195.131 388.109 194.78 388.179C194.739 388.188 194.695 388.191 194.654 388.191H194.657Z" fill="#1E2B62"/>
<path d="M221.353 523.991C221.052 523.991 220.783 523.778 220.722 523.471L206.337 451.112C206.267 450.764 206.495 450.425 206.843 450.355C207.196 450.287 207.532 450.512 207.6 450.86L221.985 523.22C222.055 523.567 221.827 523.906 221.479 523.976C221.435 523.985 221.394 523.988 221.353 523.988V523.991Z" fill="#1E2B62"/>
<path d="M335.385 499.473H315.896C315.583 499.473 315.315 499.248 315.262 498.941L284.489 323.389C283.811 319.523 280.47 316.717 276.544 316.717H194.768C194.411 316.717 194.125 316.428 194.125 316.075C194.125 315.721 194.414 315.432 194.768 315.432H276.544C281.099 315.432 284.972 318.687 285.758 323.17L316.437 498.187H335.385C335.742 498.187 336.031 498.477 336.031 498.833C336.031 499.19 335.742 499.476 335.385 499.476V499.473Z" fill="#1E2B62"/>
</g>
<defs>
<clipPath id="clip0_3214_21160">
<rect width="802" height="524" fill="white"/>
</clipPath>
</defs>
</svg>
