<svg width="329" height="269" viewBox="0 0 329 269" fill="none" xmlns="http://www.w3.org/2000/svg">
<g clip-path="url(#clip0_3214_3150)">
<path d="M317.638 101.866L206.42 86.3514C203.627 85.9946 201.536 83.6114 201.536 80.7861L200.01 2.97445C200.01 2.97445 202.546 1.14049 203.983 0.438626C204.714 0.0817466 205.556 -0.0748839 206.432 0.0361453L317.318 14.2201C320.111 14.577 322.202 16.9602 322.202 19.7855V96.2112C322.202 97.5793 321.58 98.7847 320.615 99.5798C319.728 100.311 317.638 101.866 317.638 101.866Z" fill="#1E2B62"/>
<path d="M314.245 102.899L203.359 88.715C200.566 88.3582 198.475 85.975 198.475 83.1497V6.72393C198.475 4.0969 200.773 2.06864 203.371 2.39974L314.257 16.5837C317.05 16.9406 319.141 19.3238 319.141 22.1491V98.5748C319.141 101.202 316.842 103.23 314.245 102.899Z" fill="#1E2B62"/>
<path d="M319.14 43.4033C318.907 43.4033 318.719 43.215 318.719 42.981V22.1472C318.719 19.5439 316.776 17.3313 314.203 17.0022L295.012 14.5476C294.78 14.5179 294.618 14.3077 294.648 14.0758C294.678 13.8438 294.887 13.6792 295.118 13.7109L314.309 16.1655C317.304 16.5481 319.561 19.1216 319.561 22.1492V42.983C319.561 43.217 319.374 43.4053 319.14 43.4053V43.4033Z" fill="#1E2B62"/>
<path d="M198.474 24.0502C198.241 24.0502 198.053 23.8618 198.053 23.6278V6.72365C198.053 5.34966 198.642 4.04308 199.67 3.13502C200.697 2.22696 202.063 1.80664 203.423 1.98111L290.479 13.1177C290.711 13.1475 290.873 13.3576 290.843 13.5896C290.813 13.8216 290.602 13.9842 290.373 13.9544L203.316 2.8178C202.2 2.67504 201.073 3.02201 200.227 3.76749C199.381 4.51496 198.897 5.59154 198.897 6.72166V23.6259C198.897 23.8598 198.709 24.0482 198.476 24.0482L198.474 24.0502Z" fill="#1E2B62"/>
<path d="M311.888 99.7482L206.009 86.2047C203.979 85.9449 202.457 84.2121 202.457 82.158V8.4386C202.457 6.68394 203.993 5.32978 205.726 5.54986L311.606 19.0934C313.636 19.3532 315.158 21.086 315.158 23.4831V97.2025C315.158 98.6142 313.622 99.9703 311.888 99.7482Z" fill="white"/>
<path d="M249.554 147.909L135.511 133.156C134.617 133.041 134.115 132.292 134.127 131.542C134.135 131.025 134.177 127.385 134.177 127.385L194.477 92.8071C197.498 91.0762 201.407 90.4081 204.858 90.8502L317.46 105.421C318.138 105.508 318.719 105.95 318.988 106.581L319.17 107.005C319.17 107.005 319.073 110.042 319.113 110.75C319.144 111.305 318.895 111.878 318.316 112.209L259.53 145.925C256.509 147.656 253.007 148.351 249.556 147.909H249.554Z" fill="#1E2B62"/>
<path d="M249.554 143.856L135.92 129.131C134.412 128.937 134.015 126.93 135.335 126.175L193.805 92.6777C196.825 90.9469 200.328 90.2509 203.779 90.6931L317.413 105.418C318.921 105.613 319.318 107.619 317.998 108.374L259.528 141.872C256.507 143.602 253.005 144.298 249.554 143.856Z" fill="white"/>
<path d="M251.562 144.406C250.874 144.406 250.185 144.362 249.501 144.275L135.867 129.549C134.997 129.438 134.325 128.808 134.155 127.946C133.985 127.083 134.367 126.244 135.128 125.808L193.598 92.3111C196.68 90.5465 200.315 89.8228 203.833 90.2749L317.469 104.998C318.338 105.109 319.01 105.74 319.18 106.602C319.35 107.465 318.969 108.303 318.208 108.739L259.738 142.237C257.255 143.658 254.415 144.404 251.564 144.404L251.562 144.406ZM249.607 143.438C252.946 143.866 256.395 143.18 259.319 141.507L317.789 108.01C318.325 107.703 318.431 107.167 318.354 106.769C318.275 106.37 317.973 105.916 317.36 105.837L203.724 91.1135C200.386 90.6853 196.936 91.3713 194.013 93.0447L135.543 126.542C135.007 126.849 134.9 127.384 134.977 127.783C135.057 128.181 135.359 128.635 135.972 128.715L249.607 143.44V143.438Z" fill="#1E2B62"/>
<path d="M271.803 125.263L173.266 112.401C171.905 112.227 171.545 110.415 172.739 109.731L195.907 96.5914C198.636 95.029 201.797 94.3986 204.914 94.7991L303.45 107.661C304.812 107.835 305.172 109.647 303.978 110.331L280.81 123.47C278.081 125.033 274.92 125.663 271.803 125.263Z" fill="#1E2B62"/>
<path d="M308.602 41.0043C308.586 41.0043 308.569 41.0043 308.553 41.0023L207.277 28.9755C207.046 28.9477 206.882 28.7376 206.909 28.5076C206.937 28.2756 207.146 28.111 207.376 28.1388L308.652 40.1656C308.883 40.1934 309.047 40.4036 309.019 40.6335C308.994 40.8477 308.812 41.0063 308.602 41.0063V41.0043Z" fill="#1E2B62"/>
<path d="M224.454 82.5749C224.221 82.5749 224.033 82.3865 224.033 82.1526V14.1293C224.033 13.8954 224.221 13.707 224.454 13.707C224.687 13.707 224.875 13.8954 224.875 14.1293V82.1526C224.875 82.3865 224.687 82.5749 224.454 82.5749Z" fill="#1E2B62"/>
<path d="M247.792 87.0827C247.559 87.0827 247.371 86.8943 247.371 86.6604V18.6372C247.371 18.4032 247.559 18.2148 247.792 18.2148C248.025 18.2148 248.213 18.4032 248.213 18.6372V86.6604C248.213 86.8943 248.025 87.0827 247.792 87.0827Z" fill="#1E2B62"/>
<path d="M270.218 87.0827C269.985 87.0827 269.797 86.8943 269.797 86.6604V18.6372C269.797 18.4032 269.985 18.2148 270.218 18.2148C270.451 18.2148 270.639 18.4032 270.639 18.6372V86.6604C270.639 86.8943 270.451 87.0827 270.218 87.0827Z" fill="#1E2B62"/>
<path d="M293.556 91.5915C293.323 91.5915 293.135 91.4031 293.135 91.1692V23.1459C293.135 22.912 293.323 22.7236 293.556 22.7236C293.789 22.7236 293.977 22.912 293.977 23.1459V91.1692C293.977 91.4031 293.789 91.5915 293.556 91.5915Z" fill="#1E2B62"/>
<path d="M221.949 48.266L206.557 46.2972C206.262 46.2595 206.041 46.0077 206.041 45.7084V34.9921C206.041 34.7363 206.264 34.54 206.515 34.5717L221.907 36.5405C222.202 36.5782 222.423 36.83 222.423 37.1789V47.8952C222.423 48.0995 222.2 48.2977 221.949 48.266Z" fill="#FFE02E"/>
<path d="M244.146 64.0053L228.754 62.0365C228.46 61.9988 228.238 61.747 228.238 61.4476V50.7313C228.238 50.4755 228.462 50.2793 228.713 50.311L244.105 52.2798C244.399 52.3174 244.62 52.5692 244.62 52.9182V63.6345C244.62 63.8387 244.397 64.037 244.146 64.0053Z" fill="#00A5F3"/>
<path d="M266.523 52.6459L251.131 50.6771C250.837 50.6394 250.615 50.3876 250.615 50.0882V39.3719C250.615 39.1162 250.839 38.9199 251.09 38.9516L266.482 40.9204C266.776 40.9581 266.997 41.2099 266.997 41.5588V52.2751C266.997 52.4793 266.774 52.6776 266.523 52.6459Z" fill="#00A5F3"/>
<path d="M266.523 67.8851L251.131 65.9163C250.837 65.8787 250.615 65.6269 250.615 65.3275V54.6112C250.615 54.3554 250.839 54.1591 251.09 54.1909L266.482 56.1597C266.776 56.1973 266.997 56.4491 266.997 56.7981V67.5144C266.997 67.7186 266.774 67.9169 266.523 67.8851Z" fill="#FFE02E"/>
<path d="M289.951 56.9183L274.559 54.9496C274.264 54.9119 274.043 54.6601 274.043 54.3607V43.6444C274.043 43.3886 274.266 43.1923 274.517 43.2241L289.909 45.1929C290.204 45.2305 290.425 45.4823 290.425 45.8313V56.5476C290.425 56.7518 290.202 56.9501 289.951 56.9183Z" fill="#FFE02E"/>
<path d="M221.36 23.7983L207.146 21.9802C206.874 21.9446 206.67 21.7126 206.67 21.437V17.6818C206.67 17.4459 206.876 17.2635 207.109 17.2932L221.323 19.1113C221.595 19.147 221.799 19.379 221.799 19.7002V23.4553C221.799 23.6457 221.593 23.8261 221.36 23.7964V23.7983Z" fill="#00A5F3"/>
<path d="M243.557 26.8794L229.344 25.0613C229.071 25.0256 228.867 24.7936 228.867 24.518V20.7629C228.867 20.5269 229.073 20.3445 229.306 20.3743L243.52 22.1924C243.793 22.2281 243.996 22.46 243.996 22.7812V26.5364C243.996 26.7267 243.791 26.9072 243.557 26.8774V26.8794Z" fill="#00A5F3"/>
<path d="M266.245 29.4409L252.031 27.6228C251.758 27.5871 251.555 27.3552 251.555 27.0796V23.3244C251.555 23.0885 251.76 22.9061 251.993 22.9358L266.207 24.7539C266.48 24.7896 266.684 25.0216 266.684 25.3428V29.0979C266.684 29.2883 266.478 29.4687 266.245 29.4389V29.4409Z" fill="#00A5F3"/>
<path d="M288.442 32.522L274.228 30.7039C273.956 30.6682 273.752 30.4362 273.752 30.1606V26.4055C273.752 26.1695 273.958 25.9871 274.191 26.0169L288.405 27.835C288.677 27.8706 288.881 28.1026 288.881 28.4238V32.179C288.881 32.3693 288.675 32.5497 288.442 32.52V32.522Z" fill="#00A5F3"/>
<path d="M311.184 36.2808L296.971 34.4627C296.698 34.427 296.494 34.195 296.494 33.9194V30.1642C296.494 29.9283 296.7 29.7459 296.933 29.7756L311.147 31.5938C311.42 31.6294 311.623 31.8614 311.623 32.1826V35.9378C311.623 36.1281 311.418 36.3085 311.184 36.2788V36.2808Z" fill="#00A5F3"/>
<path d="M265.091 78.7515L250.877 76.9334C250.604 76.8977 250.4 76.6657 250.4 76.3901V72.6349C250.4 72.399 250.606 72.2166 250.839 72.2463L265.053 74.0644C265.326 74.1001 265.529 74.3321 265.529 74.6533V78.4085C265.529 78.5988 265.324 78.7792 265.091 78.7495V78.7515Z" fill="#00A5F3"/>
<path d="M311.184 62.4302L296.971 60.6121C296.698 60.5764 296.494 60.3444 296.494 60.0688V56.3137C296.494 56.0777 296.7 55.8953 296.933 55.9251L311.147 57.7432C311.42 57.7788 311.623 58.0108 311.623 58.332V62.0872C311.623 62.2775 311.418 62.4579 311.184 62.4282V62.4302Z" fill="#00A5F3"/>
<path d="M219.61 61.0347L205.396 59.2166C205.124 59.1809 204.92 58.9489 204.92 58.6733V54.9182C204.92 54.6822 205.125 54.4998 205.359 54.5296L219.573 56.3477C219.845 56.3833 220.049 56.6153 220.049 56.9365V60.6917C220.049 60.882 219.843 61.0624 219.61 61.0327V61.0347Z" fill="#00A5F3"/>
<path d="M230.259 36.1247C230.259 35.4129 229.684 34.8359 228.974 34.8359C228.265 34.8359 227.689 35.4129 227.689 36.1247C227.689 36.8364 228.265 37.4134 228.974 37.4134C229.684 37.4134 230.259 36.8364 230.259 36.1247Z" fill="#00A5F3"/>
<path d="M245.173 38.1389C245.157 38.1389 245.14 38.1389 245.124 38.1369L231.718 36.5448C231.487 36.5171 231.323 36.3069 231.351 36.0769C231.378 35.8449 231.588 35.6804 231.817 35.7081L245.223 37.3002C245.454 37.328 245.618 37.5381 245.59 37.7681C245.565 37.9822 245.383 38.1409 245.173 38.1409V38.1389Z" fill="#00A5F3"/>
<path d="M229.882 41.341C230.383 40.8377 230.383 40.0217 229.882 39.5184C229.38 39.0151 228.566 39.0151 228.065 39.5184C227.563 40.0217 227.563 40.8377 228.065 41.341C228.566 41.8442 229.38 41.8442 229.882 41.341Z" fill="#00A5F3"/>
<path d="M245.173 42.4455C245.157 42.4455 245.14 42.4455 245.124 42.4435L231.718 40.8515C231.487 40.8237 231.323 40.6135 231.351 40.3835C231.378 40.1516 231.588 39.987 231.817 40.0148L245.223 41.6069C245.454 41.6346 245.618 41.8448 245.59 42.0748C245.565 42.2889 245.383 42.4475 245.173 42.4475V42.4455Z" fill="#00A5F3"/>
<path d="M229.266 46.6226C229.957 46.4599 230.385 45.7662 230.223 45.0733C230.061 44.3805 229.369 43.9507 228.678 44.1135C227.988 44.2763 227.559 44.9699 227.722 45.6628C227.884 46.3557 228.575 46.7854 229.266 46.6226Z" fill="#00A5F3"/>
<path d="M245.173 47.3645C245.157 47.3645 245.14 47.3645 245.124 47.3625L231.718 45.7704C231.487 45.7426 231.323 45.5325 231.351 45.3025C231.378 45.0705 231.586 44.906 231.817 44.9337L245.223 46.5258C245.454 46.5536 245.618 46.7637 245.59 46.9937C245.565 47.2078 245.383 47.3664 245.173 47.3664V47.3645Z" fill="#00A5F3"/>
<path d="M274.103 65.8655C274.8 65.7302 275.255 65.054 275.121 64.3553C274.986 63.6565 274.312 63.1997 273.615 63.3351C272.918 63.4704 272.463 64.1465 272.598 64.8453C272.733 65.5441 273.407 66.0008 274.103 65.8655Z" fill="#00A5F3"/>
<path d="M290.058 66.6301C290.042 66.6301 290.024 66.6301 290.009 66.6281L276.603 65.036C276.372 65.0083 276.208 64.7981 276.235 64.5681C276.263 64.3361 276.471 64.1716 276.702 64.1993L290.107 65.7914C290.339 65.8192 290.503 66.0293 290.475 66.2593C290.449 66.4735 290.267 66.6321 290.058 66.6321V66.6301Z" fill="#00A5F3"/>
<path d="M274.065 70.7995C274.766 70.6858 275.242 70.0241 275.129 69.3215C275.015 68.6189 274.355 68.1414 273.655 68.2551C272.955 68.3688 272.479 69.0305 272.592 69.7331C272.705 70.4357 273.365 70.9132 274.065 70.7995Z" fill="#00A5F3"/>
<path d="M290.058 71.5487C290.042 71.5487 290.024 71.5487 290.009 71.5467L276.603 69.9546C276.372 69.9268 276.208 69.7167 276.235 69.4867C276.263 69.2547 276.471 69.0921 276.702 69.1179L290.107 70.71C290.339 70.7378 290.503 70.9479 290.475 71.1779C290.449 71.392 290.267 71.5507 290.058 71.5507V71.5487Z" fill="#00A5F3"/>
<path d="M214.231 128.729C214.415 127.524 215.737 124.235 216.637 122.962L225.371 107.261C225.371 107.261 227.358 115.511 226.46 119.456C230.342 118.336 235.057 114.833 235.057 114.833C235.057 114.833 239.136 107.939 240.279 106.607C241.419 105.276 242.833 103.296 244.754 102.699C246.681 102.1 249.061 102.951 249.061 102.951L244.208 121.57L226.006 133.565C226.006 133.565 197.469 183.726 149.532 198.999C141.492 201.56 138.183 195.339 133.465 189.296C130.691 185.743 128.122 182.676 126.262 179.285L116.566 112.259C130.622 119.536 149.633 163.725 152.304 162.532C158.237 159.877 203.13 137.746 213.958 129.382L214.231 128.727V128.729Z" fill="#8C5745"/>
<path d="M146.045 200.244C140.884 200.244 137.812 196.147 134.592 191.855C134.058 191.145 133.517 190.419 132.954 189.7C132.523 189.149 132.098 188.607 131.679 188.076C129.421 185.215 127.291 182.511 125.693 179.602C125.656 179.533 125.63 179.457 125.618 179.38L115.923 112.354C115.887 112.112 115.99 111.868 116.19 111.725C116.389 111.583 116.65 111.565 116.868 111.676C125.944 116.375 136.612 135.395 144.4 149.283C147.689 155.146 151.085 161.205 152.182 161.869C159.329 158.643 202.568 137.252 213.424 128.969L213.599 128.546C213.835 127.22 215.141 123.968 216.082 122.612L224.799 106.941C224.929 106.705 225.192 106.577 225.457 106.612C225.724 106.648 225.939 106.846 226.003 107.108C226.078 107.421 227.703 114.24 227.268 118.496C230.45 117.303 233.919 114.846 234.56 114.382C235.119 113.439 238.683 107.459 239.78 106.18C239.936 105.998 240.098 105.801 240.266 105.599C241.359 104.283 242.717 102.645 244.557 102.074C246.668 101.42 249.171 102.296 249.277 102.334C249.598 102.447 249.776 102.788 249.691 103.117L244.838 121.736C244.796 121.893 244.7 122.029 244.565 122.119L226.491 134.028C225.667 135.444 218.519 147.465 206.227 160.997C194.197 174.239 174.63 191.69 149.729 199.625C148.387 200.053 147.163 200.248 146.043 200.248L146.045 200.244ZM126.893 179.073C128.433 181.848 130.506 184.479 132.702 187.263C133.123 187.796 133.55 188.338 133.981 188.891C134.551 189.618 135.098 190.35 135.636 191.066C139.583 196.33 142.702 200.487 149.338 198.372C173.951 190.53 193.325 173.25 205.242 160.134C218.177 145.901 225.368 133.362 225.439 133.237C225.491 133.148 225.562 133.071 225.649 133.015L243.642 121.159L248.269 103.4C247.502 103.208 246.109 102.962 244.947 103.323C243.476 103.779 242.254 105.252 241.274 106.436C241.102 106.644 240.934 106.844 240.774 107.033C239.9 108.052 237.018 112.798 235.617 115.165C235.574 115.241 235.514 115.306 235.445 115.358C235.249 115.504 230.59 118.946 226.641 120.086C226.42 120.15 226.181 120.092 226.013 119.934C225.845 119.775 225.773 119.537 225.825 119.311C226.44 116.611 225.617 111.68 225.099 109.096L217.209 123.282C217.197 123.302 217.185 123.322 217.171 123.342C216.327 124.537 215.046 127.73 214.878 128.83C214.87 128.883 214.857 128.935 214.835 128.985L214.562 129.639C214.519 129.744 214.447 129.835 214.358 129.905C203.584 138.228 159.314 160.116 152.571 163.134C151.182 163.757 149.674 161.362 143.264 149.931C136.304 137.522 125.938 119.042 117.409 113.512L126.895 179.077L126.893 179.073Z" fill="#1E2B62"/>
<path d="M9.81107 138.822C10.3092 144.215 11.0741 150.104 12.1435 156.536C14.0114 167.769 15.4009 177.919 17.3736 186.91C29.2906 204.219 45.1016 219.011 66.0695 229.763C72.2168 232.918 79.2753 244.556 105.979 255.151C121.798 259.131 139.145 261.351 157.725 260.909C143.415 242.555 122.379 213.813 123.447 196.256C123.52 195.081 123.737 195.771 125.281 196.548C129.219 198.53 130.705 199.242 133.223 199.954C135.822 200.688 137.566 199.351 139.872 197.946C147.844 193.09 167.031 179.253 160 161.978C157.729 156.407 153.819 158.316 146.686 143.18C127.509 102.488 120.302 95.8007 94.1256 91.3159C74.5512 87.9572 41.5022 81.8645 29.9469 83.2881C23.9735 84.0256 17.6306 87.527 13.5311 96.8515C9.81107 105.3 7.92538 118.534 9.81107 138.824V138.822Z" fill="#00A5F3"/>
<path d="M101.56 40.8456C103.665 41.5693 104.641 45.955 104.976 48.1795C106.073 55.5075 102.293 72.6932 97.0453 73.8174C91.8745 74.9237 92.3133 72.5623 88.3739 74.777C85.2291 76.5455 84.814 79.7812 83.3849 86.7721C83.294 87.2162 92.339 89.7957 92.4991 90.2219C92.8608 91.1855 87.269 103.046 69.857 100.827C53.3601 98.7236 51.0672 87.4125 51.004 86.6194C50.9664 86.1436 63.4547 85.2692 63.6741 84.8112C66.5639 78.8196 68.7085 68.3849 68.7085 68.3849C68.7085 68.3849 79.4218 33.2342 101.56 40.8456Z" fill="#8C5745"/>
<path d="M74.0131 101.752C72.6868 101.752 71.2754 101.665 69.7752 101.475C52.1339 99.2266 50.3628 86.7933 50.353 86.6684C50.2897 85.8852 51.1219 85.7762 52.9403 85.5363C54.1678 85.3737 55.8163 85.1992 57.4095 85.0287C59.5462 84.8007 62.4103 84.4954 63.1891 84.305C65.9583 78.4185 68.0476 68.3525 68.0694 68.2494L68.0852 68.1899C68.3402 67.3552 74.4677 47.6555 87.1872 41.1424C91.7888 38.787 96.6947 38.4777 101.773 40.2225C104.317 41.0968 105.313 46.0079 105.621 48.0798C106.712 55.3681 103.034 73.2021 97.181 74.4552C94.7023 74.9865 93.4333 74.7565 92.4154 74.5741C91.3065 74.3739 90.6364 74.2529 88.6934 75.3454C86.0566 76.8284 85.5209 79.4872 84.3468 85.3162C84.2717 85.6909 84.1926 86.0775 84.1116 86.478C84.8943 86.829 86.9994 87.5269 88.4602 88.0126C92.6783 89.4124 92.9491 89.5512 93.1131 89.9874C93.4215 90.8082 92.3521 92.8008 91.1365 94.3433C89.2627 96.7225 84.1037 101.751 74.017 101.751L74.0131 101.752ZM51.7583 87.0411C52.3157 89.2339 55.504 98.3364 69.9412 100.176C79.3025 101.37 84.9536 98.3998 88.0451 95.6974C90.5099 93.5443 91.5891 91.3554 91.8165 90.5742C91.1325 90.2808 89.3813 89.6999 88.049 89.2577C82.8881 87.5447 82.5896 87.398 82.7458 86.6386C82.8584 86.0894 82.9632 85.5621 83.066 85.0585C84.2836 79.0133 84.8963 75.9798 88.055 74.2034C90.4071 72.8809 91.4448 73.0693 92.6466 73.2854C93.6013 73.4579 94.6825 73.6522 96.9102 73.1763C101.66 72.1592 105.422 55.5524 104.332 48.2761C103.911 45.4627 102.878 41.989 101.352 41.4636C96.6236 39.8378 92.0576 40.1233 87.7842 42.3102C75.7624 48.4644 69.6111 67.6982 69.3463 68.5468C69.1901 69.3002 67.1068 79.2017 64.2664 85.0941C64.041 85.5601 64.0015 85.6453 57.5518 86.3313C55.508 86.5494 52.8237 86.8349 51.7603 87.0391L51.7583 87.0411Z" fill="#1E2B62"/>
<path d="M91.5683 56.4926C91.5387 56.4926 91.509 56.4926 91.4794 56.4867C88.1764 56.0307 85.9745 51.5241 85.7511 47.4299C85.5693 44.0931 86.7217 41.7852 88.8327 41.2539C92.3965 40.3577 95.2784 45.7982 95.401 46.0301C95.567 46.3513 95.4445 46.7459 95.1243 46.9144C94.806 47.0829 94.4107 46.958 94.2427 46.6388C93.5489 45.3124 91.2817 41.9875 89.1509 42.5248C87.4372 42.955 86.945 45.3045 87.0557 47.3585C87.2455 50.8599 89.141 54.8411 91.6573 55.1881C92.015 55.2376 92.2641 55.5687 92.2147 55.9256C92.1692 56.2527 91.8905 56.4907 91.5683 56.4907V56.4926Z" fill="#1E2B62"/>
<path d="M109.615 33.7932C110.55 38.9343 105.405 40.108 101.325 43.312C97.1092 46.621 97.2693 46.51 95.3777 47.4914C94.1186 48.1437 93.6284 43.2347 90.2069 42.5506C87.6551 42.0391 87.0127 44.2062 86.4572 44.8287C84.2236 47.3408 107.056 97.6588 95.4607 128.412C88.0642 148.032 83.9489 158.152 41.7284 154.246C6.39238 150.975 -2.49647 110.191 3.76545 97.0164C20.0113 62.8353 38.6112 97.6806 46.6027 46.7162C52.2064 10.9886 85.4986 -4.92625 105.85 24.0722C107.905 27.0006 109.022 30.5278 109.615 33.7912V33.7932Z" fill="#1E2B62"/>
<path d="M98.7185 170.543C98.6948 170.539 98.6691 170.537 98.6454 170.533L76.6338 168.798C56.4585 167.208 37.0006 160.602 20.0472 149.556C19.9167 149.471 19.7843 149.386 19.6519 149.301C16.9953 147.588 13.7438 147.05 10.678 147.82L7.68939 148.571C5.80567 149.045 4.06032 149.981 2.64704 151.311C2.31892 151.618 2.10742 151.854 2.10742 151.936L4.94584 168.297C17.5567 194.926 36.7793 217.832 66.0747 232.852C72.1231 235.953 91.1402 250.567 113.389 257.881C113.919 252.171 114.781 232.061 114.781 232.051V190.15C114.781 180.627 108.06 172.427 98.7205 170.545L98.7185 170.543Z" fill="#1E2B62"/>
<path d="M68.4384 242.488C35.8104 232.606 20.7861 227.814 10.5453 221.807C4.01056 217.972 0 210.964 0 203.392V153.567C0 148.309 5.67882 145.008 10.2547 147.605C11.9407 148.563 13.5517 149.56 15.1112 150.579C31.9738 161.595 51.3604 168.152 71.4468 169.736L93.6304 171.485C102.99 173.352 109.726 181.561 109.726 191.095C109.726 191.095 108.912 255.663 108.166 255.968C106.04 256.838 79.8059 245.932 68.4364 242.488H68.4384Z" fill="#98E0FF"/>
<path d="M93.8345 241.582C93.7831 241.582 93.7317 241.576 93.6803 241.564C86.8768 239.913 80.8304 237.979 76.1991 235.971C75.8671 235.828 75.7149 235.442 75.8592 235.111C76.0015 234.777 76.3849 234.625 76.717 234.769C81.281 236.748 87.2544 238.657 93.9867 240.291C94.3366 240.376 94.552 240.729 94.469 241.082C94.3959 241.382 94.129 241.584 93.8345 241.584V241.582Z" fill="#1E2B62"/>
<path d="M76.4581 236.025C76.3671 236.025 76.2742 236.005 76.1853 235.964C70.6527 233.4 67.2372 231.529 65.6954 230.638C62.0466 228.539 58.625 226.477 55.2332 224.339C54.9288 224.147 54.8359 223.743 55.0276 223.435C55.2193 223.13 55.6226 223.037 55.9289 223.229C59.305 225.358 62.7127 227.411 66.3457 229.502C67.8697 230.381 71.2477 232.232 76.7348 234.774C77.0629 234.925 77.2052 235.315 77.053 235.645C76.9423 235.884 76.7071 236.025 76.4601 236.025H76.4581Z" fill="#1E2B62"/>
<path d="M55.5781 224.44C55.4595 224.44 55.3389 224.408 55.2302 224.339C33.523 210.651 16.4371 190.923 4.45291 165.704C4.29676 165.376 4.43512 164.986 4.76127 164.831C5.08741 164.677 5.4768 164.813 5.63098 165.14C17.5085 190.132 34.4303 209.677 55.924 223.231C56.2284 223.423 56.3213 223.827 56.1296 224.135C56.0051 224.333 55.7936 224.442 55.5761 224.442L55.5781 224.44Z" fill="#1E2B62"/>
<path d="M282.296 150.465C282.296 150.465 286.221 146.761 285.963 142.983C285.638 138.268 282.48 128.87 285.597 124.332C290.815 116.73 298.028 119.127 298.028 119.127C298.028 119.127 301.202 112.103 305.758 114.553C309.257 116.435 312.769 120.695 312.477 127.512C312.078 136.803 310.813 145.619 301.125 151.341C297.542 153.459 295.377 159.595 294.608 161.635C292.736 166.6 281.934 151.966 282.294 150.467L282.296 150.465Z" fill="white"/>
<path d="M293.308 163.31C293.043 163.31 292.76 163.264 292.46 163.173C288.54 161.96 281.243 152.047 281.66 150.312C281.689 150.189 281.755 150.076 281.848 149.989C281.885 149.953 285.546 146.447 285.311 143.027C285.226 141.796 284.931 140.178 284.621 138.463C283.733 133.578 282.628 127.499 285.058 123.96C289.639 117.284 295.81 117.97 297.674 118.365C298.277 117.223 299.953 114.449 302.398 113.619C303.62 113.204 304.853 113.323 306.065 113.973C307.818 114.915 313.509 118.678 313.127 127.537C312.738 136.606 311.517 145.958 301.456 151.904C298.232 153.809 296.125 159.444 295.332 161.565L295.219 161.867C294.864 162.812 294.186 163.312 293.308 163.312V163.31ZM282.974 150.712C283.51 152.516 290.041 161.524 293.126 161.986C293.508 162.043 293.784 161.964 293.998 161.401L294.108 161.103C295.026 158.653 297.17 152.913 300.793 150.774C310.299 145.157 311.435 136.55 311.823 127.479C312.171 119.384 307.032 115.978 305.448 115.127C304.557 114.648 303.695 114.56 302.817 114.858C300.309 115.71 298.637 119.358 298.621 119.394C298.483 119.699 298.139 119.852 297.821 119.745C297.546 119.656 290.997 117.616 286.133 124.7C284.008 127.795 285.059 133.578 285.905 138.225C286.224 139.976 286.524 141.63 286.613 142.934C286.856 146.465 283.852 149.812 282.974 150.71V150.712Z" fill="#1E2B62"/>
<path d="M262.774 158.171L254.146 145.353L260.584 141.592C260.94 141.384 261.339 141.263 261.753 141.239L262.5 141.196C263.439 141.14 264.277 140.587 264.678 139.752C264.895 139.3 265.247 138.922 265.688 138.664L313.518 110.669C313.913 110.439 314.336 110.26 314.779 110.139L328.349 106.434L319.867 116.795C319.404 117.36 318.869 117.862 318.274 118.29L273.444 150.506C273.061 150.782 272.608 150.948 272.138 150.988L272.019 150.998C271.112 151.075 270.311 151.615 269.916 152.418L269.716 152.822C269.532 153.193 269.26 153.516 268.92 153.76L262.778 158.173L262.774 158.171Z" fill="white"/>
<path d="M262.774 158.828C262.736 158.828 262.696 158.824 262.659 158.818C262.485 158.786 262.331 158.687 262.234 158.541L253.606 145.723C253.505 145.572 253.47 145.388 253.511 145.209C253.551 145.033 253.663 144.88 253.819 144.789L260.257 141.028C260.698 140.77 261.202 140.617 261.716 140.588L262.463 140.544C263.169 140.502 263.793 140.092 264.092 139.469C264.369 138.898 264.806 138.424 265.361 138.099L313.191 110.104C313.634 109.844 314.112 109.644 314.608 109.507L328.178 105.802C328.453 105.726 328.743 105.837 328.897 106.077C329.052 106.317 329.034 106.628 328.854 106.849L320.37 117.21C319.872 117.819 319.295 118.36 318.653 118.822L273.823 151.038C273.345 151.381 272.779 151.589 272.19 151.639L272.072 151.649C271.394 151.706 270.791 152.111 270.498 152.706L270.299 153.11C270.069 153.576 269.723 153.984 269.296 154.29L263.155 158.703C263.044 158.784 262.91 158.826 262.776 158.826L262.774 158.828ZM255.079 145.57L262.94 157.248L268.535 153.227C268.788 153.045 268.992 152.805 269.126 152.531L269.326 152.127C269.82 151.123 270.83 150.439 271.961 150.344L272.079 150.334C272.435 150.305 272.775 150.18 273.062 149.973L317.892 117.757C318.441 117.363 318.935 116.899 319.36 116.379L326.543 107.606L314.95 110.772C314.563 110.877 314.191 111.034 313.847 111.236L266.017 139.231C265.689 139.424 265.428 139.703 265.266 140.04C264.76 141.087 263.714 141.781 262.538 141.85L261.791 141.894C261.483 141.912 261.178 142.003 260.914 142.158L255.079 145.566V145.57Z" fill="#1E2B62"/>
<path d="M317.776 116.077C317.577 116.077 317.379 115.986 317.251 115.812L313.618 110.877C313.404 110.585 313.465 110.175 313.754 109.961C314.045 109.747 314.454 109.808 314.667 110.098L318.3 115.032C318.514 115.324 318.452 115.734 318.164 115.948C318.047 116.036 317.911 116.077 317.776 116.077Z" fill="#1E2B62"/>
<path d="M243.376 152.063L254.343 145.175L262.862 158.161L251.896 165.049C249.887 166.31 247.223 165.757 245.946 163.81L242.05 157.87C240.773 155.923 241.366 153.324 243.376 152.061V152.063Z" fill="#1E2B62"/>
<path d="M249.553 166.38C247.927 166.38 246.337 165.6 245.4 164.173L241.505 158.233C240.799 157.156 240.56 155.872 240.833 154.615C241.113 153.326 241.892 152.221 243.029 151.508L253.995 144.62C254.295 144.432 254.693 144.519 254.886 144.814L263.405 157.801C263.502 157.947 263.536 158.128 263.498 158.3C263.461 158.473 263.356 158.623 263.208 158.717L252.242 165.604C251.407 166.128 250.474 166.378 249.553 166.378V166.38ZM254.147 146.069L243.722 152.618C242.886 153.143 242.313 153.95 242.109 154.892C241.912 155.802 242.084 156.732 242.596 157.511L246.492 163.451C247.573 165.099 249.842 165.569 251.55 164.494L261.951 157.961L254.149 146.069H254.147Z" fill="#1E2B62"/>
<path d="M269.359 149.882C269.143 149.882 268.934 149.774 268.809 149.58L264.842 143.388C264.647 143.083 264.736 142.679 265.038 142.482C265.342 142.286 265.746 142.375 265.941 142.679L269.908 148.87C270.104 149.176 270.015 149.58 269.713 149.776C269.604 149.846 269.481 149.88 269.361 149.88L269.359 149.882Z" fill="#1E2B62"/>
<path d="M270.011 140.855C269.789 140.855 269.574 140.742 269.451 140.538C269.265 140.228 269.364 139.826 269.673 139.637L283.697 131.158C284.005 130.971 284.406 131.07 284.594 131.38C284.78 131.689 284.681 132.091 284.373 132.28L270.349 140.76C270.244 140.823 270.127 140.853 270.013 140.853L270.011 140.855Z" fill="#1E2B62"/>
<path d="M307.621 117.928C307.4 117.928 307.187 117.817 307.062 117.613C306.874 117.303 306.973 116.901 307.281 116.712L312.735 113.387C313.043 113.199 313.444 113.298 313.632 113.608C313.82 113.917 313.721 114.319 313.413 114.508L307.959 117.833C307.853 117.898 307.736 117.928 307.621 117.928Z" fill="#1E2B62"/>
<path d="M249.061 162.722C248.841 162.722 248.628 162.611 248.503 162.41C248.314 162.103 248.411 161.699 248.717 161.508L257.147 156.296C257.454 156.105 257.857 156.203 258.047 156.51C258.236 156.817 258.139 157.222 257.833 157.412L249.403 162.624C249.296 162.69 249.178 162.722 249.061 162.722Z" fill="white"/>
<path d="M282.114 150.749C282.114 150.749 283.442 149.325 284.421 147.107C286.605 142.154 286.344 135.742 292.713 129.3C296.699 125.267 299.728 107.923 307.893 115.891C309.65 117.606 310.87 118.657 311.925 121.489C312.502 123.037 313.352 126.909 313.271 128.82C312.872 138.121 310.86 145.725 301.097 151.355C299.218 152.44 297.765 154.127 297 156.153C296.931 156.338 293.604 163.067 292.96 162.944C289.467 162.272 282.035 151.084 282.114 150.749Z" fill="#FFE9DD"/>
<path d="M293.055 163.419C292.655 163.419 292.219 163.336 291.75 163.163C290.074 162.549 282.676 154.257 281.665 151.029C281.438 150.302 281.934 149.638 282.565 148.797C283.13 148.042 283.836 147.1 284.194 145.904C284.449 145.052 284.66 144.148 284.883 143.192C285.806 139.25 286.957 134.345 292.242 128.847C293.32 127.727 294.385 125.427 295.51 122.993C297.49 118.712 299.736 113.86 303.132 113.234C304.79 112.927 306.545 113.664 308.348 115.425L308.698 115.764C310.263 117.282 311.501 118.484 312.536 121.26C313.155 122.917 314.009 126.835 313.922 128.849C313.503 138.614 311.218 146.275 301.42 151.924C299.665 152.935 298.313 154.521 297.609 156.387C297.117 157.691 295.28 161.734 295.201 161.904C294.806 162.896 294.049 163.419 293.053 163.419H293.055ZM303.883 114.473C303.709 114.473 303.539 114.489 303.369 114.521C300.637 115.026 298.544 119.551 296.696 123.542C295.522 126.08 294.413 128.475 293.183 129.753C288.147 134.994 287.089 139.506 286.156 143.489C285.927 144.467 285.712 145.389 285.445 146.279C285.02 147.699 284.205 148.787 283.608 149.582C283.32 149.967 282.927 150.492 282.917 150.671C283.893 153.771 291.203 161.565 292.199 161.932C293.418 162.38 293.796 161.908 294.004 161.389C294.035 161.319 295.913 157.186 296.389 155.923C297.2 153.773 298.755 151.949 300.771 150.788C310.083 145.416 312.208 138.39 312.619 128.792C312.694 127.021 311.884 123.244 311.315 121.718C310.382 119.218 309.352 118.218 307.79 116.704L307.439 116.361C306.142 115.094 304.972 114.473 303.883 114.473Z" fill="#1E2B62"/>
<path d="M298.957 154.501L281.701 148.147C274.925 160.285 250.14 184.844 244.72 187.277C242.281 188.371 235.733 157.075 230.329 143.065C227.312 135.246 220.566 126.314 212.537 121.89C198.566 114.19 175.8 115.901 161.562 113.708C141.385 110.601 133.797 104.423 117.644 115.611C102.03 126.427 83.7962 187.967 93.5627 207.892C105.541 232.329 128.988 216.725 128.988 216.725C128.988 216.725 132.123 221.856 125.386 237.456C117.201 256.406 129.061 258.944 129.061 258.944C156.625 272.45 222.525 265.743 216.299 250.66C209.634 234.516 215.514 218.317 215.514 218.317C217.214 221.42 216.676 220.298 219.21 223.551C223.519 229.085 235.968 239.423 244.72 236.286C287.999 220.782 298.957 154.503 298.957 154.503V154.501Z" fill="#1E2B62"/>
<path d="M129.404 204.776C129.133 204.776 128.88 204.605 128.787 204.334C119.663 177.877 123.901 156.508 123.944 156.296C124.017 155.941 124.363 155.713 124.715 155.786C125.069 155.86 125.296 156.207 125.223 156.559C125.18 156.77 121.021 177.808 130.02 203.903C130.139 204.245 129.957 204.619 129.617 204.736C129.546 204.76 129.475 204.772 129.404 204.772V204.776Z" fill="#00A5F3"/>
<path d="M217.337 218.49C217.098 218.49 216.866 218.357 216.752 218.127C203.455 191.387 202.214 177.784 202.166 177.219C202.137 176.858 202.404 176.543 202.763 176.513C203.125 176.483 203.437 176.751 203.469 177.112C203.481 177.249 204.758 191.07 217.92 217.544C218.08 217.867 217.95 218.262 217.627 218.423C217.535 218.47 217.434 218.492 217.337 218.492V218.49Z" fill="#00A5F3"/>
<path d="M200.469 55.2637C200.469 55.2637 204.67 61.5527 204.927 66.7512C204.994 68.1252 205.567 72.5188 208.953 77.3248C209.281 77.7887 209.208 78.4192 208.779 78.8019L205.543 81.6847C205.32 81.8829 205.191 82.1605 205.189 82.4559C205.178 84.2899 205.122 91.0706 204.901 92.3335C204.644 93.7987 203.468 95.0914 202.883 95.4067C201.339 96.2414 194.644 95.3888 194.644 95.3888C194.644 95.3888 192.847 95.5593 189.329 105.078C185.528 115.36 189.62 116.336 189.62 116.336C193.638 117.226 193.122 120.357 189.918 121.378C178.871 124.895 161.593 122.811 152.054 116.883C150.334 115.814 151.586 112.789 152.536 112.46C176.355 104.206 163.779 80.733 164.398 80.5704C165.983 80.1501 175.084 70.5679 180.416 67.8417C184.051 65.982 188.461 68.6724 191.42 65.859L200.473 55.2637H200.469Z" fill="#FFE9DD"/>
<path d="M177.447 123.731C168.194 123.731 158.182 121.463 151.705 117.438C150.849 116.907 150.434 115.927 150.565 114.749C150.693 113.597 151.399 112.156 152.316 111.839C158.445 109.715 162.644 106.365 164.794 101.88C168.453 94.2486 165.32 85.404 164.14 82.0731C163.711 80.8637 163.622 80.6119 163.8 80.2748C163.885 80.1122 164.049 79.9814 164.227 79.9338C164.749 79.7811 166.976 77.7866 168.941 76.0279C172.487 72.8517 176.901 68.9003 180.117 67.2547C181.922 66.3307 183.827 66.4299 185.667 66.525C187.743 66.6321 189.536 66.7233 190.945 65.4048L199.974 54.8352C200.107 54.6806 200.302 54.5973 200.51 54.6072C200.713 54.6191 200.899 54.7262 201.014 54.8967C201.19 55.1604 205.317 61.3979 205.582 66.7174C205.623 67.558 206.007 72.0031 209.49 76.9459C210.007 77.6815 209.891 78.6887 209.215 79.2894L205.979 82.1722C205.894 82.2476 205.845 82.3507 205.845 82.4577C205.829 85.0372 205.77 91.1755 205.546 92.4444C205.26 94.0781 203.997 95.5493 203.194 95.9815C201.619 96.8321 196.213 96.2392 194.738 96.0588C194.38 96.2888 192.755 97.6945 189.943 105.304C187.895 110.842 188.205 113.478 188.826 114.718C189.231 115.529 189.765 115.693 189.787 115.699C191.807 116.147 193.066 117.253 193.129 118.653C193.192 120.083 192.01 121.395 190.117 121.998C186.428 123.172 182.034 123.729 177.453 123.729L177.447 123.731ZM165.128 80.937C165.196 81.1353 165.284 81.3891 165.371 81.6349C166.601 85.1046 169.868 94.324 165.972 102.447C163.666 107.257 159.214 110.834 152.743 113.076C152.525 113.157 151.952 113.966 151.857 114.934C151.794 115.596 151.972 116.064 152.391 116.324C161.798 122.171 178.888 124.199 189.713 120.751C191.208 120.275 191.846 119.385 191.817 118.713C191.783 117.941 190.905 117.291 189.472 116.974C189.354 116.946 188.383 116.682 187.701 115.406C186.567 113.278 186.907 109.727 188.711 104.85C192.016 95.9081 193.916 94.7978 194.578 94.7364C194.625 94.7324 194.673 94.7324 194.72 94.7384C197.414 95.0814 201.63 95.3351 202.567 94.8296C202.941 94.6273 204.024 93.521 204.251 92.2204C204.42 91.2627 204.505 86.546 204.53 82.4518C204.534 81.974 204.742 81.516 205.103 81.1948L208.339 78.312C208.519 78.1514 208.551 77.8956 208.414 77.7033C204.722 72.4651 204.313 67.6889 204.267 66.7848C204.072 62.8432 201.461 58.1503 200.381 56.3659L191.906 66.2871C191.892 66.305 191.876 66.3208 191.858 66.3367C190.04 68.0656 187.778 67.9506 185.592 67.8376C183.847 67.7483 182.196 67.6631 180.702 68.4264C177.636 69.9927 173.294 73.8827 169.805 77.0094C167.415 79.1487 165.992 80.4116 165.122 80.939L165.128 80.937Z" fill="#1E2B62"/>
<path d="M188.79 79.9556C186.802 79.9556 183.69 79.226 182.002 75.0862C180.959 72.5266 181.309 70.2426 182.939 68.9776C184.633 67.6631 187.237 67.8098 189.268 69.3345C190.031 69.9075 191.014 71.4718 191.123 71.6483C191.312 71.9556 191.219 72.3601 190.913 72.5504C190.607 72.7407 190.203 72.6475 190.014 72.3402C189.65 71.7534 188.913 70.7045 188.486 70.3833C186.922 69.2096 184.969 69.0569 183.738 70.0126C182.584 70.9087 182.392 72.5762 183.212 74.5886C185.351 79.8387 190.053 78.538 190.253 78.4786C190.599 78.3774 190.96 78.5757 191.063 78.9227C191.164 79.2696 190.968 79.6325 190.622 79.7356C190.601 79.7415 189.858 79.9537 188.79 79.9537V79.9556Z" fill="#1E2B62"/>
<path d="M209.088 39.6878C206.94 36.0893 204.629 32.9983 197.568 31.6084C192.734 30.6568 184.851 34.2236 180.969 38.3376C180.645 38.6806 180.131 38.6925 179.86 38.3515C179.026 37.3007 177.045 34.9235 175.292 34.7153C170.214 34.1126 165.014 40.6851 163.165 44.0655C161.815 46.534 159.54 52.1152 158.392 58.6024C158.321 59.0089 157.949 59.3083 157.55 59.2706C156.02 59.1239 152.952 59.1318 150.23 61.1462C145.376 64.7368 145.902 69.9948 145.957 70.6372C146.617 78.1297 154.237 83.6653 160.015 86.667C163.936 88.7032 165.407 88.9967 167.716 89.53C167.848 89.5598 167.988 89.5498 168.119 89.5062C170.159 89.8056 173.626 89.9603 177.488 88.622C183.625 86.4946 183.161 76.3215 183.161 76.3215L182.388 74.4043C181.92 73.2424 181.854 71.9319 182.329 70.772C183.778 67.235 189.122 69.8917 189.32 69.8501C199.375 67.7643 202.927 64.8221 204.753 62.8196C211.298 55.6423 214.287 48.4056 209.086 39.6898L209.088 39.6878Z" fill="#1E2B62"/>
<path d="M220.654 218.649V260.297C220.654 260.297 220.674 264.466 220.654 264.956C218.75 265.491 216.056 265.86 214.119 266.197C202.485 268.221 195.371 268.217 185.407 268.552C183.011 268.82 180.716 268.366 178.315 268.552C175.611 267.054 173.492 265.888 172.082 265.291C142.866 252.882 123.697 231.77 111.12 206.388L108.291 190.37C108.291 190.293 108.503 190.041 108.825 189.706C110.238 188.262 111.977 187.18 113.853 186.547L116.8 185.558L116.836 185.548C119.896 184.517 123.135 184.769 125.788 186.244C125.922 186.316 126.051 186.393 126.183 186.466C143.085 195.985 162.49 200.876 182.61 200.716L204.56 200.545H204.631C213.943 201.612 220.648 209.184 220.648 218.651L220.654 218.649Z" fill="#F0F9FD"/>
<path d="M215.615 220.024C215.615 220.024 215.372 244.31 214.971 263.028C205.222 265.481 187.47 268.001 178.806 268.524C154.134 270.011 127.365 267.814 107.251 264.88C106.767 261.977 106.189 192.18 106.189 192.18C106.189 186.953 111.856 183.18 116.416 185.371L116.802 185.558C118.344 186.311 119.826 187.098 121.259 187.907C138.078 197.406 157.408 202.25 177.441 202.095L199.561 201.921C208.892 202.971 215.613 210.547 215.613 220.026L215.615 220.024Z" fill="#98E0FF"/>
<path d="M155.209 266.834C138.795 266.834 125.083 264.651 115.036 260.311C114.704 260.168 114.552 259.781 114.694 259.45C114.836 259.117 115.222 258.964 115.552 259.107C133.16 266.711 162.289 267.591 197.574 261.589C197.929 261.53 198.267 261.77 198.327 262.125C198.386 262.482 198.147 262.821 197.791 262.88C182.276 265.519 167.93 266.832 155.209 266.832V266.834Z" fill="#1E2B62"/>
<path d="M214.972 263.683C214.972 263.683 214.962 263.683 214.958 263.683C214.598 263.675 214.311 263.376 214.319 263.015C214.715 244.515 214.962 220.261 214.964 220.019C214.964 210.934 208.476 203.603 199.53 202.576L177.449 202.75C157.29 202.899 137.753 197.97 120.944 188.477C119.406 187.61 117.961 186.847 116.52 186.145L116.137 185.961C113.545 184.785 111.005 184.849 108.999 186.145C107.082 187.386 105.937 189.579 105.937 192.012C105.937 192.375 105.645 192.666 105.285 192.666C104.925 192.666 104.633 192.373 104.633 192.012C104.633 189.133 106.001 186.528 108.294 185.045C110.685 183.496 113.668 183.401 116.692 184.773L117.091 184.966C118.558 185.681 120.027 186.455 121.586 187.335C138.198 196.715 157.507 201.586 177.442 201.44L199.601 201.265L199.641 201.269C209.279 202.356 216.274 210.243 216.274 220.025C216.272 220.275 216.027 244.535 215.63 263.043C215.622 263.4 215.331 263.683 214.977 263.683H214.972Z" fill="#1E2B62"/>
</g>
<defs>
<clipPath id="clip0_3214_3150">
<rect width="329" height="269" fill="white"/>
</clipPath>
</defs>
</svg>
