<svg width="646" height="430" viewBox="0 0 646 430" fill="none" xmlns="http://www.w3.org/2000/svg">
<g clip-path="url(#clip0_3214_25435)">
<path d="M363.918 117.169L192.414 117.378L192.549 227.451L364.053 227.242L363.918 117.169Z" fill="white"/>
<path d="M192.562 227.954C192.426 227.954 192.294 227.9 192.195 227.804C192.098 227.707 192.042 227.576 192.042 227.437L191.898 117.364C191.898 117.078 192.129 116.847 192.416 116.845L363.92 116.624C364.057 116.624 364.189 116.678 364.287 116.774C364.384 116.871 364.44 117.002 364.44 117.141L364.584 227.214C364.584 227.501 364.353 227.731 364.066 227.733L192.562 227.954ZM192.939 117.881L193.08 226.918L363.548 226.697L363.407 117.66L192.939 117.881Z" fill="#1E2B62"/>
<path d="M217.721 211.304C217.584 211.304 217.452 211.25 217.353 211.153C217.257 211.057 217.2 210.926 217.2 210.787L217.102 134.999C217.102 134.712 217.332 134.482 217.619 134.479C217.906 134.479 218.137 134.71 218.137 134.996L218.234 210.268L339.644 210.11C339.931 210.11 340.161 210.34 340.161 210.627C340.161 210.914 339.931 211.144 339.644 211.146L217.713 211.304H217.721Z" fill="#1E2B62"/>
<path d="M232.264 155.478L222.711 155.489L222.773 206.417L232.326 206.406L232.264 155.478Z" fill="#A3DEFA"/>
<path d="M247.326 179.024L237.773 179.036L237.807 206.399L247.36 206.387L247.326 179.024Z" fill="#A3DEFA"/>
<path d="M262.35 168.359L252.797 168.371L252.843 206.383L262.396 206.371L262.35 168.359Z" fill="#A3DEFA"/>
<path d="M277.365 151.684L267.812 151.695L267.879 206.362L277.432 206.35L277.365 151.684Z" fill="#A3DEFA"/>
<path d="M292.149 140.227L283.078 140.238L283.159 206.341L292.229 206.33L292.149 140.227Z" fill="#A3DEFA"/>
<path d="M307.42 136.701L297.867 136.713L297.952 206.326L307.505 206.314L307.42 136.701Z" fill="#A3DEFA"/>
<path d="M322.467 145.356L312.914 145.367L312.989 206.307L322.541 206.296L322.467 145.356Z" fill="#A3DEFA"/>
<path d="M337.514 155.349L327.961 155.36L328.023 206.288L337.576 206.277L337.514 155.349Z" fill="#A3DEFA"/>
<path d="M268.393 0.866258L92.2969 1.08105L92.4499 126.169L268.546 125.954L268.393 0.866258Z" fill="white"/>
<path d="M92.4638 126.679C92.3273 126.679 92.1955 126.625 92.0966 126.528C92.0001 126.432 91.9436 126.3 91.9436 126.162L91.7812 1.07404C91.7812 0.787377 92.0119 0.557103 92.299 0.554754L268.395 0.32683C268.52 0.305683 268.663 0.380874 268.762 0.477213C268.858 0.573552 268.915 0.705136 268.915 0.84377L269.077 125.931C269.077 126.218 268.847 126.448 268.56 126.451L92.4638 126.679ZM92.8215 1.59098L92.9815 125.642L268.039 125.417L267.879 1.36541L92.8215 1.59098Z" fill="#1E2B62"/>
<path d="M225.544 61.0059L114.266 61.1416L114.321 106.707L225.599 106.572L225.544 61.0059Z" fill="#FFE02E"/>
<path d="M137.683 90.8456C137.551 90.8456 137.417 90.7962 137.316 90.6952C137.113 90.4931 137.113 90.1665 137.316 89.9621L191.049 36.1768C191.251 35.9748 191.578 35.9748 191.783 36.1768L211.569 55.8793L247.857 19.5549C248.06 19.3528 248.387 19.3528 248.592 19.5549C248.794 19.757 248.794 20.0836 248.592 20.288L211.936 56.979C211.839 57.0753 211.708 57.1317 211.569 57.1317C211.432 57.1317 211.3 57.0777 211.202 56.9813L191.416 37.2789L138.048 90.6976C137.947 90.7986 137.812 90.8503 137.681 90.8503L137.683 90.8456Z" fill="#1E2B62"/>
<path d="M246.234 26.5773L245.293 26.1402L248.155 19.9887L242.003 22.8647L241.562 21.9272L250.296 17.8457L246.234 26.5773Z" fill="#1E2B62"/>
<path d="M523.337 130.052L507.387 130.073L531.927 183.349L468.639 130.123L342.972 130.285L342.805 0.751574L523.17 0.516602L523.337 130.052Z" fill="white"/>
<path d="M531.927 183.868C531.807 183.868 531.689 183.829 531.593 183.746L468.451 130.642L342.974 130.805C342.687 130.805 342.456 130.574 342.456 130.288L342.289 0.754262C342.289 0.617978 342.343 0.484044 342.44 0.387705C342.536 0.291366 342.668 0.234973 342.807 0.234973L523.167 0C523.306 0 523.435 0.0540437 523.534 0.150383C523.631 0.246721 523.687 0.378306 523.687 0.51694L523.854 130.053C523.854 130.189 523.8 130.321 523.704 130.419C523.607 130.516 523.475 130.572 523.337 130.572L508.194 130.591L532.395 183.135C532.496 183.356 532.431 183.617 532.238 183.763C532.146 183.833 532.033 183.868 531.922 183.868H531.927ZM468.639 129.606C468.761 129.606 468.879 129.649 468.973 129.728L530.487 181.462L506.916 130.29C506.843 130.13 506.855 129.942 506.952 129.794C507.046 129.646 507.21 129.557 507.387 129.555L522.819 129.533L522.652 1.03388L343.325 1.2665L343.492 129.766L468.639 129.604V129.606Z" fill="#1E2B62"/>
<path d="M411.91 107.953C433.728 107.922 451.389 90.2597 451.359 68.5021C451.328 46.7446 433.617 29.1313 411.8 29.1617C389.983 29.1921 372.322 46.8548 372.352 68.6123C372.382 90.3698 390.093 107.983 411.91 107.953Z" fill="white"/>
<path d="M411.849 108.498C401.179 108.498 391.143 104.36 383.586 96.8459C376.017 89.3173 371.84 79.3005 371.828 68.6374C371.814 57.9767 375.966 47.9481 383.513 40.3984C391.063 32.8511 401.108 28.685 411.798 28.6709C411.816 28.6709 411.833 28.6709 411.849 28.6709C433.895 28.6709 451.842 46.5406 451.873 68.5317C451.901 90.5392 433.97 108.468 411.901 108.496H411.847L411.849 108.498ZM411.852 29.7095C411.833 29.7095 411.819 29.7095 411.8 29.7095C401.386 29.7236 391.6 33.7792 384.248 41.1315C376.893 48.4838 372.852 58.2516 372.866 68.6374C372.88 79.0208 376.947 88.7793 384.321 96.1128C391.68 103.435 401.456 107.464 411.852 107.464H411.904C433.4 107.436 450.868 89.9729 450.84 68.5364C450.812 47.1186 433.325 29.7095 411.854 29.7095H411.852Z" fill="#1E2B62"/>
<path d="M456.088 57.7211C451.336 37.7578 433.355 22.9098 411.898 22.877L411.957 68.4311C411.957 68.4311 448.731 59.4223 456.088 57.7187V57.7211Z" fill="#FFE02E"/>
<path d="M385.818 34.6865C376.644 41.5618 370.802 51.7831 369.289 62.8057C379.628 64.1709 411.473 68.3299 411.473 68.3299C411.473 68.3299 390.023 40.3259 385.818 34.6865Z" fill="white"/>
<path d="M411.47 68.8469C411.446 68.8469 411.425 68.8469 411.402 68.8422C411.402 68.8422 379.556 64.6855 369.215 63.3179C369.079 63.2992 368.954 63.2287 368.872 63.1182C368.789 63.0078 368.752 62.8715 368.77 62.7329C370.319 51.4518 376.419 41.0778 385.501 34.2706C385.612 34.1884 385.749 34.1531 385.887 34.1719C386.024 34.1907 386.146 34.2636 386.229 34.374C390.385 39.9476 411.665 67.7307 411.879 68.0104C412.006 68.1772 412.021 68.4028 411.917 68.5837C411.823 68.7458 411.651 68.8422 411.468 68.8422L411.47 68.8469ZM369.874 62.3616C379.42 63.6211 404.447 66.8895 410.303 67.6555C406.551 62.754 389.997 41.1271 385.716 35.4173C377.217 41.9589 371.475 51.7267 369.877 62.364L369.874 62.3616Z" fill="#1E2B62"/>
<path d="M492.875 96.0566C492.873 94.0265 494.52 92.3793 496.556 92.377C498.592 92.3746 500.244 94.0171 500.246 96.0472C500.249 98.0774 498.601 99.7246 496.565 99.7269C494.529 99.7293 492.877 98.0868 492.875 96.0566Z" fill="#00A5F3"/>
<path d="M485.806 99.7641C487.842 99.7609 489.49 98.113 489.486 96.0833C489.483 94.0537 487.83 92.4109 485.795 92.4141C483.759 92.4173 482.112 94.0653 482.115 96.0949C482.118 98.1245 483.771 99.7673 485.806 99.7641Z" fill="#00A5F3"/>
<path d="M475.053 99.7533C477.088 99.7533 478.738 98.1079 478.738 96.0783C478.738 94.0487 477.088 92.4033 475.053 92.4033C473.017 92.4033 471.367 94.0487 471.367 96.0783C471.367 98.1079 473.017 99.7533 475.053 99.7533Z" fill="#00A5F3"/>
<path d="M449.364 96.63C449.258 96.63 449.157 96.5971 449.07 96.5383L423.567 78.9436C423.332 78.7814 423.273 78.4595 423.436 78.2222C423.598 77.9872 423.92 77.9285 424.158 78.0906L449.526 95.5937L468.592 95.5702C468.874 95.5702 469.112 95.8005 469.112 96.0872C469.112 96.3738 468.882 96.6041 468.594 96.6065L449.366 96.6323L449.364 96.63Z" fill="#1E2B62"/>
<path d="M72.1933 161.151C94.1066 161.151 111.871 143.49 111.871 121.704C111.871 99.918 94.1066 82.2568 72.1933 82.2568C50.2799 82.2568 32.5156 99.918 32.5156 121.704C32.5156 143.49 50.2799 161.151 72.1933 161.151Z" fill="#1E2B62"/>
<mask id="mask0_3214_25435" style="mask-type:luminance" maskUnits="userSpaceOnUse" x="37" y="87" width="70" height="70">
<path d="M72.1971 156.254C91.3899 156.254 106.949 140.785 106.949 121.704C106.949 102.622 91.3899 87.1533 72.1971 87.1533C53.0042 87.1533 37.4453 102.622 37.4453 121.704C37.4453 140.785 53.0042 156.254 72.1971 156.254Z" fill="white"/>
</mask>
<g mask="url(#mask0_3214_25435)">
<path d="M102.861 148.721C101.352 143.54 97.1417 139.579 91.8558 138.368L80.6743 135.807V121.768H63.7244V135.807L52.5429 138.368C47.257 139.579 43.0442 143.543 41.538 148.721L37.2734 171.124H107.128L102.863 148.721H102.861Z" fill="white"/>
<path d="M58.1417 111.095C58.7512 110.945 59.3702 111.001 59.9468 111.219C60.434 103.498 65.7317 98.2607 72.2015 98.2607C78.6713 98.2607 83.969 103.498 84.4562 111.219C85.0304 111.001 85.6494 110.942 86.2613 111.095C88.0758 111.544 89.1184 113.633 88.5842 115.762C88.0523 117.89 86.1483 119.251 84.3338 118.802C84.0419 118.729 83.7713 118.612 83.5218 118.459C81.6508 124.162 77.2874 128.528 72.2015 128.528C67.1156 128.528 62.7522 124.162 60.8812 118.459C60.6317 118.609 60.3634 118.729 60.0692 118.802C58.2523 119.251 56.3507 117.888 55.8188 115.762C55.2869 113.633 56.3271 111.544 58.1417 111.095Z" fill="white"/>
<path d="M72.2042 129.047C67.3371 129.047 62.7243 125.107 60.5849 119.183C60.4578 119.232 60.3284 119.272 60.1966 119.305C58.1067 119.822 55.9179 118.288 55.3178 115.886C55.0024 114.622 55.1766 113.304 55.8003 112.272C56.3157 111.415 57.1065 110.818 58.0196 110.592C58.495 110.475 58.9916 110.463 59.4811 110.552C60.2178 103.092 65.4826 97.7441 72.2018 97.7441C78.921 97.7441 84.1858 103.092 84.9225 110.552C85.412 110.461 85.9086 110.473 86.384 110.592C87.2995 110.818 88.0879 111.415 88.6033 112.272C89.227 113.306 89.4012 114.622 89.0858 115.886C88.4857 118.288 86.2969 119.822 84.207 119.305C84.0776 119.272 83.9481 119.232 83.8187 119.183C81.6793 125.107 77.0665 129.047 72.1994 129.047H72.2042ZM60.8838 117.942C60.945 117.942 61.0062 117.954 61.065 117.975C61.2133 118.029 61.3286 118.149 61.3781 118.3C63.2844 124.108 67.636 128.011 72.2042 128.011C76.7723 128.011 81.1239 124.108 83.0303 118.3C83.0797 118.149 83.195 118.029 83.3433 117.975C83.4915 117.921 83.6563 117.935 83.7928 118.018C84.014 118.152 84.2329 118.243 84.4612 118.3C85.9957 118.678 87.6219 117.484 88.0856 115.635C88.335 114.636 88.2032 113.605 87.7208 112.806C87.3466 112.186 86.7864 111.756 86.1392 111.598C85.6568 111.478 85.1413 111.516 84.6447 111.706C84.4918 111.765 84.3176 111.746 84.1788 111.657C84.0399 111.568 83.9528 111.417 83.9411 111.255C83.4845 104.027 78.5492 98.7827 72.2042 98.7827C65.8591 98.7827 60.9238 104.03 60.4673 111.255C60.4578 111.42 60.3684 111.57 60.2296 111.657C60.0907 111.746 59.9189 111.765 59.7636 111.706C59.267 111.518 58.7516 111.481 58.2691 111.6C57.6242 111.76 57.0617 112.19 56.6875 112.808C56.2051 113.607 56.0733 114.639 56.3227 115.637C56.784 117.487 58.4103 118.683 59.9471 118.302C60.1731 118.246 60.3967 118.152 60.6132 118.02C60.6956 117.971 60.7873 117.945 60.8815 117.945L60.8838 117.942Z" fill="#1E2B62"/>
<path d="M68.0513 92.3396C75.4224 90.8241 82.3841 93.8341 85.0906 99.222C87.2276 103.475 86.032 107.853 85.6013 109.213L84.2598 113.158L82.1158 114.603C82.4029 113.734 83.0101 111.455 81.991 109.11C80.4707 105.613 76.2532 104.091 74.1798 104.462C73.9044 104.511 73.1089 104.692 71.984 104.692C70.859 104.692 70.0964 104.516 69.7881 104.462C67.9477 104.138 65.3683 105.047 63.8244 106.452C61.7674 108.322 61.0614 111.506 61.8521 114.603C61.1367 114.122 60.4236 113.64 59.7081 113.158L58.369 109.213C58.2301 108.734 56.2155 101.391 61.0519 96.1439C63.5773 93.4041 66.7121 92.5981 68.0513 92.3396Z" fill="white"/>
<path d="M61.8449 115.122C61.7437 115.122 61.6425 115.092 61.5554 115.033L59.4114 113.588C59.3172 113.525 59.2466 113.433 59.2113 113.325L57.8722 109.38C57.771 109.032 55.5893 101.299 60.6658 95.7935C63.0311 93.2253 65.9306 92.2219 67.9452 91.8319C75.4222 90.2952 82.6616 93.2394 85.5517 98.9891C87.5969 103.059 86.7684 107.239 86.093 109.37L84.7491 113.325C84.7138 113.433 84.6432 113.525 84.5491 113.588L82.4051 115.033C82.2215 115.158 81.9791 115.151 81.8026 115.017C81.626 114.883 81.5531 114.652 81.6213 114.441C81.9626 113.405 82.4027 111.358 81.5131 109.314C80.1457 106.168 76.2483 104.617 74.269 104.969L74.156 104.99C73.7889 105.061 73.024 105.209 71.9838 105.209C70.9435 105.209 70.1928 105.063 69.8209 104.993L69.6962 104.969C68.0652 104.683 65.6364 105.5 64.1701 106.833C62.285 108.548 61.586 111.476 62.3509 114.474C62.4027 114.683 62.3227 114.901 62.1461 115.026C62.0567 115.089 61.9532 115.12 61.8472 115.12L61.8449 115.122ZM60.1363 112.829L61.0988 113.478C60.7082 110.554 61.5672 107.796 63.4688 106.071C65.1751 104.52 67.9263 103.611 69.8727 103.954L70.0092 103.98C70.374 104.048 71.0518 104.177 71.9767 104.177C72.9016 104.177 73.6171 104.043 73.9536 103.978L74.0807 103.954C76.4366 103.534 80.8682 105.254 82.4592 108.905C83.177 110.555 83.1488 112.188 82.9369 113.424L83.8195 112.829L85.1045 109.048C85.7305 107.077 86.5025 103.198 84.622 99.4544C81.9414 94.1205 75.1657 91.4042 68.1499 92.847H68.1452C66.2812 93.2065 63.6053 94.1323 61.4283 96.4937C56.7449 101.574 58.7736 108.764 58.8607 109.067L60.1386 112.827L60.1363 112.829Z" fill="#1E2B62"/>
</g>
<path d="M175.167 166.45C191.302 166.45 204.381 153.446 204.381 137.405C204.381 121.364 191.302 108.36 175.167 108.36C159.033 108.36 145.953 121.364 145.953 137.405C145.953 153.446 159.033 166.45 175.167 166.45Z" fill="white"/>
<path d="M175.169 166.967C158.775 166.967 145.438 153.705 145.438 137.405C145.438 121.105 158.775 107.843 175.169 107.843C191.564 107.843 204.901 121.105 204.901 137.405C204.901 153.705 191.564 166.967 175.169 166.967ZM175.169 108.879C159.347 108.879 146.473 121.676 146.473 137.405C146.473 153.134 159.347 165.93 175.169 165.93C190.992 165.93 203.865 153.134 203.865 137.405C203.865 121.676 190.992 108.879 175.169 108.879Z" fill="#1E2B62"/>
<mask id="mask1_3214_25435" style="mask-type:luminance" maskUnits="userSpaceOnUse" x="149" y="111" width="52" height="52">
<path d="M175.173 162.843C189.305 162.843 200.76 151.454 200.76 137.405C200.76 123.356 189.305 111.967 175.173 111.967C161.042 111.967 149.586 123.356 149.586 137.405C149.586 151.454 161.042 162.843 175.173 162.843Z" fill="white"/>
</mask>
<g mask="url(#mask1_3214_25435)">
<path d="M190.664 154.837L189.579 133.29C189.083 123.409 182.782 115.726 175.176 115.726C167.569 115.726 161.271 123.409 160.772 133.287L159.688 154.834H190.662L190.664 154.837Z" fill="white"/>
<path d="M190.665 155.354H159.69C159.549 155.354 159.413 155.295 159.314 155.194C159.215 155.093 159.165 154.952 159.173 154.811L160.257 133.264C160.766 123.139 167.32 115.209 175.179 115.209C183.037 115.209 189.589 123.139 190.1 133.264L191.185 154.811C191.192 154.952 191.14 155.091 191.044 155.194C190.947 155.298 190.811 155.354 190.667 155.354H190.665ZM160.234 154.318H190.119L189.062 133.314C188.58 123.741 182.482 116.243 175.176 116.243C167.871 116.243 161.773 123.741 161.291 133.314L160.234 154.318Z" fill="#1E2B62"/>
<path d="M197.752 157.298C196.641 153.484 193.542 150.566 189.649 149.675L181.417 147.791V137.454H168.936V147.791L160.704 149.675C156.811 150.566 153.709 153.484 152.6 157.298L149.461 173.793H200.894L197.752 157.298Z" fill="white"/>
<path d="M200.89 174.31H149.457C149.302 174.31 149.156 174.242 149.057 174.122C148.958 174.002 148.918 173.847 148.946 173.694L152.086 157.199C153.258 153.16 156.51 150.1 160.582 149.168L168.412 147.375V137.45C168.412 137.163 168.645 136.933 168.93 136.933H181.411C181.698 136.933 181.928 137.165 181.928 137.45V147.375L189.758 149.168C193.832 150.1 197.082 153.16 198.243 157.152C198.247 157.168 198.252 157.183 198.254 157.199L201.394 173.694C201.422 173.847 201.382 174.002 201.283 174.122C201.185 174.242 201.039 174.31 200.883 174.31H200.89ZM150.083 173.273H200.262L197.242 157.418C196.181 153.797 193.227 151.024 189.528 150.178L181.295 148.294C181.06 148.239 180.893 148.03 180.893 147.788V137.969H169.45V147.788C169.45 148.03 169.283 148.239 169.048 148.294L160.815 150.178C157.108 151.026 154.15 153.811 153.093 157.441L150.081 173.273H150.083Z" fill="#1E2B62"/>
<path d="M185.625 129.404C185.171 129.291 184.712 129.336 184.284 129.498C183.921 123.758 179.982 119.864 175.173 119.864C170.365 119.864 166.426 123.758 166.063 129.498C165.635 129.336 165.176 129.294 164.722 129.404C163.371 129.738 162.599 131.291 162.994 132.872C163.39 134.454 164.804 135.466 166.155 135.133C166.374 135.079 166.574 134.992 166.757 134.879C168.148 139.118 171.391 142.365 175.173 142.365C178.956 142.365 182.199 139.12 183.59 134.879C183.776 134.992 183.976 135.079 184.192 135.133C185.543 135.466 186.957 134.454 187.353 132.872C187.748 131.291 186.974 129.738 185.625 129.404Z" fill="white"/>
<path d="M175.174 142.882C171.533 142.882 168.085 139.973 166.456 135.586C166.397 135.604 166.339 135.621 166.28 135.637C164.654 136.039 162.957 134.855 162.493 132.999C162.251 132.026 162.385 131.008 162.867 130.212C163.27 129.544 163.884 129.079 164.599 128.903C164.927 128.823 165.265 128.804 165.602 128.849C166.207 123.306 170.151 119.347 175.176 119.347C180.201 119.347 184.145 123.306 184.75 128.849C185.089 128.804 185.425 128.821 185.753 128.903C186.468 129.079 187.082 129.544 187.485 130.212C187.965 131.011 188.101 132.026 187.859 132.999C187.395 134.855 185.698 136.039 184.07 135.637C184.011 135.623 183.952 135.607 183.893 135.588C182.265 139.975 178.817 142.884 175.176 142.884L175.174 142.882ZM166.758 134.361C166.819 134.361 166.88 134.373 166.936 134.394C167.085 134.448 167.2 134.568 167.249 134.719C168.647 138.983 171.832 141.848 175.171 141.848C178.511 141.848 181.695 138.983 183.093 134.719C183.143 134.568 183.258 134.448 183.406 134.394C183.554 134.34 183.719 134.354 183.856 134.437C184.004 134.528 184.159 134.592 184.315 134.632C185.383 134.897 186.522 134.051 186.847 132.747C187.024 132.038 186.932 131.309 186.59 130.745C186.327 130.308 185.95 130.019 185.498 129.906C185.162 129.824 184.814 129.848 184.468 129.982C184.315 130.04 184.14 130.021 184.002 129.932C183.863 129.843 183.776 129.693 183.764 129.53C183.43 124.229 179.815 120.383 175.171 120.383C170.528 120.383 166.913 124.229 166.579 129.53C166.569 129.695 166.48 129.845 166.341 129.932C166.202 130.021 166.03 130.038 165.875 129.982C165.527 129.85 165.178 129.824 164.842 129.906C164.39 130.019 164.011 130.308 163.75 130.745C163.411 131.309 163.317 132.04 163.493 132.747C163.818 134.051 164.957 134.895 166.026 134.632C166.183 134.594 166.332 134.531 166.485 134.437C166.567 134.387 166.659 134.361 166.753 134.361H166.758Z" fill="#1E2B62"/>
<path d="M165.908 130.938C170.465 130.085 175.214 126.051 178.064 122.416C178.622 125.642 181.495 129.413 184.508 130.738C184.508 130.738 185.943 117.89 175.172 118.304C164.4 118.717 165.908 130.936 165.908 130.936V130.938Z" fill="white"/>
<path d="M165.908 131.458C165.8 131.458 165.692 131.422 165.602 131.357C165.487 131.272 165.411 131.145 165.393 131.002C165.362 130.75 164.672 124.815 167.967 120.947C169.652 118.969 172.07 117.907 175.15 117.787C178.151 117.669 180.533 118.536 182.23 120.36C185.722 124.11 185.051 130.525 185.021 130.795C185.002 130.959 184.908 131.105 184.764 131.187C184.621 131.27 184.447 131.279 184.296 131.213C181.484 129.975 178.753 126.692 177.803 123.553C175.009 126.838 170.5 130.605 166.002 131.446C165.972 131.453 165.939 131.455 165.906 131.455L165.908 131.458ZM175.67 118.814C175.513 118.814 175.355 118.816 175.193 118.823C172.415 118.929 170.253 119.869 168.763 121.615C166.322 124.477 166.301 128.772 166.381 130.306C170.787 129.228 175.171 125.268 177.657 122.096C177.784 121.934 177.991 121.864 178.191 121.913C178.389 121.962 178.542 122.124 178.575 122.327C179.062 125.149 181.479 128.448 184.039 129.921C184.101 128.159 183.974 123.748 181.469 121.062C180.076 119.568 178.125 118.811 175.67 118.811V118.814Z" fill="#1E2B62"/>
</g>
<path d="M95.7683 58.6844C111.851 58.6844 124.888 45.6679 124.888 29.6113C124.888 13.5546 111.851 0.538086 95.7683 0.538086C79.6858 0.538086 66.6484 13.5546 66.6484 29.6113C66.6484 45.6679 79.6858 58.6844 95.7683 58.6844Z" fill="white"/>
<path d="M95.7704 59.2041C79.4277 59.2041 66.1328 45.9304 66.1328 29.6139C66.1328 13.2974 79.4277 0.0214844 95.7704 0.0214844C112.113 0.0214844 125.408 13.2951 125.408 29.6116C125.408 45.9281 112.113 59.2017 95.7704 59.2017V59.2041ZM95.7704 1.05771C79.9996 1.05771 67.1707 13.8684 67.1707 29.6116C67.1707 45.3548 80.002 58.1655 95.7704 58.1655C111.539 58.1655 124.37 45.3548 124.37 29.6116C124.37 13.8684 111.541 1.05771 95.7704 1.05771Z" fill="#1E2B62"/>
<mask id="mask2_3214_25435" style="mask-type:luminance" maskUnits="userSpaceOnUse" x="70" y="4" width="52" height="52">
<path d="M113.799 47.6181C123.76 37.6738 123.76 21.5509 113.799 11.6065C103.839 1.66224 87.6902 1.66224 77.73 11.6065C67.7697 21.5508 67.7697 37.6738 77.73 47.6181C87.6902 57.5624 103.839 57.5624 113.799 47.6181Z" fill="white"/>
</mask>
<g mask="url(#mask2_3214_25435)">
<path d="M111.708 37.502H79.8229C79.6723 37.502 79.5311 37.4362 79.4322 37.3234C79.3334 37.2106 79.2887 37.0602 79.3098 36.9122L80.8961 25.4197C81.3997 15.33 87.9331 7.39258 95.7655 7.39258C103.598 7.39258 110.131 15.33 110.64 25.4643L112.221 36.9122C112.242 37.0602 112.198 37.2106 112.099 37.3234C112 37.4362 111.859 37.502 111.708 37.502ZM80.4183 36.4657H111.113L109.609 25.5607C109.124 15.9338 103.045 8.42646 95.7655 8.42646C88.4861 8.42646 82.407 15.9338 81.9269 25.516L80.4183 36.4657Z" fill="#1E2B62"/>
<path d="M118.271 49.5228C117.165 45.7045 114.073 42.7838 110.194 41.8909L101.987 40.004V29.6582H89.5468V40.004L81.3402 41.8909C77.4593 42.7838 74.3691 45.7045 73.263 49.5228L70.1328 66.0343H121.399L118.269 49.5228H118.271Z" fill="white"/>
<path d="M121.403 66.554H70.1367C69.9814 66.554 69.8355 66.4858 69.7367 66.366C69.6378 66.2461 69.5978 66.0911 69.626 65.9383L72.7562 49.4268C73.9259 45.3829 77.1666 42.3212 81.2264 41.3884L89.0306 39.5932V29.6585C89.0306 29.3719 89.2636 29.1416 89.5484 29.1416H101.989C102.276 29.1416 102.507 29.3742 102.507 29.6585V39.5932L110.311 41.3884C114.371 42.3212 117.612 45.3853 118.769 49.3798C118.774 49.3962 118.779 49.4103 118.781 49.4268L121.911 65.9383C121.94 66.0887 121.9 66.2461 121.801 66.366C121.702 66.4858 121.556 66.554 121.401 66.554H121.403ZM70.7628 65.5177H120.777L117.767 49.6453C116.708 46.022 113.764 43.247 110.078 42.3988L101.871 40.5119C101.636 40.4579 101.469 40.2488 101.469 40.0067V30.1778H90.0662V40.0067C90.0662 40.2488 89.8991 40.4579 89.6637 40.5119L81.4571 42.3988C77.7644 43.247 74.8155 46.0338 73.7611 49.6688L70.7581 65.5177H70.7628Z" fill="#1E2B62"/>
<path d="M106.19 21.604C105.738 21.4912 105.279 21.5358 104.853 21.698C104.491 15.9505 100.565 12.0547 95.7733 12.0547C90.9815 12.0547 87.0536 15.9505 86.6935 21.698C86.2675 21.5358 85.8086 21.4912 85.3567 21.604C84.0105 21.9376 83.2409 23.4932 83.6339 25.0769C84.0293 26.6606 85.4391 27.6733 86.7829 27.3397C86.9994 27.2856 87.1995 27.1963 87.3854 27.0859C88.7716 31.3295 92.0053 34.5792 95.7733 34.5792C99.5412 34.5792 102.775 31.3295 104.161 27.0859C104.345 27.1987 104.545 27.2856 104.761 27.3397C106.107 27.6733 107.517 26.6606 107.913 25.0769C108.308 23.4932 107.536 21.9376 106.19 21.604Z" fill="white"/>
<path d="M95.7689 35.0939C92.1398 35.0939 88.7037 32.1826 87.0774 27.791C87.0209 27.8098 86.9621 27.8262 86.9032 27.8403C85.284 28.2421 83.5872 27.0578 83.1259 25.1992C82.6622 23.3406 83.606 21.5007 85.2252 21.0989C85.55 21.019 85.8865 21.0003 86.2231 21.0449C86.8256 15.4972 90.7583 11.5332 95.7689 11.5332C100.779 11.5332 104.712 15.4972 105.315 21.0449C105.651 21.0003 105.988 21.019 106.313 21.0989C107.934 21.5007 108.875 23.3406 108.412 25.1992C107.948 27.0578 106.254 28.2421 104.632 27.8403C104.573 27.8262 104.517 27.8098 104.458 27.791C102.834 32.1826 99.3956 35.0939 95.7665 35.0939H95.7689ZM87.381 26.5668C87.4422 26.5668 87.5034 26.5785 87.5599 26.5996C87.7081 26.6537 87.8234 26.7735 87.8729 26.9239C89.2685 31.191 92.441 34.06 95.7689 34.06C99.0967 34.06 102.269 31.1934 103.665 26.9239C103.714 26.7735 103.83 26.6537 103.978 26.5996C104.126 26.5456 104.293 26.5621 104.427 26.6443C104.576 26.7336 104.729 26.7994 104.884 26.8393C105.948 27.1025 107.08 26.2589 107.407 24.9548C107.732 23.6507 107.129 22.3748 106.063 22.1093C105.729 22.0271 105.383 22.0506 105.037 22.1845C104.884 22.2433 104.71 22.2245 104.571 22.1375C104.432 22.0482 104.345 21.8978 104.333 21.7334C103.999 16.4277 100.398 12.5765 95.7689 12.5765C91.1395 12.5765 87.5387 16.4277 87.2068 21.7334C87.1974 21.8978 87.108 22.0482 86.9691 22.1375C86.8303 22.2268 86.6585 22.2456 86.5031 22.1845C86.1572 22.0529 85.8112 22.0271 85.477 22.1093C84.4109 22.3748 83.8084 23.6507 84.1332 24.9548C84.4579 26.2589 85.59 27.1048 86.6538 26.8393C86.8091 26.8017 86.9597 26.7383 87.1103 26.6443C87.1927 26.595 87.2868 26.5691 87.381 26.5691V26.5668Z" fill="#1E2B62"/>
<path d="M86.5408 23.1401C91.0807 22.2871 95.8159 18.248 98.6566 14.6106C99.212 17.8414 102.079 21.6151 105.079 22.9427C105.079 22.9427 106.51 10.0803 95.7735 10.4962C85.0369 10.9098 86.5408 23.1424 86.5408 23.1424V23.1401Z" fill="white"/>
<path d="M86.5385 23.657C86.4302 23.657 86.322 23.6217 86.2325 23.5583C86.1172 23.4737 86.0419 23.3445 86.0231 23.2035C86.0113 23.1142 85.7595 20.9948 86.2302 18.4547C86.2819 18.1727 86.5502 17.9871 86.835 18.0388C87.1174 18.0905 87.3034 18.3607 87.2516 18.6427C86.9456 20.2898 86.9668 21.7678 87.0092 22.5291C91.6738 21.7467 100.94 21.2015 104.604 22.2284C104.639 21.3684 104.639 19.7635 104.291 18.0411C104.234 17.7615 104.416 17.4866 104.696 17.4302C104.978 17.3738 105.251 17.5548 105.308 17.8344C105.856 20.5389 105.602 22.898 105.592 22.9967C105.574 23.1612 105.479 23.3069 105.336 23.3891C105.192 23.4714 105.018 23.4808 104.868 23.4126C101.992 22.1414 91.0242 22.8205 86.635 23.6452C86.602 23.6523 86.5714 23.6546 86.5385 23.6546V23.657Z" fill="#1E2B62"/>
</g>
<path d="M645.485 13.6377H494.734V88.6762H645.485V13.6377Z" fill="white"/>
<path d="M645.48 89.1935H494.729C494.442 89.1935 494.211 88.9609 494.211 88.6766V13.638C494.211 13.3514 494.444 13.1211 494.729 13.1211H645.48C645.767 13.1211 645.997 13.3537 645.997 13.638V88.6766C645.997 88.9632 645.764 89.1935 645.48 89.1935ZM495.247 88.1573H644.96V14.155H495.247V88.1573Z" fill="#1E2B62"/>
<path d="M525.623 48.4541H513.57V70.4428H525.623V48.4541Z" fill="#A3DEFA"/>
<path d="M545.826 41.7754H533.773V70.4421H545.826V41.7754Z" fill="#FFE02E"/>
<path d="M566.029 31.8721H553.977V70.4428H566.029V31.8721Z" fill="#A3DEFA"/>
<path d="M586.232 48.4541H574.18V70.4428H586.232V48.4541Z" fill="#FFE02E"/>
<path d="M606.443 40.3115H594.391V70.4421H606.443V40.3115Z" fill="#A3DEFA"/>
<path d="M626.646 46.835H614.594V70.4427H626.646V46.835Z" fill="#FFE02E"/>
<path d="M525.617 77.9217H513.565C513.278 77.9217 513.047 77.6891 513.047 77.4048V24.9095C513.047 24.6229 513.28 24.3926 513.565 24.3926H525.617C525.904 24.3926 526.135 24.6252 526.135 24.9095V77.4048C526.135 77.6914 525.902 77.9217 525.617 77.9217ZM514.085 76.8855H525.099V25.4265H514.085V76.8855Z" fill="#1E2B62"/>
<path d="M545.828 77.9217H533.776C533.488 77.9217 533.258 77.6891 533.258 77.4048V24.9095C533.258 24.6229 533.491 24.3926 533.776 24.3926H545.828C546.115 24.3926 546.346 24.6252 546.346 24.9095V77.4048C546.346 77.6914 546.113 77.9217 545.828 77.9217ZM534.296 76.8855H545.31V25.4265H534.296V76.8855Z" fill="#1E2B62"/>
<path d="M566.031 77.9217H553.979C553.692 77.9217 553.461 77.6891 553.461 77.4048V24.9095C553.461 24.6229 553.694 24.3926 553.979 24.3926H566.031C566.318 24.3926 566.549 24.6252 566.549 24.9095V77.4048C566.549 77.6914 566.316 77.9217 566.031 77.9217ZM554.499 76.8855H565.513V25.4265H554.499V76.8855Z" fill="#1E2B62"/>
<path d="M586.234 77.9217H574.182C573.895 77.9217 573.664 77.6891 573.664 77.4048V24.9095C573.664 24.6229 573.897 24.3926 574.182 24.3926H586.234C586.521 24.3926 586.752 24.6252 586.752 24.9095V77.4048C586.752 77.6914 586.519 77.9217 586.234 77.9217ZM574.7 76.8855H585.714V25.4265H574.7V76.8855Z" fill="#1E2B62"/>
<path d="M606.437 77.9217H594.385C594.098 77.9217 593.867 77.6891 593.867 77.4048V24.9095C593.867 24.6229 594.1 24.3926 594.385 24.3926H606.437C606.724 24.3926 606.955 24.6252 606.955 24.9095V77.4048C606.955 77.6914 606.722 77.9217 606.437 77.9217ZM594.903 76.8855H605.917V25.4265H594.903V76.8855Z" fill="#1E2B62"/>
<path d="M626.64 77.9217H614.588C614.301 77.9217 614.07 77.6891 614.07 77.4048V24.9095C614.07 24.6229 614.303 24.3926 614.588 24.3926H626.64C626.928 24.3926 627.158 24.6252 627.158 24.9095V77.4048C627.158 77.6914 626.925 77.9217 626.64 77.9217ZM615.108 76.8855H626.123V25.4265H615.108V76.8855Z" fill="#1E2B62"/>
<path d="M80.9047 387.526L10.3539 424.022L0.39859 269.159C-0.735796 252.455 11.9613 238.432 28.7324 238.408L100.156 238.316L80.9047 387.524V387.526Z" fill="#A3DEFA"/>
<path d="M568.969 388.572L632.429 423.327L645.119 284.928C646.211 268.221 632.921 254.076 616.15 254.1L548.312 254.187L568.969 388.574V388.572Z" fill="#A3DEFA"/>
<path d="M0.519911 430C0.333985 430 0.155119 429.901 0.0609789 429.725C-0.0731705 429.473 0.0209694 429.159 0.275147 429.025L124.74 362.814C124.815 362.774 124.898 362.753 124.985 362.753H522.476C522.563 362.753 522.651 362.774 522.728 362.816L641.382 428.219C641.634 428.357 641.723 428.672 641.585 428.921C641.446 429.173 641.13 429.262 640.881 429.123L522.342 363.787H125.112L0.762321 429.939C0.684656 429.981 0.602284 430 0.519911 430Z" fill="#1E2B62"/>
<path d="M73.1328 419.033H187.346L234.018 393.649H119.805L73.1328 419.033Z" fill="white"/>
<path d="M187.342 419.551H73.1292C72.8915 419.551 72.6844 419.391 72.6255 419.161C72.5667 418.931 72.6726 418.691 72.8797 418.578L119.552 393.194C119.627 393.152 119.714 393.131 119.799 393.131H234.012C234.25 393.131 234.457 393.291 234.516 393.521C234.574 393.751 234.469 393.991 234.261 394.104L187.589 419.488C187.514 419.53 187.427 419.551 187.342 419.551ZM75.1649 418.517H187.208L231.976 394.169H119.933L75.1649 418.517Z" fill="#1E2B62"/>
<path d="M435.585 365.53L505.414 374.168L516.338 247.109C517.431 230.402 504.14 216.257 487.369 216.28L415.945 216.372L435.585 365.53Z" fill="#A3DEFA"/>
<path d="M348.544 333.24C337.673 331.365 328.375 324.406 323.496 314.527C316.106 299.567 307.716 285.045 301.375 274.568C295.223 264.403 284.595 257.763 272.745 256.722C243.743 254.177 213.62 253.768 194.251 253.848C180.754 253.902 168.37 261.358 162.06 273.271C150.695 294.731 141.643 318.79 135.251 338.241C129.102 356.947 143.011 376.607 162.731 376.687C192.933 376.809 259.509 376.687 259.509 376.687L274.625 326.776L298.062 360.575C305.061 370.669 312.587 376.656 312.587 376.656C312.587 376.656 335.913 376.642 339.742 376.633C344.343 361.858 351.418 347.856 360.575 335.374C356.264 334.589 352.199 333.873 348.542 333.243L348.544 333.24Z" fill="white"/>
<path d="M259.503 377.204C259.454 377.204 259.402 377.197 259.352 377.183C259.079 377.101 258.924 376.812 259.006 376.537L274.123 326.627C274.179 326.436 274.342 326.295 274.54 326.265C274.735 326.232 274.933 326.319 275.046 326.481L298.482 360.279C305.359 370.195 312.831 376.192 312.904 376.253C313.128 376.431 313.165 376.756 312.986 376.981C312.807 377.204 312.48 377.242 312.257 377.063C312.181 377.002 304.589 370.912 297.627 360.871L274.803 327.956L259.997 376.84C259.929 377.063 259.724 377.209 259.501 377.209L259.503 377.204Z" fill="#1E2B62"/>
<path d="M275.957 325.191C275.905 325.191 275.851 325.184 275.797 325.165C275.524 325.078 275.375 324.784 275.462 324.514L287.63 286.951C287.717 286.679 288.009 286.528 288.282 286.618C288.555 286.705 288.703 286.998 288.616 287.268L276.449 324.831C276.378 325.05 276.173 325.191 275.954 325.191H275.957Z" fill="#1E2B62"/>
<path d="M219.337 336.554C219.337 336.554 219.326 336.554 219.321 336.554L178.259 335.273C177.972 335.264 177.749 335.027 177.758 334.74C177.768 334.453 177.989 334.23 178.292 334.24L219.354 335.52C219.641 335.53 219.865 335.767 219.855 336.054C219.846 336.333 219.615 336.554 219.337 336.554Z" fill="#1E2B62"/>
<path d="M188.097 335.339C188.041 335.339 187.984 335.33 187.93 335.311C187.66 335.219 187.514 334.926 187.606 334.653C190.39 326.495 193.673 318.405 197.361 310.613C197.483 310.354 197.794 310.244 198.05 310.366C198.309 310.488 198.42 310.796 198.298 311.055C194.626 318.813 191.359 326.864 188.587 334.987C188.514 335.203 188.312 335.337 188.095 335.337L188.097 335.339Z" fill="#1E2B62"/>
<path d="M224.182 336.295C224.182 336.295 262.662 343.135 278.717 345.518C306.22 349.597 311.153 364.938 312.49 371.292C313.071 374.05 310.93 376.633 308.108 376.633H200.391C200.391 376.633 206.903 344.425 224.184 336.295H224.182Z" fill="#FFE9DD"/>
<path d="M308.105 377.15H200.388C200.233 377.15 200.084 377.08 199.986 376.96C199.887 376.84 199.847 376.682 199.877 376.53C200.146 375.204 206.639 343.974 223.958 335.828C224.055 335.781 224.163 335.767 224.271 335.785C224.655 335.854 262.925 342.651 278.79 345.006C298.166 347.879 309.995 356.933 312.996 371.184C313.302 372.641 312.937 374.14 311.993 375.301C311.038 376.476 309.621 377.15 308.105 377.15ZM201.03 376.114H308.105C309.308 376.114 310.43 375.58 311.188 374.648C311.934 373.731 312.224 372.545 311.981 371.395C309.077 357.605 297.547 348.833 278.639 346.028C263.29 343.751 227.011 337.322 224.255 336.833C208.821 344.249 202.047 371.63 201.033 376.114H201.03Z" fill="#1E2B62"/>
<path d="M282.893 377.15C282.632 377.15 282.406 376.952 282.378 376.685C282.35 376.4 282.557 376.147 282.842 376.116C284.317 375.963 285.306 374.304 285.301 372.85C285.296 371.163 284.329 369.558 283.489 368.348C278.946 361.813 271.846 357.248 264.011 355.819C263.729 355.767 263.543 355.497 263.595 355.218C263.646 354.936 263.915 354.75 264.197 354.802C272.3 356.28 279.643 361 284.341 367.758C285.268 369.09 286.332 370.874 286.339 372.848C286.346 374.746 285.051 376.929 282.95 377.145C282.931 377.145 282.914 377.148 282.896 377.148L282.893 377.15Z" fill="#1E2B62"/>
<path d="M293.498 377.15C293.31 377.15 293.129 377.047 293.037 376.868C292.905 376.614 293.007 376.302 293.261 376.17C294.746 375.409 295.772 373.701 295.939 371.71C296.071 370.117 295.711 368.357 294.805 366.17C292.035 359.482 286.643 353.97 280.013 351.047C279.752 350.932 279.632 350.626 279.747 350.363C279.862 350.102 280.168 349.982 280.43 350.098C287.302 353.129 292.891 358.841 295.763 365.773C296.374 367.248 297.165 369.478 296.972 371.795C296.777 374.14 295.537 376.168 293.734 377.091C293.659 377.131 293.576 377.148 293.498 377.148V377.15Z" fill="#1E2B62"/>
<path d="M303.696 377.15C303.531 377.15 303.369 377.073 303.268 376.927C303.105 376.692 303.164 376.37 303.4 376.206C304.635 375.355 305.478 373.778 305.654 371.988C305.798 370.531 305.567 368.964 304.903 366.905C302.604 359.76 296.445 352.267 289.926 348.686C289.674 348.547 289.582 348.232 289.721 347.983C289.86 347.732 290.175 347.64 290.425 347.779C297.156 351.477 303.515 359.212 305.89 366.588C306.33 367.953 306.89 370.009 306.685 372.089C306.476 374.211 305.492 376.022 303.988 377.058C303.898 377.12 303.795 377.15 303.694 377.15H303.696Z" fill="#1E2B62"/>
<path d="M339.742 376.633H430.801C430.801 376.633 436.494 361.169 412.075 348.857C397.61 341.563 360.575 335.374 360.575 335.374C360.575 335.374 344.122 353.272 339.742 376.633Z" fill="white"/>
<path d="M368.879 377.15H339.738C339.583 377.15 339.437 377.082 339.338 376.962C339.239 376.844 339.199 376.687 339.228 376.537C343.586 353.298 360.023 335.203 360.19 335.022C360.383 334.81 360.713 334.796 360.922 334.991C361.134 335.184 361.148 335.513 360.953 335.722C360.79 335.898 344.836 353.467 340.364 376.114H368.877C369.164 376.114 369.395 376.346 369.395 376.631C369.395 376.915 369.162 377.148 368.877 377.148L368.879 377.15Z" fill="#1E2B62"/>
<path d="M396.246 376.675C396.109 376.675 395.973 376.621 395.872 376.516C395.674 376.309 395.681 375.982 395.888 375.783C397.352 374.384 397.321 372.035 396.533 370.437C395.547 368.435 393.553 367.206 392.054 366.529C390.414 365.787 388.583 365.305 386.815 364.838C383.744 364.029 380.572 363.19 378.202 360.965C375.768 358.679 374.62 355.091 375.276 351.82C375.333 351.54 375.606 351.357 375.886 351.414C376.166 351.47 376.349 351.742 376.293 352.022C375.704 354.95 376.733 358.164 378.912 360.211C381.089 362.255 384.001 363.024 387.081 363.837C388.891 364.314 390.765 364.807 392.485 365.585C394.137 366.332 396.345 367.702 397.467 369.979C398.578 372.234 398.218 374.991 396.608 376.53C396.507 376.626 396.378 376.673 396.251 376.673L396.246 376.675Z" fill="#1E2B62"/>
<path d="M419.871 375.743C419.801 375.743 419.73 375.729 419.662 375.698C419.401 375.583 419.281 375.278 419.398 375.014C421.017 371.358 417.847 367.211 416.409 365.599C410.377 358.832 401.799 354.457 394.228 350.598C393.973 350.469 393.872 350.157 394.002 349.903C394.131 349.649 394.444 349.548 394.701 349.677C402.352 353.578 411.025 358 417.184 364.913C418.756 366.675 422.208 371.231 420.347 375.437C420.262 375.63 420.071 375.745 419.871 375.745V375.743Z" fill="#1E2B62"/>
<path d="M201.166 377.258C186.823 377.258 172.735 377.244 162.731 377.204C153.255 377.166 144.602 372.685 138.986 364.912C133.288 357.024 131.747 347.243 134.759 338.079C143.02 312.948 152.05 291.063 161.603 273.029C168.009 260.935 180.518 253.387 194.251 253.331C214.209 253.251 244.037 253.683 272.792 256.207C284.748 257.257 295.6 264.02 301.82 274.3C307.739 284.079 316.383 298.958 323.962 314.299C328.756 324.004 337.979 330.893 348.633 332.731C352.672 333.428 356.722 334.145 360.672 334.864C360.954 334.916 361.14 335.186 361.088 335.466C361.036 335.748 360.77 335.933 360.486 335.882C356.541 335.165 352.493 334.446 348.457 333.75C337.475 331.856 327.97 324.756 323.032 314.755C315.47 299.447 306.84 284.596 300.933 274.833C294.882 264.835 284.329 258.256 272.7 257.236C243.983 254.715 214.19 254.283 194.253 254.365C180.904 254.419 168.746 261.755 162.519 273.51C152.994 291.493 143.985 313.324 135.745 338.4C132.839 347.247 134.326 356.688 139.829 364.306C145.246 371.807 153.597 376.132 162.735 376.168C192.589 376.29 258.845 376.168 259.509 376.168C259.796 376.168 260.027 376.398 260.027 376.685C260.027 376.971 259.796 377.204 259.509 377.204C259.066 377.204 229.622 377.258 201.163 377.258H201.166Z" fill="#1E2B62"/>
<path d="M312.58 377.173V376.137C312.58 376.137 335.906 376.123 339.735 376.113C340.02 376.113 340.253 376.344 340.253 376.63C340.253 376.917 340.022 377.149 339.735 377.149C335.906 377.159 312.578 377.173 312.578 377.173H312.58Z" fill="#1E2B62"/>
<path d="M289.292 348.453C289.127 348.453 288.964 348.375 288.866 348.23L274.806 327.952L270.101 343.486C270.019 343.761 269.729 343.913 269.454 343.831C269.181 343.749 269.026 343.46 269.108 343.185L274.123 326.622C274.18 326.431 274.342 326.29 274.54 326.26C274.735 326.227 274.933 326.314 275.046 326.476L289.718 347.635C289.88 347.87 289.821 348.192 289.586 348.357C289.496 348.418 289.393 348.448 289.292 348.448V348.453Z" fill="#1E2B62"/>
<path d="M232.515 193.993C234.005 190.673 236.057 187.414 239.215 185.595C242.374 183.777 246.843 183.84 249.279 186.547C256.429 182.973 265.37 182.754 272.32 186.709C279.27 190.661 283.72 198.949 282.409 206.823C281.098 214.697 273.621 221.299 265.631 220.928C263.423 227.615 256.257 231.915 249.204 232.031C242.833 232.134 231.03 228.384 229.486 221.283C227.544 212.354 228.792 202.29 232.515 193.993Z" fill="#1E2B62"/>
<path d="M260.672 242.346L250.947 272.507C250.947 272.507 227.843 255.08 227.69 254.835C227.537 254.591 235.626 228.901 235.626 228.901C235.626 228.901 242.62 221.006 260.672 242.349V242.346Z" fill="#FFE9DD"/>
<path d="M250.947 273.024C250.837 273.024 250.726 272.989 250.634 272.918C227.452 255.431 227.316 255.21 227.248 255.105C227.08 254.835 226.97 254.656 235.129 228.743C235.151 228.673 235.188 228.609 235.235 228.555C235.294 228.489 236.725 226.92 239.834 226.953C243.748 226.997 250.608 229.645 261.067 242.01C261.183 242.146 261.22 242.332 261.164 242.503L251.439 272.664C251.387 272.824 251.263 272.949 251.103 273C251.051 273.017 250.999 273.024 250.947 273.024ZM228.252 254.63C230.147 256.143 244.379 266.9 250.677 271.652L260.088 242.459C250.032 230.63 243.553 228.057 239.883 227.989C237.558 227.942 236.374 228.898 236.083 229.173C233.119 238.589 228.775 252.544 228.255 254.63H228.252Z" fill="#1E2B62"/>
<path d="M271.69 217.23C271.69 217.23 277.327 241.768 267.421 248.053C261.544 251.782 244.601 251.825 236.192 234.326C236.192 234.326 228.784 233.671 228.143 225.928C227.503 218.186 231.652 215.874 237.004 221.997C237.004 221.997 243.846 226.751 242.867 216.005C242.441 211.325 246.894 207.727 255.726 206.451C271.707 204.144 269.744 207.819 271.688 217.23H271.69Z" fill="#FFE9DD"/>
<path d="M259.114 250.567C257.076 250.567 254.861 250.29 252.578 249.639C247.544 248.201 240.573 244.458 235.847 234.803C234.402 234.568 228.22 233.144 227.629 225.973C227.292 221.898 228.246 219.079 230.241 218.238C232.195 217.415 234.715 218.611 237.351 221.607C237.69 221.826 239.695 223.054 241.027 222.277C242.202 221.593 242.661 219.441 242.352 216.055C241.884 210.916 246.732 207.229 255.654 205.941C269.319 203.968 270.357 206.221 271.571 213.639C271.743 214.68 271.936 215.86 272.195 217.124C272.447 218.221 277.777 242.099 267.697 248.495C265.805 249.696 262.738 250.572 259.114 250.572V250.567ZM231.515 219.02C231.204 219.02 230.914 219.076 230.644 219.189C229.109 219.835 228.368 222.34 228.662 225.886C229.258 233.111 235.956 233.786 236.24 233.812C236.422 233.828 236.584 233.938 236.662 234.103C241.223 243.598 247.991 247.25 252.865 248.643C258.898 250.365 264.384 249.369 267.144 247.616C276.631 241.596 271.242 217.587 271.185 217.345C271.185 217.34 271.185 217.338 271.183 217.333C270.917 216.048 270.721 214.854 270.55 213.801C269.446 207.072 269.114 205.039 255.805 206.961C247.502 208.16 242.976 211.44 243.388 215.956C243.741 219.828 243.122 222.256 241.55 223.17C239.523 224.344 236.826 222.5 236.713 222.42C236.678 222.397 236.648 222.368 236.619 222.335C234.734 220.178 232.929 219.018 231.517 219.018L231.515 219.02Z" fill="#1E2B62"/>
<path d="M237.025 229.928C236.82 229.928 236.625 229.806 236.542 229.604C235.801 227.766 233.979 226.354 232.012 226.091C231.727 226.053 231.529 225.793 231.567 225.508C231.605 225.224 231.868 225.027 232.151 225.064C234.514 225.381 236.615 227.012 237.505 229.218C237.611 229.484 237.484 229.785 237.218 229.893C237.154 229.919 237.088 229.93 237.025 229.93V229.928Z" fill="#1E2B62"/>
<path d="M253.982 275.428C253.869 275.428 253.756 275.392 253.659 275.315L250.322 272.681C250.098 272.502 250.058 272.178 250.237 271.952C250.416 271.729 250.741 271.689 250.967 271.868L254.304 274.502C254.528 274.68 254.568 275.005 254.389 275.23C254.288 275.36 254.135 275.428 253.982 275.428Z" fill="#1E2B62"/>
<path d="M35.691 379.046L23.3516 416.964L112.756 376.551L35.691 379.046Z" fill="white"/>
<path d="M23.3476 417.483C23.2229 417.483 23.0982 417.438 23.0017 417.351C22.8487 417.215 22.7898 417.001 22.8534 416.806L35.1928 378.889C35.261 378.682 35.4517 378.539 35.6682 378.532L112.733 376.036C112.969 376.032 113.199 376.196 113.256 376.436C113.312 376.675 113.19 376.922 112.964 377.025L23.5594 417.438C23.4912 417.469 23.4182 417.485 23.3453 417.485L23.3476 417.483ZM36.0683 379.551L24.2043 416.007L110.163 377.152L36.0683 379.551Z" fill="#1E2B62"/>
<path d="M131.776 231.855C131.776 231.855 144.416 216.73 137.123 210.468C129.832 204.206 123.79 212.98 112.71 210.498C101.632 208.017 93.9292 206.299 75.1224 228.852C56.3156 251.407 3.44192 305.453 29.2974 318.113C55.153 330.774 131.776 231.853 131.776 231.853V231.855Z" fill="#1E2B62"/>
<path d="M250.779 287.292C250.142 285.487 248.372 284.268 246.519 283.774C244.667 283.281 242.714 283.398 240.798 283.518C228.626 284.286 216.454 285.052 204.281 285.821C212.415 290.069 221.547 291.942 230.655 292.468C234.439 292.687 253.481 294.935 250.779 287.292Z" fill="#FFE9DD"/>
<path d="M239.718 293.458C236.762 293.458 233.905 293.235 232.031 293.087C231.452 293.042 230.974 293.004 230.626 292.983C220.37 292.391 211.426 290.133 204.043 286.277C203.836 286.169 203.728 285.939 203.777 285.711C203.827 285.483 204.02 285.316 204.253 285.302L240.77 282.999C242.613 282.884 244.702 282.753 246.656 283.272C248.906 283.871 250.631 285.309 251.271 287.118C251.763 288.512 251.634 289.71 250.885 290.685C249.172 292.913 244.328 293.458 239.72 293.458H239.718ZM206.242 286.216C213.151 289.484 221.363 291.411 230.687 291.952C231.04 291.973 231.525 292.01 232.114 292.055C236.348 292.386 247.59 293.268 250.061 290.055C250.591 289.367 250.666 288.519 250.292 287.464C249.767 285.976 248.306 284.785 246.388 284.273C244.599 283.796 242.683 283.918 240.833 284.033L206.242 286.214V286.216Z" fill="#1E2B62"/>
<path d="M184.431 286.991C189.004 276.49 203.965 271.741 209.164 270.245C214.361 268.75 215.081 275.837 206.853 280.012C198.625 284.188 201.306 285.995 201.306 285.995C201.306 285.995 250.649 285.837 252.991 291.054C252.991 291.054 256.088 298.643 236.623 298.711C231.113 298.73 226.142 302.027 224.015 307.102C223.412 308.538 222.742 310.126 222.021 311.816C206.613 312.07 191.144 308.078 177.797 300.387C180.814 294.56 183.271 289.658 184.431 286.991Z" fill="#FFE9DD"/>
<path d="M222.503 311.214C222.435 311.214 222.367 311.2 222.301 311.172C222.037 311.059 221.915 310.756 222.025 310.493C222.663 308.994 222.889 308.453 223.353 307.349L223.541 306.898C225.751 301.627 230.886 298.211 236.627 298.19C247.09 298.155 250.783 295.948 252.04 294.104C253.042 292.63 252.539 291.298 252.517 291.242C250.919 287.684 220.26 286.448 201.315 286.507C201.211 286.507 201.11 286.476 201.025 286.418C200.764 286.241 200.336 285.746 200.383 284.996C200.479 283.431 202.581 281.596 206.626 279.545C211.717 276.962 213.061 273.4 212.388 271.699C211.978 270.66 210.83 270.303 209.317 270.738C200.329 273.323 188.799 278.276 184.915 287.193C184.014 289.268 182.251 292.863 179.677 297.882C179.545 298.136 179.232 298.237 178.978 298.107C178.723 297.978 178.622 297.666 178.752 297.41C181.315 292.412 183.068 288.835 183.962 286.782C188.006 277.496 199.825 272.392 209.027 269.744C211.477 269.039 212.868 270.096 213.35 271.321C214.304 273.734 212.433 277.761 207.095 280.47C202.115 282.996 201.465 284.507 201.418 285.041C201.399 285.247 201.465 285.391 201.524 285.475C203.212 285.473 214.704 285.487 226.302 286.049C251.877 287.289 253.077 289.961 253.471 290.84C253.508 290.931 254.214 292.722 252.915 294.658C250.903 297.659 245.422 299.195 236.629 299.226C231.308 299.245 226.546 302.412 224.497 307.297L224.308 307.748C223.845 308.855 223.616 309.396 222.979 310.897C222.894 311.094 222.703 311.212 222.501 311.212L222.503 311.214Z" fill="#1E2B62"/>
<path d="M145.512 283.873C145.512 283.873 165.227 286.439 163.827 299.574C162.424 312.707 162.328 331.314 162.328 331.314C162.328 331.314 168.927 317.519 177.799 300.387C191.149 308.078 206.616 312.07 222.024 311.816C213.723 331.316 202.121 358.073 192.892 367.697C179.856 381.293 149.805 403.625 129.717 353.874C109.633 304.123 145.512 283.873 145.512 283.873Z" fill="#00A5F3"/>
<path d="M145.509 283.872L157.676 297.146C157.676 297.146 149.166 343.201 146.53 349.331C139.576 365.511 62.5645 356.62 46.7419 355.878C30.9193 355.135 22.981 340.242 22.4515 334.321C21.9219 328.4 55.8029 283.461 55.8029 283.461C55.8029 283.461 96.6478 281.466 145.509 283.875V283.872Z" fill="#00A5F3"/>
<path d="M137.199 352.403C136.987 352.403 136.787 352.271 136.712 352.062C136.613 351.794 136.752 351.496 137.022 351.399C143.12 349.183 145.895 342.306 146.417 337.089C146.86 332.679 146.224 328.167 145.61 323.802C145.372 322.119 145.128 320.38 144.946 318.665C144.657 315.921 144.612 312.502 146.874 310.415C147.083 310.22 147.413 310.234 147.606 310.443C147.801 310.653 147.787 310.982 147.578 311.174C145.655 312.948 145.711 316.052 145.977 318.555C146.156 320.251 146.401 321.983 146.636 323.656C147.26 328.08 147.905 332.658 147.448 337.19C146.895 342.705 143.925 349.992 137.375 352.37C137.316 352.391 137.258 352.4 137.199 352.4V352.403Z" fill="#1E2B62"/>
<path d="M84.8276 353.188C107.732 353.912 135.484 355.498 136.334 358.938C137.318 362.925 134.336 364.018 134.336 364.018C134.336 364.018 137.511 367.211 133.34 371.403C133.34 371.403 135.298 375.919 131.963 378.422C131.963 378.422 132.293 384.717 126.426 384.738C121.893 384.754 104.823 390.025 86.8187 394.137C82.6012 380.971 81.8763 366.689 84.83 353.186L84.8276 353.188Z" fill="#FFE9DD"/>
<path d="M86.9552 394.169C86.7199 394.169 86.5081 394.009 86.4516 393.772C86.3857 393.494 86.5575 393.215 86.8352 393.149C91.3139 392.084 95.915 390.954 100.363 389.862C112.648 386.842 123.258 384.234 126.421 384.222C127.927 384.215 129.121 383.762 129.963 382.874C131.559 381.193 131.443 378.475 131.443 378.449C131.434 378.277 131.512 378.113 131.651 378.01C134.614 375.787 132.936 371.778 132.863 371.609C132.78 371.414 132.823 371.188 132.971 371.04C135.209 368.792 135.169 366.895 134.741 365.702C134.644 365.432 134.785 365.135 135.054 365.039C135.324 364.943 135.621 365.084 135.717 365.352C136.23 366.78 136.32 368.996 133.938 371.529C134.319 372.65 135.296 376.353 132.484 378.672C132.477 379.485 132.314 381.901 130.723 383.583C129.676 384.688 128.231 385.254 126.426 385.261C123.385 385.273 112.324 387.991 100.61 390.87C96.1598 391.962 91.5587 393.095 87.0753 394.159C87.0352 394.169 86.9952 394.173 86.9552 394.173V394.169Z" fill="#1E2B62"/>
<path d="M2.24398 363.056C9.53041 343.373 19.3539 319.459 31.4038 298.88C36.8286 289.615 46.7133 283.856 57.4571 283.516L74.0116 282.989L54.7458 352.588C54.7458 352.588 68.5656 352.668 84.8282 353.183C81.8746 366.687 82.5995 380.968 86.8169 394.134C81.5169 395.346 76.1368 396.458 70.9708 397.306C61.2532 398.899 44.8494 400.567 29.3492 401.202C9.34684 402.019 -4.69884 381.802 2.24163 363.054L2.24398 363.056Z" fill="#00A5F3"/>
<path d="M132.464 363.921C132.464 363.921 132.441 363.921 132.429 363.921L130.329 363.785C130.045 363.766 129.828 363.519 129.845 363.235C129.863 362.951 130.115 362.734 130.395 362.751L132.495 362.887C132.779 362.906 132.996 363.153 132.977 363.437C132.958 363.712 132.73 363.921 132.459 363.921H132.464Z" fill="#1E2B62"/>
<path d="M131.629 371.278C131.629 371.278 131.618 371.278 131.613 371.278L129.236 371.203C128.949 371.194 128.725 370.954 128.735 370.67C128.744 370.383 128.991 370.164 129.269 370.169L131.646 370.244C131.933 370.254 132.157 370.493 132.147 370.778C132.138 371.057 131.907 371.278 131.629 371.278Z" fill="#1E2B62"/>
<path d="M129.406 378.879C129.385 378.879 129.366 378.879 129.345 378.877L126.966 378.6C126.681 378.567 126.478 378.311 126.511 378.026C126.544 377.742 126.803 377.54 127.086 377.573L129.465 377.85C129.75 377.883 129.952 378.139 129.919 378.423C129.889 378.687 129.665 378.882 129.404 378.882L129.406 378.879Z" fill="#1E2B62"/>
<path d="M46.2125 353.848C45.9631 353.848 45.7418 353.667 45.7018 353.413C45.6571 353.131 45.8477 352.866 46.1302 352.819C54.2615 351.505 79.9264 352.018 81.0161 352.039C81.3032 352.046 81.5291 352.281 81.5244 352.567C81.5197 352.854 81.2749 353.084 80.9949 353.075C80.7289 353.07 54.3344 352.542 46.2949 353.841C46.2667 353.846 46.2384 353.848 46.2125 353.848Z" fill="#1E2B62"/>
<path d="M54.7457 353.11C54.6939 353.11 54.6398 353.103 54.5857 353.084C54.3127 352.995 54.1644 352.704 54.2515 352.431L63.0842 325.266C63.1736 324.993 63.4654 324.845 63.7384 324.932C64.0114 325.021 64.1597 325.313 64.0726 325.585L55.2399 352.751C55.1693 352.969 54.9646 353.108 54.7457 353.108V353.11Z" fill="#1E2B62"/>
<path d="M110.609 289.691L125.502 253.31L102.642 247.104L82.5859 289.475C82.5859 289.475 101.635 293.591 110.609 289.693V289.691Z" fill="#FFE9DD"/>
<path d="M113.48 283.201C113.414 283.201 113.348 283.189 113.285 283.163C113.019 283.055 112.892 282.752 113 282.489L124.803 253.658L102.508 247.605C102.233 247.53 102.068 247.245 102.143 246.97C102.219 246.695 102.503 246.531 102.779 246.606L125.638 252.812C125.782 252.852 125.902 252.948 125.968 253.082C126.034 253.216 126.038 253.369 125.982 253.507L113.958 282.881C113.875 283.081 113.682 283.203 113.478 283.203L113.48 283.201Z" fill="#1E2B62"/>
<path d="M82.5922 289.994C82.5499 289.994 82.5099 289.99 82.4675 289.978C79.1255 289.151 75.913 288.025 72.917 286.629C72.6581 286.51 72.5451 286.199 72.6652 285.941C72.7876 285.682 73.0935 285.57 73.3547 285.69C76.2896 287.057 79.4385 288.161 82.7146 288.972C82.9923 289.04 83.1618 289.322 83.0935 289.599C83.0347 289.834 82.8229 289.992 82.5899 289.992L82.5922 289.994Z" fill="#1E2B62"/>
<path d="M111.026 290.621C110.776 290.621 110.557 290.442 110.515 290.189C110.468 289.907 110.659 289.639 110.941 289.592C119.861 288.105 126.039 285.637 126.1 285.611C126.366 285.503 126.667 285.633 126.775 285.898C126.884 286.164 126.754 286.464 126.488 286.572C126.427 286.598 120.15 289.108 111.11 290.614C111.082 290.619 111.054 290.621 111.026 290.621Z" fill="#1E2B62"/>
<path d="M136.513 238.603C137.354 243.493 137.504 248.714 135.414 253.214C132.592 259.288 125.774 263.08 119.069 262.885C112.366 262.69 106.024 258.801 102.263 253.256C99.3327 254.321 95.9343 254.006 93.249 252.422C90.566 250.838 88.6502 248.016 88.1701 244.94C87.73 242.111 88.7397 238.819 91.3167 237.565C92.7688 236.857 94.4916 236.9 96.0567 237.309C98.8691 238.044 101.352 239.957 102.781 242.483C104.708 243.385 107.062 241.869 107.874 239.905C108.688 237.941 108.42 235.72 108.222 233.603C108.027 231.486 107.956 229.204 109.081 227.4C110.121 225.731 111.992 224.787 113.826 224.075C116.784 222.926 119.895 222.176 123.051 221.843C124.979 221.638 128.648 220.94 130.441 221.977C132.374 223.093 133.301 227.141 134.007 229.103C135.115 232.188 135.953 235.368 136.509 238.599L136.513 238.603Z" fill="#FFE9DD"/>
<path d="M119.573 263.411C119.401 263.411 119.232 263.409 119.06 263.404C112.553 263.214 106.078 259.574 102.065 253.873C99.0695 254.837 95.7063 254.47 92.9927 252.87C90.1615 251.199 88.1704 248.267 87.6668 245.022C87.2314 242.223 88.1186 238.553 91.1005 237.103C92.8963 236.229 94.8638 236.462 96.1982 236.812C99.1095 237.576 101.635 239.491 103.155 242.08C103.882 242.362 104.588 242.212 105.064 242.028C106.081 241.634 106.98 240.745 107.408 239.712C108.126 237.977 107.937 235.964 107.754 234.018L107.721 233.654C107.526 231.537 107.42 229.112 108.655 227.129C109.818 225.263 111.936 224.26 113.652 223.595C116.645 222.434 119.794 221.67 123.012 221.33C123.306 221.299 123.64 221.257 124 221.21C126.13 220.937 129.046 220.566 130.717 221.532C132.466 222.542 133.409 225.512 134.097 227.681C134.245 228.149 134.381 228.574 134.508 228.933C135.626 232.047 136.476 235.271 137.034 238.516C138.086 244.637 137.714 249.515 135.895 253.432C133.141 259.362 126.483 263.411 119.578 263.411H119.573ZM102.27 252.738C102.44 252.738 102.602 252.821 102.699 252.966C106.507 258.582 112.786 262.184 119.091 262.368C125.772 262.56 132.296 258.709 134.949 252.997C136.676 249.277 137.022 244.597 136.008 238.692C135.459 235.506 134.626 232.34 133.527 229.286C133.395 228.919 133.254 228.478 133.103 227.998C132.466 225.992 131.592 223.242 130.192 222.432C128.825 221.642 125.998 222.002 124.127 222.241C123.758 222.288 123.416 222.333 123.115 222.364C119.987 222.695 116.93 223.435 114.021 224.563C112.456 225.171 110.531 226.074 109.531 227.679C108.465 229.387 108.568 231.612 108.749 233.56L108.782 233.922C108.978 235.994 109.178 238.135 108.361 240.109C107.829 241.396 106.707 242.501 105.433 242.994C104.435 243.382 103.445 243.368 102.567 242.957C102.47 242.912 102.388 242.837 102.336 242.743C100.985 240.353 98.5917 238.511 95.9323 237.813C94.7673 237.508 93.061 237.298 91.5524 238.034C89.1565 239.199 88.2999 242.353 88.6905 244.865C89.1495 247.806 90.9546 250.466 93.5199 251.98C96.0852 253.493 99.2907 253.789 102.091 252.771C102.15 252.75 102.209 252.741 102.268 252.741L102.27 252.738Z" fill="#1E2B62"/>
<path d="M100.714 248.166C100.514 248.166 100.326 248.051 100.239 247.856C99.4691 246.115 97.2756 245.095 95.4446 245.631C95.1692 245.711 94.8821 245.553 94.8021 245.278C94.7221 245.003 94.8797 244.717 95.1527 244.637C97.4945 243.953 100.203 245.208 101.187 247.44C101.302 247.701 101.185 248.006 100.921 248.121C100.853 248.152 100.782 248.166 100.712 248.166H100.714Z" fill="#1E2B62"/>
<path d="M418.974 283.584L416.305 258.545L467.128 257.955L525.119 374.161L454.396 371.865L418.974 283.584Z" fill="white"/>
<path d="M463.055 379.888L416.305 258.543H413.674C396.354 258.569 380.663 268.743 373.601 284.529L330.852 380.059L463.057 379.888H463.055Z" fill="#00A5F3"/>
<path d="M429.166 363.669C428.958 363.669 428.763 363.545 428.683 363.343L408.029 311.275C407.923 311.009 408.055 310.709 408.321 310.603C408.587 310.497 408.888 310.629 408.994 310.894L429.648 362.962C429.754 363.227 429.622 363.528 429.356 363.634C429.293 363.66 429.229 363.672 429.166 363.672V363.669Z" fill="#1E2B62"/>
<path d="M549.811 311.348C549.722 311.184 549.592 310.867 549.423 310.415C548.406 307.699 546.385 302.812 543.956 297.083C533.996 273.583 511.004 258.233 485.448 258.038C475.316 257.96 467.293 257.911 467.133 257.953L515.285 380.454L525.321 380.44C539.15 380.421 550.345 369.215 550.327 355.408L549.809 311.346L549.811 311.348Z" fill="#00A5F3"/>
<path d="M512.9 336.509L492.961 287.952L547.351 305.025L563.496 345.983C569.916 362.274 557.979 379.93 540.445 380.073C514.872 380.282 483.067 380.513 458.906 380.52C456.317 363.484 448.45 346.432 443.844 337.538C479.102 336.984 512.9 336.512 512.9 336.512V336.509Z" fill="#00A5F3"/>
<path d="M500.334 337.042C500.047 337.042 499.817 336.812 499.817 336.525C499.817 336.238 500.047 336.008 500.334 336.006L512.123 335.992L492.476 288.147C492.368 287.881 492.495 287.58 492.759 287.472C493.022 287.364 493.326 287.491 493.434 287.754L513.373 336.311C513.439 336.471 513.42 336.652 513.323 336.795C513.227 336.939 513.067 337.026 512.893 337.026L500.332 337.042H500.334Z" fill="#1E2B62"/>
<path d="M443.838 337.536C448.443 346.432 456.309 363.482 458.9 380.517C439.069 380.522 397.123 380.412 395.271 379.977C389.298 378.576 398.695 337.595 443.838 337.536Z" fill="#D08F79"/>
<path d="M525.075 337.808C525.075 337.808 525.061 337.808 525.056 337.808L516.398 337.484C516.111 337.472 515.889 337.232 515.899 336.948C515.91 336.661 516.148 336.436 516.438 336.45L525.096 336.774C525.383 336.786 525.605 337.026 525.595 337.31C525.583 337.589 525.355 337.808 525.077 337.808H525.075Z" fill="#1E2B62"/>
<path d="M403.973 379.175C403.945 379.175 403.915 379.173 403.884 379.168C403.602 379.119 403.413 378.851 403.46 378.569C404.712 371.296 408.476 364.626 414.058 359.787C419.641 354.949 426.783 352.165 434.171 351.946C434.458 351.939 434.696 352.163 434.705 352.449C434.715 352.736 434.489 352.973 434.202 352.983C427.052 353.194 420.14 355.887 414.738 360.57C409.337 365.253 405.696 371.708 404.484 378.745C404.442 378.997 404.22 379.175 403.973 379.175Z" fill="#1E2B62"/>
<path d="M415.415 378.228C415.333 378.228 415.251 378.21 415.175 378.17C414.921 378.036 414.825 377.723 414.959 377.469C419.226 369.375 427.529 363.698 436.632 362.657C436.917 362.624 437.174 362.828 437.206 363.113C437.239 363.397 437.035 363.653 436.75 363.686C427.983 364.689 419.986 370.157 415.877 377.954C415.785 378.13 415.604 378.231 415.418 378.231L415.415 378.228Z" fill="#1E2B62"/>
<path d="M313.938 380.371L395.275 380.266L365.489 298.784C364.647 296.481 362.453 294.952 359.999 294.954L278.89 295.06C274.84 295.065 272.025 299.087 273.413 302.884L297.565 368.952C300.074 375.818 306.619 380.381 313.938 380.371Z" fill="#1E2B62"/>
<path d="M427 370.032L297.68 370.199L298.004 371.071C300.254 377.119 306.037 381.128 312.497 381.118L443.66 380.949C440.789 374.316 434.239 370.023 427 370.032Z" fill="#1E2B62"/>
<path d="M426.128 259.898L419.727 244.414C419.727 244.414 416.559 217.577 442.101 230.094L456.154 259.513C449.371 270.855 434.813 272.411 426.128 259.898Z" fill="#D08F79"/>
<path d="M441.18 269.185C435.298 269.185 429.683 265.933 425.698 260.195C425.677 260.164 425.658 260.131 425.644 260.098L419.243 244.614C419.224 244.569 419.212 244.524 419.207 244.477C419.151 243.993 417.885 232.59 424.317 228.043C428.33 225.207 434.387 225.743 442.323 229.632C442.429 229.684 442.512 229.768 442.564 229.874L456.616 259.292C456.692 259.448 456.682 259.631 456.593 259.781C453.194 265.465 447.633 268.978 441.716 269.178C441.537 269.185 441.356 269.187 441.175 269.187L441.18 269.185ZM426.583 259.65C430.537 265.322 435.896 268.339 441.686 268.142C447.249 267.954 452.295 264.803 455.564 259.485L441.709 230.482C434.22 226.845 428.572 226.307 424.919 228.889C419.226 232.912 420.137 243.343 420.234 244.287L426.586 259.65H426.583Z" fill="#1E2B62"/>
<path d="M451.375 216.481C453.439 213.024 455.291 209.218 455.166 205.195C455.039 201.172 452.326 196.978 448.329 196.447C449.429 191.815 447.576 186.618 443.792 183.721C440.007 180.823 434.5 180.386 430.306 182.649C425.717 177.395 417.525 175.945 411.13 178.746C404.738 181.547 400.356 188.122 399.577 195.049C399.243 198.026 399.541 201.163 401.024 203.766C403.1 207.413 407.228 209.516 411.377 210.164C413.74 210.533 416.425 210.623 418.033 212.394C419.031 213.494 419.372 215.014 419.845 216.419C421.525 221.387 425.371 225.583 430.179 227.693C434.095 229.411 440.852 230.431 444.726 227.954C446.228 226.996 446.508 225.165 447.237 223.624C448.419 221.135 449.963 218.84 451.373 216.478L451.375 216.481Z" fill="#1E2B62"/>
<path d="M405.258 219.208C403.354 225.775 402.681 233.271 406.275 239.094C409.405 244.162 415.687 247.094 421.589 246.242C427.492 245.389 432.684 240.8 434.244 235.052C439.836 234.996 445.171 231.022 446.817 225.686C447.436 223.679 447.403 221.139 445.71 219.894C443.776 218.47 441.09 219.6 438.873 220.531C436.659 221.461 434.993 223.113 433.816 221.022C434.651 215.73 438.718 206.738 430.933 204.116C428.036 203.14 411.825 200.358 411.825 200.358C411.825 200.358 406.282 215.669 405.256 219.21L405.258 219.208Z" fill="#D08F79"/>
<path d="M419.547 246.902C414.115 246.902 408.693 243.991 405.833 239.364C402.691 234.275 402.329 227.444 404.76 219.062C405.779 215.545 411.112 200.805 411.338 200.18C411.423 199.945 411.665 199.804 411.914 199.846C412.578 199.959 428.198 202.645 431.1 203.622C437.895 205.911 436.233 212.833 435.021 217.888C434.76 218.973 434.513 220.002 434.36 220.916C434.948 221.837 435.581 221.614 437.229 220.754C437.685 220.515 438.158 220.268 438.676 220.052C440.985 219.081 443.851 217.878 446.021 219.476C447.977 220.916 447.972 223.705 447.316 225.837C445.633 231.293 440.342 235.327 434.642 235.56C432.91 241.317 427.629 245.892 421.667 246.754C420.966 246.855 420.258 246.904 419.552 246.904L419.547 246.902ZM405.755 219.351C403.411 227.442 403.734 233.99 406.716 238.821C409.735 243.711 415.819 246.552 421.514 245.727C427.208 244.905 432.237 240.459 433.743 234.914C433.804 234.69 434.007 234.533 434.237 234.531C439.646 234.477 444.727 230.691 446.318 225.529C446.845 223.821 446.92 221.426 445.4 220.305C443.703 219.058 441.246 220.089 439.079 221.001C438.596 221.203 438.144 221.44 437.706 221.668C436.214 222.448 434.522 223.332 433.362 221.269C433.305 221.168 433.284 221.05 433.303 220.935C433.461 219.936 433.729 218.823 434.011 217.643C435.254 212.46 436.664 206.585 430.768 204.6C428.203 203.735 414.75 201.385 412.166 200.937C411.279 203.394 406.673 216.186 405.755 219.347V219.351Z" fill="#1E2B62"/>
<path d="M436.448 228.461C436.328 228.461 436.205 228.419 436.109 228.334C435.892 228.146 435.869 227.82 436.057 227.604C437.474 225.975 439.688 225.078 441.842 225.263C442.127 225.289 442.338 225.538 442.313 225.825C442.289 226.109 442.035 226.318 441.75 226.295C439.926 226.135 438.041 226.896 436.838 228.28C436.735 228.398 436.591 228.459 436.445 228.459L436.448 228.461Z" fill="#1E2B62"/>
<path d="M411.566 218.212C410.949 221.323 408.318 223.426 405.687 222.907C403.055 222.387 401.42 219.443 402.036 216.332C402.653 213.221 405.284 211.118 407.915 211.637C410.547 212.157 412.182 215.101 411.566 218.212Z" fill="white"/>
<path d="M426.659 220.653C426.043 223.764 423.412 225.867 420.78 225.348C418.149 224.829 416.513 221.885 417.13 218.774C417.747 215.662 420.378 213.559 423.009 214.079C425.64 214.598 427.276 217.542 426.659 220.653Z" fill="white"/>
<path d="M406.483 223.503C406.184 223.503 405.883 223.475 405.582 223.414C404.156 223.132 402.951 222.221 402.186 220.844C401.437 219.495 401.202 217.857 401.522 216.233C401.845 214.61 402.685 213.183 403.89 212.22C405.123 211.236 406.585 210.85 408.011 211.13C409.437 211.412 410.642 212.323 411.407 213.7C412.155 215.049 412.391 216.687 412.071 218.311C411.47 221.346 409.068 223.501 406.481 223.501L406.483 223.503ZM407.107 212.077C406.215 212.077 405.323 212.403 404.542 213.028C403.527 213.839 402.817 215.049 402.544 216.433C402.271 217.819 402.466 219.206 403.097 220.341C403.711 221.447 404.666 222.178 405.787 222.399C408.136 222.862 410.498 220.938 411.059 218.111C411.332 216.727 411.136 215.338 410.505 214.203C409.891 213.097 408.936 212.366 407.815 212.145C407.58 212.098 407.345 212.077 407.109 212.077H407.107Z" fill="#1E2B62"/>
<path d="M421.412 226.434C421.064 226.434 420.713 226.401 420.36 226.331C417.211 225.71 415.194 222.449 415.862 219.063C416.533 215.677 419.64 213.426 422.789 214.046C425.938 214.667 427.955 217.928 427.286 221.314C426.691 224.322 424.175 226.434 421.412 226.434ZM421.737 214.977C419.461 214.977 417.378 216.746 416.881 219.26C416.321 222.087 417.973 224.801 420.562 225.313C423.153 225.823 425.712 223.939 426.272 221.112C426.832 218.285 425.18 215.571 422.591 215.059C422.306 215.003 422.021 214.974 421.739 214.974L421.737 214.977Z" fill="#1E2B62"/>
<path d="M416.374 219.678C416.198 219.678 416.026 219.589 415.929 219.427C415.346 218.459 414.682 217.921 413.957 217.827C412.879 217.688 411.935 218.572 411.928 218.581C411.724 218.781 411.394 218.776 411.194 218.572C410.994 218.367 410.999 218.038 411.203 217.839C411.255 217.787 412.505 216.596 414.089 216.8C415.143 216.936 416.061 217.639 416.819 218.891C416.967 219.136 416.887 219.455 416.642 219.603C416.558 219.653 416.466 219.678 416.374 219.678Z" fill="#1E2B62"/>
<path d="M426.776 221.732C426.515 221.732 426.291 221.535 426.261 221.269C426.23 220.985 426.435 220.729 426.72 220.698L436.379 219.652C436.661 219.622 436.92 219.826 436.95 220.111C436.981 220.395 436.776 220.651 436.492 220.682L426.833 221.727C426.814 221.727 426.795 221.73 426.776 221.73V221.732Z" fill="#1E2B62"/>
<path d="M540.918 226.123C542.269 233.459 543.394 240.816 544.954 248.114C546.637 255.97 545.413 269.636 546.971 277.514C547.717 281.295 551.843 279.157 552.662 282.921C553.022 284.575 553.455 286.227 553.831 287.888C553.759 292.489 554.333 297.186 556.484 301.242C558.83 305.664 563.198 308.317 567.755 310.06C572.782 311.985 578.19 312.915 583.54 313.331C586.063 313.526 588.574 313.517 591.101 313.517C594.884 313.517 598.663 313.651 602.445 313.669C609.955 313.707 617.51 313.167 624.606 310.523C629.708 308.622 634.465 305.692 638.195 301.705C641.824 297.828 644.272 292.935 645.018 287.67C645.912 281.358 644.279 274.88 642.252 268.935C637.689 255.542 629.412 243.579 620.381 232.808C612.121 222.956 606.239 211.654 596.493 203.162C585.721 193.779 577.183 190.313 567.792 190.325C557.317 190.339 551.711 194.689 547.162 197.109C545.107 198.202 543.224 199.663 541.855 201.562C540.301 203.719 539.532 206.31 539.219 208.923C538.531 214.68 539.88 220.486 540.918 226.119V226.123Z" fill="#1E2B62"/>
<path d="M579.476 238.709L590.966 277.324C590.966 277.324 569.104 304.297 552.601 303.256C536.099 302.215 539.149 283.563 551.436 277.757L560.248 276.399L556.659 246.27L579.474 238.709H579.476Z" fill="#FFE9DD"/>
<path d="M560.249 276.915C559.99 276.915 559.766 276.722 559.733 276.459L556.144 246.331C556.116 246.086 556.262 245.856 556.495 245.779L579.31 238.217C579.441 238.173 579.585 238.184 579.71 238.248C579.834 238.311 579.926 238.422 579.969 238.553L590.077 270.841C590.162 271.113 590.011 271.405 589.736 271.489C589.463 271.574 589.171 271.424 589.086 271.149L579.135 239.364L557.222 246.627L560.759 276.335C560.792 276.619 560.59 276.875 560.305 276.91C560.284 276.913 560.263 276.915 560.244 276.915H560.249Z" fill="#1E2B62"/>
<path d="M553.056 278.024C552.804 278.024 552.583 277.841 552.545 277.585C552.501 277.303 552.696 277.038 552.979 276.995L559.526 275.985C559.808 275.94 560.074 276.135 560.117 276.417C560.161 276.699 559.966 276.965 559.684 277.007L553.136 278.017C553.11 278.022 553.082 278.024 553.056 278.024Z" fill="#1E2B62"/>
<path d="M545.104 226.373C544.278 230.898 544.263 235.661 545.798 239.999C547.335 244.337 550.564 248.197 554.868 249.835C558.601 251.254 562.87 250.906 566.556 249.365C570.239 247.824 573.374 245.161 575.932 242.1C579.87 243.491 584.664 241.858 586.925 238.352C588.231 236.329 588.688 233.641 587.617 231.484C586.546 229.326 583.734 228.041 581.557 229.073C580.317 229.66 579.434 230.856 578.17 231.392C576.76 231.989 575.078 231.639 573.805 230.788C572.534 229.937 571.618 228.647 570.889 227.303C568.589 223.072 567.9 217.994 568.987 213.304C568.883 213.748 566.528 214.417 566.106 214.561C565.05 214.92 563.962 215.183 562.858 215.357C560.684 215.698 558.453 215.677 556.283 215.303C555.181 215.113 554.096 214.833 553.044 214.462C552.209 214.166 551.124 213.379 550.232 213.372C548.37 213.353 547.82 216.744 547.372 218.052C546.443 220.776 545.619 223.541 545.101 226.373H545.104Z" fill="#FFE9DD"/>
<path d="M559.924 251.247C558.093 251.247 556.313 250.939 554.685 250.321C550.5 248.731 546.996 244.936 545.308 240.173C543.885 236.155 543.642 231.481 544.591 226.281C545.042 223.805 545.77 221.138 546.881 217.886C546.956 217.665 547.034 217.383 547.121 217.068C547.589 215.388 548.295 212.853 550.213 212.853C550.22 212.853 550.227 212.853 550.234 212.853C550.933 212.86 551.672 213.233 552.324 213.562C552.647 213.727 552.953 213.879 553.214 213.973C554.228 214.331 555.29 214.605 556.367 214.791C558.495 215.158 560.651 215.174 562.774 214.843C563.854 214.674 564.918 214.413 565.934 214.067C565.996 214.046 566.097 214.016 566.226 213.973C567.827 213.473 568.359 213.212 568.512 213.081C568.613 212.864 568.855 212.74 569.098 212.794C569.378 212.857 569.549 213.137 569.486 213.414C568.432 217.97 569.107 222.94 571.338 227.052C572.188 228.617 573.061 229.667 574.087 230.353C575.327 231.183 576.812 231.397 577.961 230.91C578.547 230.661 579.058 230.243 579.597 229.799C580.126 229.362 580.672 228.911 581.329 228.6C583.67 227.491 586.824 228.73 588.076 231.249C589.161 233.431 588.883 236.258 587.356 238.627C585.047 242.203 580.166 243.947 576.097 242.696C573.256 246.028 570.114 248.432 566.751 249.84C564.522 250.772 562.181 251.242 559.917 251.242L559.924 251.247ZM545.612 226.465C544.697 231.484 544.922 235.979 546.287 239.825C547.874 244.306 551.152 247.866 555.054 249.351C558.448 250.643 562.569 250.472 566.356 248.888C569.653 247.506 572.743 245.112 575.534 241.768C575.673 241.601 575.904 241.54 576.106 241.611C579.804 242.917 584.365 241.362 586.49 238.07C587.801 236.037 588.062 233.542 587.154 231.714C586.16 229.714 583.6 228.68 581.778 229.54C581.239 229.796 580.764 230.187 580.263 230.6C579.691 231.072 579.098 231.561 578.373 231.867C576.906 232.487 575.045 232.238 573.517 231.216C572.348 230.433 571.366 229.268 570.434 227.548C568.276 223.572 567.5 218.835 568.246 214.373C567.82 214.547 567.264 214.737 566.544 214.963C566.426 215 566.332 215.028 566.276 215.047C565.203 215.411 564.082 215.686 562.941 215.865C560.705 216.215 558.439 216.196 556.198 215.811C555.061 215.616 553.943 215.325 552.875 214.949C552.55 214.833 552.216 214.664 551.861 214.486C551.31 214.206 550.686 213.891 550.23 213.886C549.086 213.868 548.486 216.046 548.126 217.343C548.031 217.679 547.947 217.98 547.867 218.217C546.772 221.417 546.057 224.04 545.614 226.465H545.612Z" fill="#1E2B62"/>
<path d="M582.568 234.761C580.372 234.653 578.174 235.976 577.242 237.964L582.568 234.761Z" fill="white"/>
<path d="M577.244 238.483C577.171 238.483 577.096 238.466 577.025 238.434C576.767 238.311 576.654 238.004 576.776 237.745C577.797 235.567 580.191 234.127 582.596 234.244C582.883 234.258 583.102 234.5 583.088 234.787C583.074 235.073 582.827 235.29 582.544 235.278C580.549 235.182 578.562 236.375 577.715 238.184C577.628 238.372 577.44 238.483 577.244 238.483Z" fill="#1E2B62"/>
<path d="M607.106 393.88L607.965 409.409L553.844 380.613L556.849 380.08C556.849 380.08 590.161 389.928 607.106 393.88Z" fill="white"/>
<path d="M608.019 410.939C607.932 410.939 607.847 410.918 607.767 410.876L552.721 380.536C552.469 380.398 552.38 380.083 552.518 379.834C552.657 379.582 552.973 379.493 553.222 379.632L607.447 409.52L606.583 393.913C606.567 393.627 606.785 393.385 607.073 393.368C607.367 393.356 607.604 393.57 607.619 393.857L608.534 410.399C608.543 410.587 608.452 410.766 608.292 410.867C608.207 410.918 608.113 410.946 608.016 410.946L608.019 410.939Z" fill="#1E2B62"/>
<path d="M628.676 277.409C620.434 270.82 607.269 269.803 589.589 270.996C588.521 272.474 564.875 282.623 564.875 282.623C564.875 282.623 561.044 277.134 559.688 275.818C556.833 276.276 547.116 276.64 544.256 277.103C529.613 279.479 512.074 287.031 499.831 308.155C463.468 370.9 476.169 385.968 491.182 390.482C508.309 395.633 520.408 380.172 520.408 380.172L552.364 379.906C613.444 411.705 626.69 380.963 632.1 360.963C638.05 338.967 648.86 293.54 628.676 277.409Z" fill="white"/>
<path d="M597.067 394.43C584.78 394.43 569.468 389.696 551.313 380.257L520.988 380.574C519.456 382.364 507.241 395.854 491.03 390.978C484.808 389.106 480.595 385.91 478.152 381.204C478.02 380.95 478.119 380.637 478.373 380.506C478.63 380.374 478.941 380.473 479.072 380.727C481.379 385.17 485.389 388.199 491.329 389.985C507.929 394.975 520.216 379.885 520.339 379.733C520.435 379.61 520.583 379.54 520.739 379.538L551.431 379.216C551.511 379.216 551.6 379.235 551.675 379.274C577.82 392.886 597.938 396.684 611.471 390.558C624.443 384.686 629.167 370.783 631.591 360.839L631.8 359.981C637.063 338.413 648.016 293.531 628.348 277.811C621.16 272.066 609.628 270.177 589.802 271.497C587.43 273.45 568.896 281.455 565.076 283.095C564.85 283.192 564.587 283.117 564.446 282.917C564.41 282.865 560.939 277.898 559.501 276.368C557.969 276.584 555.086 276.772 552.045 276.972C548.948 277.174 545.747 277.386 544.335 277.614C540.414 278.25 536.608 279.211 533.026 280.473C532.756 280.569 532.461 280.426 532.365 280.158C532.268 279.888 532.412 279.592 532.68 279.498C536.321 278.215 540.186 277.238 544.165 276.591C545.627 276.354 548.854 276.143 551.974 275.938C555.036 275.738 558.202 275.529 559.6 275.306C559.76 275.28 559.927 275.332 560.044 275.447C561.235 276.603 564.177 280.741 565.05 281.982C574.085 278.095 588.303 271.735 589.164 270.689C589.256 270.578 589.404 270.489 589.548 270.48C610.035 269.098 621.466 270.987 628.995 277.005C637.731 283.986 641.612 297.224 640.529 316.349C639.628 332.275 635.524 349.097 632.808 360.23L632.598 361.088C630.122 371.243 625.281 385.447 611.897 391.507C607.587 393.457 602.636 394.433 597.063 394.433L597.067 394.43Z" fill="#1E2B62"/>
<path d="M484.473 338.647C484.405 338.647 484.336 338.633 484.268 338.605C484.005 338.492 483.882 338.189 483.995 337.926C486.219 332.735 488.93 327.089 492.051 321.142C492.183 320.888 492.496 320.791 492.75 320.923C493.004 321.055 493.101 321.369 492.969 321.621C489.86 327.542 487.161 333.165 484.948 338.33C484.864 338.527 484.673 338.645 484.471 338.645L484.473 338.647Z" fill="#1E2B62"/>
<path d="M553.902 335.891C553.867 335.891 553.829 335.887 553.794 335.88C553.514 335.821 553.335 335.546 553.394 335.266L563.888 286.138C563.947 285.859 564.225 285.68 564.503 285.739C564.783 285.797 564.961 286.072 564.903 286.352L554.408 335.48C554.357 335.724 554.14 335.889 553.902 335.889V335.891Z" fill="#1E2B62"/>
<path d="M573.182 301.662C573.163 301.662 573.146 301.662 573.128 301.66C572.956 301.641 572.803 301.54 572.723 301.387L564.368 285.578L548.651 297.543C548.493 297.663 548.284 297.682 548.107 297.595C547.931 297.508 547.818 297.327 547.818 297.132L547.797 280.771C547.797 280.484 548.028 280.254 548.315 280.252C548.602 280.252 548.832 280.482 548.832 280.769L548.851 296.086L564.222 284.385C564.342 284.293 564.5 284.258 564.648 284.291C564.796 284.324 564.923 284.42 564.994 284.554L573.273 300.22L595.21 273.799C595.394 273.578 595.721 273.548 595.94 273.731C596.161 273.914 596.192 274.241 596.008 274.46L573.577 301.477C573.478 301.596 573.332 301.665 573.177 301.665L573.182 301.662Z" fill="#1E2B62"/>
<path d="M556.351 274.617C556.351 274.617 557.834 268.679 552.746 270.364C552.746 270.364 552.299 263.421 547.145 267.406L555.071 257.727C555.878 256.675 556.281 254.696 555.177 253.434C553.852 251.919 551.233 252.612 550.136 253.721C542.395 261.569 514.527 292.259 493.758 336.751C504.897 341.97 517.599 345.382 531.816 347.036C531.816 347.036 558.531 281.326 559.477 277.733C560.684 273.144 556.351 274.62 556.351 274.62V274.617Z" fill="#FFE9DD"/>
<path d="M531.812 347.55C531.793 347.55 531.772 347.55 531.751 347.545C517.472 345.882 504.615 342.407 493.532 337.216C493.273 337.094 493.163 336.788 493.283 336.528C515.137 289.716 544.165 259.031 549.762 253.354C550.574 252.529 551.956 252.005 553.198 252.041C554.17 252.069 554.987 252.433 555.563 253.091C556.799 254.506 556.491 256.717 555.476 258.04L549.16 265.751C549.826 265.587 550.433 265.627 550.981 265.874C552.497 266.557 553.012 268.637 553.179 269.697C554.46 269.386 555.453 269.549 556.135 270.181C557.166 271.135 557.124 272.897 556.992 273.931C557.729 273.813 558.792 273.802 559.515 274.471C560.235 275.141 560.388 276.281 559.972 277.862C559.028 281.445 533.382 344.545 532.292 347.228C532.212 347.426 532.021 347.552 531.812 347.552V347.55ZM494.443 336.497C505.215 341.474 517.67 344.829 531.48 346.472C533.629 341.182 558.079 280.98 558.969 277.596C559.183 276.783 559.329 275.712 558.811 275.228C558.232 274.687 556.954 274.955 556.512 275.106C556.333 275.167 556.133 275.124 555.994 274.995C555.855 274.866 555.796 274.673 555.841 274.49C556.02 273.771 556.293 271.731 555.432 270.937C554.944 270.486 554.092 270.458 552.902 270.853C552.751 270.902 552.582 270.881 552.45 270.792C552.316 270.702 552.233 270.557 552.221 270.397C552.167 269.586 551.763 267.361 550.555 266.818C549.795 266.477 548.752 266.811 547.456 267.814C547.246 267.977 546.95 267.955 546.766 267.765C546.582 267.577 546.568 267.281 546.735 267.077L554.662 257.398C555.3 256.566 555.705 254.83 554.78 253.772C554.3 253.223 553.636 253.091 553.165 253.077C552.09 253.044 551.016 253.559 550.499 254.083C544.942 259.72 516.196 290.106 494.441 336.497H494.443Z" fill="#1E2B62"/>
<path d="M565.83 339.226L537.244 333.643L531.812 347.034L525.867 367.472L558.48 383.118C558.48 383.118 567.877 356.663 565.83 339.226Z" fill="#FFE9DD"/>
<path d="M558.481 383.635C558.404 383.635 558.328 383.619 558.258 383.583L525.645 367.937C525.417 367.826 525.302 367.568 525.372 367.326L531.317 346.888C531.322 346.871 531.329 346.855 531.334 346.838L536.765 333.447C536.857 333.217 537.1 333.086 537.344 333.133L565.93 338.715C566.151 338.758 566.318 338.939 566.347 339.164C568.385 356.522 559.065 383.024 558.971 383.29C558.921 383.428 558.815 383.539 558.679 383.595C558.615 383.621 558.547 383.635 558.481 383.635ZM526.488 367.194L558.18 382.399C559.484 378.562 567.043 355.401 565.358 339.66L537.566 334.23L532.303 347.203L526.488 367.194Z" fill="#1E2B62"/>
<path d="M485.198 353.639C485.137 353.639 485.076 353.627 485.015 353.606C484.746 353.505 484.612 353.207 484.713 352.939C486.836 347.328 489.543 341.914 492.762 336.848C492.915 336.606 493.235 336.535 493.478 336.688C493.72 336.841 493.791 337.16 493.638 337.402C490.456 342.407 487.78 347.758 485.683 353.305C485.605 353.512 485.408 353.641 485.198 353.641V353.639Z" fill="#1E2B62"/>
<path d="M598.507 347.795C598.448 347.795 598.387 347.785 598.328 347.762C588.274 344.087 577.805 341.422 567.215 339.838C566.932 339.796 566.737 339.533 566.779 339.249C566.822 338.967 567.083 338.769 567.368 338.814C578.027 340.407 588.563 343.09 598.683 346.789C598.952 346.888 599.09 347.184 598.992 347.454C598.914 347.663 598.716 347.795 598.504 347.795H598.507Z" fill="#1E2B62"/>
<path d="M593.184 345.584C593.132 345.584 593.081 345.577 593.027 345.56C592.754 345.473 592.603 345.182 592.688 344.91C595.914 334.73 598.242 324.199 599.609 313.611C599.645 313.327 599.908 313.127 600.191 313.165C600.475 313.202 600.675 313.461 600.638 313.745C599.263 324.396 596.922 334.987 593.676 345.224C593.605 345.445 593.401 345.586 593.182 345.586L593.184 345.584Z" fill="#1E2B62"/>
<path d="M519.496 381.97C519.376 381.97 519.256 381.927 519.157 381.845C518.94 381.659 518.915 381.333 519.103 381.114C522.28 377.428 523.596 373.753 524.914 368.261C524.98 367.984 525.262 367.813 525.54 367.878C525.817 367.944 525.989 368.224 525.923 368.503C524.822 373.095 523.532 377.564 519.891 381.791C519.788 381.911 519.644 381.972 519.498 381.972L519.496 381.97Z" fill="#1E2B62"/>
<path d="M511.933 397.593L478.775 422.73C478.775 422.73 470.716 414.351 418.836 420.143L461.665 396.115C461.665 396.115 500.879 390.201 511.933 397.593Z" fill="white"/>
<path d="M478.771 423.247C478.634 423.247 478.498 423.193 478.396 423.087C478.319 423.009 469.594 414.994 418.888 420.655C418.639 420.683 418.413 420.533 418.338 420.3C418.262 420.065 418.361 419.811 418.578 419.689L461.407 395.661C461.461 395.63 461.522 395.609 461.583 395.6C463.193 395.358 501.124 389.742 512.216 397.16C512.355 397.254 512.442 397.407 512.447 397.576C512.452 397.743 512.376 397.902 512.242 398.004L479.084 423.141C478.99 423.211 478.879 423.247 478.771 423.247ZM450.813 417.577C471.117 417.577 477.34 421 478.785 422.067L511.014 397.635C499.74 391.194 463.927 396.305 461.83 396.61L421.296 419.351C433.473 418.063 443.148 417.574 450.813 417.574V417.577Z" fill="#1E2B62"/>
<path d="M478.791 422.714C478.791 422.714 496.224 413.857 550.105 424.946L564.245 402.381C564.245 402.381 531.966 388.718 511.933 397.59L478.789 422.711L478.791 422.714Z" fill="white"/>
<path d="M550.101 425.465C550.066 425.465 550.03 425.463 549.995 425.454C496.905 414.527 479.192 423.087 479.021 423.174C478.78 423.294 478.489 423.214 478.345 422.989C478.202 422.761 478.258 422.462 478.47 422.3L511.614 397.179C511.647 397.156 511.68 397.135 511.718 397.118C531.725 388.257 564.116 401.768 564.441 401.907C564.58 401.966 564.688 402.083 564.733 402.229C564.777 402.372 564.759 402.53 564.678 402.659L550.539 425.221C550.442 425.374 550.275 425.463 550.099 425.463L550.101 425.465ZM502.852 418.811C513.841 418.811 529.127 420.122 549.851 424.368L563.473 402.633C559.096 400.89 530.355 390.048 512.195 398.044L481.772 421.102C485.309 420.099 491.974 418.811 502.852 418.811Z" fill="#1E2B62"/>
<path d="M550.107 425.465C550.107 425.465 550.098 425.465 550.091 425.465L478.778 423.364L418.815 420.66C418.528 420.648 418.307 420.403 418.321 420.119C418.335 419.832 418.587 419.612 418.862 419.626L478.815 422.33L550.122 424.431C550.409 424.44 550.632 424.678 550.625 424.964C550.616 425.244 550.387 425.467 550.107 425.467V425.465Z" fill="#1E2B62"/>
</g>
<defs>
<clipPath id="clip0_3214_25435">
<rect width="646" height="430" fill="white"/>
</clipPath>
</defs>
</svg>
