<svg width="442" height="442" viewBox="0 0 442 442" fill="none" xmlns="http://www.w3.org/2000/svg">
<g clip-path="url(#clip0_3073_38701)">
<path d="M440.158 194.623C438.288 211.694 434.948 230 429.924 249.59C424.757 269.782 417.805 291.334 408.858 314.291C395.785 347.842 365.995 381.871 327.441 406.341C319.337 411.488 310.844 416.215 302.034 420.412C226.361 456.567 127.54 454.623 52.466 355.359C50.6448 352.951 48.879 350.543 47.164 348.122C44.7412 344.707 42.4175 341.287 40.2025 337.855C18.5788 304.451 6.58099 270.524 2.08813 239.014C-6.63428 177.936 12.8033 125.939 44.8451 104.399C50.7486 100.424 57.0748 97.494 63.7392 95.726C207.416 57.5884 177.836 -5.48476 310.252 0.38201C379.582 3.45186 454.782 61.2959 440.158 194.623Z" fill="#98E0FF"/>
<path d="M264.393 159.072L256.574 238.859L250.992 238.625L253.765 154.746L264.393 159.072Z" fill="#00A5F3"/>
<path d="M159.5 156.2L167.131 239.057L172.901 238.625L170.128 151.72L159.5 156.2Z" fill="#00A5F3"/>
<path d="M132.93 136.704L135.174 223.708L139.679 222.737L143.812 132.566L132.93 136.704Z" fill="#00A5F3"/>
<path d="M220.961 134.758L223.207 221.764L227.889 221.788L231.845 130.62L220.961 134.758Z" fill="#00A5F3"/>
<path d="M198.343 66.8072V87.0522C198.343 106.85 214.015 122.903 233.349 122.903C252.683 122.903 268.355 138.952 268.355 158.753C268.355 160.516 266.922 161.948 265.154 161.948H172.493C143.511 161.948 120.016 137.887 120.016 108.205V65.0102C120.016 53.2042 129.361 43.6348 140.888 43.6348H175.712C188.21 43.6348 198.343 54.0109 198.343 66.812V66.8072Z" fill="#1E2B62"/>
<path d="M254.484 209.332L266.323 221.196L272.596 218.896L261.685 203.719L254.484 209.332Z" fill="white"/>
<path d="M266.317 221.996C266.109 221.996 265.904 221.913 265.752 221.761L253.913 209.897C253.751 209.736 253.667 209.511 253.681 209.284C253.696 209.054 253.807 208.844 253.988 208.704L261.189 203.091C261.36 202.958 261.582 202.9 261.793 202.929C262.008 202.961 262.201 203.077 262.329 203.253L273.242 218.431C273.389 218.633 273.431 218.894 273.358 219.131C273.286 219.368 273.104 219.561 272.868 219.648L266.592 221.947C266.503 221.981 266.409 221.996 266.317 221.996ZM255.684 209.407L266.522 220.269L271.329 218.508L261.517 204.859L255.684 209.405V209.407Z" fill="#1E2B62"/>
<path d="M262.582 219.339C262.582 219.339 262.009 224.387 262.98 228.846C263.497 231.222 265.645 232.894 268.082 232.894H297.133C299.21 232.894 300.15 230.309 298.558 228.978C293.392 224.662 283.889 218.068 272.207 216.134L268.949 220.684L262.579 219.339H262.582Z" fill="#1E2B62"/>
<path d="M295.753 229.71H265.643C265.201 229.71 264.844 229.353 264.844 228.911C264.844 228.469 265.201 228.111 265.643 228.111H295.753C296.195 228.111 296.552 228.469 296.552 228.911C296.552 229.353 296.195 229.71 295.753 229.71Z" fill="white"/>
<path d="M278.955 224.374C278.854 224.374 278.75 224.355 278.651 224.314C278.243 224.145 278.049 223.679 278.216 223.271L279.81 219.413C279.979 219.005 280.446 218.812 280.856 218.981C281.264 219.15 281.458 219.616 281.291 220.025L279.697 223.882C279.569 224.191 279.272 224.377 278.958 224.377L278.955 224.374Z" fill="white"/>
<path d="M284.19 225.389C284.108 225.389 284.021 225.377 283.939 225.348C283.519 225.208 283.292 224.756 283.432 224.338L284.584 220.86C284.724 220.44 285.176 220.213 285.594 220.353C286.012 220.493 286.241 220.945 286.101 221.363L284.949 224.841C284.838 225.176 284.526 225.389 284.19 225.389Z" fill="white"/>
<path d="M219.695 212.385C220.589 211.484 225.749 195.473 225.749 195.473L235.944 202.731L224.765 217.715L219.695 212.385Z" fill="white"/>
<path d="M224.76 218.515C224.543 218.515 224.332 218.426 224.18 218.266L219.11 212.936C218.82 212.629 218.818 212.151 219.1 211.844C219.716 210.994 222.586 202.661 224.982 195.227C225.06 194.985 225.25 194.795 225.492 194.712C225.734 194.633 225.999 194.671 226.207 194.821L236.403 202.079C236.577 202.205 236.695 202.393 236.729 202.606C236.763 202.818 236.71 203.036 236.579 203.207L225.4 218.192C225.26 218.38 225.043 218.498 224.808 218.513C224.791 218.513 224.777 218.513 224.76 218.513V218.515ZM220.671 212.257L224.685 216.477L234.809 202.905L226.168 196.756C224.661 201.403 221.905 209.724 220.671 212.255V212.257ZM219.122 211.822C219.122 211.822 219.115 211.83 219.11 211.834C219.115 211.83 219.117 211.825 219.122 211.822Z" fill="#1E2B62"/>
<path d="M238.066 232.63L231.286 232.589C226.8 232.562 222.626 230.29 220.182 226.539L213.476 215.95C211.624 213.023 212.66 209.146 215.723 207.523C218.52 206.04 221.453 204.593 222.141 204.658C223.537 204.791 224.1 211.373 224.1 211.373L230.141 211.605C230.141 211.605 233.127 223.983 235.752 225.391C237.665 226.415 239.001 227.923 239.9 229.297C240.842 230.736 239.791 232.64 238.069 232.63H238.066Z" fill="#1E2B62"/>
<path d="M237.389 230.79C237.351 230.79 237.309 230.788 237.268 230.78L227.993 229.387C225.667 229.037 223.643 227.684 222.435 225.67L214.239 212.011C214.012 211.632 214.135 211.142 214.512 210.915C214.891 210.688 215.381 210.811 215.609 211.19L223.804 224.848C224.766 226.45 226.379 227.529 228.23 227.807L237.505 229.201C237.942 229.266 238.242 229.674 238.177 230.111C238.116 230.508 237.776 230.793 237.387 230.793L237.389 230.79Z" fill="white"/>
<path d="M225.939 220.52C225.587 220.52 225.266 220.286 225.169 219.931C225.053 219.506 225.304 219.066 225.732 218.95L230.898 217.547C231.326 217.431 231.763 217.682 231.879 218.11C231.995 218.535 231.744 218.974 231.316 219.09L226.15 220.493C226.08 220.513 226.009 220.522 225.939 220.522V220.52Z" fill="white"/>
<path d="M228.626 223.167C228.266 223.167 227.94 222.923 227.851 222.556C227.747 222.126 228.01 221.694 228.438 221.59L231.902 220.744C232.332 220.64 232.764 220.904 232.868 221.331C232.972 221.761 232.708 222.194 232.281 222.297L228.817 223.143C228.754 223.157 228.689 223.164 228.626 223.164V223.167Z" fill="white"/>
<path d="M191.821 121.744C191.821 121.744 245.921 115.128 262.009 129.758C278.096 144.385 236.614 207.289 236.614 207.289L223.496 197.07L235.94 152.609L185.93 137.69L191.821 121.744Z" fill="#1E2B62"/>
<path d="M162.044 150.696C169.902 153.316 183.965 156.703 203.618 156.42C209.202 156.34 214.357 159.582 216.893 164.806C222.715 176.798 235.314 198.388 255.836 212.383L265.639 206.835L240.621 147.679C238.336 142.278 234.065 138.081 228.783 136.045L179.199 116.947C179.199 116.947 163.825 112.433 156.288 126.849C154.943 129.424 152.443 124.821 151.846 126.898C149.805 134.021 155.293 148.442 162.042 150.691L162.044 150.696Z" fill="#1E2B62"/>
<path d="M238.732 198.949C238.522 198.949 238.314 198.867 238.157 198.705C235.877 196.34 233.63 193.797 231.483 191.147C231.205 190.804 231.258 190.302 231.599 190.022C231.942 189.744 232.444 189.797 232.725 190.14C234.843 192.753 237.058 195.261 239.307 197.594C239.614 197.913 239.604 198.417 239.285 198.724C239.13 198.874 238.93 198.949 238.729 198.949H238.732Z" fill="white"/>
<path d="M232.106 191.444C231.874 191.444 231.642 191.343 231.485 191.147C230.432 189.847 229.381 188.497 228.361 187.135C228.098 186.78 228.171 186.28 228.523 186.017C228.878 185.753 229.378 185.826 229.642 186.179C230.647 187.526 231.685 188.86 232.724 190.14C233.002 190.483 232.949 190.987 232.606 191.265C232.458 191.386 232.279 191.444 232.103 191.444H232.106Z" fill="white"/>
<path d="M206.246 74.3094C206.246 74.3094 210.046 119.881 241.998 122.702L206.246 120.751C206.246 120.751 192.654 93.2743 192.101 82.5769C191.55 71.8796 206.246 74.3094 206.246 74.3094Z" fill="white"/>
<path d="M241.994 123.502C241.98 123.502 241.965 123.502 241.951 123.502L206.199 121.55C205.911 121.533 205.653 121.364 205.525 121.106C204.967 119.978 191.853 93.3587 191.297 82.6179C191.152 79.7968 191.983 77.5554 193.771 75.9589C197.993 72.1862 206.03 73.4639 206.37 73.5219C206.733 73.5822 207.005 73.8793 207.037 74.244C207.047 74.3576 208.039 85.6781 212.885 97.1749C219.322 112.444 229.139 120.768 242.062 121.908C242.497 121.946 242.82 122.325 242.789 122.76C242.76 123.18 242.407 123.502 241.992 123.502H241.994ZM206.754 119.978L233.001 121.41C223.817 117.777 216.445 109.749 211.399 97.7594C207.131 87.6175 205.8 77.6134 205.51 75.0218C203.641 74.814 197.88 74.4324 194.836 77.1545C193.43 78.4128 192.778 80.2219 192.896 82.5358C193.396 92.238 205.056 116.49 206.754 119.978Z" fill="#1E2B62"/>
<path d="M138.995 84.4803C138.995 84.4803 137.495 67.0201 138.995 60.3297C142.149 46.2582 162.959 46.2582 162.959 46.2582C162.959 46.2582 172.331 45.5432 192.088 46.2582C193.465 46.3089 194.907 46.775 196.305 47.5359V47.5069C204.991 53.2167 210.448 79.1377 210.448 79.1377L200.958 84.56C201.291 92.8397 203.366 101.931 209.066 110.097C211.069 112.964 219.026 119.686 222.76 122.7C220.661 124.393 212.912 125.255 208.535 126.552C201.264 128.707 195.742 126.543 189.885 126.717C174.387 127.178 167.71 145.281 157.701 143.119C155.029 142.542 153.918 139.542 150.597 132.567C148.715 126.782 146.72 117.623 145.787 109.947C144.621 100.356 144.874 91.5088 145.845 83.6881L138.995 84.4803Z" fill="white"/>
<path d="M159.346 144.097C158.752 144.097 158.148 144.034 157.53 143.901C154.769 143.305 153.556 140.73 150.902 135.093C150.583 134.414 150.24 133.687 149.87 132.912C149.856 132.88 149.844 132.849 149.832 132.815C147.851 126.728 145.904 117.577 144.991 110.044C143.972 101.662 143.952 93.1098 144.928 84.6007L139.083 85.277C138.87 85.3036 138.653 85.2384 138.486 85.1031C138.319 84.9654 138.213 84.7674 138.196 84.5524C138.133 83.8351 136.703 66.8917 138.213 60.1579C141.44 45.7651 161.694 45.4656 162.929 45.4632C163.542 45.4197 173.098 44.7772 192.118 45.4632C193.514 45.5139 194.99 45.9438 196.507 46.7409C196.589 46.7602 196.669 46.794 196.741 46.8423C205.601 52.6656 211.005 77.9055 211.229 78.9779C211.302 79.3185 211.145 79.6638 210.843 79.8377L201.777 85.0186C202.236 94.4648 204.908 102.749 209.722 109.645C211.635 112.386 219.415 118.98 223.261 122.084C223.449 122.236 223.558 122.465 223.558 122.707C223.558 122.948 223.449 123.178 223.261 123.33C221.768 124.533 218.157 125.27 214.333 126.047C212.355 126.451 210.309 126.866 208.758 127.325C203.843 128.781 199.765 128.332 195.823 127.897C193.792 127.673 191.871 127.463 189.905 127.521C182.089 127.752 176.511 132.721 171.591 137.102C167.564 140.689 163.733 144.099 159.344 144.102L159.346 144.097ZM151.339 132.269C151.701 133.03 152.037 133.742 152.351 134.409C154.774 139.558 155.88 141.906 157.868 142.336C162.243 143.28 166.083 139.86 170.528 135.902C175.651 131.339 181.458 126.166 189.859 125.917C191.937 125.854 193.91 126.071 195.999 126.303C199.785 126.721 203.7 127.151 208.306 125.786C209.922 125.308 212.002 124.883 214.014 124.475C216.71 123.927 219.7 123.316 221.355 122.591C218.616 120.345 210.536 113.606 208.408 110.558C203.333 103.288 200.555 94.5542 200.154 84.5959C200.142 84.2988 200.297 84.0186 200.558 83.8689L209.536 78.7388C208.683 74.9613 203.548 53.4892 196.021 48.2867C195.987 48.2746 195.954 48.2601 195.92 48.2408C194.557 47.5017 193.258 47.1032 192.057 47.0597C172.588 46.3569 163.11 47.05 163.018 47.0597C162.999 47.0597 162.977 47.0597 162.958 47.0597C162.755 47.0597 142.752 47.2264 139.774 60.5057C138.501 66.1816 139.455 80.0696 139.725 83.5911L145.752 82.8931C145.996 82.8641 146.24 82.9511 146.411 83.125C146.585 83.2989 146.667 83.5428 146.638 83.7868C145.556 92.4988 145.537 101.269 146.58 109.85C147.467 117.154 149.424 126.364 151.339 132.269Z" fill="#1E2B62"/>
<path d="M155.865 80.9658C161.138 100.114 175.03 111.123 197.752 117.555L196.03 122.7C164.452 121.594 146.418 110.638 139.797 84.3956L155.862 80.9658H155.865Z" fill="white"/>
<path d="M196.599 123.521L196.003 123.499C163.094 122.345 145.519 110.346 139.023 84.5913L138.82 83.787L156.437 80.0264L156.637 80.7534C161.664 99.0034 174.41 110.116 197.971 116.787L198.778 117.017L196.602 123.524L196.599 123.521ZM140.779 85.0043C147.197 109.247 164.111 120.647 195.462 121.881L196.727 118.096C173.703 111.404 160.507 99.8777 155.297 81.9055L140.779 85.0043Z" fill="#1E2B62"/>
<path d="M192.898 118.345C193.22 117.72 193.758 117.222 194.423 116.985C194.898 116.816 195.367 116.589 195.814 116.355L201.998 113.087C203.157 112.522 204.812 113.838 206.015 114.232C209.643 115.42 217.157 118.217 216.539 120.845C215.872 123.681 209.413 122.338 207.121 121.765C206.597 121.635 201.853 123.347 200.353 123.461C198.28 123.618 197.802 123.091 196.787 122.562C196.326 122.321 195.811 122.212 195.253 122.207C194.401 122.203 193.587 121.845 193.053 121.181L193.041 121.166C192.451 120.432 192.35 119.422 192.778 118.587L192.898 118.35V118.345Z" fill="#D08F79"/>
<path d="M199.665 124.287C198.216 124.287 197.547 123.905 196.844 123.504C196.708 123.427 196.571 123.347 196.419 123.27C196.085 123.096 195.704 123.009 195.249 123.007C194.129 123 193.102 122.516 192.431 121.681C191.633 120.688 191.496 119.336 192.068 118.22L192.189 117.983C192.612 117.157 193.31 116.536 194.155 116.234C194.532 116.099 194.94 115.913 195.44 115.65L201.624 112.382C202.815 111.8 204.136 112.462 205.199 112.993C205.59 113.189 205.962 113.375 206.264 113.474C214.17 116.06 217.888 118.604 217.318 121.029C217.156 121.719 216.728 122.292 216.083 122.686C213.938 123.992 209.513 123.181 207.008 122.562C206.648 122.603 205.404 122.971 204.489 123.243C202.909 123.712 201.276 124.195 200.414 124.26C200.143 124.28 199.895 124.289 199.665 124.289V124.287ZM202.639 113.747C202.53 113.747 202.431 113.763 202.349 113.804L196.187 117.063C195.617 117.365 195.143 117.58 194.692 117.739C194.23 117.903 193.846 118.249 193.609 118.712L193.489 118.949C193.204 119.505 193.274 120.176 193.663 120.664C194.044 121.137 194.621 121.403 195.257 121.408C195.962 121.413 196.602 121.562 197.158 121.855C197.327 121.944 197.484 122.031 197.634 122.118C198.329 122.516 198.791 122.777 200.291 122.664C200.984 122.611 202.672 122.111 204.032 121.71C206.317 121.033 206.892 120.886 207.313 120.992C211.023 121.917 214.064 122.043 215.248 121.321C215.53 121.149 215.692 120.939 215.757 120.662C216.011 119.589 212.991 117.357 205.764 114.993C205.349 114.858 204.926 114.645 204.479 114.423C203.868 114.116 203.131 113.749 202.636 113.749L202.639 113.747Z" fill="#1E2B62"/>
<path d="M166.755 44.1058L169.516 30.8965L179.41 38.0772L177.98 45.8762C177.564 47.9606 175.598 48.8518 175.598 48.8518C173.134 50.1295 170.096 49.3494 168.103 47.4316L167.641 46.9872C166.868 46.2457 166.533 45.154 166.755 44.1033V44.1058Z" fill="#D08F79"/>
<path d="M172.965 50.2896C171.061 50.2896 169.095 49.5022 167.544 48.012L167.083 47.5676C166.107 46.628 165.689 45.273 165.967 43.9422L168.728 30.7329C168.784 30.4672 168.97 30.2474 169.223 30.1508C169.477 30.0542 169.762 30.0904 169.982 30.2499L179.876 37.4305C180.124 37.6117 180.248 37.9184 180.192 38.2228L178.762 46.0218C178.269 48.4926 176.018 49.5384 175.924 49.5819C175.008 50.0577 173.996 50.2872 172.965 50.2872V50.2896ZM167.532 44.2707C167.368 45.0581 167.615 45.8599 168.192 46.4155L168.653 46.8599C170.52 48.6544 173.223 49.1834 175.226 48.1448C175.277 48.1207 176.864 47.3623 177.192 45.7223L178.528 38.4305L170.04 32.2715L167.53 44.2707H167.532Z" fill="#1E2B62"/>
<path d="M187.493 16.3356C184.643 15.7173 187.785 19.2388 177.645 14.4661C173.606 12.5653 174.956 17.8331 173.908 17.3428C170.034 15.5337 170.169 15.5893 168.101 15.797C166.734 15.9347 165.49 18.2123 165.447 20.0552C165.389 22.4874 167.261 23.4124 168.195 28.714C168.853 32.4384 168.208 34.5373 169.543 35.2764C170.896 36.0227 172.263 34.2692 173.802 34.9745C175.792 35.885 174.802 39.4186 176.592 41.2325C177.72 42.3749 180.626 43.2807 185.771 41.7156C186.604 41.462 187.143 40.648 187.049 39.7833C186.928 38.6747 186.766 37.2714 186.498 35.9478C185.227 29.6318 183.314 27.9459 184.336 26.5233C185.899 24.3423 190.174 26.4074 191.23 24.579C192.326 22.6806 191.396 17.1834 187.495 16.3356H187.493Z" fill="#1E2B62"/>
<path d="M175.805 25.0278L176.382 26.6895C176.653 27.4721 176.87 28.2715 177.032 29.0855C177.334 30.6096 177.872 33.2302 178.288 34.6721C178.897 36.7927 185.6 35.3749 185.6 35.3749L186.177 34.2156L186.96 34.032C187.112 33.9958 187.257 33.9306 187.37 33.8243C187.655 33.5586 187.72 33.1577 187.566 32.8316C186.728 31.0419 185.022 27.0542 184.725 23.6656C184.725 23.6656 180.232 21.7212 175.807 25.0278H175.805Z" fill="#D08F79"/>
<path d="M181.505 36.6498C179.667 36.6498 177.906 36.2658 177.512 34.8915C177.087 33.406 176.534 30.713 176.242 29.2397C176.087 28.4643 175.879 27.6963 175.621 26.9499L175.044 25.2882C174.93 24.9597 175.044 24.595 175.321 24.3849C180.063 20.8417 184.834 22.8415 185.037 22.9285C185.307 23.0444 185.491 23.3004 185.515 23.5927C185.807 26.9065 187.549 30.9183 188.283 32.4882C188.587 33.1404 188.438 33.9108 187.909 34.406C187.701 34.5992 187.433 34.7393 187.133 34.8093L186.718 34.9059L186.31 35.7271C186.201 35.9469 185.998 36.1039 185.759 36.1547C184.928 36.331 183.184 36.6498 181.505 36.6498ZM176.754 25.3341L177.133 26.4258C177.416 27.2398 177.645 28.0827 177.812 28.9281C178.099 30.3773 178.643 33.022 179.051 34.4495C179.249 35.1402 182.109 35.232 185.051 34.6668L185.452 33.8577C185.558 33.6452 185.754 33.4882 185.986 33.435L186.768 33.2515C186.8 33.2442 186.817 33.2346 186.822 33.2321C186.848 33.2056 186.839 33.1766 186.834 33.1669C185.923 31.2226 184.384 27.5586 183.976 24.2472C182.884 23.9091 179.867 23.2835 176.754 25.3341Z" fill="#1E2B62"/>
<path d="M176.103 30.5588C176.103 30.5588 174.721 26.5614 173.035 27.5831C171.349 28.6048 172.982 32.9668 176.103 30.5588Z" fill="#D08F79"/>
<path d="M312.059 15.0764C316.271 10.5357 322.532 9.5792 327.238 10.8593C333.194 12.48 336.197 17.6149 338.315 21.2354C342.059 27.636 340.252 29.9547 343.194 33.6718C348.407 40.2559 361.05 35.8963 367.207 40.954C382 53.1077 373.937 73.1934 360.825 82.6734C352.081 88.9967 340.187 85.3399 336.95 84.3448C327.129 81.3257 310.856 75.4082 309.281 61.2811C308.22 51.7817 317.955 44.1639 312.725 36.2465C311.394 34.2298 310.29 33.6815 309.302 31.1599C307.696 27.066 307.336 20.1703 312.061 15.074L312.059 15.0764Z" fill="#1E2B62"/>
<path d="M327.425 16.1946C325.188 14.3856 326.604 9.0526 328.036 6.17356C328.572 5.09392 330.973 0.268147 334.133 0.45654C337.377 0.649764 340.483 6.07453 339.326 10.3738C337.879 15.7478 330.048 18.3129 327.425 16.1946Z" fill="#1E2B62"/>
<path d="M342.543 48.9488C335.791 46.7533 325.506 45.181 313.211 49.0817C308.728 50.5043 305.513 54.4364 304.96 59.0907L294.945 116.548C294.447 120.724 300.051 124.787 304.001 126.277C308.124 127.835 314.358 129.306 323.185 129.306C332.649 129.306 344.077 129.253 347.915 127.577C348.028 127.526 348.144 127.475 348.263 127.42C353.2 125.127 356.108 119.935 355.623 114.527L353.584 106.08C351.335 96.767 350.292 87.2048 350.48 77.6257L350.809 60.8997C351.06 55.516 347.685 50.613 342.545 48.9416L342.543 48.9488Z" fill="#1E2B62"/>
<path d="M295.25 73.638C295.25 73.638 303.245 51.5742 312.209 49.4512L307.651 80.7172L295.25 73.638Z" fill="#1E2B62"/>
<path d="M362.388 86.5113C365.813 83.811 367.255 79.3137 366.033 75.1328C364.937 71.3746 363.55 66.8484 362.345 63.5732C358.219 52.3735 349.666 49.8688 346.335 49.0742C345.81 48.9486 339.883 48.166 339.883 48.166L343.451 82.4391L358.688 88.6585L362.388 86.5113Z" fill="#1E2B62"/>
<path d="M351.587 113.988C351.299 113.988 351.024 113.833 350.879 113.563C344.137 100.81 323.538 100.305 314.622 102.059C308.984 103.167 303.112 106.93 303.054 106.969C302.682 107.208 302.187 107.102 301.948 106.732C301.709 106.36 301.815 105.868 302.185 105.626C302.434 105.464 308.366 101.66 314.311 100.491C321.705 99.0371 344.553 98.1773 352.292 112.816C352.498 113.208 352.35 113.691 351.959 113.896C351.84 113.959 351.712 113.988 351.584 113.988H351.587Z" fill="#1E2B62"/>
<path d="M326.909 91.6607L287.645 91.6004C286.65 91.6004 285.785 90.9217 285.546 89.9604L278.884 62.3583C278.548 60.9985 279.582 59.6822 280.99 59.6846L320.254 59.745C321.25 59.745 322.114 60.4237 322.354 61.3849L329.016 88.987C329.351 90.3468 328.317 91.6632 326.909 91.6607Z" fill="#00A5F3"/>
<path d="M326.917 92.461H326.912L287.648 92.4006C286.283 92.4006 285.102 91.4731 284.773 90.152L278.111 62.5451C277.891 61.6611 278.089 60.7409 278.655 60.0211C279.222 59.2989 280.097 58.8762 280.995 58.8859L320.257 58.9463C321.622 58.9463 322.805 59.8738 323.131 61.1949L329.793 88.8018C330.011 89.6858 329.813 90.606 329.25 91.3282C328.685 92.0504 327.834 92.4634 326.917 92.4634V92.461ZM280.99 60.4848C280.565 60.4848 280.174 60.6756 279.913 61.009C279.655 61.3398 279.563 61.7601 279.664 62.1683L286.326 89.7752C286.476 90.379 287.02 90.8041 287.648 90.8041L326.912 90.8645H326.914C327.337 90.8645 327.731 90.6737 327.989 90.3428C328.247 90.0119 328.339 89.5892 328.238 89.1834L321.576 61.5765C321.426 60.9727 320.883 60.5476 320.252 60.5476L280.99 60.4872V60.4848Z" fill="#1E2B62"/>
<path d="M304.065 78.5675C305.617 78.1855 306.543 76.5287 306.134 74.8669C305.725 73.205 304.135 72.1675 302.583 72.5495C301.031 72.9315 300.105 74.5884 300.514 76.2502C300.923 77.912 302.513 78.9495 304.065 78.5675Z" fill="white"/>
<path d="M281.191 72.865L281.691 74.8503C281.901 75.6884 282.829 76.1232 283.611 75.7537L290.251 72.6162C291.133 72.2007 292.189 72.6403 292.495 73.563C293.119 75.4493 292.595 78.7969 284.138 82.2122C278.971 84.299 278.787 78.6472 279.63 75.2006C280.005 73.6717 281.191 72.8674 281.191 72.8674V72.865Z" fill="#D08F79"/>
<path d="M282.13 83.4635C281.28 83.4635 280.553 83.2051 279.956 82.6858C278.14 81.1134 278.224 77.5678 278.85 75.0075C279.292 73.2009 280.681 72.242 280.739 72.2034C280.954 72.056 281.229 72.0246 281.471 72.1188C281.715 72.2106 281.898 72.4183 281.961 72.6695L282.461 74.6549C282.519 74.8819 282.681 74.9882 282.77 75.0317C282.862 75.0752 283.048 75.1331 283.265 75.0317L289.906 71.8942C290.536 71.5947 291.268 71.5826 291.91 71.858C292.546 72.1309 293.034 72.6599 293.249 73.312C294.058 75.7587 293.186 79.4179 284.432 82.9539C283.587 83.2944 282.818 83.4659 282.128 83.4659L282.13 83.4635ZM280.772 74.4979C280.62 74.7491 280.485 75.0462 280.403 75.3867C279.845 77.6716 279.871 80.4975 281.002 81.4757C281.596 81.9902 282.548 81.9878 283.835 81.4661C289.77 79.0701 292.575 76.3504 291.734 73.8095C291.662 73.5873 291.5 73.4159 291.285 73.3217C291.063 73.2275 290.811 73.2323 290.592 73.3337L283.951 76.4712C283.362 76.7514 282.683 76.7514 282.091 76.4712C281.502 76.1934 281.072 75.6717 280.913 75.0389L280.775 74.4931L280.772 74.4979Z" fill="#1E2B62"/>
<path d="M338.51 64.4048C338.51 64.4048 356.143 74.3027 359.779 77.4087C363.414 80.5148 367.359 82.8721 362.216 89.6422C357.844 95.3955 350.148 90.2533 336.578 70.8609C335.943 69.9527 334.901 69.3899 333.817 69.146C332.457 68.8417 330.481 67.7717 329.57 64.2115C329.57 64.2115 323.138 65.1197 322.57 61.9967L332.23 60.4654C333.525 60.2359 334.848 60.661 335.766 61.6006L338.505 64.4048H338.51Z" fill="#D08F79"/>
<path d="M358.2 92.6606C358.162 92.6606 358.125 92.6606 358.087 92.6606C353.087 92.564 346.045 85.7819 335.924 71.319C335.453 70.6428 334.644 70.15 333.647 69.9278C332.364 69.6428 330.12 68.6284 328.992 65.0827C327.113 65.247 322.369 65.3388 321.786 62.1433C321.748 61.9308 321.796 61.7134 321.922 61.5371C322.047 61.3608 322.236 61.2448 322.448 61.211L332.108 59.6797C333.649 59.4068 335.238 59.9164 336.34 61.0444L338.999 63.7664C340.577 64.6528 356.746 73.7706 360.297 76.8042C360.575 77.0433 360.855 77.2752 361.133 77.507C364.539 80.3426 368.058 83.2748 362.85 90.1294C361.572 91.8129 360.007 92.6655 358.195 92.6655L358.2 92.6606ZM329.574 63.4114C329.934 63.4114 330.258 63.6553 330.349 64.0128C331.142 67.114 332.77 68.0898 333.994 68.3627C335.383 68.6719 336.536 69.3965 337.236 70.3988C346.905 84.2143 353.734 90.9748 358.118 91.0593C359.459 91.0859 360.587 90.4627 361.58 89.156C365.862 83.5187 363.449 81.5092 360.111 78.7292C359.828 78.4925 359.541 78.2558 359.258 78.0143C355.722 74.9951 338.292 65.1987 338.115 65.0996C338.048 65.0634 337.987 65.0151 337.934 64.962L335.195 62.1578C334.463 61.4067 333.405 61.0685 332.371 61.2521L323.786 62.6143C324.982 63.7302 328.221 63.5925 329.46 63.4186C329.499 63.4138 329.535 63.4114 329.572 63.4114H329.574Z" fill="#1E2B62"/>
<path d="M320.419 38.3698C319.469 38.8456 318.322 38.6476 317.573 37.8964C316.728 37.0486 316.044 36.1477 315.486 35.2372L314.409 35.2589C314.063 35.2661 313.778 34.998 313.761 34.6551L313.575 30.4621C312.745 29.1144 312.414 27.9743 312.336 27.0565C312.208 25.4987 313.602 22.6993 315.01 22.0134C316.921 21.0835 320.37 20.5811 322.17 23.2814C322.943 24.4408 324.199 25.2716 324.96 25.1364C325.675 25.0108 325.969 24.3997 326.322 23.7669C326.979 22.5882 328.614 21.482 330.187 23.3442C331.779 25.2306 330.675 26.9648 329.687 28.4115C329.288 28.996 329.718 30.6167 329.88 31.3026L332.211 41.1909C332.81 43.7318 334.634 45.8138 337.081 46.7485L339.574 47.7001C339.574 47.7001 336.82 56.0257 325.788 55.7889C317.37 55.6102 318.015 48.7266 318.015 48.7266L319.121 48.2411C322.015 46.9683 323.6 43.8332 322.902 40.7585L322.16 37.4955L320.414 38.3674L320.419 38.3698Z" fill="#D08F79"/>
<path d="M326.25 56.596C326.095 56.596 325.938 56.596 325.779 56.5912C322.776 56.526 320.498 55.6468 319.008 53.9754C316.967 51.6857 317.216 48.7777 317.225 48.6569C317.252 48.3671 317.433 48.1159 317.699 48L318.805 47.5145C321.344 46.3986 322.74 43.6331 322.126 40.94L321.609 38.6697L320.774 39.0875C319.515 39.7155 318.003 39.4643 317.006 38.4644C316.278 37.7374 315.624 36.9258 315.051 36.0491L314.426 36.0611C313.646 36.0853 312.998 35.4766 312.964 34.6941L312.788 30.704C312.056 29.4674 311.636 28.2645 311.542 27.1245C311.392 25.3155 312.88 22.1635 314.665 21.2964C317.262 20.0332 320.928 19.9752 322.841 22.8398C323.532 23.8735 324.525 24.4073 324.827 24.3518C325.095 24.3035 325.247 24.0692 325.561 23.504L325.631 23.3808C326.081 22.5765 326.979 21.678 328.158 21.5645C328.825 21.5017 329.822 21.6684 330.805 22.8325C332.834 25.2358 331.281 27.5086 330.354 28.866C330.293 29.0109 330.279 29.5084 330.627 30.96L330.665 31.1243L332.996 41.0149C333.535 43.3022 335.17 45.1692 337.373 46.0098L339.866 46.9614C340.265 47.1136 340.475 47.5531 340.339 47.9589C340.31 48.0459 337.351 56.6009 326.25 56.6033V56.596ZM318.815 49.2559C318.844 50.024 319.054 51.6326 320.213 52.9248C321.397 54.2411 323.281 54.9367 325.812 54.9923C334.25 55.1734 337.576 50.0578 338.516 48.1521L336.801 47.4976C334.103 46.4687 332.098 44.179 331.438 41.3772L329.071 31.332C328.762 30.0495 328.506 28.7331 329.032 27.9626C330.083 26.4241 330.738 25.2309 329.581 23.8615C329.151 23.3518 328.728 23.1151 328.31 23.1538C327.781 23.2045 327.284 23.6948 327.025 24.1585L326.96 24.2769C326.598 24.929 326.148 25.7406 325.105 25.9241C323.873 26.1415 322.329 24.9532 321.51 23.7238C319.923 21.3471 316.798 22.0355 315.365 22.7311C314.3 23.2504 313.03 25.6778 313.138 26.9893C313.216 27.9312 313.595 28.9577 314.262 30.0422C314.334 30.1581 314.373 30.291 314.38 30.4262L314.559 34.455L315.474 34.4356C315.747 34.4356 316.025 34.5757 316.172 34.8173C316.735 35.7375 317.397 36.5828 318.141 37.3292C318.653 37.8412 319.426 37.9692 320.064 37.6504L321.81 36.7785C322.03 36.6698 322.288 36.665 322.508 36.7712C322.73 36.8751 322.892 37.078 322.945 37.3171L323.687 40.5802C324.469 44.0196 322.687 47.5507 319.448 48.9733L318.812 49.2535L318.815 49.2559Z" fill="#1E2B62"/>
<path d="M320.993 210.745L326.841 228.128C326.841 228.128 320.472 227.587 319.863 227.705C319.254 227.824 311.805 211.854 311.805 211.854L320.993 210.748V210.745Z" fill="white"/>
<path d="M326.844 228.925C326.822 228.925 326.798 228.925 326.776 228.923C323.801 228.669 320.448 228.44 319.999 228.491C319.264 228.633 319.037 228.679 314.89 220.17C312.972 216.231 311.102 212.226 311.083 212.187C310.974 211.955 310.984 211.685 311.109 211.46C311.235 211.236 311.457 211.086 311.713 211.055L320.902 209.948C321.279 209.902 321.634 210.127 321.755 210.487L327.6 227.87C327.687 228.126 327.639 228.406 327.472 228.619C327.32 228.812 327.088 228.925 326.844 228.925ZM320.216 226.892C321.308 226.892 323.728 227.068 325.699 227.227L320.448 211.615L313.001 212.511C315.977 218.856 319.269 225.561 320.185 226.889H320.216V226.892ZM319.784 226.909C319.762 226.909 319.738 226.913 319.716 226.918C319.735 226.913 319.757 226.911 319.784 226.909Z" fill="#1E2B62"/>
<path d="M325.502 224.307C325.502 224.307 316.709 220.715 315.081 225.222C313.014 230.956 309.779 239.704 309.779 239.704C309.231 241.226 310.284 242.851 311.903 242.979C315.115 243.238 319.91 243.445 322.142 242.665C325.666 241.434 331.516 230.316 331.516 230.316L329.715 220.858C329.715 220.858 326.526 220.408 325.502 224.307Z" fill="#1E2B62"/>
<path d="M310.021 239.048C309.866 239.466 309.779 239.705 309.779 239.705C309.231 241.226 310.284 242.852 311.903 242.98C315.115 243.238 319.91 243.446 322.142 242.666C323.289 242.265 324.681 240.818 326.038 239.048H310.023H310.021Z" fill="white"/>
<path d="M317.072 244.011C315.311 244.011 313.456 243.905 311.842 243.777C310.818 243.694 309.912 243.153 309.356 242.291C308.803 241.434 308.685 240.393 309.03 239.431C309.064 239.337 312.289 230.616 314.332 224.949C314.714 223.894 315.439 223.121 316.485 222.657C319.139 221.479 323.267 222.667 325.002 223.266C326.135 220.382 328.589 219.889 329.828 220.063C330.166 220.111 330.439 220.37 330.502 220.706L332.304 230.164C332.338 230.343 332.311 230.526 332.227 230.686C331.613 231.852 326.125 242.117 322.41 243.417C321.149 243.856 319.178 244.008 317.072 244.008V244.011ZM319.231 223.754C318.451 223.754 317.724 223.858 317.134 224.121C316.492 224.406 316.069 224.855 315.837 225.495C313.791 231.166 310.567 239.895 310.533 239.982C310.359 240.463 310.419 240.992 310.7 241.426C310.982 241.866 311.446 242.141 311.97 242.185C316.762 242.569 320.282 242.472 321.881 241.912C324.458 241.011 328.98 233.374 330.681 230.191L329.053 221.655C328.263 221.747 326.871 222.239 326.277 224.51C326.219 224.732 326.067 224.918 325.862 225.022C325.656 225.126 325.415 225.133 325.202 225.046C324.11 224.602 321.456 223.751 319.231 223.751V223.754Z" fill="#1E2B62"/>
<path d="M337.572 215.016L335.587 232.5L327.594 230.317L328.21 214.562L337.572 215.016Z" fill="white"/>
<path d="M335.588 233.299C335.517 233.299 335.445 233.289 335.377 233.27L327.387 231.087C327.027 230.987 326.783 230.657 326.797 230.285L327.413 214.53C327.421 214.317 327.515 214.114 327.672 213.972C327.829 213.827 328.041 213.752 328.252 213.762L337.614 214.216C337.834 214.225 338.042 214.329 338.184 214.496C338.327 214.665 338.394 214.885 338.37 215.104L336.385 232.589C336.358 232.821 336.232 233.028 336.039 233.161C335.906 233.253 335.749 233.299 335.59 233.299H335.588ZM328.418 229.712L334.897 231.483L336.682 215.774L328.976 215.402L328.418 229.715V229.712Z" fill="#1E2B62"/>
<path d="M336.342 245.383H323.696C321.984 245.383 320.672 243.871 320.921 242.183C321.344 239.338 322.718 234.618 326.841 228.128C327.291 227.421 328.078 226.988 328.919 226.988H332.764C333.429 226.988 333.984 227.488 334.052 228.145L334.342 230.911L335.506 229.72C335.965 229.251 336.76 229.43 336.962 230.053C337.699 232.287 339.042 237.077 339.144 242.543C339.173 244.106 337.907 245.388 336.339 245.388L336.342 245.383Z" fill="#1E2B62"/>
<path d="M323.697 245.383H336.342C337.91 245.383 339.176 244.1 339.147 242.537C339.139 242.148 339.125 241.764 339.105 241.383H321.059C321.006 241.663 320.958 241.931 320.921 242.182C320.67 243.871 321.984 245.383 323.697 245.383Z" fill="white"/>
<path d="M336.344 246.182H323.699C322.645 246.182 321.65 245.726 320.964 244.931C320.283 244.141 319.979 243.096 320.133 242.064C320.563 239.168 321.959 234.326 326.17 227.698C326.771 226.751 327.8 226.188 328.923 226.188H332.769C333.846 226.188 334.74 226.993 334.853 228.06L334.967 229.133C335.378 228.729 335.957 228.565 336.52 228.696C337.095 228.828 337.547 229.241 337.73 229.799C338.515 232.181 339.849 237.004 339.95 242.523C339.967 243.492 339.602 244.41 338.921 245.103C338.237 245.798 337.322 246.182 336.344 246.182ZM328.921 227.787C328.358 227.787 327.819 228.082 327.517 228.555C323.459 234.946 322.121 239.557 321.713 242.299C321.628 242.869 321.795 243.448 322.174 243.885C322.556 244.327 323.112 244.581 323.696 244.581H336.341C336.885 244.581 337.397 244.368 337.776 243.98C338.153 243.596 338.356 243.088 338.346 242.55C338.247 237.238 336.965 232.594 336.206 230.297C336.201 230.285 336.194 230.261 336.155 230.251C336.109 230.241 336.09 230.263 336.08 230.273L334.916 231.466C334.699 231.688 334.375 231.765 334.083 231.662C333.791 231.56 333.583 231.297 333.549 230.99L333.259 228.225C333.233 227.973 333.022 227.785 332.766 227.785H328.921V227.787Z" fill="#1E2B62"/>
<path d="M307.557 110.007C307.888 109.201 308.557 108.585 309.393 108.324C314.016 106.88 330.138 103.071 346.732 113.674C347.515 114.174 348.017 115.012 348.082 115.937C348.681 124.34 350.921 168.264 336.973 220.273L327.58 219.606L325.664 130.682C325.664 130.682 311.748 163.282 323.065 215.165L313.294 216.962C313.294 216.962 298.994 198.229 296.434 169.602C294.168 144.278 305.024 116.159 307.557 110.007Z" fill="#1E2B62"/>
<path d="M324.85 139.636C324.85 139.636 324.833 139.636 324.826 139.636C324.384 139.624 324.036 139.254 324.05 138.812L324.302 130.363C324.343 128.958 323.678 127.637 322.524 126.827L318.864 124.265C318.502 124.011 318.415 123.514 318.669 123.151C318.922 122.789 319.422 122.702 319.782 122.956L323.442 125.518C325.038 126.637 325.959 128.467 325.901 130.412L325.649 138.86C325.637 139.293 325.282 139.636 324.85 139.636Z" fill="#98E0FF"/>
<path d="M440.158 194.299C438.288 211.341 434.948 229.618 429.924 249.177L327.441 405.669L312.167 422.91L302.034 419.719L47.1664 347.547C44.7437 344.137 42.4199 340.724 40.2049 337.297C18.5788 303.949 6.58099 270.077 2.08813 238.62C-6.63428 177.641 12.8033 125.733 44.8451 104.228L440.16 194.301L440.158 194.299Z" fill="#00A5F3"/>
<path d="M173.666 338.647L85.3281 314.093L115 295.652L203.249 315.296C203.546 315.361 203.657 315.745 203.43 315.919L173.666 338.647Z" fill="#1E2B62"/>
<path d="M173.439 334.507L85.1016 309.954L114.776 291.513L203.795 311.33L173.439 334.507Z" fill="#98E0FF"/>
<path d="M173.67 338.648L173.445 334.508L203.801 311.328L203.953 314.113C203.999 314.968 203.649 315.755 203.006 316.248L173.672 338.648H173.67Z" fill="#1E2B62"/>
<path d="M162.177 328.96C161.926 328.96 161.679 328.842 161.522 328.622C161.266 328.262 161.353 327.762 161.713 327.508L184.226 311.587C184.586 311.331 185.086 311.418 185.339 311.777C185.595 312.137 185.508 312.637 185.148 312.891L162.636 328.813C162.496 328.912 162.334 328.96 162.174 328.96H162.177Z" fill="#00A5F3"/>
<path d="M154.067 326.433C153.813 326.433 153.567 326.314 153.41 326.092C153.156 325.73 153.246 325.232 153.608 324.979L175.589 309.615C175.952 309.362 176.449 309.451 176.703 309.813C176.956 310.175 176.867 310.673 176.505 310.927L154.524 326.29C154.383 326.387 154.224 326.435 154.067 326.435V326.433Z" fill="#00A5F3"/>
<path d="M146.637 324.504C146.388 324.504 146.142 324.388 145.985 324.17C145.729 323.81 145.811 323.31 146.171 323.054L167.621 307.717C167.98 307.461 168.48 307.543 168.736 307.903C168.993 308.263 168.91 308.763 168.55 309.019L147.101 324.356C146.961 324.458 146.796 324.506 146.637 324.506V324.504Z" fill="#00A5F3"/>
<path d="M131.786 320.038C131.535 320.038 131.286 319.919 131.129 319.697C130.875 319.335 130.965 318.837 131.325 318.584L151.941 304.157C152.303 303.904 152.801 303.993 153.055 304.353C153.308 304.715 153.219 305.213 152.859 305.466L132.242 319.893C132.102 319.99 131.943 320.038 131.786 320.038Z" fill="#00A5F3"/>
<path d="M139.058 322.103C138.807 322.103 138.56 321.984 138.403 321.764C138.15 321.405 138.236 320.905 138.596 320.651L159.667 305.811C160.029 305.558 160.527 305.645 160.78 306.005C161.034 306.364 160.947 306.864 160.587 307.118L139.517 321.958C139.377 322.057 139.217 322.103 139.058 322.103Z" fill="#00A5F3"/>
<path d="M123.294 318.158C123.04 318.158 122.792 318.037 122.635 317.813C122.383 317.45 122.473 316.95 122.838 316.699L143.758 302.227C144.121 301.976 144.621 302.067 144.872 302.43C145.123 302.792 145.031 303.292 144.669 303.543L123.748 318.016C123.61 318.112 123.451 318.158 123.294 318.158Z" fill="#00A5F3"/>
<path d="M113.176 315.953C112.923 315.953 112.674 315.832 112.517 315.608C112.266 315.245 112.357 314.745 112.72 314.494L133.64 300.022C134.003 299.77 134.5 299.862 134.754 300.225C135.005 300.587 134.913 301.087 134.551 301.338L113.63 315.81C113.493 315.907 113.333 315.953 113.176 315.953Z" fill="#00A5F3"/>
<path d="M170.595 331.365C170.523 331.365 170.448 331.355 170.375 331.333L91.2433 308.685C90.8181 308.564 90.5742 308.12 90.6949 307.697C90.8157 307.272 91.2602 307.026 91.6829 307.149L170.436 329.689L191.948 313.706C192.301 313.443 192.803 313.516 193.067 313.871C193.33 314.226 193.255 314.726 192.903 314.989L171.074 331.205C170.933 331.309 170.767 331.362 170.598 331.362L170.595 331.365Z" fill="#00A5F3"/>
<path d="M175.747 327.281C175.677 327.281 175.605 327.271 175.532 327.252L103.069 307.069C102.644 306.951 102.395 306.509 102.514 306.084C102.632 305.659 103.074 305.41 103.499 305.528L175.962 325.711C176.387 325.829 176.636 326.271 176.518 326.696C176.419 327.049 176.098 327.281 175.747 327.281Z" fill="#00A5F3"/>
<path d="M180.294 323.827C180.224 323.827 180.152 323.817 180.079 323.798L107.616 303.615C107.191 303.497 106.942 303.055 107.061 302.63C107.179 302.205 107.621 301.956 108.046 302.074L180.509 322.257C180.934 322.375 181.183 322.817 181.065 323.242C180.966 323.595 180.644 323.827 180.294 323.827Z" fill="#00A5F3"/>
<path d="M187.419 318.637C187.351 318.637 187.283 318.627 187.213 318.61L113.69 299.242C113.262 299.128 113.009 298.691 113.12 298.266C113.233 297.838 113.668 297.582 114.098 297.696L187.621 317.064C188.049 317.178 188.303 317.615 188.192 318.04C188.097 318.4 187.774 318.637 187.419 318.637Z" fill="#00A5F3"/>
<path d="M192.419 314.537C192.359 314.537 192.298 314.53 192.238 314.516L111.893 295.869C111.463 295.77 111.195 295.34 111.294 294.911C111.393 294.481 111.823 294.213 112.253 294.312L192.598 312.958C193.028 313.057 193.296 313.487 193.197 313.917C193.112 314.286 192.781 314.535 192.419 314.535V314.537Z" fill="#00A5F3"/>
<path d="M223.292 261.512L196.561 256.476C196.388 256.443 196.332 256.592 196.332 256.749V279.63C196.332 281.82 181.146 284.554 180.996 284.238L180.977 286.656C180.977 287.107 181.37 287.583 181.873 287.68L182.206 287.745C182.206 287.745 182.211 287.745 182.213 287.745L204.624 292.109C205.666 292.312 206.692 292.278 207.634 292.064L219.956 289.242C222.173 288.735 223.574 286.989 223.574 284.786V261.882C223.574 261.727 223.465 261.544 223.292 261.51V261.512Z" fill="#1E2B62"/>
<path d="M193.626 254.573V277.458C193.626 279.714 192.183 281.489 189.915 282.021L181.604 283.972C181.06 284.1 181.246 284.868 181.847 284.984L204.686 289.431C205.713 289.631 206.727 289.624 207.657 289.411L216.868 287.303C219.153 286.781 220.609 285.001 220.609 282.733V259.824C220.609 259.73 220.525 259.638 220.421 259.619L193.819 254.44C193.715 254.421 193.63 254.479 193.63 254.573H193.626Z" fill="white"/>
<path d="M206.164 290.375C205.628 290.375 205.082 290.322 204.536 290.216L181.697 285.769C181.006 285.634 180.497 285.052 180.485 284.385C180.473 283.806 180.852 283.327 181.424 283.192L189.736 281.241C191.644 280.794 192.83 279.342 192.83 277.456V254.571C192.83 254.291 192.954 254.027 193.169 253.851C193.388 253.67 193.683 253.597 193.973 253.653L220.577 258.834C221.06 258.928 221.413 259.346 221.413 259.824V282.733C221.413 285.376 219.7 287.477 217.051 288.083L207.84 290.192C207.306 290.315 206.741 290.375 206.166 290.375H206.164ZM183.171 284.426L204.845 288.646C205.756 288.825 206.669 288.82 207.485 288.631L216.696 286.523C218.621 286.083 219.816 284.629 219.816 282.733V260.314L194.434 255.373V277.458C194.434 280.086 192.736 282.183 190.108 282.798L183.176 284.426H183.171Z" fill="#1E2B62"/>
<path d="M143.82 257.674L259.031 280.366C260.038 280.561 261.045 279.996 261.173 279.013L270.376 208.59C270.601 206.875 269.246 204.863 267.509 204.571L153.635 183.005L143.82 257.676V257.674Z" fill="#1E2B62"/>
<path d="M262.982 203.941C264.965 204.328 266.755 206.697 266.501 208.632L257.411 278.263C257.283 279.246 256.211 279.89 255.201 279.695L142.03 257.476C140.822 257.242 140.013 256.076 140.167 254.894L149.581 184.003C149.709 183.02 150.373 182.018 151.38 182.216L262.982 203.944V203.941Z" fill="#00A5F3"/>
<path d="M255.761 280.417C255.595 280.417 255.426 280.4 255.256 280.369L142.162 258.556C140.524 258.237 139.322 256.609 139.532 254.998L141.834 237.606C141.892 237.168 142.295 236.862 142.732 236.917C143.169 236.975 143.479 237.376 143.421 237.816L141.119 255.208C141.02 255.967 141.674 256.831 142.467 256.986L255.561 278.799C255.829 278.852 256.097 278.794 256.314 278.639C256.525 278.489 256.657 278.265 256.691 278.011L265.822 208.402C266.02 206.883 264.771 205.224 263.201 204.917L243.338 201.05C242.906 200.966 242.621 200.545 242.705 200.113C242.79 199.678 243.21 199.398 243.643 199.48L263.505 203.347C265.89 203.811 267.711 206.27 267.404 208.61L258.273 278.219C258.184 278.905 257.81 279.53 257.247 279.936C256.807 280.253 256.293 280.417 255.759 280.417H255.761Z" fill="#1E2B62"/>
<path d="M145.427 175.146C145.495 174.626 145.947 174.312 146.48 174.416L239.649 192.555C240.697 192.76 241.509 193.847 241.374 194.871L233.982 249.177C233.915 249.696 233.463 250.01 232.929 249.907L138.864 231.591C138.285 231.478 137.838 230.876 137.915 230.314L145.427 175.146Z" fill="white"/>
<path d="M145.427 175.146C145.495 174.626 145.947 174.312 146.48 174.416L239.649 192.555C240.697 192.76 241.509 193.847 241.374 194.871L233.982 249.177C233.915 249.696 233.463 250.01 232.929 249.907L138.864 231.591C138.285 231.478 137.838 230.876 137.915 230.314L145.427 175.146Z" fill="white"/>
<path d="M233.137 250.726C233.019 250.726 232.901 250.714 232.78 250.692L138.715 232.377C137.72 232.184 136.99 231.189 137.126 230.208L144.638 175.04C144.698 174.576 144.935 174.173 145.302 173.91C145.679 173.639 146.152 173.54 146.635 173.634L239.804 191.773C241.278 192.061 242.36 193.527 242.169 194.978L234.777 249.286C234.717 249.75 234.48 250.154 234.113 250.417C233.831 250.62 233.492 250.726 233.137 250.726ZM146.28 175.197C146.251 175.197 146.239 175.204 146.237 175.204L146.222 175.253L138.71 230.42C138.693 230.553 138.845 230.771 139.022 230.805L233.087 249.12C233.142 249.129 233.174 249.12 233.178 249.117L240.584 194.763C240.664 194.157 240.137 193.464 239.5 193.341L146.331 175.202C146.312 175.197 146.295 175.197 146.283 175.197H146.28Z" fill="#1E2B62"/>
<path d="M225.889 208.919L156.733 195.454C155.733 195.258 154.96 194.222 155.093 193.249L157.277 176.694L229.773 190.809L227.532 207.789C227.423 208.596 226.72 209.079 225.892 208.917L225.889 208.919Z" fill="#98E0FF"/>
<path d="M239.652 192.558C240.7 192.763 241.512 193.85 241.376 194.874L240.577 199.398L144.531 180.682L145.43 175.146C145.497 174.626 145.949 174.312 146.483 174.416L239.652 192.555V192.558Z" fill="#1E2B62"/>
<path d="M169.169 203.466L160.766 201.831C159.945 201.671 159.312 200.819 159.418 200.022L160.534 191.761C160.623 191.099 161.201 190.703 161.882 190.836L170.285 192.471C171.107 192.631 171.739 193.483 171.633 194.28L170.517 202.541C170.428 203.202 169.851 203.599 169.169 203.466Z" fill="#00A5F3"/>
<path d="M192.702 187.044C192.787 186.394 192.27 185.703 191.603 185.575L157.163 178.87C156.605 178.762 156.134 179.088 156.064 179.629C155.979 180.279 156.496 180.969 157.163 181.097L191.603 187.802C192.161 187.911 192.632 187.585 192.702 187.044Z" fill="#98E0FF"/>
<path d="M227.891 193.893C227.976 193.244 227.459 192.553 226.792 192.425L223.647 191.814C223.089 191.705 222.618 192.031 222.548 192.572C222.464 193.222 222.981 193.913 223.647 194.041L226.792 194.652C227.35 194.76 227.821 194.434 227.891 193.893Z" fill="#98E0FF"/>
<path d="M174.26 215.347L153.435 211.291C152.979 211.202 152.609 210.76 152.609 210.301C152.609 209.842 152.979 209.543 153.435 209.632L174.26 213.687C174.716 213.777 175.086 214.219 175.086 214.678C175.086 215.136 174.716 215.436 174.26 215.347Z" fill="#98E0FF"/>
<path d="M162.081 209.119L154.045 207.554C153.588 207.465 153.219 207.023 153.219 206.564C153.219 206.105 153.588 205.805 154.045 205.895L162.081 207.46C162.538 207.549 162.907 207.991 162.907 208.45C162.907 208.909 162.538 209.208 162.081 209.119Z" fill="#98E0FF"/>
<path d="M222.791 202.499C222.883 201.791 223.496 201.366 224.223 201.506L260.287 208.527C261.714 208.805 262.818 210.286 262.635 211.679L258.874 238.856C258.782 239.564 258.168 239.989 257.441 239.849L220.158 232.591C219.368 232.436 218.759 231.62 218.863 230.852L222.788 202.501L222.791 202.499Z" fill="white"/>
<path d="M226.443 229.908L227.088 225.432C227.138 225.075 226.856 224.691 226.486 224.618L224.213 224.176C223.911 224.118 223.653 224.292 223.612 224.584L222.967 229.06C222.916 229.417 223.199 229.801 223.568 229.874L225.841 230.316C226.143 230.374 226.402 230.2 226.443 229.908Z" fill="#98E0FF"/>
<path d="M232.22 231.027L233.24 223.348C233.288 222.991 233.003 222.612 232.636 222.542L230.363 222.1C230.059 222.039 229.8 222.218 229.759 222.515L228.74 230.193C228.691 230.551 228.976 230.93 229.344 231.002L231.619 231.444C231.923 231.505 232.182 231.326 232.223 231.029L232.22 231.027Z" fill="#98E0FF"/>
<path d="M238.021 232.161L239.389 222.732C239.439 222.374 239.157 221.99 238.787 221.918L236.514 221.476C236.212 221.418 235.954 221.592 235.913 221.884L234.545 231.313C234.492 231.671 234.777 232.057 235.147 232.127L237.42 232.569C237.722 232.627 237.98 232.453 238.021 232.161Z" fill="#98E0FF"/>
<path d="M243.801 233.28L245.361 221.523C245.41 221.165 245.125 220.786 244.758 220.713L242.485 220.271C242.18 220.211 241.922 220.39 241.881 220.687L240.318 232.445C240.27 232.802 240.555 233.181 240.922 233.254L243.197 233.696C243.501 233.756 243.76 233.577 243.801 233.28Z" fill="#00A5F3"/>
<path d="M249.584 234.405L250.787 225.126C250.833 224.768 250.55 224.391 250.183 224.319L247.908 223.877C247.601 223.817 247.343 223.995 247.304 224.295L246.099 233.574C246.053 233.932 246.335 234.309 246.703 234.381L248.978 234.823C249.285 234.883 249.543 234.705 249.582 234.405H249.584Z" fill="#98E0FF"/>
<path d="M255.383 235.54L257.477 220.611C257.528 220.254 257.243 219.87 256.875 219.8L254.602 219.358C254.298 219.3 254.042 219.474 254.001 219.768L251.904 234.697C251.854 235.055 252.139 235.439 252.506 235.509L254.781 235.951C255.086 236.009 255.342 235.835 255.383 235.54Z" fill="#98E0FF"/>
<path d="M222.261 207.136C222.225 207.136 222.189 207.134 222.15 207.129C221.713 207.069 221.406 206.665 221.469 206.228L222.001 202.393C222.073 201.842 222.351 201.364 222.786 201.05C223.232 200.729 223.8 200.613 224.375 200.724L237.713 203.32C238.146 203.405 238.431 203.825 238.346 204.257C238.262 204.692 237.844 204.972 237.409 204.89L224.071 202.294C223.931 202.267 223.805 202.284 223.72 202.347C223.645 202.4 223.6 202.487 223.585 202.605L223.054 206.448C222.998 206.849 222.655 207.139 222.264 207.139L222.261 207.136Z" fill="#1E2B62"/>
<path d="M231.746 235.645C231.695 235.645 231.644 235.64 231.591 235.63L220.009 233.374C218.798 233.138 217.912 231.933 218.074 230.742L220.796 211.079C220.856 210.642 221.257 210.335 221.697 210.395C222.134 210.456 222.441 210.859 222.378 211.296L219.656 230.957C219.61 231.302 219.939 231.73 220.311 231.802L231.893 234.058C232.325 234.143 232.61 234.563 232.526 234.995C232.451 235.377 232.118 235.642 231.741 235.642L231.746 235.645Z" fill="#1E2B62"/>
<path d="M257.723 240.675C257.583 240.675 257.438 240.661 257.294 240.634L235.687 236.427C235.254 236.342 234.969 235.922 235.054 235.49C235.138 235.055 235.559 234.775 235.991 234.857L257.598 239.064C257.738 239.091 257.861 239.072 257.948 239.011C258.023 238.958 258.069 238.871 258.083 238.753L261.844 211.571C261.97 210.61 261.141 209.508 260.134 209.313L242.726 205.924C242.293 205.84 242.008 205.419 242.093 204.987C242.177 204.552 242.598 204.272 243.03 204.354L260.439 207.743C262.267 208.098 263.663 209.987 263.427 211.784L259.666 238.965C259.593 239.516 259.313 239.994 258.878 240.308C258.542 240.55 258.141 240.675 257.716 240.675H257.723Z" fill="#1E2B62"/>
<path d="M242.585 213.53L226.174 210.335C225.707 210.243 225.328 209.789 225.328 209.32C225.328 208.852 225.707 208.543 226.174 208.634L242.585 211.83C243.051 211.922 243.43 212.376 243.43 212.844C243.43 213.313 243.051 213.622 242.585 213.53Z" fill="#98E0FF"/>
<path d="M234.973 208.683L226.736 207.079C226.27 206.987 225.891 206.533 225.891 206.064C225.891 205.596 226.27 205.287 226.736 205.378L234.973 206.982C235.439 207.074 235.818 207.528 235.818 207.997C235.818 208.465 235.439 208.774 234.973 208.683Z" fill="#00A5F3"/>
<path d="M390.901 300.968L364.171 295.933C363.997 295.899 363.941 296.048 363.941 296.205V319.086C363.941 321.276 348.755 324.01 348.605 323.692L348.586 326.109C348.586 326.561 348.98 327.037 349.482 327.133L349.815 327.199C349.815 327.199 349.82 327.199 349.823 327.199L372.234 331.563C373.275 331.766 374.301 331.732 375.244 331.517L387.565 328.696C389.782 328.189 391.183 326.443 391.183 324.24V301.336C391.183 301.181 391.075 300.997 390.901 300.964V300.968Z" fill="#1E2B62"/>
<path d="M361.235 294.029V316.914C361.235 319.17 359.793 320.945 357.525 321.477L349.213 323.428C348.669 323.556 348.855 324.324 349.457 324.44L372.296 328.887C373.322 329.087 374.337 329.08 375.267 328.867L384.477 326.759C386.762 326.237 388.219 324.457 388.219 322.189V299.28C388.219 299.186 388.134 299.094 388.03 299.075L361.428 293.896C361.324 293.877 361.24 293.935 361.24 294.029H361.235Z" fill="white"/>
<path d="M373.773 329.831C373.237 329.831 372.689 329.778 372.145 329.672L349.307 325.225C348.616 325.09 348.106 324.508 348.094 323.841C348.082 323.262 348.461 322.783 349.034 322.648L357.345 320.697C359.254 320.25 360.44 318.798 360.44 316.912V294.027C360.44 293.747 360.563 293.483 360.778 293.307C361 293.126 361.292 293.054 361.582 293.109L388.187 298.287C388.67 298.382 389.022 298.8 389.022 299.278V322.187C389.022 324.829 387.31 326.931 384.66 327.537L375.45 329.645C374.916 329.769 374.351 329.829 373.776 329.829L373.773 329.831ZM350.778 323.882L372.452 328.102C373.363 328.278 374.276 328.276 375.09 328.087L384.3 325.979C386.225 325.539 387.421 324.085 387.421 322.189V299.77L362.039 294.829V316.914C362.039 319.542 360.341 321.639 357.71 322.255L350.778 323.882Z" fill="#1E2B62"/>
<path d="M311.43 297.13L426.64 319.822C427.65 320.018 428.654 319.453 428.782 318.47L437.986 248.047C438.21 246.332 436.855 244.32 435.118 244.025L321.244 222.459L311.43 297.13Z" fill="#1E2B62"/>
<path d="M430.591 243.397C432.574 243.784 434.364 246.153 434.11 248.088L425.021 317.719C424.893 318.702 423.82 319.346 422.811 319.151L309.639 296.932C308.431 296.698 307.622 295.532 307.777 294.351L317.19 223.459C317.318 222.476 317.982 221.474 318.989 221.672L430.591 243.4V243.397Z" fill="#00A5F3"/>
<path d="M423.371 319.873C423.204 319.873 423.035 319.856 422.866 319.825L309.77 298.012C308.132 297.694 306.929 296.066 307.142 294.455L308.417 284.808C308.475 284.371 308.873 284.062 309.316 284.12C309.753 284.178 310.062 284.579 310.004 285.018L308.729 294.662C308.63 295.421 309.284 296.286 310.076 296.44L423.173 318.253C423.441 318.306 423.712 318.248 423.929 318.093C424.139 317.944 424.272 317.721 424.306 317.468L433.437 247.859C433.635 246.34 432.386 244.68 430.816 244.373L368.392 231.111C367.959 231.019 367.684 230.594 367.776 230.162C367.868 229.73 368.295 229.454 368.723 229.546L431.132 242.804C433.504 243.265 435.326 245.724 435.019 248.064L425.888 317.673C425.799 318.359 425.424 318.985 424.862 319.39C424.422 319.707 423.905 319.873 423.374 319.873H423.371Z" fill="#1E2B62"/>
<path d="M329.427 230.302C329.495 229.783 329.947 229.469 330.48 229.573L423.649 247.711C424.697 247.917 425.509 249.004 425.374 250.028L417.982 304.333C417.915 304.853 417.463 305.167 416.929 305.063L322.864 286.748C322.285 286.634 321.838 286.033 321.915 285.47L329.427 230.302Z" fill="white"/>
<path d="M329.427 230.302C329.495 229.783 329.947 229.469 330.48 229.573L423.649 247.711C424.697 247.917 425.509 249.004 425.374 250.028L417.982 304.333C417.915 304.853 417.463 305.167 416.929 305.063L322.864 286.748C322.285 286.634 321.838 286.033 321.915 285.47L329.427 230.302Z" fill="white"/>
<path d="M417.135 305.882C417.019 305.882 416.898 305.87 416.78 305.848L322.715 287.533C321.72 287.339 320.99 286.344 321.126 285.361L328.638 230.196C328.698 229.73 328.935 229.329 329.302 229.063C329.679 228.793 330.15 228.693 330.635 228.788L423.804 246.927C425.278 247.214 426.36 248.68 426.169 250.132L418.777 304.44C418.717 304.903 418.48 305.307 418.113 305.57C417.831 305.773 417.492 305.879 417.137 305.879L417.135 305.882ZM330.278 230.355C330.251 230.355 330.239 230.36 330.234 230.362L330.22 230.411L322.708 285.579C322.688 285.711 322.843 285.929 323.017 285.963L417.082 304.278C417.142 304.29 417.169 304.278 417.174 304.275L424.58 249.922C424.659 249.315 424.133 248.622 423.493 248.499L330.324 230.36C330.305 230.355 330.288 230.355 330.276 230.355H330.278Z" fill="#1E2B62"/>
<path d="M409.889 264.077L340.733 250.612C339.733 250.417 338.96 249.38 339.093 248.407L341.277 231.853L413.773 245.968L411.532 262.947C411.423 263.754 410.72 264.237 409.892 264.075L409.889 264.077Z" fill="#98E0FF"/>
<path d="M423.652 247.714C424.7 247.919 425.512 249.006 425.376 250.03L424.577 254.554L328.531 235.838L329.43 230.302C329.497 229.783 329.949 229.469 330.483 229.573L423.652 247.711V247.714Z" fill="#1E2B62"/>
<path d="M353.169 258.624L344.766 256.989C343.945 256.829 343.312 255.979 343.418 255.18L344.534 246.919C344.623 246.258 345.201 245.861 345.882 245.994L354.285 247.629C355.107 247.789 355.739 248.641 355.633 249.439L354.517 257.699C354.428 258.361 353.851 258.757 353.169 258.624Z" fill="#00A5F3"/>
<path d="M376.702 242.199C376.787 241.549 376.27 240.859 375.603 240.731L341.163 234.026C340.605 233.917 340.134 234.243 340.064 234.784C339.979 235.434 340.496 236.125 341.163 236.253L375.603 242.957C376.161 243.066 376.632 242.74 376.702 242.199Z" fill="#98E0FF"/>
<path d="M411.891 249.052C411.976 248.402 411.459 247.711 410.792 247.583L407.647 246.972C407.089 246.863 406.618 247.189 406.548 247.73C406.464 248.38 406.981 249.071 407.647 249.199L410.792 249.812C411.35 249.921 411.821 249.595 411.891 249.054V249.052Z" fill="#98E0FF"/>
<path d="M358.26 270.505L337.435 266.449C336.979 266.36 336.609 265.918 336.609 265.459C336.609 265 336.979 264.701 337.435 264.79L358.26 268.845C358.716 268.935 359.086 269.377 359.086 269.836C359.086 270.295 358.716 270.594 358.26 270.505Z" fill="#98E0FF"/>
<path d="M346.081 264.275L338.045 262.71C337.588 262.621 337.219 262.179 337.219 261.72C337.219 261.261 337.588 260.962 338.045 261.051L346.081 262.616C346.538 262.705 346.907 263.147 346.907 263.606C346.907 264.065 346.538 264.365 346.081 264.275Z" fill="#98E0FF"/>
<path d="M93.571 235.338L66.2782 230.891C66.1018 230.862 66.0439 231.017 66.0439 231.174V254.467C66.0439 256.696 50.5363 259.868 50.3865 259.549L50.3672 262.01C50.3672 262.469 50.7682 262.945 51.2803 263.032L51.6208 263.09C51.6208 263.09 51.6257 263.09 51.6281 263.09L74.5126 266.961C75.5755 267.14 76.6238 267.08 77.5852 266.838L90.1676 263.652C92.4333 263.08 93.8609 261.266 93.8609 259.025V235.707C93.8609 235.548 93.7498 235.364 93.5734 235.335L93.571 235.338Z" fill="#00A5F3"/>
<path d="M63.2768 229.029V252.327C63.2768 254.624 61.8033 256.467 59.4892 257.066L51.0011 259.264C50.4456 259.406 50.6364 260.184 51.2499 260.288L74.5693 264.232C75.6176 264.408 76.6539 264.377 77.6032 264.138L87.0067 261.756C89.3401 261.167 90.8281 259.317 90.8281 257.008V233.688C90.8281 233.592 90.7411 233.5 90.6348 233.483L63.47 228.887C63.3637 228.87 63.2768 228.93 63.2768 229.027V229.029Z" fill="white"/>
<path d="M75.8888 265.143C75.4105 265.143 74.9225 265.102 74.4394 265.02L51.1201 261.075C50.4293 260.959 49.9051 260.389 49.8761 259.723C49.852 259.136 50.2239 258.638 50.8037 258.489L59.2918 256.291C61.258 255.781 62.4803 254.262 62.4803 252.325V229.027C62.4803 228.749 62.601 228.488 62.8136 228.309C63.031 228.126 63.3208 228.049 63.6083 228.099L90.7707 232.693C91.2611 232.775 91.6306 233.203 91.6306 233.686V257.006C91.6306 259.679 89.8939 261.848 87.2078 262.529L77.8043 264.911C77.1955 265.065 76.5506 265.143 75.8912 265.143H75.8888ZM52.5332 259.694L74.7076 263.445C75.64 263.602 76.5748 263.575 77.4105 263.363L86.8141 260.981C88.7997 260.479 90.0316 258.957 90.0316 257.008V234.191L64.0817 229.8V252.325C64.0817 254.984 62.3595 257.148 59.6927 257.839L52.5332 259.694Z" fill="#1E2B62"/>
<path d="M12.4375 233.628L124.662 252.858L126.611 253.192L130.235 253.812C131.264 253.986 132.109 253.322 132.242 252.32L141.626 180.351C141.853 178.6 140.554 176.69 138.759 176.385L22.486 156.821L12.4399 233.628H12.4375Z" fill="#1E2B62"/>
<path d="M134.467 175.653C136.492 175.996 138.137 178.317 137.878 180.293L128.426 251.687C128.293 252.692 127.426 253.312 126.397 253.139L125.511 253.023L10.9527 233.608C9.71839 233.401 8.76426 232.147 8.92369 230.944L18.564 158.096C18.6968 157.092 19.4819 156.2 20.5109 156.374L134.465 175.651L134.467 175.653Z" fill="#00A5F3"/>
<path d="M126.739 253.967C126.582 253.967 126.423 253.952 126.263 253.926L125.408 253.815L10.8213 234.398C9.17638 234.12 7.92031 232.459 8.13288 230.84L17.7756 157.992C17.8795 157.193 18.2998 156.451 18.8988 156.009C19.4085 155.633 20.0317 155.483 20.6501 155.587L134.604 174.863C137.015 175.272 138.993 177.96 138.674 180.397L129.222 251.793C129.131 252.486 128.785 253.085 128.247 253.484C127.817 253.803 127.295 253.969 126.742 253.969L126.739 253.967ZM20.2563 157.152C20.1114 157.152 19.9761 157.198 19.8457 157.294C19.5921 157.48 19.4061 157.828 19.3578 158.2L9.71504 231.048C9.61359 231.821 10.2803 232.683 11.0846 232.821L125.643 252.235L126.498 252.346C126.817 252.399 127.09 252.346 127.29 252.196C127.478 252.056 127.597 251.844 127.631 251.583L137.083 180.187C137.29 178.597 135.901 176.706 134.331 176.441L20.3771 157.164C20.336 157.157 20.295 157.154 20.2539 157.154L20.2563 157.152Z" fill="#1E2B62"/>
<path d="M24.653 162.526C24.7182 162.021 25.1554 161.71 25.6747 161.797L116.066 177.088C117.083 177.259 117.87 178.293 117.74 179.286L110.57 231.99C110.505 232.495 110.068 232.807 109.549 232.72L18.2905 217.281C17.7277 217.187 17.2929 216.614 17.3678 216.069L24.6554 162.526H24.653Z" fill="white"/>
<path d="M102.715 193.247L35.6217 181.897C34.6507 181.733 33.9019 180.75 34.0299 179.805L36.1483 163.741L106.481 175.639L104.307 192.116C104.201 192.899 103.519 193.382 102.715 193.247Z" fill="#98E0FF"/>
<path d="M116.063 177.085C117.08 177.257 117.868 178.29 117.737 179.283L116.962 183.679L23.7812 167.9L24.6532 162.523C24.7185 162.018 25.1557 161.707 25.675 161.794L116.066 177.085H116.063Z" fill="#1E2B62"/>
<path d="M20.2061 196.009C20.1699 196.009 20.1337 196.007 20.0974 196.002C19.6602 195.942 19.3534 195.541 19.4138 195.101L23.8584 162.417C23.9188 161.965 24.1482 161.567 24.5057 161.301C24.8729 161.031 25.3343 160.927 25.8053 161.007L99.4953 173.441C99.9301 173.513 100.225 173.926 100.15 174.361C100.077 174.796 99.6644 175.09 99.2296 175.015L25.5396 162.581C25.4888 162.574 25.4647 162.581 25.4574 162.586L20.9984 195.316C20.9429 195.717 20.5999 196.007 20.2061 196.007V196.009Z" fill="#1E2B62"/>
<path d="M83.4043 229.094C83.3608 229.094 83.3149 229.089 83.269 229.082L48.5412 223.208C48.1064 223.136 47.8117 222.722 47.8866 222.285C47.9615 221.851 48.3746 221.556 48.8094 221.631L83.5372 227.505C83.972 227.58 84.2667 227.99 84.1918 228.427C84.1266 228.819 83.7884 229.094 83.4043 229.094Z" fill="#1E2B62"/>
<path d="M111.323 227.191C111.287 227.191 111.248 227.188 111.212 227.183C110.775 227.123 110.471 226.717 110.531 226.28L111.678 218.112C111.739 217.674 112.142 217.37 112.582 217.43C113.019 217.491 113.323 217.897 113.263 218.334L112.116 226.502C112.06 226.901 111.717 227.191 111.326 227.191H111.323Z" fill="#1E2B62"/>
<path d="M115.59 195.739C115.553 195.739 115.517 195.736 115.481 195.731C115.044 195.671 114.737 195.268 114.797 194.83L116.947 179.174C117.022 178.609 116.529 177.974 115.933 177.873L107.705 176.481C107.271 176.407 106.976 175.996 107.051 175.559C107.126 175.124 107.541 174.829 107.973 174.904L116.201 176.295C117.652 176.542 118.722 177.957 118.534 179.385L116.384 195.043C116.329 195.444 115.986 195.734 115.592 195.734L115.59 195.739Z" fill="#1E2B62"/>
<path d="M47.6894 189.344L39.537 187.964C38.7399 187.829 38.1264 187.022 38.2302 186.247L39.3124 178.228C39.3993 177.586 39.9573 177.19 40.6192 177.301L48.7715 178.68C49.5687 178.815 50.1822 179.622 50.0783 180.397L48.9962 188.416C48.9092 189.059 48.3512 189.455 47.6894 189.344Z" fill="#00A5F3"/>
<path d="M65.8734 204.665C65.9556 204.035 65.4555 203.38 64.8082 203.272L31.3944 197.62C30.8533 197.528 30.3968 197.854 30.3292 198.381C30.247 199.011 30.747 199.666 31.3944 199.774L64.8082 205.426C65.3493 205.518 65.8058 205.192 65.8734 204.665Z" fill="#98E0FF"/>
<path d="M70.514 172.888C70.5962 172.258 70.0962 171.603 69.4488 171.494L36.035 165.843C35.494 165.751 35.0374 166.077 34.9698 166.603C34.8877 167.234 35.3877 167.888 36.035 167.997L69.4488 173.649C69.9899 173.741 70.4464 173.415 70.514 172.888Z" fill="#98E0FF"/>
<path d="M104.659 178.662C104.741 178.032 104.241 177.377 103.594 177.269L100.543 176.752C100.002 176.66 99.5452 176.986 99.4776 177.513C99.3955 178.143 99.8955 178.798 100.543 178.906L103.594 179.423C104.135 179.515 104.591 179.189 104.659 178.662Z" fill="#98E0FF"/>
<path d="M64.3422 216.725C64.4243 216.095 63.9243 215.44 63.2769 215.331L29.8632 209.679C29.3221 209.588 28.8655 209.914 28.7979 210.44C28.7158 211.071 29.2158 211.725 29.8632 211.834L63.2769 217.486C63.818 217.578 64.2745 217.251 64.3422 216.725Z" fill="#98E0FF"/>
<path d="M72.4606 210.726L30.6288 203.649C30.0877 203.557 29.6312 203.884 29.5635 204.41C29.4814 205.04 29.9814 205.695 30.6288 205.804L72.4606 212.88C72.9993 212.972 73.4558 212.649 73.5258 212.125C73.6104 211.494 73.1104 210.835 72.4606 210.724V210.726Z" fill="#98E0FF"/>
<path d="M74.0939 198.683L32.1678 191.592C31.6268 191.5 31.1702 191.826 31.1026 192.352C31.0205 192.983 31.5205 193.637 32.1678 193.746L74.0939 200.837C74.6325 200.929 75.0891 200.606 75.1591 200.081C75.2437 199.451 74.7436 198.792 74.0939 198.681V198.683Z" fill="#98E0FF"/>
<path d="M83.5799 219.001C83.5364 219.001 83.4905 218.996 83.4446 218.989L82.8166 218.883C81.7634 218.704 80.9977 217.677 81.1426 216.641L83.7127 198.372C83.7755 197.92 84.0074 197.529 84.3625 197.268C84.7272 197.002 85.1862 196.899 85.6548 196.978L100.001 199.406C101.054 199.584 101.819 200.611 101.674 201.647L101.617 202.055C101.554 202.492 101.148 202.797 100.713 202.736C100.276 202.676 99.9715 202.27 100.032 201.833L100.09 201.425C100.112 201.263 99.9426 201.019 99.7324 200.983L85.3867 198.556C85.3335 198.546 85.3094 198.556 85.307 198.56L82.7272 216.866C82.7055 217.028 82.8746 217.272 83.0847 217.308L83.7127 217.414C84.1475 217.487 84.4422 217.9 84.3673 218.337C84.3021 218.728 83.9639 219.003 83.5799 219.003V219.001Z" fill="#1E2B62"/>
<path d="M99.8096 223.563L85.3359 221.114C84.7538 221.015 84.3045 220.423 84.3842 219.856L86.9712 201.461C87.0364 200.995 87.4446 200.707 87.9229 200.789L102.397 203.238C102.979 203.337 103.428 203.929 103.348 204.497L100.761 222.892C100.696 223.358 100.288 223.645 99.8096 223.563Z" fill="#00A5F3"/>
<path d="M49.0116 277.883L52.3619 243.086L77.4711 257.107L75.7199 278.907C75.331 283.892 71.5797 283.325 71.5797 283.325C66.1835 286.989 58.8717 286.011 53.6832 282.088L52.4803 281.18C50.4706 279.661 48.7918 280.402 49.0116 277.883Z" fill="#FFE9DD"/>
<path d="M63.8574 286.431C60.2172 286.431 56.4466 285.182 53.2001 282.728L51.9972 281.82C51.3861 281.358 50.7991 281.131 50.2798 280.931C49.2194 280.52 48.0189 280.057 48.2169 277.815C48.2169 277.813 48.2169 277.81 48.2169 277.808L51.5672 243.011C51.5938 242.743 51.7532 242.503 51.9924 242.38C52.2315 242.255 52.519 242.26 52.7533 242.39L77.8625 256.411C78.1355 256.563 78.2949 256.86 78.2707 257.174L76.5195 278.975C76.3673 280.914 75.7248 282.346 74.6112 283.233C73.5532 284.073 72.3624 284.158 71.7996 284.143C69.442 285.675 66.6908 286.431 63.8622 286.431H63.8574ZM49.8088 277.958C49.7194 278.999 49.8716 279.057 50.8571 279.438C51.4441 279.665 52.1735 279.948 52.9634 280.544L54.1663 281.453C59.3911 285.402 66.3671 285.899 71.1329 282.665C71.2996 282.552 71.5025 282.506 71.7005 282.537C71.7054 282.537 72.7609 282.67 73.6305 281.967C74.3745 281.366 74.8093 280.317 74.9228 278.849L76.633 257.558L53.0407 244.385L49.8088 277.96V277.958Z" fill="#1E2B62"/>
<path d="M90.279 204.101C83.4528 203.446 91.7694 210.796 66.7616 202.468C56.8024 199.152 61.4257 211.076 58.8411 210.223C49.2926 207.071 49.6211 207.168 44.8529 208.226C41.6958 208.926 39.4325 214.59 39.8455 218.902C40.3914 224.594 45.0171 226.234 48.6815 238.357C51.254 246.871 50.3337 251.95 53.6599 253.303C57.0247 254.672 59.73 250.199 63.5176 251.416C68.4186 252.994 67.0925 261.517 71.7762 265.254C74.728 267.609 81.7692 268.915 93.3419 263.838C95.2163 263.015 96.2477 260.966 95.784 258.971C95.1897 256.414 94.4216 253.187 93.4288 250.168C88.6993 235.772 83.762 232.369 85.7475 228.763C88.7886 223.237 99.3444 226.872 101.301 222.312C103.332 217.576 99.6246 204.997 90.2766 204.103L90.279 204.101Z" fill="#1E2B62"/>
<path d="M65.4087 227.635L67.2179 231.354C68.0706 233.108 68.8 234.915 69.4039 236.767C70.5344 240.243 72.5248 246.208 73.8944 249.462C75.9065 254.244 91.1604 249.075 91.1604 249.075L92.1822 246.208L93.9576 245.564C94.3006 245.438 94.6219 245.242 94.8586 244.965C95.448 244.267 95.489 243.313 95.0398 242.59C92.5856 238.646 87.4913 229.804 85.8487 221.978C85.8487 221.978 74.8147 218.684 65.4062 227.632L65.4087 227.635Z" fill="#FFE9DD"/>
<path d="M78.9891 252.283C76.2572 252.283 73.9431 251.657 73.1532 249.776C71.7619 246.467 69.728 240.361 68.6386 237.018C68.0493 235.207 67.327 233.42 66.4937 231.707L64.682 227.987C64.5299 227.673 64.5975 227.299 64.8511 227.058C74.4842 217.896 85.6028 221.077 86.0714 221.217C86.3516 221.302 86.5642 221.531 86.6245 221.819C88.2671 229.644 93.5281 238.658 95.7141 242.173C96.3591 243.211 96.26 244.542 95.4653 245.486C95.1586 245.851 94.7286 246.141 94.2262 246.322L92.8058 246.836L91.9097 249.348C91.8276 249.578 91.644 249.759 91.4121 249.836C90.3565 250.194 83.9747 252.283 78.9867 252.283H78.9891ZM66.3826 227.818L67.9333 231.007C68.8005 232.787 69.5493 234.642 70.1604 236.523C71.2402 239.844 73.2595 245.902 74.6267 249.155C75.8538 252.075 84.8757 250.307 90.5328 248.443L91.4242 245.943C91.5039 245.718 91.6802 245.542 91.9049 245.46L93.6803 244.815C93.9194 244.728 94.1151 244.602 94.2407 244.45C94.5885 244.04 94.6344 243.462 94.3542 243.013C91.6416 238.653 86.8975 230.289 85.1656 222.635C83.0907 222.176 74.1774 220.749 66.3777 227.814L66.3826 227.818Z" fill="#1E2B62"/>
<path d="M67.6558 240.468C67.6558 240.468 63.3151 231.519 59.6653 234.372C56.0155 237.227 61.0421 246.958 67.6558 240.468Z" fill="#FFE9DD"/>
<path d="M173.768 317.712C173.485 316.301 172.828 314.99 171.862 313.92C168.886 310.618 168.656 309.807 164.809 300.735C161.927 293.945 153.518 291.975 154.2 285.212C154.596 281.282 170.683 278.451 180.558 291.711C186.176 299.259 182.637 301.81 187.135 315.055L187.715 317.072C187.715 317.072 208.111 375.633 193.734 390.9C178.149 407.45 139.946 385.906 139.946 385.906L137.75 338.909C137.75 338.909 152.446 353.526 168.086 362.878C180.575 370.346 173.864 318.42 173.864 318.42L173.768 317.714V317.712Z" fill="#FFE9DD"/>
<path d="M176.744 397.924C172.022 397.924 166.674 397.076 160.77 395.373C149.314 392.069 139.644 386.651 139.548 386.598C139.308 386.463 139.154 386.214 139.142 385.939L136.946 338.942C136.932 338.614 137.12 338.307 137.422 338.174C137.724 338.041 138.077 338.106 138.311 338.338C138.458 338.483 153.12 352.997 168.493 362.189C170.256 363.242 171.121 362.677 171.403 362.491C176.957 358.851 174.488 329.518 173.068 318.521L172.976 317.847C172.717 316.584 172.128 315.412 171.266 314.456C168.403 311.282 167.995 310.316 164.809 302.797L164.067 301.048C162.896 298.29 160.734 296.353 158.645 294.479C155.727 291.863 152.971 289.392 153.398 285.134C153.548 283.653 155.089 282.402 157.63 281.699C162.352 280.393 173.355 280.707 181.193 291.235C184.45 295.609 184.756 298.408 185.181 302.285C185.51 305.28 185.918 309.007 187.887 314.799L188.479 316.852C189.305 319.219 208.856 376.007 194.312 391.448C190.256 395.755 184.302 397.926 176.744 397.926V397.924ZM140.719 385.417C144.741 387.589 178.993 405.382 193.148 390.349C207.03 375.609 187.157 317.912 186.954 317.332L186.363 315.274C184.351 309.352 183.93 305.529 183.594 302.456C183.181 298.696 182.908 296.211 179.913 292.187C172.592 282.352 162.415 282.033 158.058 283.238C156.026 283.801 155.053 284.673 154.992 285.291C154.645 288.74 156.995 290.846 159.715 293.286C161.833 295.184 164.232 297.336 165.543 300.423L166.285 302.174C169.442 309.632 169.773 310.412 172.457 313.386C173.517 314.562 174.242 316.004 174.553 317.557C174.556 317.574 174.558 317.588 174.56 317.605L174.657 318.311C175.193 322.465 179.681 358.982 172.285 363.829C171.379 364.423 169.843 364.858 167.676 363.564C154.966 355.963 142.753 344.782 138.644 340.879L140.724 385.42L140.719 385.417Z" fill="#1E2B62"/>
<path d="M97.8822 285.255C80.7321 279.724 52.6566 275.584 41.4124 276.965C28.929 278.499 14.8127 292.38 24.0859 347.997C25.9024 358.895 27.2526 368.735 29.1754 377.454C40.7747 394.238 56.1615 408.585 76.5701 419.014C85.5921 423.625 122.528 434.276 166.444 437.063C146.871 416.623 140.762 400.054 139.212 394.82C138.992 394.081 139.697 393.402 140.434 393.644L142.603 394.361C144.412 394.958 146.4 394.267 147.434 392.673C152.775 384.441 167.647 359.076 160.565 341.741C158.357 336.336 127.518 294.812 97.8846 285.255H97.8822Z" fill="#1E2B62"/>
<path d="M99.3917 357.286C99.3675 357.283 99.3458 357.278 99.3216 357.276L78.2366 355.619C58.9101 354.102 40.272 347.796 24.0325 337.253C23.9069 337.171 23.7813 337.089 23.6533 337.009C21.1073 335.374 17.9938 334.86 15.0565 335.596L12.1917 336.314C10.3873 336.765 8.71577 337.659 7.36067 338.929C7.04665 339.224 6.84375 339.449 6.84375 339.524L9.56362 355.138C21.6436 380.557 40.057 402.418 68.118 416.758C73.9128 419.719 91.4036 425.211 114.868 429.433C114.829 423.786 114.774 416.004 114.774 415.994V375.999C114.774 366.911 108.336 359.083 99.3893 357.288L99.3917 357.286Z" fill="#1E2B62"/>
<path d="M70.3851 428.904C38.3578 422.545 24.7392 414.898 14.9298 409.164C8.66879 405.505 4.82812 398.815 4.82812 391.588V344.031C4.82812 339.012 10.2679 335.86 14.6496 338.34C16.2656 339.253 17.8091 340.207 19.3019 341.178C35.4544 351.692 54.0249 357.95 73.2644 359.462L94.5161 361.131C103.48 362.914 109.934 370.749 109.934 379.85C109.934 379.85 109.768 432.182 109.125 432.607C106.197 434.549 70.3827 428.902 70.3827 428.902L70.3851 428.904Z" fill="white"/>
<path d="M94.9096 426.047C94.8468 426.047 94.784 426.04 94.7212 426.025C88.5375 424.53 82.6919 422.907 77.8199 421.335C77.3996 421.2 77.1677 420.748 77.3054 420.328C77.4406 419.907 77.8923 419.678 78.3126 419.813C83.1485 421.374 88.953 422.985 95.1004 424.47C95.5304 424.574 95.7937 425.006 95.6898 425.436C95.6004 425.803 95.2743 426.047 94.912 426.047H94.9096Z" fill="#1E2B62"/>
<path d="M78.0685 421.373C77.9864 421.373 77.9043 421.361 77.8221 421.335C73.3752 419.9 69.8944 418.564 67.7543 417.47C64.2832 415.698 60.8821 413.765 57.6405 411.729C57.2661 411.495 57.1526 411 57.3893 410.628C57.6236 410.253 58.1188 410.14 58.4908 410.377C61.6913 412.386 65.0513 414.294 68.4813 416.048C70.5176 417.089 74.008 418.424 78.3125 419.813C78.7328 419.948 78.9647 420.4 78.827 420.82C78.7183 421.159 78.4043 421.373 78.0661 421.373H78.0685Z" fill="#1E2B62"/>
<path d="M58.0616 411.853C57.9166 411.853 57.7693 411.814 57.6364 411.729C36.8123 398.646 20.4255 379.792 8.93007 355.69C8.73924 355.291 8.90833 354.813 9.30689 354.624C9.70545 354.434 10.1837 354.603 10.3721 355.001C21.7347 378.826 37.921 397.455 58.4843 410.374C58.8587 410.609 58.9722 411.104 58.7355 411.476C58.5833 411.717 58.3249 411.85 58.0567 411.85L58.0616 411.853Z" fill="#1E2B62"/>
<path d="M293.882 287.851C308.375 279.895 331.994 281.661 346.764 279.395C367.697 276.186 375.569 269.799 392.326 281.361C408.522 292.537 427.44 356.13 417.307 376.718C404.879 401.97 380.557 385.845 380.557 385.845C380.557 385.845 376.56 389.371 383.548 405.491C392.038 425.074 283.522 436.494 289.981 420.908C296.896 404.223 291.203 387.695 291.203 387.695L293.884 287.847L293.882 287.851Z" fill="#FFE02E"/>
<path d="M380.128 373.624C380.041 373.624 379.954 373.609 379.867 373.58C379.449 373.435 379.229 372.981 379.372 372.563C388.705 345.606 384.389 323.921 384.345 323.707C384.256 323.274 384.533 322.851 384.966 322.762C385.393 322.675 385.821 322.951 385.91 323.383C385.956 323.603 390.357 345.717 380.884 373.087C380.77 373.418 380.458 373.626 380.128 373.626V373.624Z" fill="#1E2B62"/>
<path d="M325.7 282.139C305.731 280.798 292.337 283.146 277.08 295.833C261.952 308.415 245.024 358.873 255.157 379.461C267.585 404.713 291.907 388.588 291.907 388.588L325.697 282.139H325.7Z" fill="#FFE02E"/>
<path d="M292.337 376.367C292.007 376.367 291.695 376.159 291.581 375.828C282.105 348.458 286.506 326.344 286.552 326.124C286.642 325.691 287.064 325.414 287.497 325.503C287.929 325.592 288.207 326.015 288.118 326.447C288.074 326.665 283.767 348.374 293.091 375.304C293.236 375.722 293.014 376.176 292.596 376.321C292.509 376.35 292.422 376.364 292.335 376.364L292.337 376.367Z" fill="#1E2B62"/>
<path d="M306.404 219.003C306.404 219.003 302.047 225.503 301.781 230.874C301.711 232.294 301.117 236.835 297.602 241.801C297.262 242.282 297.339 242.931 297.784 243.327L301.141 246.308C301.373 246.513 301.506 246.801 301.508 247.105C301.52 249.001 301.578 256.005 301.808 257.312C302.073 258.824 303.296 260.162 303.902 260.488C305.504 261.35 312.448 260.469 312.448 260.469C312.448 260.469 314.31 260.645 317.963 270.483C321.907 281.108 317.663 282.115 317.663 282.115C313.494 283.035 314.03 286.269 317.354 287.325C328.816 290.96 346.739 288.808 356.635 282.68C358.42 281.576 357.121 278.451 356.135 278.11C331.424 269.582 344.471 245.327 343.828 245.158C342.183 244.723 332.743 234.823 327.209 232.004C323.439 230.084 318.864 232.862 315.796 229.956L306.404 219.008V219.003Z" fill="#FFE9DD"/>
<path d="M330.283 289.875C325.517 289.875 320.947 289.3 317.111 288.083C315.092 287.442 313.831 286.037 313.901 284.503C313.969 282.998 315.309 281.812 317.491 281.332C317.491 281.332 317.995 281.165 318.387 280.37C318.899 279.337 319.425 276.716 317.213 270.758C314.382 263.13 312.72 261.57 312.321 261.287C310.722 261.48 305.171 262.075 303.524 261.188C302.669 260.729 301.324 259.171 301.022 257.447C300.79 256.126 300.727 249.776 300.71 247.107C300.71 247.032 300.674 246.96 300.611 246.904L297.253 243.924C296.507 243.262 296.377 242.148 296.951 241.339C300.546 236.26 300.942 231.697 300.983 230.835C301.258 225.304 305.558 218.831 305.742 218.558C305.882 218.35 306.109 218.22 306.357 218.205C306.614 218.191 306.848 218.292 307.012 218.483L316.375 229.398C317.797 230.722 319.633 230.627 321.754 230.519C323.679 230.42 325.672 230.318 327.573 231.287C330.923 232.992 335.508 237.083 339.192 240.371C341.204 242.165 343.484 244.199 344.037 244.382C344.254 244.44 344.443 244.59 344.552 244.796C344.762 245.192 344.665 245.46 344.206 246.752C342.986 250.179 339.75 259.28 343.52 267.118C345.735 271.724 350.069 275.166 356.397 277.351C357.409 277.699 358.156 279.206 358.296 280.462C358.436 281.728 357.984 282.781 357.054 283.358C350.32 287.529 339.904 289.877 330.281 289.877L330.283 289.875ZM312.452 259.667C312.476 259.667 312.503 259.667 312.527 259.669C313.237 259.737 315.263 260.896 318.715 270.2C320.599 275.274 320.95 278.977 319.756 281.206C319.024 282.573 317.969 282.858 317.85 282.887C316.43 283.201 315.534 283.846 315.503 284.573C315.474 285.199 316.119 286.088 317.599 286.556C328.802 290.109 346.486 288.017 356.218 281.994C356.586 281.767 356.755 281.361 356.723 280.783C356.673 279.829 356.098 278.965 355.871 278.854C349.131 276.528 344.489 272.811 342.083 267.806C338.022 259.367 341.423 249.807 342.704 246.211C342.781 245.991 342.861 245.769 342.926 245.583C342.001 244.998 340.535 243.704 338.134 241.561C334.708 238.506 330.02 234.323 326.853 232.709C325.331 231.934 323.636 232.021 321.843 232.113C319.549 232.231 317.177 232.352 315.254 230.528C315.234 230.509 315.215 230.49 315.196 230.468L306.514 220.345C305.353 222.278 302.785 226.966 302.587 230.91C302.541 231.85 302.113 236.818 298.263 242.257C298.159 242.404 298.183 242.6 298.324 242.723L301.681 245.704C302.082 246.059 302.314 246.566 302.316 247.092C302.341 251.126 302.43 256.184 302.604 257.167C302.821 258.408 303.884 259.56 304.287 259.778C305.239 260.287 309.577 260.022 312.355 259.671C312.389 259.667 312.423 259.664 312.457 259.664L312.452 259.667Z" fill="#1E2B62"/>
<path d="M318.518 244.641C317.39 244.641 316.603 244.419 316.581 244.412C316.158 244.286 315.917 243.842 316.042 243.417C316.168 242.994 316.61 242.752 317.035 242.876C317.235 242.934 322.016 244.245 324.192 238.927C325.021 236.902 324.835 235.231 323.687 234.342C322.472 233.403 320.463 233.562 318.907 234.724C318.499 235.028 317.752 236.069 317.354 236.712C317.119 237.086 316.627 237.2 316.252 236.968C315.878 236.733 315.762 236.241 315.996 235.866C316.112 235.683 317.141 234.048 317.95 233.444C320.103 231.835 322.866 231.683 324.666 233.077C326.4 234.42 326.777 236.832 325.673 239.53C323.897 243.871 320.617 244.636 318.52 244.636L318.518 244.641Z" fill="#1E2B62"/>
<path d="M297.465 202.91C299.692 199.191 302.09 195.998 309.414 194.563C314.431 193.58 322.608 197.263 326.634 201.516C326.97 201.872 327.504 201.884 327.787 201.531C328.651 200.444 330.707 197.988 332.526 197.773C337.794 197.15 343.188 203.941 345.106 207.434C346.507 209.985 348.867 215.752 350.058 222.455C350.133 222.873 350.517 223.184 350.93 223.145C352.517 222.993 355.698 223.003 358.524 225.083C363.56 228.792 363.014 234.224 362.957 234.889C362.273 242.63 354.367 248.349 348.372 251.453C344.304 253.559 342.777 253.858 340.384 254.412C340.246 254.443 340.101 254.433 339.966 254.387C337.85 254.697 334.253 254.856 330.246 253.474C323.878 251.276 324.359 240.765 324.359 240.765L325.161 238.782C325.647 237.582 325.717 236.227 325.224 235.029C323.721 231.372 318.178 234.118 317.972 234.077C307.542 231.92 303.856 228.882 301.962 226.812C295.172 219.395 292.073 211.917 297.467 202.913L297.465 202.91Z" fill="#1E2B62"/>
<path d="M300.503 367.906C300.528 367.904 300.554 367.899 300.578 367.896L323.291 366.114C344.111 364.481 366.749 363.638 384.242 352.293C384.377 352.207 384.513 352.117 384.65 352.03C387.392 350.269 391.433 349.419 395.233 349.856C395.233 349.856 397.595 350.296 398.317 350.627C400.037 351.419 401.11 352.905 401.827 354.735C401.996 355.165 402.284 357.651 402.284 357.733L397.269 365.597C384.257 392.948 364.858 420.82 334.63 436.249C328.388 439.435 308.569 441.652 283.931 441.901C283.858 435.894 283.931 431.09 283.931 431.081V388.042C283.931 378.263 290.866 369.841 300.503 367.908V367.906Z" fill="#1E2B62"/>
<path d="M332.521 437.957C364.113 425.755 375.024 418.125 384.628 410.551C391.933 404.791 398.778 398.945 402.368 390.96V358.798C402.368 353.398 396.508 350.007 391.785 352.676C390.046 353.659 388.382 354.685 386.773 355.731C369.372 367.047 349.367 365.45 328.641 367.076L305.75 368.873C296.092 370.79 289.141 379.222 289.141 389.014L290.409 441.899C290.409 441.899 319.477 442.996 332.521 437.957Z" fill="white"/>
<path d="M325.081 440.759C324.723 440.759 324.397 440.517 324.305 440.155C324.199 439.727 324.457 439.293 324.887 439.184C350.069 432.858 382.369 418.449 397.51 396.984C397.763 396.621 398.263 396.537 398.623 396.791C398.983 397.044 399.07 397.544 398.816 397.904C383.425 419.726 350.738 434.336 325.279 440.732C325.213 440.749 325.148 440.756 325.083 440.756L325.081 440.759Z" fill="#1E2B62"/>
<path d="M141.247 146.648L63.7574 132.405C62.5545 132.183 61.6342 131.248 61.4989 130.111L55.7596 81.8215C55.5567 80.1163 57.1534 78.742 58.9554 79.0729L136.445 93.316C137.648 93.5382 138.399 94.5019 138.534 95.6419L144.121 143.622C144.324 145.327 143.049 146.982 141.247 146.651V146.648Z" fill="white"/>
<path d="M141.714 147.491C141.513 147.491 141.31 147.471 141.107 147.435L63.6154 133.192C62.0792 132.909 60.8835 131.68 60.7072 130.204L54.9679 81.9151C54.8471 80.891 55.2143 79.8911 55.9776 79.1762C56.794 78.4105 57.9631 78.0772 59.1033 78.2874L136.595 92.5304C138.074 92.8009 139.149 93.9868 139.334 95.5471L144.922 143.527C145.062 144.706 144.653 145.875 143.827 146.648C143.238 147.201 142.504 147.491 141.716 147.491H141.714ZM141.395 145.863C142.037 145.981 142.475 145.72 142.728 145.483C143.178 145.061 143.407 144.384 143.33 143.715L137.743 95.7355C137.663 95.0616 137.243 94.2766 136.303 94.1027L58.811 79.8597C58.166 79.7414 57.5163 79.9225 57.0694 80.3428C56.6757 80.7123 56.4921 81.205 56.5549 81.7292L62.2942 130.018C62.3884 130.806 63.0502 131.465 63.9029 131.622L141.395 145.865V145.863Z" fill="#1E2B62"/>
<path d="M136.449 93.3155L135.727 93.1826L142.082 146.665C143.509 146.517 144.616 145.336 144.447 143.902L138.707 95.6124C138.572 94.4724 137.652 93.5377 136.449 93.3179V93.3155Z" fill="#1E2B62"/>
<path d="M105.473 96.8536L85.3976 93.0037C85.1246 92.9505 84.9169 92.738 84.8879 92.4795L84.6995 90.8878C84.6512 90.4893 85.028 90.1681 85.4483 90.2502L104.958 93.9915C105.381 94.0736 105.705 94.4045 105.753 94.8055L105.949 96.4479C105.978 96.6991 105.741 96.9019 105.475 96.8512L105.473 96.8536Z" fill="#98E0FF"/>
<path d="M108.752 152.323L105.035 112.857C105.044 110.906 103.701 109.297 101.735 108.901L90.7662 106.698C88.8483 106.314 86.9135 107.838 86.9062 109.742L90.5827 158.632C90.5778 159.76 91.3532 160.69 92.4885 160.917L108.255 163.347C108.851 163.468 109.494 163.381 110.071 163.1L122.909 157.289C123.83 156.842 123.772 155.594 122.822 155.386L108.755 152.321L108.752 152.323Z" fill="#98E0FF"/>
<path d="M109.111 160.932C108.698 160.932 108.347 160.613 108.314 160.196L107.596 150.967C107.562 150.527 107.891 150.141 108.33 150.107C108.77 150.073 109.157 150.402 109.19 150.841L109.908 160.07C109.942 160.51 109.613 160.896 109.173 160.93C109.152 160.93 109.132 160.93 109.111 160.93V160.932Z" fill="white"/>
<path d="M295.192 176.342L217.703 162.099C216.5 161.876 215.579 160.942 215.444 159.804L209.705 111.515C209.502 109.81 211.099 108.435 212.901 108.766L290.39 123.009C291.593 123.232 292.344 124.195 292.48 125.335L298.067 173.315C298.27 175.02 296.994 176.675 295.192 176.344V176.342Z" fill="white"/>
<path d="M295.659 177.185C295.459 177.185 295.256 177.166 295.05 177.129L217.561 162.886C216.024 162.604 214.829 161.374 214.652 159.899L208.913 111.609C208.792 110.585 209.16 109.585 209.923 108.871C210.739 108.105 211.908 107.772 213.049 107.982L290.538 122.225C292.017 122.495 293.091 123.681 293.275 125.241L298.862 173.221C299.002 174.4 298.594 175.567 297.768 176.342C297.178 176.895 296.444 177.185 295.657 177.185H295.659ZM295.34 175.555C295.983 175.673 296.42 175.412 296.674 175.175C297.123 174.753 297.352 174.076 297.275 173.407L291.688 125.427C291.608 124.754 291.188 123.969 290.248 123.795L212.759 109.552C212.114 109.433 211.464 109.614 211.017 110.035C210.623 110.404 210.44 110.897 210.503 111.419L216.242 159.708C216.336 160.495 216.998 161.155 217.851 161.312L295.343 175.555H295.34Z" fill="#1E2B62"/>
<path d="M290.394 123.007L289.672 122.874L296.027 176.356C297.455 176.209 298.561 175.028 298.392 173.593L292.653 125.304C292.517 124.164 291.597 123.229 290.394 123.009V123.007Z" fill="#1E2B62"/>
<path d="M259.41 126.545L239.335 122.695C239.062 122.642 238.854 122.429 238.825 122.171L238.637 120.579C238.589 120.181 238.966 119.859 239.386 119.942L258.896 123.683C259.319 123.765 259.642 124.096 259.691 124.497L259.886 126.139C259.915 126.39 259.679 126.593 259.413 126.543L259.41 126.545Z" fill="#98E0FF"/>
<path d="M262.697 182.015L258.98 142.549C258.99 140.597 257.647 138.989 255.68 138.592L244.712 136.39C242.794 136.006 240.859 137.53 240.852 139.433L244.528 188.324C244.523 189.451 245.299 190.381 246.434 190.608L262.2 193.038C262.796 193.159 263.439 193.072 264.016 192.792L276.855 186.981C277.775 186.534 277.717 185.285 276.768 185.077L262.7 182.012L262.697 182.015Z" fill="#98E0FF"/>
<path d="M263.056 190.623C262.643 190.623 262.293 190.305 262.259 189.887L261.541 180.658C261.508 180.218 261.836 179.832 262.276 179.798C262.713 179.767 263.102 180.093 263.136 180.532L263.853 189.761C263.887 190.201 263.558 190.587 263.119 190.621C263.097 190.621 263.078 190.621 263.056 190.621V190.623Z" fill="white"/>
<path d="M429.364 208.441L351.875 194.198C350.672 193.976 349.751 193.041 349.616 191.904L343.877 143.615C343.674 141.909 345.271 140.535 347.073 140.866L424.562 155.109C425.765 155.331 426.516 156.295 426.652 157.435L432.239 205.415C432.442 207.12 431.166 208.775 429.364 208.444V208.441Z" fill="white"/>
<path d="M429.826 209.284C429.625 209.284 429.422 209.264 429.217 209.228L351.725 194.985C350.189 194.702 348.993 193.473 348.817 191.997L343.077 143.708C342.957 142.682 343.324 141.684 344.087 140.969C344.903 140.204 346.075 139.87 347.213 140.08L424.705 154.323C426.183 154.594 427.258 155.78 427.441 157.34L433.029 205.32C433.169 206.499 432.76 207.668 431.934 208.441C431.345 208.994 430.611 209.284 429.823 209.284H429.826ZM346.536 141.614C346.027 141.614 345.539 141.798 345.181 142.133C344.787 142.503 344.604 142.996 344.667 143.52L350.406 191.809C350.5 192.596 351.162 193.256 352.015 193.413L429.507 207.656C430.147 207.774 430.586 207.516 430.84 207.276C431.289 206.854 431.519 206.177 431.442 205.508L425.854 157.528C425.775 156.855 425.354 156.07 424.415 155.896L346.923 141.653C346.792 141.629 346.662 141.616 346.534 141.616L346.536 141.614Z" fill="#1E2B62"/>
<path d="M424.558 155.106L423.836 154.974L430.191 208.456C431.619 208.308 432.725 207.127 432.556 205.693L426.817 157.403C426.681 156.263 425.761 155.329 424.558 155.109V155.106Z" fill="#1E2B62"/>
<path d="M393.582 158.647L373.507 154.797C373.234 154.743 373.026 154.531 372.997 154.272L372.809 152.681C372.761 152.282 373.137 151.961 373.558 152.043L393.068 155.784C393.49 155.867 393.814 156.197 393.862 156.598L394.058 158.241C394.087 158.492 393.85 158.695 393.585 158.644L393.582 158.647Z" fill="#98E0FF"/>
<path d="M396.861 214.114L393.144 174.648C393.154 172.697 391.811 171.088 389.844 170.692L378.876 168.489C376.958 168.105 375.023 169.629 375.016 171.533L378.692 220.423C378.687 221.551 379.463 222.481 380.598 222.708L396.364 225.138C396.961 225.259 397.603 225.172 398.18 224.891L411.019 219.08C411.939 218.633 411.881 217.385 410.932 217.177L396.864 214.112L396.861 214.114Z" fill="#98E0FF"/>
<path d="M397.228 222.725C396.815 222.725 396.465 222.406 396.431 221.989L395.713 212.76C395.68 212.32 396.008 211.934 396.448 211.9C396.882 211.866 397.274 212.195 397.308 212.634L398.025 221.863C398.059 222.303 397.73 222.689 397.291 222.723C397.269 222.723 397.25 222.723 397.228 222.723V222.725Z" fill="white"/>
</g>
<defs>
<clipPath id="clip0_3073_38701">
<rect width="442" height="442" fill="white"/>
</clipPath>
</defs>
</svg>
