<svg width="387" height="318" viewBox="0 0 387 318" fill="none" xmlns="http://www.w3.org/2000/svg">
<g clip-path="url(#clip0_3214_22271)">
<path d="M236.38 64.2448L253.648 114.803L265.516 117.119C265.516 117.119 247.399 156.51 216.872 149.91C186.345 143.309 193.055 117.119 193.055 117.119L199.515 116.593C203.379 116.277 206.031 112.552 205.061 108.786L197.801 80.6197C197.801 80.6197 227.382 56.7376 236.372 64.2367L236.38 64.2448Z" fill="#FFE9DD"/>
<path d="M223.653 151.456C221.414 151.456 219.094 151.222 216.701 150.703C206.7 148.541 199.554 144.079 195.463 137.446C189.561 127.882 192.165 117.362 192.278 116.925C192.367 116.593 192.65 116.35 192.997 116.317L199.457 115.791C201.057 115.661 202.521 114.835 203.45 113.523C204.38 112.212 204.687 110.559 204.283 109.005L197.023 80.8383C196.942 80.5306 197.056 80.2066 197.298 80.0042C198.527 79.0162 227.501 55.798 236.896 63.6292C237.009 63.7264 237.098 63.8478 237.146 63.9936L254.261 114.107L265.668 116.334C265.91 116.382 266.121 116.536 266.234 116.763C266.347 116.981 266.355 117.249 266.25 117.467C266.08 117.84 250.283 151.464 223.661 151.464L223.653 151.456ZM193.717 117.88C193.28 120.14 192.043 128.838 196.845 136.612C200.702 142.856 207.493 147.059 217.04 149.124C243.969 154.947 261.327 123.59 264.318 117.718L253.485 115.605C253.202 115.548 252.967 115.346 252.87 115.07L235.683 64.7306C228.658 59.4018 207.048 74.2786 198.713 80.9274L205.843 108.583C206.369 110.608 205.973 112.746 204.76 114.455C203.547 116.155 201.664 117.233 199.578 117.403L193.717 117.88Z" fill="#1E2B62"/>
<path d="M229.159 4.15479C236.16 6.25228 242.069 11.7025 244.737 18.5133C246.104 22.0118 246.653 25.7856 247.947 29.3084C249.248 32.8312 251.552 36.2812 255.085 37.5526C256.856 38.1924 258.78 38.2248 260.599 38.6864C264.253 39.6096 267.487 42.4602 268.4 46.1207C269.306 49.7812 267.543 54.0733 264.107 55.6363C265.385 58.8028 264.706 62.6739 262.426 65.2168C260.146 67.7597 256.379 68.861 253.097 67.9297C252.975 75.2831 247.623 81.8023 241.059 85.1064C234.494 88.4106 226.911 88.9937 219.571 88.8155C205.665 88.4835 191.679 85.568 179.359 79.0893C176.173 77.413 173.053 75.4693 170.725 72.724C168.396 69.9786 166.925 66.3262 167.475 62.771C162.567 59.6451 157.757 55.9684 155.041 50.8178C152.333 45.6672 152.276 38.7269 156.294 34.5238C159.544 31.1225 164.694 30.1102 167.968 26.7412C170.814 23.8177 171.792 19.6146 173.255 15.8003C175.09 11.0303 177.944 6.51953 182.083 3.53122C187.136 -0.121162 193.911 -0.874314 199.796 0.93163C202.998 1.91154 205.108 3.77417 207.8 5.58011C210.403 7.32937 213.701 4.52732 216.474 3.85515C220.63 2.85095 225.052 2.91574 229.151 4.1467L229.159 4.15479Z" fill="#1E2B62"/>
<path d="M225.385 79.7453C223.049 85.398 219.516 90.6539 214.682 94.3953C209.847 98.1368 203.63 100.259 197.559 99.554C187.397 98.3717 179.45 89.5363 176.208 79.8182C172.966 70.1082 173.524 59.5884 174.211 49.3682C174.211 49.3682 178.577 34.0137 189.968 28.9521C192.134 51.2794 230.487 34.8154 220.349 66.221C220.349 66.221 227.358 57.7015 231.796 58.1874C236.59 58.7057 240.625 63.0464 240.883 67.8731C241.15 72.6997 237.876 77.4049 233.381 79.1622C230.842 80.1502 228.385 80.8143 225.394 79.7453H225.385Z" fill="#FFE9DD"/>
<path d="M199.887 100.493C199.071 100.493 198.262 100.445 197.462 100.355C187.817 99.2379 179.175 91.2772 175.44 80.0771C172.028 69.8488 172.788 58.4624 173.403 49.3112C173.403 49.2546 173.419 49.1979 173.435 49.1412C173.621 48.5014 178.035 33.3655 189.636 28.2068C189.871 28.1015 190.145 28.1177 190.372 28.2473C190.598 28.3769 190.744 28.6117 190.768 28.8709C191.673 38.2164 199.127 40.3139 207.018 42.541C212.806 44.1769 218.797 45.8613 221.44 50.8094C223.081 53.8868 223.292 57.936 222.055 63.119C224.601 60.5275 228.684 57.029 231.877 57.3772C237.003 57.936 241.401 62.6169 241.684 67.8242C241.958 72.91 238.587 77.9877 233.664 79.9151C231.473 80.7654 228.91 81.5915 225.838 80.7411C223.267 86.6935 219.589 91.6254 215.175 95.0348C210.607 98.5657 205.15 100.493 199.887 100.493ZM175.011 49.5137C174.413 58.5029 173.678 69.6706 176.976 79.5669C179.878 88.2565 187.397 97.5615 197.656 98.752C203.226 99.3999 209.249 97.5777 214.197 93.7553C218.562 90.3863 222.168 85.4301 224.65 79.4373C224.811 79.0405 225.264 78.838 225.668 78.9838C228.255 79.907 230.43 79.4535 233.09 78.4088C237.383 76.7324 240.325 72.3188 240.083 67.9214C239.84 63.4753 236.089 59.4747 231.715 58.9969C228.433 58.6487 222.847 64.4634 220.979 66.739C220.729 67.0386 220.308 67.1196 219.969 66.9334C219.629 66.7471 219.468 66.3422 219.589 65.9778C221.65 59.5881 221.796 54.8829 220.034 51.5869C217.713 47.2461 212.313 45.7236 206.597 44.1121C199.192 42.0227 190.841 39.666 189.321 30.1747C179.539 35.2443 175.375 48.3799 175.028 49.5137H175.011Z" fill="#1E2B62"/>
<path d="M226.373 74.0036C226.138 74.0036 225.912 73.9064 225.75 73.712C225.467 73.3719 225.508 72.8617 225.847 72.5702C227.61 71.0963 229.113 69.3551 230.326 67.4034C230.56 67.0228 231.062 66.9013 231.442 67.1442C231.822 67.3791 231.935 67.8812 231.7 68.2618C230.399 70.3674 228.782 72.2381 226.89 73.8254C226.737 73.955 226.551 74.0117 226.373 74.0117V74.0036Z" fill="#1E2B62"/>
<path d="M127.683 137.956C136.714 125.736 150.514 117.969 165.631 116.576C174.241 115.783 185.034 114.941 197.072 114.317C197.735 116.487 198.664 118.585 199.861 120.569C203.353 126.319 208.81 130.749 214.906 133.494C221.001 136.247 227.817 137.487 234.478 136.685C240.994 135.899 247.203 133.113 251.706 128.254C255.376 124.294 259.782 119.5 260.914 114.301C271.836 114.924 280.438 115.823 290.689 117.435C310.253 120.504 327.101 132.368 337.781 149.075C361.088 185.51 387.006 223.969 387.006 268.341C387.006 318.785 266.112 314.404 266.112 314.404H148.242L72.8711 250.257C72.8711 250.257 96.332 180.368 127.683 137.948V137.956Z" fill="#FFE02E"/>
<path d="M276.86 306.2C277.749 312.218 266.115 314.404 266.115 314.404H230.051L176.346 307.488C176.346 307.488 172.15 238.174 248.079 246.548C248.079 246.548 270.99 266.51 276.86 306.2Z" fill="#FFE9DD"/>
<path d="M266.105 315.214H230.04C230.04 315.214 229.967 315.214 229.935 315.214L176.23 308.298C175.842 308.249 175.551 307.934 175.527 307.545C175.511 307.253 173.983 278.14 193.151 259.861C205.738 247.86 224.244 243.114 248.157 245.746C248.602 245.795 248.917 246.191 248.869 246.637C248.82 247.082 248.416 247.398 247.979 247.349C224.567 244.766 206.498 249.366 194.275 261.02C177.249 277.249 177.023 302.37 177.12 306.767L230.089 313.586H266.096C266.541 313.586 266.905 313.951 266.905 314.396C266.905 314.841 266.541 315.206 266.096 315.206L266.105 315.214Z" fill="#1E2B62"/>
<path d="M215.895 308.565C215.499 308.565 215.152 308.274 215.095 307.869C214.489 303.706 215.451 299.098 217.803 294.895C219.736 291.445 222.581 288.206 226.494 284.991C227.254 284.367 228.143 283.671 229.178 283.217C229.59 283.039 230.067 283.217 230.245 283.638C230.423 284.051 230.245 284.529 229.825 284.707C228.984 285.08 228.224 285.671 227.521 286.254C223.762 289.34 221.045 292.425 219.21 295.697C217.027 299.584 216.13 303.828 216.688 307.642C216.752 308.087 216.445 308.492 216.001 308.557C215.96 308.557 215.92 308.565 215.879 308.565H215.895Z" fill="#1E2B62"/>
<path d="M198.536 307.569C198.536 307.569 198.463 307.569 198.422 307.569C197.978 307.504 197.67 307.099 197.735 306.654C198.398 301.973 199.352 296.49 201.414 291.324C203.58 285.89 206.774 281.435 210.654 278.455C211.01 278.18 211.511 278.253 211.786 278.601C212.061 278.957 211.988 279.468 211.64 279.735C207.986 282.545 204.971 286.756 202.917 291.923C200.92 296.936 199.991 302.297 199.344 306.881C199.287 307.286 198.94 307.577 198.544 307.577L198.536 307.569Z" fill="#1E2B62"/>
<path d="M184.63 307.569C184.226 307.569 183.878 307.27 183.83 306.857C181.404 286.522 194.752 273.823 194.889 273.694C195.212 273.386 195.73 273.41 196.029 273.734C196.336 274.058 196.312 274.577 195.989 274.876C195.859 274.998 183.11 287.17 185.438 306.662C185.495 307.108 185.172 307.513 184.735 307.561C184.703 307.561 184.67 307.561 184.638 307.561L184.63 307.569Z" fill="#1E2B62"/>
<path d="M45.1901 318H241.083C242.247 318 243.403 317.7 244.357 317.044C246.597 315.498 247.373 312.736 246.492 310.371C244.179 305.52 239.41 303.812 232.352 303.812H32.3359L34.931 310.881C36.5317 315.165 40.6224 318.008 45.1901 318.008V318Z" fill="#1E2B62"/>
<path d="M35.619 313.019L0.597385 224.982C-0.114042 223.184 -0.227224 221.167 0.45995 219.361C1.59177 216.373 4.41322 214.494 7.47721 214.494H127.87C135.122 214.494 141.589 219.07 144.015 225.921L176.57 318H42.9515C39.7178 318 36.8155 316.024 35.619 313.019Z" fill="#1E2B62"/>
<path d="M339.594 248.613H339.578L251.992 246.945C251.547 246.937 251.191 246.564 251.199 246.119C251.207 245.673 251.571 245.325 252.008 245.325H252.024L339.61 246.993C340.055 247.002 340.411 247.374 340.403 247.82C340.394 248.265 340.031 248.613 339.594 248.613Z" fill="#1E2B62"/>
<path d="M310.342 243.64C309.994 243.64 309.671 243.414 309.566 243.065C306.405 232.529 302.047 222.342 296.614 212.785C295.111 210.137 293.704 208.922 292.2 208.971C291.756 208.995 291.384 208.639 291.368 208.186C291.352 207.74 291.699 207.368 292.152 207.351C295.022 207.27 296.865 209.951 298.021 211.984C303.519 221.645 307.925 231.946 311.11 242.596C311.239 243.025 310.997 243.478 310.568 243.608C310.487 243.632 310.415 243.64 310.334 243.64H310.342Z" fill="#1E2B62"/>
</g>
<defs>
<clipPath id="clip0_3214_22271">
<rect width="387" height="318" fill="white"/>
</clipPath>
</defs>
</svg>
