<svg width="620" height="597" viewBox="0 0 620 597" fill="none" xmlns="http://www.w3.org/2000/svg">
<g clip-path="url(#clip0_81_66)">
<path d="M24.6345 134.771V411.037" stroke="#BCC5DC" stroke-width="1.49754" stroke-linecap="round" stroke-linejoin="round"/>
<path d="M46.2214 121.675V397.948" stroke="#BCC5DC" stroke-width="1.49754" stroke-linecap="round" stroke-linejoin="round"/>
<path d="M67.8086 108.579V384.852" stroke="#BCC5DC" stroke-width="1.49754" stroke-linecap="round" stroke-linejoin="round"/>
<path d="M89.3955 95.4905V371.756" stroke="#BCC5DC" stroke-width="1.49754" stroke-linecap="round" stroke-linejoin="round"/>
<path d="M110.982 82.3945V358.66" stroke="#BCC5DC" stroke-width="1.49754" stroke-linecap="round" stroke-linejoin="round"/>
<path d="M132.57 69.2986V345.564" stroke="#BCC5DC" stroke-width="1.49754" stroke-linecap="round" stroke-linejoin="round"/>
<path d="M154.164 56.2026V332.476" stroke="#BCC5DC" stroke-width="1.49754" stroke-linecap="round" stroke-linejoin="round"/>
<path d="M175.751 43.1067V319.38" stroke="#BCC5DC" stroke-width="1.49754" stroke-linecap="round" stroke-linejoin="round"/>
<path d="M197.338 30.0181V306.284" stroke="#BCC5DC" stroke-width="1.49754" stroke-linecap="round" stroke-linejoin="round"/>
<path d="M218.925 16.9221V293.188" stroke="#BCC5DC" stroke-width="1.49754" stroke-linecap="round" stroke-linejoin="round"/>
<path d="M240.512 3.82617V280.099" stroke="#BCC5DC" stroke-width="1.49754" stroke-linecap="round" stroke-linejoin="round"/>
<path d="M0.748779 173.49L261.201 23.1145" stroke="#BCC5DC" stroke-width="1.49754" stroke-linecap="round" stroke-linejoin="round"/>
<path d="M0.748779 197.495L261.201 47.1201" stroke="#BCC5DC" stroke-width="1.49754" stroke-linecap="round" stroke-linejoin="round"/>
<path d="M1.54248 222.886L261.994 72.5107" stroke="#BCC5DC" stroke-width="1.49754" stroke-linecap="round" stroke-linejoin="round"/>
<path d="M0.748779 248.18L261.201 97.8118" stroke="#BCC5DC" stroke-width="1.49754" stroke-linecap="round" stroke-linejoin="round"/>
<path d="M0.748779 273.413L261.201 123.045" stroke="#BCC5DC" stroke-width="1.49754" stroke-linecap="round" stroke-linejoin="round"/>
<path d="M0.748779 298.175L261.201 147.8" stroke="#BCC5DC" stroke-width="1.49754" stroke-linecap="round" stroke-linejoin="round"/>
<path d="M0.748779 323.131L261.201 172.756" stroke="#BCC5DC" stroke-width="1.49754" stroke-linecap="round" stroke-linejoin="round"/>
<path d="M0.748779 348.095L261.201 197.72" stroke="#BCC5DC" stroke-width="1.49754" stroke-linecap="round" stroke-linejoin="round"/>
<path d="M0.748779 373.359L261.201 222.991" stroke="#BCC5DC" stroke-width="1.49754" stroke-linecap="round" stroke-linejoin="round"/>
<path d="M0.748779 398.315L261.201 247.94" stroke="#BCC5DC" stroke-width="1.49754" stroke-linecap="round" stroke-linejoin="round"/>
<path d="M499.571 433.904V213.706C499.571 209.798 497.482 206.188 494.098 204.234L262.226 71.2827C262.166 71.2528 262.099 71.2977 262.107 71.3576V296.804L499.579 433.912L499.571 433.904Z" fill="#2F3F64" stroke="#2F3F64" stroke-width="1.49754" stroke-miterlimit="10" stroke-linecap="round"/>
<path d="M267.917 67.8084L262.406 71.0131C262.264 71.0955 262.264 71.3052 262.406 71.3875L494.098 204.234C497.482 206.188 499.571 209.797 499.571 213.706V433.904L505.441 430.49C508.549 428.685 510.458 425.361 510.458 421.767V206.877C510.458 203.276 508.534 199.944 505.411 198.139L278.033 67.7934C274.903 65.9889 271.039 65.9889 267.917 67.8084Z" fill="#BCC5DC" stroke="#2F3F64" stroke-width="1.49754" stroke-miterlimit="10" stroke-linecap="round"/>
<path d="M310.05 543.322L499.167 434.136C499.347 434.031 499.347 433.769 499.167 433.664L262.242 296.872C262.159 296.827 262.054 296.827 261.972 296.872L68.2205 408.738C68.0408 408.843 68.0408 409.105 68.2205 409.21L300.511 543.322C303.461 545.029 307.108 545.029 310.058 543.322H310.05Z" fill="#BCC5DC" stroke="#2F3F64" stroke-width="1.49754" stroke-miterlimit="10" stroke-linecap="round"/>
<path d="M490.077 480.837L472.316 470.579L309.916 564.339C307.048 565.994 303.506 565.994 300.638 564.339L95.0638 445.652L77.303 455.91C73.0875 458.344 73.0875 464.439 77.303 466.872L297.479 593.991C302.308 596.776 308.253 596.776 313.083 593.991L490.084 491.799C494.3 489.365 494.3 483.27 490.084 480.837H490.077Z" fill="#BCC5DC"/>
<path d="M300.638 543.404L67.9657 409.075C67.8909 409.03 67.801 409.082 67.801 409.165V424.058C67.801 426.297 68.9991 428.371 70.9384 429.486L300.638 562.101C303.506 563.756 307.048 563.756 309.915 562.101L496.434 454.413C498.373 453.29 499.571 451.223 499.571 448.984V433.904L309.915 543.404C307.048 545.059 303.506 545.059 300.638 543.404Z" fill="#2F3F64" stroke="#2F3F64" stroke-width="1.49754" stroke-miterlimit="10" stroke-linecap="round"/>
<path d="M493.244 424.717V215.286C493.244 211.572 491.26 208.135 488.04 206.278L273.465 83.308C271.332 82.0725 268.688 83.7423 268.883 86.2057L267.498 294.378L493.244 424.709V424.717Z" fill="white" stroke="#2F3F64" stroke-width="1.49754" stroke-miterlimit="10" stroke-linecap="round"/>
<path d="M67.8086 359.124L110.983 335.141V301.986L132.57 346.657V271.87L154.157 327.961V315.299C154.157 311.563 156.148 308.118 159.383 306.254L202.018 281.642" stroke="#2F3F64" stroke-width="3.74384" stroke-linecap="round" stroke-linejoin="round"/>
<path d="M80.8596 200.977L48.3106 219.651C47.0152 220.37 46.2066 221.718 46.1841 223.2L45.2856 290.53C45.2407 293.727 48.6925 295.749 51.4629 294.154L108.931 260.976C110.204 260.242 110.99 258.879 110.99 257.412V190.809C110.99 187.671 107.628 185.687 104.88 187.207" fill="white"/>
<path d="M80.8596 200.977L48.3106 219.651C47.0152 220.37 46.2066 221.718 46.1841 223.2L45.2856 290.53C45.2407 293.727 48.6925 295.749 51.4629 294.154L108.931 260.976C110.204 260.242 110.99 258.879 110.99 257.412V190.809C110.99 187.671 107.628 185.687 104.88 187.207" stroke="#2F3F64" stroke-width="1.49754" stroke-miterlimit="10" stroke-linecap="round"/>
<path d="M58.2092 247.221L69.5231 265.618L98.0587 215.765" stroke="#FEC95C" stroke-width="3.74384" stroke-linecap="round" stroke-linejoin="round"/>
<path d="M189.588 139.615L134.778 171.258C133.505 171.992 132.719 173.347 132.719 174.815L132.584 240.168C132.584 243.342 136.014 245.327 138.762 243.739L216.866 198.648C218.139 197.915 218.925 196.552 218.925 195.084V129.807C218.925 126.639 215.496 124.655 212.748 126.242" fill="#BCC5DC"/>
<path d="M189.588 139.615L134.778 171.258C133.505 171.992 132.719 173.347 132.719 174.815L132.584 240.168C132.584 243.342 136.014 245.327 138.762 243.739L216.866 198.648C218.139 197.915 218.925 196.552 218.925 195.084V129.807C218.925 126.639 215.496 124.655 212.748 126.242" stroke="#2F3F64" stroke-width="1.49754" stroke-miterlimit="10" stroke-linecap="round"/>
<path d="M144.116 190.801L207.694 154.089" stroke="#2F3F64" stroke-width="3.74384" stroke-linecap="round" stroke-linejoin="round"/>
<path d="M144.116 205.065L207.694 168.353" stroke="#2F3F64" stroke-width="3.74384" stroke-linecap="round" stroke-linejoin="round"/>
<path d="M144.116 219.329L175.901 200.977" stroke="#2F3F64" stroke-width="3.74384" stroke-linecap="round" stroke-linejoin="round"/>
<path d="M337.747 141.053L293.735 115.647C289.362 113.124 283.903 116.276 283.896 121.323L283.694 280.586C283.694 282.915 284.922 285.071 286.928 286.247L360.105 329.293C364.493 331.869 370.012 328.694 369.989 323.61L369.24 162.992C369.233 160.656 367.983 158.507 365.961 157.339" stroke="#2F3F64" stroke-width="1.49754" stroke-miterlimit="10" stroke-linecap="round"/>
<path d="M448.767 205.02L401.677 177.832C397.304 175.309 391.846 178.461 391.838 183.508L391.636 342.771C391.636 345.1 392.864 347.256 394.871 348.432L468.048 391.479C472.436 394.054 477.954 390.88 477.932 385.796L477.183 225.177C477.176 222.841 475.925 220.692 473.903 219.524" stroke="#2F3F64" stroke-width="1.49754" stroke-miterlimit="10" stroke-linecap="round"/>
<path d="M397.888 236.319C397.888 258.834 413.905 285.64 433.53 296.116C452.998 306.508 468.662 296.872 468.662 274.678C468.662 252.485 452.998 225.866 433.53 215.159C413.912 204.361 397.888 213.803 397.888 236.319Z" fill="#BCC5DC"/>
<path d="M428.333 266.157V265.79C428.371 261.904 428.73 258.984 429.404 257.037C430.085 255.091 431.051 253.743 432.302 252.994C433.552 252.245 435.05 251.736 436.802 251.482C437.858 251.317 438.801 250.957 439.64 250.403C440.478 249.849 441.145 249.041 441.631 247.977C442.118 246.914 442.365 245.581 442.365 243.971C442.365 241.972 441.953 240.01 441.137 238.094C440.321 236.177 439.22 234.44 437.85 232.897C436.472 231.347 434.952 230.112 433.268 229.198C431.8 228.397 430.385 227.97 429.03 227.925C427.667 227.873 426.529 228.352 425.615 229.348C424.702 230.344 424.17 232.014 424.028 234.35L417.237 230.651C417.379 227.244 418.18 224.691 419.625 223.006C421.07 221.314 422.98 220.468 425.361 220.46C427.734 220.453 430.37 221.246 433.268 222.834C436.413 224.556 439.146 226.772 441.474 229.475C443.795 232.178 445.592 235.121 446.865 238.303C448.138 241.485 448.775 244.668 448.775 247.842C448.775 250.081 448.475 251.953 447.884 253.443C447.285 254.933 446.439 256.094 445.323 256.918C444.215 257.741 442.874 258.28 441.302 258.535C439.737 258.804 438.479 259.306 437.536 260.032C436.592 260.759 435.903 261.852 435.477 263.312C435.05 264.78 434.818 266.764 434.78 269.28V269.647L428.341 266.172L428.333 266.157ZM431.77 286.172C430.445 285.461 429.307 284.315 428.363 282.72C427.412 281.125 426.941 279.575 426.941 278.055C426.941 276.535 427.412 275.495 428.363 274.918C429.314 274.341 430.452 274.416 431.77 275.128C433.088 275.839 434.226 276.992 435.177 278.587C436.121 280.182 436.6 281.732 436.6 283.244C436.6 284.248 436.383 285.049 435.941 285.648C435.507 286.254 434.923 286.606 434.196 286.719C433.47 286.831 432.661 286.651 431.77 286.172Z" fill="#FEC95C" stroke="#2F3F64" stroke-width="1.49754" stroke-miterlimit="10"/>
<path d="M403.616 303.116L465.3 338.661C466.146 339.147 467.202 338.541 467.202 337.56V333.209C467.202 332.026 466.573 330.933 465.547 330.342L404.298 295.045C403.437 294.551 402.366 295.172 402.366 296.16V300.945C402.366 301.836 402.845 302.667 403.616 303.116Z" fill="#BCC5DC" stroke="#2F3F64" stroke-width="1.49754" stroke-miterlimit="10" stroke-linecap="round"/>
<path d="M317.748 178.192L360.008 203.111C360.854 203.598 361.91 202.991 361.91 202.01V197.66C361.91 196.477 361.281 195.384 360.255 194.792L318.429 170.12C317.568 169.626 316.497 170.247 316.497 171.236V176.02C316.497 176.911 316.976 177.743 317.748 178.192Z" fill="#BCC5DC" stroke="#2F3F64" stroke-width="1.49754" stroke-miterlimit="10" stroke-linecap="round"/>
<path d="M403.616 318.541L465.3 354.085C466.146 354.572 467.202 353.966 467.202 352.985V348.634C467.202 347.451 466.573 346.358 465.547 345.766L404.298 310.47C403.437 309.975 402.366 310.597 402.366 311.585V316.37C402.366 317.261 402.845 318.092 403.616 318.541Z" fill="#BCC5DC" stroke="#2F3F64" stroke-width="1.49754" stroke-miterlimit="10" stroke-linecap="round"/>
<path d="M403.616 333.966L439.715 354.43C440.561 354.916 441.616 354.31 441.616 353.329V348.979C441.616 347.796 440.987 346.702 439.962 346.111L404.298 325.902C403.437 325.407 402.366 326.029 402.366 327.017V331.802C402.366 332.693 402.845 333.524 403.616 333.973V333.966Z" fill="#BCC5DC" stroke="#2F3F64" stroke-width="1.49754" stroke-miterlimit="10" stroke-linecap="round"/>
<path d="M485.667 447.719L470.556 456.442C469.486 457.063 468.842 458.217 468.887 459.452C468.977 461.96 471.695 463.48 473.881 462.237L488.991 453.634C490.032 453.043 490.676 451.934 490.676 450.729V450.617C490.676 448.048 487.89 446.438 485.667 447.726V447.719Z" fill="#BCC5DC" stroke="#2F3F64" stroke-width="1.49754" stroke-miterlimit="10" stroke-linecap="round"/>
<path d="M459.879 462.724L444.769 471.447C443.698 472.069 443.054 473.222 443.099 474.457C443.189 476.966 445.907 478.486 448.093 477.243L463.204 468.639C464.244 468.048 464.888 466.94 464.888 465.734V465.622C464.888 463.054 462.103 461.444 459.879 462.732V462.724Z" fill="#BCC5DC" stroke="#2F3F64" stroke-width="1.49754" stroke-miterlimit="10" stroke-linecap="round"/>
<path d="M301.49 153.11L301.491 153.11C304.271 154.566 306.761 157.251 308.511 160.392C310.261 163.532 311.248 167.089 311.062 170.263C310.876 173.442 309.642 175.446 307.909 176.317C306.169 177.191 303.798 176.988 301.202 175.473L301.201 175.472C298.677 174.001 296.393 171.488 294.739 168.568C293.085 165.649 292.08 162.356 292.08 159.345C292.08 156.339 293.15 154.105 294.813 152.962C296.466 151.826 298.801 151.701 301.49 153.11Z" fill="#FEC95C" stroke="#FEC95C" stroke-width="0.748769"/>
<path d="M295.839 161.277L299.186 167.215L307.22 162.513" stroke="#2F3F64" stroke-width="1.49754" stroke-linecap="round" stroke-linejoin="round"/>
<path d="M317.748 208.465L360.008 233.384C360.854 233.87 361.91 233.264 361.91 232.283V227.933C361.91 226.75 361.281 225.656 360.255 225.065L318.429 200.393C317.568 199.899 316.497 200.52 316.497 201.509V206.293C316.497 207.184 316.976 208.015 317.748 208.465Z" fill="#BCC5DC" stroke="#2F3F64" stroke-width="1.49754" stroke-miterlimit="10" stroke-linecap="round"/>
<path fill-rule="evenodd" clip-rule="evenodd" d="M301.664 183.059C307.385 186.054 311.818 194.043 311.436 200.565C311.054 207.087 306.337 209.184 301.013 206.076C295.824 203.051 291.706 195.803 291.706 189.626C291.706 183.448 296.108 180.146 301.664 183.059Z" fill="#BCC5DC"/>
<path d="M295.839 191.55L299.186 197.488L307.22 192.793" stroke="#2F3F64" stroke-width="1.49754" stroke-linecap="round" stroke-linejoin="round"/>
<path d="M317.748 238.737L360.008 263.656C360.854 264.143 361.91 263.537 361.91 262.556V258.205C361.91 257.022 361.281 255.929 360.255 255.338L318.429 230.666C317.568 230.171 316.497 230.793 316.497 231.781V236.566C316.497 237.457 316.976 238.288 317.748 238.737Z" fill="#BCC5DC" stroke="#2F3F64" stroke-width="1.49754" stroke-miterlimit="10" stroke-linecap="round"/>
<path fill-rule="evenodd" clip-rule="evenodd" d="M301.664 213.332C307.385 216.327 311.818 224.316 311.436 230.838C311.054 237.36 306.337 239.456 301.013 236.349C295.824 233.324 291.706 226.076 291.706 219.898C291.706 213.721 296.108 210.419 301.664 213.332Z" fill="#BCC5DC"/>
<path d="M295.839 221.83L299.186 227.768L307.22 223.066" stroke="#2F3F64" stroke-width="1.49754" stroke-linecap="round" stroke-linejoin="round"/>
<path d="M317.748 269.018L360.008 293.937C360.854 294.423 361.91 293.817 361.91 292.836V288.486C361.91 287.303 361.281 286.209 360.255 285.618L318.429 260.946C317.568 260.452 316.497 261.073 316.497 262.062V266.846C316.497 267.737 316.976 268.568 317.748 269.018Z" fill="#BCC5DC" stroke="#2F3F64" stroke-width="1.49754" stroke-miterlimit="10" stroke-linecap="round"/>
<path fill-rule="evenodd" clip-rule="evenodd" d="M301.664 243.612C307.385 246.607 311.818 254.596 311.436 261.118C311.054 267.64 306.337 269.737 301.013 266.629C295.824 263.604 291.706 256.356 291.706 250.179C291.706 244.001 296.108 240.699 301.664 243.612Z" fill="#BCC5DC"/>
<path d="M295.839 252.103L299.186 258.041L307.22 253.338" stroke="#2F3F64" stroke-width="1.49754" stroke-linecap="round" stroke-linejoin="round"/>
<path d="M566.631 373.643H579.749V469.014C579.749 472.638 576.807 475.573 573.19 475.573C569.566 475.573 566.631 472.63 566.631 469.014V373.643Z" fill="#BCC5DC" stroke="#2F3F64" stroke-width="1.49754" stroke-miterlimit="10" stroke-linecap="round"/>
<path d="M579.749 469.014V373.643H576.59L573.19 374.751V475.573C576.814 475.573 579.749 472.638 579.749 469.014Z" fill="#2F3F64" stroke="#2F3F64" stroke-width="1.49754" stroke-miterlimit="10" stroke-linecap="round"/>
<path d="M571.401 268.501C570.495 268.486 569.589 268.516 568.698 268.568C591.078 270.732 608.921 297.501 609.176 328.402C609.423 357.724 593.617 380.584 573.422 382.097C574.238 382.149 575.055 382.187 575.878 382.187C599.652 382.187 618.813 358.773 618.813 328.47C618.813 296.475 597.652 268.883 571.401 268.501Z" fill="#2F3F64" stroke="#2F3F64" stroke-width="1.49754" stroke-miterlimit="10" stroke-linecap="round"/>
<path d="M528.159 327.848C530.585 358.51 549.873 382.187 571.236 382.187C592.598 382.187 609.43 358.75 609.176 328.402C608.906 296.363 589.745 268.763 566.271 268.426C542.655 268.082 525.591 295.442 528.159 327.848Z" fill="#FEC95C" stroke="#2F3F64" stroke-width="1.49754" stroke-miterlimit="10" stroke-linecap="round"/>
<path d="M534.696 327.893C536.598 353.748 552.18 373.875 569.506 373.898C586.758 373.913 600.363 353.981 599.936 328.343C599.494 301.507 583.98 278.609 565.216 278.362C546.362 278.115 532.704 300.818 534.688 327.893H534.696Z" fill="white" stroke="#2F3F64" stroke-width="1.49754" stroke-miterlimit="10" stroke-linecap="round"/>
<path d="M539.331 327.923C537.474 302.016 549.956 280.122 567.574 278.527C566.796 278.437 566.009 278.37 565.216 278.362C546.362 278.115 532.704 300.818 534.688 327.893C536.59 353.748 552.172 373.875 569.499 373.898C570.255 373.898 571.004 373.845 571.752 373.77C555.384 372.108 541.098 352.64 539.331 327.923Z" fill="#2F3F64"/>
<path fill-rule="evenodd" clip-rule="evenodd" d="M564.265 343.73C564.213 343.67 564.16 343.603 564.123 343.528L553.55 325.22C553.228 324.659 553.408 323.947 553.962 323.625L580.536 308.283C581.09 307.969 581.801 308.163 582.123 308.725L592.696 327.032C592.741 327.107 592.771 327.182 592.793 327.257C592.958 327.519 593.123 327.781 593.28 328.051C597.907 336.07 595.271 346.276 587.387 350.828C579.502 355.381 569.342 352.565 564.714 344.546C564.557 344.277 564.407 344 564.272 343.73H564.265Z" fill="#BCC5DC" stroke="#2F3F64" stroke-width="1.49754" stroke-miterlimit="10" stroke-linecap="round"/>
<path d="M552.721 309.253L568.673 300.044C569.925 299.321 571.531 299.751 572.253 301.003L576.188 307.818C576.911 309.07 576.48 310.675 575.229 311.398L559.283 320.604C558.032 321.327 556.426 320.896 555.703 319.645L551.769 312.83C551.046 311.578 551.476 309.972 552.728 309.25L552.721 309.253Z" fill="#BCC5DC" stroke="#2F3F64" stroke-width="1.49754" stroke-miterlimit="10" stroke-linecap="round"/>
<path d="M557.833 306.247L551.012 304.36" stroke="#2F3F64" stroke-width="1.49754" stroke-linecap="round" stroke-linejoin="round"/>
<path d="M563.569 302.937L565.336 296.086" stroke="#2F3F64" stroke-width="1.49754" stroke-linecap="round" stroke-linejoin="round"/>
<path d="M561.352 338.736L552.779 343.685" stroke="#2F3F64" stroke-width="1.49754" stroke-linecap="round" stroke-linejoin="round"/>
<path d="M557.998 332.925C553.265 335.658 547.171 333.966 544.393 329.151" stroke="#2F3F64" stroke-width="1.49754" stroke-linecap="round" stroke-linejoin="round"/>
<path d="M586.571 316.43C591.303 313.697 592.89 307.572 590.105 302.765" stroke="#2F3F64" stroke-width="1.49754" stroke-linecap="round" stroke-linejoin="round"/>
<path d="M564.707 344.546C559.974 347.279 558.387 353.404 561.172 358.211" stroke="#2F3F64" stroke-width="1.49754" stroke-linecap="round" stroke-linejoin="round"/>
<path d="M593.28 328.051C595.346 326.86 597.668 326.508 599.861 326.89" stroke="#2F3F64" stroke-width="1.49754" stroke-linecap="round" stroke-linejoin="round"/>
<path d="M567.252 315.958L578.993 336.302" stroke="#2F3F64" stroke-width="1.49754" stroke-linecap="round" stroke-linejoin="round"/>
<path d="M476.022 86.0634C477.206 86.7448 477.932 88.0027 477.932 89.3655L477.977 140.611C477.977 143.554 474.794 145.388 472.249 143.921L459.512 136.568C458.127 135.767 456.397 136.77 456.397 138.365V153.25C456.397 154.995 454.084 155.609 453.222 154.089L438.06 127.366C436.248 124.168 433.612 121.518 430.43 119.683L329.601 61.5562C327.908 60.5828 326.868 58.7783 326.868 56.824V1.86433C326.868 1.01073 327.796 0.471616 328.537 0.898414L434.788 62.2451" fill="white"/>
<path d="M476.022 86.0634C477.205 86.7448 477.932 88.0027 477.932 89.3655L477.977 140.611C477.977 143.554 474.794 145.388 472.249 143.921L459.512 136.568C458.127 135.767 456.397 136.77 456.397 138.365V153.25C456.397 154.995 454.084 155.609 453.222 154.089L438.06 127.365C436.248 124.168 433.612 121.518 430.43 119.683L329.601 61.5562C327.908 60.5828 326.868 58.7783 326.868 56.824V1.86433C326.868 1.01073 327.796 0.471616 328.537 0.898414L434.788 62.2451" stroke="#2F3F64" stroke-width="1.49754" stroke-miterlimit="10" stroke-linecap="round"/>
<path d="M348.455 28.8274L456.397 91.1474" stroke="#2F3F64" stroke-width="3.74384" stroke-miterlimit="10" stroke-linecap="round"/>
<path d="M348.455 41.2944L456.397 103.607" stroke="#2F3F64" stroke-width="3.74384" stroke-miterlimit="10" stroke-linecap="round"/>
<path d="M348.455 53.7539L413.216 91.1474" stroke="#2F3F64" stroke-width="3.74384" stroke-miterlimit="10" stroke-linecap="round"/>
<path d="M230.853 401.041L190.704 424.275C188.959 425.286 188.952 427.802 190.682 428.827L269.437 475.393C270.253 475.873 271.264 475.88 272.08 475.408L313.075 451.785C314.835 450.774 314.842 448.243 313.098 447.232L233.474 401.048C232.658 400.576 231.654 400.576 230.838 401.048L230.853 401.041Z" fill="#2F3F64" stroke="#2F3F64" stroke-width="1.49754" stroke-miterlimit="10" stroke-linecap="round"/>
<path d="M187.612 359.177L200.251 366.118L213.204 359.079L200.648 352.108L187.612 359.177Z" stroke="#2F3F64" stroke-width="1.49754" stroke-linecap="round" stroke-linejoin="round"/>
<path d="M207.012 349.068L219.599 356.01L232.485 349.001L219.988 342.03L207.012 349.068Z" stroke="#2F3F64" stroke-width="1.49754" stroke-linecap="round" stroke-linejoin="round"/>
<path d="M226.323 339.005L238.85 345.946L251.676 338.968L239.239 332.004L226.323 339.005Z" stroke="#2F3F64" stroke-width="1.49754" stroke-linecap="round" stroke-linejoin="round"/>
<path d="M245.551 328.994L258.011 335.935L270.777 328.986L258.4 322.023L245.551 328.994Z" stroke="#2F3F64" stroke-width="1.49754" stroke-linecap="round" stroke-linejoin="round"/>
<path d="M205.252 369.48L217.839 376.391L230.733 369.345L218.229 362.412L205.252 369.48Z" stroke="#2F3F64" stroke-width="1.49754" stroke-linecap="round" stroke-linejoin="round"/>
<path d="M224.571 359.364L237.098 366.283L249.932 359.267L237.495 352.333L224.571 359.364Z" stroke="#2F3F64" stroke-width="1.49754" stroke-linecap="round" stroke-linejoin="round"/>
<path d="M243.799 349.301L256.274 356.212L269.04 349.233L256.663 342.3L243.799 349.301Z" stroke="#2F3F64" stroke-width="1.49754" stroke-linecap="round" stroke-linejoin="round"/>
<path d="M262.945 339.29L275.352 346.201L288.067 339.252L275.742 332.311L262.945 339.29Z" stroke="#2F3F64" stroke-width="1.49754" stroke-linecap="round" stroke-linejoin="round"/>
<path d="M222.819 379.738L235.353 386.619L248.187 379.573L235.742 372.67L222.819 379.738Z" stroke="#2F3F64" stroke-width="1.49754" stroke-linecap="round" stroke-linejoin="round"/>
<path d="M242.054 369.622L254.529 376.503L267.303 369.495L254.918 362.584L242.054 369.622Z" stroke="#2F3F64" stroke-width="1.49754" stroke-linecap="round" stroke-linejoin="round"/>
<path d="M261.201 359.559L273.615 366.44L286.337 359.454L274.005 352.55L261.201 359.559Z" stroke="#2F3F64" stroke-width="1.49754" stroke-linecap="round" stroke-linejoin="round"/>
<path d="M280.257 349.54L292.619 356.414L305.273 349.465L293.001 342.562L280.257 349.54Z" stroke="#2F3F64" stroke-width="1.49754" stroke-linecap="round" stroke-linejoin="round"/>
<path d="M240.31 389.951L339.087 447.142L351.599 440.096L253.174 382.875L240.31 389.951Z" stroke="#2F3F64" stroke-width="1.49754" stroke-linecap="round" stroke-linejoin="round"/>
<path d="M259.463 379.835L271.878 386.679L284.607 379.671L272.267 372.797L259.463 379.835Z" stroke="#2F3F64" stroke-width="1.49754" stroke-linecap="round" stroke-linejoin="round"/>
<path d="M278.527 369.765L290.889 376.616L303.551 369.637L291.279 362.756L278.527 369.765Z" stroke="#2F3F64" stroke-width="1.49754" stroke-linecap="round" stroke-linejoin="round"/>
<path d="M297.501 359.746L309.803 366.59L322.413 359.641L310.193 352.767L297.501 359.746Z" stroke="#2F3F64" stroke-width="1.49754" stroke-linecap="round" stroke-linejoin="round"/>
<path d="M276.797 389.996L289.16 396.817L301.829 389.802L289.549 382.958L276.797 389.996Z" stroke="#2F3F64" stroke-width="1.49754" stroke-linecap="round" stroke-linejoin="round"/>
<path d="M295.779 379.933L308.081 386.747L320.69 379.768L308.47 372.924L295.779 379.933Z" stroke="#2F3F64" stroke-width="1.49754" stroke-linecap="round" stroke-linejoin="round"/>
<path d="M314.67 369.907L326.92 376.728L339.469 369.772L327.309 362.936L314.67 369.907Z" stroke="#2F3F64" stroke-width="1.49754" stroke-linecap="round" stroke-linejoin="round"/>
<path d="M294.049 400.12L306.359 406.911L318.976 399.895L306.748 393.081L294.049 400.12Z" stroke="#2F3F64" stroke-width="1.49754" stroke-linecap="round" stroke-linejoin="round"/>
<path d="M312.948 390.049L325.205 396.84L337.762 389.854L325.595 383.04L312.948 390.049Z" stroke="#2F3F64" stroke-width="1.49754" stroke-linecap="round" stroke-linejoin="round"/>
<path d="M331.765 380.023L343.962 386.814L356.459 379.865L344.344 373.052L331.765 380.023Z" stroke="#2F3F64" stroke-width="1.49754" stroke-linecap="round" stroke-linejoin="round"/>
<path d="M311.233 410.198L323.491 416.959L336.048 409.944L323.873 403.16L311.233 410.198Z" stroke="#2F3F64" stroke-width="1.49754" stroke-linecap="round" stroke-linejoin="round"/>
<path d="M330.05 400.127L342.255 406.881L354.759 399.902L342.637 393.119L330.05 400.127Z" stroke="#2F3F64" stroke-width="1.49754" stroke-linecap="round" stroke-linejoin="round"/>
<path d="M348.784 390.101L360.929 396.855L373.374 389.906L361.311 383.123L348.784 390.101Z" stroke="#2F3F64" stroke-width="1.49754" stroke-linecap="round" stroke-linejoin="round"/>
<path d="M328.335 420.232L340.54 426.963L353.052 419.947L340.93 413.193L328.335 420.232Z" stroke="#2F3F64" stroke-width="1.49754" stroke-linecap="round" stroke-linejoin="round"/>
<path d="M347.077 410.161L359.229 416.885L371.674 409.906L359.611 403.152L347.077 410.161Z" stroke="#2F3F64" stroke-width="1.49754" stroke-linecap="round" stroke-linejoin="round"/>
<path d="M365.736 400.135L377.829 406.858L390.221 399.91L378.211 393.156L365.736 400.135Z" stroke="#2F3F64" stroke-width="1.49754" stroke-linecap="round" stroke-linejoin="round"/>
<path d="M345.37 430.228L357.522 436.922L369.982 429.906L357.912 423.182L345.37 430.228Z" stroke="#2F3F64" stroke-width="1.49754" stroke-linecap="round" stroke-linejoin="round"/>
<path d="M364.037 420.149L376.129 426.851L388.529 419.865L376.511 413.141L364.037 420.149Z" stroke="#2F3F64" stroke-width="1.49754" stroke-linecap="round" stroke-linejoin="round"/>
<path d="M382.606 410.116L394.646 416.817L406.986 409.869L395.028 403.145L382.606 410.116Z" stroke="#2F3F64" stroke-width="1.49754" stroke-linecap="round" stroke-linejoin="round"/>
<path d="M343.663 450.294L355.823 456.966L368.282 449.92L356.204 443.226L343.663 450.294Z" stroke="#2F3F64" stroke-width="1.49754" stroke-linecap="round" stroke-linejoin="round"/>
<path d="M362.329 440.171L374.429 446.843L386.837 439.827L374.819 433.133L362.329 440.171Z" stroke="#2F3F64" stroke-width="1.49754" stroke-linecap="round" stroke-linejoin="round"/>
<path d="M380.914 430.093L392.962 436.764L405.301 429.778L393.343 423.084L380.914 430.093Z" stroke="#2F3F64" stroke-width="1.49754" stroke-linecap="round" stroke-linejoin="round"/>
<path d="M399.408 420.067L411.396 426.731L423.691 419.782L411.778 413.088L399.408 420.067Z" stroke="#2F3F64" stroke-width="1.49754" stroke-linecap="round" stroke-linejoin="round"/>
<path d="M360.63 460.201L372.737 466.842L385.144 459.796L373.119 453.132L360.63 460.201Z" stroke="#2F3F64" stroke-width="1.49754" stroke-linecap="round" stroke-linejoin="round"/>
<path d="M379.221 450.078L391.269 456.719L403.616 449.703L391.651 443.039L379.221 450.078Z" stroke="#2F3F64" stroke-width="1.49754" stroke-linecap="round" stroke-linejoin="round"/>
<path d="M397.724 439.999L409.719 446.641L422.006 439.654L410.093 432.99L397.724 439.999Z" stroke="#2F3F64" stroke-width="1.49754" stroke-linecap="round" stroke-linejoin="round"/>
<path d="M416.143 429.965L428.079 436.607L440.314 429.658L428.461 422.994L416.143 429.965Z" stroke="#2F3F64" stroke-width="1.49754" stroke-linecap="round" stroke-linejoin="round"/>
<path d="M378.533 470.414L390.58 477.026L402.928 469.98L390.962 463.346L378.533 470.414Z" stroke="#2F3F64" stroke-width="1.49754" stroke-linecap="round" stroke-linejoin="round"/>
<path d="M396.031 459.939L408.034 466.55L420.329 459.534L408.409 452.9L396.031 459.939Z" stroke="#2F3F64" stroke-width="1.49754" stroke-linecap="round" stroke-linejoin="round"/>
<path d="M414.459 449.86L426.402 456.472L438.644 449.486L426.783 442.852L414.459 449.86Z" stroke="#2F3F64" stroke-width="1.49754" stroke-linecap="round" stroke-linejoin="round"/>
<path d="M432.803 439.827L444.686 446.438L456.876 439.49L445.068 432.856L432.803 439.827Z" stroke="#2F3F64" stroke-width="1.49754" stroke-linecap="round" stroke-linejoin="round"/>
<path d="M386.597 420.95L376.129 426.85L365.968 421.22L364.014 422.313L376.114 429.007L388.506 422.021L386.597 420.95Z" fill="#2F3F64"/>
<path d="M342.24 409.06L354.737 402.074L352.805 400.996L342.255 406.881L332.012 401.213L330.042 402.313L342.24 409.06Z" fill="#2F3F64"/>
<path d="M353.037 422.118L351.098 421.04L340.54 426.963L330.297 421.31L328.328 422.418L340.533 429.134L353.037 422.118Z" fill="#2F3F64"/>
<path d="M359.215 419.056L371.659 412.07L369.735 410.992L359.23 416.885L349.024 411.239L347.062 412.332L359.215 419.056Z" fill="#2F3F64"/>
<path d="M254.522 378.727L267.296 371.711L265.296 370.595L254.529 376.503L244.084 370.738L242.047 371.853L254.522 378.727Z" fill="#2F3F64"/>
<path d="M318.961 402.089L316.999 400.996L306.359 406.911L296.033 401.213L294.042 402.321L306.351 409.105L318.961 402.089Z" fill="#2F3F64"/>
<path d="M336.032 412.122L334.086 411.037L323.491 416.959L313.202 411.284L311.218 412.392L323.476 419.146L336.032 412.122Z" fill="#2F3F64"/>
<path d="M325.19 399.026L337.747 392.04L335.793 390.947L325.205 396.84L314.925 391.142L312.94 392.242L325.19 399.026Z" fill="#2F3F64"/>
<path d="M284.592 381.879L282.608 380.771L271.878 386.679L261.478 380.943L259.456 382.052L271.871 388.895L284.592 381.879Z" fill="#2F3F64"/>
<path d="M301.814 392.003L299.845 390.902L289.16 396.817L278.789 391.104L276.782 392.212L289.152 399.019L301.814 392.003Z" fill="#2F3F64"/>
<path d="M273.608 368.656L286.329 361.67L284.338 360.554L273.615 366.44L263.215 360.674L261.193 361.782L273.608 368.656Z" fill="#2F3F64"/>
<path d="M299.493 360.854L297.493 361.947L309.796 368.791L322.397 361.842L320.428 360.734L309.803 366.59L299.493 360.854Z" fill="#2F3F64"/>
<path d="M316.647 371.007L314.663 372.1L326.905 378.914L339.454 371.966L337.508 370.865L326.92 376.728L316.647 371.007Z" fill="#2F3F64"/>
<path d="M308.073 388.948L320.683 381.962L318.713 380.861L308.081 386.746L297.763 381.033L295.764 382.134L308.073 388.948Z" fill="#2F3F64"/>
<path d="M333.726 381.116L331.75 382.216L343.947 388.993L356.444 382.044L354.505 380.951L343.962 386.814L333.726 381.116Z" fill="#2F3F64"/>
<path d="M282.263 350.656L280.249 351.756L292.604 358.63L305.266 351.674L303.281 350.558L292.619 356.414L282.263 350.656Z" fill="#2F3F64"/>
<path d="M275.345 348.417L288.059 341.468L286.06 340.345L275.352 346.201L264.959 340.413L262.938 341.513L275.345 348.417Z" fill="#2F3F64"/>
<path d="M290.874 378.824L303.543 371.838L301.559 370.73L290.889 376.616L280.526 370.872L278.52 371.981L290.874 378.824Z" fill="#2F3F64"/>
<path d="M401.318 421.13L399.393 422.216L411.381 428.88L423.668 421.924L421.774 420.86L411.396 426.731L401.318 421.13Z" fill="#2F3F64"/>
<path d="M384.53 411.186L382.591 412.28L394.631 418.974L406.971 412.018L405.069 410.947L394.646 416.817L384.53 411.186Z" fill="#2F3F64"/>
<path d="M350.738 391.187L348.769 392.28L360.914 399.034L373.359 392.078L371.434 390.992L360.929 396.855L350.738 391.187Z" fill="#2F3F64"/>
<path d="M367.668 401.205L365.714 402.299L377.806 409.022L390.199 402.066L388.289 400.996L377.829 406.858L367.668 401.205Z" fill="#2F3F64"/>
<path d="M383.213 460.89L372.737 466.842L362.562 461.264L360.615 462.365L372.715 468.999L385.122 461.945L383.213 460.89Z" fill="#2F3F64"/>
<path d="M349.698 441.175L339.088 447.142L242.279 391.089L240.302 392.175L339.08 449.321L351.585 442.268L349.698 441.175Z" fill="#2F3F64"/>
<path d="M211.16 360.188L200.251 366.118L189.678 360.307L187.612 361.43L200.251 368.364L213.197 361.318L211.16 360.188Z" fill="#2F3F64"/>
<path d="M228.704 370.461L217.839 376.391L207.304 370.603L205.252 371.726L217.839 378.63L230.733 371.584L228.704 370.461Z" fill="#2F3F64"/>
<path d="M246.173 380.681L235.353 386.619L224.855 380.854L222.819 381.969L235.346 388.843L248.187 381.797L246.173 380.681Z" fill="#2F3F64"/>
<path d="M366.343 451.013L355.822 456.966L345.609 451.365L343.647 452.466L355.807 459.13L368.259 452.076L366.343 451.013Z" fill="#2F3F64"/>
<path d="M426.401 456.472L416.353 450.908L414.436 452.002L426.379 458.606L438.621 451.62L436.742 450.572L426.401 456.472Z" fill="#2F3F64"/>
<path d="M444.686 446.438L434.683 440.875L432.781 441.961L444.664 448.565L456.846 441.609L454.982 440.568L444.686 446.438Z" fill="#2F3F64"/>
<path d="M390.58 477.025L380.449 471.47L378.518 472.57L390.558 479.167L402.912 472.121L401.018 471.073L390.58 477.025Z" fill="#2F3F64"/>
<path d="M408.034 466.55L397.941 460.994L396.016 462.088L408.012 468.692L420.306 461.676L418.42 460.627L408.034 466.55Z" fill="#2F3F64"/>
<path d="M403.384 430.864L392.962 436.764L382.838 431.156L380.899 432.257L392.939 438.913L405.286 431.927L403.384 430.864Z" fill="#2F3F64"/>
<path d="M237.098 368.514L249.924 361.498L247.91 360.375L237.098 366.283L226.615 360.495L224.571 361.603L237.098 368.514Z" fill="#2F3F64"/>
<path d="M256.266 358.443L269.033 351.457L267.034 350.334L256.274 356.212L245.828 350.424L243.799 351.532L256.266 358.443Z" fill="#2F3F64"/>
<path d="M232.478 351.24L230.449 350.109L219.599 356.009L209.064 350.199L207.012 351.315L219.592 358.248L232.478 351.24Z" fill="#2F3F64"/>
<path d="M401.699 450.789L391.269 456.719L381.138 451.133L379.199 452.234L391.247 458.868L403.594 451.844L401.699 450.789Z" fill="#2F3F64"/>
<path d="M386.814 441.983L384.905 440.92L374.43 446.843L364.261 441.234L362.314 442.335L374.415 448.999L386.814 441.983Z" fill="#2F3F64"/>
<path d="M369.959 432.07L368.042 430.999L357.522 436.922L347.317 431.298L345.355 432.399L357.507 439.093L369.959 432.07Z" fill="#2F3F64"/>
<path d="M251.669 341.199L249.655 340.068L238.85 345.946L228.367 340.136L226.323 341.244L238.842 348.185L251.669 341.199Z" fill="#2F3F64"/>
<path d="M420.097 440.74L409.719 446.641L399.633 441.055L397.701 442.148L409.696 448.782L421.984 441.796L420.097 440.74Z" fill="#2F3F64"/>
<path d="M270.77 331.21L268.763 330.08L258.011 335.935L247.58 330.125L245.544 331.225L258.003 338.159L270.77 331.21Z" fill="#2F3F64"/>
<path d="M438.419 430.737L428.079 436.607L418.038 431.021L416.121 432.114L428.056 438.741L440.291 431.785L438.419 430.737Z" fill="#2F3F64"/>
</g>
<defs>
<clipPath id="clip0_81_66">
<rect width="619.561" height="596.08" fill="white"/>
</clipPath>
</defs>
</svg>
