<svg width="830" height="548" viewBox="0 0 830 548" fill="none" xmlns="http://www.w3.org/2000/svg">
<path d="M274.047 202.592H15.017V180.592H304.397C306.947 180.592 309.017 182.662 309.017 185.212V197.972C309.017 200.522 306.947 202.592 304.397 202.592" fill="#BCC5DC"/>
<path d="M274.047 202.592H15.017V180.592H304.397C306.947 180.592 309.017 182.662 309.017 185.212V197.972C309.017 200.522 306.947 202.592 304.397 202.592" stroke="#2F3F64" stroke-width="2" stroke-miterlimit="10" stroke-linecap="round"/>
<path d="M15.017 180.592H1.017V202.592H15.017V180.592Z" fill="#2F3F64" stroke="#2F3F64" stroke-width="2" stroke-miterlimit="10"/>
<path d="M261.287 131.592H166.747C161.926 131.592 158.017 135.501 158.017 140.322V171.862C158.017 176.684 161.926 180.592 166.747 180.592H261.287C266.108 180.592 270.017 176.684 270.017 171.862V140.322C270.017 135.501 266.108 131.592 261.287 131.592Z" fill="white" stroke="#2F3F64" stroke-width="2" stroke-miterlimit="10" stroke-linecap="round"/>
<path d="M158.017 171.872V140.322C158.017 135.502 161.927 131.592 166.747 131.592H150.747C145.927 131.592 142.017 135.502 142.017 140.322V171.872C142.017 176.692 145.927 180.602 150.747 180.602H166.747C161.927 180.602 158.017 176.692 158.017 171.872Z" fill="#2F3F64" stroke="#2F3F64" stroke-width="2" stroke-miterlimit="10"/>
<path d="M179.617 169.273V165.343H175.637V160.923H180.057V164.903H191.507V157.383H179.617V153.453H175.637V145.143H179.617V141.163H191.947V145.143H195.967V165.343H191.947V169.273H179.617ZM180.047 153.063H191.497V145.583H180.047V153.063Z" fill="#FEC95C"/>
<path d="M201.247 157.432V153.062H205.667V157.432H201.247ZM201.247 165.212V160.792H205.667V165.212H201.247Z" fill="#FEC95C"/>
<path d="M214.937 169.273V165.343H210.957V145.143H214.937V141.163H227.267V145.143H231.287V165.343H227.267V169.273H214.937ZM215.367 164.903H226.817V145.583H215.367V164.903Z" fill="#FEC95C"/>
<path d="M240.547 169.273V165.343H236.567V145.143H240.547V141.163H252.877V145.143H256.897V165.343H252.877V169.273H240.547ZM240.987 164.903H252.437V145.583H240.987V164.903Z" fill="#FEC95C"/>
<path d="M134.017 122.592H34.757L58.017 180.592H110.567L126.017 141.592" stroke="#2F3F64" stroke-width="2" stroke-linecap="round" stroke-linejoin="round"/>
<path d="M137.217 105.592H28.817C27.8229 105.592 27.017 106.398 27.017 107.392V120.792C27.017 121.786 27.8229 122.592 28.817 122.592H137.217C138.211 122.592 139.017 121.786 139.017 120.792V107.392C139.017 106.398 138.211 105.592 137.217 105.592Z" fill="white" stroke="#2F3F64" stroke-width="2" stroke-miterlimit="10" stroke-linecap="round"/>
<path d="M447.017 59.5923H325.017C322.257 59.5923 320.017 61.8323 320.017 64.5923V126.592C320.017 129.352 322.257 131.592 325.017 131.592H459.267C462.827 131.592 466.237 133.002 468.747 135.522L491.607 158.382C493.237 160.012 496.027 158.862 496.027 156.552V133.602C496.027 132.502 496.927 131.602 498.027 131.602H506.027C508.787 131.602 511.027 129.362 511.027 126.602V64.6023C511.027 61.8423 508.787 59.6023 506.027 59.6023" fill="white"/>
<path d="M447.017 59.5923H325.017C322.257 59.5923 320.017 61.8323 320.017 64.5923V126.592C320.017 129.352 322.257 131.592 325.017 131.592H459.267C462.827 131.592 466.237 133.002 468.747 135.522L491.607 158.382C493.237 160.012 496.027 158.862 496.027 156.552V133.602C496.027 132.502 496.927 131.602 498.027 131.602H506.027C508.787 131.602 511.027 129.362 511.027 126.602V64.6023C511.027 61.8423 508.787 59.6023 506.027 59.6023" stroke="#2F3F64" stroke-width="2" stroke-linecap="round" stroke-linejoin="round"/>
<path d="M709.327 319.472H689.217C686.107 319.472 683.137 320.702 680.937 322.902L660.977 342.862C659.557 344.282 657.117 343.282 657.117 341.262V321.212C657.117 320.252 656.337 319.462 655.367 319.462H648.377C645.967 319.462 644.007 317.502 644.007 315.092V260.942C644.007 258.532 645.967 256.572 648.377 256.572H737.647C740.057 256.572 742.017 258.532 742.017 260.942V315.092C742.017 317.502 740.057 319.462 737.647 319.462" fill="white"/>
<path d="M709.327 319.472H689.217C686.107 319.472 683.137 320.702 680.937 322.902L660.977 342.862C659.557 344.282 657.117 343.282 657.117 341.262V321.212C657.117 320.252 656.337 319.462 655.367 319.462H648.377C645.967 319.462 644.007 317.502 644.007 315.092V260.942C644.007 258.532 645.967 256.572 648.377 256.572H737.647C740.057 256.572 742.017 258.532 742.017 260.942V315.092C742.017 317.502 740.057 319.462 737.647 319.462" stroke="#2F3F64" stroke-width="2" stroke-miterlimit="10" stroke-linecap="round"/>
<path d="M726.017 95.5923H570.017C567.257 95.5923 565.017 97.8323 565.017 100.592V231.592C565.017 234.352 567.257 236.592 570.017 236.592H777.017C779.777 236.592 782.017 234.352 782.017 231.592V100.592" fill="white"/>
<path d="M726.017 95.5923H570.017C567.257 95.5923 565.017 97.8323 565.017 100.592V231.592C565.017 234.352 567.257 236.592 570.017 236.592H777.017C779.777 236.592 782.017 234.352 782.017 231.592V100.592" stroke="#2F3F64" stroke-width="2" stroke-miterlimit="10" stroke-linecap="round"/>
<path d="M570.017 236.592C567.257 236.592 565.017 234.352 565.017 231.592V102.592H563.017C560.257 102.592 558.017 104.832 558.017 107.592V238.592C558.017 241.352 560.257 243.592 563.017 243.592H770.017C772.777 243.592 775.017 241.352 775.017 238.592V236.592H570.017Z" fill="#2F3F64"/>
<path d="M730.497 95.5923H570.017C567.257 95.5923 565.017 97.8323 565.017 100.592V123.592H782.017V100.592C782.017 97.8323 779.777 95.5923 777.017 95.5923" fill="#BCC5DC"/>
<path d="M730.497 95.5923H570.017C567.257 95.5923 565.017 97.8323 565.017 100.592V123.592H782.017V100.592C782.017 97.8323 779.777 95.5923 777.017 95.5923" stroke="#2F3F64" stroke-width="2" stroke-miterlimit="10"/>
<path d="M582.017 114.592C584.778 114.592 587.017 112.354 587.017 109.592C587.017 106.831 584.778 104.592 582.017 104.592C579.256 104.592 577.017 106.831 577.017 109.592C577.017 112.354 579.256 114.592 582.017 114.592Z" fill="#2F3F64"/>
<path d="M601.017 114.592C603.778 114.592 606.017 112.354 606.017 109.592C606.017 106.831 603.778 104.592 601.017 104.592C598.256 104.592 596.017 106.831 596.017 109.592C596.017 112.354 598.256 114.592 601.017 114.592Z" fill="#2F3F64"/>
<path d="M620.017 114.592C622.778 114.592 625.017 112.354 625.017 109.592C625.017 106.831 622.778 104.592 620.017 104.592C617.256 104.592 615.017 106.831 615.017 109.592C615.017 112.354 617.256 114.592 620.017 114.592Z" fill="#2F3F64"/>
<path d="M665.017 159.592H754.017" stroke="#2F3F64" stroke-width="5" stroke-miterlimit="10" stroke-linecap="round"/>
<path d="M665.017 173.592H754.017" stroke="#2F3F64" stroke-width="5" stroke-miterlimit="10" stroke-linecap="round"/>
<path d="M665.017 187.592H754.017" stroke="#2F3F64" stroke-width="5" stroke-miterlimit="10" stroke-linecap="round"/>
<path d="M665.017 201.592H712.387" stroke="#2F3F64" stroke-width="5" stroke-miterlimit="10" stroke-linecap="round"/>
<path d="M662.817 271.513C662.887 271.403 662.967 271.303 663.047 271.193C662.967 271.293 662.887 271.393 662.817 271.513Z" stroke="#2F3F64" stroke-width="2" stroke-miterlimit="10"/>
<path d="M718.957 271.153C719.077 271.303 719.187 271.463 719.287 271.623L719.147 271.833L693.937 291.403C692.137 292.443 689.917 292.433 688.117 291.383L662.817 271.513C662.317 272.293 662.017 273.213 662.017 274.203V301.993C662.017 304.753 664.257 306.993 667.017 306.993H715.017C717.777 306.993 720.017 304.753 720.017 301.993V274.203C720.017 273.053 719.607 272.003 718.957 271.153Z" stroke="#2F3F64" stroke-width="2" stroke-miterlimit="10"/>
<path d="M663.577 270.583C663.487 270.673 663.407 270.763 663.327 270.853C663.407 270.763 663.487 270.663 663.577 270.583Z" stroke="#2F3F64" stroke-width="2" stroke-miterlimit="10"/>
<path d="M667.017 269.202C665.247 269.202 663.707 270.122 662.817 271.512L688.117 291.382C689.907 292.442 692.137 292.452 693.937 291.402L719.147 271.832L719.287 271.622C718.407 270.172 716.837 269.202 715.017 269.202H685.937" fill="#BCC5DC"/>
<path d="M667.017 269.202C665.247 269.202 663.707 270.122 662.817 271.512L688.117 291.382C689.907 292.442 692.137 292.452 693.937 291.402L719.147 271.832L719.287 271.622C718.407 270.172 716.837 269.202 715.017 269.202H685.937" stroke="#2F3F64" stroke-width="2" stroke-miterlimit="10" stroke-linecap="round"/>
<path d="M719.517 278.592C724.211 278.592 728.017 274.787 728.017 270.092C728.017 265.398 724.211 261.592 719.517 261.592C714.823 261.592 711.017 265.398 711.017 270.092C711.017 274.787 714.823 278.592 719.517 278.592Z" fill="#FEC95C" stroke="#2F3F64" stroke-width="2" stroke-miterlimit="10"/>
<path d="M717.827 412.592H686.147C683.987 412.592 682.147 410.832 681.787 408.432L675.007 363.432C674.547 360.382 676.627 357.592 679.367 357.592H724.597C727.337 357.592 729.417 360.382 728.957 363.432L722.177 408.432C721.817 410.832 719.977 412.592 717.817 412.592H717.827Z" fill="white" stroke="#2F3F64" stroke-width="2" stroke-miterlimit="10" stroke-linecap="round"/>
<path d="M604.017 446.592H798.017C800.777 446.592 803.017 444.352 803.017 441.592V417.592C803.017 414.832 800.777 412.592 798.017 412.592H604.017" stroke="#2F3F64" stroke-width="2" stroke-miterlimit="10"/>
<path d="M669.017 412.592H798.017C800.777 412.592 803.017 414.832 803.017 417.592V441.592C803.017 444.352 800.777 446.592 798.017 446.592H669.017V412.592Z" fill="#BCC5DC" stroke="#2F3F64" stroke-width="2" stroke-miterlimit="10"/>
<path d="M702.517 437.592C706.659 437.592 710.017 434.234 710.017 430.092C710.017 425.95 706.659 422.592 702.517 422.592C698.375 422.592 695.017 425.95 695.017 430.092C695.017 434.234 698.375 437.592 702.517 437.592Z" fill="#FEC95C" stroke="#2F3F64" stroke-width="2" stroke-miterlimit="10"/>
<path d="M721.607 429.592H783.307" stroke="#2F3F64" stroke-width="5" stroke-miterlimit="10" stroke-linecap="round"/>
<path d="M586.017 480.592H780.017C782.777 480.592 785.017 478.352 785.017 475.592V451.592C785.017 448.832 782.777 446.592 780.017 446.592H586.017" stroke="#2F3F64" stroke-width="2" stroke-miterlimit="10"/>
<path d="M651.017 446.592H780.017C782.777 446.592 785.017 448.832 785.017 451.592V475.592C785.017 478.352 782.777 480.592 780.017 480.592H651.017V446.592Z" fill="#2F3F64" stroke="#2F3F64" stroke-width="2" stroke-miterlimit="10"/>
<path d="M684.517 471.592C688.659 471.592 692.017 468.234 692.017 464.092C692.017 459.95 688.659 456.592 684.517 456.592C680.375 456.592 677.017 459.95 677.017 464.092C677.017 468.234 680.375 471.592 684.517 471.592Z" fill="#FEC95C" stroke="#2F3F64" stroke-width="2" stroke-miterlimit="10"/>
<path d="M703.607 463.592H765.307" stroke="white" stroke-width="5" stroke-miterlimit="10" stroke-linecap="round"/>
<path d="M669.017 423.572H611.907" stroke="#2F3F64" stroke-width="2" stroke-miterlimit="10"/>
<path d="M669.017 429.572H611.907" stroke="#2F3F64" stroke-width="2" stroke-miterlimit="10"/>
<path d="M669.017 435.572H611.907" stroke="#2F3F64" stroke-width="2" stroke-miterlimit="10"/>
<path d="M651.017 458.572H593.907" stroke="#2F3F64" stroke-width="2" stroke-miterlimit="10"/>
<path d="M651.017 464.572H593.907" stroke="#2F3F64" stroke-width="2" stroke-miterlimit="10"/>
<path d="M651.017 470.572H593.907" stroke="#2F3F64" stroke-width="2" stroke-miterlimit="10"/>
<path d="M821.017 480.592H83.017V499.592H821.017V480.592Z" fill="#BCC5DC" stroke="#2F3F64" stroke-width="2" stroke-miterlimit="10"/>
<path d="M83.017 480.592H53.017V499.592H83.017V480.592Z" fill="#2F3F64" stroke="#2F3F64" stroke-width="2" stroke-miterlimit="10"/>
<path d="M174.747 461.702L167.017 480.592H305.527L312.847 458.592H179.367C177.337 458.592 175.507 459.822 174.737 461.702H174.747Z" fill="white" stroke="#2F3F64" stroke-width="2" stroke-miterlimit="10" stroke-linecap="round"/>
<path d="M305.537 480.592L367.857 293.282C368.677 290.832 370.967 289.172 373.547 289.172H574.747C578.107 289.172 580.517 292.422 579.527 295.642L522.677 480.582H305.527L305.537 480.592Z" fill="#2F3F64" stroke="#2F3F64" stroke-width="2" stroke-miterlimit="10"/>
<path d="M267.387 473.592H257.667C255.347 473.592 253.667 471.372 254.297 469.132C254.727 467.632 256.097 466.592 257.667 466.592H267.387C269.707 466.592 271.387 468.812 270.757 471.052C270.327 472.552 268.957 473.592 267.387 473.592Z" fill="#2F3F64"/>
<path d="M294.387 473.592H284.667C282.347 473.592 280.667 471.372 281.297 469.132C281.727 467.632 283.097 466.592 284.667 466.592H294.387C296.707 466.592 298.387 468.812 297.757 471.052C297.327 472.552 295.957 473.592 294.387 473.592Z" fill="#2F3F64"/>
<path d="M125.017 438.592C101.817 438.592 83.017 457.392 83.017 480.592H167.017C167.017 457.392 148.217 438.592 125.017 438.592Z" fill="#2F3F64" stroke="#2F3F64" stroke-width="2" stroke-miterlimit="10"/>
<path d="M231.767 322.342C227.207 317.782 238.067 299.542 256.017 281.592C272.877 264.732 289.987 254.132 295.787 256.682C295.867 256.652 295.937 256.622 296.017 256.592C287.547 247.662 274.797 240.592 261.517 240.592C235.837 240.592 215.017 261.412 215.017 287.092C215.017 300.902 222.457 314.072 232.017 322.592C232.017 322.582 232.017 322.572 232.027 322.552C231.937 322.482 231.847 322.422 231.767 322.342Z" stroke="#2F3F64" stroke-width="2" stroke-miterlimit="10"/>
<path d="M272.517 298.096C290.465 280.148 301.321 261.903 296.764 257.346C292.206 252.788 273.961 263.644 256.013 281.592C238.064 299.541 227.209 317.786 231.766 322.343C236.324 326.9 254.568 316.045 272.517 298.096Z" fill="#2F3F64" stroke="#2F3F64" stroke-width="2" stroke-miterlimit="10"/>
<path d="M125.017 438.593V296.853C125.017 283.743 129.497 271.023 137.717 260.813C154.837 239.543 184.567 233.253 208.837 245.783L226.817 255.063" stroke="#2F3F64" stroke-width="2" stroke-miterlimit="10"/>
<path d="M267.827 270.812C263.977 274.003 259.997 277.622 256.027 281.592C252.057 285.562 248.437 289.542 245.247 293.392C248.167 296.582 252.357 298.592 257.027 298.592C265.867 298.592 273.027 291.432 273.027 282.592C273.027 277.922 271.017 273.743 267.827 270.812Z" fill="#FEC95C" stroke="#2F3F64" stroke-width="2" stroke-miterlimit="10"/>
<path d="M782.417 499.592L803.017 546.162" stroke="#2F3F64" stroke-width="5" stroke-miterlimit="10"/>
<path d="M806.417 499.592L827.017 546.162" stroke="#2F3F64" stroke-width="5" stroke-miterlimit="10"/>
<path d="M98.017 499.592L77.417 546.162" stroke="#2F3F64" stroke-width="5" stroke-miterlimit="10"/>
<path d="M74.017 499.592L53.417 546.162" stroke="#2F3F64" stroke-width="5" stroke-miterlimit="10"/>
<path d="M380.887 100.312C386.333 100.312 390.747 95.8978 390.747 90.4523C390.747 85.0068 386.333 80.5923 380.887 80.5923C375.441 80.5923 371.027 85.0068 371.027 90.4523C371.027 95.8978 375.441 100.312 380.887 100.312Z" fill="#2F3F64"/>
<path d="M441.157 100.312C446.603 100.312 451.017 95.8978 451.017 90.4523C451.017 85.0068 446.603 80.5923 441.157 80.5923C435.711 80.5923 431.297 85.0068 431.297 90.4523C431.297 95.8978 435.711 100.312 441.157 100.312Z" fill="#2F3F64"/>
<path d="M411.567 110.182C417.013 110.182 421.427 105.768 421.427 100.322C421.427 94.8769 417.013 90.4624 411.567 90.4624C406.121 90.4624 401.707 94.8769 401.707 100.322C401.707 105.768 406.121 110.182 411.567 110.182Z" fill="#2F3F64"/>
<path d="M689.517 356.092L687.707 341.292" stroke="#2F3F64" stroke-width="5" stroke-miterlimit="10" stroke-linecap="round"/>
<path d="M701.517 356.092L704.577 335.502" stroke="#2F3F64" stroke-width="5" stroke-miterlimit="10" stroke-linecap="round"/>
<path d="M177.807 53.4624C166.587 55.8124 156.277 59.1724 146.647 63.6924C154.297 51.6124 159.937 40.1024 161.747 32.2324C161.957 31.3224 161.167 30.5124 160.417 30.8724C149.687 35.9424 139.177 42.0524 129.297 49.2324C134.197 36.0224 138.127 23.4124 140.087 13.9424C140.407 12.4024 138.977 11.1624 137.817 11.9924C127.867 19.0224 118.147 26.8424 110.087 36.4524C110.267 24.4524 108.847 12.7024 105.747 2.02241C105.427 0.932412 104.237 0.642412 103.587 1.50241C94.177 13.7924 87.557 29.9624 84.597 45.6724C84.517 46.0924 84.447 46.5224 84.367 46.9524C81.037 32.0624 75.347 18.2424 67.617 7.13241C66.997 6.24241 65.797 6.45241 65.437 7.52241C61.227 20.0324 59.517 34.2024 60.057 47.6524C59.707 47.2724 59.367 46.8924 59.007 46.5224C48.767 36.0024 36.487 27.1324 23.207 23.6024C16.057 21.7024 25.967 43.5824 27.257 46.1324C30.247 52.0624 33.627 57.7924 37.167 63.3624C26.667 56.1624 15.217 50.3424 3.10701 46.7124C1.83701 46.3324 0.667005 47.5724 1.08701 49.0124C4.66701 61.2224 11.507 72.7424 19.727 81.1824C27.797 89.4724 41.107 99.2624 51.547 105.592H116.767C140.977 96.5724 163.007 79.5824 179.557 57.0324C180.697 55.4824 179.517 53.1024 177.797 53.4624H177.807Z" fill="#2F3F64" stroke="#2F3F64" stroke-width="2" stroke-miterlimit="10"/>
<path d="M34.297 61.0422C45.517 67.0922 54.707 77.1822 59.657 88.9222C52.297 78.6122 43.867 69.3322 34.297 61.0422Z" fill="#BCC5DC"/>
<path d="M59.087 43.9624C61.217 53.0224 63.137 62.1024 66.337 70.8324C69.467 79.5724 73.597 87.9424 77.027 96.6024C66.667 79.9924 60.017 63.7224 59.087 43.9624Z" fill="#BCC5DC"/>
<path d="M93.897 95.8923C114.297 77.5723 137.977 61.7823 165.027 55.5923C152.147 60.2623 139.657 65.8523 127.917 72.8923C116.167 79.8423 105.147 87.9923 93.897 95.8923Z" fill="#BCC5DC"/>
<path d="M144.017 38.5923C126.427 48.2023 113.857 62.6723 103.207 79.3723C111.167 61.4823 125.357 45.4623 144.017 38.5923Z" fill="#BCC5DC"/>
<path d="M111.017 34.5923C100.067 52.1023 91.427 71.1123 88.017 91.5923C88.637 70.7023 97.767 50.5223 111.017 34.5923Z" fill="#BCC5DC"/>
<path d="M84.547 42.1323C84.287 53.9823 85.137 65.6623 87.077 77.3623C82.427 66.3723 81.527 53.6723 84.547 42.1323Z" fill="#BCC5DC"/>
<path d="M615.517 209.592C634.019 209.592 649.017 194.594 649.017 176.092C649.017 157.591 634.019 142.592 615.517 142.592C597.015 142.592 582.017 157.591 582.017 176.092C582.017 194.594 597.015 209.592 615.517 209.592Z" stroke="#2F3F64" stroke-width="2" stroke-miterlimit="10"/>
<path d="M610.607 187.122V186.822C610.637 183.592 610.977 181.022 611.627 179.112C612.267 177.202 613.187 175.652 614.367 174.472C615.547 173.292 616.977 172.192 618.627 171.202C619.627 170.592 620.517 169.872 621.317 169.032C622.117 168.192 622.747 167.222 623.207 166.122C623.667 165.022 623.907 163.802 623.907 162.472C623.907 160.812 623.517 159.372 622.737 158.162C621.957 156.942 620.917 156.002 619.617 155.342C618.317 154.682 616.867 154.352 615.277 154.352C613.887 154.352 612.557 154.642 611.267 155.212C609.977 155.792 608.907 156.692 608.047 157.932C607.187 159.172 606.687 160.782 606.547 162.782H600.147C600.287 159.902 601.027 157.442 602.397 155.392C603.757 153.342 605.557 151.782 607.807 150.692C610.047 149.612 612.537 149.072 615.277 149.072C618.257 149.072 620.847 149.662 623.057 150.852C625.267 152.032 626.977 153.662 628.187 155.722C629.397 157.782 629.997 160.142 629.997 162.782C629.997 164.642 629.717 166.322 629.147 167.832C628.577 169.342 627.767 170.682 626.707 171.872C625.647 173.052 624.377 174.102 622.887 175.022C621.397 175.952 620.207 176.932 619.307 177.952C618.407 178.972 617.757 180.192 617.357 181.592C616.947 182.992 616.727 184.752 616.697 186.842V187.142H610.607V187.122ZM613.857 202.142C612.607 202.142 611.527 201.692 610.637 200.792C609.737 199.892 609.297 198.822 609.297 197.572C609.297 196.322 609.747 195.242 610.637 194.352C611.537 193.452 612.607 193.002 613.857 193.002C615.107 193.002 616.187 193.452 617.077 194.352C617.977 195.252 618.427 196.322 618.427 197.572C618.427 198.402 618.217 199.162 617.807 199.852C617.387 200.542 616.847 201.102 616.157 201.512C615.467 201.922 614.707 202.132 613.857 202.132V202.142Z" fill="#FEC95C" stroke="#2F3F64" stroke-width="2" stroke-miterlimit="10"/>
<path d="M716.517 356.092L716.557 332.092" stroke="#2F3F64" stroke-width="5" stroke-miterlimit="10" stroke-linecap="round"/>
<path d="M716.557 334.802H721.457C722.317 334.802 723.017 335.612 723.017 336.622V350.102" stroke="#2F3F64" stroke-width="2" stroke-miterlimit="10" stroke-linecap="round"/>
<path d="M438.397 389.293C436.737 396.283 440.947 402.083 447.847 402.083C454.747 402.083 461.447 396.283 462.787 389.293C464.087 382.483 459.787 377.103 453.217 377.103C446.647 377.103 440.027 382.493 438.407 389.293H438.397Z" fill="#BCC5DC"/>
</svg>
