<?xml version="1.0" encoding="UTF-8"?>
<svg id="Layer_2" data-name="Layer 2" xmlns="http://www.w3.org/2000/svg" xmlns:xlink="http://www.w3.org/1999/xlink" viewBox="0 0 1295.2 895.73">
  <defs>
    <style>
      .cls-1, .cls-2 {
        fill: #00a5f3;
      }

      .cls-3 {
        fill: #ffe02e;
      }

      .cls-4 {
        fill: url(#linear-gradient);
      }

      .cls-5, .cls-6 {
        fill: #fff;
      }

      .cls-7 {
        fill: #f7931e;
      }

      .cls-6 {
        stroke: #1e2b62;
        stroke-miterlimit: 10;
      }

      .cls-8 {
        fill: #1e2b62;
      }

      .cls-9 {
        fill: #98e0ff;
      }

      .cls-2 {
        font-family: Poppins-Bold, Poppins;
        font-size: 95.89px;
        font-weight: 700;
        letter-spacing: .05em;
      }

      .cls-10 {
        fill: #92cff3;
      }

      .cls-11 {
        fill: #ffe02d;
      }
    </style>
    <linearGradient id="linear-gradient" x1="647.6" y1="1104.2" x2="647.6" y2="-58.79" gradientUnits="userSpaceOnUse">
      <stop offset="0" stop-color="#98e0ff"/>
      <stop offset=".21" stop-color="#76aed4"/>
      <stop offset=".48" stop-color="#5076a3"/>
      <stop offset=".71" stop-color="#354d7f"/>
      <stop offset=".89" stop-color="#24346a"/>
      <stop offset="1" stop-color="#1e2b62"/>
    </linearGradient>
  </defs>
  <g id="Capa_7" data-name="Capa 7">
    <g>
      <rect class="cls-4" x="0" width="1295.2" height="895.73"/>
      <g>
        <circle class="cls-9" cx="1226.72" cy="618.96" r="8.7"/>
        <circle class="cls-9" cx="247.94" cy="528.93" r="13.24"/>
        <circle class="cls-9" cx="53.59" cy="678.81" r="13.24"/>
        <circle class="cls-9" cx="1235.81" cy="782.15" r="13.24"/>
        <circle class="cls-9" cx="1139.02" cy="323.36" r="13.24"/>
        <circle class="cls-9" cx="100.94" cy="535.82" r="6.62"/>
        <circle class="cls-9" cx="172.61" cy="687.26" r="6.62"/>
        <circle class="cls-9" cx="1093.33" cy="638.01" r="14.57"/>
        <circle class="cls-9" cx="66.83" cy="802.01" r="6.62"/>
        <circle class="cls-9" cx="363.09" cy="271.1" r="6.62"/>
        <circle class="cls-9" cx="1249.05" cy="365.04" r="6.62"/>
      </g>
      <path class="cls-9" d="M1075,824.87c35.36,0,64.02-28.66,64.02-64.02s-28.66-64.02-64.02-64.02c-19.01,0-36.07,8.29-47.79,21.44-3.67-51.59-46.65-92.31-99.17-92.31s-99.45,44.53-99.45,99.45c0,2.62.13,5.21.33,7.79-7.72-4.92-16.87-7.79-26.7-7.79-27.46,0-49.73,22.26-49.73,49.73s22.26,49.73,49.73,49.73h272.79Z"/>
      <path class="cls-9" d="M1295.2,465.46c-7.57,2.92-14.27,7.6-19.58,13.56-2.9-40.75-36.84-72.91-78.33-72.91s-78.55,35.17-78.55,78.55c0,2.07.1,4.12.26,6.15-6.09-3.89-13.32-6.15-21.09-6.15-17.97,0-33.11,12.07-37.78,28.55-3.62-1.86-7.72-2.91-12.06-2.91-14.61,0-26.46,11.85-26.46,26.46s11.85,26.46,26.46,26.46h247.13v-97.75Z"/>
      <path class="cls-9" d="M230.94,256.35c-3.73,0-7.34.53-10.76,1.51.71-4.58,1.08-9.28,1.08-14.06,0-50.12-40.63-90.75-90.75-90.75-42.08,0-77.47,28.65-87.74,67.5-9.37-5.77-20.4-9.1-32.21-9.1-3.6,0-7.13.33-10.56.92v121.26c3.43.59,6.96.92,10.56.92h220.38c21.6,0,39.1-17.51,39.1-39.1s-17.51-39.1-39.1-39.1Z"/>
      <path class="cls-9" d="M216.85,468.27c17.17,0,31.09-13.92,31.09-31.09s-13.92-31.09-31.09-31.09c-9.23,0-17.52,4.03-23.21,10.41-1.78-25.06-22.66-44.83-48.16-44.83s-48.3,21.63-48.3,48.3c0,1.27.06,2.53.16,3.78-3.75-2.39-8.19-3.78-12.97-3.78-13.34,0-24.15,10.81-24.15,24.15s10.81,24.15,24.15,24.15h132.48Z"/>
      <g>
        <g>
          <polygon class="cls-5" points="595.06 474.8 389.21 680.64 417.81 709.24 630.46 496.59 595.06 474.8"/>
          <circle class="cls-5" cx="363.09" cy="678.81" r="47.42"/>
          <circle class="cls-5" cx="426.62" cy="707.38" r="34.41"/>
          <circle class="cls-5" cx="318.44" cy="744.78" r="64.14"/>
          <circle class="cls-5" cx="402.83" cy="768.91" r="54.65"/>
        </g>
        <path class="cls-7" d="M478.68,609.86c2.76-40.4,32.17-88.01,68.36-123.64,9.49-9.17,18.9-18.69,31.27-23.68,19.9-8.12,42.76,1.57,53.32,19.21,9.62,15.28,8.37,34.71-2.92,49.55-8.72,11.8-19.33,21.88-30.15,31.86-33.7,30.37-70.91,50.33-102.85,55.09-7.54,1.22-17.34,2.66-17.03-8.23v-.16Z"/>
        <path class="cls-3" d="M561.96,490.56c-18.24,18.4-34.29,40.48-43.88,63.74-2.55,6.59-11.45,29.41-5.53,32.93,1.87,1.25,5.02,1.02,7.47.6,23.85-4.16,52-18.74,77.88-41.62,10.05-9.32,20.65-18.54,27.39-30.4,8.83-15.33.46-34.83-14.63-42.52-19.68-10.34-35.22,3.53-48.53,17.11l-.15.16Z"/>
        <g>
          <path class="cls-11" d="M663.52,504.22l9.55-22.27-28.09-28.09-28.09-28.09-22.27,9.55c-2.77,1.19-3.47,4.8-1.33,6.93l31.65,31.65,31.65,31.65c2.13,2.13,5.75,1.44,6.93-1.33Z"/>
          <path class="cls-6" d="M908.28,111.9c-42.18,14.22-82.6,36-119.07,64.31h0c-38.68,30.03-72.04,66.7-98.09,107.84l-73.91,116.73c-5.78,9.13-5.21,20.11,1.4,26.71l24.48,24.48,24.48,24.48c6.61,6.61,17.58,7.18,26.71,1.4l116.73-73.91c41.13-26.04,77.81-59.4,107.84-98.09h0c28.49-36.7,50.36-77.4,64.57-119.86-14.33-9.25-28.8-20.89-42.54-34.62-12.75-12.75-23.7-26.14-32.6-39.47Z"/>
          <g>
            <path class="cls-1" d="M856.54,237.24c-2.19-2.19-4.31-4.43-6.58-6.53-1.41-1.3-1.54-2.16.14-3.42,10.45-7.8,20.83-15.68,31.23-23.52.25-.18.51-.35.75-.53,3.79-2.9,3.58-2.74,6.95.62,1.26,1.26,1.22,2.07-.16,3.08-5.63,4.19-11.23,8.42-16.85,12.64-4.19,3.15-8.34,6.36-12.57,9.46-1.06.77-1.03,1.25-.15,2.09,3.04,2.96,5.98,6.04,9.04,8.98,1.31,1.25,1.43,2.1-.07,3.3-3,2.38-3.14,2.44-5.85-.27-1.96-1.96-3.93-3.93-5.9-5.9h0Z"/>
            <path class="cls-1" d="M897.91,278.61c-2.45-2.45-2.4-2.5.38-4.58,10.98-8.22,21.95-16.47,32.88-24.77,1.39-1.06,2.41-1.18,3.54.15.2.23.44.44.65.65,2.76,2.76,2.71,2.68-.45,5.04-10.61,7.96-21.16,15.97-31.77,23.92-2.76,2.07-2.81,2.01-5.24-.42h0Z"/>
            <path class="cls-1" d="M916.78,231.6l-7.77-7.77c-1.33-1.33-2.3-1.53-3.92-.29-10.85,8.31-21.7,16.43-32.62,24.64-2.86,2.15-2.88,2.12-.45,4.55q2.61,2.61,5.48.38c1.89-1.46,3.84-2.85,5.71-4.35q4.76-3.81,8.96.4l.66.66c6.4,6.4,15.27,6.99,22.44,1.51,5.65-4.32,8.51-12.72,1.5-19.73h0ZM897.76,245.29l-1.14-1.14c-3.02-3.12-3.09-3.09.3-5.75,2.79-2.19,5.67-4.26,8.46-6.45.99-.79,1.68-.74,2.52.2,1.18,1.31,2.51,2.51,3.75,3.78,2.46,2.51,2.61,5.48.53,8.32-2.85,3.9-9.46,5.88-14.41,1.04h0Z"/>
            <path class="cls-10" d="M860.54,205.13c1.52-5.41-5.56-11.88-15.79-14.44-.57-.14-1.14-.25-1.71-.36,0,0-.06,0-.06.02-.02.02,0,.04.03.05,5.09,2.84,8.29,6.13,8.25,9.09-.02,1.63-1.04,2.98-2.81,4.01-1.61,1.1-3.89,1.78-6.57,1.99-4.44.6-10.15.37-16.34-.83-5.7-1.1-13.79-4-18.02-6.07,0,0-.06-.03-.1-.04-.22-.05-.44.1-.48.31-.03.17.1.37.25.45,4.36,2.65,9.01,4.28,13.76,6.1,5.2,1.99,10.52,3.58,16,4.62,4.89.93,10.03,1.8,14.98.91,3.36-.6,7.6-2.18,8.63-5.83h0Z"/>
            <path class="cls-1" d="M856.85,181c4.86,2.27,8.93,5.63,12.67,9.39.93.93,1.58,1.87,2.97.6,1.3-1.17,1.35-2.1.18-3.44-3.4-3.89-7.29-7.26-11.4-10.32-5.69-4.24-11.76-7.8-18.94-8.92-13.7-2.13-25.18,9.89-22.44,23.48.83,4.11,2.57,7.84,4.79,11.37,1.25,2.11,4.32,6.02,4.74,6.57,3.08,3.66,6.29,7.18,9.98,10.27,1.52,1.26,2.17.53,3.18-.43,1.14-1.07,1.22-1.9.02-3.02-1.01-.95-1.99-1.92-2.92-2.93l-.06-.06c-.79-.87-1.51-1.8-2.19-2.75-2.75-3.67-4.21-6.5-4.21-6.5-4.16-8.34-3.15-14.56,2.65-20.42,5.71-5.77,12.76-6.72,20.95-2.91h.02Z"/>
          </g>
          <path class="cls-8" d="M693.5,280.52c5.53-8.49,13.59-19.65,18.24-26.5l-9.49,1.46c-66.52,13.61-141.11,45.16-189.12,93.17l-70.75,70.75,7.31,7.31,73.06-39.28c34.22-18.4,85.46-27.77,124.01-30.16l46.75-76.75Z"/>
          <path class="cls-8" d="M811.01,403.94c7.17-4.19,19.53-13.5,26.38-18.15h0c1.69,21.45-.83,43.04-7.52,63.5-16.48,50.44-44.54,93.74-83.46,132.66l-70.75,70.75-7.31-7.31,39.28-73.06c18.4-34.22,24.66-81.5,27.04-120.04l76.34-48.34Z"/>
          <path class="cls-8" d="M761.81,341.89l-9.68,18.26c-15.64,29.5-37.03,55.57-62.92,76.66l-126.43,103-3.77-3.77,103-126.43c21.09-25.89,47.15-47.28,76.66-62.92l18.26-9.68c1.4-.74,3.12-.48,4.23.64h0c1.12,1.12,1.38,2.84.64,4.23Z"/>
          <path class="cls-8" d="M1006,96.6c1.13-4.85-2.69-8.67-7.54-7.54l-55.52,12.96c-11.65,2.72-23.22,6.02-34.66,9.88,8.9,13.32,19.85,26.71,32.6,39.47,13.74,13.74,28.2,25.37,42.54,34.62,3.74-11.18,6.96-22.48,9.62-33.87l12.96-55.52Z"/>
          <text class="cls-2" transform="translate(762.49 282.4) rotate(45)"><tspan x="0" y="0">11</tspan></text>
        </g>
        <g>
          <path class="cls-9" d="M449.86,510.11c68.21-72.03,139.5-143.23,211.28-211.71,0,0,7.04-6.61,7.04-6.61l-6.61,7.04c-68.48,71.78-139.67,143.07-211.71,211.28h0Z"/>
          <path class="cls-9" d="M660.09,560.75c44.44-48.31,91.44-95.34,139.76-139.76-44.42,48.32-91.46,95.33-139.76,139.76h0Z"/>
          <path class="cls-9" d="M406.92,513.59c13.2-15.46,27.96-30.65,42.29-45.12,14.47-14.34,29.64-29.09,45.12-42.29-13.19,15.47-27.95,30.65-42.29,45.12-14.48,14.34-29.64,29.08-45.12,42.29h0Z"/>
          <path class="cls-9" d="M637.27,613.63c6.64-8.87,14.17-16.92,21.94-24.77,7.84-7.78,15.89-15.31,24.77-21.94-6.63,8.88-14.16,16.92-21.94,24.77-7.85,7.77-15.89,15.3-24.77,21.94h0Z"/>
          <path class="cls-9" d="M529.86,395.02c6.64-8.87,14.17-16.92,21.94-24.77,7.84-7.78,15.89-15.31,24.77-21.94-6.63,8.88-14.16,16.92-21.94,24.77-7.85,7.77-15.89,15.3-24.77,21.94h0Z"/>
          <path class="cls-9" d="M683.98,590.27c14.55-16.81,30.72-33.41,46.4-49.23,15.83-15.7,32.4-31.85,49.23-46.4-14.54,16.82-30.72,33.41-46.4,49.23-15.83,15.69-32.41,31.84-49.23,46.4h0Z"/>
        </g>
      </g>
    </g>
  </g>
</svg>