<svg width="2523" height="2313" viewBox="0 0 2523 2313" fill="none" xmlns="http://www.w3.org/2000/svg">
<path d="M527.008 1355.19C540.117 1353.38 544.866 1360.31 547.144 1355.75C548.285 1353.49 545.531 1353.89 544.4 1353.1C541.94 1351.38 541.659 1348.3 543.896 1347.72C564.033 1342.49 573.279 1325.51 593.597 1326.55C590.346 1333.22 579.898 1336.44 569.821 1340.66C567.094 1341.79 567.03 1343.13 572.611 1350.26C576.219 1354.85 576.937 1353.76 602.789 1341.19C626.951 1329.44 616.869 1332.18 601.582 1332.94C601.062 1332.97 598.27 1331.08 600.526 1329.95C602.087 1329.15 605.175 1328.22 605.084 1327.86C604.567 1325.26 604.345 1326.35 593.128 1327.04C593.329 1320.21 593.541 1319.27 597.256 1319.05C607.233 1318.49 604.92 1316.45 648.326 1299.42C657.003 1296.03 671.625 1302.88 695.855 1287.41C696.833 1286.79 704.836 1285.37 701.684 1283.54C693.261 1278.66 664.286 1298.35 662.412 1290.69C661.842 1288.33 663.625 1287.17 665.292 1287.12C674.465 1286.86 682.301 1282.46 690.562 1279.32C702.232 1274.84 697.542 1268.46 703.377 1268.27C711.192 1268.02 717.152 1261.74 725.327 1262.16C738.34 1262.84 760.769 1254.64 755.142 1247.81C754.481 1247.02 752.501 1246.11 752.216 1246.38C742.711 1255.89 728.89 1254.02 717.782 1259.35C712.565 1261.87 706.524 1262.81 700.741 1263.96C699.486 1264.2 697.761 1262.27 696.321 1261.28C691.775 1258.17 701.626 1253.79 702.629 1251.69C702.081 1251.46 701.362 1250.86 701.015 1251.03C692.025 1255.4 681.025 1254.24 673.057 1261.52C668.015 1266.14 658.024 1266.57 656.496 1264.78C656.016 1264.2 677.406 1248.57 685.726 1246.47C697.102 1243.62 696.891 1238.29 702.355 1236.6C727.774 1228.74 750.853 1214.46 777.226 1209.13C806.565 1203.19 785.657 1195.74 812.021 1191.52C829.289 1188.77 829.143 1186.69 830.853 1188.49C836.443 1194.5 838.422 1192.24 863.459 1182.3C872.858 1178.57 869.884 1174.04 880.139 1173.63C885.449 1173.42 1165.96 1080.71 1180.66 1073.09C1191.26 1067.61 1174.48 1069.58 1155.61 864.52C1137.86 671.79 1216.48 409.623 1331.82 245.703C1416.16 125.816 1480.32 115.505 1489.64 103.138C1490.99 101.347 1493.2 99.7763 1495.32 99.1027C1506.18 95.6034 1513.14 85.7382 1524.28 82.3659C1548.37 75.0586 1557.48 60.4174 1564.32 60.3042C1574.52 60.1658 1583.52 54.649 1593.55 53.8766C1594.77 56.6692 1595.02 55.3628 1603.53 52.4047C1608.58 51.4151 1614.33 52.4628 1618.53 48.954C1622.53 45.5966 1629.36 47.7825 1631.8 41.8522C1631.34 42.4243 1645.87 40.2767 1647.92 38.4361C1644.69 36.6184 1631.62 38.7902 1631.48 38.6493C1631.54 38.3026 1631.83 35.8694 1632.99 35.7436C1645.32 34.4099 1664.54 25.3578 1670.93 28.0871C1672.27 28.6469 1671.36 29.6334 1670.4 29.9203C1664.2 31.87 1660.06 29.8119 1657.54 33.8184C1680.46 51.7031 1776.27 -20.4935 1907.44 6.30402C2156.75 57.209 2406.02 352.352 2096.73 845.073C2042.09 932.137 1886.6 1092.67 1861.65 1107.36C1854.5 1111.58 1861.8 1107.55 1775.57 1173.75C1664.29 1259.19 1707.54 1222.63 1662.64 1257.02C1655.37 1262.58 1708.26 1333.18 1730.31 1356.46C1822.23 1453.43 1948.09 1537.25 2054.51 1603.23C2112.77 1639.41 2506.45 1770.9 2506.83 1771.02C2509.79 1771.87 2507.52 1773.32 2506.55 1774.5C2502.99 1778.82 2509.96 1775.54 2519.15 1780.83C2521.77 1782.33 2522.49 1784.86 2519.06 1787.24C2515.32 1789.84 2519.76 1792.47 2517.78 1794.69C2515.73 1797 2512.03 1802.68 2514.94 1803.69C2525.43 1807.44 2520.85 1816.53 2521.87 1823.52C2521.99 1824.42 2519.57 1825.99 2518.09 1826.77C2510.65 1830.79 2523.06 1834.33 2515.65 1850.67C2509.43 1864.42 2517.58 1878.37 2510.62 1897.35C2508.42 1903.36 2514.48 1912.28 2505.84 1928.33C2503.92 1931.88 2505.01 1935.66 2504.59 1939.23C2504.24 1942.27 2500.71 1944.95 2498.59 1947.79C2495.76 1951.57 2503.1 1948.92 2502.44 1955.57C2494.72 2031.89 2488.54 2023.05 2489.49 2031.36C2492.89 2060.63 2481.99 2044.65 2485.34 2074.18C2486.38 2083.31 2479.63 2081.77 2479.49 2088C2479.35 2093.97 2476.83 2095.81 2442.12 2092.88C2224.34 2074.47 2185.68 2050.79 2112.69 2033.05C1932.69 1989.32 1852.6 1931.43 1823.68 1919.21C1787.96 1904.14 1486.51 1662.06 1371.28 1496.57C1320.43 1423.53 1338.29 1416.61 1309.26 1427.61C1291.69 1434.27 959.745 1536.04 871.991 1574.41C640.274 1675.73 730.615 1650.39 629.912 1708C610.711 1718.98 618.73 1723.52 598.359 1736.48C586.055 1744.29 549.947 1777.05 546.326 1784.41C542.682 1791.8 526.356 1800.12 524.657 1804.96C521.543 1813.86 512.932 1818.1 508.501 1825.71C503.877 1833.71 497.015 1833.59 495.598 1837.4C492.14 1846.75 458.714 1886.43 456.165 1889.68C451.27 1895.9 445.445 1908.26 440.766 1913.57C411.394 1946.74 404.371 1986.43 386.75 2020.95C322.898 2146.14 309.986 2319.81 298.793 2312.28C295.353 2309.96 292.407 2306.65 288.109 2311.14C282.187 2317.29 278.61 2299.45 274.414 2302.23C260.454 2311.39 255.939 2315.56 252.125 2308.58C248.9 2302.69 243.191 2315.4 239.005 2309.09C237.254 2306.43 235.737 2304.01 232.187 2305.02C225.285 2306.94 218.174 2300.9 211.318 2305.66C209.544 2306.9 202.759 2295.41 196.271 2305.02C195.642 2305.97 194.105 2307.47 193.718 2307.28C179.224 2300.15 174.437 2325 158.241 2298.77C157.287 2297.2 158.002 2291.98 159.032 2292.08C164.908 2292.75 166.088 2297.37 167.827 2294.6C172.08 2287.77 159.9 2287.05 158.761 2282.08C157.413 2282.9 155.204 2283.51 154.879 2284.61C150.249 2301.25 154.489 2303.72 145.421 2307.36C129.336 2313.8 129.054 2303.47 116.763 2309.21C112.633 2311.14 107.376 2310.88 103.176 2307.57C99.262 2304.5 92.7962 2309.24 89.7007 2303.1C88.802 2301.32 71.9102 2304.17 69.1728 2305.93C64.992 2308.6 65.9068 2302.08 62.9991 2302.26C57.3386 2302.61 51.579 2303.5 45.758 2301.88C40.7197 2300.49 28.401 2308.64 26.4912 2302.35C25.5192 2299.16 29.693 2294.98 31.4297 2293.87C36.2459 2290.79 30.9003 2288.5 30.0275 2287.68C28.5708 2286.3 24.6988 2287.47 25.606 2283.54C26.3651 2280.17 26.0584 2276.13 30.9905 2275.57C34.6853 2275.17 36.7432 2272.2 38.8478 2272.81C41.6264 2273.61 44.4915 2283.9 48.9628 2278.11C52.5179 2273.52 48.6787 2269.45 45.5252 2268.33C37.3718 2265.45 27.956 2248.01 39.5275 2248.9C40.5289 2248.97 41.6156 2248.39 42.6553 2248.09C38.5599 2241.41 42.4389 2245.61 29.8876 2242.19C28.2445 2241.74 27.2947 2241.66 27.4819 2243.39C28.4357 2251.72 22.6013 2259.4 25.1445 2267.92C25.4259 2268.83 24.518 2270.11 24.1647 2271.19C19.8311 2264.48 22.4805 2262.39 18.762 2259.19C16.4262 2257.17 14.9116 2256.94 13.6078 2260.11C12.5555 2262.71 10.6596 2265.23 13.2566 2268.22C14.2433 2269.36 15.1622 2272.06 14.5456 2272.88C7.05966 2282.93 25.3307 2285.34 18.275 2290.68C8.53573 2298.02 24.9779 2303.58 14.0026 2305.79C9.09216 2306.79 8.15022 2304.12 7.66984 2299.68C-16.1652 2082.34 27.4286 1993.62 46.1511 1895.62C46.7837 1892.29 49.6622 1881.69 53.0064 1882.4C55.361 1882.9 53.9588 1883.47 51.0677 1893.47C50.3806 1895.81 54.2422 1895.26 54.655 1894.49C61.9894 1880.38 71.1107 1866.6 54.7214 1876.02C49.084 1879.24 53.1015 1866.85 55.2432 1865.63C57.2871 1864.46 59.0886 1873.38 64.6569 1868.31C76.4095 1857.59 66.8182 1863.41 79.8732 1841.29C86.1469 1830.66 77.8316 1825.32 90.0798 1823.53C94.1453 1822.93 93.5127 1820.47 93.3151 1817.43C93.2027 1815.67 101.922 1814.36 93.5875 1811.74C92.045 1811.25 92.4409 1810.32 92.781 1808.87C94.1337 1802.77 92.2121 1795.64 98.8949 1791.21C100.14 1790.4 98.2211 1781.36 94.4516 1784.7C86.9846 1791.3 91.2142 1795.36 87.0585 1798.27C81.5915 1802.09 80.2028 1786.6 88.1034 1781.83C91.6857 1779.67 87.9505 1776.31 89.1739 1774.09C97.1634 1759.76 97.0411 1766.11 113.357 1738.86C136.117 1700.87 141.221 1700.21 137.58 1695.07C131.13 1685.95 151.631 1686.5 157.031 1676.25C159.438 1671.68 171.49 1659.62 171.756 1656.28C174.535 1653.94 179.589 1650.16 175.045 1649.24C169.914 1648.2 170.005 1641.79 175.882 1641.99C182.626 1642.23 194.371 1633.86 193.539 1625.2C192.899 1618.56 195.516 1616.42 205.033 1603.88C220.197 1583.85 211.795 1593.17 213.637 1580.73C216.648 1560.48 225.57 1566.12 223.202 1570.08C221.299 1573.26 222.802 1575.56 224.324 1578.03C227.699 1583.62 225.143 1580.52 243.735 1562.95C281.103 1527.58 320.634 1484.65 290.683 1506.2C290.102 1506.63 286.14 1507.21 287.58 1503.38C288.211 1501.71 290.241 1499.46 289.741 1498.7C286.596 1493.79 289.965 1490.87 292.82 1488.26C334.158 1450.45 370.756 1425.1 376.092 1421.76C392.861 1411.25 409.322 1385.34 423.154 1381.76C439.353 1377.58 437.187 1368.44 444.892 1367.89C459.104 1366.85 454.931 1358.24 496.3 1340.76C499.174 1339.53 501.711 1338.58 502.957 1335.6C506.835 1326.51 515.71 1323.98 523.457 1319.96C540.875 1320.77 594.854 1285.26 599.879 1289.91C595.87 1298.52 584.959 1299.62 581.656 1305.1C593.057 1308.28 590.232 1300.04 610.385 1294.97C616.68 1287.68 624.83 1289.07 632.917 1290.13C634.853 1290.39 637.699 1288.67 638.247 1291.79C638.382 1292.56 632.225 1296.78 631.45 1296.86C617.247 1297.98 606.558 1307.18 594.887 1313.59C576.898 1323.45 564.223 1322.99 560.412 1323.77C557.802 1324.29 559.692 1326.54 559.215 1327.68C558.195 1330.09 555.859 1331.94 554.865 1334.34C554.717 1334.67 521.272 1348.08 520.762 1352.79C512.08 1357.82 501.386 1357.08 492.795 1362.47C490.69 1363.79 488.349 1362.46 486.055 1361.79C477.829 1359.44 473.654 1366.76 467.781 1369.98C467.313 1370.24 467.101 1370.94 466.787 1371.42C472.129 1373.92 476.871 1370.64 481.845 1369.74C487.125 1368.78 487.279 1372.86 483.974 1375.41C481.9 1377.02 441.051 1405.83 453.848 1402.82C460.528 1401.26 466.644 1396.42 474.21 1399.68C475.881 1400.38 477.529 1398.46 477.913 1396.69C480.437 1385.48 510.342 1369.79 521.045 1365.55C530.771 1361.7 527.84 1357.32 527.062 1355.21L527.008 1355.19ZM23.7651 2151.07C17.9328 2155.15 22.9585 2160.77 21.7734 2165.52C21.7036 2165.84 22.448 2166.44 22.9263 2166.75C25.7677 2168.61 23.9557 2154.52 23.948 2154.21C23.7847 2149.32 21.5228 2151.37 26.7496 2150.15C30.6755 2149.23 29.9829 2142.83 25.6807 2143.89C22.1682 2144.77 23.2093 2147.87 23.7623 2151.05L23.7651 2151.07ZM515.075 1569.07C521.644 1567.94 530.731 1560.12 517.519 1562.67C517.186 1559.6 515.161 1558.51 512.74 1559.82C506.494 1563.21 507.425 1566.74 507.65 1566.4C497.732 1568.23 486.694 1577.83 486.39 1581.78C486.316 1582.55 494.271 1582.39 498.236 1579.9C508.457 1584.49 516.499 1567.74 515.077 1569.1L515.075 1569.07ZM434.472 1491.66C458.633 1464.92 473.924 1462.97 487.18 1450.44C488.484 1449.2 501.379 1452.9 474.867 1466.14C471.643 1467.74 475.191 1470.33 476.747 1470.94C484.22 1473.82 480.164 1465.56 503.254 1459.12C503.837 1458.95 505.53 1460.1 504.528 1461.23C500.557 1465.6 495.223 1468.24 502.264 1470.74C510.389 1473.6 490.102 1470.67 475.466 1485.91C478.817 1497.8 460.743 1490.93 445.45 1511.93C444.45 1513.32 443.369 1514.92 441.204 1514.24C437.631 1513.12 433.988 1515.44 436.713 1521.78C437.275 1523.1 435.024 1525.25 437.547 1526.1C438.415 1526.4 440.004 1525.86 440.712 1525.16C473.567 1493.25 487.346 1494.97 490.436 1488.5C494.661 1479.71 503.667 1483.23 510.159 1480.41C517.349 1477.28 499.643 1497.01 487.008 1500.3C479.739 1502.21 456.712 1515.52 456.721 1520.19C456.727 1523.87 464.249 1528.64 467.431 1526.89C511.74 1502.51 504.486 1490.79 517.848 1489.63C523.676 1489.13 527.958 1483.29 534.392 1484.29C536.492 1484.61 538.274 1485.62 536.404 1486.94C531.282 1490.58 476.626 1536.73 464.69 1541.65C463.563 1542.11 462.887 1544.56 462.667 1546.15C461.894 1551.56 467.702 1545.82 479.751 1551.12C481.207 1551.77 483.354 1550.6 482.621 1548.17C482.09 1546.4 481.864 1545.04 483.493 1543.66C495.275 1533.69 483.241 1534.81 506.033 1520.31C508.038 1519.02 510.936 1523.83 515.934 1520.49C528.543 1512.13 543.905 1503.6 557.317 1496.61C559.272 1495.59 563.348 1499.2 564.602 1495.09C567.387 1486.04 571.935 1499.08 583.074 1490.9C591.429 1484.77 597.314 1484.32 598.227 1479.23C599.935 1469.65 620.762 1465.49 623.759 1457.67C623.406 1457.55 602.684 1457.13 605.104 1452.2C605.831 1450.71 618.274 1439.6 628.299 1444.31C631.606 1445.88 637.124 1441.32 637.762 1440.93C691.249 1409.82 689.238 1419.98 693.263 1413.94C704.01 1397.79 699.093 1418.06 733.349 1407.3C736.003 1406.46 739.787 1404.23 740.183 1402.1C741.189 1396.66 748.61 1396.88 748.627 1391.23C773.534 1376.95 786.566 1364.52 790.984 1367.17C795.12 1369.65 794.573 1371.35 858.977 1344.98C870.99 1340.05 869.888 1334.45 856.508 1338.36C825.895 1347.26 829.228 1348.59 821.094 1348.06C807.909 1347.25 805.525 1357.58 801.933 1356.27C792.026 1352.65 793.124 1368.35 780.057 1362.82C776.878 1361.47 777.912 1369.81 770.356 1366.9C762.063 1363.7 763.813 1369.72 748.474 1372.19C742.976 1373.07 755.383 1375.65 750.152 1377.54C743.739 1379.88 738.024 1385.28 730.101 1381.15C727.579 1379.83 718.493 1384.52 715.202 1385.27C714.283 1385.47 713.109 1384.53 712.043 1384.1C714.569 1381.11 716.97 1380.59 716.959 1379.28C716.815 1369.98 723.796 1370.47 725.704 1367.81C719.708 1364.1 723.735 1366.77 659.647 1393.89C652.442 1390.6 648.134 1395.71 644.748 1400.18C637.335 1409.94 636.214 1404.65 614.394 1417.51C573.288 1441.78 571.713 1431.08 571.244 1442.94C564.934 1446.47 555.173 1451.44 547.812 1449.36C550.84 1438.93 614.373 1406.94 616.482 1405.17C619.549 1402.59 624.75 1403.54 626.369 1398.46C627.653 1394.38 632.408 1397.26 635.233 1394.86C642.374 1388.87 649.553 1382.74 658.517 1379.34C659.997 1378.76 658.86 1373.82 655.964 1375.07C646.826 1379.04 597.867 1401.75 594.243 1411.02C593.509 1412.93 591.177 1412.63 589.499 1412.11C582.741 1410.05 554.707 1431.67 546.907 1432.31C548.565 1433.85 545.12 1430.05 549.98 1426.88C556.159 1422.87 560.924 1416.9 568.235 1414.41C570.78 1413.54 569.745 1410.49 569.82 1408.29C568.467 1409.79 593.788 1393.53 616.594 1385.91C630.826 1381.19 632.745 1380.56 644.331 1367.82C649.416 1367.95 654.185 1369.99 659.483 1366.29C683.229 1349.72 748.256 1328.87 754.668 1324.83C757.581 1323.01 756.02 1319.94 754.367 1320.12C730.441 1322.7 734.113 1329.1 727.473 1324.98C725.764 1316.68 735.248 1319.78 737.495 1315.18C739.141 1311.79 743.088 1311.31 746.555 1310.26C776.412 1301.12 767.861 1297.95 742.386 1306.27C726.201 1311.54 710.669 1319.47 693.113 1319.8C692.078 1316.52 691.846 1312.44 686.808 1312.99C676.134 1314.12 677.935 1314.57 676.463 1316.43C678.347 1317.9 676.38 1317.35 693.482 1319.34C692.545 1330.25 680.999 1322.6 673.071 1328.81C653.916 1343.83 628.805 1344.64 615.923 1355.07C617.696 1356.97 619.959 1356.62 622.158 1356.41C652.528 1353.23 629.794 1356.68 629.45 1362.43C601.18 1365.7 569.185 1395.17 558.803 1390.78C557.431 1383.18 564.868 1384.75 587.239 1370.45C591.54 1367.69 584.304 1367.97 582.734 1364.09C580.98 1359.72 576.44 1365.35 576.922 1366.19C582.841 1376.43 570.595 1366.17 561.17 1372.07C549.295 1379.49 542.347 1382.2 540.101 1384.87C548.009 1387.17 545.407 1381.24 554.697 1382.8C554.41 1383.77 554.389 1385.26 553.774 1385.61C537.222 1394.5 537.499 1394.16 535.483 1391.72C534.428 1390.42 533.921 1388.15 531.586 1389.53C526.644 1392.41 520.608 1393.87 518.07 1399.89L518.513 1399.4C511.041 1399.19 508.146 1406.5 502.346 1409.43C495.75 1412.73 471.824 1427.14 477.597 1428.32C480.486 1428.92 480.26 1427.56 487.451 1425.16C493.532 1423.15 501.528 1430.85 497 1435.38C491.251 1441.2 479.65 1435.7 479.866 1447.11C479.945 1451.46 385.283 1515.62 381.32 1525.37C381.03 1526.08 382.45 1529.3 384.125 1528.59C389.306 1526.47 406.852 1510.34 408.262 1508.88C415.2 1501.73 423.242 1499.71 434.769 1491.26C434.869 1492.42 434.883 1501.25 437.625 1500.01C443.654 1497.27 446.298 1495.13 444.995 1490.1C457.158 1491.86 465.333 1474.9 457.713 1479.11C440.005 1488.92 455.866 1489.34 434.424 1491.69L434.472 1491.66ZM288.168 1809.76C294.882 1808.52 304.569 1805.04 299.975 1800.03C297.28 1797.11 297.146 1798.04 288.144 1802.3C292.975 1792.59 294.624 1790.92 293.6 1787.01C302.661 1785.72 307.435 1775.49 306.073 1773.28C303.628 1769.29 295.159 1782.82 293.975 1787.33C289.846 1790 265.737 1814.57 281.939 1813.08C284.398 1817.2 284.143 1816.05 288.168 1809.76ZM1713.98 802.734C1721.67 801.562 1732.76 788.796 1727.69 787.125C1725.14 786.278 1716.8 791.306 1713.98 802.734C1701.55 802.043 1695.33 817.286 1700.02 814.297C1705.16 811.026 1712.39 810.191 1713.98 802.734ZM425.908 1578.46C435.319 1577.26 443.814 1563 438.709 1563.65C433.01 1564.37 434.753 1563.32 426.369 1578.85C422.277 1578.96 418.66 1581.04 416.865 1585.23C422.924 1586.88 425.964 1582.84 425.934 1578.46L425.908 1578.46ZM571.409 1724.65C581.924 1720.85 588.107 1716.39 594.805 1707.75C600.571 1707.65 603.793 1703.36 607.557 1699.98C608.676 1698.97 607.106 1697.02 606.787 1697.21C602.204 1700.03 596.119 1701.29 595.035 1707.94C584.98 1710.44 577.08 1715.94 571.666 1724.85C567.614 1724.85 564.13 1727.68 562.466 1731.38C563.461 1731.64 564.693 1732.4 565.44 1732.06C568.604 1730.62 571.431 1728.72 571.38 1724.62L571.409 1724.65ZM1545.18 939.699C1553.53 939.134 1556.39 931.488 1561.67 926.947C1573.41 917.714 1576.72 923.961 1626.04 884.028C1628.68 881.888 1633.21 872.546 1628.23 873.398C1619.82 874.832 1620.92 885.261 1599.76 895.775C1586.56 902.347 1574.72 911.253 1563.47 920.826C1561.29 922.68 1562.08 925.102 1562.11 927.369C1558.95 926.851 1556.23 924.22 1552.52 927.363C1548.47 930.804 1543.44 933.046 1545.18 939.699C1539.68 938.936 1534.72 937.54 1534.54 940.432C1533.7 952.533 1544.67 942.991 1545.18 939.699ZM752.956 1536.3C761.75 1535.93 776.609 1529.75 776.095 1525.97C776.045 1525.5 775.384 1524.71 775.283 1524.75C767.411 1527.85 758.209 1528.32 752.575 1535.93C746.849 1536.39 741.683 1537.21 740.863 1542.91C740.652 1544.34 750.912 1542.29 752.953 1536.28L752.956 1536.3ZM2453.65 1949.23C2451.39 1944.28 2443.11 1946.74 2438.01 1948.44C2435.69 1949.22 2447.67 1950.01 2453.92 1948.84C2454.63 1950.74 2456.17 1951.49 2458.03 1951.47C2484.26 1951.38 2481.92 1953.95 2491.51 1950.54C2486.19 1948.43 2465.14 1946.42 2453.68 1949.2L2453.65 1949.23ZM662.147 1463.36C650.668 1464.06 642.157 1472.37 631.592 1475.47C630.679 1475.72 630.425 1478.2 629.878 1479.67C636.219 1481.02 661.642 1467.15 661.8 1463.06C663.871 1463.36 667.848 1462.9 667.434 1464.88C664.898 1477.19 687.791 1461.68 680.029 1461.45C677.17 1461.37 674.105 1461.54 672.366 1458.52C687.197 1455.95 712.935 1441.13 713.416 1439.54C722.991 1436.46 732.797 1446.89 729.415 1436.89C726.61 1428.6 804.472 1402.68 815.032 1394.47C809.655 1393.32 805.137 1394.33 801.636 1396.28C780.476 1408 723.066 1424.6 713.877 1439.93C695.355 1441.96 672.905 1455.77 672.392 1458.52C668.604 1459.27 663.904 1458.34 662.172 1463.36L662.147 1463.36ZM511.999 1342.58C521.465 1342.13 529.572 1336.61 539.225 1335.96C546.074 1335.48 540.14 1333.06 538.586 1331.74C537.232 1330.59 538.352 1330.31 541.305 1326.67C540.224 1326.34 538.814 1325.4 538.125 1325.79C529.135 1330.89 519.269 1334.64 512.428 1342.93C508.241 1343.12 499.036 1349.13 500.697 1350.23C502.697 1351.56 511.149 1349.47 511.996 1342.56L511.999 1342.58ZM858.26 1212.03C845.929 1211.62 836.631 1217.24 835.107 1220.07C833.91 1222.29 828.884 1222.47 825.637 1223.63C823.876 1224.26 825.52 1225.44 826.249 1225.42C837.055 1225.03 844.936 1223.21 836.583 1230.33C840.562 1231.83 847.845 1230.29 849.579 1229.89C853.735 1228.92 847.339 1227.55 851.318 1221.55C853.497 1218.26 858.071 1216.57 857.856 1211.68C892.874 1206.04 893.817 1207.27 898.894 1201.52C885.164 1198.57 882.293 1205.85 875.49 1206.51C870.265 1207.02 865.113 1208.21 859.981 1209.34C859.24 1209.5 858.813 1211.11 858.26 1212.03ZM231.12 1807.98C236.721 1806.35 238.471 1796.19 242.48 1793.14C250.399 1787.09 253.796 1778.86 255.97 1769.72C257.581 1769.16 260.044 1768.97 260.602 1767.84C265.2 1758.88 275.316 1754.05 278.443 1744.05C285.728 1738.67 288.788 1729.98 294.504 1723.39C315.138 1699.56 314.045 1700.1 315.624 1697.29C318.821 1691.56 287.681 1707.44 277.566 1730.89C267.972 1753.1 253.443 1759.42 255.941 1769.7C244.015 1770.13 226.715 1799.39 227.177 1805.11C217.957 1808.8 225.24 1815.71 215.502 1823.56C203.071 1833.57 210.111 1864.56 231.094 1807.98L231.12 1807.98ZM580.371 1605.29C571.742 1608.16 539.107 1625.92 550.763 1631.21C556.867 1634 556.495 1629.84 580.506 1612.09C584.717 1608.98 579.863 1607.36 580.028 1605.02C586.797 1604.29 591.713 1600.44 595.42 1594.84C594.428 1594.61 593.036 1593.82 592.527 1594.19C588.157 1597.53 581.574 1598.53 580.345 1605.3L580.371 1605.29ZM918.162 1435.37C938.33 1441.78 950.556 1425.28 955.998 1424.12C959.269 1423.43 972.799 1418.25 973.598 1415.01C986.717 1414.74 990.805 1417.98 993.902 1413.99C1002.96 1402.3 1021.08 1406.4 1027.73 1396.38C1026.59 1396.19 1025.23 1395.53 1024.36 1395.91C1000.91 1406.07 965.402 1398.45 973.887 1415.26C963.791 1415.21 954.4 1418.05 945.431 1422.36C930.673 1429.47 923.876 1427.78 918.452 1435.62C913.264 1435.27 891.566 1442.5 896.477 1444.16C905.101 1447.04 906.902 1447.5 908.501 1443.44C910.598 1438.17 918.516 1442.01 918.162 1435.37ZM318.149 1511.45C305.519 1513.34 299.665 1525.67 288.894 1530.49C288.072 1530.87 287.775 1532.47 287.29 1533.54C280.502 1549.08 274.787 1546.51 267.418 1555.71C265.485 1558.14 267.205 1560.02 269.984 1559.61C277.877 1558.39 280.551 1554.61 315.003 1517.41C316.595 1515.69 318.002 1513.71 317.665 1511.09C323.174 1510.54 326.73 1506.68 330.671 1503.49C331.488 1502.83 331.235 1493.48 324.761 1497.92C319.968 1501.2 320.192 1506.9 318.1 1511.48L318.149 1511.45ZM116.72 1748.68C124.721 1749.91 125.908 1740.35 140.476 1724C158.073 1704.23 156.099 1696.14 164.606 1689.24C173.234 1682.25 172.737 1677.42 169.982 1678.53C166.876 1679.78 160.338 1676.86 162.453 1684.57C148.995 1695.48 159.178 1682.08 118.201 1742.07C113.531 1748.92 122.28 1744.5 109.148 1757.7C101.368 1765.52 97.0361 1784.18 112.596 1768.06C119.415 1761.03 117.476 1756.88 116.717 1748.66L116.72 1748.68ZM848.135 1320.65C853.376 1321.49 858.715 1319.14 864.012 1321.23C865.322 1321.74 868.418 1321.11 868.742 1320.24C872.005 1311.74 882.811 1316.19 898.632 1308.76C903.632 1306.42 910.706 1307.53 913.425 1300.53C914.101 1298.81 925.286 1300.47 926.866 1300.09C928.827 1299.62 924.158 1293.67 929.821 1295.28C949.994 1301.01 947.311 1282.73 966.47 1282.72C970.442 1282.71 976.379 1279.12 978.801 1276.38C973.552 1274.25 978.645 1275.66 957.219 1280.09C914.216 1289 920.067 1295.24 912.296 1294.93C897.334 1294.36 885.652 1307.42 849.917 1318.03C849.207 1318.23 848.947 1319.93 848.507 1320.95C836.539 1321.22 825.87 1327.47 814.064 1328.51C810.309 1328.84 807.057 1334.78 791.744 1338.45C791.258 1338.55 790.946 1339.29 790.549 1339.72C798.926 1343.7 807.331 1339.01 847.74 1322.31C848.065 1322.17 848.039 1321.21 848.187 1320.64L848.135 1320.65ZM771.452 1545.14C771.654 1540.73 777.398 1540.42 776.842 1539.15C775.143 1535.29 769.468 1539.61 763.432 1542.77C758.238 1545.5 768.646 1544.81 771.898 1544.67C773.866 1557.54 759.766 1554.78 965.225 1475.08C975.537 1471.09 988.778 1468.33 994.772 1461.15C977.168 1459.11 897.346 1498.33 886.184 1494.94C897.265 1484.05 876.279 1492.3 871.552 1498.38C857.274 1516.68 843.085 1513.83 831.764 1519.37C831.465 1519.5 781.738 1543.08 771.429 1545.17L771.452 1545.14ZM1816.76 377.558C1809.14 378.853 1800.93 378.828 1793.97 381.747C1698.89 421.515 1676.13 431.891 1623.94 523.336C1557.05 640.498 1517.75 714.073 1509.66 868.789C1508.55 889.902 1519.36 921.213 1530.52 910.527C1555.45 886.576 1532.75 911.121 1581.32 875.63C1587.81 870.88 1577.36 870.47 1585.55 864.493C1599.99 853.922 1590.35 866.768 1615.24 849.452C1631.24 838.321 1647.87 818.635 1649.11 818.031C1656.11 814.794 1644.33 814.372 1660.58 798.096C1705.65 752.983 1709.16 753.568 1751.38 705.056C1842.51 600.31 1949.55 364.233 1816.79 377.556L1816.76 377.558ZM1082.87 1238.01C1081.23 1238.29 1000.44 1260.87 1008.38 1265.18C1023.38 1273.35 1022.3 1267.46 1031.25 1265.11C1046.96 1261.01 1072.13 1252.8 1073.32 1251.76C1075.11 1250.18 1073.73 1252.86 1072.4 1250.95C1071.84 1250.14 1071.74 1251.17 1065.84 1249.02C1068.98 1245.65 1093.45 1240.63 1082.89 1238.01L1082.87 1238.01ZM1034.62 1277.18C1027.73 1276.12 1022.57 1285.19 1025.85 1285.77C1037.93 1287.94 1031.35 1282.46 1068.64 1278.04C1076.07 1277.15 1070.08 1271.3 1083.09 1270.05C1086.79 1269.7 1093.04 1266.83 1095.85 1262.79C1092.13 1261.53 1080.06 1262.28 1073.45 1265.69C1064.26 1270.42 1059.81 1264.79 1056.51 1267.42C1052.35 1270.74 1046.24 1270.33 1042.77 1274.96C1040.85 1277.52 1038.06 1278.34 1034.62 1277.18ZM182.59 1658.81C186.68 1657.72 192.295 1660.09 193.608 1652.89C195.35 1643.38 213.776 1632.25 232.493 1605.45C233.352 1604.21 228.585 1601.22 222.787 1607.54C215.257 1615.75 172.38 1661.56 182.59 1658.81ZM369.081 1466.15C363.979 1466.1 360.295 1466.6 357.518 1468.97C349.621 1475.69 331.3 1490.94 341.61 1490.32C352.802 1489.63 354.151 1494.37 354.745 1490.68C357.151 1475.72 373.922 1485.52 383.8 1471C384.636 1469.79 382.898 1468.7 382.369 1468.89C377.043 1470.64 375.75 1472.21 374.323 1472.32C369.234 1472.63 376.497 1466.08 369.084 1466.17L369.081 1466.15ZM25.8713 2207.01C24.6549 2197.22 21.4792 2187.2 28.3282 2178.02C28.602 2177.65 26.778 2175.29 25.5755 2174.32C16.9145 2167.48 20.1706 2187.18 22.9448 2210.64C18.8191 2217.93 23.5437 2225.35 22.5346 2232.7C21.86 2237.57 29.6698 2238.24 31.3199 2234.41C38.0098 2218.93 36.7864 2218.25 34.6845 2216.71C31.8411 2214.59 31.4626 2217.37 29.5981 2220.91C26.2183 2218.67 27.642 2221.44 25.8713 2207.01ZM1454.32 163.933C1446.17 161.055 1450 168.186 1447.31 169.653C1443.16 171.929 1439.16 174.53 1434.8 176.306C1429.32 178.545 1435.33 185.335 1429.65 187.673C1427.87 188.388 1420.64 195.672 1423.99 196.693C1425.58 197.174 1424.85 197.696 1466.44 162.36C1467.01 161.88 1466.69 160.349 1466.78 159.294C1459.99 160.76 1458.79 164.154 1454.32 163.907L1454.32 163.933ZM954.104 1298.89C939.013 1307.03 909.327 1310.97 918.69 1312.46C935.287 1315.11 926.992 1320.34 940.232 1316.84C948.874 1314.57 952.954 1304.45 962.623 1304.18C963.091 1304.16 963.547 1303.54 964.033 1303.2C962.401 1301.65 964.327 1302.54 954.104 1298.89ZM854.588 1199.84C867.485 1201.87 877.825 1194.27 890.647 1192.47C896.769 1187.44 907.988 1191.11 907.712 1183.73C907.632 1181.54 863.519 1192.27 854.591 1199.87L854.588 1199.84ZM985.278 1342.75C983.197 1341.88 981.118 1342.23 978.52 1341.65C973.587 1340.52 998.895 1327.52 953.677 1346.88C959.111 1358.92 990.096 1344.76 985.278 1342.75ZM861.08 1490.5C867.921 1491.88 879.09 1483.25 907.081 1474.27C907.914 1474 910.552 1470.84 910.174 1470.49C908.686 1469.06 909.633 1469.11 864.563 1487.17C863.66 1487.53 862.038 1488.73 861.08 1490.5ZM1132 1221.96C1126.13 1223.28 1120.55 1227.27 1113.84 1227.32C1106.5 1227.39 1100.32 1231.37 1093.63 1233.61C1091.08 1234.46 1094.12 1236.71 1094.59 1236.66C1108.93 1235.11 1144.72 1225.78 1132.02 1221.96L1132 1221.96ZM1030.15 1155.25C1042.92 1164.29 1068.02 1150.3 1061.2 1147.95C1046.32 1142.8 1057.31 1149.23 1031.75 1154.3C1031.21 1154.41 1030.74 1154.9 1030.16 1155.28L1030.15 1155.25ZM223.461 1692.27C230.563 1697.51 240.998 1681.87 247.426 1675.56C247.567 1675.41 246.479 1673.57 245.634 1673.01C239.209 1668.72 227.991 1687.03 223.461 1692.27ZM878.34 1452.65C877.802 1448.4 875.937 1446.39 873.375 1448.07C867.126 1452.17 860.054 1452.52 853.109 1453.56C848.142 1454.28 848.319 1461.23 854.385 1460.52C863.058 1459.5 867.912 1453.39 878.194 1456.61C880.628 1457.37 878.731 1454.33 878.34 1452.65ZM768.549 1348.03C758.057 1346.97 746.215 1358.07 741.788 1356.54C735.679 1354.44 731.295 1363.68 731.633 1363.91C735.728 1366.73 737.703 1361.79 740.741 1361.36C752.067 1359.74 760.925 1351.73 772.086 1349.79C772.396 1349.76 776.091 1347.19 768.547 1348.01L768.549 1348.03ZM398.606 1443.08C393.157 1441.77 393.45 1446.41 383.991 1450.54C380.72 1451.96 369.981 1458.77 368.429 1461.34C379.929 1467.11 402.174 1443.92 398.603 1443.06L398.606 1443.08ZM432.506 1545.71C427.245 1547.09 400.589 1566.47 405.78 1569.51C408.181 1570.93 408.984 1569.17 434.631 1548.19C436.792 1546.42 435.229 1545.99 432.503 1545.68L432.506 1545.71ZM166.4 1788.43C163.379 1786.12 162.06 1790.36 158.802 1789.72C152.314 1788.46 150.4 1793.24 148.182 1804.63C147.494 1808.17 154.425 1811.11 154.645 1806.62C155.128 1797.79 162.889 1797.29 166.374 1788.43L166.4 1788.43ZM899.426 1269.48C892.502 1267.1 878.319 1275.89 877.749 1276.42C887.45 1280.07 902.873 1272.35 909.128 1269.76C909.829 1269.48 909.992 1267.84 910.405 1266.83C906.798 1265.86 909.765 1265.02 899.429 1269.51L899.426 1269.48ZM670.662 1371.76C670.911 1379.62 686.5 1371.98 693.405 1368.15C694.44 1367.57 693.58 1363.25 692.7 1364.05C686.553 1369.57 673.095 1358.49 670.688 1371.76L670.662 1371.76ZM331.416 1744.67C332.415 1743.51 335.31 1738.13 333.812 1737.1C327.207 1732.59 285.285 1797.86 331.416 1744.67ZM347.118 1554.74C346.278 1555.43 344.608 1558.12 345.109 1559.37C346.97 1564 349.611 1556.04 362.901 1548.41C367.529 1545.77 370.676 1541.28 373.334 1536.6C374.519 1534.52 373.471 1537.63 372.83 1535.32C371.898 1532.03 365.559 1539.64 347.115 1554.71L347.118 1554.74ZM1145.54 1219.77C1155.94 1218.59 1158.64 1214.07 1178.44 1208.84C1178.87 1208.72 1180.72 1206.72 1178.12 1206.61C1166.54 1206.16 1131.07 1221.38 1145.54 1219.77ZM744.054 1432.07C740.683 1435.7 745.893 1438.19 746.787 1437.75C787.747 1417.94 748.805 1426.93 744.054 1432.07ZM364.876 1636.94C365.202 1637.3 366.084 1637.73 366.199 1637.58C384.561 1619.33 382.708 1621.78 382.832 1617.85C382.881 1616.61 379.312 1616.24 378.169 1617.52C368.924 1627.73 362.23 1633.99 364.876 1636.94ZM172.78 1764.29C174.906 1767.27 177.096 1771.08 179.978 1768.73C186.273 1763.61 192.348 1761.78 187.626 1758.24C181.937 1753.98 173.544 1757.1 172.806 1764.29L172.78 1764.29ZM196.734 1729.84C192.203 1735.32 185.816 1739.82 182.377 1746.93C181.779 1748.17 183.048 1751.69 184.073 1751.5C187.841 1750.8 185.926 1752.92 199.915 1731.22C200.789 1729.87 197.026 1729.89 196.708 1729.84L196.734 1729.84ZM1399.19 224.808C1406.84 219.124 1411.56 210.858 1417.68 203.826C1411.88 198.839 1389.3 232.197 1399.19 224.808ZM2494.18 1802.49C2493.66 1802.24 2493.08 1801.72 2492.59 1801.75C2472.95 1803.17 2463.37 1798.41 2457.57 1802.85C2458.47 1803.41 2488.02 1809.84 2494.18 1802.47L2494.18 1802.49ZM267.621 1729.56C261.192 1718.95 248.491 1741.92 251.729 1743.34C254.34 1744.52 254.811 1743.56 267.599 1731.05C267.861 1730.81 267.622 1730.06 267.621 1729.56ZM944.32 1440.6C931.779 1447.42 929.059 1443.07 921.762 1451.48C923.256 1452 925.097 1453.31 926.172 1452.86C941.637 1446.48 949.829 1442.96 944.32 1440.6ZM51.4375 2212.33C51.2894 2210.97 49.3245 2210.68 49.2875 2211.55C48.9494 2217.12 44.2351 2222.59 48.7467 2228.29C49.5644 2229.33 57.7524 2261.99 51.4375 2212.33ZM1381.88 243.626C1384.91 241.419 1394.15 231.646 1391.52 230.73C1384.46 228.334 1383.29 227.835 1382.36 230.128C1377.26 242.926 1381.18 244.12 1381.86 243.629L1381.88 243.626ZM892.029 1290.99C896.647 1289.21 899.003 1289.24 898.445 1284.58C897.362 1275.53 867.772 1290.27 892.029 1290.99ZM41.8822 2185.87C39.781 2186.99 40.584 2184.27 40.4737 2186.63C40.2655 2190.98 40.3186 2195.34 40.5036 2199.71C40.6593 2203.32 52.8231 2200.02 46.5106 2190C43.1657 2184.69 43.5008 2185.86 41.8822 2185.87ZM121.116 1792.44C119.708 1789.09 120.07 1788.82 118.373 1790.28C113.133 1794.76 108.4 1805.62 111.518 1806.17C114.555 1806.7 123.092 1800.32 121.141 1792.44L121.116 1792.44ZM554.304 1318.53C560.196 1325.15 599.363 1293.83 555.378 1317.11C554.91 1317.37 554.669 1318.05 554.304 1318.53ZM712.833 1352.99C695.576 1359.95 713.654 1364.68 720.434 1356.32C722.903 1353.29 717.616 1353.47 712.833 1352.99ZM968.835 1448.06C937.335 1456.97 967.548 1458.38 975.635 1448.57C971.066 1447.66 972.946 1447.87 968.835 1448.06ZM840.351 1290.03C838.09 1291.84 841.995 1292.17 842.481 1292.07C858.364 1288.6 864.396 1270.66 840.351 1290.03ZM526.594 1377.46C521.075 1377.66 511.91 1383.07 514.839 1387.19C518.449 1392.28 525.29 1380.86 528.17 1379.22C529.524 1378.44 526.924 1377.6 526.594 1377.46ZM1682.35 1167.65C1691.61 1172.08 1698.52 1158.88 1691.76 1158.69C1688.19 1158.61 1682.64 1164.07 1682.35 1167.65ZM95.7238 2277.36C96.309 2279.39 100.318 2282.37 100.717 2281.47C104.155 2273.63 97.3726 2272.06 99.4466 2266.59C99.7098 2265.88 91.5998 2262.92 95.698 2277.36L95.7238 2277.36ZM355.749 1453.1C346.857 1454.51 348.485 1460.86 343.119 1463.68C350.456 1466.02 353.909 1461.94 357.594 1455.17C358.183 1454.09 356.084 1453.3 355.749 1453.1ZM995.474 1169.82C1004.61 1173.58 1005.44 1165.53 1012.33 1165.41C1012.64 1165.4 1013.94 1163.85 1011.54 1163.69C998.043 1162.88 997.754 1165.52 995.471 1169.79L995.474 1169.82ZM370.585 1599.85C363.242 1604.22 360.865 1604.71 361.802 1608.06C362.27 1609.73 364.939 1610.72 368.435 1606.79C374.612 1599.86 373.149 1600.59 370.559 1599.85L370.585 1599.85ZM408.482 1591.1C389.771 1598.64 405.669 1606.65 412.092 1592.33C411.06 1591.97 410.056 1591.64 408.482 1591.1ZM574.22 1660.53C562.221 1669.22 563.674 1667.91 562.661 1669.9C566.09 1671.15 563.893 1672.35 577.015 1662.68C577.452 1662.37 580.101 1659.32 574.22 1660.53ZM544.286 1685.86C539.71 1682.7 524.36 1698.59 531.975 1696.25C536.807 1694.76 544.262 1690.22 544.286 1685.86ZM992.26 1271.76C997.18 1276.89 998.537 1275.41 1010.22 1273C1007.42 1270.54 1004.08 1272.99 1001.1 1272.03C992.706 1269.36 994.388 1270.17 992.257 1271.73L992.26 1271.76ZM222.252 2286.64C224.175 2286.54 221.819 2302.93 226.767 2292.13C229.009 2287.24 224.146 2283.85 223.984 2279.46C223.945 2279.1 223.125 2278.77 222.693 2278.4C222.001 2280.22 222.09 2278.38 222.278 2286.64L222.252 2286.64ZM753.06 1559.97C757.914 1561.82 761.749 1562.24 766.736 1555.91C771.426 1549.97 754.291 1558.3 753.06 1559.97ZM255.419 1577.93C260.293 1574.66 264.256 1572.87 262.453 1570.22C259.959 1566.5 249.943 1571.29 255.419 1577.93ZM99.122 2256.1C91.6014 2239.27 91.1431 2269.81 99.1863 2258.63C99.46 2258.26 99.1694 2257.51 99.122 2256.1ZM597.557 1499.12C593.53 1499.12 582.956 1505.51 587.021 1506.84C591.222 1508.22 596.961 1502.56 599.046 1501.05C600.185 1500.22 597.863 1499.3 597.531 1499.13L597.557 1499.12ZM680.885 1428.3C690.203 1427.45 692.351 1422.42 692.059 1422.13C690.797 1420.86 691.541 1420.73 679.591 1426.25C677.252 1427.34 678.738 1427.54 680.885 1428.3ZM778.987 1296.17C765.034 1296.95 772.473 1309.41 782.397 1296.77C781.279 1296.58 780.131 1296.36 778.987 1296.17ZM104.295 1827.11C109.315 1822.04 105.776 1814.46 103.303 1817.21C96.7235 1824.53 101.35 1830.09 104.295 1827.11ZM255.38 1848.09C267.773 1835.31 261.393 1834.57 260.127 1836.4C253.406 1846.03 253.302 1845.31 255.38 1848.09ZM979.99 1173.84C988.943 1172.27 987.641 1173.04 988.981 1170.21C989.024 1170.12 988.139 1169.44 987.629 1169.31C980.233 1167.39 966.951 1174.13 979.99 1173.84ZM100.547 1869.52C93.6757 1868.83 84.7944 1882.9 102.79 1871.89C104.848 1870.62 102.012 1870.02 100.547 1869.52ZM1024.33 1225.6C1026.23 1224.77 1028.54 1224.13 1025.93 1223.21C1008.68 1217 1015.83 1227.69 1024.33 1225.6ZM1007.38 1234.9C1007.11 1232.92 1005.46 1231.92 1003.59 1232.28C991.745 1234.63 1008.39 1242.02 1007.38 1234.9ZM91.4273 1845.16C94.3364 1849.33 100.778 1841.95 95.3693 1835.93C93.9999 1838.98 90.9078 1841.32 91.4273 1845.16ZM813.209 1287.77C814.309 1287.54 815.16 1286.23 813.128 1286.05C800.515 1284.96 790.653 1292.14 813.209 1287.77ZM785.198 1306.47C782.886 1307.08 779.68 1307.17 779.55 1310.31C779.417 1313.67 800.003 1304.86 785.198 1306.47ZM984.765 1355.89C982.976 1354.33 985.746 1354.08 983.503 1354.85C956.906 1363.92 989.955 1360.36 984.765 1355.89ZM294.382 1745.2C294.99 1746 295.351 1747.16 296.883 1746.58C300.905 1745.1 300.494 1741.3 301.221 1738.12C301.259 1737.98 300.316 1737.48 299.814 1737.43C298.07 1737.26 298.437 1737.27 294.407 1745.2L294.382 1745.2ZM1049.7 1441.16C1055.86 1444.98 1069.88 1438.09 1062.63 1437.98C1060.07 1437.95 1052.29 1439.23 1049.7 1441.16ZM77.069 2252.56C76.8853 2251.59 75.4532 2250.68 75.3275 2252.41C74.363 2265.96 80.915 2273.61 77.069 2252.56ZM708.821 1519.77C704.99 1519.64 697.956 1525.41 699.574 1526.36C703.279 1528.47 707.041 1525.55 709.688 1522.24C711.022 1520.55 710.691 1520.88 708.821 1519.77ZM559.031 1660.27C559.324 1662.01 563.727 1658.98 568.085 1656.26C573.939 1652.62 557.58 1651.94 559.031 1660.27ZM336.473 1637.54C336.187 1638.27 336.996 1639.47 337.309 1640.42C338.487 1639.72 337.884 1640.91 343.802 1633.04C344.488 1632.13 339.941 1628.52 336.448 1637.54L336.473 1637.54ZM86.7452 2275.07C90.2212 2291.25 92.9879 2275.75 89.7423 2268.95C87.7773 2264.8 87.1237 2272.29 86.7452 2275.07ZM462.966 1607.84C464.604 1609.7 464.213 1611.89 471.008 1607.52C472.253 1606.71 470.544 1602.51 468.155 1603.86C466.332 1604.89 464.743 1606.4 462.963 1607.82L462.966 1607.84ZM864.441 1291.86C869.078 1295.09 873.614 1297.63 875.848 1292.19C877.647 1287.79 868.784 1289.95 864.441 1291.86ZM331.608 1622.53C331.802 1622.87 332.691 1624.81 333.756 1624.02C338.709 1620.27 337.529 1620.48 337.845 1618.33C334.351 1618.89 335.907 1617.57 331.634 1622.53L331.608 1622.53ZM297.749 1609.17C301.133 1610.97 304.823 1606.18 304.859 1604.59C304.899 1603.02 299.257 1601.85 297.749 1609.17ZM508.711 1658.09C512.011 1660.08 515.674 1654.8 515.412 1653.34C514.929 1650.81 508.425 1654.96 508.711 1658.09ZM640.666 1559.55C634.144 1559.92 631.287 1572.16 642.506 1561.34C643.499 1560.37 641.018 1559.67 640.666 1559.55ZM299.455 1690.4C299.761 1690.81 300.771 1692.89 302.079 1691.94C304.763 1689.93 308.177 1687.42 305.698 1686.25C304.374 1685.61 304.338 1686 299.455 1690.4ZM308.175 1597.54C311.1 1597.28 310.525 1598.73 314.329 1593.3C315.462 1591.69 309.202 1589.89 308.175 1597.54ZM201.363 1723.1C204.831 1725.68 207.741 1722.85 209.246 1719.38C209.813 1718.09 206.381 1717.78 205.613 1718.41C204.033 1719.76 202.783 1721.48 201.36 1723.07L201.363 1723.1ZM319.953 1585.12C322.905 1587.28 325.851 1584.06 327.373 1580.74C328.3 1578.68 320.364 1579.02 319.953 1585.12ZM735.123 1527.55C747.025 1524.49 741.616 1520.4 730.972 1525.91C732.474 1526.51 733.976 1527.1 735.123 1527.55ZM884.849 1448.06C886.569 1451.4 889.178 1452.32 891.7 1451.7C895.95 1450.64 889.016 1445.02 884.849 1448.06ZM735.319 1453.04C736.79 1451.42 733.973 1450.03 733.674 1450.16C721.846 1456.33 731.7 1457.04 735.319 1453.04ZM240.574 1752.83C240.319 1756.74 245.654 1757.5 246.446 1752.97C247.103 1749.14 241.192 1748.63 240.574 1752.83ZM228.668 1773.72C229.316 1774.15 230.026 1775.4 231.197 1773.42C237.939 1761.81 226.603 1767.45 228.668 1773.72ZM1075.46 1379.02C1069.6 1380.36 1071.3 1379.89 1069.64 1381.01C1075.45 1386.36 1085.35 1377.85 1075.46 1379.02ZM550.128 1743.95C551.745 1744.63 550.908 1745.35 556.812 1740.25C558.964 1738.4 555.091 1737.87 554.752 1738.12C552.931 1739.41 551.362 1741.1 549.788 1742.73C549.647 1742.88 550.006 1743.54 550.128 1743.95ZM469.091 1421.69C469.841 1420.41 465.385 1421.02 463.872 1422.02C457.995 1425.92 464.289 1429.73 469.091 1421.69ZM924.984 1261.21C925.998 1266.48 930.064 1262.98 933.743 1259.29C930.056 1258.07 926.043 1257.46 924.984 1261.21ZM137.451 1827.2C132.717 1831.29 133.877 1835.97 135.133 1835.49C139.595 1833.73 140.55 1829.03 137.451 1827.2ZM1026.12 1239.45C1026.6 1239.35 1029.38 1237.74 1026.4 1237.7C1017.58 1237.58 1013.01 1241.99 1026.12 1239.45ZM267.447 1828.2C268.744 1827.38 270.425 1826.72 271.077 1825.51C271.972 1823.87 271.466 1819.2 270.263 1820.16C264.76 1824.62 266.395 1828.86 267.447 1828.2ZM1697.47 770.135C1700.02 770.824 1698.81 771.947 1704.8 766.652C1705.99 765.583 1702.47 764.894 1701.67 765.528C1700.18 766.734 1699.03 768.373 1697.47 770.135ZM39.4796 2156.19C41.7316 2156.47 37.5125 2162.4 43.0025 2162.41C46.1393 2162.41 48.8271 2157.06 39.4796 2156.19ZM1648.32 43.7721C1634 46.9924 1645.54 49.948 1651.53 44.9649C1650.5 44.5808 1649.49 44.2196 1648.32 43.7721ZM1497.53 115.652C1490.54 119.647 1492.22 118.525 1490.85 120.109C1493.29 120.941 1492.77 122.095 1498.18 118.951C1499.5 118.18 1497.69 115.948 1497.53 115.652Z" fill="#00A5F3"/>
</svg>
