<svg width="1730" height="1921" viewBox="0 0 1730 1921" fill="none" xmlns="http://www.w3.org/2000/svg">
<path d="M1469.89 2.46659C1478.01 10.3542 1486.68 1.32123 1491.21 3.09128C1500.18 6.59413 1510.15 -0.797639 1518.62 6.20792C1520.33 7.64208 1528.91 3.15001 1532.12 2.80406C1538.27 2.13768 1531.15 6.31362 1534.43 9.97558C1536.72 12.5224 1539.47 10.0397 1541.78 7.76868C1549.78 -0.00530367 1550.26 5.38301 1556.44 11.0055C1561.57 15.6803 1559.05 4.39604 1562.93 5.27684C1565.58 5.88034 1565.04 16.5843 1573.37 10.2861C1580.81 4.65087 1589.88 21.2783 1594.43 12.4119C1594.43 12.4119 1595.58 12.7845 1595.95 13.1942C1598.56 16.2113 1596.59 21.2498 1601.5 23.6647C1605.59 25.672 1604.18 30.8735 1605.07 34.7071C1605.24 35.4961 1607.15 40.6752 1607.69 40.8429C1604.2 44.9663 1607.44 54.9311 1600.49 50.2697C1591.13 44.0343 1592.44 56.6494 1584.72 52.5767C1570.65 45.1344 1579.77 39.0342 1570 31.6839C1566.05 28.7246 1568.06 36.2941 1566.17 42.3241C1563.12 40.9478 1563.21 38.8413 1559.45 34.3134C1554.65 28.5214 1552.96 32.7687 1553.71 37.6566C1555.75 50.933 1558.16 54.7529 1552.11 56.3806C1550.88 56.7108 1550.28 56.0519 1550.14 55.8657C1550.21 55.9588 1550.33 56.1497 1550.52 56.6175C1553.02 62.6952 1552.93 69.0586 1553.83 75.322C1553.96 76.1972 1556.23 76.896 1556.46 76.4049C1563.31 60.9337 1559.65 73.2614 1561.42 49.1097C1561.56 47.2338 1563.82 47.8558 1563.99 48.4051C1573.36 78.5738 1566.29 55.9747 1570.12 79.241C1570.85 83.6844 1576.53 82.1776 1577.09 78.135C1578.04 71.5624 1572.7 64.0153 1574.68 58.1553C1580.97 61.3502 1585.97 70.3868 1586.08 70.8686C1588.35 81.8828 1597.69 76.5111 1600.55 81.7835C1599.28 82.94 1599.41 84.2388 1600.18 85.5796C1596.76 93.42 1601.82 87.7678 1608.34 111.47C1606.96 113.625 1607.99 115.185 1609.02 116.796C1607.98 115.159 1607.01 113.564 1608.34 111.47C1617.95 105.256 1608.99 99.002 1615.79 101.471C1630.3 106.716 1620.11 120.469 1626.27 128.209C1626.45 128.6 1626.57 128.949 1626.65 129.278C1626.69 127.472 1627.18 124.448 1629.59 118.509C1629.95 117.597 1633.1 116.02 1633.77 117.379C1640.65 131.339 1639.97 129.637 1640.7 131.329C1642.52 135.522 1635.62 134.684 1636.15 138.792C1636.45 141.013 1636.05 143.308 1637.35 145.373C1637.36 145.424 1637.37 145.475 1637.38 145.526C1638.29 141.816 1641.46 138.463 1644.62 139.556C1647.61 140.574 1648.46 154.12 1643.6 153.707C1638.49 153.258 1636.86 150.09 1637.14 146.839C1635.87 148.735 1631.07 149.977 1630.45 145.117C1629.91 140.825 1628.5 137.247 1625.56 134.209C1624.43 136.425 1623.35 139.504 1626.4 147.388C1627.48 150.179 1628.88 152.465 1626.33 155.175C1624.38 157.249 1623.11 160.916 1620.88 161.56C1616.83 162.718 1611.72 164.889 1608.61 159.265C1616.95 156.984 1615.36 160.87 1616.09 134.74C1611.27 132.521 1612.12 126.891 1609.31 123.487C1602.45 141.525 1613.44 143.181 1600.2 147.911C1599.02 146.671 1598.02 145.188 1596.63 144.25C1590.64 140.259 1589.07 154.323 1594.75 155.037C1596.11 155.214 1597.67 153.634 1599.14 152.864C1599.87 153.791 1600.61 154.687 1601.4 155.523C1581.86 167.797 1609.42 167.344 1604.25 184.335C1598.81 181.196 1596.58 185.806 1593.67 188.715C1592.27 185.479 1590.15 182.425 1592.54 178.686C1594.58 175.511 1591.07 172.341 1586.24 175.042C1583.68 176.486 1581.49 178.576 1579.01 180.19C1577 181.507 1574.2 179.661 1574.18 177.18C1574.07 163.922 1577.58 155.563 1563.52 149.203C1560.06 147.636 1553.83 154.982 1561.03 157.484C1562.69 158.054 1564.59 158.052 1566.12 158.86C1569.6 160.714 1566.03 162.896 1566.16 164.935C1567.17 178.77 1568.39 180.558 1567.07 182.489C1562.59 189.096 1564.12 197.703 1559.18 203.969C1551.92 196.454 1547.36 191.014 1545.19 191.302C1538.51 192.25 1536.43 185.618 1531.74 183.774C1529.03 182.705 1530.04 177.205 1526.05 179.278C1517.88 183.486 1528.81 204.669 1517.03 211.62C1515.64 209.044 1514.25 206.492 1512.86 203.916C1510.65 205.719 1508.62 204.289 1506.43 203.735C1502.71 202.796 1501.33 208.283 1504.02 209.01C1509.87 210.594 1509.14 216.043 1511.03 219.93C1504.85 233.826 1518.04 223.26 1513.12 242.507C1512.27 245.835 1511.19 243.096 1506.6 243.004C1509.05 249.963 1511.56 270.93 1507.88 281.251C1507.2 283.174 1511.58 289.678 1514.77 274.632C1515.89 269.404 1511.99 262.628 1519.64 259.467C1520.57 242.742 1519.55 238.855 1526.07 237.777C1531.84 219.75 1522.06 216.712 1530.39 209.169C1535.78 204.303 1519.09 178.348 1543.62 198.119C1546.88 200.754 1543.86 206.433 1548.41 210.791C1550.79 210.359 1553.92 204.738 1555.24 211.852C1555.44 212.953 1560.45 214.609 1562.69 211.954C1564.8 220.352 1564.62 222.605 1567.31 221.958C1567.64 221.898 1570.76 217.656 1565.62 210.893C1573.5 207.108 1567.25 207.186 1571.57 191.828C1573.75 184.027 1588.97 191.632 1585.53 201.698C1575.87 230.083 1598.5 230.869 1576.28 232.918C1574.25 233.102 1572.43 237.637 1574.01 238.303C1579.48 240.642 1576.7 246.86 1580.48 250.061C1594.23 261.714 1572.82 280.703 1587.83 286.018C1597.15 289.323 1591.67 302.379 1595.2 304.356C1604.98 309.853 1593.72 314.966 1598.2 325.234C1598.15 325.401 1598.12 325.539 1598.1 325.702C1598.58 324.291 1599.55 324.247 1604.16 322.961C1603.52 329.029 1602.07 333.576 1597.45 328.701C1597.5 328.508 1597.52 328.345 1597.57 328.178C1597.13 329.844 1596.56 330.503 1592.03 341.508C1587.62 352.174 1588.74 360.381 1589.51 361.563C1586.98 362.524 1584.22 363.159 1582.08 364.657C1578.54 367.125 1583 370.732 1581.37 373.832C1579.28 377.755 1573.65 377.64 1573.75 372.384C1573.8 369.731 1575.64 367.069 1573.95 364.415C1566.13 373.055 1569.3 387.183 1557.65 413.762C1557.2 414.796 1558.96 416.777 1559.72 418.332C1554.86 421.119 1554.52 427.845 1556 427.999C1558.24 428.253 1561.99 423.236 1559.72 418.332C1565.05 417.1 1564.82 407.648 1569.06 409.204C1569.38 409.332 1569.8 410.074 1569.7 410.358C1563.67 426.553 1568.05 438.003 1561.62 448.904C1560.47 450.858 1563.07 453.957 1565.2 453.49C1586.25 448.77 1579.62 443.441 1587.51 441.586C1589.18 441.202 1590.87 436.506 1591.46 436.715C1594.98 438.034 1592.26 448.842 1588.94 458.807C1591.2 457.683 1594.65 459.516 1595.92 456.007C1597.31 452.183 1605.87 458.511 1607.12 461.193C1607.8 462.629 1607.84 465.294 1608.71 465.56C1611.67 466.424 1612.49 463.841 1613.35 461.595C1618.53 447.829 1624.27 443.481 1624.95 442.405C1625.78 446.723 1625.53 449.837 1629.66 448.293C1632.93 447.065 1633.2 451.617 1632.1 456.605C1632.73 455.406 1633.65 454.208 1635.21 453.077C1640.44 449.245 1646.51 456.581 1641.05 459.265C1635.82 461.826 1636.39 467.992 1633.8 472.244C1638 478.913 1640.33 477.01 1652.75 475.072C1659.38 474.026 1655.2 482.19 1656.35 483.251C1664.26 490.543 1664.76 485.902 1665.68 484.704C1673.37 475.031 1665.62 471.703 1670.25 466.895C1673.06 463.98 1670.92 458.786 1675.61 456.507C1678.92 454.902 1675.8 449.834 1679.24 447.517C1683.3 444.797 1680.18 439.413 1682.97 436.288C1684.65 434.449 1687.2 433.377 1688.1 432.791C1684.76 475.846 1682.09 469.877 1682.77 477.556C1683.77 477.375 1685.16 477.491 1685.66 476.898C1688.43 473.487 1695.75 471.55 1689.91 465.02C1689.64 464.724 1689.82 463.793 1690.07 463.323C1694.53 455.374 1694.1 445.877 1697.64 437.963C1703.56 424.721 1700.49 423.109 1703.56 414.671C1705.19 410.224 1709.71 413.423 1711.67 409.073C1724.17 381.335 1710.99 379.1 1708.23 384.308C1706.55 387.443 1705.65 392.342 1703.14 393.379C1695.71 396.447 1702.82 407.665 1695.92 408.573C1689.1 409.468 1691.58 392.648 1698.19 385.814C1706.53 377.239 1699.01 375.482 1704.57 365.005C1706.68 361.026 1710.92 363.429 1714.27 363.244C1721.06 362.91 1724.69 356.064 1727.35 356.611C1730.48 362.47 1730.12 367.64 1724.46 371.735C1729.95 440.268 1698.75 513.559 1673.09 575.316C1636.5 663.39 1591.92 748.233 1544.28 830.776C1529.41 856.537 1514.02 881.891 1498.24 906.972C1496.1 913.416 1492.91 919.551 1487.46 924.374C1487.4 924.332 1487.34 924.29 1487.3 924.244C1482.9 931.153 1478.47 938.067 1474 944.934C1473.94 949.123 1472.57 954.662 1465.93 962.374C1464.33 964.224 1463.6 962.929 1462.89 961.789C1441.99 993.404 1420.54 1024.67 1398.62 1055.76C1392.75 1064.07 1386.89 1072.41 1381.02 1080.72C1374.62 1089.79 1368.09 1098.99 1360.25 1106.79C1309.61 1186.17 1109.77 1414.17 909.575 1543.42C480.062 1820.73 544.777 1759.11 343.552 1852.26C260.189 1890.85 207.373 1918.53 124.631 1920.49C117.6 1920.66 112.694 1918.69 110.087 1912.92C106.379 1904.73 100.005 1900.36 97.4279 1893.74C88.5057 1870.82 80.4384 1872.71 81.2574 1864.84C82.039 1857.34 76.4614 1851.82 75.8604 1844.87C70.0359 1840.61 73.7179 1832.2 68.5893 1827.84C61.9575 1822.19 52.5108 1793.47 51.9211 1787.89C50.1355 1771.5 43.865 1772.5 37.3001 1751.35C34.0653 1740.96 32.2156 1729.6 23.7457 1721.41C21.0815 1718.82 19.3088 1715.47 20.3455 1711.71C22.3909 1704.33 15.7312 1698.82 16.5314 1691.43C16.8931 1688.03 13.3144 1684.05 11.1507 1680.59C4.57607 1670.01 15.4455 1669.86 4.26676 1660.44C-2.13469 1655.04 -0.237311 1635.05 6.07056 1633.37C17.8809 1630.25 28.8868 1624.15 41.504 1623.87C78.6413 1623.03 429.904 1465.21 461.742 1446.1C872.437 1199.74 902.932 1124.14 929.229 1127.83C926.228 1123.83 924.361 1124.04 929.381 1117.31C931.42 1114.56 933.946 1112.3 937.603 1111.9C935.863 1117.61 933.895 1123.23 930.13 1127.99C932.932 1128.56 935.713 1130.04 938.975 1132.28C940.004 1132.99 943.266 1129.25 943.152 1127.61C941.62 1103.58 956.544 1122.27 962.411 1105.49C963.948 1101.14 970.526 1097.46 968.842 1096.05C967.006 1094.53 960.605 1095.98 959.156 1101.4C956.365 1111.67 950.859 1108.14 940.26 1107.45C965.894 1072.09 1010 1031.42 1065.02 980.465C1072.53 973.494 1075.87 973.048 1076.78 973.121C1077.58 977.101 1074.1 978.897 1061.71 991.671C1057.08 996.453 1057.43 1005.67 1060.69 1004.84C1066.51 1003.36 1069.21 999.196 1085.64 980.292C1088.12 977.462 1089.83 982.387 1089.57 983.439C1088.6 987.398 1079.69 998.035 1087.97 1001.27C1089.76 1001.97 1092.75 1009.52 1088.15 1008.96C1080.01 1007.95 1080.15 1008.87 1080.92 1014.29C1082.25 1023.78 1075.57 1016.29 1084.96 1029.87C1083.2 1029.9 1081.54 1030.07 1079.78 1029.99C1077.27 1029.87 1076.79 1023.9 1073.02 1027.44C1061.34 1038.42 1067.56 1032.5 1066.53 1041.68C1065.3 1052.83 1072.22 1053.48 1078.82 1046.14C1088.39 1035.49 1091.02 1038.61 1084.96 1029.87C1122.02 1020.42 1086.46 1040.89 1082.98 1053.48C1075.11 1059.09 1072.06 1069.19 1063.68 1074.36C1063.21 1074.66 1063.44 1076.09 1063.35 1077.01C1070.71 1076.18 1073.94 1069.53 1078.27 1065.71C1083.66 1060.97 1083.6 1070.85 1092.27 1066.31C1100.82 1061.85 1103.54 1050.19 1112.24 1049.3C1110.42 1055.58 1109.6 1056 1111.44 1056.38C1113.15 1056.76 1117.93 1052.79 1118.1 1048.37C1121.12 1047.53 1124.15 1046.69 1127.19 1045.85C1123.48 1054.54 1117.8 1061.86 1111.25 1068.58C1106.61 1073.34 1105.32 1076.32 1105.46 1076.8C1098.02 1081.24 1094.64 1081.41 1099.69 1100.06C1099.88 1100.79 1101.89 1101.83 1102.12 1101.63C1106.03 1098.25 1113.52 1104.13 1115.77 1096.27C1117.18 1091.36 1126.11 1092.78 1125.03 1080.54C1124.06 1069.51 1135.62 1083.41 1138.46 1072.79C1138.74 1071.71 1141.32 1069.33 1142.27 1070.06C1143.04 1070.64 1143.47 1070.53 1143.67 1070.34C1143.62 1070.48 1143.55 1070.7 1143.5 1070.98C1142.7 1074.43 1141.83 1077.94 1140.49 1081.2C1138.75 1085.46 1144.86 1086.65 1143.72 1090.43C1143.14 1092.33 1144.01 1093.49 1145.03 1095C1154.61 1109.34 1128.04 1122.5 1141.24 1120.63C1149.21 1119.5 1144.96 1112.71 1160.02 1109.13C1160.25 1106.02 1161.96 1103.17 1164.39 1102.3C1174.79 1098.7 1185.34 1067.66 1190.24 1096.53C1191.42 1103.48 1186.03 1101.18 1185.41 1108.83C1185.19 1111.38 1188.64 1115.57 1189.93 1110.57C1190.94 1106.66 1204.65 1096.5 1205.15 1096.23C1209.47 1093.91 1203.92 1091.34 1205.74 1088.95C1207.23 1086.96 1208.33 1086.05 1211.28 1086.39C1215.39 1086.88 1218.02 1083.79 1216.16 1081.82C1211.58 1076.97 1211.74 1072.66 1215.86 1067.81C1216.73 1066.78 1209.93 1056.96 1219.45 1057.24C1222.32 1057.33 1225.02 1058.79 1227.57 1056.11C1228.7 1054.92 1230.64 1054.2 1232.22 1055.93C1235.3 1059.33 1243.56 1066.54 1236.94 1072.45C1224.17 1083.86 1222.48 1081.81 1221.27 1085.81C1217.95 1096.92 1213.62 1092.15 1214.37 1113.65C1214.55 1118.72 1214.88 1122.41 1219.62 1125.36C1225.45 1129.04 1226.11 1129.08 1229.34 1122.25C1229.78 1121.3 1232.32 1117.24 1233.86 1117.83C1236.02 1118.68 1234.52 1119.75 1234.07 1125.86C1233.87 1128.52 1236.4 1130.07 1238.83 1128.88C1239.87 1128.38 1240.63 1127.31 1241.67 1126.78C1251.01 1121.99 1249.26 1134.5 1253.53 1132.69C1256.98 1131.25 1255.26 1123.23 1253.98 1121.74C1249.75 1116.8 1251.54 1117.21 1257.88 1103.58C1259.58 1102.05 1261.12 1100.19 1263.1 1099.12C1268.25 1096.35 1265.6 1092.97 1267.06 1087.74C1266.79 1088.42 1266.5 1089.16 1266.25 1089.97C1258.04 1097.36 1256.5 1097.32 1257.76 1103.68C1257.54 1104.04 1249.47 1103.62 1247.09 1110.72C1246.71 1111.85 1240.71 1117.96 1239.11 1115.61C1237.28 1112.93 1237.94 1113.23 1248.21 1097.96C1251.45 1093.11 1254.16 1087.75 1258.07 1083.52C1261.7 1079.61 1267.17 1077.59 1270.48 1073.05C1265.35 1074.4 1260.3 1075.87 1256.2 1079.08C1251.65 1075.54 1251.69 1068.31 1254.53 1063.27C1257.37 1058.24 1262.23 1054.74 1266.57 1050.96C1270.93 1047.15 1275.11 1042.48 1275.76 1036.73C1269.98 1038.54 1264.14 1032.75 1263.21 1026.76C1262.28 1020.77 1264.56 1014.8 1266.11 1008.94C1267.81 1002.55 1266.64 993.212 1260.05 992.768C1254.51 992.399 1251.53 998.838 1249.02 1003.79C1246.5 1008.74 1239.68 1013.42 1236.11 1009.2C1232.54 1012.97 1232.12 1018.65 1230.16 1023.45C1228.2 1028.25 1222.47 1032.68 1218.14 1029.81C1214.69 1027.53 1214.91 1022.36 1216.29 1018.46C1217.67 1014.56 1219.89 1010.59 1219.1 1006.52C1217.85 1000.24 1208.2 997.898 1204.21 1002.91C1201.2 999.989 1200.56 995.476 1198.96 991.588C1197.35 987.701 1193.46 983.86 1189.5 985.239C1187.88 985.797 1186.62 987.163 1184.96 987.623C1180 988.974 1177.12 982.17 1176.53 977.041C1175.76 970.279 1175.79 961.863 1181.72 958.564C1183.53 953.528 1177.78 947.643 1172.7 949.359C1165.42 951.792 1164.29 964.506 1156.61 964.604C1151.07 964.684 1148.42 957.946 1147.3 952.515C1140.97 953.48 1134.66 954.414 1128.33 955.378C1128.94 950.32 1125.38 945.229 1120.53 943.622C1108.91 939.781 1098.16 954.269 1091.06 961.059C1089.82 962.236 1088.48 963.458 1086.98 964.181C1085.54 966.927 1083.23 969.198 1081.32 971.635C1080.49 972.712 1077.49 972.409 1076.84 972.581C1078.04 964.614 1082.4 961.971 1085.47 960.857C1088.75 955.475 1095.93 946.318 1096.59 945.483C1100.46 944.781 1108.26 930.909 1111.06 927.728C1115.72 922.467 1120.1 917.624 1124.51 912.037C1135.49 898.115 1146.05 883.848 1156.15 869.267C1169.5 850.022 1182.1 830.279 1193.87 810.026C1220.22 764.778 1287.88 642.738 1295.99 627.381C1306.14 608.11 1315.82 588.606 1324.98 568.853C1333.8 549.824 1343.06 532.063 1350.98 512.482C1359.49 491.471 1368.32 470.615 1376.77 449.589C1393.36 408.255 1408.52 366.017 1415.99 321.949C1416.38 319.603 1417.01 316.924 1419.18 315.921C1420.35 315.391 1421.77 315.503 1422.92 314.845C1425.59 313.356 1424.77 309.299 1423.28 306.608C1420.03 300.772 1422.02 293.111 1423.84 286.804C1424.29 285.214 1422 275.394 1424.28 274.796C1431.26 272.92 1426.31 268.396 1428.01 263.011C1429.08 259.59 1434.63 264.109 1434.34 267.891C1434.09 271.322 1433.25 269.888 1432.05 285.577C1431.72 289.869 1437.31 291.79 1438.81 287.524C1439.64 285.151 1443.52 264.982 1447.34 255.005C1455.7 233.175 1448.67 229.666 1455.18 212.112C1464.29 187.555 1457.74 173.723 1463.28 170.918C1468.66 168.17 1466.4 183.999 1465.76 188.081C1453.82 265.359 1450.59 271.447 1471.19 256.573C1471.03 253.191 1469.95 249.155 1473.31 247.275C1479.09 244.004 1479.12 252.462 1483.23 254.863C1485.54 256.216 1486.29 261.66 1489 259.687C1492.85 256.872 1488.92 254.148 1486.92 251.31C1485.39 249.103 1485.6 245.6 1485.19 242.658C1484.47 237.368 1478.46 244.039 1478.8 237.445C1479.07 231.948 1478.8 226.523 1486.77 226.266C1487.74 226.222 1488.58 222.261 1489.48 220.113C1492.11 222.625 1495.21 226.718 1497.22 223.839C1501.51 217.719 1496.89 208.878 1490.69 213.071C1489.85 206.374 1476.7 208.549 1489.14 217.795C1488.44 218.16 1488.33 218.684 1488.77 219.396C1481.37 219.841 1477.93 211.236 1478.81 205.575C1480.35 195.563 1470.47 198.572 1471.75 193.236C1472.79 188.895 1483.63 192.666 1487.99 193.382C1492.3 194.081 1495.09 189.236 1499.7 190.119C1505.37 191.206 1508.49 185.958 1515.25 195.072C1521.84 185.2 1514.2 171.829 1526.13 171.832C1529.25 171.822 1529.06 168.603 1528.61 166.436C1528.09 163.859 1526.13 165.115 1524.54 165.536C1514.02 168.371 1528.89 142.293 1516.42 140.086C1509.35 138.832 1520.59 146.126 1513.31 156.414C1511.16 159.449 1510.56 162.572 1514.43 165.52C1517.1 167.573 1515.25 171.031 1514.85 173.826C1513.95 179.915 1513.36 174.361 1488.95 180.593C1487.51 180.96 1484.23 179.784 1484.23 179.386C1484.37 173.753 1477.47 174.769 1476.25 170.653C1473.23 160.57 1489.33 179.65 1492.41 170.548C1495.1 162.629 1488.36 164.091 1487.44 161.191C1486.24 157.362 1486.66 153.133 1484.32 149.538C1482.92 147.385 1490.59 145.914 1491.2 145.961C1493.37 146.071 1496.15 148.157 1497.47 147.389C1499.13 146.372 1499.75 143.642 1502.11 142.5C1517.35 135.105 1483.08 139.844 1484.38 96.421C1484.77 83.3104 1497.87 84.0796 1489.73 72.7566C1482.4 62.5302 1483.77 63.0496 1483.32 60.5917C1508.56 57.7029 1504.07 72.3484 1496.92 44.8731C1495.68 40.0992 1495.2 35.2929 1488.28 36.6038C1487.58 36.7293 1485.89 35.2649 1485.86 34.5294C1485.75 28.2033 1481.08 23.7869 1479.18 18.261C1477.89 14.5018 1475.48 16.2096 1473.79 17.4403C1462.76 25.5533 1465.53 10.1066 1454.96 17.1048C1450.71 19.913 1446.96 11.0724 1446.49 8.48642C1445.83 4.87635 1450.08 15.0275 1456.31 5.16997C1459.1 0.74851 1466.65 -0.939304 1469.99 2.31537L1469.89 2.46659ZM1625.99 133.472C1626.65 132.636 1626.8 132.108 1626.79 131.475C1626.65 132.187 1626.34 132.799 1625.99 133.472ZM1724.19 371.413C1723.75 369.405 1722.98 365.629 1722.53 365.764C1721.28 366.125 1718.54 366.04 1718.3 371.558C1718.12 375.133 1721.31 373.286 1724.21 371.383L1724.19 371.413ZM515.134 1571.5C519.934 1576.82 529.659 1565.56 524.003 1565.29C519.653 1565.07 516.301 1567 515.134 1571.5ZM530.865 1554.87C534.832 1561.42 542.022 1551.2 533.119 1551.84C531.983 1552.57 529.625 1552.84 530.865 1554.87ZM997.518 1063.31C998.041 1064.01 998.969 1065.48 999.118 1065.42C1007.89 1061.03 997.882 1056.58 997.518 1063.31ZM1041.07 1070.4C1043.56 1069.44 1045.22 1065.6 1042.65 1062.04C1040.8 1059.47 1033.49 1067.43 1036.78 1068.93C1038.19 1069.57 1039.98 1070.81 1041.07 1070.4ZM991.014 1103.23C993.472 1099.59 994.266 1098.57 992.021 1095.96C990.18 1093.84 989.397 1099.43 988.649 1102.45C989.768 1103.8 990.762 1103.6 991.014 1103.23ZM1463.8 712.887C1459.29 719.815 1460.27 718.077 1459.82 720.115C1466.41 720.029 1468.48 713.941 1463.8 712.887ZM1478.64 723.574C1484.19 729.206 1485.27 713.617 1480.22 713.185C1476.97 714.939 1476.05 720.951 1478.64 723.574ZM1510.4 676.472C1506.94 670.567 1501.08 674.857 1500.5 678.19C1500.26 679.609 1506.94 682.628 1508.8 682.237C1510.45 681.884 1511.46 678.262 1510.42 676.468L1510.4 676.472ZM1500.41 685.002C1496.39 683.828 1495.82 686.921 1494.22 689.169C1492.81 691.196 1491.67 692.937 1493.64 695.171C1500.21 701.965 1509.55 687.707 1500.41 685.002ZM1529.26 692.115C1529.33 688.717 1524.17 689.708 1523.12 697.304C1522.99 698.226 1529.15 698.167 1529.26 692.115ZM1545.22 706.436C1547.15 703.204 1545.13 699.074 1538.79 699.007C1535.73 700.331 1519.17 731.503 1526.69 734.475C1531.34 736.303 1538.99 717.008 1545.22 706.436ZM1290.54 1064.99C1293.92 1065.09 1294.63 1067.55 1295.1 1070.16C1298.64 1065.47 1305.9 1062.2 1303.57 1057.09C1297.62 1055.77 1293.12 1061.56 1288.33 1065.63C1289.02 1065.21 1289.74 1064.95 1290.54 1064.99ZM1349.99 1051.13C1349.69 1051.82 1351.35 1054.95 1353.02 1052.24C1354.82 1049.32 1356.61 1047.84 1354.06 1045.02C1352.81 1045.27 1352.95 1044.29 1349.97 1051.16L1349.99 1051.13ZM1330.53 1062.52C1330.71 1062.48 1330.85 1062.4 1331.05 1062.34C1331.78 1061.52 1332.67 1060.46 1333.64 1059.23C1332.46 1060.02 1331.41 1061.09 1330.53 1062.52ZM1328.32 1108.01C1342.54 1086.89 1352.85 1074.44 1360.01 1066.1C1364.47 1056.17 1369.58 1046.57 1373.24 1037.73C1374.35 1035.09 1375.32 1031.72 1373.36 1029.64C1372.44 1028.7 1371.28 1028.38 1370.02 1028.45C1371.64 1030.96 1372.62 1033.9 1368.16 1038.02C1362.32 1043.41 1362.27 1052.49 1355.44 1056.99C1348.5 1061.55 1347.84 1070 1343.33 1076.09C1324.46 1101.75 1330.01 1101.2 1320.48 1100.1C1310.73 1098.98 1322.56 1105.17 1318.26 1110.73C1307.52 1124.58 1313.23 1130.4 1328.34 1107.98L1328.32 1108.01ZM1307.26 1135.5C1312.77 1131.33 1308.73 1127.46 1308.51 1127.13C1301.29 1134.71 1306.49 1136.07 1307.26 1135.5ZM1299.27 1141.16C1295.9 1140.13 1296.42 1141.49 1293.79 1150.64C1295.62 1149.76 1297.63 1149.07 1299.06 1147.73C1303.18 1143.81 1300.83 1141.64 1299.27 1141.16ZM1293.29 1151.21C1288.18 1151.93 1285.67 1155.13 1284.77 1159.92C1289.12 1158.53 1293.01 1156.66 1293.29 1151.21ZM1260.32 1192.95C1269.18 1182.91 1279.52 1173.86 1283.96 1160.6C1282.4 1160.99 1280.63 1161.18 1279.67 1162.15C1254.29 1188.73 1252.78 1189.85 1255.7 1191.25C1257.24 1191.98 1259.9 1193.4 1260.29 1192.93L1260.32 1192.95ZM1024.3 1216.07C1020.68 1215.2 1017.92 1217.04 1019.88 1224.07C1021.08 1228.79 1021.49 1229.01 1025.14 1226.08C1034.28 1218.76 1031.91 1217.94 1024.3 1216.07ZM1049.28 1214.71C1049.17 1213.22 1044.42 1213.29 1041.72 1219.68C1044.29 1222.33 1049.65 1219.67 1049.28 1214.71ZM1017.17 1245.27C1019.17 1244.8 1021.22 1244.43 1023.16 1243.76C1029.26 1241.62 1022.53 1230.2 1017.17 1245.27ZM1007.47 1249.22C1007.11 1249.61 1006.96 1249.77 1006.84 1249.87C1007.03 1249.75 1007.45 1249.7 1007.49 1250.94C1007.63 1254.62 1015.13 1249.63 1016.38 1245.89C1013.21 1246.46 1009.88 1246.49 1007.45 1249.25L1007.47 1249.22ZM1042.87 1237.64C1034.67 1248.12 1038.13 1248.13 1042.81 1247.65C1054.62 1245.42 1046.45 1233.05 1042.87 1237.64ZM1017.75 1258.2C1016.24 1263.76 1017.55 1266.01 1017.52 1267.16C1024.47 1265.95 1026.79 1262.7 1017.75 1258.2ZM815.023 1297.94C811.503 1298.08 808.75 1297.92 807.208 1302.53C806.2 1305.57 802.438 1307.58 806.738 1310.87C809.87 1313.26 805.865 1319.47 806.845 1320.64C807.52 1321.44 808.809 1321.55 809.985 1320.6C814.082 1317.23 809.275 1311.44 813.626 1307.87C832.631 1292.23 820.871 1290.24 818.354 1294.3C817.43 1295.76 817.071 1297.86 815.078 1297.96L815.023 1297.94ZM733.442 1318.39C734.047 1318.51 734.78 1318.91 735.059 1318.7C746.704 1310 731.309 1311.45 733.442 1318.39ZM783.87 1321.26C785.364 1322.5 787.201 1322.56 788.63 1321.4C789.298 1320.86 789.273 1319.41 789.536 1318.38C787.415 1313.98 781.094 1318.94 783.87 1321.26ZM738.677 1326.53C730.39 1337.27 723.163 1337.52 728.426 1338.68C735.508 1340.25 732.693 1342.38 743.637 1331.72C746.198 1329.21 738.933 1326.2 738.702 1326.53L738.677 1326.53ZM1013.21 1273.84C1012.27 1272.02 1017.12 1270.77 1017.3 1267.7C1016.89 1268.2 1015.69 1268.44 1012.79 1268.91C1008.22 1269.66 1008.2 1273.53 1007.23 1276.77C1006.34 1279.71 1008.58 1279.41 1010.11 1279.21C1013.18 1278.79 1015.56 1278.33 1013.24 1273.86L1013.21 1273.84ZM923.505 1302.87C913.248 1299.84 927.287 1293.4 920.035 1292.21C906.716 1304.07 906.561 1302.77 912.816 1304.6C916.279 1305.61 914.764 1308.18 918.992 1311.81C927.776 1299.45 925.073 1303.35 923.479 1302.87L923.505 1302.87ZM1073.6 1278.58C1072.54 1277.24 1065.33 1281.4 1063.59 1288.57C1062.56 1292.78 1080.34 1287.14 1073.6 1278.58ZM887.351 1323.26C890.911 1321.45 886.514 1319.82 884.648 1318.86C881.236 1320.17 875.455 1324.02 876.833 1326.95C877.698 1328.8 877.901 1328.02 887.347 1323.24L887.351 1323.26ZM869.574 1331.25C865.725 1331.61 862.943 1331.29 861.541 1326.63C860.165 1321.96 852.478 1318.22 848.973 1317.85C845.551 1318.53 848.006 1321.42 846.031 1326.85C844.463 1331.18 847.531 1330.89 849.898 1332.42C852.658 1334.22 854.412 1337.47 858.436 1335.6C865.232 1346.96 877.795 1330.5 869.579 1331.28L869.574 1331.25ZM769.343 1346.57C762.411 1341.45 769.003 1337.85 770.279 1335.26C766.711 1334.4 769.272 1332.77 753.436 1342.13C752.435 1342.73 752.886 1344.34 754.401 1344.39C758.921 1344.52 760.149 1347.5 761.368 1351C762.505 1354.21 768.813 1352.24 769.317 1346.57L769.343 1346.57ZM836.171 1329.65C832.83 1332.37 830.223 1334.61 834.002 1336.49C843.439 1341.13 841.609 1325.22 836.171 1329.65ZM712.502 1345.51C712.487 1348.64 715.4 1349.83 716.857 1352.02C723.798 1348.3 712.552 1340.11 712.502 1345.51ZM885.477 1344.26C886.574 1341.13 885.683 1329.52 881.239 1334.32C880.866 1335.18 879.276 1337.05 879.699 1338.22C880.439 1340.26 882.408 1341.78 881.758 1344.46C881.334 1346.2 885.025 1345.56 885.477 1344.26ZM897.748 1348.78C899.152 1347.91 896.334 1345.36 895.757 1345.67C880.152 1354.11 890.73 1353.09 897.748 1348.78ZM873.963 1361.69C873.963 1361.69 874.903 1362.21 875.434 1362.51C884.562 1361.51 880.944 1347.7 873.963 1361.69ZM818.368 1373.77C828.779 1365.85 826.626 1366.95 827.837 1364.01C815.742 1361.34 809.65 1380.37 818.368 1373.77ZM775.359 1384.22C773.108 1383.91 768.588 1386.4 769.248 1386.84C778.678 1393.03 780.593 1384.94 775.359 1384.22ZM793.047 1421.34C779.839 1427.55 777.621 1428.58 778.27 1429.39C786.46 1439.25 801.211 1417.5 793.047 1421.34ZM764.702 1442.94C768.37 1435.61 762.088 1437.28 759.097 1444.11C759.246 1443.77 762.728 1446.92 764.702 1442.94ZM749.761 1440.47C774.706 1425.49 793.989 1416.62 788.474 1409.85C781.871 1401.74 781.022 1392.4 775.486 1396.28C771.144 1399.32 765.609 1400.01 761.682 1404.16C751.45 1414.95 755.059 1399.14 748.838 1397.37C740.577 1394.98 753.001 1392.91 748.066 1386.85C746.198 1384.57 744.067 1380.7 742.669 1378.09C742.317 1378.93 741.509 1379.87 741.665 1380.58C742.632 1385.03 739.219 1388.37 738.808 1392.52C738.549 1395.03 736.024 1395.83 733.415 1393.55C730.49 1390.99 730.048 1391.47 729.416 1394.83C728.214 1401.32 723.021 1391.66 721.849 1390.15C716.618 1383.49 728.612 1380.65 724.642 1372.61C729.305 1374.12 733.234 1376.82 737.336 1371.74C740.593 1367.68 746.658 1360.15 741.673 1358.92C735.941 1357.5 725.526 1355.05 726.555 1360.87C727.336 1365.17 725.038 1368.68 724.642 1372.61C723.441 1371.54 721.039 1369.96 721.242 1369.47C724.698 1361.12 718.259 1358.72 716.629 1352.51C708.552 1352.9 708.576 1352.73 706.862 1345.48C704.295 1334.55 702.903 1337.66 699.095 1338.53C695.261 1339.41 703.188 1350.01 696.251 1348.07C686.606 1345.35 681.212 1353.07 674.182 1356.6C673.528 1356.93 675 1360.52 674.169 1361.62C658.378 1383.03 652.941 1359.05 644.702 1383.16C643.7 1386.09 649.354 1384.17 655.45 1384.09C658.59 1384.05 655.169 1389.25 652.923 1390.71C646.167 1395.16 634.373 1400.27 642.87 1400.6C646.706 1400.75 647.159 1404.27 649.088 1406.3C650.631 1407.95 650.162 1409.3 648.696 1410.55C629.578 1426.74 623.119 1418.84 620.004 1431.25C627.042 1435.05 634.803 1430.02 641.919 1432.8C645.493 1430.78 649.096 1428.78 652.639 1426.73C656.038 1424.77 641.807 1425.63 647.627 1422.14C656.666 1416.72 655.937 1417.8 658.089 1420.19C659.415 1421.67 661.687 1422.23 662.735 1421.01C665.175 1418.13 672.457 1417.9 668.605 1411.24C677.377 1402.17 679.589 1397.45 686.901 1400.44C694.097 1403.36 697.022 1397.62 696.896 1396.93C705.765 1393.92 709.834 1389.53 716.04 1395.02C717.518 1396.31 721.054 1394.66 721.4 1397.88C721.569 1399.54 720.405 1401.28 720.191 1403.02C719.855 1405.83 721.592 1409.14 725.231 1406.6C744.029 1393.45 733.81 1405.78 733.562 1411.7C733.499 1412.95 736.178 1419.26 737.174 1413.53C737.64 1410.85 739.858 1409.81 741.586 1408.26C743.448 1406.57 745.024 1405.2 747.041 1408.3C751.597 1415.32 758.635 1414.47 753.509 1419.16C744.895 1427.07 738.212 1419.98 737.064 1432.3C736.46 1438.73 729.708 1438.68 725.117 1433.94C723.779 1432.54 726.467 1425.2 722.636 1425.08C720.59 1425.03 714.449 1429.66 717.937 1433.57C723.36 1439.7 710.548 1437.46 715.591 1450.66C718.556 1458.4 722.973 1443.69 739.335 1442.62C741.7 1432.2 752.472 1432.09 751.119 1435.86C748.981 1441.85 753.475 1439.95 739.503 1442.96C738.748 1446.38 731.562 1450.06 736.084 1450.35C744.568 1450.9 746.532 1449.49 749.821 1440.51L749.761 1440.47ZM637.479 1385.18C631.741 1389.56 633.354 1388.1 631.99 1390.78C634.85 1390.95 634.694 1392.28 638.97 1387.72C639.611 1387.02 638.245 1385.76 637.484 1385.21L637.479 1385.18ZM599.653 1406.12C594.606 1400.32 592.659 1414.8 592.379 1415.59C590.574 1420.65 594.726 1421.67 599.93 1420.33C599.831 1436.24 618.22 1410.79 601.83 1417.97C604.045 1404.53 617.166 1410.66 622.705 1401.41C624.756 1397.99 617.774 1397.41 612.128 1396.61C611.884 1396.58 611.169 1398.32 611.05 1399.27C610.919 1400.29 611.74 1402.05 611.342 1402.33C601.912 1409.1 601.679 1408.4 599.678 1406.12L599.653 1406.12ZM713.77 1418.2C715.971 1421.58 718.123 1422.22 720.863 1420.27C723.485 1418.39 718.17 1414.46 714.992 1416.05C714.769 1413.36 714.368 1407.8 711.549 1409.9C698.422 1419.61 684.534 1428.48 687.142 1433.08C687.493 1433.71 689.495 1434.24 690.007 1433.86C694.882 1430.12 701.983 1429.46 704.41 1422.15C705.57 1418.63 710.66 1419.72 713.774 1418.22L713.77 1418.2ZM695.634 1453.49C695.634 1453.49 696.079 1454.05 696.318 1454.35C702.006 1455.67 705.187 1450.46 709.123 1447.53C709.589 1447.18 706.443 1443.25 695.634 1453.49ZM669.802 1461.25C659.134 1464.4 668.593 1465.52 666.795 1469.89C666.155 1471.46 664.446 1470.79 666.746 1471.22C672.28 1472.28 681.707 1469.43 679.878 1467.51C678.084 1465.64 671.117 1469.37 669.802 1461.25ZM621.562 1474.21C624.179 1480.32 628.22 1476.07 632.506 1472.15C638.717 1466.44 617.275 1464.15 621.562 1474.21ZM742.401 1459.94C744.796 1459.3 745.565 1456.54 743.903 1454.67C740.076 1450.34 731.687 1462.84 742.401 1459.94ZM702.964 1470.7C698.389 1467.35 693.913 1467.03 693.323 1472.66C693.108 1474.69 689.061 1474.39 689.665 1477.43C693.908 1479.38 698.75 1473.71 702.964 1470.7ZM801.211 1488.3C807.846 1489.45 808.922 1487.8 809.609 1483.87C807.787 1475.87 790.912 1486.5 801.211 1488.3ZM601.615 1510.6C602.136 1510.85 602.739 1511.4 603.17 1511.3C611.742 1509.13 611.379 1517.48 616.421 1515.53C621.34 1513.63 604.908 1496.25 601.641 1510.6L601.615 1510.6ZM642.687 1496.61C642.749 1498.85 645.056 1498.59 646.161 1499.58C650.231 1503.2 642.451 1500.99 637.231 1506.33C649.133 1508.67 654.782 1500.45 657.608 1497.66C652.841 1498.21 651.719 1492.17 647.271 1492C645.512 1491.92 642.634 1494.43 642.687 1496.61ZM633.459 1494C640.27 1491.02 647.458 1488.66 653.222 1483.7C655.809 1481.48 653.85 1478.56 651.538 1479.09C644.046 1480.79 632.241 1490.21 630.273 1493.21C631.36 1493.51 632.677 1494.36 633.459 1494ZM565.893 1495.06C564.012 1497.22 558.564 1502.18 567.39 1500.68C568.338 1500.51 569.104 1499.34 569.979 1498.63C568.722 1497.53 567.461 1496.41 565.918 1495.05L565.893 1495.06ZM492.644 1509.68C501.953 1513.17 503.491 1513.34 505.077 1511.15C506.092 1509.75 506.702 1508.16 504.777 1506.73C502.52 1505.08 500.992 1502.34 496.984 1502.12C493.832 1504.86 488.729 1508.22 492.644 1509.68ZM599.027 1485.71C600.521 1484.33 599.935 1484.59 591.919 1481.82C589.898 1487.29 596.328 1488.18 599.027 1485.71ZM536.965 1486.34C540.867 1490.79 553.177 1490.28 556.256 1481.89C558.471 1475.88 545.587 1472.51 543.855 1473.17C539.97 1474.64 534.964 1484.06 536.965 1486.34ZM640.442 1448.7C642.56 1450.17 641.874 1456.59 647.57 1451.98C650.408 1449.7 664.086 1452.63 666.873 1455.17C668.33 1456.49 669.011 1458.64 669.912 1460.54C676.938 1452.63 677.236 1452.52 676.262 1448.47C675.234 1444.26 677.172 1439.49 672.839 1435.73C669.2 1432.58 669.844 1426.81 666.501 1426.17C659.564 1424.81 671.929 1454.46 659.404 1446.37C655.267 1443.68 652.471 1444.46 648.754 1446.85C646.952 1448 642.291 1444.61 640.52 1445.78C639.172 1446.66 639.141 1447.8 640.437 1448.68L640.442 1448.7ZM601.305 1452.66C611.121 1456.91 603.056 1440.02 619.612 1445.26C620.485 1445.55 627.123 1443.37 623.067 1442.15C615.65 1439.9 622.509 1440.24 619.625 1431.35C617.348 1431.92 610.212 1433.4 611.478 1435.42C618.878 1447.2 570.888 1439.54 601.309 1452.69L601.305 1452.66ZM494.387 1436.98C496.898 1447.02 512.084 1433.5 508.348 1433.46C493.518 1433.35 495.663 1433.52 494.387 1436.98ZM562.474 1422.18C567.643 1432.01 565.412 1428.02 564.045 1432.58C562.894 1436.44 566.519 1439.51 567.752 1443.09C568.252 1444.54 569.597 1444.37 570.612 1443.26C576.239 1437.11 582.224 1441.53 589.426 1431.52C580.256 1429.95 578.065 1433.76 574.871 1435.11C574.599 1435.21 572.817 1433.26 573.005 1432.7C574.608 1428.12 578.023 1423.48 576.527 1421.51C574.478 1418.81 571.529 1427.62 565.321 1419.65C564.767 1418.93 563.078 1418.37 562.317 1418.69C559.505 1419.81 561.841 1421.03 562.479 1422.21L562.474 1422.18ZM534.089 1420.54C535.87 1418.84 539.254 1418.54 539.262 1415.23C537.251 1415.81 535.2 1416.32 533.242 1417.04C528.592 1418.81 530.362 1424.04 534.089 1420.54ZM539.732 1414.91C543.547 1396.45 556.756 1418.8 539.732 1414.91ZM555.386 1398C553.687 1407.43 553.113 1406.45 555.886 1408.33C559.684 1410.89 564.073 1405.78 560.75 1402.63C559.084 1401.03 555.719 1396.48 555.386 1398ZM590.15 1384.81C589.073 1383.68 588.154 1381.97 586.865 1381.57C581.961 1380.06 569.99 1401.38 590.15 1384.81ZM625.204 1360.83C620.828 1370.38 613.03 1356.86 610.443 1367.08C609.16 1372.1 608.735 1375.01 613.398 1373.45C621.649 1370.68 628.57 1366.12 633.457 1358.81C630.553 1358.54 627.316 1356.3 625.229 1360.83L625.204 1360.83ZM659.974 1333.84C658.155 1335.92 652.744 1335.68 653.914 1338.48C658.42 1349.17 640.667 1346.07 634.577 1358.13C647.642 1353.32 660.668 1348.44 669.257 1336.46C664.454 1333.9 663.72 1329.56 659.974 1333.84ZM685.801 1318.04C688.114 1320.29 686.335 1322.15 685.113 1324.01C681.357 1329.69 683.267 1315.88 672.631 1324.16C669.458 1326.64 671.818 1326.24 669.949 1336.05C710.072 1317.13 693.961 1317.83 691.273 1316.28C688.439 1314.65 683.006 1315.32 685.806 1318.07L685.801 1318.04ZM948.918 1267.6C949.846 1269.07 950.384 1268.39 951.709 1267.68C959.826 1263.3 955.256 1267.4 958.387 1274.74C960.898 1273.57 961.739 1271.07 964.326 1268.85C967.119 1266.47 976.089 1266.35 969.379 1258.23C969.144 1257.95 966.448 1253.44 964.329 1254.89C947.694 1266.11 948.821 1265.61 948.918 1267.6ZM709.383 1307.65C707.425 1309.54 721.989 1308.91 715.466 1301.97C713.427 1303.85 711.388 1305.73 709.383 1307.65ZM837.184 1283.95C835.312 1285.87 836.769 1285.45 839.427 1285.52C845.027 1285.49 847.491 1278.66 846.886 1277.08C845.784 1274.21 844.329 1276.54 837.154 1283.93L837.184 1283.95ZM987.628 1250.08C988.173 1249.29 998.129 1234.79 997.602 1232.32C995.898 1230.8 993.41 1229.77 993.154 1230.11C986.393 1239.19 970.3 1241.74 973.887 1250.14C975.778 1254.58 985.13 1253.65 987.628 1250.08ZM937.49 1250.98C938.601 1245.88 939.901 1240.81 941.12 1235.72C933.065 1234.33 934.699 1234 932.656 1249.56C932.243 1252.67 929.002 1257.25 934.539 1257.89C938.726 1258.37 936.903 1253.57 937.485 1250.95L937.49 1250.98ZM947.667 1225.75C945.514 1228.89 943.637 1232.25 941.665 1235.52C958.201 1235.27 951.786 1219.74 947.667 1225.75ZM899.618 1232.62C898.652 1232.11 898.731 1231.67 898.882 1231.49C898.768 1231.59 898.577 1231.7 898.191 1231.9C877.589 1246.33 897.864 1243.36 900.252 1235.68C900.539 1234.78 900.234 1232.96 899.643 1232.62L899.618 1232.62ZM878.578 1249.3C871.78 1254.39 869.436 1255.9 870.232 1256.5C874.376 1259.66 885.418 1250.41 878.578 1249.3ZM890.343 1257C891.028 1256.4 891.377 1255.41 891.866 1254.61C879.91 1253.29 877.618 1268.2 890.343 1257ZM860.119 1264.31C851.476 1270.46 851.981 1270.18 852.306 1271.39C860.857 1273.33 864.146 1261.44 860.119 1264.31ZM825.272 1266.99C826.256 1267.89 828.099 1267.85 829.596 1268.08C831.744 1268.41 829.162 1261.18 824.605 1261.71C822.717 1261.95 824.322 1266.13 825.267 1266.96L825.272 1266.99ZM758.916 1264.23C758.015 1265.53 768.949 1277.24 771.201 1264C759.319 1263.09 759.875 1262.81 758.916 1264.23ZM771.384 1255.98C773.948 1258.45 771.376 1261.04 771.622 1263.56C781.336 1258.94 776.831 1252.77 772.295 1253.57C770.656 1253.87 770.295 1254.94 771.384 1255.98ZM848.863 1239.46C849.763 1241.36 853.103 1242.42 854.395 1240.94C860.623 1233.73 846.453 1235.8 848.863 1239.46ZM830.674 1213.85C834.903 1221.71 834.247 1220.72 845.805 1210.23C841.547 1208.05 837.447 1210.38 838.014 1204.32C830.718 1204.19 829.558 1208.58 830.674 1213.85ZM898.579 1198.35C899.394 1198.76 900.159 1199.33 901.018 1199.55C911.489 1202.01 916.576 1203.52 914.354 1193.32C911.245 1182.75 911.296 1191.04 898.579 1198.35ZM930.478 1187.3C929.367 1181.18 920.664 1171.12 917.563 1183.9C924.448 1183.95 927.627 1195.78 930.478 1187.3ZM863.577 1187.65C861.623 1190.44 865.435 1193.66 867.991 1191.42C871.413 1188.42 874.049 1184.87 874.597 1180.17C870.091 1179.25 869.898 1178.62 863.577 1187.65ZM879.591 1166.6C875.987 1170.35 872.525 1174.15 874.965 1179.87C880.595 1180.14 883.003 1174.18 888.017 1172.95C890.319 1172.37 889.269 1170.53 887.321 1170.43C882.753 1170.18 882.992 1163.05 879.57 1166.63L879.591 1166.6ZM963.166 1146.51C966.646 1144.26 969.08 1139.16 974.825 1142.99C977.08 1144.48 978.917 1141.93 980.486 1140.08C982.758 1137.45 980.652 1136.19 979.203 1134.47C975.359 1129.91 974.244 1129.45 970.955 1132.45C961.307 1141.37 962.382 1142.92 963.166 1146.51ZM909.851 1152.64C912.035 1151.85 913.755 1142.39 911.996 1140.85C911.653 1140.57 910.962 1140.7 909.556 1140.53C897.825 1152.97 893.802 1158.49 909.856 1152.67L909.851 1152.64ZM1025.93 1131.94C1028.31 1128.89 1032.92 1127.52 1032.97 1122.67C1026.91 1122.53 1024.56 1118.01 1020.33 1117.16C1017.65 1118.26 1010.75 1125.86 1009.05 1130.45C1008.29 1132.52 1011.95 1132.44 1012.43 1132.04C1017.31 1127.74 1018.24 1124.58 1019.83 1125.75C1022.88 1127.99 1018.42 1133.72 1017.75 1135.25C1016.43 1138.19 1018.71 1141.29 1025.95 1131.93L1025.93 1131.94ZM963.217 1147.08C959.502 1148.47 956.763 1147.51 962.064 1158.21C964.558 1163.21 970.933 1152.87 970.033 1150.97C969.614 1150.12 969.647 1151.17 963.217 1147.08ZM997.464 1145.75C998.551 1144.02 992.009 1143.68 991.557 1150.66C994.5 1149.97 993.892 1151.43 997.464 1145.75ZM1180.5 1120.22C1178.02 1114.72 1183.23 1110.05 1182 1104.61C1181.23 1101.23 1185.8 1100.48 1186.33 1097.55C1186.72 1095.37 1185.3 1093.8 1183.51 1095.13C1167.15 1107.3 1180.89 1107.8 1160.21 1109.57C1157.27 1116.11 1164.34 1121.99 1163.24 1123.2C1170.11 1122.87 1173.86 1112.38 1177.31 1121.04C1178.19 1123.26 1180.6 1120.52 1180.47 1120.23L1180.5 1120.22ZM1163.02 1123.31C1162.58 1123.47 1161.71 1123.39 1160.11 1123C1153.21 1121.29 1152.63 1121.71 1153.6 1128.81C1157.19 1127.76 1161.83 1128.53 1163 1123.32L1163.02 1123.31ZM1205.89 1129.15C1207.86 1126.57 1205.12 1125.19 1204.93 1123.38C1205 1121.72 1206.58 1119.37 1203.67 1119.37C1202.35 1119.37 1200.79 1121.01 1199.78 1122.27C1197.67 1124.91 1197.04 1124.65 1202.13 1130.84C1202.98 1131.88 1204.96 1130.43 1205.93 1129.17L1205.89 1129.15ZM1152.12 1138.89C1154.61 1135.95 1154.51 1132.79 1153.41 1129.5C1151.23 1131.22 1148.89 1132.75 1147.01 1134.76C1141.39 1140.68 1140.91 1152.16 1152.13 1138.91L1152.12 1138.89ZM1027.64 1171.09C1026.09 1170.31 1024.36 1171.95 1023.97 1173.9C1023.17 1177.82 1021.79 1177.17 1019.73 1174.72C1013.02 1166.76 1011.14 1185.82 1005.12 1176.73C1003.71 1174.61 1000.78 1176.12 998.517 1176.32C997.306 1179.26 995.815 1183.58 993.191 1186.46C995.314 1184.76 997.545 1183.06 1001.47 1183.85C1004.49 1184.47 995.729 1201.61 986.854 1193.22C987.076 1191.97 987.292 1190.68 987.488 1189.43C987.83 1189.42 988.138 1189.37 988.44 1189.28C988.133 1189.34 987.8 1189.4 987.488 1189.43C986.971 1183.52 993.128 1177.67 998.226 1176.03C995.839 1171.91 992.34 1173.77 987.106 1175.38C986.287 1172.91 991.72 1168.46 984.524 1167.86C980.253 1167.5 976.592 1160.15 970.18 1165.91C962.151 1173.11 965.616 1174.86 957.303 1180.21C948.139 1186.1 942.366 1195.53 933.595 1201.7C932.329 1202.59 932.58 1203.68 934.337 1203.89C940.542 1204.57 935.42 1208.99 937.114 1212.2C939.705 1217.15 944.308 1201.42 948.938 1202.01C959.979 1203.39 963.082 1193.09 969.67 1188.01C969.877 1187.84 968.032 1185.4 967.548 1183.9C966.688 1181.2 968.536 1178.27 970.789 1179.03C975.553 1180.65 980.089 1180.14 984.7 1178.88C976.984 1192.32 974.291 1190.74 984.233 1193.65C982.797 1195.49 981.356 1197.31 979.919 1199.16C975.71 1204.53 985.608 1207.92 979.263 1208.8C960.433 1211.43 978.468 1210.98 966.266 1237.29C963.357 1243.56 972.177 1238.97 972.674 1235.44C973.868 1226.87 991.677 1209.88 998.799 1201.18C1003.56 1195.37 1012.61 1201.93 1014.06 1200.29C1056.81 1151.75 1036.24 1175.34 1027.64 1171.09ZM1036.68 1201.21C1030.28 1196.55 1041.3 1199.73 1042.3 1184.85C1043.03 1173.87 1023.92 1201.17 1023.55 1202.03C1030.38 1205.71 1042.68 1205.57 1036.68 1201.23L1036.68 1201.21ZM1266.81 1105.16C1261.76 1108.24 1264.43 1108.5 1267.8 1109.13C1275.11 1110.53 1258.6 1116.73 1263.33 1122.69C1264.91 1124.7 1269.66 1122.73 1269.86 1122.38C1274.98 1113.17 1285.19 1095.82 1274.34 1102.76C1271.23 1101.53 1269.31 1103.62 1266.81 1105.13L1266.81 1105.16ZM1291.76 1084.1C1290.34 1090.84 1301.2 1086.56 1298.44 1093.78C1294.97 1102.77 1270.17 1130.94 1267.77 1134.79C1264.04 1140.76 1262.38 1148.17 1253.88 1149.48C1240.14 1166.84 1241.42 1163.99 1242.26 1168.2C1242.35 1168.71 1244.11 1172.86 1245.81 1170.12C1258.87 1148.97 1251.91 1175.04 1319.45 1079.44C1319.75 1079.02 1320.03 1078.52 1320.33 1078.01C1319.62 1078.46 1318.9 1078.88 1318.21 1079.3C1315.1 1081.08 1311.79 1082.84 1308.33 1083.71C1308.1 1084.07 1307.85 1084.43 1307.57 1084.77C1304.33 1088.8 1301.2 1084.82 1298.03 1084.39C1296.97 1084.24 1291.86 1083.74 1291.77 1084.12L1291.76 1084.1ZM1272.27 1072.75C1272.9 1073.45 1273.51 1074.74 1273.61 1075.6C1273.84 1077.62 1273.06 1078.85 1271.88 1080.33C1272.3 1079.91 1272.7 1079.49 1273.18 1079.06C1280.65 1077.68 1283.55 1070.2 1286.97 1066.75C1282.71 1069.95 1277.5 1071.4 1272.28 1072.77L1272.27 1072.75ZM1485.39 644.805C1483.26 650.111 1497.4 654.579 1497.77 654.723C1498.2 654.91 1499.97 652.42 1500.71 650.937C1501.32 649.769 1500.96 646.343 1499.77 646.904C1495.09 649.128 1486.4 642.215 1485.39 644.78L1485.39 644.805ZM1599.95 624.193C1596.7 628.724 1609.6 623.129 1607.55 618.688C1606.81 617.103 1602.34 620.877 1599.95 624.193ZM1594.18 591.255C1597.6 590.29 1602.62 580.467 1603.47 575.103C1604.96 565.814 1587.28 593.169 1594.18 591.255ZM1531.11 575.096C1533.19 578.394 1535.47 573.642 1535.69 573.365C1543.01 570.898 1536.84 567.919 1536.12 568.315C1533.36 569.741 1529.36 572.293 1531.13 575.091L1531.11 575.096ZM1651.62 511.561C1646.21 520.055 1655.06 520.749 1655.45 515.284C1655.56 513.729 1655.01 512.163 1654.75 510.596C1653.7 510.92 1652.65 511.243 1651.6 511.566L1651.62 511.561ZM1656.25 503.687C1658.12 505.991 1664.28 497.388 1656.64 495.629C1655.07 496.892 1654.79 501.915 1656.25 503.687ZM1632.82 471.496C1632.82 471.496 1632.91 471.559 1632.97 471.601C1632.91 471.559 1632.88 471.538 1632.82 471.496ZM1630.52 470.511C1630.52 470.511 1630.61 470.523 1630.66 470.539C1630.61 470.548 1630.58 470.527 1630.52 470.511ZM1630.99 470.586C1630.99 470.586 1631.27 470.667 1631.38 470.725C1631.24 470.672 1631.1 470.618 1630.99 470.586ZM1631.58 470.77C1631.78 470.865 1632.01 470.956 1632.22 471.103C1631.98 470.961 1631.78 470.865 1631.58 470.77ZM1620.94 474.975C1625.4 472.895 1627.48 470.932 1629.45 470.548C1628.72 470.601 1628.24 470.317 1626.95 467.273C1629.86 465.712 1630.35 463.561 1630.79 461.18C1629.7 464.075 1628.29 466.526 1626.95 467.273C1624.7 466.809 1622.19 465.835 1620.57 468.114C1619.54 469.57 1617.94 476.366 1620.92 474.98L1620.94 474.975ZM1565.41 493.678C1565.76 493.827 1567.92 494.942 1567.99 493.607C1568.78 477.992 1561.26 488.852 1565.41 493.678ZM1591.11 484.279C1592.64 489.794 1597.41 482.289 1596.51 480.231C1593.5 473.45 1594.38 465.172 1588.74 459.426C1586.17 467.006 1583.36 473.943 1582.74 475.617C1580.29 482.382 1589.76 479.498 1591.11 484.279ZM1573.63 465.976C1569.82 468.598 1570.67 475.427 1578.21 470.779C1582.11 468.378 1578.81 462.419 1573.63 465.976ZM1523.58 457.899C1523.87 462.686 1533.77 457.187 1531.2 449.005C1527.39 448.401 1523.2 451.7 1523.58 457.899ZM1580.25 287.817C1578.54 286.011 1575.98 293.034 1579.04 296.315C1580.25 297.628 1587.89 295.977 1580.25 287.817ZM1559.27 336.163C1557.22 336.402 1553.59 340.553 1554.79 342.239C1557.24 345.682 1555.19 350.55 1558.8 353.411C1553.68 358.679 1563.41 364.636 1562.76 360.337C1562.43 358.095 1561.95 355.882 1561.49 353.664C1563.91 351.4 1564.62 353.704 1561.71 339.555C1561.44 338.202 1562.3 335.824 1559.27 336.163ZM1519.19 358.249C1524.07 356.994 1521.88 353.953 1520.79 351.637C1514.17 344.297 1514.57 359.433 1519.19 358.249ZM1578.47 359.31C1580.11 350.733 1582.79 338.822 1580.39 339.31C1572.02 340.989 1573.75 342.05 1574.11 364.015C1576.12 362.989 1577.98 361.751 1578.44 359.314L1578.47 359.31ZM1557.61 390.257C1559.57 386.306 1549.99 383.073 1550.21 377.294C1551.82 336.668 1532.15 387.66 1555.91 392.682C1556.3 392.771 1557.17 391.184 1557.62 390.283L1557.61 390.257ZM1520.52 418.175C1525.44 420.059 1530.48 422.926 1529.87 418.357C1528.21 405.883 1523.13 408.922 1520.52 418.175ZM1502.73 405.669C1505.13 407.693 1506.24 407.12 1506.51 405.354C1507.78 396.475 1507.49 396.184 1506.26 396.009C1503.82 395.685 1500.52 400.914 1502.73 405.669ZM1521.08 386.259C1529.34 385.155 1526.65 379.666 1528.58 392.619C1529.4 398.156 1537.88 398.124 1537.38 404.536C1537.02 409.256 1536.26 413.969 1535.77 418.686C1535.49 421.381 1539.11 420.302 1539.55 419.269C1544.32 408.089 1553.55 392.079 1542.4 392.411C1529.56 392.785 1539.2 366.915 1528.19 381.133C1523.3 378.422 1520.41 377.467 1521.08 386.284L1521.08 386.259ZM1515.81 364.707C1515.81 364.391 1514.12 363.983 1513.22 363.936C1512.15 363.892 1509.8 368.734 1513.57 377.121C1522.46 379.581 1515.97 369.069 1515.78 364.686L1515.81 364.707ZM1471.77 383.017C1475.96 380.749 1476.12 375.643 1474.55 372.542C1469.37 362.375 1477.23 371.977 1482.47 367.217C1484.13 365.7 1484.89 363.182 1486.58 361.711C1487.99 360.476 1491.48 361.349 1490.32 357.699C1489.4 354.85 1490.97 350.519 1482.03 347.885C1473.95 345.49 1484.71 333.355 1472.75 339.15C1471.24 336.382 1468.38 334.601 1463.69 335.135C1466.37 352.077 1464.62 351.944 1471.14 349.651C1471.74 354.459 1470.47 353.263 1466.53 371.909C1472.77 375.114 1469.06 384.541 1471.78 383.069L1471.77 383.017ZM1452.65 371.045C1453.05 371.368 1453.78 372.029 1453.82 371.995C1466.41 360.163 1447.97 358.405 1452.65 371.045ZM1424.26 385.402C1429.21 385.006 1428.14 381.179 1427.9 376.04C1426.22 377.403 1424.47 378.699 1422.94 380.193C1420.33 382.729 1422.61 385.516 1424.26 385.402ZM1428.37 375.426C1432.56 374.745 1438.21 374.723 1434.66 366.508C1434.62 366.753 1434.28 366.895 1433.51 367.008C1428.75 367.74 1426.44 368.133 1428.37 375.426ZM1435.11 333.447C1436.48 340.974 1430.42 346.542 1430.24 353.823C1430.04 362.639 1434.45 365.356 1434.61 366.411C1436.27 366.797 1437.99 367.068 1439.61 367.566C1448.81 370.338 1443.4 360.901 1446.62 360.157C1449.39 359.523 1450.59 358.141 1450.66 355.457C1450.78 350.728 1451.39 345.936 1450.84 341.276C1450.36 337.342 1454.97 332.407 1450.65 330.069C1448.36 328.819 1434.27 329.129 1435.08 333.451L1435.11 333.447ZM1496.43 316.23C1493.4 330.983 1489.46 342.066 1494.63 345.623C1500.25 351.399 1499.38 349.204 1501.91 346.074C1506.79 340.031 1500.51 334.744 1499.63 317.078C1499.58 315.765 1497.04 313.423 1496.46 316.225L1496.43 316.23ZM1563.85 299.944C1564.18 302.185 1564.77 304.431 1564.73 306.635C1564.36 319.185 1567.65 313.879 1572.61 315.121C1574.69 315.643 1576.38 318.113 1578.82 316.268C1582.04 313.886 1579.15 311.078 1579.36 308.581C1579.92 301.919 1572.06 301.708 1571.04 296.233C1570 290.682 1567.08 295.127 1564.95 295.803C1564.7 294.13 1564.48 292.452 1564.15 290.792C1562.59 283.062 1551.01 311.506 1563.85 299.944ZM1548.44 211.128C1547.51 213.097 1546.43 215.038 1545.69 217.102C1545.13 218.685 1545.31 220.663 1543.26 221.3C1532.37 224.705 1531.21 242.661 1533.34 244.628C1542.63 253.231 1535.23 269.754 1543.06 274.732C1545.8 269.712 1544.1 264.996 1545.61 259.485C1547.12 253.949 1545.36 247.869 1541.03 243.127C1534.43 235.889 1540.66 229.15 1541.99 230.047C1544.67 231.86 1542.27 236.978 1543.14 239.755C1544.4 243.626 1552.4 244.712 1550.72 239.093C1546.56 225.356 1563.61 230.855 1548.42 211.159L1548.44 211.128ZM1556.85 266.04C1562.65 255.414 1563.21 256.899 1554.47 252.747C1552.19 257.974 1549.57 262.654 1556.85 266.04ZM1566.36 237.973C1566.98 233.973 1556.92 226.357 1560.19 244.647C1560.34 245.466 1561.66 246.046 1562.45 246.749C1563.83 243.854 1565.85 241.027 1566.33 237.978L1566.36 237.973ZM1578.17 263.255C1578.68 256.312 1578.33 248.282 1571.11 248.404C1562.12 256.436 1577.75 269.148 1578.17 263.255ZM1566.12 280.808C1569.96 280.534 1572.46 268.681 1565.33 270.188C1564.79 280.493 1564.4 280.936 1566.12 280.808ZM1559.07 275.609C1560.18 272.127 1559.11 269.281 1557.09 266.606C1552.1 274.653 1557.62 280.049 1559.07 275.609ZM1477.53 260.922C1481.98 257.76 1475.48 254.868 1471.41 257.062C1472.87 261.875 1471.68 265.08 1477.53 260.922ZM1452.42 289.972C1455.63 283.623 1463.36 286.874 1462.94 279.017C1456.4 272.694 1442.31 282.922 1452.42 289.972ZM1555.52 188.924C1557.57 190.614 1557.69 189.958 1560.47 177.895C1561.53 173.366 1558.9 173.289 1553.17 168.272C1549.58 176.885 1552.01 186.044 1555.52 188.924ZM1553.21 167.287C1558.79 161.037 1555.54 158.003 1553.27 157.57C1551.87 157.295 1552.17 157.77 1553.21 167.287ZM1559.43 85.4922C1569.19 84.9105 1558.7 70.2075 1556.7 86.3317C1551.36 92.8565 1555.99 97.2775 1561.14 104.78C1573.52 97.5078 1548.7 86.1178 1559.43 85.4922ZM1598.24 108.968C1591.94 101.674 1590.6 107.26 1590.92 107.439C1599.62 112.366 1598.16 111.758 1598.24 108.968ZM1571.4 108.709C1570.35 109.349 1569.97 108.704 1571.34 116.125C1572.25 121.143 1579.41 111.46 1571.4 108.709ZM1560.95 105.476C1553.95 113.86 1544.54 122.921 1558.16 121.321C1564.77 120.545 1562.69 115.103 1560.95 105.476ZM1535.36 123.186C1538.05 128.251 1541.88 117.718 1535.78 115.466C1533.73 117.691 1534.07 120.749 1535.36 123.186ZM1509.45 75.3127C1503.48 73.2769 1504.49 85.4429 1511.46 88.8335C1515.9 90.9899 1515.51 93.8364 1515 97.3949C1514.39 101.498 1518.07 101.65 1520.27 103.287C1519.01 104.495 1517.15 105.493 1516.75 106.94C1515.84 110.226 1517.1 113.965 1514.71 117.071C1513.57 118.521 1520.32 121.79 1520.98 118.393C1521.97 113.372 1524.92 108.076 1520.27 103.287C1526.25 99.0805 1519.97 85.1468 1520.36 72.4598C1520.42 71.0215 1517.89 69.3637 1516.79 68.9817C1513.74 67.8963 1517.51 78.0542 1509.45 75.3127ZM1529.56 60.5013C1534.23 67.0055 1537.07 51.0444 1529.15 53.4094C1528.21 54.9546 1526.12 55.6779 1529.56 60.5013ZM1517.76 23.1587C1516.59 24.4548 1515.93 26.1886 1514.89 27.6197C1510.49 33.7072 1510.44 33.691 1515.74 40.9005C1523.45 51.7462 1516.32 35.5056 1524.2 32.4354C1527.04 31.312 1519.77 20.9691 1517.76 23.1844L1517.76 23.1587Z" fill="#F0F9FD"/>
</svg>
