<svg width="2523" height="2313" viewBox="0 0 2523 2313" fill="none" xmlns="http://www.w3.org/2000/svg">
<path d="M527.203 1355.19C540.313 1353.38 545.062 1360.31 547.34 1355.75C548.48 1353.49 545.727 1353.89 544.595 1353.1C542.135 1351.38 541.854 1348.3 544.092 1347.72C564.228 1342.49 573.474 1325.51 593.792 1326.55C590.541 1333.22 580.094 1336.44 570.016 1340.66C567.29 1341.79 567.225 1343.13 572.806 1350.26C576.414 1354.85 577.132 1353.76 602.984 1341.19C627.146 1329.44 617.065 1332.18 601.777 1332.94C601.258 1332.97 598.465 1331.08 600.722 1329.95C602.282 1329.15 605.37 1328.22 605.279 1327.86C604.762 1325.26 604.541 1326.35 593.323 1327.04C593.524 1320.21 593.737 1319.27 597.451 1319.05C607.428 1318.49 605.115 1316.45 648.521 1299.42C657.198 1296.03 671.82 1302.88 696.051 1287.41C697.028 1286.79 705.031 1285.37 701.879 1283.54C693.457 1278.66 664.481 1298.35 662.607 1290.69C662.037 1288.33 663.82 1287.17 665.487 1287.12C674.66 1286.86 682.497 1282.46 690.757 1279.32C702.428 1274.84 697.737 1268.46 703.572 1268.27C711.388 1268.02 717.347 1261.74 725.522 1262.16C738.535 1262.84 760.964 1254.64 755.337 1247.81C754.676 1247.02 752.696 1246.11 752.411 1246.38C742.906 1255.89 729.085 1254.02 717.977 1259.35C712.761 1261.87 706.72 1262.81 700.936 1263.96C699.681 1264.2 697.957 1262.27 696.516 1261.28C691.971 1258.17 701.822 1253.79 702.824 1251.69C702.276 1251.46 701.558 1250.86 701.21 1251.03C692.22 1255.4 681.221 1254.24 673.252 1261.52C668.21 1266.14 658.219 1266.57 656.692 1264.78C656.211 1264.2 677.601 1248.57 685.921 1246.47C697.298 1243.62 697.087 1238.29 702.55 1236.6C727.969 1228.74 751.048 1214.46 777.421 1209.13C806.76 1203.19 785.853 1195.74 812.216 1191.52C829.484 1188.77 829.338 1186.69 831.049 1188.49C836.639 1194.5 838.617 1192.24 863.655 1182.3C873.053 1178.57 870.079 1174.04 880.334 1173.63C885.644 1173.42 1166.16 1080.71 1180.86 1073.09C1191.45 1067.61 1174.67 1069.58 1155.8 864.52C1138.06 671.79 1216.67 409.623 1332.01 245.703C1416.36 125.816 1480.51 115.505 1489.84 103.138C1491.19 101.347 1493.4 99.7763 1495.52 99.1027C1506.38 95.6034 1513.34 85.7382 1524.47 82.3659C1548.57 75.0586 1557.67 60.4174 1564.51 60.3042C1574.72 60.1658 1583.71 54.649 1593.75 53.8766C1594.96 56.6692 1595.21 55.3628 1603.73 52.4047C1608.77 51.4151 1614.53 52.4628 1618.72 48.954C1622.73 45.5966 1629.55 47.7825 1631.99 41.8522C1631.53 42.4243 1646.07 40.2767 1648.12 38.4361C1644.89 36.6184 1631.82 38.7902 1631.67 38.6493C1631.74 38.3026 1632.03 35.8694 1633.19 35.7436C1645.51 34.4099 1664.74 25.3578 1671.12 28.0871C1672.47 28.6469 1671.55 29.6334 1670.59 29.9203C1664.4 31.87 1660.25 29.8119 1657.73 33.8184C1680.66 51.7031 1776.47 -20.4935 1907.63 6.30402C2156.95 57.209 2406.22 352.352 2096.93 845.073C2042.28 932.137 1886.79 1092.67 1861.85 1107.36C1854.7 1111.58 1862 1107.55 1775.77 1173.75C1664.48 1259.19 1707.73 1222.63 1662.84 1257.02C1655.57 1262.58 1708.46 1333.18 1730.5 1356.46C1822.42 1453.43 1948.29 1537.25 2054.71 1603.23C2112.97 1639.41 2506.64 1770.9 2507.02 1771.02C2509.99 1771.87 2507.71 1773.32 2506.74 1774.5C2503.19 1778.82 2510.15 1775.54 2519.35 1780.83C2521.97 1782.33 2522.69 1784.86 2519.26 1787.24C2515.51 1789.84 2519.96 1792.47 2517.97 1794.69C2515.92 1797 2512.22 1802.68 2515.13 1803.69C2525.63 1807.44 2521.04 1816.53 2522.06 1823.52C2522.18 1824.42 2519.77 1825.99 2518.28 1826.77C2510.85 1830.79 2523.26 1834.33 2515.85 1850.67C2509.63 1864.42 2517.78 1878.37 2510.81 1897.35C2508.61 1903.36 2514.68 1912.28 2506.04 1928.33C2504.12 1931.88 2505.21 1935.66 2504.78 1939.23C2504.43 1942.27 2500.91 1944.95 2498.78 1947.79C2495.95 1951.57 2503.3 1948.92 2502.63 1955.57C2494.92 2031.89 2488.74 2023.05 2489.69 2031.36C2493.09 2060.63 2482.18 2044.65 2485.54 2074.18C2486.58 2083.31 2479.82 2081.77 2479.69 2088C2479.55 2093.97 2477.03 2095.81 2442.31 2092.88C2224.54 2074.47 2185.88 2050.79 2112.88 2033.05C1932.88 1989.32 1852.8 1931.43 1823.87 1919.21C1788.15 1904.14 1486.7 1662.06 1371.48 1496.57C1320.62 1423.53 1338.49 1416.61 1309.46 1427.61C1291.88 1434.27 959.941 1536.04 872.186 1574.41C640.469 1675.73 730.811 1650.39 630.107 1708C610.907 1718.98 618.926 1723.52 598.554 1736.48C586.251 1744.29 550.142 1777.05 546.521 1784.41C542.877 1791.8 526.552 1800.12 524.853 1804.96C521.738 1813.86 513.127 1818.1 508.696 1825.71C504.072 1833.71 497.211 1833.59 495.793 1837.4C492.336 1846.75 458.91 1886.43 456.36 1889.68C451.466 1895.9 445.64 1908.26 440.961 1913.57C411.589 1946.74 404.566 1986.43 386.945 2020.95C323.094 2146.14 310.181 2319.81 298.988 2312.28C295.548 2309.96 292.602 2306.65 288.304 2311.14C282.382 2317.29 278.805 2299.45 274.61 2302.23C260.649 2311.39 256.134 2315.56 252.32 2308.58C249.095 2302.69 243.386 2315.4 239.201 2309.09C237.449 2306.43 235.933 2304.01 232.382 2305.02C225.48 2306.94 218.37 2300.9 211.514 2305.66C209.739 2306.9 202.955 2295.41 196.466 2305.02C195.838 2305.97 194.301 2307.47 193.914 2307.28C179.419 2300.15 174.633 2325 158.436 2298.77C157.482 2297.2 158.198 2291.98 159.228 2292.08C165.103 2292.75 166.283 2297.37 168.022 2294.6C172.276 2287.77 160.095 2287.05 158.956 2282.08C157.608 2282.9 155.399 2283.51 155.074 2284.61C150.444 2301.25 154.685 2303.72 145.616 2307.36C129.532 2313.8 129.25 2303.47 116.958 2309.21C112.828 2311.14 107.571 2310.88 103.371 2307.57C99.4573 2304.5 92.9916 2309.24 89.896 2303.1C88.9973 2301.32 72.1055 2304.17 69.3681 2305.93C65.1873 2308.6 66.1021 2302.08 63.1944 2302.26C57.534 2302.61 51.7743 2303.5 45.9533 2301.88C40.915 2300.49 28.5963 2308.64 26.6865 2302.35C25.7145 2299.16 29.8883 2294.98 31.625 2293.87C36.4412 2290.79 31.0956 2288.5 30.2228 2287.68C28.7661 2286.3 24.8941 2287.47 25.8013 2283.54C26.5604 2280.17 26.2537 2276.13 31.1858 2275.57C34.8806 2275.17 36.9385 2272.2 39.0432 2272.81C41.8217 2273.61 44.6868 2283.9 49.1581 2278.11C52.7132 2273.52 48.874 2269.45 45.7205 2268.33C37.5672 2265.45 28.1513 2248.01 39.7228 2248.9C40.7242 2248.97 41.8109 2248.39 42.8507 2248.09C38.7552 2241.41 42.6342 2245.61 30.0829 2242.19C28.4398 2241.74 27.49 2241.66 27.6772 2243.39C28.631 2251.72 22.7966 2259.4 25.3398 2267.92C25.6212 2268.83 24.7134 2270.11 24.36 2271.19C20.0264 2264.48 22.6758 2262.39 18.9573 2259.19C16.6215 2257.17 15.1069 2256.94 13.8031 2260.11C12.7508 2262.71 10.8549 2265.23 13.4519 2268.22C14.4386 2269.36 15.3575 2272.06 14.7409 2272.88C7.25498 2282.93 25.526 2285.34 18.4703 2290.68C8.73104 2298.02 25.1732 2303.58 14.1979 2305.79C9.28748 2306.79 8.34554 2304.12 7.86515 2299.68C-15.9699 2082.34 27.6239 1993.62 46.3464 1895.62C46.9791 1892.29 49.8575 1881.69 53.2017 1882.4C55.5563 1882.9 54.1541 1883.47 51.2631 1893.47C50.5759 1895.81 54.4376 1895.26 54.8503 1894.49C62.1847 1880.38 71.306 1866.6 54.9167 1876.02C49.2793 1879.24 53.2968 1866.85 55.4385 1865.63C57.4824 1864.46 59.2839 1873.38 64.8522 1868.31C76.6048 1857.59 67.0135 1863.41 80.0685 1841.29C86.3422 1830.66 78.0269 1825.32 90.2751 1823.53C94.3406 1822.93 93.708 1820.47 93.5104 1817.43C93.398 1815.67 102.118 1814.36 93.7829 1811.74C92.2403 1811.25 92.6362 1810.32 92.9763 1808.87C94.329 1802.77 92.4074 1795.64 99.0902 1791.21C100.335 1790.4 98.4164 1781.36 94.647 1784.7C87.1799 1791.3 91.4095 1795.36 87.2539 1798.27C81.7868 1802.09 80.3981 1786.6 88.2987 1781.83C91.881 1779.67 88.1458 1776.31 89.3692 1774.09C97.3587 1759.76 97.2365 1766.11 113.553 1738.86C136.312 1700.87 141.416 1700.21 137.776 1695.07C131.325 1685.95 151.826 1686.5 157.226 1676.25C159.633 1671.68 171.685 1659.62 171.951 1656.28C174.73 1653.94 179.784 1650.16 175.241 1649.24C170.11 1648.2 170.2 1641.79 176.077 1641.99C182.821 1642.23 194.566 1633.86 193.734 1625.2C193.094 1618.56 195.712 1616.42 205.228 1603.88C220.392 1583.85 211.99 1593.17 213.832 1580.73C216.843 1560.48 225.766 1566.12 223.398 1570.08C221.494 1573.26 222.997 1575.56 224.519 1578.03C227.895 1583.62 225.338 1580.52 243.93 1562.95C281.298 1527.58 320.829 1484.65 290.878 1506.2C290.297 1506.63 286.335 1507.21 287.776 1503.38C288.406 1501.71 290.436 1499.46 289.936 1498.7C286.791 1493.79 290.16 1490.87 293.015 1488.26C334.354 1450.45 370.951 1425.1 376.288 1421.76C393.056 1411.25 409.517 1385.34 423.349 1381.76C439.548 1377.58 437.383 1368.44 445.087 1367.89C459.299 1366.85 455.126 1358.24 496.496 1340.76C499.369 1339.53 501.906 1338.58 503.152 1335.6C507.03 1326.51 515.906 1323.98 523.652 1319.96C541.07 1320.77 595.049 1285.26 600.075 1289.91C596.066 1298.52 585.154 1299.62 581.852 1305.1C593.253 1308.28 590.427 1300.04 610.58 1294.97C616.876 1287.68 625.025 1289.07 633.112 1290.13C635.048 1290.39 637.895 1288.67 638.442 1291.79C638.578 1292.56 632.421 1296.78 631.646 1296.86C617.442 1297.98 606.753 1307.18 595.082 1313.59C577.093 1323.45 564.418 1322.99 560.608 1323.77C557.997 1324.29 559.888 1326.54 559.411 1327.68C558.39 1330.09 556.055 1331.94 555.06 1334.34C554.913 1334.67 521.468 1348.08 520.957 1352.79C512.275 1357.82 501.581 1357.08 492.99 1362.47C490.885 1363.79 488.545 1362.46 486.251 1361.79C478.024 1359.44 473.849 1366.76 467.977 1369.98C467.508 1370.24 467.297 1370.94 466.982 1371.42C472.324 1373.92 477.067 1370.64 482.04 1369.74C487.32 1368.78 487.475 1372.86 484.169 1375.41C482.096 1377.02 441.246 1405.83 454.043 1402.82C460.723 1401.26 466.839 1396.42 474.406 1399.68C476.077 1400.38 477.724 1398.46 478.108 1396.69C480.633 1385.48 510.538 1369.79 521.24 1365.55C530.966 1361.7 528.035 1357.32 527.258 1355.21L527.203 1355.19ZM23.9604 2151.07C18.1281 2155.15 23.1538 2160.77 21.9687 2165.52C21.8989 2165.84 22.6433 2166.44 23.1217 2166.75C25.963 2168.61 24.151 2154.52 24.1433 2154.21C23.98 2149.32 21.7181 2151.37 26.9449 2150.15C30.8708 2149.23 30.1782 2142.83 25.876 2143.89C22.3635 2144.77 23.4046 2147.87 23.9576 2151.05L23.9604 2151.07ZM515.27 1569.07C521.84 1567.94 530.926 1560.12 517.714 1562.67C517.382 1559.6 515.356 1558.51 512.936 1559.82C506.689 1563.21 507.62 1566.74 507.845 1566.4C497.927 1568.23 486.889 1577.83 486.585 1581.78C486.511 1582.55 494.467 1582.39 498.432 1579.9C508.652 1584.49 516.694 1567.74 515.273 1569.1L515.27 1569.07ZM434.668 1491.66C458.829 1464.92 474.119 1462.97 487.375 1450.44C488.679 1449.2 501.574 1452.9 475.063 1466.14C471.838 1467.74 475.386 1470.33 476.943 1470.94C484.416 1473.82 480.359 1465.56 503.45 1459.12C504.033 1458.95 505.725 1460.1 504.723 1461.23C500.753 1465.6 495.418 1468.24 502.459 1470.74C510.584 1473.6 490.297 1470.67 475.661 1485.91C479.012 1497.8 460.938 1490.93 445.645 1511.93C444.645 1513.32 443.564 1514.92 441.399 1514.24C437.827 1513.12 434.184 1515.44 436.908 1521.78C437.47 1523.1 435.219 1525.25 437.742 1526.1C438.611 1526.4 440.199 1525.86 440.907 1525.16C473.762 1493.25 487.541 1494.97 490.631 1488.5C494.856 1479.71 503.863 1483.23 510.354 1480.41C517.544 1477.28 499.838 1497.01 487.204 1500.3C479.934 1502.21 456.907 1515.52 456.916 1520.19C456.922 1523.87 464.444 1528.64 467.627 1526.89C511.936 1502.51 504.681 1490.79 518.044 1489.63C523.871 1489.13 528.153 1483.29 534.587 1484.29C536.687 1484.61 538.469 1485.62 536.6 1486.94C531.478 1490.58 476.821 1536.73 464.885 1541.65C463.759 1542.11 463.083 1544.56 462.863 1546.15C462.089 1551.56 467.897 1545.82 479.947 1551.12C481.403 1551.77 483.55 1550.6 482.817 1548.17C482.285 1546.4 482.06 1545.04 483.688 1543.66C495.47 1533.69 483.436 1534.81 506.229 1520.31C508.233 1519.02 511.132 1523.83 516.129 1520.49C528.739 1512.13 544.101 1503.6 557.512 1496.61C559.467 1495.59 563.543 1499.2 564.798 1495.09C567.583 1486.04 572.13 1499.08 583.269 1490.9C591.625 1484.77 597.509 1484.32 598.423 1479.23C600.13 1469.65 620.958 1465.49 623.954 1457.67C623.601 1457.55 602.879 1457.13 605.299 1452.2C606.027 1450.71 618.469 1439.6 628.494 1444.31C631.801 1445.88 637.319 1441.32 637.957 1440.93C691.444 1409.82 689.434 1419.98 693.458 1413.94C704.205 1397.79 699.289 1418.06 733.544 1407.3C736.198 1406.46 739.982 1404.23 740.378 1402.1C741.385 1396.66 748.806 1396.88 748.822 1391.23C773.73 1376.95 786.761 1364.52 791.179 1367.17C795.316 1369.65 794.768 1371.35 859.172 1344.98C871.186 1340.05 870.083 1334.45 856.704 1338.36C826.09 1347.26 829.424 1348.59 821.289 1348.06C808.105 1347.25 805.72 1357.58 802.128 1356.27C792.221 1352.65 793.319 1368.35 780.252 1362.82C777.073 1361.47 778.107 1369.81 770.551 1366.9C762.258 1363.7 764.008 1369.72 748.67 1372.19C743.171 1373.07 755.579 1375.65 750.347 1377.54C743.934 1379.88 738.219 1385.28 730.296 1381.15C727.774 1379.83 718.689 1384.52 715.398 1385.27C714.479 1385.47 713.305 1384.53 712.238 1384.1C714.764 1381.11 717.165 1380.59 717.155 1379.28C717.01 1369.98 723.991 1370.47 725.899 1367.81C719.903 1364.1 723.93 1366.77 659.843 1393.89C652.638 1390.6 648.329 1395.71 644.944 1400.18C637.53 1409.94 636.41 1404.65 614.589 1417.51C573.483 1441.78 571.908 1431.08 571.439 1442.94C565.129 1446.47 555.368 1451.44 548.008 1449.36C551.035 1438.93 614.569 1406.94 616.678 1405.17C619.745 1402.59 624.945 1403.54 626.564 1398.46C627.848 1394.38 632.603 1397.26 635.429 1394.86C642.569 1388.87 649.748 1382.74 658.712 1379.34C660.192 1378.76 659.056 1373.82 656.159 1375.07C647.021 1379.04 598.062 1401.75 594.439 1411.02C593.704 1412.93 591.372 1412.63 589.695 1412.11C582.936 1410.05 554.902 1431.67 547.103 1432.31C548.76 1433.85 545.316 1430.05 550.175 1426.88C556.355 1422.87 561.119 1416.9 568.43 1414.41C570.976 1413.54 569.94 1410.49 570.016 1408.29C568.662 1409.79 593.983 1393.53 616.79 1385.91C631.021 1381.19 632.94 1380.56 644.526 1367.82C649.611 1367.95 654.381 1369.99 659.678 1366.29C683.424 1349.72 748.452 1328.87 754.863 1324.83C757.776 1323.01 756.215 1319.94 754.562 1320.12C730.637 1322.7 734.308 1329.1 727.668 1324.98C725.959 1316.68 735.444 1319.78 737.69 1315.18C739.336 1311.79 743.284 1311.31 746.751 1310.26C776.607 1301.12 768.056 1297.95 742.581 1306.27C726.397 1311.54 710.864 1319.47 693.308 1319.8C692.273 1316.52 692.041 1312.44 687.003 1312.99C676.33 1314.12 678.131 1314.57 676.659 1316.43C678.543 1317.9 676.575 1317.35 693.677 1319.34C692.74 1330.25 681.195 1322.6 673.267 1328.81C654.111 1343.83 629 1344.64 616.118 1355.07C617.892 1356.97 620.154 1356.62 622.353 1356.41C652.723 1353.23 629.989 1356.68 629.645 1362.43C601.375 1365.7 569.38 1395.17 558.999 1390.78C557.627 1383.18 565.064 1384.75 587.434 1370.45C591.735 1367.69 584.5 1367.97 582.93 1364.09C581.175 1359.72 576.635 1365.35 577.118 1366.19C583.037 1376.43 570.79 1366.17 561.365 1372.07C549.49 1379.49 542.543 1382.2 540.296 1384.87C548.204 1387.17 545.602 1381.24 554.893 1382.8C554.606 1383.77 554.584 1385.26 553.969 1385.61C537.418 1394.5 537.694 1394.16 535.678 1391.72C534.623 1390.42 534.116 1388.15 531.782 1389.53C526.84 1392.41 520.803 1393.87 518.265 1399.89L518.709 1399.4C511.236 1399.19 508.342 1406.5 502.541 1409.43C495.945 1412.73 472.019 1427.14 477.793 1428.32C480.681 1428.92 480.455 1427.56 487.646 1425.16C493.727 1423.15 501.723 1430.85 497.195 1435.38C491.447 1441.2 479.846 1435.7 480.061 1447.11C480.14 1451.46 385.478 1515.62 381.515 1525.37C381.226 1526.08 382.645 1529.3 384.321 1528.59C389.501 1526.47 407.047 1510.34 408.458 1508.88C415.395 1501.73 423.437 1499.71 434.965 1491.26C435.064 1492.42 435.078 1501.25 437.82 1500.01C443.849 1497.27 446.493 1495.13 445.191 1490.1C457.354 1491.86 465.529 1474.9 457.908 1479.11C440.201 1488.92 456.061 1489.34 434.619 1491.69L434.668 1491.66ZM288.363 1809.76C295.077 1808.52 304.764 1805.04 300.17 1800.03C297.476 1797.11 297.341 1798.04 288.34 1802.3C293.17 1792.59 294.819 1790.92 293.795 1787.01C302.856 1785.72 307.631 1775.49 306.268 1773.28C303.824 1769.29 295.354 1782.82 294.17 1787.33C290.041 1790 265.932 1814.57 282.134 1813.08C284.593 1817.2 284.338 1816.05 288.363 1809.76ZM1714.18 802.734C1721.87 801.562 1732.96 788.796 1727.89 787.125C1725.34 786.278 1717 791.306 1714.18 802.734C1701.74 802.043 1695.52 817.286 1700.22 814.297C1705.35 811.026 1712.58 810.191 1714.18 802.734ZM426.104 1578.46C435.515 1577.26 444.009 1563 438.904 1563.65C433.206 1564.37 434.948 1563.32 426.565 1578.85C422.472 1578.96 418.855 1581.04 417.061 1585.23C423.12 1586.88 426.159 1582.84 426.13 1578.46L426.104 1578.46ZM571.604 1724.65C582.119 1720.85 588.303 1716.39 595.001 1707.75C600.767 1707.65 603.988 1703.36 607.752 1699.98C608.871 1698.97 607.301 1697.02 606.982 1697.21C602.399 1700.03 596.314 1701.29 595.23 1707.94C585.175 1710.44 577.275 1715.94 571.862 1724.85C567.809 1724.85 564.326 1727.68 562.661 1731.38C563.657 1731.64 564.888 1732.4 565.636 1732.06C568.8 1730.62 571.626 1728.72 571.575 1724.62L571.604 1724.65ZM1545.37 939.699C1553.73 939.134 1556.58 931.488 1561.87 926.947C1573.6 917.714 1576.92 923.961 1626.23 884.028C1628.88 881.888 1633.41 872.546 1628.43 873.398C1620.01 874.832 1621.11 885.261 1599.95 895.775C1586.76 902.347 1574.91 911.253 1563.66 920.826C1561.49 922.68 1562.27 925.102 1562.31 927.369C1559.14 926.851 1556.43 924.22 1552.71 927.363C1548.67 930.804 1543.63 933.046 1545.37 939.699C1539.88 938.936 1534.92 937.54 1534.73 940.432C1533.9 952.533 1544.86 942.991 1545.37 939.699ZM753.151 1536.3C761.945 1535.93 776.804 1529.75 776.29 1525.97C776.24 1525.5 775.579 1524.71 775.479 1524.75C767.606 1527.85 758.404 1528.32 752.771 1535.93C747.044 1536.39 741.878 1537.21 741.058 1542.91C740.847 1544.34 751.107 1542.29 753.148 1536.28L753.151 1536.3ZM2453.85 1949.23C2451.59 1944.28 2443.31 1946.74 2438.21 1948.44C2435.89 1949.22 2447.87 1950.01 2454.12 1948.84C2454.82 1950.74 2456.37 1951.49 2458.22 1951.47C2484.45 1951.38 2482.12 1953.95 2491.71 1950.54C2486.38 1948.43 2465.33 1946.42 2453.87 1949.2L2453.85 1949.23ZM662.342 1463.36C650.863 1464.06 642.352 1472.37 631.788 1475.47C630.874 1475.72 630.62 1478.2 630.073 1479.67C636.414 1481.02 661.837 1467.15 661.996 1463.06C664.067 1463.36 668.043 1462.9 667.629 1464.88C665.093 1477.19 687.986 1461.68 680.224 1461.45C677.366 1461.37 674.3 1461.54 672.562 1458.52C687.392 1455.95 713.13 1441.13 713.611 1439.54C723.186 1436.46 732.993 1446.89 729.61 1436.89C726.805 1428.6 804.668 1402.68 815.228 1394.47C809.85 1393.32 805.333 1394.33 801.831 1396.28C780.671 1408 723.261 1424.6 714.072 1439.93C695.55 1441.96 673.101 1455.77 672.587 1458.52C668.8 1459.27 664.099 1458.34 662.368 1463.36L662.342 1463.36ZM512.194 1342.58C521.66 1342.13 529.767 1336.61 539.42 1335.96C546.269 1335.48 540.336 1333.06 538.781 1331.74C537.427 1330.59 538.547 1330.31 541.5 1326.67C540.419 1326.34 539.01 1325.4 538.32 1325.79C529.331 1330.89 519.464 1334.64 512.624 1342.93C508.436 1343.12 499.231 1349.13 500.893 1350.23C502.892 1351.56 511.344 1349.47 512.191 1342.56L512.194 1342.58ZM858.455 1212.03C846.124 1211.62 836.826 1217.24 835.303 1220.07C834.105 1222.29 829.079 1222.47 825.833 1223.63C824.072 1224.26 825.716 1225.44 826.445 1225.42C837.251 1225.03 845.131 1223.21 836.779 1230.33C840.758 1231.83 848.04 1230.29 849.775 1229.89C853.93 1228.92 847.535 1227.55 851.513 1221.55C853.692 1218.26 858.266 1216.57 858.051 1211.68C893.069 1206.04 894.012 1207.27 899.089 1201.52C885.36 1198.57 882.488 1205.85 875.685 1206.51C870.46 1207.02 865.308 1208.21 860.176 1209.34C859.435 1209.5 859.009 1211.11 858.455 1212.03ZM231.316 1807.98C236.917 1806.35 238.666 1796.19 242.676 1793.14C250.594 1787.09 253.991 1778.86 256.165 1769.72C257.777 1769.16 260.24 1768.97 260.797 1767.84C265.395 1758.88 275.512 1754.05 278.638 1744.05C285.924 1738.67 288.983 1729.98 294.699 1723.39C315.333 1699.56 314.241 1700.1 315.819 1697.29C319.016 1691.56 287.876 1707.44 277.762 1730.89C268.168 1753.1 253.639 1759.42 256.136 1769.7C244.211 1770.13 226.91 1799.39 227.372 1805.11C218.152 1808.8 225.435 1815.71 215.697 1823.56C203.267 1833.57 210.306 1864.56 231.29 1807.98L231.316 1807.98ZM580.567 1605.29C571.937 1608.16 539.302 1625.92 550.958 1631.21C557.063 1634 556.691 1629.84 580.701 1612.09C584.912 1608.98 580.058 1607.36 580.223 1605.02C586.992 1604.29 591.908 1600.44 595.616 1594.84C594.623 1594.61 593.231 1593.82 592.722 1594.19C588.353 1597.53 581.769 1598.53 580.541 1605.3L580.567 1605.29ZM918.358 1435.37C938.525 1441.78 950.751 1425.28 956.193 1424.12C959.464 1423.43 972.994 1418.25 973.793 1415.01C986.912 1414.74 991 1417.98 994.097 1413.99C1003.16 1402.3 1021.27 1406.4 1027.93 1396.38C1026.78 1396.19 1025.43 1395.53 1024.55 1395.91C1001.11 1406.07 965.597 1398.45 974.082 1415.26C963.986 1415.21 954.596 1418.05 945.626 1422.36C930.868 1429.47 924.071 1427.78 918.647 1435.62C913.459 1435.27 891.762 1442.5 896.673 1444.16C905.297 1447.04 907.098 1447.5 908.697 1443.44C910.793 1438.17 918.711 1442.01 918.358 1435.37ZM318.344 1511.45C305.714 1513.34 299.86 1525.67 289.09 1530.49C288.268 1530.87 287.97 1532.47 287.485 1533.54C280.697 1549.08 274.982 1546.51 267.614 1555.71C265.681 1558.14 267.4 1560.02 270.179 1559.61C278.072 1558.39 280.747 1554.61 315.199 1517.41C316.791 1515.69 318.197 1513.71 317.861 1511.09C323.369 1510.54 326.925 1506.68 330.867 1503.49C331.684 1502.83 331.43 1493.48 324.957 1497.92C320.163 1501.2 320.387 1506.9 318.296 1511.48L318.344 1511.45ZM116.915 1748.68C124.916 1749.91 126.104 1740.35 140.671 1724C158.268 1704.23 156.295 1696.14 164.801 1689.24C173.429 1682.25 172.933 1677.42 170.177 1678.53C167.071 1679.78 160.533 1676.86 162.649 1684.57C149.191 1695.48 159.373 1682.08 118.396 1742.07C113.726 1748.92 122.475 1744.5 109.344 1757.7C101.563 1765.52 97.2314 1784.18 112.791 1768.06C119.611 1761.03 117.672 1756.88 116.913 1748.66L116.915 1748.68ZM848.33 1320.65C853.571 1321.49 858.91 1319.14 864.208 1321.23C865.518 1321.74 868.613 1321.11 868.937 1320.24C872.2 1311.74 883.006 1316.19 898.827 1308.76C903.827 1306.42 910.901 1307.53 913.62 1300.53C914.297 1298.81 925.481 1300.47 927.061 1300.09C929.022 1299.62 924.353 1293.67 930.017 1295.28C950.189 1301.01 947.506 1282.73 966.665 1282.72C970.637 1282.71 976.574 1279.12 978.996 1276.38C973.747 1274.25 978.84 1275.66 957.415 1280.09C914.412 1289 920.262 1295.24 912.491 1294.93C897.53 1294.36 885.848 1307.42 850.112 1318.03C849.402 1318.23 849.142 1319.93 848.703 1320.95C836.734 1321.22 826.066 1327.47 814.259 1328.51C810.504 1328.84 807.252 1334.78 791.939 1338.45C791.454 1338.55 791.141 1339.29 790.744 1339.72C799.121 1343.7 807.526 1339.01 847.935 1322.31C848.26 1322.17 848.234 1321.21 848.382 1320.64L848.33 1320.65ZM771.647 1545.14C771.85 1540.73 777.593 1540.42 777.037 1539.15C775.338 1535.29 769.663 1539.61 763.627 1542.77C758.433 1545.5 768.841 1544.81 772.093 1544.67C774.061 1557.54 759.961 1554.78 965.42 1475.08C975.732 1471.09 988.973 1468.33 994.967 1461.15C977.364 1459.11 897.542 1498.33 886.379 1494.94C897.461 1484.05 876.474 1492.3 871.747 1498.38C857.469 1516.68 843.281 1513.83 831.96 1519.37C831.661 1519.5 781.933 1543.08 771.624 1545.17L771.647 1545.14ZM1816.95 377.558C1809.33 378.853 1801.12 378.828 1794.17 381.747C1699.09 421.515 1676.32 431.891 1624.14 523.336C1557.25 640.498 1517.95 714.073 1509.86 868.789C1508.74 889.902 1519.56 921.213 1530.71 910.527C1555.65 886.576 1532.95 911.121 1581.52 875.63C1588.01 870.88 1577.56 870.47 1585.75 864.493C1600.18 853.922 1590.54 866.768 1615.43 849.452C1631.43 838.321 1648.07 818.635 1649.31 818.031C1656.3 814.794 1644.52 814.372 1660.77 798.096C1705.84 752.983 1709.36 753.568 1751.58 705.056C1842.71 600.31 1949.74 364.233 1816.98 377.556L1816.95 377.558ZM1083.06 1238.01C1081.42 1238.29 1000.63 1260.87 1008.58 1265.18C1023.58 1273.35 1022.5 1267.46 1031.44 1265.11C1047.15 1261.01 1072.33 1252.8 1073.52 1251.76C1075.31 1250.18 1073.93 1252.86 1072.6 1250.95C1072.04 1250.14 1071.94 1251.17 1066.03 1249.02C1069.17 1245.65 1093.64 1240.63 1083.09 1238.01L1083.06 1238.01ZM1034.81 1277.18C1027.93 1276.12 1022.77 1285.19 1026.05 1285.77C1038.12 1287.94 1031.54 1282.46 1068.84 1278.04C1076.27 1277.15 1070.28 1271.3 1083.29 1270.05C1086.99 1269.7 1093.24 1266.83 1096.04 1262.79C1092.33 1261.53 1080.25 1262.28 1073.64 1265.69C1064.46 1270.42 1060 1264.79 1056.71 1267.42C1052.54 1270.74 1046.44 1270.33 1042.96 1274.96C1041.04 1277.52 1038.26 1278.34 1034.81 1277.18ZM182.786 1658.81C186.876 1657.72 192.491 1660.09 193.804 1652.89C195.545 1643.38 213.972 1632.25 232.688 1605.45C233.547 1604.21 228.781 1601.22 222.982 1607.54C215.453 1615.75 172.575 1661.56 182.786 1658.81ZM369.276 1466.15C364.174 1466.1 360.49 1466.6 357.714 1468.97C349.816 1475.69 331.495 1490.94 341.806 1490.32C352.997 1489.63 354.346 1494.37 354.94 1490.68C357.346 1475.72 374.117 1485.52 383.996 1471C384.832 1469.79 383.093 1468.7 382.564 1468.89C377.238 1470.64 375.945 1472.21 374.518 1472.32C369.429 1472.63 376.692 1466.08 369.279 1466.17L369.276 1466.15ZM26.0666 2207.01C24.8502 2197.22 21.6745 2187.2 28.5235 2178.02C28.7973 2177.65 26.9733 2175.29 25.7708 2174.32C17.1098 2167.48 20.366 2187.18 23.1401 2210.64C19.0144 2217.93 23.7391 2225.35 22.7299 2232.7C22.0553 2237.57 29.8651 2238.24 31.5152 2234.41C38.2051 2218.93 36.9817 2218.25 34.8798 2216.71C32.0364 2214.59 31.6579 2217.37 29.7934 2220.91C26.4136 2218.67 27.8373 2221.44 26.0666 2207.01ZM1454.52 163.933C1446.36 161.055 1450.19 168.186 1447.5 169.653C1443.36 171.929 1439.35 174.53 1434.99 176.306C1429.51 178.545 1435.53 185.335 1429.85 187.673C1428.07 188.388 1420.83 195.672 1424.18 196.693C1425.78 197.174 1425.05 197.696 1466.63 162.36C1467.21 161.88 1466.88 160.349 1466.98 159.294C1460.18 160.76 1458.98 164.154 1454.51 163.907L1454.52 163.933ZM954.299 1298.89C939.208 1307.03 909.522 1310.97 918.885 1312.46C935.482 1315.11 927.187 1320.34 940.428 1316.84C949.07 1314.57 953.149 1304.45 962.819 1304.18C963.286 1304.16 963.742 1303.54 964.228 1303.2C962.597 1301.65 964.523 1302.54 954.299 1298.89ZM854.783 1199.84C867.68 1201.87 878.02 1194.27 890.842 1192.47C896.964 1187.44 908.183 1191.11 907.907 1183.73C907.827 1181.54 863.714 1192.27 854.786 1199.87L854.783 1199.84ZM985.473 1342.75C983.392 1341.88 981.314 1342.23 978.715 1341.65C973.782 1340.52 999.09 1327.52 953.872 1346.88C959.306 1358.92 990.292 1344.76 985.473 1342.75ZM861.275 1490.5C868.116 1491.88 879.285 1483.25 907.276 1474.27C908.109 1474 910.747 1470.84 910.37 1470.49C908.882 1469.06 909.829 1469.11 864.758 1487.17C863.856 1487.53 862.233 1488.73 861.275 1490.5ZM1132.19 1221.96C1126.32 1223.28 1120.74 1227.27 1114.03 1227.32C1106.69 1227.39 1100.51 1231.37 1093.83 1233.61C1091.28 1234.46 1094.32 1236.71 1094.78 1236.66C1109.12 1235.11 1144.92 1225.78 1132.22 1221.96L1132.19 1221.96ZM1030.35 1155.25C1043.12 1164.29 1068.21 1150.3 1061.4 1147.95C1046.51 1142.8 1057.51 1149.23 1031.94 1154.3C1031.41 1154.41 1030.94 1154.9 1030.35 1155.28L1030.35 1155.25ZM223.656 1692.27C230.758 1697.51 241.194 1681.87 247.621 1675.56C247.762 1675.41 246.674 1673.57 245.829 1673.01C239.405 1668.72 228.186 1687.03 223.656 1692.27ZM878.536 1452.65C877.997 1448.4 876.132 1446.39 873.57 1448.07C867.322 1452.17 860.249 1452.52 853.304 1453.56C848.337 1454.28 848.514 1461.23 854.58 1460.52C863.253 1459.5 868.107 1453.39 878.389 1456.61C880.823 1457.37 878.927 1454.33 878.536 1452.65ZM768.745 1348.03C758.253 1346.97 746.41 1358.07 741.984 1356.54C735.874 1354.44 731.49 1363.68 731.828 1363.91C735.924 1366.73 737.898 1361.79 740.936 1361.36C752.263 1359.74 761.12 1351.73 772.281 1349.79C772.591 1349.76 776.286 1347.19 768.742 1348.01L768.745 1348.03ZM398.801 1443.08C393.353 1441.77 393.646 1446.41 384.186 1450.54C380.916 1451.96 370.176 1458.77 368.625 1461.34C380.124 1467.11 402.369 1443.92 398.799 1443.06L398.801 1443.08ZM432.702 1545.71C427.44 1547.09 400.784 1566.47 405.975 1569.51C408.376 1570.93 409.179 1569.17 434.827 1548.19C436.987 1546.42 435.424 1545.99 432.699 1545.68L432.702 1545.71ZM166.595 1788.43C163.574 1786.12 162.256 1790.36 158.997 1789.72C152.51 1788.46 150.595 1793.24 148.378 1804.63C147.69 1808.17 154.62 1811.11 154.84 1806.62C155.323 1797.79 163.085 1797.29 166.569 1788.43L166.595 1788.43ZM899.621 1269.48C892.698 1267.1 878.514 1275.89 877.944 1276.42C887.645 1280.07 903.068 1272.35 909.323 1269.76C910.025 1269.48 910.187 1267.84 910.601 1266.83C906.993 1265.86 909.96 1265.02 899.624 1269.51L899.621 1269.48ZM670.857 1371.76C671.106 1379.62 686.695 1371.98 693.6 1368.15C694.635 1367.57 693.776 1363.25 692.895 1364.05C686.748 1369.57 673.29 1358.49 670.883 1371.76L670.857 1371.76ZM331.611 1744.67C332.611 1743.51 335.505 1738.13 334.007 1737.1C327.403 1732.59 285.48 1797.86 331.611 1744.67ZM347.313 1554.74C346.473 1555.43 344.803 1558.12 345.305 1559.37C347.165 1564 349.806 1556.04 363.096 1548.41C367.725 1545.77 370.872 1541.28 373.529 1536.6C374.715 1534.52 373.667 1537.63 373.025 1535.32C372.093 1532.03 365.754 1539.64 347.31 1554.71L347.313 1554.74ZM1145.73 1219.77C1156.14 1218.59 1158.84 1214.07 1178.64 1208.84C1179.07 1208.72 1180.92 1206.72 1178.32 1206.61C1166.74 1206.16 1131.27 1221.38 1145.73 1219.77ZM744.25 1432.07C740.878 1435.7 746.088 1438.19 746.982 1437.75C787.942 1417.94 749 1426.93 744.25 1432.07ZM365.071 1636.94C365.397 1637.3 366.28 1637.73 366.395 1637.58C384.756 1619.33 382.903 1621.78 383.027 1617.85C383.077 1616.61 379.508 1616.24 378.365 1617.52C369.119 1627.73 362.425 1633.99 365.071 1636.94ZM172.975 1764.29C175.101 1767.27 177.291 1771.08 180.174 1768.73C186.468 1763.61 192.544 1761.78 187.822 1758.24C182.132 1753.98 173.74 1757.1 173.001 1764.29L172.975 1764.29ZM196.929 1729.84C192.398 1735.32 186.011 1739.82 182.572 1746.93C181.974 1748.17 183.244 1751.69 184.269 1751.5C188.036 1750.8 186.121 1752.92 200.111 1731.22C200.984 1729.87 197.222 1729.89 196.903 1729.84L196.929 1729.84ZM1399.39 224.808C1407.03 219.124 1411.76 210.858 1417.87 203.826C1412.08 198.839 1389.5 232.197 1399.39 224.808ZM2494.38 1802.49C2493.85 1802.24 2493.28 1801.72 2492.78 1801.75C2473.15 1803.17 2463.56 1798.41 2457.77 1802.85C2458.67 1803.41 2488.22 1809.84 2494.37 1802.47L2494.38 1802.49ZM267.816 1729.56C261.387 1718.95 248.686 1741.92 251.925 1743.34C254.536 1744.52 255.006 1743.56 267.794 1731.05C268.056 1730.81 267.817 1730.06 267.816 1729.56ZM944.516 1440.6C931.974 1447.42 929.255 1443.07 921.957 1451.48C923.451 1452 925.293 1453.31 926.367 1452.86C941.832 1446.48 950.024 1442.96 944.516 1440.6ZM51.6328 2212.33C51.4847 2210.97 49.5198 2210.68 49.4828 2211.55C49.1447 2217.12 44.4304 2222.59 48.942 2228.29C49.7597 2229.33 57.9477 2261.99 51.6328 2212.33ZM1382.08 243.626C1385.11 241.419 1394.35 231.646 1391.72 230.73C1384.66 228.334 1383.48 227.835 1382.55 230.128C1377.46 242.926 1381.38 244.12 1382.05 243.629L1382.08 243.626ZM892.225 1290.99C896.842 1289.21 899.198 1289.24 898.641 1284.58C897.557 1275.53 867.968 1290.27 892.225 1290.99ZM42.0775 2185.87C39.9763 2186.99 40.7793 2184.27 40.669 2186.63C40.4608 2190.98 40.5139 2195.34 40.699 2199.71C40.8546 2203.32 53.0184 2200.02 46.7059 2190C43.3611 2184.69 43.6961 2185.86 42.0775 2185.87ZM121.311 1792.44C119.903 1789.09 120.265 1788.82 118.568 1790.28C113.328 1794.76 108.595 1805.62 111.713 1806.17C114.751 1806.7 123.288 1800.32 121.337 1792.44L121.311 1792.44ZM554.499 1318.53C560.391 1325.15 599.558 1293.83 555.574 1317.11C555.105 1317.37 554.865 1318.05 554.499 1318.53ZM713.029 1352.99C695.771 1359.95 713.849 1364.68 720.629 1356.32C723.098 1353.29 717.811 1353.47 713.029 1352.99ZM969.031 1448.06C937.53 1456.97 967.743 1458.38 975.831 1448.57C971.262 1447.66 973.141 1447.87 969.031 1448.06ZM840.547 1290.03C838.286 1291.84 842.191 1292.17 842.676 1292.07C858.56 1288.6 864.591 1270.66 840.547 1290.03ZM526.79 1377.46C521.27 1377.66 512.105 1383.07 515.034 1387.19C518.644 1392.28 525.485 1380.86 528.366 1379.22C529.72 1378.44 527.119 1377.6 526.79 1377.46ZM1682.55 1167.65C1691.81 1172.08 1698.72 1158.88 1691.95 1158.69C1688.39 1158.61 1682.84 1164.07 1682.55 1167.65ZM95.9191 2277.36C96.5043 2279.39 100.513 2282.37 100.912 2281.47C104.35 2273.63 97.5679 2272.06 99.6419 2266.59C99.9052 2265.88 91.7951 2262.92 95.8933 2277.36L95.9191 2277.36ZM355.944 1453.1C347.052 1454.51 348.681 1460.86 343.314 1463.68C350.651 1466.02 354.104 1461.94 357.789 1455.17C358.378 1454.09 356.28 1453.3 355.944 1453.1ZM995.669 1169.82C1004.81 1173.58 1005.63 1165.53 1012.52 1165.41C1012.84 1165.4 1014.13 1163.85 1011.74 1163.69C998.238 1162.88 997.949 1165.52 995.666 1169.79L995.669 1169.82ZM370.78 1599.85C363.438 1604.22 361.06 1604.71 361.997 1608.06C362.466 1609.73 365.135 1610.72 368.63 1606.79C374.807 1599.86 373.344 1600.59 370.755 1599.85L370.78 1599.85ZM408.677 1591.1C389.966 1598.64 405.865 1606.65 412.287 1592.33C411.255 1591.97 410.251 1591.64 408.677 1591.1ZM574.415 1660.53C562.416 1669.22 563.869 1667.91 562.856 1669.9C566.285 1671.15 564.089 1672.35 577.21 1662.68C577.647 1662.37 580.296 1659.32 574.415 1660.53ZM544.482 1685.86C539.905 1682.7 524.555 1698.59 532.17 1696.25C537.002 1694.76 544.457 1690.22 544.482 1685.86ZM992.455 1271.76C997.376 1276.89 998.732 1275.41 1010.42 1273C1007.61 1270.54 1004.27 1272.99 1001.29 1272.03C992.901 1269.36 994.583 1270.17 992.452 1271.73L992.455 1271.76ZM222.447 2286.64C224.37 2286.54 222.014 2302.93 226.962 2292.13C229.204 2287.24 224.341 2283.85 224.179 2279.46C224.14 2279.1 223.32 2278.77 222.888 2278.4C222.197 2280.22 222.285 2278.38 222.473 2286.64L222.447 2286.64ZM753.256 1559.97C758.109 1561.82 761.945 1562.24 766.931 1555.91C771.621 1549.97 754.486 1558.3 753.256 1559.97ZM255.615 1577.93C260.489 1574.66 264.452 1572.87 262.649 1570.22C260.154 1566.5 250.139 1571.29 255.615 1577.93ZM99.3173 2256.1C91.7967 2239.27 91.3385 2269.81 99.3816 2258.63C99.6553 2258.26 99.3647 2257.51 99.3173 2256.1ZM597.752 1499.12C593.726 1499.12 583.151 1505.51 587.217 1506.84C591.417 1508.22 597.156 1502.56 599.241 1501.05C600.38 1500.22 598.059 1499.3 597.726 1499.13L597.752 1499.12ZM681.08 1428.3C690.399 1427.45 692.546 1422.42 692.254 1422.13C690.992 1420.86 691.736 1420.73 679.787 1426.25C677.447 1427.34 678.933 1427.54 681.08 1428.3ZM779.182 1296.17C765.229 1296.95 772.668 1309.41 782.593 1296.77C781.474 1296.58 780.327 1296.36 779.182 1296.17ZM104.491 1827.11C109.511 1822.04 105.972 1814.46 103.498 1817.21C96.9188 1824.53 101.546 1830.09 104.491 1827.11ZM255.576 1848.09C267.969 1835.31 261.588 1834.57 260.323 1836.4C253.602 1846.03 253.498 1845.31 255.576 1848.09ZM980.185 1173.84C989.138 1172.27 987.836 1173.04 989.176 1170.21C989.219 1170.12 988.335 1169.44 987.824 1169.31C980.428 1167.39 967.147 1174.13 980.185 1173.84ZM100.742 1869.52C93.871 1868.83 84.9897 1882.9 102.985 1871.89C105.044 1870.62 102.207 1870.02 100.742 1869.52ZM1024.53 1225.6C1026.42 1224.77 1028.73 1224.13 1026.12 1223.21C1008.88 1217 1016.02 1227.69 1024.53 1225.6ZM1007.57 1234.9C1007.31 1232.92 1005.66 1231.92 1003.79 1232.28C991.94 1234.63 1008.58 1242.02 1007.57 1234.9ZM91.6226 1845.16C94.5317 1849.33 100.974 1841.95 95.5647 1835.93C94.1953 1838.98 91.1031 1841.32 91.6226 1845.16ZM813.405 1287.77C814.504 1287.54 815.355 1286.23 813.323 1286.05C800.711 1284.96 790.849 1292.14 813.405 1287.77ZM785.393 1306.47C783.081 1307.08 779.875 1307.17 779.745 1310.31C779.612 1313.67 800.198 1304.86 785.393 1306.47ZM984.961 1355.89C983.172 1354.33 985.942 1354.08 983.698 1354.85C957.102 1363.92 990.15 1360.36 984.961 1355.89ZM294.577 1745.2C295.186 1746 295.547 1747.16 297.078 1746.58C301.1 1745.1 300.69 1741.3 301.417 1738.12C301.454 1737.98 300.512 1737.48 300.01 1737.43C298.265 1737.26 298.633 1737.27 294.603 1745.2L294.577 1745.2ZM1049.89 1441.16C1056.06 1444.98 1070.08 1438.09 1062.83 1437.98C1060.26 1437.95 1052.48 1439.23 1049.89 1441.16ZM77.2643 2252.56C77.0806 2251.59 75.6485 2250.68 75.5228 2252.41C74.5583 2265.96 81.1103 2273.61 77.2643 2252.56ZM709.016 1519.77C705.185 1519.64 698.151 1525.41 699.77 1526.36C703.474 1528.47 707.236 1525.55 709.884 1522.24C711.218 1520.55 710.887 1520.88 709.016 1519.77ZM559.226 1660.27C559.519 1662.01 563.922 1658.98 568.281 1656.26C574.135 1652.62 557.776 1651.94 559.226 1660.27ZM336.669 1637.54C336.382 1638.27 337.191 1639.47 337.504 1640.42C338.683 1639.72 338.079 1640.91 343.997 1633.04C344.683 1632.13 340.137 1628.52 336.643 1637.54L336.669 1637.54ZM86.9405 2275.07C90.4165 2291.25 93.1832 2275.75 89.9376 2268.95C87.9726 2264.8 87.319 2272.29 86.9405 2275.07ZM463.161 1607.84C464.8 1609.7 464.409 1611.89 471.203 1607.52C472.448 1606.71 470.739 1602.51 468.35 1603.86C466.527 1604.89 464.939 1606.4 463.158 1607.82L463.161 1607.84ZM864.637 1291.86C869.274 1295.09 873.809 1297.63 876.044 1292.19C877.842 1287.79 868.979 1289.95 864.637 1291.86ZM331.803 1622.53C331.997 1622.87 332.887 1624.81 333.951 1624.02C338.904 1620.27 337.724 1620.48 338.04 1618.33C334.546 1618.89 336.103 1617.57 331.829 1622.53L331.803 1622.53ZM297.944 1609.17C301.328 1610.97 305.018 1606.18 305.055 1604.59C305.094 1603.02 299.452 1601.85 297.944 1609.17ZM508.906 1658.09C512.206 1660.08 515.87 1654.8 515.607 1653.34C515.124 1650.81 508.62 1654.96 508.906 1658.09ZM640.861 1559.55C634.34 1559.92 631.482 1572.16 642.701 1561.34C643.694 1560.37 641.214 1559.67 640.861 1559.55ZM299.65 1690.4C299.956 1690.81 300.966 1692.89 302.275 1691.94C304.958 1689.93 308.372 1687.42 305.893 1686.25C304.569 1685.61 304.534 1686 299.65 1690.4ZM308.371 1597.54C311.296 1597.28 310.72 1598.73 314.525 1593.3C315.657 1591.69 309.398 1589.89 308.371 1597.54ZM201.558 1723.1C205.026 1725.68 207.936 1722.85 209.441 1719.38C210.008 1718.09 206.576 1717.78 205.808 1718.41C204.229 1719.76 202.978 1721.48 201.555 1723.07L201.558 1723.1ZM320.148 1585.12C323.101 1587.28 326.046 1584.06 327.568 1580.74C328.496 1578.68 320.559 1579.02 320.148 1585.12ZM735.318 1527.55C747.22 1524.49 741.811 1520.4 731.167 1525.91C732.669 1526.51 734.171 1527.1 735.318 1527.55ZM885.044 1448.06C886.764 1451.4 889.373 1452.32 891.895 1451.7C896.145 1450.64 889.211 1445.02 885.044 1448.06ZM735.514 1453.04C736.986 1451.42 734.169 1450.03 733.87 1450.16C722.042 1456.33 731.895 1457.04 735.514 1453.04ZM240.77 1752.83C240.514 1756.74 245.85 1757.5 246.641 1752.97C247.298 1749.14 241.388 1748.63 240.77 1752.83ZM228.864 1773.72C229.511 1774.15 230.222 1775.4 231.393 1773.42C238.134 1761.81 226.799 1767.45 228.864 1773.72ZM1075.66 1379.02C1069.79 1380.36 1071.49 1379.89 1069.84 1381.01C1075.64 1386.36 1085.54 1377.85 1075.66 1379.02ZM550.324 1743.95C551.94 1744.63 551.103 1745.35 557.007 1740.25C559.159 1738.4 555.287 1737.87 554.947 1738.12C553.127 1739.41 551.558 1741.1 549.983 1742.73C549.842 1742.88 550.202 1743.54 550.324 1743.95ZM469.286 1421.69C470.036 1420.41 465.58 1421.02 464.068 1422.02C458.19 1425.92 464.484 1429.73 469.286 1421.69ZM925.179 1261.21C926.194 1266.48 930.259 1262.98 933.938 1259.29C930.251 1258.07 926.238 1257.46 925.179 1261.21ZM137.646 1827.2C132.913 1831.29 134.072 1835.97 135.328 1835.49C139.79 1833.73 140.746 1829.03 137.646 1827.2ZM1026.31 1239.45C1026.8 1239.35 1029.58 1237.74 1026.59 1237.7C1017.77 1237.58 1013.2 1241.99 1026.31 1239.45ZM267.643 1828.2C268.939 1827.38 270.62 1826.72 271.272 1825.51C272.167 1823.87 271.661 1819.2 270.459 1820.16C264.955 1824.62 266.59 1828.86 267.643 1828.2ZM1697.66 770.135C1700.22 770.824 1699.01 771.947 1705 766.652C1706.19 765.583 1702.66 764.894 1701.87 765.528C1700.38 766.734 1699.22 768.373 1697.66 770.135ZM39.6749 2156.19C41.9269 2156.47 37.7078 2162.4 43.1978 2162.41C46.3346 2162.41 49.0224 2157.06 39.6749 2156.19ZM1648.51 43.7721C1634.2 46.9924 1645.73 49.948 1651.73 44.9649C1650.69 44.5808 1649.68 44.2196 1648.51 43.7721ZM1497.73 115.652C1490.74 119.647 1492.42 118.525 1491.05 120.109C1493.49 120.941 1492.96 122.095 1498.37 118.951C1499.7 118.18 1497.89 115.948 1497.73 115.652Z" fill="#98E0FF"/>
</svg>
