<svg width="1730" height="1921" viewBox="0 0 1730 1921" fill="none" xmlns="http://www.w3.org/2000/svg">
<path d="M1469.97 2.46659C1478.09 10.3542 1486.77 1.32123 1491.3 3.09128C1500.26 6.59413 1510.24 -0.797639 1518.71 6.20792C1520.42 7.64208 1528.99 3.15001 1532.21 2.80406C1538.36 2.13768 1531.23 6.31362 1534.52 9.97558C1536.8 12.5224 1539.55 10.0397 1541.87 7.76868C1549.87 -0.00530367 1550.35 5.38301 1556.52 11.0055C1561.66 15.6803 1559.13 4.39604 1563.02 5.27684C1565.67 5.88034 1565.13 16.5843 1573.45 10.2861C1580.89 4.65087 1589.97 21.2783 1594.52 12.4119C1594.52 12.4119 1595.67 12.7845 1596.04 13.1942C1598.65 16.2113 1596.68 21.2498 1601.59 23.6647C1605.68 25.672 1604.27 30.8735 1605.15 34.7071C1605.32 35.4961 1607.24 40.6752 1607.77 40.8429C1604.29 44.9663 1607.53 54.9311 1600.57 50.2697C1591.21 44.0343 1592.53 56.6494 1584.81 52.5767C1570.73 45.1344 1579.86 39.0342 1570.09 31.6839C1566.14 28.7246 1568.15 36.2941 1566.26 42.3241C1563.2 40.9478 1563.3 38.8413 1559.54 34.3134C1554.73 28.5214 1553.04 32.7687 1553.8 37.6566C1555.84 50.933 1558.25 54.7529 1552.2 56.3806C1550.96 56.7108 1550.37 56.0519 1550.23 55.8657C1550.3 55.9588 1550.41 56.1497 1550.6 56.6175C1553.11 62.6952 1553.02 69.0586 1553.92 75.322C1554.05 76.1972 1556.32 76.896 1556.55 76.4049C1563.39 60.9337 1559.73 73.2614 1561.51 49.1097C1561.65 47.2338 1563.9 47.8558 1564.08 48.4051C1573.45 78.5738 1566.38 55.9747 1570.21 79.241C1570.93 83.6844 1576.61 82.1776 1577.17 78.135C1578.12 71.5624 1572.79 64.0153 1574.76 58.1553C1581.06 61.3502 1586.06 70.3868 1586.17 70.8686C1588.43 81.8828 1597.77 76.5111 1600.63 81.7835C1599.36 82.94 1599.49 84.2388 1600.26 85.5796C1596.85 93.42 1601.91 87.7678 1608.43 111.47C1607.05 113.625 1608.07 115.185 1609.11 116.796C1608.07 115.159 1607.09 113.564 1608.43 111.47C1618.04 105.256 1609.08 99.002 1615.87 101.471C1630.39 106.716 1620.19 120.469 1626.36 128.209C1626.54 128.6 1626.65 128.949 1626.74 129.278C1626.78 127.472 1627.26 124.448 1629.68 118.509C1630.04 117.597 1633.19 116.02 1633.86 117.379C1640.73 131.339 1640.05 129.637 1640.78 131.329C1642.6 135.522 1635.71 134.684 1636.24 138.792C1636.54 141.013 1636.13 143.308 1637.44 145.373C1637.44 145.424 1637.45 145.475 1637.46 145.526C1638.38 141.816 1641.55 138.463 1644.71 139.556C1647.7 140.574 1648.54 154.12 1643.68 153.707C1638.58 153.258 1636.94 150.09 1637.23 146.839C1635.96 148.735 1631.16 149.977 1630.54 145.117C1630 140.825 1628.58 137.247 1625.65 134.209C1624.52 136.425 1623.44 139.504 1626.48 147.388C1627.57 150.179 1628.96 152.465 1626.41 155.175C1624.46 157.249 1623.2 160.916 1620.96 161.56C1616.91 162.718 1611.81 164.889 1608.7 159.265C1617.04 156.984 1615.44 160.87 1616.17 134.74C1611.35 132.521 1612.21 126.891 1609.4 123.487C1602.54 141.525 1613.53 143.181 1600.29 147.911C1599.11 146.671 1598.1 145.188 1596.71 144.25C1590.73 140.259 1589.15 154.323 1594.84 155.037C1596.19 155.214 1597.76 153.634 1599.23 152.864C1599.95 153.791 1600.7 154.687 1601.48 155.523C1581.95 167.797 1609.5 167.344 1604.34 184.335C1598.9 181.196 1596.67 185.806 1593.76 188.715C1592.35 185.479 1590.24 182.425 1592.63 178.686C1594.67 175.511 1591.16 172.341 1586.33 175.042C1583.76 176.486 1581.58 178.576 1579.09 180.19C1577.08 181.507 1574.29 179.661 1574.26 177.18C1574.16 163.922 1577.66 155.563 1563.6 149.203C1560.14 147.636 1553.91 154.982 1561.11 157.484C1562.78 158.054 1564.68 158.052 1566.2 158.86C1569.69 160.714 1566.11 162.896 1566.25 164.935C1567.25 178.77 1568.47 180.558 1567.16 182.489C1562.67 189.096 1564.21 197.703 1559.26 203.969C1552 196.454 1547.44 191.014 1545.27 191.302C1538.6 192.25 1536.52 185.618 1531.82 183.774C1529.11 182.705 1530.13 177.205 1526.14 179.278C1517.96 183.486 1528.9 204.669 1517.12 211.62C1515.73 209.044 1514.34 206.492 1512.94 203.916C1510.73 205.719 1508.7 204.289 1506.51 203.735C1502.8 202.796 1501.41 208.283 1504.11 209.01C1509.95 210.594 1509.22 216.043 1511.12 219.93C1504.94 233.826 1518.12 223.26 1513.21 242.507C1512.36 245.835 1511.28 243.096 1506.69 243.004C1509.14 249.963 1511.65 270.93 1507.97 281.251C1507.29 283.174 1511.67 289.678 1514.86 274.632C1515.97 269.404 1512.07 262.628 1519.72 259.467C1520.65 242.742 1519.63 238.855 1526.15 237.777C1531.93 219.75 1522.14 216.712 1530.48 209.169C1535.87 204.303 1519.17 178.348 1543.71 198.119C1546.96 200.754 1543.95 206.433 1548.5 210.791C1550.88 210.359 1554.01 204.738 1555.33 211.852C1555.53 212.953 1560.53 214.609 1562.78 211.954C1564.88 220.352 1564.71 222.605 1567.4 221.958C1567.73 221.898 1570.85 217.656 1565.7 210.893C1573.59 207.108 1567.33 207.186 1571.66 191.828C1573.84 184.027 1589.05 191.632 1585.62 201.698C1575.96 230.083 1598.58 230.869 1576.37 232.918C1574.34 233.102 1572.52 237.637 1574.09 238.303C1579.57 240.642 1576.78 246.86 1580.56 250.061C1594.32 261.714 1572.9 280.703 1587.91 286.018C1597.24 289.323 1591.76 302.379 1595.29 304.356C1605.07 309.853 1593.8 314.966 1598.28 325.234C1598.24 325.401 1598.21 325.539 1598.18 325.702C1598.67 324.291 1599.64 324.247 1604.25 322.961C1603.6 329.029 1602.15 333.576 1597.54 328.701C1597.58 328.508 1597.61 328.345 1597.66 328.178C1597.22 329.844 1596.65 330.503 1592.12 341.508C1587.7 352.174 1588.82 360.381 1589.59 361.563C1587.07 362.524 1584.3 363.159 1582.17 364.657C1578.62 367.125 1583.09 370.732 1581.45 373.832C1579.36 377.755 1573.73 377.64 1573.84 372.384C1573.89 369.731 1575.73 367.069 1574.03 364.415C1566.21 373.055 1569.38 387.183 1557.73 413.762C1557.29 414.796 1559.05 416.777 1559.81 418.332C1554.94 421.119 1554.6 427.845 1556.09 427.999C1558.33 428.253 1562.07 423.236 1559.81 418.332C1565.14 417.1 1564.9 407.648 1569.15 409.204C1569.47 409.332 1569.89 410.074 1569.78 410.358C1563.76 426.553 1568.14 438.003 1561.71 448.904C1560.55 450.858 1563.15 453.957 1565.29 453.49C1586.33 448.77 1579.7 443.441 1587.59 441.586C1589.27 441.202 1590.95 436.506 1591.55 436.715C1595.07 438.034 1592.35 448.842 1589.03 458.807C1591.28 457.683 1594.74 459.516 1596 456.007C1597.4 452.183 1605.95 458.511 1607.21 461.193C1607.89 462.629 1607.92 465.294 1608.79 465.56C1611.75 466.424 1612.58 463.841 1613.44 461.595C1618.61 447.829 1624.35 443.481 1625.03 442.405C1625.87 446.723 1625.61 449.837 1629.75 448.293C1633.02 447.065 1633.29 451.617 1632.18 456.605C1632.81 455.406 1633.73 454.208 1635.3 453.077C1640.53 449.245 1646.59 456.581 1641.13 459.265C1635.91 461.826 1636.47 467.992 1633.89 472.244C1638.09 478.913 1640.41 477.01 1652.83 475.072C1659.47 474.026 1655.29 482.19 1656.43 483.251C1664.34 490.543 1664.85 485.902 1665.77 484.704C1673.46 475.031 1665.71 471.703 1670.34 466.895C1673.14 463.98 1671.01 458.786 1675.7 456.507C1679 454.902 1675.89 449.834 1679.33 447.517C1683.39 444.797 1680.27 439.413 1683.06 436.288C1684.73 434.449 1687.29 433.377 1688.19 432.791C1684.84 475.846 1682.17 469.877 1682.85 477.556C1683.85 477.375 1685.25 477.491 1685.75 476.898C1688.51 473.487 1695.83 471.55 1689.99 465.02C1689.73 464.724 1689.9 463.793 1690.16 463.323C1694.61 455.374 1694.19 445.877 1697.72 437.963C1703.65 424.721 1700.58 423.109 1703.65 414.671C1705.27 410.224 1709.8 413.423 1711.76 409.073C1724.26 381.335 1711.08 379.1 1708.32 384.308C1706.64 387.443 1705.73 392.342 1703.22 393.379C1695.79 396.447 1702.91 407.665 1696.01 408.573C1689.19 409.468 1691.66 392.648 1698.28 385.814C1706.61 377.239 1699.1 375.482 1704.66 365.005C1706.76 361.026 1711.01 363.429 1714.36 363.244C1721.15 362.91 1724.77 356.064 1727.44 356.611C1730.56 362.47 1730.21 367.64 1724.55 371.735C1730.04 440.268 1698.83 513.559 1673.18 575.316C1636.59 663.39 1592.01 748.233 1544.37 830.776C1529.5 856.537 1514.11 881.891 1498.32 906.972C1496.19 913.416 1492.99 919.551 1487.55 924.374C1487.49 924.332 1487.43 924.29 1487.39 924.244C1482.98 931.153 1478.55 938.067 1474.09 944.934C1474.03 949.123 1472.65 954.662 1466.01 962.374C1464.42 964.224 1463.68 962.929 1462.97 961.789C1442.08 993.404 1420.62 1024.67 1398.71 1055.76C1392.84 1064.07 1386.97 1072.41 1381.1 1080.72C1374.71 1089.79 1368.18 1098.99 1360.34 1106.79C1309.69 1186.17 1109.86 1414.17 909.661 1543.42C480.148 1820.73 544.863 1759.11 343.638 1852.26C260.275 1890.85 207.459 1918.53 124.717 1920.49C117.686 1920.66 112.78 1918.69 110.173 1912.92C106.465 1904.73 100.091 1900.36 97.5139 1893.74C88.5917 1870.82 80.5243 1872.71 81.3433 1864.84C82.125 1857.34 76.5474 1851.82 75.9464 1844.87C70.1218 1840.61 73.8039 1832.2 68.6753 1827.84C62.0434 1822.19 52.5968 1793.47 52.007 1787.89C50.2215 1771.5 43.951 1772.5 37.386 1751.35C34.1512 1740.96 32.3015 1729.6 23.8317 1721.41C21.1674 1718.82 19.3947 1715.47 20.4314 1711.71C22.4769 1704.33 15.8171 1698.82 16.6174 1691.43C16.979 1688.03 13.4003 1684.05 11.2367 1680.59C4.66201 1670.01 15.5314 1669.86 4.3527 1660.44C-2.04876 1655.04 -0.151373 1635.05 6.1565 1633.37C17.9669 1630.25 28.9727 1624.15 41.59 1623.87C78.7273 1623.03 429.99 1465.21 461.828 1446.1C872.523 1199.74 903.018 1124.14 929.315 1127.83C926.314 1123.83 924.447 1124.04 929.467 1117.31C931.506 1114.56 934.032 1112.3 937.689 1111.9C935.949 1117.61 933.981 1123.23 930.216 1127.99C933.018 1128.56 935.799 1130.04 939.061 1132.28C940.09 1132.99 943.352 1129.25 943.238 1127.61C941.706 1103.58 956.629 1122.27 962.497 1105.49C964.034 1101.14 970.612 1097.46 968.928 1096.05C967.092 1094.53 960.691 1095.98 959.242 1101.4C956.451 1111.67 950.945 1108.14 940.346 1107.45C965.98 1072.09 1010.09 1031.42 1065.11 980.465C1072.62 973.494 1075.95 973.048 1076.86 973.121C1077.67 977.101 1074.18 978.897 1061.8 991.671C1057.16 996.453 1057.52 1005.67 1060.78 1004.84C1066.59 1003.36 1069.3 999.196 1085.73 980.292C1088.2 977.462 1089.92 982.387 1089.66 983.439C1088.69 987.398 1079.77 998.035 1088.06 1001.27C1089.85 1001.97 1092.83 1009.52 1088.24 1008.96C1080.09 1007.95 1080.23 1008.87 1081 1014.29C1082.33 1023.78 1075.66 1016.29 1085.05 1029.87C1083.28 1029.9 1081.62 1030.07 1079.86 1029.99C1077.35 1029.87 1076.88 1023.9 1073.1 1027.44C1061.42 1038.42 1067.65 1032.5 1066.62 1041.68C1065.39 1052.83 1072.3 1053.48 1078.91 1046.14C1088.48 1035.49 1091.11 1038.61 1085.05 1029.87C1122.11 1020.42 1086.55 1040.89 1083.07 1053.48C1075.2 1059.09 1072.14 1069.19 1063.77 1074.36C1063.3 1074.66 1063.53 1076.09 1063.43 1077.01C1070.79 1076.18 1074.03 1069.53 1078.36 1065.71C1083.74 1060.97 1083.68 1070.85 1092.35 1066.31C1100.91 1061.85 1103.63 1050.19 1112.33 1049.3C1110.51 1055.58 1109.68 1056 1111.52 1056.38C1113.23 1056.76 1118.01 1052.79 1118.19 1048.37C1121.21 1047.53 1124.23 1046.69 1127.28 1045.85C1123.57 1054.54 1117.89 1061.86 1111.33 1068.58C1106.69 1073.34 1105.41 1076.32 1105.55 1076.8C1098.11 1081.24 1094.72 1081.41 1099.78 1100.06C1099.96 1100.79 1101.98 1101.83 1102.2 1101.63C1106.11 1098.25 1113.61 1104.13 1115.86 1096.27C1117.27 1091.36 1126.2 1092.78 1125.11 1080.54C1124.14 1069.51 1135.71 1083.41 1138.54 1072.79C1138.82 1071.71 1141.41 1069.33 1142.36 1070.06C1143.12 1070.64 1143.55 1070.53 1143.76 1070.34C1143.7 1070.48 1143.64 1070.7 1143.58 1070.98C1142.78 1074.43 1141.91 1077.94 1140.57 1081.2C1138.83 1085.46 1144.95 1086.65 1143.81 1090.43C1143.23 1092.33 1144.1 1093.49 1145.11 1095C1154.7 1109.34 1128.13 1122.5 1141.33 1120.63C1149.3 1119.5 1145.05 1112.71 1160.11 1109.13C1160.34 1106.02 1162.04 1103.17 1164.48 1102.3C1174.88 1098.7 1185.43 1067.66 1190.33 1096.53C1191.51 1103.48 1186.12 1101.18 1185.5 1108.83C1185.27 1111.38 1188.73 1115.57 1190.02 1110.57C1191.03 1106.66 1204.73 1096.5 1205.24 1096.23C1209.55 1093.91 1204.01 1091.34 1205.82 1088.95C1207.31 1086.96 1208.42 1086.05 1211.36 1086.39C1215.47 1086.88 1218.11 1083.79 1216.25 1081.82C1211.66 1076.97 1211.83 1072.66 1215.95 1067.81C1216.82 1066.78 1210.01 1056.96 1219.53 1057.24C1222.4 1057.33 1225.1 1058.79 1227.66 1056.11C1228.79 1054.92 1230.72 1054.2 1232.3 1055.93C1235.38 1059.33 1243.65 1066.54 1237.02 1072.45C1224.26 1083.86 1222.56 1081.81 1221.36 1085.81C1218.03 1096.92 1213.7 1092.15 1214.46 1113.65C1214.64 1118.72 1214.97 1122.41 1219.71 1125.36C1225.53 1129.04 1226.2 1129.08 1229.43 1122.25C1229.87 1121.3 1232.41 1117.24 1233.94 1117.83C1236.11 1118.68 1234.61 1119.75 1234.16 1125.86C1233.95 1128.52 1236.48 1130.07 1238.91 1128.88C1239.96 1128.38 1240.72 1127.31 1241.76 1126.78C1251.1 1121.99 1249.35 1134.5 1253.62 1132.69C1257.06 1131.25 1255.34 1123.23 1254.07 1121.74C1249.84 1116.8 1251.63 1117.21 1257.96 1103.58C1259.67 1102.05 1261.21 1100.19 1263.18 1099.12C1268.34 1096.35 1265.69 1092.97 1267.15 1087.74C1266.87 1088.42 1266.58 1089.16 1266.34 1089.97C1258.13 1097.36 1256.59 1097.32 1257.85 1103.68C1257.62 1104.04 1249.56 1103.62 1247.17 1110.72C1246.8 1111.85 1240.79 1117.96 1239.2 1115.61C1237.36 1112.93 1238.03 1113.23 1248.29 1097.96C1251.54 1093.11 1254.24 1087.75 1258.16 1083.52C1261.78 1079.61 1267.26 1077.59 1270.56 1073.05C1265.44 1074.4 1260.39 1075.87 1256.29 1079.08C1251.73 1075.54 1251.77 1068.31 1254.61 1063.27C1257.45 1058.24 1262.32 1054.74 1266.66 1050.96C1271.02 1047.15 1275.19 1042.48 1275.84 1036.73C1270.06 1038.54 1264.23 1032.75 1263.3 1026.76C1262.37 1020.77 1264.64 1014.8 1266.2 1008.94C1267.89 1002.55 1266.73 993.212 1260.14 992.768C1254.6 992.399 1251.61 998.838 1249.1 1003.79C1246.59 1008.74 1239.77 1013.42 1236.2 1009.2C1232.63 1012.97 1232.2 1018.65 1230.24 1023.45C1228.29 1028.25 1222.56 1032.68 1218.23 1029.81C1214.77 1027.53 1215 1022.36 1216.38 1018.46C1217.76 1014.56 1219.97 1010.59 1219.18 1006.52C1217.94 1000.24 1208.28 997.898 1204.3 1002.91C1201.28 999.989 1200.65 995.476 1199.04 991.588C1197.44 987.701 1193.54 983.86 1189.59 985.239C1187.97 985.797 1186.71 987.163 1185.05 987.623C1180.08 988.974 1177.21 982.17 1176.62 977.041C1175.84 970.279 1175.87 961.863 1181.81 958.564C1183.62 953.528 1177.87 947.643 1172.78 949.359C1165.5 951.792 1164.37 964.506 1156.7 964.604C1151.16 964.684 1148.5 957.946 1147.39 952.515C1141.06 953.48 1134.75 954.414 1128.41 955.378C1129.03 950.32 1125.46 945.229 1120.62 943.622C1109 939.781 1098.25 954.269 1091.15 961.059C1089.91 962.236 1088.57 963.458 1087.06 964.181C1085.63 966.927 1083.32 969.198 1081.41 971.635C1080.57 972.712 1077.58 972.409 1076.92 972.581C1078.12 964.614 1082.48 961.971 1085.56 960.857C1088.84 955.475 1096.01 946.318 1096.68 945.483C1100.55 944.781 1108.34 930.909 1111.15 927.728C1115.8 922.467 1120.18 917.624 1124.59 912.037C1135.58 898.115 1146.13 883.848 1156.23 869.267C1169.59 850.022 1182.19 830.279 1193.96 810.026C1220.31 764.778 1287.97 642.738 1296.08 627.381C1306.22 608.11 1315.91 588.606 1325.07 568.853C1333.88 549.824 1343.14 532.063 1351.07 512.482C1359.58 491.471 1368.4 470.615 1376.86 449.589C1393.45 408.255 1408.6 366.017 1416.08 321.949C1416.47 319.603 1417.09 316.924 1419.27 315.921C1420.44 315.391 1421.86 315.503 1423.01 314.845C1425.68 313.356 1424.86 309.299 1423.37 306.608C1420.11 300.772 1422.11 293.111 1423.92 286.804C1424.38 285.214 1422.09 275.394 1424.36 274.796C1431.35 272.92 1426.4 268.396 1428.09 263.011C1429.16 259.59 1434.72 264.109 1434.43 267.891C1434.18 271.322 1433.34 269.888 1432.14 285.577C1431.81 289.869 1437.39 291.79 1438.89 287.524C1439.73 285.151 1443.61 264.982 1447.43 255.005C1455.79 233.175 1448.75 229.666 1455.27 212.112C1464.38 187.555 1457.82 173.723 1463.37 170.918C1468.74 168.17 1466.48 183.999 1465.85 188.081C1453.91 265.359 1450.68 271.447 1471.28 256.573C1471.11 253.191 1470.04 249.155 1473.4 247.275C1479.18 244.004 1479.2 252.462 1483.32 254.863C1485.63 256.216 1486.38 261.66 1489.09 259.687C1492.94 256.872 1489.01 254.148 1487.01 251.31C1485.47 249.103 1485.68 245.6 1485.28 242.658C1484.56 237.368 1478.55 244.039 1478.89 237.445C1479.16 231.948 1478.89 226.523 1486.85 226.266C1487.82 226.222 1488.66 222.261 1489.57 220.113C1492.2 222.625 1495.29 226.718 1497.31 223.839C1501.59 217.719 1496.97 208.878 1490.78 213.071C1489.93 206.374 1476.79 208.549 1489.23 217.795C1488.53 218.16 1488.41 218.684 1488.86 219.396C1481.45 219.841 1478.01 211.236 1478.89 205.575C1480.43 195.563 1470.56 198.572 1471.84 193.236C1472.87 188.895 1483.71 192.666 1488.08 193.382C1492.38 194.081 1495.18 189.236 1499.78 190.119C1505.45 191.206 1508.57 185.958 1515.33 195.072C1521.92 185.2 1514.29 171.829 1526.22 171.832C1529.33 171.822 1529.15 168.603 1528.7 166.436C1528.18 163.859 1526.21 165.115 1524.62 165.536C1514.11 168.371 1528.97 142.293 1516.51 140.086C1509.43 138.832 1520.68 146.126 1513.39 156.414C1511.25 159.449 1510.65 162.572 1514.52 165.52C1517.19 167.573 1515.33 171.031 1514.94 173.826C1514.04 179.915 1513.45 174.361 1489.03 180.593C1487.59 180.96 1484.31 179.784 1484.32 179.386C1484.46 173.753 1477.56 174.769 1476.33 170.653C1473.31 160.57 1489.42 179.65 1492.5 170.548C1495.19 162.629 1488.44 164.091 1487.52 161.191C1486.32 157.362 1486.75 153.133 1484.4 149.538C1483.01 147.385 1490.67 145.914 1491.29 145.961C1493.45 146.071 1496.24 148.157 1497.55 147.389C1499.22 146.372 1499.83 143.642 1502.19 142.5C1517.43 135.105 1483.17 139.844 1484.46 96.421C1484.86 83.3104 1497.96 84.0796 1489.82 72.7566C1482.49 62.5302 1483.85 63.0496 1483.41 60.5917C1508.64 57.7029 1504.16 72.3484 1497 44.8731C1495.77 40.0992 1495.29 35.2929 1488.36 36.6038C1487.67 36.7293 1485.98 35.2649 1485.95 34.5294C1485.83 28.2033 1481.17 23.7869 1479.27 18.261C1477.98 14.5018 1475.56 16.2096 1473.88 17.4403C1462.84 25.5533 1465.62 10.1066 1455.04 17.1048C1450.79 19.913 1447.04 11.0724 1446.57 8.48642C1445.92 4.87635 1450.17 15.0275 1456.39 5.16997C1459.19 0.74851 1466.74 -0.939304 1470.08 2.31537L1469.97 2.46659ZM1626.07 133.472C1626.74 132.636 1626.88 132.108 1626.87 131.475C1626.74 132.187 1626.43 132.799 1626.07 133.472ZM1724.28 371.413C1723.84 369.405 1723.07 365.629 1722.62 365.764C1721.36 366.125 1718.62 366.04 1718.38 371.558C1718.21 375.133 1721.39 373.286 1724.3 371.383L1724.28 371.413ZM515.22 1571.5C520.02 1576.82 529.745 1565.56 524.089 1565.29C519.739 1565.07 516.387 1567 515.22 1571.5ZM530.951 1554.87C534.918 1561.42 542.108 1551.2 533.205 1551.84C532.069 1552.57 529.711 1552.84 530.951 1554.87ZM997.604 1063.31C998.127 1064.01 999.055 1065.48 999.204 1065.42C1007.98 1061.03 997.968 1056.58 997.604 1063.31ZM1041.15 1070.4C1043.65 1069.44 1045.31 1065.6 1042.73 1062.04C1040.89 1059.47 1033.58 1067.43 1036.87 1068.93C1038.28 1069.57 1040.06 1070.81 1041.15 1070.4ZM991.099 1103.23C993.558 1099.59 994.352 1098.57 992.107 1095.96C990.266 1093.84 989.483 1099.43 988.735 1102.45C989.854 1103.8 990.848 1103.6 991.099 1103.23ZM1463.88 712.887C1459.37 719.815 1460.35 718.077 1459.9 720.115C1466.5 720.029 1468.57 713.941 1463.88 712.887ZM1478.73 723.574C1484.27 729.206 1485.36 713.617 1480.31 713.185C1477.05 714.939 1476.14 720.951 1478.73 723.574ZM1510.48 676.472C1507.03 670.567 1501.17 674.857 1500.59 678.19C1500.34 679.609 1507.02 682.628 1508.88 682.237C1510.54 681.884 1511.55 678.262 1510.51 676.468L1510.48 676.472ZM1500.5 685.002C1496.48 683.828 1495.9 686.921 1494.3 689.169C1492.9 691.196 1491.76 692.937 1493.72 695.171C1500.3 701.965 1509.64 687.707 1500.5 685.002ZM1529.35 692.115C1529.42 688.717 1524.26 689.708 1523.2 697.304C1523.08 698.226 1529.23 698.167 1529.35 692.115ZM1545.31 706.436C1547.23 703.204 1545.21 699.074 1538.88 699.007C1535.81 700.331 1519.26 731.503 1526.78 734.475C1531.42 736.303 1539.08 717.008 1545.31 706.436ZM1290.63 1064.99C1294 1065.09 1294.72 1067.55 1295.19 1070.16C1298.73 1065.47 1305.99 1062.2 1303.66 1057.09C1297.71 1055.77 1293.2 1061.56 1288.42 1065.63C1289.11 1065.21 1289.83 1064.95 1290.63 1064.99ZM1350.08 1051.13C1349.78 1051.82 1351.43 1054.95 1353.11 1052.24C1354.91 1049.32 1356.7 1047.84 1354.15 1045.02C1352.9 1045.27 1353.04 1044.29 1350.06 1051.16L1350.08 1051.13ZM1330.62 1062.52C1330.79 1062.48 1330.94 1062.4 1331.14 1062.34C1331.86 1061.52 1332.75 1060.46 1333.72 1059.23C1332.54 1060.02 1331.49 1061.09 1330.62 1062.52ZM1328.4 1108.01C1342.63 1086.89 1352.93 1074.44 1360.09 1066.1C1364.56 1056.17 1369.67 1046.57 1373.32 1037.73C1374.43 1035.09 1375.41 1031.72 1373.44 1029.64C1372.53 1028.7 1371.36 1028.38 1370.11 1028.45C1371.72 1030.96 1372.71 1033.9 1368.25 1038.02C1362.4 1043.41 1362.36 1052.49 1355.53 1056.99C1348.58 1061.55 1347.92 1070 1343.42 1076.09C1324.54 1101.75 1330.1 1101.2 1320.56 1100.1C1310.82 1098.98 1322.65 1105.17 1318.34 1110.73C1307.61 1124.58 1313.32 1130.4 1328.42 1107.98L1328.4 1108.01ZM1307.34 1135.5C1312.85 1131.33 1308.82 1127.46 1308.6 1127.13C1301.38 1134.71 1306.57 1136.07 1307.34 1135.5ZM1299.35 1141.16C1295.99 1140.13 1296.5 1141.49 1293.88 1150.64C1295.7 1149.76 1297.72 1149.07 1299.14 1147.73C1303.27 1143.81 1300.92 1141.64 1299.35 1141.16ZM1293.37 1151.21C1288.27 1151.93 1285.75 1155.13 1284.85 1159.92C1289.2 1158.53 1293.09 1156.66 1293.37 1151.21ZM1260.41 1192.95C1269.27 1182.91 1279.61 1173.86 1284.05 1160.6C1282.48 1160.99 1280.72 1161.18 1279.76 1162.15C1254.38 1188.73 1252.86 1189.85 1255.79 1191.25C1257.32 1191.98 1259.99 1193.4 1260.38 1192.93L1260.41 1192.95ZM1024.39 1216.07C1020.76 1215.2 1018 1217.04 1019.97 1224.07C1021.17 1228.79 1021.58 1229.01 1025.22 1226.08C1034.37 1218.76 1032 1217.94 1024.39 1216.07ZM1049.37 1214.71C1049.26 1213.22 1044.51 1213.29 1041.81 1219.68C1044.38 1222.33 1049.74 1219.67 1049.37 1214.71ZM1017.26 1245.27C1019.26 1244.8 1021.31 1244.43 1023.25 1243.76C1029.34 1241.62 1022.61 1230.2 1017.26 1245.27ZM1007.55 1249.22C1007.2 1249.61 1007.04 1249.77 1006.93 1249.87C1007.12 1249.75 1007.54 1249.7 1007.57 1250.94C1007.71 1254.62 1015.22 1249.63 1016.47 1245.89C1013.29 1246.46 1009.97 1246.49 1007.53 1249.25L1007.55 1249.22ZM1042.95 1237.64C1034.75 1248.12 1038.22 1248.13 1042.89 1247.65C1054.71 1245.42 1046.54 1233.05 1042.95 1237.64ZM1017.83 1258.2C1016.33 1263.76 1017.64 1266.01 1017.61 1267.16C1024.55 1265.95 1026.87 1262.7 1017.83 1258.2ZM815.109 1297.94C811.589 1298.08 808.836 1297.92 807.294 1302.53C806.285 1305.57 802.524 1307.58 806.824 1310.87C809.956 1313.26 805.951 1319.47 806.931 1320.64C807.606 1321.44 808.895 1321.55 810.071 1320.6C814.168 1317.23 809.361 1311.44 813.712 1307.87C832.717 1292.23 820.957 1290.24 818.44 1294.3C817.516 1295.76 817.157 1297.86 815.164 1297.96L815.109 1297.94ZM733.528 1318.39C734.133 1318.51 734.866 1318.91 735.145 1318.7C746.79 1310 731.395 1311.45 733.528 1318.39ZM783.956 1321.26C785.45 1322.5 787.287 1322.56 788.716 1321.4C789.384 1320.86 789.359 1319.41 789.622 1318.38C787.501 1313.98 781.18 1318.94 783.956 1321.26ZM738.762 1326.53C730.476 1337.27 723.249 1337.52 728.512 1338.68C735.594 1340.25 732.779 1342.38 743.723 1331.72C746.284 1329.21 739.019 1326.2 738.788 1326.53L738.762 1326.53ZM1013.29 1273.84C1012.35 1272.02 1017.2 1270.77 1017.39 1267.7C1016.98 1268.2 1015.78 1268.44 1012.87 1268.91C1008.3 1269.66 1008.29 1273.53 1007.32 1276.77C1006.42 1279.71 1008.67 1279.41 1010.19 1279.21C1013.26 1278.79 1015.64 1278.33 1013.32 1273.86L1013.29 1273.84ZM923.591 1302.87C913.334 1299.84 927.373 1293.4 920.121 1292.21C906.802 1304.07 906.647 1302.77 912.902 1304.6C916.365 1305.61 914.849 1308.18 919.078 1311.81C927.862 1299.45 925.159 1303.35 923.565 1302.87L923.591 1302.87ZM1073.69 1278.58C1072.62 1277.24 1065.42 1281.4 1063.68 1288.57C1062.64 1292.78 1080.42 1287.14 1073.69 1278.58ZM887.437 1323.26C890.996 1321.45 886.6 1319.82 884.734 1318.86C881.322 1320.17 875.541 1324.02 876.919 1326.95C877.784 1328.8 877.987 1328.02 887.433 1323.24L887.437 1323.26ZM869.66 1331.25C865.811 1331.61 863.029 1331.29 861.627 1326.63C860.251 1321.96 852.564 1318.22 849.059 1317.85C845.637 1318.53 848.092 1321.42 846.117 1326.85C844.549 1331.18 847.617 1330.89 849.984 1332.42C852.744 1334.22 854.498 1337.47 858.522 1335.6C865.318 1346.96 877.881 1330.5 869.665 1331.28L869.66 1331.25ZM769.429 1346.57C762.496 1341.45 769.089 1337.85 770.365 1335.26C766.797 1334.4 769.358 1332.77 753.522 1342.13C752.521 1342.73 752.972 1344.34 754.487 1344.39C759.007 1344.52 760.235 1347.5 761.454 1351C762.591 1354.21 768.899 1352.24 769.403 1346.57L769.429 1346.57ZM836.257 1329.65C832.916 1332.37 830.309 1334.61 834.088 1336.49C843.525 1341.13 841.695 1325.22 836.257 1329.65ZM712.588 1345.51C712.573 1348.64 715.486 1349.83 716.943 1352.02C723.884 1348.3 712.638 1340.11 712.588 1345.51ZM885.563 1344.26C886.66 1341.13 885.769 1329.52 881.325 1334.32C880.952 1335.18 879.362 1337.05 879.785 1338.22C880.525 1340.26 882.494 1341.78 881.844 1344.46C881.419 1346.2 885.111 1345.56 885.563 1344.26ZM897.834 1348.78C899.238 1347.91 896.42 1345.36 895.843 1345.67C880.237 1354.11 890.816 1353.09 897.834 1348.78ZM874.049 1361.69C874.049 1361.69 874.989 1362.21 875.52 1362.51C884.648 1361.51 881.03 1347.7 874.049 1361.69ZM818.454 1373.77C828.865 1365.85 826.712 1366.95 827.923 1364.01C815.828 1361.34 809.736 1380.37 818.454 1373.77ZM775.445 1384.22C773.194 1383.91 768.674 1386.4 769.334 1386.84C778.764 1393.03 780.679 1384.94 775.445 1384.22ZM793.133 1421.34C779.925 1427.55 777.707 1428.58 778.356 1429.39C786.546 1439.25 801.297 1417.5 793.133 1421.34ZM764.788 1442.94C768.456 1435.61 762.174 1437.28 759.183 1444.11C759.332 1443.77 762.813 1446.92 764.788 1442.94ZM749.846 1440.47C774.792 1425.49 794.075 1416.62 788.56 1409.85C781.957 1401.74 781.108 1392.4 775.572 1396.28C771.23 1399.32 765.695 1400.01 761.768 1404.16C751.536 1414.95 755.145 1399.14 748.924 1397.37C740.663 1394.98 753.087 1392.91 748.152 1386.85C746.284 1384.57 744.153 1380.7 742.755 1378.09C742.403 1378.93 741.595 1379.87 741.751 1380.58C742.718 1385.03 739.305 1388.37 738.894 1392.52C738.635 1395.03 736.11 1395.83 733.501 1393.55C730.576 1390.99 730.134 1391.47 729.502 1394.83C728.3 1401.32 723.107 1391.66 721.935 1390.15C716.704 1383.49 728.698 1380.65 724.728 1372.61C729.391 1374.12 733.319 1376.82 737.422 1371.74C740.679 1367.68 746.744 1360.15 741.759 1358.92C736.027 1357.5 725.612 1355.05 726.641 1360.87C727.422 1365.17 725.124 1368.68 724.728 1372.61C723.527 1371.54 721.125 1369.96 721.328 1369.47C724.784 1361.12 718.345 1358.72 716.715 1352.51C708.638 1352.9 708.662 1352.73 706.948 1345.48C704.381 1334.55 702.989 1337.66 699.181 1338.53C695.347 1339.41 703.274 1350.01 696.336 1348.07C686.692 1345.35 681.297 1353.07 674.268 1356.6C673.613 1356.93 675.086 1360.52 674.255 1361.62C658.464 1383.03 653.026 1359.05 644.788 1383.16C643.786 1386.09 649.44 1384.17 655.536 1384.09C658.676 1384.05 655.255 1389.25 653.009 1390.71C646.253 1395.16 634.459 1400.27 642.956 1400.6C646.792 1400.75 647.245 1404.27 649.174 1406.3C650.717 1407.95 650.248 1409.3 648.782 1410.55C629.664 1426.74 623.205 1418.84 620.09 1431.25C627.128 1435.05 634.889 1430.02 642.005 1432.8C645.578 1430.78 649.182 1428.78 652.725 1426.73C656.124 1424.77 641.893 1425.63 647.713 1422.14C656.752 1416.72 656.023 1417.8 658.175 1420.19C659.501 1421.67 661.773 1422.23 662.821 1421.01C665.261 1418.13 672.543 1417.9 668.691 1411.24C677.463 1402.17 679.675 1397.45 686.987 1400.44C694.183 1403.36 697.108 1397.62 696.982 1396.93C705.851 1393.92 709.92 1389.53 716.126 1395.02C717.604 1396.31 721.14 1394.66 721.486 1397.88C721.655 1399.54 720.491 1401.28 720.276 1403.02C719.941 1405.83 721.678 1409.14 725.317 1406.6C744.115 1393.45 733.896 1405.78 733.648 1411.7C733.585 1412.95 736.264 1419.26 737.26 1413.53C737.726 1410.85 739.944 1409.81 741.671 1408.26C743.534 1406.57 745.11 1405.2 747.127 1408.3C751.682 1415.32 758.721 1414.47 753.595 1419.16C744.981 1427.07 738.298 1419.98 737.15 1432.3C736.545 1438.73 729.793 1438.68 725.203 1433.94C723.865 1432.54 726.553 1425.2 722.722 1425.08C720.676 1425.03 714.535 1429.66 718.022 1433.57C723.446 1439.7 710.634 1437.46 715.677 1450.66C718.642 1458.4 723.059 1443.69 739.421 1442.62C741.786 1432.2 752.558 1432.09 751.205 1435.86C749.066 1441.85 753.561 1439.95 739.589 1442.96C738.834 1446.38 731.648 1450.06 736.17 1450.35C744.654 1450.9 746.618 1449.49 749.907 1440.51L749.846 1440.47ZM637.565 1385.18C631.827 1389.56 633.44 1388.1 632.076 1390.78C634.936 1390.95 634.78 1392.28 639.056 1387.72C639.697 1387.02 638.331 1385.76 637.57 1385.21L637.565 1385.18ZM599.739 1406.12C594.692 1400.32 592.744 1414.8 592.465 1415.59C590.66 1420.65 594.812 1421.67 600.016 1420.33C599.917 1436.24 618.306 1410.79 601.916 1417.97C604.131 1404.53 617.251 1410.66 622.791 1401.41C624.842 1397.99 617.86 1397.41 612.214 1396.61C611.97 1396.58 611.254 1398.32 611.136 1399.27C611.005 1400.29 611.826 1402.05 611.428 1402.33C601.998 1409.1 601.765 1408.4 599.764 1406.12L599.739 1406.12ZM713.856 1418.2C716.057 1421.58 718.209 1422.22 720.949 1420.27C723.571 1418.39 718.256 1414.46 715.078 1416.05C714.855 1413.36 714.454 1407.8 711.635 1409.9C698.508 1419.61 684.62 1428.48 687.228 1433.08C687.579 1433.71 689.581 1434.24 690.093 1433.86C694.968 1430.12 702.069 1429.46 704.496 1422.15C705.656 1418.63 710.746 1419.72 713.86 1418.22L713.856 1418.2ZM695.72 1453.49C695.72 1453.49 696.165 1454.05 696.404 1454.35C702.092 1455.67 705.273 1450.46 709.209 1447.53C709.675 1447.18 706.529 1443.25 695.72 1453.49ZM669.888 1461.25C659.22 1464.4 668.679 1465.52 666.881 1469.89C666.24 1471.46 664.532 1470.79 666.832 1471.22C672.366 1472.28 681.793 1469.43 679.964 1467.51C678.17 1465.64 671.203 1469.37 669.888 1461.25ZM621.648 1474.21C624.265 1480.32 628.306 1476.07 632.592 1472.15C638.803 1466.44 617.361 1464.15 621.648 1474.21ZM742.487 1459.94C744.882 1459.3 745.651 1456.54 743.989 1454.67C740.162 1450.34 731.773 1462.84 742.487 1459.94ZM703.05 1470.7C698.475 1467.35 693.999 1467.03 693.409 1472.66C693.194 1474.69 689.147 1474.39 689.751 1477.43C693.993 1479.38 698.836 1473.71 703.05 1470.7ZM801.297 1488.3C807.932 1489.45 809.008 1487.8 809.695 1483.87C807.873 1475.87 790.998 1486.5 801.297 1488.3ZM601.701 1510.6C602.222 1510.85 602.825 1511.4 603.256 1511.3C611.828 1509.13 611.465 1517.48 616.507 1515.53C621.426 1513.63 604.994 1496.25 601.727 1510.6L601.701 1510.6ZM642.773 1496.61C642.835 1498.85 645.142 1498.59 646.247 1499.58C650.317 1503.2 642.537 1500.99 637.317 1506.33C649.219 1508.67 654.868 1500.45 657.694 1497.66C652.927 1498.21 651.805 1492.17 647.357 1492C645.597 1491.92 642.72 1494.43 642.773 1496.61ZM633.545 1494C640.356 1491.02 647.544 1488.66 653.308 1483.7C655.895 1481.48 653.936 1478.56 651.624 1479.09C644.132 1480.79 632.327 1490.21 630.359 1493.21C631.446 1493.51 632.763 1494.36 633.545 1494ZM565.979 1495.06C564.097 1497.22 558.65 1502.18 567.476 1500.68C568.424 1500.51 569.19 1499.34 570.065 1498.63C568.808 1497.53 567.547 1496.41 566.004 1495.05L565.979 1495.06ZM492.73 1509.68C502.039 1513.17 503.577 1513.34 505.162 1511.15C506.178 1509.75 506.788 1508.16 504.863 1506.73C502.606 1505.08 501.078 1502.34 497.07 1502.12C493.918 1504.86 488.815 1508.22 492.73 1509.68ZM599.113 1485.71C600.607 1484.33 600.02 1484.59 592.005 1481.82C589.984 1487.29 596.414 1488.18 599.113 1485.71ZM537.051 1486.34C540.953 1490.79 553.263 1490.28 556.342 1481.89C558.557 1475.88 545.673 1472.51 543.941 1473.17C540.056 1474.64 535.05 1484.06 537.051 1486.34ZM640.528 1448.7C642.646 1450.17 641.96 1456.59 647.656 1451.98C650.494 1449.7 664.172 1452.63 666.959 1455.17C668.416 1456.49 669.097 1458.64 669.998 1460.54C677.024 1452.63 677.322 1452.52 676.348 1448.47C675.32 1444.26 677.258 1439.49 672.925 1435.73C669.286 1432.58 669.929 1426.81 666.587 1426.17C659.65 1424.81 672.015 1454.46 659.49 1446.37C655.353 1443.68 652.557 1444.46 648.84 1446.85C647.038 1448 642.377 1444.61 640.605 1445.78C639.258 1446.66 639.227 1447.8 640.523 1448.68L640.528 1448.7ZM601.391 1452.66C611.207 1456.91 603.142 1440.02 619.698 1445.26C620.571 1445.55 627.209 1443.37 623.153 1442.15C615.736 1439.9 622.595 1440.24 619.711 1431.35C617.434 1431.92 610.298 1433.4 611.564 1435.42C618.964 1447.2 570.974 1439.54 601.395 1452.69L601.391 1452.66ZM494.473 1436.98C496.984 1447.02 512.17 1433.5 508.434 1433.46C493.604 1433.35 495.749 1433.52 494.473 1436.98ZM562.56 1422.18C567.729 1432.01 565.498 1428.02 564.131 1432.58C562.98 1436.44 566.605 1439.51 567.838 1443.09C568.338 1444.54 569.683 1444.37 570.698 1443.26C576.325 1437.11 582.31 1441.53 589.512 1431.52C580.342 1429.95 578.151 1433.76 574.957 1435.11C574.685 1435.21 572.903 1433.26 573.091 1432.7C574.694 1428.12 578.109 1423.48 576.613 1421.51C574.564 1418.81 571.615 1427.62 565.407 1419.65C564.853 1418.93 563.164 1418.37 562.403 1418.69C559.591 1419.81 561.927 1421.03 562.565 1422.21L562.56 1422.18ZM534.175 1420.54C535.956 1418.84 539.34 1418.54 539.348 1415.23C537.337 1415.81 535.286 1416.32 533.328 1417.04C528.678 1418.81 530.447 1424.04 534.175 1420.54ZM539.818 1414.91C543.633 1396.45 556.842 1418.8 539.818 1414.91ZM555.472 1398C553.773 1407.43 553.198 1406.45 555.972 1408.33C559.77 1410.89 564.159 1405.78 560.836 1402.63C559.17 1401.03 555.805 1396.48 555.472 1398ZM590.236 1384.81C589.159 1383.68 588.24 1381.97 586.951 1381.57C582.047 1380.06 570.076 1401.38 590.236 1384.81ZM625.29 1360.83C620.914 1370.38 613.116 1356.86 610.529 1367.08C609.246 1372.1 608.821 1375.01 613.484 1373.45C621.735 1370.68 628.656 1366.12 633.543 1358.81C630.639 1358.54 627.402 1356.3 625.315 1360.83L625.29 1360.83ZM660.06 1333.84C658.241 1335.92 652.83 1335.68 654 1338.48C658.506 1349.17 640.752 1346.07 634.663 1358.13C647.728 1353.32 660.754 1348.44 669.343 1336.46C664.54 1333.9 663.806 1329.56 660.06 1333.84ZM685.887 1318.04C688.2 1320.29 686.421 1322.15 685.199 1324.01C681.443 1329.69 683.353 1315.88 672.717 1324.16C669.544 1326.64 671.904 1326.24 670.035 1336.05C710.158 1317.13 694.047 1317.83 691.359 1316.28C688.525 1314.65 683.092 1315.32 685.892 1318.07L685.887 1318.04ZM949.004 1267.6C949.932 1269.07 950.47 1268.39 951.795 1267.68C959.912 1263.3 955.342 1267.4 958.473 1274.74C960.984 1273.57 961.825 1271.07 964.412 1268.85C967.205 1266.47 976.175 1266.35 969.465 1258.23C969.23 1257.95 966.534 1253.44 964.415 1254.89C947.78 1266.11 948.907 1265.61 949.004 1267.6ZM709.469 1307.65C707.511 1309.54 722.074 1308.91 715.552 1301.97C713.513 1303.85 711.474 1305.73 709.469 1307.65ZM837.27 1283.95C835.398 1285.87 836.855 1285.45 839.513 1285.52C845.113 1285.49 847.577 1278.66 846.972 1277.08C845.87 1274.21 844.415 1276.54 837.239 1283.93L837.27 1283.95ZM987.714 1250.08C988.259 1249.29 998.215 1234.79 997.688 1232.32C995.984 1230.8 993.496 1229.77 993.24 1230.11C986.479 1239.19 970.386 1241.74 973.973 1250.14C975.864 1254.58 985.216 1253.65 987.714 1250.08ZM937.576 1250.98C938.687 1245.88 939.987 1240.81 941.206 1235.72C933.151 1234.33 934.785 1234 932.742 1249.56C932.329 1252.67 929.088 1257.25 934.625 1257.89C938.812 1258.37 936.989 1253.57 937.571 1250.95L937.576 1250.98ZM947.753 1225.75C945.6 1228.89 943.723 1232.25 941.751 1235.52C958.287 1235.27 951.872 1219.74 947.753 1225.75ZM899.703 1232.62C898.738 1232.11 898.817 1231.67 898.968 1231.49C898.854 1231.59 898.663 1231.7 898.277 1231.9C877.675 1246.33 897.95 1243.36 900.338 1235.68C900.625 1234.78 900.32 1232.96 899.729 1232.62L899.703 1232.62ZM878.663 1249.3C871.866 1254.39 869.522 1255.9 870.318 1256.5C874.462 1259.66 885.504 1250.41 878.663 1249.3ZM890.429 1257C891.113 1256.4 891.463 1255.41 891.952 1254.61C879.996 1253.29 877.704 1268.2 890.429 1257ZM860.205 1264.31C851.562 1270.46 852.067 1270.18 852.392 1271.39C860.943 1273.33 864.232 1261.44 860.205 1264.31ZM825.358 1266.99C826.342 1267.89 828.185 1267.85 829.682 1268.08C831.83 1268.41 829.248 1261.18 824.691 1261.71C822.803 1261.95 824.408 1266.13 825.353 1266.96L825.358 1266.99ZM759.002 1264.23C758.101 1265.53 769.035 1277.24 771.287 1264C759.405 1263.09 759.961 1262.81 759.002 1264.23ZM771.47 1255.98C774.034 1258.45 771.462 1261.04 771.708 1263.56C781.422 1258.94 776.917 1252.77 772.381 1253.57C770.742 1253.87 770.381 1254.94 771.47 1255.98ZM848.949 1239.46C849.849 1241.36 853.189 1242.42 854.481 1240.94C860.709 1233.73 846.539 1235.8 848.949 1239.46ZM830.759 1213.85C834.989 1221.71 834.333 1220.72 845.891 1210.23C841.632 1208.05 837.533 1210.38 838.1 1204.32C830.804 1204.19 829.644 1208.58 830.759 1213.85ZM898.665 1198.35C899.479 1198.76 900.245 1199.33 901.104 1199.55C911.574 1202.01 916.662 1203.52 914.44 1193.32C911.33 1182.75 911.382 1191.04 898.665 1198.35ZM930.564 1187.3C929.453 1181.18 920.75 1171.12 917.649 1183.9C924.534 1183.95 927.712 1195.78 930.564 1187.3ZM863.663 1187.65C861.709 1190.44 865.521 1193.66 868.077 1191.42C871.499 1188.42 874.135 1184.87 874.683 1180.17C870.177 1179.25 869.984 1178.62 863.663 1187.65ZM879.676 1166.6C876.073 1170.35 872.611 1174.15 875.051 1179.87C880.681 1180.14 883.089 1174.18 888.103 1172.95C890.405 1172.37 889.355 1170.53 887.407 1170.43C882.839 1170.18 883.078 1163.05 879.655 1166.63L879.676 1166.6ZM963.252 1146.51C966.732 1144.26 969.165 1139.16 974.911 1142.99C977.166 1144.48 979.003 1141.93 980.572 1140.08C982.844 1137.45 980.738 1136.19 979.289 1134.47C975.445 1129.91 974.33 1129.45 971.041 1132.45C961.393 1141.37 962.468 1142.92 963.252 1146.51ZM909.937 1152.64C912.121 1151.85 913.841 1142.39 912.081 1140.85C911.739 1140.57 911.048 1140.7 909.642 1140.53C897.911 1152.97 893.888 1158.49 909.942 1152.67L909.937 1152.64ZM1026.01 1131.94C1028.39 1128.89 1033.01 1127.52 1033.06 1122.67C1027 1122.53 1024.65 1118.01 1020.42 1117.16C1017.74 1118.26 1010.84 1125.86 1009.13 1130.45C1008.37 1132.52 1012.03 1132.44 1012.51 1132.04C1017.39 1127.74 1018.33 1124.58 1019.91 1125.75C1022.97 1127.99 1018.51 1133.72 1017.83 1135.25C1016.51 1138.19 1018.8 1141.29 1026.04 1131.93L1026.01 1131.94ZM963.303 1147.08C959.588 1148.47 956.849 1147.51 962.15 1158.21C964.644 1163.21 971.019 1152.87 970.119 1150.97C969.7 1150.12 969.733 1151.17 963.303 1147.08ZM997.55 1145.75C998.637 1144.02 992.094 1143.68 991.643 1150.66C994.586 1149.97 993.978 1151.43 997.55 1145.75ZM1180.58 1120.22C1178.1 1114.72 1183.31 1110.05 1182.09 1104.61C1181.31 1101.23 1185.89 1100.48 1186.41 1097.55C1186.81 1095.37 1185.39 1093.8 1183.59 1095.13C1167.24 1107.3 1180.97 1107.8 1160.3 1109.57C1157.36 1116.11 1164.43 1121.99 1163.32 1123.2C1170.2 1122.87 1173.95 1112.38 1177.4 1121.04C1178.28 1123.26 1180.69 1120.52 1180.56 1120.23L1180.58 1120.22ZM1163.11 1123.31C1162.66 1123.47 1161.8 1123.39 1160.19 1123C1153.3 1121.29 1152.71 1121.71 1153.69 1128.81C1157.28 1127.76 1161.91 1128.53 1163.08 1123.32L1163.11 1123.31ZM1205.98 1129.15C1207.95 1126.57 1205.21 1125.19 1205.01 1123.38C1205.08 1121.72 1206.67 1119.37 1203.76 1119.37C1202.43 1119.37 1200.88 1121.01 1199.87 1122.27C1197.75 1124.91 1197.12 1124.65 1202.21 1130.84C1203.06 1131.88 1205.05 1130.43 1206.01 1129.17L1205.98 1129.15ZM1152.21 1138.89C1154.69 1135.95 1154.59 1132.79 1153.49 1129.5C1151.32 1131.22 1148.98 1132.75 1147.1 1134.76C1141.48 1140.68 1141 1152.16 1152.21 1138.91L1152.21 1138.89ZM1027.72 1171.09C1026.18 1170.31 1024.44 1171.95 1024.05 1173.9C1023.26 1177.82 1021.87 1177.17 1019.81 1174.72C1013.11 1166.76 1011.22 1185.82 1005.21 1176.73C1003.79 1174.61 1000.87 1176.12 998.603 1176.32C997.392 1179.26 995.901 1183.58 993.277 1186.46C995.4 1184.76 997.631 1183.06 1001.56 1183.85C1004.58 1184.47 995.815 1201.61 986.94 1193.22C987.162 1191.97 987.378 1190.68 987.574 1189.43C987.916 1189.42 988.224 1189.37 988.526 1189.28C988.219 1189.34 987.886 1189.4 987.574 1189.43C987.057 1183.52 993.214 1177.67 998.312 1176.03C995.925 1171.91 992.426 1173.77 987.192 1175.38C986.373 1172.91 991.806 1168.46 984.61 1167.86C980.339 1167.5 976.678 1160.15 970.266 1165.91C962.237 1173.11 965.702 1174.86 957.389 1180.21C948.225 1186.1 942.452 1195.53 933.681 1201.7C932.415 1202.59 932.666 1203.68 934.423 1203.89C940.628 1204.57 935.506 1208.99 937.2 1212.2C939.791 1217.15 944.394 1201.42 949.023 1202.01C960.065 1203.39 963.167 1193.09 969.756 1188.01C969.963 1187.84 968.118 1185.4 967.634 1183.9C966.773 1181.2 968.622 1178.27 970.875 1179.03C975.639 1180.65 980.175 1180.14 984.786 1178.88C977.07 1192.32 974.377 1190.74 984.319 1193.65C982.883 1195.49 981.442 1197.31 980.005 1199.16C975.796 1204.53 985.694 1207.92 979.349 1208.8C960.519 1211.43 978.554 1210.98 966.352 1237.29C963.443 1243.56 972.263 1238.97 972.76 1235.44C973.953 1226.87 991.763 1209.88 998.885 1201.18C1003.65 1195.37 1012.69 1201.93 1014.14 1200.29C1056.9 1151.75 1036.32 1175.34 1027.72 1171.09ZM1036.76 1201.21C1030.36 1196.55 1041.39 1199.73 1042.39 1184.85C1043.12 1173.87 1024.01 1201.17 1023.64 1202.03C1030.47 1205.71 1042.76 1205.57 1036.77 1201.23L1036.76 1201.21ZM1266.9 1105.16C1261.85 1108.24 1264.52 1108.5 1267.88 1109.13C1275.2 1110.53 1258.68 1116.73 1263.42 1122.69C1265 1124.7 1269.74 1122.73 1269.94 1122.38C1275.07 1113.17 1285.27 1095.82 1274.42 1102.76C1271.32 1101.53 1269.39 1103.62 1266.89 1105.13L1266.9 1105.16ZM1291.85 1084.1C1290.43 1090.84 1301.29 1086.56 1298.53 1093.78C1295.05 1102.77 1270.26 1130.94 1267.86 1134.79C1264.13 1140.76 1262.46 1148.17 1253.97 1149.48C1240.22 1166.84 1241.5 1163.99 1242.35 1168.2C1242.44 1168.71 1244.2 1172.86 1245.9 1170.12C1258.96 1148.97 1252 1175.04 1319.54 1079.44C1319.83 1079.02 1320.11 1078.52 1320.42 1078.01C1319.7 1078.46 1318.99 1078.88 1318.3 1079.3C1315.18 1081.08 1311.88 1082.84 1308.41 1083.71C1308.19 1084.07 1307.94 1084.43 1307.65 1084.77C1304.42 1088.8 1301.29 1084.82 1298.12 1084.39C1297.06 1084.24 1291.94 1083.74 1291.85 1084.12L1291.85 1084.1ZM1272.36 1072.75C1272.99 1073.45 1273.59 1074.74 1273.7 1075.6C1273.93 1077.62 1273.15 1078.85 1271.96 1080.33C1272.39 1079.91 1272.79 1079.49 1273.27 1079.06C1280.74 1077.68 1283.64 1070.2 1287.06 1066.75C1282.8 1069.95 1277.59 1071.4 1272.36 1072.77L1272.36 1072.75ZM1485.48 644.805C1483.35 650.111 1497.49 654.579 1497.86 654.723C1498.29 654.91 1500.06 652.42 1500.8 650.937C1501.4 649.769 1501.05 646.343 1499.85 646.904C1495.18 649.128 1486.49 642.215 1485.48 644.78L1485.48 644.805ZM1600.04 624.193C1596.79 628.724 1609.68 623.129 1607.63 618.688C1606.89 617.103 1602.42 620.877 1600.04 624.193ZM1594.27 591.255C1597.69 590.29 1602.7 580.467 1603.55 575.103C1605.04 565.814 1587.37 593.169 1594.27 591.255ZM1531.19 575.096C1533.27 578.394 1535.56 573.642 1535.77 573.365C1543.1 570.898 1536.93 567.919 1536.2 568.315C1533.45 569.741 1529.44 572.293 1531.22 575.091L1531.19 575.096ZM1651.71 511.561C1646.3 520.055 1655.15 520.749 1655.53 515.284C1655.65 513.729 1655.1 512.163 1654.84 510.596C1653.79 510.92 1652.74 511.243 1651.68 511.566L1651.71 511.561ZM1656.34 503.687C1658.21 505.991 1664.37 497.388 1656.72 495.629C1655.16 496.892 1654.88 501.915 1656.34 503.687ZM1632.9 471.496C1632.9 471.496 1633 471.559 1633.06 471.601C1633 471.559 1632.97 471.538 1632.9 471.496ZM1630.61 470.511C1630.61 470.511 1630.69 470.523 1630.75 470.539C1630.7 470.548 1630.67 470.527 1630.61 470.511ZM1631.07 470.586C1631.07 470.586 1631.35 470.667 1631.47 470.725C1631.33 470.672 1631.19 470.618 1631.07 470.586ZM1631.66 470.77C1631.86 470.865 1632.09 470.956 1632.3 471.103C1632.07 470.961 1631.86 470.865 1631.66 470.77ZM1621.03 474.975C1625.49 472.895 1627.57 470.932 1629.53 470.548C1628.8 470.601 1628.33 470.317 1627.03 467.273C1629.95 465.712 1630.43 463.561 1630.87 461.18C1629.79 464.075 1628.38 466.526 1627.03 467.273C1624.78 466.809 1622.28 465.835 1620.65 468.114C1619.62 469.57 1618.03 476.366 1621 474.98L1621.03 474.975ZM1565.5 493.678C1565.84 493.827 1568 494.942 1568.08 493.607C1568.87 477.992 1561.34 488.852 1565.5 493.678ZM1591.19 484.279C1592.72 489.794 1597.49 482.289 1596.59 480.231C1593.59 473.45 1594.47 465.172 1588.82 459.426C1586.26 467.006 1583.44 473.943 1582.82 475.617C1580.37 482.382 1589.85 479.498 1591.19 484.279ZM1573.72 465.976C1569.91 468.598 1570.75 475.427 1578.29 470.779C1582.19 468.378 1578.89 462.419 1573.72 465.976ZM1523.67 457.899C1523.96 462.686 1533.85 457.187 1531.28 449.005C1527.47 448.401 1523.28 451.7 1523.67 457.899ZM1580.33 287.817C1578.63 286.011 1576.07 293.034 1579.12 296.315C1580.34 297.628 1587.97 295.977 1580.33 287.817ZM1559.35 336.163C1557.31 336.402 1553.67 340.553 1554.88 342.239C1557.33 345.682 1555.28 350.55 1558.89 353.411C1553.76 358.679 1563.49 364.636 1562.84 360.337C1562.52 358.095 1562.04 355.882 1561.58 353.664C1564 351.4 1564.71 353.704 1561.8 339.555C1561.52 338.202 1562.39 335.824 1559.35 336.163ZM1519.28 358.249C1524.15 356.994 1521.96 353.953 1520.88 351.637C1514.26 344.297 1514.65 359.433 1519.28 358.249ZM1578.55 359.31C1580.2 350.733 1582.87 338.822 1580.48 339.31C1572.11 340.989 1573.83 342.05 1574.2 364.015C1576.21 362.989 1578.07 361.751 1578.53 359.314L1578.55 359.31ZM1557.7 390.257C1559.65 386.306 1550.07 383.073 1550.29 377.294C1551.91 336.668 1532.23 387.66 1556 392.682C1556.38 392.771 1557.26 391.184 1557.7 390.283L1557.7 390.257ZM1520.61 418.175C1525.53 420.059 1530.57 422.926 1529.95 418.357C1528.3 405.883 1523.21 408.922 1520.61 418.175ZM1502.81 405.669C1505.22 407.693 1506.33 407.12 1506.59 405.354C1507.86 396.475 1507.57 396.184 1506.35 396.009C1503.91 395.685 1500.6 400.914 1502.81 405.669ZM1521.16 386.259C1529.42 385.155 1526.74 379.666 1528.66 392.619C1529.48 398.156 1537.97 398.124 1537.47 404.536C1537.11 409.256 1536.35 413.969 1535.86 418.686C1535.58 421.381 1539.19 420.302 1539.64 419.269C1544.41 408.089 1553.64 392.079 1542.48 392.411C1529.65 392.785 1539.28 366.915 1528.27 381.133C1523.39 378.422 1520.49 377.467 1521.17 386.284L1521.16 386.259ZM1515.9 364.707C1515.9 364.391 1514.21 363.983 1513.3 363.936C1512.24 363.892 1509.89 368.734 1513.66 377.121C1522.54 379.581 1516.06 369.069 1515.87 364.686L1515.9 364.707ZM1471.86 383.017C1476.05 380.749 1476.21 375.643 1474.64 372.542C1469.46 362.375 1477.31 371.977 1482.56 367.217C1484.21 365.7 1484.97 363.182 1486.66 361.711C1488.08 360.476 1491.57 361.349 1490.4 357.699C1489.49 354.85 1491.06 350.519 1482.11 347.885C1474.04 345.49 1484.79 333.355 1472.83 339.15C1471.33 336.382 1468.46 334.601 1463.77 335.135C1466.45 352.077 1464.71 351.944 1471.22 349.651C1471.83 354.459 1470.56 353.263 1466.61 371.909C1472.86 375.114 1469.15 384.541 1471.87 383.069L1471.86 383.017ZM1452.73 371.045C1453.13 371.368 1453.86 372.029 1453.91 371.995C1466.49 360.163 1448.06 358.405 1452.73 371.045ZM1424.34 385.402C1429.3 385.006 1428.23 381.179 1427.98 376.04C1426.3 377.403 1424.55 378.699 1423.03 380.193C1420.42 382.729 1422.7 385.516 1424.34 385.402ZM1428.45 375.426C1432.64 374.745 1438.3 374.723 1434.74 366.508C1434.71 366.753 1434.36 366.895 1433.59 367.008C1428.83 367.74 1426.52 368.133 1428.45 375.426ZM1435.19 333.447C1436.56 340.974 1430.51 346.542 1430.32 353.823C1430.13 362.639 1434.53 365.356 1434.7 366.411C1436.36 366.797 1438.07 367.068 1439.7 367.566C1448.9 370.338 1443.48 360.901 1446.71 360.157C1449.48 359.523 1450.68 358.141 1450.75 355.457C1450.87 350.728 1451.48 345.936 1450.92 341.276C1450.45 337.342 1455.05 332.407 1450.74 330.069C1448.45 328.819 1434.36 329.129 1435.17 333.451L1435.19 333.447ZM1496.52 316.23C1493.49 330.983 1489.55 342.066 1494.72 345.623C1500.34 351.399 1499.47 349.204 1501.99 346.074C1506.87 340.031 1500.6 334.744 1499.72 317.078C1499.66 315.765 1497.12 313.423 1496.55 316.225L1496.52 316.23ZM1563.94 299.944C1564.27 302.185 1564.86 304.431 1564.81 306.635C1564.44 319.185 1567.74 313.879 1572.7 315.121C1574.78 315.643 1576.47 318.113 1578.91 316.268C1582.13 313.886 1579.24 311.078 1579.45 308.581C1580.01 301.919 1572.14 301.708 1571.12 296.233C1570.09 290.682 1567.16 295.127 1565.04 295.803C1564.79 294.13 1564.56 292.452 1564.24 290.792C1562.67 283.062 1551.1 311.506 1563.94 299.944ZM1548.53 211.128C1547.59 213.097 1546.52 215.038 1545.78 217.102C1545.22 218.685 1545.39 220.663 1543.34 221.3C1532.46 224.705 1531.3 242.661 1533.43 244.628C1542.71 253.231 1535.32 269.754 1543.15 274.732C1545.89 269.712 1544.19 264.996 1545.7 259.485C1547.21 253.949 1545.44 247.869 1541.12 243.127C1534.51 235.889 1540.75 229.15 1542.07 230.047C1544.76 231.86 1542.35 236.978 1543.23 239.755C1544.49 243.626 1552.48 244.712 1550.8 239.093C1546.64 225.356 1563.7 230.855 1548.51 211.159L1548.53 211.128ZM1556.94 266.04C1562.73 255.414 1563.29 256.899 1554.55 252.747C1552.27 257.974 1549.66 262.654 1556.94 266.04ZM1566.44 237.973C1567.06 233.973 1557.01 226.357 1560.27 244.647C1560.42 245.466 1561.75 246.046 1562.53 246.749C1563.91 243.854 1565.94 241.027 1566.42 237.978L1566.44 237.973ZM1578.25 263.255C1578.76 256.312 1578.42 248.282 1571.19 248.404C1562.2 256.436 1577.84 269.148 1578.25 263.255ZM1566.21 280.808C1570.04 280.534 1572.55 268.681 1565.41 270.188C1564.88 280.493 1564.48 280.936 1566.21 280.808ZM1559.15 275.609C1560.27 272.127 1559.19 269.281 1557.17 266.606C1552.18 274.653 1557.71 280.049 1559.15 275.609ZM1477.62 260.922C1482.07 257.76 1475.57 254.868 1471.5 257.062C1472.95 261.875 1471.76 265.08 1477.62 260.922ZM1452.51 289.972C1455.72 283.623 1463.45 286.874 1463.03 279.017C1456.48 272.694 1442.39 282.922 1452.51 289.972ZM1555.61 188.924C1557.66 190.614 1557.78 189.958 1560.56 177.895C1561.62 173.366 1558.98 173.289 1553.26 168.272C1549.67 176.885 1552.1 186.044 1555.61 188.924ZM1553.29 167.287C1558.87 161.037 1555.63 158.003 1553.35 157.57C1551.95 157.295 1552.25 157.77 1553.29 167.287ZM1559.52 85.4922C1569.28 84.9105 1558.78 70.2075 1556.79 86.3317C1551.44 92.8565 1556.08 97.2775 1561.22 104.78C1573.6 97.5078 1548.79 86.1178 1559.52 85.4922ZM1598.32 108.968C1592.03 101.674 1590.69 107.26 1591.01 107.439C1599.71 112.366 1598.25 111.758 1598.32 108.968ZM1571.48 108.709C1570.44 109.349 1570.06 108.704 1571.43 116.125C1572.34 121.143 1579.49 111.46 1571.48 108.709ZM1561.03 105.476C1554.04 113.86 1544.63 122.921 1558.25 121.321C1564.85 120.545 1562.78 115.103 1561.03 105.476ZM1535.45 123.186C1538.14 128.251 1541.97 117.718 1535.87 115.466C1533.81 117.691 1534.16 120.749 1535.45 123.186ZM1509.54 75.3127C1503.56 73.2769 1504.58 85.4429 1511.54 88.8335C1515.98 90.9899 1515.6 93.8364 1515.08 97.3949C1514.48 101.498 1518.15 101.65 1520.36 103.287C1519.09 104.495 1517.24 105.493 1516.84 106.94C1515.93 110.226 1517.19 113.965 1514.79 117.071C1513.65 118.521 1520.41 121.79 1521.06 118.393C1522.05 113.372 1525.01 108.076 1520.36 103.287C1526.34 99.0805 1520.05 85.1468 1520.45 72.4598C1520.5 71.0215 1517.98 69.3637 1516.88 68.9817C1513.83 67.8963 1517.6 78.0542 1509.54 75.3127ZM1529.65 60.5013C1534.32 67.0055 1537.16 51.0444 1529.23 53.4094C1528.3 54.9546 1526.21 55.6779 1529.65 60.5013ZM1517.84 23.1587C1516.68 24.4548 1516.01 26.1886 1514.98 27.6197C1510.58 33.7072 1510.52 33.691 1515.83 40.9005C1523.53 51.7462 1516.41 35.5056 1524.29 32.4354C1527.12 31.312 1519.85 20.9691 1517.85 23.1844L1517.84 23.1587Z" fill="#98E0FF"/>
</svg>
